<svg viewBox="0 0 701 515" xmlns="http://www.w3.org/2000/svg">

<style>
  .sm { font: 12px sans-serif; }
  .lg { font: 15px sans-serif; }
</style>
<rect fill="#ddd" x="0" y="0" width="100%" height="100%"/>
<text x="20" y="20" class="lg">ch.18100 X:3787926-3788626 Gene:WBGene00018532</text>
<text x="20" y="50" class="sm">WormBase</text>
<rect x="100" y="40" width="60" height="12" fill="#00f"/>
<rect x="239" y="40" width="362" height="12" fill="#00f"/>
<line x1="160" y1="46" x2="238" y2="46" stroke="#00f"/>
<rect x="107" y="41" width="53" height="10" fill="#ff0"/>
<rect x="240" y="41" width="125" height="10" fill="#ff0"/>
<rect x="101" y="41" width="5" height="10" fill="brown"><title>.</title></rect>
<rect x="366" y="41" width="235" height="10" fill="brown"><title>.</title></rect>
<text x="20" y="70" class="sm">Fitness: 3.7751374982922246e-06</text>
<rect x="160" y="65" width="79" height="5" fill="#00f"><title>1826950.0</title></rect>
<rect x="164" y="70" width="75" height="5" fill="#00f"><title>16.0</title></rect>
<rect x="298" y="75" width="197" height="5" fill="#00f"><title>3.0</title></rect>
<text x="20" y="105" class="sm">1.0</text>
<rect x="100" y="95" width="60" height="12" fill="#00f"/>
<rect x="239" y="95" width="365" height="12" fill="#00f"/>
<line x1="160" y1="101" x2="238" y2="101" stroke="#00f"/>
<rect x="107" y="96" width="53" height="10" fill="#ff0"/>
<rect x="240" y="96" width="125" height="10" fill="#ff0"/>
<text x="20" y="125" class="sm">8.85e-06</text>
<rect x="100" y="115" width="64" height="12" fill="#00f"/>
<rect x="239" y="115" width="365" height="12" fill="#00f"/>
<line x1="164" y1="121" x2="238" y2="121" stroke="#00f"/>
<rect x="107" y="116" width="57" height="10" fill="#ff0"/>
<rect x="240" y="116" width="268" height="10" fill="#ff0"/>
<text x="20" y="145" class="sm">1.27e-06</text>
<rect x="100" y="135" width="77" height="12" fill="#00f"/>
<rect x="239" y="135" width="365" height="12" fill="#00f"/>
<line x1="177" y1="141" x2="238" y2="141" stroke="#00f"/>
<rect x="107" y="136" width="70" height="10" fill="#ff0"/>
<rect x="240" y="136" width="51" height="10" fill="#ff0"/>
<text x="20" y="165" class="sm">2.433e-07</text>
<rect x="100" y="155" width="67" height="12" fill="#00f"/>
<rect x="239" y="155" width="365" height="12" fill="#00f"/>
<line x1="167" y1="161" x2="238" y2="161" stroke="#00f"/>
<rect x="107" y="156" width="60" height="10" fill="#ff0"/>
<rect x="240" y="156" width="268" height="10" fill="#ff0"/>
<text x="20" y="185" class="sm">1.237e-07</text>
<rect x="100" y="175" width="35" height="12" fill="#00f"/>
<rect x="239" y="175" width="365" height="12" fill="#00f"/>
<line x1="135" y1="181" x2="238" y2="181" stroke="#00f"/>
<rect x="395" y="176" width="113" height="10" fill="#ff0"/>
<text x="20" y="205" class="sm">8.305e-08</text>
<rect x="100" y="195" width="60" height="12" fill="#00f"/>
<rect x="324" y="195" width="280" height="12" fill="#00f"/>
<line x1="160" y1="201" x2="323" y2="201" stroke="#00f"/>
<rect x="107" y="196" width="53" height="10" fill="#ff0"/>
<rect x="325" y="196" width="152" height="10" fill="#ff0"/>
<text x="20" y="225" class="sm">7.262e-08</text>
<rect x="100" y="215" width="60" height="12" fill="#00f"/>
<rect x="358" y="215" width="246" height="12" fill="#00f"/>
<line x1="160" y1="221" x2="357" y2="221" stroke="#00f"/>
<rect x="107" y="216" width="53" height="10" fill="#ff0"/>
<rect x="359" y="216" width="149" height="10" fill="#ff0"/>
<text x="20" y="245" class="sm">2.463e-09</text>
<rect x="100" y="235" width="60" height="12" fill="#00f"/>
<rect x="478" y="235" width="126" height="12" fill="#00f"/>
<line x1="160" y1="241" x2="477" y2="241" stroke="#00f"/>
<rect x="107" y="236" width="53" height="10" fill="#ff0"/>
<rect x="479" y="236" width="29" height="10" fill="#ff0"/>
<text x="20" y="265" class="sm">7.881e-11</text>
<rect x="100" y="255" width="336" height="12" fill="#00f"/>
<rect x="478" y="255" width="126" height="12" fill="#00f"/>
<line x1="436" y1="261" x2="477" y2="261" stroke="#00f"/>
<rect x="207" y="256" width="158" height="10" fill="#ff0"/>
<text x="20" y="285" class="sm">6.837e-11</text>
<rect x="100" y="275" width="243" height="12" fill="#00f"/>
<rect x="478" y="275" width="126" height="12" fill="#00f"/>
<line x1="343" y1="281" x2="477" y2="281" stroke="#00f"/>
<rect x="207" y="276" width="136" height="10" fill="#ff0"/>
<rect x="479" y="276" width="96" height="10" fill="#ff0"/>
<text x="20" y="305" class="sm">4.654e-11</text>
<rect x="100" y="295" width="60" height="12" fill="#00f"/>
<rect x="365" y="295" width="239" height="12" fill="#00f"/>
<line x1="160" y1="301" x2="364" y2="301" stroke="#00f"/>
<rect x="395" y="296" width="113" height="10" fill="#ff0"/>
<text x="20" y="325" class="sm">1.142e-11</text>
<rect x="100" y="315" width="187" height="12" fill="#00f"/>
<rect x="324" y="315" width="280" height="12" fill="#00f"/>
<line x1="287" y1="321" x2="323" y2="321" stroke="#00f"/>
<rect x="207" y="316" width="80" height="10" fill="#ff0"/>
<rect x="325" y="316" width="152" height="10" fill="#ff0"/>
<text x="20" y="345" class="sm">8.685e-12</text>
<rect x="100" y="335" width="187" height="12" fill="#00f"/>
<rect x="358" y="335" width="246" height="12" fill="#00f"/>
<line x1="287" y1="341" x2="357" y2="341" stroke="#00f"/>
<rect x="207" y="336" width="80" height="10" fill="#ff0"/>
<rect x="359" y="336" width="149" height="10" fill="#ff0"/>
<text x="20" y="365" class="sm">5.548e-12</text>
<rect x="100" y="355" width="60" height="12" fill="#00f"/>
<rect x="468" y="355" width="136" height="12" fill="#00f"/>
<line x1="160" y1="361" x2="467" y2="361" stroke="#00f"/>
<rect x="107" y="356" width="53" height="10" fill="#ff0"/>
<rect x="469" y="356" width="8" height="10" fill="#ff0"/>
<text x="20" y="385" class="sm">8.46e-13</text>
<rect x="100" y="375" width="60" height="12" fill="#00f"/>
<rect x="360" y="375" width="244" height="12" fill="#00f"/>
<line x1="160" y1="381" x2="359" y2="381" stroke="#00f"/>
<rect x="107" y="376" width="53" height="10" fill="#ff0"/>
<rect x="361" y="376" width="116" height="10" fill="#ff0"/>
<text x="20" y="405" class="sm">7.257e-13</text>
<rect x="100" y="395" width="64" height="12" fill="#00f"/>
<rect x="324" y="395" width="280" height="12" fill="#00f"/>
<line x1="164" y1="401" x2="323" y2="401" stroke="#00f"/>
<rect x="395" y="396" width="113" height="10" fill="#ff0"/>
<text x="20" y="425" class="sm">6.639e-13</text>
<rect x="100" y="415" width="64" height="12" fill="#00f"/>
<rect x="358" y="415" width="246" height="12" fill="#00f"/>
<line x1="164" y1="421" x2="357" y2="421" stroke="#00f"/>
<rect x="107" y="416" width="57" height="10" fill="#ff0"/>
<rect x="359" y="416" width="118" height="10" fill="#ff0"/>
<text x="20" y="445" class="sm">4.619e-13</text>
<rect x="100" y="435" width="226" height="12" fill="#00f"/>
<rect x="478" y="435" width="126" height="12" fill="#00f"/>
<line x1="326" y1="441" x2="477" y2="441" stroke="#00f"/>
<rect x="207" y="436" width="119" height="10" fill="#ff0"/>
<rect x="479" y="436" width="29" height="10" fill="#ff0"/>
<text x="20" y="465" class="sm">4.457e-13</text>
<rect x="100" y="455" width="187" height="12" fill="#00f"/>
<rect x="478" y="455" width="126" height="12" fill="#00f"/>
<line x1="287" y1="461" x2="477" y2="461" stroke="#00f"/>
<rect x="207" y="456" width="80" height="10" fill="#ff0"/>
<rect x="479" y="456" width="29" height="10" fill="#ff0"/>
<text x="20" y="485" class="sm">2.888e-13</text>
<rect x="100" y="475" width="217" height="12" fill="#00f"/>
<rect x="358" y="475" width="246" height="12" fill="#00f"/>
<line x1="317" y1="481" x2="357" y2="481" stroke="#00f"/>
<rect x="207" y="476" width="110" height="10" fill="#ff0"/>
<rect x="359" y="476" width="149" height="10" fill="#ff0"/>
</svg>
