<svg viewBox="0 0 703 575" xmlns="http://www.w3.org/2000/svg">

<style>
  .sm { font: 12px sans-serif; }
  .lg { font: 15px sans-serif; }
</style>
<rect fill="#ddd" x="0" y="0" width="100%" height="100%"/>
<text x="20" y="20" class="lg">ch.14737 V:9547005-9547707 Gene:WBGene00001911</text>
<text x="20" y="50" class="sm">WormBase</text>
<rect x="100" y="40" width="125" height="12" fill="#00f"/>
<rect x="299" y="40" width="304" height="12" fill="#00f"/>
<line x1="225" y1="46" x2="298" y2="46" stroke="#00f"/>
<rect x="130" y="41" width="95" height="10" fill="#ff0"/>
<rect x="300" y="41" width="215" height="10" fill="#ff0"/>
<rect x="101" y="41" width="28" height="10" fill="brown"><title>.</title></rect>
<rect x="516" y="41" width="87" height="10" fill="brown"><title>.</title></rect>
<text x="20" y="70" class="sm">Fitness: 0.00015111367154403945</text>
<rect x="225" y="65" width="74" height="5" fill="#00f"><title>2038000.0</title></rect>
<rect x="377" y="70" width="45" height="5" fill="#f0f"><title>954.0</title></rect>
<rect x="534" y="75" width="87" height="5" fill="#00f"><title>71.0</title></rect>
<rect x="225" y="80" width="78" height="5" fill="#00f"><title>46.0</title></rect>
<rect x="225" y="85" width="396" height="5" fill="#00f"><title>28.0</title></rect>
<rect x="389" y="90" width="83" height="5" fill="#f0f"><title>27.0</title></rect>
<rect x="383" y="95" width="107" height="5" fill="#00f"><title>19.0</title></rect>
<rect x="383" y="100" width="103" height="5" fill="#00f"><title>12.0</title></rect>
<rect x="383" y="105" width="238" height="5" fill="#00f"><title>10.0</title></rect>
<rect x="540" y="110" width="81" height="5" fill="#00f"><title>7.0</title></rect>
<rect x="389" y="115" width="72" height="5" fill="#f0f"><title>6.0</title></rect>
<rect x="538" y="120" width="130" height="5" fill="#f0f"><title>6.0</title></rect>
<rect x="327" y="125" width="48" height="5" fill="#00f"><title>4.0</title></rect>
<rect x="229" y="130" width="74" height="5" fill="#00f"><title>3.0</title></rect>
<rect x="355" y="135" width="67" height="5" fill="#f0f"><title>3.0</title></rect>
<text x="20" y="165" class="sm">0.9999</text>
<rect x="100" y="155" width="125" height="12" fill="#00f"/>
<rect x="299" y="155" width="307" height="12" fill="#00f"/>
<line x1="225" y1="161" x2="298" y2="161" stroke="#00f"/>
<rect x="130" y="156" width="95" height="10" fill="#ff0"/>
<rect x="300" y="156" width="215" height="10" fill="#ff0"/>
<text x="20" y="185" class="sm">4.56e-05</text>
<rect x="100" y="175" width="125" height="12" fill="#00f"/>
<rect x="303" y="175" width="303" height="12" fill="#00f"/>
<line x1="225" y1="181" x2="302" y2="181" stroke="#00f"/>
<rect x="130" y="176" width="95" height="10" fill="#ff0"/>
<rect x="304" y="176" width="77" height="10" fill="#ff0"/>
<text x="20" y="205" class="sm">2.848e-05</text>
<rect x="100" y="195" width="87" height="12" fill="#00f"/>
<rect x="299" y="195" width="307" height="12" fill="#00f"/>
<line x1="187" y1="201" x2="298" y2="201" stroke="#00f"/>
<rect x="130" y="196" width="57" height="10" fill="#ff0"/>
<rect x="300" y="196" width="94" height="10" fill="#ff0"/>
<text x="20" y="225" class="sm">7.48e-06</text>
<rect x="100" y="215" width="99" height="12" fill="#00f"/>
<rect x="299" y="215" width="307" height="12" fill="#00f"/>
<line x1="199" y1="221" x2="298" y2="221" stroke="#00f"/>
<rect x="130" y="216" width="69" height="10" fill="#ff0"/>
<rect x="300" y="216" width="94" height="10" fill="#ff0"/>
<text x="20" y="245" class="sm">1.6e-06</text>
<rect x="100" y="235" width="125" height="12" fill="#00f"/>
<rect x="299" y="235" width="124" height="12" fill="#00f"/>
<rect x="486" y="235" width="120" height="12" fill="#00f"/>
<line x1="225" y1="241" x2="298" y2="241" stroke="#00f"/>
<line x1="423" y1="241" x2="485" y2="241" stroke="#00f"/>
<rect x="130" y="236" width="95" height="10" fill="#ff0"/>
<rect x="300" y="236" width="123" height="10" fill="#ff0"/>
<rect x="487" y="236" width="1" height="10" fill="#ff0"/>
<text x="20" y="265" class="sm">2.456e-07</text>
<rect x="100" y="255" width="125" height="12" fill="#00f"/>
<rect x="299" y="255" width="147" height="12" fill="#00f"/>
<rect x="486" y="255" width="120" height="12" fill="#00f"/>
<line x1="225" y1="261" x2="298" y2="261" stroke="#00f"/>
<line x1="446" y1="261" x2="485" y2="261" stroke="#00f"/>
<rect x="130" y="256" width="95" height="10" fill="#ff0"/>
<rect x="300" y="256" width="146" height="10" fill="#ff0"/>
<rect x="487" y="256" width="41" height="10" fill="#ff0"/>
<text x="20" y="285" class="sm">2.822e-08</text>
<rect x="100" y="275" width="129" height="12" fill="#00f"/>
<rect x="299" y="275" width="307" height="12" fill="#00f"/>
<line x1="229" y1="281" x2="298" y2="281" stroke="#00f"/>
<rect x="130" y="276" width="99" height="10" fill="#ff0"/>
<rect x="300" y="276" width="94" height="10" fill="#ff0"/>
<text x="20" y="305" class="sm">1.808e-08</text>
<rect x="100" y="295" width="125" height="12" fill="#00f"/>
<rect x="299" y="295" width="208" height="12" fill="#00f"/>
<rect x="564" y="295" width="42" height="12" fill="#00f"/>
<line x1="225" y1="301" x2="298" y2="301" stroke="#00f"/>
<line x1="507" y1="301" x2="563" y2="301" stroke="#00f"/>
<rect x="130" y="296" width="95" height="10" fill="#ff0"/>
<rect x="300" y="296" width="207" height="10" fill="#ff0"/>
<rect x="565" y="296" width="13" height="10" fill="#ff0"/>
<text x="20" y="325" class="sm">2.091e-09</text>
<rect x="100" y="315" width="125" height="12" fill="#00f"/>
<rect x="299" y="315" width="40" height="12" fill="#00f"/>
<rect x="383" y="315" width="223" height="12" fill="#00f"/>
<line x1="225" y1="321" x2="298" y2="321" stroke="#00f"/>
<line x1="339" y1="321" x2="382" y2="321" stroke="#00f"/>
<rect x="130" y="316" width="95" height="10" fill="#ff0"/>
<rect x="300" y="316" width="39" height="10" fill="#ff0"/>
<rect x="384" y="316" width="10" height="10" fill="#ff0"/>
<text x="20" y="345" class="sm">1.112e-09</text>
<rect x="100" y="335" width="87" height="12" fill="#00f"/>
<rect x="303" y="335" width="303" height="12" fill="#00f"/>
<line x1="187" y1="341" x2="302" y2="341" stroke="#00f"/>
<rect x="130" y="336" width="57" height="10" fill="#ff0"/>
<rect x="304" y="336" width="211" height="10" fill="#ff0"/>
<text x="20" y="365" class="sm">7.162e-10</text>
<rect x="100" y="355" width="92" height="12" fill="#00f"/>
<rect x="299" y="355" width="307" height="12" fill="#00f"/>
<line x1="192" y1="361" x2="298" y2="361" stroke="#00f"/>
<rect x="130" y="356" width="62" height="10" fill="#ff0"/>
<rect x="300" y="356" width="215" height="10" fill="#ff0"/>
<text x="20" y="385" class="sm">4.015e-10</text>
<rect x="100" y="375" width="99" height="12" fill="#00f"/>
<rect x="303" y="375" width="303" height="12" fill="#00f"/>
<line x1="199" y1="381" x2="302" y2="381" stroke="#00f"/>
<rect x="130" y="376" width="69" height="10" fill="#ff0"/>
<rect x="304" y="376" width="211" height="10" fill="#ff0"/>
<text x="20" y="405" class="sm">2.595e-10</text>
<rect x="100" y="395" width="125" height="12" fill="#00f"/>
<rect x="299" y="395" width="147" height="12" fill="#00f"/>
<rect x="490" y="395" width="116" height="12" fill="#00f"/>
<line x1="225" y1="401" x2="298" y2="401" stroke="#00f"/>
<line x1="446" y1="401" x2="489" y2="401" stroke="#00f"/>
<rect x="130" y="396" width="95" height="10" fill="#ff0"/>
<rect x="300" y="396" width="146" height="10" fill="#ff0"/>
<rect x="491" y="396" width="53" height="10" fill="#ff0"/>
<text x="20" y="425" class="sm">1.95e-10</text>
<rect x="100" y="415" width="125" height="12" fill="#00f"/>
<rect x="299" y="415" width="106" height="12" fill="#00f"/>
<rect x="443" y="415" width="163" height="12" fill="#00f"/>
<line x1="225" y1="421" x2="298" y2="421" stroke="#00f"/>
<line x1="405" y1="421" x2="442" y2="421" stroke="#00f"/>
<rect x="130" y="416" width="95" height="10" fill="#ff0"/>
<rect x="300" y="416" width="105" height="10" fill="#ff0"/>
<rect x="444" y="416" width="100" height="10" fill="#ff0"/>
<text x="20" y="445" class="sm">9.767e-11</text>
<rect x="100" y="435" width="125" height="12" fill="#00f"/>
<rect x="299" y="435" width="124" height="12" fill="#00f"/>
<rect x="490" y="435" width="116" height="12" fill="#00f"/>
<line x1="225" y1="441" x2="298" y2="441" stroke="#00f"/>
<line x1="423" y1="441" x2="489" y2="441" stroke="#00f"/>
<rect x="130" y="436" width="95" height="10" fill="#ff0"/>
<rect x="300" y="436" width="123" height="10" fill="#ff0"/>
<rect x="491" y="436" width="1" height="10" fill="#ff0"/>
<text x="20" y="465" class="sm">8.913e-11</text>
<rect x="100" y="455" width="125" height="12" fill="#00f"/>
<rect x="299" y="455" width="28" height="12" fill="#00f"/>
<rect x="383" y="455" width="223" height="12" fill="#00f"/>
<line x1="225" y1="461" x2="298" y2="461" stroke="#00f"/>
<line x1="327" y1="461" x2="382" y2="461" stroke="#00f"/>
<rect x="130" y="456" width="95" height="10" fill="#ff0"/>
<rect x="300" y="456" width="27" height="10" fill="#ff0"/>
<rect x="384" y="456" width="10" height="10" fill="#ff0"/>
<text x="20" y="485" class="sm">7e-11</text>
<rect x="100" y="475" width="125" height="12" fill="#00f"/>
<rect x="303" y="475" width="120" height="12" fill="#00f"/>
<rect x="486" y="475" width="120" height="12" fill="#00f"/>
<line x1="225" y1="481" x2="302" y2="481" stroke="#00f"/>
<line x1="423" y1="481" x2="485" y2="481" stroke="#00f"/>
<rect x="130" y="476" width="95" height="10" fill="#ff0"/>
<rect x="304" y="476" width="77" height="10" fill="#ff0"/>
<text x="20" y="505" class="sm">4.724e-11</text>
<rect x="100" y="495" width="72" height="12" fill="#00f"/>
<rect x="299" y="495" width="307" height="12" fill="#00f"/>
<line x1="172" y1="501" x2="298" y2="501" stroke="#00f"/>
<rect x="130" y="496" width="42" height="10" fill="#ff0"/>
<rect x="300" y="496" width="94" height="10" fill="#ff0"/>
<text x="20" y="525" class="sm">4.557e-11</text>
<rect x="100" y="515" width="87" height="12" fill="#00f"/>
<rect x="299" y="515" width="124" height="12" fill="#00f"/>
<rect x="486" y="515" width="120" height="12" fill="#00f"/>
<line x1="187" y1="521" x2="298" y2="521" stroke="#00f"/>
<line x1="423" y1="521" x2="485" y2="521" stroke="#00f"/>
<rect x="130" y="516" width="57" height="10" fill="#ff0"/>
<rect x="300" y="516" width="94" height="10" fill="#ff0"/>
<text x="20" y="545" class="sm">2.69e-11</text>
<rect x="100" y="535" width="125" height="12" fill="#00f"/>
<rect x="299" y="535" width="28" height="12" fill="#00f"/>
<rect x="375" y="535" width="231" height="12" fill="#00f"/>
<line x1="225" y1="541" x2="298" y2="541" stroke="#00f"/>
<line x1="327" y1="541" x2="374" y2="541" stroke="#00f"/>
<rect x="130" y="536" width="95" height="10" fill="#ff0"/>
<rect x="300" y="536" width="27" height="10" fill="#ff0"/>
<rect x="376" y="536" width="139" height="10" fill="#ff0"/>
</svg>
