<svg viewBox="0 0 1167 565" xmlns="http://www.w3.org/2000/svg">

<style>
  .sm { font: 12px sans-serif; }
  .lg { font: 15px sans-serif; }
</style>
<rect fill="#ddd" x="0" y="0" width="100%" height="100%"/>
<text x="20" y="20" class="lg">ch.19344 X:11419008-11420174 Gene:WBGene00045253</text>
<text x="20" y="50" class="sm">WormBase</text>
<rect x="102" y="40" width="188" height="12" fill="#00f"/>
<rect x="839" y="40" width="230" height="12" fill="#00f"/>
<line x1="290" y1="46" x2="838" y2="46" stroke="#00f"/>
<rect x="229" y="41" width="61" height="10" fill="#ff0"/>
<rect x="840" y="41" width="93" height="10" fill="#ff0"/>
<rect x="103" y="41" width="125" height="10" fill="brown"><title>.</title></rect>
<rect x="934" y="41" width="135" height="10" fill="brown"><title>.</title></rect>
<text x="20" y="70" class="sm">Fitness: 0.016480370439173855</text>
<rect x="290" y="65" width="549" height="5" fill="#00f"><title>143510.0</title></rect>
<rect x="307" y="70" width="755" height="5" fill="#f0f"><title>1570.0</title></rect>
<rect x="788" y="75" width="51" height="5" fill="#00f"><title>235.0</title></rect>
<rect x="790" y="80" width="49" height="5" fill="#00f"><title>191.0</title></rect>
<rect x="986" y="85" width="76" height="5" fill="#f0f"><title>157.0</title></rect>
<rect x="290" y="90" width="368" height="5" fill="#00f"><title>136.0</title></rect>
<rect x="304" y="95" width="758" height="5" fill="#f0f"><title>32.0</title></rect>
<rect x="800" y="100" width="39" height="5" fill="#00f"><title>16.0</title></rect>
<rect x="307" y="105" width="414" height="5" fill="#f0f"><title>16.0</title></rect>
<rect x="290" y="110" width="45" height="5" fill="#00f"><title>13.0</title></rect>
<rect x="321" y="115" width="518" height="5" fill="#00f"><title>10.0</title></rect>
<rect x="500" y="120" width="339" height="5" fill="#00f"><title>4.0</title></rect>
<rect x="290" y="125" width="499" height="5" fill="#00f"><title>4.0</title></rect>
<text x="20" y="155" class="sm">0.9917</text>
<rect x="100" y="145" width="190" height="12" fill="#00f"/>
<rect x="839" y="145" width="231" height="12" fill="#00f"/>
<line x1="290" y1="151" x2="838" y2="151" stroke="#00f"/>
<rect x="229" y="146" width="61" height="10" fill="#ff0"/>
<rect x="840" y="146" width="93" height="10" fill="#ff0"/>
<text x="20" y="175" class="sm">0.006689</text>
<rect x="100" y="165" width="194" height="12" fill="#00f"/>
<rect x="839" y="165" width="231" height="12" fill="#00f"/>
<line x1="294" y1="171" x2="838" y2="171" stroke="#00f"/>
<rect x="272" y="166" width="22" height="10" fill="#ff0"/>
<rect x="840" y="166" width="93" height="10" fill="#ff0"/>
<text x="20" y="195" class="sm">0.000777</text>
<rect x="100" y="185" width="190" height="12" fill="#00f"/>
<rect x="985" y="185" width="85" height="12" fill="#00f"/>
<line x1="290" y1="191" x2="984" y2="191" stroke="#00f"/>
<rect x="229" y="186" width="61" height="10" fill="#ff0"/>
<rect x="986" y="186" width="21" height="10" fill="#ff0"/>
<text x="20" y="215" class="sm">0.0005663</text>
<rect x="100" y="205" width="137" height="12" fill="#00f"/>
<rect x="839" y="205" width="231" height="12" fill="#00f"/>
<line x1="237" y1="211" x2="838" y2="211" stroke="#00f"/>
<rect x="850" y="206" width="83" height="10" fill="#ff0"/>
<text x="20" y="235" class="sm">0.0001543</text>
<rect x="100" y="225" width="179" height="12" fill="#00f"/>
<rect x="839" y="225" width="231" height="12" fill="#00f"/>
<line x1="279" y1="231" x2="838" y2="231" stroke="#00f"/>
<rect x="272" y="226" width="7" height="10" fill="#ff0"/>
<rect x="840" y="226" width="93" height="10" fill="#ff0"/>
<text x="20" y="255" class="sm">0.0001013</text>
<rect x="100" y="245" width="221" height="12" fill="#00f"/>
<rect x="839" y="245" width="231" height="12" fill="#00f"/>
<line x1="321" y1="251" x2="838" y2="251" stroke="#00f"/>
<rect x="229" y="246" width="92" height="10" fill="#ff0"/>
<rect x="840" y="246" width="20" height="10" fill="#ff0"/>
<text x="20" y="275" class="sm">1.016e-05</text>
<rect x="100" y="265" width="104" height="12" fill="#00f"/>
<rect x="839" y="265" width="231" height="12" fill="#00f"/>
<line x1="204" y1="271" x2="838" y2="271" stroke="#00f"/>
<rect x="850" y="266" width="83" height="10" fill="#ff0"/>
<text x="20" y="295" class="sm">5.24e-06</text>
<rect x="100" y="285" width="194" height="12" fill="#00f"/>
<rect x="985" y="285" width="85" height="12" fill="#00f"/>
<line x1="294" y1="291" x2="984" y2="291" stroke="#00f"/>
<rect x="272" y="286" width="22" height="10" fill="#ff0"/>
<rect x="986" y="286" width="21" height="10" fill="#ff0"/>
<text x="20" y="315" class="sm">4.806e-06</text>
<rect x="100" y="305" width="155" height="12" fill="#00f"/>
<rect x="839" y="305" width="231" height="12" fill="#00f"/>
<line x1="255" y1="311" x2="838" y2="311" stroke="#00f"/>
<rect x="850" y="306" width="83" height="10" fill="#ff0"/>
<text x="20" y="335" class="sm">8.624e-07</text>
<rect x="100" y="325" width="164" height="12" fill="#00f"/>
<rect x="839" y="325" width="231" height="12" fill="#00f"/>
<line x1="264" y1="331" x2="838" y2="331" stroke="#00f"/>
<rect x="850" y="326" width="83" height="10" fill="#ff0"/>
<text x="20" y="355" class="sm">4.437e-07</text>
<rect x="100" y="345" width="137" height="12" fill="#00f"/>
<rect x="985" y="345" width="85" height="12" fill="#00f"/>
<line x1="237" y1="351" x2="984" y2="351" stroke="#00f"/>
<rect x="994" y="346" width="8" height="10" fill="#ff0"/>
<text x="20" y="375" class="sm">1.209e-07</text>
<rect x="100" y="365" width="179" height="12" fill="#00f"/>
<rect x="985" y="365" width="85" height="12" fill="#00f"/>
<line x1="279" y1="371" x2="984" y2="371" stroke="#00f"/>
<rect x="272" y="366" width="7" height="10" fill="#ff0"/>
<rect x="986" y="366" width="21" height="10" fill="#ff0"/>
<text x="20" y="395" class="sm">7.939e-08</text>
<rect x="100" y="385" width="221" height="12" fill="#00f"/>
<rect x="985" y="385" width="85" height="12" fill="#00f"/>
<line x1="321" y1="391" x2="984" y2="391" stroke="#00f"/>
<rect x="314" y="386" width="7" height="10" fill="#ff0"/>
<rect x="986" y="386" width="21" height="10" fill="#ff0"/>
<text x="20" y="415" class="sm">1.637e-08</text>
<rect x="100" y="405" width="190" height="12" fill="#00f"/>
<rect x="845" y="405" width="225" height="12" fill="#00f"/>
<line x1="290" y1="411" x2="844" y2="411" stroke="#00f"/>
<rect x="229" y="406" width="61" height="10" fill="#ff0"/>
<rect x="846" y="406" width="87" height="10" fill="#ff0"/>
<text x="20" y="435" class="sm">7.958e-09</text>
<rect x="100" y="425" width="104" height="12" fill="#00f"/>
<rect x="985" y="425" width="85" height="12" fill="#00f"/>
<line x1="204" y1="431" x2="984" y2="431" stroke="#00f"/>
<rect x="994" y="426" width="8" height="10" fill="#ff0"/>
<text x="20" y="455" class="sm">6.983e-09</text>
<rect x="100" y="445" width="215" height="12" fill="#00f"/>
<rect x="839" y="445" width="231" height="12" fill="#00f"/>
<line x1="315" y1="451" x2="838" y2="451" stroke="#00f"/>
<rect x="229" y="446" width="86" height="10" fill="#ff0"/>
<rect x="840" y="446" width="20" height="10" fill="#ff0"/>
<text x="20" y="475" class="sm">3.766e-09</text>
<rect x="100" y="465" width="155" height="12" fill="#00f"/>
<rect x="985" y="465" width="85" height="12" fill="#00f"/>
<line x1="255" y1="471" x2="984" y2="471" stroke="#00f"/>
<rect x="994" y="466" width="8" height="10" fill="#ff0"/>
<text x="20" y="495" class="sm">2.553e-09</text>
<rect x="100" y="485" width="190" height="12" fill="#00f"/>
<rect x="956" y="485" width="114" height="12" fill="#00f"/>
<line x1="290" y1="491" x2="955" y2="491" stroke="#00f"/>
<rect x="229" y="486" width="61" height="10" fill="#ff0"/>
<rect x="957" y="486" width="33" height="10" fill="#ff0"/>
<text x="20" y="515" class="sm">1.455e-09</text>
<rect x="100" y="505" width="190" height="12" fill="#00f"/>
<rect x="839" y="505" width="70" height="12" fill="#00f"/>
<rect x="985" y="505" width="85" height="12" fill="#00f"/>
<line x1="290" y1="511" x2="838" y2="511" stroke="#00f"/>
<line x1="909" y1="511" x2="984" y2="511" stroke="#00f"/>
<rect x="272" y="506" width="18" height="10" fill="#ff0"/>
<rect x="840" y="506" width="28" height="10" fill="#ff0"/>
<text x="20" y="535" class="sm">6.757e-10</text>
<rect x="100" y="525" width="164" height="12" fill="#00f"/>
<rect x="985" y="525" width="85" height="12" fill="#00f"/>
<line x1="264" y1="531" x2="984" y2="531" stroke="#00f"/>
<rect x="994" y="526" width="8" height="10" fill="#ff0"/>
</svg>
