<svg viewBox="0 0 969 520" xmlns="http://www.w3.org/2000/svg">

<style>
  .sm { font: 12px sans-serif; }
  .lg { font: 15px sans-serif; }
</style>
<rect fill="#ddd" x="0" y="0" width="100%" height="100%"/>
<text x="20" y="20" class="lg">ch.13075 V:2796198-2797166 Gene:WBGene00018824</text>
<text x="20" y="50" class="sm">WormBase</text>
<rect x="100" y="40" width="271" height="12" fill="#00f"/>
<rect x="431" y="40" width="74" height="12" fill="#00f"/>
<rect x="552" y="40" width="317" height="12" fill="#00f"/>
<line x1="371" y1="46" x2="430" y2="46" stroke="#00f"/>
<line x1="505" y1="46" x2="551" y2="46" stroke="#00f"/>
<rect x="101" y="41" width="270" height="10" fill="#ff0"/>
<rect x="432" y="41" width="73" height="10" fill="#ff0"/>
<rect x="553" y="41" width="179" height="10" fill="#ff0"/>
<rect x="733" y="41" width="136" height="10" fill="brown"><title>.</title></rect>
<text x="20" y="70" class="sm">Fitness: 0.15598309342289388</text>
<rect x="505" y="65" width="47" height="5" fill="#00f"><title>192711.0</title></rect>
<rect x="371" y="70" width="60" height="5" fill="#00f"><title>156432.0</title></rect>
<rect x="371" y="75" width="41" height="5" fill="#00f"><title>64.0</title></rect>
<rect x="375" y="80" width="56" height="5" fill="#00f"><title>3.0</title></rect>
<text x="20" y="110" class="sm">0.731</text>
<rect x="100" y="100" width="271" height="12" fill="#00f"/>
<rect x="431" y="100" width="74" height="12" fill="#00f"/>
<rect x="552" y="100" width="320" height="12" fill="#00f"/>
<line x1="371" y1="106" x2="430" y2="106" stroke="#00f"/>
<line x1="505" y1="106" x2="551" y2="106" stroke="#00f"/>
<rect x="101" y="101" width="270" height="10" fill="#ff0"/>
<rect x="432" y="101" width="73" height="10" fill="#ff0"/>
<rect x="553" y="101" width="179" height="10" fill="#ff0"/>
<text x="20" y="130" class="sm">0.1294</text>
<rect x="100" y="120" width="405" height="12" fill="#00f"/>
<rect x="552" y="120" width="320" height="12" fill="#00f"/>
<line x1="505" y1="126" x2="551" y2="126" stroke="#00f"/>
<rect x="101" y="121" width="293" height="10" fill="#ff0"/>
<text x="20" y="150" class="sm">0.04523</text>
<rect x="100" y="140" width="275" height="12" fill="#00f"/>
<rect x="431" y="140" width="74" height="12" fill="#00f"/>
<rect x="552" y="140" width="320" height="12" fill="#00f"/>
<line x1="375" y1="146" x2="430" y2="146" stroke="#00f"/>
<line x1="505" y1="146" x2="551" y2="146" stroke="#00f"/>
<rect x="101" y="141" width="274" height="10" fill="#ff0"/>
<rect x="432" y="141" width="57" height="10" fill="#ff0"/>
<text x="20" y="170" class="sm">0.04206</text>
<rect x="100" y="160" width="271" height="12" fill="#00f"/>
<rect x="431" y="160" width="79" height="12" fill="#00f"/>
<rect x="552" y="160" width="320" height="12" fill="#00f"/>
<line x1="371" y1="166" x2="430" y2="166" stroke="#00f"/>
<line x1="510" y1="166" x2="551" y2="166" stroke="#00f"/>
<rect x="101" y="161" width="270" height="10" fill="#ff0"/>
<rect x="432" y="161" width="78" height="10" fill="#ff0"/>
<rect x="553" y="161" width="246" height="10" fill="#ff0"/>
<text x="20" y="190" class="sm">0.00959</text>
<rect x="100" y="180" width="271" height="12" fill="#00f"/>
<rect x="431" y="180" width="74" height="12" fill="#00f"/>
<rect x="552" y="180" width="127" height="12" fill="#00f"/>
<rect x="732" y="180" width="140" height="12" fill="#00f"/>
<line x1="371" y1="186" x2="430" y2="186" stroke="#00f"/>
<line x1="505" y1="186" x2="551" y2="186" stroke="#00f"/>
<line x1="679" y1="186" x2="731" y2="186" stroke="#00f"/>
<rect x="101" y="181" width="270" height="10" fill="#ff0"/>
<rect x="432" y="181" width="73" height="10" fill="#ff0"/>
<rect x="553" y="181" width="126" height="10" fill="#ff0"/>
<rect x="733" y="181" width="16" height="10" fill="#ff0"/>
<text x="20" y="210" class="sm">0.008555</text>
<rect x="100" y="200" width="271" height="12" fill="#00f"/>
<rect x="431" y="200" width="44" height="12" fill="#00f"/>
<rect x="552" y="200" width="320" height="12" fill="#00f"/>
<line x1="371" y1="206" x2="430" y2="206" stroke="#00f"/>
<line x1="475" y1="206" x2="551" y2="206" stroke="#00f"/>
<rect x="101" y="201" width="270" height="10" fill="#ff0"/>
<rect x="432" y="201" width="43" height="10" fill="#ff0"/>
<rect x="553" y="201" width="179" height="10" fill="#ff0"/>
<text x="20" y="230" class="sm">0.008034</text>
<rect x="100" y="220" width="410" height="12" fill="#00f"/>
<rect x="552" y="220" width="320" height="12" fill="#00f"/>
<line x1="510" y1="226" x2="551" y2="226" stroke="#00f"/>
<rect x="101" y="221" width="293" height="10" fill="#ff0"/>
<text x="20" y="250" class="sm">0.004975</text>
<rect x="100" y="240" width="260" height="12" fill="#00f"/>
<rect x="431" y="240" width="74" height="12" fill="#00f"/>
<rect x="552" y="240" width="320" height="12" fill="#00f"/>
<line x1="360" y1="246" x2="430" y2="246" stroke="#00f"/>
<line x1="505" y1="246" x2="551" y2="246" stroke="#00f"/>
<rect x="101" y="241" width="259" height="10" fill="#ff0"/>
<rect x="432" y="241" width="57" height="10" fill="#ff0"/>
<text x="20" y="270" class="sm">0.004894</text>
<rect x="100" y="260" width="129" height="12" fill="#00f"/>
<rect x="290" y="260" width="81" height="12" fill="#00f"/>
<rect x="431" y="260" width="74" height="12" fill="#00f"/>
<rect x="552" y="260" width="320" height="12" fill="#00f"/>
<line x1="229" y1="266" x2="289" y2="266" stroke="#00f"/>
<line x1="371" y1="266" x2="430" y2="266" stroke="#00f"/>
<line x1="505" y1="266" x2="551" y2="266" stroke="#00f"/>
<rect x="329" y="261" width="42" height="10" fill="#ff0"/>
<rect x="432" y="261" width="73" height="10" fill="#ff0"/>
<rect x="553" y="261" width="179" height="10" fill="#ff0"/>
<text x="20" y="290" class="sm">0.002859</text>
<rect x="100" y="280" width="271" height="12" fill="#00f"/>
<rect x="431" y="280" width="441" height="12" fill="#00f"/>
<line x1="371" y1="286" x2="430" y2="286" stroke="#00f"/>
<rect x="101" y="281" width="270" height="10" fill="#ff0"/>
<rect x="432" y="281" width="88" height="10" fill="#ff0"/>
<text x="20" y="310" class="sm">0.002603</text>
<rect x="100" y="300" width="275" height="12" fill="#00f"/>
<rect x="431" y="300" width="79" height="12" fill="#00f"/>
<rect x="552" y="300" width="320" height="12" fill="#00f"/>
<line x1="375" y1="306" x2="430" y2="306" stroke="#00f"/>
<line x1="510" y1="306" x2="551" y2="306" stroke="#00f"/>
<rect x="333" y="301" width="42" height="10" fill="#ff0"/>
<rect x="432" y="301" width="78" height="10" fill="#ff0"/>
<rect x="553" y="301" width="246" height="10" fill="#ff0"/>
<text x="20" y="330" class="sm">0.002429</text>
<rect x="100" y="320" width="271" height="12" fill="#00f"/>
<rect x="431" y="320" width="44" height="12" fill="#00f"/>
<rect x="516" y="320" width="356" height="12" fill="#00f"/>
<line x1="371" y1="326" x2="430" y2="326" stroke="#00f"/>
<line x1="475" y1="326" x2="515" y2="326" stroke="#00f"/>
<rect x="101" y="321" width="270" height="10" fill="#ff0"/>
<rect x="432" y="321" width="43" height="10" fill="#ff0"/>
<rect x="517" y="321" width="20" height="10" fill="#ff0"/>
<text x="20" y="350" class="sm">0.002066</text>
<rect x="100" y="340" width="271" height="12" fill="#00f"/>
<rect x="431" y="340" width="60" height="12" fill="#00f"/>
<rect x="552" y="340" width="320" height="12" fill="#00f"/>
<line x1="371" y1="346" x2="430" y2="346" stroke="#00f"/>
<line x1="491" y1="346" x2="551" y2="346" stroke="#00f"/>
<rect x="101" y="341" width="270" height="10" fill="#ff0"/>
<rect x="432" y="341" width="59" height="10" fill="#ff0"/>
<rect x="553" y="341" width="10" height="10" fill="#ff0"/>
<text x="20" y="370" class="sm">0.001697</text>
<rect x="100" y="360" width="405" height="12" fill="#00f"/>
<rect x="552" y="360" width="127" height="12" fill="#00f"/>
<rect x="732" y="360" width="140" height="12" fill="#00f"/>
<line x1="505" y1="366" x2="551" y2="366" stroke="#00f"/>
<line x1="679" y1="366" x2="731" y2="366" stroke="#00f"/>
<rect x="101" y="361" width="293" height="10" fill="#ff0"/>
<text x="20" y="390" class="sm">0.001619</text>
<rect x="100" y="380" width="271" height="12" fill="#00f"/>
<rect x="552" y="380" width="320" height="12" fill="#00f"/>
<line x1="371" y1="386" x2="551" y2="386" stroke="#00f"/>
<rect x="101" y="381" width="270" height="10" fill="#ff0"/>
<rect x="553" y="381" width="10" height="10" fill="#ff0"/>
<text x="20" y="410" class="sm">0.0009374</text>
<rect x="100" y="400" width="129" height="12" fill="#00f"/>
<rect x="300" y="400" width="71" height="12" fill="#00f"/>
<rect x="431" y="400" width="74" height="12" fill="#00f"/>
<rect x="552" y="400" width="320" height="12" fill="#00f"/>
<line x1="229" y1="406" x2="299" y2="406" stroke="#00f"/>
<line x1="371" y1="406" x2="430" y2="406" stroke="#00f"/>
<line x1="505" y1="406" x2="551" y2="406" stroke="#00f"/>
<rect x="207" y="401" width="22" height="10" fill="#ff0"/>
<rect x="301" y="401" width="70" height="10" fill="#ff0"/>
<rect x="432" y="401" width="73" height="10" fill="#ff0"/>
<rect x="553" y="401" width="179" height="10" fill="#ff0"/>
<text x="20" y="430" class="sm">0.0005933</text>
<rect x="100" y="420" width="275" height="12" fill="#00f"/>
<rect x="431" y="420" width="74" height="12" fill="#00f"/>
<rect x="552" y="420" width="127" height="12" fill="#00f"/>
<rect x="732" y="420" width="140" height="12" fill="#00f"/>
<line x1="375" y1="426" x2="430" y2="426" stroke="#00f"/>
<line x1="505" y1="426" x2="551" y2="426" stroke="#00f"/>
<line x1="679" y1="426" x2="731" y2="426" stroke="#00f"/>
<rect x="101" y="421" width="274" height="10" fill="#ff0"/>
<rect x="432" y="421" width="57" height="10" fill="#ff0"/>
<text x="20" y="450" class="sm">0.0005518</text>
<rect x="100" y="440" width="271" height="12" fill="#00f"/>
<rect x="431" y="440" width="79" height="12" fill="#00f"/>
<rect x="552" y="440" width="127" height="12" fill="#00f"/>
<rect x="732" y="440" width="140" height="12" fill="#00f"/>
<line x1="371" y1="446" x2="430" y2="446" stroke="#00f"/>
<line x1="510" y1="446" x2="551" y2="446" stroke="#00f"/>
<line x1="679" y1="446" x2="731" y2="446" stroke="#00f"/>
<rect x="101" y="441" width="270" height="10" fill="#ff0"/>
<rect x="432" y="441" width="78" height="10" fill="#ff0"/>
<rect x="553" y="441" width="126" height="10" fill="#ff0"/>
<rect x="733" y="441" width="23" height="10" fill="#ff0"/>
<text x="20" y="470" class="sm">0.0005293</text>
<rect x="100" y="460" width="275" height="12" fill="#00f"/>
<rect x="431" y="460" width="44" height="12" fill="#00f"/>
<rect x="552" y="460" width="320" height="12" fill="#00f"/>
<line x1="375" y1="466" x2="430" y2="466" stroke="#00f"/>
<line x1="475" y1="466" x2="551" y2="466" stroke="#00f"/>
<rect x="101" y="461" width="274" height="10" fill="#ff0"/>
<rect x="432" y="461" width="43" height="10" fill="#ff0"/>
<rect x="553" y="461" width="10" height="10" fill="#ff0"/>
<text x="20" y="490" class="sm">0.0004428</text>
<rect x="100" y="480" width="129" height="12" fill="#00f"/>
<rect x="290" y="480" width="215" height="12" fill="#00f"/>
<rect x="552" y="480" width="320" height="12" fill="#00f"/>
<line x1="229" y1="486" x2="289" y2="486" stroke="#00f"/>
<line x1="505" y1="486" x2="551" y2="486" stroke="#00f"/>
<rect x="101" y="481" width="128" height="10" fill="#ff0"/>
<rect x="291" y="481" width="38" height="10" fill="#ff0"/>
</svg>
