<svg viewBox="0 0 831 565" xmlns="http://www.w3.org/2000/svg">

<style>
  .sm { font: 12px sans-serif; }
  .lg { font: 15px sans-serif; }
</style>
<rect fill="#ddd" x="0" y="0" width="100%" height="100%"/>
<text x="20" y="20" class="lg">ch.1172 I:6620565-6621395 Gene:WBGene00017068</text>
<text x="20" y="50" class="sm">WormBase</text>
<rect x="100" y="40" width="80" height="12" fill="#00f"/>
<rect x="231" y="40" width="161" height="12" fill="#00f"/>
<rect x="442" y="40" width="289" height="12" fill="#00f"/>
<line x1="180" y1="46" x2="230" y2="46" stroke="#00f"/>
<line x1="392" y1="46" x2="441" y2="46" stroke="#00f"/>
<rect x="178" y="41" width="2" height="10" fill="#ff0"/>
<rect x="232" y="41" width="160" height="10" fill="#ff0"/>
<rect x="443" y="41" width="159" height="10" fill="#ff0"/>
<rect x="101" y="41" width="76" height="10" fill="brown"><title>.</title></rect>
<rect x="603" y="41" width="128" height="10" fill="brown"><title>.</title></rect>
<text x="20" y="70" class="sm">Fitness: 0.010671806315361734</text>
<rect x="392" y="65" width="50" height="5" fill="#00f"><title>490571.0</title></rect>
<rect x="180" y="70" width="51" height="5" fill="#00f"><title>361695.0</title></rect>
<rect x="401" y="75" width="48" height="5" fill="#f0f"><title>74.0</title></rect>
<rect x="180" y="80" width="109" height="5" fill="#00f"><title>64.0</title></rect>
<rect x="180" y="85" width="262" height="5" fill="#00f"><title>35.0</title></rect>
<rect x="392" y="90" width="61" height="5" fill="#00f"><title>30.0</title></rect>
<rect x="396" y="95" width="46" height="5" fill="#00f"><title>16.0</title></rect>
<rect x="268" y="100" width="74" height="5" fill="#00f"><title>10.0</title></rect>
<rect x="388" y="105" width="52" height="5" fill="#f0f"><title>10.0</title></rect>
<rect x="465" y="110" width="39" height="5" fill="#f0f"><title>4.0</title></rect>
<rect x="325" y="115" width="182" height="5" fill="#f0f"><title>3.0</title></rect>
<rect x="354" y="120" width="143" height="5" fill="#00f"><title>3.0</title></rect>
<rect x="357" y="125" width="140" height="5" fill="#00f"><title>3.0</title></rect>
<text x="20" y="155" class="sm">0.5655</text>
<rect x="100" y="145" width="80" height="12" fill="#00f"/>
<rect x="231" y="145" width="161" height="12" fill="#00f"/>
<rect x="442" y="145" width="292" height="12" fill="#00f"/>
<line x1="180" y1="151" x2="230" y2="151" stroke="#00f"/>
<line x1="392" y1="151" x2="441" y2="151" stroke="#00f"/>
<rect x="178" y="146" width="2" height="10" fill="#ff0"/>
<rect x="232" y="146" width="160" height="10" fill="#ff0"/>
<rect x="443" y="146" width="159" height="10" fill="#ff0"/>
<text x="20" y="175" class="sm">0.3296</text>
<rect x="100" y="165" width="292" height="12" fill="#00f"/>
<rect x="442" y="165" width="292" height="12" fill="#00f"/>
<line x1="392" y1="171" x2="441" y2="171" stroke="#00f"/>
<rect x="312" y="166" width="80" height="10" fill="#ff0"/>
<rect x="443" y="166" width="200" height="10" fill="#ff0"/>
<text x="20" y="195" class="sm">0.09661</text>
<rect x="100" y="185" width="80" height="12" fill="#00f"/>
<rect x="231" y="185" width="503" height="12" fill="#00f"/>
<line x1="180" y1="191" x2="230" y2="191" stroke="#00f"/>
<rect x="178" y="186" width="2" height="10" fill="#ff0"/>
<rect x="232" y="186" width="164" height="10" fill="#ff0"/>
<text x="20" y="215" class="sm">0.003477</text>
<rect x="100" y="205" width="80" height="12" fill="#00f"/>
<rect x="231" y="205" width="161" height="12" fill="#00f"/>
<rect x="453" y="205" width="281" height="12" fill="#00f"/>
<line x1="180" y1="211" x2="230" y2="211" stroke="#00f"/>
<line x1="392" y1="211" x2="452" y2="211" stroke="#00f"/>
<rect x="178" y="206" width="2" height="10" fill="#ff0"/>
<rect x="232" y="206" width="160" height="10" fill="#ff0"/>
<rect x="454" y="206" width="189" height="10" fill="#ff0"/>
<text x="20" y="235" class="sm">0.002027</text>
<rect x="100" y="225" width="292" height="12" fill="#00f"/>
<rect x="453" y="225" width="281" height="12" fill="#00f"/>
<line x1="392" y1="231" x2="452" y2="231" stroke="#00f"/>
<rect x="352" y="226" width="40" height="10" fill="#ff0"/>
<rect x="454" y="226" width="189" height="10" fill="#ff0"/>
<text x="20" y="255" class="sm">0.0004641</text>
<rect x="100" y="245" width="80" height="12" fill="#00f"/>
<rect x="231" y="245" width="161" height="12" fill="#00f"/>
<rect x="442" y="245" width="79" height="12" fill="#00f"/>
<rect x="570" y="245" width="164" height="12" fill="#00f"/>
<line x1="180" y1="251" x2="230" y2="251" stroke="#00f"/>
<line x1="392" y1="251" x2="441" y2="251" stroke="#00f"/>
<line x1="521" y1="251" x2="569" y2="251" stroke="#00f"/>
<rect x="178" y="246" width="2" height="10" fill="#ff0"/>
<rect x="232" y="246" width="160" height="10" fill="#ff0"/>
<rect x="443" y="246" width="78" height="10" fill="#ff0"/>
<rect x="571" y="246" width="50" height="10" fill="#ff0"/>
<text x="20" y="275" class="sm">0.0003461</text>
<rect x="100" y="265" width="80" height="12" fill="#00f"/>
<rect x="231" y="265" width="161" height="12" fill="#00f"/>
<rect x="442" y="265" width="142" height="12" fill="#00f"/>
<rect x="632" y="265" width="102" height="12" fill="#00f"/>
<line x1="180" y1="271" x2="230" y2="271" stroke="#00f"/>
<line x1="392" y1="271" x2="441" y2="271" stroke="#00f"/>
<line x1="584" y1="271" x2="631" y2="271" stroke="#00f"/>
<rect x="178" y="266" width="2" height="10" fill="#ff0"/>
<rect x="232" y="266" width="160" height="10" fill="#ff0"/>
<rect x="443" y="266" width="141" height="10" fill="#ff0"/>
<rect x="633" y="266" width="77" height="10" fill="#ff0"/>
<text x="20" y="295" class="sm">0.0002787</text>
<rect x="100" y="285" width="80" height="12" fill="#00f"/>
<rect x="289" y="285" width="103" height="12" fill="#00f"/>
<rect x="442" y="285" width="292" height="12" fill="#00f"/>
<line x1="180" y1="291" x2="288" y2="291" stroke="#00f"/>
<line x1="392" y1="291" x2="441" y2="291" stroke="#00f"/>
<rect x="312" y="286" width="80" height="10" fill="#ff0"/>
<rect x="443" y="286" width="200" height="10" fill="#ff0"/>
<text x="20" y="315" class="sm">0.0002705</text>
<rect x="100" y="305" width="292" height="12" fill="#00f"/>
<rect x="442" y="305" width="79" height="12" fill="#00f"/>
<rect x="570" y="305" width="164" height="12" fill="#00f"/>
<line x1="392" y1="311" x2="441" y2="311" stroke="#00f"/>
<line x1="521" y1="311" x2="569" y2="311" stroke="#00f"/>
<rect x="312" y="306" width="80" height="10" fill="#ff0"/>
<rect x="443" y="306" width="78" height="10" fill="#ff0"/>
<rect x="571" y="306" width="31" height="10" fill="#ff0"/>
<text x="20" y="335" class="sm">0.000253</text>
<rect x="100" y="325" width="84" height="12" fill="#00f"/>
<rect x="231" y="325" width="161" height="12" fill="#00f"/>
<rect x="442" y="325" width="292" height="12" fill="#00f"/>
<line x1="184" y1="331" x2="230" y2="331" stroke="#00f"/>
<line x1="392" y1="331" x2="441" y2="331" stroke="#00f"/>
<rect x="178" y="326" width="6" height="10" fill="#ff0"/>
<rect x="232" y="326" width="160" height="10" fill="#ff0"/>
<rect x="443" y="326" width="200" height="10" fill="#ff0"/>
<text x="20" y="355" class="sm">0.0002094</text>
<rect x="100" y="345" width="80" height="12" fill="#00f"/>
<rect x="231" y="345" width="172" height="12" fill="#00f"/>
<rect x="442" y="345" width="292" height="12" fill="#00f"/>
<line x1="180" y1="351" x2="230" y2="351" stroke="#00f"/>
<line x1="403" y1="351" x2="441" y2="351" stroke="#00f"/>
<rect x="312" y="346" width="91" height="10" fill="#ff0"/>
<rect x="443" y="346" width="159" height="10" fill="#ff0"/>
<text x="20" y="375" class="sm">0.0002018</text>
<rect x="100" y="365" width="292" height="12" fill="#00f"/>
<rect x="442" y="365" width="142" height="12" fill="#00f"/>
<rect x="632" y="365" width="102" height="12" fill="#00f"/>
<line x1="392" y1="371" x2="441" y2="371" stroke="#00f"/>
<line x1="584" y1="371" x2="631" y2="371" stroke="#00f"/>
<rect x="352" y="366" width="40" height="10" fill="#ff0"/>
<rect x="443" y="366" width="141" height="10" fill="#ff0"/>
<rect x="633" y="366" width="77" height="10" fill="#ff0"/>
<text x="20" y="395" class="sm">0.0001669</text>
<rect x="100" y="385" width="80" height="12" fill="#00f"/>
<rect x="231" y="385" width="172" height="12" fill="#00f"/>
<rect x="453" y="385" width="281" height="12" fill="#00f"/>
<line x1="180" y1="391" x2="230" y2="391" stroke="#00f"/>
<line x1="403" y1="391" x2="452" y2="391" stroke="#00f"/>
<rect x="312" y="386" width="91" height="10" fill="#ff0"/>
<rect x="454" y="386" width="189" height="10" fill="#ff0"/>
<text x="20" y="415" class="sm">0.0001096</text>
<rect x="100" y="405" width="303" height="12" fill="#00f"/>
<rect x="442" y="405" width="292" height="12" fill="#00f"/>
<line x1="403" y1="411" x2="441" y2="411" stroke="#00f"/>
<rect x="312" y="406" width="91" height="10" fill="#ff0"/>
<rect x="443" y="406" width="159" height="10" fill="#ff0"/>
<text x="20" y="435" class="sm">8.738e-05</text>
<rect x="100" y="425" width="303" height="12" fill="#00f"/>
<rect x="453" y="425" width="281" height="12" fill="#00f"/>
<line x1="403" y1="431" x2="452" y2="431" stroke="#00f"/>
<rect x="312" y="426" width="91" height="10" fill="#ff0"/>
<rect x="454" y="426" width="189" height="10" fill="#ff0"/>
<text x="20" y="455" class="sm">7.954e-05</text>
<rect x="100" y="445" width="80" height="12" fill="#00f"/>
<rect x="231" y="445" width="290" height="12" fill="#00f"/>
<rect x="570" y="445" width="164" height="12" fill="#00f"/>
<line x1="180" y1="451" x2="230" y2="451" stroke="#00f"/>
<line x1="521" y1="451" x2="569" y2="451" stroke="#00f"/>
<rect x="178" y="446" width="2" height="10" fill="#ff0"/>
<rect x="232" y="446" width="164" height="10" fill="#ff0"/>
<text x="20" y="475" class="sm">7.799e-05</text>
<rect x="100" y="465" width="80" height="12" fill="#00f"/>
<rect x="231" y="465" width="353" height="12" fill="#00f"/>
<rect x="632" y="465" width="102" height="12" fill="#00f"/>
<line x1="180" y1="471" x2="230" y2="471" stroke="#00f"/>
<line x1="584" y1="471" x2="631" y2="471" stroke="#00f"/>
<rect x="462" y="466" width="122" height="10" fill="#ff0"/>
<rect x="633" y="466" width="77" height="10" fill="#ff0"/>
<text x="20" y="495" class="sm">7.263e-05</text>
<rect x="100" y="485" width="80" height="12" fill="#00f"/>
<rect x="269" y="485" width="123" height="12" fill="#00f"/>
<rect x="442" y="485" width="292" height="12" fill="#00f"/>
<line x1="180" y1="491" x2="268" y2="491" stroke="#00f"/>
<line x1="392" y1="491" x2="441" y2="491" stroke="#00f"/>
<rect x="178" y="486" width="2" height="10" fill="#ff0"/>
<rect x="270" y="486" width="122" height="10" fill="#ff0"/>
<rect x="443" y="486" width="200" height="10" fill="#ff0"/>
<text x="20" y="515" class="sm">5.992e-05</text>
<rect x="100" y="505" width="80" height="12" fill="#00f"/>
<rect x="289" y="505" width="445" height="12" fill="#00f"/>
<line x1="180" y1="511" x2="288" y2="511" stroke="#00f"/>
<rect x="178" y="506" width="2" height="10" fill="#ff0"/>
<rect x="290" y="506" width="353" height="10" fill="#ff0"/>
<text x="20" y="535" class="sm">5.706e-05</text>
<rect x="100" y="525" width="80" height="12" fill="#00f"/>
<rect x="231" y="525" width="161" height="12" fill="#00f"/>
<rect x="442" y="525" width="88" height="12" fill="#00f"/>
<rect x="570" y="525" width="164" height="12" fill="#00f"/>
<line x1="180" y1="531" x2="230" y2="531" stroke="#00f"/>
<line x1="392" y1="531" x2="441" y2="531" stroke="#00f"/>
<line x1="530" y1="531" x2="569" y2="531" stroke="#00f"/>
<rect x="178" y="526" width="2" height="10" fill="#ff0"/>
<rect x="232" y="526" width="160" height="10" fill="#ff0"/>
<rect x="443" y="526" width="87" height="10" fill="#ff0"/>
<rect x="571" y="526" width="50" height="10" fill="#ff0"/>
</svg>
