<svg viewBox="0 0 960 570" xmlns="http://www.w3.org/2000/svg">

<style>
  .sm { font: 12px sans-serif; }
  .lg { font: 15px sans-serif; }
</style>
<rect fill="#ddd" x="0" y="0" width="100%" height="100%"/>
<text x="20" y="20" class="lg">ch.11130 IV:10146126-10147085 Gene:WBGene00011777</text>
<text x="20" y="50" class="sm">WormBase</text>
<rect x="102" y="40" width="107" height="12" fill="#00f"/>
<rect x="255" y="40" width="102" height="12" fill="#00f"/>
<rect x="404" y="40" width="458" height="12" fill="#00f"/>
<line x1="209" y1="46" x2="254" y2="46" stroke="#00f"/>
<line x1="357" y1="46" x2="403" y2="46" stroke="#00f"/>
<rect x="156" y="41" width="53" height="10" fill="#ff0"/>
<rect x="256" y="41" width="101" height="10" fill="#ff0"/>
<rect x="405" y="41" width="389" height="10" fill="#ff0"/>
<rect x="103" y="41" width="52" height="10" fill="brown"><title>.</title></rect>
<rect x="795" y="41" width="67" height="10" fill="brown"><title>.</title></rect>
<text x="20" y="70" class="sm">WormBase</text>
<rect x="155" y="60" width="54" height="12" fill="#00f"/>
<rect x="255" y="60" width="102" height="12" fill="#00f"/>
<rect x="404" y="60" width="181" height="12" fill="#00f"/>
<rect x="683" y="60" width="59" height="12" fill="#00f"/>
<line x1="209" y1="66" x2="254" y2="66" stroke="#00f"/>
<line x1="357" y1="66" x2="403" y2="66" stroke="#00f"/>
<line x1="585" y1="66" x2="682" y2="66" stroke="#00f"/>
<rect x="156" y="61" width="53" height="10" fill="#ff0"/>
<rect x="256" y="61" width="101" height="10" fill="#ff0"/>
<rect x="405" y="61" width="180" height="10" fill="#ff0"/>
<rect x="684" y="61" width="58" height="10" fill="#ff0"/>
<text x="20" y="90" class="sm">Fitness: 0.05356220137053698</text>
<rect x="209" y="85" width="46" height="5" fill="#00f"><title>116356.0</title></rect>
<rect x="357" y="90" width="47" height="5" fill="#00f"><title>113508.0</title></rect>
<rect x="585" y="95" width="98" height="5" fill="#00f"><title>600.0</title></rect>
<rect x="209" y="100" width="50" height="5" fill="#00f"><title>40.0</title></rect>
<rect x="629" y="105" width="54" height="5" fill="#00f"><title>17.0</title></rect>
<rect x="756" y="110" width="166" height="5" fill="#f0f"><title>15.0</title></rect>
<rect x="209" y="115" width="39" height="5" fill="#00f"><title>14.0</title></rect>
<rect x="806" y="120" width="45" height="5" fill="#f0f"><title>7.0</title></rect>
<rect x="756" y="125" width="134" height="5" fill="#f0f"><title>5.0</title></rect>
<rect x="209" y="130" width="71" height="5" fill="#00f"><title>5.0</title></rect>
<text x="20" y="160" class="sm">0.9235</text>
<rect x="100" y="150" width="109" height="12" fill="#00f"/>
<rect x="255" y="150" width="102" height="12" fill="#00f"/>
<rect x="404" y="150" width="459" height="12" fill="#00f"/>
<line x1="209" y1="156" x2="254" y2="156" stroke="#00f"/>
<line x1="357" y1="156" x2="403" y2="156" stroke="#00f"/>
<rect x="153" y="151" width="56" height="10" fill="#ff0"/>
<rect x="256" y="151" width="101" height="10" fill="#ff0"/>
<rect x="405" y="151" width="389" height="10" fill="#ff0"/>
<text x="20" y="180" class="sm">0.02397</text>
<rect x="100" y="170" width="257" height="12" fill="#00f"/>
<rect x="404" y="170" width="459" height="12" fill="#00f"/>
<line x1="357" y1="176" x2="403" y2="176" stroke="#00f"/>
<rect x="662" y="171" width="201" height="10" fill="#ff0"/>
<text x="20" y="200" class="sm">0.0165</text>
<rect x="100" y="190" width="109" height="12" fill="#00f"/>
<rect x="255" y="190" width="39" height="12" fill="#00f"/>
<rect x="404" y="190" width="459" height="12" fill="#00f"/>
<line x1="209" y1="196" x2="254" y2="196" stroke="#00f"/>
<line x1="294" y1="196" x2="403" y2="196" stroke="#00f"/>
<rect x="153" y="191" width="56" height="10" fill="#ff0"/>
<rect x="256" y="191" width="38" height="10" fill="#ff0"/>
<rect x="405" y="191" width="389" height="10" fill="#ff0"/>
<text x="20" y="220" class="sm">0.006793</text>
<rect x="100" y="210" width="109" height="12" fill="#00f"/>
<rect x="255" y="210" width="102" height="12" fill="#00f"/>
<rect x="404" y="210" width="259" height="12" fill="#00f"/>
<rect x="711" y="210" width="152" height="12" fill="#00f"/>
<line x1="209" y1="216" x2="254" y2="216" stroke="#00f"/>
<line x1="357" y1="216" x2="403" y2="216" stroke="#00f"/>
<line x1="663" y1="216" x2="710" y2="216" stroke="#00f"/>
<rect x="153" y="211" width="56" height="10" fill="#ff0"/>
<rect x="256" y="211" width="101" height="10" fill="#ff0"/>
<rect x="405" y="211" width="258" height="10" fill="#ff0"/>
<rect x="712" y="211" width="82" height="10" fill="#ff0"/>
<text x="20" y="240" class="sm">0.006028</text>
<rect x="100" y="230" width="109" height="12" fill="#00f"/>
<rect x="255" y="230" width="102" height="12" fill="#00f"/>
<rect x="404" y="230" width="225" height="12" fill="#00f"/>
<rect x="683" y="230" width="180" height="12" fill="#00f"/>
<line x1="209" y1="236" x2="254" y2="236" stroke="#00f"/>
<line x1="357" y1="236" x2="403" y2="236" stroke="#00f"/>
<line x1="629" y1="236" x2="682" y2="236" stroke="#00f"/>
<rect x="153" y="231" width="56" height="10" fill="#ff0"/>
<rect x="256" y="231" width="101" height="10" fill="#ff0"/>
<rect x="405" y="231" width="224" height="10" fill="#ff0"/>
<rect x="684" y="231" width="110" height="10" fill="#ff0"/>
<text x="20" y="260" class="sm">0.003489</text>
<rect x="100" y="250" width="109" height="12" fill="#00f"/>
<rect x="255" y="250" width="608" height="12" fill="#00f"/>
<line x1="209" y1="256" x2="254" y2="256" stroke="#00f"/>
<rect x="405" y="251" width="389" height="10" fill="#ff0"/>
<text x="20" y="280" class="sm">0.003287</text>
<rect x="100" y="270" width="109" height="12" fill="#00f"/>
<rect x="259" y="270" width="98" height="12" fill="#00f"/>
<rect x="404" y="270" width="459" height="12" fill="#00f"/>
<line x1="209" y1="276" x2="258" y2="276" stroke="#00f"/>
<line x1="357" y1="276" x2="403" y2="276" stroke="#00f"/>
<rect x="503" y="271" width="360" height="10" fill="#ff0"/>
<text x="20" y="300" class="sm">0.003107</text>
<rect x="100" y="290" width="109" height="12" fill="#00f"/>
<rect x="255" y="290" width="102" height="12" fill="#00f"/>
<rect x="404" y="290" width="217" height="12" fill="#00f"/>
<rect x="664" y="290" width="199" height="12" fill="#00f"/>
<line x1="209" y1="296" x2="254" y2="296" stroke="#00f"/>
<line x1="357" y1="296" x2="403" y2="296" stroke="#00f"/>
<line x1="621" y1="296" x2="663" y2="296" stroke="#00f"/>
<rect x="153" y="291" width="56" height="10" fill="#ff0"/>
<rect x="256" y="291" width="101" height="10" fill="#ff0"/>
<rect x="405" y="291" width="216" height="10" fill="#ff0"/>
<rect x="665" y="291" width="55" height="10" fill="#ff0"/>
<text x="20" y="320" class="sm">0.002206</text>
<rect x="100" y="310" width="109" height="12" fill="#00f"/>
<rect x="255" y="310" width="39" height="12" fill="#00f"/>
<rect x="382" y="310" width="481" height="12" fill="#00f"/>
<line x1="209" y1="316" x2="254" y2="316" stroke="#00f"/>
<line x1="294" y1="316" x2="381" y2="316" stroke="#00f"/>
<rect x="405" y="311" width="389" height="10" fill="#ff0"/>
<text x="20" y="340" class="sm">0.002191</text>
<rect x="100" y="330" width="94" height="12" fill="#00f"/>
<rect x="255" y="330" width="102" height="12" fill="#00f"/>
<rect x="404" y="330" width="459" height="12" fill="#00f"/>
<line x1="194" y1="336" x2="254" y2="336" stroke="#00f"/>
<line x1="357" y1="336" x2="403" y2="336" stroke="#00f"/>
<rect x="153" y="331" width="41" height="10" fill="#ff0"/>
<rect x="256" y="331" width="101" height="10" fill="#ff0"/>
<rect x="405" y="331" width="389" height="10" fill="#ff0"/>
<text x="20" y="360" class="sm">0.00183</text>
<rect x="100" y="350" width="109" height="12" fill="#00f"/>
<rect x="255" y="350" width="102" height="12" fill="#00f"/>
<rect x="404" y="350" width="133" height="12" fill="#00f"/>
<rect x="586" y="350" width="277" height="12" fill="#00f"/>
<line x1="209" y1="356" x2="254" y2="356" stroke="#00f"/>
<line x1="357" y1="356" x2="403" y2="356" stroke="#00f"/>
<line x1="537" y1="356" x2="585" y2="356" stroke="#00f"/>
<rect x="153" y="351" width="56" height="10" fill="#ff0"/>
<rect x="256" y="351" width="101" height="10" fill="#ff0"/>
<rect x="405" y="351" width="132" height="10" fill="#ff0"/>
<rect x="587" y="351" width="4" height="10" fill="#ff0"/>
<text x="20" y="380" class="sm">0.001692</text>
<rect x="100" y="370" width="94" height="12" fill="#00f"/>
<rect x="240" y="370" width="117" height="12" fill="#00f"/>
<rect x="404" y="370" width="459" height="12" fill="#00f"/>
<line x1="194" y1="376" x2="239" y2="376" stroke="#00f"/>
<line x1="357" y1="376" x2="403" y2="376" stroke="#00f"/>
<rect x="153" y="371" width="41" height="10" fill="#ff0"/>
<rect x="241" y="371" width="116" height="10" fill="#ff0"/>
<rect x="405" y="371" width="389" height="10" fill="#ff0"/>
<text x="20" y="400" class="sm">0.001177</text>
<rect x="100" y="390" width="109" height="12" fill="#00f"/>
<rect x="255" y="390" width="102" height="12" fill="#00f"/>
<rect x="404" y="390" width="181" height="12" fill="#00f"/>
<rect x="639" y="390" width="224" height="12" fill="#00f"/>
<line x1="209" y1="396" x2="254" y2="396" stroke="#00f"/>
<line x1="357" y1="396" x2="403" y2="396" stroke="#00f"/>
<line x1="585" y1="396" x2="638" y2="396" stroke="#00f"/>
<rect x="153" y="391" width="56" height="10" fill="#ff0"/>
<rect x="256" y="391" width="101" height="10" fill="#ff0"/>
<rect x="405" y="391" width="180" height="10" fill="#ff0"/>
<rect x="640" y="391" width="154" height="10" fill="#ff0"/>
<text x="20" y="420" class="sm">0.0009305</text>
<rect x="100" y="410" width="109" height="12" fill="#00f"/>
<rect x="280" y="410" width="77" height="12" fill="#00f"/>
<rect x="404" y="410" width="459" height="12" fill="#00f"/>
<line x1="209" y1="416" x2="279" y2="416" stroke="#00f"/>
<line x1="357" y1="416" x2="403" y2="416" stroke="#00f"/>
<rect x="482" y="411" width="381" height="10" fill="#ff0"/>
<text x="20" y="440" class="sm">0.0009024</text>
<rect x="100" y="430" width="109" height="12" fill="#00f"/>
<rect x="255" y="430" width="102" height="12" fill="#00f"/>
<rect x="404" y="430" width="225" height="12" fill="#00f"/>
<rect x="675" y="430" width="188" height="12" fill="#00f"/>
<line x1="209" y1="436" x2="254" y2="436" stroke="#00f"/>
<line x1="357" y1="436" x2="403" y2="436" stroke="#00f"/>
<line x1="629" y1="436" x2="674" y2="436" stroke="#00f"/>
<rect x="153" y="431" width="56" height="10" fill="#ff0"/>
<rect x="256" y="431" width="101" height="10" fill="#ff0"/>
<rect x="405" y="431" width="224" height="10" fill="#ff0"/>
<rect x="676" y="431" width="44" height="10" fill="#ff0"/>
<text x="20" y="460" class="sm">0.0005678</text>
<rect x="100" y="450" width="109" height="12" fill="#00f"/>
<rect x="255" y="450" width="102" height="12" fill="#00f"/>
<rect x="404" y="450" width="333" height="12" fill="#00f"/>
<rect x="785" y="450" width="78" height="12" fill="#00f"/>
<line x1="209" y1="456" x2="254" y2="456" stroke="#00f"/>
<line x1="357" y1="456" x2="403" y2="456" stroke="#00f"/>
<line x1="737" y1="456" x2="784" y2="456" stroke="#00f"/>
<rect x="153" y="451" width="56" height="10" fill="#ff0"/>
<rect x="256" y="451" width="101" height="10" fill="#ff0"/>
<rect x="405" y="451" width="332" height="10" fill="#ff0"/>
<rect x="786" y="451" width="8" height="10" fill="#ff0"/>
<text x="20" y="480" class="sm">0.0004668</text>
<rect x="100" y="470" width="109" height="12" fill="#00f"/>
<rect x="255" y="470" width="102" height="12" fill="#00f"/>
<rect x="404" y="470" width="259" height="12" fill="#00f"/>
<rect x="729" y="470" width="134" height="12" fill="#00f"/>
<line x1="209" y1="476" x2="254" y2="476" stroke="#00f"/>
<line x1="357" y1="476" x2="403" y2="476" stroke="#00f"/>
<line x1="663" y1="476" x2="728" y2="476" stroke="#00f"/>
<rect x="153" y="471" width="56" height="10" fill="#ff0"/>
<rect x="256" y="471" width="101" height="10" fill="#ff0"/>
<rect x="405" y="471" width="258" height="10" fill="#ff0"/>
<rect x="730" y="471" width="64" height="10" fill="#ff0"/>
<text x="20" y="500" class="sm">0.0004591</text>
<rect x="100" y="490" width="109" height="12" fill="#00f"/>
<rect x="255" y="490" width="102" height="12" fill="#00f"/>
<rect x="404" y="490" width="343" height="12" fill="#00f"/>
<rect x="785" y="490" width="78" height="12" fill="#00f"/>
<line x1="209" y1="496" x2="254" y2="496" stroke="#00f"/>
<line x1="357" y1="496" x2="403" y2="496" stroke="#00f"/>
<line x1="747" y1="496" x2="784" y2="496" stroke="#00f"/>
<rect x="153" y="491" width="56" height="10" fill="#ff0"/>
<rect x="256" y="491" width="101" height="10" fill="#ff0"/>
<rect x="405" y="491" width="342" height="10" fill="#ff0"/>
<rect x="786" y="491" width="31" height="10" fill="#ff0"/>
<text x="20" y="520" class="sm">0.0004564</text>
<rect x="100" y="510" width="109" height="12" fill="#00f"/>
<rect x="255" y="510" width="106" height="12" fill="#00f"/>
<rect x="404" y="510" width="459" height="12" fill="#00f"/>
<line x1="209" y1="516" x2="254" y2="516" stroke="#00f"/>
<line x1="361" y1="516" x2="403" y2="516" stroke="#00f"/>
<rect x="511" y="511" width="352" height="10" fill="#ff0"/>
<text x="20" y="540" class="sm">0.0004442</text>
<rect x="100" y="530" width="109" height="12" fill="#00f"/>
<rect x="274" y="530" width="83" height="12" fill="#00f"/>
<rect x="404" y="530" width="459" height="12" fill="#00f"/>
<line x1="209" y1="536" x2="273" y2="536" stroke="#00f"/>
<line x1="357" y1="536" x2="403" y2="536" stroke="#00f"/>
<rect x="488" y="531" width="375" height="10" fill="#ff0"/>
</svg>
