<svg viewBox="0 0 834 540" xmlns="http://www.w3.org/2000/svg">

<style>
  .sm { font: 12px sans-serif; }
  .lg { font: 15px sans-serif; }
</style>
<rect fill="#ddd" x="0" y="0" width="100%" height="100%"/>
<text x="20" y="20" class="lg">ch.1072 I:6231396-6232229 Gene:WBGene00020350</text>
<text x="20" y="50" class="sm">WormBase</text>
<rect x="102" y="40" width="157" height="12" fill="#00f"/>
<rect x="304" y="40" width="432" height="12" fill="#00f"/>
<line x1="259" y1="46" x2="303" y2="46" stroke="#00f"/>
<rect x="180" y="41" width="79" height="10" fill="#ff0"/>
<rect x="305" y="41" width="378" height="10" fill="#ff0"/>
<rect x="103" y="41" width="76" height="10" fill="brown"><title>.</title></rect>
<rect x="684" y="41" width="52" height="10" fill="brown"><title>.</title></rect>
<text x="20" y="70" class="sm">Fitness: 0.00028920670516173984</text>
<rect x="259" y="65" width="45" height="5" fill="#00f"><title>954598.0</title></rect>
<rect x="257" y="70" width="47" height="5" fill="#00f"><title>7741.0</title></rect>
<rect x="251" y="75" width="53" height="5" fill="#00f"><title>115.0</title></rect>
<rect x="259" y="80" width="113" height="5" fill="#00f"><title>44.0</title></rect>
<rect x="395" y="85" width="49" height="5" fill="#00f"><title>19.0</title></rect>
<rect x="217" y="90" width="117" height="5" fill="#f0f"><title>18.0</title></rect>
<rect x="259" y="95" width="59" height="5" fill="#00f"><title>18.0</title></rect>
<rect x="263" y="100" width="41" height="5" fill="#00f"><title>6.0</title></rect>
<text x="20" y="130" class="sm">0.9918</text>
<rect x="100" y="120" width="159" height="12" fill="#00f"/>
<rect x="304" y="120" width="433" height="12" fill="#00f"/>
<line x1="259" y1="126" x2="303" y2="126" stroke="#00f"/>
<rect x="180" y="121" width="79" height="10" fill="#ff0"/>
<rect x="305" y="121" width="378" height="10" fill="#ff0"/>
<text x="20" y="150" class="sm">0.008073</text>
<rect x="100" y="140" width="157" height="12" fill="#00f"/>
<rect x="304" y="140" width="433" height="12" fill="#00f"/>
<line x1="257" y1="146" x2="303" y2="146" stroke="#00f"/>
<rect x="235" y="141" width="22" height="10" fill="#ff0"/>
<rect x="305" y="141" width="378" height="10" fill="#ff0"/>
<text x="20" y="170" class="sm">8.48e-05</text>
<rect x="100" y="160" width="159" height="12" fill="#00f"/>
<rect x="372" y="160" width="365" height="12" fill="#00f"/>
<line x1="259" y1="166" x2="371" y2="166" stroke="#00f"/>
<rect x="180" y="161" width="79" height="10" fill="#ff0"/>
<rect x="373" y="161" width="45" height="10" fill="#ff0"/>
<text x="20" y="190" class="sm">1.871e-05</text>
<rect x="100" y="180" width="159" height="12" fill="#00f"/>
<rect x="318" y="180" width="419" height="12" fill="#00f"/>
<line x1="259" y1="186" x2="317" y2="186" stroke="#00f"/>
<rect x="235" y="181" width="24" height="10" fill="#ff0"/>
<rect x="319" y="181" width="364" height="10" fill="#ff0"/>
<text x="20" y="210" class="sm">1.978e-06</text>
<rect x="100" y="200" width="159" height="12" fill="#00f"/>
<rect x="327" y="200" width="410" height="12" fill="#00f"/>
<line x1="259" y1="206" x2="326" y2="206" stroke="#00f"/>
<rect x="235" y="201" width="24" height="10" fill="#ff0"/>
<rect x="328" y="201" width="355" height="10" fill="#ff0"/>
<text x="20" y="230" class="sm">1.586e-06</text>
<rect x="100" y="220" width="159" height="12" fill="#00f"/>
<rect x="390" y="220" width="347" height="12" fill="#00f"/>
<line x1="259" y1="226" x2="389" y2="226" stroke="#00f"/>
<rect x="583" y="221" width="122" height="10" fill="#ff0"/>
<text x="20" y="250" class="sm">8.27e-07</text>
<rect x="100" y="240" width="163" height="12" fill="#00f"/>
<rect x="304" y="240" width="433" height="12" fill="#00f"/>
<line x1="263" y1="246" x2="303" y2="246" stroke="#00f"/>
<rect x="235" y="241" width="28" height="10" fill="#ff0"/>
<rect x="305" y="241" width="378" height="10" fill="#ff0"/>
<text x="20" y="270" class="sm">6.169e-07</text>
<rect x="100" y="260" width="157" height="12" fill="#00f"/>
<rect x="372" y="260" width="365" height="12" fill="#00f"/>
<line x1="257" y1="266" x2="371" y2="266" stroke="#00f"/>
<rect x="180" y="261" width="77" height="10" fill="#ff0"/>
<rect x="373" y="261" width="71" height="10" fill="#ff0"/>
<text x="20" y="290" class="sm">3.841e-07</text>
<rect x="100" y="280" width="99" height="12" fill="#00f"/>
<rect x="304" y="280" width="433" height="12" fill="#00f"/>
<line x1="199" y1="286" x2="303" y2="286" stroke="#00f"/>
<rect x="180" y="281" width="19" height="10" fill="#ff0"/>
<rect x="305" y="281" width="378" height="10" fill="#ff0"/>
<text x="20" y="310" class="sm">2.46e-07</text>
<rect x="100" y="300" width="340" height="12" fill="#00f"/>
<rect x="486" y="300" width="251" height="12" fill="#00f"/>
<line x1="440" y1="306" x2="485" y2="306" stroke="#00f"/>
<rect x="235" y="301" width="205" height="10" fill="#ff0"/>
<rect x="487" y="301" width="3" height="10" fill="#ff0"/>
<text x="20" y="330" class="sm">1.282e-07</text>
<rect x="100" y="320" width="157" height="12" fill="#00f"/>
<rect x="318" y="320" width="419" height="12" fill="#00f"/>
<line x1="257" y1="326" x2="317" y2="326" stroke="#00f"/>
<rect x="180" y="321" width="77" height="10" fill="#ff0"/>
<rect x="319" y="321" width="125" height="10" fill="#ff0"/>
<text x="20" y="350" class="sm">8.122e-08</text>
<rect x="100" y="340" width="340" height="12" fill="#00f"/>
<rect x="498" y="340" width="239" height="12" fill="#00f"/>
<line x1="440" y1="346" x2="497" y2="346" stroke="#00f"/>
<rect x="235" y="341" width="205" height="10" fill="#ff0"/>
<rect x="499" y="341" width="9" height="10" fill="#ff0"/>
<text x="20" y="370" class="sm">5.131e-08</text>
<rect x="100" y="360" width="166" height="12" fill="#00f"/>
<rect x="304" y="360" width="433" height="12" fill="#00f"/>
<line x1="266" y1="366" x2="303" y2="366" stroke="#00f"/>
<rect x="235" y="361" width="31" height="10" fill="#ff0"/>
<rect x="305" y="361" width="378" height="10" fill="#ff0"/>
<text x="20" y="390" class="sm">2.239e-08</text>
<rect x="100" y="380" width="159" height="12" fill="#00f"/>
<rect x="384" y="380" width="353" height="12" fill="#00f"/>
<line x1="259" y1="386" x2="383" y2="386" stroke="#00f"/>
<rect x="235" y="381" width="24" height="10" fill="#ff0"/>
<rect x="385" y="381" width="298" height="10" fill="#ff0"/>
<text x="20" y="410" class="sm">1.796e-08</text>
<rect x="100" y="400" width="151" height="12" fill="#00f"/>
<rect x="304" y="400" width="433" height="12" fill="#00f"/>
<line x1="251" y1="406" x2="303" y2="406" stroke="#00f"/>
<rect x="235" y="401" width="16" height="10" fill="#ff0"/>
<rect x="305" y="401" width="378" height="10" fill="#ff0"/>
<text x="20" y="430" class="sm">1.464e-08</text>
<rect x="100" y="420" width="157" height="12" fill="#00f"/>
<rect x="327" y="420" width="410" height="12" fill="#00f"/>
<line x1="257" y1="426" x2="326" y2="426" stroke="#00f"/>
<rect x="180" y="421" width="77" height="10" fill="#ff0"/>
<rect x="328" y="421" width="116" height="10" fill="#ff0"/>
<text x="20" y="450" class="sm">1.222e-08</text>
<rect x="100" y="440" width="157" height="12" fill="#00f"/>
<rect x="390" y="440" width="347" height="12" fill="#00f"/>
<line x1="257" y1="446" x2="389" y2="446" stroke="#00f"/>
<rect x="180" y="441" width="77" height="10" fill="#ff0"/>
<rect x="391" y="441" width="53" height="10" fill="#ff0"/>
<text x="20" y="470" class="sm">1.131e-08</text>
<rect x="100" y="460" width="159" height="12" fill="#00f"/>
<rect x="357" y="460" width="380" height="12" fill="#00f"/>
<line x1="259" y1="466" x2="356" y2="466" stroke="#00f"/>
<rect x="235" y="461" width="24" height="10" fill="#ff0"/>
<rect x="358" y="461" width="325" height="10" fill="#ff0"/>
<text x="20" y="490" class="sm">9.851e-09</text>
<rect x="100" y="480" width="235" height="12" fill="#00f"/>
<rect x="372" y="480" width="365" height="12" fill="#00f"/>
<line x1="335" y1="486" x2="371" y2="486" stroke="#00f"/>
<rect x="235" y="481" width="100" height="10" fill="#ff0"/>
<rect x="373" y="481" width="45" height="10" fill="#ff0"/>
<text x="20" y="510" class="sm">9.482e-09</text>
<rect x="100" y="500" width="130" height="12" fill="#00f"/>
<rect x="304" y="500" width="433" height="12" fill="#00f"/>
<line x1="230" y1="506" x2="303" y2="506" stroke="#00f"/>
<rect x="583" y="501" width="122" height="10" fill="#ff0"/>
</svg>
