<svg viewBox="0 0 893 545" xmlns="http://www.w3.org/2000/svg">

<style>
  .sm { font: 12px sans-serif; }
  .lg { font: 15px sans-serif; }
</style>
<rect fill="#ddd" x="0" y="0" width="100%" height="100%"/>
<text x="20" y="20" class="lg">ch.18421 X:5904553-5905445 Gene:WBGene00019160</text>
<text x="20" y="50" class="sm">WormBase</text>
<rect x="100" y="40" width="77" height="12" fill="#00f"/>
<rect x="223" y="40" width="73" height="12" fill="#00f"/>
<rect x="343" y="40" width="450" height="12" fill="#00f"/>
<line x1="177" y1="46" x2="222" y2="46" stroke="#00f"/>
<line x1="296" y1="46" x2="342" y2="46" stroke="#00f"/>
<rect x="118" y="41" width="59" height="10" fill="#ff0"/>
<rect x="224" y="41" width="72" height="10" fill="#ff0"/>
<rect x="344" y="41" width="85" height="10" fill="#ff0"/>
<rect x="101" y="41" width="16" height="10" fill="brown"><title>.</title></rect>
<rect x="430" y="41" width="363" height="10" fill="brown"><title>.</title></rect>
<text x="20" y="70" class="sm">Fitness: 0.06067319781843575</text>
<rect x="296" y="65" width="47" height="5" fill="#00f"><title>1001930.0</title></rect>
<rect x="177" y="70" width="46" height="5" fill="#00f"><title>655874.0</title></rect>
<rect x="300" y="75" width="43" height="5" fill="#00f"><title>94.0</title></rect>
<rect x="376" y="80" width="239" height="5" fill="#f0f"><title>11.0</title></rect>
<rect x="100" y="85" width="123" height="5" fill="#00f"><title>10.0</title></rect>
<rect x="177" y="90" width="52" height="5" fill="#00f"><title>10.0</title></rect>
<rect x="181" y="95" width="48" height="5" fill="#00f"><title>8.0</title></rect>
<rect x="146" y="100" width="348" height="5" fill="#f0f"><title>4.0</title></rect>
<rect x="640" y="105" width="113" height="5" fill="#f0f"><title>4.0</title></rect>
<text x="20" y="135" class="sm">0.5662</text>
<rect x="100" y="125" width="77" height="12" fill="#00f"/>
<rect x="223" y="125" width="73" height="12" fill="#00f"/>
<rect x="343" y="125" width="453" height="12" fill="#00f"/>
<line x1="177" y1="131" x2="222" y2="131" stroke="#00f"/>
<line x1="296" y1="131" x2="342" y2="131" stroke="#00f"/>
<rect x="118" y="126" width="59" height="10" fill="#ff0"/>
<rect x="224" y="126" width="72" height="10" fill="#ff0"/>
<rect x="344" y="126" width="85" height="10" fill="#ff0"/>
<text x="20" y="155" class="sm">0.3502</text>
<rect x="100" y="145" width="196" height="12" fill="#00f"/>
<rect x="343" y="145" width="453" height="12" fill="#00f"/>
<line x1="296" y1="151" x2="342" y2="151" stroke="#00f"/>
<rect x="161" y="146" width="135" height="10" fill="#ff0"/>
<rect x="344" y="146" width="85" height="10" fill="#ff0"/>
<text x="20" y="175" class="sm">0.03692</text>
<rect x="100" y="165" width="77" height="12" fill="#00f"/>
<rect x="223" y="165" width="573" height="12" fill="#00f"/>
<line x1="177" y1="171" x2="222" y2="171" stroke="#00f"/>
<rect x="118" y="166" width="59" height="10" fill="#ff0"/>
<rect x="224" y="166" width="80" height="10" fill="#ff0"/>
<text x="20" y="195" class="sm">0.01284</text>
<rect x="100" y="185" width="77" height="12" fill="#00f"/>
<rect x="223" y="185" width="77" height="12" fill="#00f"/>
<rect x="343" y="185" width="453" height="12" fill="#00f"/>
<line x1="177" y1="191" x2="222" y2="191" stroke="#00f"/>
<line x1="300" y1="191" x2="342" y2="191" stroke="#00f"/>
<rect x="118" y="186" width="59" height="10" fill="#ff0"/>
<rect x="224" y="186" width="76" height="10" fill="#ff0"/>
<rect x="344" y="186" width="54" height="10" fill="#ff0"/>
<text x="20" y="215" class="sm">0.008221</text>
<rect x="100" y="205" width="77" height="12" fill="#00f"/>
<rect x="223" y="205" width="73" height="12" fill="#00f"/>
<rect x="343" y="205" width="339" height="12" fill="#00f"/>
<rect x="724" y="205" width="72" height="12" fill="#00f"/>
<line x1="177" y1="211" x2="222" y2="211" stroke="#00f"/>
<line x1="296" y1="211" x2="342" y2="211" stroke="#00f"/>
<line x1="682" y1="211" x2="723" y2="211" stroke="#00f"/>
<rect x="118" y="206" width="59" height="10" fill="#ff0"/>
<rect x="224" y="206" width="72" height="10" fill="#ff0"/>
<rect x="344" y="206" width="85" height="10" fill="#ff0"/>
<text x="20" y="235" class="sm">0.008107</text>
<rect x="100" y="225" width="200" height="12" fill="#00f"/>
<rect x="343" y="225" width="453" height="12" fill="#00f"/>
<line x1="300" y1="231" x2="342" y2="231" stroke="#00f"/>
<rect x="161" y="226" width="139" height="10" fill="#ff0"/>
<rect x="344" y="226" width="54" height="10" fill="#ff0"/>
<text x="20" y="255" class="sm">0.005085</text>
<rect x="100" y="245" width="196" height="12" fill="#00f"/>
<rect x="343" y="245" width="339" height="12" fill="#00f"/>
<rect x="724" y="245" width="72" height="12" fill="#00f"/>
<line x1="296" y1="251" x2="342" y2="251" stroke="#00f"/>
<line x1="682" y1="251" x2="723" y2="251" stroke="#00f"/>
<rect x="161" y="246" width="135" height="10" fill="#ff0"/>
<rect x="344" y="246" width="85" height="10" fill="#ff0"/>
<text x="20" y="275" class="sm">0.004077</text>
<rect x="100" y="265" width="77" height="12" fill="#00f"/>
<rect x="223" y="265" width="73" height="12" fill="#00f"/>
<rect x="343" y="265" width="82" height="12" fill="#00f"/>
<rect x="505" y="265" width="291" height="12" fill="#00f"/>
<line x1="177" y1="271" x2="222" y2="271" stroke="#00f"/>
<line x1="296" y1="271" x2="342" y2="271" stroke="#00f"/>
<line x1="425" y1="271" x2="504" y2="271" stroke="#00f"/>
<rect x="118" y="266" width="59" height="10" fill="#ff0"/>
<rect x="224" y="266" width="72" height="10" fill="#ff0"/>
<rect x="344" y="266" width="81" height="10" fill="#ff0"/>
<rect x="506" y="266" width="96" height="10" fill="#ff0"/>
<text x="20" y="295" class="sm">0.002521</text>
<rect x="100" y="285" width="196" height="12" fill="#00f"/>
<rect x="343" y="285" width="82" height="12" fill="#00f"/>
<rect x="505" y="285" width="291" height="12" fill="#00f"/>
<line x1="296" y1="291" x2="342" y2="291" stroke="#00f"/>
<line x1="425" y1="291" x2="504" y2="291" stroke="#00f"/>
<rect x="161" y="286" width="135" height="10" fill="#ff0"/>
<rect x="344" y="286" width="81" height="10" fill="#ff0"/>
<rect x="506" y="286" width="96" height="10" fill="#ff0"/>
<text x="20" y="315" class="sm">0.001112</text>
<rect x="100" y="305" width="77" height="12" fill="#00f"/>
<rect x="223" y="305" width="36" height="12" fill="#00f"/>
<rect x="343" y="305" width="453" height="12" fill="#00f"/>
<line x1="177" y1="311" x2="222" y2="311" stroke="#00f"/>
<line x1="259" y1="311" x2="342" y2="311" stroke="#00f"/>
<rect x="118" y="306" width="59" height="10" fill="#ff0"/>
<rect x="224" y="306" width="35" height="10" fill="#ff0"/>
<rect x="344" y="306" width="104" height="10" fill="#ff0"/>
<text x="20" y="335" class="sm">0.000928</text>
<rect x="100" y="325" width="77" height="12" fill="#00f"/>
<rect x="223" y="325" width="36" height="12" fill="#00f"/>
<rect x="323" y="325" width="473" height="12" fill="#00f"/>
<line x1="177" y1="331" x2="222" y2="331" stroke="#00f"/>
<line x1="259" y1="331" x2="322" y2="331" stroke="#00f"/>
<rect x="118" y="326" width="59" height="10" fill="#ff0"/>
<rect x="224" y="326" width="35" height="10" fill="#ff0"/>
<rect x="324" y="326" width="74" height="10" fill="#ff0"/>
<text x="20" y="355" class="sm">0.0005629</text>
<rect x="100" y="345" width="77" height="12" fill="#00f"/>
<rect x="223" y="345" width="459" height="12" fill="#00f"/>
<rect x="724" y="345" width="72" height="12" fill="#00f"/>
<line x1="177" y1="351" x2="222" y2="351" stroke="#00f"/>
<line x1="682" y1="351" x2="723" y2="351" stroke="#00f"/>
<rect x="118" y="346" width="59" height="10" fill="#ff0"/>
<rect x="224" y="346" width="80" height="10" fill="#ff0"/>
<text x="20" y="375" class="sm">0.000545</text>
<rect x="100" y="365" width="77" height="12" fill="#00f"/>
<rect x="223" y="365" width="73" height="12" fill="#00f"/>
<rect x="367" y="365" width="429" height="12" fill="#00f"/>
<line x1="177" y1="371" x2="222" y2="371" stroke="#00f"/>
<line x1="296" y1="371" x2="366" y2="371" stroke="#00f"/>
<rect x="118" y="366" width="59" height="10" fill="#ff0"/>
<rect x="224" y="366" width="72" height="10" fill="#ff0"/>
<rect x="368" y="366" width="61" height="10" fill="#ff0"/>
<text x="20" y="395" class="sm">0.0005327</text>
<rect x="100" y="385" width="159" height="12" fill="#00f"/>
<rect x="343" y="385" width="453" height="12" fill="#00f"/>
<line x1="259" y1="391" x2="342" y2="391" stroke="#00f"/>
<rect x="161" y="386" width="98" height="10" fill="#ff0"/>
<rect x="344" y="386" width="104" height="10" fill="#ff0"/>
<text x="20" y="415" class="sm">0.0004444</text>
<rect x="100" y="405" width="159" height="12" fill="#00f"/>
<rect x="323" y="405" width="473" height="12" fill="#00f"/>
<line x1="259" y1="411" x2="322" y2="411" stroke="#00f"/>
<rect x="161" y="406" width="98" height="10" fill="#ff0"/>
<rect x="324" y="406" width="74" height="10" fill="#ff0"/>
<text x="20" y="435" class="sm">0.0003687</text>
<rect x="100" y="425" width="77" height="12" fill="#00f"/>
<rect x="229" y="425" width="67" height="12" fill="#00f"/>
<rect x="343" y="425" width="453" height="12" fill="#00f"/>
<line x1="177" y1="431" x2="228" y2="431" stroke="#00f"/>
<line x1="296" y1="431" x2="342" y2="431" stroke="#00f"/>
<rect x="118" y="426" width="59" height="10" fill="#ff0"/>
<rect x="230" y="426" width="66" height="10" fill="#ff0"/>
<rect x="344" y="426" width="85" height="10" fill="#ff0"/>
<text x="20" y="455" class="sm">0.0003657</text>
<rect x="100" y="445" width="582" height="12" fill="#00f"/>
<rect x="724" y="445" width="72" height="12" fill="#00f"/>
<line x1="682" y1="451" x2="723" y2="451" stroke="#00f"/>
<rect x="161" y="446" width="143" height="10" fill="#ff0"/>
<text x="20" y="475" class="sm">0.0003581</text>
<rect x="100" y="465" width="77" height="12" fill="#00f"/>
<rect x="223" y="465" width="48" height="12" fill="#00f"/>
<rect x="323" y="465" width="473" height="12" fill="#00f"/>
<line x1="177" y1="471" x2="222" y2="471" stroke="#00f"/>
<line x1="271" y1="471" x2="322" y2="471" stroke="#00f"/>
<rect x="118" y="466" width="59" height="10" fill="#ff0"/>
<rect x="224" y="466" width="47" height="10" fill="#ff0"/>
<rect x="324" y="466" width="74" height="10" fill="#ff0"/>
<text x="20" y="495" class="sm">0.0003371</text>
<rect x="100" y="485" width="196" height="12" fill="#00f"/>
<rect x="367" y="485" width="429" height="12" fill="#00f"/>
<line x1="296" y1="491" x2="366" y2="491" stroke="#00f"/>
<rect x="161" y="486" width="135" height="10" fill="#ff0"/>
<rect x="368" y="486" width="61" height="10" fill="#ff0"/>
<text x="20" y="515" class="sm">0.0002646</text>
<rect x="100" y="505" width="77" height="12" fill="#00f"/>
<rect x="223" y="505" width="202" height="12" fill="#00f"/>
<rect x="505" y="505" width="291" height="12" fill="#00f"/>
<line x1="177" y1="511" x2="222" y2="511" stroke="#00f"/>
<line x1="425" y1="511" x2="504" y2="511" stroke="#00f"/>
<rect x="349" y="506" width="76" height="10" fill="#ff0"/>
<rect x="506" y="506" width="96" height="10" fill="#ff0"/>
</svg>
