<svg viewBox="0 0 620 515" xmlns="http://www.w3.org/2000/svg">

<style>
  .sm { font: 12px sans-serif; }
  .lg { font: 15px sans-serif; }
</style>
<rect fill="#ddd" x="0" y="0" width="100%" height="100%"/>
<text x="20" y="20" class="lg">ch.19880 X:14529688-14530307 Gene:WBGene00008356</text>
<text x="20" y="50" class="sm">WormBase</text>
<rect x="102" y="40" width="34" height="12" fill="#00f"/>
<rect x="178" y="40" width="344" height="12" fill="#00f"/>
<line x1="136" y1="46" x2="177" y2="46" stroke="#00f"/>
<rect x="131" y="41" width="5" height="10" fill="#ff0"/>
<rect x="179" y="41" width="305" height="10" fill="#ff0"/>
<rect x="103" y="41" width="27" height="10" fill="brown"><title>.</title></rect>
<rect x="485" y="41" width="37" height="10" fill="brown"><title>.</title></rect>
<text x="20" y="70" class="sm">Fitness: 3.5083494272828475e-11</text>
<rect x="136" y="65" width="42" height="5" fill="#00f"><title>236792.0</title></rect>
<rect x="238" y="70" width="231" height="5" fill="#f0f"><title>3.0</title></rect>
<rect x="216" y="75" width="102" height="5" fill="#f0f"><title>3.0</title></rect>
<text x="20" y="105" class="sm">1.0</text>
<rect x="100" y="95" width="36" height="12" fill="#00f"/>
<rect x="178" y="95" width="345" height="12" fill="#00f"/>
<line x1="136" y1="101" x2="177" y2="101" stroke="#00f"/>
<rect x="131" y="96" width="5" height="10" fill="#ff0"/>
<rect x="179" y="96" width="305" height="10" fill="#ff0"/>
<text x="20" y="125" class="sm">1.669e-11</text>
<rect x="100" y="115" width="40" height="12" fill="#00f"/>
<rect x="178" y="115" width="345" height="12" fill="#00f"/>
<line x1="140" y1="121" x2="177" y2="121" stroke="#00f"/>
<rect x="131" y="116" width="9" height="10" fill="#ff0"/>
<rect x="179" y="116" width="142" height="10" fill="#ff0"/>
<text x="20" y="145" class="sm">8.317e-13</text>
<rect x="100" y="135" width="36" height="12" fill="#00f"/>
<rect x="172" y="135" width="351" height="12" fill="#00f"/>
<line x1="136" y1="141" x2="171" y2="141" stroke="#00f"/>
<rect x="309" y="136" width="140" height="10" fill="#ff0"/>
<text x="20" y="165" class="sm">1.672e-14</text>
<rect x="100" y="155" width="36" height="12" fill="#00f"/>
<rect x="260" y="155" width="263" height="12" fill="#00f"/>
<line x1="136" y1="161" x2="259" y2="161" stroke="#00f"/>
<rect x="309" y="156" width="140" height="10" fill="#ff0"/>
<text x="20" y="185" class="sm">2.037e-15</text>
<rect x="100" y="175" width="36" height="12" fill="#00f"/>
<rect x="221" y="175" width="302" height="12" fill="#00f"/>
<line x1="136" y1="181" x2="220" y2="181" stroke="#00f"/>
<rect x="309" y="176" width="140" height="10" fill="#ff0"/>
<text x="20" y="205" class="sm">1e-15</text>
<rect x="100" y="195" width="292" height="12" fill="#00f"/>
<rect x="445" y="195" width="78" height="12" fill="#00f"/>
<line x1="392" y1="201" x2="444" y2="201" stroke="#00f"/>
<rect x="309" y="196" width="83" height="10" fill="#ff0"/>
<rect x="446" y="196" width="38" height="10" fill="#ff0"/>
<text x="20" y="225" class="sm">1.969e-16</text>
<rect x="100" y="215" width="117" height="12" fill="#00f"/>
<rect x="260" y="215" width="263" height="12" fill="#00f"/>
<line x1="217" y1="221" x2="259" y2="221" stroke="#00f"/>
<rect x="309" y="216" width="140" height="10" fill="#ff0"/>
<text x="20" y="245" class="sm">7.21e-17</text>
<rect x="100" y="235" width="302" height="12" fill="#00f"/>
<rect x="445" y="235" width="78" height="12" fill="#00f"/>
<line x1="402" y1="241" x2="444" y2="241" stroke="#00f"/>
<text x="20" y="265" class="sm">1.601e-17</text>
<rect x="100" y="255" width="278" height="12" fill="#00f"/>
<rect x="425" y="255" width="98" height="12" fill="#00f"/>
<line x1="378" y1="261" x2="424" y2="261" stroke="#00f"/>
<rect x="309" y="256" width="69" height="10" fill="#ff0"/>
<rect x="426" y="256" width="58" height="10" fill="#ff0"/>
<text x="20" y="285" class="sm">5.917e-18</text>
<rect x="100" y="275" width="36" height="12" fill="#00f"/>
<rect x="248" y="275" width="275" height="12" fill="#00f"/>
<line x1="136" y1="281" x2="247" y2="281" stroke="#00f"/>
<rect x="309" y="276" width="140" height="10" fill="#ff0"/>
<text x="20" y="305" class="sm">3.656e-19</text>
<rect x="100" y="295" width="280" height="12" fill="#00f"/>
<rect x="425" y="295" width="98" height="12" fill="#00f"/>
<line x1="380" y1="301" x2="424" y2="301" stroke="#00f"/>
<rect x="309" y="296" width="71" height="10" fill="#ff0"/>
<rect x="426" y="296" width="23" height="10" fill="#ff0"/>
<text x="20" y="325" class="sm">6.525e-20</text>
<rect x="100" y="315" width="162" height="12" fill="#00f"/>
<rect x="306" y="315" width="217" height="12" fill="#00f"/>
<line x1="262" y1="321" x2="305" y2="321" stroke="#00f"/>
<rect x="309" y="316" width="140" height="10" fill="#ff0"/>
<text x="20" y="345" class="sm">3.469e-20</text>
<rect x="100" y="335" width="292" height="12" fill="#00f"/>
<rect x="437" y="335" width="86" height="12" fill="#00f"/>
<line x1="392" y1="341" x2="436" y2="341" stroke="#00f"/>
<rect x="309" y="336" width="83" height="10" fill="#ff0"/>
<rect x="438" y="336" width="11" height="10" fill="#ff0"/>
<text x="20" y="365" class="sm">1.461e-20</text>
<rect x="100" y="355" width="58" height="12" fill="#00f"/>
<rect x="221" y="355" width="302" height="12" fill="#00f"/>
<line x1="158" y1="361" x2="220" y2="361" stroke="#00f"/>
<rect x="309" y="356" width="140" height="10" fill="#ff0"/>
<text x="20" y="385" class="sm">8.925e-21</text>
<rect x="100" y="375" width="58" height="12" fill="#00f"/>
<rect x="260" y="375" width="263" height="12" fill="#00f"/>
<line x1="158" y1="381" x2="259" y2="381" stroke="#00f"/>
<rect x="309" y="376" width="140" height="10" fill="#ff0"/>
<text x="20" y="405" class="sm">6.888e-21</text>
<rect x="100" y="395" width="160" height="12" fill="#00f"/>
<rect x="306" y="395" width="217" height="12" fill="#00f"/>
<line x1="260" y1="401" x2="305" y2="401" stroke="#00f"/>
<rect x="309" y="396" width="140" height="10" fill="#ff0"/>
<text x="20" y="425" class="sm">4.539e-21</text>
<rect x="100" y="415" width="278" height="12" fill="#00f"/>
<rect x="445" y="415" width="78" height="12" fill="#00f"/>
<line x1="378" y1="421" x2="444" y2="421" stroke="#00f"/>
<text x="20" y="445" class="sm">2.704e-21</text>
<rect x="100" y="435" width="244" height="12" fill="#00f"/>
<rect x="403" y="435" width="120" height="12" fill="#00f"/>
<line x1="344" y1="441" x2="402" y2="441" stroke="#00f"/>
<rect x="309" y="436" width="35" height="10" fill="#ff0"/>
<rect x="404" y="436" width="80" height="10" fill="#ff0"/>
<text x="20" y="465" class="sm">2.55e-21</text>
<rect x="100" y="455" width="244" height="12" fill="#00f"/>
<rect x="396" y="455" width="127" height="12" fill="#00f"/>
<line x1="344" y1="461" x2="395" y2="461" stroke="#00f"/>
<rect x="446" y="456" width="38" height="10" fill="#ff0"/>
<text x="20" y="485" class="sm">1.37e-21</text>
<rect x="100" y="475" width="154" height="12" fill="#00f"/>
<rect x="306" y="475" width="217" height="12" fill="#00f"/>
<line x1="254" y1="481" x2="305" y2="481" stroke="#00f"/>
<rect x="309" y="476" width="140" height="10" fill="#ff0"/>
</svg>
