<svg viewBox="0 0 740 545" xmlns="http://www.w3.org/2000/svg">

<style>
  .sm { font: 12px sans-serif; }
  .lg { font: 15px sans-serif; }
</style>
<rect fill="#ddd" x="0" y="0" width="100%" height="100%"/>
<text x="20" y="20" class="lg">ch.11635 IV:12281568-12282307 Gene:WBGene00016590</text>
<text x="20" y="50" class="sm">WormBase</text>
<rect x="102" y="40" width="72" height="12" fill="#00f"/>
<rect x="225" y="40" width="152" height="12" fill="#00f"/>
<rect x="426" y="40" width="216" height="12" fill="#00f"/>
<line x1="174" y1="46" x2="224" y2="46" stroke="#00f"/>
<line x1="377" y1="46" x2="425" y2="46" stroke="#00f"/>
<rect x="106" y="41" width="68" height="10" fill="#ff0"/>
<rect x="226" y="41" width="151" height="10" fill="#ff0"/>
<rect x="427" y="41" width="138" height="10" fill="#ff0"/>
<rect x="103" y="41" width="2" height="10" fill="brown"><title>.</title></rect>
<rect x="566" y="41" width="76" height="10" fill="brown"><title>.</title></rect>
<text x="20" y="70" class="sm">Fitness: 0.04677982237927838</text>
<rect x="174" y="65" width="51" height="5" fill="#00f"><title>342901.0</title></rect>
<rect x="377" y="70" width="49" height="5" fill="#00f"><title>313126.0</title></rect>
<rect x="174" y="75" width="58" height="5" fill="#00f"><title>93.0</title></rect>
<rect x="372" y="80" width="54" height="5" fill="#00f"><title>55.0</title></rect>
<rect x="337" y="85" width="89" height="5" fill="#00f"><title>33.0</title></rect>
<rect x="6" y="90" width="96" height="5" fill="#00f"><title>30.0</title></rect>
<rect x="377" y="95" width="51" height="5" fill="#00f"><title>28.0</title></rect>
<rect x="360" y="100" width="66" height="5" fill="#00f"><title>9.0</title></rect>
<rect x="377" y="105" width="63" height="5" fill="#00f"><title>4.0</title></rect>
<text x="20" y="135" class="sm">0.9577</text>
<rect x="100" y="125" width="74" height="12" fill="#00f"/>
<rect x="225" y="125" width="152" height="12" fill="#00f"/>
<rect x="426" y="125" width="217" height="12" fill="#00f"/>
<line x1="174" y1="131" x2="224" y2="131" stroke="#00f"/>
<line x1="377" y1="131" x2="425" y2="131" stroke="#00f"/>
<rect x="106" y="126" width="68" height="10" fill="#ff0"/>
<rect x="226" y="126" width="151" height="10" fill="#ff0"/>
<rect x="427" y="126" width="138" height="10" fill="#ff0"/>
<text x="20" y="155" class="sm">0.03758</text>
<rect x="100" y="145" width="74" height="12" fill="#00f"/>
<rect x="225" y="145" width="147" height="12" fill="#00f"/>
<rect x="426" y="145" width="217" height="12" fill="#00f"/>
<line x1="174" y1="151" x2="224" y2="151" stroke="#00f"/>
<line x1="372" y1="151" x2="425" y2="151" stroke="#00f"/>
<rect x="106" y="146" width="68" height="10" fill="#ff0"/>
<rect x="226" y="146" width="146" height="10" fill="#ff0"/>
<rect x="427" y="146" width="20" height="10" fill="#ff0"/>
<text x="20" y="175" class="sm">0.002289</text>
<rect x="100" y="165" width="74" height="12" fill="#00f"/>
<rect x="225" y="165" width="145" height="12" fill="#00f"/>
<rect x="426" y="165" width="217" height="12" fill="#00f"/>
<line x1="174" y1="171" x2="224" y2="171" stroke="#00f"/>
<line x1="370" y1="171" x2="425" y2="171" stroke="#00f"/>
<rect x="106" y="166" width="68" height="10" fill="#ff0"/>
<rect x="226" y="166" width="144" height="10" fill="#ff0"/>
<rect x="427" y="166" width="52" height="10" fill="#ff0"/>
<text x="20" y="195" class="sm">0.0008061</text>
<rect x="100" y="185" width="74" height="12" fill="#00f"/>
<rect x="225" y="185" width="71" height="12" fill="#00f"/>
<rect x="338" y="185" width="39" height="12" fill="#00f"/>
<rect x="426" y="185" width="217" height="12" fill="#00f"/>
<line x1="174" y1="191" x2="224" y2="191" stroke="#00f"/>
<line x1="296" y1="191" x2="337" y2="191" stroke="#00f"/>
<line x1="377" y1="191" x2="425" y2="191" stroke="#00f"/>
<rect x="106" y="186" width="68" height="10" fill="#ff0"/>
<rect x="226" y="186" width="70" height="10" fill="#ff0"/>
<rect x="339" y="186" width="38" height="10" fill="#ff0"/>
<rect x="427" y="186" width="138" height="10" fill="#ff0"/>
<text x="20" y="215" class="sm">0.0006156</text>
<rect x="100" y="205" width="74" height="12" fill="#00f"/>
<rect x="232" y="205" width="145" height="12" fill="#00f"/>
<rect x="426" y="205" width="217" height="12" fill="#00f"/>
<line x1="174" y1="211" x2="231" y2="211" stroke="#00f"/>
<line x1="377" y1="211" x2="425" y2="211" stroke="#00f"/>
<rect x="262" y="206" width="115" height="10" fill="#ff0"/>
<rect x="427" y="206" width="138" height="10" fill="#ff0"/>
<text x="20" y="235" class="sm">0.0002423</text>
<rect x="100" y="225" width="85" height="12" fill="#00f"/>
<rect x="232" y="225" width="145" height="12" fill="#00f"/>
<rect x="426" y="225" width="217" height="12" fill="#00f"/>
<line x1="185" y1="231" x2="231" y2="231" stroke="#00f"/>
<line x1="377" y1="231" x2="425" y2="231" stroke="#00f"/>
<rect x="149" y="226" width="36" height="10" fill="#ff0"/>
<rect x="233" y="226" width="144" height="10" fill="#ff0"/>
<rect x="427" y="226" width="138" height="10" fill="#ff0"/>
<text x="20" y="255" class="sm">0.0001091</text>
<rect x="100" y="245" width="74" height="12" fill="#00f"/>
<rect x="225" y="245" width="112" height="12" fill="#00f"/>
<rect x="426" y="245" width="217" height="12" fill="#00f"/>
<line x1="174" y1="251" x2="224" y2="251" stroke="#00f"/>
<line x1="337" y1="251" x2="425" y2="251" stroke="#00f"/>
<rect x="106" y="246" width="68" height="10" fill="#ff0"/>
<rect x="226" y="246" width="111" height="10" fill="#ff0"/>
<rect x="427" y="246" width="52" height="10" fill="#ff0"/>
<text x="20" y="275" class="sm">0.0001002</text>
<rect x="100" y="265" width="74" height="12" fill="#00f"/>
<rect x="225" y="265" width="101" height="12" fill="#00f"/>
<rect x="426" y="265" width="217" height="12" fill="#00f"/>
<line x1="174" y1="271" x2="224" y2="271" stroke="#00f"/>
<line x1="326" y1="271" x2="425" y2="271" stroke="#00f"/>
<rect x="106" y="266" width="68" height="10" fill="#ff0"/>
<rect x="226" y="266" width="100" height="10" fill="#ff0"/>
<rect x="427" y="266" width="138" height="10" fill="#ff0"/>
<text x="20" y="295" class="sm">9.817e-05</text>
<rect x="100" y="285" width="85" height="12" fill="#00f"/>
<rect x="225" y="285" width="152" height="12" fill="#00f"/>
<rect x="426" y="285" width="217" height="12" fill="#00f"/>
<line x1="185" y1="291" x2="224" y2="291" stroke="#00f"/>
<line x1="377" y1="291" x2="425" y2="291" stroke="#00f"/>
<rect x="262" y="286" width="115" height="10" fill="#ff0"/>
<rect x="427" y="286" width="138" height="10" fill="#ff0"/>
<text x="20" y="315" class="sm">9.595e-05</text>
<rect x="100" y="305" width="74" height="12" fill="#00f"/>
<rect x="225" y="305" width="38" height="12" fill="#00f"/>
<rect x="310" y="305" width="67" height="12" fill="#00f"/>
<rect x="426" y="305" width="217" height="12" fill="#00f"/>
<line x1="174" y1="311" x2="224" y2="311" stroke="#00f"/>
<line x1="263" y1="311" x2="309" y2="311" stroke="#00f"/>
<line x1="377" y1="311" x2="425" y2="311" stroke="#00f"/>
<rect x="106" y="306" width="68" height="10" fill="#ff0"/>
<rect x="226" y="306" width="37" height="10" fill="#ff0"/>
<rect x="311" y="306" width="66" height="10" fill="#ff0"/>
<rect x="427" y="306" width="20" height="10" fill="#ff0"/>
<text x="20" y="335" class="sm">9.524e-05</text>
<rect x="100" y="325" width="74" height="12" fill="#00f"/>
<rect x="225" y="325" width="112" height="12" fill="#00f"/>
<rect x="384" y="325" width="259" height="12" fill="#00f"/>
<line x1="174" y1="331" x2="224" y2="331" stroke="#00f"/>
<line x1="337" y1="331" x2="383" y2="331" stroke="#00f"/>
<rect x="106" y="326" width="68" height="10" fill="#ff0"/>
<rect x="226" y="326" width="111" height="10" fill="#ff0"/>
<rect x="385" y="326" width="22" height="10" fill="#ff0"/>
<text x="20" y="355" class="sm">6.841e-05</text>
<rect x="100" y="345" width="74" height="12" fill="#00f"/>
<rect x="225" y="345" width="65" height="12" fill="#00f"/>
<rect x="338" y="345" width="39" height="12" fill="#00f"/>
<rect x="426" y="345" width="217" height="12" fill="#00f"/>
<line x1="174" y1="351" x2="224" y2="351" stroke="#00f"/>
<line x1="290" y1="351" x2="337" y2="351" stroke="#00f"/>
<line x1="377" y1="351" x2="425" y2="351" stroke="#00f"/>
<rect x="106" y="346" width="68" height="10" fill="#ff0"/>
<rect x="226" y="346" width="64" height="10" fill="#ff0"/>
<rect x="339" y="346" width="38" height="10" fill="#ff0"/>
<rect x="427" y="346" width="138" height="10" fill="#ff0"/>
<text x="20" y="375" class="sm">5.859e-05</text>
<rect x="100" y="365" width="74" height="12" fill="#00f"/>
<rect x="225" y="365" width="152" height="12" fill="#00f"/>
<rect x="426" y="365" width="90" height="12" fill="#00f"/>
<rect x="566" y="365" width="77" height="12" fill="#00f"/>
<line x1="174" y1="371" x2="224" y2="371" stroke="#00f"/>
<line x1="377" y1="371" x2="425" y2="371" stroke="#00f"/>
<line x1="516" y1="371" x2="565" y2="371" stroke="#00f"/>
<rect x="106" y="366" width="68" height="10" fill="#ff0"/>
<rect x="226" y="366" width="151" height="10" fill="#ff0"/>
<rect x="427" y="366" width="89" height="10" fill="#ff0"/>
<rect x="567" y="366" width="72" height="10" fill="#ff0"/>
<text x="20" y="395" class="sm">3.346e-05</text>
<rect x="100" y="385" width="74" height="12" fill="#00f"/>
<rect x="225" y="385" width="101" height="12" fill="#00f"/>
<rect x="371" y="385" width="272" height="12" fill="#00f"/>
<line x1="174" y1="391" x2="224" y2="391" stroke="#00f"/>
<line x1="326" y1="391" x2="370" y2="391" stroke="#00f"/>
<rect x="106" y="386" width="68" height="10" fill="#ff0"/>
<rect x="226" y="386" width="100" height="10" fill="#ff0"/>
<rect x="372" y="386" width="12" height="10" fill="#ff0"/>
<text x="20" y="415" class="sm">3.282e-05</text>
<rect x="100" y="405" width="74" height="12" fill="#00f"/>
<rect x="225" y="405" width="152" height="12" fill="#00f"/>
<rect x="426" y="405" width="99" height="12" fill="#00f"/>
<rect x="600" y="405" width="43" height="12" fill="#00f"/>
<line x1="174" y1="411" x2="224" y2="411" stroke="#00f"/>
<line x1="377" y1="411" x2="425" y2="411" stroke="#00f"/>
<line x1="525" y1="411" x2="599" y2="411" stroke="#00f"/>
<rect x="106" y="406" width="68" height="10" fill="#ff0"/>
<rect x="226" y="406" width="151" height="10" fill="#ff0"/>
<rect x="427" y="406" width="98" height="10" fill="#ff0"/>
<rect x="601" y="406" width="15" height="10" fill="#ff0"/>
<text x="20" y="435" class="sm">2.838e-05</text>
<rect x="100" y="425" width="74" height="12" fill="#00f"/>
<rect x="232" y="425" width="140" height="12" fill="#00f"/>
<rect x="426" y="425" width="217" height="12" fill="#00f"/>
<line x1="174" y1="431" x2="231" y2="431" stroke="#00f"/>
<line x1="372" y1="431" x2="425" y2="431" stroke="#00f"/>
<rect x="149" y="426" width="25" height="10" fill="#ff0"/>
<rect x="233" y="426" width="139" height="10" fill="#ff0"/>
<rect x="427" y="426" width="1" height="10" fill="#ff0"/>
<text x="20" y="455" class="sm">2.72e-05</text>
<rect x="100" y="445" width="74" height="12" fill="#00f"/>
<rect x="225" y="445" width="152" height="12" fill="#00f"/>
<rect x="426" y="445" width="56" height="12" fill="#00f"/>
<rect x="530" y="445" width="113" height="12" fill="#00f"/>
<line x1="174" y1="451" x2="224" y2="451" stroke="#00f"/>
<line x1="377" y1="451" x2="425" y2="451" stroke="#00f"/>
<line x1="482" y1="451" x2="529" y2="451" stroke="#00f"/>
<rect x="106" y="446" width="68" height="10" fill="#ff0"/>
<rect x="226" y="446" width="151" height="10" fill="#ff0"/>
<rect x="427" y="446" width="55" height="10" fill="#ff0"/>
<rect x="531" y="446" width="34" height="10" fill="#ff0"/>
<text x="20" y="475" class="sm">2.479e-05</text>
<rect x="100" y="465" width="74" height="12" fill="#00f"/>
<rect x="225" y="465" width="152" height="12" fill="#00f"/>
<rect x="426" y="465" width="90" height="12" fill="#00f"/>
<rect x="600" y="465" width="43" height="12" fill="#00f"/>
<line x1="174" y1="471" x2="224" y2="471" stroke="#00f"/>
<line x1="377" y1="471" x2="425" y2="471" stroke="#00f"/>
<line x1="516" y1="471" x2="599" y2="471" stroke="#00f"/>
<rect x="106" y="466" width="68" height="10" fill="#ff0"/>
<rect x="226" y="466" width="151" height="10" fill="#ff0"/>
<rect x="427" y="466" width="89" height="10" fill="#ff0"/>
<rect x="601" y="466" width="15" height="10" fill="#ff0"/>
<text x="20" y="495" class="sm">1.714e-05</text>
<rect x="100" y="485" width="74" height="12" fill="#00f"/>
<rect x="225" y="485" width="71" height="12" fill="#00f"/>
<rect x="338" y="485" width="34" height="12" fill="#00f"/>
<rect x="426" y="485" width="217" height="12" fill="#00f"/>
<line x1="174" y1="491" x2="224" y2="491" stroke="#00f"/>
<line x1="296" y1="491" x2="337" y2="491" stroke="#00f"/>
<line x1="372" y1="491" x2="425" y2="491" stroke="#00f"/>
<rect x="106" y="486" width="68" height="10" fill="#ff0"/>
<rect x="226" y="486" width="70" height="10" fill="#ff0"/>
<rect x="339" y="486" width="33" height="10" fill="#ff0"/>
<rect x="427" y="486" width="20" height="10" fill="#ff0"/>
<text x="20" y="515" class="sm">1.117e-05</text>
<rect x="100" y="505" width="85" height="12" fill="#00f"/>
<rect x="232" y="505" width="140" height="12" fill="#00f"/>
<rect x="426" y="505" width="217" height="12" fill="#00f"/>
<line x1="185" y1="511" x2="231" y2="511" stroke="#00f"/>
<line x1="372" y1="511" x2="425" y2="511" stroke="#00f"/>
<rect x="106" y="506" width="79" height="10" fill="#ff0"/>
<rect x="233" y="506" width="139" height="10" fill="#ff0"/>
<rect x="427" y="506" width="1" height="10" fill="#ff0"/>
</svg>
