<svg viewBox="0 0 826 535" xmlns="http://www.w3.org/2000/svg">

<style>
  .sm { font: 12px sans-serif; }
  .lg { font: 15px sans-serif; }
</style>
<rect fill="#ddd" x="0" y="0" width="100%" height="100%"/>
<text x="20" y="20" class="lg">ch.17244 V:19432347-19433172 Gene:WBGene00045411</text>
<text x="20" y="50" class="sm">WormBase</text>
<rect x="102" y="40" width="263" height="12" fill="#00f"/>
<rect x="412" y="40" width="316" height="12" fill="#00f"/>
<line x1="365" y1="46" x2="411" y2="46" stroke="#00f"/>
<rect x="116" y="41" width="249" height="10" fill="#ff0"/>
<rect x="413" y="41" width="25" height="10" fill="#ff0"/>
<rect x="103" y="41" width="12" height="10" fill="brown"><title>.</title></rect>
<rect x="439" y="41" width="289" height="10" fill="brown"><title>.</title></rect>
<text x="20" y="70" class="sm">Fitness: 0.0008225157072013257</text>
<rect x="365" y="65" width="47" height="5" fill="#00f"><title>165250.0</title></rect>
<rect x="365" y="70" width="35" height="5" fill="#00f"><title>62.0</title></rect>
<rect x="329" y="75" width="53" height="5" fill="#f0f"><title>21.0</title></rect>
<rect x="320" y="80" width="92" height="5" fill="#00f"><title>20.0</title></rect>
<rect x="491" y="85" width="130" height="5" fill="#f0f"><title>8.0</title></rect>
<rect x="369" y="90" width="384" height="5" fill="#00f"><title>6.0</title></rect>
<rect x="190" y="95" width="62" height="5" fill="#f0f"><title>4.0</title></rect>
<text x="20" y="125" class="sm">0.9995</text>
<rect x="100" y="115" width="265" height="12" fill="#00f"/>
<rect x="412" y="115" width="317" height="12" fill="#00f"/>
<line x1="365" y1="121" x2="411" y2="121" stroke="#00f"/>
<rect x="116" y="116" width="249" height="10" fill="#ff0"/>
<rect x="413" y="116" width="25" height="10" fill="#ff0"/>
<text x="20" y="145" class="sm">0.0001383</text>
<rect x="100" y="135" width="220" height="12" fill="#00f"/>
<rect x="412" y="135" width="317" height="12" fill="#00f"/>
<line x1="320" y1="141" x2="411" y2="141" stroke="#00f"/>
<rect x="116" y="136" width="204" height="10" fill="#ff0"/>
<rect x="413" y="136" width="25" height="10" fill="#ff0"/>
<text x="20" y="165" class="sm">8.797e-05</text>
<rect x="100" y="155" width="220" height="12" fill="#00f"/>
<rect x="359" y="155" width="370" height="12" fill="#00f"/>
<line x1="320" y1="161" x2="358" y2="161" stroke="#00f"/>
<rect x="116" y="156" width="204" height="10" fill="#ff0"/>
<rect x="360" y="156" width="58" height="10" fill="#ff0"/>
<text x="20" y="185" class="sm">7.16e-05</text>
<rect x="100" y="175" width="269" height="12" fill="#00f"/>
<rect x="412" y="175" width="317" height="12" fill="#00f"/>
<line x1="369" y1="181" x2="411" y2="181" stroke="#00f"/>
<rect x="116" y="176" width="253" height="10" fill="#ff0"/>
<rect x="413" y="176" width="75" height="10" fill="#ff0"/>
<text x="20" y="205" class="sm">4.858e-05</text>
<rect x="100" y="195" width="483" height="12" fill="#00f"/>
<rect x="660" y="195" width="69" height="12" fill="#00f"/>
<line x1="583" y1="201" x2="659" y2="201" stroke="#00f"/>
<rect x="116" y="196" width="302" height="10" fill="#ff0"/>
<text x="20" y="225" class="sm">3.355e-05</text>
<rect x="100" y="215" width="183" height="12" fill="#00f"/>
<rect x="412" y="215" width="317" height="12" fill="#00f"/>
<line x1="283" y1="221" x2="411" y2="221" stroke="#00f"/>
<rect x="116" y="216" width="167" height="10" fill="#ff0"/>
<rect x="413" y="216" width="5" height="10" fill="#ff0"/>
<text x="20" y="245" class="sm">2.917e-05</text>
<rect x="100" y="235" width="193" height="12" fill="#00f"/>
<rect x="412" y="235" width="317" height="12" fill="#00f"/>
<line x1="293" y1="241" x2="411" y2="241" stroke="#00f"/>
<rect x="116" y="236" width="177" height="10" fill="#ff0"/>
<rect x="413" y="236" width="25" height="10" fill="#ff0"/>
<text x="20" y="265" class="sm">1.716e-05</text>
<rect x="100" y="255" width="513" height="12" fill="#00f"/>
<rect x="660" y="255" width="69" height="12" fill="#00f"/>
<line x1="613" y1="261" x2="659" y2="261" stroke="#00f"/>
<rect x="116" y="256" width="302" height="10" fill="#ff0"/>
<text x="20" y="285" class="sm">1.476e-05</text>
<rect x="100" y="275" width="430" height="12" fill="#00f"/>
<rect x="660" y="275" width="69" height="12" fill="#00f"/>
<line x1="530" y1="281" x2="659" y2="281" stroke="#00f"/>
<rect x="116" y="276" width="302" height="10" fill="#ff0"/>
<text x="20" y="305" class="sm">1.096e-05</text>
<rect x="100" y="295" width="193" height="12" fill="#00f"/>
<rect x="359" y="295" width="370" height="12" fill="#00f"/>
<line x1="293" y1="301" x2="358" y2="301" stroke="#00f"/>
<rect x="116" y="296" width="177" height="10" fill="#ff0"/>
<rect x="360" y="296" width="1" height="10" fill="#ff0"/>
<text x="20" y="325" class="sm">9.385e-06</text>
<rect x="100" y="315" width="183" height="12" fill="#00f"/>
<rect x="359" y="315" width="370" height="12" fill="#00f"/>
<line x1="283" y1="321" x2="358" y2="321" stroke="#00f"/>
<rect x="116" y="316" width="167" height="10" fill="#ff0"/>
<rect x="360" y="316" width="128" height="10" fill="#ff0"/>
<text x="20" y="345" class="sm">7.99e-06</text>
<rect x="100" y="335" width="265" height="12" fill="#00f"/>
<rect x="660" y="335" width="69" height="12" fill="#00f"/>
<line x1="365" y1="341" x2="659" y2="341" stroke="#00f"/>
<rect x="116" y="336" width="249" height="10" fill="#ff0"/>
<rect x="661" y="336" width="16" height="10" fill="#ff0"/>
<text x="20" y="365" class="sm">3.915e-06</text>
<rect x="100" y="355" width="265" height="12" fill="#00f"/>
<rect x="531" y="355" width="198" height="12" fill="#00f"/>
<line x1="365" y1="361" x2="530" y2="361" stroke="#00f"/>
<rect x="116" y="356" width="249" height="10" fill="#ff0"/>
<rect x="532" y="356" width="25" height="10" fill="#ff0"/>
<text x="20" y="385" class="sm">3.881e-06</text>
<rect x="100" y="375" width="524" height="12" fill="#00f"/>
<rect x="660" y="375" width="69" height="12" fill="#00f"/>
<line x1="624" y1="381" x2="659" y2="381" stroke="#00f"/>
<rect x="116" y="376" width="302" height="10" fill="#ff0"/>
<text x="20" y="405" class="sm">1.634e-06</text>
<rect x="100" y="395" width="183" height="12" fill="#00f"/>
<rect x="334" y="395" width="395" height="12" fill="#00f"/>
<line x1="283" y1="401" x2="333" y2="401" stroke="#00f"/>
<rect x="116" y="396" width="167" height="10" fill="#ff0"/>
<rect x="335" y="396" width="83" height="10" fill="#ff0"/>
<text x="20" y="425" class="sm">1.182e-06</text>
<rect x="100" y="415" width="233" height="12" fill="#00f"/>
<rect x="412" y="415" width="317" height="12" fill="#00f"/>
<line x1="333" y1="421" x2="411" y2="421" stroke="#00f"/>
<rect x="116" y="416" width="217" height="10" fill="#ff0"/>
<rect x="413" y="416" width="75" height="10" fill="#ff0"/>
<text x="20" y="445" class="sm">1.1e-06</text>
<rect x="100" y="435" width="220" height="12" fill="#00f"/>
<rect x="397" y="435" width="332" height="12" fill="#00f"/>
<line x1="320" y1="441" x2="396" y2="441" stroke="#00f"/>
<rect x="116" y="436" width="204" height="10" fill="#ff0"/>
<rect x="398" y="436" width="40" height="10" fill="#ff0"/>
<text x="20" y="465" class="sm">9.644e-07</text>
<rect x="100" y="455" width="193" height="12" fill="#00f"/>
<rect x="334" y="455" width="395" height="12" fill="#00f"/>
<line x1="293" y1="461" x2="333" y2="461" stroke="#00f"/>
<rect x="116" y="456" width="177" height="10" fill="#ff0"/>
<rect x="335" y="456" width="4" height="10" fill="#ff0"/>
<text x="20" y="485" class="sm">9.563e-07</text>
<rect x="100" y="475" width="427" height="12" fill="#00f"/>
<rect x="660" y="475" width="69" height="12" fill="#00f"/>
<line x1="527" y1="481" x2="659" y2="481" stroke="#00f"/>
<rect x="116" y="476" width="302" height="10" fill="#ff0"/>
<text x="20" y="505" class="sm">4.073e-07</text>
<rect x="100" y="495" width="46" height="12" fill="#00f"/>
<rect x="240" y="495" width="489" height="12" fill="#00f"/>
<line x1="146" y1="501" x2="239" y2="501" stroke="#00f"/>
<rect x="354" y="496" width="134" height="10" fill="#ff0"/>
</svg>
