<svg viewBox="0 0 834 525" xmlns="http://www.w3.org/2000/svg">

<style>
  .sm { font: 12px sans-serif; }
  .lg { font: 15px sans-serif; }
</style>
<rect fill="#ddd" x="0" y="0" width="100%" height="100%"/>
<text x="20" y="20" class="lg">ch.18544 X:6512185-6513018 Gene:WBGene00017688</text>
<text x="20" y="50" class="sm">WormBase</text>
<rect x="100" y="40" width="92" height="12" fill="#00f"/>
<rect x="237" y="40" width="210" height="12" fill="#00f"/>
<rect x="490" y="40" width="244" height="12" fill="#00f"/>
<line x1="192" y1="46" x2="236" y2="46" stroke="#00f"/>
<line x1="447" y1="46" x2="489" y2="46" stroke="#00f"/>
<rect x="103" y="41" width="89" height="10" fill="#ff0"/>
<rect x="238" y="41" width="209" height="10" fill="#ff0"/>
<rect x="491" y="41" width="137" height="10" fill="#ff0"/>
<rect x="101" y="41" width="1" height="10" fill="brown"><title>.</title></rect>
<rect x="629" y="41" width="105" height="10" fill="brown"><title>.</title></rect>
<text x="20" y="70" class="sm">Fitness: 0.016783557971488637</text>
<rect x="447" y="65" width="43" height="5" fill="#00f"><title>412520.0</title></rect>
<rect x="192" y="70" width="45" height="5" fill="#00f"><title>366308.0</title></rect>
<rect x="192" y="75" width="35" height="5" fill="#00f"><title>29.0</title></rect>
<rect x="447" y="80" width="54" height="5" fill="#00f"><title>12.0</title></rect>
<rect x="192" y="85" width="62" height="5" fill="#00f"><title>5.0</title></rect>
<text x="20" y="115" class="sm">0.5218</text>
<rect x="100" y="105" width="347" height="12" fill="#00f"/>
<rect x="490" y="105" width="247" height="12" fill="#00f"/>
<line x1="447" y1="111" x2="489" y2="111" stroke="#00f"/>
<rect x="103" y="106" width="344" height="10" fill="#ff0"/>
<rect x="491" y="106" width="137" height="10" fill="#ff0"/>
<text x="20" y="135" class="sm">0.4673</text>
<rect x="100" y="125" width="92" height="12" fill="#00f"/>
<rect x="237" y="125" width="500" height="12" fill="#00f"/>
<line x1="192" y1="131" x2="236" y2="131" stroke="#00f"/>
<rect x="103" y="126" width="89" height="10" fill="#ff0"/>
<rect x="238" y="126" width="221" height="10" fill="#ff0"/>
<text x="20" y="155" class="sm">0.005527</text>
<rect x="100" y="145" width="330" height="12" fill="#00f"/>
<rect x="490" y="145" width="247" height="12" fill="#00f"/>
<line x1="430" y1="151" x2="489" y2="151" stroke="#00f"/>
<rect x="103" y="146" width="327" height="10" fill="#ff0"/>
<rect x="491" y="146" width="25" height="10" fill="#ff0"/>
<text x="20" y="175" class="sm">0.002504</text>
<rect x="100" y="165" width="92" height="12" fill="#00f"/>
<rect x="237" y="165" width="210" height="12" fill="#00f"/>
<rect x="490" y="165" width="247" height="12" fill="#00f"/>
<line x1="192" y1="171" x2="236" y2="171" stroke="#00f"/>
<line x1="447" y1="171" x2="489" y2="171" stroke="#00f"/>
<rect x="103" y="166" width="89" height="10" fill="#ff0"/>
<rect x="238" y="166" width="209" height="10" fill="#ff0"/>
<rect x="491" y="166" width="137" height="10" fill="#ff0"/>
<text x="20" y="195" class="sm">0.001032</text>
<rect x="100" y="185" width="126" height="12" fill="#00f"/>
<rect x="271" y="185" width="466" height="12" fill="#00f"/>
<line x1="226" y1="191" x2="270" y2="191" stroke="#00f"/>
<rect x="103" y="186" width="123" height="10" fill="#ff0"/>
<rect x="272" y="186" width="187" height="10" fill="#ff0"/>
<text x="20" y="215" class="sm">0.0007406</text>
<rect x="100" y="205" width="78" height="12" fill="#00f"/>
<rect x="237" y="205" width="500" height="12" fill="#00f"/>
<line x1="178" y1="211" x2="236" y2="211" stroke="#00f"/>
<rect x="103" y="206" width="75" height="10" fill="#ff0"/>
<rect x="238" y="206" width="16" height="10" fill="#ff0"/>
<text x="20" y="235" class="sm">0.0003229</text>
<rect x="100" y="225" width="137" height="12" fill="#00f"/>
<rect x="286" y="225" width="451" height="12" fill="#00f"/>
<line x1="237" y1="231" x2="285" y2="231" stroke="#00f"/>
<rect x="132" y="226" width="105" height="10" fill="#ff0"/>
<rect x="287" y="226" width="172" height="10" fill="#ff0"/>
<text x="20" y="255" class="sm">0.0003174</text>
<rect x="100" y="245" width="92" height="12" fill="#00f"/>
<rect x="271" y="245" width="466" height="12" fill="#00f"/>
<line x1="192" y1="251" x2="270" y2="251" stroke="#00f"/>
<rect x="132" y="246" width="60" height="10" fill="#ff0"/>
<rect x="272" y="246" width="187" height="10" fill="#ff0"/>
<text x="20" y="275" class="sm">0.0002465</text>
<rect x="100" y="265" width="351" height="12" fill="#00f"/>
<rect x="490" y="265" width="247" height="12" fill="#00f"/>
<line x1="451" y1="271" x2="489" y2="271" stroke="#00f"/>
<rect x="103" y="266" width="348" height="10" fill="#ff0"/>
<rect x="491" y="266" width="25" height="10" fill="#ff0"/>
<text x="20" y="295" class="sm">6.105e-05</text>
<rect x="100" y="285" width="92" height="12" fill="#00f"/>
<rect x="490" y="285" width="247" height="12" fill="#00f"/>
<line x1="192" y1="291" x2="489" y2="291" stroke="#00f"/>
<rect x="103" y="286" width="89" height="10" fill="#ff0"/>
<rect x="491" y="286" width="137" height="10" fill="#ff0"/>
<text x="20" y="315" class="sm">2.623e-05</text>
<rect x="100" y="305" width="92" height="12" fill="#00f"/>
<rect x="237" y="305" width="193" height="12" fill="#00f"/>
<rect x="490" y="305" width="247" height="12" fill="#00f"/>
<line x1="192" y1="311" x2="236" y2="311" stroke="#00f"/>
<line x1="430" y1="311" x2="489" y2="311" stroke="#00f"/>
<rect x="103" y="306" width="89" height="10" fill="#ff0"/>
<rect x="238" y="306" width="192" height="10" fill="#ff0"/>
<rect x="491" y="306" width="25" height="10" fill="#ff0"/>
<text x="20" y="335" class="sm">2.495e-05</text>
<rect x="100" y="325" width="78" height="12" fill="#00f"/>
<rect x="223" y="325" width="514" height="12" fill="#00f"/>
<line x1="178" y1="331" x2="222" y2="331" stroke="#00f"/>
<rect x="103" y="326" width="75" height="10" fill="#ff0"/>
<rect x="224" y="326" width="235" height="10" fill="#ff0"/>
<text x="20" y="355" class="sm">2.198e-05</text>
<rect x="100" y="345" width="562" height="12" fill="#00f"/>
<rect x="710" y="345" width="27" height="12" fill="#00f"/>
<line x1="662" y1="351" x2="709" y2="351" stroke="#00f"/>
<rect x="103" y="346" width="356" height="10" fill="#ff0"/>
<text x="20" y="375" class="sm">1.542e-05</text>
<rect x="100" y="365" width="92" height="12" fill="#00f"/>
<rect x="254" y="365" width="483" height="12" fill="#00f"/>
<line x1="192" y1="371" x2="253" y2="371" stroke="#00f"/>
<rect x="103" y="366" width="89" height="10" fill="#ff0"/>
<rect x="255" y="366" width="47" height="10" fill="#ff0"/>
<text x="20" y="395" class="sm">1.032e-05</text>
<rect x="100" y="385" width="273" height="12" fill="#00f"/>
<rect x="490" y="385" width="247" height="12" fill="#00f"/>
<line x1="373" y1="391" x2="489" y2="391" stroke="#00f"/>
<rect x="103" y="386" width="270" height="10" fill="#ff0"/>
<rect x="491" y="386" width="25" height="10" fill="#ff0"/>
<text x="20" y="415" class="sm">8.269e-06</text>
<rect x="100" y="405" width="262" height="12" fill="#00f"/>
<rect x="490" y="405" width="247" height="12" fill="#00f"/>
<line x1="362" y1="411" x2="489" y2="411" stroke="#00f"/>
<rect x="103" y="406" width="259" height="10" fill="#ff0"/>
<rect x="491" y="406" width="96" height="10" fill="#ff0"/>
<text x="20" y="435" class="sm">6.577e-06</text>
<rect x="100" y="425" width="556" height="12" fill="#00f"/>
<rect x="710" y="425" width="27" height="12" fill="#00f"/>
<line x1="656" y1="431" x2="709" y2="431" stroke="#00f"/>
<rect x="103" y="426" width="356" height="10" fill="#ff0"/>
<text x="20" y="455" class="sm">5.072e-06</text>
<rect x="100" y="445" width="126" height="12" fill="#00f"/>
<rect x="271" y="445" width="176" height="12" fill="#00f"/>
<rect x="490" y="445" width="247" height="12" fill="#00f"/>
<line x1="226" y1="451" x2="270" y2="451" stroke="#00f"/>
<line x1="447" y1="451" x2="489" y2="451" stroke="#00f"/>
<rect x="103" y="446" width="123" height="10" fill="#ff0"/>
<rect x="272" y="446" width="175" height="10" fill="#ff0"/>
<rect x="491" y="446" width="137" height="10" fill="#ff0"/>
<text x="20" y="475" class="sm">4.833e-06</text>
<rect x="100" y="465" width="78" height="12" fill="#00f"/>
<rect x="271" y="465" width="466" height="12" fill="#00f"/>
<line x1="178" y1="471" x2="270" y2="471" stroke="#00f"/>
<rect x="103" y="466" width="75" height="10" fill="#ff0"/>
<rect x="272" y="466" width="187" height="10" fill="#ff0"/>
<text x="20" y="495" class="sm">3.968e-06</text>
<rect x="100" y="485" width="78" height="12" fill="#00f"/>
<rect x="237" y="485" width="210" height="12" fill="#00f"/>
<rect x="490" y="485" width="247" height="12" fill="#00f"/>
<line x1="178" y1="491" x2="236" y2="491" stroke="#00f"/>
<line x1="447" y1="491" x2="489" y2="491" stroke="#00f"/>
<rect x="434" y="486" width="13" height="10" fill="#ff0"/>
<rect x="491" y="486" width="96" height="10" fill="#ff0"/>
</svg>
