<svg viewBox="0 0 1100 540" xmlns="http://www.w3.org/2000/svg">

<style>
  .sm { font: 12px sans-serif; }
  .lg { font: 15px sans-serif; }
</style>
<rect fill="#ddd" x="0" y="0" width="100%" height="100%"/>
<text x="20" y="20" class="lg">ch.1434 I:7819479-7820578 Gene:WBGene00086551</text>
<text x="20" y="50" class="sm">WormBase</text>
<rect x="100" y="40" width="190" height="12" fill="#00f"/>
<rect x="340" y="40" width="213" height="12" fill="#00f"/>
<rect x="694" y="40" width="306" height="12" fill="#00f"/>
<line x1="290" y1="46" x2="339" y2="46" stroke="#00f"/>
<line x1="553" y1="46" x2="693" y2="46" stroke="#00f"/>
<rect x="101" y="41" width="189" height="10" fill="#ff0"/>
<rect x="341" y="41" width="212" height="10" fill="#ff0"/>
<rect x="695" y="41" width="64" height="10" fill="#ff0"/>
<rect x="760" y="41" width="240" height="10" fill="brown"><title>.</title></rect>
<text x="20" y="70" class="sm">Fitness: 1.0421568121771754</text>
<rect x="553" y="65" width="141" height="5" fill="#00f"><title>236093.0</title></rect>
<rect x="290" y="70" width="50" height="5" fill="#00f"><title>189414.0</title></rect>
<rect x="125" y="75" width="54" height="5" fill="#00f"><title>74.0</title></rect>
<rect x="553" y="80" width="119" height="5" fill="#00f"><title>21.0</title></rect>
<rect x="50" y="85" width="50" height="5" fill="#00f"><title>15.0</title></rect>
<rect x="125" y="90" width="68" height="5" fill="#00f"><title>5.0</title></rect>
<rect x="125" y="95" width="215" height="5" fill="#00f"><title>4.0</title></rect>
<rect x="125" y="100" width="38" height="5" fill="#00f"><title>3.0</title></rect>
<text x="20" y="130" class="sm">0.4418</text>
<rect x="100" y="120" width="190" height="12" fill="#00f"/>
<rect x="340" y="120" width="663" height="12" fill="#00f"/>
<line x1="290" y1="126" x2="339" y2="126" stroke="#00f"/>
<rect x="101" y="121" width="189" height="10" fill="#ff0"/>
<rect x="341" y="121" width="259" height="10" fill="#ff0"/>
<text x="20" y="150" class="sm">0.1988</text>
<rect x="100" y="140" width="514" height="12" fill="#00f"/>
<rect x="694" y="140" width="309" height="12" fill="#00f"/>
<line x1="614" y1="146" x2="693" y2="146" stroke="#00f"/>
<rect x="101" y="141" width="212" height="10" fill="#ff0"/>
<text x="20" y="170" class="sm">0.1859</text>
<rect x="100" y="160" width="194" height="12" fill="#00f"/>
<rect x="340" y="160" width="663" height="12" fill="#00f"/>
<line x1="294" y1="166" x2="339" y2="166" stroke="#00f"/>
<rect x="101" y="161" width="193" height="10" fill="#ff0"/>
<rect x="341" y="161" width="6" height="10" fill="#ff0"/>
<text x="20" y="190" class="sm">0.06221</text>
<rect x="100" y="180" width="95" height="12" fill="#00f"/>
<rect x="340" y="180" width="663" height="12" fill="#00f"/>
<line x1="195" y1="186" x2="339" y2="186" stroke="#00f"/>
<rect x="400" y="181" width="200" height="10" fill="#ff0"/>
<text x="20" y="210" class="sm">0.03189</text>
<rect x="100" y="200" width="453" height="12" fill="#00f"/>
<rect x="694" y="200" width="309" height="12" fill="#00f"/>
<line x1="553" y1="206" x2="693" y2="206" stroke="#00f"/>
<rect x="400" y="201" width="153" height="10" fill="#ff0"/>
<rect x="695" y="201" width="64" height="10" fill="#ff0"/>
<text x="20" y="230" class="sm">0.0208</text>
<rect x="100" y="220" width="443" height="12" fill="#00f"/>
<rect x="694" y="220" width="309" height="12" fill="#00f"/>
<line x1="543" y1="226" x2="693" y2="226" stroke="#00f"/>
<rect x="101" y="221" width="212" height="10" fill="#ff0"/>
<text x="20" y="250" class="sm">0.01256</text>
<rect x="100" y="240" width="190" height="12" fill="#00f"/>
<rect x="340" y="240" width="274" height="12" fill="#00f"/>
<rect x="694" y="240" width="309" height="12" fill="#00f"/>
<line x1="290" y1="246" x2="339" y2="246" stroke="#00f"/>
<line x1="614" y1="246" x2="693" y2="246" stroke="#00f"/>
<rect x="101" y="241" width="189" height="10" fill="#ff0"/>
<rect x="341" y="241" width="259" height="10" fill="#ff0"/>
<text x="20" y="270" class="sm">0.008667</text>
<rect x="100" y="260" width="438" height="12" fill="#00f"/>
<rect x="694" y="260" width="309" height="12" fill="#00f"/>
<line x1="538" y1="266" x2="693" y2="266" stroke="#00f"/>
<rect x="101" y="261" width="212" height="10" fill="#ff0"/>
<text x="20" y="290" class="sm">0.007264</text>
<rect x="100" y="280" width="161" height="12" fill="#00f"/>
<rect x="340" y="280" width="663" height="12" fill="#00f"/>
<line x1="261" y1="286" x2="339" y2="286" stroke="#00f"/>
<rect x="400" y="281" width="200" height="10" fill="#ff0"/>
<text x="20" y="310" class="sm">0.005283</text>
<rect x="100" y="300" width="194" height="12" fill="#00f"/>
<rect x="340" y="300" width="274" height="12" fill="#00f"/>
<rect x="694" y="300" width="309" height="12" fill="#00f"/>
<line x1="294" y1="306" x2="339" y2="306" stroke="#00f"/>
<line x1="614" y1="306" x2="693" y2="306" stroke="#00f"/>
<rect x="101" y="301" width="193" height="10" fill="#ff0"/>
<rect x="341" y="301" width="6" height="10" fill="#ff0"/>
<text x="20" y="330" class="sm">0.004603</text>
<rect x="100" y="320" width="75" height="12" fill="#00f"/>
<rect x="340" y="320" width="663" height="12" fill="#00f"/>
<line x1="175" y1="326" x2="339" y2="326" stroke="#00f"/>
<rect x="400" y="321" width="200" height="10" fill="#ff0"/>
<text x="20" y="350" class="sm">0.004524</text>
<rect x="100" y="340" width="122" height="12" fill="#00f"/>
<rect x="340" y="340" width="663" height="12" fill="#00f"/>
<line x1="222" y1="346" x2="339" y2="346" stroke="#00f"/>
<rect x="400" y="341" width="200" height="10" fill="#ff0"/>
<text x="20" y="370" class="sm">0.003981</text>
<rect x="100" y="360" width="149" height="12" fill="#00f"/>
<rect x="340" y="360" width="663" height="12" fill="#00f"/>
<line x1="249" y1="366" x2="339" y2="366" stroke="#00f"/>
<rect x="400" y="361" width="200" height="10" fill="#ff0"/>
<text x="20" y="390" class="sm">0.002168</text>
<rect x="100" y="380" width="190" height="12" fill="#00f"/>
<rect x="340" y="380" width="213" height="12" fill="#00f"/>
<rect x="694" y="380" width="309" height="12" fill="#00f"/>
<line x1="290" y1="386" x2="339" y2="386" stroke="#00f"/>
<line x1="553" y1="386" x2="693" y2="386" stroke="#00f"/>
<rect x="101" y="381" width="189" height="10" fill="#ff0"/>
<rect x="341" y="381" width="212" height="10" fill="#ff0"/>
<rect x="695" y="381" width="64" height="10" fill="#ff0"/>
<text x="20" y="410" class="sm">0.002119</text>
<rect x="100" y="400" width="394" height="12" fill="#00f"/>
<rect x="694" y="400" width="309" height="12" fill="#00f"/>
<line x1="494" y1="406" x2="693" y2="406" stroke="#00f"/>
<rect x="101" y="401" width="212" height="10" fill="#ff0"/>
<text x="20" y="430" class="sm">0.001805</text>
<rect x="100" y="420" width="383" height="12" fill="#00f"/>
<rect x="694" y="420" width="309" height="12" fill="#00f"/>
<line x1="483" y1="426" x2="693" y2="426" stroke="#00f"/>
<rect x="101" y="421" width="212" height="10" fill="#ff0"/>
<text x="20" y="450" class="sm">0.001768</text>
<rect x="100" y="440" width="95" height="12" fill="#00f"/>
<rect x="340" y="440" width="274" height="12" fill="#00f"/>
<rect x="694" y="440" width="309" height="12" fill="#00f"/>
<line x1="195" y1="446" x2="339" y2="446" stroke="#00f"/>
<line x1="614" y1="446" x2="693" y2="446" stroke="#00f"/>
<rect x="400" y="441" width="200" height="10" fill="#ff0"/>
<text x="20" y="470" class="sm">0.001502</text>
<rect x="100" y="460" width="190" height="12" fill="#00f"/>
<rect x="340" y="460" width="203" height="12" fill="#00f"/>
<rect x="694" y="460" width="309" height="12" fill="#00f"/>
<line x1="290" y1="466" x2="339" y2="466" stroke="#00f"/>
<line x1="543" y1="466" x2="693" y2="466" stroke="#00f"/>
<rect x="101" y="461" width="189" height="10" fill="#ff0"/>
<rect x="341" y="461" width="202" height="10" fill="#ff0"/>
<rect x="695" y="461" width="50" height="10" fill="#ff0"/>
<text x="20" y="490" class="sm">0.001384</text>
<rect x="100" y="480" width="83" height="12" fill="#00f"/>
<rect x="340" y="480" width="663" height="12" fill="#00f"/>
<line x1="183" y1="486" x2="339" y2="486" stroke="#00f"/>
<rect x="400" y="481" width="200" height="10" fill="#ff0"/>
<text x="20" y="510" class="sm">0.0009119</text>
<rect x="100" y="500" width="194" height="12" fill="#00f"/>
<rect x="340" y="500" width="213" height="12" fill="#00f"/>
<rect x="694" y="500" width="309" height="12" fill="#00f"/>
<line x1="294" y1="506" x2="339" y2="506" stroke="#00f"/>
<line x1="553" y1="506" x2="693" y2="506" stroke="#00f"/>
<rect x="400" y="501" width="153" height="10" fill="#ff0"/>
<rect x="695" y="501" width="64" height="10" fill="#ff0"/>
</svg>
