<svg viewBox="0 0 938 545" xmlns="http://www.w3.org/2000/svg">

<style>
  .sm { font: 12px sans-serif; }
  .lg { font: 15px sans-serif; }
</style>
<rect fill="#ddd" x="0" y="0" width="100%" height="100%"/>
<text x="20" y="20" class="lg">ch.13776 V:5617501-5618438 Gene:WBGene00019754</text>
<text x="20" y="50" class="sm">WormBase</text>
<rect x="100" y="40" width="166" height="12" fill="#00f"/>
<rect x="376" y="40" width="62" height="12" fill="#00f"/>
<rect x="488" y="40" width="350" height="12" fill="#00f"/>
<line x1="266" y1="46" x2="375" y2="46" stroke="#00f"/>
<line x1="438" y1="46" x2="487" y2="46" stroke="#00f"/>
<rect x="211" y="41" width="55" height="10" fill="#ff0"/>
<rect x="377" y="41" width="61" height="10" fill="#ff0"/>
<rect x="489" y="41" width="250" height="10" fill="#ff0"/>
<rect x="101" y="41" width="109" height="10" fill="brown"><title>.</title></rect>
<rect x="740" y="41" width="98" height="10" fill="brown"><title>.</title></rect>
<text x="20" y="70" class="sm">Fitness: 0.07007808970560665</text>
<rect x="438" y="65" width="50" height="5" fill="#00f"><title>113070.0</title></rect>
<rect x="266" y="70" width="110" height="5" fill="#00f"><title>84461.0</title></rect>
<rect x="266" y="75" width="121" height="5" fill="#00f"><title>2978.0</title></rect>
<rect x="266" y="80" width="103" height="5" fill="#00f"><title>192.0</title></rect>
<rect x="266" y="85" width="45" height="5" fill="#00f"><title>120.0</title></rect>
<rect x="742" y="90" width="101" height="5" fill="#f0f"><title>41.0</title></rect>
<rect x="742" y="95" width="50" height="5" fill="#f0f"><title>31.0</title></rect>
<rect x="572" y="100" width="41" height="5" fill="#00f"><title>10.0</title></rect>
<rect x="519" y="105" width="63" height="5" fill="#00f"><title>3.0</title></rect>
<text x="20" y="135" class="sm">0.5443</text>
<rect x="100" y="125" width="338" height="12" fill="#00f"/>
<rect x="488" y="125" width="353" height="12" fill="#00f"/>
<line x1="438" y1="131" x2="487" y2="131" stroke="#00f"/>
<rect x="297" y="126" width="141" height="10" fill="#ff0"/>
<rect x="489" y="126" width="250" height="10" fill="#ff0"/>
<text x="20" y="155" class="sm">0.4085</text>
<rect x="100" y="145" width="166" height="12" fill="#00f"/>
<rect x="376" y="145" width="465" height="12" fill="#00f"/>
<line x1="266" y1="151" x2="375" y2="151" stroke="#00f"/>
<rect x="494" y="146" width="245" height="10" fill="#ff0"/>
<text x="20" y="175" class="sm">0.02133</text>
<rect x="100" y="165" width="166" height="12" fill="#00f"/>
<rect x="488" y="165" width="353" height="12" fill="#00f"/>
<line x1="266" y1="171" x2="487" y2="171" stroke="#00f"/>
<rect x="211" y="166" width="55" height="10" fill="#ff0"/>
<rect x="489" y="166" width="240" height="10" fill="#ff0"/>
<text x="20" y="195" class="sm">0.01165</text>
<rect x="100" y="185" width="166" height="12" fill="#00f"/>
<rect x="387" y="185" width="454" height="12" fill="#00f"/>
<line x1="266" y1="191" x2="386" y2="191" stroke="#00f"/>
<rect x="494" y="186" width="245" height="10" fill="#ff0"/>
<text x="20" y="215" class="sm">0.008151</text>
<rect x="100" y="205" width="219" height="12" fill="#00f"/>
<rect x="376" y="205" width="465" height="12" fill="#00f"/>
<line x1="319" y1="211" x2="375" y2="211" stroke="#00f"/>
<rect x="494" y="206" width="245" height="10" fill="#ff0"/>
<text x="20" y="235" class="sm">0.001843</text>
<rect x="100" y="225" width="137" height="12" fill="#00f"/>
<rect x="376" y="225" width="465" height="12" fill="#00f"/>
<line x1="237" y1="231" x2="375" y2="231" stroke="#00f"/>
<rect x="494" y="226" width="245" height="10" fill="#ff0"/>
<text x="20" y="255" class="sm">0.001588</text>
<rect x="100" y="245" width="176" height="12" fill="#00f"/>
<rect x="376" y="245" width="465" height="12" fill="#00f"/>
<line x1="276" y1="251" x2="375" y2="251" stroke="#00f"/>
<rect x="494" y="246" width="245" height="10" fill="#ff0"/>
<text x="20" y="275" class="sm">0.00116</text>
<rect x="100" y="265" width="166" height="12" fill="#00f"/>
<rect x="311" y="265" width="530" height="12" fill="#00f"/>
<line x1="266" y1="271" x2="310" y2="271" stroke="#00f"/>
<rect x="494" y="266" width="245" height="10" fill="#ff0"/>
<text x="20" y="295" class="sm">0.0003321</text>
<rect x="100" y="285" width="321" height="12" fill="#00f"/>
<rect x="488" y="285" width="353" height="12" fill="#00f"/>
<line x1="421" y1="291" x2="487" y2="291" stroke="#00f"/>
<rect x="297" y="286" width="124" height="10" fill="#ff0"/>
<rect x="489" y="286" width="240" height="10" fill="#ff0"/>
<text x="20" y="315" class="sm">0.0002308</text>
<rect x="100" y="305" width="291" height="12" fill="#00f"/>
<rect x="488" y="305" width="353" height="12" fill="#00f"/>
<line x1="391" y1="311" x2="487" y2="311" stroke="#00f"/>
<rect x="297" y="306" width="94" height="10" fill="#ff0"/>
<rect x="489" y="306" width="240" height="10" fill="#ff0"/>
<text x="20" y="335" class="sm">0.0002092</text>
<rect x="100" y="325" width="198" height="12" fill="#00f"/>
<rect x="376" y="325" width="465" height="12" fill="#00f"/>
<line x1="298" y1="331" x2="375" y2="331" stroke="#00f"/>
<rect x="494" y="326" width="245" height="10" fill="#ff0"/>
<text x="20" y="355" class="sm">0.0001483</text>
<rect x="100" y="345" width="123" height="12" fill="#00f"/>
<rect x="376" y="345" width="465" height="12" fill="#00f"/>
<line x1="223" y1="351" x2="375" y2="351" stroke="#00f"/>
<rect x="494" y="346" width="245" height="10" fill="#ff0"/>
<text x="20" y="375" class="sm">0.0001111</text>
<rect x="100" y="365" width="137" height="12" fill="#00f"/>
<rect x="488" y="365" width="353" height="12" fill="#00f"/>
<line x1="237" y1="371" x2="487" y2="371" stroke="#00f"/>
<rect x="494" y="366" width="245" height="10" fill="#ff0"/>
<text x="20" y="395" class="sm">0.0001056</text>
<rect x="100" y="385" width="219" height="12" fill="#00f"/>
<rect x="387" y="385" width="454" height="12" fill="#00f"/>
<line x1="319" y1="391" x2="386" y2="391" stroke="#00f"/>
<rect x="494" y="386" width="245" height="10" fill="#ff0"/>
<text x="20" y="415" class="sm">7.948e-05</text>
<rect x="100" y="405" width="219" height="12" fill="#00f"/>
<rect x="488" y="405" width="353" height="12" fill="#00f"/>
<line x1="319" y1="411" x2="487" y2="411" stroke="#00f"/>
<rect x="297" y="406" width="22" height="10" fill="#ff0"/>
<rect x="489" y="406" width="240" height="10" fill="#ff0"/>
<text x="20" y="435" class="sm">7.847e-05</text>
<rect x="100" y="425" width="176" height="12" fill="#00f"/>
<rect x="488" y="425" width="353" height="12" fill="#00f"/>
<line x1="276" y1="431" x2="487" y2="431" stroke="#00f"/>
<rect x="494" y="426" width="245" height="10" fill="#ff0"/>
<text x="20" y="455" class="sm">5.874e-05</text>
<rect x="100" y="445" width="125" height="12" fill="#00f"/>
<rect x="376" y="445" width="465" height="12" fill="#00f"/>
<line x1="225" y1="451" x2="375" y2="451" stroke="#00f"/>
<rect x="494" y="446" width="245" height="10" fill="#ff0"/>
<text x="20" y="475" class="sm">5.873e-05</text>
<rect x="100" y="465" width="176" height="12" fill="#00f"/>
<rect x="387" y="465" width="454" height="12" fill="#00f"/>
<line x1="276" y1="471" x2="386" y2="471" stroke="#00f"/>
<rect x="494" y="466" width="245" height="10" fill="#ff0"/>
<text x="20" y="495" class="sm">5.86e-05</text>
<rect x="100" y="485" width="137" height="12" fill="#00f"/>
<rect x="387" y="485" width="454" height="12" fill="#00f"/>
<line x1="237" y1="491" x2="386" y2="491" stroke="#00f"/>
<rect x="494" y="486" width="245" height="10" fill="#ff0"/>
<text x="20" y="515" class="sm">4.147e-05</text>
<rect x="100" y="505" width="166" height="12" fill="#00f"/>
<rect x="369" y="505" width="472" height="12" fill="#00f"/>
<line x1="266" y1="511" x2="368" y2="511" stroke="#00f"/>
<rect x="494" y="506" width="245" height="10" fill="#ff0"/>
</svg>
