<svg viewBox="0 0 693 555" xmlns="http://www.w3.org/2000/svg">

<style>
  .sm { font: 12px sans-serif; }
  .lg { font: 15px sans-serif; }
</style>
<rect fill="#ddd" x="0" y="0" width="100%" height="100%"/>
<text x="20" y="20" class="lg">ch.13981 V:6691271-6691963 Gene:WBGene00003473</text>
<text x="20" y="50" class="sm">WormBase</text>
<rect x="102" y="40" width="47" height="12" fill="#00f"/>
<rect x="269" y="40" width="326" height="12" fill="#00f"/>
<line x1="149" y1="46" x2="268" y2="46" stroke="#00f"/>
<rect x="134" y="41" width="15" height="10" fill="#ff0"/>
<rect x="270" y="41" width="211" height="10" fill="#ff0"/>
<rect x="103" y="41" width="30" height="10" fill="brown"><title>.</title></rect>
<rect x="482" y="41" width="113" height="10" fill="brown"><title>.</title></rect>
<text x="20" y="70" class="sm">Fitness: 0.007366854791444429</text>
<rect x="149" y="65" width="120" height="5" fill="#00f"><title>852236.0</title></rect>
<rect x="149" y="70" width="105" height="5" fill="#00f"><title>1862.0</title></rect>
<rect x="291" y="75" width="142" height="5" fill="#00f"><title>25.0</title></rect>
<rect x="146" y="80" width="123" height="5" fill="#00f"><title>22.0</title></rect>
<rect x="383" y="85" width="50" height="5" fill="#00f"><title>21.0</title></rect>
<rect x="383" y="90" width="44" height="5" fill="#00f"><title>18.0</title></rect>
<rect x="499" y="95" width="55" height="5" fill="#f0f"><title>13.0</title></rect>
<rect x="305" y="100" width="140" height="5" fill="#00f"><title>10.0</title></rect>
<rect x="383" y="105" width="39" height="5" fill="#00f"><title>7.0</title></rect>
<rect x="149" y="110" width="243" height="5" fill="#00f"><title>5.0</title></rect>
<rect x="220" y="115" width="49" height="5" fill="#00f"><title>4.0</title></rect>
<text x="20" y="145" class="sm">0.9962</text>
<rect x="100" y="135" width="49" height="12" fill="#00f"/>
<rect x="269" y="135" width="327" height="12" fill="#00f"/>
<line x1="149" y1="141" x2="268" y2="141" stroke="#00f"/>
<rect x="134" y="136" width="15" height="10" fill="#ff0"/>
<rect x="270" y="136" width="211" height="10" fill="#ff0"/>
<text x="20" y="165" class="sm">0.002971</text>
<rect x="100" y="155" width="44" height="12" fill="#00f"/>
<rect x="269" y="155" width="327" height="12" fill="#00f"/>
<line x1="144" y1="161" x2="268" y2="161" stroke="#00f"/>
<rect x="134" y="156" width="10" height="10" fill="#ff0"/>
<rect x="270" y="156" width="39" height="10" fill="#ff0"/>
<text x="20" y="185" class="sm">0.0005363</text>
<rect x="100" y="175" width="283" height="12" fill="#00f"/>
<rect x="491" y="175" width="105" height="12" fill="#00f"/>
<line x1="383" y1="181" x2="490" y2="181" stroke="#00f"/>
<rect x="367" y="176" width="16" height="10" fill="#ff0"/>
<rect x="492" y="176" width="39" height="10" fill="#ff0"/>
<text x="20" y="205" class="sm">0.0001645</text>
<rect x="100" y="195" width="49" height="12" fill="#00f"/>
<rect x="254" y="195" width="342" height="12" fill="#00f"/>
<line x1="149" y1="201" x2="253" y2="201" stroke="#00f"/>
<rect x="134" y="196" width="15" height="10" fill="#ff0"/>
<rect x="255" y="196" width="226" height="10" fill="#ff0"/>
<text x="20" y="225" class="sm">0.000143</text>
<rect x="100" y="215" width="49" height="12" fill="#00f"/>
<rect x="315" y="215" width="281" height="12" fill="#00f"/>
<line x1="149" y1="221" x2="314" y2="221" stroke="#00f"/>
<rect x="134" y="216" width="15" height="10" fill="#ff0"/>
<rect x="316" y="216" width="181" height="10" fill="#ff0"/>
<text x="20" y="245" class="sm">2.586e-05</text>
<rect x="100" y="235" width="53" height="12" fill="#00f"/>
<rect x="269" y="235" width="327" height="12" fill="#00f"/>
<line x1="153" y1="241" x2="268" y2="241" stroke="#00f"/>
<rect x="134" y="236" width="19" height="10" fill="#ff0"/>
<rect x="270" y="236" width="39" height="10" fill="#ff0"/>
<text x="20" y="265" class="sm">1.763e-06</text>
<rect x="100" y="255" width="87" height="12" fill="#00f"/>
<rect x="269" y="255" width="327" height="12" fill="#00f"/>
<line x1="187" y1="261" x2="268" y2="261" stroke="#00f"/>
<rect x="134" y="256" width="38" height="10" fill="#ff0"/>
<text x="20" y="285" class="sm">1.512e-06</text>
<rect x="100" y="275" width="283" height="12" fill="#00f"/>
<rect x="422" y="275" width="174" height="12" fill="#00f"/>
<line x1="383" y1="281" x2="421" y2="281" stroke="#00f"/>
<rect x="367" y="276" width="16" height="10" fill="#ff0"/>
<rect x="423" y="276" width="108" height="10" fill="#ff0"/>
<text x="20" y="305" class="sm">1.489e-06</text>
<rect x="100" y="295" width="49" height="12" fill="#00f"/>
<rect x="491" y="295" width="105" height="12" fill="#00f"/>
<line x1="149" y1="301" x2="490" y2="301" stroke="#00f"/>
<rect x="134" y="296" width="15" height="10" fill="#ff0"/>
<rect x="492" y="296" width="58" height="10" fill="#ff0"/>
<text x="20" y="325" class="sm">1.176e-06</text>
<rect x="100" y="315" width="49" height="12" fill="#00f"/>
<rect x="377" y="315" width="219" height="12" fill="#00f"/>
<line x1="149" y1="321" x2="376" y2="321" stroke="#00f"/>
<rect x="134" y="316" width="15" height="10" fill="#ff0"/>
<rect x="378" y="316" width="103" height="10" fill="#ff0"/>
<text x="20" y="345" class="sm">9.303e-07</text>
<rect x="100" y="335" width="49" height="12" fill="#00f"/>
<rect x="220" y="335" width="376" height="12" fill="#00f"/>
<line x1="149" y1="341" x2="219" y2="341" stroke="#00f"/>
<rect x="134" y="336" width="15" height="10" fill="#ff0"/>
<rect x="221" y="336" width="31" height="10" fill="#ff0"/>
<text x="20" y="365" class="sm">5.022e-07</text>
<rect x="100" y="355" width="244" height="12" fill="#00f"/>
<rect x="491" y="355" width="105" height="12" fill="#00f"/>
<line x1="344" y1="361" x2="490" y2="361" stroke="#00f"/>
<rect x="202" y="356" width="50" height="10" fill="#ff0"/>
<text x="20" y="385" class="sm">4.933e-07</text>
<rect x="100" y="375" width="44" height="12" fill="#00f"/>
<rect x="254" y="375" width="342" height="12" fill="#00f"/>
<line x1="144" y1="381" x2="253" y2="381" stroke="#00f"/>
<rect x="134" y="376" width="10" height="10" fill="#ff0"/>
<rect x="255" y="376" width="54" height="10" fill="#ff0"/>
<text x="20" y="405" class="sm">4.537e-07</text>
<rect x="100" y="395" width="44" height="12" fill="#00f"/>
<rect x="315" y="395" width="281" height="12" fill="#00f"/>
<line x1="144" y1="401" x2="314" y2="401" stroke="#00f"/>
<rect x="144" y="396" width="0" height="10" fill="#ff0"/>
<rect x="316" y="396" width="181" height="10" fill="#ff0"/>
<text x="20" y="425" class="sm">2.941e-07</text>
<rect x="100" y="415" width="46" height="12" fill="#00f"/>
<rect x="269" y="415" width="327" height="12" fill="#00f"/>
<line x1="146" y1="421" x2="268" y2="421" stroke="#00f"/>
<rect x="134" y="416" width="12" height="10" fill="#ff0"/>
<rect x="270" y="416" width="211" height="10" fill="#ff0"/>
<text x="20" y="445" class="sm">2.312e-07</text>
<rect x="100" y="435" width="49" height="12" fill="#00f"/>
<rect x="212" y="435" width="384" height="12" fill="#00f"/>
<line x1="149" y1="441" x2="211" y2="441" stroke="#00f"/>
<rect x="286" y="436" width="23" height="10" fill="#ff0"/>
<text x="20" y="465" class="sm">1.983e-07</text>
<rect x="100" y="455" width="256" height="12" fill="#00f"/>
<rect x="491" y="455" width="105" height="12" fill="#00f"/>
<line x1="356" y1="461" x2="490" y2="461" stroke="#00f"/>
<rect x="202" y="456" width="50" height="10" fill="#ff0"/>
<text x="20" y="485" class="sm">6.443e-08</text>
<rect x="100" y="475" width="49" height="12" fill="#00f"/>
<rect x="292" y="475" width="304" height="12" fill="#00f"/>
<line x1="149" y1="481" x2="291" y2="481" stroke="#00f"/>
<rect x="134" y="476" width="15" height="10" fill="#ff0"/>
<rect x="293" y="476" width="16" height="10" fill="#ff0"/>
<text x="20" y="505" class="sm">3.899e-08</text>
<rect x="100" y="495" width="229" height="12" fill="#00f"/>
<rect x="491" y="495" width="105" height="12" fill="#00f"/>
<line x1="329" y1="501" x2="490" y2="501" stroke="#00f"/>
<rect x="310" y="496" width="19" height="10" fill="#ff0"/>
<rect x="492" y="496" width="39" height="10" fill="#ff0"/>
<text x="20" y="525" class="sm">3.198e-08</text>
<rect x="100" y="515" width="332" height="12" fill="#00f"/>
<rect x="491" y="515" width="105" height="12" fill="#00f"/>
<line x1="432" y1="521" x2="490" y2="521" stroke="#00f"/>
<rect x="202" y="516" width="50" height="10" fill="#ff0"/>
</svg>
