<svg viewBox="0 0 766 540" xmlns="http://www.w3.org/2000/svg">

<style>
  .sm { font: 12px sans-serif; }
  .lg { font: 15px sans-serif; }
</style>
<rect fill="#ddd" x="0" y="0" width="100%" height="100%"/>
<text x="20" y="20" class="lg">ch.16177 V:15175659-15176424 Gene:WBGene00011668</text>
<text x="20" y="50" class="sm">WormBase</text>
<rect x="100" y="40" width="355" height="12" fill="#00f"/>
<rect x="501" y="40" width="165" height="12" fill="#00f"/>
<line x1="455" y1="46" x2="500" y2="46" stroke="#00f"/>
<rect x="104" y="41" width="351" height="10" fill="#ff0"/>
<rect x="502" y="41" width="130" height="10" fill="#ff0"/>
<rect x="101" y="41" width="2" height="10" fill="brown"><title>.</title></rect>
<rect x="633" y="41" width="33" height="10" fill="brown"><title>.</title></rect>
<text x="20" y="70" class="sm">Fitness: 0.0018997093765886512</text>
<rect x="455" y="65" width="46" height="5" fill="#00f"><title>598737.0</title></rect>
<rect x="455" y="70" width="61" height="5" fill="#00f"><title>1927.0</title></rect>
<rect x="679" y="75" width="44" height="5" fill="#00f"><title>261.0</title></rect>
<rect x="455" y="80" width="41" height="5" fill="#00f"><title>168.0</title></rect>
<rect x="455" y="85" width="242" height="5" fill="#00f"><title>54.0</title></rect>
<rect x="279" y="90" width="46" height="5" fill="#00f"><title>44.0</title></rect>
<rect x="405" y="95" width="109" height="5" fill="#f0f"><title>5.0</title></rect>
<rect x="620" y="100" width="77" height="5" fill="#00f"><title>5.0</title></rect>
<text x="20" y="130" class="sm">0.9956</text>
<rect x="100" y="120" width="355" height="12" fill="#00f"/>
<rect x="501" y="120" width="168" height="12" fill="#00f"/>
<line x1="455" y1="126" x2="500" y2="126" stroke="#00f"/>
<rect x="104" y="121" width="351" height="10" fill="#ff0"/>
<rect x="502" y="121" width="130" height="10" fill="#ff0"/>
<text x="20" y="150" class="sm">0.00317</text>
<rect x="100" y="140" width="355" height="12" fill="#00f"/>
<rect x="516" y="140" width="153" height="12" fill="#00f"/>
<line x1="455" y1="146" x2="515" y2="146" stroke="#00f"/>
<rect x="104" y="141" width="351" height="10" fill="#ff0"/>
<rect x="517" y="141" width="115" height="10" fill="#ff0"/>
<text x="20" y="170" class="sm">0.001047</text>
<rect x="100" y="160" width="355" height="12" fill="#00f"/>
<rect x="496" y="160" width="173" height="12" fill="#00f"/>
<line x1="455" y1="166" x2="495" y2="166" stroke="#00f"/>
<rect x="104" y="161" width="351" height="10" fill="#ff0"/>
<rect x="497" y="161" width="4" height="10" fill="#ff0"/>
<text x="20" y="190" class="sm">4.315e-05</text>
<rect x="100" y="180" width="417" height="12" fill="#00f"/>
<rect x="574" y="180" width="95" height="12" fill="#00f"/>
<line x1="517" y1="186" x2="573" y2="186" stroke="#00f"/>
<rect x="104" y="181" width="413" height="10" fill="#ff0"/>
<rect x="575" y="181" width="26" height="10" fill="#ff0"/>
<text x="20" y="210" class="sm">4.109e-05</text>
<rect x="100" y="200" width="355" height="12" fill="#00f"/>
<rect x="574" y="200" width="95" height="12" fill="#00f"/>
<line x1="455" y1="206" x2="573" y2="206" stroke="#00f"/>
<rect x="104" y="201" width="351" height="10" fill="#ff0"/>
<rect x="575" y="201" width="49" height="10" fill="#ff0"/>
<text x="20" y="230" class="sm">2.304e-05</text>
<rect x="100" y="220" width="307" height="12" fill="#00f"/>
<rect x="501" y="220" width="168" height="12" fill="#00f"/>
<line x1="407" y1="226" x2="500" y2="226" stroke="#00f"/>
<rect x="104" y="221" width="303" height="10" fill="#ff0"/>
<rect x="502" y="221" width="130" height="10" fill="#ff0"/>
<text x="20" y="250" class="sm">1.853e-05</text>
<rect x="100" y="240" width="473" height="12" fill="#00f"/>
<rect x="621" y="240" width="48" height="12" fill="#00f"/>
<line x1="573" y1="246" x2="620" y2="246" stroke="#00f"/>
<rect x="104" y="241" width="437" height="10" fill="#ff0"/>
<text x="20" y="270" class="sm">1.596e-05</text>
<rect x="100" y="260" width="340" height="12" fill="#00f"/>
<rect x="501" y="260" width="168" height="12" fill="#00f"/>
<line x1="440" y1="266" x2="500" y2="266" stroke="#00f"/>
<rect x="104" y="261" width="336" height="10" fill="#ff0"/>
<rect x="502" y="261" width="130" height="10" fill="#ff0"/>
<text x="20" y="290" class="sm">5.521e-06</text>
<rect x="100" y="280" width="355" height="12" fill="#00f"/>
<rect x="542" y="280" width="127" height="12" fill="#00f"/>
<line x1="455" y1="286" x2="541" y2="286" stroke="#00f"/>
<rect x="104" y="281" width="351" height="10" fill="#ff0"/>
<rect x="543" y="281" width="13" height="10" fill="#ff0"/>
<text x="20" y="310" class="sm">5.23e-06</text>
<rect x="100" y="300" width="307" height="12" fill="#00f"/>
<rect x="516" y="300" width="153" height="12" fill="#00f"/>
<line x1="407" y1="306" x2="515" y2="306" stroke="#00f"/>
<rect x="104" y="301" width="303" height="10" fill="#ff0"/>
<rect x="517" y="301" width="115" height="10" fill="#ff0"/>
<text x="20" y="330" class="sm">4.938e-06</text>
<rect x="100" y="320" width="366" height="12" fill="#00f"/>
<rect x="516" y="320" width="153" height="12" fill="#00f"/>
<line x1="466" y1="326" x2="515" y2="326" stroke="#00f"/>
<rect x="104" y="321" width="362" height="10" fill="#ff0"/>
<rect x="517" y="321" width="107" height="10" fill="#ff0"/>
<text x="20" y="350" class="sm">4.33e-06</text>
<rect x="100" y="340" width="278" height="12" fill="#00f"/>
<rect x="501" y="340" width="168" height="12" fill="#00f"/>
<line x1="378" y1="346" x2="500" y2="346" stroke="#00f"/>
<rect x="104" y="341" width="274" height="10" fill="#ff0"/>
<rect x="502" y="341" width="39" height="10" fill="#ff0"/>
<text x="20" y="370" class="sm">4.315e-06</text>
<rect x="100" y="360" width="355" height="12" fill="#00f"/>
<rect x="549" y="360" width="120" height="12" fill="#00f"/>
<line x1="455" y1="366" x2="548" y2="366" stroke="#00f"/>
<rect x="104" y="361" width="351" height="10" fill="#ff0"/>
<rect x="550" y="361" width="82" height="10" fill="#ff0"/>
<text x="20" y="390" class="sm">3.358e-06</text>
<rect x="100" y="380" width="30" height="12" fill="#00f"/>
<rect x="177" y="380" width="492" height="12" fill="#00f"/>
<line x1="130" y1="386" x2="176" y2="386" stroke="#00f"/>
<rect x="317" y="381" width="224" height="10" fill="#ff0"/>
<text x="20" y="410" class="sm">2.692e-06</text>
<rect x="100" y="400" width="30" height="12" fill="#00f"/>
<rect x="194" y="400" width="475" height="12" fill="#00f"/>
<line x1="130" y1="406" x2="193" y2="406" stroke="#00f"/>
<rect x="317" y="401" width="224" height="10" fill="#ff0"/>
<text x="20" y="430" class="sm">1.102e-06</text>
<rect x="100" y="420" width="355" height="12" fill="#00f"/>
<rect x="546" y="420" width="123" height="12" fill="#00f"/>
<line x1="455" y1="426" x2="545" y2="426" stroke="#00f"/>
<rect x="104" y="421" width="351" height="10" fill="#ff0"/>
<rect x="547" y="421" width="85" height="10" fill="#ff0"/>
<text x="20" y="450" class="sm">1.01e-06</text>
<rect x="100" y="440" width="278" height="12" fill="#00f"/>
<rect x="516" y="440" width="153" height="12" fill="#00f"/>
<line x1="378" y1="446" x2="515" y2="446" stroke="#00f"/>
<rect x="104" y="441" width="274" height="10" fill="#ff0"/>
<rect x="517" y="441" width="24" height="10" fill="#ff0"/>
<text x="20" y="470" class="sm">9.725e-07</text>
<rect x="100" y="460" width="480" height="12" fill="#00f"/>
<rect x="621" y="460" width="48" height="12" fill="#00f"/>
<line x1="580" y1="466" x2="620" y2="466" stroke="#00f"/>
<rect x="104" y="461" width="437" height="10" fill="#ff0"/>
<text x="20" y="490" class="sm">9.115e-07</text>
<rect x="100" y="480" width="430" height="12" fill="#00f"/>
<rect x="574" y="480" width="95" height="12" fill="#00f"/>
<line x1="530" y1="486" x2="573" y2="486" stroke="#00f"/>
<rect x="104" y="481" width="426" height="10" fill="#ff0"/>
<rect x="575" y="481" width="49" height="10" fill="#ff0"/>
<text x="20" y="510" class="sm">8.606e-07</text>
<rect x="100" y="500" width="307" height="12" fill="#00f"/>
<rect x="574" y="500" width="95" height="12" fill="#00f"/>
<line x1="407" y1="506" x2="573" y2="506" stroke="#00f"/>
<rect x="104" y="501" width="303" height="10" fill="#ff0"/>
<rect x="575" y="501" width="49" height="10" fill="#ff0"/>
</svg>
