<svg viewBox="0 0 690 630" xmlns="http://www.w3.org/2000/svg">

<style>
  .sm { font: 12px sans-serif; }
  .lg { font: 15px sans-serif; }
</style>
<rect fill="#ddd" x="0" y="0" width="100%" height="100%"/>
<text x="20" y="20" class="lg">ch.14625 V:9087193-9087882 Gene:WBGene00002015</text>
<text x="20" y="50" class="sm">WormBase</text>
<rect x="102" y="40" width="126" height="12" fill="#00f"/>
<rect x="280" y="40" width="312" height="12" fill="#00f"/>
<line x1="228" y1="46" x2="279" y2="46" stroke="#00f"/>
<rect x="103" y="41" width="125" height="10" fill="#ff0"/>
<rect x="281" y="41" width="311" height="10" fill="#ff0"/>
<text x="20" y="70" class="sm">Fitness: 0.00232615637176289</text>
<rect x="228" y="65" width="52" height="5" fill="#00f"><title>6760920.0</title></rect>
<rect x="228" y="70" width="41" height="5" fill="#00f"><title>6768.0</title></rect>
<rect x="232" y="75" width="48" height="5" fill="#00f"><title>3607.0</title></rect>
<rect x="228" y="80" width="73" height="5" fill="#00f"><title>803.0</title></rect>
<rect x="463" y="85" width="52" height="5" fill="#00f"><title>208.0</title></rect>
<rect x="148" y="90" width="48" height="5" fill="#00f"><title>132.0</title></rect>
<rect x="228" y="95" width="100" height="5" fill="#00f"><title>127.0</title></rect>
<rect x="407" y="100" width="213" height="5" fill="#00f"><title>103.0</title></rect>
<rect x="148" y="105" width="55" height="5" fill="#00f"><title>85.0</title></rect>
<rect x="232" y="110" width="37" height="5" fill="#00f"><title>58.0</title></rect>
<rect x="13" y="115" width="46" height="5" fill="#f0f"><title>57.0</title></rect>
<rect x="385" y="120" width="156" height="5" fill="#f0f"><title>56.0</title></rect>
<rect x="214" y="125" width="235" height="5" fill="#f0f"><title>48.0</title></rect>
<rect x="13" y="130" width="101" height="5" fill="#f0f"><title>23.0</title></rect>
<rect x="401" y="135" width="48" height="5" fill="#f0f"><title>20.0</title></rect>
<rect x="127" y="140" width="57" height="5" fill="#f0f"><title>13.0</title></rect>
<rect x="228" y="145" width="155" height="5" fill="#00f"><title>10.0</title></rect>
<rect x="195" y="150" width="146" height="5" fill="#00f"><title>10.0</title></rect>
<rect x="214" y="155" width="155" height="5" fill="#f0f"><title>9.0</title></rect>
<rect x="467" y="160" width="48" height="5" fill="#00f"><title>8.0</title></rect>
<rect x="228" y="165" width="193" height="5" fill="#00f"><title>4.0</title></rect>
<rect x="129" y="170" width="56" height="5" fill="#f0f"><title>4.0</title></rect>
<rect x="584" y="175" width="51" height="5" fill="#f0f"><title>3.0</title></rect>
<rect x="385" y="180" width="143" height="5" fill="#f0f"><title>3.0</title></rect>
<rect x="214" y="185" width="175" height="5" fill="#f0f"><title>3.0</title></rect>
<rect x="124" y="190" width="37" height="5" fill="#00f"><title>3.0</title></rect>
<text x="20" y="220" class="sm">0.9984</text>
<rect x="100" y="210" width="128" height="12" fill="#00f"/>
<rect x="280" y="210" width="313" height="12" fill="#00f"/>
<line x1="228" y1="216" x2="279" y2="216" stroke="#00f"/>
<rect x="103" y="211" width="125" height="10" fill="#ff0"/>
<rect x="281" y="211" width="311" height="10" fill="#ff0"/>
<text x="20" y="240" class="sm">0.0007409</text>
<rect x="100" y="230" width="132" height="12" fill="#00f"/>
<rect x="280" y="230" width="313" height="12" fill="#00f"/>
<line x1="232" y1="236" x2="279" y2="236" stroke="#00f"/>
<rect x="103" y="231" width="129" height="10" fill="#ff0"/>
<rect x="281" y="231" width="7" height="10" fill="#ff0"/>
<text x="20" y="260" class="sm">0.0002781</text>
<rect x="100" y="250" width="95" height="12" fill="#00f"/>
<rect x="253" y="250" width="340" height="12" fill="#00f"/>
<line x1="195" y1="256" x2="252" y2="256" stroke="#00f"/>
<rect x="103" y="251" width="92" height="10" fill="#ff0"/>
<rect x="254" y="251" width="338" height="10" fill="#ff0"/>
<text x="20" y="280" class="sm">0.0002645</text>
<rect x="100" y="270" width="48" height="12" fill="#00f"/>
<rect x="203" y="270" width="390" height="12" fill="#00f"/>
<line x1="148" y1="276" x2="202" y2="276" stroke="#00f"/>
<rect x="103" y="271" width="45" height="10" fill="#ff0"/>
<rect x="204" y="271" width="28" height="10" fill="#ff0"/>
<text x="20" y="300" class="sm">0.0001596</text>
<rect x="100" y="290" width="95" height="12" fill="#00f"/>
<rect x="280" y="290" width="313" height="12" fill="#00f"/>
<line x1="195" y1="296" x2="279" y2="296" stroke="#00f"/>
<rect x="103" y="291" width="92" height="10" fill="#ff0"/>
<rect x="281" y="291" width="311" height="10" fill="#ff0"/>
<text x="20" y="320" class="sm">5.425e-05</text>
<rect x="100" y="310" width="128" height="12" fill="#00f"/>
<rect x="334" y="310" width="259" height="12" fill="#00f"/>
<line x1="228" y1="316" x2="333" y2="316" stroke="#00f"/>
<rect x="103" y="311" width="125" height="10" fill="#ff0"/>
<rect x="335" y="311" width="257" height="10" fill="#ff0"/>
<text x="20" y="340" class="sm">4.756e-05</text>
<rect x="100" y="330" width="336" height="12" fill="#00f"/>
<rect x="491" y="330" width="102" height="12" fill="#00f"/>
<line x1="436" y1="336" x2="490" y2="336" stroke="#00f"/>
<rect x="103" y="331" width="161" height="10" fill="#ff0"/>
<text x="20" y="360" class="sm">2.619e-05</text>
<rect x="100" y="350" width="48" height="12" fill="#00f"/>
<rect x="196" y="350" width="397" height="12" fill="#00f"/>
<line x1="148" y1="356" x2="195" y2="356" stroke="#00f"/>
<rect x="103" y="351" width="45" height="10" fill="#ff0"/>
<rect x="197" y="351" width="67" height="10" fill="#ff0"/>
<text x="20" y="380" class="sm">1.944e-05</text>
<rect x="100" y="370" width="128" height="12" fill="#00f"/>
<rect x="328" y="370" width="265" height="12" fill="#00f"/>
<line x1="228" y1="376" x2="327" y2="376" stroke="#00f"/>
<rect x="103" y="371" width="125" height="10" fill="#ff0"/>
<rect x="329" y="371" width="263" height="10" fill="#ff0"/>
<text x="20" y="400" class="sm">1.427e-05</text>
<rect x="100" y="390" width="128" height="12" fill="#00f"/>
<rect x="269" y="390" width="324" height="12" fill="#00f"/>
<line x1="228" y1="396" x2="268" y2="396" stroke="#00f"/>
<rect x="103" y="391" width="125" height="10" fill="#ff0"/>
<rect x="270" y="391" width="41" height="10" fill="#ff0"/>
<text x="20" y="420" class="sm">1.33e-05</text>
<rect x="100" y="410" width="183" height="12" fill="#00f"/>
<rect x="334" y="410" width="259" height="12" fill="#00f"/>
<line x1="283" y1="416" x2="333" y2="416" stroke="#00f"/>
<rect x="103" y="411" width="161" height="10" fill="#ff0"/>
<text x="20" y="440" class="sm">7.803e-06</text>
<rect x="100" y="430" width="334" height="12" fill="#00f"/>
<rect x="491" y="430" width="102" height="12" fill="#00f"/>
<line x1="434" y1="436" x2="490" y2="436" stroke="#00f"/>
<rect x="103" y="431" width="161" height="10" fill="#ff0"/>
<text x="20" y="460" class="sm">4.993e-06</text>
<rect x="100" y="450" width="183" height="12" fill="#00f"/>
<rect x="328" y="450" width="265" height="12" fill="#00f"/>
<line x1="283" y1="456" x2="327" y2="456" stroke="#00f"/>
<rect x="103" y="451" width="161" height="10" fill="#ff0"/>
<text x="20" y="480" class="sm">3.765e-06</text>
<rect x="100" y="470" width="48" height="12" fill="#00f"/>
<rect x="280" y="470" width="313" height="12" fill="#00f"/>
<line x1="148" y1="476" x2="279" y2="476" stroke="#00f"/>
<rect x="103" y="471" width="45" height="10" fill="#ff0"/>
<rect x="281" y="471" width="7" height="10" fill="#ff0"/>
<text x="20" y="500" class="sm">3.003e-06</text>
<rect x="100" y="490" width="48" height="12" fill="#00f"/>
<rect x="253" y="490" width="340" height="12" fill="#00f"/>
<line x1="148" y1="496" x2="252" y2="496" stroke="#00f"/>
<rect x="103" y="491" width="45" height="10" fill="#ff0"/>
<rect x="254" y="491" width="10" height="10" fill="#ff0"/>
<text x="20" y="520" class="sm">2.075e-06</text>
<rect x="100" y="510" width="95" height="12" fill="#00f"/>
<rect x="233" y="510" width="360" height="12" fill="#00f"/>
<line x1="195" y1="516" x2="232" y2="516" stroke="#00f"/>
<rect x="103" y="511" width="92" height="10" fill="#ff0"/>
<rect x="234" y="511" width="2" height="10" fill="#ff0"/>
<text x="20" y="540" class="sm">1.855e-06</text>
<rect x="100" y="530" width="139" height="12" fill="#00f"/>
<rect x="280" y="530" width="313" height="12" fill="#00f"/>
<line x1="239" y1="536" x2="279" y2="536" stroke="#00f"/>
<rect x="103" y="531" width="136" height="10" fill="#ff0"/>
<rect x="281" y="531" width="30" height="10" fill="#ff0"/>
<text x="20" y="560" class="sm">1.096e-06</text>
<rect x="100" y="550" width="336" height="12" fill="#00f"/>
<rect x="473" y="550" width="120" height="12" fill="#00f"/>
<line x1="436" y1="556" x2="472" y2="556" stroke="#00f"/>
<rect x="103" y="551" width="161" height="10" fill="#ff0"/>
<text x="20" y="580" class="sm">8.958e-07</text>
<rect x="100" y="570" width="200" height="12" fill="#00f"/>
<rect x="338" y="570" width="255" height="12" fill="#00f"/>
<line x1="300" y1="576" x2="337" y2="576" stroke="#00f"/>
<rect x="291" y="571" width="9" height="10" fill="#ff0"/>
<rect x="339" y="571" width="253" height="10" fill="#ff0"/>
<text x="20" y="600" class="sm">4.565e-07</text>
<rect x="100" y="590" width="41" height="12" fill="#00f"/>
<rect x="203" y="590" width="390" height="12" fill="#00f"/>
<line x1="141" y1="596" x2="202" y2="596" stroke="#00f"/>
<rect x="103" y="591" width="38" height="10" fill="#ff0"/>
<rect x="204" y="591" width="14" height="10" fill="#ff0"/>
</svg>
