<svg viewBox="0 0 813 520" xmlns="http://www.w3.org/2000/svg">

<style>
  .sm { font: 12px sans-serif; }
  .lg { font: 15px sans-serif; }
</style>
<rect fill="#ddd" x="0" y="0" width="100%" height="100%"/>
<text x="20" y="20" class="lg">ch.18914 X:8726694-8727506 Gene:WBGene00017149</text>
<text x="20" y="50" class="sm">WormBase</text>
<rect x="102" y="40" width="260" height="12" fill="#00f"/>
<rect x="410" y="40" width="305" height="12" fill="#00f"/>
<line x1="362" y1="46" x2="409" y2="46" stroke="#00f"/>
<rect x="123" y="41" width="239" height="10" fill="#ff0"/>
<rect x="411" y="41" width="101" height="10" fill="#ff0"/>
<rect x="103" y="41" width="19" height="10" fill="brown"><title>.</title></rect>
<rect x="513" y="41" width="202" height="10" fill="brown"><title>.</title></rect>
<text x="20" y="70" class="sm">Fitness: 1.2700998836653565e-05</text>
<rect x="362" y="65" width="48" height="5" fill="#00f"><title>154712.0</title></rect>
<rect x="541" y="70" width="45" height="5" fill="#f0f"><title>5.0</title></rect>
<rect x="366" y="75" width="44" height="5" fill="#00f"><title>5.0</title></rect>
<rect x="362" y="80" width="86" height="5" fill="#00f"><title>3.0</title></rect>
<text x="20" y="110" class="sm">0.9999</text>
<rect x="100" y="100" width="262" height="12" fill="#00f"/>
<rect x="410" y="100" width="306" height="12" fill="#00f"/>
<line x1="362" y1="106" x2="409" y2="106" stroke="#00f"/>
<rect x="123" y="101" width="239" height="10" fill="#ff0"/>
<rect x="411" y="101" width="101" height="10" fill="#ff0"/>
<text x="20" y="130" class="sm">2.66e-05</text>
<rect x="100" y="120" width="266" height="12" fill="#00f"/>
<rect x="410" y="120" width="306" height="12" fill="#00f"/>
<line x1="366" y1="126" x2="409" y2="126" stroke="#00f"/>
<rect x="123" y="121" width="243" height="10" fill="#ff0"/>
<rect x="411" y="121" width="76" height="10" fill="#ff0"/>
<text x="20" y="150" class="sm">2.074e-05</text>
<rect x="100" y="140" width="262" height="12" fill="#00f"/>
<rect x="448" y="140" width="268" height="12" fill="#00f"/>
<line x1="362" y1="146" x2="447" y2="146" stroke="#00f"/>
<rect x="123" y="141" width="239" height="10" fill="#ff0"/>
<rect x="449" y="141" width="38" height="10" fill="#ff0"/>
<text x="20" y="170" class="sm">2.916e-06</text>
<rect x="100" y="160" width="408" height="12" fill="#00f"/>
<rect x="547" y="160" width="169" height="12" fill="#00f"/>
<line x1="508" y1="166" x2="546" y2="166" stroke="#00f"/>
<rect x="123" y="161" width="251" height="10" fill="#ff0"/>
<text x="20" y="190" class="sm">1.066e-06</text>
<rect x="100" y="180" width="530" height="12" fill="#00f"/>
<rect x="676" y="180" width="40" height="12" fill="#00f"/>
<line x1="630" y1="186" x2="675" y2="186" stroke="#00f"/>
<rect x="123" y="181" width="251" height="10" fill="#ff0"/>
<text x="20" y="210" class="sm">7.091e-07</text>
<rect x="100" y="200" width="262" height="12" fill="#00f"/>
<rect x="547" y="200" width="169" height="12" fill="#00f"/>
<line x1="362" y1="206" x2="546" y2="206" stroke="#00f"/>
<rect x="123" y="201" width="239" height="10" fill="#ff0"/>
<rect x="548" y="201" width="56" height="10" fill="#ff0"/>
<text x="20" y="230" class="sm">8.536e-08</text>
<rect x="100" y="220" width="209" height="12" fill="#00f"/>
<rect x="410" y="220" width="306" height="12" fill="#00f"/>
<line x1="309" y1="226" x2="409" y2="226" stroke="#00f"/>
<rect x="123" y="221" width="186" height="10" fill="#ff0"/>
<rect x="411" y="221" width="76" height="10" fill="#ff0"/>
<text x="20" y="250" class="sm">7.072e-08</text>
<rect x="100" y="240" width="446" height="12" fill="#00f"/>
<rect x="676" y="240" width="40" height="12" fill="#00f"/>
<line x1="546" y1="246" x2="675" y2="246" stroke="#00f"/>
<rect x="123" y="241" width="251" height="10" fill="#ff0"/>
<text x="20" y="270" class="sm">5.877e-08</text>
<rect x="100" y="260" width="262" height="12" fill="#00f"/>
<rect x="676" y="260" width="40" height="12" fill="#00f"/>
<line x1="362" y1="266" x2="675" y2="266" stroke="#00f"/>
<rect x="123" y="261" width="239" height="10" fill="#ff0"/>
<rect x="677" y="261" width="17" height="10" fill="#ff0"/>
<text x="20" y="290" class="sm">2.728e-08</text>
<rect x="100" y="280" width="211" height="12" fill="#00f"/>
<rect x="410" y="280" width="306" height="12" fill="#00f"/>
<line x1="311" y1="286" x2="409" y2="286" stroke="#00f"/>
<rect x="123" y="281" width="188" height="10" fill="#ff0"/>
<rect x="411" y="281" width="101" height="10" fill="#ff0"/>
<text x="20" y="310" class="sm">1.588e-08</text>
<rect x="100" y="300" width="146" height="12" fill="#00f"/>
<rect x="291" y="300" width="425" height="12" fill="#00f"/>
<line x1="246" y1="306" x2="290" y2="306" stroke="#00f"/>
<rect x="123" y="301" width="123" height="10" fill="#ff0"/>
<rect x="292" y="301" width="1" height="10" fill="#ff0"/>
<text x="20" y="330" class="sm">9.115e-09</text>
<rect x="100" y="320" width="446" height="12" fill="#00f"/>
<rect x="620" y="320" width="96" height="12" fill="#00f"/>
<line x1="546" y1="326" x2="619" y2="326" stroke="#00f"/>
<rect x="123" y="321" width="251" height="10" fill="#ff0"/>
<text x="20" y="350" class="sm">8.95e-09</text>
<rect x="100" y="340" width="309" height="12" fill="#00f"/>
<rect x="448" y="340" width="268" height="12" fill="#00f"/>
<line x1="409" y1="346" x2="447" y2="346" stroke="#00f"/>
<rect x="123" y="341" width="251" height="10" fill="#ff0"/>
<text x="20" y="370" class="sm">7.839e-09</text>
<rect x="100" y="360" width="408" height="12" fill="#00f"/>
<rect x="676" y="360" width="40" height="12" fill="#00f"/>
<line x1="508" y1="366" x2="675" y2="366" stroke="#00f"/>
<rect x="123" y="361" width="251" height="10" fill="#ff0"/>
<text x="20" y="390" class="sm">5.717e-09</text>
<rect x="100" y="380" width="262" height="12" fill="#00f"/>
<rect x="524" y="380" width="192" height="12" fill="#00f"/>
<line x1="362" y1="386" x2="523" y2="386" stroke="#00f"/>
<rect x="123" y="381" width="239" height="10" fill="#ff0"/>
<rect x="525" y="381" width="65" height="10" fill="#ff0"/>
<text x="20" y="410" class="sm">3.273e-09</text>
<rect x="100" y="400" width="262" height="12" fill="#00f"/>
<rect x="620" y="400" width="96" height="12" fill="#00f"/>
<line x1="362" y1="406" x2="619" y2="406" stroke="#00f"/>
<rect x="123" y="401" width="239" height="10" fill="#ff0"/>
<rect x="621" y="401" width="47" height="10" fill="#ff0"/>
<text x="20" y="430" class="sm">2.897e-09</text>
<rect x="100" y="420" width="456" height="12" fill="#00f"/>
<rect x="676" y="420" width="40" height="12" fill="#00f"/>
<line x1="556" y1="426" x2="675" y2="426" stroke="#00f"/>
<rect x="123" y="421" width="251" height="10" fill="#ff0"/>
<text x="20" y="450" class="sm">2.174e-09</text>
<rect x="100" y="440" width="278" height="12" fill="#00f"/>
<rect x="448" y="440" width="268" height="12" fill="#00f"/>
<line x1="378" y1="446" x2="447" y2="446" stroke="#00f"/>
<rect x="123" y="441" width="251" height="10" fill="#ff0"/>
<text x="20" y="470" class="sm">1.651e-09</text>
<rect x="100" y="460" width="262" height="12" fill="#00f"/>
<rect x="465" y="460" width="251" height="12" fill="#00f"/>
<line x1="362" y1="466" x2="464" y2="466" stroke="#00f"/>
<rect x="123" y="461" width="239" height="10" fill="#ff0"/>
<rect x="466" y="461" width="26" height="10" fill="#ff0"/>
<text x="20" y="490" class="sm">1.182e-09</text>
<rect x="100" y="480" width="266" height="12" fill="#00f"/>
<rect x="448" y="480" width="268" height="12" fill="#00f"/>
<line x1="366" y1="486" x2="447" y2="486" stroke="#00f"/>
<rect x="123" y="481" width="243" height="10" fill="#ff0"/>
<rect x="449" y="481" width="43" height="10" fill="#ff0"/>
</svg>
