<svg viewBox="0 0 637 515" xmlns="http://www.w3.org/2000/svg">

<style>
  .sm { font: 12px sans-serif; }
  .lg { font: 15px sans-serif; }
</style>
<rect fill="#ddd" x="0" y="0" width="100%" height="100%"/>
<text x="20" y="20" class="lg">ch.18452 X:6087876-6088512 Gene:WBGene00016662</text>
<text x="20" y="50" class="sm">WormBase</text>
<rect x="100" y="40" width="114" height="12" fill="#00f"/>
<rect x="286" y="40" width="251" height="12" fill="#00f"/>
<line x1="214" y1="46" x2="285" y2="46" stroke="#00f"/>
<rect x="195" y="41" width="19" height="10" fill="#ff0"/>
<rect x="287" y="41" width="201" height="10" fill="#ff0"/>
<rect x="101" y="41" width="93" height="10" fill="brown"><title>.</title></rect>
<rect x="489" y="41" width="48" height="10" fill="brown"><title>.</title></rect>
<text x="20" y="70" class="sm">Fitness: 0.43382563331065077</text>
<rect x="214" y="65" width="72" height="5" fill="#00f"><title>117505.0</title></rect>
<rect x="214" y="70" width="44" height="5" fill="#00f"><title>26.0</title></rect>
<rect x="214" y="75" width="76" height="5" fill="#00f"><title>19.0</title></rect>
<text x="20" y="105" class="sm">0.783</text>
<rect x="100" y="95" width="114" height="12" fill="#00f"/>
<rect x="286" y="95" width="254" height="12" fill="#00f"/>
<line x1="214" y1="101" x2="285" y2="101" stroke="#00f"/>
<rect x="195" y="96" width="19" height="10" fill="#ff0"/>
<rect x="287" y="96" width="201" height="10" fill="#ff0"/>
<text x="20" y="125" class="sm">0.1889</text>
<rect x="100" y="115" width="118" height="12" fill="#00f"/>
<rect x="286" y="115" width="254" height="12" fill="#00f"/>
<line x1="218" y1="121" x2="285" y2="121" stroke="#00f"/>
<rect x="330" y="116" width="158" height="10" fill="#ff0"/>
<text x="20" y="145" class="sm">0.02394</text>
<rect x="100" y="135" width="149" height="12" fill="#00f"/>
<rect x="286" y="135" width="254" height="12" fill="#00f"/>
<line x1="249" y1="141" x2="285" y2="141" stroke="#00f"/>
<rect x="330" y="136" width="158" height="10" fill="#ff0"/>
<text x="20" y="165" class="sm">0.002303</text>
<rect x="100" y="155" width="88" height="12" fill="#00f"/>
<rect x="286" y="155" width="254" height="12" fill="#00f"/>
<line x1="188" y1="161" x2="285" y2="161" stroke="#00f"/>
<rect x="330" y="156" width="158" height="10" fill="#ff0"/>
<text x="20" y="185" class="sm">0.00167</text>
<rect x="100" y="175" width="73" height="12" fill="#00f"/>
<rect x="286" y="175" width="254" height="12" fill="#00f"/>
<line x1="173" y1="181" x2="285" y2="181" stroke="#00f"/>
<rect x="330" y="176" width="158" height="10" fill="#ff0"/>
<text x="20" y="205" class="sm">0.0001118</text>
<rect x="100" y="195" width="114" height="12" fill="#00f"/>
<rect x="290" y="195" width="250" height="12" fill="#00f"/>
<line x1="214" y1="201" x2="289" y2="201" stroke="#00f"/>
<rect x="330" y="196" width="158" height="10" fill="#ff0"/>
<text x="20" y="225" class="sm">5.422e-05</text>
<rect x="100" y="215" width="41" height="12" fill="#00f"/>
<rect x="286" y="215" width="254" height="12" fill="#00f"/>
<line x1="141" y1="221" x2="285" y2="221" stroke="#00f"/>
<rect x="104" y="216" width="37" height="10" fill="#ff0"/>
<rect x="287" y="216" width="201" height="10" fill="#ff0"/>
<text x="20" y="245" class="sm">2.7e-05</text>
<rect x="100" y="235" width="118" height="12" fill="#00f"/>
<rect x="290" y="235" width="250" height="12" fill="#00f"/>
<line x1="218" y1="241" x2="289" y2="241" stroke="#00f"/>
<rect x="195" y="236" width="23" height="10" fill="#ff0"/>
<rect x="291" y="236" width="197" height="10" fill="#ff0"/>
<text x="20" y="265" class="sm">1.12e-05</text>
<rect x="100" y="255" width="114" height="12" fill="#00f"/>
<rect x="286" y="255" width="168" height="12" fill="#00f"/>
<rect x="508" y="255" width="32" height="12" fill="#00f"/>
<line x1="214" y1="261" x2="285" y2="261" stroke="#00f"/>
<line x1="454" y1="261" x2="507" y2="261" stroke="#00f"/>
<rect x="195" y="256" width="19" height="10" fill="#ff0"/>
<rect x="287" y="256" width="167" height="10" fill="#ff0"/>
<rect x="509" y="256" width="6" height="10" fill="#ff0"/>
<text x="20" y="285" class="sm">5.57e-06</text>
<rect x="100" y="275" width="114" height="12" fill="#00f"/>
<rect x="286" y="275" width="168" height="12" fill="#00f"/>
<rect x="512" y="275" width="28" height="12" fill="#00f"/>
<line x1="214" y1="281" x2="285" y2="281" stroke="#00f"/>
<line x1="454" y1="281" x2="511" y2="281" stroke="#00f"/>
<rect x="104" y="276" width="80" height="10" fill="#ff0"/>
<text x="20" y="305" class="sm">3.31e-06</text>
<rect x="100" y="295" width="149" height="12" fill="#00f"/>
<rect x="290" y="295" width="250" height="12" fill="#00f"/>
<line x1="249" y1="301" x2="289" y2="301" stroke="#00f"/>
<rect x="330" y="296" width="158" height="10" fill="#ff0"/>
<text x="20" y="325" class="sm">2.702e-06</text>
<rect x="100" y="315" width="118" height="12" fill="#00f"/>
<rect x="286" y="315" width="168" height="12" fill="#00f"/>
<rect x="508" y="315" width="32" height="12" fill="#00f"/>
<line x1="218" y1="321" x2="285" y2="321" stroke="#00f"/>
<line x1="454" y1="321" x2="507" y2="321" stroke="#00f"/>
<rect x="330" y="316" width="124" height="10" fill="#ff0"/>
<rect x="509" y="316" width="6" height="10" fill="#ff0"/>
<text x="20" y="345" class="sm">1.343e-06</text>
<rect x="100" y="335" width="118" height="12" fill="#00f"/>
<rect x="286" y="335" width="168" height="12" fill="#00f"/>
<rect x="512" y="335" width="28" height="12" fill="#00f"/>
<line x1="218" y1="341" x2="285" y2="341" stroke="#00f"/>
<line x1="454" y1="341" x2="511" y2="341" stroke="#00f"/>
<rect x="195" y="336" width="23" height="10" fill="#ff0"/>
<rect x="287" y="336" width="167" height="10" fill="#ff0"/>
<rect x="513" y="336" width="2" height="10" fill="#ff0"/>
<text x="20" y="365" class="sm">3.426e-07</text>
<rect x="100" y="355" width="149" height="12" fill="#00f"/>
<rect x="286" y="355" width="168" height="12" fill="#00f"/>
<rect x="508" y="355" width="32" height="12" fill="#00f"/>
<line x1="249" y1="361" x2="285" y2="361" stroke="#00f"/>
<line x1="454" y1="361" x2="507" y2="361" stroke="#00f"/>
<rect x="330" y="356" width="124" height="10" fill="#ff0"/>
<rect x="509" y="356" width="6" height="10" fill="#ff0"/>
<text x="20" y="385" class="sm">3.287e-07</text>
<rect x="100" y="375" width="88" height="12" fill="#00f"/>
<rect x="290" y="375" width="250" height="12" fill="#00f"/>
<line x1="188" y1="381" x2="289" y2="381" stroke="#00f"/>
<rect x="330" y="376" width="158" height="10" fill="#ff0"/>
<text x="20" y="405" class="sm">2.389e-07</text>
<rect x="100" y="395" width="73" height="12" fill="#00f"/>
<rect x="290" y="395" width="250" height="12" fill="#00f"/>
<line x1="173" y1="401" x2="289" y2="401" stroke="#00f"/>
<rect x="330" y="396" width="158" height="10" fill="#ff0"/>
<text x="20" y="425" class="sm">1.703e-07</text>
<rect x="100" y="415" width="149" height="12" fill="#00f"/>
<rect x="286" y="415" width="168" height="12" fill="#00f"/>
<rect x="512" y="415" width="28" height="12" fill="#00f"/>
<line x1="249" y1="421" x2="285" y2="421" stroke="#00f"/>
<line x1="454" y1="421" x2="511" y2="421" stroke="#00f"/>
<rect x="104" y="416" width="80" height="10" fill="#ff0"/>
<text x="20" y="445" class="sm">4.946e-08</text>
<rect x="100" y="435" width="114" height="12" fill="#00f"/>
<rect x="286" y="435" width="174" height="12" fill="#00f"/>
<rect x="508" y="435" width="32" height="12" fill="#00f"/>
<line x1="214" y1="441" x2="285" y2="441" stroke="#00f"/>
<line x1="460" y1="441" x2="507" y2="441" stroke="#00f"/>
<rect x="195" y="436" width="19" height="10" fill="#ff0"/>
<rect x="287" y="436" width="173" height="10" fill="#ff0"/>
<rect x="509" y="436" width="6" height="10" fill="#ff0"/>
<text x="20" y="465" class="sm">3.295e-08</text>
<rect x="100" y="455" width="88" height="12" fill="#00f"/>
<rect x="286" y="455" width="168" height="12" fill="#00f"/>
<rect x="508" y="455" width="32" height="12" fill="#00f"/>
<line x1="188" y1="461" x2="285" y2="461" stroke="#00f"/>
<line x1="454" y1="461" x2="507" y2="461" stroke="#00f"/>
<rect x="330" y="456" width="124" height="10" fill="#ff0"/>
<rect x="509" y="456" width="6" height="10" fill="#ff0"/>
<text x="20" y="485" class="sm">2.444e-08</text>
<rect x="100" y="475" width="114" height="12" fill="#00f"/>
<rect x="286" y="475" width="174" height="12" fill="#00f"/>
<rect x="512" y="475" width="28" height="12" fill="#00f"/>
<line x1="214" y1="481" x2="285" y2="481" stroke="#00f"/>
<line x1="460" y1="481" x2="511" y2="481" stroke="#00f"/>
<rect x="104" y="476" width="80" height="10" fill="#ff0"/>
</svg>
