<svg viewBox="0 0 885 550" xmlns="http://www.w3.org/2000/svg">

<style>
  .sm { font: 12px sans-serif; }
  .lg { font: 15px sans-serif; }
</style>
<rect fill="#ddd" x="0" y="0" width="100%" height="100%"/>
<text x="20" y="20" class="lg">ch.1388 I:7580844-7581728 Gene:WBGene00008414</text>
<text x="20" y="50" class="sm">WormBase</text>
<rect x="102" y="40" width="119" height="12" fill="#00f"/>
<rect x="303" y="40" width="105" height="12" fill="#00f"/>
<rect x="513" y="40" width="274" height="12" fill="#00f"/>
<line x1="221" y1="46" x2="302" y2="46" stroke="#00f"/>
<line x1="408" y1="46" x2="512" y2="46" stroke="#00f"/>
<rect x="108" y="41" width="113" height="10" fill="#ff0"/>
<rect x="304" y="41" width="104" height="10" fill="#ff0"/>
<rect x="514" y="41" width="152" height="10" fill="#ff0"/>
<rect x="103" y="41" width="4" height="10" fill="brown"><title>.</title></rect>
<rect x="667" y="41" width="120" height="10" fill="brown"><title>.</title></rect>
<text x="20" y="70" class="sm">Fitness: 0.01896738829095432</text>
<rect x="408" y="65" width="105" height="5" fill="#00f"><title>1911280.0</title></rect>
<rect x="221" y="70" width="82" height="5" fill="#00f"><title>1762450.0</title></rect>
<rect x="58" y="75" width="44" height="5" fill="#00f"><title>585.0</title></rect>
<rect x="221" y="80" width="69" height="5" fill="#00f"><title>364.0</title></rect>
<rect x="221" y="85" width="292" height="5" fill="#00f"><title>104.0</title></rect>
<rect x="145" y="90" width="213" height="5" fill="#f0f"><title>35.0</title></rect>
<rect x="408" y="95" width="273" height="5" fill="#00f"><title>14.0</title></rect>
<rect x="152" y="100" width="27" height="5" fill="#f0f"><title>12.0</title></rect>
<rect x="221" y="105" width="97" height="5" fill="#00f"><title>8.0</title></rect>
<rect x="204" y="110" width="110" height="5" fill="#f0f"><title>3.0</title></rect>
<text x="20" y="140" class="sm">0.9214</text>
<rect x="100" y="130" width="121" height="12" fill="#00f"/>
<rect x="303" y="130" width="105" height="12" fill="#00f"/>
<rect x="513" y="130" width="275" height="12" fill="#00f"/>
<line x1="221" y1="136" x2="302" y2="136" stroke="#00f"/>
<line x1="408" y1="136" x2="512" y2="136" stroke="#00f"/>
<rect x="108" y="131" width="113" height="10" fill="#ff0"/>
<rect x="304" y="131" width="104" height="10" fill="#ff0"/>
<rect x="514" y="131" width="152" height="10" fill="#ff0"/>
<text x="20" y="160" class="sm">0.0601</text>
<rect x="100" y="150" width="308" height="12" fill="#00f"/>
<rect x="513" y="150" width="275" height="12" fill="#00f"/>
<line x1="408" y1="156" x2="512" y2="156" stroke="#00f"/>
<rect x="313" y="151" width="95" height="10" fill="#ff0"/>
<rect x="514" y="151" width="152" height="10" fill="#ff0"/>
<text x="20" y="180" class="sm">0.01587</text>
<rect x="100" y="170" width="96" height="12" fill="#00f"/>
<rect x="303" y="170" width="105" height="12" fill="#00f"/>
<rect x="513" y="170" width="275" height="12" fill="#00f"/>
<line x1="196" y1="176" x2="302" y2="176" stroke="#00f"/>
<line x1="408" y1="176" x2="512" y2="176" stroke="#00f"/>
<rect x="313" y="171" width="95" height="10" fill="#ff0"/>
<rect x="514" y="171" width="152" height="10" fill="#ff0"/>
<text x="20" y="200" class="sm">0.001122</text>
<rect x="100" y="190" width="121" height="12" fill="#00f"/>
<rect x="303" y="190" width="70" height="12" fill="#00f"/>
<rect x="513" y="190" width="275" height="12" fill="#00f"/>
<line x1="221" y1="196" x2="302" y2="196" stroke="#00f"/>
<line x1="373" y1="196" x2="512" y2="196" stroke="#00f"/>
<rect x="108" y="191" width="113" height="10" fill="#ff0"/>
<rect x="304" y="191" width="69" height="10" fill="#ff0"/>
<rect x="514" y="191" width="58" height="10" fill="#ff0"/>
<text x="20" y="220" class="sm">0.0003728</text>
<rect x="100" y="210" width="140" height="12" fill="#00f"/>
<rect x="303" y="210" width="105" height="12" fill="#00f"/>
<rect x="513" y="210" width="275" height="12" fill="#00f"/>
<line x1="240" y1="216" x2="302" y2="216" stroke="#00f"/>
<line x1="408" y1="216" x2="512" y2="216" stroke="#00f"/>
<rect x="108" y="211" width="132" height="10" fill="#ff0"/>
<rect x="304" y="211" width="104" height="10" fill="#ff0"/>
<rect x="514" y="211" width="58" height="10" fill="#ff0"/>
<text x="20" y="240" class="sm">0.0003316</text>
<rect x="100" y="230" width="121" height="12" fill="#00f"/>
<rect x="318" y="230" width="90" height="12" fill="#00f"/>
<rect x="513" y="230" width="275" height="12" fill="#00f"/>
<line x1="221" y1="236" x2="317" y2="236" stroke="#00f"/>
<line x1="408" y1="236" x2="512" y2="236" stroke="#00f"/>
<rect x="108" y="231" width="113" height="10" fill="#ff0"/>
<rect x="319" y="231" width="89" height="10" fill="#ff0"/>
<rect x="514" y="231" width="152" height="10" fill="#ff0"/>
<text x="20" y="260" class="sm">0.0002866</text>
<rect x="100" y="250" width="121" height="12" fill="#00f"/>
<rect x="303" y="250" width="122" height="12" fill="#00f"/>
<rect x="513" y="250" width="275" height="12" fill="#00f"/>
<line x1="221" y1="256" x2="302" y2="256" stroke="#00f"/>
<line x1="425" y1="256" x2="512" y2="256" stroke="#00f"/>
<rect x="108" y="251" width="113" height="10" fill="#ff0"/>
<rect x="304" y="251" width="121" height="10" fill="#ff0"/>
<rect x="514" y="251" width="0" height="10" fill="#ff0"/>
<text x="20" y="280" class="sm">0.0001857</text>
<rect x="100" y="270" width="121" height="12" fill="#00f"/>
<rect x="303" y="270" width="116" height="12" fill="#00f"/>
<rect x="513" y="270" width="275" height="12" fill="#00f"/>
<line x1="221" y1="276" x2="302" y2="276" stroke="#00f"/>
<line x1="419" y1="276" x2="512" y2="276" stroke="#00f"/>
<rect x="108" y="271" width="113" height="10" fill="#ff0"/>
<rect x="304" y="271" width="115" height="10" fill="#ff0"/>
<rect x="514" y="271" width="84" height="10" fill="#ff0"/>
<text x="20" y="300" class="sm">0.0001247</text>
<rect x="100" y="290" width="121" height="12" fill="#00f"/>
<rect x="290" y="290" width="118" height="12" fill="#00f"/>
<rect x="513" y="290" width="275" height="12" fill="#00f"/>
<line x1="221" y1="296" x2="289" y2="296" stroke="#00f"/>
<line x1="408" y1="296" x2="512" y2="296" stroke="#00f"/>
<rect x="199" y="291" width="22" height="10" fill="#ff0"/>
<rect x="291" y="291" width="117" height="10" fill="#ff0"/>
<rect x="514" y="291" width="152" height="10" fill="#ff0"/>
<text x="20" y="320" class="sm">6.81e-05</text>
<rect x="100" y="310" width="273" height="12" fill="#00f"/>
<rect x="513" y="310" width="275" height="12" fill="#00f"/>
<line x1="373" y1="316" x2="512" y2="316" stroke="#00f"/>
<rect x="108" y="311" width="164" height="10" fill="#ff0"/>
<text x="20" y="340" class="sm">2.513e-05</text>
<rect x="100" y="330" width="155" height="12" fill="#00f"/>
<rect x="303" y="330" width="105" height="12" fill="#00f"/>
<rect x="513" y="330" width="275" height="12" fill="#00f"/>
<line x1="255" y1="336" x2="302" y2="336" stroke="#00f"/>
<line x1="408" y1="336" x2="512" y2="336" stroke="#00f"/>
<rect x="108" y="331" width="147" height="10" fill="#ff0"/>
<rect x="304" y="331" width="104" height="10" fill="#ff0"/>
<rect x="514" y="331" width="58" height="10" fill="#ff0"/>
<text x="20" y="360" class="sm">2.267e-05</text>
<rect x="100" y="350" width="65" height="12" fill="#00f"/>
<rect x="303" y="350" width="105" height="12" fill="#00f"/>
<rect x="513" y="350" width="275" height="12" fill="#00f"/>
<line x1="165" y1="356" x2="302" y2="356" stroke="#00f"/>
<line x1="408" y1="356" x2="512" y2="356" stroke="#00f"/>
<rect x="313" y="351" width="95" height="10" fill="#ff0"/>
<rect x="514" y="351" width="152" height="10" fill="#ff0"/>
<text x="20" y="380" class="sm">1.932e-05</text>
<rect x="100" y="370" width="96" height="12" fill="#00f"/>
<rect x="303" y="370" width="70" height="12" fill="#00f"/>
<rect x="513" y="370" width="275" height="12" fill="#00f"/>
<line x1="196" y1="376" x2="302" y2="376" stroke="#00f"/>
<line x1="373" y1="376" x2="512" y2="376" stroke="#00f"/>
<rect x="313" y="371" width="60" height="10" fill="#ff0"/>
<rect x="514" y="371" width="58" height="10" fill="#ff0"/>
<text x="20" y="400" class="sm">1.912e-05</text>
<rect x="100" y="390" width="325" height="12" fill="#00f"/>
<rect x="513" y="390" width="275" height="12" fill="#00f"/>
<line x1="425" y1="396" x2="512" y2="396" stroke="#00f"/>
<rect x="402" y="391" width="23" height="10" fill="#ff0"/>
<rect x="514" y="391" width="152" height="10" fill="#ff0"/>
<text x="20" y="420" class="sm">1.231e-05</text>
<rect x="100" y="410" width="319" height="12" fill="#00f"/>
<rect x="513" y="410" width="275" height="12" fill="#00f"/>
<line x1="419" y1="416" x2="512" y2="416" stroke="#00f"/>
<rect x="313" y="411" width="106" height="10" fill="#ff0"/>
<rect x="514" y="411" width="84" height="10" fill="#ff0"/>
<text x="20" y="440" class="sm">9.534e-06</text>
<rect x="100" y="430" width="121" height="12" fill="#00f"/>
<rect x="303" y="430" width="105" height="12" fill="#00f"/>
<rect x="513" y="430" width="159" height="12" fill="#00f"/>
<rect x="715" y="430" width="73" height="12" fill="#00f"/>
<line x1="221" y1="436" x2="302" y2="436" stroke="#00f"/>
<line x1="408" y1="436" x2="512" y2="436" stroke="#00f"/>
<line x1="672" y1="436" x2="714" y2="436" stroke="#00f"/>
<rect x="108" y="431" width="113" height="10" fill="#ff0"/>
<rect x="304" y="431" width="104" height="10" fill="#ff0"/>
<rect x="514" y="431" width="152" height="10" fill="#ff0"/>
<text x="20" y="460" class="sm">5.551e-06</text>
<rect x="100" y="450" width="44" height="12" fill="#00f"/>
<rect x="303" y="450" width="105" height="12" fill="#00f"/>
<rect x="513" y="450" width="275" height="12" fill="#00f"/>
<line x1="144" y1="456" x2="302" y2="456" stroke="#00f"/>
<line x1="408" y1="456" x2="512" y2="456" stroke="#00f"/>
<rect x="313" y="451" width="95" height="10" fill="#ff0"/>
<rect x="514" y="451" width="152" height="10" fill="#ff0"/>
<text x="20" y="480" class="sm">5.26e-06</text>
<rect x="100" y="470" width="96" height="12" fill="#00f"/>
<rect x="318" y="470" width="90" height="12" fill="#00f"/>
<rect x="513" y="470" width="275" height="12" fill="#00f"/>
<line x1="196" y1="476" x2="317" y2="476" stroke="#00f"/>
<line x1="408" y1="476" x2="512" y2="476" stroke="#00f"/>
<rect x="334" y="471" width="74" height="10" fill="#ff0"/>
<rect x="514" y="471" width="152" height="10" fill="#ff0"/>
<text x="20" y="500" class="sm">4.935e-06</text>
<rect x="100" y="490" width="96" height="12" fill="#00f"/>
<rect x="303" y="490" width="122" height="12" fill="#00f"/>
<rect x="513" y="490" width="275" height="12" fill="#00f"/>
<line x1="196" y1="496" x2="302" y2="496" stroke="#00f"/>
<line x1="425" y1="496" x2="512" y2="496" stroke="#00f"/>
<rect x="402" y="491" width="23" height="10" fill="#ff0"/>
<rect x="514" y="491" width="152" height="10" fill="#ff0"/>
<text x="20" y="520" class="sm">3.198e-06</text>
<rect x="100" y="510" width="96" height="12" fill="#00f"/>
<rect x="303" y="510" width="116" height="12" fill="#00f"/>
<rect x="513" y="510" width="275" height="12" fill="#00f"/>
<line x1="196" y1="516" x2="302" y2="516" stroke="#00f"/>
<line x1="419" y1="516" x2="512" y2="516" stroke="#00f"/>
<rect x="313" y="511" width="106" height="10" fill="#ff0"/>
<rect x="514" y="511" width="84" height="10" fill="#ff0"/>
</svg>
