<svg viewBox="0 0 842 535" xmlns="http://www.w3.org/2000/svg">

<style>
  .sm { font: 12px sans-serif; }
  .lg { font: 15px sans-serif; }
</style>
<rect fill="#ddd" x="0" y="0" width="100%" height="100%"/>
<text x="20" y="20" class="lg">ch.1076 I:6249456-6250297 Gene:WBGene00005000</text>
<text x="20" y="50" class="sm">WormBase</text>
<rect x="102" y="40" width="323" height="12" fill="#00f"/>
<rect x="501" y="40" width="243" height="12" fill="#00f"/>
<line x1="425" y1="46" x2="500" y2="46" stroke="#00f"/>
<rect x="258" y="41" width="167" height="10" fill="#ff0"/>
<rect x="502" y="41" width="188" height="10" fill="#ff0"/>
<rect x="103" y="41" width="154" height="10" fill="brown"><title>.</title></rect>
<rect x="691" y="41" width="53" height="10" fill="brown"><title>.</title></rect>
<text x="20" y="70" class="sm">Fitness: 0.0015128357833203317</text>
<rect x="425" y="65" width="76" height="5" fill="#00f"><title>684439.0</title></rect>
<rect x="425" y="70" width="80" height="5" fill="#00f"><title>517.0</title></rect>
<rect x="425" y="75" width="65" height="5" fill="#00f"><title>129.0</title></rect>
<rect x="561" y="80" width="42" height="5" fill="#00f"><title>62.0</title></rect>
<rect x="561" y="85" width="52" height="5" fill="#00f"><title>4.0</title></rect>
<rect x="425" y="90" width="101" height="5" fill="#00f"><title>4.0</title></rect>
<rect x="551" y="95" width="87" height="5" fill="#f0f"><title>3.0</title></rect>
<text x="20" y="125" class="sm">0.999</text>
<rect x="100" y="115" width="325" height="12" fill="#00f"/>
<rect x="501" y="115" width="244" height="12" fill="#00f"/>
<line x1="425" y1="121" x2="500" y2="121" stroke="#00f"/>
<rect x="258" y="116" width="167" height="10" fill="#ff0"/>
<rect x="502" y="116" width="188" height="10" fill="#ff0"/>
<text x="20" y="145" class="sm">0.0004417</text>
<rect x="100" y="135" width="325" height="12" fill="#00f"/>
<rect x="490" y="135" width="255" height="12" fill="#00f"/>
<line x1="425" y1="141" x2="489" y2="141" stroke="#00f"/>
<rect x="258" y="136" width="167" height="10" fill="#ff0"/>
<rect x="491" y="136" width="74" height="10" fill="#ff0"/>
<text x="20" y="165" class="sm">0.0001103</text>
<rect x="100" y="155" width="121" height="12" fill="#00f"/>
<rect x="318" y="155" width="107" height="12" fill="#00f"/>
<rect x="501" y="155" width="244" height="12" fill="#00f"/>
<line x1="221" y1="161" x2="317" y2="161" stroke="#00f"/>
<line x1="425" y1="161" x2="500" y2="161" stroke="#00f"/>
<rect x="330" y="156" width="95" height="10" fill="#ff0"/>
<rect x="502" y="156" width="188" height="10" fill="#ff0"/>
<text x="20" y="185" class="sm">0.0001086</text>
<rect x="100" y="175" width="121" height="12" fill="#00f"/>
<rect x="383" y="175" width="42" height="12" fill="#00f"/>
<rect x="501" y="175" width="244" height="12" fill="#00f"/>
<line x1="221" y1="181" x2="382" y2="181" stroke="#00f"/>
<line x1="425" y1="181" x2="500" y2="181" stroke="#00f"/>
<rect x="541" y="176" width="149" height="10" fill="#ff0"/>
<text x="20" y="205" class="sm">0.0001003</text>
<rect x="100" y="195" width="325" height="12" fill="#00f"/>
<rect x="501" y="195" width="60" height="12" fill="#00f"/>
<rect x="603" y="195" width="142" height="12" fill="#00f"/>
<line x1="425" y1="201" x2="500" y2="201" stroke="#00f"/>
<line x1="561" y1="201" x2="602" y2="201" stroke="#00f"/>
<rect x="258" y="196" width="167" height="10" fill="#ff0"/>
<rect x="502" y="196" width="59" height="10" fill="#ff0"/>
<rect x="604" y="196" width="86" height="10" fill="#ff0"/>
<text x="20" y="225" class="sm">6.91e-05</text>
<rect x="100" y="215" width="311" height="12" fill="#00f"/>
<rect x="501" y="215" width="244" height="12" fill="#00f"/>
<line x1="411" y1="221" x2="500" y2="221" stroke="#00f"/>
<rect x="258" y="216" width="153" height="10" fill="#ff0"/>
<rect x="502" y="216" width="7" height="10" fill="#ff0"/>
<text x="20" y="245" class="sm">5.791e-05</text>
<rect x="100" y="235" width="121" height="12" fill="#00f"/>
<rect x="395" y="235" width="30" height="12" fill="#00f"/>
<rect x="501" y="235" width="244" height="12" fill="#00f"/>
<line x1="221" y1="241" x2="394" y2="241" stroke="#00f"/>
<line x1="425" y1="241" x2="500" y2="241" stroke="#00f"/>
<rect x="541" y="236" width="149" height="10" fill="#ff0"/>
<text x="20" y="265" class="sm">5.074e-05</text>
<rect x="100" y="255" width="277" height="12" fill="#00f"/>
<rect x="501" y="255" width="244" height="12" fill="#00f"/>
<line x1="377" y1="261" x2="500" y2="261" stroke="#00f"/>
<rect x="258" y="256" width="119" height="10" fill="#ff0"/>
<rect x="502" y="256" width="188" height="10" fill="#ff0"/>
<text x="20" y="285" class="sm">1.556e-05</text>
<rect x="100" y="275" width="121" height="12" fill="#00f"/>
<rect x="501" y="275" width="244" height="12" fill="#00f"/>
<line x1="221" y1="281" x2="500" y2="281" stroke="#00f"/>
<rect x="541" y="276" width="149" height="10" fill="#ff0"/>
<text x="20" y="305" class="sm">1.447e-05</text>
<rect x="100" y="295" width="121" height="12" fill="#00f"/>
<rect x="386" y="295" width="39" height="12" fill="#00f"/>
<rect x="501" y="295" width="244" height="12" fill="#00f"/>
<line x1="221" y1="301" x2="385" y2="301" stroke="#00f"/>
<line x1="425" y1="301" x2="500" y2="301" stroke="#00f"/>
<rect x="541" y="296" width="149" height="10" fill="#ff0"/>
<text x="20" y="325" class="sm">1.424e-05</text>
<rect x="100" y="315" width="325" height="12" fill="#00f"/>
<rect x="501" y="315" width="50" height="12" fill="#00f"/>
<rect x="603" y="315" width="142" height="12" fill="#00f"/>
<line x1="425" y1="321" x2="500" y2="321" stroke="#00f"/>
<line x1="551" y1="321" x2="602" y2="321" stroke="#00f"/>
<rect x="258" y="316" width="167" height="10" fill="#ff0"/>
<rect x="502" y="316" width="49" height="10" fill="#ff0"/>
<rect x="604" y="316" width="93" height="10" fill="#ff0"/>
<text x="20" y="345" class="sm">1.125e-05</text>
<rect x="100" y="335" width="325" height="12" fill="#00f"/>
<rect x="603" y="335" width="142" height="12" fill="#00f"/>
<line x1="425" y1="341" x2="602" y2="341" stroke="#00f"/>
<rect x="258" y="336" width="167" height="10" fill="#ff0"/>
<rect x="604" y="336" width="86" height="10" fill="#ff0"/>
<text x="20" y="365" class="sm">8.767e-06</text>
<rect x="100" y="355" width="325" height="12" fill="#00f"/>
<rect x="505" y="355" width="240" height="12" fill="#00f"/>
<line x1="425" y1="361" x2="504" y2="361" stroke="#00f"/>
<rect x="258" y="356" width="167" height="10" fill="#ff0"/>
<rect x="506" y="356" width="59" height="10" fill="#ff0"/>
<text x="20" y="385" class="sm">6.628e-06</text>
<rect x="100" y="375" width="325" height="12" fill="#00f"/>
<rect x="501" y="375" width="52" height="12" fill="#00f"/>
<rect x="603" y="375" width="142" height="12" fill="#00f"/>
<line x1="425" y1="381" x2="500" y2="381" stroke="#00f"/>
<line x1="553" y1="381" x2="602" y2="381" stroke="#00f"/>
<rect x="258" y="376" width="167" height="10" fill="#ff0"/>
<rect x="502" y="376" width="51" height="10" fill="#ff0"/>
<rect x="604" y="376" width="1" height="10" fill="#ff0"/>
<text x="20" y="405" class="sm">5.089e-06</text>
<rect x="100" y="395" width="325" height="12" fill="#00f"/>
<rect x="523" y="395" width="222" height="12" fill="#00f"/>
<line x1="425" y1="401" x2="522" y2="401" stroke="#00f"/>
<rect x="258" y="396" width="167" height="10" fill="#ff0"/>
<rect x="524" y="396" width="41" height="10" fill="#ff0"/>
<text x="20" y="425" class="sm">2.942e-06</text>
<rect x="100" y="415" width="121" height="12" fill="#00f"/>
<rect x="326" y="415" width="99" height="12" fill="#00f"/>
<rect x="501" y="415" width="244" height="12" fill="#00f"/>
<line x1="221" y1="421" x2="325" y2="421" stroke="#00f"/>
<line x1="425" y1="421" x2="500" y2="421" stroke="#00f"/>
<rect x="330" y="416" width="95" height="10" fill="#ff0"/>
<rect x="502" y="416" width="188" height="10" fill="#ff0"/>
<text x="20" y="445" class="sm">1.801e-06</text>
<rect x="100" y="435" width="325" height="12" fill="#00f"/>
<rect x="570" y="435" width="175" height="12" fill="#00f"/>
<line x1="425" y1="441" x2="569" y2="441" stroke="#00f"/>
<rect x="258" y="436" width="167" height="10" fill="#ff0"/>
<rect x="571" y="436" width="119" height="10" fill="#ff0"/>
<text x="20" y="465" class="sm">1.48e-06</text>
<rect x="100" y="455" width="325" height="12" fill="#00f"/>
<rect x="501" y="455" width="60" height="12" fill="#00f"/>
<rect x="684" y="455" width="61" height="12" fill="#00f"/>
<line x1="425" y1="461" x2="500" y2="461" stroke="#00f"/>
<line x1="561" y1="461" x2="683" y2="461" stroke="#00f"/>
<rect x="258" y="456" width="167" height="10" fill="#ff0"/>
<rect x="502" y="456" width="59" height="10" fill="#ff0"/>
<rect x="685" y="456" width="5" height="10" fill="#ff0"/>
<text x="20" y="485" class="sm">1.188e-06</text>
<rect x="100" y="475" width="111" height="12" fill="#00f"/>
<rect x="318" y="475" width="107" height="12" fill="#00f"/>
<rect x="501" y="475" width="244" height="12" fill="#00f"/>
<line x1="211" y1="481" x2="317" y2="481" stroke="#00f"/>
<line x1="425" y1="481" x2="500" y2="481" stroke="#00f"/>
<rect x="330" y="476" width="95" height="10" fill="#ff0"/>
<rect x="502" y="476" width="188" height="10" fill="#ff0"/>
<text x="20" y="505" class="sm">1.106e-06</text>
<rect x="100" y="495" width="268" height="12" fill="#00f"/>
<rect x="501" y="495" width="244" height="12" fill="#00f"/>
<line x1="368" y1="501" x2="500" y2="501" stroke="#00f"/>
<rect x="258" y="496" width="110" height="10" fill="#ff0"/>
<rect x="502" y="496" width="188" height="10" fill="#ff0"/>
</svg>
