<svg viewBox="0 0 889 545" xmlns="http://www.w3.org/2000/svg">

<style>
  .sm { font: 12px sans-serif; }
  .lg { font: 15px sans-serif; }
</style>
<rect fill="#ddd" x="0" y="0" width="100%" height="100%"/>
<text x="20" y="20" class="lg">ch.18780 X:7981282-7982170 Gene:WBGene00001945</text>
<text x="20" y="50" class="sm">WormBase</text>
<rect x="102" y="40" width="88" height="12" fill="#00f"/>
<rect x="236" y="40" width="154" height="12" fill="#00f"/>
<rect x="442" y="40" width="349" height="12" fill="#00f"/>
<line x1="190" y1="46" x2="235" y2="46" stroke="#00f"/>
<line x1="390" y1="46" x2="441" y2="46" stroke="#00f"/>
<rect x="119" y="41" width="71" height="10" fill="#ff0"/>
<rect x="237" y="41" width="153" height="10" fill="#ff0"/>
<rect x="443" y="41" width="184" height="10" fill="#ff0"/>
<rect x="103" y="41" width="15" height="10" fill="brown"><title>.</title></rect>
<rect x="628" y="41" width="163" height="10" fill="brown"><title>.</title></rect>
<text x="20" y="70" class="sm">Fitness: 0.19338217208229205</text>
<rect x="390" y="65" width="52" height="5" fill="#00f"><title>1089230.0</title></rect>
<rect x="190" y="70" width="46" height="5" fill="#00f"><title>826010.0</title></rect>
<rect x="390" y="75" width="58" height="5" fill="#00f"><title>755.0</title></rect>
<rect x="390" y="80" width="66" height="5" fill="#00f"><title>284.0</title></rect>
<rect x="377" y="85" width="65" height="5" fill="#00f"><title>22.0</title></rect>
<rect x="190" y="90" width="107" height="5" fill="#00f"><title>19.0</title></rect>
<rect x="402" y="95" width="40" height="5" fill="#00f"><title>11.0</title></rect>
<rect x="190" y="100" width="34" height="5" fill="#00f"><title>5.0</title></rect>
<rect x="402" y="105" width="46" height="5" fill="#00f"><title>3.0</title></rect>
<text x="20" y="135" class="sm">0.4718</text>
<rect x="100" y="125" width="290" height="12" fill="#00f"/>
<rect x="442" y="125" width="350" height="12" fill="#00f"/>
<line x1="390" y1="131" x2="441" y2="131" stroke="#00f"/>
<rect x="119" y="126" width="197" height="10" fill="#ff0"/>
<text x="20" y="155" class="sm">0.433</text>
<rect x="100" y="145" width="90" height="12" fill="#00f"/>
<rect x="236" y="145" width="556" height="12" fill="#00f"/>
<line x1="190" y1="151" x2="235" y2="151" stroke="#00f"/>
<rect x="119" y="146" width="71" height="10" fill="#ff0"/>
<rect x="237" y="146" width="182" height="10" fill="#ff0"/>
<text x="20" y="175" class="sm">0.05056</text>
<rect x="100" y="165" width="302" height="12" fill="#00f"/>
<rect x="442" y="165" width="350" height="12" fill="#00f"/>
<line x1="402" y1="171" x2="441" y2="171" stroke="#00f"/>
<rect x="119" y="166" width="197" height="10" fill="#ff0"/>
<text x="20" y="195" class="sm">0.02245</text>
<rect x="100" y="185" width="302" height="12" fill="#00f"/>
<rect x="456" y="185" width="336" height="12" fill="#00f"/>
<line x1="402" y1="191" x2="455" y2="191" stroke="#00f"/>
<rect x="119" y="186" width="197" height="10" fill="#ff0"/>
<text x="20" y="215" class="sm">0.01253</text>
<rect x="100" y="205" width="302" height="12" fill="#00f"/>
<rect x="448" y="205" width="344" height="12" fill="#00f"/>
<line x1="402" y1="211" x2="447" y2="211" stroke="#00f"/>
<rect x="119" y="206" width="197" height="10" fill="#ff0"/>
<text x="20" y="235" class="sm">0.003126</text>
<rect x="100" y="225" width="580" height="12" fill="#00f"/>
<rect x="726" y="225" width="66" height="12" fill="#00f"/>
<line x1="680" y1="231" x2="725" y2="231" stroke="#00f"/>
<rect x="119" y="226" width="197" height="10" fill="#ff0"/>
<text x="20" y="255" class="sm">0.002581</text>
<rect x="100" y="245" width="281" height="12" fill="#00f"/>
<rect x="442" y="245" width="350" height="12" fill="#00f"/>
<line x1="381" y1="251" x2="441" y2="251" stroke="#00f"/>
<rect x="119" y="246" width="197" height="10" fill="#ff0"/>
<text x="20" y="275" class="sm">0.0009074</text>
<rect x="100" y="265" width="290" height="12" fill="#00f"/>
<rect x="448" y="265" width="344" height="12" fill="#00f"/>
<line x1="390" y1="271" x2="447" y2="271" stroke="#00f"/>
<rect x="119" y="266" width="197" height="10" fill="#ff0"/>
<text x="20" y="295" class="sm">0.0006335</text>
<rect x="100" y="285" width="290" height="12" fill="#00f"/>
<rect x="456" y="285" width="336" height="12" fill="#00f"/>
<line x1="390" y1="291" x2="455" y2="291" stroke="#00f"/>
<rect x="119" y="286" width="197" height="10" fill="#ff0"/>
<text x="20" y="315" class="sm">0.0005238</text>
<rect x="100" y="305" width="43" height="12" fill="#00f"/>
<rect x="190" y="305" width="602" height="12" fill="#00f"/>
<line x1="143" y1="311" x2="189" y2="311" stroke="#00f"/>
<rect x="577" y="306" width="50" height="10" fill="#ff0"/>
<text x="20" y="335" class="sm">0.000491</text>
<rect x="100" y="325" width="94" height="12" fill="#00f"/>
<rect x="236" y="325" width="556" height="12" fill="#00f"/>
<line x1="194" y1="331" x2="235" y2="331" stroke="#00f"/>
<rect x="119" y="326" width="75" height="10" fill="#ff0"/>
<rect x="237" y="326" width="79" height="10" fill="#ff0"/>
<text x="20" y="355" class="sm">0.0004495</text>
<rect x="100" y="345" width="43" height="12" fill="#00f"/>
<rect x="236" y="345" width="556" height="12" fill="#00f"/>
<line x1="143" y1="351" x2="235" y2="351" stroke="#00f"/>
<rect x="119" y="346" width="24" height="10" fill="#ff0"/>
<rect x="237" y="346" width="79" height="10" fill="#ff0"/>
<text x="20" y="375" class="sm">0.0002598</text>
<rect x="100" y="365" width="445" height="12" fill="#00f"/>
<rect x="594" y="365" width="198" height="12" fill="#00f"/>
<line x1="545" y1="371" x2="593" y2="371" stroke="#00f"/>
<rect x="119" y="366" width="197" height="10" fill="#ff0"/>
<text x="20" y="395" class="sm">0.0002152</text>
<rect x="100" y="385" width="277" height="12" fill="#00f"/>
<rect x="442" y="385" width="350" height="12" fill="#00f"/>
<line x1="377" y1="391" x2="441" y2="391" stroke="#00f"/>
<rect x="119" y="386" width="197" height="10" fill="#ff0"/>
<text x="20" y="415" class="sm">0.0002138</text>
<rect x="100" y="405" width="568" height="12" fill="#00f"/>
<rect x="726" y="405" width="66" height="12" fill="#00f"/>
<line x1="668" y1="411" x2="725" y2="411" stroke="#00f"/>
<rect x="119" y="406" width="197" height="10" fill="#ff0"/>
<text x="20" y="435" class="sm">7.923e-05</text>
<rect x="100" y="425" width="147" height="12" fill="#00f"/>
<rect x="297" y="425" width="495" height="12" fill="#00f"/>
<line x1="247" y1="431" x2="296" y2="431" stroke="#00f"/>
<rect x="119" y="426" width="128" height="10" fill="#ff0"/>
<rect x="298" y="426" width="125" height="10" fill="#ff0"/>
<text x="20" y="455" class="sm">5.383e-05</text>
<rect x="100" y="445" width="212" height="12" fill="#00f"/>
<rect x="359" y="445" width="433" height="12" fill="#00f"/>
<line x1="312" y1="451" x2="358" y2="451" stroke="#00f"/>
<rect x="119" y="446" width="193" height="10" fill="#ff0"/>
<rect x="360" y="446" width="63" height="10" fill="#ff0"/>
<text x="20" y="475" class="sm">5.227e-05</text>
<rect x="100" y="465" width="281" height="12" fill="#00f"/>
<rect x="456" y="465" width="336" height="12" fill="#00f"/>
<line x1="381" y1="471" x2="455" y2="471" stroke="#00f"/>
<rect x="119" y="466" width="197" height="10" fill="#ff0"/>
<text x="20" y="495" class="sm">4.853e-05</text>
<rect x="100" y="485" width="307" height="12" fill="#00f"/>
<rect x="456" y="485" width="336" height="12" fill="#00f"/>
<line x1="407" y1="491" x2="455" y2="491" stroke="#00f"/>
<rect x="119" y="486" width="197" height="10" fill="#ff0"/>
<text x="20" y="515" class="sm">2.992e-05</text>
<rect x="100" y="505" width="212" height="12" fill="#00f"/>
<rect x="442" y="505" width="350" height="12" fill="#00f"/>
<line x1="312" y1="511" x2="441" y2="511" stroke="#00f"/>
<rect x="119" y="506" width="193" height="10" fill="#ff0"/>
<rect x="443" y="506" width="66" height="10" fill="#ff0"/>
</svg>
