<svg viewBox="0 0 862 525" xmlns="http://www.w3.org/2000/svg">

<style>
  .sm { font: 12px sans-serif; }
  .lg { font: 15px sans-serif; }
</style>
<rect fill="#ddd" x="0" y="0" width="100%" height="100%"/>
<text x="20" y="20" class="lg">ch.15824 V:13879452-13880313 Gene:WBGene00002259</text>
<text x="20" y="50" class="sm">WormBase</text>
<rect x="100" y="40" width="217" height="12" fill="#00f"/>
<rect x="462" y="40" width="300" height="12" fill="#00f"/>
<line x1="317" y1="46" x2="461" y2="46" stroke="#00f"/>
<rect x="105" y="41" width="212" height="10" fill="#ff0"/>
<rect x="463" y="41" width="200" height="10" fill="#ff0"/>
<rect x="101" y="41" width="3" height="10" fill="brown"><title>.</title></rect>
<rect x="664" y="41" width="98" height="10" fill="brown"><title>.</title></rect>
<text x="20" y="70" class="sm">Fitness: 0.5670199089388083</text>
<rect x="317" y="65" width="145" height="5" fill="#00f"><title>469760.0</title></rect>
<rect x="317" y="70" width="157" height="5" fill="#00f"><title>8.0</title></rect>
<rect x="307" y="75" width="155" height="5" fill="#00f"><title>7.0</title></rect>
<rect x="528" y="80" width="76" height="5" fill="#f0f"><title>5.0</title></rect>
<rect x="317" y="85" width="226" height="5" fill="#00f"><title>3.0</title></rect>
<text x="20" y="115" class="sm">0.7165</text>
<rect x="100" y="105" width="217" height="12" fill="#00f"/>
<rect x="462" y="105" width="303" height="12" fill="#00f"/>
<line x1="317" y1="111" x2="461" y2="111" stroke="#00f"/>
<rect x="105" y="106" width="212" height="10" fill="#ff0"/>
<rect x="463" y="106" width="200" height="10" fill="#ff0"/>
<text x="20" y="135" class="sm">0.2579</text>
<rect x="100" y="125" width="207" height="12" fill="#00f"/>
<rect x="462" y="125" width="303" height="12" fill="#00f"/>
<line x1="307" y1="131" x2="461" y2="131" stroke="#00f"/>
<rect x="105" y="126" width="202" height="10" fill="#ff0"/>
<rect x="463" y="126" width="69" height="10" fill="#ff0"/>
<text x="20" y="155" class="sm">0.02431</text>
<rect x="100" y="145" width="39" height="12" fill="#00f"/>
<rect x="462" y="145" width="303" height="12" fill="#00f"/>
<line x1="139" y1="151" x2="461" y2="151" stroke="#00f"/>
<rect x="134" y="146" width="5" height="10" fill="#ff0"/>
<rect x="463" y="146" width="200" height="10" fill="#ff0"/>
<text x="20" y="175" class="sm">0.000563</text>
<rect x="100" y="165" width="217" height="12" fill="#00f"/>
<rect x="684" y="165" width="81" height="12" fill="#00f"/>
<line x1="317" y1="171" x2="683" y2="171" stroke="#00f"/>
<rect x="105" y="166" width="212" height="10" fill="#ff0"/>
<rect x="685" y="166" width="5" height="10" fill="#ff0"/>
<text x="20" y="195" class="sm">0.0004014</text>
<rect x="100" y="185" width="85" height="12" fill="#00f"/>
<rect x="462" y="185" width="303" height="12" fill="#00f"/>
<line x1="185" y1="191" x2="461" y2="191" stroke="#00f"/>
<rect x="105" y="186" width="80" height="10" fill="#ff0"/>
<rect x="463" y="186" width="200" height="10" fill="#ff0"/>
<text x="20" y="215" class="sm">0.0003088</text>
<rect x="100" y="205" width="207" height="12" fill="#00f"/>
<rect x="684" y="205" width="81" height="12" fill="#00f"/>
<line x1="307" y1="211" x2="683" y2="211" stroke="#00f"/>
<rect x="105" y="206" width="202" height="10" fill="#ff0"/>
<rect x="685" y="206" width="63" height="10" fill="#ff0"/>
<text x="20" y="235" class="sm">2.15e-05</text>
<rect x="100" y="225" width="39" height="12" fill="#00f"/>
<rect x="684" y="225" width="81" height="12" fill="#00f"/>
<line x1="139" y1="231" x2="683" y2="231" stroke="#00f"/>
<rect x="105" y="226" width="34" height="10" fill="#ff0"/>
<rect x="685" y="226" width="63" height="10" fill="#ff0"/>
<text x="20" y="255" class="sm">9.071e-06</text>
<rect x="100" y="245" width="217" height="12" fill="#00f"/>
<rect x="732" y="245" width="33" height="12" fill="#00f"/>
<line x1="317" y1="251" x2="731" y2="251" stroke="#00f"/>
<rect x="247" y="246" width="65" height="10" fill="#ff0"/>
<text x="20" y="275" class="sm">7.46e-06</text>
<rect x="100" y="265" width="252" height="12" fill="#00f"/>
<rect x="462" y="265" width="303" height="12" fill="#00f"/>
<line x1="352" y1="271" x2="461" y2="271" stroke="#00f"/>
<rect x="105" y="266" width="247" height="10" fill="#ff0"/>
<rect x="463" y="266" width="69" height="10" fill="#ff0"/>
<text x="20" y="295" class="sm">5.031e-06</text>
<rect x="100" y="285" width="207" height="12" fill="#00f"/>
<rect x="732" y="285" width="33" height="12" fill="#00f"/>
<line x1="307" y1="291" x2="731" y2="291" stroke="#00f"/>
<rect x="105" y="286" width="202" height="10" fill="#ff0"/>
<rect x="733" y="286" width="15" height="10" fill="#ff0"/>
<text x="20" y="315" class="sm">2.457e-06</text>
<rect x="100" y="305" width="221" height="12" fill="#00f"/>
<rect x="462" y="305" width="303" height="12" fill="#00f"/>
<line x1="321" y1="311" x2="461" y2="311" stroke="#00f"/>
<rect x="105" y="306" width="216" height="10" fill="#ff0"/>
<rect x="463" y="306" width="10" height="10" fill="#ff0"/>
<text x="20" y="335" class="sm">1.942e-06</text>
<rect x="100" y="325" width="247" height="12" fill="#00f"/>
<rect x="462" y="325" width="303" height="12" fill="#00f"/>
<line x1="347" y1="331" x2="461" y2="331" stroke="#00f"/>
<rect x="105" y="326" width="242" height="10" fill="#ff0"/>
<rect x="463" y="326" width="200" height="10" fill="#ff0"/>
<text x="20" y="355" class="sm">1.08e-06</text>
<rect x="100" y="345" width="217" height="12" fill="#00f"/>
<rect x="574" y="345" width="191" height="12" fill="#00f"/>
<line x1="317" y1="351" x2="573" y2="351" stroke="#00f"/>
<rect x="105" y="346" width="212" height="10" fill="#ff0"/>
<rect x="575" y="346" width="5" height="10" fill="#ff0"/>
<text x="20" y="375" class="sm">5.962e-07</text>
<rect x="100" y="365" width="198" height="12" fill="#00f"/>
<rect x="462" y="365" width="303" height="12" fill="#00f"/>
<line x1="298" y1="371" x2="461" y2="371" stroke="#00f"/>
<rect x="105" y="366" width="193" height="10" fill="#ff0"/>
<rect x="463" y="366" width="69" height="10" fill="#ff0"/>
<text x="20" y="395" class="sm">5.62e-07</text>
<rect x="100" y="385" width="207" height="12" fill="#00f"/>
<rect x="574" y="385" width="191" height="12" fill="#00f"/>
<line x1="307" y1="391" x2="573" y2="391" stroke="#00f"/>
<rect x="105" y="386" width="202" height="10" fill="#ff0"/>
<rect x="575" y="386" width="18" height="10" fill="#ff0"/>
<text x="20" y="415" class="sm">4.765e-07</text>
<rect x="100" y="405" width="85" height="12" fill="#00f"/>
<rect x="684" y="405" width="81" height="12" fill="#00f"/>
<line x1="185" y1="411" x2="683" y2="411" stroke="#00f"/>
<rect x="105" y="406" width="80" height="10" fill="#ff0"/>
<rect x="685" y="406" width="5" height="10" fill="#ff0"/>
<text x="20" y="435" class="sm">3.827e-07</text>
<rect x="100" y="425" width="217" height="12" fill="#00f"/>
<rect x="484" y="425" width="281" height="12" fill="#00f"/>
<line x1="317" y1="431" x2="483" y2="431" stroke="#00f"/>
<rect x="105" y="426" width="212" height="10" fill="#ff0"/>
<rect x="485" y="426" width="47" height="10" fill="#ff0"/>
<text x="20" y="455" class="sm">2.902e-07</text>
<rect x="100" y="445" width="284" height="12" fill="#00f"/>
<rect x="462" y="445" width="303" height="12" fill="#00f"/>
<line x1="384" y1="451" x2="461" y2="451" stroke="#00f"/>
<rect x="105" y="446" width="272" height="10" fill="#ff0"/>
<text x="20" y="475" class="sm">2.163e-07</text>
<rect x="100" y="465" width="39" height="12" fill="#00f"/>
<rect x="732" y="465" width="33" height="12" fill="#00f"/>
<line x1="139" y1="471" x2="731" y2="471" stroke="#00f"/>
<rect x="105" y="466" width="34" height="10" fill="#ff0"/>
<rect x="733" y="466" width="15" height="10" fill="#ff0"/>
<text x="20" y="495" class="sm">1.258e-07</text>
<rect x="100" y="485" width="207" height="12" fill="#00f"/>
<rect x="484" y="485" width="281" height="12" fill="#00f"/>
<line x1="307" y1="491" x2="483" y2="491" stroke="#00f"/>
<rect x="247" y="486" width="60" height="10" fill="#ff0"/>
<rect x="485" y="486" width="178" height="10" fill="#ff0"/>
</svg>
