<svg viewBox="0 0 745 545" xmlns="http://www.w3.org/2000/svg">

<style>
  .sm { font: 12px sans-serif; }
  .lg { font: 15px sans-serif; }
</style>
<rect fill="#ddd" x="0" y="0" width="100%" height="100%"/>
<text x="20" y="20" class="lg">ch.10372 IV:7043958-7044702 Gene:WBGene00006572</text>
<text x="20" y="50" class="sm">WormBase</text>
<rect x="102" y="40" width="162" height="12" fill="#00f"/>
<rect x="467" y="40" width="180" height="12" fill="#00f"/>
<line x1="264" y1="46" x2="466" y2="46" stroke="#00f"/>
<rect x="103" y="41" width="161" height="10" fill="#ff0"/>
<rect x="468" y="41" width="74" height="10" fill="#ff0"/>
<rect x="543" y="41" width="104" height="10" fill="brown"><title>.</title></rect>
<text x="20" y="70" class="sm">Fitness: 0.10246989243812038</text>
<rect x="264" y="65" width="203" height="5" fill="#00f"><title>864138.0</title></rect>
<rect x="264" y="70" width="233" height="5" fill="#00f"><title>1130.0</title></rect>
<rect x="210" y="75" width="257" height="5" fill="#00f"><title>33.0</title></rect>
<rect x="264" y="80" width="171" height="5" fill="#00f"><title>12.0</title></rect>
<rect x="3" y="85" width="99" height="5" fill="#00f"><title>7.0</title></rect>
<rect x="271" y="90" width="203" height="5" fill="#f0f"><title>6.0</title></rect>
<rect x="134" y="95" width="72" height="5" fill="#f0f"><title>6.0</title></rect>
<rect x="172" y="100" width="40" height="5" fill="#f0f"><title>5.0</title></rect>
<rect x="506" y="105" width="49" height="5" fill="#f0f"><title>3.0</title></rect>
<text x="20" y="135" class="sm">0.9474</text>
<rect x="100" y="125" width="164" height="12" fill="#00f"/>
<rect x="467" y="125" width="181" height="12" fill="#00f"/>
<line x1="264" y1="131" x2="466" y2="131" stroke="#00f"/>
<rect x="103" y="126" width="161" height="10" fill="#ff0"/>
<rect x="468" y="126" width="74" height="10" fill="#ff0"/>
<text x="20" y="155" class="sm">0.02819</text>
<rect x="100" y="145" width="164" height="12" fill="#00f"/>
<rect x="497" y="145" width="151" height="12" fill="#00f"/>
<line x1="264" y1="151" x2="496" y2="151" stroke="#00f"/>
<rect x="103" y="146" width="161" height="10" fill="#ff0"/>
<rect x="498" y="146" width="44" height="10" fill="#ff0"/>
<text x="20" y="175" class="sm">0.01394</text>
<rect x="100" y="165" width="130" height="12" fill="#00f"/>
<rect x="467" y="165" width="181" height="12" fill="#00f"/>
<line x1="230" y1="171" x2="466" y2="171" stroke="#00f"/>
<rect x="103" y="166" width="127" height="10" fill="#ff0"/>
<rect x="468" y="166" width="3" height="10" fill="#ff0"/>
<text x="20" y="195" class="sm">0.009505</text>
<rect x="100" y="185" width="164" height="12" fill="#00f"/>
<rect x="424" y="185" width="224" height="12" fill="#00f"/>
<line x1="264" y1="191" x2="423" y2="191" stroke="#00f"/>
<rect x="103" y="186" width="161" height="10" fill="#ff0"/>
<rect x="425" y="186" width="17" height="10" fill="#ff0"/>
<text x="20" y="215" class="sm">0.0003687</text>
<rect x="100" y="205" width="130" height="12" fill="#00f"/>
<rect x="497" y="205" width="151" height="12" fill="#00f"/>
<line x1="230" y1="211" x2="496" y2="211" stroke="#00f"/>
<rect x="103" y="206" width="127" height="10" fill="#ff0"/>
<rect x="498" y="206" width="75" height="10" fill="#ff0"/>
<text x="20" y="235" class="sm">0.0002795</text>
<rect x="100" y="225" width="164" height="12" fill="#00f"/>
<rect x="435" y="225" width="213" height="12" fill="#00f"/>
<line x1="264" y1="231" x2="434" y2="231" stroke="#00f"/>
<rect x="103" y="226" width="161" height="10" fill="#ff0"/>
<rect x="436" y="226" width="35" height="10" fill="#ff0"/>
<text x="20" y="255" class="sm">0.0002134</text>
<rect x="100" y="245" width="130" height="12" fill="#00f"/>
<rect x="424" y="245" width="224" height="12" fill="#00f"/>
<line x1="230" y1="251" x2="423" y2="251" stroke="#00f"/>
<rect x="103" y="246" width="127" height="10" fill="#ff0"/>
<rect x="425" y="246" width="117" height="10" fill="#ff0"/>
<text x="20" y="275" class="sm">2.037e-05</text>
<rect x="100" y="265" width="110" height="12" fill="#00f"/>
<rect x="467" y="265" width="181" height="12" fill="#00f"/>
<line x1="210" y1="271" x2="466" y2="271" stroke="#00f"/>
<rect x="103" y="266" width="107" height="10" fill="#ff0"/>
<rect x="468" y="266" width="74" height="10" fill="#ff0"/>
<text x="20" y="295" class="sm">1.662e-05</text>
<rect x="100" y="285" width="221" height="12" fill="#00f"/>
<rect x="467" y="285" width="181" height="12" fill="#00f"/>
<line x1="321" y1="291" x2="466" y2="291" stroke="#00f"/>
<rect x="103" y="286" width="182" height="10" fill="#ff0"/>
<text x="20" y="315" class="sm">1.651e-05</text>
<rect x="100" y="305" width="82" height="12" fill="#00f"/>
<rect x="467" y="305" width="181" height="12" fill="#00f"/>
<line x1="182" y1="311" x2="466" y2="311" stroke="#00f"/>
<rect x="103" y="306" width="79" height="10" fill="#ff0"/>
<rect x="468" y="306" width="3" height="10" fill="#ff0"/>
<text x="20" y="335" class="sm">1.572e-05</text>
<rect x="100" y="325" width="194" height="12" fill="#00f"/>
<rect x="467" y="325" width="181" height="12" fill="#00f"/>
<line x1="294" y1="331" x2="466" y2="331" stroke="#00f"/>
<rect x="103" y="326" width="182" height="10" fill="#ff0"/>
<text x="20" y="355" class="sm">3.111e-06</text>
<rect x="100" y="345" width="130" height="12" fill="#00f"/>
<rect x="435" y="345" width="213" height="12" fill="#00f"/>
<line x1="230" y1="351" x2="434" y2="351" stroke="#00f"/>
<rect x="103" y="346" width="127" height="10" fill="#ff0"/>
<rect x="436" y="346" width="6" height="10" fill="#ff0"/>
<text x="20" y="375" class="sm">8.724e-07</text>
<rect x="100" y="365" width="82" height="12" fill="#00f"/>
<rect x="497" y="365" width="151" height="12" fill="#00f"/>
<line x1="182" y1="371" x2="496" y2="371" stroke="#00f"/>
<rect x="103" y="366" width="79" height="10" fill="#ff0"/>
<rect x="498" y="366" width="75" height="10" fill="#ff0"/>
<text x="20" y="395" class="sm">8.698e-07</text>
<rect x="100" y="385" width="86" height="12" fill="#00f"/>
<rect x="467" y="385" width="181" height="12" fill="#00f"/>
<line x1="186" y1="391" x2="466" y2="391" stroke="#00f"/>
<rect x="103" y="386" width="83" height="10" fill="#ff0"/>
<rect x="468" y="386" width="74" height="10" fill="#ff0"/>
<text x="20" y="415" class="sm">6.636e-07</text>
<rect x="100" y="405" width="221" height="12" fill="#00f"/>
<rect x="497" y="405" width="151" height="12" fill="#00f"/>
<line x1="321" y1="411" x2="496" y2="411" stroke="#00f"/>
<rect x="103" y="406" width="182" height="10" fill="#ff0"/>
<text x="20" y="435" class="sm">5.133e-07</text>
<rect x="100" y="425" width="110" height="12" fill="#00f"/>
<rect x="497" y="425" width="151" height="12" fill="#00f"/>
<line x1="210" y1="431" x2="496" y2="431" stroke="#00f"/>
<rect x="103" y="426" width="107" height="10" fill="#ff0"/>
<rect x="498" y="426" width="44" height="10" fill="#ff0"/>
<text x="20" y="455" class="sm">3.836e-07</text>
<rect x="100" y="445" width="194" height="12" fill="#00f"/>
<rect x="497" y="445" width="151" height="12" fill="#00f"/>
<line x1="294" y1="451" x2="496" y2="451" stroke="#00f"/>
<rect x="103" y="446" width="182" height="10" fill="#ff0"/>
<text x="20" y="475" class="sm">2.746e-07</text>
<rect x="100" y="465" width="94" height="12" fill="#00f"/>
<rect x="467" y="465" width="181" height="12" fill="#00f"/>
<line x1="194" y1="471" x2="466" y2="471" stroke="#00f"/>
<rect x="103" y="466" width="91" height="10" fill="#ff0"/>
<rect x="468" y="466" width="3" height="10" fill="#ff0"/>
<text x="20" y="495" class="sm">2.511e-07</text>
<rect x="100" y="485" width="154" height="12" fill="#00f"/>
<rect x="467" y="485" width="181" height="12" fill="#00f"/>
<line x1="254" y1="491" x2="466" y2="491" stroke="#00f"/>
<rect x="103" y="486" width="151" height="10" fill="#ff0"/>
<rect x="468" y="486" width="3" height="10" fill="#ff0"/>
<text x="20" y="515" class="sm">2.491e-07</text>
<rect x="100" y="505" width="110" height="12" fill="#00f"/>
<rect x="424" y="505" width="224" height="12" fill="#00f"/>
<line x1="210" y1="511" x2="423" y2="511" stroke="#00f"/>
<rect x="103" y="506" width="107" height="10" fill="#ff0"/>
<rect x="425" y="506" width="17" height="10" fill="#ff0"/>
</svg>
