<svg viewBox="0 0 776 510" xmlns="http://www.w3.org/2000/svg">

<style>
  .sm { font: 12px sans-serif; }
  .lg { font: 15px sans-serif; }
</style>
<rect fill="#ddd" x="0" y="0" width="100%" height="100%"/>
<text x="20" y="20" class="lg">ch.12740 V:1442242-1443017 Gene:WBGene00044900</text>
<text x="20" y="50" class="sm">WormBase</text>
<rect x="100" y="40" width="344" height="12" fill="#00f"/>
<rect x="495" y="40" width="181" height="12" fill="#00f"/>
<line x1="444" y1="46" x2="494" y2="46" stroke="#00f"/>
<rect x="384" y="41" width="60" height="10" fill="#ff0"/>
<rect x="496" y="41" width="94" height="10" fill="#ff0"/>
<rect x="101" y="41" width="282" height="10" fill="brown"><title>.</title></rect>
<rect x="591" y="41" width="85" height="10" fill="brown"><title>.</title></rect>
<text x="20" y="70" class="sm">Fitness: 2.7404268035867804e-05</text>
<rect x="444" y="65" width="51" height="5" fill="#00f"><title>764419.0</title></rect>
<rect x="229" y="70" width="52" height="5" fill="#00f"><title>3.0</title></rect>
<text x="20" y="100" class="sm">1.0</text>
<rect x="100" y="90" width="344" height="12" fill="#00f"/>
<rect x="495" y="90" width="184" height="12" fill="#00f"/>
<line x1="444" y1="96" x2="494" y2="96" stroke="#00f"/>
<rect x="384" y="91" width="60" height="10" fill="#ff0"/>
<rect x="496" y="91" width="94" height="10" fill="#ff0"/>
<text x="20" y="120" class="sm">5.701e-06</text>
<rect x="100" y="110" width="129" height="12" fill="#00f"/>
<rect x="281" y="110" width="398" height="12" fill="#00f"/>
<line x1="229" y1="116" x2="280" y2="116" stroke="#00f"/>
<rect x="384" y="111" width="206" height="10" fill="#ff0"/>
<text x="20" y="140" class="sm">5.189e-06</text>
<rect x="100" y="130" width="101" height="12" fill="#00f"/>
<rect x="247" y="130" width="432" height="12" fill="#00f"/>
<line x1="201" y1="136" x2="246" y2="136" stroke="#00f"/>
<rect x="384" y="131" width="206" height="10" fill="#ff0"/>
<text x="20" y="160" class="sm">4.526e-06</text>
<rect x="100" y="150" width="105" height="12" fill="#00f"/>
<rect x="247" y="150" width="432" height="12" fill="#00f"/>
<line x1="205" y1="156" x2="246" y2="156" stroke="#00f"/>
<rect x="384" y="151" width="206" height="10" fill="#ff0"/>
<text x="20" y="180" class="sm">1.044e-06</text>
<rect x="100" y="170" width="348" height="12" fill="#00f"/>
<rect x="495" y="170" width="184" height="12" fill="#00f"/>
<line x1="448" y1="176" x2="494" y2="176" stroke="#00f"/>
<rect x="384" y="171" width="64" height="10" fill="#ff0"/>
<rect x="496" y="171" width="144" height="10" fill="#ff0"/>
<text x="20" y="200" class="sm">6.94e-07</text>
<rect x="100" y="190" width="105" height="12" fill="#00f"/>
<rect x="495" y="190" width="184" height="12" fill="#00f"/>
<line x1="205" y1="196" x2="494" y2="196" stroke="#00f"/>
<rect x="195" y="191" width="10" height="10" fill="#ff0"/>
<rect x="496" y="191" width="144" height="10" fill="#ff0"/>
<text x="20" y="220" class="sm">2.191e-07</text>
<rect x="100" y="210" width="101" height="12" fill="#00f"/>
<rect x="495" y="210" width="184" height="12" fill="#00f"/>
<line x1="201" y1="216" x2="494" y2="216" stroke="#00f"/>
<rect x="200" y="211" width="1" height="10" fill="#ff0"/>
<rect x="496" y="211" width="144" height="10" fill="#ff0"/>
<text x="20" y="240" class="sm">1.133e-07</text>
<rect x="100" y="230" width="105" height="12" fill="#00f"/>
<rect x="281" y="230" width="398" height="12" fill="#00f"/>
<line x1="205" y1="236" x2="280" y2="236" stroke="#00f"/>
<rect x="384" y="231" width="206" height="10" fill="#ff0"/>
<text x="20" y="260" class="sm">7.695e-08</text>
<rect x="100" y="250" width="129" height="12" fill="#00f"/>
<rect x="495" y="250" width="184" height="12" fill="#00f"/>
<line x1="229" y1="256" x2="494" y2="256" stroke="#00f"/>
<rect x="195" y="251" width="34" height="10" fill="#ff0"/>
<rect x="496" y="251" width="144" height="10" fill="#ff0"/>
<text x="20" y="280" class="sm">2.753e-08</text>
<rect x="100" y="270" width="101" height="12" fill="#00f"/>
<rect x="281" y="270" width="398" height="12" fill="#00f"/>
<line x1="201" y1="276" x2="280" y2="276" stroke="#00f"/>
<rect x="384" y="271" width="206" height="10" fill="#ff0"/>
<text x="20" y="300" class="sm">9.007e-09</text>
<rect x="100" y="290" width="290" height="12" fill="#00f"/>
<rect x="435" y="290" width="244" height="12" fill="#00f"/>
<line x1="390" y1="296" x2="434" y2="296" stroke="#00f"/>
<rect x="384" y="291" width="6" height="10" fill="#ff0"/>
<rect x="436" y="291" width="154" height="10" fill="#ff0"/>
<text x="20" y="320" class="sm">8.701e-09</text>
<rect x="100" y="310" width="486" height="12" fill="#00f"/>
<rect x="647" y="310" width="32" height="12" fill="#00f"/>
<line x1="586" y1="316" x2="646" y2="316" stroke="#00f"/>
<rect x="384" y="311" width="202" height="10" fill="#ff0"/>
<rect x="648" y="311" width="9" height="10" fill="#ff0"/>
<text x="20" y="340" class="sm">5.977e-09</text>
<rect x="100" y="330" width="105" height="12" fill="#00f"/>
<rect x="435" y="330" width="244" height="12" fill="#00f"/>
<line x1="205" y1="336" x2="434" y2="336" stroke="#00f"/>
<rect x="499" y="331" width="116" height="10" fill="#ff0"/>
<text x="20" y="360" class="sm">2.988e-09</text>
<rect x="100" y="350" width="115" height="12" fill="#00f"/>
<rect x="495" y="350" width="184" height="12" fill="#00f"/>
<line x1="215" y1="356" x2="494" y2="356" stroke="#00f"/>
<rect x="208" y="351" width="7" height="10" fill="#ff0"/>
<rect x="496" y="351" width="144" height="10" fill="#ff0"/>
<text x="20" y="380" class="sm">2.16e-09</text>
<rect x="100" y="370" width="101" height="12" fill="#00f"/>
<rect x="435" y="370" width="244" height="12" fill="#00f"/>
<line x1="201" y1="376" x2="434" y2="376" stroke="#00f"/>
<rect x="195" y="371" width="6" height="10" fill="#ff0"/>
<rect x="436" y="371" width="154" height="10" fill="#ff0"/>
<text x="20" y="400" class="sm">1.915e-09</text>
<rect x="100" y="390" width="103" height="12" fill="#00f"/>
<rect x="247" y="390" width="432" height="12" fill="#00f"/>
<line x1="203" y1="396" x2="246" y2="396" stroke="#00f"/>
<rect x="384" y="391" width="206" height="10" fill="#ff0"/>
<text x="20" y="420" class="sm">1.691e-09</text>
<rect x="100" y="410" width="105" height="12" fill="#00f"/>
<rect x="375" y="410" width="304" height="12" fill="#00f"/>
<line x1="205" y1="416" x2="374" y2="416" stroke="#00f"/>
<rect x="384" y="411" width="206" height="10" fill="#ff0"/>
<text x="20" y="440" class="sm">1.215e-09</text>
<rect x="100" y="430" width="115" height="12" fill="#00f"/>
<rect x="281" y="430" width="398" height="12" fill="#00f"/>
<line x1="215" y1="436" x2="280" y2="436" stroke="#00f"/>
<rect x="384" y="431" width="206" height="10" fill="#ff0"/>
<text x="20" y="460" class="sm">8.07e-10</text>
<rect x="100" y="450" width="129" height="12" fill="#00f"/>
<rect x="435" y="450" width="244" height="12" fill="#00f"/>
<line x1="229" y1="456" x2="434" y2="456" stroke="#00f"/>
<rect x="499" y="451" width="116" height="10" fill="#ff0"/>
<text x="20" y="480" class="sm">5.329e-10</text>
<rect x="100" y="470" width="101" height="12" fill="#00f"/>
<rect x="375" y="470" width="304" height="12" fill="#00f"/>
<line x1="201" y1="476" x2="374" y2="476" stroke="#00f"/>
<rect x="195" y="471" width="6" height="10" fill="#ff0"/>
<rect x="376" y="471" width="214" height="10" fill="#ff0"/>
</svg>
