<svg viewBox="0 0 761 535" xmlns="http://www.w3.org/2000/svg">

<style>
  .sm { font: 12px sans-serif; }
  .lg { font: 15px sans-serif; }
</style>
<rect fill="#ddd" x="0" y="0" width="100%" height="100%"/>
<text x="20" y="20" class="lg">ch.10197 IV:6205684-6206444 Gene:WBGene00016764</text>
<text x="20" y="50" class="sm">WormBase</text>
<rect x="102" y="40" width="90" height="12" fill="#00f"/>
<rect x="237" y="40" width="97" height="12" fill="#00f"/>
<rect x="392" y="40" width="271" height="12" fill="#00f"/>
<line x1="192" y1="46" x2="236" y2="46" stroke="#00f"/>
<line x1="334" y1="46" x2="391" y2="46" stroke="#00f"/>
<rect x="118" y="41" width="74" height="10" fill="#ff0"/>
<rect x="238" y="41" width="96" height="10" fill="#ff0"/>
<rect x="393" y="41" width="169" height="10" fill="#ff0"/>
<rect x="103" y="41" width="14" height="10" fill="brown"><title>.</title></rect>
<rect x="563" y="41" width="100" height="10" fill="brown"><title>.</title></rect>
<text x="20" y="70" class="sm">Fitness: 0.021691097747650923</text>
<rect x="192" y="65" width="45" height="5" fill="#00f"><title>305289.0</title></rect>
<rect x="334" y="70" width="58" height="5" fill="#00f"><title>246499.0</title></rect>
<rect x="192" y="75" width="47" height="5" fill="#00f"><title>90.0</title></rect>
<rect x="349" y="80" width="43" height="5" fill="#00f"><title>40.0</title></rect>
<rect x="565" y="85" width="153" height="5" fill="#00f"><title>24.0</title></rect>
<rect x="338" y="90" width="54" height="5" fill="#00f"><title>14.0</title></rect>
<rect x="198" y="95" width="39" height="5" fill="#00f"><title>3.0</title></rect>
<text x="20" y="125" class="sm">0.5425</text>
<rect x="100" y="115" width="92" height="12" fill="#00f"/>
<rect x="237" y="115" width="427" height="12" fill="#00f"/>
<line x1="192" y1="121" x2="236" y2="121" stroke="#00f"/>
<rect x="118" y="116" width="74" height="10" fill="#ff0"/>
<rect x="238" y="116" width="275" height="10" fill="#ff0"/>
<text x="20" y="145" class="sm">0.4506</text>
<rect x="100" y="135" width="234" height="12" fill="#00f"/>
<rect x="392" y="135" width="272" height="12" fill="#00f"/>
<line x1="334" y1="141" x2="391" y2="141" stroke="#00f"/>
<rect x="247" y="136" width="87" height="10" fill="#ff0"/>
<rect x="393" y="136" width="169" height="10" fill="#ff0"/>
<text x="20" y="165" class="sm">0.003988</text>
<rect x="100" y="155" width="249" height="12" fill="#00f"/>
<rect x="392" y="155" width="272" height="12" fill="#00f"/>
<line x1="349" y1="161" x2="391" y2="161" stroke="#00f"/>
<rect x="247" y="156" width="102" height="10" fill="#ff0"/>
<rect x="393" y="156" width="169" height="10" fill="#ff0"/>
<text x="20" y="185" class="sm">0.0006611</text>
<rect x="100" y="175" width="96" height="12" fill="#00f"/>
<rect x="237" y="175" width="427" height="12" fill="#00f"/>
<line x1="196" y1="181" x2="236" y2="181" stroke="#00f"/>
<rect x="247" y="176" width="266" height="10" fill="#ff0"/>
<text x="20" y="205" class="sm">0.000638</text>
<rect x="100" y="195" width="238" height="12" fill="#00f"/>
<rect x="392" y="195" width="272" height="12" fill="#00f"/>
<line x1="338" y1="201" x2="391" y2="201" stroke="#00f"/>
<rect x="247" y="196" width="91" height="10" fill="#ff0"/>
<rect x="393" y="196" width="120" height="10" fill="#ff0"/>
<text x="20" y="225" class="sm">0.000609</text>
<rect x="100" y="215" width="98" height="12" fill="#00f"/>
<rect x="237" y="215" width="427" height="12" fill="#00f"/>
<line x1="198" y1="221" x2="236" y2="221" stroke="#00f"/>
<rect x="118" y="216" width="80" height="10" fill="#ff0"/>
<rect x="238" y="216" width="275" height="10" fill="#ff0"/>
<text x="20" y="245" class="sm">0.0005337</text>
<rect x="100" y="235" width="183" height="12" fill="#00f"/>
<rect x="325" y="235" width="339" height="12" fill="#00f"/>
<line x1="283" y1="241" x2="324" y2="241" stroke="#00f"/>
<rect x="247" y="236" width="36" height="10" fill="#ff0"/>
<rect x="326" y="236" width="187" height="10" fill="#ff0"/>
<text x="20" y="265" class="sm">0.000204</text>
<rect x="100" y="255" width="194" height="12" fill="#00f"/>
<rect x="392" y="255" width="272" height="12" fill="#00f"/>
<line x1="294" y1="261" x2="391" y2="261" stroke="#00f"/>
<rect x="118" y="256" width="95" height="10" fill="#ff0"/>
<text x="20" y="285" class="sm">0.0002021</text>
<rect x="100" y="275" width="60" height="12" fill="#00f"/>
<rect x="237" y="275" width="427" height="12" fill="#00f"/>
<line x1="160" y1="281" x2="236" y2="281" stroke="#00f"/>
<rect x="137" y="276" width="23" height="10" fill="#ff0"/>
<rect x="238" y="276" width="275" height="10" fill="#ff0"/>
<text x="20" y="305" class="sm">9.807e-05</text>
<rect x="100" y="295" width="194" height="12" fill="#00f"/>
<rect x="347" y="295" width="317" height="12" fill="#00f"/>
<line x1="294" y1="301" x2="346" y2="301" stroke="#00f"/>
<rect x="247" y="296" width="47" height="10" fill="#ff0"/>
<rect x="348" y="296" width="80" height="10" fill="#ff0"/>
<text x="20" y="325" class="sm">2.435e-05</text>
<rect x="100" y="315" width="58" height="12" fill="#00f"/>
<rect x="237" y="315" width="427" height="12" fill="#00f"/>
<line x1="158" y1="321" x2="236" y2="321" stroke="#00f"/>
<rect x="247" y="316" width="266" height="10" fill="#ff0"/>
<text x="20" y="345" class="sm">4.782e-06</text>
<rect x="100" y="335" width="183" height="12" fill="#00f"/>
<rect x="392" y="335" width="272" height="12" fill="#00f"/>
<line x1="283" y1="341" x2="391" y2="341" stroke="#00f"/>
<rect x="247" y="336" width="36" height="10" fill="#ff0"/>
<rect x="393" y="336" width="169" height="10" fill="#ff0"/>
<text x="20" y="365" class="sm">3.67e-06</text>
<rect x="100" y="355" width="192" height="12" fill="#00f"/>
<rect x="392" y="355" width="272" height="12" fill="#00f"/>
<line x1="292" y1="361" x2="391" y2="361" stroke="#00f"/>
<rect x="247" y="356" width="45" height="10" fill="#ff0"/>
<rect x="393" y="356" width="169" height="10" fill="#ff0"/>
<text x="20" y="385" class="sm">7.609e-07</text>
<rect x="100" y="375" width="192" height="12" fill="#00f"/>
<rect x="347" y="375" width="317" height="12" fill="#00f"/>
<line x1="292" y1="381" x2="346" y2="381" stroke="#00f"/>
<rect x="118" y="376" width="95" height="10" fill="#ff0"/>
<text x="20" y="405" class="sm">5.879e-07</text>
<rect x="100" y="395" width="189" height="12" fill="#00f"/>
<rect x="392" y="395" width="272" height="12" fill="#00f"/>
<line x1="289" y1="401" x2="391" y2="401" stroke="#00f"/>
<rect x="247" y="396" width="42" height="10" fill="#ff0"/>
<rect x="393" y="396" width="169" height="10" fill="#ff0"/>
<text x="20" y="425" class="sm">5.428e-07</text>
<rect x="100" y="415" width="92" height="12" fill="#00f"/>
<rect x="237" y="415" width="97" height="12" fill="#00f"/>
<rect x="392" y="415" width="272" height="12" fill="#00f"/>
<line x1="192" y1="421" x2="236" y2="421" stroke="#00f"/>
<line x1="334" y1="421" x2="391" y2="421" stroke="#00f"/>
<rect x="118" y="416" width="74" height="10" fill="#ff0"/>
<rect x="238" y="416" width="96" height="10" fill="#ff0"/>
<rect x="393" y="416" width="169" height="10" fill="#ff0"/>
<text x="20" y="445" class="sm">4.551e-07</text>
<rect x="100" y="435" width="171" height="12" fill="#00f"/>
<rect x="325" y="435" width="339" height="12" fill="#00f"/>
<line x1="271" y1="441" x2="324" y2="441" stroke="#00f"/>
<rect x="247" y="436" width="24" height="10" fill="#ff0"/>
<rect x="326" y="436" width="187" height="10" fill="#ff0"/>
<text x="20" y="465" class="sm">3.19e-07</text>
<rect x="100" y="455" width="194" height="12" fill="#00f"/>
<rect x="339" y="455" width="325" height="12" fill="#00f"/>
<line x1="294" y1="461" x2="338" y2="461" stroke="#00f"/>
<rect x="247" y="456" width="47" height="10" fill="#ff0"/>
<rect x="340" y="456" width="173" height="10" fill="#ff0"/>
<text x="20" y="485" class="sm">2.681e-07</text>
<rect x="100" y="475" width="60" height="12" fill="#00f"/>
<rect x="216" y="475" width="448" height="12" fill="#00f"/>
<line x1="160" y1="481" x2="215" y2="481" stroke="#00f"/>
<rect x="137" y="476" width="23" height="10" fill="#ff0"/>
<rect x="217" y="476" width="296" height="10" fill="#ff0"/>
<text x="20" y="505" class="sm">2.362e-07</text>
<rect x="100" y="495" width="465" height="12" fill="#00f"/>
<rect x="620" y="495" width="44" height="12" fill="#00f"/>
<line x1="565" y1="501" x2="619" y2="501" stroke="#00f"/>
<rect x="247" y="496" width="266" height="10" fill="#ff0"/>
</svg>
