<svg viewBox="0 0 772 725" xmlns="http://www.w3.org/2000/svg">

<style>
  .sm { font: 12px sans-serif; }
  .lg { font: 15px sans-serif; }
</style>
<rect fill="#ddd" x="0" y="0" width="100%" height="100%"/>
<text x="20" y="20" class="lg">ch.16293 V:15512066-15512837 Gene:WBGene00004452</text>
<text x="20" y="50" class="sm">WormBase</text>
<rect x="100" y="40" width="173" height="12" fill="#00f"/>
<rect x="545" y="40" width="123" height="12" fill="#00f"/>
<line x1="273" y1="46" x2="544" y2="46" stroke="#00f"/>
<rect x="130" y="41" width="143" height="10" fill="#ff0"/>
<rect x="546" y="41" width="68" height="10" fill="#ff0"/>
<rect x="101" y="41" width="28" height="10" fill="brown"><title>.</title></rect>
<rect x="615" y="41" width="53" height="10" fill="brown"><title>.</title></rect>
<text x="20" y="70" class="sm">WormBase</text>
<rect x="113" y="60" width="160" height="12" fill="#00f"/>
<rect x="545" y="60" width="125" height="12" fill="#00f"/>
<line x1="273" y1="66" x2="544" y2="66" stroke="#00f"/>
<rect x="130" y="61" width="143" height="10" fill="#ff0"/>
<rect x="546" y="61" width="68" height="10" fill="#ff0"/>
<rect x="114" y="61" width="15" height="10" fill="brown"><title>.</title></rect>
<rect x="615" y="61" width="55" height="10" fill="brown"><title>.</title></rect>
<text x="20" y="90" class="sm">WormBase</text>
<rect x="113" y="80" width="160" height="12" fill="#00f"/>
<rect x="545" y="80" width="126" height="12" fill="#00f"/>
<line x1="273" y1="86" x2="544" y2="86" stroke="#00f"/>
<rect x="130" y="81" width="143" height="10" fill="#ff0"/>
<rect x="546" y="81" width="68" height="10" fill="#ff0"/>
<rect x="114" y="81" width="15" height="10" fill="brown"><title>.</title></rect>
<rect x="615" y="81" width="56" height="10" fill="brown"><title>.</title></rect>
<text x="20" y="110" class="sm">WormBase</text>
<rect x="113" y="100" width="160" height="12" fill="#00f"/>
<rect x="545" y="100" width="127" height="12" fill="#00f"/>
<line x1="273" y1="106" x2="544" y2="106" stroke="#00f"/>
<rect x="130" y="101" width="143" height="10" fill="#ff0"/>
<rect x="546" y="101" width="68" height="10" fill="#ff0"/>
<rect x="114" y="101" width="15" height="10" fill="brown"><title>.</title></rect>
<rect x="615" y="101" width="57" height="10" fill="brown"><title>.</title></rect>
<text x="20" y="130" class="sm">Fitness: 0.00016265068413287914</text>
<rect x="273" y="125" width="272" height="5" fill="#00f"><title>28336700.0</title></rect>
<rect x="234" y="130" width="311" height="5" fill="#00f"><title>3541.0</title></rect>
<rect x="273" y="135" width="278" height="5" fill="#00f"><title>993.0</title></rect>
<rect x="273" y="140" width="51" height="5" fill="#00f"><title>262.0</title></rect>
<rect x="191" y="145" width="43" height="5" fill="#00f"><title>224.0</title></rect>
<rect x="277" y="150" width="274" height="5" fill="#00f"><title>184.0</title></rect>
<rect x="478" y="155" width="67" height="5" fill="#00f"><title>134.0</title></rect>
<rect x="273" y="160" width="284" height="5" fill="#00f"><title>118.0</title></rect>
<rect x="267" y="165" width="278" height="5" fill="#00f"><title>115.0</title></rect>
<rect x="234" y="170" width="377" height="5" fill="#00f"><title>89.0</title></rect>
<rect x="195" y="175" width="33" height="5" fill="#00f"><title>71.0</title></rect>
<rect x="171" y="180" width="431" height="5" fill="#00f"><title>67.0</title></rect>
<rect x="171" y="185" width="30" height="5" fill="#00f"><title>46.0</title></rect>
<rect x="273" y="190" width="59" height="5" fill="#00f"><title>46.0</title></rect>
<rect x="234" y="195" width="338" height="5" fill="#00f"><title>39.0</title></rect>
<rect x="277" y="200" width="268" height="5" fill="#00f"><title>33.0</title></rect>
<rect x="637" y="205" width="71" height="5" fill="#00f"><title>19.0</title></rect>
<rect x="234" y="210" width="368" height="5" fill="#00f"><title>18.0</title></rect>
<rect x="227" y="215" width="361" height="5" fill="#00f"><title>12.0</title></rect>
<rect x="195" y="220" width="350" height="5" fill="#00f"><title>9.0</title></rect>
<rect x="264" y="225" width="281" height="5" fill="#00f"><title>8.0</title></rect>
<rect x="195" y="230" width="419" height="5" fill="#00f"><title>7.0</title></rect>
<rect x="200" y="235" width="43" height="5" fill="#00f"><title>7.0</title></rect>
<rect x="254" y="240" width="313" height="5" fill="#f0f"><title>7.0</title></rect>
<rect x="165" y="245" width="63" height="5" fill="#00f"><title>5.0</title></rect>
<rect x="234" y="250" width="317" height="5" fill="#00f"><title>5.0</title></rect>
<rect x="234" y="255" width="363" height="5" fill="#00f"><title>5.0</title></rect>
<rect x="273" y="260" width="293" height="5" fill="#00f"><title>5.0</title></rect>
<rect x="195" y="265" width="39" height="5" fill="#00f"><title>4.0</title></rect>
<rect x="252" y="270" width="307" height="5" fill="#f0f"><title>4.0</title></rect>
<rect x="579" y="275" width="25" height="5" fill="#00f"><title>4.0</title></rect>
<rect x="273" y="280" width="115" height="5" fill="#00f"><title>3.0</title></rect>
<rect x="273" y="285" width="176" height="5" fill="#00f"><title>3.0</title></rect>
<text x="20" y="315" class="sm">0.9998</text>
<rect x="100" y="305" width="173" height="12" fill="#00f"/>
<rect x="545" y="305" width="130" height="12" fill="#00f"/>
<line x1="273" y1="311" x2="544" y2="311" stroke="#00f"/>
<rect x="130" y="306" width="143" height="10" fill="#ff0"/>
<rect x="546" y="306" width="68" height="10" fill="#ff0"/>
<text x="20" y="335" class="sm">0.0001404</text>
<rect x="100" y="325" width="134" height="12" fill="#00f"/>
<rect x="545" y="325" width="130" height="12" fill="#00f"/>
<line x1="234" y1="331" x2="544" y2="331" stroke="#00f"/>
<rect x="130" y="326" width="104" height="10" fill="#ff0"/>
<rect x="546" y="326" width="68" height="10" fill="#ff0"/>
<text x="20" y="355" class="sm">2.293e-05</text>
<rect x="100" y="345" width="177" height="12" fill="#00f"/>
<rect x="545" y="345" width="130" height="12" fill="#00f"/>
<line x1="277" y1="351" x2="544" y2="351" stroke="#00f"/>
<rect x="130" y="346" width="147" height="10" fill="#ff0"/>
<rect x="546" y="346" width="10" height="10" fill="#ff0"/>
<text x="20" y="375" class="sm">1.863e-05</text>
<rect x="100" y="365" width="173" height="12" fill="#00f"/>
<rect x="493" y="365" width="182" height="12" fill="#00f"/>
<line x1="273" y1="371" x2="492" y2="371" stroke="#00f"/>
<rect x="130" y="366" width="143" height="10" fill="#ff0"/>
<rect x="494" y="366" width="20" height="10" fill="#ff0"/>
<text x="20" y="395" class="sm">9.153e-06</text>
<rect x="100" y="385" width="173" height="12" fill="#00f"/>
<rect x="557" y="385" width="118" height="12" fill="#00f"/>
<line x1="273" y1="391" x2="556" y2="391" stroke="#00f"/>
<rect x="130" y="386" width="143" height="10" fill="#ff0"/>
<rect x="558" y="386" width="56" height="10" fill="#ff0"/>
<text x="20" y="415" class="sm">5.597e-06</text>
<rect x="100" y="405" width="164" height="12" fill="#00f"/>
<rect x="545" y="405" width="130" height="12" fill="#00f"/>
<line x1="264" y1="411" x2="544" y2="411" stroke="#00f"/>
<rect x="130" y="406" width="134" height="10" fill="#ff0"/>
<rect x="546" y="406" width="68" height="10" fill="#ff0"/>
<text x="20" y="435" class="sm">4.329e-06</text>
<rect x="100" y="425" width="173" height="12" fill="#00f"/>
<rect x="572" y="425" width="103" height="12" fill="#00f"/>
<line x1="273" y1="431" x2="571" y2="431" stroke="#00f"/>
<rect x="130" y="426" width="143" height="10" fill="#ff0"/>
<rect x="573" y="426" width="41" height="10" fill="#ff0"/>
<text x="20" y="455" class="sm">2.723e-06</text>
<rect x="100" y="445" width="261" height="12" fill="#00f"/>
<rect x="545" y="445" width="130" height="12" fill="#00f"/>
<line x1="361" y1="451" x2="544" y2="451" stroke="#00f"/>
<rect x="130" y="446" width="164" height="10" fill="#ff0"/>
<text x="20" y="475" class="sm">1.709e-06</text>
<rect x="100" y="465" width="173" height="12" fill="#00f"/>
<rect x="597" y="465" width="78" height="12" fill="#00f"/>
<line x1="273" y1="471" x2="596" y2="471" stroke="#00f"/>
<rect x="185" y="466" width="20" height="10" fill="#ff0"/>
<text x="20" y="495" class="sm">1.694e-06</text>
<rect x="100" y="485" width="173" height="12" fill="#00f"/>
<rect x="551" y="485" width="124" height="12" fill="#00f"/>
<line x1="273" y1="491" x2="550" y2="491" stroke="#00f"/>
<rect x="130" y="486" width="143" height="10" fill="#ff0"/>
<rect x="552" y="486" width="62" height="10" fill="#ff0"/>
<text x="20" y="515" class="sm">1.514e-06</text>
<rect x="100" y="505" width="173" height="12" fill="#00f"/>
<rect x="602" y="505" width="73" height="12" fill="#00f"/>
<line x1="273" y1="511" x2="601" y2="511" stroke="#00f"/>
<rect x="130" y="506" width="143" height="10" fill="#ff0"/>
<rect x="603" y="506" width="11" height="10" fill="#ff0"/>
<text x="20" y="535" class="sm">1.512e-06</text>
<rect x="100" y="525" width="173" height="12" fill="#00f"/>
<rect x="588" y="525" width="87" height="12" fill="#00f"/>
<line x1="273" y1="531" x2="587" y2="531" stroke="#00f"/>
<rect x="185" y="526" width="20" height="10" fill="#ff0"/>
<text x="20" y="555" class="sm">7.587e-07</text>
<rect x="100" y="545" width="167" height="12" fill="#00f"/>
<rect x="545" y="545" width="130" height="12" fill="#00f"/>
<line x1="267" y1="551" x2="544" y2="551" stroke="#00f"/>
<rect x="130" y="546" width="137" height="10" fill="#ff0"/>
<rect x="546" y="546" width="68" height="10" fill="#ff0"/>
<text x="20" y="575" class="sm">5.626e-07</text>
<rect x="100" y="565" width="127" height="12" fill="#00f"/>
<rect x="545" y="565" width="130" height="12" fill="#00f"/>
<line x1="227" y1="571" x2="544" y2="571" stroke="#00f"/>
<rect x="130" y="566" width="97" height="10" fill="#ff0"/>
<rect x="546" y="566" width="24" height="10" fill="#ff0"/>
<text x="20" y="595" class="sm">5.146e-07</text>
<rect x="100" y="585" width="228" height="12" fill="#00f"/>
<rect x="545" y="585" width="130" height="12" fill="#00f"/>
<line x1="328" y1="591" x2="544" y2="591" stroke="#00f"/>
<rect x="130" y="586" width="164" height="10" fill="#ff0"/>
<text x="20" y="615" class="sm">2.678e-07</text>
<rect x="100" y="605" width="173" height="12" fill="#00f"/>
<rect x="611" y="605" width="64" height="12" fill="#00f"/>
<line x1="273" y1="611" x2="610" y2="611" stroke="#00f"/>
<rect x="130" y="606" width="143" height="10" fill="#ff0"/>
<rect x="612" y="606" width="2" height="10" fill="#ff0"/>
<text x="20" y="635" class="sm">3.88e-08</text>
<rect x="100" y="625" width="344" height="12" fill="#00f"/>
<rect x="545" y="625" width="130" height="12" fill="#00f"/>
<line x1="444" y1="631" x2="544" y2="631" stroke="#00f"/>
<rect x="130" y="626" width="164" height="10" fill="#ff0"/>
<text x="20" y="655" class="sm">2.951e-08</text>
<rect x="100" y="645" width="173" height="12" fill="#00f"/>
<rect x="566" y="645" width="109" height="12" fill="#00f"/>
<line x1="273" y1="651" x2="565" y2="651" stroke="#00f"/>
<rect x="130" y="646" width="143" height="10" fill="#ff0"/>
<rect x="567" y="646" width="47" height="10" fill="#ff0"/>
<text x="20" y="675" class="sm">2.413e-08</text>
<rect x="100" y="665" width="173" height="12" fill="#00f"/>
<rect x="563" y="665" width="112" height="12" fill="#00f"/>
<line x1="273" y1="671" x2="562" y2="671" stroke="#00f"/>
<rect x="130" y="666" width="143" height="10" fill="#ff0"/>
<rect x="564" y="666" width="50" height="10" fill="#ff0"/>
<text x="20" y="695" class="sm">2.02e-08</text>
<rect x="100" y="685" width="75" height="12" fill="#00f"/>
<rect x="545" y="685" width="130" height="12" fill="#00f"/>
<line x1="175" y1="691" x2="544" y2="691" stroke="#00f"/>
<rect x="130" y="686" width="45" height="10" fill="#ff0"/>
<rect x="546" y="686" width="10" height="10" fill="#ff0"/>
</svg>
