<svg viewBox="0 0 609 520" xmlns="http://www.w3.org/2000/svg">

<style>
  .sm { font: 12px sans-serif; }
  .lg { font: 15px sans-serif; }
</style>
<rect fill="#ddd" x="0" y="0" width="100%" height="100%"/>
<text x="20" y="20" class="lg">ch.1184 I:6669084-6669692 Gene:WBGene00015907</text>
<text x="20" y="50" class="sm">WormBase</text>
<rect x="100" y="40" width="141" height="12" fill="#00f"/>
<rect x="295" y="40" width="214" height="12" fill="#00f"/>
<line x1="241" y1="46" x2="294" y2="46" stroke="#00f"/>
<rect x="101" y="41" width="140" height="10" fill="#ff0"/>
<rect x="296" y="41" width="125" height="10" fill="#ff0"/>
<rect x="422" y="41" width="87" height="10" fill="brown"><title>.</title></rect>
<text x="20" y="70" class="sm">Fitness: 5.350844887433949e-07</text>
<rect x="241" y="65" width="54" height="5" fill="#00f"><title>364084.0</title></rect>
<rect x="6" y="70" width="74" height="5" fill="#f0f"><title>29.0</title></rect>
<rect x="6" y="75" width="123" height="5" fill="#f0f"><title>6.0</title></rect>
<rect x="241" y="80" width="43" height="5" fill="#00f"><title>3.0</title></rect>
<text x="20" y="110" class="sm">1.0</text>
<rect x="100" y="100" width="141" height="12" fill="#00f"/>
<rect x="295" y="100" width="217" height="12" fill="#00f"/>
<line x1="241" y1="106" x2="294" y2="106" stroke="#00f"/>
<rect x="101" y="101" width="140" height="10" fill="#ff0"/>
<rect x="296" y="101" width="125" height="10" fill="#ff0"/>
<text x="20" y="130" class="sm">8.283e-06</text>
<rect x="100" y="120" width="141" height="12" fill="#00f"/>
<rect x="284" y="120" width="228" height="12" fill="#00f"/>
<line x1="241" y1="126" x2="283" y2="126" stroke="#00f"/>
<rect x="101" y="121" width="140" height="10" fill="#ff0"/>
<rect x="285" y="121" width="209" height="10" fill="#ff0"/>
<text x="20" y="150" class="sm">1.274e-07</text>
<rect x="100" y="140" width="287" height="12" fill="#00f"/>
<rect x="438" y="140" width="74" height="12" fill="#00f"/>
<line x1="387" y1="146" x2="437" y2="146" stroke="#00f"/>
<rect x="274" y="141" width="86" height="10" fill="#ff0"/>
<text x="20" y="170" class="sm">5.089e-08</text>
<rect x="100" y="160" width="93" height="12" fill="#00f"/>
<rect x="295" y="160" width="217" height="12" fill="#00f"/>
<line x1="193" y1="166" x2="294" y2="166" stroke="#00f"/>
<rect x="101" y="161" width="92" height="10" fill="#ff0"/>
<rect x="296" y="161" width="125" height="10" fill="#ff0"/>
<text x="20" y="190" class="sm">2.49e-08</text>
<rect x="100" y="180" width="145" height="12" fill="#00f"/>
<rect x="295" y="180" width="217" height="12" fill="#00f"/>
<line x1="245" y1="186" x2="294" y2="186" stroke="#00f"/>
<rect x="101" y="181" width="144" height="10" fill="#ff0"/>
<rect x="296" y="181" width="64" height="10" fill="#ff0"/>
<text x="20" y="210" class="sm">1.018e-08</text>
<rect x="100" y="200" width="51" height="12" fill="#00f"/>
<rect x="295" y="200" width="217" height="12" fill="#00f"/>
<line x1="151" y1="206" x2="294" y2="206" stroke="#00f"/>
<rect x="101" y="201" width="50" height="10" fill="#ff0"/>
<rect x="296" y="201" width="125" height="10" fill="#ff0"/>
<text x="20" y="230" class="sm">7.86e-09</text>
<rect x="100" y="220" width="74" height="12" fill="#00f"/>
<rect x="295" y="220" width="217" height="12" fill="#00f"/>
<line x1="174" y1="226" x2="294" y2="226" stroke="#00f"/>
<rect x="101" y="221" width="73" height="10" fill="#ff0"/>
<rect x="296" y="221" width="198" height="10" fill="#ff0"/>
<text x="20" y="250" class="sm">1.034e-09</text>
<rect x="100" y="240" width="74" height="12" fill="#00f"/>
<rect x="218" y="240" width="294" height="12" fill="#00f"/>
<line x1="174" y1="246" x2="217" y2="246" stroke="#00f"/>
<rect x="101" y="241" width="73" height="10" fill="#ff0"/>
<rect x="219" y="241" width="141" height="10" fill="#ff0"/>
<text x="20" y="270" class="sm">9.331e-10</text>
<rect x="100" y="260" width="159" height="12" fill="#00f"/>
<rect x="295" y="260" width="217" height="12" fill="#00f"/>
<line x1="259" y1="266" x2="294" y2="266" stroke="#00f"/>
<rect x="101" y="261" width="158" height="10" fill="#ff0"/>
<rect x="296" y="261" width="125" height="10" fill="#ff0"/>
<text x="20" y="290" class="sm">6.735e-10</text>
<rect x="100" y="280" width="51" height="12" fill="#00f"/>
<rect x="188" y="280" width="324" height="12" fill="#00f"/>
<line x1="151" y1="286" x2="187" y2="286" stroke="#00f"/>
<rect x="224" y="281" width="197" height="10" fill="#ff0"/>
<text x="20" y="310" class="sm">4.129e-10</text>
<rect x="100" y="300" width="53" height="12" fill="#00f"/>
<rect x="295" y="300" width="217" height="12" fill="#00f"/>
<line x1="153" y1="306" x2="294" y2="306" stroke="#00f"/>
<rect x="101" y="301" width="52" height="10" fill="#ff0"/>
<rect x="296" y="301" width="198" height="10" fill="#ff0"/>
<text x="20" y="330" class="sm">5.343e-11</text>
<rect x="100" y="320" width="112" height="12" fill="#00f"/>
<rect x="295" y="320" width="217" height="12" fill="#00f"/>
<line x1="212" y1="326" x2="294" y2="326" stroke="#00f"/>
<rect x="101" y="321" width="111" height="10" fill="#ff0"/>
<rect x="296" y="321" width="64" height="10" fill="#ff0"/>
<text x="20" y="350" class="sm">3.579e-11</text>
<rect x="100" y="340" width="63" height="12" fill="#00f"/>
<rect x="295" y="340" width="217" height="12" fill="#00f"/>
<line x1="163" y1="346" x2="294" y2="346" stroke="#00f"/>
<rect x="101" y="341" width="62" height="10" fill="#ff0"/>
<rect x="296" y="341" width="125" height="10" fill="#ff0"/>
<text x="20" y="370" class="sm">1.664e-11</text>
<rect x="100" y="360" width="256" height="12" fill="#00f"/>
<rect x="407" y="360" width="105" height="12" fill="#00f"/>
<line x1="356" y1="366" x2="406" y2="366" stroke="#00f"/>
<rect x="101" y="361" width="255" height="10" fill="#ff0"/>
<rect x="408" y="361" width="13" height="10" fill="#ff0"/>
<text x="20" y="390" class="sm">8.267e-12</text>
<rect x="100" y="380" width="141" height="12" fill="#00f"/>
<rect x="368" y="380" width="144" height="12" fill="#00f"/>
<line x1="241" y1="386" x2="367" y2="386" stroke="#00f"/>
<rect x="101" y="381" width="140" height="10" fill="#ff0"/>
<rect x="369" y="381" width="125" height="10" fill="#ff0"/>
<text x="20" y="410" class="sm">1.896e-12</text>
<rect x="100" y="400" width="51" height="12" fill="#00f"/>
<rect x="218" y="400" width="294" height="12" fill="#00f"/>
<line x1="151" y1="406" x2="217" y2="406" stroke="#00f"/>
<rect x="224" y="401" width="197" height="10" fill="#ff0"/>
<text x="20" y="430" class="sm">1.196e-12</text>
<rect x="100" y="420" width="287" height="12" fill="#00f"/>
<rect x="452" y="420" width="60" height="12" fill="#00f"/>
<line x1="387" y1="426" x2="451" y2="426" stroke="#00f"/>
<rect x="101" y="421" width="286" height="10" fill="#ff0"/>
<rect x="453" y="421" width="30" height="10" fill="#ff0"/>
<text x="20" y="450" class="sm">6.16e-13</text>
<rect x="100" y="440" width="74" height="12" fill="#00f"/>
<rect x="223" y="440" width="289" height="12" fill="#00f"/>
<line x1="174" y1="446" x2="222" y2="446" stroke="#00f"/>
<rect x="298" y="441" width="197" height="10" fill="#ff0"/>
<text x="20" y="470" class="sm">5.663e-13</text>
<rect x="100" y="460" width="63" height="12" fill="#00f"/>
<rect x="218" y="460" width="294" height="12" fill="#00f"/>
<line x1="163" y1="466" x2="217" y2="466" stroke="#00f"/>
<rect x="224" y="461" width="197" height="10" fill="#ff0"/>
<text x="20" y="490" class="sm">4.815e-13</text>
<rect x="100" y="480" width="87" height="12" fill="#00f"/>
<rect x="295" y="480" width="217" height="12" fill="#00f"/>
<line x1="187" y1="486" x2="294" y2="486" stroke="#00f"/>
<rect x="101" y="481" width="86" height="10" fill="#ff0"/>
<rect x="296" y="481" width="125" height="10" fill="#ff0"/>
</svg>
