<svg viewBox="0 0 722 545" xmlns="http://www.w3.org/2000/svg">

<style>
  .sm { font: 12px sans-serif; }
  .lg { font: 15px sans-serif; }
</style>
<rect fill="#ddd" x="0" y="0" width="100%" height="100%"/>
<text x="20" y="20" class="lg">ch.15458 V:12365248-12365969 Gene:WBGene00009097</text>
<text x="20" y="50" class="sm">WormBase</text>
<rect x="100" y="40" width="121" height="12" fill="#00f"/>
<rect x="271" y="40" width="351" height="12" fill="#00f"/>
<line x1="221" y1="46" x2="270" y2="46" stroke="#00f"/>
<rect x="208" y="41" width="13" height="10" fill="#ff0"/>
<rect x="272" y="41" width="204" height="10" fill="#ff0"/>
<rect x="101" y="41" width="106" height="10" fill="brown"><title>.</title></rect>
<rect x="477" y="41" width="145" height="10" fill="brown"><title>.</title></rect>
<text x="20" y="70" class="sm">WormBase</text>
<rect x="321" y="60" width="258" height="12" fill="#00f"/>
<rect x="322" y="61" width="257" height="10" fill="#ff0"/>
<text x="20" y="90" class="sm">Fitness: 0.00037403326038521324</text>
<rect x="221" y="85" width="50" height="5" fill="#00f"><title>769841.0</title></rect>
<rect x="369" y="90" width="35" height="5" fill="#00f"><title>107.0</title></rect>
<rect x="341" y="95" width="72" height="5" fill="#00f"><title>34.0</title></rect>
<rect x="357" y="100" width="71" height="5" fill="#f0f"><title>7.0</title></rect>
<rect x="332" y="105" width="39" height="5" fill="#00f"><title>3.0</title></rect>
<text x="20" y="135" class="sm">0.9998</text>
<rect x="100" y="125" width="121" height="12" fill="#00f"/>
<rect x="271" y="125" width="354" height="12" fill="#00f"/>
<line x1="221" y1="131" x2="270" y2="131" stroke="#00f"/>
<rect x="322" y="126" width="257" height="10" fill="#ff0"/>
<text x="20" y="155" class="sm">6.097e-05</text>
<rect x="100" y="145" width="121" height="12" fill="#00f"/>
<rect x="271" y="145" width="235" height="12" fill="#00f"/>
<rect x="548" y="145" width="77" height="12" fill="#00f"/>
<line x1="221" y1="151" x2="270" y2="151" stroke="#00f"/>
<line x1="506" y1="151" x2="547" y2="151" stroke="#00f"/>
<rect x="208" y="146" width="13" height="10" fill="#ff0"/>
<rect x="272" y="146" width="204" height="10" fill="#ff0"/>
<text x="20" y="175" class="sm">4.59e-05</text>
<rect x="100" y="165" width="125" height="12" fill="#00f"/>
<rect x="271" y="165" width="354" height="12" fill="#00f"/>
<line x1="225" y1="171" x2="270" y2="171" stroke="#00f"/>
<rect x="322" y="166" width="257" height="10" fill="#ff0"/>
<text x="20" y="195" class="sm">3.647e-05</text>
<rect x="100" y="185" width="121" height="12" fill="#00f"/>
<rect x="271" y="185" width="185" height="12" fill="#00f"/>
<rect x="548" y="185" width="77" height="12" fill="#00f"/>
<line x1="221" y1="191" x2="270" y2="191" stroke="#00f"/>
<line x1="456" y1="191" x2="547" y2="191" stroke="#00f"/>
<rect x="208" y="186" width="13" height="10" fill="#ff0"/>
<rect x="272" y="186" width="184" height="10" fill="#ff0"/>
<rect x="549" y="186" width="19" height="10" fill="#ff0"/>
<text x="20" y="215" class="sm">1.465e-05</text>
<rect x="100" y="205" width="121" height="12" fill="#00f"/>
<rect x="261" y="205" width="364" height="12" fill="#00f"/>
<line x1="221" y1="211" x2="260" y2="211" stroke="#00f"/>
<rect x="322" y="206" width="257" height="10" fill="#ff0"/>
<text x="20" y="235" class="sm">8.262e-06</text>
<rect x="100" y="225" width="64" height="12" fill="#00f"/>
<rect x="271" y="225" width="354" height="12" fill="#00f"/>
<line x1="164" y1="231" x2="270" y2="231" stroke="#00f"/>
<rect x="152" y="226" width="12" height="10" fill="#ff0"/>
<rect x="272" y="226" width="307" height="10" fill="#ff0"/>
<text x="20" y="255" class="sm">5.944e-07</text>
<rect x="100" y="245" width="406" height="12" fill="#00f"/>
<rect x="548" y="245" width="77" height="12" fill="#00f"/>
<line x1="506" y1="251" x2="547" y2="251" stroke="#00f"/>
<rect x="322" y="246" width="184" height="10" fill="#ff0"/>
<rect x="549" y="246" width="30" height="10" fill="#ff0"/>
<text x="20" y="275" class="sm">4.547e-07</text>
<rect x="100" y="265" width="41" height="12" fill="#00f"/>
<rect x="271" y="265" width="354" height="12" fill="#00f"/>
<line x1="141" y1="271" x2="270" y2="271" stroke="#00f"/>
<rect x="322" y="266" width="257" height="10" fill="#ff0"/>
<text x="20" y="295" class="sm">3.613e-07</text>
<rect x="100" y="285" width="356" height="12" fill="#00f"/>
<rect x="548" y="285" width="77" height="12" fill="#00f"/>
<line x1="456" y1="291" x2="547" y2="291" stroke="#00f"/>
<rect x="152" y="286" width="20" height="10" fill="#ff0"/>
<text x="20" y="315" class="sm">2.797e-07</text>
<rect x="100" y="305" width="121" height="12" fill="#00f"/>
<rect x="317" y="305" width="308" height="12" fill="#00f"/>
<line x1="221" y1="311" x2="316" y2="311" stroke="#00f"/>
<rect x="208" y="306" width="13" height="10" fill="#ff0"/>
<rect x="318" y="306" width="261" height="10" fill="#ff0"/>
<text x="20" y="335" class="sm">4.503e-08</text>
<rect x="100" y="325" width="64" height="12" fill="#00f"/>
<rect x="226" y="325" width="399" height="12" fill="#00f"/>
<line x1="164" y1="331" x2="225" y2="331" stroke="#00f"/>
<rect x="322" y="326" width="257" height="10" fill="#ff0"/>
<text x="20" y="355" class="sm">1.711e-08</text>
<rect x="100" y="345" width="41" height="12" fill="#00f"/>
<rect x="184" y="345" width="37" height="12" fill="#00f"/>
<rect x="271" y="345" width="354" height="12" fill="#00f"/>
<line x1="141" y1="351" x2="183" y2="351" stroke="#00f"/>
<line x1="221" y1="351" x2="270" y2="351" stroke="#00f"/>
<rect x="322" y="346" width="257" height="10" fill="#ff0"/>
<text x="20" y="375" class="sm">1.142e-08</text>
<rect x="100" y="365" width="121" height="12" fill="#00f"/>
<rect x="271" y="365" width="179" height="12" fill="#00f"/>
<rect x="548" y="365" width="77" height="12" fill="#00f"/>
<line x1="221" y1="371" x2="270" y2="371" stroke="#00f"/>
<line x1="450" y1="371" x2="547" y2="371" stroke="#00f"/>
<rect x="208" y="366" width="13" height="10" fill="#ff0"/>
<rect x="272" y="366" width="178" height="10" fill="#ff0"/>
<rect x="549" y="366" width="19" height="10" fill="#ff0"/>
<text x="20" y="395" class="sm">2.799e-09</text>
<rect x="100" y="385" width="125" height="12" fill="#00f"/>
<rect x="271" y="385" width="235" height="12" fill="#00f"/>
<rect x="548" y="385" width="77" height="12" fill="#00f"/>
<line x1="225" y1="391" x2="270" y2="391" stroke="#00f"/>
<line x1="506" y1="391" x2="547" y2="391" stroke="#00f"/>
<rect x="322" y="386" width="184" height="10" fill="#ff0"/>
<rect x="549" y="386" width="30" height="10" fill="#ff0"/>
<text x="20" y="415" class="sm">1.674e-09</text>
<rect x="100" y="405" width="125" height="12" fill="#00f"/>
<rect x="271" y="405" width="185" height="12" fill="#00f"/>
<rect x="548" y="405" width="77" height="12" fill="#00f"/>
<line x1="225" y1="411" x2="270" y2="411" stroke="#00f"/>
<line x1="456" y1="411" x2="547" y2="411" stroke="#00f"/>
<rect x="152" y="406" width="20" height="10" fill="#ff0"/>
<text x="20" y="435" class="sm">1.219e-09</text>
<rect x="100" y="425" width="41" height="12" fill="#00f"/>
<rect x="226" y="425" width="399" height="12" fill="#00f"/>
<line x1="141" y1="431" x2="225" y2="431" stroke="#00f"/>
<rect x="322" y="426" width="257" height="10" fill="#ff0"/>
<text x="20" y="455" class="sm">9.508e-10</text>
<rect x="100" y="445" width="121" height="12" fill="#00f"/>
<rect x="414" y="445" width="211" height="12" fill="#00f"/>
<line x1="221" y1="451" x2="413" y2="451" stroke="#00f"/>
<rect x="418" y="446" width="161" height="10" fill="#ff0"/>
<text x="20" y="475" class="sm">8.885e-10</text>
<rect x="100" y="465" width="121" height="12" fill="#00f"/>
<rect x="261" y="465" width="245" height="12" fill="#00f"/>
<rect x="548" y="465" width="77" height="12" fill="#00f"/>
<line x1="221" y1="471" x2="260" y2="471" stroke="#00f"/>
<line x1="506" y1="471" x2="547" y2="471" stroke="#00f"/>
<rect x="322" y="466" width="184" height="10" fill="#ff0"/>
<rect x="549" y="466" width="30" height="10" fill="#ff0"/>
<text x="20" y="495" class="sm">5.549e-10</text>
<rect x="100" y="485" width="121" height="12" fill="#00f"/>
<rect x="261" y="485" width="195" height="12" fill="#00f"/>
<rect x="548" y="485" width="77" height="12" fill="#00f"/>
<line x1="221" y1="491" x2="260" y2="491" stroke="#00f"/>
<line x1="456" y1="491" x2="547" y2="491" stroke="#00f"/>
<rect x="208" y="486" width="13" height="10" fill="#ff0"/>
<rect x="262" y="486" width="54" height="10" fill="#ff0"/>
<text x="20" y="515" class="sm">5.038e-10</text>
<rect x="100" y="505" width="64" height="12" fill="#00f"/>
<rect x="271" y="505" width="235" height="12" fill="#00f"/>
<rect x="548" y="505" width="77" height="12" fill="#00f"/>
<line x1="164" y1="511" x2="270" y2="511" stroke="#00f"/>
<line x1="506" y1="511" x2="547" y2="511" stroke="#00f"/>
<rect x="152" y="506" width="12" height="10" fill="#ff0"/>
<rect x="272" y="506" width="234" height="10" fill="#ff0"/>
<rect x="549" y="506" width="30" height="10" fill="#ff0"/>
</svg>
