<svg viewBox="0 0 718 545" xmlns="http://www.w3.org/2000/svg">

<style>
  .sm { font: 12px sans-serif; }
  .lg { font: 15px sans-serif; }
</style>
<rect fill="#ddd" x="0" y="0" width="100%" height="100%"/>
<text x="20" y="20" class="lg">ch.18675 X:7318139-7318856 Gene:WBGene00004989</text>
<text x="20" y="50" class="sm">WormBase</text>
<rect x="102" y="40" width="154" height="12" fill="#00f"/>
<rect x="356" y="40" width="264" height="12" fill="#00f"/>
<line x1="256" y1="46" x2="355" y2="46" stroke="#00f"/>
<rect x="104" y="41" width="152" height="10" fill="#ff0"/>
<rect x="357" y="41" width="158" height="10" fill="#ff0"/>
<rect x="103" y="41" width="0" height="10" fill="brown"><title>.</title></rect>
<rect x="516" y="41" width="104" height="10" fill="brown"><title>.</title></rect>
<text x="20" y="70" class="sm">Fitness: 0.0001796266376630111</text>
<rect x="256" y="65" width="100" height="5" fill="#00f"><title>562383.0</title></rect>
<rect x="303" y="70" width="53" height="5" fill="#00f"><title>29.0</title></rect>
<rect x="205" y="75" width="166" height="5" fill="#00f"><title>17.0</title></rect>
<rect x="185" y="80" width="273" height="5" fill="#00f"><title>14.0</title></rect>
<rect x="403" y="85" width="95" height="5" fill="#f0f"><title>12.0</title></rect>
<rect x="192" y="90" width="290" height="5" fill="#00f"><title>9.0</title></rect>
<rect x="144" y="95" width="79" height="5" fill="#f0f"><title>7.0</title></rect>
<rect x="192" y="100" width="305" height="5" fill="#00f"><title>4.0</title></rect>
<rect x="256" y="105" width="86" height="5" fill="#00f"><title>4.0</title></rect>
<text x="20" y="135" class="sm">0.9999</text>
<rect x="100" y="125" width="156" height="12" fill="#00f"/>
<rect x="356" y="125" width="265" height="12" fill="#00f"/>
<line x1="256" y1="131" x2="355" y2="131" stroke="#00f"/>
<rect x="104" y="126" width="152" height="10" fill="#ff0"/>
<rect x="357" y="126" width="158" height="10" fill="#ff0"/>
<text x="20" y="155" class="sm">4.704e-05</text>
<rect x="100" y="145" width="203" height="12" fill="#00f"/>
<rect x="356" y="145" width="265" height="12" fill="#00f"/>
<line x1="303" y1="151" x2="355" y2="151" stroke="#00f"/>
<rect x="104" y="146" width="185" height="10" fill="#ff0"/>
<text x="20" y="175" class="sm">4.321e-05</text>
<rect x="100" y="165" width="145" height="12" fill="#00f"/>
<rect x="356" y="165" width="265" height="12" fill="#00f"/>
<line x1="245" y1="171" x2="355" y2="171" stroke="#00f"/>
<rect x="243" y="166" width="2" height="10" fill="#ff0"/>
<rect x="357" y="166" width="158" height="10" fill="#ff0"/>
<text x="20" y="195" class="sm">1.775e-05</text>
<rect x="100" y="185" width="138" height="12" fill="#00f"/>
<rect x="356" y="185" width="265" height="12" fill="#00f"/>
<line x1="238" y1="191" x2="355" y2="191" stroke="#00f"/>
<rect x="104" y="186" width="134" height="10" fill="#ff0"/>
<rect x="357" y="186" width="158" height="10" fill="#ff0"/>
<text x="20" y="215" class="sm">8.976e-06</text>
<rect x="100" y="205" width="385" height="12" fill="#00f"/>
<rect x="579" y="205" width="42" height="12" fill="#00f"/>
<line x1="485" y1="211" x2="578" y2="211" stroke="#00f"/>
<rect x="104" y="206" width="185" height="10" fill="#ff0"/>
<text x="20" y="235" class="sm">4.794e-06</text>
<rect x="100" y="225" width="423" height="12" fill="#00f"/>
<rect x="579" y="225" width="42" height="12" fill="#00f"/>
<line x1="523" y1="231" x2="578" y2="231" stroke="#00f"/>
<rect x="104" y="226" width="185" height="10" fill="#ff0"/>
<text x="20" y="255" class="sm">2.463e-06</text>
<rect x="100" y="245" width="156" height="12" fill="#00f"/>
<rect x="337" y="245" width="284" height="12" fill="#00f"/>
<line x1="256" y1="251" x2="336" y2="251" stroke="#00f"/>
<rect x="243" y="246" width="13" height="10" fill="#ff0"/>
<rect x="338" y="246" width="177" height="10" fill="#ff0"/>
<text x="20" y="275" class="sm">1.469e-06</text>
<rect x="100" y="265" width="206" height="12" fill="#00f"/>
<rect x="356" y="265" width="265" height="12" fill="#00f"/>
<line x1="306" y1="271" x2="355" y2="271" stroke="#00f"/>
<rect x="104" y="266" width="185" height="10" fill="#ff0"/>
<text x="20" y="295" class="sm">6.235e-07</text>
<rect x="100" y="285" width="425" height="12" fill="#00f"/>
<rect x="579" y="285" width="42" height="12" fill="#00f"/>
<line x1="525" y1="291" x2="578" y2="291" stroke="#00f"/>
<rect x="104" y="286" width="185" height="10" fill="#ff0"/>
<text x="20" y="315" class="sm">2.358e-07</text>
<rect x="100" y="305" width="385" height="12" fill="#00f"/>
<rect x="581" y="305" width="40" height="12" fill="#00f"/>
<line x1="485" y1="311" x2="580" y2="311" stroke="#00f"/>
<rect x="104" y="306" width="185" height="10" fill="#ff0"/>
<text x="20" y="335" class="sm">1.915e-07</text>
<rect x="100" y="325" width="423" height="12" fill="#00f"/>
<rect x="581" y="325" width="40" height="12" fill="#00f"/>
<line x1="523" y1="331" x2="580" y2="331" stroke="#00f"/>
<rect x="104" y="326" width="185" height="10" fill="#ff0"/>
<text x="20" y="355" class="sm">1.568e-07</text>
<rect x="100" y="345" width="387" height="12" fill="#00f"/>
<rect x="579" y="345" width="42" height="12" fill="#00f"/>
<line x1="487" y1="351" x2="578" y2="351" stroke="#00f"/>
<rect x="104" y="346" width="185" height="10" fill="#ff0"/>
<text x="20" y="375" class="sm">1.301e-07</text>
<rect x="100" y="365" width="208" height="12" fill="#00f"/>
<rect x="356" y="365" width="265" height="12" fill="#00f"/>
<line x1="308" y1="371" x2="355" y2="371" stroke="#00f"/>
<rect x="243" y="366" width="65" height="10" fill="#ff0"/>
<rect x="357" y="366" width="158" height="10" fill="#ff0"/>
<text x="20" y="395" class="sm">8.752e-08</text>
<rect x="100" y="385" width="156" height="12" fill="#00f"/>
<rect x="371" y="385" width="250" height="12" fill="#00f"/>
<line x1="256" y1="391" x2="370" y2="391" stroke="#00f"/>
<rect x="104" y="386" width="152" height="10" fill="#ff0"/>
<rect x="372" y="386" width="143" height="10" fill="#ff0"/>
<text x="20" y="415" class="sm">6.857e-08</text>
<rect x="100" y="405" width="156" height="12" fill="#00f"/>
<rect x="317" y="405" width="304" height="12" fill="#00f"/>
<line x1="256" y1="411" x2="316" y2="411" stroke="#00f"/>
<rect x="104" y="406" width="152" height="10" fill="#ff0"/>
<rect x="318" y="406" width="8" height="10" fill="#ff0"/>
<text x="20" y="435" class="sm">4.659e-08</text>
<rect x="100" y="425" width="156" height="12" fill="#00f"/>
<rect x="342" y="425" width="279" height="12" fill="#00f"/>
<line x1="256" y1="431" x2="341" y2="431" stroke="#00f"/>
<rect x="104" y="426" width="152" height="10" fill="#ff0"/>
<rect x="343" y="426" width="86" height="10" fill="#ff0"/>
<text x="20" y="455" class="sm">2.515e-08</text>
<rect x="100" y="445" width="425" height="12" fill="#00f"/>
<rect x="581" y="445" width="40" height="12" fill="#00f"/>
<line x1="525" y1="451" x2="580" y2="451" stroke="#00f"/>
<rect x="104" y="446" width="185" height="10" fill="#ff0"/>
<text x="20" y="475" class="sm">5.828e-09</text>
<rect x="100" y="465" width="113" height="12" fill="#00f"/>
<rect x="356" y="465" width="265" height="12" fill="#00f"/>
<line x1="213" y1="471" x2="355" y2="471" stroke="#00f"/>
<rect x="184" y="466" width="29" height="10" fill="#ff0"/>
<rect x="357" y="466" width="158" height="10" fill="#ff0"/>
<text x="20" y="495" class="sm">5.467e-09</text>
<rect x="100" y="485" width="156" height="12" fill="#00f"/>
<rect x="377" y="485" width="244" height="12" fill="#00f"/>
<line x1="256" y1="491" x2="376" y2="491" stroke="#00f"/>
<rect x="104" y="486" width="152" height="10" fill="#ff0"/>
<rect x="378" y="486" width="137" height="10" fill="#ff0"/>
<text x="20" y="515" class="sm">4.116e-09</text>
<rect x="100" y="505" width="387" height="12" fill="#00f"/>
<rect x="581" y="505" width="40" height="12" fill="#00f"/>
<line x1="487" y1="511" x2="580" y2="511" stroke="#00f"/>
<rect x="104" y="506" width="185" height="10" fill="#ff0"/>
</svg>
