<svg viewBox="0 0 1016 550" xmlns="http://www.w3.org/2000/svg">

<style>
  .sm { font: 12px sans-serif; }
  .lg { font: 15px sans-serif; }
</style>
<rect fill="#ddd" x="0" y="0" width="100%" height="100%"/>
<text x="20" y="20" class="lg">ch.19125 X:10094330-10095345 Gene:WBGene00001445</text>
<text x="20" y="50" class="sm">WormBase</text>
<rect x="123" y="40" width="344" height="12" fill="#00f"/>
<rect x="673" y="40" width="245" height="12" fill="#00f"/>
<line x1="467" y1="46" x2="672" y2="46" stroke="#00f"/>
<rect x="193" y="41" width="274" height="10" fill="#ff0"/>
<rect x="674" y="41" width="45" height="10" fill="#ff0"/>
<rect x="124" y="41" width="68" height="10" fill="brown"><title>.</title></rect>
<rect x="720" y="41" width="198" height="10" fill="brown"><title>.</title></rect>
<text x="20" y="70" class="sm">WormBase</text>
<rect x="102" y="60" width="144" height="12" fill="#00f"/>
<rect x="339" y="60" width="128" height="12" fill="#00f"/>
<rect x="673" y="60" width="245" height="12" fill="#00f"/>
<line x1="246" y1="66" x2="338" y2="66" stroke="#00f"/>
<line x1="467" y1="66" x2="672" y2="66" stroke="#00f"/>
<rect x="193" y="61" width="53" height="10" fill="#ff0"/>
<rect x="340" y="61" width="127" height="10" fill="#ff0"/>
<rect x="674" y="61" width="45" height="10" fill="#ff0"/>
<rect x="103" y="61" width="89" height="10" fill="brown"><title>.</title></rect>
<rect x="720" y="61" width="198" height="10" fill="brown"><title>.</title></rect>
<text x="20" y="90" class="sm">Fitness: 0.2925915313631491</text>
<rect x="467" y="85" width="206" height="5" fill="#00f"><title>130058.0</title></rect>
<rect x="246" y="90" width="93" height="5" fill="#00f"><title>106483.0</title></rect>
<rect x="446" y="95" width="307" height="5" fill="#f0f"><title>26.0</title></rect>
<rect x="246" y="100" width="82" height="5" fill="#00f"><title>26.0</title></rect>
<rect x="246" y="105" width="154" height="5" fill="#00f"><title>16.0</title></rect>
<rect x="246" y="110" width="53" height="5" fill="#00f"><title>3.0</title></rect>
<text x="20" y="140" class="sm">0.7237</text>
<rect x="100" y="130" width="146" height="12" fill="#00f"/>
<rect x="339" y="130" width="128" height="12" fill="#00f"/>
<rect x="673" y="130" width="246" height="12" fill="#00f"/>
<line x1="246" y1="136" x2="338" y2="136" stroke="#00f"/>
<line x1="467" y1="136" x2="672" y2="136" stroke="#00f"/>
<rect x="193" y="131" width="53" height="10" fill="#ff0"/>
<rect x="340" y="131" width="127" height="10" fill="#ff0"/>
<rect x="674" y="131" width="45" height="10" fill="#ff0"/>
<text x="20" y="160" class="sm">0.1271</text>
<rect x="100" y="150" width="146" height="12" fill="#00f"/>
<rect x="339" y="150" width="132" height="12" fill="#00f"/>
<rect x="673" y="150" width="246" height="12" fill="#00f"/>
<line x1="246" y1="156" x2="338" y2="156" stroke="#00f"/>
<line x1="471" y1="156" x2="672" y2="156" stroke="#00f"/>
<rect x="193" y="151" width="53" height="10" fill="#ff0"/>
<rect x="340" y="151" width="131" height="10" fill="#ff0"/>
<text x="20" y="180" class="sm">0.04761</text>
<rect x="100" y="170" width="146" height="12" fill="#00f"/>
<rect x="400" y="170" width="67" height="12" fill="#00f"/>
<rect x="673" y="170" width="246" height="12" fill="#00f"/>
<line x1="246" y1="176" x2="399" y2="176" stroke="#00f"/>
<line x1="467" y1="176" x2="672" y2="176" stroke="#00f"/>
<rect x="193" y="171" width="53" height="10" fill="#ff0"/>
<rect x="401" y="171" width="66" height="10" fill="#ff0"/>
<rect x="674" y="171" width="106" height="10" fill="#ff0"/>
<text x="20" y="200" class="sm">0.04338</text>
<rect x="100" y="190" width="146" height="12" fill="#00f"/>
<rect x="339" y="190" width="128" height="12" fill="#00f"/>
<rect x="644" y="190" width="275" height="12" fill="#00f"/>
<line x1="246" y1="196" x2="338" y2="196" stroke="#00f"/>
<line x1="467" y1="196" x2="643" y2="196" stroke="#00f"/>
<rect x="193" y="191" width="53" height="10" fill="#ff0"/>
<rect x="340" y="191" width="127" height="10" fill="#ff0"/>
<rect x="645" y="191" width="135" height="10" fill="#ff0"/>
<text x="20" y="220" class="sm">0.01211</text>
<rect x="100" y="210" width="146" height="12" fill="#00f"/>
<rect x="309" y="210" width="158" height="12" fill="#00f"/>
<rect x="673" y="210" width="246" height="12" fill="#00f"/>
<line x1="246" y1="216" x2="308" y2="216" stroke="#00f"/>
<line x1="467" y1="216" x2="672" y2="216" stroke="#00f"/>
<rect x="193" y="211" width="53" height="10" fill="#ff0"/>
<rect x="310" y="211" width="157" height="10" fill="#ff0"/>
<rect x="674" y="211" width="45" height="10" fill="#ff0"/>
<text x="20" y="240" class="sm">0.01187</text>
<rect x="100" y="230" width="367" height="12" fill="#00f"/>
<rect x="673" y="230" width="246" height="12" fill="#00f"/>
<line x1="467" y1="236" x2="672" y2="236" stroke="#00f"/>
<rect x="193" y="231" width="274" height="10" fill="#ff0"/>
<rect x="674" y="231" width="45" height="10" fill="#ff0"/>
<text x="20" y="260" class="sm">0.009033</text>
<rect x="100" y="250" width="146" height="12" fill="#00f"/>
<rect x="400" y="250" width="71" height="12" fill="#00f"/>
<rect x="673" y="250" width="246" height="12" fill="#00f"/>
<line x1="246" y1="256" x2="399" y2="256" stroke="#00f"/>
<line x1="471" y1="256" x2="672" y2="256" stroke="#00f"/>
<rect x="193" y="251" width="53" height="10" fill="#ff0"/>
<rect x="401" y="251" width="70" height="10" fill="#ff0"/>
<rect x="674" y="251" width="45" height="10" fill="#ff0"/>
<text x="20" y="280" class="sm">0.007475</text>
<rect x="100" y="270" width="146" height="12" fill="#00f"/>
<rect x="339" y="270" width="132" height="12" fill="#00f"/>
<rect x="644" y="270" width="275" height="12" fill="#00f"/>
<line x1="246" y1="276" x2="338" y2="276" stroke="#00f"/>
<line x1="471" y1="276" x2="643" y2="276" stroke="#00f"/>
<rect x="193" y="271" width="53" height="10" fill="#ff0"/>
<rect x="340" y="271" width="131" height="10" fill="#ff0"/>
<text x="20" y="300" class="sm">0.005324</text>
<rect x="100" y="290" width="146" height="12" fill="#00f"/>
<rect x="357" y="290" width="110" height="12" fill="#00f"/>
<rect x="673" y="290" width="246" height="12" fill="#00f"/>
<line x1="246" y1="296" x2="356" y2="296" stroke="#00f"/>
<line x1="467" y1="296" x2="672" y2="296" stroke="#00f"/>
<rect x="193" y="291" width="53" height="10" fill="#ff0"/>
<rect x="358" y="291" width="109" height="10" fill="#ff0"/>
<rect x="674" y="291" width="45" height="10" fill="#ff0"/>
<text x="20" y="320" class="sm">0.002854</text>
<rect x="100" y="310" width="146" height="12" fill="#00f"/>
<rect x="400" y="310" width="67" height="12" fill="#00f"/>
<rect x="644" y="310" width="275" height="12" fill="#00f"/>
<line x1="246" y1="316" x2="399" y2="316" stroke="#00f"/>
<line x1="467" y1="316" x2="643" y2="316" stroke="#00f"/>
<rect x="403" y="311" width="64" height="10" fill="#ff0"/>
<rect x="645" y="311" width="135" height="10" fill="#ff0"/>
<text x="20" y="340" class="sm">0.002094</text>
<rect x="100" y="330" width="146" height="12" fill="#00f"/>
<rect x="309" y="330" width="162" height="12" fill="#00f"/>
<rect x="673" y="330" width="246" height="12" fill="#00f"/>
<line x1="246" y1="336" x2="308" y2="336" stroke="#00f"/>
<line x1="471" y1="336" x2="672" y2="336" stroke="#00f"/>
<rect x="193" y="331" width="53" height="10" fill="#ff0"/>
<rect x="310" y="331" width="161" height="10" fill="#ff0"/>
<text x="20" y="360" class="sm">0.001959</text>
<rect x="100" y="350" width="371" height="12" fill="#00f"/>
<rect x="673" y="350" width="246" height="12" fill="#00f"/>
<line x1="471" y1="356" x2="672" y2="356" stroke="#00f"/>
<rect x="193" y="351" width="278" height="10" fill="#ff0"/>
<text x="20" y="380" class="sm">0.0008938</text>
<rect x="100" y="370" width="146" height="12" fill="#00f"/>
<rect x="357" y="370" width="114" height="12" fill="#00f"/>
<rect x="673" y="370" width="246" height="12" fill="#00f"/>
<line x1="246" y1="376" x2="356" y2="376" stroke="#00f"/>
<line x1="471" y1="376" x2="672" y2="376" stroke="#00f"/>
<rect x="193" y="371" width="53" height="10" fill="#ff0"/>
<rect x="358" y="371" width="113" height="10" fill="#ff0"/>
<text x="20" y="400" class="sm">0.0008659</text>
<rect x="100" y="390" width="146" height="12" fill="#00f"/>
<rect x="299" y="390" width="168" height="12" fill="#00f"/>
<rect x="673" y="390" width="246" height="12" fill="#00f"/>
<line x1="246" y1="396" x2="298" y2="396" stroke="#00f"/>
<line x1="467" y1="396" x2="672" y2="396" stroke="#00f"/>
<rect x="193" y="391" width="53" height="10" fill="#ff0"/>
<rect x="300" y="391" width="167" height="10" fill="#ff0"/>
<rect x="674" y="391" width="62" height="10" fill="#ff0"/>
<text x="20" y="420" class="sm">0.0008632</text>
<rect x="100" y="410" width="146" height="12" fill="#00f"/>
<rect x="361" y="410" width="106" height="12" fill="#00f"/>
<rect x="673" y="410" width="246" height="12" fill="#00f"/>
<line x1="246" y1="416" x2="360" y2="416" stroke="#00f"/>
<line x1="467" y1="416" x2="672" y2="416" stroke="#00f"/>
<rect x="193" y="411" width="53" height="10" fill="#ff0"/>
<rect x="362" y="411" width="105" height="10" fill="#ff0"/>
<rect x="674" y="411" width="106" height="10" fill="#ff0"/>
<text x="20" y="440" class="sm">0.0007258</text>
<rect x="100" y="430" width="146" height="12" fill="#00f"/>
<rect x="309" y="430" width="158" height="12" fill="#00f"/>
<rect x="644" y="430" width="275" height="12" fill="#00f"/>
<line x1="246" y1="436" x2="308" y2="436" stroke="#00f"/>
<line x1="467" y1="436" x2="643" y2="436" stroke="#00f"/>
<rect x="193" y="431" width="53" height="10" fill="#ff0"/>
<rect x="310" y="431" width="157" height="10" fill="#ff0"/>
<rect x="645" y="431" width="135" height="10" fill="#ff0"/>
<text x="20" y="460" class="sm">0.0007117</text>
<rect x="100" y="450" width="367" height="12" fill="#00f"/>
<rect x="644" y="450" width="275" height="12" fill="#00f"/>
<line x1="467" y1="456" x2="643" y2="456" stroke="#00f"/>
<rect x="193" y="451" width="274" height="10" fill="#ff0"/>
<rect x="645" y="451" width="135" height="10" fill="#ff0"/>
<text x="20" y="480" class="sm">0.0005519</text>
<rect x="100" y="470" width="146" height="12" fill="#00f"/>
<rect x="339" y="470" width="128" height="12" fill="#00f"/>
<rect x="702" y="470" width="217" height="12" fill="#00f"/>
<line x1="246" y1="476" x2="338" y2="476" stroke="#00f"/>
<line x1="467" y1="476" x2="701" y2="476" stroke="#00f"/>
<rect x="193" y="471" width="53" height="10" fill="#ff0"/>
<rect x="340" y="471" width="127" height="10" fill="#ff0"/>
<rect x="703" y="471" width="33" height="10" fill="#ff0"/>
<text x="20" y="500" class="sm">0.0005313</text>
<rect x="100" y="490" width="146" height="12" fill="#00f"/>
<rect x="400" y="490" width="71" height="12" fill="#00f"/>
<rect x="644" y="490" width="275" height="12" fill="#00f"/>
<line x1="246" y1="496" x2="399" y2="496" stroke="#00f"/>
<line x1="471" y1="496" x2="643" y2="496" stroke="#00f"/>
<rect x="193" y="491" width="53" height="10" fill="#ff0"/>
<rect x="401" y="491" width="70" height="10" fill="#ff0"/>
<rect x="645" y="491" width="135" height="10" fill="#ff0"/>
<text x="20" y="520" class="sm">0.0003532</text>
<rect x="100" y="510" width="146" height="12" fill="#00f"/>
<rect x="339" y="510" width="128" height="12" fill="#00f"/>
<rect x="673" y="510" width="74" height="12" fill="#00f"/>
<rect x="880" y="510" width="39" height="12" fill="#00f"/>
<line x1="246" y1="516" x2="338" y2="516" stroke="#00f"/>
<line x1="467" y1="516" x2="672" y2="516" stroke="#00f"/>
<line x1="747" y1="516" x2="879" y2="516" stroke="#00f"/>
<rect x="193" y="511" width="53" height="10" fill="#ff0"/>
<rect x="340" y="511" width="127" height="10" fill="#ff0"/>
<rect x="674" y="511" width="45" height="10" fill="#ff0"/>
</svg>
