<svg viewBox="0 0 925 565" xmlns="http://www.w3.org/2000/svg">

<style>
  .sm { font: 12px sans-serif; }
  .lg { font: 15px sans-serif; }
</style>
<rect fill="#ddd" x="0" y="0" width="100%" height="100%"/>
<text x="20" y="20" class="lg">ch.10908 IV:9321701-9322625 Gene:WBGene00009882</text>
<text x="20" y="50" class="sm">WormBase</text>
<rect x="100" y="40" width="100" height="12" fill="#00f"/>
<rect x="248" y="40" width="59" height="12" fill="#00f"/>
<rect x="430" y="40" width="395" height="12" fill="#00f"/>
<line x1="200" y1="46" x2="247" y2="46" stroke="#00f"/>
<line x1="307" y1="46" x2="429" y2="46" stroke="#00f"/>
<rect x="107" y="41" width="93" height="10" fill="#ff0"/>
<rect x="249" y="41" width="58" height="10" fill="#ff0"/>
<rect x="431" y="41" width="107" height="10" fill="#ff0"/>
<rect x="101" y="41" width="5" height="10" fill="brown"><title>.</title></rect>
<rect x="539" y="41" width="286" height="10" fill="brown"><title>.</title></rect>
<text x="20" y="70" class="sm">Fitness: 0.11189021330043263</text>
<rect x="307" y="65" width="123" height="5" fill="#00f"><title>1803020.0</title></rect>
<rect x="200" y="70" width="48" height="5" fill="#00f"><title>1463260.0</title></rect>
<rect x="200" y="75" width="230" height="5" fill="#00f"><title>41.0</title></rect>
<rect x="486" y="80" width="224" height="5" fill="#00f"><title>9.0</title></rect>
<rect x="489" y="85" width="224" height="5" fill="#00f"><title>7.0</title></rect>
<rect x="485" y="90" width="31" height="5" fill="#00f"><title>5.0</title></rect>
<rect x="555" y="95" width="45" height="5" fill="#f0f"><title>5.0</title></rect>
<rect x="475" y="100" width="48" height="5" fill="#00f"><title>4.0</title></rect>
<rect x="307" y="105" width="77" height="5" fill="#00f"><title>3.0</title></rect>
<rect x="307" y="110" width="522" height="5" fill="#00f"><title>3.0</title></rect>
<rect x="477" y="115" width="115" height="5" fill="#00f"><title>3.0</title></rect>
<rect x="514" y="120" width="75" height="5" fill="#00f"><title>3.0</title></rect>
<rect x="541" y="125" width="32" height="5" fill="#00f"><title>3.0</title></rect>
<text x="20" y="155" class="sm">0.521</text>
<rect x="100" y="145" width="207" height="12" fill="#00f"/>
<rect x="430" y="145" width="398" height="12" fill="#00f"/>
<line x1="307" y1="151" x2="429" y2="151" stroke="#00f"/>
<rect x="107" y="146" width="200" height="10" fill="#ff0"/>
<rect x="431" y="146" width="107" height="10" fill="#ff0"/>
<text x="20" y="175" class="sm">0.4238</text>
<rect x="100" y="165" width="100" height="12" fill="#00f"/>
<rect x="248" y="165" width="580" height="12" fill="#00f"/>
<line x1="200" y1="171" x2="247" y2="171" stroke="#00f"/>
<rect x="107" y="166" width="93" height="10" fill="#ff0"/>
<rect x="249" y="166" width="172" height="10" fill="#ff0"/>
<text x="20" y="195" class="sm">0.01413</text>
<rect x="100" y="185" width="551" height="12" fill="#00f"/>
<rect x="725" y="185" width="103" height="12" fill="#00f"/>
<line x1="651" y1="191" x2="724" y2="191" stroke="#00f"/>
<rect x="107" y="186" width="314" height="10" fill="#ff0"/>
<text x="20" y="215" class="sm">0.01097</text>
<rect x="100" y="205" width="509" height="12" fill="#00f"/>
<rect x="683" y="205" width="145" height="12" fill="#00f"/>
<line x1="609" y1="211" x2="682" y2="211" stroke="#00f"/>
<rect x="107" y="206" width="314" height="10" fill="#ff0"/>
<text x="20" y="235" class="sm">0.01082</text>
<rect x="100" y="225" width="236" height="12" fill="#00f"/>
<rect x="430" y="225" width="398" height="12" fill="#00f"/>
<line x1="336" y1="231" x2="429" y2="231" stroke="#00f"/>
<rect x="107" y="226" width="229" height="10" fill="#ff0"/>
<rect x="431" y="226" width="18" height="10" fill="#ff0"/>
<text x="20" y="255" class="sm">0.004782</text>
<rect x="100" y="245" width="423" height="12" fill="#00f"/>
<rect x="683" y="245" width="145" height="12" fill="#00f"/>
<line x1="523" y1="251" x2="682" y2="251" stroke="#00f"/>
<rect x="107" y="246" width="314" height="10" fill="#ff0"/>
<text x="20" y="275" class="sm">0.003794</text>
<rect x="100" y="265" width="207" height="12" fill="#00f"/>
<rect x="683" y="265" width="145" height="12" fill="#00f"/>
<line x1="307" y1="271" x2="682" y2="271" stroke="#00f"/>
<rect x="107" y="266" width="200" height="10" fill="#ff0"/>
<rect x="684" y="266" width="80" height="10" fill="#ff0"/>
<text x="20" y="295" class="sm">0.00289</text>
<rect x="100" y="285" width="509" height="12" fill="#00f"/>
<rect x="725" y="285" width="103" height="12" fill="#00f"/>
<line x1="609" y1="291" x2="724" y2="291" stroke="#00f"/>
<rect x="107" y="286" width="314" height="10" fill="#ff0"/>
<text x="20" y="315" class="sm">0.001999</text>
<rect x="100" y="305" width="207" height="12" fill="#00f"/>
<rect x="725" y="305" width="103" height="12" fill="#00f"/>
<line x1="307" y1="311" x2="724" y2="311" stroke="#00f"/>
<rect x="107" y="306" width="200" height="10" fill="#ff0"/>
<rect x="726" y="306" width="38" height="10" fill="#ff0"/>
<text x="20" y="335" class="sm">0.001781</text>
<rect x="100" y="325" width="423" height="12" fill="#00f"/>
<rect x="725" y="325" width="103" height="12" fill="#00f"/>
<line x1="523" y1="331" x2="724" y2="331" stroke="#00f"/>
<rect x="107" y="326" width="314" height="10" fill="#ff0"/>
<text x="20" y="355" class="sm">0.0005764</text>
<rect x="100" y="345" width="180" height="12" fill="#00f"/>
<rect x="430" y="345" width="398" height="12" fill="#00f"/>
<line x1="280" y1="351" x2="429" y2="351" stroke="#00f"/>
<rect x="107" y="346" width="173" height="10" fill="#ff0"/>
<rect x="431" y="346" width="107" height="10" fill="#ff0"/>
<text x="20" y="375" class="sm">0.0005612</text>
<rect x="100" y="365" width="211" height="12" fill="#00f"/>
<rect x="430" y="365" width="398" height="12" fill="#00f"/>
<line x1="311" y1="371" x2="429" y2="371" stroke="#00f"/>
<rect x="107" y="366" width="204" height="10" fill="#ff0"/>
<rect x="431" y="366" width="70" height="10" fill="#ff0"/>
<text x="20" y="395" class="sm">0.0005551</text>
<rect x="100" y="385" width="375" height="12" fill="#00f"/>
<rect x="683" y="385" width="145" height="12" fill="#00f"/>
<line x1="475" y1="391" x2="682" y2="391" stroke="#00f"/>
<rect x="107" y="386" width="314" height="10" fill="#ff0"/>
<text x="20" y="415" class="sm">0.0005237</text>
<rect x="100" y="405" width="207" height="12" fill="#00f"/>
<rect x="384" y="405" width="444" height="12" fill="#00f"/>
<line x1="307" y1="411" x2="383" y2="411" stroke="#00f"/>
<rect x="107" y="406" width="200" height="10" fill="#ff0"/>
<rect x="385" y="406" width="5" height="10" fill="#ff0"/>
<text x="20" y="435" class="sm">0.0004895</text>
<rect x="100" y="425" width="78" height="12" fill="#00f"/>
<rect x="248" y="425" width="580" height="12" fill="#00f"/>
<line x1="178" y1="431" x2="247" y2="431" stroke="#00f"/>
<rect x="263" y="426" width="158" height="10" fill="#ff0"/>
<text x="20" y="455" class="sm">0.0004146</text>
<rect x="100" y="445" width="518" height="12" fill="#00f"/>
<rect x="683" y="445" width="145" height="12" fill="#00f"/>
<line x1="618" y1="451" x2="682" y2="451" stroke="#00f"/>
<rect x="107" y="446" width="314" height="10" fill="#ff0"/>
<text x="20" y="475" class="sm">0.0002611</text>
<rect x="100" y="465" width="375" height="12" fill="#00f"/>
<rect x="725" y="465" width="103" height="12" fill="#00f"/>
<line x1="475" y1="471" x2="724" y2="471" stroke="#00f"/>
<rect x="107" y="466" width="314" height="10" fill="#ff0"/>
<text x="20" y="495" class="sm">0.0002607</text>
<rect x="100" y="485" width="236" height="12" fill="#00f"/>
<rect x="384" y="485" width="444" height="12" fill="#00f"/>
<line x1="336" y1="491" x2="383" y2="491" stroke="#00f"/>
<rect x="107" y="486" width="229" height="10" fill="#ff0"/>
<rect x="385" y="486" width="36" height="10" fill="#ff0"/>
<text x="20" y="515" class="sm">0.0002389</text>
<rect x="100" y="505" width="255" height="12" fill="#00f"/>
<rect x="430" y="505" width="398" height="12" fill="#00f"/>
<line x1="355" y1="511" x2="429" y2="511" stroke="#00f"/>
<rect x="107" y="506" width="248" height="10" fill="#ff0"/>
<rect x="431" y="506" width="107" height="10" fill="#ff0"/>
<text x="20" y="535" class="sm">0.0001682</text>
<rect x="100" y="525" width="551" height="12" fill="#00f"/>
<rect x="774" y="525" width="54" height="12" fill="#00f"/>
<line x1="651" y1="531" x2="773" y2="531" stroke="#00f"/>
<rect x="107" y="526" width="314" height="10" fill="#ff0"/>
</svg>
