<svg viewBox="0 0 919 545" xmlns="http://www.w3.org/2000/svg">

<style>
  .sm { font: 12px sans-serif; }
  .lg { font: 15px sans-serif; }
</style>
<rect fill="#ddd" x="0" y="0" width="100%" height="100%"/>
<text x="20" y="20" class="lg">ch.11959 IV:13783862-13784780 Gene:WBGene00012885</text>
<text x="20" y="50" class="sm">WormBase</text>
<rect x="100" y="40" width="103" height="12" fill="#00f"/>
<rect x="261" y="40" width="120" height="12" fill="#00f"/>
<rect x="444" y="40" width="184" height="12" fill="#00f"/>
<rect x="682" y="40" width="137" height="12" fill="#00f"/>
<line x1="203" y1="46" x2="260" y2="46" stroke="#00f"/>
<line x1="381" y1="46" x2="443" y2="46" stroke="#00f"/>
<line x1="628" y1="46" x2="681" y2="46" stroke="#00f"/>
<rect x="114" y="41" width="89" height="10" fill="#ff0"/>
<rect x="262" y="41" width="119" height="10" fill="#ff0"/>
<rect x="445" y="41" width="183" height="10" fill="#ff0"/>
<rect x="683" y="41" width="67" height="10" fill="#ff0"/>
<rect x="101" y="41" width="12" height="10" fill="brown"><title>.</title></rect>
<rect x="751" y="41" width="68" height="10" fill="brown"><title>.</title></rect>
<text x="20" y="70" class="sm">Fitness: 0.06720359272787352</text>
<rect x="628" y="65" width="54" height="5" fill="#00f"><title>776973.0</title></rect>
<rect x="381" y="70" width="63" height="5" fill="#00f"><title>749036.0</title></rect>
<rect x="203" y="75" width="58" height="5" fill="#00f"><title>653258.0</title></rect>
<rect x="381" y="80" width="47" height="5" fill="#00f"><title>126.0</title></rect>
<rect x="46" y="85" width="54" height="5" fill="#00f"><title>40.0</title></rect>
<rect x="622" y="90" width="60" height="5" fill="#00f"><title>23.0</title></rect>
<rect x="385" y="95" width="59" height="5" fill="#00f"><title>12.0</title></rect>
<rect x="381" y="100" width="91" height="5" fill="#00f"><title>6.0</title></rect>
<rect x="500" y="105" width="84" height="5" fill="#00f"><title>3.0</title></rect>
<text x="20" y="135" class="sm">0.9999</text>
<rect x="100" y="125" width="103" height="12" fill="#00f"/>
<rect x="261" y="125" width="120" height="12" fill="#00f"/>
<rect x="444" y="125" width="184" height="12" fill="#00f"/>
<rect x="682" y="125" width="140" height="12" fill="#00f"/>
<line x1="203" y1="131" x2="260" y2="131" stroke="#00f"/>
<line x1="381" y1="131" x2="443" y2="131" stroke="#00f"/>
<line x1="628" y1="131" x2="681" y2="131" stroke="#00f"/>
<rect x="114" y="126" width="89" height="10" fill="#ff0"/>
<rect x="262" y="126" width="119" height="10" fill="#ff0"/>
<rect x="445" y="126" width="183" height="10" fill="#ff0"/>
<rect x="683" y="126" width="67" height="10" fill="#ff0"/>
<text x="20" y="155" class="sm">4.266e-05</text>
<rect x="100" y="145" width="57" height="12" fill="#00f"/>
<rect x="261" y="145" width="120" height="12" fill="#00f"/>
<rect x="444" y="145" width="184" height="12" fill="#00f"/>
<rect x="682" y="145" width="140" height="12" fill="#00f"/>
<line x1="157" y1="151" x2="260" y2="151" stroke="#00f"/>
<line x1="381" y1="151" x2="443" y2="151" stroke="#00f"/>
<line x1="628" y1="151" x2="681" y2="151" stroke="#00f"/>
<rect x="364" y="146" width="17" height="10" fill="#ff0"/>
<rect x="445" y="146" width="183" height="10" fill="#ff0"/>
<rect x="683" y="146" width="67" height="10" fill="#ff0"/>
<text x="20" y="175" class="sm">9.566e-06</text>
<rect x="100" y="165" width="103" height="12" fill="#00f"/>
<rect x="261" y="165" width="120" height="12" fill="#00f"/>
<rect x="428" y="165" width="200" height="12" fill="#00f"/>
<rect x="682" y="165" width="140" height="12" fill="#00f"/>
<line x1="203" y1="171" x2="260" y2="171" stroke="#00f"/>
<line x1="381" y1="171" x2="427" y2="171" stroke="#00f"/>
<line x1="628" y1="171" x2="681" y2="171" stroke="#00f"/>
<rect x="114" y="166" width="89" height="10" fill="#ff0"/>
<rect x="262" y="166" width="119" height="10" fill="#ff0"/>
<rect x="429" y="166" width="26" height="10" fill="#ff0"/>
<text x="20" y="195" class="sm">6.092e-06</text>
<rect x="100" y="185" width="90" height="12" fill="#00f"/>
<rect x="261" y="185" width="120" height="12" fill="#00f"/>
<rect x="444" y="185" width="184" height="12" fill="#00f"/>
<rect x="682" y="185" width="140" height="12" fill="#00f"/>
<line x1="190" y1="191" x2="260" y2="191" stroke="#00f"/>
<line x1="381" y1="191" x2="443" y2="191" stroke="#00f"/>
<line x1="628" y1="191" x2="681" y2="191" stroke="#00f"/>
<rect x="364" y="186" width="17" height="10" fill="#ff0"/>
<rect x="445" y="186" width="183" height="10" fill="#ff0"/>
<rect x="683" y="186" width="67" height="10" fill="#ff0"/>
<text x="20" y="215" class="sm">4.097e-07</text>
<rect x="100" y="205" width="57" height="12" fill="#00f"/>
<rect x="225" y="205" width="156" height="12" fill="#00f"/>
<rect x="444" y="205" width="184" height="12" fill="#00f"/>
<rect x="682" y="205" width="140" height="12" fill="#00f"/>
<line x1="157" y1="211" x2="224" y2="211" stroke="#00f"/>
<line x1="381" y1="211" x2="443" y2="211" stroke="#00f"/>
<line x1="628" y1="211" x2="681" y2="211" stroke="#00f"/>
<rect x="364" y="206" width="17" height="10" fill="#ff0"/>
<rect x="445" y="206" width="183" height="10" fill="#ff0"/>
<rect x="683" y="206" width="67" height="10" fill="#ff0"/>
<text x="20" y="235" class="sm">2.923e-07</text>
<rect x="100" y="225" width="107" height="12" fill="#00f"/>
<rect x="261" y="225" width="120" height="12" fill="#00f"/>
<rect x="444" y="225" width="184" height="12" fill="#00f"/>
<rect x="682" y="225" width="140" height="12" fill="#00f"/>
<line x1="207" y1="231" x2="260" y2="231" stroke="#00f"/>
<line x1="381" y1="231" x2="443" y2="231" stroke="#00f"/>
<line x1="628" y1="231" x2="681" y2="231" stroke="#00f"/>
<rect x="364" y="226" width="17" height="10" fill="#ff0"/>
<rect x="445" y="226" width="183" height="10" fill="#ff0"/>
<rect x="683" y="226" width="67" height="10" fill="#ff0"/>
<text x="20" y="255" class="sm">6.814e-08</text>
<rect x="100" y="245" width="281" height="12" fill="#00f"/>
<rect x="444" y="245" width="184" height="12" fill="#00f"/>
<rect x="682" y="245" width="140" height="12" fill="#00f"/>
<line x1="381" y1="251" x2="443" y2="251" stroke="#00f"/>
<line x1="628" y1="251" x2="681" y2="251" stroke="#00f"/>
<rect x="364" y="246" width="17" height="10" fill="#ff0"/>
<rect x="445" y="246" width="183" height="10" fill="#ff0"/>
<rect x="683" y="246" width="67" height="10" fill="#ff0"/>
<text x="20" y="275" class="sm">5.92e-08</text>
<rect x="100" y="265" width="103" height="12" fill="#00f"/>
<rect x="261" y="265" width="367" height="12" fill="#00f"/>
<rect x="682" y="265" width="140" height="12" fill="#00f"/>
<line x1="203" y1="271" x2="260" y2="271" stroke="#00f"/>
<line x1="628" y1="271" x2="681" y2="271" stroke="#00f"/>
<rect x="114" y="266" width="89" height="10" fill="#ff0"/>
<rect x="262" y="266" width="164" height="10" fill="#ff0"/>
<text x="20" y="295" class="sm">2.723e-08</text>
<rect x="100" y="285" width="103" height="12" fill="#00f"/>
<rect x="261" y="285" width="124" height="12" fill="#00f"/>
<rect x="444" y="285" width="184" height="12" fill="#00f"/>
<rect x="682" y="285" width="140" height="12" fill="#00f"/>
<line x1="203" y1="291" x2="260" y2="291" stroke="#00f"/>
<line x1="385" y1="291" x2="443" y2="291" stroke="#00f"/>
<line x1="628" y1="291" x2="681" y2="291" stroke="#00f"/>
<rect x="114" y="286" width="89" height="10" fill="#ff0"/>
<rect x="262" y="286" width="123" height="10" fill="#ff0"/>
<rect x="445" y="286" width="10" height="10" fill="#ff0"/>
<text x="20" y="315" class="sm">2.141e-08</text>
<rect x="100" y="305" width="103" height="12" fill="#00f"/>
<rect x="261" y="305" width="120" height="12" fill="#00f"/>
<rect x="444" y="305" width="184" height="12" fill="#00f"/>
<rect x="706" y="305" width="116" height="12" fill="#00f"/>
<line x1="203" y1="311" x2="260" y2="311" stroke="#00f"/>
<line x1="381" y1="311" x2="443" y2="311" stroke="#00f"/>
<line x1="628" y1="311" x2="705" y2="311" stroke="#00f"/>
<rect x="114" y="306" width="89" height="10" fill="#ff0"/>
<rect x="262" y="306" width="119" height="10" fill="#ff0"/>
<rect x="445" y="306" width="183" height="10" fill="#ff0"/>
<rect x="707" y="306" width="43" height="10" fill="#ff0"/>
<text x="20" y="335" class="sm">1.084e-08</text>
<rect x="100" y="325" width="103" height="12" fill="#00f"/>
<rect x="261" y="325" width="120" height="12" fill="#00f"/>
<rect x="444" y="325" width="378" height="12" fill="#00f"/>
<line x1="203" y1="331" x2="260" y2="331" stroke="#00f"/>
<line x1="381" y1="331" x2="443" y2="331" stroke="#00f"/>
<rect x="114" y="326" width="89" height="10" fill="#ff0"/>
<rect x="262" y="326" width="119" height="10" fill="#ff0"/>
<rect x="445" y="326" width="305" height="10" fill="#ff0"/>
<text x="20" y="355" class="sm">9.202e-09</text>
<rect x="100" y="345" width="103" height="12" fill="#00f"/>
<rect x="261" y="345" width="91" height="12" fill="#00f"/>
<rect x="444" y="345" width="184" height="12" fill="#00f"/>
<rect x="682" y="345" width="140" height="12" fill="#00f"/>
<line x1="203" y1="351" x2="260" y2="351" stroke="#00f"/>
<line x1="352" y1="351" x2="443" y2="351" stroke="#00f"/>
<line x1="628" y1="351" x2="681" y2="351" stroke="#00f"/>
<rect x="290" y="346" width="62" height="10" fill="#ff0"/>
<rect x="445" y="346" width="183" height="10" fill="#ff0"/>
<rect x="683" y="346" width="67" height="10" fill="#ff0"/>
<text x="20" y="375" class="sm">1.77e-09</text>
<rect x="100" y="365" width="90" height="12" fill="#00f"/>
<rect x="225" y="365" width="156" height="12" fill="#00f"/>
<rect x="444" y="365" width="184" height="12" fill="#00f"/>
<rect x="682" y="365" width="140" height="12" fill="#00f"/>
<line x1="190" y1="371" x2="224" y2="371" stroke="#00f"/>
<line x1="381" y1="371" x2="443" y2="371" stroke="#00f"/>
<line x1="628" y1="371" x2="681" y2="371" stroke="#00f"/>
<rect x="364" y="366" width="17" height="10" fill="#ff0"/>
<rect x="445" y="366" width="183" height="10" fill="#ff0"/>
<rect x="683" y="366" width="67" height="10" fill="#ff0"/>
<text x="20" y="395" class="sm">1.665e-09</text>
<rect x="100" y="385" width="103" height="12" fill="#00f"/>
<rect x="261" y="385" width="99" height="12" fill="#00f"/>
<rect x="444" y="385" width="184" height="12" fill="#00f"/>
<rect x="682" y="385" width="140" height="12" fill="#00f"/>
<line x1="203" y1="391" x2="260" y2="391" stroke="#00f"/>
<line x1="360" y1="391" x2="443" y2="391" stroke="#00f"/>
<line x1="628" y1="391" x2="681" y2="391" stroke="#00f"/>
<rect x="114" y="386" width="89" height="10" fill="#ff0"/>
<rect x="262" y="386" width="98" height="10" fill="#ff0"/>
<rect x="445" y="386" width="183" height="10" fill="#ff0"/>
<rect x="683" y="386" width="67" height="10" fill="#ff0"/>
<text x="20" y="415" class="sm">5.915e-10</text>
<rect x="100" y="405" width="103" height="12" fill="#00f"/>
<rect x="261" y="405" width="120" height="12" fill="#00f"/>
<rect x="682" y="405" width="140" height="12" fill="#00f"/>
<line x1="203" y1="411" x2="260" y2="411" stroke="#00f"/>
<line x1="381" y1="411" x2="681" y2="411" stroke="#00f"/>
<rect x="114" y="406" width="89" height="10" fill="#ff0"/>
<rect x="262" y="406" width="119" height="10" fill="#ff0"/>
<rect x="683" y="406" width="32" height="10" fill="#ff0"/>
<text x="20" y="435" class="sm">5.443e-10</text>
<rect x="100" y="425" width="103" height="12" fill="#00f"/>
<rect x="261" y="425" width="120" height="12" fill="#00f"/>
<rect x="444" y="425" width="184" height="12" fill="#00f"/>
<rect x="790" y="425" width="32" height="12" fill="#00f"/>
<line x1="203" y1="431" x2="260" y2="431" stroke="#00f"/>
<line x1="381" y1="431" x2="443" y2="431" stroke="#00f"/>
<line x1="628" y1="431" x2="789" y2="431" stroke="#00f"/>
<rect x="290" y="426" width="77" height="10" fill="#ff0"/>
<text x="20" y="455" class="sm">4.618e-10</text>
<rect x="100" y="445" width="103" height="12" fill="#00f"/>
<rect x="261" y="445" width="75" height="12" fill="#00f"/>
<rect x="444" y="445" width="184" height="12" fill="#00f"/>
<rect x="682" y="445" width="140" height="12" fill="#00f"/>
<line x1="203" y1="451" x2="260" y2="451" stroke="#00f"/>
<line x1="336" y1="451" x2="443" y2="451" stroke="#00f"/>
<line x1="628" y1="451" x2="681" y2="451" stroke="#00f"/>
<rect x="114" y="446" width="89" height="10" fill="#ff0"/>
<rect x="262" y="446" width="74" height="10" fill="#ff0"/>
<rect x="445" y="446" width="183" height="10" fill="#ff0"/>
<rect x="683" y="446" width="67" height="10" fill="#ff0"/>
<text x="20" y="475" class="sm">4.354e-10</text>
<rect x="100" y="465" width="63" height="12" fill="#00f"/>
<rect x="261" y="465" width="120" height="12" fill="#00f"/>
<rect x="444" y="465" width="184" height="12" fill="#00f"/>
<rect x="682" y="465" width="140" height="12" fill="#00f"/>
<line x1="163" y1="471" x2="260" y2="471" stroke="#00f"/>
<line x1="381" y1="471" x2="443" y2="471" stroke="#00f"/>
<line x1="628" y1="471" x2="681" y2="471" stroke="#00f"/>
<rect x="364" y="466" width="17" height="10" fill="#ff0"/>
<rect x="445" y="466" width="183" height="10" fill="#ff0"/>
<rect x="683" y="466" width="67" height="10" fill="#ff0"/>
<text x="20" y="495" class="sm">4.081e-10</text>
<rect x="100" y="485" width="57" height="12" fill="#00f"/>
<rect x="261" y="485" width="120" height="12" fill="#00f"/>
<rect x="428" y="485" width="200" height="12" fill="#00f"/>
<rect x="682" y="485" width="140" height="12" fill="#00f"/>
<line x1="157" y1="491" x2="260" y2="491" stroke="#00f"/>
<line x1="381" y1="491" x2="427" y2="491" stroke="#00f"/>
<line x1="628" y1="491" x2="681" y2="491" stroke="#00f"/>
<rect x="114" y="486" width="43" height="10" fill="#ff0"/>
<rect x="262" y="486" width="105" height="10" fill="#ff0"/>
<text x="20" y="515" class="sm">3.261e-10</text>
<rect x="100" y="505" width="82" height="12" fill="#00f"/>
<rect x="261" y="505" width="120" height="12" fill="#00f"/>
<rect x="444" y="505" width="184" height="12" fill="#00f"/>
<rect x="682" y="505" width="140" height="12" fill="#00f"/>
<line x1="182" y1="511" x2="260" y2="511" stroke="#00f"/>
<line x1="381" y1="511" x2="443" y2="511" stroke="#00f"/>
<line x1="628" y1="511" x2="681" y2="511" stroke="#00f"/>
<rect x="114" y="506" width="68" height="10" fill="#ff0"/>
<rect x="262" y="506" width="119" height="10" fill="#ff0"/>
<rect x="445" y="506" width="183" height="10" fill="#ff0"/>
<rect x="683" y="506" width="67" height="10" fill="#ff0"/>
</svg>
