<svg viewBox="0 0 713 515" xmlns="http://www.w3.org/2000/svg">

<style>
  .sm { font: 12px sans-serif; }
  .lg { font: 15px sans-serif; }
</style>
<rect fill="#ddd" x="0" y="0" width="100%" height="100%"/>
<text x="20" y="20" class="lg">ch.12743 V:1447095-1447807 Gene:WBGene00000558</text>
<text x="20" y="50" class="sm">WormBase</text>
<rect x="100" y="40" width="131" height="12" fill="#00f"/>
<rect x="309" y="40" width="304" height="12" fill="#00f"/>
<line x1="231" y1="46" x2="308" y2="46" stroke="#00f"/>
<rect x="171" y="41" width="60" height="10" fill="#ff0"/>
<rect x="310" y="41" width="139" height="10" fill="#ff0"/>
<rect x="101" y="41" width="69" height="10" fill="brown"><title>.</title></rect>
<rect x="450" y="41" width="163" height="10" fill="brown"><title>.</title></rect>
<text x="20" y="70" class="sm">Fitness: 4.3305450937239616e-05</text>
<rect x="231" y="65" width="78" height="5" fill="#00f"><title>738921.0</title></rect>
<rect x="346" y="70" width="33" height="5" fill="#00f"><title>16.0</title></rect>
<rect x="345" y="75" width="71" height="5" fill="#f0f"><title>5.0</title></rect>
<text x="20" y="105" class="sm">1.0</text>
<rect x="100" y="95" width="131" height="12" fill="#00f"/>
<rect x="309" y="95" width="307" height="12" fill="#00f"/>
<line x1="231" y1="101" x2="308" y2="101" stroke="#00f"/>
<rect x="322" y="96" width="218" height="10" fill="#ff0"/>
<text x="20" y="125" class="sm">1.266e-05</text>
<rect x="100" y="115" width="114" height="12" fill="#00f"/>
<rect x="309" y="115" width="307" height="12" fill="#00f"/>
<line x1="214" y1="121" x2="308" y2="121" stroke="#00f"/>
<rect x="322" y="116" width="218" height="10" fill="#ff0"/>
<text x="20" y="145" class="sm">3.904e-06</text>
<rect x="100" y="135" width="135" height="12" fill="#00f"/>
<rect x="309" y="135" width="307" height="12" fill="#00f"/>
<line x1="235" y1="141" x2="308" y2="141" stroke="#00f"/>
<rect x="227" y="136" width="8" height="10" fill="#ff0"/>
<rect x="310" y="136" width="230" height="10" fill="#ff0"/>
<text x="20" y="165" class="sm">4.372e-07</text>
<rect x="100" y="155" width="131" height="12" fill="#00f"/>
<rect x="309" y="155" width="136" height="12" fill="#00f"/>
<rect x="491" y="155" width="125" height="12" fill="#00f"/>
<line x1="231" y1="161" x2="308" y2="161" stroke="#00f"/>
<line x1="445" y1="161" x2="490" y2="161" stroke="#00f"/>
<rect x="171" y="156" width="60" height="10" fill="#ff0"/>
<rect x="310" y="156" width="135" height="10" fill="#ff0"/>
<rect x="492" y="156" width="48" height="10" fill="#ff0"/>
<text x="20" y="185" class="sm">9.732e-08</text>
<rect x="100" y="175" width="97" height="12" fill="#00f"/>
<rect x="309" y="175" width="307" height="12" fill="#00f"/>
<line x1="197" y1="181" x2="308" y2="181" stroke="#00f"/>
<rect x="171" y="176" width="26" height="10" fill="#ff0"/>
<rect x="310" y="176" width="230" height="10" fill="#ff0"/>
<text x="20" y="205" class="sm">4.279e-08</text>
<rect x="100" y="195" width="131" height="12" fill="#00f"/>
<rect x="309" y="195" width="136" height="12" fill="#00f"/>
<rect x="496" y="195" width="120" height="12" fill="#00f"/>
<line x1="231" y1="201" x2="308" y2="201" stroke="#00f"/>
<line x1="445" y1="201" x2="495" y2="201" stroke="#00f"/>
<rect x="171" y="196" width="60" height="10" fill="#ff0"/>
<rect x="310" y="196" width="135" height="10" fill="#ff0"/>
<rect x="497" y="196" width="84" height="10" fill="#ff0"/>
<text x="20" y="225" class="sm">2.727e-08</text>
<rect x="100" y="215" width="57" height="12" fill="#00f"/>
<rect x="309" y="215" width="307" height="12" fill="#00f"/>
<line x1="157" y1="221" x2="308" y2="221" stroke="#00f"/>
<rect x="322" y="216" width="218" height="10" fill="#ff0"/>
<text x="20" y="245" class="sm">5.105e-09</text>
<rect x="100" y="235" width="131" height="12" fill="#00f"/>
<rect x="309" y="235" width="57" height="12" fill="#00f"/>
<rect x="420" y="235" width="196" height="12" fill="#00f"/>
<line x1="231" y1="241" x2="308" y2="241" stroke="#00f"/>
<line x1="366" y1="241" x2="419" y2="241" stroke="#00f"/>
<rect x="322" y="236" width="44" height="10" fill="#ff0"/>
<rect x="421" y="236" width="119" height="10" fill="#ff0"/>
<text x="20" y="265" class="sm">3.219e-09</text>
<rect x="100" y="255" width="88" height="12" fill="#00f"/>
<rect x="309" y="255" width="307" height="12" fill="#00f"/>
<line x1="188" y1="261" x2="308" y2="261" stroke="#00f"/>
<rect x="171" y="256" width="17" height="10" fill="#ff0"/>
<rect x="310" y="256" width="230" height="10" fill="#ff0"/>
<text x="20" y="285" class="sm">9.431e-10</text>
<rect x="100" y="275" width="31" height="12" fill="#00f"/>
<rect x="309" y="275" width="307" height="12" fill="#00f"/>
<line x1="131" y1="281" x2="308" y2="281" stroke="#00f"/>
<rect x="322" y="276" width="218" height="10" fill="#ff0"/>
<text x="20" y="305" class="sm">5.608e-10</text>
<rect x="100" y="295" width="131" height="12" fill="#00f"/>
<rect x="309" y="295" width="136" height="12" fill="#00f"/>
<rect x="480" y="295" width="136" height="12" fill="#00f"/>
<line x1="231" y1="301" x2="308" y2="301" stroke="#00f"/>
<line x1="445" y1="301" x2="479" y2="301" stroke="#00f"/>
<rect x="322" y="296" width="123" height="10" fill="#ff0"/>
<rect x="481" y="296" width="100" height="10" fill="#ff0"/>
<text x="20" y="325" class="sm">5.354e-10</text>
<rect x="100" y="315" width="131" height="12" fill="#00f"/>
<rect x="309" y="315" width="76" height="12" fill="#00f"/>
<rect x="420" y="315" width="196" height="12" fill="#00f"/>
<line x1="231" y1="321" x2="308" y2="321" stroke="#00f"/>
<line x1="385" y1="321" x2="419" y2="321" stroke="#00f"/>
<rect x="227" y="316" width="4" height="10" fill="#ff0"/>
<rect x="310" y="316" width="75" height="10" fill="#ff0"/>
<rect x="421" y="316" width="119" height="10" fill="#ff0"/>
<text x="20" y="345" class="sm">2.858e-11</text>
<rect x="100" y="335" width="131" height="12" fill="#00f"/>
<rect x="309" y="335" width="136" height="12" fill="#00f"/>
<rect x="482" y="335" width="134" height="12" fill="#00f"/>
<line x1="231" y1="341" x2="308" y2="341" stroke="#00f"/>
<line x1="445" y1="341" x2="481" y2="341" stroke="#00f"/>
<rect x="171" y="336" width="60" height="10" fill="#ff0"/>
<rect x="310" y="336" width="135" height="10" fill="#ff0"/>
<rect x="483" y="336" width="57" height="10" fill="#ff0"/>
<text x="20" y="365" class="sm">5.533e-12</text>
<rect x="100" y="355" width="114" height="12" fill="#00f"/>
<rect x="309" y="355" width="136" height="12" fill="#00f"/>
<rect x="491" y="355" width="125" height="12" fill="#00f"/>
<line x1="214" y1="361" x2="308" y2="361" stroke="#00f"/>
<line x1="445" y1="361" x2="490" y2="361" stroke="#00f"/>
<rect x="171" y="356" width="43" height="10" fill="#ff0"/>
<rect x="310" y="356" width="135" height="10" fill="#ff0"/>
<rect x="492" y="356" width="89" height="10" fill="#ff0"/>
<text x="20" y="385" class="sm">1.707e-12</text>
<rect x="100" y="375" width="135" height="12" fill="#00f"/>
<rect x="309" y="375" width="136" height="12" fill="#00f"/>
<rect x="491" y="375" width="125" height="12" fill="#00f"/>
<line x1="235" y1="381" x2="308" y2="381" stroke="#00f"/>
<line x1="445" y1="381" x2="490" y2="381" stroke="#00f"/>
<rect x="171" y="376" width="64" height="10" fill="#ff0"/>
<rect x="310" y="376" width="135" height="10" fill="#ff0"/>
<rect x="492" y="376" width="89" height="10" fill="#ff0"/>
<text x="20" y="405" class="sm">5.415e-13</text>
<rect x="100" y="395" width="114" height="12" fill="#00f"/>
<rect x="309" y="395" width="136" height="12" fill="#00f"/>
<rect x="496" y="395" width="120" height="12" fill="#00f"/>
<line x1="214" y1="401" x2="308" y2="401" stroke="#00f"/>
<line x1="445" y1="401" x2="495" y2="401" stroke="#00f"/>
<rect x="171" y="396" width="43" height="10" fill="#ff0"/>
<rect x="310" y="396" width="135" height="10" fill="#ff0"/>
<rect x="497" y="396" width="2" height="10" fill="#ff0"/>
<text x="20" y="425" class="sm">1.671e-13</text>
<rect x="100" y="415" width="135" height="12" fill="#00f"/>
<rect x="309" y="415" width="136" height="12" fill="#00f"/>
<rect x="496" y="415" width="120" height="12" fill="#00f"/>
<line x1="235" y1="421" x2="308" y2="421" stroke="#00f"/>
<line x1="445" y1="421" x2="495" y2="421" stroke="#00f"/>
<rect x="171" y="416" width="64" height="10" fill="#ff0"/>
<rect x="310" y="416" width="135" height="10" fill="#ff0"/>
<rect x="497" y="416" width="2" height="10" fill="#ff0"/>
<text x="20" y="445" class="sm">8.135e-14</text>
<rect x="100" y="435" width="131" height="12" fill="#00f"/>
<rect x="309" y="435" width="143" height="12" fill="#00f"/>
<rect x="491" y="435" width="125" height="12" fill="#00f"/>
<line x1="231" y1="441" x2="308" y2="441" stroke="#00f"/>
<line x1="452" y1="441" x2="490" y2="441" stroke="#00f"/>
<rect x="171" y="436" width="60" height="10" fill="#ff0"/>
<rect x="310" y="436" width="139" height="10" fill="#ff0"/>
<text x="20" y="465" class="sm">6.461e-14</text>
<rect x="100" y="455" width="114" height="12" fill="#00f"/>
<rect x="309" y="455" width="57" height="12" fill="#00f"/>
<rect x="420" y="455" width="196" height="12" fill="#00f"/>
<line x1="214" y1="461" x2="308" y2="461" stroke="#00f"/>
<line x1="366" y1="461" x2="419" y2="461" stroke="#00f"/>
<rect x="322" y="456" width="44" height="10" fill="#ff0"/>
<rect x="421" y="456" width="119" height="10" fill="#ff0"/>
<text x="20" y="485" class="sm">5.523e-14</text>
<rect x="100" y="475" width="131" height="12" fill="#00f"/>
<rect x="309" y="475" width="43" height="12" fill="#00f"/>
<rect x="420" y="475" width="196" height="12" fill="#00f"/>
<line x1="231" y1="481" x2="308" y2="481" stroke="#00f"/>
<line x1="352" y1="481" x2="419" y2="481" stroke="#00f"/>
<rect x="227" y="476" width="4" height="10" fill="#ff0"/>
<rect x="310" y="476" width="42" height="10" fill="#ff0"/>
<rect x="421" y="476" width="119" height="10" fill="#ff0"/>
</svg>
