<svg viewBox="0 0 894 585" xmlns="http://www.w3.org/2000/svg">

<style>
  .sm { font: 12px sans-serif; }
  .lg { font: 15px sans-serif; }
</style>
<rect fill="#ddd" x="0" y="0" width="100%" height="100%"/>
<text x="20" y="20" class="lg">ch.12884 V:2068349-2069242 Gene:WBGene00021486</text>
<text x="20" y="50" class="sm">WormBase</text>
<rect x="100" y="40" width="39" height="12" fill="#00f"/>
<rect x="215" y="40" width="252" height="12" fill="#00f"/>
<rect x="521" y="40" width="271" height="12" fill="#00f"/>
<line x1="139" y1="46" x2="214" y2="46" stroke="#00f"/>
<line x1="467" y1="46" x2="520" y2="46" stroke="#00f"/>
<rect x="101" y="41" width="38" height="10" fill="#ff0"/>
<rect x="216" y="41" width="251" height="10" fill="#ff0"/>
<rect x="522" y="41" width="167" height="10" fill="#ff0"/>
<rect x="690" y="41" width="102" height="10" fill="brown"><title>.</title></rect>
<text x="20" y="70" class="sm">WormBase</text>
<rect x="215" y="60" width="252" height="12" fill="#00f"/>
<rect x="521" y="60" width="273" height="12" fill="#00f"/>
<line x1="467" y1="66" x2="520" y2="66" stroke="#00f"/>
<rect x="222" y="61" width="245" height="10" fill="#ff0"/>
<rect x="522" y="61" width="167" height="10" fill="#ff0"/>
<rect x="216" y="61" width="5" height="10" fill="brown"><title>.</title></rect>
<rect x="690" y="61" width="104" height="10" fill="brown"><title>.</title></rect>
<text x="20" y="90" class="sm">Fitness: 0.012458709433956773</text>
<rect x="467" y="85" width="54" height="5" fill="#00f"><title>3386360.0</title></rect>
<rect x="139" y="90" width="76" height="5" fill="#00f"><title>31922.0</title></rect>
<rect x="471" y="95" width="50" height="5" fill="#00f"><title>34.0</title></rect>
<rect x="626" y="100" width="37" height="5" fill="#00f"><title>10.0</title></rect>
<rect x="274" y="105" width="123" height="5" fill="#f0f"><title>9.0</title></rect>
<rect x="239" y="110" width="158" height="5" fill="#f0f"><title>8.0</title></rect>
<rect x="131" y="115" width="84" height="5" fill="#00f"><title>5.0</title></rect>
<rect x="139" y="120" width="78" height="5" fill="#00f"><title>5.0</title></rect>
<rect x="467" y="125" width="140" height="5" fill="#00f"><title>5.0</title></rect>
<rect x="697" y="130" width="48" height="5" fill="#f0f"><title>5.0</title></rect>
<rect x="265" y="135" width="160" height="5" fill="#00f"><title>4.0</title></rect>
<rect x="459" y="140" width="62" height="5" fill="#00f"><title>4.0</title></rect>
<rect x="563" y="145" width="48" height="5" fill="#00f"><title>3.0</title></rect>
<text x="20" y="175" class="sm">0.9906</text>
<rect x="100" y="165" width="367" height="12" fill="#00f"/>
<rect x="521" y="165" width="276" height="12" fill="#00f"/>
<line x1="467" y1="171" x2="520" y2="171" stroke="#00f"/>
<rect x="222" y="166" width="245" height="10" fill="#ff0"/>
<rect x="522" y="166" width="167" height="10" fill="#ff0"/>
<text x="20" y="195" class="sm">0.005071</text>
<rect x="100" y="185" width="362" height="12" fill="#00f"/>
<rect x="521" y="185" width="276" height="12" fill="#00f"/>
<line x1="462" y1="191" x2="520" y2="191" stroke="#00f"/>
<rect x="222" y="186" width="240" height="10" fill="#ff0"/>
<rect x="522" y="186" width="94" height="10" fill="#ff0"/>
<text x="20" y="215" class="sm">0.003146</text>
<rect x="100" y="205" width="39" height="12" fill="#00f"/>
<rect x="215" y="205" width="582" height="12" fill="#00f"/>
<line x1="139" y1="211" x2="214" y2="211" stroke="#00f"/>
<rect x="101" y="206" width="38" height="10" fill="#ff0"/>
<rect x="216" y="206" width="260" height="10" fill="#ff0"/>
<text x="20" y="235" class="sm">0.0008101</text>
<rect x="100" y="225" width="31" height="12" fill="#00f"/>
<rect x="215" y="225" width="582" height="12" fill="#00f"/>
<line x1="131" y1="231" x2="214" y2="231" stroke="#00f"/>
<rect x="466" y="226" width="287" height="10" fill="#ff0"/>
<text x="20" y="255" class="sm">0.0003466</text>
<rect x="100" y="245" width="371" height="12" fill="#00f"/>
<rect x="521" y="245" width="276" height="12" fill="#00f"/>
<line x1="471" y1="251" x2="520" y2="251" stroke="#00f"/>
<rect x="222" y="246" width="249" height="10" fill="#ff0"/>
<rect x="522" y="246" width="94" height="10" fill="#ff0"/>
<text x="20" y="275" class="sm">6.238e-06</text>
<rect x="100" y="265" width="39" height="12" fill="#00f"/>
<rect x="293" y="265" width="504" height="12" fill="#00f"/>
<line x1="139" y1="271" x2="292" y2="271" stroke="#00f"/>
<rect x="466" y="266" width="287" height="10" fill="#ff0"/>
<text x="20" y="295" class="sm">3.727e-06</text>
<rect x="100" y="285" width="79" height="12" fill="#00f"/>
<rect x="215" y="285" width="582" height="12" fill="#00f"/>
<line x1="179" y1="291" x2="214" y2="291" stroke="#00f"/>
<rect x="466" y="286" width="287" height="10" fill="#ff0"/>
<text x="20" y="315" class="sm">2.89e-06</text>
<rect x="100" y="305" width="31" height="12" fill="#00f"/>
<rect x="293" y="305" width="504" height="12" fill="#00f"/>
<line x1="131" y1="311" x2="292" y2="311" stroke="#00f"/>
<rect x="466" y="306" width="287" height="10" fill="#ff0"/>
<text x="20" y="335" class="sm">1.252e-07</text>
<rect x="100" y="325" width="359" height="12" fill="#00f"/>
<rect x="521" y="325" width="276" height="12" fill="#00f"/>
<line x1="459" y1="331" x2="520" y2="331" stroke="#00f"/>
<rect x="222" y="326" width="237" height="10" fill="#ff0"/>
<rect x="522" y="326" width="94" height="10" fill="#ff0"/>
<text x="20" y="355" class="sm">6.1e-08</text>
<rect x="100" y="345" width="79" height="12" fill="#00f"/>
<rect x="293" y="345" width="504" height="12" fill="#00f"/>
<line x1="179" y1="351" x2="292" y2="351" stroke="#00f"/>
<rect x="466" y="346" width="287" height="10" fill="#ff0"/>
<text x="20" y="375" class="sm">5.789e-08</text>
<rect x="100" y="365" width="367" height="12" fill="#00f"/>
<rect x="529" y="365" width="268" height="12" fill="#00f"/>
<line x1="467" y1="371" x2="528" y2="371" stroke="#00f"/>
<rect x="222" y="366" width="245" height="10" fill="#ff0"/>
<rect x="530" y="366" width="86" height="10" fill="#ff0"/>
<text x="20" y="395" class="sm">2.182e-09</text>
<rect x="100" y="385" width="39" height="12" fill="#00f"/>
<rect x="284" y="385" width="513" height="12" fill="#00f"/>
<line x1="139" y1="391" x2="283" y2="391" stroke="#00f"/>
<rect x="466" y="386" width="287" height="10" fill="#ff0"/>
<text x="20" y="415" class="sm">1.483e-09</text>
<rect x="100" y="405" width="39" height="12" fill="#00f"/>
<rect x="251" y="405" width="546" height="12" fill="#00f"/>
<line x1="139" y1="411" x2="250" y2="411" stroke="#00f"/>
<rect x="466" y="406" width="287" height="10" fill="#ff0"/>
<text x="20" y="435" class="sm">9.958e-10</text>
<rect x="100" y="425" width="31" height="12" fill="#00f"/>
<rect x="284" y="425" width="513" height="12" fill="#00f"/>
<line x1="131" y1="431" x2="283" y2="431" stroke="#00f"/>
<rect x="466" y="426" width="287" height="10" fill="#ff0"/>
<text x="20" y="455" class="sm">9.78e-10</text>
<rect x="100" y="445" width="318" height="12" fill="#00f"/>
<rect x="521" y="445" width="276" height="12" fill="#00f"/>
<line x1="418" y1="451" x2="520" y2="451" stroke="#00f"/>
<rect x="222" y="446" width="196" height="10" fill="#ff0"/>
<rect x="522" y="446" width="231" height="10" fill="#ff0"/>
<text x="20" y="475" class="sm">8.661e-10</text>
<rect x="100" y="465" width="39" height="12" fill="#00f"/>
<rect x="217" y="465" width="580" height="12" fill="#00f"/>
<line x1="139" y1="471" x2="216" y2="471" stroke="#00f"/>
<rect x="466" y="466" width="287" height="10" fill="#ff0"/>
<text x="20" y="495" class="sm">5.114e-10</text>
<rect x="100" y="485" width="362" height="12" fill="#00f"/>
<rect x="529" y="485" width="268" height="12" fill="#00f"/>
<line x1="462" y1="491" x2="528" y2="491" stroke="#00f"/>
<rect x="222" y="486" width="240" height="10" fill="#ff0"/>
<rect x="530" y="486" width="223" height="10" fill="#ff0"/>
<text x="20" y="515" class="sm">4.614e-10</text>
<rect x="100" y="505" width="367" height="12" fill="#00f"/>
<rect x="545" y="505" width="252" height="12" fill="#00f"/>
<line x1="467" y1="511" x2="544" y2="511" stroke="#00f"/>
<rect x="222" y="506" width="245" height="10" fill="#ff0"/>
<rect x="546" y="506" width="143" height="10" fill="#ff0"/>
<text x="20" y="535" class="sm">4.135e-10</text>
<rect x="100" y="525" width="31" height="12" fill="#00f"/>
<rect x="251" y="525" width="546" height="12" fill="#00f"/>
<line x1="131" y1="531" x2="250" y2="531" stroke="#00f"/>
<rect x="466" y="526" width="287" height="10" fill="#ff0"/>
<text x="20" y="555" class="sm">1.933e-10</text>
<rect x="100" y="545" width="31" height="12" fill="#00f"/>
<rect x="217" y="545" width="580" height="12" fill="#00f"/>
<line x1="131" y1="551" x2="216" y2="551" stroke="#00f"/>
<rect x="466" y="546" width="287" height="10" fill="#ff0"/>
</svg>
