<svg viewBox="0 0 830 550" xmlns="http://www.w3.org/2000/svg">

<style>
  .sm { font: 12px sans-serif; }
  .lg { font: 15px sans-serif; }
</style>
<rect fill="#ddd" x="0" y="0" width="100%" height="100%"/>
<text x="20" y="20" class="lg">ch.15139 V:11058540-11059369 Gene:WBGene00011427</text>
<text x="20" y="50" class="sm">WormBase</text>
<rect x="102" y="40" width="184" height="12" fill="#00f"/>
<rect x="550" y="40" width="182" height="12" fill="#00f"/>
<line x1="286" y1="46" x2="549" y2="46" stroke="#00f"/>
<rect x="112" y="41" width="174" height="10" fill="#ff0"/>
<rect x="551" y="41" width="127" height="10" fill="#ff0"/>
<rect x="103" y="41" width="8" height="10" fill="brown"><title>.</title></rect>
<rect x="679" y="41" width="53" height="10" fill="brown"><title>.</title></rect>
<text x="20" y="70" class="sm">Fitness: 0.05184519165294375</text>
<rect x="286" y="65" width="264" height="5" fill="#00f"><title>174200.0</title></rect>
<rect x="286" y="70" width="206" height="5" fill="#00f"><title>8217.0</title></rect>
<rect x="43" y="75" width="66" height="5" fill="#00f"><title>2270.0</title></rect>
<rect x="39" y="80" width="70" height="5" fill="#00f"><title>1030.0</title></rect>
<rect x="286" y="85" width="215" height="5" fill="#00f"><title>251.0</title></rect>
<rect x="327" y="90" width="223" height="5" fill="#00f"><title>40.0</title></rect>
<rect x="286" y="95" width="279" height="5" fill="#00f"><title>36.0</title></rect>
<rect x="286" y="100" width="79" height="5" fill="#00f"><title>20.0</title></rect>
<rect x="492" y="105" width="58" height="5" fill="#00f"><title>9.0</title></rect>
<rect x="37" y="110" width="72" height="5" fill="#00f"><title>3.0</title></rect>
<text x="20" y="140" class="sm">0.9361</text>
<rect x="100" y="130" width="186" height="12" fill="#00f"/>
<rect x="550" y="130" width="183" height="12" fill="#00f"/>
<line x1="286" y1="136" x2="549" y2="136" stroke="#00f"/>
<rect x="112" y="131" width="174" height="10" fill="#ff0"/>
<rect x="551" y="131" width="127" height="10" fill="#ff0"/>
<text x="20" y="160" class="sm">0.03643</text>
<rect x="100" y="150" width="186" height="12" fill="#00f"/>
<rect x="492" y="150" width="241" height="12" fill="#00f"/>
<line x1="286" y1="156" x2="491" y2="156" stroke="#00f"/>
<rect x="112" y="151" width="174" height="10" fill="#ff0"/>
<rect x="493" y="151" width="43" height="10" fill="#ff0"/>
<text x="20" y="180" class="sm">0.0204</text>
<rect x="100" y="170" width="186" height="12" fill="#00f"/>
<rect x="501" y="170" width="232" height="12" fill="#00f"/>
<line x1="286" y1="176" x2="500" y2="176" stroke="#00f"/>
<rect x="254" y="171" width="32" height="10" fill="#ff0"/>
<rect x="502" y="171" width="176" height="10" fill="#ff0"/>
<text x="20" y="200" class="sm">0.003905</text>
<rect x="100" y="190" width="186" height="12" fill="#00f"/>
<rect x="565" y="190" width="168" height="12" fill="#00f"/>
<line x1="286" y1="196" x2="564" y2="196" stroke="#00f"/>
<rect x="112" y="191" width="174" height="10" fill="#ff0"/>
<rect x="566" y="191" width="112" height="10" fill="#ff0"/>
<text x="20" y="220" class="sm">0.002554</text>
<rect x="100" y="210" width="190" height="12" fill="#00f"/>
<rect x="550" y="210" width="183" height="12" fill="#00f"/>
<line x1="290" y1="216" x2="549" y2="216" stroke="#00f"/>
<rect x="112" y="211" width="178" height="10" fill="#ff0"/>
<rect x="551" y="211" width="153" height="10" fill="#ff0"/>
<text x="20" y="240" class="sm">0.0002107</text>
<rect x="100" y="230" width="186" height="12" fill="#00f"/>
<rect x="469" y="230" width="264" height="12" fill="#00f"/>
<line x1="286" y1="236" x2="468" y2="236" stroke="#00f"/>
<rect x="254" y="231" width="32" height="10" fill="#ff0"/>
<rect x="470" y="231" width="215" height="10" fill="#ff0"/>
<text x="20" y="260" class="sm">0.0001294</text>
<rect x="100" y="250" width="186" height="12" fill="#00f"/>
<rect x="532" y="250" width="201" height="12" fill="#00f"/>
<line x1="286" y1="256" x2="531" y2="256" stroke="#00f"/>
<rect x="112" y="251" width="174" height="10" fill="#ff0"/>
<rect x="533" y="251" width="145" height="10" fill="#ff0"/>
<text x="20" y="280" class="sm">9.933e-05</text>
<rect x="100" y="270" width="190" height="12" fill="#00f"/>
<rect x="492" y="270" width="241" height="12" fill="#00f"/>
<line x1="290" y1="276" x2="491" y2="276" stroke="#00f"/>
<rect x="112" y="271" width="178" height="10" fill="#ff0"/>
<rect x="493" y="271" width="0" height="10" fill="#ff0"/>
<text x="20" y="300" class="sm">9.014e-05</text>
<rect x="100" y="290" width="129" height="12" fill="#00f"/>
<rect x="550" y="290" width="183" height="12" fill="#00f"/>
<line x1="229" y1="296" x2="549" y2="296" stroke="#00f"/>
<rect x="112" y="291" width="117" height="10" fill="#ff0"/>
<rect x="551" y="291" width="127" height="10" fill="#ff0"/>
<text x="20" y="320" class="sm">5.58e-05</text>
<rect x="100" y="310" width="190" height="12" fill="#00f"/>
<rect x="501" y="310" width="232" height="12" fill="#00f"/>
<line x1="290" y1="316" x2="500" y2="316" stroke="#00f"/>
<rect x="112" y="311" width="178" height="10" fill="#ff0"/>
<rect x="502" y="311" width="183" height="10" fill="#ff0"/>
<text x="20" y="340" class="sm">1.061e-05</text>
<rect x="100" y="330" width="190" height="12" fill="#00f"/>
<rect x="565" y="330" width="168" height="12" fill="#00f"/>
<line x1="290" y1="336" x2="564" y2="336" stroke="#00f"/>
<rect x="112" y="331" width="178" height="10" fill="#ff0"/>
<rect x="566" y="331" width="138" height="10" fill="#ff0"/>
<text x="20" y="360" class="sm">3.489e-06</text>
<rect x="100" y="350" width="129" height="12" fill="#00f"/>
<rect x="492" y="350" width="241" height="12" fill="#00f"/>
<line x1="229" y1="356" x2="491" y2="356" stroke="#00f"/>
<rect x="515" y="351" width="170" height="10" fill="#ff0"/>
<text x="20" y="380" class="sm">2.382e-06</text>
<rect x="100" y="370" width="186" height="12" fill="#00f"/>
<rect x="704" y="370" width="29" height="12" fill="#00f"/>
<line x1="286" y1="376" x2="703" y2="376" stroke="#00f"/>
<rect x="112" y="371" width="174" height="10" fill="#ff0"/>
<rect x="705" y="371" width="4" height="10" fill="#ff0"/>
<text x="20" y="400" class="sm">1.968e-06</text>
<rect x="100" y="390" width="129" height="12" fill="#00f"/>
<rect x="501" y="390" width="232" height="12" fill="#00f"/>
<line x1="229" y1="396" x2="500" y2="396" stroke="#00f"/>
<rect x="515" y="391" width="170" height="10" fill="#ff0"/>
<text x="20" y="420" class="sm">7.911e-07</text>
<rect x="100" y="410" width="227" height="12" fill="#00f"/>
<rect x="550" y="410" width="183" height="12" fill="#00f"/>
<line x1="327" y1="416" x2="549" y2="416" stroke="#00f"/>
<rect x="254" y="411" width="73" height="10" fill="#ff0"/>
<rect x="551" y="411" width="153" height="10" fill="#ff0"/>
<text x="20" y="440" class="sm">5.734e-07</text>
<rect x="100" y="430" width="190" height="12" fill="#00f"/>
<rect x="469" y="430" width="264" height="12" fill="#00f"/>
<line x1="290" y1="436" x2="468" y2="436" stroke="#00f"/>
<rect x="112" y="431" width="178" height="10" fill="#ff0"/>
<rect x="470" y="431" width="0" height="10" fill="#ff0"/>
<text x="20" y="460" class="sm">4.648e-07</text>
<rect x="100" y="450" width="186" height="12" fill="#00f"/>
<rect x="595" y="450" width="138" height="12" fill="#00f"/>
<line x1="286" y1="456" x2="594" y2="456" stroke="#00f"/>
<rect x="112" y="451" width="174" height="10" fill="#ff0"/>
<rect x="596" y="451" width="82" height="10" fill="#ff0"/>
<text x="20" y="480" class="sm">3.731e-07</text>
<rect x="100" y="470" width="129" height="12" fill="#00f"/>
<rect x="565" y="470" width="168" height="12" fill="#00f"/>
<line x1="229" y1="476" x2="564" y2="476" stroke="#00f"/>
<rect x="112" y="471" width="117" height="10" fill="#ff0"/>
<rect x="566" y="471" width="112" height="10" fill="#ff0"/>
<text x="20" y="500" class="sm">3.522e-07</text>
<rect x="100" y="490" width="190" height="12" fill="#00f"/>
<rect x="532" y="490" width="201" height="12" fill="#00f"/>
<line x1="290" y1="496" x2="531" y2="496" stroke="#00f"/>
<rect x="254" y="491" width="36" height="10" fill="#ff0"/>
<rect x="533" y="491" width="145" height="10" fill="#ff0"/>
<text x="20" y="520" class="sm">6.354e-08</text>
<rect x="100" y="510" width="186" height="12" fill="#00f"/>
<rect x="426" y="510" width="307" height="12" fill="#00f"/>
<line x1="286" y1="516" x2="425" y2="516" stroke="#00f"/>
<rect x="112" y="511" width="174" height="10" fill="#ff0"/>
<rect x="427" y="511" width="109" height="10" fill="#ff0"/>
</svg>
