<svg viewBox="0 0 821 650" xmlns="http://www.w3.org/2000/svg">

<style>
  .sm { font: 12px sans-serif; }
  .lg { font: 15px sans-serif; }
</style>
<rect fill="#ddd" x="0" y="0" width="100%" height="100%"/>
<text x="20" y="20" class="lg">ch.12136 IV:15028258-15029078 Gene:WBGene00012766</text>
<text x="20" y="50" class="sm">WormBase</text>
<rect x="102" y="40" width="52" height="12" fill="#00f"/>
<rect x="232" y="40" width="76" height="12" fill="#00f"/>
<rect x="373" y="40" width="350" height="12" fill="#00f"/>
<line x1="154" y1="46" x2="231" y2="46" stroke="#00f"/>
<line x1="308" y1="46" x2="372" y2="46" stroke="#00f"/>
<rect x="136" y="41" width="18" height="10" fill="#ff0"/>
<rect x="233" y="41" width="75" height="10" fill="#ff0"/>
<rect x="374" y="41" width="237" height="10" fill="#ff0"/>
<rect x="103" y="41" width="32" height="10" fill="brown"><title>.</title></rect>
<rect x="612" y="41" width="111" height="10" fill="brown"><title>.</title></rect>
<text x="20" y="70" class="sm">WormBase</text>
<rect x="273" y="60" width="35" height="12" fill="#00f"/>
<rect x="373" y="60" width="238" height="12" fill="#00f"/>
<line x1="308" y1="66" x2="372" y2="66" stroke="#00f"/>
<rect x="274" y="61" width="34" height="10" fill="#ff0"/>
<rect x="374" y="61" width="237" height="10" fill="#ff0"/>
<text x="20" y="90" class="sm">Fitness: 0.018515147343058716</text>
<rect x="308" y="85" width="65" height="5" fill="#00f"><title>524406.0</title></rect>
<rect x="154" y="90" width="78" height="5" fill="#00f"><title>370701.0</title></rect>
<rect x="586" y="95" width="123" height="5" fill="#f0f"><title>489.0</title></rect>
<rect x="154" y="100" width="68" height="5" fill="#00f"><title>349.0</title></rect>
<rect x="493" y="105" width="26" height="5" fill="#00f"><title>155.0</title></rect>
<rect x="504" y="110" width="75" height="5" fill="#00f"><title>139.0</title></rect>
<rect x="453" y="115" width="66" height="5" fill="#00f"><title>47.0</title></rect>
<rect x="493" y="120" width="86" height="5" fill="#00f"><title>34.0</title></rect>
<rect x="507" y="125" width="90" height="5" fill="#00f"><title>26.0</title></rect>
<rect x="474" y="130" width="30" height="5" fill="#00f"><title>26.0</title></rect>
<rect x="295" y="135" width="237" height="5" fill="#f0f"><title>20.0</title></rect>
<rect x="450" y="140" width="69" height="5" fill="#00f"><title>19.0</title></rect>
<rect x="411" y="145" width="160" height="5" fill="#f0f"><title>17.0</title></rect>
<rect x="293" y="150" width="91" height="5" fill="#00f"><title>16.0</title></rect>
<rect x="154" y="155" width="219" height="5" fill="#00f"><title>16.0</title></rect>
<rect x="513" y="160" width="81" height="5" fill="#00f"><title>15.0</title></rect>
<rect x="450" y="165" width="54" height="5" fill="#00f"><title>12.0</title></rect>
<rect x="471" y="170" width="48" height="5" fill="#00f"><title>10.0</title></rect>
<rect x="450" y="175" width="129" height="5" fill="#00f"><title>9.0</title></rect>
<rect x="627" y="180" width="82" height="5" fill="#f0f"><title>6.0</title></rect>
<rect x="453" y="185" width="51" height="5" fill="#00f"><title>5.0</title></rect>
<rect x="519" y="190" width="60" height="5" fill="#00f"><title>4.0</title></rect>
<rect x="302" y="195" width="71" height="5" fill="#00f"><title>4.0</title></rect>
<rect x="730" y="200" width="45" height="5" fill="#f0f"><title>3.0</title></rect>
<rect x="519" y="205" width="75" height="5" fill="#00f"><title>3.0</title></rect>
<rect x="439" y="210" width="86" height="5" fill="#f0f"><title>3.0</title></rect>
<text x="20" y="240" class="sm">0.5842</text>
<rect x="100" y="230" width="208" height="12" fill="#00f"/>
<rect x="373" y="230" width="351" height="12" fill="#00f"/>
<line x1="308" y1="236" x2="372" y2="236" stroke="#00f"/>
<rect x="274" y="231" width="34" height="10" fill="#ff0"/>
<rect x="374" y="231" width="237" height="10" fill="#ff0"/>
<text x="20" y="260" class="sm">0.4065</text>
<rect x="100" y="250" width="54" height="12" fill="#00f"/>
<rect x="232" y="250" width="492" height="12" fill="#00f"/>
<line x1="154" y1="256" x2="231" y2="256" stroke="#00f"/>
<rect x="484" y="251" width="194" height="10" fill="#ff0"/>
<text x="20" y="280" class="sm">0.007484</text>
<rect x="100" y="270" width="54" height="12" fill="#00f"/>
<rect x="373" y="270" width="351" height="12" fill="#00f"/>
<line x1="154" y1="276" x2="372" y2="276" stroke="#00f"/>
<rect x="136" y="271" width="18" height="10" fill="#ff0"/>
<rect x="374" y="271" width="304" height="10" fill="#ff0"/>
<text x="20" y="300" class="sm">0.001024</text>
<rect x="100" y="290" width="202" height="12" fill="#00f"/>
<rect x="373" y="290" width="351" height="12" fill="#00f"/>
<line x1="302" y1="296" x2="372" y2="296" stroke="#00f"/>
<rect x="274" y="291" width="28" height="10" fill="#ff0"/>
<rect x="374" y="291" width="237" height="10" fill="#ff0"/>
<text x="20" y="320" class="sm">0.0003561</text>
<rect x="100" y="310" width="208" height="12" fill="#00f"/>
<rect x="493" y="310" width="231" height="12" fill="#00f"/>
<line x1="308" y1="316" x2="492" y2="316" stroke="#00f"/>
<rect x="499" y="311" width="179" height="10" fill="#ff0"/>
<text x="20" y="340" class="sm">0.0001659</text>
<rect x="100" y="330" width="208" height="12" fill="#00f"/>
<rect x="429" y="330" width="295" height="12" fill="#00f"/>
<line x1="308" y1="336" x2="428" y2="336" stroke="#00f"/>
<rect x="484" y="331" width="194" height="10" fill="#ff0"/>
<text x="20" y="360" class="sm">0.0001181</text>
<rect x="100" y="350" width="208" height="12" fill="#00f"/>
<rect x="450" y="350" width="274" height="12" fill="#00f"/>
<line x1="308" y1="356" x2="449" y2="356" stroke="#00f"/>
<rect x="484" y="351" width="194" height="10" fill="#ff0"/>
<text x="20" y="380" class="sm">3.056e-05</text>
<rect x="100" y="370" width="54" height="12" fill="#00f"/>
<rect x="222" y="370" width="502" height="12" fill="#00f"/>
<line x1="154" y1="376" x2="221" y2="376" stroke="#00f"/>
<rect x="484" y="371" width="194" height="10" fill="#ff0"/>
<text x="20" y="400" class="sm">2.724e-05</text>
<rect x="100" y="390" width="208" height="12" fill="#00f"/>
<rect x="418" y="390" width="306" height="12" fill="#00f"/>
<line x1="308" y1="396" x2="417" y2="396" stroke="#00f"/>
<rect x="274" y="391" width="34" height="10" fill="#ff0"/>
<rect x="419" y="391" width="192" height="10" fill="#ff0"/>
<text x="20" y="420" class="sm">2.444e-05</text>
<rect x="100" y="410" width="54" height="12" fill="#00f"/>
<rect x="493" y="410" width="231" height="12" fill="#00f"/>
<line x1="154" y1="416" x2="492" y2="416" stroke="#00f"/>
<rect x="136" y="411" width="18" height="10" fill="#ff0"/>
<rect x="494" y="411" width="184" height="10" fill="#ff0"/>
<text x="20" y="440" class="sm">2.396e-05</text>
<rect x="100" y="430" width="212" height="12" fill="#00f"/>
<rect x="373" y="430" width="351" height="12" fill="#00f"/>
<line x1="312" y1="436" x2="372" y2="436" stroke="#00f"/>
<rect x="484" y="431" width="194" height="10" fill="#ff0"/>
<text x="20" y="460" class="sm">1.604e-05</text>
<rect x="100" y="450" width="343" height="12" fill="#00f"/>
<rect x="493" y="450" width="231" height="12" fill="#00f"/>
<line x1="443" y1="456" x2="492" y2="456" stroke="#00f"/>
<rect x="499" y="451" width="179" height="10" fill="#ff0"/>
<text x="20" y="480" class="sm">1.013e-05</text>
<rect x="100" y="470" width="54" height="12" fill="#00f"/>
<rect x="429" y="470" width="295" height="12" fill="#00f"/>
<line x1="154" y1="476" x2="428" y2="476" stroke="#00f"/>
<rect x="136" y="471" width="18" height="10" fill="#ff0"/>
<rect x="430" y="471" width="181" height="10" fill="#ff0"/>
<text x="20" y="500" class="sm">7.329e-06</text>
<rect x="100" y="490" width="54" height="12" fill="#00f"/>
<rect x="450" y="490" width="274" height="12" fill="#00f"/>
<line x1="154" y1="496" x2="449" y2="496" stroke="#00f"/>
<rect x="484" y="491" width="194" height="10" fill="#ff0"/>
<text x="20" y="520" class="sm">5.498e-06</text>
<rect x="100" y="510" width="54" height="12" fill="#00f"/>
<rect x="201" y="510" width="523" height="12" fill="#00f"/>
<line x1="154" y1="516" x2="200" y2="516" stroke="#00f"/>
<rect x="484" y="511" width="194" height="10" fill="#ff0"/>
<text x="20" y="540" class="sm">4.705e-06</text>
<rect x="100" y="530" width="58" height="12" fill="#00f"/>
<rect x="232" y="530" width="492" height="12" fill="#00f"/>
<line x1="158" y1="536" x2="231" y2="536" stroke="#00f"/>
<rect x="484" y="531" width="194" height="10" fill="#ff0"/>
<text x="20" y="560" class="sm">3.104e-06</text>
<rect x="100" y="550" width="208" height="12" fill="#00f"/>
<rect x="471" y="550" width="253" height="12" fill="#00f"/>
<line x1="308" y1="556" x2="470" y2="556" stroke="#00f"/>
<rect x="274" y="551" width="34" height="10" fill="#ff0"/>
<rect x="472" y="551" width="228" height="10" fill="#ff0"/>
<text x="20" y="580" class="sm">1.907e-06</text>
<rect x="100" y="570" width="38" height="12" fill="#00f"/>
<rect x="232" y="570" width="492" height="12" fill="#00f"/>
<line x1="138" y1="576" x2="231" y2="576" stroke="#00f"/>
<rect x="484" y="571" width="194" height="10" fill="#ff0"/>
<text x="20" y="600" class="sm">1.285e-06</text>
<rect x="100" y="590" width="54" height="12" fill="#00f"/>
<rect x="273" y="590" width="451" height="12" fill="#00f"/>
<line x1="154" y1="596" x2="272" y2="596" stroke="#00f"/>
<rect x="484" y="591" width="194" height="10" fill="#ff0"/>
<text x="20" y="620" class="sm">1.108e-06</text>
<rect x="100" y="610" width="208" height="12" fill="#00f"/>
<rect x="504" y="610" width="220" height="12" fill="#00f"/>
<line x1="308" y1="616" x2="503" y2="616" stroke="#00f"/>
<rect x="274" y="611" width="34" height="10" fill="#ff0"/>
<rect x="505" y="611" width="195" height="10" fill="#ff0"/>
</svg>
