<svg viewBox="0 0 702 745" xmlns="http://www.w3.org/2000/svg">

<style>
  .sm { font: 12px sans-serif; }
  .lg { font: 15px sans-serif; }
</style>
<rect fill="#ddd" x="0" y="0" width="100%" height="100%"/>
<text x="20" y="20" class="lg">ch.12966 V:2330329-2331030 Gene:WBGene00017499</text>
<text x="20" y="50" class="sm">WormBase</text>
<rect x="100" y="40" width="256" height="12" fill="#00f"/>
<rect x="402" y="40" width="200" height="12" fill="#00f"/>
<line x1="356" y1="46" x2="401" y2="46" stroke="#00f"/>
<rect x="101" y="41" width="255" height="10" fill="#ff0"/>
<rect x="403" y="41" width="199" height="10" fill="#ff0"/>
<text x="20" y="70" class="sm">Fitness: 0.00239477426672051</text>
<rect x="356" y="65" width="46" height="5" fill="#00f"><title>9650150.0</title></rect>
<rect x="148" y="70" width="99" height="5" fill="#00f"><title>10268.0</title></rect>
<rect x="356" y="75" width="49" height="5" fill="#00f"><title>1863.0</title></rect>
<rect x="332" y="80" width="70" height="5" fill="#00f"><title>1564.0</title></rect>
<rect x="190" y="85" width="57" height="5" fill="#00f"><title>861.0</title></rect>
<rect x="360" y="90" width="45" height="5" fill="#00f"><title>619.0</title></rect>
<rect x="148" y="95" width="43" height="5" fill="#00f"><title>198.0</title></rect>
<rect x="356" y="100" width="61" height="5" fill="#00f"><title>158.0</title></rect>
<rect x="518" y="105" width="60" height="5" fill="#00f"><title>51.0</title></rect>
<rect x="148" y="110" width="269" height="5" fill="#00f"><title>49.0</title></rect>
<rect x="275" y="115" width="142" height="5" fill="#00f"><title>36.0</title></rect>
<rect x="190" y="120" width="121" height="5" fill="#00f"><title>34.0</title></rect>
<rect x="148" y="125" width="114" height="5" fill="#00f"><title>27.0</title></rect>
<rect x="207" y="130" width="119" height="5" fill="#00f"><title>24.0</title></rect>
<rect x="277" y="135" width="140" height="5" fill="#00f"><title>24.0</title></rect>
<rect x="148" y="140" width="128" height="5" fill="#00f"><title>21.0</title></rect>
<rect x="150" y="145" width="118" height="5" fill="#00f"><title>20.0</title></rect>
<rect x="203" y="150" width="84" height="5" fill="#00f"><title>20.0</title></rect>
<rect x="476" y="155" width="128" height="5" fill="#00f"><title>15.0</title></rect>
<rect x="173" y="160" width="138" height="5" fill="#00f"><title>14.0</title></rect>
<rect x="440" y="165" width="182" height="5" fill="#00f"><title>14.0</title></rect>
<rect x="551" y="170" width="32" height="5" fill="#00f"><title>13.0</title></rect>
<rect x="148" y="175" width="286" height="5" fill="#00f"><title>12.0</title></rect>
<rect x="310" y="180" width="107" height="5" fill="#00f"><title>12.0</title></rect>
<rect x="169" y="185" width="78" height="5" fill="#00f"><title>8.0</title></rect>
<rect x="325" y="190" width="77" height="5" fill="#00f"><title>7.0</title></rect>
<rect x="148" y="195" width="92" height="5" fill="#f0f"><title>6.0</title></rect>
<rect x="213" y="200" width="48" height="5" fill="#00f"><title>6.0</title></rect>
<rect x="340" y="205" width="107" height="5" fill="#00f"><title>6.0</title></rect>
<rect x="501" y="210" width="79" height="5" fill="#f0f"><title>6.0</title></rect>
<rect x="219" y="215" width="42" height="5" fill="#00f"><title>5.0</title></rect>
<rect x="225" y="220" width="37" height="5" fill="#00f"><title>5.0</title></rect>
<rect x="325" y="225" width="80" height="5" fill="#00f"><title>5.0</title></rect>
<rect x="440" y="230" width="85" height="5" fill="#00f"><title>5.0</title></rect>
<rect x="514" y="235" width="26" height="5" fill="#00f"><title>5.0</title></rect>
<rect x="148" y="240" width="109" height="5" fill="#00f"><title>4.0</title></rect>
<rect x="225" y="245" width="32" height="5" fill="#00f"><title>4.0</title></rect>
<rect x="282" y="250" width="140" height="5" fill="#f0f"><title>4.0</title></rect>
<rect x="332" y="255" width="117" height="5" fill="#00f"><title>4.0</title></rect>
<rect x="340" y="260" width="62" height="5" fill="#00f"><title>4.0</title></rect>
<rect x="107" y="265" width="71" height="5" fill="#f0f"><title>3.0</title></rect>
<rect x="232" y="270" width="30" height="5" fill="#00f"><title>3.0</title></rect>
<rect x="248" y="275" width="41" height="5" fill="#f0f"><title>3.0</title></rect>
<rect x="248" y="280" width="241" height="5" fill="#f0f"><title>3.0</title></rect>
<rect x="332" y="285" width="153" height="5" fill="#00f"><title>3.0</title></rect>
<rect x="439" y="290" width="84" height="5" fill="#f0f"><title>3.0</title></rect>
<rect x="442" y="295" width="46" height="5" fill="#00f"><title>3.0</title></rect>
<rect x="453" y="300" width="91" height="5" fill="#00f"><title>3.0</title></rect>
<rect x="458" y="305" width="96" height="5" fill="#00f"><title>3.0</title></rect>
<text x="20" y="335" class="sm">0.9988</text>
<rect x="100" y="325" width="256" height="12" fill="#00f"/>
<rect x="402" y="325" width="203" height="12" fill="#00f"/>
<line x1="356" y1="331" x2="401" y2="331" stroke="#00f"/>
<rect x="101" y="326" width="255" height="10" fill="#ff0"/>
<rect x="403" y="326" width="199" height="10" fill="#ff0"/>
<text x="20" y="355" class="sm">0.00041</text>
<rect x="100" y="345" width="232" height="12" fill="#00f"/>
<rect x="402" y="345" width="203" height="12" fill="#00f"/>
<line x1="332" y1="351" x2="401" y2="351" stroke="#00f"/>
<rect x="101" y="346" width="231" height="10" fill="#ff0"/>
<rect x="403" y="346" width="199" height="10" fill="#ff0"/>
<text x="20" y="375" class="sm">0.0002643</text>
<rect x="100" y="365" width="256" height="12" fill="#00f"/>
<rect x="405" y="365" width="200" height="12" fill="#00f"/>
<line x1="356" y1="371" x2="404" y2="371" stroke="#00f"/>
<rect x="101" y="366" width="255" height="10" fill="#ff0"/>
<rect x="406" y="366" width="196" height="10" fill="#ff0"/>
<text x="20" y="395" class="sm">0.0002267</text>
<rect x="100" y="385" width="90" height="12" fill="#00f"/>
<rect x="247" y="385" width="109" height="12" fill="#00f"/>
<rect x="402" y="385" width="203" height="12" fill="#00f"/>
<line x1="190" y1="391" x2="246" y2="391" stroke="#00f"/>
<line x1="356" y1="391" x2="401" y2="391" stroke="#00f"/>
<rect x="101" y="386" width="89" height="10" fill="#ff0"/>
<rect x="248" y="386" width="108" height="10" fill="#ff0"/>
<rect x="403" y="386" width="199" height="10" fill="#ff0"/>
<text x="20" y="415" class="sm">0.0001551</text>
<rect x="100" y="405" width="135" height="12" fill="#00f"/>
<rect x="276" y="405" width="80" height="12" fill="#00f"/>
<rect x="402" y="405" width="203" height="12" fill="#00f"/>
<line x1="235" y1="411" x2="275" y2="411" stroke="#00f"/>
<line x1="356" y1="411" x2="401" y2="411" stroke="#00f"/>
<rect x="216" y="406" width="19" height="10" fill="#ff0"/>
<rect x="277" y="406" width="79" height="10" fill="#ff0"/>
<rect x="403" y="406" width="199" height="10" fill="#ff0"/>
<text x="20" y="435" class="sm">6.316e-05</text>
<rect x="100" y="425" width="260" height="12" fill="#00f"/>
<rect x="402" y="425" width="203" height="12" fill="#00f"/>
<line x1="360" y1="431" x2="401" y2="431" stroke="#00f"/>
<rect x="101" y="426" width="259" height="10" fill="#ff0"/>
<rect x="403" y="426" width="9" height="10" fill="#ff0"/>
<text x="20" y="455" class="sm">1.677e-05</text>
<rect x="100" y="445" width="256" height="12" fill="#00f"/>
<rect x="466" y="445" width="139" height="12" fill="#00f"/>
<line x1="356" y1="451" x2="465" y2="451" stroke="#00f"/>
<rect x="101" y="446" width="255" height="10" fill="#ff0"/>
<rect x="467" y="446" width="31" height="10" fill="#ff0"/>
<text x="20" y="475" class="sm">1.568e-05</text>
<rect x="100" y="465" width="256" height="12" fill="#00f"/>
<rect x="402" y="465" width="63" height="12" fill="#00f"/>
<rect x="507" y="465" width="98" height="12" fill="#00f"/>
<line x1="356" y1="471" x2="401" y2="471" stroke="#00f"/>
<line x1="465" y1="471" x2="506" y2="471" stroke="#00f"/>
<rect x="101" y="466" width="255" height="10" fill="#ff0"/>
<rect x="403" y="466" width="62" height="10" fill="#ff0"/>
<rect x="508" y="466" width="94" height="10" fill="#ff0"/>
<text x="20" y="495" class="sm">9.635e-06</text>
<rect x="100" y="485" width="48" height="12" fill="#00f"/>
<rect x="191" y="485" width="165" height="12" fill="#00f"/>
<rect x="402" y="485" width="203" height="12" fill="#00f"/>
<line x1="148" y1="491" x2="190" y2="491" stroke="#00f"/>
<line x1="356" y1="491" x2="401" y2="491" stroke="#00f"/>
<rect x="239" y="486" width="117" height="10" fill="#ff0"/>
<rect x="403" y="486" width="199" height="10" fill="#ff0"/>
<text x="20" y="515" class="sm">8.443e-06</text>
<rect x="100" y="505" width="232" height="12" fill="#00f"/>
<rect x="380" y="505" width="225" height="12" fill="#00f"/>
<line x1="332" y1="511" x2="379" y2="511" stroke="#00f"/>
<rect x="101" y="506" width="231" height="10" fill="#ff0"/>
<rect x="381" y="506" width="4" height="10" fill="#ff0"/>
<text x="20" y="535" class="sm">4.379e-06</text>
<rect x="100" y="525" width="256" height="12" fill="#00f"/>
<rect x="417" y="525" width="188" height="12" fill="#00f"/>
<line x1="356" y1="531" x2="416" y2="531" stroke="#00f"/>
<rect x="101" y="526" width="255" height="10" fill="#ff0"/>
<rect x="418" y="526" width="184" height="10" fill="#ff0"/>
<text x="20" y="555" class="sm">3.664e-06</text>
<rect x="100" y="545" width="232" height="12" fill="#00f"/>
<rect x="466" y="545" width="139" height="12" fill="#00f"/>
<line x1="332" y1="551" x2="465" y2="551" stroke="#00f"/>
<rect x="101" y="546" width="231" height="10" fill="#ff0"/>
<rect x="467" y="546" width="31" height="10" fill="#ff0"/>
<text x="20" y="575" class="sm">1.714e-06</text>
<rect x="100" y="565" width="135" height="12" fill="#00f"/>
<rect x="311" y="565" width="45" height="12" fill="#00f"/>
<rect x="402" y="565" width="203" height="12" fill="#00f"/>
<line x1="235" y1="571" x2="310" y2="571" stroke="#00f"/>
<line x1="356" y1="571" x2="401" y2="571" stroke="#00f"/>
<rect x="338" y="566" width="18" height="10" fill="#ff0"/>
<rect x="403" y="566" width="199" height="10" fill="#ff0"/>
<text x="20" y="595" class="sm">1.289e-06</text>
<rect x="100" y="585" width="232" height="12" fill="#00f"/>
<rect x="387" y="585" width="218" height="12" fill="#00f"/>
<line x1="332" y1="591" x2="386" y2="591" stroke="#00f"/>
<rect x="101" y="586" width="231" height="10" fill="#ff0"/>
<rect x="388" y="586" width="214" height="10" fill="#ff0"/>
<text x="20" y="615" class="sm">5.828e-07</text>
<rect x="100" y="605" width="175" height="12" fill="#00f"/>
<rect x="326" y="605" width="30" height="12" fill="#00f"/>
<rect x="402" y="605" width="203" height="12" fill="#00f"/>
<line x1="275" y1="611" x2="325" y2="611" stroke="#00f"/>
<line x1="356" y1="611" x2="401" y2="611" stroke="#00f"/>
<rect x="101" y="606" width="174" height="10" fill="#ff0"/>
<rect x="327" y="606" width="29" height="10" fill="#ff0"/>
<rect x="403" y="606" width="199" height="10" fill="#ff0"/>
<text x="20" y="635" class="sm">5.046e-07</text>
<rect x="100" y="625" width="256" height="12" fill="#00f"/>
<rect x="402" y="625" width="129" height="12" fill="#00f"/>
<rect x="568" y="625" width="37" height="12" fill="#00f"/>
<line x1="356" y1="631" x2="401" y2="631" stroke="#00f"/>
<line x1="531" y1="631" x2="567" y2="631" stroke="#00f"/>
<rect x="330" y="626" width="26" height="10" fill="#ff0"/>
<rect x="403" y="626" width="44" height="10" fill="#ff0"/>
<text x="20" y="655" class="sm">4.454e-07</text>
<rect x="100" y="645" width="256" height="12" fill="#00f"/>
<rect x="449" y="645" width="156" height="12" fill="#00f"/>
<line x1="356" y1="651" x2="448" y2="651" stroke="#00f"/>
<rect x="101" y="646" width="255" height="10" fill="#ff0"/>
<rect x="450" y="646" width="19" height="10" fill="#ff0"/>
<text x="20" y="675" class="sm">4.039e-07</text>
<rect x="100" y="665" width="256" height="12" fill="#00f"/>
<rect x="447" y="665" width="158" height="12" fill="#00f"/>
<line x1="356" y1="671" x2="446" y2="671" stroke="#00f"/>
<rect x="101" y="666" width="255" height="10" fill="#ff0"/>
<rect x="448" y="666" width="154" height="10" fill="#ff0"/>
<text x="20" y="695" class="sm">4.015e-07</text>
<rect x="100" y="685" width="135" height="12" fill="#00f"/>
<rect x="326" y="685" width="30" height="12" fill="#00f"/>
<rect x="402" y="685" width="203" height="12" fill="#00f"/>
<line x1="235" y1="691" x2="325" y2="691" stroke="#00f"/>
<line x1="356" y1="691" x2="401" y2="691" stroke="#00f"/>
<rect x="338" y="686" width="18" height="10" fill="#ff0"/>
<rect x="403" y="686" width="199" height="10" fill="#ff0"/>
<text x="20" y="715" class="sm">2.304e-07</text>
<rect x="100" y="705" width="256" height="12" fill="#00f"/>
<rect x="475" y="705" width="130" height="12" fill="#00f"/>
<line x1="356" y1="711" x2="474" y2="711" stroke="#00f"/>
<rect x="101" y="706" width="255" height="10" fill="#ff0"/>
<rect x="476" y="706" width="22" height="10" fill="#ff0"/>
</svg>
