<svg viewBox="0 0 838 600" xmlns="http://www.w3.org/2000/svg">

<style>
  .sm { font: 12px sans-serif; }
  .lg { font: 15px sans-serif; }
</style>
<rect fill="#ddd" x="0" y="0" width="100%" height="100%"/>
<text x="20" y="20" class="lg">ch.15703 V:13410977-13411814 Gene:WBGene00009982</text>
<text x="20" y="50" class="sm">WormBase</text>
<rect x="100" y="40" width="122" height="12" fill="#00f"/>
<rect x="332" y="40" width="406" height="12" fill="#00f"/>
<line x1="222" y1="46" x2="331" y2="46" stroke="#00f"/>
<rect x="134" y="41" width="88" height="10" fill="#ff0"/>
<rect x="333" y="41" width="228" height="10" fill="#ff0"/>
<rect x="101" y="41" width="32" height="10" fill="brown"><title>.</title></rect>
<rect x="562" y="41" width="176" height="10" fill="brown"><title>.</title></rect>
<text x="20" y="70" class="sm">Fitness: 0.0012396355387671273</text>
<rect x="222" y="65" width="110" height="5" fill="#00f"><title>3814740.0</title></rect>
<rect x="63" y="70" width="269" height="5" fill="#00f"><title>2151.0</title></rect>
<rect x="222" y="75" width="79" height="5" fill="#00f"><title>122.0</title></rect>
<rect x="439" y="80" width="33" height="5" fill="#00f"><title>89.0</title></rect>
<rect x="15" y="85" width="317" height="5" fill="#00f"><title>32.0</title></rect>
<rect x="212" y="90" width="227" height="5" fill="#00f"><title>27.0</title></rect>
<rect x="226" y="95" width="106" height="5" fill="#00f"><title>23.0</title></rect>
<rect x="78" y="100" width="254" height="5" fill="#00f"><title>22.0</title></rect>
<rect x="63" y="105" width="42" height="5" fill="#00f"><title>20.0</title></rect>
<rect x="482" y="110" width="48" height="5" fill="#f0f"><title>14.0</title></rect>
<rect x="301" y="115" width="323" height="5" fill="#f0f"><title>11.0</title></rect>
<rect x="89" y="120" width="243" height="5" fill="#00f"><title>6.0</title></rect>
<rect x="355" y="125" width="84" height="5" fill="#00f"><title>6.0</title></rect>
<rect x="439" y="130" width="96" height="5" fill="#00f"><title>6.0</title></rect>
<rect x="184" y="135" width="302" height="5" fill="#f0f"><title>5.0</title></rect>
<rect x="416" y="140" width="244" height="5" fill="#f0f"><title>4.0</title></rect>
<rect x="457" y="145" width="39" height="5" fill="#f0f"><title>4.0</title></rect>
<rect x="584" y="150" width="89" height="5" fill="#00f"><title>4.0</title></rect>
<rect x="361" y="155" width="108" height="5" fill="#00f"><title>3.0</title></rect>
<rect x="457" y="160" width="66" height="5" fill="#f0f"><title>3.0</title></rect>
<text x="20" y="190" class="sm">0.9998</text>
<rect x="100" y="180" width="122" height="12" fill="#00f"/>
<rect x="332" y="180" width="409" height="12" fill="#00f"/>
<line x1="222" y1="186" x2="331" y2="186" stroke="#00f"/>
<rect x="134" y="181" width="88" height="10" fill="#ff0"/>
<rect x="333" y="181" width="228" height="10" fill="#ff0"/>
<text x="20" y="210" class="sm">0.0001341</text>
<rect x="100" y="200" width="122" height="12" fill="#00f"/>
<rect x="301" y="200" width="440" height="12" fill="#00f"/>
<line x1="222" y1="206" x2="300" y2="206" stroke="#00f"/>
<rect x="211" y="201" width="11" height="10" fill="#ff0"/>
<rect x="302" y="201" width="281" height="10" fill="#ff0"/>
<text x="20" y="230" class="sm">8.503e-05</text>
<rect x="100" y="220" width="126" height="12" fill="#00f"/>
<rect x="332" y="220" width="409" height="12" fill="#00f"/>
<line x1="226" y1="226" x2="331" y2="226" stroke="#00f"/>
<rect x="211" y="221" width="15" height="10" fill="#ff0"/>
<rect x="333" y="221" width="250" height="10" fill="#ff0"/>
<text x="20" y="250" class="sm">3.334e-06</text>
<rect x="100" y="240" width="112" height="12" fill="#00f"/>
<rect x="332" y="240" width="409" height="12" fill="#00f"/>
<line x1="212" y1="246" x2="331" y2="246" stroke="#00f"/>
<rect x="134" y="241" width="78" height="10" fill="#ff0"/>
<rect x="333" y="241" width="250" height="10" fill="#ff0"/>
<text x="20" y="270" class="sm">1.215e-06</text>
<rect x="100" y="260" width="122" height="12" fill="#00f"/>
<rect x="286" y="260" width="455" height="12" fill="#00f"/>
<line x1="222" y1="266" x2="285" y2="266" stroke="#00f"/>
<rect x="134" y="261" width="88" height="10" fill="#ff0"/>
<rect x="287" y="261" width="117" height="10" fill="#ff0"/>
<text x="20" y="290" class="sm">7.192e-08</text>
<rect x="100" y="280" width="122" height="12" fill="#00f"/>
<rect x="275" y="280" width="466" height="12" fill="#00f"/>
<line x1="222" y1="286" x2="274" y2="286" stroke="#00f"/>
<rect x="462" y="281" width="155" height="10" fill="#ff0"/>
<text x="20" y="310" class="sm">1.181e-08</text>
<rect x="100" y="300" width="126" height="12" fill="#00f"/>
<rect x="301" y="300" width="440" height="12" fill="#00f"/>
<line x1="226" y1="306" x2="300" y2="306" stroke="#00f"/>
<rect x="462" y="301" width="155" height="10" fill="#ff0"/>
<text x="20" y="330" class="sm">7.483e-09</text>
<rect x="100" y="320" width="132" height="12" fill="#00f"/>
<rect x="332" y="320" width="409" height="12" fill="#00f"/>
<line x1="232" y1="326" x2="331" y2="326" stroke="#00f"/>
<rect x="462" y="321" width="155" height="10" fill="#ff0"/>
<text x="20" y="350" class="sm">4.392e-10</text>
<rect x="100" y="340" width="112" height="12" fill="#00f"/>
<rect x="301" y="340" width="440" height="12" fill="#00f"/>
<line x1="212" y1="346" x2="300" y2="346" stroke="#00f"/>
<rect x="462" y="341" width="155" height="10" fill="#ff0"/>
<text x="20" y="370" class="sm">1.202e-10</text>
<rect x="100" y="360" width="126" height="12" fill="#00f"/>
<rect x="286" y="360" width="455" height="12" fill="#00f"/>
<line x1="226" y1="366" x2="285" y2="366" stroke="#00f"/>
<rect x="462" y="361" width="155" height="10" fill="#ff0"/>
<text x="20" y="390" class="sm">1.173e-10</text>
<rect x="100" y="380" width="122" height="12" fill="#00f"/>
<rect x="332" y="380" width="225" height="12" fill="#00f"/>
<rect x="703" y="380" width="38" height="12" fill="#00f"/>
<line x1="222" y1="386" x2="331" y2="386" stroke="#00f"/>
<line x1="557" y1="386" x2="702" y2="386" stroke="#00f"/>
<rect x="134" y="381" width="88" height="10" fill="#ff0"/>
<rect x="333" y="381" width="224" height="10" fill="#ff0"/>
<rect x="704" y="381" width="33" height="10" fill="#ff0"/>
<text x="20" y="410" class="sm">1.152e-10</text>
<rect x="100" y="400" width="122" height="12" fill="#00f"/>
<rect x="332" y="400" width="232" height="12" fill="#00f"/>
<rect x="703" y="400" width="38" height="12" fill="#00f"/>
<line x1="222" y1="406" x2="331" y2="406" stroke="#00f"/>
<line x1="564" y1="406" x2="702" y2="406" stroke="#00f"/>
<rect x="134" y="401" width="88" height="10" fill="#ff0"/>
<rect x="333" y="401" width="228" height="10" fill="#ff0"/>
<text x="20" y="430" class="sm">2.245e-11</text>
<rect x="100" y="420" width="122" height="12" fill="#00f"/>
<rect x="280" y="420" width="461" height="12" fill="#00f"/>
<line x1="222" y1="426" x2="279" y2="426" stroke="#00f"/>
<rect x="134" y="421" width="88" height="10" fill="#ff0"/>
<rect x="281" y="421" width="123" height="10" fill="#ff0"/>
<text x="20" y="450" class="sm">6.909e-12</text>
<rect x="100" y="440" width="126" height="12" fill="#00f"/>
<rect x="275" y="440" width="466" height="12" fill="#00f"/>
<line x1="226" y1="446" x2="274" y2="446" stroke="#00f"/>
<rect x="462" y="441" width="155" height="10" fill="#ff0"/>
<text x="20" y="470" class="sm">5.256e-12</text>
<rect x="100" y="460" width="464" height="12" fill="#00f"/>
<rect x="703" y="460" width="38" height="12" fill="#00f"/>
<line x1="564" y1="466" x2="702" y2="466" stroke="#00f"/>
<rect x="134" y="461" width="92" height="10" fill="#ff0"/>
<text x="20" y="490" class="sm">4.77e-12</text>
<rect x="100" y="480" width="457" height="12" fill="#00f"/>
<rect x="703" y="480" width="38" height="12" fill="#00f"/>
<line x1="557" y1="486" x2="702" y2="486" stroke="#00f"/>
<rect x="462" y="481" width="95" height="10" fill="#ff0"/>
<rect x="704" y="481" width="17" height="10" fill="#ff0"/>
<text x="20" y="510" class="sm">4.479e-12</text>
<rect x="100" y="500" width="122" height="12" fill="#00f"/>
<rect x="332" y="500" width="234" height="12" fill="#00f"/>
<rect x="703" y="500" width="38" height="12" fill="#00f"/>
<line x1="222" y1="506" x2="331" y2="506" stroke="#00f"/>
<line x1="566" y1="506" x2="702" y2="506" stroke="#00f"/>
<rect x="134" y="501" width="88" height="10" fill="#ff0"/>
<rect x="333" y="501" width="228" height="10" fill="#ff0"/>
<text x="20" y="530" class="sm">3.868e-12</text>
<rect x="100" y="520" width="112" height="12" fill="#00f"/>
<rect x="286" y="520" width="455" height="12" fill="#00f"/>
<line x1="212" y1="526" x2="285" y2="526" stroke="#00f"/>
<rect x="462" y="521" width="155" height="10" fill="#ff0"/>
<text x="20" y="550" class="sm">1.081e-12</text>
<rect x="100" y="540" width="132" height="12" fill="#00f"/>
<rect x="301" y="540" width="440" height="12" fill="#00f"/>
<line x1="232" y1="546" x2="300" y2="546" stroke="#00f"/>
<rect x="462" y="541" width="155" height="10" fill="#ff0"/>
<text x="20" y="570" class="sm">3.211e-13</text>
<rect x="100" y="560" width="122" height="12" fill="#00f"/>
<rect x="405" y="560" width="336" height="12" fill="#00f"/>
<line x1="222" y1="566" x2="404" y2="566" stroke="#00f"/>
<rect x="134" y="561" width="88" height="10" fill="#ff0"/>
<rect x="406" y="561" width="177" height="10" fill="#ff0"/>
</svg>
