<svg viewBox="0 0 585 535" xmlns="http://www.w3.org/2000/svg">

<style>
  .sm { font: 12px sans-serif; }
  .lg { font: 15px sans-serif; }
</style>
<rect fill="#ddd" x="0" y="0" width="100%" height="100%"/>
<text x="20" y="20" class="lg">ch.18672 X:7314869-7315453 Gene:WBGene00004988</text>
<text x="20" y="50" class="sm">WormBase</text>
<rect x="102" y="40" width="151" height="12" fill="#00f"/>
<rect x="295" y="40" width="192" height="12" fill="#00f"/>
<line x1="253" y1="46" x2="294" y2="46" stroke="#00f"/>
<rect x="107" y="41" width="146" height="10" fill="#ff0"/>
<rect x="296" y="41" width="155" height="10" fill="#ff0"/>
<rect x="103" y="41" width="3" height="10" fill="brown"><title>.</title></rect>
<rect x="452" y="41" width="35" height="10" fill="brown"><title>.</title></rect>
<text x="20" y="70" class="sm">Fitness: 5.9052664653259727e-05</text>
<rect x="253" y="65" width="42" height="5" fill="#00f"><title>3378800.0</title></rect>
<rect x="253" y="70" width="66" height="5" fill="#00f"><title>57.0</title></rect>
<rect x="253" y="75" width="77" height="5" fill="#00f"><title>38.0</title></rect>
<rect x="256" y="80" width="39" height="5" fill="#00f"><title>7.0</title></rect>
<rect x="137" y="85" width="274" height="5" fill="#f0f"><title>6.0</title></rect>
<rect x="388" y="90" width="44" height="5" fill="#00f"><title>5.0</title></rect>
<rect x="253" y="95" width="63" height="5" fill="#00f"><title>5.0</title></rect>
<text x="20" y="125" class="sm">1.0</text>
<rect x="100" y="115" width="153" height="12" fill="#00f"/>
<rect x="295" y="115" width="193" height="12" fill="#00f"/>
<line x1="253" y1="121" x2="294" y2="121" stroke="#00f"/>
<rect x="107" y="116" width="146" height="10" fill="#ff0"/>
<rect x="296" y="116" width="155" height="10" fill="#ff0"/>
<text x="20" y="145" class="sm">1.734e-05</text>
<rect x="100" y="135" width="156" height="12" fill="#00f"/>
<rect x="295" y="135" width="193" height="12" fill="#00f"/>
<line x1="256" y1="141" x2="294" y2="141" stroke="#00f"/>
<rect x="107" y="136" width="149" height="10" fill="#ff0"/>
<rect x="296" y="136" width="155" height="10" fill="#ff0"/>
<text x="20" y="165" class="sm">9.216e-06</text>
<rect x="100" y="155" width="153" height="12" fill="#00f"/>
<rect x="316" y="155" width="172" height="12" fill="#00f"/>
<line x1="253" y1="161" x2="315" y2="161" stroke="#00f"/>
<rect x="107" y="156" width="146" height="10" fill="#ff0"/>
<rect x="317" y="156" width="134" height="10" fill="#ff0"/>
<text x="20" y="185" class="sm">1.532e-06</text>
<rect x="100" y="175" width="82" height="12" fill="#00f"/>
<rect x="295" y="175" width="193" height="12" fill="#00f"/>
<line x1="182" y1="181" x2="294" y2="181" stroke="#00f"/>
<rect x="171" y="176" width="11" height="10" fill="#ff0"/>
<rect x="296" y="176" width="155" height="10" fill="#ff0"/>
<text x="20" y="205" class="sm">2.031e-07</text>
<rect x="100" y="195" width="177" height="12" fill="#00f"/>
<rect x="316" y="195" width="172" height="12" fill="#00f"/>
<line x1="277" y1="201" x2="315" y2="201" stroke="#00f"/>
<rect x="107" y="196" width="170" height="10" fill="#ff0"/>
<rect x="317" y="196" width="134" height="10" fill="#ff0"/>
<text x="20" y="225" class="sm">7.908e-08</text>
<rect x="100" y="215" width="111" height="12" fill="#00f"/>
<rect x="295" y="215" width="193" height="12" fill="#00f"/>
<line x1="211" y1="221" x2="294" y2="221" stroke="#00f"/>
<rect x="107" y="216" width="104" height="10" fill="#ff0"/>
<rect x="296" y="216" width="155" height="10" fill="#ff0"/>
<text x="20" y="245" class="sm">6.78e-08</text>
<rect x="100" y="235" width="177" height="12" fill="#00f"/>
<rect x="330" y="235" width="158" height="12" fill="#00f"/>
<line x1="277" y1="241" x2="329" y2="241" stroke="#00f"/>
<rect x="107" y="236" width="170" height="10" fill="#ff0"/>
<rect x="331" y="236" width="38" height="10" fill="#ff0"/>
<text x="20" y="265" class="sm">6.701e-08</text>
<rect x="100" y="255" width="153" height="12" fill="#00f"/>
<rect x="330" y="255" width="158" height="12" fill="#00f"/>
<line x1="253" y1="261" x2="329" y2="261" stroke="#00f"/>
<rect x="171" y="256" width="82" height="10" fill="#ff0"/>
<rect x="331" y="256" width="120" height="10" fill="#ff0"/>
<text x="20" y="285" class="sm">3.933e-09</text>
<rect x="100" y="275" width="156" height="12" fill="#00f"/>
<rect x="316" y="275" width="172" height="12" fill="#00f"/>
<line x1="256" y1="281" x2="315" y2="281" stroke="#00f"/>
<rect x="107" y="276" width="149" height="10" fill="#ff0"/>
<rect x="317" y="276" width="134" height="10" fill="#ff0"/>
<text x="20" y="305" class="sm">2.154e-09</text>
<rect x="100" y="295" width="98" height="12" fill="#00f"/>
<rect x="295" y="295" width="193" height="12" fill="#00f"/>
<line x1="198" y1="301" x2="294" y2="301" stroke="#00f"/>
<rect x="107" y="296" width="91" height="10" fill="#ff0"/>
<rect x="296" y="296" width="159" height="10" fill="#ff0"/>
<text x="20" y="325" class="sm">1.985e-09</text>
<rect x="100" y="315" width="153" height="12" fill="#00f"/>
<rect x="319" y="315" width="169" height="12" fill="#00f"/>
<line x1="253" y1="321" x2="318" y2="321" stroke="#00f"/>
<rect x="107" y="316" width="146" height="10" fill="#ff0"/>
<rect x="320" y="316" width="131" height="10" fill="#ff0"/>
<text x="20" y="345" class="sm">7.921e-10</text>
<rect x="100" y="335" width="177" height="12" fill="#00f"/>
<rect x="319" y="335" width="169" height="12" fill="#00f"/>
<line x1="277" y1="341" x2="318" y2="341" stroke="#00f"/>
<rect x="107" y="336" width="170" height="10" fill="#ff0"/>
<rect x="320" y="336" width="131" height="10" fill="#ff0"/>
<text x="20" y="365" class="sm">7.083e-10</text>
<rect x="100" y="355" width="102" height="12" fill="#00f"/>
<rect x="295" y="355" width="193" height="12" fill="#00f"/>
<line x1="202" y1="361" x2="294" y2="361" stroke="#00f"/>
<rect x="107" y="356" width="95" height="10" fill="#ff0"/>
<rect x="296" y="356" width="155" height="10" fill="#ff0"/>
<text x="20" y="385" class="sm">4.153e-10</text>
<rect x="100" y="375" width="153" height="12" fill="#00f"/>
<rect x="350" y="375" width="138" height="12" fill="#00f"/>
<line x1="253" y1="381" x2="349" y2="381" stroke="#00f"/>
<rect x="107" y="376" width="146" height="10" fill="#ff0"/>
<rect x="351" y="376" width="104" height="10" fill="#ff0"/>
<text x="20" y="405" class="sm">2.693e-10</text>
<rect x="100" y="395" width="82" height="12" fill="#00f"/>
<rect x="316" y="395" width="172" height="12" fill="#00f"/>
<line x1="182" y1="401" x2="315" y2="401" stroke="#00f"/>
<rect x="171" y="396" width="11" height="10" fill="#ff0"/>
<rect x="317" y="396" width="134" height="10" fill="#ff0"/>
<text x="20" y="425" class="sm">2.573e-10</text>
<rect x="100" y="415" width="114" height="12" fill="#00f"/>
<rect x="295" y="415" width="193" height="12" fill="#00f"/>
<line x1="214" y1="421" x2="294" y2="421" stroke="#00f"/>
<rect x="107" y="416" width="107" height="10" fill="#ff0"/>
<rect x="296" y="416" width="155" height="10" fill="#ff0"/>
<text x="20" y="445" class="sm">8.956e-11</text>
<rect x="100" y="435" width="82" height="12" fill="#00f"/>
<rect x="230" y="435" width="258" height="12" fill="#00f"/>
<line x1="182" y1="441" x2="229" y2="441" stroke="#00f"/>
<rect x="107" y="436" width="75" height="10" fill="#ff0"/>
<rect x="231" y="436" width="1" height="10" fill="#ff0"/>
<text x="20" y="465" class="sm">2.543e-11</text>
<rect x="100" y="455" width="89" height="12" fill="#00f"/>
<rect x="295" y="455" width="193" height="12" fill="#00f"/>
<line x1="189" y1="461" x2="294" y2="461" stroke="#00f"/>
<rect x="107" y="456" width="82" height="10" fill="#ff0"/>
<rect x="296" y="456" width="159" height="10" fill="#ff0"/>
<text x="20" y="485" class="sm">1.922e-11</text>
<rect x="100" y="475" width="111" height="12" fill="#00f"/>
<rect x="316" y="475" width="172" height="12" fill="#00f"/>
<line x1="211" y1="481" x2="315" y2="481" stroke="#00f"/>
<rect x="107" y="476" width="104" height="10" fill="#ff0"/>
<rect x="317" y="476" width="134" height="10" fill="#ff0"/>
<text x="20" y="505" class="sm">1.19e-11</text>
<rect x="100" y="495" width="156" height="12" fill="#00f"/>
<rect x="330" y="495" width="158" height="12" fill="#00f"/>
<line x1="256" y1="501" x2="329" y2="501" stroke="#00f"/>
<rect x="171" y="496" width="85" height="10" fill="#ff0"/>
<rect x="331" y="496" width="120" height="10" fill="#ff0"/>
</svg>
