<svg viewBox="0 0 628 505" xmlns="http://www.w3.org/2000/svg">

<style>
  .sm { font: 12px sans-serif; }
  .lg { font: 15px sans-serif; }
</style>
<rect fill="#ddd" x="0" y="0" width="100%" height="100%"/>
<text x="20" y="20" class="lg">ch.19877 X:14524654-14525281 Gene:WBGene00008359</text>
<text x="20" y="50" class="sm">WormBase</text>
<rect x="102" y="40" width="34" height="12" fill="#00f"/>
<rect x="182" y="40" width="348" height="12" fill="#00f"/>
<line x1="136" y1="46" x2="181" y2="46" stroke="#00f"/>
<rect x="131" y="41" width="5" height="10" fill="#ff0"/>
<rect x="183" y="41" width="305" height="10" fill="#ff0"/>
<rect x="103" y="41" width="27" height="10" fill="brown"><title>.</title></rect>
<rect x="489" y="41" width="41" height="10" fill="brown"><title>.</title></rect>
<text x="20" y="70" class="sm">Fitness: 6.669871424187916e-05</text>
<rect x="136" y="65" width="46" height="5" fill="#00f"><title>190244.0</title></rect>
<text x="20" y="95" class="sm">1.0</text>
<rect x="100" y="85" width="36" height="12" fill="#00f"/>
<rect x="182" y="85" width="349" height="12" fill="#00f"/>
<line x1="136" y1="91" x2="181" y2="91" stroke="#00f"/>
<rect x="131" y="86" width="5" height="10" fill="#ff0"/>
<rect x="183" y="86" width="305" height="10" fill="#ff0"/>
<text x="20" y="115" class="sm">3.335e-05</text>
<rect x="100" y="105" width="40" height="12" fill="#00f"/>
<rect x="182" y="105" width="349" height="12" fill="#00f"/>
<line x1="140" y1="111" x2="181" y2="111" stroke="#00f"/>
<rect x="131" y="106" width="9" height="10" fill="#ff0"/>
<rect x="183" y="106" width="142" height="10" fill="#ff0"/>
<text x="20" y="135" class="sm">4.692e-10</text>
<rect x="100" y="125" width="36" height="12" fill="#00f"/>
<rect x="225" y="125" width="306" height="12" fill="#00f"/>
<line x1="136" y1="131" x2="224" y2="131" stroke="#00f"/>
<rect x="313" y="126" width="140" height="10" fill="#ff0"/>
<text x="20" y="155" class="sm">6.352e-14</text>
<rect x="100" y="145" width="36" height="12" fill="#00f"/>
<rect x="252" y="145" width="279" height="12" fill="#00f"/>
<line x1="136" y1="151" x2="251" y2="151" stroke="#00f"/>
<rect x="313" y="146" width="140" height="10" fill="#ff0"/>
<text x="20" y="175" class="sm">5.261e-14</text>
<rect x="100" y="165" width="40" height="12" fill="#00f"/>
<rect x="225" y="165" width="306" height="12" fill="#00f"/>
<line x1="140" y1="171" x2="224" y2="171" stroke="#00f"/>
<rect x="131" y="166" width="9" height="10" fill="#ff0"/>
<rect x="226" y="166" width="262" height="10" fill="#ff0"/>
<text x="20" y="195" class="sm">1.779e-14</text>
<rect x="100" y="185" width="36" height="12" fill="#00f"/>
<rect x="264" y="185" width="267" height="12" fill="#00f"/>
<line x1="136" y1="191" x2="263" y2="191" stroke="#00f"/>
<rect x="313" y="186" width="140" height="10" fill="#ff0"/>
<text x="20" y="215" class="sm">2.6e-15</text>
<rect x="100" y="205" width="36" height="12" fill="#00f"/>
<rect x="254" y="205" width="277" height="12" fill="#00f"/>
<line x1="136" y1="211" x2="253" y2="211" stroke="#00f"/>
<rect x="131" y="206" width="5" height="10" fill="#ff0"/>
<rect x="255" y="206" width="233" height="10" fill="#ff0"/>
<text x="20" y="235" class="sm">1.101e-15</text>
<rect x="100" y="225" width="62" height="12" fill="#00f"/>
<rect x="225" y="225" width="306" height="12" fill="#00f"/>
<line x1="162" y1="231" x2="224" y2="231" stroke="#00f"/>
<rect x="156" y="226" width="6" height="10" fill="#ff0"/>
<rect x="226" y="226" width="262" height="10" fill="#ff0"/>
<text x="20" y="255" class="sm">7.803e-18</text>
<rect x="100" y="245" width="40" height="12" fill="#00f"/>
<rect x="252" y="245" width="279" height="12" fill="#00f"/>
<line x1="140" y1="251" x2="251" y2="251" stroke="#00f"/>
<rect x="131" y="246" width="9" height="10" fill="#ff0"/>
<rect x="253" y="246" width="235" height="10" fill="#ff0"/>
<text x="20" y="275" class="sm">1.444e-18</text>
<rect x="100" y="265" width="40" height="12" fill="#00f"/>
<rect x="264" y="265" width="267" height="12" fill="#00f"/>
<line x1="140" y1="271" x2="263" y2="271" stroke="#00f"/>
<rect x="131" y="266" width="9" height="10" fill="#ff0"/>
<rect x="265" y="266" width="223" height="10" fill="#ff0"/>
<text x="20" y="295" class="sm">7.936e-19</text>
<rect x="100" y="285" width="36" height="12" fill="#00f"/>
<rect x="279" y="285" width="252" height="12" fill="#00f"/>
<line x1="136" y1="291" x2="278" y2="291" stroke="#00f"/>
<rect x="313" y="286" width="140" height="10" fill="#ff0"/>
<text x="20" y="315" class="sm">3.944e-19</text>
<rect x="100" y="305" width="40" height="12" fill="#00f"/>
<rect x="254" y="305" width="277" height="12" fill="#00f"/>
<line x1="140" y1="311" x2="253" y2="311" stroke="#00f"/>
<rect x="313" y="306" width="140" height="10" fill="#ff0"/>
<text x="20" y="335" class="sm">1.534e-20</text>
<rect x="100" y="325" width="296" height="12" fill="#00f"/>
<rect x="449" y="325" width="82" height="12" fill="#00f"/>
<line x1="396" y1="331" x2="448" y2="331" stroke="#00f"/>
<rect x="313" y="326" width="83" height="10" fill="#ff0"/>
<rect x="450" y="326" width="38" height="10" fill="#ff0"/>
<text x="20" y="355" class="sm">1.47e-20</text>
<rect x="100" y="345" width="62" height="12" fill="#00f"/>
<rect x="252" y="345" width="279" height="12" fill="#00f"/>
<line x1="162" y1="351" x2="251" y2="351" stroke="#00f"/>
<rect x="313" y="346" width="140" height="10" fill="#ff0"/>
<text x="20" y="375" class="sm">1.309e-20</text>
<rect x="100" y="365" width="36" height="12" fill="#00f"/>
<rect x="310" y="365" width="221" height="12" fill="#00f"/>
<line x1="136" y1="371" x2="309" y2="371" stroke="#00f"/>
<rect x="313" y="366" width="140" height="10" fill="#ff0"/>
<text x="20" y="395" class="sm">4.641e-21</text>
<rect x="100" y="385" width="62" height="12" fill="#00f"/>
<rect x="264" y="385" width="267" height="12" fill="#00f"/>
<line x1="162" y1="391" x2="263" y2="391" stroke="#00f"/>
<rect x="156" y="386" width="6" height="10" fill="#ff0"/>
<rect x="265" y="386" width="223" height="10" fill="#ff0"/>
<text x="20" y="415" class="sm">8.341e-22</text>
<rect x="100" y="405" width="62" height="12" fill="#00f"/>
<rect x="254" y="405" width="277" height="12" fill="#00f"/>
<line x1="162" y1="411" x2="253" y2="411" stroke="#00f"/>
<rect x="313" y="406" width="140" height="10" fill="#ff0"/>
<text x="20" y="435" class="sm">8.319e-22</text>
<rect x="100" y="425" width="306" height="12" fill="#00f"/>
<rect x="449" y="425" width="82" height="12" fill="#00f"/>
<line x1="406" y1="431" x2="448" y2="431" stroke="#00f"/>
<text x="20" y="455" class="sm">5.471e-22</text>
<rect x="100" y="445" width="296" height="12" fill="#00f"/>
<rect x="441" y="445" width="90" height="12" fill="#00f"/>
<line x1="396" y1="451" x2="440" y2="451" stroke="#00f"/>
<rect x="313" y="446" width="83" height="10" fill="#ff0"/>
<rect x="442" y="446" width="11" height="10" fill="#ff0"/>
<text x="20" y="475" class="sm">3.145e-22</text>
<rect x="100" y="465" width="36" height="12" fill="#00f"/>
<rect x="326" y="465" width="205" height="12" fill="#00f"/>
<line x1="136" y1="471" x2="325" y2="471" stroke="#00f"/>
<rect x="131" y="466" width="5" height="10" fill="#ff0"/>
<rect x="327" y="466" width="161" height="10" fill="#ff0"/>
</svg>
