<svg viewBox="0 0 619 520" xmlns="http://www.w3.org/2000/svg">

<style>
  .sm { font: 12px sans-serif; }
  .lg { font: 15px sans-serif; }
</style>
<rect fill="#ddd" x="0" y="0" width="100%" height="100%"/>
<text x="20" y="20" class="lg">ch.15173 V:11183125-11183743 Gene:WBGene00012152</text>
<text x="20" y="50" class="sm">WormBase</text>
<rect x="100" y="40" width="81" height="12" fill="#00f"/>
<rect x="229" y="40" width="290" height="12" fill="#00f"/>
<line x1="181" y1="46" x2="228" y2="46" stroke="#00f"/>
<rect x="115" y="41" width="66" height="10" fill="#ff0"/>
<rect x="230" y="41" width="202" height="10" fill="#ff0"/>
<rect x="101" y="41" width="13" height="10" fill="brown"><title>.</title></rect>
<rect x="433" y="41" width="86" height="10" fill="brown"><title>.</title></rect>
<text x="20" y="70" class="sm">Fitness: 0.0002791888741728918</text>
<rect x="181" y="65" width="48" height="5" fill="#00f"><title>315151.0</title></rect>
<rect x="253" y="70" width="72" height="5" fill="#00f"><title>33.0</title></rect>
<rect x="263" y="75" width="72" height="5" fill="#00f"><title>8.0</title></rect>
<rect x="181" y="80" width="114" height="5" fill="#00f"><title>3.0</title></rect>
<text x="20" y="110" class="sm">0.9999</text>
<rect x="100" y="100" width="81" height="12" fill="#00f"/>
<rect x="229" y="100" width="293" height="12" fill="#00f"/>
<line x1="181" y1="106" x2="228" y2="106" stroke="#00f"/>
<rect x="115" y="101" width="66" height="10" fill="#ff0"/>
<rect x="230" y="101" width="202" height="10" fill="#ff0"/>
<text x="20" y="130" class="sm">7.508e-05</text>
<rect x="100" y="120" width="93" height="12" fill="#00f"/>
<rect x="229" y="120" width="293" height="12" fill="#00f"/>
<line x1="193" y1="126" x2="228" y2="126" stroke="#00f"/>
<rect x="115" y="121" width="78" height="10" fill="#ff0"/>
<rect x="230" y="121" width="202" height="10" fill="#ff0"/>
<text x="20" y="150" class="sm">3.862e-05</text>
<rect x="100" y="140" width="225" height="12" fill="#00f"/>
<rect x="367" y="140" width="155" height="12" fill="#00f"/>
<line x1="325" y1="146" x2="366" y2="146" stroke="#00f"/>
<rect x="192" y="141" width="133" height="10" fill="#ff0"/>
<rect x="368" y="141" width="117" height="10" fill="#ff0"/>
<text x="20" y="170" class="sm">9.898e-06</text>
<rect x="100" y="160" width="129" height="12" fill="#00f"/>
<rect x="292" y="160" width="230" height="12" fill="#00f"/>
<line x1="229" y1="166" x2="291" y2="166" stroke="#00f"/>
<rect x="220" y="161" width="9" height="10" fill="#ff0"/>
<rect x="293" y="161" width="139" height="10" fill="#ff0"/>
<text x="20" y="190" class="sm">2.762e-06</text>
<rect x="100" y="180" width="340" height="12" fill="#00f"/>
<rect x="485" y="180" width="37" height="12" fill="#00f"/>
<line x1="440" y1="186" x2="484" y2="186" stroke="#00f"/>
<rect x="220" y="181" width="212" height="10" fill="#ff0"/>
<text x="20" y="210" class="sm">1.542e-06</text>
<rect x="100" y="200" width="61" height="12" fill="#00f"/>
<rect x="229" y="200" width="293" height="12" fill="#00f"/>
<line x1="161" y1="206" x2="228" y2="206" stroke="#00f"/>
<rect x="232" y="201" width="200" height="10" fill="#ff0"/>
<text x="20" y="230" class="sm">5.808e-07</text>
<rect x="100" y="220" width="150" height="12" fill="#00f"/>
<rect x="292" y="220" width="230" height="12" fill="#00f"/>
<line x1="250" y1="226" x2="291" y2="226" stroke="#00f"/>
<rect x="220" y="221" width="30" height="10" fill="#ff0"/>
<rect x="293" y="221" width="139" height="10" fill="#ff0"/>
<text x="20" y="250" class="sm">5.789e-07</text>
<rect x="100" y="240" width="225" height="12" fill="#00f"/>
<rect x="373" y="240" width="149" height="12" fill="#00f"/>
<line x1="325" y1="246" x2="372" y2="246" stroke="#00f"/>
<rect x="192" y="241" width="133" height="10" fill="#ff0"/>
<rect x="374" y="241" width="111" height="10" fill="#ff0"/>
<text x="20" y="270" class="sm">5.462e-07</text>
<rect x="100" y="260" width="184" height="12" fill="#00f"/>
<rect x="325" y="260" width="197" height="12" fill="#00f"/>
<line x1="284" y1="266" x2="324" y2="266" stroke="#00f"/>
<rect x="192" y="261" width="92" height="10" fill="#ff0"/>
<rect x="326" y="261" width="68" height="10" fill="#ff0"/>
<text x="20" y="290" class="sm">1.848e-07</text>
<rect x="100" y="280" width="153" height="12" fill="#00f"/>
<rect x="292" y="280" width="230" height="12" fill="#00f"/>
<line x1="253" y1="286" x2="291" y2="286" stroke="#00f"/>
<rect x="220" y="281" width="33" height="10" fill="#ff0"/>
<rect x="293" y="281" width="139" height="10" fill="#ff0"/>
<text x="20" y="310" class="sm">1.494e-07</text>
<rect x="100" y="300" width="141" height="12" fill="#00f"/>
<rect x="292" y="300" width="230" height="12" fill="#00f"/>
<line x1="241" y1="306" x2="291" y2="306" stroke="#00f"/>
<rect x="220" y="301" width="21" height="10" fill="#ff0"/>
<rect x="293" y="301" width="139" height="10" fill="#ff0"/>
<text x="20" y="330" class="sm">1.143e-07</text>
<rect x="100" y="320" width="129" height="12" fill="#00f"/>
<rect x="295" y="320" width="227" height="12" fill="#00f"/>
<line x1="229" y1="326" x2="294" y2="326" stroke="#00f"/>
<rect x="220" y="321" width="9" height="10" fill="#ff0"/>
<rect x="296" y="321" width="136" height="10" fill="#ff0"/>
<text x="20" y="350" class="sm">7.35e-08</text>
<rect x="100" y="340" width="81" height="12" fill="#00f"/>
<rect x="292" y="340" width="230" height="12" fill="#00f"/>
<line x1="181" y1="346" x2="291" y2="346" stroke="#00f"/>
<rect x="115" y="341" width="66" height="10" fill="#ff0"/>
<rect x="293" y="341" width="139" height="10" fill="#ff0"/>
<text x="20" y="370" class="sm">4.219e-08</text>
<rect x="100" y="360" width="153" height="12" fill="#00f"/>
<rect x="295" y="360" width="227" height="12" fill="#00f"/>
<line x1="253" y1="366" x2="294" y2="366" stroke="#00f"/>
<rect x="220" y="361" width="33" height="10" fill="#ff0"/>
<rect x="296" y="361" width="136" height="10" fill="#ff0"/>
<text x="20" y="390" class="sm">3.534e-08</text>
<rect x="100" y="380" width="150" height="12" fill="#00f"/>
<rect x="295" y="380" width="227" height="12" fill="#00f"/>
<line x1="250" y1="386" x2="294" y2="386" stroke="#00f"/>
<rect x="220" y="381" width="30" height="10" fill="#ff0"/>
<rect x="296" y="381" width="136" height="10" fill="#ff0"/>
<text x="20" y="410" class="sm">2.381e-08</text>
<rect x="100" y="400" width="93" height="12" fill="#00f"/>
<rect x="292" y="400" width="230" height="12" fill="#00f"/>
<line x1="193" y1="406" x2="291" y2="406" stroke="#00f"/>
<rect x="299" y="401" width="95" height="10" fill="#ff0"/>
<text x="20" y="430" class="sm">1.826e-08</text>
<rect x="100" y="420" width="240" height="12" fill="#00f"/>
<rect x="388" y="420" width="134" height="12" fill="#00f"/>
<line x1="340" y1="426" x2="387" y2="426" stroke="#00f"/>
<rect x="192" y="421" width="148" height="10" fill="#ff0"/>
<rect x="389" y="421" width="96" height="10" fill="#ff0"/>
<text x="20" y="450" class="sm">1.139e-08</text>
<rect x="100" y="440" width="121" height="12" fill="#00f"/>
<rect x="292" y="440" width="230" height="12" fill="#00f"/>
<line x1="221" y1="446" x2="291" y2="446" stroke="#00f"/>
<rect x="192" y="441" width="29" height="10" fill="#ff0"/>
<rect x="293" y="441" width="101" height="10" fill="#ff0"/>
<text x="20" y="470" class="sm">9.512e-09</text>
<rect x="100" y="460" width="345" height="12" fill="#00f"/>
<rect x="485" y="460" width="37" height="12" fill="#00f"/>
<line x1="445" y1="466" x2="484" y2="466" stroke="#00f"/>
<rect x="220" y="461" width="212" height="10" fill="#ff0"/>
<text x="20" y="490" class="sm">6.077e-09</text>
<rect x="100" y="480" width="282" height="12" fill="#00f"/>
<rect x="432" y="480" width="90" height="12" fill="#00f"/>
<line x1="382" y1="486" x2="431" y2="486" stroke="#00f"/>
<rect x="220" y="481" width="162" height="10" fill="#ff0"/>
<rect x="433" y="481" width="52" height="10" fill="#ff0"/>
</svg>
