<svg viewBox="0 0 805 535" xmlns="http://www.w3.org/2000/svg">

<style>
  .sm { font: 12px sans-serif; }
  .lg { font: 15px sans-serif; }
</style>
<rect fill="#ddd" x="0" y="0" width="100%" height="100%"/>
<text x="20" y="20" class="lg">ch.1662 I:8819399-8820203 Gene:WBGene00009457</text>
<text x="20" y="50" class="sm">WormBase</text>
<rect x="102" y="40" width="435" height="12" fill="#00f"/>
<rect x="583" y="40" width="124" height="12" fill="#00f"/>
<line x1="537" y1="46" x2="582" y2="46" stroke="#00f"/>
<rect x="128" y="41" width="409" height="10" fill="#ff0"/>
<rect x="584" y="41" width="45" height="10" fill="#ff0"/>
<rect x="103" y="41" width="24" height="10" fill="brown"><title>.</title></rect>
<rect x="630" y="41" width="77" height="10" fill="brown"><title>.</title></rect>
<text x="20" y="70" class="sm">Fitness: 0.0011907454335750899</text>
<rect x="537" y="65" width="46" height="5" fill="#00f"><title>166961.0</title></rect>
<rect x="359" y="70" width="52" height="5" fill="#00f"><title>880.0</title></rect>
<rect x="682" y="75" width="96" height="5" fill="#f0f"><title>478.0</title></rect>
<rect x="64" y="80" width="53" height="5" fill="#00f"><title>13.0</title></rect>
<rect x="726" y="85" width="52" height="5" fill="#f0f"><title>9.0</title></rect>
<rect x="404" y="90" width="62" height="5" fill="#00f"><title>3.0</title></rect>
<rect x="331" y="95" width="135" height="5" fill="#00f"><title>3.0</title></rect>
<text x="20" y="125" class="sm">0.9945</text>
<rect x="100" y="115" width="437" height="12" fill="#00f"/>
<rect x="583" y="115" width="125" height="12" fill="#00f"/>
<line x1="537" y1="121" x2="582" y2="121" stroke="#00f"/>
<rect x="128" y="116" width="409" height="10" fill="#ff0"/>
<rect x="584" y="116" width="45" height="10" fill="#ff0"/>
<text x="20" y="145" class="sm">0.004913</text>
<rect x="100" y="135" width="259" height="12" fill="#00f"/>
<rect x="411" y="135" width="126" height="12" fill="#00f"/>
<rect x="583" y="135" width="125" height="12" fill="#00f"/>
<line x1="359" y1="141" x2="410" y2="141" stroke="#00f"/>
<line x1="537" y1="141" x2="582" y2="141" stroke="#00f"/>
<rect x="128" y="136" width="231" height="10" fill="#ff0"/>
<rect x="412" y="136" width="100" height="10" fill="#ff0"/>
<text x="20" y="165" class="sm">0.0001516</text>
<rect x="100" y="155" width="99" height="12" fill="#00f"/>
<rect x="244" y="155" width="293" height="12" fill="#00f"/>
<rect x="583" y="155" width="125" height="12" fill="#00f"/>
<line x1="199" y1="161" x2="243" y2="161" stroke="#00f"/>
<line x1="537" y1="161" x2="582" y2="161" stroke="#00f"/>
<rect x="128" y="156" width="71" height="10" fill="#ff0"/>
<rect x="245" y="156" width="292" height="10" fill="#ff0"/>
<rect x="584" y="156" width="45" height="10" fill="#ff0"/>
<text x="20" y="185" class="sm">0.0001225</text>
<rect x="100" y="175" width="408" height="12" fill="#00f"/>
<rect x="583" y="175" width="125" height="12" fill="#00f"/>
<line x1="508" y1="181" x2="582" y2="181" stroke="#00f"/>
<rect x="128" y="176" width="380" height="10" fill="#ff0"/>
<rect x="584" y="176" width="74" height="10" fill="#ff0"/>
<text x="20" y="205" class="sm">0.0001061</text>
<rect x="100" y="195" width="408" height="12" fill="#00f"/>
<rect x="552" y="195" width="156" height="12" fill="#00f"/>
<line x1="508" y1="201" x2="551" y2="201" stroke="#00f"/>
<rect x="128" y="196" width="380" height="10" fill="#ff0"/>
<rect x="553" y="196" width="80" height="10" fill="#ff0"/>
<text x="20" y="225" class="sm">0.000106</text>
<rect x="100" y="215" width="441" height="12" fill="#00f"/>
<rect x="583" y="215" width="125" height="12" fill="#00f"/>
<line x1="541" y1="221" x2="582" y2="221" stroke="#00f"/>
<rect x="128" y="216" width="413" height="10" fill="#ff0"/>
<rect x="584" y="216" width="74" height="10" fill="#ff0"/>
<text x="20" y="245" class="sm">6.535e-05</text>
<rect x="100" y="235" width="241" height="12" fill="#00f"/>
<rect x="411" y="235" width="126" height="12" fill="#00f"/>
<rect x="583" y="235" width="125" height="12" fill="#00f"/>
<line x1="341" y1="241" x2="410" y2="241" stroke="#00f"/>
<line x1="537" y1="241" x2="582" y2="241" stroke="#00f"/>
<rect x="128" y="236" width="213" height="10" fill="#ff0"/>
<rect x="412" y="236" width="100" height="10" fill="#ff0"/>
<text x="20" y="265" class="sm">3.03e-05</text>
<rect x="100" y="255" width="259" height="12" fill="#00f"/>
<rect x="411" y="255" width="297" height="12" fill="#00f"/>
<line x1="359" y1="261" x2="410" y2="261" stroke="#00f"/>
<rect x="128" y="256" width="231" height="10" fill="#ff0"/>
<rect x="412" y="256" width="100" height="10" fill="#ff0"/>
<text x="20" y="285" class="sm">1.047e-05</text>
<rect x="100" y="275" width="402" height="12" fill="#00f"/>
<rect x="552" y="275" width="156" height="12" fill="#00f"/>
<line x1="502" y1="281" x2="551" y2="281" stroke="#00f"/>
<rect x="128" y="276" width="374" height="10" fill="#ff0"/>
<rect x="553" y="276" width="80" height="10" fill="#ff0"/>
<text x="20" y="305" class="sm">9.828e-06</text>
<rect x="100" y="295" width="369" height="12" fill="#00f"/>
<rect x="583" y="295" width="125" height="12" fill="#00f"/>
<line x1="469" y1="301" x2="582" y2="301" stroke="#00f"/>
<rect x="128" y="296" width="341" height="10" fill="#ff0"/>
<rect x="584" y="296" width="74" height="10" fill="#ff0"/>
<text x="20" y="325" class="sm">7.167e-06</text>
<rect x="100" y="315" width="402" height="12" fill="#00f"/>
<rect x="583" y="315" width="125" height="12" fill="#00f"/>
<line x1="502" y1="321" x2="582" y2="321" stroke="#00f"/>
<rect x="128" y="316" width="374" height="10" fill="#ff0"/>
<rect x="584" y="316" width="74" height="10" fill="#ff0"/>
<text x="20" y="345" class="sm">6.162e-06</text>
<rect x="100" y="335" width="437" height="12" fill="#00f"/>
<rect x="589" y="335" width="119" height="12" fill="#00f"/>
<line x1="537" y1="341" x2="588" y2="341" stroke="#00f"/>
<rect x="128" y="336" width="409" height="10" fill="#ff0"/>
<rect x="590" y="336" width="39" height="10" fill="#ff0"/>
<text x="20" y="365" class="sm">4.088e-06</text>
<rect x="100" y="355" width="241" height="12" fill="#00f"/>
<rect x="391" y="355" width="146" height="12" fill="#00f"/>
<rect x="583" y="355" width="125" height="12" fill="#00f"/>
<line x1="341" y1="361" x2="390" y2="361" stroke="#00f"/>
<line x1="537" y1="361" x2="582" y2="361" stroke="#00f"/>
<rect x="128" y="356" width="213" height="10" fill="#ff0"/>
<rect x="392" y="356" width="43" height="10" fill="#ff0"/>
<text x="20" y="385" class="sm">1.672e-06</text>
<rect x="100" y="375" width="54" height="12" fill="#00f"/>
<rect x="197" y="375" width="340" height="12" fill="#00f"/>
<rect x="583" y="375" width="125" height="12" fill="#00f"/>
<line x1="154" y1="381" x2="196" y2="381" stroke="#00f"/>
<line x1="537" y1="381" x2="582" y2="381" stroke="#00f"/>
<rect x="263" y="376" width="274" height="10" fill="#ff0"/>
<rect x="584" y="376" width="45" height="10" fill="#ff0"/>
<text x="20" y="405" class="sm">1.334e-06</text>
<rect x="100" y="395" width="437" height="12" fill="#00f"/>
<rect x="592" y="395" width="116" height="12" fill="#00f"/>
<line x1="537" y1="401" x2="591" y2="401" stroke="#00f"/>
<rect x="128" y="396" width="409" height="10" fill="#ff0"/>
<rect x="593" y="396" width="36" height="10" fill="#ff0"/>
<text x="20" y="425" class="sm">1.046e-06</text>
<rect x="100" y="415" width="99" height="12" fill="#00f"/>
<rect x="244" y="415" width="464" height="12" fill="#00f"/>
<line x1="199" y1="421" x2="243" y2="421" stroke="#00f"/>
<rect x="128" y="416" width="71" height="10" fill="#ff0"/>
<rect x="245" y="416" width="413" height="10" fill="#ff0"/>
<text x="20" y="445" class="sm">7.67e-07</text>
<rect x="100" y="435" width="99" height="12" fill="#00f"/>
<rect x="244" y="435" width="115" height="12" fill="#00f"/>
<rect x="411" y="435" width="126" height="12" fill="#00f"/>
<rect x="583" y="435" width="125" height="12" fill="#00f"/>
<line x1="199" y1="441" x2="243" y2="441" stroke="#00f"/>
<line x1="359" y1="441" x2="410" y2="441" stroke="#00f"/>
<line x1="537" y1="441" x2="582" y2="441" stroke="#00f"/>
<rect x="128" y="436" width="71" height="10" fill="#ff0"/>
<rect x="245" y="436" width="114" height="10" fill="#ff0"/>
<rect x="412" y="436" width="100" height="10" fill="#ff0"/>
<text x="20" y="465" class="sm">6.541e-07</text>
<rect x="100" y="455" width="247" height="12" fill="#00f"/>
<rect x="411" y="455" width="126" height="12" fill="#00f"/>
<rect x="583" y="455" width="125" height="12" fill="#00f"/>
<line x1="347" y1="461" x2="410" y2="461" stroke="#00f"/>
<line x1="537" y1="461" x2="582" y2="461" stroke="#00f"/>
<rect x="128" y="456" width="219" height="10" fill="#ff0"/>
<rect x="412" y="456" width="100" height="10" fill="#ff0"/>
<text x="20" y="485" class="sm">6.026e-07</text>
<rect x="100" y="475" width="259" height="12" fill="#00f"/>
<rect x="411" y="475" width="97" height="12" fill="#00f"/>
<rect x="583" y="475" width="125" height="12" fill="#00f"/>
<line x1="359" y1="481" x2="410" y2="481" stroke="#00f"/>
<line x1="508" y1="481" x2="582" y2="481" stroke="#00f"/>
<rect x="128" y="476" width="231" height="10" fill="#ff0"/>
<rect x="412" y="476" width="96" height="10" fill="#ff0"/>
<rect x="584" y="476" width="45" height="10" fill="#ff0"/>
<text x="20" y="505" class="sm">5.517e-07</text>
<rect x="100" y="495" width="259" height="12" fill="#00f"/>
<rect x="411" y="495" width="130" height="12" fill="#00f"/>
<rect x="583" y="495" width="125" height="12" fill="#00f"/>
<line x1="359" y1="501" x2="410" y2="501" stroke="#00f"/>
<line x1="541" y1="501" x2="582" y2="501" stroke="#00f"/>
<rect x="128" y="496" width="231" height="10" fill="#ff0"/>
<rect x="412" y="496" width="100" height="10" fill="#ff0"/>
</svg>
