<svg viewBox="0 0 1135 555" xmlns="http://www.w3.org/2000/svg">

<style>
  .sm { font: 12px sans-serif; }
  .lg { font: 15px sans-serif; }
</style>
<rect fill="#ddd" x="0" y="0" width="100%" height="100%"/>
<text x="20" y="20" class="lg">ch.15960 V:14331633-14332767 Gene:WBGene00009809</text>
<text x="20" y="50" class="sm">WormBase</text>
<rect x="100" y="40" width="221" height="12" fill="#00f"/>
<rect x="452" y="40" width="302" height="12" fill="#00f"/>
<rect x="840" y="40" width="195" height="12" fill="#00f"/>
<line x1="321" y1="46" x2="451" y2="46" stroke="#00f"/>
<line x1="754" y1="46" x2="839" y2="46" stroke="#00f"/>
<rect x="111" y="41" width="210" height="10" fill="#ff0"/>
<rect x="453" y="41" width="301" height="10" fill="#ff0"/>
<rect x="841" y="41" width="107" height="10" fill="#ff0"/>
<rect x="101" y="41" width="9" height="10" fill="brown"><title>.</title></rect>
<rect x="949" y="41" width="86" height="10" fill="brown"><title>.</title></rect>
<text x="20" y="70" class="sm">Fitness: 0.006601129331517051</text>
<rect x="321" y="65" width="131" height="5" fill="#00f"><title>130687.0</title></rect>
<rect x="754" y="70" width="86" height="5" fill="#00f"><title>90882.0</title></rect>
<rect x="321" y="75" width="275" height="5" fill="#00f"><title>773.0</title></rect>
<rect x="321" y="80" width="519" height="5" fill="#00f"><title>83.0</title></rect>
<rect x="321" y="85" width="125" height="5" fill="#00f"><title>57.0</title></rect>
<rect x="173" y="90" width="52" height="5" fill="#00f"><title>12.0</title></rect>
<rect x="80" y="95" width="47" height="5" fill="#f0f"><title>8.0</title></rect>
<rect x="739" y="100" width="101" height="5" fill="#00f"><title>6.0</title></rect>
<rect x="754" y="105" width="91" height="5" fill="#00f"><title>6.0</title></rect>
<rect x="321" y="110" width="138" height="5" fill="#00f"><title>5.0</title></rect>
<rect x="197" y="115" width="52" height="5" fill="#00f"><title>4.0</title></rect>
<text x="20" y="145" class="sm">0.5873</text>
<rect x="100" y="135" width="221" height="12" fill="#00f"/>
<rect x="452" y="135" width="586" height="12" fill="#00f"/>
<line x1="321" y1="141" x2="451" y2="141" stroke="#00f"/>
<rect x="111" y="136" width="210" height="10" fill="#ff0"/>
<rect x="453" y="136" width="331" height="10" fill="#ff0"/>
<text x="20" y="165" class="sm">0.4083</text>
<rect x="100" y="155" width="654" height="12" fill="#00f"/>
<rect x="840" y="155" width="198" height="12" fill="#00f"/>
<line x1="754" y1="161" x2="839" y2="161" stroke="#00f"/>
<rect x="111" y="156" width="224" height="10" fill="#ff0"/>
<text x="20" y="185" class="sm">0.002647</text>
<rect x="100" y="175" width="97" height="12" fill="#00f"/>
<rect x="452" y="175" width="586" height="12" fill="#00f"/>
<line x1="197" y1="181" x2="451" y2="181" stroke="#00f"/>
<rect x="111" y="176" width="86" height="10" fill="#ff0"/>
<rect x="453" y="176" width="77" height="10" fill="#ff0"/>
<text x="20" y="205" class="sm">0.000839</text>
<rect x="100" y="195" width="221" height="12" fill="#00f"/>
<rect x="596" y="195" width="442" height="12" fill="#00f"/>
<line x1="321" y1="201" x2="595" y2="201" stroke="#00f"/>
<rect x="111" y="196" width="210" height="10" fill="#ff0"/>
<rect x="597" y="196" width="187" height="10" fill="#ff0"/>
<text x="20" y="225" class="sm">0.0002893</text>
<rect x="100" y="215" width="273" height="12" fill="#00f"/>
<rect x="452" y="215" width="586" height="12" fill="#00f"/>
<line x1="373" y1="221" x2="451" y2="221" stroke="#00f"/>
<rect x="111" y="216" width="224" height="10" fill="#ff0"/>
<text x="20" y="245" class="sm">0.0002613</text>
<rect x="100" y="235" width="221" height="12" fill="#00f"/>
<rect x="840" y="235" width="198" height="12" fill="#00f"/>
<line x1="321" y1="241" x2="839" y2="241" stroke="#00f"/>
<rect x="111" y="236" width="210" height="10" fill="#ff0"/>
<rect x="841" y="236" width="1" height="10" fill="#ff0"/>
<text x="20" y="265" class="sm">0.0001502</text>
<rect x="100" y="255" width="615" height="12" fill="#00f"/>
<rect x="840" y="255" width="198" height="12" fill="#00f"/>
<line x1="715" y1="261" x2="839" y2="261" stroke="#00f"/>
<rect x="111" y="256" width="224" height="10" fill="#ff0"/>
<text x="20" y="285" class="sm">0.000121</text>
<rect x="100" y="275" width="221" height="12" fill="#00f"/>
<rect x="418" y="275" width="620" height="12" fill="#00f"/>
<line x1="321" y1="281" x2="417" y2="281" stroke="#00f"/>
<rect x="111" y="276" width="210" height="10" fill="#ff0"/>
<rect x="419" y="276" width="52" height="10" fill="#ff0"/>
<text x="20" y="305" class="sm">4.883e-05</text>
<rect x="100" y="295" width="625" height="12" fill="#00f"/>
<rect x="840" y="295" width="198" height="12" fill="#00f"/>
<line x1="725" y1="301" x2="839" y2="301" stroke="#00f"/>
<rect x="111" y="296" width="224" height="10" fill="#ff0"/>
<text x="20" y="325" class="sm">1.821e-05</text>
<rect x="100" y="315" width="199" height="12" fill="#00f"/>
<rect x="452" y="315" width="586" height="12" fill="#00f"/>
<line x1="299" y1="321" x2="451" y2="321" stroke="#00f"/>
<rect x="111" y="316" width="188" height="10" fill="#ff0"/>
<rect x="453" y="316" width="77" height="10" fill="#ff0"/>
<text x="20" y="345" class="sm">8.204e-06</text>
<rect x="100" y="335" width="225" height="12" fill="#00f"/>
<rect x="452" y="335" width="586" height="12" fill="#00f"/>
<line x1="325" y1="341" x2="451" y2="341" stroke="#00f"/>
<rect x="111" y="336" width="214" height="10" fill="#ff0"/>
<rect x="453" y="336" width="18" height="10" fill="#ff0"/>
<text x="20" y="365" class="sm">6.297e-06</text>
<rect x="100" y="355" width="639" height="12" fill="#00f"/>
<rect x="840" y="355" width="198" height="12" fill="#00f"/>
<line x1="739" y1="361" x2="839" y2="361" stroke="#00f"/>
<rect x="111" y="356" width="224" height="10" fill="#ff0"/>
<text x="20" y="385" class="sm">3.968e-06</text>
<rect x="100" y="375" width="97" height="12" fill="#00f"/>
<rect x="596" y="375" width="442" height="12" fill="#00f"/>
<line x1="197" y1="381" x2="595" y2="381" stroke="#00f"/>
<rect x="111" y="376" width="86" height="10" fill="#ff0"/>
<rect x="597" y="376" width="53" height="10" fill="#ff0"/>
<text x="20" y="405" class="sm">2.719e-06</text>
<rect x="100" y="395" width="97" height="12" fill="#00f"/>
<rect x="249" y="395" width="789" height="12" fill="#00f"/>
<line x1="197" y1="401" x2="248" y2="401" stroke="#00f"/>
<rect x="647" y="396" width="137" height="10" fill="#ff0"/>
<text x="20" y="425" class="sm">2.497e-06</text>
<rect x="100" y="415" width="580" height="12" fill="#00f"/>
<rect x="840" y="415" width="198" height="12" fill="#00f"/>
<line x1="680" y1="421" x2="839" y2="421" stroke="#00f"/>
<rect x="111" y="416" width="224" height="10" fill="#ff0"/>
<text x="20" y="445" class="sm">2.492e-06</text>
<rect x="100" y="435" width="654" height="12" fill="#00f"/>
<rect x="868" y="435" width="170" height="12" fill="#00f"/>
<line x1="754" y1="441" x2="867" y2="441" stroke="#00f"/>
<rect x="111" y="436" width="224" height="10" fill="#ff0"/>
<text x="20" y="465" class="sm">1.361e-06</text>
<rect x="100" y="455" width="615" height="12" fill="#00f"/>
<rect x="776" y="455" width="262" height="12" fill="#00f"/>
<line x1="715" y1="461" x2="775" y2="461" stroke="#00f"/>
<rect x="111" y="456" width="224" height="10" fill="#ff0"/>
<text x="20" y="485" class="sm">1.347e-06</text>
<rect x="100" y="475" width="358" height="12" fill="#00f"/>
<rect x="596" y="475" width="442" height="12" fill="#00f"/>
<line x1="458" y1="481" x2="595" y2="481" stroke="#00f"/>
<rect x="111" y="476" width="224" height="10" fill="#ff0"/>
<text x="20" y="505" class="sm">1.161e-06</text>
<rect x="100" y="495" width="221" height="12" fill="#00f"/>
<rect x="776" y="495" width="262" height="12" fill="#00f"/>
<line x1="321" y1="501" x2="775" y2="501" stroke="#00f"/>
<rect x="111" y="496" width="210" height="10" fill="#ff0"/>
<rect x="777" y="496" width="7" height="10" fill="#ff0"/>
<text x="20" y="525" class="sm">1.122e-06</text>
<rect x="100" y="515" width="97" height="12" fill="#00f"/>
<rect x="840" y="515" width="198" height="12" fill="#00f"/>
<line x1="197" y1="521" x2="839" y2="521" stroke="#00f"/>
<rect x="111" y="516" width="86" height="10" fill="#ff0"/>
<rect x="841" y="516" width="107" height="10" fill="#ff0"/>
</svg>
