<svg viewBox="0 0 910 565" xmlns="http://www.w3.org/2000/svg">

<style>
  .sm { font: 12px sans-serif; }
  .lg { font: 15px sans-serif; }
</style>
<rect fill="#ddd" x="0" y="0" width="100%" height="100%"/>
<text x="20" y="20" class="lg">ch.1381 I:7553744-7554653 Gene:WBGene00012029</text>
<text x="20" y="50" class="sm">WormBase</text>
<rect x="100" y="40" width="60" height="12" fill="#00f"/>
<rect x="235" y="40" width="96" height="12" fill="#00f"/>
<rect x="407" y="40" width="403" height="12" fill="#00f"/>
<line x1="160" y1="46" x2="234" y2="46" stroke="#00f"/>
<line x1="331" y1="46" x2="406" y2="46" stroke="#00f"/>
<rect x="116" y="41" width="44" height="10" fill="#ff0"/>
<rect x="236" y="41" width="95" height="10" fill="#ff0"/>
<rect x="408" y="41" width="329" height="10" fill="#ff0"/>
<rect x="101" y="41" width="14" height="10" fill="brown"><title>.</title></rect>
<rect x="738" y="41" width="72" height="10" fill="brown"><title>.</title></rect>
<text x="20" y="70" class="sm">Fitness: 0.08943114976294396</text>
<rect x="331" y="65" width="76" height="5" fill="#00f"><title>284272.0</title></rect>
<rect x="160" y="70" width="75" height="5" fill="#00f"><title>241580.0</title></rect>
<rect x="182" y="75" width="53" height="5" fill="#00f"><title>600.0</title></rect>
<rect x="351" y="80" width="56" height="5" fill="#00f"><title>289.0</title></rect>
<rect x="160" y="85" width="65" height="5" fill="#00f"><title>183.0</title></rect>
<rect x="182" y="90" width="43" height="5" fill="#00f"><title>118.0</title></rect>
<rect x="160" y="95" width="121" height="5" fill="#00f"><title>28.0</title></rect>
<rect x="567" y="100" width="95" height="5" fill="#00f"><title>17.0</title></rect>
<rect x="160" y="105" width="247" height="5" fill="#00f"><title>12.0</title></rect>
<rect x="331" y="110" width="83" height="5" fill="#00f"><title>7.0</title></rect>
<rect x="160" y="115" width="370" height="5" fill="#00f"><title>4.0</title></rect>
<rect x="567" y="120" width="101" height="5" fill="#00f"><title>4.0</title></rect>
<rect x="529" y="125" width="122" height="5" fill="#00f"><title>3.0</title></rect>
<text x="20" y="155" class="sm">0.7324</text>
<rect x="100" y="145" width="60" height="12" fill="#00f"/>
<rect x="235" y="145" width="96" height="12" fill="#00f"/>
<rect x="407" y="145" width="406" height="12" fill="#00f"/>
<line x1="160" y1="151" x2="234" y2="151" stroke="#00f"/>
<line x1="331" y1="151" x2="406" y2="151" stroke="#00f"/>
<rect x="116" y="146" width="44" height="10" fill="#ff0"/>
<rect x="236" y="146" width="95" height="10" fill="#ff0"/>
<rect x="408" y="146" width="329" height="10" fill="#ff0"/>
<text x="20" y="175" class="sm">0.1384</text>
<rect x="100" y="165" width="231" height="12" fill="#00f"/>
<rect x="407" y="165" width="406" height="12" fill="#00f"/>
<line x1="331" y1="171" x2="406" y2="171" stroke="#00f"/>
<rect x="116" y="166" width="215" height="10" fill="#ff0"/>
<rect x="408" y="166" width="329" height="10" fill="#ff0"/>
<text x="20" y="195" class="sm">0.05652</text>
<rect x="100" y="185" width="60" height="12" fill="#00f"/>
<rect x="235" y="185" width="578" height="12" fill="#00f"/>
<line x1="160" y1="191" x2="234" y2="191" stroke="#00f"/>
<rect x="459" y="186" width="278" height="10" fill="#ff0"/>
<text x="20" y="215" class="sm">0.02442</text>
<rect x="100" y="205" width="60" height="12" fill="#00f"/>
<rect x="235" y="205" width="116" height="12" fill="#00f"/>
<rect x="407" y="205" width="406" height="12" fill="#00f"/>
<line x1="160" y1="211" x2="234" y2="211" stroke="#00f"/>
<line x1="351" y1="211" x2="406" y2="211" stroke="#00f"/>
<rect x="459" y="206" width="278" height="10" fill="#ff0"/>
<text x="20" y="235" class="sm">0.01644</text>
<rect x="100" y="225" width="44" height="12" fill="#00f"/>
<rect x="235" y="225" width="96" height="12" fill="#00f"/>
<rect x="407" y="225" width="406" height="12" fill="#00f"/>
<line x1="144" y1="231" x2="234" y2="231" stroke="#00f"/>
<line x1="331" y1="231" x2="406" y2="231" stroke="#00f"/>
<rect x="284" y="226" width="47" height="10" fill="#ff0"/>
<rect x="408" y="226" width="329" height="10" fill="#ff0"/>
<text x="20" y="255" class="sm">0.006001</text>
<rect x="100" y="245" width="60" height="12" fill="#00f"/>
<rect x="235" y="245" width="116" height="12" fill="#00f"/>
<rect x="429" y="245" width="384" height="12" fill="#00f"/>
<line x1="160" y1="251" x2="234" y2="251" stroke="#00f"/>
<line x1="351" y1="251" x2="428" y2="251" stroke="#00f"/>
<rect x="459" y="246" width="278" height="10" fill="#ff0"/>
<text x="20" y="275" class="sm">0.00436</text>
<rect x="100" y="265" width="251" height="12" fill="#00f"/>
<rect x="407" y="265" width="406" height="12" fill="#00f"/>
<line x1="351" y1="271" x2="406" y2="271" stroke="#00f"/>
<rect x="459" y="266" width="278" height="10" fill="#ff0"/>
<text x="20" y="295" class="sm">0.003818</text>
<rect x="100" y="285" width="60" height="12" fill="#00f"/>
<rect x="407" y="285" width="406" height="12" fill="#00f"/>
<line x1="160" y1="291" x2="406" y2="291" stroke="#00f"/>
<rect x="116" y="286" width="44" height="10" fill="#ff0"/>
<rect x="408" y="286" width="329" height="10" fill="#ff0"/>
<text x="20" y="315" class="sm">0.003577</text>
<rect x="100" y="305" width="60" height="12" fill="#00f"/>
<rect x="235" y="305" width="96" height="12" fill="#00f"/>
<rect x="429" y="305" width="384" height="12" fill="#00f"/>
<line x1="160" y1="311" x2="234" y2="311" stroke="#00f"/>
<line x1="331" y1="311" x2="428" y2="311" stroke="#00f"/>
<rect x="459" y="306" width="278" height="10" fill="#ff0"/>
<text x="20" y="335" class="sm">0.003076</text>
<rect x="100" y="325" width="60" height="12" fill="#00f"/>
<rect x="235" y="325" width="96" height="12" fill="#00f"/>
<rect x="407" y="325" width="160" height="12" fill="#00f"/>
<rect x="639" y="325" width="174" height="12" fill="#00f"/>
<line x1="160" y1="331" x2="234" y2="331" stroke="#00f"/>
<line x1="331" y1="331" x2="406" y2="331" stroke="#00f"/>
<line x1="567" y1="331" x2="638" y2="331" stroke="#00f"/>
<rect x="116" y="326" width="44" height="10" fill="#ff0"/>
<rect x="236" y="326" width="95" height="10" fill="#ff0"/>
<rect x="408" y="326" width="159" height="10" fill="#ff0"/>
<rect x="640" y="326" width="97" height="10" fill="#ff0"/>
<text x="20" y="355" class="sm">0.002261</text>
<rect x="100" y="345" width="60" height="12" fill="#00f"/>
<rect x="235" y="345" width="96" height="12" fill="#00f"/>
<rect x="407" y="345" width="160" height="12" fill="#00f"/>
<rect x="605" y="345" width="208" height="12" fill="#00f"/>
<line x1="160" y1="351" x2="234" y2="351" stroke="#00f"/>
<line x1="331" y1="351" x2="406" y2="351" stroke="#00f"/>
<line x1="567" y1="351" x2="604" y2="351" stroke="#00f"/>
<rect x="116" y="346" width="44" height="10" fill="#ff0"/>
<rect x="236" y="346" width="95" height="10" fill="#ff0"/>
<rect x="408" y="346" width="159" height="10" fill="#ff0"/>
<rect x="606" y="346" width="25" height="10" fill="#ff0"/>
<text x="20" y="375" class="sm">0.002079</text>
<rect x="100" y="365" width="60" height="12" fill="#00f"/>
<rect x="281" y="365" width="50" height="12" fill="#00f"/>
<rect x="407" y="365" width="406" height="12" fill="#00f"/>
<line x1="160" y1="371" x2="280" y2="371" stroke="#00f"/>
<line x1="331" y1="371" x2="406" y2="371" stroke="#00f"/>
<rect x="284" y="366" width="47" height="10" fill="#ff0"/>
<rect x="408" y="366" width="329" height="10" fill="#ff0"/>
<text x="20" y="395" class="sm">0.001269</text>
<rect x="100" y="385" width="44" height="12" fill="#00f"/>
<rect x="235" y="385" width="578" height="12" fill="#00f"/>
<line x1="144" y1="391" x2="234" y2="391" stroke="#00f"/>
<rect x="459" y="386" width="278" height="10" fill="#ff0"/>
<text x="20" y="415" class="sm">0.001213</text>
<rect x="100" y="405" width="60" height="12" fill="#00f"/>
<rect x="235" y="405" width="116" height="12" fill="#00f"/>
<rect x="470" y="405" width="343" height="12" fill="#00f"/>
<line x1="160" y1="411" x2="234" y2="411" stroke="#00f"/>
<line x1="351" y1="411" x2="469" y2="411" stroke="#00f"/>
<rect x="116" y="406" width="44" height="10" fill="#ff0"/>
<rect x="236" y="406" width="107" height="10" fill="#ff0"/>
<text x="20" y="435" class="sm">0.001071</text>
<rect x="100" y="425" width="251" height="12" fill="#00f"/>
<rect x="429" y="425" width="384" height="12" fill="#00f"/>
<line x1="351" y1="431" x2="428" y2="431" stroke="#00f"/>
<rect x="459" y="426" width="278" height="10" fill="#ff0"/>
<text x="20" y="455" class="sm">0.0008291</text>
<rect x="100" y="445" width="150" height="12" fill="#00f"/>
<rect x="407" y="445" width="406" height="12" fill="#00f"/>
<line x1="250" y1="451" x2="406" y2="451" stroke="#00f"/>
<rect x="116" y="446" width="134" height="10" fill="#ff0"/>
<rect x="408" y="446" width="329" height="10" fill="#ff0"/>
<text x="20" y="475" class="sm">0.0006758</text>
<rect x="100" y="465" width="231" height="12" fill="#00f"/>
<rect x="429" y="465" width="384" height="12" fill="#00f"/>
<line x1="331" y1="471" x2="428" y2="471" stroke="#00f"/>
<rect x="459" y="466" width="278" height="10" fill="#ff0"/>
<text x="20" y="495" class="sm">0.0005812</text>
<rect x="100" y="485" width="231" height="12" fill="#00f"/>
<rect x="407" y="485" width="160" height="12" fill="#00f"/>
<rect x="639" y="485" width="174" height="12" fill="#00f"/>
<line x1="331" y1="491" x2="406" y2="491" stroke="#00f"/>
<line x1="567" y1="491" x2="638" y2="491" stroke="#00f"/>
<rect x="116" y="486" width="215" height="10" fill="#ff0"/>
<rect x="408" y="486" width="159" height="10" fill="#ff0"/>
<rect x="640" y="486" width="97" height="10" fill="#ff0"/>
<text x="20" y="515" class="sm">0.0005483</text>
<rect x="100" y="505" width="44" height="12" fill="#00f"/>
<rect x="235" y="505" width="116" height="12" fill="#00f"/>
<rect x="407" y="505" width="406" height="12" fill="#00f"/>
<line x1="144" y1="511" x2="234" y2="511" stroke="#00f"/>
<line x1="351" y1="511" x2="406" y2="511" stroke="#00f"/>
<rect x="459" y="506" width="278" height="10" fill="#ff0"/>
<text x="20" y="535" class="sm">0.0004282</text>
<rect x="100" y="525" width="60" height="12" fill="#00f"/>
<rect x="235" y="525" width="116" height="12" fill="#00f"/>
<rect x="488" y="525" width="325" height="12" fill="#00f"/>
<line x1="160" y1="531" x2="234" y2="531" stroke="#00f"/>
<line x1="351" y1="531" x2="487" y2="531" stroke="#00f"/>
<rect x="116" y="526" width="44" height="10" fill="#ff0"/>
<rect x="236" y="526" width="107" height="10" fill="#ff0"/>
</svg>
