<svg viewBox="0 0 603 510" xmlns="http://www.w3.org/2000/svg">

<style>
  .sm { font: 12px sans-serif; }
  .lg { font: 15px sans-serif; }
</style>
<rect fill="#ddd" x="0" y="0" width="100%" height="100%"/>
<text x="20" y="20" class="lg">ch.19152 X:10302641-10303243 Gene:WBGene00009620</text>
<text x="20" y="50" class="sm">WormBase</text>
<rect x="100" y="40" width="51" height="12" fill="#00f"/>
<rect x="255" y="40" width="248" height="12" fill="#00f"/>
<line x1="151" y1="46" x2="254" y2="46" stroke="#00f"/>
<rect x="102" y="41" width="49" height="10" fill="#ff0"/>
<rect x="256" y="41" width="174" height="10" fill="#ff0"/>
<rect x="101" y="41" width="0" height="10" fill="brown"><title>.</title></rect>
<rect x="431" y="41" width="72" height="10" fill="brown"><title>.</title></rect>
<text x="20" y="70" class="sm">Fitness: 2.316881334204552e-07</text>
<rect x="151" y="65" width="104" height="5" fill="#00f"><title>552692.0</title></rect>
<rect x="151" y="70" width="80" height="5" fill="#00f"><title>5.0</title></rect>
<text x="20" y="100" class="sm">1.0</text>
<rect x="100" y="90" width="51" height="12" fill="#00f"/>
<rect x="255" y="90" width="251" height="12" fill="#00f"/>
<line x1="151" y1="96" x2="254" y2="96" stroke="#00f"/>
<rect x="102" y="91" width="49" height="10" fill="#ff0"/>
<rect x="256" y="91" width="174" height="10" fill="#ff0"/>
<text x="20" y="120" class="sm">8.933e-06</text>
<rect x="100" y="110" width="51" height="12" fill="#00f"/>
<rect x="231" y="110" width="275" height="12" fill="#00f"/>
<line x1="151" y1="116" x2="230" y2="116" stroke="#00f"/>
<rect x="239" y="111" width="191" height="10" fill="#ff0"/>
<text x="20" y="140" class="sm">6.602e-08</text>
<rect x="100" y="130" width="55" height="12" fill="#00f"/>
<rect x="255" y="130" width="251" height="12" fill="#00f"/>
<line x1="155" y1="136" x2="254" y2="136" stroke="#00f"/>
<rect x="102" y="131" width="53" height="10" fill="#ff0"/>
<text x="20" y="160" class="sm">2.889e-08</text>
<rect x="100" y="150" width="31" height="12" fill="#00f"/>
<rect x="255" y="150" width="251" height="12" fill="#00f"/>
<line x1="131" y1="156" x2="254" y2="156" stroke="#00f"/>
<rect x="102" y="151" width="29" height="10" fill="#ff0"/>
<rect x="256" y="151" width="23" height="10" fill="#ff0"/>
<text x="20" y="180" class="sm">1.426e-08</text>
<rect x="100" y="170" width="51" height="12" fill="#00f"/>
<rect x="280" y="170" width="226" height="12" fill="#00f"/>
<line x1="151" y1="176" x2="279" y2="176" stroke="#00f"/>
<rect x="102" y="171" width="49" height="10" fill="#ff0"/>
<rect x="281" y="171" width="183" height="10" fill="#ff0"/>
<text x="20" y="200" class="sm">2.499e-09</text>
<rect x="100" y="190" width="40" height="12" fill="#00f"/>
<rect x="255" y="190" width="251" height="12" fill="#00f"/>
<line x1="140" y1="196" x2="254" y2="196" stroke="#00f"/>
<rect x="102" y="191" width="38" height="10" fill="#ff0"/>
<rect x="256" y="191" width="23" height="10" fill="#ff0"/>
<text x="20" y="220" class="sm">2.391e-09</text>
<rect x="100" y="210" width="57" height="12" fill="#00f"/>
<rect x="255" y="210" width="251" height="12" fill="#00f"/>
<line x1="157" y1="216" x2="254" y2="216" stroke="#00f"/>
<rect x="102" y="211" width="53" height="10" fill="#ff0"/>
<text x="20" y="240" class="sm">1.745e-09</text>
<rect x="100" y="230" width="109" height="12" fill="#00f"/>
<rect x="255" y="230" width="251" height="12" fill="#00f"/>
<line x1="209" y1="236" x2="254" y2="236" stroke="#00f"/>
<rect x="102" y="231" width="53" height="10" fill="#ff0"/>
<text x="20" y="260" class="sm">3.479e-11</text>
<rect x="100" y="250" width="69" height="12" fill="#00f"/>
<rect x="255" y="250" width="251" height="12" fill="#00f"/>
<line x1="169" y1="256" x2="254" y2="256" stroke="#00f"/>
<rect x="168" y="251" width="1" height="10" fill="#ff0"/>
<rect x="256" y="251" width="174" height="10" fill="#ff0"/>
<text x="20" y="280" class="sm">1.979e-12</text>
<rect x="100" y="270" width="51" height="12" fill="#00f"/>
<rect x="270" y="270" width="236" height="12" fill="#00f"/>
<line x1="151" y1="276" x2="269" y2="276" stroke="#00f"/>
<rect x="102" y="271" width="49" height="10" fill="#ff0"/>
<rect x="271" y="271" width="159" height="10" fill="#ff0"/>
<text x="20" y="300" class="sm">1.013e-12</text>
<rect x="100" y="290" width="51" height="12" fill="#00f"/>
<rect x="302" y="290" width="204" height="12" fill="#00f"/>
<line x1="151" y1="296" x2="301" y2="296" stroke="#00f"/>
<rect x="102" y="291" width="49" height="10" fill="#ff0"/>
<rect x="303" y="291" width="150" height="10" fill="#ff0"/>
<text x="20" y="320" class="sm">7.427e-13</text>
<rect x="100" y="310" width="55" height="12" fill="#00f"/>
<rect x="231" y="310" width="275" height="12" fill="#00f"/>
<line x1="155" y1="316" x2="230" y2="316" stroke="#00f"/>
<rect x="239" y="311" width="191" height="10" fill="#ff0"/>
<text x="20" y="340" class="sm">4.796e-13</text>
<rect x="100" y="330" width="51" height="12" fill="#00f"/>
<rect x="341" y="330" width="165" height="12" fill="#00f"/>
<line x1="151" y1="336" x2="340" y2="336" stroke="#00f"/>
<rect x="102" y="331" width="49" height="10" fill="#ff0"/>
<rect x="342" y="331" width="111" height="10" fill="#ff0"/>
<text x="20" y="360" class="sm">4.403e-13</text>
<rect x="100" y="350" width="51" height="12" fill="#00f"/>
<rect x="210" y="350" width="296" height="12" fill="#00f"/>
<line x1="151" y1="356" x2="209" y2="356" stroke="#00f"/>
<rect x="222" y="351" width="242" height="10" fill="#ff0"/>
<text x="20" y="380" class="sm">3.726e-13</text>
<rect x="100" y="370" width="51" height="12" fill="#00f"/>
<rect x="283" y="370" width="223" height="12" fill="#00f"/>
<line x1="151" y1="376" x2="282" y2="376" stroke="#00f"/>
<rect x="102" y="371" width="49" height="10" fill="#ff0"/>
<rect x="284" y="371" width="180" height="10" fill="#ff0"/>
<text x="20" y="400" class="sm">2.334e-13</text>
<rect x="100" y="390" width="31" height="12" fill="#00f"/>
<rect x="231" y="390" width="275" height="12" fill="#00f"/>
<line x1="131" y1="396" x2="230" y2="396" stroke="#00f"/>
<rect x="239" y="391" width="191" height="10" fill="#ff0"/>
<text x="20" y="420" class="sm">2.739e-14</text>
<rect x="100" y="410" width="57" height="12" fill="#00f"/>
<rect x="231" y="410" width="275" height="12" fill="#00f"/>
<line x1="157" y1="416" x2="230" y2="416" stroke="#00f"/>
<rect x="239" y="411" width="191" height="10" fill="#ff0"/>
<text x="20" y="440" class="sm">1.704e-14</text>
<rect x="100" y="430" width="40" height="12" fill="#00f"/>
<rect x="231" y="430" width="275" height="12" fill="#00f"/>
<line x1="140" y1="436" x2="230" y2="436" stroke="#00f"/>
<rect x="239" y="431" width="191" height="10" fill="#ff0"/>
<text x="20" y="460" class="sm">1.616e-14</text>
<rect x="100" y="450" width="51" height="12" fill="#00f"/>
<rect x="311" y="450" width="195" height="12" fill="#00f"/>
<line x1="151" y1="456" x2="310" y2="456" stroke="#00f"/>
<rect x="102" y="451" width="49" height="10" fill="#ff0"/>
<rect x="312" y="451" width="141" height="10" fill="#ff0"/>
<text x="20" y="480" class="sm">1.4e-15</text>
<rect x="100" y="470" width="51" height="12" fill="#00f"/>
<rect x="272" y="470" width="234" height="12" fill="#00f"/>
<line x1="151" y1="476" x2="271" y2="476" stroke="#00f"/>
<rect x="102" y="471" width="49" height="10" fill="#ff0"/>
<rect x="273" y="471" width="6" height="10" fill="#ff0"/>
</svg>
