<svg viewBox="0 0 732 545" xmlns="http://www.w3.org/2000/svg">

<style>
  .sm { font: 12px sans-serif; }
  .lg { font: 15px sans-serif; }
</style>
<rect fill="#ddd" x="0" y="0" width="100%" height="100%"/>
<text x="20" y="20" class="lg">ch.10399 IV:7153562-7154293 Gene:WBGene00016399</text>
<text x="20" y="50" class="sm">WormBase</text>
<rect x="100" y="40" width="113" height="12" fill="#00f"/>
<rect x="253" y="40" width="93" height="12" fill="#00f"/>
<rect x="393" y="40" width="239" height="12" fill="#00f"/>
<line x1="213" y1="46" x2="252" y2="46" stroke="#00f"/>
<line x1="346" y1="46" x2="392" y2="46" stroke="#00f"/>
<rect x="106" y="41" width="107" height="10" fill="#ff0"/>
<rect x="254" y="41" width="92" height="10" fill="#ff0"/>
<rect x="394" y="41" width="152" height="10" fill="#ff0"/>
<rect x="101" y="41" width="4" height="10" fill="brown"><title>.</title></rect>
<rect x="547" y="41" width="85" height="10" fill="brown"><title>.</title></rect>
<text x="20" y="70" class="sm">Fitness: 0.09197616207587064</text>
<rect x="346" y="65" width="47" height="5" fill="#00f"><title>265446.0</title></rect>
<rect x="213" y="70" width="40" height="5" fill="#00f"><title>196241.0</title></rect>
<rect x="346" y="75" width="51" height="5" fill="#00f"><title>223.0</title></rect>
<rect x="200" y="80" width="53" height="5" fill="#00f"><title>56.0</title></rect>
<rect x="213" y="85" width="97" height="5" fill="#00f"><title>10.0</title></rect>
<rect x="369" y="90" width="45" height="5" fill="#f0f"><title>6.0</title></rect>
<rect x="356" y="95" width="46" height="5" fill="#00f"><title>5.0</title></rect>
<rect x="369" y="100" width="84" height="5" fill="#f0f"><title>5.0</title></rect>
<rect x="206" y="105" width="115" height="5" fill="#f0f"><title>4.0</title></rect>
<text x="20" y="135" class="sm">0.7383</text>
<rect x="100" y="125" width="113" height="12" fill="#00f"/>
<rect x="253" y="125" width="93" height="12" fill="#00f"/>
<rect x="393" y="125" width="242" height="12" fill="#00f"/>
<line x1="213" y1="131" x2="252" y2="131" stroke="#00f"/>
<line x1="346" y1="131" x2="392" y2="131" stroke="#00f"/>
<rect x="106" y="126" width="107" height="10" fill="#ff0"/>
<rect x="254" y="126" width="92" height="10" fill="#ff0"/>
<rect x="394" y="126" width="152" height="10" fill="#ff0"/>
<text x="20" y="155" class="sm">0.1754</text>
<rect x="100" y="145" width="246" height="12" fill="#00f"/>
<rect x="393" y="145" width="242" height="12" fill="#00f"/>
<line x1="346" y1="151" x2="392" y2="151" stroke="#00f"/>
<rect x="155" y="146" width="191" height="10" fill="#ff0"/>
<rect x="394" y="146" width="152" height="10" fill="#ff0"/>
<text x="20" y="175" class="sm">0.0358</text>
<rect x="100" y="165" width="100" height="12" fill="#00f"/>
<rect x="253" y="165" width="93" height="12" fill="#00f"/>
<rect x="393" y="165" width="242" height="12" fill="#00f"/>
<line x1="200" y1="171" x2="252" y2="171" stroke="#00f"/>
<line x1="346" y1="171" x2="392" y2="171" stroke="#00f"/>
<rect x="489" y="166" width="131" height="10" fill="#ff0"/>
<text x="20" y="195" class="sm">0.01927</text>
<rect x="100" y="185" width="113" height="12" fill="#00f"/>
<rect x="282" y="185" width="64" height="12" fill="#00f"/>
<rect x="393" y="185" width="242" height="12" fill="#00f"/>
<line x1="213" y1="191" x2="281" y2="191" stroke="#00f"/>
<line x1="346" y1="191" x2="392" y2="191" stroke="#00f"/>
<rect x="155" y="186" width="58" height="10" fill="#ff0"/>
<rect x="283" y="186" width="63" height="10" fill="#ff0"/>
<rect x="394" y="186" width="152" height="10" fill="#ff0"/>
<text x="20" y="215" class="sm">0.01548</text>
<rect x="100" y="205" width="113" height="12" fill="#00f"/>
<rect x="310" y="205" width="36" height="12" fill="#00f"/>
<rect x="393" y="205" width="242" height="12" fill="#00f"/>
<line x1="213" y1="211" x2="309" y2="211" stroke="#00f"/>
<line x1="346" y1="211" x2="392" y2="211" stroke="#00f"/>
<rect x="106" y="206" width="107" height="10" fill="#ff0"/>
<rect x="311" y="206" width="35" height="10" fill="#ff0"/>
<rect x="394" y="206" width="152" height="10" fill="#ff0"/>
<text x="20" y="235" class="sm">0.003551</text>
<rect x="100" y="225" width="113" height="12" fill="#00f"/>
<rect x="253" y="225" width="382" height="12" fill="#00f"/>
<line x1="213" y1="231" x2="252" y2="231" stroke="#00f"/>
<rect x="106" y="226" width="107" height="10" fill="#ff0"/>
<rect x="254" y="226" width="119" height="10" fill="#ff0"/>
<text x="20" y="255" class="sm">0.003133</text>
<rect x="100" y="245" width="113" height="12" fill="#00f"/>
<rect x="393" y="245" width="242" height="12" fill="#00f"/>
<line x1="213" y1="251" x2="392" y2="251" stroke="#00f"/>
<rect x="106" y="246" width="107" height="10" fill="#ff0"/>
<rect x="394" y="246" width="152" height="10" fill="#ff0"/>
<text x="20" y="275" class="sm">0.001618</text>
<rect x="100" y="265" width="113" height="12" fill="#00f"/>
<rect x="253" y="265" width="62" height="12" fill="#00f"/>
<rect x="393" y="265" width="242" height="12" fill="#00f"/>
<line x1="213" y1="271" x2="252" y2="271" stroke="#00f"/>
<line x1="315" y1="271" x2="392" y2="271" stroke="#00f"/>
<rect x="106" y="266" width="107" height="10" fill="#ff0"/>
<rect x="254" y="266" width="61" height="10" fill="#ff0"/>
<rect x="394" y="266" width="156" height="10" fill="#ff0"/>
<text x="20" y="295" class="sm">0.001394</text>
<rect x="100" y="285" width="113" height="12" fill="#00f"/>
<rect x="253" y="285" width="93" height="12" fill="#00f"/>
<rect x="408" y="285" width="227" height="12" fill="#00f"/>
<line x1="213" y1="291" x2="252" y2="291" stroke="#00f"/>
<line x1="346" y1="291" x2="407" y2="291" stroke="#00f"/>
<rect x="106" y="286" width="107" height="10" fill="#ff0"/>
<rect x="254" y="286" width="92" height="10" fill="#ff0"/>
<rect x="409" y="286" width="137" height="10" fill="#ff0"/>
<text x="20" y="315" class="sm">0.001368</text>
<rect x="100" y="305" width="113" height="12" fill="#00f"/>
<rect x="253" y="305" width="97" height="12" fill="#00f"/>
<rect x="393" y="305" width="242" height="12" fill="#00f"/>
<line x1="213" y1="311" x2="252" y2="311" stroke="#00f"/>
<line x1="350" y1="311" x2="392" y2="311" stroke="#00f"/>
<rect x="106" y="306" width="107" height="10" fill="#ff0"/>
<rect x="254" y="306" width="96" height="10" fill="#ff0"/>
<rect x="394" y="306" width="49" height="10" fill="#ff0"/>
<text x="20" y="335" class="sm">0.001085</text>
<rect x="100" y="325" width="113" height="12" fill="#00f"/>
<rect x="253" y="325" width="93" height="12" fill="#00f"/>
<rect x="397" y="325" width="238" height="12" fill="#00f"/>
<line x1="213" y1="331" x2="252" y2="331" stroke="#00f"/>
<line x1="346" y1="331" x2="396" y2="331" stroke="#00f"/>
<rect x="106" y="326" width="107" height="10" fill="#ff0"/>
<rect x="254" y="326" width="92" height="10" fill="#ff0"/>
<rect x="398" y="326" width="152" height="10" fill="#ff0"/>
<text x="20" y="355" class="sm">0.0006411</text>
<rect x="100" y="345" width="113" height="12" fill="#00f"/>
<rect x="253" y="345" width="100" height="12" fill="#00f"/>
<rect x="393" y="345" width="242" height="12" fill="#00f"/>
<line x1="213" y1="351" x2="252" y2="351" stroke="#00f"/>
<line x1="353" y1="351" x2="392" y2="351" stroke="#00f"/>
<rect x="106" y="346" width="107" height="10" fill="#ff0"/>
<rect x="254" y="346" width="99" height="10" fill="#ff0"/>
<rect x="394" y="346" width="49" height="10" fill="#ff0"/>
<text x="20" y="375" class="sm">0.0006142</text>
<rect x="100" y="365" width="100" height="12" fill="#00f"/>
<rect x="282" y="365" width="64" height="12" fill="#00f"/>
<rect x="393" y="365" width="242" height="12" fill="#00f"/>
<line x1="200" y1="371" x2="281" y2="371" stroke="#00f"/>
<line x1="346" y1="371" x2="392" y2="371" stroke="#00f"/>
<rect x="106" y="366" width="94" height="10" fill="#ff0"/>
<rect x="283" y="366" width="63" height="10" fill="#ff0"/>
<rect x="394" y="366" width="152" height="10" fill="#ff0"/>
<text x="20" y="395" class="sm">0.0005906</text>
<rect x="100" y="385" width="100" height="12" fill="#00f"/>
<rect x="310" y="385" width="36" height="12" fill="#00f"/>
<rect x="393" y="385" width="242" height="12" fill="#00f"/>
<line x1="200" y1="391" x2="309" y2="391" stroke="#00f"/>
<line x1="346" y1="391" x2="392" y2="391" stroke="#00f"/>
<rect x="489" y="386" width="131" height="10" fill="#ff0"/>
<text x="20" y="415" class="sm">0.0003463</text>
<rect x="100" y="405" width="215" height="12" fill="#00f"/>
<rect x="393" y="405" width="242" height="12" fill="#00f"/>
<line x1="315" y1="411" x2="392" y2="411" stroke="#00f"/>
<rect x="155" y="406" width="160" height="10" fill="#ff0"/>
<rect x="394" y="406" width="156" height="10" fill="#ff0"/>
<text x="20" y="435" class="sm">0.0003311</text>
<rect x="100" y="425" width="246" height="12" fill="#00f"/>
<rect x="408" y="425" width="227" height="12" fill="#00f"/>
<line x1="346" y1="431" x2="407" y2="431" stroke="#00f"/>
<rect x="155" y="426" width="191" height="10" fill="#ff0"/>
<rect x="409" y="426" width="137" height="10" fill="#ff0"/>
<text x="20" y="455" class="sm">0.000326</text>
<rect x="100" y="445" width="250" height="12" fill="#00f"/>
<rect x="393" y="445" width="242" height="12" fill="#00f"/>
<line x1="350" y1="451" x2="392" y2="451" stroke="#00f"/>
<rect x="155" y="446" width="195" height="10" fill="#ff0"/>
<rect x="394" y="446" width="49" height="10" fill="#ff0"/>
<text x="20" y="475" class="sm">0.0002827</text>
<rect x="100" y="465" width="100" height="12" fill="#00f"/>
<rect x="237" y="465" width="109" height="12" fill="#00f"/>
<rect x="393" y="465" width="242" height="12" fill="#00f"/>
<line x1="200" y1="471" x2="236" y2="471" stroke="#00f"/>
<line x1="346" y1="471" x2="392" y2="471" stroke="#00f"/>
<rect x="106" y="466" width="94" height="10" fill="#ff0"/>
<rect x="238" y="466" width="108" height="10" fill="#ff0"/>
<rect x="394" y="466" width="152" height="10" fill="#ff0"/>
<text x="20" y="495" class="sm">0.0002578</text>
<rect x="100" y="485" width="246" height="12" fill="#00f"/>
<rect x="397" y="485" width="238" height="12" fill="#00f"/>
<line x1="346" y1="491" x2="396" y2="491" stroke="#00f"/>
<rect x="155" y="486" width="191" height="10" fill="#ff0"/>
<rect x="398" y="486" width="152" height="10" fill="#ff0"/>
<text x="20" y="515" class="sm">0.0001721</text>
<rect x="100" y="505" width="100" height="12" fill="#00f"/>
<rect x="253" y="505" width="382" height="12" fill="#00f"/>
<line x1="200" y1="511" x2="252" y2="511" stroke="#00f"/>
<rect x="489" y="506" width="131" height="10" fill="#ff0"/>
</svg>
