<svg viewBox="0 0 635 505" xmlns="http://www.w3.org/2000/svg">

<style>
  .sm { font: 12px sans-serif; }
  .lg { font: 15px sans-serif; }
</style>
<rect fill="#ddd" x="0" y="0" width="100%" height="100%"/>
<text x="20" y="20" class="lg">ch.18875 X:8534572-8535206 Gene:WBGene00023477</text>
<text x="20" y="50" class="sm">WormBase</text>
<rect x="102" y="40" width="31" height="12" fill="#00f"/>
<rect x="179" y="40" width="358" height="12" fill="#00f"/>
<line x1="133" y1="46" x2="178" y2="46" stroke="#00f"/>
<rect x="131" y="41" width="2" height="10" fill="#ff0"/>
<rect x="180" y="41" width="302" height="10" fill="#ff0"/>
<rect x="103" y="41" width="27" height="10" fill="brown"><title>.</title></rect>
<rect x="483" y="41" width="54" height="10" fill="brown"><title>.</title></rect>
<text x="20" y="70" class="sm">Fitness: 1.4554096006431002e-09</text>
<rect x="133" y="65" width="46" height="5" fill="#00f"><title>293882.0</title></rect>
<text x="20" y="95" class="sm">1.0</text>
<rect x="100" y="85" width="33" height="12" fill="#00f"/>
<rect x="179" y="85" width="359" height="12" fill="#00f"/>
<line x1="133" y1="91" x2="178" y2="91" stroke="#00f"/>
<rect x="131" y="86" width="2" height="10" fill="#ff0"/>
<rect x="180" y="86" width="302" height="10" fill="#ff0"/>
<text x="20" y="115" class="sm">3.706e-10</text>
<rect x="100" y="105" width="37" height="12" fill="#00f"/>
<rect x="179" y="105" width="359" height="12" fill="#00f"/>
<line x1="137" y1="111" x2="178" y2="111" stroke="#00f"/>
<rect x="268" y="106" width="146" height="10" fill="#ff0"/>
<text x="20" y="135" class="sm">3.566e-10</text>
<rect x="100" y="125" width="350" height="12" fill="#00f"/>
<rect x="502" y="125" width="36" height="12" fill="#00f"/>
<line x1="450" y1="131" x2="501" y2="131" stroke="#00f"/>
<rect x="268" y="126" width="146" height="10" fill="#ff0"/>
<text x="20" y="155" class="sm">3.744e-13</text>
<rect x="100" y="145" width="33" height="12" fill="#00f"/>
<rect x="179" y="145" width="271" height="12" fill="#00f"/>
<rect x="502" y="145" width="36" height="12" fill="#00f"/>
<line x1="133" y1="151" x2="178" y2="151" stroke="#00f"/>
<line x1="450" y1="151" x2="501" y2="151" stroke="#00f"/>
<rect x="131" y="146" width="2" height="10" fill="#ff0"/>
<rect x="180" y="146" width="270" height="10" fill="#ff0"/>
<rect x="503" y="146" width="16" height="10" fill="#ff0"/>
<text x="20" y="175" class="sm">1.295e-13</text>
<rect x="100" y="165" width="353" height="12" fill="#00f"/>
<rect x="502" y="165" width="36" height="12" fill="#00f"/>
<line x1="453" y1="171" x2="501" y2="171" stroke="#00f"/>
<rect x="268" y="166" width="146" height="10" fill="#ff0"/>
<text x="20" y="195" class="sm">7.664e-16</text>
<rect x="100" y="185" width="33" height="12" fill="#00f"/>
<rect x="223" y="185" width="315" height="12" fill="#00f"/>
<line x1="133" y1="191" x2="222" y2="191" stroke="#00f"/>
<rect x="268" y="186" width="146" height="10" fill="#ff0"/>
<text x="20" y="215" class="sm">1.423e-16</text>
<rect x="100" y="205" width="33" height="12" fill="#00f"/>
<rect x="179" y="205" width="274" height="12" fill="#00f"/>
<rect x="502" y="205" width="36" height="12" fill="#00f"/>
<line x1="133" y1="211" x2="178" y2="211" stroke="#00f"/>
<line x1="453" y1="211" x2="501" y2="211" stroke="#00f"/>
<rect x="131" y="206" width="2" height="10" fill="#ff0"/>
<rect x="180" y="206" width="273" height="10" fill="#ff0"/>
<rect x="503" y="206" width="16" height="10" fill="#ff0"/>
<text x="20" y="235" class="sm">5.613e-18</text>
<rect x="100" y="225" width="257" height="12" fill="#00f"/>
<rect x="403" y="225" width="135" height="12" fill="#00f"/>
<line x1="357" y1="231" x2="402" y2="231" stroke="#00f"/>
<rect x="268" y="226" width="89" height="10" fill="#ff0"/>
<rect x="404" y="226" width="71" height="10" fill="#ff0"/>
<text x="20" y="255" class="sm">1.458e-18</text>
<rect x="100" y="245" width="245" height="12" fill="#00f"/>
<rect x="403" y="245" width="135" height="12" fill="#00f"/>
<line x1="345" y1="251" x2="402" y2="251" stroke="#00f"/>
<rect x="268" y="246" width="77" height="10" fill="#ff0"/>
<rect x="404" y="246" width="71" height="10" fill="#ff0"/>
<text x="20" y="275" class="sm">7.264e-20</text>
<rect x="100" y="265" width="33" height="12" fill="#00f"/>
<rect x="249" y="265" width="289" height="12" fill="#00f"/>
<line x1="133" y1="271" x2="248" y2="271" stroke="#00f"/>
<rect x="131" y="266" width="2" height="10" fill="#ff0"/>
<rect x="250" y="266" width="164" height="10" fill="#ff0"/>
<text x="20" y="295" class="sm">6.374e-21</text>
<rect x="100" y="285" width="33" height="12" fill="#00f"/>
<rect x="179" y="285" width="178" height="12" fill="#00f"/>
<rect x="403" y="285" width="135" height="12" fill="#00f"/>
<line x1="133" y1="291" x2="178" y2="291" stroke="#00f"/>
<line x1="357" y1="291" x2="402" y2="291" stroke="#00f"/>
<rect x="131" y="286" width="2" height="10" fill="#ff0"/>
<rect x="180" y="286" width="177" height="10" fill="#ff0"/>
<rect x="404" y="286" width="10" height="10" fill="#ff0"/>
<text x="20" y="315" class="sm">1.618e-21</text>
<rect x="100" y="305" width="33" height="12" fill="#00f"/>
<rect x="179" y="305" width="166" height="12" fill="#00f"/>
<rect x="403" y="305" width="135" height="12" fill="#00f"/>
<line x1="133" y1="311" x2="178" y2="311" stroke="#00f"/>
<line x1="345" y1="311" x2="402" y2="311" stroke="#00f"/>
<rect x="131" y="306" width="2" height="10" fill="#ff0"/>
<rect x="180" y="306" width="165" height="10" fill="#ff0"/>
<rect x="404" y="306" width="10" height="10" fill="#ff0"/>
<text x="20" y="335" class="sm">1.059e-21</text>
<rect x="100" y="325" width="173" height="12" fill="#00f"/>
<rect x="329" y="325" width="209" height="12" fill="#00f"/>
<line x1="273" y1="331" x2="328" y2="331" stroke="#00f"/>
<rect x="268" y="326" width="5" height="10" fill="#ff0"/>
<rect x="330" y="326" width="152" height="10" fill="#ff0"/>
<text x="20" y="355" class="sm">2.658e-22</text>
<rect x="100" y="345" width="173" height="12" fill="#00f"/>
<rect x="403" y="345" width="135" height="12" fill="#00f"/>
<line x1="273" y1="351" x2="402" y2="351" stroke="#00f"/>
<rect x="268" y="346" width="5" height="10" fill="#ff0"/>
<rect x="404" y="346" width="71" height="10" fill="#ff0"/>
<text x="20" y="375" class="sm">2.177e-22</text>
<rect x="100" y="365" width="247" height="12" fill="#00f"/>
<rect x="403" y="365" width="135" height="12" fill="#00f"/>
<line x1="347" y1="371" x2="402" y2="371" stroke="#00f"/>
<rect x="268" y="366" width="79" height="10" fill="#ff0"/>
<rect x="404" y="366" width="78" height="10" fill="#ff0"/>
<text x="20" y="395" class="sm">1.387e-22</text>
<rect x="100" y="385" width="37" height="12" fill="#00f"/>
<rect x="179" y="385" width="271" height="12" fill="#00f"/>
<rect x="502" y="385" width="36" height="12" fill="#00f"/>
<line x1="137" y1="391" x2="178" y2="391" stroke="#00f"/>
<line x1="450" y1="391" x2="501" y2="391" stroke="#00f"/>
<rect x="268" y="386" width="146" height="10" fill="#ff0"/>
<text x="20" y="415" class="sm">4.233e-23</text>
<rect x="100" y="405" width="265" height="12" fill="#00f"/>
<rect x="403" y="405" width="135" height="12" fill="#00f"/>
<line x1="365" y1="411" x2="402" y2="411" stroke="#00f"/>
<rect x="268" y="406" width="97" height="10" fill="#ff0"/>
<rect x="404" y="406" width="78" height="10" fill="#ff0"/>
<text x="20" y="435" class="sm">3.192e-23</text>
<rect x="100" y="425" width="109" height="12" fill="#00f"/>
<rect x="249" y="425" width="289" height="12" fill="#00f"/>
<line x1="209" y1="431" x2="248" y2="431" stroke="#00f"/>
<rect x="268" y="426" width="146" height="10" fill="#ff0"/>
<text x="20" y="455" class="sm">1.372e-23</text>
<rect x="100" y="445" width="155" height="12" fill="#00f"/>
<rect x="307" y="445" width="231" height="12" fill="#00f"/>
<line x1="255" y1="451" x2="306" y2="451" stroke="#00f"/>
<rect x="404" y="446" width="71" height="10" fill="#ff0"/>
<text x="20" y="475" class="sm">5.885e-24</text>
<rect x="100" y="465" width="170" height="12" fill="#00f"/>
<rect x="307" y="465" width="231" height="12" fill="#00f"/>
<line x1="270" y1="471" x2="306" y2="471" stroke="#00f"/>
<rect x="404" y="466" width="71" height="10" fill="#ff0"/>
</svg>
