<svg viewBox="0 0 785 540" xmlns="http://www.w3.org/2000/svg">

<style>
  .sm { font: 12px sans-serif; }
  .lg { font: 15px sans-serif; }
</style>
<rect fill="#ddd" x="0" y="0" width="100%" height="100%"/>
<text x="20" y="20" class="lg">ch.1740 I:9154128-9154912 Gene:WBGene00010422</text>
<text x="20" y="50" class="sm">WormBase</text>
<rect x="102" y="40" width="222" height="12" fill="#00f"/>
<rect x="452" y="40" width="235" height="12" fill="#00f"/>
<line x1="324" y1="46" x2="451" y2="46" stroke="#00f"/>
<rect x="210" y="41" width="114" height="10" fill="#ff0"/>
<rect x="453" y="41" width="97" height="10" fill="#ff0"/>
<rect x="103" y="41" width="106" height="10" fill="brown"><title>.</title></rect>
<rect x="551" y="41" width="136" height="10" fill="brown"><title>.</title></rect>
<text x="20" y="70" class="sm">Fitness: 0.10260441979473252</text>
<rect x="324" y="65" width="128" height="5" fill="#00f"><title>132731.0</title></rect>
<rect x="62" y="70" width="390" height="5" fill="#00f"><title>7031.0</title></rect>
<rect x="62" y="75" width="82" height="5" fill="#00f"><title>89.0</title></rect>
<rect x="62" y="80" width="123" height="5" fill="#00f"><title>42.0</title></rect>
<rect x="94" y="85" width="50" height="5" fill="#00f"><title>11.0</title></rect>
<rect x="62" y="90" width="90" height="5" fill="#00f"><title>5.0</title></rect>
<rect x="324" y="95" width="164" height="5" fill="#00f"><title>4.0</title></rect>
<rect x="324" y="100" width="101" height="5" fill="#00f"><title>3.0</title></rect>
<text x="20" y="130" class="sm">0.9491</text>
<rect x="100" y="120" width="224" height="12" fill="#00f"/>
<rect x="452" y="120" width="236" height="12" fill="#00f"/>
<line x1="324" y1="126" x2="451" y2="126" stroke="#00f"/>
<rect x="210" y="121" width="114" height="10" fill="#ff0"/>
<rect x="453" y="121" width="97" height="10" fill="#ff0"/>
<text x="20" y="150" class="sm">0.02116</text>
<rect x="100" y="140" width="209" height="12" fill="#00f"/>
<rect x="452" y="140" width="236" height="12" fill="#00f"/>
<line x1="309" y1="146" x2="451" y2="146" stroke="#00f"/>
<rect x="210" y="141" width="99" height="10" fill="#ff0"/>
<rect x="453" y="141" width="97" height="10" fill="#ff0"/>
<text x="20" y="170" class="sm">0.009305</text>
<rect x="100" y="160" width="168" height="12" fill="#00f"/>
<rect x="452" y="160" width="236" height="12" fill="#00f"/>
<line x1="268" y1="166" x2="451" y2="166" stroke="#00f"/>
<rect x="501" y="161" width="155" height="10" fill="#ff0"/>
<text x="20" y="190" class="sm">0.007001</text>
<rect x="100" y="180" width="224" height="12" fill="#00f"/>
<rect x="646" y="180" width="42" height="12" fill="#00f"/>
<line x1="324" y1="186" x2="645" y2="186" stroke="#00f"/>
<rect x="210" y="181" width="114" height="10" fill="#ff0"/>
<rect x="647" y="181" width="22" height="10" fill="#ff0"/>
<text x="20" y="210" class="sm">0.004582</text>
<rect x="100" y="200" width="84" height="12" fill="#00f"/>
<rect x="452" y="200" width="236" height="12" fill="#00f"/>
<line x1="184" y1="206" x2="451" y2="206" stroke="#00f"/>
<rect x="501" y="201" width="155" height="10" fill="#ff0"/>
<text x="20" y="230" class="sm">0.002197</text>
<rect x="100" y="220" width="139" height="12" fill="#00f"/>
<rect x="452" y="220" width="236" height="12" fill="#00f"/>
<line x1="239" y1="226" x2="451" y2="226" stroke="#00f"/>
<rect x="210" y="221" width="29" height="10" fill="#ff0"/>
<rect x="453" y="221" width="203" height="10" fill="#ff0"/>
<text x="20" y="250" class="sm">0.001855</text>
<rect x="100" y="240" width="185" height="12" fill="#00f"/>
<rect x="452" y="240" width="236" height="12" fill="#00f"/>
<line x1="285" y1="246" x2="451" y2="246" stroke="#00f"/>
<rect x="210" y="241" width="75" height="10" fill="#ff0"/>
<rect x="453" y="241" width="97" height="10" fill="#ff0"/>
<text x="20" y="270" class="sm">0.001147</text>
<rect x="100" y="260" width="278" height="12" fill="#00f"/>
<rect x="452" y="260" width="236" height="12" fill="#00f"/>
<line x1="378" y1="266" x2="451" y2="266" stroke="#00f"/>
<rect x="501" y="261" width="155" height="10" fill="#ff0"/>
<text x="20" y="290" class="sm">0.0009831</text>
<rect x="100" y="280" width="224" height="12" fill="#00f"/>
<rect x="488" y="280" width="200" height="12" fill="#00f"/>
<line x1="324" y1="286" x2="487" y2="286" stroke="#00f"/>
<rect x="210" y="281" width="114" height="10" fill="#ff0"/>
<rect x="489" y="281" width="61" height="10" fill="#ff0"/>
<text x="20" y="310" class="sm">0.0008631</text>
<rect x="100" y="300" width="224" height="12" fill="#00f"/>
<rect x="389" y="300" width="299" height="12" fill="#00f"/>
<line x1="324" y1="306" x2="388" y2="306" stroke="#00f"/>
<rect x="210" y="301" width="114" height="10" fill="#ff0"/>
<rect x="390" y="301" width="43" height="10" fill="#ff0"/>
<text x="20" y="330" class="sm">0.0008524</text>
<rect x="100" y="320" width="153" height="12" fill="#00f"/>
<rect x="452" y="320" width="236" height="12" fill="#00f"/>
<line x1="253" y1="326" x2="451" y2="326" stroke="#00f"/>
<rect x="501" y="321" width="155" height="10" fill="#ff0"/>
<text x="20" y="350" class="sm">0.0005705</text>
<rect x="100" y="340" width="262" height="12" fill="#00f"/>
<rect x="452" y="340" width="236" height="12" fill="#00f"/>
<line x1="362" y1="346" x2="451" y2="346" stroke="#00f"/>
<rect x="501" y="341" width="155" height="10" fill="#ff0"/>
<text x="20" y="370" class="sm">0.0001623</text>
<rect x="100" y="360" width="209" height="12" fill="#00f"/>
<rect x="646" y="360" width="42" height="12" fill="#00f"/>
<line x1="309" y1="366" x2="645" y2="366" stroke="#00f"/>
<rect x="210" y="361" width="99" height="10" fill="#ff0"/>
<rect x="647" y="361" width="22" height="10" fill="#ff0"/>
<text x="20" y="390" class="sm">7.097e-05</text>
<rect x="100" y="380" width="168" height="12" fill="#00f"/>
<rect x="646" y="380" width="42" height="12" fill="#00f"/>
<line x1="268" y1="386" x2="645" y2="386" stroke="#00f"/>
<rect x="210" y="381" width="58" height="10" fill="#ff0"/>
<rect x="647" y="381" width="9" height="10" fill="#ff0"/>
<text x="20" y="410" class="sm">6.871e-05</text>
<rect x="100" y="400" width="224" height="12" fill="#00f"/>
<rect x="425" y="400" width="263" height="12" fill="#00f"/>
<line x1="324" y1="406" x2="424" y2="406" stroke="#00f"/>
<rect x="501" y="401" width="155" height="10" fill="#ff0"/>
<text x="20" y="430" class="sm">3.505e-05</text>
<rect x="100" y="420" width="84" height="12" fill="#00f"/>
<rect x="646" y="420" width="42" height="12" fill="#00f"/>
<line x1="184" y1="426" x2="645" y2="426" stroke="#00f"/>
<rect x="107" y="421" width="23" height="10" fill="#ff0"/>
<text x="20" y="450" class="sm">2.78e-05</text>
<rect x="100" y="440" width="173" height="12" fill="#00f"/>
<rect x="452" y="440" width="236" height="12" fill="#00f"/>
<line x1="273" y1="446" x2="451" y2="446" stroke="#00f"/>
<rect x="210" y="441" width="63" height="10" fill="#ff0"/>
<rect x="453" y="441" width="97" height="10" fill="#ff0"/>
<text x="20" y="470" class="sm">2.211e-05</text>
<rect x="100" y="460" width="209" height="12" fill="#00f"/>
<rect x="488" y="460" width="200" height="12" fill="#00f"/>
<line x1="309" y1="466" x2="487" y2="466" stroke="#00f"/>
<rect x="210" y="461" width="99" height="10" fill="#ff0"/>
<rect x="489" y="461" width="61" height="10" fill="#ff0"/>
<text x="20" y="490" class="sm">2.119e-05</text>
<rect x="100" y="480" width="251" height="12" fill="#00f"/>
<rect x="452" y="480" width="236" height="12" fill="#00f"/>
<line x1="351" y1="486" x2="451" y2="486" stroke="#00f"/>
<rect x="210" y="481" width="141" height="10" fill="#ff0"/>
<rect x="453" y="481" width="97" height="10" fill="#ff0"/>
<text x="20" y="510" class="sm">1.758e-05</text>
<rect x="100" y="500" width="209" height="12" fill="#00f"/>
<rect x="389" y="500" width="299" height="12" fill="#00f"/>
<line x1="309" y1="506" x2="388" y2="506" stroke="#00f"/>
<rect x="501" y="501" width="155" height="10" fill="#ff0"/>
</svg>
