<svg viewBox="0 0 1029 550" xmlns="http://www.w3.org/2000/svg">

<style>
  .sm { font: 12px sans-serif; }
  .lg { font: 15px sans-serif; }
</style>
<rect fill="#ddd" x="0" y="0" width="100%" height="100%"/>
<text x="20" y="20" class="lg">ch.19868 X:14485027-14486055 Gene:WBGene00010940</text>
<text x="20" y="50" class="sm">WormBase</text>
<rect x="100" y="40" width="219" height="12" fill="#00f"/>
<rect x="364" y="40" width="110" height="12" fill="#00f"/>
<rect x="533" y="40" width="395" height="12" fill="#00f"/>
<line x1="319" y1="46" x2="363" y2="46" stroke="#00f"/>
<line x1="474" y1="46" x2="532" y2="46" stroke="#00f"/>
<rect x="395" y="41" width="79" height="10" fill="#ff0"/>
<rect x="534" y="41" width="333" height="10" fill="#ff0"/>
<rect x="101" y="41" width="218" height="10" fill="brown"><title>.</title></rect>
<rect x="365" y="41" width="29" height="10" fill="brown"><title>.</title></rect>
<rect x="868" y="41" width="60" height="10" fill="brown"><title>.</title></rect>
<text x="20" y="70" class="sm">WormBase</text>
<rect x="311" y="60" width="163" height="12" fill="#00f"/>
<rect x="533" y="60" width="396" height="12" fill="#00f"/>
<line x1="474" y1="66" x2="532" y2="66" stroke="#00f"/>
<rect x="395" y="61" width="79" height="10" fill="#ff0"/>
<rect x="534" y="61" width="333" height="10" fill="#ff0"/>
<rect x="312" y="61" width="82" height="10" fill="brown"><title>.</title></rect>
<rect x="868" y="61" width="61" height="10" fill="brown"><title>.</title></rect>
<text x="20" y="90" class="sm">Fitness: 0.0007011245795601222</text>
<rect x="474" y="85" width="59" height="5" fill="#00f"><title>144646.0</title></rect>
<rect x="319" y="90" width="45" height="5" fill="#00f"><title>69.0</title></rect>
<rect x="319" y="95" width="56" height="5" fill="#00f"><title>28.0</title></rect>
<rect x="478" y="100" width="55" height="5" fill="#00f"><title>6.0</title></rect>
<rect x="786" y="105" width="50" height="5" fill="#f0f"><title>6.0</title></rect>
<rect x="652" y="110" width="127" height="5" fill="#f0f"><title>3.0</title></rect>
<text x="20" y="140" class="sm">0.9993</text>
<rect x="100" y="130" width="374" height="12" fill="#00f"/>
<rect x="533" y="130" width="399" height="12" fill="#00f"/>
<line x1="474" y1="136" x2="532" y2="136" stroke="#00f"/>
<rect x="395" y="131" width="79" height="10" fill="#ff0"/>
<rect x="534" y="131" width="333" height="10" fill="#ff0"/>
<text x="20" y="160" class="sm">0.0003268</text>
<rect x="100" y="150" width="378" height="12" fill="#00f"/>
<rect x="533" y="150" width="399" height="12" fill="#00f"/>
<line x1="478" y1="156" x2="532" y2="156" stroke="#00f"/>
<rect x="462" y="151" width="16" height="10" fill="#ff0"/>
<rect x="534" y="151" width="333" height="10" fill="#ff0"/>
<text x="20" y="180" class="sm">0.0002279</text>
<rect x="100" y="170" width="219" height="12" fill="#00f"/>
<rect x="375" y="170" width="557" height="12" fill="#00f"/>
<line x1="319" y1="176" x2="374" y2="176" stroke="#00f"/>
<rect x="584" y="171" width="302" height="10" fill="#ff0"/>
<text x="20" y="200" class="sm">0.0001319</text>
<rect x="100" y="190" width="219" height="12" fill="#00f"/>
<rect x="364" y="190" width="568" height="12" fill="#00f"/>
<line x1="319" y1="196" x2="363" y2="196" stroke="#00f"/>
<rect x="584" y="191" width="302" height="10" fill="#ff0"/>
<text x="20" y="220" class="sm">1.809e-05</text>
<rect x="100" y="210" width="345" height="12" fill="#00f"/>
<rect x="490" y="210" width="442" height="12" fill="#00f"/>
<line x1="445" y1="216" x2="489" y2="216" stroke="#00f"/>
<rect x="395" y="211" width="50" height="10" fill="#ff0"/>
<rect x="491" y="211" width="395" height="10" fill="#ff0"/>
<text x="20" y="240" class="sm">6.307e-06</text>
<rect x="100" y="230" width="363" height="12" fill="#00f"/>
<rect x="533" y="230" width="399" height="12" fill="#00f"/>
<line x1="463" y1="236" x2="532" y2="236" stroke="#00f"/>
<rect x="584" y="231" width="302" height="10" fill="#ff0"/>
<text x="20" y="260" class="sm">1.489e-06</text>
<rect x="100" y="250" width="374" height="12" fill="#00f"/>
<rect x="620" y="250" width="312" height="12" fill="#00f"/>
<line x1="474" y1="256" x2="619" y2="256" stroke="#00f"/>
<rect x="395" y="251" width="79" height="10" fill="#ff0"/>
<rect x="621" y="251" width="246" height="10" fill="#ff0"/>
<text x="20" y="280" class="sm">1.394e-06</text>
<rect x="100" y="270" width="140" height="12" fill="#00f"/>
<rect x="375" y="270" width="557" height="12" fill="#00f"/>
<line x1="240" y1="276" x2="374" y2="276" stroke="#00f"/>
<rect x="584" y="271" width="302" height="10" fill="#ff0"/>
<text x="20" y="300" class="sm">1.05e-06</text>
<rect x="100" y="290" width="140" height="12" fill="#00f"/>
<rect x="351" y="290" width="581" height="12" fill="#00f"/>
<line x1="240" y1="296" x2="350" y2="296" stroke="#00f"/>
<rect x="584" y="291" width="302" height="10" fill="#ff0"/>
<text x="20" y="320" class="sm">1.047e-06</text>
<rect x="100" y="310" width="374" height="12" fill="#00f"/>
<rect x="638" y="310" width="294" height="12" fill="#00f"/>
<line x1="474" y1="316" x2="637" y2="316" stroke="#00f"/>
<rect x="395" y="311" width="79" height="10" fill="#ff0"/>
<rect x="639" y="311" width="228" height="10" fill="#ff0"/>
<text x="20" y="340" class="sm">6.465e-07</text>
<rect x="100" y="330" width="374" height="12" fill="#00f"/>
<rect x="641" y="330" width="291" height="12" fill="#00f"/>
<line x1="474" y1="336" x2="640" y2="336" stroke="#00f"/>
<rect x="395" y="331" width="79" height="10" fill="#ff0"/>
<rect x="642" y="331" width="225" height="10" fill="#ff0"/>
<text x="20" y="360" class="sm">2.834e-07</text>
<rect x="100" y="350" width="311" height="12" fill="#00f"/>
<rect x="490" y="350" width="442" height="12" fill="#00f"/>
<line x1="411" y1="356" x2="489" y2="356" stroke="#00f"/>
<rect x="584" y="351" width="302" height="10" fill="#ff0"/>
<text x="20" y="380" class="sm">1.401e-07</text>
<rect x="100" y="370" width="140" height="12" fill="#00f"/>
<rect x="364" y="370" width="568" height="12" fill="#00f"/>
<line x1="240" y1="376" x2="363" y2="376" stroke="#00f"/>
<rect x="584" y="371" width="302" height="10" fill="#ff0"/>
<text x="20" y="400" class="sm">6.02e-08</text>
<rect x="100" y="390" width="100" height="12" fill="#00f"/>
<rect x="245" y="390" width="687" height="12" fill="#00f"/>
<line x1="200" y1="396" x2="244" y2="396" stroke="#00f"/>
<rect x="584" y="391" width="302" height="10" fill="#ff0"/>
<text x="20" y="420" class="sm">5.781e-08</text>
<rect x="100" y="410" width="219" height="12" fill="#00f"/>
<rect x="490" y="410" width="442" height="12" fill="#00f"/>
<line x1="319" y1="416" x2="489" y2="416" stroke="#00f"/>
<rect x="584" y="411" width="302" height="10" fill="#ff0"/>
<text x="20" y="440" class="sm">5.238e-08</text>
<rect x="100" y="430" width="227" height="12" fill="#00f"/>
<rect x="375" y="430" width="557" height="12" fill="#00f"/>
<line x1="327" y1="436" x2="374" y2="436" stroke="#00f"/>
<rect x="584" y="431" width="302" height="10" fill="#ff0"/>
<text x="20" y="460" class="sm">3.186e-08</text>
<rect x="100" y="450" width="140" height="12" fill="#00f"/>
<rect x="490" y="450" width="442" height="12" fill="#00f"/>
<line x1="240" y1="456" x2="489" y2="456" stroke="#00f"/>
<rect x="211" y="451" width="29" height="10" fill="#ff0"/>
<rect x="491" y="451" width="395" height="10" fill="#ff0"/>
<text x="20" y="480" class="sm">2.614e-08</text>
<rect x="100" y="470" width="311" height="12" fill="#00f"/>
<rect x="533" y="470" width="399" height="12" fill="#00f"/>
<line x1="411" y1="476" x2="532" y2="476" stroke="#00f"/>
<rect x="395" y="471" width="16" height="10" fill="#ff0"/>
<rect x="534" y="471" width="333" height="10" fill="#ff0"/>
<text x="20" y="500" class="sm">2.398e-08</text>
<rect x="100" y="490" width="219" height="12" fill="#00f"/>
<rect x="533" y="490" width="399" height="12" fill="#00f"/>
<line x1="319" y1="496" x2="532" y2="496" stroke="#00f"/>
<rect x="211" y="491" width="108" height="10" fill="#ff0"/>
<rect x="534" y="491" width="352" height="10" fill="#ff0"/>
<text x="20" y="520" class="sm">2.023e-08</text>
<rect x="100" y="510" width="345" height="12" fill="#00f"/>
<rect x="533" y="510" width="399" height="12" fill="#00f"/>
<line x1="445" y1="516" x2="532" y2="516" stroke="#00f"/>
<rect x="584" y="511" width="302" height="10" fill="#ff0"/>
</svg>
