<svg viewBox="0 0 899 555" xmlns="http://www.w3.org/2000/svg">

<style>
  .sm { font: 12px sans-serif; }
  .lg { font: 15px sans-serif; }
</style>
<rect fill="#ddd" x="0" y="0" width="100%" height="100%"/>
<text x="20" y="20" class="lg">ch.14896 V:10160336-10161234 Gene:WBGene00008255</text>
<text x="20" y="50" class="sm">WormBase</text>
<rect x="102" y="40" width="253" height="12" fill="#00f"/>
<rect x="588" y="40" width="213" height="12" fill="#00f"/>
<line x1="355" y1="46" x2="587" y2="46" stroke="#00f"/>
<rect x="241" y="41" width="114" height="10" fill="#ff0"/>
<rect x="589" y="41" width="73" height="10" fill="#ff0"/>
<rect x="103" y="41" width="137" height="10" fill="brown"><title>.</title></rect>
<rect x="663" y="41" width="138" height="10" fill="brown"><title>.</title></rect>
<text x="20" y="70" class="sm">WormBase</text>
<rect x="106" y="60" width="254" height="12" fill="#00f"/>
<rect x="588" y="60" width="210" height="12" fill="#00f"/>
<line x1="360" y1="66" x2="587" y2="66" stroke="#00f"/>
<rect x="241" y="61" width="119" height="10" fill="#ff0"/>
<rect x="589" y="61" width="8" height="10" fill="#ff0"/>
<rect x="107" y="61" width="133" height="10" fill="brown"><title>.</title></rect>
<rect x="598" y="61" width="200" height="10" fill="brown"><title>.</title></rect>
<text x="20" y="90" class="sm">WormBase</text>
<rect x="602" y="80" width="60" height="12" fill="#00f"/>
<rect x="603" y="81" width="59" height="10" fill="#ff0"/>
<text x="20" y="110" class="sm">Fitness: 0.4158074130721682</text>
<rect x="360" y="105" width="228" height="5" fill="#00f"><title>144967.0</title></rect>
<rect x="355" y="110" width="233" height="5" fill="#00f"><title>110030.0</title></rect>
<rect x="355" y="115" width="246" height="5" fill="#00f"><title>4.0</title></rect>
<text x="20" y="145" class="sm">0.4261</text>
<rect x="100" y="135" width="255" height="12" fill="#00f"/>
<rect x="588" y="135" width="214" height="12" fill="#00f"/>
<line x1="355" y1="141" x2="587" y2="141" stroke="#00f"/>
<rect x="241" y="136" width="114" height="10" fill="#ff0"/>
<rect x="589" y="136" width="73" height="10" fill="#ff0"/>
<text x="20" y="165" class="sm">0.3661</text>
<rect x="100" y="155" width="260" height="12" fill="#00f"/>
<rect x="588" y="155" width="214" height="12" fill="#00f"/>
<line x1="360" y1="161" x2="587" y2="161" stroke="#00f"/>
<rect x="241" y="156" width="119" height="10" fill="#ff0"/>
<rect x="589" y="156" width="8" height="10" fill="#ff0"/>
<text x="20" y="185" class="sm">0.1327</text>
<rect x="100" y="175" width="272" height="12" fill="#00f"/>
<rect x="588" y="175" width="214" height="12" fill="#00f"/>
<line x1="372" y1="181" x2="587" y2="181" stroke="#00f"/>
<rect x="241" y="176" width="131" height="10" fill="#ff0"/>
<rect x="589" y="176" width="8" height="10" fill="#ff0"/>
<text x="20" y="205" class="sm">0.05144</text>
<rect x="100" y="195" width="270" height="12" fill="#00f"/>
<rect x="588" y="195" width="214" height="12" fill="#00f"/>
<line x1="370" y1="201" x2="587" y2="201" stroke="#00f"/>
<rect x="241" y="196" width="129" height="10" fill="#ff0"/>
<rect x="589" y="196" width="73" height="10" fill="#ff0"/>
<text x="20" y="225" class="sm">0.01588</text>
<rect x="100" y="215" width="292" height="12" fill="#00f"/>
<rect x="588" y="215" width="214" height="12" fill="#00f"/>
<line x1="392" y1="221" x2="587" y2="221" stroke="#00f"/>
<rect x="241" y="216" width="137" height="10" fill="#ff0"/>
<text x="20" y="245" class="sm">0.001962</text>
<rect x="100" y="235" width="179" height="12" fill="#00f"/>
<rect x="588" y="235" width="214" height="12" fill="#00f"/>
<line x1="279" y1="241" x2="587" y2="241" stroke="#00f"/>
<rect x="603" y="236" width="59" height="10" fill="#ff0"/>
<text x="20" y="265" class="sm">0.001618</text>
<rect x="100" y="255" width="255" height="12" fill="#00f"/>
<rect x="610" y="255" width="192" height="12" fill="#00f"/>
<line x1="355" y1="261" x2="609" y2="261" stroke="#00f"/>
<rect x="241" y="256" width="114" height="10" fill="#ff0"/>
<rect x="611" y="256" width="22" height="10" fill="#ff0"/>
<text x="20" y="285" class="sm">0.001396</text>
<rect x="100" y="275" width="260" height="12" fill="#00f"/>
<rect x="610" y="275" width="192" height="12" fill="#00f"/>
<line x1="360" y1="281" x2="609" y2="281" stroke="#00f"/>
<rect x="241" y="276" width="119" height="10" fill="#ff0"/>
<rect x="611" y="276" width="2" height="10" fill="#ff0"/>
<text x="20" y="305" class="sm">0.0005063</text>
<rect x="100" y="295" width="272" height="12" fill="#00f"/>
<rect x="610" y="295" width="192" height="12" fill="#00f"/>
<line x1="372" y1="301" x2="609" y2="301" stroke="#00f"/>
<rect x="241" y="296" width="131" height="10" fill="#ff0"/>
<rect x="611" y="296" width="2" height="10" fill="#ff0"/>
<text x="20" y="325" class="sm">0.0004654</text>
<rect x="100" y="315" width="185" height="12" fill="#00f"/>
<rect x="588" y="315" width="214" height="12" fill="#00f"/>
<line x1="285" y1="321" x2="587" y2="321" stroke="#00f"/>
<rect x="603" y="316" width="59" height="10" fill="#ff0"/>
<text x="20" y="345" class="sm">0.0003571</text>
<rect x="100" y="335" width="35" height="12" fill="#00f"/>
<rect x="588" y="335" width="214" height="12" fill="#00f"/>
<line x1="135" y1="341" x2="587" y2="341" stroke="#00f"/>
<rect x="603" y="336" width="59" height="10" fill="#ff0"/>
<text x="20" y="365" class="sm">0.0003011</text>
<rect x="100" y="355" width="115" height="12" fill="#00f"/>
<rect x="588" y="355" width="214" height="12" fill="#00f"/>
<line x1="215" y1="361" x2="587" y2="361" stroke="#00f"/>
<rect x="603" y="356" width="59" height="10" fill="#ff0"/>
<text x="20" y="385" class="sm">0.0002207</text>
<rect x="100" y="375" width="53" height="12" fill="#00f"/>
<rect x="588" y="375" width="214" height="12" fill="#00f"/>
<line x1="153" y1="381" x2="587" y2="381" stroke="#00f"/>
<rect x="603" y="376" width="59" height="10" fill="#ff0"/>
<text x="20" y="405" class="sm">0.0001987</text>
<rect x="100" y="395" width="255" height="12" fill="#00f"/>
<rect x="627" y="395" width="175" height="12" fill="#00f"/>
<line x1="355" y1="401" x2="626" y2="401" stroke="#00f"/>
<rect x="241" y="396" width="114" height="10" fill="#ff0"/>
<rect x="628" y="396" width="34" height="10" fill="#ff0"/>
<text x="20" y="425" class="sm">0.0001964</text>
<rect x="100" y="415" width="270" height="12" fill="#00f"/>
<rect x="610" y="415" width="192" height="12" fill="#00f"/>
<line x1="370" y1="421" x2="609" y2="421" stroke="#00f"/>
<rect x="241" y="416" width="129" height="10" fill="#ff0"/>
<rect x="611" y="416" width="22" height="10" fill="#ff0"/>
<text x="20" y="445" class="sm">0.0001699</text>
<rect x="100" y="435" width="260" height="12" fill="#00f"/>
<rect x="627" y="435" width="175" height="12" fill="#00f"/>
<line x1="360" y1="441" x2="626" y2="441" stroke="#00f"/>
<rect x="241" y="436" width="119" height="10" fill="#ff0"/>
<rect x="628" y="436" width="5" height="10" fill="#ff0"/>
<text x="20" y="465" class="sm">0.0001326</text>
<rect x="100" y="455" width="51" height="12" fill="#00f"/>
<rect x="588" y="455" width="214" height="12" fill="#00f"/>
<line x1="151" y1="461" x2="587" y2="461" stroke="#00f"/>
<rect x="603" y="456" width="59" height="10" fill="#ff0"/>
<text x="20" y="485" class="sm">6.237e-05</text>
<rect x="100" y="475" width="272" height="12" fill="#00f"/>
<rect x="627" y="475" width="175" height="12" fill="#00f"/>
<line x1="372" y1="481" x2="626" y2="481" stroke="#00f"/>
<rect x="241" y="476" width="131" height="10" fill="#ff0"/>
<rect x="628" y="476" width="5" height="10" fill="#ff0"/>
<text x="20" y="505" class="sm">5.953e-05</text>
<rect x="100" y="495" width="292" height="12" fill="#00f"/>
<rect x="610" y="495" width="192" height="12" fill="#00f"/>
<line x1="392" y1="501" x2="609" y2="501" stroke="#00f"/>
<rect x="241" y="496" width="137" height="10" fill="#ff0"/>
<text x="20" y="525" class="sm">4.538e-05</text>
<rect x="100" y="515" width="59" height="12" fill="#00f"/>
<rect x="588" y="515" width="214" height="12" fill="#00f"/>
<line x1="159" y1="521" x2="587" y2="521" stroke="#00f"/>
<rect x="603" y="516" width="59" height="10" fill="#ff0"/>
</svg>
