<svg viewBox="0 0 728 655" xmlns="http://www.w3.org/2000/svg">

<style>
  .sm { font: 12px sans-serif; }
  .lg { font: 15px sans-serif; }
</style>
<rect fill="#ddd" x="0" y="0" width="100%" height="100%"/>
<text x="20" y="20" class="lg">ch.14628 V:9089977-9090704 Gene:WBGene00002017</text>
<text x="20" y="50" class="sm">WormBase</text>
<rect x="100" y="40" width="164" height="12" fill="#00f"/>
<rect x="316" y="40" width="312" height="12" fill="#00f"/>
<line x1="264" y1="46" x2="315" y2="46" stroke="#00f"/>
<rect x="139" y="41" width="125" height="10" fill="#ff0"/>
<rect x="317" y="41" width="311" height="10" fill="#ff0"/>
<rect x="101" y="41" width="37" height="10" fill="brown"><title>.</title></rect>
<text x="20" y="70" class="sm">Fitness: 0.002568878699989901</text>
<rect x="264" y="65" width="52" height="5" fill="#00f"><title>6737860.0</title></rect>
<rect x="264" y="70" width="41" height="5" fill="#00f"><title>6745.0</title></rect>
<rect x="268" y="75" width="48" height="5" fill="#00f"><title>3608.0</title></rect>
<rect x="10" y="80" width="43" height="5" fill="#00f"><title>868.0</title></rect>
<rect x="264" y="85" width="73" height="5" fill="#00f"><title>794.0</title></rect>
<rect x="499" y="90" width="52" height="5" fill="#00f"><title>208.0</title></rect>
<rect x="10" y="95" width="71" height="5" fill="#00f"><title>160.0</title></rect>
<rect x="264" y="100" width="100" height="5" fill="#00f"><title>128.0</title></rect>
<rect x="184" y="105" width="48" height="5" fill="#00f"><title>126.0</title></rect>
<rect x="184" y="110" width="55" height="5" fill="#00f"><title>82.0</title></rect>
<rect x="10" y="115" width="229" height="5" fill="#00f"><title>72.0</title></rect>
<rect x="49" y="120" width="46" height="5" fill="#f0f"><title>61.0</title></rect>
<rect x="268" y="125" width="37" height="5" fill="#00f"><title>58.0</title></rect>
<rect x="412" y="130" width="156" height="5" fill="#00f"><title>50.0</title></rect>
<rect x="250" y="135" width="235" height="5" fill="#f0f"><title>49.0</title></rect>
<rect x="49" y="140" width="101" height="5" fill="#f0f"><title>23.0</title></rect>
<rect x="10" y="145" width="49" height="5" fill="#00f"><title>22.0</title></rect>
<rect x="437" y="150" width="48" height="5" fill="#f0f"><title>20.0</title></rect>
<rect x="10" y="155" width="156" height="5" fill="#00f"><title>19.0</title></rect>
<rect x="438" y="160" width="213" height="5" fill="#00f"><title>11.0</title></rect>
<rect x="159" y="165" width="57" height="5" fill="#00f"><title>10.0</title></rect>
<rect x="231" y="170" width="146" height="5" fill="#00f"><title>10.0</title></rect>
<rect x="250" y="175" width="155" height="5" fill="#f0f"><title>10.0</title></rect>
<rect x="264" y="180" width="155" height="5" fill="#00f"><title>10.0</title></rect>
<rect x="503" y="185" width="48" height="5" fill="#00f"><title>8.0</title></rect>
<rect x="359" y="190" width="240" height="5" fill="#00f"><title>6.0</title></rect>
<rect x="163" y="195" width="56" height="5" fill="#00f"><title>4.0</title></rect>
<rect x="264" y="200" width="193" height="5" fill="#00f"><title>4.0</title></rect>
<rect x="140" y="205" width="99" height="5" fill="#00f"><title>3.0</title></rect>
<rect x="160" y="210" width="37" height="5" fill="#00f"><title>3.0</title></rect>
<rect x="620" y="215" width="51" height="5" fill="#f0f"><title>3.0</title></rect>
<text x="20" y="245" class="sm">0.9981</text>
<rect x="100" y="235" width="164" height="12" fill="#00f"/>
<rect x="316" y="235" width="315" height="12" fill="#00f"/>
<line x1="264" y1="241" x2="315" y2="241" stroke="#00f"/>
<rect x="139" y="236" width="125" height="10" fill="#ff0"/>
<rect x="317" y="236" width="311" height="10" fill="#ff0"/>
<text x="20" y="265" class="sm">0.0007483</text>
<rect x="100" y="255" width="168" height="12" fill="#00f"/>
<rect x="316" y="255" width="315" height="12" fill="#00f"/>
<line x1="268" y1="261" x2="315" y2="261" stroke="#00f"/>
<rect x="139" y="256" width="129" height="10" fill="#ff0"/>
<rect x="317" y="256" width="7" height="10" fill="#ff0"/>
<text x="20" y="285" class="sm">0.0006313</text>
<rect x="100" y="275" width="131" height="12" fill="#00f"/>
<rect x="289" y="275" width="342" height="12" fill="#00f"/>
<line x1="231" y1="281" x2="288" y2="281" stroke="#00f"/>
<rect x="139" y="276" width="92" height="10" fill="#ff0"/>
<rect x="290" y="276" width="338" height="10" fill="#ff0"/>
<text x="20" y="305" class="sm">0.0002097</text>
<rect x="100" y="295" width="84" height="12" fill="#00f"/>
<rect x="239" y="295" width="392" height="12" fill="#00f"/>
<line x1="184" y1="301" x2="238" y2="301" stroke="#00f"/>
<rect x="139" y="296" width="45" height="10" fill="#ff0"/>
<rect x="240" y="296" width="28" height="10" fill="#ff0"/>
<text x="20" y="325" class="sm">0.0001105</text>
<rect x="100" y="315" width="131" height="12" fill="#00f"/>
<rect x="316" y="315" width="315" height="12" fill="#00f"/>
<line x1="231" y1="321" x2="315" y2="321" stroke="#00f"/>
<rect x="139" y="316" width="92" height="10" fill="#ff0"/>
<rect x="317" y="316" width="311" height="10" fill="#ff0"/>
<text x="20" y="345" class="sm">5.821e-05</text>
<rect x="100" y="335" width="164" height="12" fill="#00f"/>
<rect x="305" y="335" width="326" height="12" fill="#00f"/>
<line x1="264" y1="341" x2="304" y2="341" stroke="#00f"/>
<rect x="139" y="336" width="125" height="10" fill="#ff0"/>
<rect x="306" y="336" width="41" height="10" fill="#ff0"/>
<text x="20" y="365" class="sm">4.749e-05</text>
<rect x="100" y="355" width="131" height="12" fill="#00f"/>
<rect x="269" y="355" width="362" height="12" fill="#00f"/>
<line x1="231" y1="361" x2="268" y2="361" stroke="#00f"/>
<rect x="139" y="356" width="92" height="10" fill="#ff0"/>
<rect x="270" y="356" width="2" height="10" fill="#ff0"/>
<text x="20" y="385" class="sm">3.539e-05</text>
<rect x="100" y="375" width="164" height="12" fill="#00f"/>
<rect x="370" y="375" width="261" height="12" fill="#00f"/>
<line x1="264" y1="381" x2="369" y2="381" stroke="#00f"/>
<rect x="139" y="376" width="125" height="10" fill="#ff0"/>
<rect x="371" y="376" width="257" height="10" fill="#ff0"/>
<text x="20" y="405" class="sm">3.182e-05</text>
<rect x="100" y="395" width="164" height="12" fill="#00f"/>
<rect x="364" y="395" width="267" height="12" fill="#00f"/>
<line x1="264" y1="401" x2="363" y2="401" stroke="#00f"/>
<rect x="139" y="396" width="125" height="10" fill="#ff0"/>
<rect x="365" y="396" width="263" height="10" fill="#ff0"/>
<text x="20" y="425" class="sm">2.481e-05</text>
<rect x="100" y="415" width="84" height="12" fill="#00f"/>
<rect x="232" y="415" width="399" height="12" fill="#00f"/>
<line x1="184" y1="421" x2="231" y2="421" stroke="#00f"/>
<rect x="139" y="416" width="45" height="10" fill="#ff0"/>
<rect x="233" y="416" width="67" height="10" fill="#ff0"/>
<text x="20" y="445" class="sm">3.924e-06</text>
<rect x="100" y="435" width="219" height="12" fill="#00f"/>
<rect x="370" y="435" width="261" height="12" fill="#00f"/>
<line x1="319" y1="441" x2="369" y2="441" stroke="#00f"/>
<rect x="139" y="436" width="161" height="10" fill="#ff0"/>
<text x="20" y="465" class="sm">3.579e-06</text>
<rect x="100" y="455" width="84" height="12" fill="#00f"/>
<rect x="289" y="455" width="342" height="12" fill="#00f"/>
<line x1="184" y1="461" x2="288" y2="461" stroke="#00f"/>
<rect x="139" y="456" width="45" height="10" fill="#ff0"/>
<rect x="290" y="456" width="10" height="10" fill="#ff0"/>
<text x="20" y="485" class="sm">3.558e-06</text>
<rect x="100" y="475" width="219" height="12" fill="#00f"/>
<rect x="364" y="475" width="267" height="12" fill="#00f"/>
<line x1="319" y1="481" x2="363" y2="481" stroke="#00f"/>
<rect x="139" y="476" width="161" height="10" fill="#ff0"/>
<text x="20" y="505" class="sm">2.107e-06</text>
<rect x="100" y="495" width="236" height="12" fill="#00f"/>
<rect x="374" y="495" width="257" height="12" fill="#00f"/>
<line x1="336" y1="501" x2="373" y2="501" stroke="#00f"/>
<rect x="327" y="496" width="9" height="10" fill="#ff0"/>
<rect x="375" y="496" width="253" height="10" fill="#ff0"/>
<text x="20" y="525" class="sm">7.216e-07</text>
<rect x="100" y="515" width="84" height="12" fill="#00f"/>
<rect x="316" y="515" width="315" height="12" fill="#00f"/>
<line x1="184" y1="521" x2="315" y2="521" stroke="#00f"/>
<rect x="139" y="516" width="45" height="10" fill="#ff0"/>
<rect x="317" y="516" width="7" height="10" fill="#ff0"/>
<text x="20" y="545" class="sm">5.166e-07</text>
<rect x="100" y="535" width="372" height="12" fill="#00f"/>
<rect x="527" y="535" width="104" height="12" fill="#00f"/>
<line x1="472" y1="541" x2="526" y2="541" stroke="#00f"/>
<rect x="139" y="536" width="161" height="10" fill="#ff0"/>
<text x="20" y="565" class="sm">3.723e-07</text>
<rect x="100" y="555" width="372" height="12" fill="#00f"/>
<rect x="509" y="555" width="122" height="12" fill="#00f"/>
<line x1="472" y1="561" x2="508" y2="561" stroke="#00f"/>
<rect x="139" y="556" width="161" height="10" fill="#ff0"/>
<text x="20" y="585" class="sm">2.873e-07</text>
<rect x="100" y="575" width="84" height="12" fill="#00f"/>
<rect x="269" y="575" width="362" height="12" fill="#00f"/>
<line x1="184" y1="581" x2="268" y2="581" stroke="#00f"/>
<rect x="139" y="576" width="45" height="10" fill="#ff0"/>
<rect x="270" y="576" width="358" height="10" fill="#ff0"/>
<text x="20" y="605" class="sm">2.75e-07</text>
<rect x="100" y="595" width="84" height="12" fill="#00f"/>
<rect x="264" y="595" width="367" height="12" fill="#00f"/>
<line x1="184" y1="601" x2="263" y2="601" stroke="#00f"/>
<rect x="139" y="596" width="45" height="10" fill="#ff0"/>
<rect x="265" y="596" width="7" height="10" fill="#ff0"/>
<text x="20" y="625" class="sm">2.642e-07</text>
<rect x="100" y="615" width="77" height="12" fill="#00f"/>
<rect x="239" y="615" width="392" height="12" fill="#00f"/>
<line x1="177" y1="621" x2="238" y2="621" stroke="#00f"/>
<rect x="139" y="616" width="38" height="10" fill="#ff0"/>
<rect x="240" y="616" width="14" height="10" fill="#ff0"/>
</svg>
