<svg viewBox="0 0 783 565" xmlns="http://www.w3.org/2000/svg">

<style>
  .sm { font: 12px sans-serif; }
  .lg { font: 15px sans-serif; }
</style>
<rect fill="#ddd" x="0" y="0" width="100%" height="100%"/>
<text x="20" y="20" class="lg">ch.1647 I:8759106-8759888 Gene:WBGene00006574</text>
<text x="20" y="50" class="sm">WormBase</text>
<rect x="102" y="40" width="126" height="12" fill="#00f"/>
<rect x="384" y="40" width="301" height="12" fill="#00f"/>
<line x1="228" y1="46" x2="383" y2="46" stroke="#00f"/>
<rect x="112" y="41" width="116" height="10" fill="#ff0"/>
<rect x="385" y="41" width="209" height="10" fill="#ff0"/>
<rect x="103" y="41" width="8" height="10" fill="brown"><title>.</title></rect>
<rect x="595" y="41" width="90" height="10" fill="brown"><title>.</title></rect>
<text x="20" y="70" class="sm">Fitness: 0.00017048509204911045</text>
<rect x="228" y="65" width="156" height="5" fill="#00f"><title>1150860.0</title></rect>
<rect x="14" y="70" width="88" height="5" fill="#00f"><title>36.0</title></rect>
<rect x="44" y="75" width="58" height="5" fill="#00f"><title>24.0</title></rect>
<rect x="25" y="80" width="43" height="5" fill="#f0f"><title>24.0</title></rect>
<rect x="4" y="85" width="98" height="5" fill="#00f"><title>14.0</title></rect>
<rect x="330" y="90" width="54" height="5" fill="#00f"><title>11.0</title></rect>
<rect x="156" y="95" width="38" height="5" fill="#f0f"><title>7.0</title></rect>
<rect x="146" y="100" width="43" height="5" fill="#00f"><title>6.0</title></rect>
<rect x="228" y="105" width="237" height="5" fill="#00f"><title>5.0</title></rect>
<rect x="243" y="110" width="156" height="5" fill="#00f"><title>4.0</title></rect>
<rect x="228" y="115" width="123" height="5" fill="#00f"><title>4.0</title></rect>
<rect x="471" y="120" width="34" height="5" fill="#f0f"><title>3.0</title></rect>
<rect x="166" y="125" width="30" height="5" fill="#f0f"><title>3.0</title></rect>
<text x="20" y="155" class="sm">0.9999</text>
<rect x="100" y="145" width="128" height="12" fill="#00f"/>
<rect x="384" y="145" width="302" height="12" fill="#00f"/>
<line x1="228" y1="151" x2="383" y2="151" stroke="#00f"/>
<rect x="112" y="146" width="116" height="10" fill="#ff0"/>
<rect x="385" y="146" width="209" height="10" fill="#ff0"/>
<text x="20" y="175" class="sm">7.356e-05</text>
<rect x="100" y="165" width="128" height="12" fill="#00f"/>
<rect x="340" y="165" width="346" height="12" fill="#00f"/>
<line x1="228" y1="171" x2="339" y2="171" stroke="#00f"/>
<rect x="456" y="166" width="218" height="10" fill="#ff0"/>
<text x="20" y="195" class="sm">6.845e-06</text>
<rect x="100" y="185" width="157" height="12" fill="#00f"/>
<rect x="384" y="185" width="302" height="12" fill="#00f"/>
<line x1="257" y1="191" x2="383" y2="191" stroke="#00f"/>
<rect x="112" y="186" width="145" height="10" fill="#ff0"/>
<rect x="385" y="186" width="285" height="10" fill="#ff0"/>
<text x="20" y="215" class="sm">4.865e-06</text>
<rect x="100" y="205" width="128" height="12" fill="#00f"/>
<rect x="465" y="205" width="221" height="12" fill="#00f"/>
<line x1="228" y1="211" x2="464" y2="211" stroke="#00f"/>
<rect x="112" y="206" width="116" height="10" fill="#ff0"/>
<rect x="466" y="206" width="128" height="10" fill="#ff0"/>
<text x="20" y="235" class="sm">1.272e-06</text>
<rect x="100" y="225" width="128" height="12" fill="#00f"/>
<rect x="427" y="225" width="259" height="12" fill="#00f"/>
<line x1="228" y1="231" x2="426" y2="231" stroke="#00f"/>
<rect x="112" y="226" width="116" height="10" fill="#ff0"/>
<rect x="428" y="226" width="242" height="10" fill="#ff0"/>
<text x="20" y="255" class="sm">7.699e-07</text>
<rect x="100" y="245" width="128" height="12" fill="#00f"/>
<rect x="351" y="245" width="335" height="12" fill="#00f"/>
<line x1="228" y1="251" x2="350" y2="251" stroke="#00f"/>
<rect x="456" y="246" width="218" height="10" fill="#ff0"/>
<text x="20" y="275" class="sm">4.589e-07</text>
<rect x="100" y="265" width="182" height="12" fill="#00f"/>
<rect x="384" y="265" width="302" height="12" fill="#00f"/>
<line x1="282" y1="271" x2="383" y2="271" stroke="#00f"/>
<rect x="456" y="266" width="218" height="10" fill="#ff0"/>
<text x="20" y="295" class="sm">4.109e-08</text>
<rect x="100" y="285" width="128" height="12" fill="#00f"/>
<rect x="326" y="285" width="360" height="12" fill="#00f"/>
<line x1="228" y1="291" x2="325" y2="291" stroke="#00f"/>
<rect x="456" y="286" width="218" height="10" fill="#ff0"/>
<text x="20" y="315" class="sm">2.382e-08</text>
<rect x="100" y="305" width="143" height="12" fill="#00f"/>
<rect x="384" y="305" width="302" height="12" fill="#00f"/>
<line x1="243" y1="311" x2="383" y2="311" stroke="#00f"/>
<rect x="112" y="306" width="131" height="10" fill="#ff0"/>
<rect x="385" y="306" width="209" height="10" fill="#ff0"/>
<text x="20" y="335" class="sm">2.156e-08</text>
<rect x="100" y="325" width="128" height="12" fill="#00f"/>
<rect x="443" y="325" width="243" height="12" fill="#00f"/>
<line x1="228" y1="331" x2="442" y2="331" stroke="#00f"/>
<rect x="456" y="326" width="218" height="10" fill="#ff0"/>
<text x="20" y="355" class="sm">7.143e-09</text>
<rect x="100" y="345" width="128" height="12" fill="#00f"/>
<rect x="384" y="345" width="117" height="12" fill="#00f"/>
<rect x="550" y="345" width="136" height="12" fill="#00f"/>
<line x1="228" y1="351" x2="383" y2="351" stroke="#00f"/>
<line x1="501" y1="351" x2="549" y2="351" stroke="#00f"/>
<rect x="112" y="346" width="116" height="10" fill="#ff0"/>
<rect x="385" y="346" width="116" height="10" fill="#ff0"/>
<rect x="551" y="346" width="119" height="10" fill="#ff0"/>
<text x="20" y="375" class="sm">4.632e-09</text>
<rect x="100" y="365" width="128" height="12" fill="#00f"/>
<rect x="550" y="365" width="136" height="12" fill="#00f"/>
<line x1="228" y1="371" x2="549" y2="371" stroke="#00f"/>
<rect x="112" y="366" width="116" height="10" fill="#ff0"/>
<rect x="551" y="366" width="119" height="10" fill="#ff0"/>
<text x="20" y="395" class="sm">2.398e-09</text>
<rect x="100" y="385" width="230" height="12" fill="#00f"/>
<rect x="384" y="385" width="302" height="12" fill="#00f"/>
<line x1="330" y1="391" x2="383" y2="391" stroke="#00f"/>
<rect x="329" y="386" width="1" height="10" fill="#ff0"/>
<rect x="385" y="386" width="285" height="10" fill="#ff0"/>
<text x="20" y="415" class="sm">1.346e-09</text>
<rect x="100" y="405" width="122" height="12" fill="#00f"/>
<rect x="384" y="405" width="302" height="12" fill="#00f"/>
<line x1="222" y1="411" x2="383" y2="411" stroke="#00f"/>
<rect x="112" y="406" width="110" height="10" fill="#ff0"/>
<rect x="385" y="406" width="209" height="10" fill="#ff0"/>
<text x="20" y="435" class="sm">1.134e-09</text>
<rect x="100" y="425" width="128" height="12" fill="#00f"/>
<rect x="384" y="425" width="94" height="12" fill="#00f"/>
<rect x="550" y="425" width="136" height="12" fill="#00f"/>
<line x1="228" y1="431" x2="383" y2="431" stroke="#00f"/>
<line x1="478" y1="431" x2="549" y2="431" stroke="#00f"/>
<rect x="112" y="426" width="116" height="10" fill="#ff0"/>
<rect x="385" y="426" width="93" height="10" fill="#ff0"/>
<rect x="551" y="426" width="43" height="10" fill="#ff0"/>
<text x="20" y="455" class="sm">9.44e-10</text>
<rect x="100" y="445" width="128" height="12" fill="#00f"/>
<rect x="532" y="445" width="154" height="12" fill="#00f"/>
<line x1="228" y1="451" x2="531" y2="451" stroke="#00f"/>
<rect x="112" y="446" width="116" height="10" fill="#ff0"/>
<rect x="533" y="446" width="137" height="10" fill="#ff0"/>
<text x="20" y="475" class="sm">8.461e-10</text>
<rect x="100" y="465" width="225" height="12" fill="#00f"/>
<rect x="384" y="465" width="302" height="12" fill="#00f"/>
<line x1="325" y1="471" x2="383" y2="471" stroke="#00f"/>
<rect x="270" y="466" width="55" height="10" fill="#ff0"/>
<rect x="385" y="466" width="285" height="10" fill="#ff0"/>
<text x="20" y="495" class="sm">7.193e-10</text>
<rect x="100" y="485" width="128" height="12" fill="#00f"/>
<rect x="384" y="485" width="94" height="12" fill="#00f"/>
<rect x="532" y="485" width="154" height="12" fill="#00f"/>
<line x1="228" y1="491" x2="383" y2="491" stroke="#00f"/>
<line x1="478" y1="491" x2="531" y2="491" stroke="#00f"/>
<rect x="112" y="486" width="116" height="10" fill="#ff0"/>
<rect x="385" y="486" width="93" height="10" fill="#ff0"/>
<rect x="533" y="486" width="61" height="10" fill="#ff0"/>
<text x="20" y="515" class="sm">6.485e-10</text>
<rect x="100" y="505" width="128" height="12" fill="#00f"/>
<rect x="399" y="505" width="287" height="12" fill="#00f"/>
<line x1="228" y1="511" x2="398" y2="511" stroke="#00f"/>
<rect x="112" y="506" width="116" height="10" fill="#ff0"/>
<rect x="400" y="506" width="194" height="10" fill="#ff0"/>
<text x="20" y="535" class="sm">5.252e-10</text>
<rect x="100" y="525" width="157" height="12" fill="#00f"/>
<rect x="340" y="525" width="346" height="12" fill="#00f"/>
<line x1="257" y1="531" x2="339" y2="531" stroke="#00f"/>
<rect x="456" y="526" width="218" height="10" fill="#ff0"/>
</svg>
