<svg viewBox="0 0 1037 605" xmlns="http://www.w3.org/2000/svg">

<style>
  .sm { font: 12px sans-serif; }
  .lg { font: 15px sans-serif; }
</style>
<rect fill="#ddd" x="0" y="0" width="100%" height="100%"/>
<text x="20" y="20" class="lg">ch.14768 V:9689586-9690622 Gene:WBGene00004320</text>
<text x="20" y="50" class="sm">WormBase</text>
<rect x="102" y="40" width="77" height="12" fill="#00f"/>
<rect x="229" y="40" width="207" height="12" fill="#00f"/>
<rect x="621" y="40" width="318" height="12" fill="#00f"/>
<line x1="179" y1="46" x2="228" y2="46" stroke="#00f"/>
<line x1="436" y1="46" x2="620" y2="46" stroke="#00f"/>
<rect x="105" y="41" width="74" height="10" fill="#ff0"/>
<rect x="230" y="41" width="206" height="10" fill="#ff0"/>
<rect x="622" y="41" width="50" height="10" fill="#ff0"/>
<rect x="103" y="41" width="1" height="10" fill="brown"><title>.</title></rect>
<rect x="673" y="41" width="266" height="10" fill="brown"><title>.</title></rect>
<text x="20" y="70" class="sm">Fitness: 0.1976374593826895</text>
<rect x="179" y="65" width="50" height="5" fill="#00f"><title>1603310.0</title></rect>
<rect x="436" y="70" width="185" height="5" fill="#00f"><title>1501100.0</title></rect>
<rect x="179" y="75" width="39" height="5" fill="#00f"><title>1425.0</title></rect>
<rect x="179" y="80" width="56" height="5" fill="#00f"><title>146.0</title></rect>
<rect x="440" y="85" width="181" height="5" fill="#00f"><title>60.0</title></rect>
<rect x="383" y="90" width="238" height="5" fill="#00f"><title>33.0</title></rect>
<rect x="171" y="95" width="58" height="5" fill="#00f"><title>28.0</title></rect>
<rect x="161" y="100" width="68" height="5" fill="#00f"><title>24.0</title></rect>
<rect x="766" y="105" width="132" height="5" fill="#f0f"><title>16.0</title></rect>
<rect x="304" y="110" width="87" height="5" fill="#00f"><title>14.0</title></rect>
<rect x="137" y="115" width="137" height="5" fill="#00f"><title>12.0</title></rect>
<rect x="137" y="120" width="92" height="5" fill="#00f"><title>11.0</title></rect>
<rect x="380" y="125" width="271" height="5" fill="#f0f"><title>9.0</title></rect>
<rect x="684" y="130" width="153" height="5" fill="#f0f"><title>8.0</title></rect>
<rect x="367" y="135" width="37" height="5" fill="#f0f"><title>7.0</title></rect>
<rect x="171" y="140" width="47" height="5" fill="#00f"><title>7.0</title></rect>
<rect x="161" y="145" width="460" height="5" fill="#00f"><title>6.0</title></rect>
<rect x="179" y="150" width="442" height="5" fill="#00f"><title>5.0</title></rect>
<rect x="436" y="155" width="155" height="5" fill="#00f"><title>5.0</title></rect>
<rect x="685" y="160" width="30" height="5" fill="#f0f"><title>4.0</title></rect>
<rect x="304" y="165" width="37" height="5" fill="#f0f"><title>3.0</title></rect>
<text x="20" y="195" class="sm">0.7357</text>
<rect x="100" y="185" width="79" height="12" fill="#00f"/>
<rect x="229" y="185" width="207" height="12" fill="#00f"/>
<rect x="621" y="185" width="319" height="12" fill="#00f"/>
<line x1="179" y1="191" x2="228" y2="191" stroke="#00f"/>
<line x1="436" y1="191" x2="620" y2="191" stroke="#00f"/>
<rect x="105" y="186" width="74" height="10" fill="#ff0"/>
<rect x="230" y="186" width="206" height="10" fill="#ff0"/>
<rect x="622" y="186" width="50" height="10" fill="#ff0"/>
<text x="20" y="215" class="sm">0.1068</text>
<rect x="100" y="205" width="336" height="12" fill="#00f"/>
<rect x="621" y="205" width="319" height="12" fill="#00f"/>
<line x1="436" y1="211" x2="620" y2="211" stroke="#00f"/>
<rect x="194" y="206" width="242" height="10" fill="#ff0"/>
<rect x="622" y="206" width="50" height="10" fill="#ff0"/>
<text x="20" y="235" class="sm">0.02517</text>
<rect x="100" y="225" width="79" height="12" fill="#00f"/>
<rect x="229" y="225" width="207" height="12" fill="#00f"/>
<rect x="621" y="225" width="145" height="12" fill="#00f"/>
<rect x="810" y="225" width="130" height="12" fill="#00f"/>
<line x1="179" y1="231" x2="228" y2="231" stroke="#00f"/>
<line x1="436" y1="231" x2="620" y2="231" stroke="#00f"/>
<line x1="766" y1="231" x2="809" y2="231" stroke="#00f"/>
<rect x="105" y="226" width="74" height="10" fill="#ff0"/>
<rect x="230" y="226" width="206" height="10" fill="#ff0"/>
<rect x="622" y="226" width="50" height="10" fill="#ff0"/>
<text x="20" y="255" class="sm">0.02314</text>
<rect x="100" y="245" width="79" height="12" fill="#00f"/>
<rect x="229" y="245" width="187" height="12" fill="#00f"/>
<rect x="621" y="245" width="319" height="12" fill="#00f"/>
<line x1="179" y1="251" x2="228" y2="251" stroke="#00f"/>
<line x1="416" y1="251" x2="620" y2="251" stroke="#00f"/>
<rect x="105" y="246" width="74" height="10" fill="#ff0"/>
<rect x="230" y="246" width="186" height="10" fill="#ff0"/>
<rect x="622" y="246" width="22" height="10" fill="#ff0"/>
<text x="20" y="275" class="sm">0.02113</text>
<rect x="100" y="265" width="71" height="12" fill="#00f"/>
<rect x="229" y="265" width="207" height="12" fill="#00f"/>
<rect x="621" y="265" width="319" height="12" fill="#00f"/>
<line x1="171" y1="271" x2="228" y2="271" stroke="#00f"/>
<line x1="436" y1="271" x2="620" y2="271" stroke="#00f"/>
<rect x="105" y="266" width="66" height="10" fill="#ff0"/>
<rect x="230" y="266" width="130" height="10" fill="#ff0"/>
<text x="20" y="295" class="sm">0.0191</text>
<rect x="100" y="285" width="79" height="12" fill="#00f"/>
<rect x="229" y="285" width="207" height="12" fill="#00f"/>
<rect x="621" y="285" width="137" height="12" fill="#00f"/>
<rect x="801" y="285" width="139" height="12" fill="#00f"/>
<line x1="179" y1="291" x2="228" y2="291" stroke="#00f"/>
<line x1="436" y1="291" x2="620" y2="291" stroke="#00f"/>
<line x1="758" y1="291" x2="800" y2="291" stroke="#00f"/>
<rect x="105" y="286" width="74" height="10" fill="#ff0"/>
<rect x="230" y="286" width="206" height="10" fill="#ff0"/>
<rect x="622" y="286" width="50" height="10" fill="#ff0"/>
<text x="20" y="315" class="sm">0.01803</text>
<rect x="100" y="305" width="61" height="12" fill="#00f"/>
<rect x="229" y="305" width="207" height="12" fill="#00f"/>
<rect x="621" y="305" width="319" height="12" fill="#00f"/>
<line x1="161" y1="311" x2="228" y2="311" stroke="#00f"/>
<line x1="436" y1="311" x2="620" y2="311" stroke="#00f"/>
<rect x="105" y="306" width="56" height="10" fill="#ff0"/>
<rect x="230" y="306" width="206" height="10" fill="#ff0"/>
<rect x="622" y="306" width="50" height="10" fill="#ff0"/>
<text x="20" y="335" class="sm">0.008919</text>
<rect x="100" y="325" width="79" height="12" fill="#00f"/>
<rect x="229" y="325" width="207" height="12" fill="#00f"/>
<rect x="495" y="325" width="29" height="12" fill="#00f"/>
<rect x="621" y="325" width="319" height="12" fill="#00f"/>
<line x1="179" y1="331" x2="228" y2="331" stroke="#00f"/>
<line x1="436" y1="331" x2="494" y2="331" stroke="#00f"/>
<line x1="524" y1="331" x2="620" y2="331" stroke="#00f"/>
<rect x="105" y="326" width="74" height="10" fill="#ff0"/>
<rect x="230" y="326" width="206" height="10" fill="#ff0"/>
<rect x="496" y="326" width="28" height="10" fill="#ff0"/>
<rect x="622" y="326" width="204" height="10" fill="#ff0"/>
<text x="20" y="355" class="sm">0.006711</text>
<rect x="100" y="345" width="79" height="12" fill="#00f"/>
<rect x="274" y="345" width="162" height="12" fill="#00f"/>
<rect x="621" y="345" width="319" height="12" fill="#00f"/>
<line x1="179" y1="351" x2="273" y2="351" stroke="#00f"/>
<line x1="436" y1="351" x2="620" y2="351" stroke="#00f"/>
<rect x="105" y="346" width="74" height="10" fill="#ff0"/>
<rect x="275" y="346" width="161" height="10" fill="#ff0"/>
<rect x="622" y="346" width="50" height="10" fill="#ff0"/>
<text x="20" y="375" class="sm">0.005848</text>
<rect x="100" y="365" width="79" height="12" fill="#00f"/>
<rect x="229" y="365" width="207" height="12" fill="#00f"/>
<rect x="621" y="365" width="145" height="12" fill="#00f"/>
<rect x="801" y="365" width="139" height="12" fill="#00f"/>
<line x1="179" y1="371" x2="228" y2="371" stroke="#00f"/>
<line x1="436" y1="371" x2="620" y2="371" stroke="#00f"/>
<line x1="766" y1="371" x2="800" y2="371" stroke="#00f"/>
<rect x="105" y="366" width="74" height="10" fill="#ff0"/>
<rect x="230" y="366" width="206" height="10" fill="#ff0"/>
<rect x="622" y="366" width="50" height="10" fill="#ff0"/>
<text x="20" y="395" class="sm">0.004333</text>
<rect x="100" y="385" width="79" height="12" fill="#00f"/>
<rect x="229" y="385" width="154" height="12" fill="#00f"/>
<rect x="621" y="385" width="319" height="12" fill="#00f"/>
<line x1="179" y1="391" x2="228" y2="391" stroke="#00f"/>
<line x1="383" y1="391" x2="620" y2="391" stroke="#00f"/>
<rect x="105" y="386" width="74" height="10" fill="#ff0"/>
<rect x="230" y="386" width="153" height="10" fill="#ff0"/>
<rect x="622" y="386" width="22" height="10" fill="#ff0"/>
<text x="20" y="415" class="sm">0.004248</text>
<rect x="100" y="405" width="79" height="12" fill="#00f"/>
<rect x="229" y="405" width="207" height="12" fill="#00f"/>
<rect x="621" y="405" width="137" height="12" fill="#00f"/>
<rect x="810" y="405" width="130" height="12" fill="#00f"/>
<line x1="179" y1="411" x2="228" y2="411" stroke="#00f"/>
<line x1="436" y1="411" x2="620" y2="411" stroke="#00f"/>
<line x1="758" y1="411" x2="809" y2="411" stroke="#00f"/>
<rect x="105" y="406" width="74" height="10" fill="#ff0"/>
<rect x="230" y="406" width="206" height="10" fill="#ff0"/>
<rect x="622" y="406" width="50" height="10" fill="#ff0"/>
<text x="20" y="435" class="sm">0.003653</text>
<rect x="100" y="425" width="336" height="12" fill="#00f"/>
<rect x="621" y="425" width="145" height="12" fill="#00f"/>
<rect x="810" y="425" width="130" height="12" fill="#00f"/>
<line x1="436" y1="431" x2="620" y2="431" stroke="#00f"/>
<line x1="766" y1="431" x2="809" y2="431" stroke="#00f"/>
<rect x="194" y="426" width="242" height="10" fill="#ff0"/>
<rect x="622" y="426" width="50" height="10" fill="#ff0"/>
<text x="20" y="455" class="sm">0.002942</text>
<rect x="100" y="445" width="79" height="12" fill="#00f"/>
<rect x="235" y="445" width="201" height="12" fill="#00f"/>
<rect x="621" y="445" width="319" height="12" fill="#00f"/>
<line x1="179" y1="451" x2="234" y2="451" stroke="#00f"/>
<line x1="436" y1="451" x2="620" y2="451" stroke="#00f"/>
<rect x="105" y="446" width="74" height="10" fill="#ff0"/>
<rect x="236" y="446" width="200" height="10" fill="#ff0"/>
<rect x="622" y="446" width="50" height="10" fill="#ff0"/>
<text x="20" y="475" class="sm">0.00292</text>
<rect x="100" y="465" width="316" height="12" fill="#00f"/>
<rect x="621" y="465" width="319" height="12" fill="#00f"/>
<line x1="416" y1="471" x2="620" y2="471" stroke="#00f"/>
<rect x="194" y="466" width="222" height="10" fill="#ff0"/>
<rect x="622" y="466" width="22" height="10" fill="#ff0"/>
<text x="20" y="495" class="sm">0.002887</text>
<rect x="100" y="485" width="79" height="12" fill="#00f"/>
<rect x="229" y="485" width="207" height="12" fill="#00f"/>
<rect x="621" y="485" width="106" height="12" fill="#00f"/>
<rect x="801" y="485" width="139" height="12" fill="#00f"/>
<line x1="179" y1="491" x2="228" y2="491" stroke="#00f"/>
<line x1="436" y1="491" x2="620" y2="491" stroke="#00f"/>
<line x1="727" y1="491" x2="800" y2="491" stroke="#00f"/>
<rect x="105" y="486" width="74" height="10" fill="#ff0"/>
<rect x="230" y="486" width="206" height="10" fill="#ff0"/>
<rect x="622" y="486" width="50" height="10" fill="#ff0"/>
<text x="20" y="515" class="sm">0.002771</text>
<rect x="100" y="505" width="336" height="12" fill="#00f"/>
<rect x="621" y="505" width="137" height="12" fill="#00f"/>
<rect x="801" y="505" width="139" height="12" fill="#00f"/>
<line x1="436" y1="511" x2="620" y2="511" stroke="#00f"/>
<line x1="758" y1="511" x2="800" y2="511" stroke="#00f"/>
<rect x="194" y="506" width="242" height="10" fill="#ff0"/>
<rect x="622" y="506" width="50" height="10" fill="#ff0"/>
<text x="20" y="535" class="sm">0.002116</text>
<rect x="100" y="525" width="79" height="12" fill="#00f"/>
<rect x="229" y="525" width="207" height="12" fill="#00f"/>
<rect x="621" y="525" width="38" height="12" fill="#00f"/>
<rect x="801" y="525" width="139" height="12" fill="#00f"/>
<line x1="179" y1="531" x2="228" y2="531" stroke="#00f"/>
<line x1="436" y1="531" x2="620" y2="531" stroke="#00f"/>
<line x1="659" y1="531" x2="800" y2="531" stroke="#00f"/>
<rect x="105" y="526" width="74" height="10" fill="#ff0"/>
<rect x="230" y="526" width="206" height="10" fill="#ff0"/>
<rect x="622" y="526" width="37" height="10" fill="#ff0"/>
<rect x="802" y="526" width="24" height="10" fill="#ff0"/>
<text x="20" y="555" class="sm">0.001842</text>
<rect x="100" y="545" width="37" height="12" fill="#00f"/>
<rect x="229" y="545" width="207" height="12" fill="#00f"/>
<rect x="621" y="545" width="319" height="12" fill="#00f"/>
<line x1="137" y1="551" x2="228" y2="551" stroke="#00f"/>
<line x1="436" y1="551" x2="620" y2="551" stroke="#00f"/>
<rect x="105" y="546" width="32" height="10" fill="#ff0"/>
<rect x="230" y="546" width="206" height="10" fill="#ff0"/>
<rect x="622" y="546" width="50" height="10" fill="#ff0"/>
<text x="20" y="575" class="sm">0.001732</text>
<rect x="100" y="565" width="79" height="12" fill="#00f"/>
<rect x="229" y="565" width="131" height="12" fill="#00f"/>
<rect x="621" y="565" width="319" height="12" fill="#00f"/>
<line x1="179" y1="571" x2="228" y2="571" stroke="#00f"/>
<line x1="360" y1="571" x2="620" y2="571" stroke="#00f"/>
<rect x="105" y="566" width="74" height="10" fill="#ff0"/>
<rect x="230" y="566" width="130" height="10" fill="#ff0"/>
<rect x="622" y="566" width="204" height="10" fill="#ff0"/>
</svg>
