<svg viewBox="0 0 396 535" xmlns="http://www.w3.org/2000/svg">

<style>
  .sm { font: 12px sans-serif; }
  .lg { font: 15px sans-serif; }
</style>
<rect fill="#ddd" x="0" y="0" width="100%" height="100%"/>
<text x="20" y="20" class="lg">ch.13301 V:3564140-3564535 Gene:WBGene00020754</text>
<text x="20" y="50" class="sm">WormBase</text>
<rect x="102" y="40" width="113" height="12" fill="#00f"/>
<rect x="261" y="40" width="37" height="12" fill="#00f"/>
<line x1="215" y1="46" x2="260" y2="46" stroke="#00f"/>
<rect x="103" y="41" width="112" height="10" fill="#ff0"/>
<rect x="262" y="41" width="36" height="10" fill="#ff0"/>
<text x="20" y="70" class="sm">Fitness: 0.6698704394294704</text>
<rect x="215" y="65" width="46" height="5" fill="#00f"><title>137382.0</title></rect>
<rect x="32" y="70" width="47" height="5" fill="#00f"><title>69666.0</title></rect>
<rect x="198" y="75" width="63" height="5" fill="#00f"><title>985.0</title></rect>
<rect x="209" y="80" width="52" height="5" fill="#00f"><title>25.0</title></rect>
<rect x="79" y="85" width="182" height="5" fill="#00f"><title>18.0</title></rect>
<rect x="215" y="90" width="77" height="5" fill="#00f"><title>9.0</title></rect>
<rect x="32" y="95" width="59" height="5" fill="#00f"><title>3.0</title></rect>
<text x="20" y="125" class="sm">0.7922</text>
<rect x="100" y="115" width="115" height="12" fill="#00f"/>
<rect x="261" y="115" width="38" height="12" fill="#00f"/>
<line x1="215" y1="121" x2="260" y2="121" stroke="#00f"/>
<rect x="103" y="116" width="112" height="10" fill="#ff0"/>
<rect x="262" y="116" width="36" height="10" fill="#ff0"/>
<text x="20" y="145" class="sm">0.1106</text>
<rect x="100" y="135" width="109" height="12" fill="#00f"/>
<rect x="261" y="135" width="38" height="12" fill="#00f"/>
<line x1="209" y1="141" x2="260" y2="141" stroke="#00f"/>
<rect x="103" y="136" width="106" height="10" fill="#ff0"/>
<rect x="262" y="136" width="36" height="10" fill="#ff0"/>
<text x="20" y="165" class="sm">0.07694</text>
<rect x="100" y="155" width="98" height="12" fill="#00f"/>
<rect x="261" y="155" width="38" height="12" fill="#00f"/>
<line x1="198" y1="161" x2="260" y2="161" stroke="#00f"/>
<text x="20" y="185" class="sm">0.009344</text>
<rect x="100" y="175" width="122" height="12" fill="#00f"/>
<rect x="261" y="175" width="38" height="12" fill="#00f"/>
<line x1="222" y1="181" x2="260" y2="181" stroke="#00f"/>
<rect x="103" y="176" width="116" height="10" fill="#ff0"/>
<text x="20" y="205" class="sm">0.004724</text>
<rect x="100" y="195" width="35" height="12" fill="#00f"/>
<rect x="180" y="195" width="35" height="12" fill="#00f"/>
<rect x="261" y="195" width="38" height="12" fill="#00f"/>
<line x1="135" y1="201" x2="179" y2="201" stroke="#00f"/>
<line x1="215" y1="201" x2="260" y2="201" stroke="#00f"/>
<rect x="103" y="196" width="32" height="10" fill="#ff0"/>
<rect x="181" y="196" width="34" height="10" fill="#ff0"/>
<rect x="262" y="196" width="36" height="10" fill="#ff0"/>
<text x="20" y="225" class="sm">0.002273</text>
<rect x="100" y="215" width="41" height="12" fill="#00f"/>
<rect x="180" y="215" width="35" height="12" fill="#00f"/>
<rect x="261" y="215" width="38" height="12" fill="#00f"/>
<line x1="141" y1="221" x2="179" y2="221" stroke="#00f"/>
<line x1="215" y1="221" x2="260" y2="221" stroke="#00f"/>
<rect x="103" y="216" width="38" height="10" fill="#ff0"/>
<rect x="181" y="216" width="34" height="10" fill="#ff0"/>
<rect x="262" y="216" width="36" height="10" fill="#ff0"/>
<text x="20" y="245" class="sm">0.001222</text>
<rect x="100" y="235" width="26" height="12" fill="#00f"/>
<rect x="180" y="235" width="35" height="12" fill="#00f"/>
<rect x="261" y="235" width="38" height="12" fill="#00f"/>
<line x1="126" y1="241" x2="179" y2="241" stroke="#00f"/>
<line x1="215" y1="241" x2="260" y2="241" stroke="#00f"/>
<rect x="103" y="236" width="23" height="10" fill="#ff0"/>
<rect x="181" y="236" width="34" height="10" fill="#ff0"/>
<rect x="262" y="236" width="36" height="10" fill="#ff0"/>
<text x="20" y="265" class="sm">0.0008181</text>
<rect x="100" y="255" width="35" height="12" fill="#00f"/>
<rect x="261" y="255" width="38" height="12" fill="#00f"/>
<line x1="135" y1="261" x2="260" y2="261" stroke="#00f"/>
<text x="20" y="285" class="sm">0.0005252</text>
<rect x="100" y="275" width="35" height="12" fill="#00f"/>
<rect x="180" y="275" width="29" height="12" fill="#00f"/>
<rect x="261" y="275" width="38" height="12" fill="#00f"/>
<line x1="135" y1="281" x2="179" y2="281" stroke="#00f"/>
<line x1="209" y1="281" x2="260" y2="281" stroke="#00f"/>
<rect x="103" y="276" width="32" height="10" fill="#ff0"/>
<rect x="181" y="276" width="28" height="10" fill="#ff0"/>
<rect x="262" y="276" width="36" height="10" fill="#ff0"/>
<text x="20" y="305" class="sm">0.0005078</text>
<rect x="100" y="295" width="41" height="12" fill="#00f"/>
<rect x="261" y="295" width="38" height="12" fill="#00f"/>
<line x1="141" y1="301" x2="260" y2="301" stroke="#00f"/>
<text x="20" y="325" class="sm">0.0002527</text>
<rect x="100" y="315" width="41" height="12" fill="#00f"/>
<rect x="180" y="315" width="29" height="12" fill="#00f"/>
<rect x="261" y="315" width="38" height="12" fill="#00f"/>
<line x1="141" y1="321" x2="179" y2="321" stroke="#00f"/>
<line x1="209" y1="321" x2="260" y2="321" stroke="#00f"/>
<rect x="103" y="316" width="38" height="10" fill="#ff0"/>
<rect x="181" y="316" width="28" height="10" fill="#ff0"/>
<rect x="262" y="316" width="36" height="10" fill="#ff0"/>
<text x="20" y="345" class="sm">0.0002359</text>
<rect x="100" y="335" width="26" height="12" fill="#00f"/>
<rect x="261" y="335" width="38" height="12" fill="#00f"/>
<line x1="126" y1="341" x2="260" y2="341" stroke="#00f"/>
<text x="20" y="365" class="sm">0.0001359</text>
<rect x="100" y="355" width="26" height="12" fill="#00f"/>
<rect x="180" y="355" width="29" height="12" fill="#00f"/>
<rect x="261" y="355" width="38" height="12" fill="#00f"/>
<line x1="126" y1="361" x2="179" y2="361" stroke="#00f"/>
<line x1="209" y1="361" x2="260" y2="361" stroke="#00f"/>
<rect x="103" y="356" width="23" height="10" fill="#ff0"/>
<rect x="181" y="356" width="28" height="10" fill="#ff0"/>
<rect x="262" y="356" width="36" height="10" fill="#ff0"/>
<text x="20" y="385" class="sm">8.918e-05</text>
<rect x="100" y="375" width="115" height="12" fill="#00f"/>
<rect x="270" y="375" width="29" height="12" fill="#00f"/>
<line x1="215" y1="381" x2="269" y2="381" stroke="#00f"/>
<rect x="103" y="376" width="112" height="10" fill="#ff0"/>
<rect x="271" y="376" width="27" height="10" fill="#ff0"/>
<text x="20" y="405" class="sm">7.212e-05</text>
<rect x="100" y="395" width="35" height="12" fill="#00f"/>
<rect x="180" y="395" width="42" height="12" fill="#00f"/>
<rect x="261" y="395" width="38" height="12" fill="#00f"/>
<line x1="135" y1="401" x2="179" y2="401" stroke="#00f"/>
<line x1="222" y1="401" x2="260" y2="401" stroke="#00f"/>
<rect x="103" y="396" width="32" height="10" fill="#ff0"/>
<rect x="181" y="396" width="38" height="10" fill="#ff0"/>
<text x="20" y="425" class="sm">3.47e-05</text>
<rect x="100" y="415" width="41" height="12" fill="#00f"/>
<rect x="180" y="415" width="42" height="12" fill="#00f"/>
<rect x="261" y="415" width="38" height="12" fill="#00f"/>
<line x1="141" y1="421" x2="179" y2="421" stroke="#00f"/>
<line x1="222" y1="421" x2="260" y2="421" stroke="#00f"/>
<rect x="103" y="416" width="38" height="10" fill="#ff0"/>
<rect x="181" y="416" width="38" height="10" fill="#ff0"/>
<text x="20" y="445" class="sm">1.866e-05</text>
<rect x="100" y="435" width="26" height="12" fill="#00f"/>
<rect x="180" y="435" width="42" height="12" fill="#00f"/>
<rect x="261" y="435" width="38" height="12" fill="#00f"/>
<line x1="126" y1="441" x2="179" y2="441" stroke="#00f"/>
<line x1="222" y1="441" x2="260" y2="441" stroke="#00f"/>
<rect x="103" y="436" width="23" height="10" fill="#ff0"/>
<rect x="181" y="436" width="38" height="10" fill="#ff0"/>
<text x="20" y="465" class="sm">1.088e-05</text>
<rect x="100" y="455" width="109" height="12" fill="#00f"/>
<rect x="270" y="455" width="29" height="12" fill="#00f"/>
<line x1="209" y1="461" x2="269" y2="461" stroke="#00f"/>
<rect x="103" y="456" width="106" height="10" fill="#ff0"/>
<rect x="271" y="456" width="27" height="10" fill="#ff0"/>
<text x="20" y="485" class="sm">9.049e-06</text>
<rect x="100" y="475" width="98" height="12" fill="#00f"/>
<rect x="270" y="475" width="29" height="12" fill="#00f"/>
<line x1="198" y1="481" x2="269" y2="481" stroke="#00f"/>
<text x="20" y="505" class="sm">1.648e-06</text>
<rect x="100" y="495" width="122" height="12" fill="#00f"/>
<rect x="270" y="495" width="29" height="12" fill="#00f"/>
<line x1="222" y1="501" x2="269" y2="501" stroke="#00f"/>
<rect x="103" y="496" width="116" height="10" fill="#ff0"/>
</svg>
