<svg viewBox="0 0 901 510" xmlns="http://www.w3.org/2000/svg">

<style>
  .sm { font: 12px sans-serif; }
  .lg { font: 15px sans-serif; }
</style>
<rect fill="#ddd" x="0" y="0" width="100%" height="100%"/>
<text x="20" y="20" class="lg">ch.19007 X:9310525-9311425 Gene:WBGene00045261</text>
<text x="20" y="50" class="sm">WormBase</text>
<rect x="102" y="40" width="209" height="12" fill="#00f"/>
<rect x="490" y="40" width="313" height="12" fill="#00f"/>
<line x1="311" y1="46" x2="489" y2="46" stroke="#00f"/>
<rect x="116" y="41" width="195" height="10" fill="#ff0"/>
<rect x="491" y="41" width="241" height="10" fill="#ff0"/>
<rect x="103" y="41" width="12" height="10" fill="brown"><title>.</title></rect>
<rect x="733" y="41" width="70" height="10" fill="brown"><title>.</title></rect>
<text x="20" y="70" class="sm">Fitness: 0.0012755897775449424</text>
<rect x="311" y="65" width="179" height="5" fill="#00f"><title>244182.0</title></rect>
<rect x="152" y="70" width="45" height="5" fill="#00f"><title>156.0</title></rect>
<text x="20" y="100" class="sm">0.9997</text>
<rect x="100" y="90" width="211" height="12" fill="#00f"/>
<rect x="490" y="90" width="314" height="12" fill="#00f"/>
<line x1="311" y1="96" x2="489" y2="96" stroke="#00f"/>
<rect x="116" y="91" width="195" height="10" fill="#ff0"/>
<rect x="491" y="91" width="241" height="10" fill="#ff0"/>
<text x="20" y="120" class="sm">0.000127</text>
<rect x="100" y="110" width="155" height="12" fill="#00f"/>
<rect x="490" y="110" width="314" height="12" fill="#00f"/>
<line x1="255" y1="116" x2="489" y2="116" stroke="#00f"/>
<rect x="243" y="111" width="12" height="10" fill="#ff0"/>
<rect x="491" y="111" width="241" height="10" fill="#ff0"/>
<text x="20" y="140" class="sm">9.706e-05</text>
<rect x="100" y="130" width="187" height="12" fill="#00f"/>
<rect x="490" y="130" width="314" height="12" fill="#00f"/>
<line x1="287" y1="136" x2="489" y2="136" stroke="#00f"/>
<rect x="116" y="131" width="171" height="10" fill="#ff0"/>
<rect x="491" y="131" width="1" height="10" fill="#ff0"/>
<text x="20" y="160" class="sm">8.469e-05</text>
<rect x="100" y="150" width="297" height="12" fill="#00f"/>
<rect x="490" y="150" width="314" height="12" fill="#00f"/>
<line x1="397" y1="156" x2="489" y2="156" stroke="#00f"/>
<rect x="116" y="151" width="281" height="10" fill="#ff0"/>
<rect x="491" y="151" width="32" height="10" fill="#ff0"/>
<text x="20" y="180" class="sm">5.904e-06</text>
<rect x="100" y="170" width="211" height="12" fill="#00f"/>
<rect x="369" y="170" width="28" height="12" fill="#00f"/>
<rect x="490" y="170" width="314" height="12" fill="#00f"/>
<line x1="311" y1="176" x2="368" y2="176" stroke="#00f"/>
<line x1="397" y1="176" x2="489" y2="176" stroke="#00f"/>
<rect x="116" y="171" width="195" height="10" fill="#ff0"/>
<rect x="370" y="171" width="27" height="10" fill="#ff0"/>
<rect x="491" y="171" width="24" height="10" fill="#ff0"/>
<text x="20" y="200" class="sm">4.523e-06</text>
<rect x="100" y="190" width="268" height="12" fill="#00f"/>
<rect x="490" y="190" width="314" height="12" fill="#00f"/>
<line x1="368" y1="196" x2="489" y2="196" stroke="#00f"/>
<rect x="116" y="191" width="252" height="10" fill="#ff0"/>
<rect x="491" y="191" width="241" height="10" fill="#ff0"/>
<text x="20" y="220" class="sm">4.077e-06</text>
<rect x="100" y="210" width="200" height="12" fill="#00f"/>
<rect x="490" y="210" width="314" height="12" fill="#00f"/>
<line x1="300" y1="216" x2="489" y2="216" stroke="#00f"/>
<rect x="243" y="211" width="57" height="10" fill="#ff0"/>
<rect x="491" y="211" width="241" height="10" fill="#ff0"/>
<text x="20" y="240" class="sm">8.16e-07</text>
<rect x="100" y="230" width="52" height="12" fill="#00f"/>
<rect x="490" y="230" width="314" height="12" fill="#00f"/>
<line x1="152" y1="236" x2="489" y2="236" stroke="#00f"/>
<rect x="116" y="231" width="36" height="10" fill="#ff0"/>
<rect x="491" y="231" width="241" height="10" fill="#ff0"/>
<text x="20" y="260" class="sm">7.13e-07</text>
<rect x="100" y="250" width="52" height="12" fill="#00f"/>
<rect x="254" y="250" width="57" height="12" fill="#00f"/>
<rect x="490" y="250" width="314" height="12" fill="#00f"/>
<line x1="152" y1="256" x2="253" y2="256" stroke="#00f"/>
<line x1="311" y1="256" x2="489" y2="256" stroke="#00f"/>
<rect x="116" y="251" width="36" height="10" fill="#ff0"/>
<rect x="255" y="251" width="56" height="10" fill="#ff0"/>
<rect x="491" y="251" width="241" height="10" fill="#ff0"/>
<text x="20" y="280" class="sm">6.648e-07</text>
<rect x="100" y="270" width="52" height="12" fill="#00f"/>
<rect x="197" y="270" width="114" height="12" fill="#00f"/>
<rect x="490" y="270" width="314" height="12" fill="#00f"/>
<line x1="152" y1="276" x2="196" y2="276" stroke="#00f"/>
<line x1="311" y1="276" x2="489" y2="276" stroke="#00f"/>
<rect x="116" y="271" width="36" height="10" fill="#ff0"/>
<rect x="198" y="271" width="113" height="10" fill="#ff0"/>
<rect x="491" y="271" width="241" height="10" fill="#ff0"/>
<text x="20" y="300" class="sm">6.357e-07</text>
<rect x="100" y="290" width="211" height="12" fill="#00f"/>
<rect x="556" y="290" width="248" height="12" fill="#00f"/>
<line x1="311" y1="296" x2="555" y2="296" stroke="#00f"/>
<rect x="116" y="291" width="195" height="10" fill="#ff0"/>
<rect x="557" y="291" width="175" height="10" fill="#ff0"/>
<text x="20" y="320" class="sm">3.299e-08</text>
<rect x="100" y="310" width="211" height="12" fill="#00f"/>
<rect x="619" y="310" width="185" height="12" fill="#00f"/>
<line x1="311" y1="316" x2="618" y2="316" stroke="#00f"/>
<rect x="116" y="311" width="195" height="10" fill="#ff0"/>
<rect x="620" y="311" width="112" height="10" fill="#ff0"/>
<text x="20" y="340" class="sm">8.957e-09</text>
<rect x="100" y="330" width="98" height="12" fill="#00f"/>
<rect x="254" y="330" width="57" height="12" fill="#00f"/>
<rect x="490" y="330" width="314" height="12" fill="#00f"/>
<line x1="198" y1="336" x2="253" y2="336" stroke="#00f"/>
<line x1="311" y1="336" x2="489" y2="336" stroke="#00f"/>
<rect x="574" y="331" width="158" height="10" fill="#ff0"/>
<text x="20" y="360" class="sm">4.243e-09</text>
<rect x="100" y="350" width="211" height="12" fill="#00f"/>
<rect x="566" y="350" width="238" height="12" fill="#00f"/>
<line x1="311" y1="356" x2="565" y2="356" stroke="#00f"/>
<rect x="116" y="351" width="195" height="10" fill="#ff0"/>
<rect x="567" y="351" width="22" height="10" fill="#ff0"/>
<text x="20" y="380" class="sm">1.711e-09</text>
<rect x="100" y="370" width="98" height="12" fill="#00f"/>
<rect x="490" y="370" width="314" height="12" fill="#00f"/>
<line x1="198" y1="376" x2="489" y2="376" stroke="#00f"/>
<rect x="574" y="371" width="158" height="10" fill="#ff0"/>
<text x="20" y="400" class="sm">1.171e-09</text>
<rect x="100" y="390" width="211" height="12" fill="#00f"/>
<rect x="369" y="390" width="65" height="12" fill="#00f"/>
<rect x="490" y="390" width="314" height="12" fill="#00f"/>
<line x1="311" y1="396" x2="368" y2="396" stroke="#00f"/>
<line x1="434" y1="396" x2="489" y2="396" stroke="#00f"/>
<rect x="116" y="391" width="195" height="10" fill="#ff0"/>
<rect x="370" y="391" width="31" height="10" fill="#ff0"/>
<text x="20" y="420" class="sm">7.125e-10</text>
<rect x="100" y="410" width="211" height="12" fill="#00f"/>
<rect x="490" y="410" width="107" height="12" fill="#00f"/>
<rect x="655" y="410" width="149" height="12" fill="#00f"/>
<line x1="311" y1="416" x2="489" y2="416" stroke="#00f"/>
<line x1="597" y1="416" x2="654" y2="416" stroke="#00f"/>
<rect x="116" y="411" width="195" height="10" fill="#ff0"/>
<rect x="491" y="411" width="106" height="10" fill="#ff0"/>
<rect x="656" y="411" width="56" height="10" fill="#ff0"/>
<text x="20" y="440" class="sm">7.02e-10</text>
<rect x="100" y="430" width="334" height="12" fill="#00f"/>
<rect x="490" y="430" width="314" height="12" fill="#00f"/>
<line x1="434" y1="436" x2="489" y2="436" stroke="#00f"/>
<rect x="116" y="431" width="293" height="10" fill="#ff0"/>
<text x="20" y="460" class="sm">6.22e-10</text>
<rect x="100" y="450" width="211" height="12" fill="#00f"/>
<rect x="548" y="450" width="256" height="12" fill="#00f"/>
<line x1="311" y1="456" x2="547" y2="456" stroke="#00f"/>
<rect x="116" y="451" width="195" height="10" fill="#ff0"/>
<rect x="549" y="451" width="4" height="10" fill="#ff0"/>
<text x="20" y="480" class="sm">5.585e-10</text>
<rect x="100" y="470" width="176" height="12" fill="#00f"/>
<rect x="490" y="470" width="314" height="12" fill="#00f"/>
<line x1="276" y1="476" x2="489" y2="476" stroke="#00f"/>
<rect x="243" y="471" width="33" height="10" fill="#ff0"/>
<rect x="491" y="471" width="241" height="10" fill="#ff0"/>
</svg>
