<svg viewBox="0 0 855 690" xmlns="http://www.w3.org/2000/svg">

<style>
  .sm { font: 12px sans-serif; }
  .lg { font: 15px sans-serif; }
</style>
<rect fill="#ddd" x="0" y="0" width="100%" height="100%"/>
<text x="20" y="20" class="lg">ch.12775 V:1593919-1594773 Gene:WBGene00017506</text>
<text x="20" y="50" class="sm">WormBase</text>
<rect x="100" y="40" width="219" height="12" fill="#00f"/>
<rect x="468" y="40" width="287" height="12" fill="#00f"/>
<line x1="319" y1="46" x2="467" y2="46" stroke="#00f"/>
<rect x="217" y="41" width="102" height="10" fill="#ff0"/>
<rect x="469" y="41" width="172" height="10" fill="#ff0"/>
<rect x="101" y="41" width="115" height="10" fill="brown"><title>.</title></rect>
<rect x="642" y="41" width="113" height="10" fill="brown"><title>.</title></rect>
<text x="20" y="70" class="sm">Fitness: 0.0016432794658862643</text>
<rect x="319" y="65" width="149" height="5" fill="#00f"><title>2553800.0</title></rect>
<rect x="319" y="70" width="164" height="5" fill="#00f"><title>811.0</title></rect>
<rect x="319" y="75" width="212" height="5" fill="#00f"><title>295.0</title></rect>
<rect x="319" y="80" width="136" height="5" fill="#00f"><title>253.0</title></rect>
<rect x="555" y="85" width="36" height="5" fill="#00f"><title>195.0</title></rect>
<rect x="277" y="90" width="191" height="5" fill="#00f"><title>184.0</title></rect>
<rect x="319" y="95" width="221" height="5" fill="#00f"><title>103.0</title></rect>
<rect x="319" y="100" width="185" height="5" fill="#00f"><title>58.0</title></rect>
<rect x="277" y="105" width="209" height="5" fill="#00f"><title>57.0</title></rect>
<rect x="540" y="110" width="51" height="5" fill="#00f"><title>47.0</title></rect>
<rect x="504" y="115" width="51" height="5" fill="#00f"><title>35.0</title></rect>
<rect x="540" y="120" width="33" height="5" fill="#00f"><title>31.0</title></rect>
<rect x="258" y="125" width="210" height="5" fill="#00f"><title>30.0</title></rect>
<rect x="504" y="130" width="87" height="5" fill="#00f"><title>30.0</title></rect>
<rect x="531" y="135" width="42" height="5" fill="#00f"><title>29.0</title></rect>
<rect x="531" y="140" width="60" height="5" fill="#00f"><title>26.0</title></rect>
<rect x="319" y="145" width="108" height="5" fill="#00f"><title>19.0</title></rect>
<rect x="504" y="150" width="102" height="5" fill="#00f"><title>18.0</title></rect>
<rect x="531" y="155" width="75" height="5" fill="#00f"><title>18.0</title></rect>
<rect x="319" y="160" width="167" height="5" fill="#00f"><title>17.0</title></rect>
<rect x="504" y="165" width="69" height="5" fill="#00f"><title>14.0</title></rect>
<rect x="264" y="170" width="276" height="5" fill="#00f"><title>12.0</title></rect>
<rect x="319" y="175" width="236" height="5" fill="#00f"><title>12.0</title></rect>
<rect x="504" y="180" width="27" height="5" fill="#00f"><title>12.0</title></rect>
<rect x="277" y="185" width="278" height="5" fill="#00f"><title>10.0</title></rect>
<rect x="277" y="190" width="227" height="5" fill="#00f"><title>9.0</title></rect>
<rect x="531" y="195" width="39" height="5" fill="#00f"><title>9.0</title></rect>
<rect x="555" y="200" width="51" height="5" fill="#00f"><title>9.0</title></rect>
<rect x="504" y="205" width="36" height="5" fill="#00f"><title>7.0</title></rect>
<rect x="323" y="210" width="145" height="5" fill="#00f"><title>5.0</title></rect>
<rect x="555" y="215" width="33" height="5" fill="#00f"><title>5.0</title></rect>
<rect x="591" y="220" width="30" height="5" fill="#00f"><title>5.0</title></rect>
<rect x="277" y="225" width="239" height="5" fill="#00f"><title>4.0</title></rect>
<rect x="277" y="230" width="296" height="5" fill="#00f"><title>3.0</title></rect>
<rect x="319" y="235" width="158" height="5" fill="#00f"><title>3.0</title></rect>
<rect x="319" y="240" width="197" height="5" fill="#00f"><title>3.0</title></rect>
<rect x="511" y="245" width="45" height="5" fill="#00f"><title>3.0</title></rect>
<rect x="527" y="250" width="45" height="5" fill="#00f"><title>3.0</title></rect>
<text x="20" y="280" class="sm">0.9991</text>
<rect x="100" y="270" width="219" height="12" fill="#00f"/>
<rect x="468" y="270" width="290" height="12" fill="#00f"/>
<line x1="319" y1="276" x2="467" y2="276" stroke="#00f"/>
<rect x="217" y="271" width="102" height="10" fill="#ff0"/>
<rect x="469" y="271" width="172" height="10" fill="#ff0"/>
<text x="20" y="300" class="sm">0.0007445</text>
<rect x="100" y="290" width="230" height="12" fill="#00f"/>
<rect x="468" y="290" width="290" height="12" fill="#00f"/>
<line x1="330" y1="296" x2="467" y2="296" stroke="#00f"/>
<rect x="263" y="291" width="67" height="10" fill="#ff0"/>
<rect x="469" y="291" width="66" height="10" fill="#ff0"/>
<text x="20" y="320" class="sm">0.000106</text>
<rect x="100" y="310" width="219" height="12" fill="#00f"/>
<rect x="483" y="310" width="275" height="12" fill="#00f"/>
<line x1="319" y1="316" x2="482" y2="316" stroke="#00f"/>
<rect x="217" y="311" width="102" height="10" fill="#ff0"/>
<rect x="484" y="311" width="157" height="10" fill="#ff0"/>
<text x="20" y="340" class="sm">1.81e-05</text>
<rect x="100" y="330" width="223" height="12" fill="#00f"/>
<rect x="468" y="330" width="290" height="12" fill="#00f"/>
<line x1="323" y1="336" x2="467" y2="336" stroke="#00f"/>
<rect x="263" y="331" width="60" height="10" fill="#ff0"/>
<rect x="469" y="331" width="172" height="10" fill="#ff0"/>
<text x="20" y="360" class="sm">1.478e-05</text>
<rect x="100" y="350" width="38" height="12" fill="#00f"/>
<rect x="232" y="350" width="87" height="12" fill="#00f"/>
<rect x="468" y="350" width="290" height="12" fill="#00f"/>
<line x1="138" y1="356" x2="231" y2="356" stroke="#00f"/>
<line x1="319" y1="356" x2="467" y2="356" stroke="#00f"/>
<rect x="263" y="351" width="56" height="10" fill="#ff0"/>
<rect x="469" y="351" width="197" height="10" fill="#ff0"/>
<text x="20" y="380" class="sm">1.299e-05</text>
<rect x="100" y="370" width="219" height="12" fill="#00f"/>
<rect x="477" y="370" width="281" height="12" fill="#00f"/>
<line x1="319" y1="376" x2="476" y2="376" stroke="#00f"/>
<rect x="217" y="371" width="102" height="10" fill="#ff0"/>
<rect x="478" y="371" width="163" height="10" fill="#ff0"/>
<text x="20" y="400" class="sm">1.868e-06</text>
<rect x="100" y="390" width="219" height="12" fill="#00f"/>
<rect x="455" y="390" width="303" height="12" fill="#00f"/>
<line x1="319" y1="396" x2="454" y2="396" stroke="#00f"/>
<rect x="263" y="391" width="56" height="10" fill="#ff0"/>
<rect x="456" y="391" width="185" height="10" fill="#ff0"/>
<text x="20" y="420" class="sm">1.825e-06</text>
<rect x="100" y="410" width="29" height="12" fill="#00f"/>
<rect x="232" y="410" width="87" height="12" fill="#00f"/>
<rect x="468" y="410" width="290" height="12" fill="#00f"/>
<line x1="129" y1="416" x2="231" y2="416" stroke="#00f"/>
<line x1="319" y1="416" x2="467" y2="416" stroke="#00f"/>
<rect x="263" y="411" width="56" height="10" fill="#ff0"/>
<rect x="469" y="411" width="197" height="10" fill="#ff0"/>
<text x="20" y="440" class="sm">2.49e-07</text>
<rect x="100" y="430" width="38" height="12" fill="#00f"/>
<rect x="222" y="430" width="97" height="12" fill="#00f"/>
<rect x="468" y="430" width="290" height="12" fill="#00f"/>
<line x1="138" y1="436" x2="221" y2="436" stroke="#00f"/>
<line x1="319" y1="436" x2="467" y2="436" stroke="#00f"/>
<rect x="137" y="431" width="1" height="10" fill="#ff0"/>
<rect x="223" y="431" width="96" height="10" fill="#ff0"/>
<rect x="469" y="431" width="197" height="10" fill="#ff0"/>
<text x="20" y="460" class="sm">1.115e-07</text>
<rect x="100" y="450" width="230" height="12" fill="#00f"/>
<rect x="483" y="450" width="275" height="12" fill="#00f"/>
<line x1="330" y1="456" x2="482" y2="456" stroke="#00f"/>
<rect x="263" y="451" width="67" height="10" fill="#ff0"/>
<rect x="484" y="451" width="51" height="10" fill="#ff0"/>
<text x="20" y="480" class="sm">7.653e-08</text>
<rect x="100" y="470" width="38" height="12" fill="#00f"/>
<rect x="274" y="470" width="45" height="12" fill="#00f"/>
<rect x="468" y="470" width="290" height="12" fill="#00f"/>
<line x1="138" y1="476" x2="273" y2="476" stroke="#00f"/>
<line x1="319" y1="476" x2="467" y2="476" stroke="#00f"/>
<rect x="302" y="471" width="17" height="10" fill="#ff0"/>
<rect x="469" y="471" width="197" height="10" fill="#ff0"/>
<text x="20" y="500" class="sm">3.536e-08</text>
<rect x="100" y="490" width="29" height="12" fill="#00f"/>
<rect x="222" y="490" width="97" height="12" fill="#00f"/>
<rect x="468" y="490" width="290" height="12" fill="#00f"/>
<line x1="129" y1="496" x2="221" y2="496" stroke="#00f"/>
<line x1="319" y1="496" x2="467" y2="496" stroke="#00f"/>
<rect x="263" y="491" width="56" height="10" fill="#ff0"/>
<rect x="469" y="491" width="197" height="10" fill="#ff0"/>
<text x="20" y="520" class="sm">1.888e-08</text>
<rect x="100" y="510" width="230" height="12" fill="#00f"/>
<rect x="477" y="510" width="281" height="12" fill="#00f"/>
<line x1="330" y1="516" x2="476" y2="516" stroke="#00f"/>
<rect x="263" y="511" width="67" height="10" fill="#ff0"/>
<rect x="478" y="511" width="57" height="10" fill="#ff0"/>
<text x="20" y="540" class="sm">1.115e-08</text>
<rect x="100" y="530" width="38" height="12" fill="#00f"/>
<rect x="232" y="530" width="98" height="12" fill="#00f"/>
<rect x="468" y="530" width="290" height="12" fill="#00f"/>
<line x1="138" y1="536" x2="231" y2="536" stroke="#00f"/>
<line x1="330" y1="536" x2="467" y2="536" stroke="#00f"/>
<rect x="263" y="531" width="67" height="10" fill="#ff0"/>
<rect x="469" y="531" width="66" height="10" fill="#ff0"/>
<text x="20" y="560" class="sm">9.818e-09</text>
<rect x="100" y="550" width="29" height="12" fill="#00f"/>
<rect x="274" y="550" width="45" height="12" fill="#00f"/>
<rect x="468" y="550" width="290" height="12" fill="#00f"/>
<line x1="129" y1="556" x2="273" y2="556" stroke="#00f"/>
<line x1="319" y1="556" x2="467" y2="556" stroke="#00f"/>
<rect x="302" y="551" width="17" height="10" fill="#ff0"/>
<rect x="469" y="551" width="197" height="10" fill="#ff0"/>
<text x="20" y="580" class="sm">6.076e-09</text>
<rect x="100" y="570" width="38" height="12" fill="#00f"/>
<rect x="232" y="570" width="526" height="12" fill="#00f"/>
<line x1="138" y1="576" x2="231" y2="576" stroke="#00f"/>
<rect x="263" y="571" width="197" height="10" fill="#ff0"/>
<text x="20" y="600" class="sm">3.589e-09</text>
<rect x="100" y="590" width="38" height="12" fill="#00f"/>
<rect x="176" y="590" width="143" height="12" fill="#00f"/>
<rect x="468" y="590" width="290" height="12" fill="#00f"/>
<line x1="138" y1="596" x2="175" y2="596" stroke="#00f"/>
<line x1="319" y1="596" x2="467" y2="596" stroke="#00f"/>
<rect x="217" y="591" width="102" height="10" fill="#ff0"/>
<rect x="469" y="591" width="172" height="10" fill="#ff0"/>
<text x="20" y="620" class="sm">2.876e-09</text>
<rect x="100" y="610" width="219" height="12" fill="#00f"/>
<rect x="486" y="610" width="272" height="12" fill="#00f"/>
<line x1="319" y1="616" x2="485" y2="616" stroke="#00f"/>
<rect x="217" y="611" width="102" height="10" fill="#ff0"/>
<rect x="487" y="611" width="154" height="10" fill="#ff0"/>
<text x="20" y="640" class="sm">2.128e-09</text>
<rect x="100" y="630" width="230" height="12" fill="#00f"/>
<rect x="455" y="630" width="303" height="12" fill="#00f"/>
<line x1="330" y1="636" x2="454" y2="636" stroke="#00f"/>
<rect x="263" y="631" width="67" height="10" fill="#ff0"/>
<rect x="456" y="631" width="210" height="10" fill="#ff0"/>
<text x="20" y="660" class="sm">1.961e-09</text>
<rect x="100" y="650" width="223" height="12" fill="#00f"/>
<rect x="483" y="650" width="275" height="12" fill="#00f"/>
<line x1="323" y1="656" x2="482" y2="656" stroke="#00f"/>
<rect x="263" y="651" width="60" height="10" fill="#ff0"/>
<rect x="484" y="651" width="157" height="10" fill="#ff0"/>
</svg>
