<svg viewBox="0 0 745 565" xmlns="http://www.w3.org/2000/svg">

<style>
  .sm { font: 12px sans-serif; }
  .lg { font: 15px sans-serif; }
</style>
<rect fill="#ddd" x="0" y="0" width="100%" height="100%"/>
<text x="20" y="20" class="lg">ch.10525 IV:7709092-7709836 Gene:WBGene00017999</text>
<text x="20" y="50" class="sm">WormBase</text>
<rect x="102" y="40" width="58" height="12" fill="#00f"/>
<rect x="212" y="40" width="80" height="12" fill="#00f"/>
<rect x="335" y="40" width="312" height="12" fill="#00f"/>
<line x1="160" y1="46" x2="211" y2="46" stroke="#00f"/>
<line x1="292" y1="46" x2="334" y2="46" stroke="#00f"/>
<rect x="111" y="41" width="49" height="10" fill="#ff0"/>
<rect x="213" y="41" width="79" height="10" fill="#ff0"/>
<rect x="336" y="41" width="205" height="10" fill="#ff0"/>
<rect x="103" y="41" width="7" height="10" fill="brown"><title>.</title></rect>
<rect x="542" y="41" width="105" height="10" fill="brown"><title>.</title></rect>
<text x="20" y="70" class="sm">Fitness: 0.24454445031474425</text>
<rect x="292" y="65" width="43" height="5" fill="#00f"><title>566128.0</title></rect>
<rect x="160" y="70" width="52" height="5" fill="#00f"><title>553602.0</title></rect>
<rect x="280" y="75" width="55" height="5" fill="#00f"><title>1102.0</title></rect>
<rect x="292" y="80" width="70" height="5" fill="#00f"><title>36.0</title></rect>
<rect x="151" y="85" width="61" height="5" fill="#00f"><title>10.0</title></rect>
<rect x="409" y="90" width="118" height="5" fill="#f0f"><title>8.0</title></rect>
<rect x="262" y="95" width="73" height="5" fill="#00f"><title>7.0</title></rect>
<rect x="585" y="100" width="119" height="5" fill="#f0f"><title>6.0</title></rect>
<rect x="160" y="105" width="60" height="5" fill="#00f"><title>5.0</title></rect>
<rect x="170" y="110" width="42" height="5" fill="#00f"><title>4.0</title></rect>
<rect x="50" y="115" width="52" height="5" fill="#00f"><title>4.0</title></rect>
<rect x="260" y="120" width="75" height="5" fill="#00f"><title>3.0</title></rect>
<rect x="46" y="125" width="56" height="5" fill="#f0f"><title>3.0</title></rect>
<text x="20" y="155" class="sm">0.4867</text>
<rect x="100" y="145" width="60" height="12" fill="#00f"/>
<rect x="212" y="145" width="436" height="12" fill="#00f"/>
<line x1="160" y1="151" x2="211" y2="151" stroke="#00f"/>
<rect x="111" y="146" width="49" height="10" fill="#ff0"/>
<rect x="213" y="146" width="381" height="10" fill="#ff0"/>
<text x="20" y="175" class="sm">0.39</text>
<rect x="100" y="165" width="192" height="12" fill="#00f"/>
<rect x="335" y="165" width="313" height="12" fill="#00f"/>
<line x1="292" y1="171" x2="334" y2="171" stroke="#00f"/>
<rect x="180" y="166" width="112" height="10" fill="#ff0"/>
<rect x="336" y="166" width="258" height="10" fill="#ff0"/>
<text x="20" y="195" class="sm">0.0878</text>
<rect x="100" y="185" width="180" height="12" fill="#00f"/>
<rect x="335" y="185" width="313" height="12" fill="#00f"/>
<line x1="280" y1="191" x2="334" y2="191" stroke="#00f"/>
<rect x="180" y="186" width="100" height="10" fill="#ff0"/>
<rect x="336" y="186" width="258" height="10" fill="#ff0"/>
<text x="20" y="215" class="sm">0.03445</text>
<rect x="100" y="205" width="70" height="12" fill="#00f"/>
<rect x="212" y="205" width="436" height="12" fill="#00f"/>
<line x1="170" y1="211" x2="211" y2="211" stroke="#00f"/>
<rect x="148" y="206" width="22" height="10" fill="#ff0"/>
<rect x="213" y="206" width="381" height="10" fill="#ff0"/>
<text x="20" y="235" class="sm">0.0005237</text>
<rect x="100" y="225" width="70" height="12" fill="#00f"/>
<rect x="220" y="225" width="428" height="12" fill="#00f"/>
<line x1="170" y1="231" x2="219" y2="231" stroke="#00f"/>
<rect x="283" y="226" width="311" height="10" fill="#ff0"/>
<text x="20" y="255" class="sm">0.0002371</text>
<rect x="100" y="245" width="253" height="12" fill="#00f"/>
<rect x="397" y="245" width="251" height="12" fill="#00f"/>
<line x1="353" y1="251" x2="396" y2="251" stroke="#00f"/>
<rect x="406" y="246" width="188" height="10" fill="#ff0"/>
<text x="20" y="275" class="sm">4.7e-05</text>
<rect x="100" y="265" width="64" height="12" fill="#00f"/>
<rect x="212" y="265" width="436" height="12" fill="#00f"/>
<line x1="164" y1="271" x2="211" y2="271" stroke="#00f"/>
<rect x="148" y="266" width="16" height="10" fill="#ff0"/>
<rect x="213" y="266" width="381" height="10" fill="#ff0"/>
<text x="20" y="295" class="sm">3.774e-05</text>
<rect x="100" y="285" width="53" height="12" fill="#00f"/>
<rect x="212" y="285" width="436" height="12" fill="#00f"/>
<line x1="153" y1="291" x2="211" y2="291" stroke="#00f"/>
<rect x="283" y="286" width="311" height="10" fill="#ff0"/>
<text x="20" y="315" class="sm">2.636e-05</text>
<rect x="100" y="305" width="60" height="12" fill="#00f"/>
<rect x="335" y="305" width="313" height="12" fill="#00f"/>
<line x1="160" y1="311" x2="334" y2="311" stroke="#00f"/>
<rect x="111" y="306" width="49" height="10" fill="#ff0"/>
<rect x="336" y="306" width="258" height="10" fill="#ff0"/>
<text x="20" y="335" class="sm">1.987e-05</text>
<rect x="100" y="325" width="60" height="12" fill="#00f"/>
<rect x="397" y="325" width="251" height="12" fill="#00f"/>
<line x1="160" y1="331" x2="396" y2="331" stroke="#00f"/>
<rect x="148" y="326" width="12" height="10" fill="#ff0"/>
<rect x="398" y="326" width="196" height="10" fill="#ff0"/>
<text x="20" y="355" class="sm">1.952e-05</text>
<rect x="100" y="345" width="96" height="12" fill="#00f"/>
<rect x="241" y="345" width="407" height="12" fill="#00f"/>
<line x1="196" y1="351" x2="240" y2="351" stroke="#00f"/>
<rect x="283" y="346" width="311" height="10" fill="#ff0"/>
<text x="20" y="375" class="sm">1.387e-05</text>
<rect x="100" y="365" width="60" height="12" fill="#00f"/>
<rect x="220" y="365" width="428" height="12" fill="#00f"/>
<line x1="160" y1="371" x2="219" y2="371" stroke="#00f"/>
<rect x="148" y="366" width="12" height="10" fill="#ff0"/>
<rect x="221" y="366" width="373" height="10" fill="#ff0"/>
<text x="20" y="395" class="sm">1.158e-05</text>
<rect x="100" y="385" width="285" height="12" fill="#00f"/>
<rect x="438" y="385" width="210" height="12" fill="#00f"/>
<line x1="385" y1="391" x2="437" y2="391" stroke="#00f"/>
<rect x="180" y="386" width="116" height="10" fill="#ff0"/>
<text x="20" y="415" class="sm">1.104e-05</text>
<rect x="100" y="405" width="51" height="12" fill="#00f"/>
<rect x="212" y="405" width="436" height="12" fill="#00f"/>
<line x1="151" y1="411" x2="211" y2="411" stroke="#00f"/>
<rect x="111" y="406" width="40" height="10" fill="#ff0"/>
<rect x="213" y="406" width="381" height="10" fill="#ff0"/>
<text x="20" y="435" class="sm">1.09e-05</text>
<rect x="100" y="425" width="192" height="12" fill="#00f"/>
<rect x="362" y="425" width="286" height="12" fill="#00f"/>
<line x1="292" y1="431" x2="361" y2="431" stroke="#00f"/>
<rect x="180" y="426" width="112" height="10" fill="#ff0"/>
<rect x="363" y="426" width="231" height="10" fill="#ff0"/>
<text x="20" y="455" class="sm">9.266e-06</text>
<rect x="100" y="445" width="192" height="12" fill="#00f"/>
<rect x="397" y="445" width="251" height="12" fill="#00f"/>
<line x1="292" y1="451" x2="396" y2="451" stroke="#00f"/>
<rect x="283" y="446" width="9" height="10" fill="#ff0"/>
<rect x="398" y="446" width="196" height="10" fill="#ff0"/>
<text x="20" y="475" class="sm">8.328e-06</text>
<rect x="100" y="465" width="180" height="12" fill="#00f"/>
<rect x="397" y="465" width="251" height="12" fill="#00f"/>
<line x1="280" y1="471" x2="396" y2="471" stroke="#00f"/>
<rect x="406" y="466" width="188" height="10" fill="#ff0"/>
<text x="20" y="495" class="sm">8.046e-06</text>
<rect x="100" y="485" width="169" height="12" fill="#00f"/>
<rect x="335" y="485" width="313" height="12" fill="#00f"/>
<line x1="269" y1="491" x2="334" y2="491" stroke="#00f"/>
<rect x="406" y="486" width="188" height="10" fill="#ff0"/>
<text x="20" y="515" class="sm">7.56e-06</text>
<rect x="100" y="505" width="70" height="12" fill="#00f"/>
<rect x="335" y="505" width="313" height="12" fill="#00f"/>
<line x1="170" y1="511" x2="334" y2="511" stroke="#00f"/>
<rect x="148" y="506" width="22" height="10" fill="#ff0"/>
<rect x="336" y="506" width="258" height="10" fill="#ff0"/>
<text x="20" y="535" class="sm">7.328e-06</text>
<rect x="100" y="525" width="60" height="12" fill="#00f"/>
<rect x="594" y="525" width="54" height="12" fill="#00f"/>
<line x1="160" y1="531" x2="593" y2="531" stroke="#00f"/>
</svg>
