<svg viewBox="0 0 820 530" xmlns="http://www.w3.org/2000/svg">

<style>
  .sm { font: 12px sans-serif; }
  .lg { font: 15px sans-serif; }
</style>
<rect fill="#ddd" x="0" y="0" width="100%" height="100%"/>
<text x="20" y="20" class="lg">ch.18040 X:3441739-3442558 Gene:WBGene00022822</text>
<text x="20" y="50" class="sm">WormBase</text>
<rect x="100" y="40" width="178" height="12" fill="#00f"/>
<rect x="323" y="40" width="397" height="12" fill="#00f"/>
<line x1="278" y1="46" x2="322" y2="46" stroke="#00f"/>
<rect x="115" y="41" width="163" height="10" fill="#ff0"/>
<rect x="324" y="41" width="309" height="10" fill="#ff0"/>
<rect x="101" y="41" width="13" height="10" fill="brown"><title>.</title></rect>
<rect x="634" y="41" width="86" height="10" fill="brown"><title>.</title></rect>
<text x="20" y="70" class="sm">Fitness: 1.4730982132956039e-05</text>
<rect x="278" y="65" width="45" height="5" fill="#00f"><title>1493440.0</title></rect>
<rect x="554" y="70" width="63" height="5" fill="#f0f"><title>18.0</title></rect>
<rect x="140" y="75" width="253" height="5" fill="#f0f"><title>11.0</title></rect>
<rect x="559" y="80" width="31" height="5" fill="#00f"><title>7.0</title></rect>
<rect x="540" y="85" width="39" height="5" fill="#00f"><title>4.0</title></rect>
<rect x="235" y="90" width="158" height="5" fill="#f0f"><title>3.0</title></rect>
<text x="20" y="120" class="sm">1.0</text>
<rect x="100" y="110" width="178" height="12" fill="#00f"/>
<rect x="323" y="110" width="400" height="12" fill="#00f"/>
<line x1="278" y1="116" x2="322" y2="116" stroke="#00f"/>
<rect x="115" y="111" width="163" height="10" fill="#ff0"/>
<rect x="324" y="111" width="309" height="10" fill="#ff0"/>
<text x="20" y="140" class="sm">3.373e-06</text>
<rect x="100" y="130" width="185" height="12" fill="#00f"/>
<rect x="323" y="130" width="400" height="12" fill="#00f"/>
<line x1="285" y1="136" x2="322" y2="136" stroke="#00f"/>
<rect x="233" y="131" width="52" height="10" fill="#ff0"/>
<rect x="324" y="131" width="309" height="10" fill="#ff0"/>
<text x="20" y="160" class="sm">6.054e-07</text>
<rect x="100" y="150" width="178" height="12" fill="#00f"/>
<rect x="339" y="150" width="384" height="12" fill="#00f"/>
<line x1="278" y1="156" x2="338" y2="156" stroke="#00f"/>
<rect x="115" y="151" width="163" height="10" fill="#ff0"/>
<rect x="340" y="151" width="330" height="10" fill="#ff0"/>
<text x="20" y="180" class="sm">3.073e-08</text>
<rect x="100" y="170" width="178" height="12" fill="#00f"/>
<rect x="362" y="170" width="361" height="12" fill="#00f"/>
<line x1="278" y1="176" x2="361" y2="176" stroke="#00f"/>
<rect x="115" y="171" width="163" height="10" fill="#ff0"/>
<rect x="363" y="171" width="270" height="10" fill="#ff0"/>
<text x="20" y="200" class="sm">2.152e-08</text>
<rect x="100" y="190" width="390" height="12" fill="#00f"/>
<rect x="536" y="190" width="187" height="12" fill="#00f"/>
<line x1="490" y1="196" x2="535" y2="196" stroke="#00f"/>
<rect x="332" y="191" width="158" height="10" fill="#ff0"/>
<rect x="537" y="191" width="152" height="10" fill="#ff0"/>
<text x="20" y="220" class="sm">1.251e-08</text>
<rect x="100" y="210" width="178" height="12" fill="#00f"/>
<rect x="353" y="210" width="370" height="12" fill="#00f"/>
<line x1="278" y1="216" x2="352" y2="216" stroke="#00f"/>
<rect x="115" y="211" width="163" height="10" fill="#ff0"/>
<rect x="354" y="211" width="279" height="10" fill="#ff0"/>
<text x="20" y="240" class="sm">7.483e-09</text>
<rect x="100" y="230" width="178" height="12" fill="#00f"/>
<rect x="323" y="230" width="167" height="12" fill="#00f"/>
<rect x="536" y="230" width="187" height="12" fill="#00f"/>
<line x1="278" y1="236" x2="322" y2="236" stroke="#00f"/>
<line x1="490" y1="236" x2="535" y2="236" stroke="#00f"/>
<rect x="115" y="231" width="163" height="10" fill="#ff0"/>
<rect x="324" y="231" width="166" height="10" fill="#ff0"/>
<rect x="537" y="231" width="133" height="10" fill="#ff0"/>
<text x="20" y="260" class="sm">4.754e-09</text>
<rect x="100" y="250" width="185" height="12" fill="#00f"/>
<rect x="339" y="250" width="384" height="12" fill="#00f"/>
<line x1="285" y1="256" x2="338" y2="256" stroke="#00f"/>
<rect x="233" y="251" width="52" height="10" fill="#ff0"/>
<rect x="340" y="251" width="330" height="10" fill="#ff0"/>
<text x="20" y="280" class="sm">1.941e-09</text>
<rect x="100" y="270" width="178" height="12" fill="#00f"/>
<rect x="365" y="270" width="358" height="12" fill="#00f"/>
<line x1="278" y1="276" x2="364" y2="276" stroke="#00f"/>
<rect x="115" y="271" width="163" height="10" fill="#ff0"/>
<rect x="366" y="271" width="267" height="10" fill="#ff0"/>
<text x="20" y="300" class="sm">1.725e-10</text>
<rect x="100" y="290" width="390" height="12" fill="#00f"/>
<rect x="538" y="290" width="185" height="12" fill="#00f"/>
<line x1="490" y1="296" x2="537" y2="296" stroke="#00f"/>
<rect x="332" y="291" width="158" height="10" fill="#ff0"/>
<rect x="539" y="291" width="131" height="10" fill="#ff0"/>
<text x="20" y="320" class="sm">1.567e-10</text>
<rect x="100" y="310" width="397" height="12" fill="#00f"/>
<rect x="544" y="310" width="179" height="12" fill="#00f"/>
<line x1="497" y1="316" x2="543" y2="316" stroke="#00f"/>
<rect x="332" y="311" width="165" height="10" fill="#ff0"/>
<rect x="545" y="311" width="88" height="10" fill="#ff0"/>
<text x="20" y="340" class="sm">1.392e-10</text>
<rect x="100" y="330" width="397" height="12" fill="#00f"/>
<rect x="536" y="330" width="187" height="12" fill="#00f"/>
<line x1="497" y1="336" x2="535" y2="336" stroke="#00f"/>
<rect x="332" y="331" width="165" height="10" fill="#ff0"/>
<rect x="537" y="331" width="133" height="10" fill="#ff0"/>
<text x="20" y="360" class="sm">1.173e-10</text>
<rect x="100" y="350" width="390" height="12" fill="#00f"/>
<rect x="544" y="350" width="179" height="12" fill="#00f"/>
<line x1="490" y1="356" x2="543" y2="356" stroke="#00f"/>
<rect x="332" y="351" width="158" height="10" fill="#ff0"/>
<rect x="545" y="351" width="125" height="10" fill="#ff0"/>
<text x="20" y="380" class="sm">1.008e-10</text>
<rect x="100" y="370" width="384" height="12" fill="#00f"/>
<rect x="536" y="370" width="187" height="12" fill="#00f"/>
<line x1="484" y1="376" x2="535" y2="376" stroke="#00f"/>
<rect x="332" y="371" width="152" height="10" fill="#ff0"/>
<rect x="537" y="371" width="152" height="10" fill="#ff0"/>
<text x="20" y="400" class="sm">6.314e-11</text>
<rect x="100" y="390" width="492" height="12" fill="#00f"/>
<rect x="653" y="390" width="70" height="12" fill="#00f"/>
<line x1="592" y1="396" x2="652" y2="396" stroke="#00f"/>
<rect x="332" y="391" width="260" height="10" fill="#ff0"/>
<rect x="654" y="391" width="35" height="10" fill="#ff0"/>
<text x="20" y="420" class="sm">5.997e-11</text>
<rect x="100" y="410" width="178" height="12" fill="#00f"/>
<rect x="323" y="410" width="167" height="12" fill="#00f"/>
<rect x="538" y="410" width="185" height="12" fill="#00f"/>
<line x1="278" y1="416" x2="322" y2="416" stroke="#00f"/>
<line x1="490" y1="416" x2="537" y2="416" stroke="#00f"/>
<rect x="115" y="411" width="163" height="10" fill="#ff0"/>
<rect x="324" y="411" width="166" height="10" fill="#ff0"/>
<rect x="539" y="411" width="94" height="10" fill="#ff0"/>
<text x="20" y="440" class="sm">5.395e-11</text>
<rect x="100" y="430" width="178" height="12" fill="#00f"/>
<rect x="323" y="430" width="174" height="12" fill="#00f"/>
<rect x="544" y="430" width="179" height="12" fill="#00f"/>
<line x1="278" y1="436" x2="322" y2="436" stroke="#00f"/>
<line x1="497" y1="436" x2="543" y2="436" stroke="#00f"/>
<rect x="115" y="431" width="163" height="10" fill="#ff0"/>
<rect x="324" y="431" width="173" height="10" fill="#ff0"/>
<rect x="545" y="431" width="144" height="10" fill="#ff0"/>
<text x="20" y="460" class="sm">4.792e-11</text>
<rect x="100" y="450" width="178" height="12" fill="#00f"/>
<rect x="323" y="450" width="174" height="12" fill="#00f"/>
<rect x="536" y="450" width="187" height="12" fill="#00f"/>
<line x1="278" y1="456" x2="322" y2="456" stroke="#00f"/>
<line x1="497" y1="456" x2="535" y2="456" stroke="#00f"/>
<rect x="115" y="451" width="163" height="10" fill="#ff0"/>
<rect x="324" y="451" width="173" height="10" fill="#ff0"/>
<rect x="537" y="451" width="96" height="10" fill="#ff0"/>
<text x="20" y="480" class="sm">4.078e-11</text>
<rect x="100" y="470" width="178" height="12" fill="#00f"/>
<rect x="323" y="470" width="167" height="12" fill="#00f"/>
<rect x="544" y="470" width="179" height="12" fill="#00f"/>
<line x1="278" y1="476" x2="322" y2="476" stroke="#00f"/>
<line x1="490" y1="476" x2="543" y2="476" stroke="#00f"/>
<rect x="115" y="471" width="163" height="10" fill="#ff0"/>
<rect x="324" y="471" width="166" height="10" fill="#ff0"/>
<rect x="545" y="471" width="88" height="10" fill="#ff0"/>
<text x="20" y="500" class="sm">3.499e-11</text>
<rect x="100" y="490" width="178" height="12" fill="#00f"/>
<rect x="323" y="490" width="161" height="12" fill="#00f"/>
<rect x="536" y="490" width="187" height="12" fill="#00f"/>
<line x1="278" y1="496" x2="322" y2="496" stroke="#00f"/>
<line x1="484" y1="496" x2="535" y2="496" stroke="#00f"/>
<rect x="115" y="491" width="163" height="10" fill="#ff0"/>
<rect x="324" y="491" width="160" height="10" fill="#ff0"/>
<rect x="537" y="491" width="133" height="10" fill="#ff0"/>
</svg>
