<svg viewBox="0 0 1037 595" xmlns="http://www.w3.org/2000/svg">

<style>
  .sm { font: 12px sans-serif; }
  .lg { font: 15px sans-serif; }
</style>
<rect fill="#ddd" x="0" y="0" width="100%" height="100%"/>
<text x="20" y="20" class="lg">ch.1595 I:8591992-8593028 Gene:WBGene00011033</text>
<text x="20" y="50" class="sm">WormBase</text>
<rect x="100" y="40" width="93" height="12" fill="#00f"/>
<rect x="243" y="40" width="118" height="12" fill="#00f"/>
<rect x="415" y="40" width="113" height="12" fill="#00f"/>
<rect x="624" y="40" width="313" height="12" fill="#00f"/>
<line x1="193" y1="46" x2="242" y2="46" stroke="#00f"/>
<line x1="361" y1="46" x2="414" y2="46" stroke="#00f"/>
<line x1="528" y1="46" x2="623" y2="46" stroke="#00f"/>
<rect x="101" y="41" width="92" height="10" fill="#ff0"/>
<rect x="244" y="41" width="117" height="10" fill="#ff0"/>
<rect x="416" y="41" width="112" height="10" fill="#ff0"/>
<rect x="625" y="41" width="185" height="10" fill="#ff0"/>
<rect x="811" y="41" width="126" height="10" fill="brown"><title>.</title></rect>
<text x="20" y="70" class="sm">Fitness: 0.08173146068956937</text>
<rect x="361" y="65" width="54" height="5" fill="#00f"><title>561508.0</title></rect>
<rect x="528" y="70" width="96" height="5" fill="#00f"><title>472183.0</title></rect>
<rect x="193" y="75" width="50" height="5" fill="#00f"><title>462529.0</title></rect>
<rect x="365" y="80" width="50" height="5" fill="#00f"><title>1252.0</title></rect>
<rect x="262" y="85" width="54" height="5" fill="#00f"><title>314.0</title></rect>
<rect x="365" y="90" width="53" height="5" fill="#00f"><title>138.0</title></rect>
<rect x="361" y="95" width="57" height="5" fill="#00f"><title>54.0</title></rect>
<rect x="286" y="100" width="396" height="5" fill="#00f"><title>53.0</title></rect>
<rect x="792" y="105" width="243" height="5" fill="#00f"><title>38.0</title></rect>
<rect x="361" y="110" width="62" height="5" fill="#00f"><title>26.0</title></rect>
<rect x="193" y="115" width="431" height="5" fill="#00f"><title>23.0</title></rect>
<rect x="493" y="120" width="131" height="5" fill="#00f"><title>19.0</title></rect>
<rect x="361" y="125" width="263" height="5" fill="#00f"><title>16.0</title></rect>
<rect x="369" y="130" width="46" height="5" fill="#00f"><title>9.0</title></rect>
<rect x="361" y="135" width="75" height="5" fill="#00f"><title>8.0</title></rect>
<rect x="528" y="140" width="507" height="5" fill="#00f"><title>7.0</title></rect>
<rect x="797" y="145" width="238" height="5" fill="#00f"><title>6.0</title></rect>
<rect x="262" y="150" width="153" height="5" fill="#00f"><title>4.0</title></rect>
<rect x="193" y="155" width="222" height="5" fill="#00f"><title>3.0</title></rect>
<text x="20" y="185" class="sm">0.8659</text>
<rect x="100" y="175" width="93" height="12" fill="#00f"/>
<rect x="243" y="175" width="118" height="12" fill="#00f"/>
<rect x="415" y="175" width="113" height="12" fill="#00f"/>
<rect x="624" y="175" width="316" height="12" fill="#00f"/>
<line x1="193" y1="181" x2="242" y2="181" stroke="#00f"/>
<line x1="361" y1="181" x2="414" y2="181" stroke="#00f"/>
<line x1="528" y1="181" x2="623" y2="181" stroke="#00f"/>
<rect x="101" y="176" width="92" height="10" fill="#ff0"/>
<rect x="244" y="176" width="117" height="10" fill="#ff0"/>
<rect x="416" y="176" width="112" height="10" fill="#ff0"/>
<rect x="625" y="176" width="185" height="10" fill="#ff0"/>
<text x="20" y="205" class="sm">0.06434</text>
<rect x="100" y="195" width="103" height="12" fill="#00f"/>
<rect x="243" y="195" width="118" height="12" fill="#00f"/>
<rect x="415" y="195" width="113" height="12" fill="#00f"/>
<rect x="624" y="195" width="316" height="12" fill="#00f"/>
<line x1="203" y1="201" x2="242" y2="201" stroke="#00f"/>
<line x1="361" y1="201" x2="414" y2="201" stroke="#00f"/>
<line x1="528" y1="201" x2="623" y2="201" stroke="#00f"/>
<rect x="265" y="196" width="96" height="10" fill="#ff0"/>
<rect x="416" y="196" width="112" height="10" fill="#ff0"/>
<rect x="625" y="196" width="185" height="10" fill="#ff0"/>
<text x="20" y="225" class="sm">0.02728</text>
<rect x="100" y="215" width="93" height="12" fill="#00f"/>
<rect x="243" y="215" width="118" height="12" fill="#00f"/>
<rect x="415" y="215" width="78" height="12" fill="#00f"/>
<rect x="624" y="215" width="316" height="12" fill="#00f"/>
<line x1="193" y1="221" x2="242" y2="221" stroke="#00f"/>
<line x1="361" y1="221" x2="414" y2="221" stroke="#00f"/>
<line x1="493" y1="221" x2="623" y2="221" stroke="#00f"/>
<rect x="101" y="216" width="92" height="10" fill="#ff0"/>
<rect x="244" y="216" width="117" height="10" fill="#ff0"/>
<rect x="416" y="216" width="77" height="10" fill="#ff0"/>
<rect x="625" y="216" width="121" height="10" fill="#ff0"/>
<text x="20" y="245" class="sm">0.02402</text>
<rect x="100" y="235" width="93" height="12" fill="#00f"/>
<rect x="243" y="235" width="118" height="12" fill="#00f"/>
<rect x="415" y="235" width="525" height="12" fill="#00f"/>
<line x1="193" y1="241" x2="242" y2="241" stroke="#00f"/>
<line x1="361" y1="241" x2="414" y2="241" stroke="#00f"/>
<rect x="101" y="236" width="92" height="10" fill="#ff0"/>
<rect x="244" y="236" width="117" height="10" fill="#ff0"/>
<rect x="416" y="236" width="154" height="10" fill="#ff0"/>
<text x="20" y="265" class="sm">0.005217</text>
<rect x="100" y="255" width="93" height="12" fill="#00f"/>
<rect x="243" y="255" width="118" height="12" fill="#00f"/>
<rect x="415" y="255" width="134" height="12" fill="#00f"/>
<rect x="624" y="255" width="316" height="12" fill="#00f"/>
<line x1="193" y1="261" x2="242" y2="261" stroke="#00f"/>
<line x1="361" y1="261" x2="414" y2="261" stroke="#00f"/>
<line x1="549" y1="261" x2="623" y2="261" stroke="#00f"/>
<rect x="101" y="256" width="92" height="10" fill="#ff0"/>
<rect x="244" y="256" width="117" height="10" fill="#ff0"/>
<rect x="416" y="256" width="133" height="10" fill="#ff0"/>
<rect x="625" y="256" width="185" height="10" fill="#ff0"/>
<text x="20" y="285" class="sm">0.004118</text>
<rect x="100" y="275" width="70" height="12" fill="#00f"/>
<rect x="243" y="275" width="118" height="12" fill="#00f"/>
<rect x="415" y="275" width="113" height="12" fill="#00f"/>
<rect x="624" y="275" width="316" height="12" fill="#00f"/>
<line x1="170" y1="281" x2="242" y2="281" stroke="#00f"/>
<line x1="361" y1="281" x2="414" y2="281" stroke="#00f"/>
<line x1="528" y1="281" x2="623" y2="281" stroke="#00f"/>
<rect x="138" y="276" width="32" height="10" fill="#ff0"/>
<rect x="244" y="276" width="117" height="10" fill="#ff0"/>
<rect x="416" y="276" width="112" height="10" fill="#ff0"/>
<rect x="625" y="276" width="185" height="10" fill="#ff0"/>
<text x="20" y="305" class="sm">0.003532</text>
<rect x="100" y="295" width="93" height="12" fill="#00f"/>
<rect x="243" y="295" width="118" height="12" fill="#00f"/>
<rect x="415" y="295" width="113" height="12" fill="#00f"/>
<rect x="573" y="295" width="367" height="12" fill="#00f"/>
<line x1="193" y1="301" x2="242" y2="301" stroke="#00f"/>
<line x1="361" y1="301" x2="414" y2="301" stroke="#00f"/>
<line x1="528" y1="301" x2="572" y2="301" stroke="#00f"/>
<rect x="101" y="296" width="92" height="10" fill="#ff0"/>
<rect x="244" y="296" width="117" height="10" fill="#ff0"/>
<rect x="416" y="296" width="112" height="10" fill="#ff0"/>
<rect x="574" y="296" width="236" height="10" fill="#ff0"/>
<text x="20" y="325" class="sm">0.002027</text>
<rect x="100" y="315" width="103" height="12" fill="#00f"/>
<rect x="243" y="315" width="118" height="12" fill="#00f"/>
<rect x="415" y="315" width="78" height="12" fill="#00f"/>
<rect x="624" y="315" width="316" height="12" fill="#00f"/>
<line x1="203" y1="321" x2="242" y2="321" stroke="#00f"/>
<line x1="361" y1="321" x2="414" y2="321" stroke="#00f"/>
<line x1="493" y1="321" x2="623" y2="321" stroke="#00f"/>
<rect x="265" y="316" width="96" height="10" fill="#ff0"/>
<rect x="416" y="316" width="77" height="10" fill="#ff0"/>
<rect x="625" y="316" width="121" height="10" fill="#ff0"/>
<text x="20" y="345" class="sm">0.001785</text>
<rect x="100" y="335" width="103" height="12" fill="#00f"/>
<rect x="243" y="335" width="118" height="12" fill="#00f"/>
<rect x="415" y="335" width="525" height="12" fill="#00f"/>
<line x1="203" y1="341" x2="242" y2="341" stroke="#00f"/>
<line x1="361" y1="341" x2="414" y2="341" stroke="#00f"/>
<rect x="265" y="336" width="96" height="10" fill="#ff0"/>
<rect x="416" y="336" width="154" height="10" fill="#ff0"/>
<text x="20" y="365" class="sm">0.0003876</text>
<rect x="100" y="355" width="103" height="12" fill="#00f"/>
<rect x="243" y="355" width="118" height="12" fill="#00f"/>
<rect x="415" y="355" width="134" height="12" fill="#00f"/>
<rect x="624" y="355" width="316" height="12" fill="#00f"/>
<line x1="203" y1="361" x2="242" y2="361" stroke="#00f"/>
<line x1="361" y1="361" x2="414" y2="361" stroke="#00f"/>
<line x1="549" y1="361" x2="623" y2="361" stroke="#00f"/>
<rect x="265" y="356" width="96" height="10" fill="#ff0"/>
<rect x="416" y="356" width="133" height="10" fill="#ff0"/>
<rect x="625" y="356" width="185" height="10" fill="#ff0"/>
<text x="20" y="385" class="sm">0.0002729</text>
<rect x="100" y="375" width="93" height="12" fill="#00f"/>
<rect x="243" y="375" width="118" height="12" fill="#00f"/>
<rect x="415" y="375" width="113" height="12" fill="#00f"/>
<rect x="824" y="375" width="116" height="12" fill="#00f"/>
<line x1="193" y1="381" x2="242" y2="381" stroke="#00f"/>
<line x1="361" y1="381" x2="414" y2="381" stroke="#00f"/>
<line x1="528" y1="381" x2="823" y2="381" stroke="#00f"/>
<rect x="138" y="376" width="55" height="10" fill="#ff0"/>
<rect x="244" y="376" width="30" height="10" fill="#ff0"/>
<text x="20" y="405" class="sm">0.0002624</text>
<rect x="100" y="395" width="103" height="12" fill="#00f"/>
<rect x="243" y="395" width="118" height="12" fill="#00f"/>
<rect x="415" y="395" width="113" height="12" fill="#00f"/>
<rect x="573" y="395" width="367" height="12" fill="#00f"/>
<line x1="203" y1="401" x2="242" y2="401" stroke="#00f"/>
<line x1="361" y1="401" x2="414" y2="401" stroke="#00f"/>
<line x1="528" y1="401" x2="572" y2="401" stroke="#00f"/>
<rect x="265" y="396" width="96" height="10" fill="#ff0"/>
<rect x="416" y="396" width="112" height="10" fill="#ff0"/>
<rect x="574" y="396" width="236" height="10" fill="#ff0"/>
<text x="20" y="425" class="sm">0.0002507</text>
<rect x="100" y="415" width="93" height="12" fill="#00f"/>
<rect x="243" y="415" width="118" height="12" fill="#00f"/>
<rect x="415" y="415" width="136" height="12" fill="#00f"/>
<rect x="624" y="415" width="316" height="12" fill="#00f"/>
<line x1="193" y1="421" x2="242" y2="421" stroke="#00f"/>
<line x1="361" y1="421" x2="414" y2="421" stroke="#00f"/>
<line x1="551" y1="421" x2="623" y2="421" stroke="#00f"/>
<rect x="101" y="416" width="92" height="10" fill="#ff0"/>
<rect x="244" y="416" width="117" height="10" fill="#ff0"/>
<rect x="416" y="416" width="135" height="10" fill="#ff0"/>
<rect x="625" y="416" width="99" height="10" fill="#ff0"/>
<text x="20" y="445" class="sm">0.0002295</text>
<rect x="100" y="435" width="93" height="12" fill="#00f"/>
<rect x="243" y="435" width="118" height="12" fill="#00f"/>
<rect x="415" y="435" width="144" height="12" fill="#00f"/>
<rect x="624" y="435" width="316" height="12" fill="#00f"/>
<line x1="193" y1="441" x2="242" y2="441" stroke="#00f"/>
<line x1="361" y1="441" x2="414" y2="441" stroke="#00f"/>
<line x1="559" y1="441" x2="623" y2="441" stroke="#00f"/>
<rect x="101" y="436" width="92" height="10" fill="#ff0"/>
<rect x="244" y="436" width="117" height="10" fill="#ff0"/>
<rect x="416" y="436" width="143" height="10" fill="#ff0"/>
<rect x="625" y="436" width="121" height="10" fill="#ff0"/>
<text x="20" y="465" class="sm">0.0001297</text>
<rect x="100" y="455" width="70" height="12" fill="#00f"/>
<rect x="243" y="455" width="118" height="12" fill="#00f"/>
<rect x="415" y="455" width="78" height="12" fill="#00f"/>
<rect x="624" y="455" width="316" height="12" fill="#00f"/>
<line x1="170" y1="461" x2="242" y2="461" stroke="#00f"/>
<line x1="361" y1="461" x2="414" y2="461" stroke="#00f"/>
<line x1="493" y1="461" x2="623" y2="461" stroke="#00f"/>
<rect x="138" y="456" width="32" height="10" fill="#ff0"/>
<rect x="244" y="456" width="117" height="10" fill="#ff0"/>
<rect x="416" y="456" width="77" height="10" fill="#ff0"/>
<rect x="625" y="456" width="121" height="10" fill="#ff0"/>
<text x="20" y="485" class="sm">0.0001143</text>
<rect x="100" y="475" width="70" height="12" fill="#00f"/>
<rect x="243" y="475" width="118" height="12" fill="#00f"/>
<rect x="415" y="475" width="525" height="12" fill="#00f"/>
<line x1="170" y1="481" x2="242" y2="481" stroke="#00f"/>
<line x1="361" y1="481" x2="414" y2="481" stroke="#00f"/>
<rect x="138" y="476" width="32" height="10" fill="#ff0"/>
<rect x="244" y="476" width="117" height="10" fill="#ff0"/>
<rect x="416" y="476" width="154" height="10" fill="#ff0"/>
<text x="20" y="505" class="sm">2.481e-05</text>
<rect x="100" y="495" width="70" height="12" fill="#00f"/>
<rect x="243" y="495" width="118" height="12" fill="#00f"/>
<rect x="415" y="495" width="134" height="12" fill="#00f"/>
<rect x="624" y="495" width="316" height="12" fill="#00f"/>
<line x1="170" y1="501" x2="242" y2="501" stroke="#00f"/>
<line x1="361" y1="501" x2="414" y2="501" stroke="#00f"/>
<line x1="549" y1="501" x2="623" y2="501" stroke="#00f"/>
<rect x="138" y="496" width="32" height="10" fill="#ff0"/>
<rect x="244" y="496" width="117" height="10" fill="#ff0"/>
<rect x="416" y="496" width="133" height="10" fill="#ff0"/>
<rect x="625" y="496" width="185" height="10" fill="#ff0"/>
<text x="20" y="525" class="sm">2.416e-05</text>
<rect x="100" y="515" width="93" height="12" fill="#00f"/>
<rect x="243" y="515" width="122" height="12" fill="#00f"/>
<rect x="415" y="515" width="113" height="12" fill="#00f"/>
<rect x="624" y="515" width="316" height="12" fill="#00f"/>
<line x1="193" y1="521" x2="242" y2="521" stroke="#00f"/>
<line x1="365" y1="521" x2="414" y2="521" stroke="#00f"/>
<line x1="528" y1="521" x2="623" y2="521" stroke="#00f"/>
<rect x="101" y="516" width="92" height="10" fill="#ff0"/>
<rect x="244" y="516" width="121" height="10" fill="#ff0"/>
<rect x="416" y="516" width="12" height="10" fill="#ff0"/>
<text x="20" y="545" class="sm">2.149e-05</text>
<rect x="100" y="535" width="93" height="12" fill="#00f"/>
<rect x="243" y="535" width="118" height="12" fill="#00f"/>
<rect x="415" y="535" width="113" height="12" fill="#00f"/>
<rect x="742" y="535" width="198" height="12" fill="#00f"/>
<line x1="193" y1="541" x2="242" y2="541" stroke="#00f"/>
<line x1="361" y1="541" x2="414" y2="541" stroke="#00f"/>
<line x1="528" y1="541" x2="741" y2="541" stroke="#00f"/>
<rect x="101" y="536" width="92" height="10" fill="#ff0"/>
<rect x="244" y="536" width="117" height="10" fill="#ff0"/>
<rect x="416" y="536" width="112" height="10" fill="#ff0"/>
<rect x="743" y="536" width="74" height="10" fill="#ff0"/>
<text x="20" y="565" class="sm">2.028e-05</text>
<rect x="100" y="555" width="103" height="12" fill="#00f"/>
<rect x="243" y="555" width="118" height="12" fill="#00f"/>
<rect x="415" y="555" width="113" height="12" fill="#00f"/>
<rect x="824" y="555" width="116" height="12" fill="#00f"/>
<line x1="203" y1="561" x2="242" y2="561" stroke="#00f"/>
<line x1="361" y1="561" x2="414" y2="561" stroke="#00f"/>
<line x1="528" y1="561" x2="823" y2="561" stroke="#00f"/>
<rect x="101" y="556" width="102" height="10" fill="#ff0"/>
<rect x="244" y="556" width="117" height="10" fill="#ff0"/>
<rect x="416" y="556" width="0" height="10" fill="#ff0"/>
</svg>
