<svg viewBox="0 0 948 680" xmlns="http://www.w3.org/2000/svg">

<style>
  .sm { font: 12px sans-serif; }
  .lg { font: 15px sans-serif; }
</style>
<rect fill="#ddd" x="0" y="0" width="100%" height="100%"/>
<text x="20" y="20" class="lg">ch.1848 I:9624949-9625896 Gene:WBGene00004488</text>
<text x="20" y="50" class="sm">WormBase</text>
<rect x="102" y="40" width="216" height="12" fill="#00f"/>
<rect x="361" y="40" width="170" height="12" fill="#00f"/>
<rect x="732" y="40" width="118" height="12" fill="#00f"/>
<line x1="318" y1="46" x2="360" y2="46" stroke="#00f"/>
<line x1="531" y1="46" x2="731" y2="46" stroke="#00f"/>
<rect x="108" y="41" width="210" height="10" fill="#ff0"/>
<rect x="362" y="41" width="169" height="10" fill="#ff0"/>
<rect x="733" y="41" width="59" height="10" fill="#ff0"/>
<rect x="103" y="41" width="4" height="10" fill="brown"><title>.</title></rect>
<rect x="793" y="41" width="57" height="10" fill="brown"><title>.</title></rect>
<text x="20" y="70" class="sm">Fitness: 0.015529984303706982</text>
<rect x="531" y="65" width="201" height="5" fill="#00f"><title>19199500.0</title></rect>
<rect x="318" y="70" width="43" height="5" fill="#00f"><title>18901900.0</title></rect>
<rect x="41" y="75" width="61" height="5" fill="#00f"><title>3000.0</title></rect>
<rect x="157" y="80" width="47" height="5" fill="#00f"><title>675.0</title></rect>
<rect x="531" y="85" width="210" height="5" fill="#00f"><title>408.0</title></rect>
<rect x="157" y="90" width="40" height="5" fill="#00f"><title>405.0</title></rect>
<rect x="301" y="95" width="60" height="5" fill="#00f"><title>124.0</title></rect>
<rect x="482" y="100" width="250" height="5" fill="#00f"><title>117.0</title></rect>
<rect x="443" y="105" width="318" height="5" fill="#f0f"><title>62.0</title></rect>
<rect x="862" y="110" width="47" height="5" fill="#00f"><title>55.0</title></rect>
<rect x="254" y="115" width="34" height="5" fill="#f0f"><title>43.0</title></rect>
<rect x="134" y="120" width="108" height="5" fill="#00f"><title>39.0</title></rect>
<rect x="191" y="125" width="265" height="5" fill="#00f"><title>30.0</title></rect>
<rect x="191" y="130" width="170" height="5" fill="#00f"><title>20.0</title></rect>
<rect x="393" y="135" width="350" height="5" fill="#f0f"><title>17.0</title></rect>
<rect x="197" y="140" width="181" height="5" fill="#00f"><title>16.0</title></rect>
<rect x="318" y="145" width="52" height="5" fill="#00f"><title>14.0</title></rect>
<rect x="195" y="150" width="76" height="5" fill="#f0f"><title>12.0</title></rect>
<rect x="197" y="155" width="27" height="5" fill="#00f"><title>12.0</title></rect>
<rect x="191" y="160" width="320" height="5" fill="#00f"><title>10.0</title></rect>
<rect x="408" y="165" width="94" height="5" fill="#00f"><title>8.0</title></rect>
<rect x="513" y="170" width="230" height="5" fill="#f0f"><title>7.0</title></rect>
<rect x="218" y="175" width="293" height="5" fill="#00f"><title>7.0</title></rect>
<rect x="45" y="180" width="57" height="5" fill="#00f"><title>7.0</title></rect>
<rect x="149" y="185" width="48" height="5" fill="#00f"><title>6.0</title></rect>
<rect x="535" y="190" width="197" height="5" fill="#00f"><title>5.0</title></rect>
<rect x="459" y="195" width="56" height="5" fill="#00f"><title>5.0</title></rect>
<rect x="416" y="200" width="83" height="5" fill="#f0f"><title>5.0</title></rect>
<rect x="381" y="205" width="96" height="5" fill="#00f"><title>5.0</title></rect>
<rect x="344" y="210" width="43" height="5" fill="#f0f"><title>5.0</title></rect>
<rect x="434" y="215" width="37" height="5" fill="#f0f"><title>4.0</title></rect>
<rect x="322" y="220" width="65" height="5" fill="#f0f"><title>4.0</title></rect>
<rect x="460" y="225" width="35" height="5" fill="#f0f"><title>3.0</title></rect>
<rect x="406" y="230" width="68" height="5" fill="#00f"><title>3.0</title></rect>
<rect x="205" y="235" width="57" height="5" fill="#f0f"><title>3.0</title></rect>
<rect x="160" y="240" width="94" height="5" fill="#f0f"><title>3.0</title></rect>
<text x="20" y="270" class="sm">0.982</text>
<rect x="100" y="260" width="218" height="12" fill="#00f"/>
<rect x="361" y="260" width="170" height="12" fill="#00f"/>
<rect x="732" y="260" width="119" height="12" fill="#00f"/>
<line x1="318" y1="266" x2="360" y2="266" stroke="#00f"/>
<line x1="531" y1="266" x2="731" y2="266" stroke="#00f"/>
<rect x="108" y="261" width="210" height="10" fill="#ff0"/>
<rect x="362" y="261" width="169" height="10" fill="#ff0"/>
<rect x="733" y="261" width="59" height="10" fill="#ff0"/>
<text x="20" y="290" class="sm">0.008027</text>
<rect x="100" y="280" width="201" height="12" fill="#00f"/>
<rect x="361" y="280" width="170" height="12" fill="#00f"/>
<rect x="732" y="280" width="119" height="12" fill="#00f"/>
<line x1="301" y1="286" x2="360" y2="286" stroke="#00f"/>
<line x1="531" y1="286" x2="731" y2="286" stroke="#00f"/>
<rect x="108" y="281" width="193" height="10" fill="#ff0"/>
<rect x="362" y="281" width="129" height="10" fill="#ff0"/>
<text x="20" y="310" class="sm">0.002794</text>
<rect x="100" y="300" width="218" height="12" fill="#00f"/>
<rect x="370" y="300" width="161" height="12" fill="#00f"/>
<rect x="732" y="300" width="119" height="12" fill="#00f"/>
<line x1="318" y1="306" x2="369" y2="306" stroke="#00f"/>
<line x1="531" y1="306" x2="731" y2="306" stroke="#00f"/>
<rect x="108" y="301" width="210" height="10" fill="#ff0"/>
<rect x="371" y="301" width="160" height="10" fill="#ff0"/>
<rect x="733" y="301" width="59" height="10" fill="#ff0"/>
<text x="20" y="330" class="sm">0.002508</text>
<rect x="100" y="320" width="431" height="12" fill="#00f"/>
<rect x="732" y="320" width="119" height="12" fill="#00f"/>
<line x1="531" y1="326" x2="731" y2="326" stroke="#00f"/>
<rect x="108" y="321" width="383" height="10" fill="#ff0"/>
<text x="20" y="350" class="sm">0.001637</text>
<rect x="100" y="340" width="218" height="12" fill="#00f"/>
<rect x="378" y="340" width="153" height="12" fill="#00f"/>
<rect x="732" y="340" width="119" height="12" fill="#00f"/>
<line x1="318" y1="346" x2="377" y2="346" stroke="#00f"/>
<line x1="531" y1="346" x2="731" y2="346" stroke="#00f"/>
<rect x="108" y="341" width="210" height="10" fill="#ff0"/>
<rect x="379" y="341" width="112" height="10" fill="#ff0"/>
<text x="20" y="370" class="sm">0.001054</text>
<rect x="100" y="360" width="218" height="12" fill="#00f"/>
<rect x="361" y="360" width="174" height="12" fill="#00f"/>
<rect x="732" y="360" width="119" height="12" fill="#00f"/>
<line x1="318" y1="366" x2="360" y2="366" stroke="#00f"/>
<line x1="535" y1="366" x2="731" y2="366" stroke="#00f"/>
<rect x="108" y="361" width="210" height="10" fill="#ff0"/>
<rect x="362" y="361" width="173" height="10" fill="#ff0"/>
<rect x="733" y="361" width="16" height="10" fill="#ff0"/>
<text x="20" y="390" class="sm">0.0006965</text>
<rect x="100" y="380" width="218" height="12" fill="#00f"/>
<rect x="361" y="380" width="45" height="12" fill="#00f"/>
<rect x="452" y="380" width="79" height="12" fill="#00f"/>
<rect x="732" y="380" width="119" height="12" fill="#00f"/>
<line x1="318" y1="386" x2="360" y2="386" stroke="#00f"/>
<line x1="406" y1="386" x2="451" y2="386" stroke="#00f"/>
<line x1="531" y1="386" x2="731" y2="386" stroke="#00f"/>
<rect x="108" y="381" width="210" height="10" fill="#ff0"/>
<rect x="362" y="381" width="44" height="10" fill="#ff0"/>
<rect x="453" y="381" width="78" height="10" fill="#ff0"/>
<rect x="733" y="381" width="81" height="10" fill="#ff0"/>
<text x="20" y="410" class="sm">0.0003618</text>
<rect x="100" y="400" width="118" height="12" fill="#00f"/>
<rect x="261" y="400" width="57" height="12" fill="#00f"/>
<rect x="361" y="400" width="170" height="12" fill="#00f"/>
<rect x="732" y="400" width="119" height="12" fill="#00f"/>
<line x1="218" y1="406" x2="260" y2="406" stroke="#00f"/>
<line x1="318" y1="406" x2="360" y2="406" stroke="#00f"/>
<line x1="531" y1="406" x2="731" y2="406" stroke="#00f"/>
<rect x="108" y="401" width="110" height="10" fill="#ff0"/>
<rect x="262" y="401" width="56" height="10" fill="#ff0"/>
<rect x="362" y="401" width="169" height="10" fill="#ff0"/>
<rect x="733" y="401" width="81" height="10" fill="#ff0"/>
<text x="20" y="430" class="sm">0.0003485</text>
<rect x="100" y="420" width="218" height="12" fill="#00f"/>
<rect x="361" y="420" width="45" height="12" fill="#00f"/>
<rect x="465" y="420" width="66" height="12" fill="#00f"/>
<rect x="732" y="420" width="119" height="12" fill="#00f"/>
<line x1="318" y1="426" x2="360" y2="426" stroke="#00f"/>
<line x1="406" y1="426" x2="464" y2="426" stroke="#00f"/>
<line x1="531" y1="426" x2="731" y2="426" stroke="#00f"/>
<rect x="108" y="421" width="210" height="10" fill="#ff0"/>
<rect x="362" y="421" width="44" height="10" fill="#ff0"/>
<rect x="466" y="421" width="25" height="10" fill="#ff0"/>
<text x="20" y="450" class="sm">0.0001479</text>
<rect x="100" y="440" width="218" height="12" fill="#00f"/>
<rect x="361" y="440" width="42" height="12" fill="#00f"/>
<rect x="452" y="440" width="79" height="12" fill="#00f"/>
<rect x="732" y="440" width="119" height="12" fill="#00f"/>
<line x1="318" y1="446" x2="360" y2="446" stroke="#00f"/>
<line x1="403" y1="446" x2="451" y2="446" stroke="#00f"/>
<line x1="531" y1="446" x2="731" y2="446" stroke="#00f"/>
<rect x="108" y="441" width="210" height="10" fill="#ff0"/>
<rect x="362" y="441" width="41" height="10" fill="#ff0"/>
<rect x="453" y="441" width="78" height="10" fill="#ff0"/>
<rect x="733" y="441" width="81" height="10" fill="#ff0"/>
<text x="20" y="470" class="sm">9.721e-05</text>
<rect x="100" y="460" width="105" height="12" fill="#00f"/>
<rect x="252" y="460" width="66" height="12" fill="#00f"/>
<rect x="361" y="460" width="170" height="12" fill="#00f"/>
<rect x="732" y="460" width="119" height="12" fill="#00f"/>
<line x1="205" y1="466" x2="251" y2="466" stroke="#00f"/>
<line x1="318" y1="466" x2="360" y2="466" stroke="#00f"/>
<line x1="531" y1="466" x2="731" y2="466" stroke="#00f"/>
<rect x="108" y="461" width="97" height="10" fill="#ff0"/>
<rect x="253" y="461" width="65" height="10" fill="#ff0"/>
<rect x="362" y="461" width="129" height="10" fill="#ff0"/>
<text x="20" y="490" class="sm">7.674e-05</text>
<rect x="100" y="480" width="83" height="12" fill="#00f"/>
<rect x="224" y="480" width="94" height="12" fill="#00f"/>
<rect x="361" y="480" width="170" height="12" fill="#00f"/>
<rect x="732" y="480" width="119" height="12" fill="#00f"/>
<line x1="183" y1="486" x2="223" y2="486" stroke="#00f"/>
<line x1="318" y1="486" x2="360" y2="486" stroke="#00f"/>
<line x1="531" y1="486" x2="731" y2="486" stroke="#00f"/>
<rect x="108" y="481" width="75" height="10" fill="#ff0"/>
<rect x="225" y="481" width="93" height="10" fill="#ff0"/>
<rect x="362" y="481" width="129" height="10" fill="#ff0"/>
<text x="20" y="510" class="sm">5.943e-05</text>
<rect x="100" y="500" width="57" height="12" fill="#00f"/>
<rect x="204" y="500" width="114" height="12" fill="#00f"/>
<rect x="361" y="500" width="170" height="12" fill="#00f"/>
<rect x="732" y="500" width="119" height="12" fill="#00f"/>
<line x1="157" y1="506" x2="203" y2="506" stroke="#00f"/>
<line x1="318" y1="506" x2="360" y2="506" stroke="#00f"/>
<line x1="531" y1="506" x2="731" y2="506" stroke="#00f"/>
<rect x="108" y="501" width="49" height="10" fill="#ff0"/>
<rect x="205" y="501" width="18" height="10" fill="#ff0"/>
<text x="20" y="530" class="sm">5.223e-05</text>
<rect x="100" y="520" width="218" height="12" fill="#00f"/>
<rect x="361" y="520" width="47" height="12" fill="#00f"/>
<rect x="465" y="520" width="66" height="12" fill="#00f"/>
<rect x="732" y="520" width="119" height="12" fill="#00f"/>
<line x1="318" y1="526" x2="360" y2="526" stroke="#00f"/>
<line x1="408" y1="526" x2="464" y2="526" stroke="#00f"/>
<line x1="531" y1="526" x2="731" y2="526" stroke="#00f"/>
<rect x="108" y="521" width="210" height="10" fill="#ff0"/>
<rect x="362" y="521" width="46" height="10" fill="#ff0"/>
<rect x="466" y="521" width="65" height="10" fill="#ff0"/>
<rect x="733" y="521" width="59" height="10" fill="#ff0"/>
<text x="20" y="550" class="sm">2.65e-05</text>
<rect x="100" y="540" width="218" height="12" fill="#00f"/>
<rect x="361" y="540" width="47" height="12" fill="#00f"/>
<rect x="452" y="540" width="79" height="12" fill="#00f"/>
<rect x="732" y="540" width="119" height="12" fill="#00f"/>
<line x1="318" y1="546" x2="360" y2="546" stroke="#00f"/>
<line x1="408" y1="546" x2="451" y2="546" stroke="#00f"/>
<line x1="531" y1="546" x2="731" y2="546" stroke="#00f"/>
<rect x="108" y="541" width="210" height="10" fill="#ff0"/>
<rect x="362" y="541" width="46" height="10" fill="#ff0"/>
<rect x="453" y="541" width="38" height="10" fill="#ff0"/>
<text x="20" y="570" class="sm">2.287e-05</text>
<rect x="100" y="560" width="201" height="12" fill="#00f"/>
<rect x="378" y="560" width="153" height="12" fill="#00f"/>
<rect x="732" y="560" width="119" height="12" fill="#00f"/>
<line x1="301" y1="566" x2="377" y2="566" stroke="#00f"/>
<line x1="531" y1="566" x2="731" y2="566" stroke="#00f"/>
<rect x="108" y="561" width="193" height="10" fill="#ff0"/>
<rect x="379" y="561" width="152" height="10" fill="#ff0"/>
<rect x="733" y="561" width="81" height="10" fill="#ff0"/>
<text x="20" y="590" class="sm">1.941e-05</text>
<rect x="100" y="580" width="218" height="12" fill="#00f"/>
<rect x="361" y="580" width="42" height="12" fill="#00f"/>
<rect x="465" y="580" width="66" height="12" fill="#00f"/>
<rect x="732" y="580" width="119" height="12" fill="#00f"/>
<line x1="318" y1="586" x2="360" y2="586" stroke="#00f"/>
<line x1="403" y1="586" x2="464" y2="586" stroke="#00f"/>
<line x1="531" y1="586" x2="731" y2="586" stroke="#00f"/>
<rect x="108" y="581" width="210" height="10" fill="#ff0"/>
<rect x="362" y="581" width="41" height="10" fill="#ff0"/>
<rect x="466" y="581" width="25" height="10" fill="#ff0"/>
<text x="20" y="610" class="sm">1.812e-05</text>
<rect x="100" y="600" width="218" height="12" fill="#00f"/>
<rect x="361" y="600" width="170" height="12" fill="#00f"/>
<rect x="752" y="600" width="99" height="12" fill="#00f"/>
<line x1="318" y1="606" x2="360" y2="606" stroke="#00f"/>
<line x1="531" y1="606" x2="751" y2="606" stroke="#00f"/>
<rect x="815" y="601" width="14" height="10" fill="#ff0"/>
<text x="20" y="630" class="sm">1.474e-05</text>
<rect x="100" y="620" width="218" height="12" fill="#00f"/>
<rect x="361" y="620" width="121" height="12" fill="#00f"/>
<rect x="732" y="620" width="119" height="12" fill="#00f"/>
<line x1="318" y1="626" x2="360" y2="626" stroke="#00f"/>
<line x1="482" y1="626" x2="731" y2="626" stroke="#00f"/>
<rect x="108" y="621" width="210" height="10" fill="#ff0"/>
<rect x="362" y="621" width="120" height="10" fill="#ff0"/>
<rect x="733" y="621" width="81" height="10" fill="#ff0"/>
<text x="20" y="650" class="sm">1.104e-05</text>
<rect x="100" y="640" width="105" height="12" fill="#00f"/>
<rect x="261" y="640" width="57" height="12" fill="#00f"/>
<rect x="361" y="640" width="170" height="12" fill="#00f"/>
<rect x="732" y="640" width="119" height="12" fill="#00f"/>
<line x1="205" y1="646" x2="260" y2="646" stroke="#00f"/>
<line x1="318" y1="646" x2="360" y2="646" stroke="#00f"/>
<line x1="531" y1="646" x2="731" y2="646" stroke="#00f"/>
<rect x="108" y="641" width="97" height="10" fill="#ff0"/>
<rect x="262" y="641" width="56" height="10" fill="#ff0"/>
<rect x="362" y="641" width="129" height="10" fill="#ff0"/>
</svg>
