<svg viewBox="0 0 855 610" xmlns="http://www.w3.org/2000/svg">

<style>
  .sm { font: 12px sans-serif; }
  .lg { font: 15px sans-serif; }
</style>
<rect fill="#ddd" x="0" y="0" width="100%" height="100%"/>
<text x="20" y="20" class="lg">ch.1341 I:7313525-7314379 Gene:WBGene00008768</text>
<text x="20" y="50" class="sm">WormBase</text>
<rect x="102" y="40" width="71" height="12" fill="#00f"/>
<rect x="362" y="40" width="63" height="12" fill="#00f"/>
<rect x="482" y="40" width="275" height="12" fill="#00f"/>
<line x1="173" y1="46" x2="361" y2="46" stroke="#00f"/>
<line x1="425" y1="46" x2="481" y2="46" stroke="#00f"/>
<rect x="375" y="41" width="50" height="10" fill="#ff0"/>
<rect x="483" y="41" width="224" height="10" fill="#ff0"/>
<rect x="103" y="41" width="70" height="10" fill="brown"><title>.</title></rect>
<rect x="363" y="41" width="11" height="10" fill="brown"><title>.</title></rect>
<rect x="708" y="41" width="49" height="10" fill="brown"><title>.</title></rect>
<text x="20" y="70" class="sm">WormBase</text>
<rect x="272" y="60" width="153" height="12" fill="#00f"/>
<rect x="482" y="60" width="269" height="12" fill="#00f"/>
<line x1="425" y1="66" x2="481" y2="66" stroke="#00f"/>
<rect x="375" y="61" width="50" height="10" fill="#ff0"/>
<rect x="483" y="61" width="224" height="10" fill="#ff0"/>
<rect x="273" y="61" width="101" height="10" fill="brown"><title>.</title></rect>
<rect x="708" y="61" width="43" height="10" fill="brown"><title>.</title></rect>
<text x="20" y="90" class="sm">WormBase</text>
<rect x="104" y="80" width="69" height="12" fill="#00f"/>
<rect x="482" y="80" width="264" height="12" fill="#00f"/>
<line x1="173" y1="86" x2="481" y2="86" stroke="#00f"/>
<rect x="108" y="81" width="65" height="10" fill="#ff0"/>
<rect x="483" y="81" width="224" height="10" fill="#ff0"/>
<rect x="105" y="81" width="2" height="10" fill="brown"><title>.</title></rect>
<rect x="708" y="81" width="38" height="10" fill="brown"><title>.</title></rect>
<text x="20" y="110" class="sm">WormBase</text>
<rect x="608" y="100" width="99" height="12" fill="#00f"/>
<rect x="609" y="101" width="98" height="10" fill="#ff0"/>
<text x="20" y="130" class="sm">Fitness: 0.028067997373025896</text>
<rect x="173" y="125" width="309" height="5" fill="#00f"><title>1205010.0</title></rect>
<rect x="425" y="130" width="57" height="5" fill="#00f"><title>179226.0</title></rect>
<rect x="173" y="135" width="189" height="5" fill="#00f"><title>18798.0</title></rect>
<rect x="173" y="140" width="345" height="5" fill="#00f"><title>71.0</title></rect>
<rect x="173" y="145" width="200" height="5" fill="#00f"><title>38.0</title></rect>
<rect x="524" y="150" width="27" height="5" fill="#f0f"><title>33.0</title></rect>
<rect x="642" y="155" width="27" height="5" fill="#00f"><title>9.0</title></rect>
<rect x="173" y="160" width="237" height="5" fill="#00f"><title>6.0</title></rect>
<rect x="602" y="165" width="44" height="5" fill="#f0f"><title>5.0</title></rect>
<rect x="587" y="170" width="111" height="5" fill="#f0f"><title>3.0</title></rect>
<text x="20" y="200" class="sm">0.8603</text>
<rect x="100" y="190" width="73" height="12" fill="#00f"/>
<rect x="482" y="190" width="276" height="12" fill="#00f"/>
<line x1="173" y1="196" x2="481" y2="196" stroke="#00f"/>
<rect x="108" y="191" width="65" height="10" fill="#ff0"/>
<rect x="483" y="191" width="224" height="10" fill="#ff0"/>
<text x="20" y="220" class="sm">0.1271</text>
<rect x="100" y="210" width="325" height="12" fill="#00f"/>
<rect x="482" y="210" width="276" height="12" fill="#00f"/>
<line x1="425" y1="216" x2="481" y2="216" stroke="#00f"/>
<rect x="375" y="211" width="50" height="10" fill="#ff0"/>
<rect x="483" y="211" width="224" height="10" fill="#ff0"/>
<text x="20" y="240" class="sm">0.008689</text>
<rect x="100" y="230" width="296" height="12" fill="#00f"/>
<rect x="482" y="230" width="276" height="12" fill="#00f"/>
<line x1="396" y1="236" x2="481" y2="236" stroke="#00f"/>
<rect x="215" y="231" width="152" height="10" fill="#ff0"/>
<text x="20" y="260" class="sm">0.001225</text>
<rect x="100" y="250" width="73" height="12" fill="#00f"/>
<rect x="423" y="250" width="335" height="12" fill="#00f"/>
<line x1="173" y1="256" x2="422" y2="256" stroke="#00f"/>
<rect x="609" y="251" width="98" height="10" fill="#ff0"/>
<text x="20" y="280" class="sm">0.0009678</text>
<rect x="100" y="270" width="73" height="12" fill="#00f"/>
<rect x="630" y="270" width="128" height="12" fill="#00f"/>
<line x1="173" y1="276" x2="629" y2="276" stroke="#00f"/>
<rect x="108" y="271" width="65" height="10" fill="#ff0"/>
<rect x="631" y="271" width="80" height="10" fill="#ff0"/>
<text x="20" y="300" class="sm">0.0006632</text>
<rect x="100" y="290" width="198" height="12" fill="#00f"/>
<rect x="482" y="290" width="276" height="12" fill="#00f"/>
<line x1="298" y1="296" x2="481" y2="296" stroke="#00f"/>
<rect x="215" y="291" width="83" height="10" fill="#ff0"/>
<rect x="483" y="291" width="224" height="10" fill="#ff0"/>
<text x="20" y="320" class="sm">0.0004218</text>
<rect x="100" y="310" width="278" height="12" fill="#00f"/>
<rect x="482" y="310" width="276" height="12" fill="#00f"/>
<line x1="378" y1="316" x2="481" y2="316" stroke="#00f"/>
<rect x="215" y="311" width="152" height="10" fill="#ff0"/>
<text x="20" y="340" class="sm">0.0002218</text>
<rect x="100" y="330" width="325" height="12" fill="#00f"/>
<rect x="630" y="330" width="128" height="12" fill="#00f"/>
<line x1="425" y1="336" x2="629" y2="336" stroke="#00f"/>
<rect x="215" y="331" width="152" height="10" fill="#ff0"/>
<text x="20" y="360" class="sm">0.0002044</text>
<rect x="100" y="350" width="73" height="12" fill="#00f"/>
<rect x="373" y="350" width="385" height="12" fill="#00f"/>
<line x1="173" y1="356" x2="372" y2="356" stroke="#00f"/>
<rect x="609" y="351" width="98" height="10" fill="#ff0"/>
<text x="20" y="380" class="sm">6.956e-05</text>
<rect x="100" y="370" width="73" height="12" fill="#00f"/>
<rect x="518" y="370" width="240" height="12" fill="#00f"/>
<line x1="173" y1="376" x2="517" y2="376" stroke="#00f"/>
<rect x="108" y="371" width="65" height="10" fill="#ff0"/>
<rect x="519" y="371" width="188" height="10" fill="#ff0"/>
<text x="20" y="400" class="sm">3.611e-05</text>
<rect x="100" y="390" width="196" height="12" fill="#00f"/>
<rect x="482" y="390" width="276" height="12" fill="#00f"/>
<line x1="296" y1="396" x2="481" y2="396" stroke="#00f"/>
<rect x="273" y="391" width="23" height="10" fill="#ff0"/>
<rect x="483" y="391" width="224" height="10" fill="#ff0"/>
<text x="20" y="420" class="sm">2.694e-05</text>
<rect x="100" y="410" width="251" height="12" fill="#00f"/>
<rect x="482" y="410" width="276" height="12" fill="#00f"/>
<line x1="351" y1="416" x2="481" y2="416" stroke="#00f"/>
<rect x="215" y="411" width="136" height="10" fill="#ff0"/>
<rect x="483" y="411" width="33" height="10" fill="#ff0"/>
<text x="20" y="440" class="sm">1.475e-05</text>
<rect x="100" y="430" width="325" height="12" fill="#00f"/>
<rect x="518" y="430" width="240" height="12" fill="#00f"/>
<line x1="425" y1="436" x2="517" y2="436" stroke="#00f"/>
<rect x="375" y="431" width="50" height="10" fill="#ff0"/>
<rect x="519" y="431" width="188" height="10" fill="#ff0"/>
<text x="20" y="460" class="sm">1.021e-05</text>
<rect x="100" y="450" width="296" height="12" fill="#00f"/>
<rect x="630" y="450" width="128" height="12" fill="#00f"/>
<line x1="396" y1="456" x2="629" y2="456" stroke="#00f"/>
<rect x="215" y="451" width="152" height="10" fill="#ff0"/>
<text x="20" y="480" class="sm">7.269e-06</text>
<rect x="100" y="470" width="34" height="12" fill="#00f"/>
<rect x="482" y="470" width="276" height="12" fill="#00f"/>
<line x1="134" y1="476" x2="481" y2="476" stroke="#00f"/>
<rect x="108" y="471" width="26" height="10" fill="#ff0"/>
<rect x="483" y="471" width="224" height="10" fill="#ff0"/>
<text x="20" y="500" class="sm">3.428e-06</text>
<rect x="100" y="490" width="214" height="12" fill="#00f"/>
<rect x="482" y="490" width="276" height="12" fill="#00f"/>
<line x1="314" y1="496" x2="481" y2="496" stroke="#00f"/>
<rect x="215" y="491" width="99" height="10" fill="#ff0"/>
<rect x="483" y="491" width="13" height="10" fill="#ff0"/>
<text x="20" y="520" class="sm">1.719e-06</text>
<rect x="100" y="510" width="77" height="12" fill="#00f"/>
<rect x="482" y="510" width="276" height="12" fill="#00f"/>
<line x1="177" y1="516" x2="481" y2="516" stroke="#00f"/>
<rect x="609" y="511" width="98" height="10" fill="#ff0"/>
<text x="20" y="540" class="sm">9.086e-07</text>
<rect x="100" y="530" width="198" height="12" fill="#00f"/>
<rect x="423" y="530" width="335" height="12" fill="#00f"/>
<line x1="298" y1="536" x2="422" y2="536" stroke="#00f"/>
<rect x="215" y="531" width="83" height="10" fill="#ff0"/>
<rect x="424" y="531" width="26" height="10" fill="#ff0"/>
<text x="20" y="560" class="sm">8.259e-07</text>
<rect x="100" y="550" width="73" height="12" fill="#00f"/>
<rect x="587" y="550" width="171" height="12" fill="#00f"/>
<line x1="173" y1="556" x2="586" y2="556" stroke="#00f"/>
<rect x="108" y="551" width="65" height="10" fill="#ff0"/>
<rect x="588" y="551" width="119" height="10" fill="#ff0"/>
<text x="20" y="580" class="sm">7.141e-07</text>
<rect x="100" y="570" width="198" height="12" fill="#00f"/>
<rect x="630" y="570" width="128" height="12" fill="#00f"/>
<line x1="298" y1="576" x2="629" y2="576" stroke="#00f"/>
<rect x="215" y="571" width="83" height="10" fill="#ff0"/>
<rect x="631" y="571" width="80" height="10" fill="#ff0"/>
</svg>
