<svg viewBox="0 0 989 545" xmlns="http://www.w3.org/2000/svg">

<style>
  .sm { font: 12px sans-serif; }
  .lg { font: 15px sans-serif; }
</style>
<rect fill="#ddd" x="0" y="0" width="100%" height="100%"/>
<text x="20" y="20" class="lg">ch.13216 V:3280279-3281267 Gene:WBGene00020869</text>
<text x="20" y="50" class="sm">WormBase</text>
<rect x="100" y="40" width="129" height="12" fill="#00f"/>
<rect x="272" y="40" width="411" height="12" fill="#00f"/>
<rect x="766" y="40" width="123" height="12" fill="#00f"/>
<line x1="229" y1="46" x2="271" y2="46" stroke="#00f"/>
<line x1="683" y1="46" x2="765" y2="46" stroke="#00f"/>
<rect x="104" y="41" width="125" height="10" fill="#ff0"/>
<rect x="273" y="41" width="410" height="10" fill="#ff0"/>
<rect x="767" y="41" width="65" height="10" fill="#ff0"/>
<rect x="101" y="41" width="2" height="10" fill="brown"><title>.</title></rect>
<rect x="833" y="41" width="56" height="10" fill="brown"><title>.</title></rect>
<text x="20" y="70" class="sm">Fitness: 0.01955366731669983</text>
<rect x="229" y="65" width="43" height="5" fill="#00f"><title>287915.0</title></rect>
<rect x="683" y="70" width="83" height="5" fill="#00f"><title>199612.0</title></rect>
<rect x="447" y="75" width="144" height="5" fill="#00f"><title>1308.0</title></rect>
<rect x="695" y="80" width="71" height="5" fill="#00f"><title>21.0</title></rect>
<rect x="229" y="85" width="67" height="5" fill="#00f"><title>17.0</title></rect>
<rect x="218" y="90" width="44" height="5" fill="#f0f"><title>10.0</title></rect>
<rect x="229" y="95" width="53" height="5" fill="#00f"><title>7.0</title></rect>
<rect x="891" y="100" width="48" height="5" fill="#00f"><title>6.0</title></rect>
<rect x="208" y="105" width="156" height="5" fill="#f0f"><title>3.0</title></rect>
<text x="20" y="135" class="sm">0.5881</text>
<rect x="100" y="125" width="129" height="12" fill="#00f"/>
<rect x="272" y="125" width="620" height="12" fill="#00f"/>
<line x1="229" y1="131" x2="271" y2="131" stroke="#00f"/>
<rect x="104" y="126" width="125" height="10" fill="#ff0"/>
<rect x="273" y="126" width="434" height="10" fill="#ff0"/>
<text x="20" y="155" class="sm">0.4015</text>
<rect x="100" y="145" width="583" height="12" fill="#00f"/>
<rect x="766" y="145" width="126" height="12" fill="#00f"/>
<line x1="683" y1="151" x2="765" y2="151" stroke="#00f"/>
<rect x="276" y="146" width="407" height="10" fill="#ff0"/>
<rect x="767" y="146" width="65" height="10" fill="#ff0"/>
<text x="20" y="175" class="sm">0.007393</text>
<rect x="100" y="165" width="595" height="12" fill="#00f"/>
<rect x="766" y="165" width="126" height="12" fill="#00f"/>
<line x1="695" y1="171" x2="765" y2="171" stroke="#00f"/>
<rect x="276" y="166" width="419" height="10" fill="#ff0"/>
<rect x="767" y="166" width="65" height="10" fill="#ff0"/>
<text x="20" y="195" class="sm">0.0008344</text>
<rect x="100" y="185" width="136" height="12" fill="#00f"/>
<rect x="272" y="185" width="620" height="12" fill="#00f"/>
<line x1="236" y1="191" x2="271" y2="191" stroke="#00f"/>
<rect x="276" y="186" width="431" height="10" fill="#ff0"/>
<text x="20" y="215" class="sm">0.0006118</text>
<rect x="100" y="205" width="129" height="12" fill="#00f"/>
<rect x="272" y="205" width="411" height="12" fill="#00f"/>
<rect x="766" y="205" width="126" height="12" fill="#00f"/>
<line x1="229" y1="211" x2="271" y2="211" stroke="#00f"/>
<line x1="683" y1="211" x2="765" y2="211" stroke="#00f"/>
<rect x="104" y="206" width="125" height="10" fill="#ff0"/>
<rect x="273" y="206" width="410" height="10" fill="#ff0"/>
<rect x="767" y="206" width="65" height="10" fill="#ff0"/>
<text x="20" y="235" class="sm">0.0004525</text>
<rect x="100" y="225" width="551" height="12" fill="#00f"/>
<rect x="766" y="225" width="126" height="12" fill="#00f"/>
<line x1="651" y1="231" x2="765" y2="231" stroke="#00f"/>
<rect x="104" y="226" width="197" height="10" fill="#ff0"/>
<text x="20" y="255" class="sm">0.0004327</text>
<rect x="100" y="245" width="568" height="12" fill="#00f"/>
<rect x="766" y="245" width="126" height="12" fill="#00f"/>
<line x1="668" y1="251" x2="765" y2="251" stroke="#00f"/>
<rect x="276" y="246" width="392" height="10" fill="#ff0"/>
<rect x="767" y="246" width="65" height="10" fill="#ff0"/>
<text x="20" y="275" class="sm">0.0003531</text>
<rect x="100" y="265" width="133" height="12" fill="#00f"/>
<rect x="272" y="265" width="620" height="12" fill="#00f"/>
<line x1="233" y1="271" x2="271" y2="271" stroke="#00f"/>
<rect x="276" y="266" width="431" height="10" fill="#ff0"/>
<text x="20" y="295" class="sm">8.678e-05</text>
<rect x="100" y="285" width="36" height="12" fill="#00f"/>
<rect x="272" y="285" width="620" height="12" fill="#00f"/>
<line x1="136" y1="291" x2="271" y2="291" stroke="#00f"/>
<rect x="104" y="286" width="32" height="10" fill="#ff0"/>
<rect x="273" y="286" width="434" height="10" fill="#ff0"/>
<text x="20" y="315" class="sm">8.607e-05</text>
<rect x="100" y="305" width="583" height="12" fill="#00f"/>
<rect x="795" y="305" width="97" height="12" fill="#00f"/>
<line x1="683" y1="311" x2="794" y2="311" stroke="#00f"/>
<rect x="104" y="306" width="197" height="10" fill="#ff0"/>
<text x="20" y="335" class="sm">6.701e-05</text>
<rect x="100" y="325" width="116" height="12" fill="#00f"/>
<rect x="272" y="325" width="620" height="12" fill="#00f"/>
<line x1="216" y1="331" x2="271" y2="331" stroke="#00f"/>
<rect x="276" y="326" width="431" height="10" fill="#ff0"/>
<text x="20" y="355" class="sm">4.3e-05</text>
<rect x="100" y="345" width="121" height="12" fill="#00f"/>
<rect x="272" y="345" width="620" height="12" fill="#00f"/>
<line x1="221" y1="351" x2="271" y2="351" stroke="#00f"/>
<rect x="276" y="346" width="431" height="10" fill="#ff0"/>
<text x="20" y="375" class="sm">3.485e-05</text>
<rect x="100" y="365" width="58" height="12" fill="#00f"/>
<rect x="272" y="365" width="620" height="12" fill="#00f"/>
<line x1="158" y1="371" x2="271" y2="371" stroke="#00f"/>
<rect x="276" y="366" width="431" height="10" fill="#ff0"/>
<text x="20" y="395" class="sm">1.299e-05</text>
<rect x="100" y="385" width="616" height="12" fill="#00f"/>
<rect x="766" y="385" width="126" height="12" fill="#00f"/>
<line x1="716" y1="391" x2="765" y2="391" stroke="#00f"/>
<rect x="276" y="386" width="431" height="10" fill="#ff0"/>
<text x="20" y="415" class="sm">1.098e-05</text>
<rect x="100" y="405" width="129" height="12" fill="#00f"/>
<rect x="272" y="405" width="423" height="12" fill="#00f"/>
<rect x="766" y="405" width="126" height="12" fill="#00f"/>
<line x1="229" y1="411" x2="271" y2="411" stroke="#00f"/>
<line x1="695" y1="411" x2="765" y2="411" stroke="#00f"/>
<rect x="104" y="406" width="125" height="10" fill="#ff0"/>
<rect x="273" y="406" width="422" height="10" fill="#ff0"/>
<rect x="767" y="406" width="65" height="10" fill="#ff0"/>
<text x="20" y="435" class="sm">8.444e-06</text>
<rect x="100" y="425" width="52" height="12" fill="#00f"/>
<rect x="272" y="425" width="620" height="12" fill="#00f"/>
<line x1="152" y1="431" x2="271" y2="431" stroke="#00f"/>
<rect x="276" y="426" width="431" height="10" fill="#ff0"/>
<text x="20" y="455" class="sm">3.04e-06</text>
<rect x="100" y="445" width="32" height="12" fill="#00f"/>
<rect x="272" y="445" width="620" height="12" fill="#00f"/>
<line x1="132" y1="451" x2="271" y2="451" stroke="#00f"/>
<rect x="276" y="446" width="431" height="10" fill="#ff0"/>
<text x="20" y="475" class="sm">1.185e-06</text>
<rect x="100" y="465" width="595" height="12" fill="#00f"/>
<rect x="795" y="465" width="97" height="12" fill="#00f"/>
<line x1="695" y1="471" x2="794" y2="471" stroke="#00f"/>
<rect x="104" y="466" width="197" height="10" fill="#ff0"/>
<text x="20" y="495" class="sm">1.18e-06</text>
<rect x="100" y="485" width="30" height="12" fill="#00f"/>
<rect x="272" y="485" width="620" height="12" fill="#00f"/>
<line x1="130" y1="491" x2="271" y2="491" stroke="#00f"/>
<rect x="104" y="486" width="26" height="10" fill="#ff0"/>
<rect x="273" y="486" width="434" height="10" fill="#ff0"/>
<text x="20" y="515" class="sm">9.532e-07</text>
<rect x="100" y="505" width="587" height="12" fill="#00f"/>
<rect x="766" y="505" width="126" height="12" fill="#00f"/>
<line x1="687" y1="511" x2="765" y2="511" stroke="#00f"/>
<rect x="104" y="506" width="197" height="10" fill="#ff0"/>
</svg>
