<svg viewBox="0 0 760 590" xmlns="http://www.w3.org/2000/svg">

<style>
  .sm { font: 12px sans-serif; }
  .lg { font: 15px sans-serif; }
</style>
<rect fill="#ddd" x="0" y="0" width="100%" height="100%"/>
<text x="20" y="20" class="lg">ch.10553 IV:7791604-7792363 Gene:WBGene00016379</text>
<text x="20" y="50" class="sm">WormBase</text>
<rect x="102" y="40" width="110" height="12" fill="#00f"/>
<rect x="256" y="40" width="119" height="12" fill="#00f"/>
<rect x="431" y="40" width="231" height="12" fill="#00f"/>
<line x1="212" y1="46" x2="255" y2="46" stroke="#00f"/>
<line x1="375" y1="46" x2="430" y2="46" stroke="#00f"/>
<rect x="174" y="41" width="38" height="10" fill="#ff0"/>
<rect x="257" y="41" width="118" height="10" fill="#ff0"/>
<rect x="432" y="41" width="120" height="10" fill="#ff0"/>
<rect x="103" y="41" width="70" height="10" fill="brown"><title>.</title></rect>
<rect x="553" y="41" width="109" height="10" fill="brown"><title>.</title></rect>
<text x="20" y="70" class="sm">WormBase</text>
<rect x="495" y="60" width="57" height="12" fill="#00f"/>
<rect x="496" y="61" width="56" height="10" fill="#ff0"/>
<text x="20" y="90" class="sm">Fitness: 0.020898407568606312</text>
<rect x="375" y="85" width="56" height="5" fill="#00f"><title>598775.0</title></rect>
<rect x="212" y="90" width="44" height="5" fill="#00f"><title>328495.0</title></rect>
<rect x="375" y="95" width="58" height="5" fill="#00f"><title>64.0</title></rect>
<rect x="5" y="100" width="159" height="5" fill="#00f"><title>45.0</title></rect>
<rect x="379" y="105" width="52" height="5" fill="#00f"><title>35.0</title></rect>
<rect x="287" y="110" width="39" height="5" fill="#00f"><title>31.0</title></rect>
<rect x="212" y="115" width="75" height="5" fill="#00f"><title>21.0</title></rect>
<rect x="379" y="120" width="54" height="5" fill="#00f"><title>11.0</title></rect>
<rect x="5" y="125" width="71" height="5" fill="#00f"><title>11.0</title></rect>
<rect x="294" y="130" width="234" height="5" fill="#f0f"><title>7.0</title></rect>
<rect x="5" y="135" width="51" height="5" fill="#00f"><title>7.0</title></rect>
<rect x="256" y="140" width="70" height="5" fill="#00f"><title>5.0</title></rect>
<rect x="216" y="145" width="40" height="5" fill="#00f"><title>4.0</title></rect>
<rect x="108" y="150" width="56" height="5" fill="#00f"><title>3.0</title></rect>
<text x="20" y="180" class="sm">0.4847</text>
<rect x="100" y="170" width="112" height="12" fill="#00f"/>
<rect x="256" y="170" width="119" height="12" fill="#00f"/>
<rect x="431" y="170" width="232" height="12" fill="#00f"/>
<line x1="212" y1="176" x2="255" y2="176" stroke="#00f"/>
<line x1="375" y1="176" x2="430" y2="176" stroke="#00f"/>
<rect x="174" y="171" width="38" height="10" fill="#ff0"/>
<rect x="257" y="171" width="118" height="10" fill="#ff0"/>
<rect x="432" y="171" width="120" height="10" fill="#ff0"/>
<text x="20" y="200" class="sm">0.461</text>
<rect x="100" y="190" width="275" height="12" fill="#00f"/>
<rect x="431" y="190" width="232" height="12" fill="#00f"/>
<line x1="375" y1="196" x2="430" y2="196" stroke="#00f"/>
<rect x="174" y="191" width="65" height="10" fill="#ff0"/>
<text x="20" y="220" class="sm">0.03934</text>
<rect x="100" y="210" width="112" height="12" fill="#00f"/>
<rect x="256" y="210" width="407" height="12" fill="#00f"/>
<line x1="212" y1="216" x2="255" y2="216" stroke="#00f"/>
<rect x="174" y="211" width="38" height="10" fill="#ff0"/>
<rect x="257" y="211" width="122" height="10" fill="#ff0"/>
<text x="20" y="240" class="sm">0.007386</text>
<rect x="100" y="230" width="116" height="12" fill="#00f"/>
<rect x="256" y="230" width="119" height="12" fill="#00f"/>
<rect x="431" y="230" width="232" height="12" fill="#00f"/>
<line x1="216" y1="236" x2="255" y2="236" stroke="#00f"/>
<line x1="375" y1="236" x2="430" y2="236" stroke="#00f"/>
<rect x="496" y="231" width="56" height="10" fill="#ff0"/>
<text x="20" y="260" class="sm">0.00128</text>
<rect x="100" y="250" width="112" height="12" fill="#00f"/>
<rect x="256" y="250" width="123" height="12" fill="#00f"/>
<rect x="431" y="250" width="232" height="12" fill="#00f"/>
<line x1="212" y1="256" x2="255" y2="256" stroke="#00f"/>
<line x1="379" y1="256" x2="430" y2="256" stroke="#00f"/>
<rect x="174" y="251" width="38" height="10" fill="#ff0"/>
<rect x="257" y="251" width="122" height="10" fill="#ff0"/>
<text x="20" y="280" class="sm">0.001216</text>
<rect x="100" y="270" width="279" height="12" fill="#00f"/>
<rect x="431" y="270" width="232" height="12" fill="#00f"/>
<line x1="379" y1="276" x2="430" y2="276" stroke="#00f"/>
<rect x="342" y="271" width="37" height="10" fill="#ff0"/>
<rect x="432" y="271" width="120" height="10" fill="#ff0"/>
<text x="20" y="300" class="sm">0.0006529</text>
<rect x="100" y="290" width="112" height="12" fill="#00f"/>
<rect x="256" y="290" width="114" height="12" fill="#00f"/>
<rect x="431" y="290" width="232" height="12" fill="#00f"/>
<line x1="212" y1="296" x2="255" y2="296" stroke="#00f"/>
<line x1="370" y1="296" x2="430" y2="296" stroke="#00f"/>
<rect x="174" y="291" width="38" height="10" fill="#ff0"/>
<rect x="257" y="291" width="113" height="10" fill="#ff0"/>
<rect x="432" y="291" width="5" height="10" fill="#ff0"/>
<text x="20" y="320" class="sm">0.0006262</text>
<rect x="100" y="310" width="270" height="12" fill="#00f"/>
<rect x="431" y="310" width="232" height="12" fill="#00f"/>
<line x1="370" y1="316" x2="430" y2="316" stroke="#00f"/>
<rect x="342" y="311" width="28" height="10" fill="#ff0"/>
<rect x="432" y="311" width="120" height="10" fill="#ff0"/>
<text x="20" y="340" class="sm">0.0005995</text>
<rect x="100" y="330" width="116" height="12" fill="#00f"/>
<rect x="256" y="330" width="407" height="12" fill="#00f"/>
<line x1="216" y1="336" x2="255" y2="336" stroke="#00f"/>
<rect x="342" y="331" width="95" height="10" fill="#ff0"/>
<text x="20" y="360" class="sm">0.0005081</text>
<rect x="100" y="350" width="112" height="12" fill="#00f"/>
<rect x="299" y="350" width="76" height="12" fill="#00f"/>
<rect x="431" y="350" width="232" height="12" fill="#00f"/>
<line x1="212" y1="356" x2="298" y2="356" stroke="#00f"/>
<line x1="375" y1="356" x2="430" y2="356" stroke="#00f"/>
<rect x="174" y="351" width="38" height="10" fill="#ff0"/>
<rect x="300" y="351" width="75" height="10" fill="#ff0"/>
<rect x="432" y="351" width="1" height="10" fill="#ff0"/>
<text x="20" y="380" class="sm">0.0004797</text>
<rect x="100" y="370" width="112" height="12" fill="#00f"/>
<rect x="431" y="370" width="232" height="12" fill="#00f"/>
<line x1="212" y1="376" x2="430" y2="376" stroke="#00f"/>
<rect x="496" y="371" width="56" height="10" fill="#ff0"/>
<text x="20" y="400" class="sm">0.0004167</text>
<rect x="100" y="390" width="112" height="12" fill="#00f"/>
<rect x="256" y="390" width="90" height="12" fill="#00f"/>
<rect x="431" y="390" width="232" height="12" fill="#00f"/>
<line x1="212" y1="396" x2="255" y2="396" stroke="#00f"/>
<line x1="346" y1="396" x2="430" y2="396" stroke="#00f"/>
<rect x="174" y="391" width="38" height="10" fill="#ff0"/>
<rect x="257" y="391" width="89" height="10" fill="#ff0"/>
<rect x="432" y="391" width="5" height="10" fill="#ff0"/>
<text x="20" y="420" class="sm">0.0003911</text>
<rect x="100" y="410" width="246" height="12" fill="#00f"/>
<rect x="431" y="410" width="232" height="12" fill="#00f"/>
<line x1="346" y1="416" x2="430" y2="416" stroke="#00f"/>
<rect x="342" y="411" width="4" height="10" fill="#ff0"/>
<rect x="432" y="411" width="120" height="10" fill="#ff0"/>
<text x="20" y="440" class="sm">0.0003808</text>
<rect x="100" y="430" width="112" height="12" fill="#00f"/>
<rect x="256" y="430" width="119" height="12" fill="#00f"/>
<rect x="431" y="430" width="66" height="12" fill="#00f"/>
<rect x="545" y="430" width="118" height="12" fill="#00f"/>
<line x1="212" y1="436" x2="255" y2="436" stroke="#00f"/>
<line x1="375" y1="436" x2="430" y2="436" stroke="#00f"/>
<line x1="497" y1="436" x2="544" y2="436" stroke="#00f"/>
<rect x="174" y="431" width="38" height="10" fill="#ff0"/>
<rect x="257" y="431" width="118" height="10" fill="#ff0"/>
<rect x="432" y="431" width="65" height="10" fill="#ff0"/>
<rect x="546" y="431" width="6" height="10" fill="#ff0"/>
<text x="20" y="460" class="sm">0.0003621</text>
<rect x="100" y="450" width="275" height="12" fill="#00f"/>
<rect x="431" y="450" width="66" height="12" fill="#00f"/>
<rect x="545" y="450" width="118" height="12" fill="#00f"/>
<line x1="375" y1="456" x2="430" y2="456" stroke="#00f"/>
<line x1="497" y1="456" x2="544" y2="456" stroke="#00f"/>
<rect x="174" y="451" width="65" height="10" fill="#ff0"/>
<text x="20" y="480" class="sm">0.0001641</text>
<rect x="100" y="470" width="112" height="12" fill="#00f"/>
<rect x="256" y="470" width="119" height="12" fill="#00f"/>
<rect x="431" y="470" width="32" height="12" fill="#00f"/>
<rect x="508" y="470" width="155" height="12" fill="#00f"/>
<line x1="212" y1="476" x2="255" y2="476" stroke="#00f"/>
<line x1="375" y1="476" x2="430" y2="476" stroke="#00f"/>
<line x1="463" y1="476" x2="507" y2="476" stroke="#00f"/>
<rect x="174" y="471" width="38" height="10" fill="#ff0"/>
<rect x="257" y="471" width="118" height="10" fill="#ff0"/>
<rect x="432" y="471" width="31" height="10" fill="#ff0"/>
<rect x="509" y="471" width="43" height="10" fill="#ff0"/>
<text x="20" y="500" class="sm">0.0001561</text>
<rect x="100" y="490" width="275" height="12" fill="#00f"/>
<rect x="431" y="490" width="32" height="12" fill="#00f"/>
<rect x="508" y="490" width="155" height="12" fill="#00f"/>
<line x1="375" y1="496" x2="430" y2="496" stroke="#00f"/>
<line x1="463" y1="496" x2="507" y2="496" stroke="#00f"/>
<rect x="174" y="491" width="65" height="10" fill="#ff0"/>
<text x="20" y="520" class="sm">0.0001237</text>
<rect x="100" y="510" width="112" height="12" fill="#00f"/>
<rect x="287" y="510" width="88" height="12" fill="#00f"/>
<rect x="431" y="510" width="232" height="12" fill="#00f"/>
<line x1="212" y1="516" x2="286" y2="516" stroke="#00f"/>
<line x1="375" y1="516" x2="430" y2="516" stroke="#00f"/>
<rect x="174" y="511" width="38" height="10" fill="#ff0"/>
<rect x="288" y="511" width="87" height="10" fill="#ff0"/>
<rect x="432" y="511" width="1" height="10" fill="#ff0"/>
<text x="20" y="540" class="sm">0.0001022</text>
<rect x="100" y="530" width="112" height="12" fill="#00f"/>
<rect x="347" y="530" width="28" height="12" fill="#00f"/>
<rect x="431" y="530" width="232" height="12" fill="#00f"/>
<line x1="212" y1="536" x2="346" y2="536" stroke="#00f"/>
<line x1="375" y1="536" x2="430" y2="536" stroke="#00f"/>
<rect x="174" y="531" width="38" height="10" fill="#ff0"/>
<rect x="348" y="531" width="27" height="10" fill="#ff0"/>
<rect x="432" y="531" width="1" height="10" fill="#ff0"/>
<text x="20" y="560" class="sm">9.621e-05</text>
<rect x="100" y="550" width="112" height="12" fill="#00f"/>
<rect x="256" y="550" width="119" height="12" fill="#00f"/>
<rect x="433" y="550" width="230" height="12" fill="#00f"/>
<line x1="212" y1="556" x2="255" y2="556" stroke="#00f"/>
<line x1="375" y1="556" x2="432" y2="556" stroke="#00f"/>
<rect x="174" y="551" width="38" height="10" fill="#ff0"/>
<rect x="257" y="551" width="118" height="10" fill="#ff0"/>
<rect x="434" y="551" width="3" height="10" fill="#ff0"/>
</svg>
