<svg viewBox="0 0 993 535" xmlns="http://www.w3.org/2000/svg">

<style>
  .sm { font: 12px sans-serif; }
  .lg { font: 15px sans-serif; }
</style>
<rect fill="#ddd" x="0" y="0" width="100%" height="100%"/>
<text x="20" y="20" class="lg">ch.11940 IV:13663298-13664290 Gene:WBGene00012880</text>
<text x="20" y="50" class="sm">WormBase</text>
<rect x="102" y="40" width="176" height="12" fill="#00f"/>
<rect x="598" y="40" width="122" height="12" fill="#00f"/>
<rect x="764" y="40" width="131" height="12" fill="#00f"/>
<line x1="278" y1="46" x2="597" y2="46" stroke="#00f"/>
<line x1="720" y1="46" x2="763" y2="46" stroke="#00f"/>
<rect x="129" y="41" width="149" height="10" fill="#ff0"/>
<rect x="599" y="41" width="121" height="10" fill="#ff0"/>
<rect x="765" y="41" width="102" height="10" fill="#ff0"/>
<rect x="103" y="41" width="25" height="10" fill="brown"><title>.</title></rect>
<rect x="868" y="41" width="27" height="10" fill="brown"><title>.</title></rect>
<text x="20" y="70" class="sm">Fitness: 0.39042895481537915</text>
<rect x="720" y="65" width="44" height="5" fill="#00f"><title>504072.0</title></rect>
<rect x="278" y="70" width="320" height="5" fill="#00f"><title>446256.0</title></rect>
<rect x="278" y="75" width="486" height="5" fill="#00f"><title>46.0</title></rect>
<rect x="707" y="80" width="57" height="5" fill="#00f"><title>37.0</title></rect>
<rect x="278" y="85" width="396" height="5" fill="#00f"><title>3.0</title></rect>
<rect x="278" y="90" width="380" height="5" fill="#00f"><title>3.0</title></rect>
<rect x="240" y="95" width="390" height="5" fill="#f0f"><title>3.0</title></rect>
<text x="20" y="125" class="sm">0.4111</text>
<rect x="100" y="115" width="178" height="12" fill="#00f"/>
<rect x="598" y="115" width="122" height="12" fill="#00f"/>
<rect x="764" y="115" width="132" height="12" fill="#00f"/>
<line x1="278" y1="121" x2="597" y2="121" stroke="#00f"/>
<line x1="720" y1="121" x2="763" y2="121" stroke="#00f"/>
<rect x="129" y="116" width="149" height="10" fill="#ff0"/>
<rect x="599" y="116" width="121" height="10" fill="#ff0"/>
<rect x="765" y="116" width="102" height="10" fill="#ff0"/>
<text x="20" y="145" class="sm">0.2242</text>
<rect x="100" y="135" width="620" height="12" fill="#00f"/>
<rect x="764" y="135" width="132" height="12" fill="#00f"/>
<line x1="720" y1="141" x2="763" y2="141" stroke="#00f"/>
<rect x="129" y="136" width="170" height="10" fill="#ff0"/>
<text x="20" y="165" class="sm">0.0998</text>
<rect x="100" y="155" width="178" height="12" fill="#00f"/>
<rect x="598" y="155" width="298" height="12" fill="#00f"/>
<line x1="278" y1="161" x2="597" y2="161" stroke="#00f"/>
<rect x="129" y="156" width="149" height="10" fill="#ff0"/>
<rect x="599" y="156" width="206" height="10" fill="#ff0"/>
<text x="20" y="185" class="sm">0.06473</text>
<rect x="100" y="175" width="121" height="12" fill="#00f"/>
<rect x="598" y="175" width="122" height="12" fill="#00f"/>
<rect x="764" y="175" width="132" height="12" fill="#00f"/>
<line x1="221" y1="181" x2="597" y2="181" stroke="#00f"/>
<line x1="720" y1="181" x2="763" y2="181" stroke="#00f"/>
<rect x="129" y="176" width="92" height="10" fill="#ff0"/>
<rect x="599" y="176" width="121" height="10" fill="#ff0"/>
<rect x="765" y="176" width="102" height="10" fill="#ff0"/>
<text x="20" y="205" class="sm">0.04474</text>
<rect x="100" y="195" width="138" height="12" fill="#00f"/>
<rect x="598" y="195" width="122" height="12" fill="#00f"/>
<rect x="764" y="195" width="132" height="12" fill="#00f"/>
<line x1="238" y1="201" x2="597" y2="201" stroke="#00f"/>
<line x1="720" y1="201" x2="763" y2="201" stroke="#00f"/>
<rect x="212" y="196" width="26" height="10" fill="#ff0"/>
<rect x="599" y="196" width="121" height="10" fill="#ff0"/>
<rect x="765" y="196" width="102" height="10" fill="#ff0"/>
<text x="20" y="225" class="sm">0.03912</text>
<rect x="100" y="215" width="178" height="12" fill="#00f"/>
<rect x="598" y="215" width="126" height="12" fill="#00f"/>
<rect x="764" y="215" width="132" height="12" fill="#00f"/>
<line x1="278" y1="221" x2="597" y2="221" stroke="#00f"/>
<line x1="724" y1="221" x2="763" y2="221" stroke="#00f"/>
<rect x="129" y="216" width="149" height="10" fill="#ff0"/>
<rect x="599" y="216" width="125" height="10" fill="#ff0"/>
<rect x="765" y="216" width="5" height="10" fill="#ff0"/>
<text x="20" y="245" class="sm">0.02128</text>
<rect x="100" y="235" width="624" height="12" fill="#00f"/>
<rect x="764" y="235" width="132" height="12" fill="#00f"/>
<line x1="724" y1="241" x2="763" y2="241" stroke="#00f"/>
<rect x="129" y="236" width="170" height="10" fill="#ff0"/>
<text x="20" y="265" class="sm">0.01571</text>
<rect x="100" y="255" width="121" height="12" fill="#00f"/>
<rect x="598" y="255" width="298" height="12" fill="#00f"/>
<line x1="221" y1="261" x2="597" y2="261" stroke="#00f"/>
<rect x="129" y="256" width="92" height="10" fill="#ff0"/>
<rect x="599" y="256" width="206" height="10" fill="#ff0"/>
<text x="20" y="285" class="sm">0.01098</text>
<rect x="100" y="275" width="49" height="12" fill="#00f"/>
<rect x="196" y="275" width="82" height="12" fill="#00f"/>
<rect x="598" y="275" width="122" height="12" fill="#00f"/>
<rect x="764" y="275" width="132" height="12" fill="#00f"/>
<line x1="149" y1="281" x2="195" y2="281" stroke="#00f"/>
<line x1="278" y1="281" x2="597" y2="281" stroke="#00f"/>
<line x1="720" y1="281" x2="763" y2="281" stroke="#00f"/>
<rect x="713" y="276" width="7" height="10" fill="#ff0"/>
<rect x="765" y="276" width="102" height="10" fill="#ff0"/>
<text x="20" y="305" class="sm">0.01086</text>
<rect x="100" y="295" width="138" height="12" fill="#00f"/>
<rect x="598" y="295" width="298" height="12" fill="#00f"/>
<line x1="238" y1="301" x2="597" y2="301" stroke="#00f"/>
<rect x="212" y="296" width="26" height="10" fill="#ff0"/>
<rect x="599" y="296" width="206" height="10" fill="#ff0"/>
<text x="20" y="325" class="sm">0.007698</text>
<rect x="100" y="315" width="178" height="12" fill="#00f"/>
<rect x="598" y="315" width="109" height="12" fill="#00f"/>
<rect x="764" y="315" width="132" height="12" fill="#00f"/>
<line x1="278" y1="321" x2="597" y2="321" stroke="#00f"/>
<line x1="707" y1="321" x2="763" y2="321" stroke="#00f"/>
<rect x="129" y="316" width="149" height="10" fill="#ff0"/>
<rect x="599" y="316" width="108" height="10" fill="#ff0"/>
<rect x="765" y="316" width="40" height="10" fill="#ff0"/>
<text x="20" y="345" class="sm">0.007529</text>
<rect x="100" y="335" width="454" height="12" fill="#00f"/>
<rect x="598" y="335" width="122" height="12" fill="#00f"/>
<rect x="764" y="335" width="132" height="12" fill="#00f"/>
<line x1="554" y1="341" x2="597" y2="341" stroke="#00f"/>
<line x1="720" y1="341" x2="763" y2="341" stroke="#00f"/>
<rect x="129" y="336" width="170" height="10" fill="#ff0"/>
<text x="20" y="365" class="sm">0.00699</text>
<rect x="100" y="355" width="314" height="12" fill="#00f"/>
<rect x="598" y="355" width="122" height="12" fill="#00f"/>
<rect x="764" y="355" width="132" height="12" fill="#00f"/>
<line x1="414" y1="361" x2="597" y2="361" stroke="#00f"/>
<line x1="720" y1="361" x2="763" y2="361" stroke="#00f"/>
<rect x="129" y="356" width="170" height="10" fill="#ff0"/>
<text x="20" y="385" class="sm">0.006329</text>
<rect x="100" y="375" width="49" height="12" fill="#00f"/>
<rect x="196" y="375" width="524" height="12" fill="#00f"/>
<rect x="764" y="375" width="132" height="12" fill="#00f"/>
<line x1="149" y1="381" x2="195" y2="381" stroke="#00f"/>
<line x1="720" y1="381" x2="763" y2="381" stroke="#00f"/>
<rect x="713" y="376" width="7" height="10" fill="#ff0"/>
<rect x="765" y="376" width="102" height="10" fill="#ff0"/>
<text x="20" y="405" class="sm">0.00616</text>
<rect x="100" y="395" width="121" height="12" fill="#00f"/>
<rect x="598" y="395" width="126" height="12" fill="#00f"/>
<rect x="764" y="395" width="132" height="12" fill="#00f"/>
<line x1="221" y1="401" x2="597" y2="401" stroke="#00f"/>
<line x1="724" y1="401" x2="763" y2="401" stroke="#00f"/>
<rect x="129" y="396" width="92" height="10" fill="#ff0"/>
<rect x="599" y="396" width="125" height="10" fill="#ff0"/>
<rect x="765" y="396" width="5" height="10" fill="#ff0"/>
<text x="20" y="425" class="sm">0.00612</text>
<rect x="100" y="415" width="312" height="12" fill="#00f"/>
<rect x="598" y="415" width="122" height="12" fill="#00f"/>
<rect x="764" y="415" width="132" height="12" fill="#00f"/>
<line x1="412" y1="421" x2="597" y2="421" stroke="#00f"/>
<line x1="720" y1="421" x2="763" y2="421" stroke="#00f"/>
<rect x="395" y="416" width="17" height="10" fill="#ff0"/>
<rect x="599" y="416" width="121" height="10" fill="#ff0"/>
<rect x="765" y="416" width="102" height="10" fill="#ff0"/>
<text x="20" y="445" class="sm">0.004258</text>
<rect x="100" y="435" width="138" height="12" fill="#00f"/>
<rect x="598" y="435" width="126" height="12" fill="#00f"/>
<rect x="764" y="435" width="132" height="12" fill="#00f"/>
<line x1="238" y1="441" x2="597" y2="441" stroke="#00f"/>
<line x1="724" y1="441" x2="763" y2="441" stroke="#00f"/>
<rect x="129" y="436" width="109" height="10" fill="#ff0"/>
<rect x="599" y="436" width="57" height="10" fill="#ff0"/>
<text x="20" y="465" class="sm">0.004221</text>
<rect x="100" y="455" width="178" height="12" fill="#00f"/>
<rect x="764" y="455" width="132" height="12" fill="#00f"/>
<line x1="278" y1="461" x2="763" y2="461" stroke="#00f"/>
<rect x="129" y="456" width="149" height="10" fill="#ff0"/>
<rect x="765" y="456" width="5" height="10" fill="#ff0"/>
<text x="20" y="485" class="sm">0.004125</text>
<rect x="100" y="475" width="607" height="12" fill="#00f"/>
<rect x="764" y="475" width="132" height="12" fill="#00f"/>
<line x1="707" y1="481" x2="763" y2="481" stroke="#00f"/>
<rect x="129" y="476" width="170" height="10" fill="#ff0"/>
<text x="20" y="505" class="sm">0.00407</text>
<rect x="100" y="495" width="178" height="12" fill="#00f"/>
<rect x="354" y="495" width="366" height="12" fill="#00f"/>
<rect x="764" y="495" width="132" height="12" fill="#00f"/>
<line x1="278" y1="501" x2="353" y2="501" stroke="#00f"/>
<line x1="720" y1="501" x2="763" y2="501" stroke="#00f"/>
<rect x="129" y="496" width="149" height="10" fill="#ff0"/>
<rect x="355" y="496" width="26" height="10" fill="#ff0"/>
</svg>
