<svg viewBox="0 0 813 530" xmlns="http://www.w3.org/2000/svg">

<style>
  .sm { font: 12px sans-serif; }
  .lg { font: 15px sans-serif; }
</style>
<rect fill="#ddd" x="0" y="0" width="100%" height="100%"/>
<text x="20" y="20" class="lg">ch.10589 IV:7947340-7948152 Gene:WBGene00249815</text>
<text x="20" y="50" class="sm">WormBase</text>
<rect x="100" y="40" width="65" height="12" fill="#00f"/>
<rect x="571" y="40" width="142" height="12" fill="#00f"/>
<line x1="165" y1="46" x2="570" y2="46" stroke="#00f"/>
<rect x="132" y="41" width="33" height="10" fill="#ff0"/>
<rect x="572" y="41" width="43" height="10" fill="#ff0"/>
<rect x="101" y="41" width="30" height="10" fill="brown"><title>.</title></rect>
<rect x="616" y="41" width="97" height="10" fill="brown"><title>.</title></rect>
<text x="20" y="70" class="sm">Fitness: 0.0024842166666366105</text>
<rect x="165" y="65" width="406" height="5" fill="#00f"><title>161561.0</title></rect>
<rect x="381" y="70" width="190" height="5" fill="#00f"><title>154.0</title></rect>
<rect x="165" y="75" width="120" height="5" fill="#00f"><title>124.0</title></rect>
<rect x="55" y="80" width="47" height="5" fill="#00f"><title>14.0</title></rect>
<rect x="165" y="85" width="50" height="5" fill="#00f"><title>13.0</title></rect>
<rect x="673" y="90" width="63" height="5" fill="#f0f"><title>6.0</title></rect>
<text x="20" y="120" class="sm">0.9988</text>
<rect x="100" y="110" width="65" height="12" fill="#00f"/>
<rect x="571" y="110" width="145" height="12" fill="#00f"/>
<line x1="165" y1="116" x2="570" y2="116" stroke="#00f"/>
<rect x="143" y="111" width="22" height="10" fill="#ff0"/>
<rect x="572" y="111" width="75" height="10" fill="#ff0"/>
<text x="20" y="140" class="sm">0.0004009</text>
<rect x="100" y="130" width="69" height="12" fill="#00f"/>
<rect x="571" y="130" width="145" height="12" fill="#00f"/>
<line x1="169" y1="136" x2="570" y2="136" stroke="#00f"/>
<rect x="132" y="131" width="37" height="10" fill="#ff0"/>
<rect x="572" y="131" width="75" height="10" fill="#ff0"/>
<text x="20" y="160" class="sm">0.0001747</text>
<rect x="100" y="150" width="65" height="12" fill="#00f"/>
<rect x="285" y="150" width="106" height="12" fill="#00f"/>
<rect x="571" y="150" width="145" height="12" fill="#00f"/>
<line x1="165" y1="156" x2="284" y2="156" stroke="#00f"/>
<line x1="391" y1="156" x2="570" y2="156" stroke="#00f"/>
<rect x="143" y="151" width="22" height="10" fill="#ff0"/>
<rect x="286" y="151" width="69" height="10" fill="#ff0"/>
<text x="20" y="180" class="sm">0.0001264</text>
<rect x="100" y="170" width="65" height="12" fill="#00f"/>
<rect x="285" y="170" width="96" height="12" fill="#00f"/>
<rect x="571" y="170" width="145" height="12" fill="#00f"/>
<line x1="165" y1="176" x2="284" y2="176" stroke="#00f"/>
<line x1="381" y1="176" x2="570" y2="176" stroke="#00f"/>
<rect x="143" y="171" width="22" height="10" fill="#ff0"/>
<rect x="286" y="171" width="69" height="10" fill="#ff0"/>
<text x="20" y="200" class="sm">0.0001037</text>
<rect x="100" y="190" width="65" height="12" fill="#00f"/>
<rect x="285" y="190" width="112" height="12" fill="#00f"/>
<rect x="571" y="190" width="145" height="12" fill="#00f"/>
<line x1="165" y1="196" x2="284" y2="196" stroke="#00f"/>
<line x1="397" y1="196" x2="570" y2="196" stroke="#00f"/>
<rect x="143" y="191" width="22" height="10" fill="#ff0"/>
<rect x="286" y="191" width="69" height="10" fill="#ff0"/>
<text x="20" y="220" class="sm">5.141e-05</text>
<rect x="100" y="210" width="65" height="12" fill="#00f"/>
<rect x="355" y="210" width="36" height="12" fill="#00f"/>
<rect x="571" y="210" width="145" height="12" fill="#00f"/>
<line x1="165" y1="216" x2="354" y2="216" stroke="#00f"/>
<line x1="391" y1="216" x2="570" y2="216" stroke="#00f"/>
<rect x="143" y="211" width="22" height="10" fill="#ff0"/>
<rect x="356" y="211" width="35" height="10" fill="#ff0"/>
<rect x="572" y="211" width="75" height="10" fill="#ff0"/>
<text x="20" y="240" class="sm">4.641e-05</text>
<rect x="100" y="230" width="65" height="12" fill="#00f"/>
<rect x="285" y="230" width="128" height="12" fill="#00f"/>
<rect x="571" y="230" width="145" height="12" fill="#00f"/>
<line x1="165" y1="236" x2="284" y2="236" stroke="#00f"/>
<line x1="413" y1="236" x2="570" y2="236" stroke="#00f"/>
<rect x="143" y="231" width="22" height="10" fill="#ff0"/>
<rect x="286" y="231" width="69" height="10" fill="#ff0"/>
<text x="20" y="260" class="sm">3.762e-05</text>
<rect x="100" y="250" width="94" height="12" fill="#00f"/>
<rect x="571" y="250" width="145" height="12" fill="#00f"/>
<line x1="194" y1="256" x2="570" y2="256" stroke="#00f"/>
<rect x="132" y="251" width="59" height="10" fill="#ff0"/>
<text x="20" y="280" class="sm">3.62e-05</text>
<rect x="100" y="270" width="65" height="12" fill="#00f"/>
<rect x="338" y="270" width="53" height="12" fill="#00f"/>
<rect x="571" y="270" width="145" height="12" fill="#00f"/>
<line x1="165" y1="276" x2="337" y2="276" stroke="#00f"/>
<line x1="391" y1="276" x2="570" y2="276" stroke="#00f"/>
<rect x="143" y="271" width="22" height="10" fill="#ff0"/>
<rect x="339" y="271" width="52" height="10" fill="#ff0"/>
<rect x="572" y="271" width="43" height="10" fill="#ff0"/>
<text x="20" y="300" class="sm">3.615e-05</text>
<rect x="100" y="290" width="65" height="12" fill="#00f"/>
<rect x="355" y="290" width="42" height="12" fill="#00f"/>
<rect x="571" y="290" width="145" height="12" fill="#00f"/>
<line x1="165" y1="296" x2="354" y2="296" stroke="#00f"/>
<line x1="397" y1="296" x2="570" y2="296" stroke="#00f"/>
<rect x="132" y="291" width="33" height="10" fill="#ff0"/>
<rect x="356" y="291" width="41" height="10" fill="#ff0"/>
<rect x="572" y="291" width="43" height="10" fill="#ff0"/>
<text x="20" y="320" class="sm">2.906e-05</text>
<rect x="100" y="310" width="65" height="12" fill="#00f"/>
<rect x="355" y="310" width="26" height="12" fill="#00f"/>
<rect x="571" y="310" width="145" height="12" fill="#00f"/>
<line x1="165" y1="316" x2="354" y2="316" stroke="#00f"/>
<line x1="381" y1="316" x2="570" y2="316" stroke="#00f"/>
<rect x="132" y="311" width="33" height="10" fill="#ff0"/>
<rect x="356" y="311" width="25" height="10" fill="#ff0"/>
<rect x="572" y="311" width="65" height="10" fill="#ff0"/>
<text x="20" y="340" class="sm">2.665e-05</text>
<rect x="100" y="330" width="65" height="12" fill="#00f"/>
<rect x="338" y="330" width="59" height="12" fill="#00f"/>
<rect x="571" y="330" width="145" height="12" fill="#00f"/>
<line x1="165" y1="336" x2="337" y2="336" stroke="#00f"/>
<line x1="397" y1="336" x2="570" y2="336" stroke="#00f"/>
<rect x="143" y="331" width="22" height="10" fill="#ff0"/>
<rect x="339" y="331" width="58" height="10" fill="#ff0"/>
<rect x="572" y="331" width="43" height="10" fill="#ff0"/>
<text x="20" y="360" class="sm">2.311e-05</text>
<rect x="100" y="350" width="65" height="12" fill="#00f"/>
<rect x="338" y="350" width="43" height="12" fill="#00f"/>
<rect x="571" y="350" width="145" height="12" fill="#00f"/>
<line x1="165" y1="356" x2="337" y2="356" stroke="#00f"/>
<line x1="381" y1="356" x2="570" y2="356" stroke="#00f"/>
<rect x="143" y="351" width="22" height="10" fill="#ff0"/>
<rect x="339" y="351" width="42" height="10" fill="#ff0"/>
<rect x="572" y="351" width="65" height="10" fill="#ff0"/>
<text x="20" y="380" class="sm">2.298e-05</text>
<rect x="100" y="370" width="65" height="12" fill="#00f"/>
<rect x="355" y="370" width="58" height="12" fill="#00f"/>
<rect x="571" y="370" width="145" height="12" fill="#00f"/>
<line x1="165" y1="376" x2="354" y2="376" stroke="#00f"/>
<line x1="413" y1="376" x2="570" y2="376" stroke="#00f"/>
<rect x="132" y="371" width="33" height="10" fill="#ff0"/>
<rect x="356" y="371" width="46" height="10" fill="#ff0"/>
<text x="20" y="400" class="sm">1.465e-05</text>
<rect x="100" y="390" width="65" height="12" fill="#00f"/>
<rect x="338" y="390" width="75" height="12" fill="#00f"/>
<rect x="571" y="390" width="145" height="12" fill="#00f"/>
<line x1="165" y1="396" x2="337" y2="396" stroke="#00f"/>
<line x1="413" y1="396" x2="570" y2="396" stroke="#00f"/>
<rect x="143" y="391" width="22" height="10" fill="#ff0"/>
<rect x="339" y="391" width="63" height="10" fill="#ff0"/>
<text x="20" y="420" class="sm">1.128e-05</text>
<rect x="100" y="410" width="65" height="12" fill="#00f"/>
<rect x="285" y="410" width="160" height="12" fill="#00f"/>
<rect x="571" y="410" width="145" height="12" fill="#00f"/>
<line x1="165" y1="416" x2="284" y2="416" stroke="#00f"/>
<line x1="445" y1="416" x2="570" y2="416" stroke="#00f"/>
<rect x="143" y="411" width="22" height="10" fill="#ff0"/>
<rect x="286" y="411" width="69" height="10" fill="#ff0"/>
<text x="20" y="440" class="sm">8.255e-06</text>
<rect x="100" y="430" width="65" height="12" fill="#00f"/>
<rect x="355" y="430" width="90" height="12" fill="#00f"/>
<rect x="571" y="430" width="145" height="12" fill="#00f"/>
<line x1="165" y1="436" x2="354" y2="436" stroke="#00f"/>
<line x1="445" y1="436" x2="570" y2="436" stroke="#00f"/>
<rect x="132" y="431" width="33" height="10" fill="#ff0"/>
<rect x="356" y="431" width="46" height="10" fill="#ff0"/>
<text x="20" y="460" class="sm">4.455e-06</text>
<rect x="100" y="450" width="65" height="12" fill="#00f"/>
<rect x="338" y="450" width="107" height="12" fill="#00f"/>
<rect x="571" y="450" width="145" height="12" fill="#00f"/>
<line x1="165" y1="456" x2="337" y2="456" stroke="#00f"/>
<line x1="445" y1="456" x2="570" y2="456" stroke="#00f"/>
<rect x="143" y="451" width="22" height="10" fill="#ff0"/>
<rect x="339" y="451" width="63" height="10" fill="#ff0"/>
<text x="20" y="480" class="sm">2.09e-06</text>
<rect x="100" y="470" width="87" height="12" fill="#00f"/>
<rect x="571" y="470" width="145" height="12" fill="#00f"/>
<line x1="187" y1="476" x2="570" y2="476" stroke="#00f"/>
<rect x="132" y="471" width="55" height="10" fill="#ff0"/>
<rect x="572" y="471" width="75" height="10" fill="#ff0"/>
<text x="20" y="500" class="sm">2.06e-06</text>
<rect x="100" y="490" width="65" height="12" fill="#00f"/>
<rect x="534" y="490" width="182" height="12" fill="#00f"/>
<line x1="165" y1="496" x2="533" y2="496" stroke="#00f"/>
<rect x="143" y="491" width="22" height="10" fill="#ff0"/>
<rect x="535" y="491" width="27" height="10" fill="#ff0"/>
</svg>
