<svg viewBox="0 0 792 520" xmlns="http://www.w3.org/2000/svg">

<style>
  .sm { font: 12px sans-serif; }
  .lg { font: 15px sans-serif; }
</style>
<rect fill="#ddd" x="0" y="0" width="100%" height="100%"/>
<text x="20" y="20" class="lg">ch.19632 X:13177756-13178547 Gene:WBGene00003741</text>
<text x="20" y="50" class="sm">WormBase</text>
<rect x="102" y="40" width="105" height="12" fill="#00f"/>
<rect x="280" y="40" width="414" height="12" fill="#00f"/>
<line x1="207" y1="46" x2="279" y2="46" stroke="#00f"/>
<rect x="133" y="41" width="74" height="10" fill="#ff0"/>
<rect x="281" y="41" width="197" height="10" fill="#ff0"/>
<rect x="103" y="41" width="29" height="10" fill="brown"><title>.</title></rect>
<rect x="479" y="41" width="215" height="10" fill="brown"><title>.</title></rect>
<text x="20" y="70" class="sm">Fitness: 0.0001766892602106154</text>
<rect x="207" y="65" width="73" height="5" fill="#00f"><title>254861.0</title></rect>
<rect x="207" y="70" width="75" height="5" fill="#00f"><title>39.0</title></rect>
<rect x="211" y="75" width="73" height="5" fill="#00f"><title>11.0</title></rect>
<rect x="339" y="80" width="175" height="5" fill="#f0f"><title>3.0</title></rect>
<text x="20" y="110" class="sm">0.9998</text>
<rect x="100" y="100" width="107" height="12" fill="#00f"/>
<rect x="280" y="100" width="415" height="12" fill="#00f"/>
<line x1="207" y1="106" x2="279" y2="106" stroke="#00f"/>
<rect x="133" y="101" width="74" height="10" fill="#ff0"/>
<rect x="281" y="101" width="197" height="10" fill="#ff0"/>
<text x="20" y="130" class="sm">0.0001078</text>
<rect x="100" y="120" width="107" height="12" fill="#00f"/>
<rect x="282" y="120" width="413" height="12" fill="#00f"/>
<line x1="207" y1="126" x2="281" y2="126" stroke="#00f"/>
<rect x="200" y="121" width="7" height="10" fill="#ff0"/>
<rect x="283" y="121" width="195" height="10" fill="#ff0"/>
<text x="20" y="150" class="sm">3.833e-05</text>
<rect x="100" y="140" width="107" height="12" fill="#00f"/>
<rect x="242" y="140" width="453" height="12" fill="#00f"/>
<line x1="207" y1="146" x2="241" y2="146" stroke="#00f"/>
<rect x="317" y="141" width="161" height="10" fill="#ff0"/>
<text x="20" y="170" class="sm">2.654e-05</text>
<rect x="100" y="160" width="79" height="12" fill="#00f"/>
<rect x="280" y="160" width="415" height="12" fill="#00f"/>
<line x1="179" y1="166" x2="279" y2="166" stroke="#00f"/>
<rect x="317" y="161" width="161" height="10" fill="#ff0"/>
<text x="20" y="190" class="sm">2.299e-06</text>
<rect x="100" y="180" width="107" height="12" fill="#00f"/>
<rect x="284" y="180" width="411" height="12" fill="#00f"/>
<line x1="207" y1="186" x2="283" y2="186" stroke="#00f"/>
<rect x="133" y="181" width="74" height="10" fill="#ff0"/>
<rect x="285" y="181" width="98" height="10" fill="#ff0"/>
<text x="20" y="210" class="sm">1.497e-06</text>
<rect x="100" y="200" width="107" height="12" fill="#00f"/>
<rect x="291" y="200" width="404" height="12" fill="#00f"/>
<line x1="207" y1="206" x2="290" y2="206" stroke="#00f"/>
<rect x="200" y="201" width="7" height="10" fill="#ff0"/>
<rect x="292" y="201" width="186" height="10" fill="#ff0"/>
<text x="20" y="230" class="sm">1.207e-06</text>
<rect x="100" y="220" width="74" height="12" fill="#00f"/>
<rect x="280" y="220" width="415" height="12" fill="#00f"/>
<line x1="174" y1="226" x2="279" y2="226" stroke="#00f"/>
<rect x="133" y="221" width="41" height="10" fill="#ff0"/>
<rect x="281" y="221" width="197" height="10" fill="#ff0"/>
<text x="20" y="250" class="sm">5.608e-07</text>
<rect x="100" y="240" width="79" height="12" fill="#00f"/>
<rect x="242" y="240" width="453" height="12" fill="#00f"/>
<line x1="179" y1="246" x2="241" y2="246" stroke="#00f"/>
<rect x="317" y="241" width="161" height="10" fill="#ff0"/>
<text x="20" y="270" class="sm">4.14e-07</text>
<rect x="100" y="260" width="111" height="12" fill="#00f"/>
<rect x="280" y="260" width="415" height="12" fill="#00f"/>
<line x1="211" y1="266" x2="279" y2="266" stroke="#00f"/>
<rect x="317" y="261" width="161" height="10" fill="#ff0"/>
<text x="20" y="290" class="sm">1.951e-07</text>
<rect x="100" y="280" width="79" height="12" fill="#00f"/>
<rect x="235" y="280" width="460" height="12" fill="#00f"/>
<line x1="179" y1="286" x2="234" y2="286" stroke="#00f"/>
<rect x="317" y="281" width="161" height="10" fill="#ff0"/>
<text x="20" y="310" class="sm">1.219e-07</text>
<rect x="100" y="300" width="107" height="12" fill="#00f"/>
<rect x="293" y="300" width="402" height="12" fill="#00f"/>
<line x1="207" y1="306" x2="292" y2="306" stroke="#00f"/>
<rect x="133" y="301" width="74" height="10" fill="#ff0"/>
<rect x="294" y="301" width="89" height="10" fill="#ff0"/>
<text x="20" y="330" class="sm">2.651e-08</text>
<rect x="100" y="320" width="107" height="12" fill="#00f"/>
<rect x="377" y="320" width="318" height="12" fill="#00f"/>
<line x1="207" y1="326" x2="376" y2="326" stroke="#00f"/>
<rect x="380" y="321" width="98" height="10" fill="#ff0"/>
<text x="20" y="350" class="sm">1.496e-08</text>
<rect x="100" y="340" width="107" height="12" fill="#00f"/>
<rect x="577" y="340" width="118" height="12" fill="#00f"/>
<line x1="207" y1="346" x2="576" y2="346" stroke="#00f"/>
<rect x="200" y="341" width="7" height="10" fill="#ff0"/>
<rect x="578" y="341" width="102" height="10" fill="#ff0"/>
<text x="20" y="370" class="sm">1.305e-08</text>
<rect x="100" y="360" width="359" height="12" fill="#00f"/>
<rect x="504" y="360" width="191" height="12" fill="#00f"/>
<line x1="459" y1="366" x2="503" y2="366" stroke="#00f"/>
<rect x="133" y="361" width="95" height="10" fill="#ff0"/>
<text x="20" y="390" class="sm">9.782e-09</text>
<rect x="100" y="380" width="74" height="12" fill="#00f"/>
<rect x="242" y="380" width="453" height="12" fill="#00f"/>
<line x1="174" y1="386" x2="241" y2="386" stroke="#00f"/>
<rect x="317" y="381" width="161" height="10" fill="#ff0"/>
<text x="20" y="410" class="sm">2.775e-09</text>
<rect x="100" y="400" width="79" height="12" fill="#00f"/>
<rect x="282" y="400" width="413" height="12" fill="#00f"/>
<line x1="179" y1="406" x2="281" y2="406" stroke="#00f"/>
<rect x="133" y="401" width="46" height="10" fill="#ff0"/>
<rect x="283" y="401" width="195" height="10" fill="#ff0"/>
<text x="20" y="430" class="sm">2.313e-09</text>
<rect x="100" y="420" width="359" height="12" fill="#00f"/>
<rect x="577" y="420" width="118" height="12" fill="#00f"/>
<line x1="459" y1="426" x2="576" y2="426" stroke="#00f"/>
<rect x="317" y="421" width="142" height="10" fill="#ff0"/>
<rect x="578" y="421" width="102" height="10" fill="#ff0"/>
<text x="20" y="450" class="sm">1.702e-09</text>
<rect x="100" y="440" width="74" height="12" fill="#00f"/>
<rect x="235" y="440" width="460" height="12" fill="#00f"/>
<line x1="174" y1="446" x2="234" y2="446" stroke="#00f"/>
<rect x="133" y="441" width="41" height="10" fill="#ff0"/>
<rect x="236" y="441" width="242" height="10" fill="#ff0"/>
<text x="20" y="470" class="sm">9.06e-10</text>
<rect x="100" y="460" width="359" height="12" fill="#00f"/>
<rect x="499" y="460" width="196" height="12" fill="#00f"/>
<line x1="459" y1="466" x2="498" y2="466" stroke="#00f"/>
<rect x="317" y="461" width="142" height="10" fill="#ff0"/>
<rect x="500" y="461" width="36" height="10" fill="#ff0"/>
<text x="20" y="490" class="sm">7.573e-10</text>
<rect x="100" y="480" width="107" height="12" fill="#00f"/>
<rect x="329" y="480" width="366" height="12" fill="#00f"/>
<line x1="207" y1="486" x2="328" y2="486" stroke="#00f"/>
<rect x="133" y="481" width="74" height="10" fill="#ff0"/>
<rect x="330" y="481" width="53" height="10" fill="#ff0"/>
</svg>
