<svg viewBox="0 0 1110 535" xmlns="http://www.w3.org/2000/svg">

<style>
  .sm { font: 12px sans-serif; }
  .lg { font: 15px sans-serif; }
</style>
<rect fill="#ddd" x="0" y="0" width="100%" height="100%"/>
<text x="20" y="20" class="lg">ch.19449 X:11982617-11983726 Gene:WBGene00008207</text>
<text x="20" y="50" class="sm">WormBase</text>
<rect x="102" y="40" width="61" height="12" fill="#00f"/>
<rect x="209" y="40" width="198" height="12" fill="#00f"/>
<rect x="454" y="40" width="126" height="12" fill="#00f"/>
<rect x="689" y="40" width="323" height="12" fill="#00f"/>
<line x1="163" y1="46" x2="208" y2="46" stroke="#00f"/>
<line x1="407" y1="46" x2="453" y2="46" stroke="#00f"/>
<line x1="580" y1="46" x2="688" y2="46" stroke="#00f"/>
<rect x="110" y="41" width="53" height="10" fill="#ff0"/>
<rect x="210" y="41" width="197" height="10" fill="#ff0"/>
<rect x="455" y="41" width="125" height="10" fill="#ff0"/>
<rect x="690" y="41" width="248" height="10" fill="#ff0"/>
<rect x="103" y="41" width="6" height="10" fill="brown"><title>.</title></rect>
<rect x="939" y="41" width="73" height="10" fill="brown"><title>.</title></rect>
<text x="20" y="70" class="sm">Fitness: 0.10327520796871502</text>
<rect x="407" y="65" width="47" height="5" fill="#00f"><title>143290.0</title></rect>
<rect x="580" y="70" width="109" height="5" fill="#00f"><title>115101.0</title></rect>
<rect x="163" y="75" width="46" height="5" fill="#00f"><title>103861.0</title></rect>
<rect x="1008" y="80" width="50" height="5" fill="#f0f"><title>26.0</title></rect>
<rect x="467" y="85" width="53" height="5" fill="#f0f"><title>19.0</title></rect>
<rect x="411" y="90" width="43" height="5" fill="#00f"><title>3.0</title></rect>
<rect x="64" y="95" width="253" height="5" fill="#f0f"><title>3.0</title></rect>
<text x="20" y="125" class="sm">0.7569</text>
<rect x="100" y="115" width="63" height="12" fill="#00f"/>
<rect x="209" y="115" width="198" height="12" fill="#00f"/>
<rect x="454" y="115" width="126" height="12" fill="#00f"/>
<rect x="689" y="115" width="324" height="12" fill="#00f"/>
<line x1="163" y1="121" x2="208" y2="121" stroke="#00f"/>
<line x1="407" y1="121" x2="453" y2="121" stroke="#00f"/>
<line x1="580" y1="121" x2="688" y2="121" stroke="#00f"/>
<rect x="110" y="116" width="53" height="10" fill="#ff0"/>
<rect x="210" y="116" width="197" height="10" fill="#ff0"/>
<rect x="455" y="116" width="125" height="10" fill="#ff0"/>
<rect x="690" y="116" width="248" height="10" fill="#ff0"/>
<text x="20" y="145" class="sm">0.1121</text>
<rect x="100" y="135" width="307" height="12" fill="#00f"/>
<rect x="454" y="135" width="126" height="12" fill="#00f"/>
<rect x="689" y="135" width="324" height="12" fill="#00f"/>
<line x1="407" y1="141" x2="453" y2="141" stroke="#00f"/>
<line x1="580" y1="141" x2="688" y2="141" stroke="#00f"/>
<rect x="201" y="136" width="206" height="10" fill="#ff0"/>
<rect x="455" y="136" width="125" height="10" fill="#ff0"/>
<rect x="690" y="136" width="248" height="10" fill="#ff0"/>
<text x="20" y="165" class="sm">0.04139</text>
<rect x="100" y="155" width="63" height="12" fill="#00f"/>
<rect x="234" y="155" width="173" height="12" fill="#00f"/>
<rect x="454" y="155" width="126" height="12" fill="#00f"/>
<rect x="689" y="155" width="324" height="12" fill="#00f"/>
<line x1="163" y1="161" x2="233" y2="161" stroke="#00f"/>
<line x1="407" y1="161" x2="453" y2="161" stroke="#00f"/>
<line x1="580" y1="161" x2="688" y2="161" stroke="#00f"/>
<rect x="240" y="156" width="167" height="10" fill="#ff0"/>
<rect x="455" y="156" width="125" height="10" fill="#ff0"/>
<rect x="690" y="156" width="248" height="10" fill="#ff0"/>
<text x="20" y="185" class="sm">0.03968</text>
<rect x="100" y="175" width="63" height="12" fill="#00f"/>
<rect x="209" y="175" width="198" height="12" fill="#00f"/>
<rect x="454" y="175" width="174" height="12" fill="#00f"/>
<rect x="689" y="175" width="324" height="12" fill="#00f"/>
<line x1="163" y1="181" x2="208" y2="181" stroke="#00f"/>
<line x1="407" y1="181" x2="453" y2="181" stroke="#00f"/>
<line x1="628" y1="181" x2="688" y2="181" stroke="#00f"/>
<rect x="110" y="176" width="53" height="10" fill="#ff0"/>
<rect x="210" y="176" width="197" height="10" fill="#ff0"/>
<rect x="455" y="176" width="161" height="10" fill="#ff0"/>
<text x="20" y="205" class="sm">0.008577</text>
<rect x="100" y="195" width="63" height="12" fill="#00f"/>
<rect x="209" y="195" width="198" height="12" fill="#00f"/>
<rect x="454" y="195" width="69" height="12" fill="#00f"/>
<rect x="689" y="195" width="324" height="12" fill="#00f"/>
<line x1="163" y1="201" x2="208" y2="201" stroke="#00f"/>
<line x1="407" y1="201" x2="453" y2="201" stroke="#00f"/>
<line x1="523" y1="201" x2="688" y2="201" stroke="#00f"/>
<rect x="110" y="196" width="53" height="10" fill="#ff0"/>
<rect x="210" y="196" width="197" height="10" fill="#ff0"/>
<rect x="455" y="196" width="68" height="10" fill="#ff0"/>
<rect x="690" y="196" width="248" height="10" fill="#ff0"/>
<text x="20" y="225" class="sm">0.008068</text>
<rect x="100" y="215" width="63" height="12" fill="#00f"/>
<rect x="209" y="215" width="198" height="12" fill="#00f"/>
<rect x="454" y="215" width="126" height="12" fill="#00f"/>
<rect x="629" y="215" width="384" height="12" fill="#00f"/>
<line x1="163" y1="221" x2="208" y2="221" stroke="#00f"/>
<line x1="407" y1="221" x2="453" y2="221" stroke="#00f"/>
<line x1="580" y1="221" x2="628" y2="221" stroke="#00f"/>
<rect x="110" y="216" width="53" height="10" fill="#ff0"/>
<rect x="210" y="216" width="197" height="10" fill="#ff0"/>
<rect x="455" y="216" width="125" height="10" fill="#ff0"/>
<rect x="630" y="216" width="2" height="10" fill="#ff0"/>
<text x="20" y="245" class="sm">0.006089</text>
<rect x="100" y="235" width="63" height="12" fill="#00f"/>
<rect x="209" y="235" width="202" height="12" fill="#00f"/>
<rect x="454" y="235" width="126" height="12" fill="#00f"/>
<rect x="689" y="235" width="324" height="12" fill="#00f"/>
<line x1="163" y1="241" x2="208" y2="241" stroke="#00f"/>
<line x1="411" y1="241" x2="453" y2="241" stroke="#00f"/>
<line x1="580" y1="241" x2="688" y2="241" stroke="#00f"/>
<rect x="110" y="236" width="53" height="10" fill="#ff0"/>
<rect x="210" y="236" width="201" height="10" fill="#ff0"/>
<rect x="455" y="236" width="88" height="10" fill="#ff0"/>
<text x="20" y="265" class="sm">0.00588</text>
<rect x="100" y="255" width="307" height="12" fill="#00f"/>
<rect x="454" y="255" width="174" height="12" fill="#00f"/>
<rect x="689" y="255" width="324" height="12" fill="#00f"/>
<line x1="407" y1="261" x2="453" y2="261" stroke="#00f"/>
<line x1="628" y1="261" x2="688" y2="261" stroke="#00f"/>
<rect x="201" y="256" width="206" height="10" fill="#ff0"/>
<rect x="455" y="256" width="161" height="10" fill="#ff0"/>
<text x="20" y="285" class="sm">0.003614</text>
<rect x="100" y="275" width="307" height="12" fill="#00f"/>
<rect x="454" y="275" width="126" height="12" fill="#00f"/>
<rect x="689" y="275" width="243" height="12" fill="#00f"/>
<rect x="980" y="275" width="33" height="12" fill="#00f"/>
<line x1="407" y1="281" x2="453" y2="281" stroke="#00f"/>
<line x1="580" y1="281" x2="688" y2="281" stroke="#00f"/>
<line x1="932" y1="281" x2="979" y2="281" stroke="#00f"/>
<rect x="727" y="276" width="205" height="10" fill="#ff0"/>
<rect x="981" y="276" width="21" height="10" fill="#ff0"/>
<text x="20" y="305" class="sm">0.002811</text>
<rect x="100" y="295" width="63" height="12" fill="#00f"/>
<rect x="209" y="295" width="198" height="12" fill="#00f"/>
<rect x="454" y="295" width="130" height="12" fill="#00f"/>
<rect x="689" y="295" width="324" height="12" fill="#00f"/>
<line x1="163" y1="301" x2="208" y2="301" stroke="#00f"/>
<line x1="407" y1="301" x2="453" y2="301" stroke="#00f"/>
<line x1="584" y1="301" x2="688" y2="301" stroke="#00f"/>
<rect x="110" y="296" width="53" height="10" fill="#ff0"/>
<rect x="210" y="296" width="197" height="10" fill="#ff0"/>
<rect x="455" y="296" width="129" height="10" fill="#ff0"/>
<rect x="690" y="296" width="37" height="10" fill="#ff0"/>
<text x="20" y="325" class="sm">0.00217</text>
<rect x="100" y="315" width="63" height="12" fill="#00f"/>
<rect x="234" y="315" width="173" height="12" fill="#00f"/>
<rect x="454" y="315" width="174" height="12" fill="#00f"/>
<rect x="689" y="315" width="324" height="12" fill="#00f"/>
<line x1="163" y1="321" x2="233" y2="321" stroke="#00f"/>
<line x1="407" y1="321" x2="453" y2="321" stroke="#00f"/>
<line x1="628" y1="321" x2="688" y2="321" stroke="#00f"/>
<rect x="240" y="316" width="167" height="10" fill="#ff0"/>
<rect x="455" y="316" width="161" height="10" fill="#ff0"/>
<text x="20" y="345" class="sm">0.001855</text>
<rect x="100" y="335" width="63" height="12" fill="#00f"/>
<rect x="209" y="335" width="198" height="12" fill="#00f"/>
<rect x="454" y="335" width="559" height="12" fill="#00f"/>
<line x1="163" y1="341" x2="208" y2="341" stroke="#00f"/>
<line x1="407" y1="341" x2="453" y2="341" stroke="#00f"/>
<rect x="110" y="336" width="53" height="10" fill="#ff0"/>
<rect x="210" y="336" width="197" height="10" fill="#ff0"/>
<rect x="455" y="336" width="161" height="10" fill="#ff0"/>
<text x="20" y="365" class="sm">0.001606</text>
<rect x="100" y="355" width="63" height="12" fill="#00f"/>
<rect x="209" y="355" width="198" height="12" fill="#00f"/>
<rect x="454" y="355" width="198" height="12" fill="#00f"/>
<rect x="689" y="355" width="324" height="12" fill="#00f"/>
<line x1="163" y1="361" x2="208" y2="361" stroke="#00f"/>
<line x1="407" y1="361" x2="453" y2="361" stroke="#00f"/>
<line x1="652" y1="361" x2="688" y2="361" stroke="#00f"/>
<rect x="110" y="356" width="53" height="10" fill="#ff0"/>
<rect x="210" y="356" width="197" height="10" fill="#ff0"/>
<rect x="455" y="356" width="161" height="10" fill="#ff0"/>
<text x="20" y="385" class="sm">0.001599</text>
<rect x="100" y="375" width="63" height="12" fill="#00f"/>
<rect x="370" y="375" width="37" height="12" fill="#00f"/>
<rect x="454" y="375" width="126" height="12" fill="#00f"/>
<rect x="689" y="375" width="324" height="12" fill="#00f"/>
<line x1="163" y1="381" x2="369" y2="381" stroke="#00f"/>
<line x1="407" y1="381" x2="453" y2="381" stroke="#00f"/>
<line x1="580" y1="381" x2="688" y2="381" stroke="#00f"/>
<rect x="503" y="376" width="77" height="10" fill="#ff0"/>
<rect x="690" y="376" width="248" height="10" fill="#ff0"/>
<text x="20" y="405" class="sm">0.001523</text>
<rect x="100" y="395" width="63" height="12" fill="#00f"/>
<rect x="209" y="395" width="198" height="12" fill="#00f"/>
<rect x="454" y="395" width="59" height="12" fill="#00f"/>
<rect x="689" y="395" width="324" height="12" fill="#00f"/>
<line x1="163" y1="401" x2="208" y2="401" stroke="#00f"/>
<line x1="407" y1="401" x2="453" y2="401" stroke="#00f"/>
<line x1="513" y1="401" x2="688" y2="401" stroke="#00f"/>
<rect x="110" y="396" width="53" height="10" fill="#ff0"/>
<rect x="210" y="396" width="197" height="10" fill="#ff0"/>
<rect x="455" y="396" width="58" height="10" fill="#ff0"/>
<rect x="690" y="396" width="3" height="10" fill="#ff0"/>
<text x="20" y="425" class="sm">0.001444</text>
<rect x="100" y="415" width="63" height="12" fill="#00f"/>
<rect x="209" y="415" width="371" height="12" fill="#00f"/>
<rect x="689" y="415" width="324" height="12" fill="#00f"/>
<line x1="163" y1="421" x2="208" y2="421" stroke="#00f"/>
<line x1="580" y1="421" x2="688" y2="421" stroke="#00f"/>
<rect x="110" y="416" width="53" height="10" fill="#ff0"/>
<rect x="210" y="416" width="296" height="10" fill="#ff0"/>
<text x="20" y="445" class="sm">0.001316</text>
<rect x="100" y="435" width="63" height="12" fill="#00f"/>
<rect x="209" y="435" width="198" height="12" fill="#00f"/>
<rect x="454" y="435" width="126" height="12" fill="#00f"/>
<rect x="737" y="435" width="276" height="12" fill="#00f"/>
<line x1="163" y1="441" x2="208" y2="441" stroke="#00f"/>
<line x1="407" y1="441" x2="453" y2="441" stroke="#00f"/>
<line x1="580" y1="441" x2="736" y2="441" stroke="#00f"/>
<rect x="110" y="436" width="53" height="10" fill="#ff0"/>
<rect x="210" y="436" width="197" height="10" fill="#ff0"/>
<rect x="455" y="436" width="125" height="10" fill="#ff0"/>
<rect x="738" y="436" width="200" height="10" fill="#ff0"/>
<text x="20" y="465" class="sm">0.001271</text>
<rect x="100" y="455" width="307" height="12" fill="#00f"/>
<rect x="454" y="455" width="69" height="12" fill="#00f"/>
<rect x="689" y="455" width="324" height="12" fill="#00f"/>
<line x1="407" y1="461" x2="453" y2="461" stroke="#00f"/>
<line x1="523" y1="461" x2="688" y2="461" stroke="#00f"/>
<rect x="201" y="456" width="206" height="10" fill="#ff0"/>
<rect x="455" y="456" width="68" height="10" fill="#ff0"/>
<rect x="690" y="456" width="248" height="10" fill="#ff0"/>
<text x="20" y="485" class="sm">0.001195</text>
<rect x="100" y="475" width="307" height="12" fill="#00f"/>
<rect x="454" y="475" width="126" height="12" fill="#00f"/>
<rect x="629" y="475" width="384" height="12" fill="#00f"/>
<line x1="407" y1="481" x2="453" y2="481" stroke="#00f"/>
<line x1="580" y1="481" x2="628" y2="481" stroke="#00f"/>
<rect x="201" y="476" width="206" height="10" fill="#ff0"/>
<rect x="455" y="476" width="125" height="10" fill="#ff0"/>
<rect x="630" y="476" width="2" height="10" fill="#ff0"/>
<text x="20" y="505" class="sm">0.0008678</text>
<rect x="100" y="495" width="63" height="12" fill="#00f"/>
<rect x="209" y="495" width="198" height="12" fill="#00f"/>
<rect x="454" y="495" width="181" height="12" fill="#00f"/>
<rect x="689" y="495" width="324" height="12" fill="#00f"/>
<line x1="163" y1="501" x2="208" y2="501" stroke="#00f"/>
<line x1="407" y1="501" x2="453" y2="501" stroke="#00f"/>
<line x1="635" y1="501" x2="688" y2="501" stroke="#00f"/>
<rect x="110" y="496" width="53" height="10" fill="#ff0"/>
<rect x="210" y="496" width="197" height="10" fill="#ff0"/>
<rect x="455" y="496" width="161" height="10" fill="#ff0"/>
</svg>
