<svg viewBox="0 0 889 535" xmlns="http://www.w3.org/2000/svg">

<style>
  .sm { font: 12px sans-serif; }
  .lg { font: 15px sans-serif; }
</style>
<rect fill="#ddd" x="0" y="0" width="100%" height="100%"/>
<text x="20" y="20" class="lg">ch.1416 I:7701265-7702153 Gene:WBGene00011968</text>
<text x="20" y="50" class="sm">WormBase</text>
<rect x="102" y="40" width="226" height="12" fill="#00f"/>
<rect x="374" y="40" width="417" height="12" fill="#00f"/>
<line x1="328" y1="46" x2="373" y2="46" stroke="#00f"/>
<rect x="187" y="41" width="141" height="10" fill="#ff0"/>
<rect x="375" y="41" width="364" height="10" fill="#ff0"/>
<rect x="103" y="41" width="83" height="10" fill="brown"><title>.</title></rect>
<rect x="740" y="41" width="51" height="10" fill="brown"><title>.</title></rect>
<text x="20" y="70" class="sm">Fitness: 0.0011157348460989571</text>
<rect x="328" y="65" width="46" height="5" fill="#00f"><title>339066.0</title></rect>
<rect x="632" y="70" width="47" height="5" fill="#00f"><title>623.0</title></rect>
<rect x="332" y="75" width="42" height="5" fill="#00f"><title>60.0</title></rect>
<rect x="192" y="80" width="26" height="5" fill="#f0f"><title>6.0</title></rect>
<rect x="316" y="85" width="58" height="5" fill="#00f"><title>4.0</title></rect>
<rect x="319" y="90" width="43" height="5" fill="#f0f"><title>3.0</title></rect>
<rect x="157" y="95" width="49" height="5" fill="#00f"><title>3.0</title></rect>
<text x="20" y="125" class="sm">0.9982</text>
<rect x="100" y="115" width="228" height="12" fill="#00f"/>
<rect x="374" y="115" width="418" height="12" fill="#00f"/>
<line x1="328" y1="121" x2="373" y2="121" stroke="#00f"/>
<rect x="187" y="116" width="141" height="10" fill="#ff0"/>
<rect x="375" y="116" width="364" height="10" fill="#ff0"/>
<text x="20" y="145" class="sm">0.001435</text>
<rect x="100" y="135" width="532" height="12" fill="#00f"/>
<rect x="679" y="135" width="113" height="12" fill="#00f"/>
<line x1="632" y1="141" x2="678" y2="141" stroke="#00f"/>
<rect x="416" y="136" width="216" height="10" fill="#ff0"/>
<rect x="680" y="136" width="82" height="10" fill="#ff0"/>
<text x="20" y="165" class="sm">0.0001004</text>
<rect x="100" y="155" width="532" height="12" fill="#00f"/>
<rect x="688" y="155" width="104" height="12" fill="#00f"/>
<line x1="632" y1="161" x2="687" y2="161" stroke="#00f"/>
<rect x="416" y="156" width="216" height="10" fill="#ff0"/>
<rect x="689" y="156" width="73" height="10" fill="#ff0"/>
<text x="20" y="185" class="sm">4.494e-05</text>
<rect x="100" y="175" width="228" height="12" fill="#00f"/>
<rect x="437" y="175" width="355" height="12" fill="#00f"/>
<line x1="328" y1="181" x2="436" y2="181" stroke="#00f"/>
<rect x="187" y="176" width="141" height="10" fill="#ff0"/>
<rect x="438" y="176" width="301" height="10" fill="#ff0"/>
<text x="20" y="205" class="sm">3.496e-05</text>
<rect x="100" y="195" width="118" height="12" fill="#00f"/>
<rect x="264" y="195" width="528" height="12" fill="#00f"/>
<line x1="218" y1="201" x2="263" y2="201" stroke="#00f"/>
<rect x="416" y="196" width="323" height="10" fill="#ff0"/>
<text x="20" y="225" class="sm">3.406e-05</text>
<rect x="100" y="215" width="235" height="12" fill="#00f"/>
<rect x="374" y="215" width="418" height="12" fill="#00f"/>
<line x1="335" y1="221" x2="373" y2="221" stroke="#00f"/>
<rect x="416" y="216" width="323" height="10" fill="#ff0"/>
<text x="20" y="245" class="sm">3.237e-05</text>
<rect x="100" y="235" width="342" height="12" fill="#00f"/>
<rect x="492" y="235" width="300" height="12" fill="#00f"/>
<line x1="442" y1="241" x2="491" y2="241" stroke="#00f"/>
<rect x="187" y="236" width="206" height="10" fill="#ff0"/>
<text x="20" y="265" class="sm">3.143e-05</text>
<rect x="100" y="255" width="387" height="12" fill="#00f"/>
<rect x="533" y="255" width="259" height="12" fill="#00f"/>
<line x1="487" y1="261" x2="532" y2="261" stroke="#00f"/>
<rect x="187" y="256" width="206" height="10" fill="#ff0"/>
<text x="20" y="285" class="sm">2.472e-05</text>
<rect x="100" y="275" width="232" height="12" fill="#00f"/>
<rect x="374" y="275" width="418" height="12" fill="#00f"/>
<line x1="332" y1="281" x2="373" y2="281" stroke="#00f"/>
<rect x="416" y="276" width="323" height="10" fill="#ff0"/>
<text x="20" y="305" class="sm">1.453e-05</text>
<rect x="100" y="295" width="216" height="12" fill="#00f"/>
<rect x="374" y="295" width="418" height="12" fill="#00f"/>
<line x1="316" y1="301" x2="373" y2="301" stroke="#00f"/>
<rect x="187" y="296" width="129" height="10" fill="#ff0"/>
<rect x="375" y="296" width="364" height="10" fill="#ff0"/>
<text x="20" y="325" class="sm">1.362e-05</text>
<rect x="100" y="315" width="288" height="12" fill="#00f"/>
<rect x="437" y="315" width="355" height="12" fill="#00f"/>
<line x1="388" y1="321" x2="436" y2="321" stroke="#00f"/>
<rect x="187" y="316" width="201" height="10" fill="#ff0"/>
<rect x="438" y="316" width="301" height="10" fill="#ff0"/>
<text x="20" y="345" class="sm">9.794e-06</text>
<rect x="100" y="335" width="228" height="12" fill="#00f"/>
<rect x="405" y="335" width="387" height="12" fill="#00f"/>
<line x1="328" y1="341" x2="404" y2="341" stroke="#00f"/>
<rect x="416" y="336" width="323" height="10" fill="#ff0"/>
<text x="20" y="365" class="sm">8.521e-06</text>
<rect x="100" y="355" width="387" height="12" fill="#00f"/>
<rect x="541" y="355" width="251" height="12" fill="#00f"/>
<line x1="487" y1="361" x2="540" y2="361" stroke="#00f"/>
<rect x="416" y="356" width="71" height="10" fill="#ff0"/>
<rect x="542" y="356" width="197" height="10" fill="#ff0"/>
<text x="20" y="385" class="sm">8.166e-06</text>
<rect x="100" y="375" width="532" height="12" fill="#00f"/>
<rect x="706" y="375" width="86" height="12" fill="#00f"/>
<line x1="632" y1="381" x2="705" y2="381" stroke="#00f"/>
<rect x="416" y="376" width="216" height="10" fill="#ff0"/>
<rect x="707" y="376" width="55" height="10" fill="#ff0"/>
<text x="20" y="405" class="sm">6.223e-06</text>
<rect x="100" y="395" width="108" height="12" fill="#00f"/>
<rect x="254" y="395" width="538" height="12" fill="#00f"/>
<line x1="208" y1="401" x2="253" y2="401" stroke="#00f"/>
<rect x="416" y="396" width="323" height="10" fill="#ff0"/>
<text x="20" y="425" class="sm">3.727e-06</text>
<rect x="100" y="415" width="368" height="12" fill="#00f"/>
<rect x="522" y="415" width="270" height="12" fill="#00f"/>
<line x1="468" y1="421" x2="521" y2="421" stroke="#00f"/>
<rect x="416" y="416" width="52" height="10" fill="#ff0"/>
<rect x="523" y="416" width="216" height="10" fill="#ff0"/>
<text x="20" y="445" class="sm">2.83e-06</text>
<rect x="100" y="435" width="228" height="12" fill="#00f"/>
<rect x="492" y="435" width="300" height="12" fill="#00f"/>
<line x1="328" y1="441" x2="491" y2="441" stroke="#00f"/>
<rect x="187" y="436" width="141" height="10" fill="#ff0"/>
<rect x="493" y="436" width="79" height="10" fill="#ff0"/>
<text x="20" y="465" class="sm">2.454e-06</text>
<rect x="100" y="455" width="589" height="12" fill="#00f"/>
<rect x="740" y="455" width="52" height="12" fill="#00f"/>
<line x1="689" y1="461" x2="739" y2="461" stroke="#00f"/>
<rect x="416" y="456" width="273" height="10" fill="#ff0"/>
<rect x="741" y="456" width="37" height="10" fill="#ff0"/>
<text x="20" y="485" class="sm">1.536e-06</text>
<rect x="100" y="475" width="57" height="12" fill="#00f"/>
<rect x="206" y="475" width="586" height="12" fill="#00f"/>
<line x1="157" y1="481" x2="205" y2="481" stroke="#00f"/>
<rect x="416" y="476" width="323" height="10" fill="#ff0"/>
<text x="20" y="505" class="sm">1.426e-06</text>
<rect x="100" y="495" width="198" height="12" fill="#00f"/>
<rect x="349" y="495" width="443" height="12" fill="#00f"/>
<line x1="298" y1="501" x2="348" y2="501" stroke="#00f"/>
<rect x="416" y="496" width="323" height="10" fill="#ff0"/>
</svg>
