<svg viewBox="0 0 1010 595" xmlns="http://www.w3.org/2000/svg">

<style>
  .sm { font: 12px sans-serif; }
  .lg { font: 15px sans-serif; }
</style>
<rect fill="#ddd" x="0" y="0" width="100%" height="100%"/>
<text x="20" y="20" class="lg">ch.1158 I:6553381-6554390 Gene:WBGene00000896</text>
<text x="20" y="50" class="sm">WormBase</text>
<rect x="102" y="40" width="212" height="12" fill="#00f"/>
<rect x="648" y="40" width="264" height="12" fill="#00f"/>
<line x1="314" y1="46" x2="647" y2="46" stroke="#00f"/>
<rect x="104" y="41" width="210" height="10" fill="#ff0"/>
<rect x="649" y="41" width="130" height="10" fill="#ff0"/>
<rect x="103" y="41" width="0" height="10" fill="brown"><title>.</title></rect>
<rect x="780" y="41" width="132" height="10" fill="brown"><title>.</title></rect>
<text x="20" y="70" class="sm">Fitness: 0.0016649108456818077</text>
<rect x="314" y="65" width="334" height="5" fill="#00f"><title>1894270.0</title></rect>
<rect x="314" y="70" width="344" height="5" fill="#00f"><title>7463.0</title></rect>
<rect x="314" y="75" width="194" height="5" fill="#00f"><title>809.0</title></rect>
<rect x="604" y="80" width="44" height="5" fill="#00f"><title>678.0</title></rect>
<rect x="300" y="85" width="348" height="5" fill="#00f"><title>529.0</title></rect>
<rect x="409" y="90" width="331" height="5" fill="#f0f"><title>71.0</title></rect>
<rect x="782" y="95" width="183" height="5" fill="#f0f"><title>61.0</title></rect>
<rect x="314" y="100" width="301" height="5" fill="#00f"><title>51.0</title></rect>
<rect x="314" y="105" width="614" height="5" fill="#00f"><title>34.0</title></rect>
<rect x="300" y="110" width="358" height="5" fill="#00f"><title>22.0</title></rect>
<rect x="740" y="115" width="113" height="5" fill="#f0f"><title>20.0</title></rect>
<rect x="780" y="120" width="185" height="5" fill="#f0f"><title>7.0</title></rect>
<rect x="314" y="125" width="394" height="5" fill="#00f"><title>5.0</title></rect>
<rect x="604" y="130" width="54" height="5" fill="#00f"><title>4.0</title></rect>
<rect x="278" y="135" width="380" height="5" fill="#00f"><title>4.0</title></rect>
<rect x="190" y="140" width="76" height="5" fill="#f0f"><title>4.0</title></rect>
<rect x="385" y="145" width="263" height="5" fill="#00f"><title>3.0</title></rect>
<rect x="314" y="150" width="62" height="5" fill="#00f"><title>3.0</title></rect>
<rect x="3" y="155" width="99" height="5" fill="#00f"><title>3.0</title></rect>
<text x="20" y="185" class="sm">0.995</text>
<rect x="100" y="175" width="214" height="12" fill="#00f"/>
<rect x="648" y="175" width="265" height="12" fill="#00f"/>
<line x1="314" y1="181" x2="647" y2="181" stroke="#00f"/>
<rect x="104" y="176" width="210" height="10" fill="#ff0"/>
<rect x="649" y="176" width="130" height="10" fill="#ff0"/>
<text x="20" y="205" class="sm">0.004177</text>
<rect x="100" y="195" width="214" height="12" fill="#00f"/>
<rect x="658" y="195" width="255" height="12" fill="#00f"/>
<line x1="314" y1="201" x2="657" y2="201" stroke="#00f"/>
<rect x="104" y="196" width="210" height="10" fill="#ff0"/>
<rect x="659" y="196" width="1" height="10" fill="#ff0"/>
<text x="20" y="225" class="sm">0.0004532</text>
<rect x="100" y="215" width="200" height="12" fill="#00f"/>
<rect x="648" y="215" width="265" height="12" fill="#00f"/>
<line x1="300" y1="221" x2="647" y2="221" stroke="#00f"/>
<rect x="104" y="216" width="196" height="10" fill="#ff0"/>
<rect x="649" y="216" width="75" height="10" fill="#ff0"/>
<text x="20" y="245" class="sm">0.0001549</text>
<rect x="100" y="235" width="204" height="12" fill="#00f"/>
<rect x="648" y="235" width="265" height="12" fill="#00f"/>
<line x1="304" y1="241" x2="647" y2="241" stroke="#00f"/>
<rect x="104" y="236" width="200" height="10" fill="#ff0"/>
<rect x="649" y="236" width="20" height="10" fill="#ff0"/>
<text x="20" y="265" class="sm">8.299e-05</text>
<rect x="100" y="255" width="38" height="12" fill="#00f"/>
<rect x="648" y="255" width="265" height="12" fill="#00f"/>
<line x1="138" y1="261" x2="647" y2="261" stroke="#00f"/>
<rect x="660" y="256" width="119" height="10" fill="#ff0"/>
<text x="20" y="285" class="sm">6.018e-05</text>
<rect x="100" y="275" width="221" height="12" fill="#00f"/>
<rect x="648" y="275" width="265" height="12" fill="#00f"/>
<line x1="321" y1="281" x2="647" y2="281" stroke="#00f"/>
<rect x="104" y="276" width="217" height="10" fill="#ff0"/>
<rect x="649" y="276" width="75" height="10" fill="#ff0"/>
<text x="20" y="305" class="sm">4.954e-05</text>
<rect x="100" y="295" width="218" height="12" fill="#00f"/>
<rect x="648" y="295" width="265" height="12" fill="#00f"/>
<line x1="318" y1="301" x2="647" y2="301" stroke="#00f"/>
<rect x="104" y="296" width="214" height="10" fill="#ff0"/>
<rect x="649" y="296" width="75" height="10" fill="#ff0"/>
<text x="20" y="325" class="sm">1.271e-05</text>
<rect x="100" y="315" width="214" height="12" fill="#00f"/>
<rect x="615" y="315" width="298" height="12" fill="#00f"/>
<line x1="314" y1="321" x2="614" y2="321" stroke="#00f"/>
<rect x="104" y="316" width="210" height="10" fill="#ff0"/>
<rect x="616" y="316" width="19" height="10" fill="#ff0"/>
<text x="20" y="345" class="sm">9.192e-06</text>
<rect x="100" y="335" width="107" height="12" fill="#00f"/>
<rect x="648" y="335" width="265" height="12" fill="#00f"/>
<line x1="207" y1="341" x2="647" y2="341" stroke="#00f"/>
<rect x="104" y="336" width="103" height="10" fill="#ff0"/>
<rect x="649" y="336" width="75" height="10" fill="#ff0"/>
<text x="20" y="365" class="sm">5.222e-06</text>
<rect x="100" y="355" width="148" height="12" fill="#00f"/>
<rect x="648" y="355" width="265" height="12" fill="#00f"/>
<line x1="248" y1="361" x2="647" y2="361" stroke="#00f"/>
<rect x="104" y="356" width="144" height="10" fill="#ff0"/>
<rect x="649" y="356" width="130" height="10" fill="#ff0"/>
<text x="20" y="385" class="sm">2.679e-06</text>
<rect x="100" y="375" width="178" height="12" fill="#00f"/>
<rect x="648" y="375" width="265" height="12" fill="#00f"/>
<line x1="278" y1="381" x2="647" y2="381" stroke="#00f"/>
<rect x="104" y="376" width="174" height="10" fill="#ff0"/>
<rect x="649" y="376" width="130" height="10" fill="#ff0"/>
<text x="20" y="405" class="sm">2.04e-06</text>
<rect x="100" y="395" width="200" height="12" fill="#00f"/>
<rect x="658" y="395" width="255" height="12" fill="#00f"/>
<line x1="300" y1="401" x2="657" y2="401" stroke="#00f"/>
<rect x="104" y="396" width="196" height="10" fill="#ff0"/>
<rect x="659" y="396" width="120" height="10" fill="#ff0"/>
<text x="20" y="425" class="sm">1.773e-06</text>
<rect x="100" y="415" width="214" height="12" fill="#00f"/>
<rect x="376" y="415" width="27" height="12" fill="#00f"/>
<rect x="648" y="415" width="265" height="12" fill="#00f"/>
<line x1="314" y1="421" x2="375" y2="421" stroke="#00f"/>
<line x1="403" y1="421" x2="647" y2="421" stroke="#00f"/>
<rect x="104" y="416" width="210" height="10" fill="#ff0"/>
<rect x="377" y="416" width="13" height="10" fill="#ff0"/>
<text x="20" y="445" class="sm">1.319e-06</text>
<rect x="100" y="435" width="144" height="12" fill="#00f"/>
<rect x="648" y="435" width="265" height="12" fill="#00f"/>
<line x1="244" y1="441" x2="647" y2="441" stroke="#00f"/>
<rect x="104" y="436" width="140" height="10" fill="#ff0"/>
<rect x="649" y="436" width="20" height="10" fill="#ff0"/>
<text x="20" y="465" class="sm">9.886e-07</text>
<rect x="100" y="455" width="214" height="12" fill="#00f"/>
<rect x="696" y="455" width="217" height="12" fill="#00f"/>
<line x1="314" y1="461" x2="695" y2="461" stroke="#00f"/>
<rect x="104" y="456" width="210" height="10" fill="#ff0"/>
<rect x="697" y="456" width="82" height="10" fill="#ff0"/>
<text x="20" y="485" class="sm">8.617e-07</text>
<rect x="100" y="475" width="192" height="12" fill="#00f"/>
<rect x="648" y="475" width="265" height="12" fill="#00f"/>
<line x1="292" y1="481" x2="647" y2="481" stroke="#00f"/>
<rect x="104" y="476" width="188" height="10" fill="#ff0"/>
<rect x="649" y="476" width="20" height="10" fill="#ff0"/>
<text x="20" y="505" class="sm">7.063e-07</text>
<rect x="100" y="495" width="204" height="12" fill="#00f"/>
<rect x="658" y="495" width="255" height="12" fill="#00f"/>
<line x1="304" y1="501" x2="657" y2="501" stroke="#00f"/>
<rect x="104" y="496" width="200" height="10" fill="#ff0"/>
<rect x="659" y="496" width="65" height="10" fill="#ff0"/>
<text x="20" y="525" class="sm">5.743e-07</text>
<rect x="100" y="515" width="214" height="12" fill="#00f"/>
<rect x="675" y="515" width="238" height="12" fill="#00f"/>
<line x1="314" y1="521" x2="674" y2="521" stroke="#00f"/>
<rect x="104" y="516" width="210" height="10" fill="#ff0"/>
<rect x="676" y="516" width="1" height="10" fill="#ff0"/>
<text x="20" y="545" class="sm">4.62e-07</text>
<rect x="100" y="535" width="214" height="12" fill="#00f"/>
<rect x="376" y="535" width="81" height="12" fill="#00f"/>
<rect x="648" y="535" width="265" height="12" fill="#00f"/>
<line x1="314" y1="541" x2="375" y2="541" stroke="#00f"/>
<line x1="457" y1="541" x2="647" y2="541" stroke="#00f"/>
<rect x="104" y="536" width="210" height="10" fill="#ff0"/>
<rect x="377" y="536" width="13" height="10" fill="#ff0"/>
<text x="20" y="565" class="sm">3.666e-07</text>
<rect x="100" y="555" width="38" height="12" fill="#00f"/>
<rect x="658" y="555" width="255" height="12" fill="#00f"/>
<line x1="138" y1="561" x2="657" y2="561" stroke="#00f"/>
<rect x="104" y="556" width="34" height="10" fill="#ff0"/>
<rect x="659" y="556" width="120" height="10" fill="#ff0"/>
</svg>
