<svg viewBox="0 0 1047 540" xmlns="http://www.w3.org/2000/svg">

<style>
  .sm { font: 12px sans-serif; }
  .lg { font: 15px sans-serif; }
</style>
<rect fill="#ddd" x="0" y="0" width="100%" height="100%"/>
<text x="20" y="20" class="lg">ch.13352 V:3812491-3813537 Gene:WBGene00019178</text>
<text x="20" y="50" class="sm">WormBase</text>
<rect x="100" y="40" width="179" height="12" fill="#00f"/>
<rect x="329" y="40" width="135" height="12" fill="#00f"/>
<rect x="509" y="40" width="218" height="12" fill="#00f"/>
<rect x="773" y="40" width="174" height="12" fill="#00f"/>
<line x1="279" y1="46" x2="328" y2="46" stroke="#00f"/>
<line x1="464" y1="46" x2="508" y2="46" stroke="#00f"/>
<line x1="727" y1="46" x2="772" y2="46" stroke="#00f"/>
<rect x="106" y="41" width="173" height="10" fill="#ff0"/>
<rect x="330" y="41" width="134" height="10" fill="#ff0"/>
<rect x="510" y="41" width="217" height="10" fill="#ff0"/>
<rect x="774" y="41" width="99" height="10" fill="#ff0"/>
<rect x="101" y="41" width="4" height="10" fill="brown"><title>.</title></rect>
<rect x="874" y="41" width="73" height="10" fill="brown"><title>.</title></rect>
<text x="20" y="70" class="sm">Fitness: 0.22693097225123865</text>
<rect x="279" y="65" width="50" height="5" fill="#00f"><title>255362.0</title></rect>
<rect x="464" y="70" width="45" height="5" fill="#00f"><title>218054.0</title></rect>
<rect x="727" y="75" width="46" height="5" fill="#00f"><title>133344.0</title></rect>
<rect x="715" y="80" width="58" height="5" fill="#00f"><title>82.0</title></rect>
<rect x="279" y="85" width="38" height="5" fill="#00f"><title>51.0</title></rect>
<rect x="433" y="90" width="151" height="5" fill="#f0f"><title>18.0</title></rect>
<rect x="707" y="95" width="66" height="5" fill="#00f"><title>14.0</title></rect>
<rect x="372" y="100" width="196" height="5" fill="#00f"><title>3.0</title></rect>
<text x="20" y="130" class="sm">0.9994</text>
<rect x="100" y="120" width="179" height="12" fill="#00f"/>
<rect x="329" y="120" width="135" height="12" fill="#00f"/>
<rect x="509" y="120" width="218" height="12" fill="#00f"/>
<rect x="773" y="120" width="177" height="12" fill="#00f"/>
<line x1="279" y1="126" x2="328" y2="126" stroke="#00f"/>
<line x1="464" y1="126" x2="508" y2="126" stroke="#00f"/>
<line x1="727" y1="126" x2="772" y2="126" stroke="#00f"/>
<rect x="106" y="121" width="173" height="10" fill="#ff0"/>
<rect x="330" y="121" width="134" height="10" fill="#ff0"/>
<rect x="510" y="121" width="217" height="10" fill="#ff0"/>
<rect x="774" y="121" width="99" height="10" fill="#ff0"/>
<text x="20" y="150" class="sm">0.0005233</text>
<rect x="100" y="140" width="179" height="12" fill="#00f"/>
<rect x="329" y="140" width="135" height="12" fill="#00f"/>
<rect x="509" y="140" width="206" height="12" fill="#00f"/>
<rect x="773" y="140" width="177" height="12" fill="#00f"/>
<line x1="279" y1="146" x2="328" y2="146" stroke="#00f"/>
<line x1="464" y1="146" x2="508" y2="146" stroke="#00f"/>
<line x1="715" y1="146" x2="772" y2="146" stroke="#00f"/>
<rect x="106" y="141" width="173" height="10" fill="#ff0"/>
<rect x="330" y="141" width="134" height="10" fill="#ff0"/>
<rect x="510" y="141" width="205" height="10" fill="#ff0"/>
<rect x="774" y="141" width="99" height="10" fill="#ff0"/>
<text x="20" y="170" class="sm">9.907e-05</text>
<rect x="100" y="160" width="179" height="12" fill="#00f"/>
<rect x="329" y="160" width="135" height="12" fill="#00f"/>
<rect x="509" y="160" width="198" height="12" fill="#00f"/>
<rect x="773" y="160" width="177" height="12" fill="#00f"/>
<line x1="279" y1="166" x2="328" y2="166" stroke="#00f"/>
<line x1="464" y1="166" x2="508" y2="166" stroke="#00f"/>
<line x1="707" y1="166" x2="772" y2="166" stroke="#00f"/>
<rect x="233" y="161" width="46" height="10" fill="#ff0"/>
<rect x="330" y="161" width="134" height="10" fill="#ff0"/>
<rect x="510" y="161" width="174" height="10" fill="#ff0"/>
<text x="20" y="190" class="sm">2.684e-06</text>
<rect x="100" y="180" width="179" height="12" fill="#00f"/>
<rect x="317" y="180" width="147" height="12" fill="#00f"/>
<rect x="509" y="180" width="218" height="12" fill="#00f"/>
<rect x="773" y="180" width="177" height="12" fill="#00f"/>
<line x1="279" y1="186" x2="316" y2="186" stroke="#00f"/>
<line x1="464" y1="186" x2="508" y2="186" stroke="#00f"/>
<line x1="727" y1="186" x2="772" y2="186" stroke="#00f"/>
<rect x="106" y="181" width="173" height="10" fill="#ff0"/>
<rect x="318" y="181" width="146" height="10" fill="#ff0"/>
<rect x="510" y="181" width="217" height="10" fill="#ff0"/>
<rect x="774" y="181" width="99" height="10" fill="#ff0"/>
<text x="20" y="210" class="sm">5.848e-08</text>
<rect x="100" y="200" width="179" height="12" fill="#00f"/>
<rect x="329" y="200" width="135" height="12" fill="#00f"/>
<rect x="509" y="200" width="222" height="12" fill="#00f"/>
<rect x="773" y="200" width="177" height="12" fill="#00f"/>
<line x1="279" y1="206" x2="328" y2="206" stroke="#00f"/>
<line x1="464" y1="206" x2="508" y2="206" stroke="#00f"/>
<line x1="731" y1="206" x2="772" y2="206" stroke="#00f"/>
<rect x="233" y="201" width="46" height="10" fill="#ff0"/>
<rect x="330" y="201" width="134" height="10" fill="#ff0"/>
<rect x="510" y="201" width="174" height="10" fill="#ff0"/>
<text x="20" y="230" class="sm">1.885e-08</text>
<rect x="100" y="220" width="179" height="12" fill="#00f"/>
<rect x="329" y="220" width="135" height="12" fill="#00f"/>
<rect x="509" y="220" width="195" height="12" fill="#00f"/>
<rect x="773" y="220" width="177" height="12" fill="#00f"/>
<line x1="279" y1="226" x2="328" y2="226" stroke="#00f"/>
<line x1="464" y1="226" x2="508" y2="226" stroke="#00f"/>
<line x1="704" y1="226" x2="772" y2="226" stroke="#00f"/>
<rect x="233" y="221" width="46" height="10" fill="#ff0"/>
<rect x="330" y="221" width="134" height="10" fill="#ff0"/>
<rect x="510" y="221" width="174" height="10" fill="#ff0"/>
<text x="20" y="250" class="sm">1.235e-08</text>
<rect x="100" y="240" width="179" height="12" fill="#00f"/>
<rect x="329" y="240" width="135" height="12" fill="#00f"/>
<rect x="509" y="240" width="182" height="12" fill="#00f"/>
<rect x="773" y="240" width="177" height="12" fill="#00f"/>
<line x1="279" y1="246" x2="328" y2="246" stroke="#00f"/>
<line x1="464" y1="246" x2="508" y2="246" stroke="#00f"/>
<line x1="691" y1="246" x2="772" y2="246" stroke="#00f"/>
<rect x="106" y="241" width="173" height="10" fill="#ff0"/>
<rect x="330" y="241" width="134" height="10" fill="#ff0"/>
<rect x="510" y="241" width="181" height="10" fill="#ff0"/>
<rect x="774" y="241" width="99" height="10" fill="#ff0"/>
<text x="20" y="270" class="sm">1.125e-08</text>
<rect x="100" y="260" width="179" height="12" fill="#00f"/>
<rect x="329" y="260" width="135" height="12" fill="#00f"/>
<rect x="548" y="260" width="179" height="12" fill="#00f"/>
<rect x="773" y="260" width="177" height="12" fill="#00f"/>
<line x1="279" y1="266" x2="328" y2="266" stroke="#00f"/>
<line x1="464" y1="266" x2="547" y2="266" stroke="#00f"/>
<line x1="727" y1="266" x2="772" y2="266" stroke="#00f"/>
<rect x="106" y="261" width="173" height="10" fill="#ff0"/>
<rect x="330" y="261" width="134" height="10" fill="#ff0"/>
<rect x="549" y="261" width="178" height="10" fill="#ff0"/>
<rect x="774" y="261" width="99" height="10" fill="#ff0"/>
<text x="20" y="290" class="sm">8.517e-09</text>
<rect x="100" y="280" width="179" height="12" fill="#00f"/>
<rect x="329" y="280" width="141" height="12" fill="#00f"/>
<rect x="509" y="280" width="218" height="12" fill="#00f"/>
<rect x="773" y="280" width="177" height="12" fill="#00f"/>
<line x1="279" y1="286" x2="328" y2="286" stroke="#00f"/>
<line x1="470" y1="286" x2="508" y2="286" stroke="#00f"/>
<line x1="727" y1="286" x2="772" y2="286" stroke="#00f"/>
<rect x="106" y="281" width="173" height="10" fill="#ff0"/>
<rect x="330" y="281" width="140" height="10" fill="#ff0"/>
<rect x="510" y="281" width="217" height="10" fill="#ff0"/>
<rect x="774" y="281" width="99" height="10" fill="#ff0"/>
<text x="20" y="310" class="sm">4.118e-09</text>
<rect x="100" y="300" width="364" height="12" fill="#00f"/>
<rect x="509" y="300" width="113" height="12" fill="#00f"/>
<rect x="659" y="300" width="68" height="12" fill="#00f"/>
<rect x="773" y="300" width="177" height="12" fill="#00f"/>
<line x1="464" y1="306" x2="508" y2="306" stroke="#00f"/>
<line x1="622" y1="306" x2="658" y2="306" stroke="#00f"/>
<line x1="727" y1="306" x2="772" y2="306" stroke="#00f"/>
<rect x="681" y="301" width="46" height="10" fill="#ff0"/>
<rect x="774" y="301" width="99" height="10" fill="#ff0"/>
<text x="20" y="330" class="sm">1.405e-09</text>
<rect x="100" y="320" width="179" height="12" fill="#00f"/>
<rect x="317" y="320" width="147" height="12" fill="#00f"/>
<rect x="509" y="320" width="206" height="12" fill="#00f"/>
<rect x="773" y="320" width="177" height="12" fill="#00f"/>
<line x1="279" y1="326" x2="316" y2="326" stroke="#00f"/>
<line x1="464" y1="326" x2="508" y2="326" stroke="#00f"/>
<line x1="715" y1="326" x2="772" y2="326" stroke="#00f"/>
<rect x="106" y="321" width="173" height="10" fill="#ff0"/>
<rect x="318" y="321" width="146" height="10" fill="#ff0"/>
<rect x="510" y="321" width="205" height="10" fill="#ff0"/>
<rect x="774" y="321" width="99" height="10" fill="#ff0"/>
<text x="20" y="350" class="sm">1.023e-09</text>
<rect x="100" y="340" width="179" height="12" fill="#00f"/>
<rect x="329" y="340" width="135" height="12" fill="#00f"/>
<rect x="509" y="340" width="198" height="12" fill="#00f"/>
<rect x="751" y="340" width="199" height="12" fill="#00f"/>
<line x1="279" y1="346" x2="328" y2="346" stroke="#00f"/>
<line x1="464" y1="346" x2="508" y2="346" stroke="#00f"/>
<line x1="707" y1="346" x2="750" y2="346" stroke="#00f"/>
<rect x="106" y="341" width="173" height="10" fill="#ff0"/>
<rect x="330" y="341" width="134" height="10" fill="#ff0"/>
<rect x="510" y="341" width="197" height="10" fill="#ff0"/>
<rect x="752" y="341" width="14" height="10" fill="#ff0"/>
<text x="20" y="370" class="sm">2.661e-10</text>
<rect x="100" y="360" width="179" height="12" fill="#00f"/>
<rect x="317" y="360" width="147" height="12" fill="#00f"/>
<rect x="509" y="360" width="198" height="12" fill="#00f"/>
<rect x="773" y="360" width="177" height="12" fill="#00f"/>
<line x1="279" y1="366" x2="316" y2="366" stroke="#00f"/>
<line x1="464" y1="366" x2="508" y2="366" stroke="#00f"/>
<line x1="707" y1="366" x2="772" y2="366" stroke="#00f"/>
<rect x="233" y="361" width="46" height="10" fill="#ff0"/>
<rect x="318" y="361" width="146" height="10" fill="#ff0"/>
<rect x="510" y="361" width="174" height="10" fill="#ff0"/>
<text x="20" y="390" class="sm">6.562e-11</text>
<rect x="100" y="380" width="179" height="12" fill="#00f"/>
<rect x="329" y="380" width="121" height="12" fill="#00f"/>
<rect x="509" y="380" width="218" height="12" fill="#00f"/>
<rect x="773" y="380" width="177" height="12" fill="#00f"/>
<line x1="279" y1="386" x2="328" y2="386" stroke="#00f"/>
<line x1="450" y1="386" x2="508" y2="386" stroke="#00f"/>
<line x1="727" y1="386" x2="772" y2="386" stroke="#00f"/>
<rect x="233" y="381" width="46" height="10" fill="#ff0"/>
<rect x="330" y="381" width="120" height="10" fill="#ff0"/>
<rect x="510" y="381" width="217" height="10" fill="#ff0"/>
<rect x="774" y="381" width="99" height="10" fill="#ff0"/>
<text x="20" y="410" class="sm">4.722e-11</text>
<rect x="100" y="400" width="179" height="12" fill="#00f"/>
<rect x="329" y="400" width="135" height="12" fill="#00f"/>
<rect x="509" y="400" width="113" height="12" fill="#00f"/>
<rect x="773" y="400" width="177" height="12" fill="#00f"/>
<line x1="279" y1="406" x2="328" y2="406" stroke="#00f"/>
<line x1="464" y1="406" x2="508" y2="406" stroke="#00f"/>
<line x1="622" y1="406" x2="772" y2="406" stroke="#00f"/>
<rect x="106" y="401" width="173" height="10" fill="#ff0"/>
<rect x="330" y="401" width="134" height="10" fill="#ff0"/>
<rect x="510" y="401" width="112" height="10" fill="#ff0"/>
<rect x="774" y="401" width="99" height="10" fill="#ff0"/>
<text x="20" y="430" class="sm">1.592e-11</text>
<rect x="100" y="420" width="364" height="12" fill="#00f"/>
<rect x="509" y="420" width="218" height="12" fill="#00f"/>
<rect x="773" y="420" width="177" height="12" fill="#00f"/>
<line x1="464" y1="426" x2="508" y2="426" stroke="#00f"/>
<line x1="727" y1="426" x2="772" y2="426" stroke="#00f"/>
<rect x="106" y="421" width="358" height="10" fill="#ff0"/>
<rect x="510" y="421" width="174" height="10" fill="#ff0"/>
<text x="20" y="450" class="sm">1.113e-11</text>
<rect x="100" y="440" width="179" height="12" fill="#00f"/>
<rect x="329" y="440" width="135" height="12" fill="#00f"/>
<rect x="509" y="440" width="144" height="12" fill="#00f"/>
<rect x="773" y="440" width="177" height="12" fill="#00f"/>
<line x1="279" y1="446" x2="328" y2="446" stroke="#00f"/>
<line x1="464" y1="446" x2="508" y2="446" stroke="#00f"/>
<line x1="653" y1="446" x2="772" y2="446" stroke="#00f"/>
<rect x="233" y="441" width="46" height="10" fill="#ff0"/>
<rect x="330" y="441" width="134" height="10" fill="#ff0"/>
<rect x="510" y="441" width="143" height="10" fill="#ff0"/>
<rect x="774" y="441" width="99" height="10" fill="#ff0"/>
<text x="20" y="470" class="sm">8.579e-12</text>
<rect x="100" y="460" width="179" height="12" fill="#00f"/>
<rect x="384" y="460" width="80" height="12" fill="#00f"/>
<rect x="509" y="460" width="218" height="12" fill="#00f"/>
<rect x="773" y="460" width="177" height="12" fill="#00f"/>
<line x1="279" y1="466" x2="383" y2="466" stroke="#00f"/>
<line x1="464" y1="466" x2="508" y2="466" stroke="#00f"/>
<line x1="727" y1="466" x2="772" y2="466" stroke="#00f"/>
<rect x="106" y="461" width="173" height="10" fill="#ff0"/>
<rect x="385" y="461" width="79" height="10" fill="#ff0"/>
<rect x="510" y="461" width="174" height="10" fill="#ff0"/>
<text x="20" y="490" class="sm">6.387e-12</text>
<rect x="100" y="480" width="179" height="12" fill="#00f"/>
<rect x="329" y="480" width="135" height="12" fill="#00f"/>
<rect x="509" y="480" width="218" height="12" fill="#00f"/>
<rect x="804" y="480" width="146" height="12" fill="#00f"/>
<line x1="279" y1="486" x2="328" y2="486" stroke="#00f"/>
<line x1="464" y1="486" x2="508" y2="486" stroke="#00f"/>
<line x1="727" y1="486" x2="803" y2="486" stroke="#00f"/>
<rect x="106" y="481" width="173" height="10" fill="#ff0"/>
<rect x="330" y="481" width="134" height="10" fill="#ff0"/>
<rect x="510" y="481" width="217" height="10" fill="#ff0"/>
<rect x="805" y="481" width="99" height="10" fill="#ff0"/>
<text x="20" y="510" class="sm">5.465e-12</text>
<rect x="100" y="500" width="179" height="12" fill="#00f"/>
<rect x="329" y="500" width="135" height="12" fill="#00f"/>
<rect x="548" y="500" width="167" height="12" fill="#00f"/>
<rect x="773" y="500" width="177" height="12" fill="#00f"/>
<line x1="279" y1="506" x2="328" y2="506" stroke="#00f"/>
<line x1="464" y1="506" x2="547" y2="506" stroke="#00f"/>
<line x1="715" y1="506" x2="772" y2="506" stroke="#00f"/>
<rect x="106" y="501" width="173" height="10" fill="#ff0"/>
<rect x="330" y="501" width="134" height="10" fill="#ff0"/>
<rect x="549" y="501" width="166" height="10" fill="#ff0"/>
<rect x="774" y="501" width="99" height="10" fill="#ff0"/>
</svg>
