<svg viewBox="0 0 1001 560" xmlns="http://www.w3.org/2000/svg">

<style>
  .sm { font: 12px sans-serif; }
  .lg { font: 15px sans-serif; }
</style>
<rect fill="#ddd" x="0" y="0" width="100%" height="100%"/>
<text x="20" y="20" class="lg">ch.10010 IV:5090143-5091143 Gene:WBGene00015327</text>
<text x="20" y="50" class="sm">WormBase</text>
<rect x="102" y="40" width="163" height="12" fill="#00f"/>
<rect x="307" y="40" width="99" height="12" fill="#00f"/>
<rect x="451" y="40" width="452" height="12" fill="#00f"/>
<line x1="265" y1="46" x2="306" y2="46" stroke="#00f"/>
<line x1="406" y1="46" x2="450" y2="46" stroke="#00f"/>
<rect x="113" y="41" width="152" height="10" fill="#ff0"/>
<rect x="308" y="41" width="98" height="10" fill="#ff0"/>
<rect x="452" y="41" width="116" height="10" fill="#ff0"/>
<rect x="103" y="41" width="9" height="10" fill="brown"><title>.</title></rect>
<rect x="569" y="41" width="334" height="10" fill="brown"><title>.</title></rect>
<text x="20" y="70" class="sm">Fitness: 0.047869104527769886</text>
<rect x="265" y="65" width="42" height="5" fill="#00f"><title>429519.0</title></rect>
<rect x="406" y="70" width="45" height="5" fill="#00f"><title>311984.0</title></rect>
<rect x="406" y="75" width="36" height="5" fill="#00f"><title>845.0</title></rect>
<rect x="54" y="80" width="48" height="5" fill="#f0f"><title>72.0</title></rect>
<rect x="608" y="85" width="82" height="5" fill="#f0f"><title>59.0</title></rect>
<rect x="388" y="90" width="54" height="5" fill="#00f"><title>53.0</title></rect>
<rect x="265" y="95" width="52" height="5" fill="#00f"><title>50.0</title></rect>
<rect x="388" y="100" width="63" height="5" fill="#00f"><title>49.0</title></rect>
<rect x="58" y="105" width="44" height="5" fill="#f0f"><title>12.0</title></rect>
<rect x="608" y="110" width="45" height="5" fill="#f0f"><title>4.0</title></rect>
<rect x="224" y="115" width="86" height="5" fill="#f0f"><title>4.0</title></rect>
<rect x="63" y="120" width="39" height="5" fill="#f0f"><title>3.0</title></rect>
<text x="20" y="150" class="sm">0.5559</text>
<rect x="100" y="140" width="165" height="12" fill="#00f"/>
<rect x="307" y="140" width="597" height="12" fill="#00f"/>
<line x1="265" y1="146" x2="306" y2="146" stroke="#00f"/>
<rect x="110" y="141" width="155" height="10" fill="#ff0"/>
<rect x="308" y="141" width="134" height="10" fill="#ff0"/>
<text x="20" y="170" class="sm">0.4203</text>
<rect x="100" y="160" width="306" height="12" fill="#00f"/>
<rect x="451" y="160" width="453" height="12" fill="#00f"/>
<line x1="406" y1="166" x2="450" y2="166" stroke="#00f"/>
<rect x="110" y="161" width="185" height="10" fill="#ff0"/>
<text x="20" y="190" class="sm">0.01235</text>
<rect x="100" y="180" width="288" height="12" fill="#00f"/>
<rect x="442" y="180" width="462" height="12" fill="#00f"/>
<line x1="388" y1="186" x2="441" y2="186" stroke="#00f"/>
<rect x="372" y="181" width="16" height="10" fill="#ff0"/>
<rect x="443" y="181" width="234" height="10" fill="#ff0"/>
<text x="20" y="210" class="sm">0.004681</text>
<rect x="100" y="200" width="148" height="12" fill="#00f"/>
<rect x="307" y="200" width="597" height="12" fill="#00f"/>
<line x1="248" y1="206" x2="306" y2="206" stroke="#00f"/>
<rect x="110" y="201" width="138" height="10" fill="#ff0"/>
<rect x="308" y="201" width="67" height="10" fill="#ff0"/>
<text x="20" y="230" class="sm">0.003578</text>
<rect x="100" y="220" width="122" height="12" fill="#00f"/>
<rect x="307" y="220" width="597" height="12" fill="#00f"/>
<line x1="222" y1="226" x2="306" y2="226" stroke="#00f"/>
<rect x="110" y="221" width="112" height="10" fill="#ff0"/>
<rect x="308" y="221" width="15" height="10" fill="#ff0"/>
<text x="20" y="250" class="sm">0.0008368</text>
<rect x="100" y="240" width="119" height="12" fill="#00f"/>
<rect x="307" y="240" width="597" height="12" fill="#00f"/>
<line x1="219" y1="246" x2="306" y2="246" stroke="#00f"/>
<rect x="110" y="241" width="109" height="10" fill="#ff0"/>
<rect x="308" y="241" width="15" height="10" fill="#ff0"/>
<text x="20" y="270" class="sm">0.0006629</text>
<rect x="100" y="260" width="288" height="12" fill="#00f"/>
<rect x="451" y="260" width="453" height="12" fill="#00f"/>
<line x1="388" y1="266" x2="450" y2="266" stroke="#00f"/>
<rect x="372" y="261" width="16" height="10" fill="#ff0"/>
<rect x="452" y="261" width="225" height="10" fill="#ff0"/>
<text x="20" y="290" class="sm">0.0002998</text>
<rect x="100" y="280" width="258" height="12" fill="#00f"/>
<rect x="442" y="280" width="462" height="12" fill="#00f"/>
<line x1="358" y1="286" x2="441" y2="286" stroke="#00f"/>
<rect x="110" y="281" width="185" height="10" fill="#ff0"/>
<text x="20" y="310" class="sm">0.0002944</text>
<rect x="100" y="300" width="258" height="12" fill="#00f"/>
<rect x="451" y="300" width="453" height="12" fill="#00f"/>
<line x1="358" y1="306" x2="450" y2="306" stroke="#00f"/>
<rect x="110" y="301" width="185" height="10" fill="#ff0"/>
<text x="20" y="330" class="sm">0.0002128</text>
<rect x="100" y="320" width="165" height="12" fill="#00f"/>
<rect x="317" y="320" width="587" height="12" fill="#00f"/>
<line x1="265" y1="326" x2="316" y2="326" stroke="#00f"/>
<rect x="110" y="321" width="155" height="10" fill="#ff0"/>
<rect x="318" y="321" width="5" height="10" fill="#ff0"/>
<text x="20" y="350" class="sm">0.0001351</text>
<rect x="100" y="340" width="240" height="12" fill="#00f"/>
<rect x="451" y="340" width="453" height="12" fill="#00f"/>
<line x1="340" y1="346" x2="450" y2="346" stroke="#00f"/>
<rect x="110" y="341" width="185" height="10" fill="#ff0"/>
<text x="20" y="370" class="sm">0.0001283</text>
<rect x="100" y="360" width="341" height="12" fill="#00f"/>
<rect x="490" y="360" width="414" height="12" fill="#00f"/>
<line x1="441" y1="366" x2="489" y2="366" stroke="#00f"/>
<rect x="110" y="361" width="185" height="10" fill="#ff0"/>
<text x="20" y="390" class="sm">0.0001138</text>
<rect x="100" y="380" width="122" height="12" fill="#00f"/>
<rect x="451" y="380" width="453" height="12" fill="#00f"/>
<line x1="222" y1="386" x2="450" y2="386" stroke="#00f"/>
<rect x="110" y="381" width="112" height="10" fill="#ff0"/>
<rect x="452" y="381" width="225" height="10" fill="#ff0"/>
<text x="20" y="410" class="sm">0.0001024</text>
<rect x="100" y="400" width="122" height="12" fill="#00f"/>
<rect x="442" y="400" width="462" height="12" fill="#00f"/>
<line x1="222" y1="406" x2="441" y2="406" stroke="#00f"/>
<rect x="110" y="401" width="112" height="10" fill="#ff0"/>
<rect x="443" y="401" width="234" height="10" fill="#ff0"/>
<text x="20" y="430" class="sm">9.476e-05</text>
<rect x="100" y="420" width="306" height="12" fill="#00f"/>
<rect x="442" y="420" width="462" height="12" fill="#00f"/>
<line x1="406" y1="426" x2="441" y2="426" stroke="#00f"/>
<rect x="110" y="421" width="185" height="10" fill="#ff0"/>
<text x="20" y="450" class="sm">8.23e-05</text>
<rect x="100" y="440" width="240" height="12" fill="#00f"/>
<rect x="442" y="440" width="462" height="12" fill="#00f"/>
<line x1="340" y1="446" x2="441" y2="446" stroke="#00f"/>
<rect x="110" y="441" width="185" height="10" fill="#ff0"/>
<text x="20" y="470" class="sm">7.568e-05</text>
<rect x="100" y="460" width="258" height="12" fill="#00f"/>
<rect x="406" y="460" width="498" height="12" fill="#00f"/>
<line x1="358" y1="466" x2="405" y2="466" stroke="#00f"/>
<rect x="110" y="461" width="185" height="10" fill="#ff0"/>
<text x="20" y="490" class="sm">6.828e-05</text>
<rect x="100" y="480" width="206" height="12" fill="#00f"/>
<rect x="451" y="480" width="453" height="12" fill="#00f"/>
<line x1="306" y1="486" x2="450" y2="486" stroke="#00f"/>
<rect x="110" y="481" width="185" height="10" fill="#ff0"/>
<text x="20" y="510" class="sm">6.011e-05</text>
<rect x="100" y="500" width="206" height="12" fill="#00f"/>
<rect x="442" y="500" width="462" height="12" fill="#00f"/>
<line x1="306" y1="506" x2="441" y2="506" stroke="#00f"/>
<rect x="110" y="501" width="185" height="10" fill="#ff0"/>
<text x="20" y="530" class="sm">4.972e-05</text>
<rect x="100" y="520" width="38" height="12" fill="#00f"/>
<rect x="307" y="520" width="597" height="12" fill="#00f"/>
<line x1="138" y1="526" x2="306" y2="526" stroke="#00f"/>
<rect x="585" y="521" width="92" height="10" fill="#ff0"/>
</svg>
