<svg viewBox="0 0 898 550" xmlns="http://www.w3.org/2000/svg">

<style>
  .sm { font: 12px sans-serif; }
  .lg { font: 15px sans-serif; }
</style>
<rect fill="#ddd" x="0" y="0" width="100%" height="100%"/>
<text x="20" y="20" class="lg">ch.12830 V:1805078-1805975 Gene:WBGene00002018</text>
<text x="20" y="50" class="sm">WormBase</text>
<rect x="100" y="40" width="231" height="12" fill="#00f"/>
<rect x="389" y="40" width="409" height="12" fill="#00f"/>
<line x1="331" y1="46" x2="388" y2="46" stroke="#00f"/>
<rect x="194" y="41" width="137" height="10" fill="#ff0"/>
<rect x="390" y="41" width="293" height="10" fill="#ff0"/>
<rect x="101" y="41" width="92" height="10" fill="brown"><title>.</title></rect>
<rect x="684" y="41" width="114" height="10" fill="brown"><title>.</title></rect>
<text x="20" y="70" class="sm">Fitness: 0.00014111484880399724</text>
<rect x="331" y="65" width="58" height="5" fill="#00f"><title>1683760.0</title></rect>
<rect x="335" y="70" width="54" height="5" fill="#00f"><title>14591.0</title></rect>
<rect x="331" y="75" width="79" height="5" fill="#00f"><title>37.0</title></rect>
<rect x="201" y="80" width="422" height="5" fill="#00f"><title>32.0</title></rect>
<rect x="331" y="85" width="137" height="5" fill="#00f"><title>17.0</title></rect>
<rect x="331" y="90" width="233" height="5" fill="#00f"><title>16.0</title></rect>
<rect x="331" y="95" width="116" height="5" fill="#00f"><title>9.0</title></rect>
<rect x="267" y="100" width="29" height="5" fill="#00f"><title>6.0</title></rect>
<rect x="452" y="105" width="124" height="5" fill="#f0f"><title>5.0</title></rect>
<rect x="331" y="110" width="127" height="5" fill="#00f"><title>3.0</title></rect>
<text x="20" y="140" class="sm">0.9914</text>
<rect x="100" y="130" width="231" height="12" fill="#00f"/>
<rect x="389" y="130" width="412" height="12" fill="#00f"/>
<line x1="331" y1="136" x2="388" y2="136" stroke="#00f"/>
<rect x="194" y="131" width="137" height="10" fill="#ff0"/>
<rect x="390" y="131" width="293" height="10" fill="#ff0"/>
<text x="20" y="160" class="sm">0.008624</text>
<rect x="100" y="150" width="235" height="12" fill="#00f"/>
<rect x="389" y="150" width="412" height="12" fill="#00f"/>
<line x1="335" y1="156" x2="388" y2="156" stroke="#00f"/>
<rect x="565" y="151" width="170" height="10" fill="#ff0"/>
<text x="20" y="180" class="sm">7.63e-06</text>
<rect x="100" y="170" width="292" height="12" fill="#00f"/>
<rect x="458" y="170" width="343" height="12" fill="#00f"/>
<line x1="392" y1="176" x2="457" y2="176" stroke="#00f"/>
<rect x="194" y="171" width="198" height="10" fill="#ff0"/>
<rect x="459" y="171" width="4" height="10" fill="#ff0"/>
<text x="20" y="200" class="sm">2.529e-06</text>
<rect x="100" y="190" width="292" height="12" fill="#00f"/>
<rect x="468" y="190" width="333" height="12" fill="#00f"/>
<line x1="392" y1="196" x2="467" y2="196" stroke="#00f"/>
<rect x="194" y="191" width="198" height="10" fill="#ff0"/>
<rect x="469" y="191" width="214" height="10" fill="#ff0"/>
<text x="20" y="220" class="sm">1.451e-06</text>
<rect x="100" y="210" width="176" height="12" fill="#00f"/>
<rect x="340" y="210" width="461" height="12" fill="#00f"/>
<line x1="276" y1="216" x2="339" y2="216" stroke="#00f"/>
<rect x="194" y="211" width="82" height="10" fill="#ff0"/>
<rect x="341" y="211" width="342" height="10" fill="#ff0"/>
<text x="20" y="240" class="sm">8.12e-07</text>
<rect x="100" y="230" width="309" height="12" fill="#00f"/>
<rect x="447" y="230" width="354" height="12" fill="#00f"/>
<line x1="409" y1="236" x2="446" y2="236" stroke="#00f"/>
<rect x="397" y="231" width="12" height="10" fill="#ff0"/>
<rect x="448" y="231" width="235" height="10" fill="#ff0"/>
<text x="20" y="260" class="sm">6.539e-07</text>
<rect x="100" y="250" width="292" height="12" fill="#00f"/>
<rect x="447" y="250" width="354" height="12" fill="#00f"/>
<line x1="392" y1="256" x2="446" y2="256" stroke="#00f"/>
<rect x="194" y="251" width="198" height="10" fill="#ff0"/>
<rect x="448" y="251" width="1" height="10" fill="#ff0"/>
<text x="20" y="280" class="sm">1.276e-07</text>
<rect x="100" y="270" width="309" height="12" fill="#00f"/>
<rect x="468" y="270" width="333" height="12" fill="#00f"/>
<line x1="409" y1="276" x2="467" y2="276" stroke="#00f"/>
<rect x="397" y="271" width="12" height="10" fill="#ff0"/>
<rect x="469" y="271" width="214" height="10" fill="#ff0"/>
<text x="20" y="300" class="sm">9.434e-08</text>
<rect x="100" y="290" width="231" height="12" fill="#00f"/>
<rect x="410" y="290" width="391" height="12" fill="#00f"/>
<line x1="331" y1="296" x2="409" y2="296" stroke="#00f"/>
<rect x="194" y="291" width="137" height="10" fill="#ff0"/>
<rect x="411" y="291" width="272" height="10" fill="#ff0"/>
<text x="20" y="320" class="sm">7.965e-08</text>
<rect x="100" y="310" width="309" height="12" fill="#00f"/>
<rect x="458" y="310" width="343" height="12" fill="#00f"/>
<line x1="409" y1="316" x2="457" y2="316" stroke="#00f"/>
<rect x="194" y="311" width="206" height="10" fill="#ff0"/>
<text x="20" y="340" class="sm">4.512e-08</text>
<rect x="100" y="330" width="316" height="12" fill="#00f"/>
<rect x="458" y="330" width="343" height="12" fill="#00f"/>
<line x1="416" y1="336" x2="457" y2="336" stroke="#00f"/>
<rect x="194" y="331" width="206" height="10" fill="#ff0"/>
<text x="20" y="360" class="sm">3.655e-08</text>
<rect x="100" y="350" width="265" height="12" fill="#00f"/>
<rect x="410" y="350" width="391" height="12" fill="#00f"/>
<line x1="365" y1="356" x2="409" y2="356" stroke="#00f"/>
<rect x="194" y="351" width="171" height="10" fill="#ff0"/>
<rect x="411" y="351" width="46" height="10" fill="#ff0"/>
<text x="20" y="380" class="sm">2.138e-08</text>
<rect x="100" y="370" width="176" height="12" fill="#00f"/>
<rect x="336" y="370" width="465" height="12" fill="#00f"/>
<line x1="276" y1="376" x2="335" y2="376" stroke="#00f"/>
<rect x="228" y="371" width="48" height="10" fill="#ff0"/>
<rect x="337" y="371" width="346" height="10" fill="#ff0"/>
<text x="20" y="400" class="sm">1.998e-08</text>
<rect x="100" y="390" width="631" height="12" fill="#00f"/>
<rect x="769" y="390" width="32" height="12" fill="#00f"/>
<line x1="731" y1="396" x2="768" y2="396" stroke="#00f"/>
<rect x="194" y="391" width="206" height="10" fill="#ff0"/>
<text x="20" y="420" class="sm">1.871e-08</text>
<rect x="100" y="410" width="275" height="12" fill="#00f"/>
<rect x="410" y="410" width="391" height="12" fill="#00f"/>
<line x1="375" y1="416" x2="409" y2="416" stroke="#00f"/>
<rect x="194" y="411" width="181" height="10" fill="#ff0"/>
<rect x="411" y="411" width="57" height="10" fill="#ff0"/>
<text x="20" y="440" class="sm">1.354e-08</text>
<rect x="100" y="430" width="273" height="12" fill="#00f"/>
<rect x="410" y="430" width="391" height="12" fill="#00f"/>
<line x1="373" y1="436" x2="409" y2="436" stroke="#00f"/>
<rect x="194" y="431" width="179" height="10" fill="#ff0"/>
<rect x="411" y="431" width="272" height="10" fill="#ff0"/>
<text x="20" y="460" class="sm">7.495e-09</text>
<rect x="100" y="450" width="316" height="12" fill="#00f"/>
<rect x="468" y="450" width="333" height="12" fill="#00f"/>
<line x1="416" y1="456" x2="467" y2="456" stroke="#00f"/>
<rect x="194" y="451" width="206" height="10" fill="#ff0"/>
<text x="20" y="480" class="sm">2.728e-09</text>
<rect x="100" y="470" width="481" height="12" fill="#00f"/>
<rect x="623" y="470" width="178" height="12" fill="#00f"/>
<line x1="581" y1="476" x2="622" y2="476" stroke="#00f"/>
<rect x="194" y="471" width="206" height="10" fill="#ff0"/>
<text x="20" y="500" class="sm">2.454e-09</text>
<rect x="100" y="490" width="292" height="12" fill="#00f"/>
<rect x="492" y="490" width="309" height="12" fill="#00f"/>
<line x1="392" y1="496" x2="491" y2="496" stroke="#00f"/>
<rect x="194" y="491" width="198" height="10" fill="#ff0"/>
<rect x="493" y="491" width="190" height="10" fill="#ff0"/>
<text x="20" y="520" class="sm">2.454e-09</text>
<rect x="100" y="510" width="292" height="12" fill="#00f"/>
<rect x="475" y="510" width="326" height="12" fill="#00f"/>
<line x1="392" y1="516" x2="474" y2="516" stroke="#00f"/>
<rect x="194" y="511" width="198" height="10" fill="#ff0"/>
<rect x="476" y="511" width="1" height="10" fill="#ff0"/>
</svg>
