<svg viewBox="0 0 996 540" xmlns="http://www.w3.org/2000/svg">

<style>
  .sm { font: 12px sans-serif; }
  .lg { font: 15px sans-serif; }
</style>
<rect fill="#ddd" x="0" y="0" width="100%" height="100%"/>
<text x="20" y="20" class="lg">ch.1240 I:6916666-6917661 Gene:WBGene00016740</text>
<text x="20" y="50" class="sm">WormBase</text>
<rect x="100" y="40" width="122" height="12" fill="#00f"/>
<rect x="269" y="40" width="55" height="12" fill="#00f"/>
<rect x="380" y="40" width="138" height="12" fill="#00f"/>
<rect x="566" y="40" width="330" height="12" fill="#00f"/>
<line x1="222" y1="46" x2="268" y2="46" stroke="#00f"/>
<line x1="324" y1="46" x2="379" y2="46" stroke="#00f"/>
<line x1="518" y1="46" x2="565" y2="46" stroke="#00f"/>
<rect x="119" y="41" width="103" height="10" fill="#ff0"/>
<rect x="270" y="41" width="54" height="10" fill="#ff0"/>
<rect x="381" y="41" width="137" height="10" fill="#ff0"/>
<rect x="567" y="41" width="254" height="10" fill="#ff0"/>
<rect x="101" y="41" width="17" height="10" fill="brown"><title>.</title></rect>
<rect x="822" y="41" width="74" height="10" fill="brown"><title>.</title></rect>
<text x="20" y="70" class="sm">Fitness: 0.08609829301427045</text>
<rect x="324" y="65" width="56" height="5" fill="#00f"><title>338179.0</title></rect>
<rect x="222" y="70" width="47" height="5" fill="#00f"><title>301061.0</title></rect>
<rect x="518" y="75" width="48" height="5" fill="#00f"><title>279713.0</title></rect>
<rect x="222" y="80" width="158" height="5" fill="#00f"><title>97.0</title></rect>
<rect x="324" y="85" width="58" height="5" fill="#00f"><title>31.0</title></rect>
<rect x="330" y="90" width="50" height="5" fill="#00f"><title>13.0</title></rect>
<rect x="228" y="95" width="41" height="5" fill="#00f"><title>9.0</title></rect>
<rect x="59" y="100" width="434" height="5" fill="#00f"><title>5.0</title></rect>
<text x="20" y="130" class="sm">0.8936</text>
<rect x="100" y="120" width="122" height="12" fill="#00f"/>
<rect x="269" y="120" width="55" height="12" fill="#00f"/>
<rect x="380" y="120" width="138" height="12" fill="#00f"/>
<rect x="566" y="120" width="333" height="12" fill="#00f"/>
<line x1="222" y1="126" x2="268" y2="126" stroke="#00f"/>
<line x1="324" y1="126" x2="379" y2="126" stroke="#00f"/>
<line x1="518" y1="126" x2="565" y2="126" stroke="#00f"/>
<rect x="119" y="121" width="103" height="10" fill="#ff0"/>
<rect x="270" y="121" width="54" height="10" fill="#ff0"/>
<rect x="381" y="121" width="137" height="10" fill="#ff0"/>
<rect x="567" y="121" width="254" height="10" fill="#ff0"/>
<text x="20" y="150" class="sm">0.04878</text>
<rect x="100" y="140" width="122" height="12" fill="#00f"/>
<rect x="269" y="140" width="55" height="12" fill="#00f"/>
<rect x="380" y="140" width="144" height="12" fill="#00f"/>
<rect x="566" y="140" width="333" height="12" fill="#00f"/>
<line x1="222" y1="146" x2="268" y2="146" stroke="#00f"/>
<line x1="324" y1="146" x2="379" y2="146" stroke="#00f"/>
<line x1="524" y1="146" x2="565" y2="146" stroke="#00f"/>
<rect x="119" y="141" width="103" height="10" fill="#ff0"/>
<rect x="270" y="141" width="54" height="10" fill="#ff0"/>
<rect x="381" y="141" width="143" height="10" fill="#ff0"/>
<rect x="567" y="141" width="254" height="10" fill="#ff0"/>
<text x="20" y="170" class="sm">0.02916</text>
<rect x="100" y="160" width="128" height="12" fill="#00f"/>
<rect x="269" y="160" width="55" height="12" fill="#00f"/>
<rect x="380" y="160" width="138" height="12" fill="#00f"/>
<rect x="566" y="160" width="333" height="12" fill="#00f"/>
<line x1="228" y1="166" x2="268" y2="166" stroke="#00f"/>
<line x1="324" y1="166" x2="379" y2="166" stroke="#00f"/>
<line x1="518" y1="166" x2="565" y2="166" stroke="#00f"/>
<rect x="119" y="161" width="109" height="10" fill="#ff0"/>
<rect x="270" y="161" width="54" height="10" fill="#ff0"/>
<rect x="381" y="161" width="137" height="10" fill="#ff0"/>
<rect x="567" y="161" width="254" height="10" fill="#ff0"/>
<text x="20" y="190" class="sm">0.01517</text>
<rect x="100" y="180" width="122" height="12" fill="#00f"/>
<rect x="269" y="180" width="55" height="12" fill="#00f"/>
<rect x="380" y="180" width="112" height="12" fill="#00f"/>
<rect x="566" y="180" width="333" height="12" fill="#00f"/>
<line x1="222" y1="186" x2="268" y2="186" stroke="#00f"/>
<line x1="324" y1="186" x2="379" y2="186" stroke="#00f"/>
<line x1="492" y1="186" x2="565" y2="186" stroke="#00f"/>
<rect x="119" y="181" width="103" height="10" fill="#ff0"/>
<rect x="270" y="181" width="54" height="10" fill="#ff0"/>
<rect x="381" y="181" width="111" height="10" fill="#ff0"/>
<rect x="567" y="181" width="64" height="10" fill="#ff0"/>
<text x="20" y="210" class="sm">0.006135</text>
<rect x="100" y="200" width="126" height="12" fill="#00f"/>
<rect x="269" y="200" width="55" height="12" fill="#00f"/>
<rect x="380" y="200" width="138" height="12" fill="#00f"/>
<rect x="566" y="200" width="333" height="12" fill="#00f"/>
<line x1="226" y1="206" x2="268" y2="206" stroke="#00f"/>
<line x1="324" y1="206" x2="379" y2="206" stroke="#00f"/>
<line x1="518" y1="206" x2="565" y2="206" stroke="#00f"/>
<rect x="453" y="201" width="65" height="10" fill="#ff0"/>
<rect x="567" y="201" width="254" height="10" fill="#ff0"/>
<text x="20" y="230" class="sm">0.003077</text>
<rect x="100" y="220" width="122" height="12" fill="#00f"/>
<rect x="269" y="220" width="61" height="12" fill="#00f"/>
<rect x="380" y="220" width="138" height="12" fill="#00f"/>
<rect x="566" y="220" width="333" height="12" fill="#00f"/>
<line x1="222" y1="226" x2="268" y2="226" stroke="#00f"/>
<line x1="330" y1="226" x2="379" y2="226" stroke="#00f"/>
<line x1="518" y1="226" x2="565" y2="226" stroke="#00f"/>
<rect x="119" y="221" width="103" height="10" fill="#ff0"/>
<rect x="270" y="221" width="60" height="10" fill="#ff0"/>
<rect x="381" y="221" width="137" height="10" fill="#ff0"/>
<rect x="567" y="221" width="254" height="10" fill="#ff0"/>
<text x="20" y="250" class="sm">0.001592</text>
<rect x="100" y="240" width="128" height="12" fill="#00f"/>
<rect x="269" y="240" width="55" height="12" fill="#00f"/>
<rect x="380" y="240" width="144" height="12" fill="#00f"/>
<rect x="566" y="240" width="333" height="12" fill="#00f"/>
<line x1="228" y1="246" x2="268" y2="246" stroke="#00f"/>
<line x1="324" y1="246" x2="379" y2="246" stroke="#00f"/>
<line x1="524" y1="246" x2="565" y2="246" stroke="#00f"/>
<rect x="119" y="241" width="109" height="10" fill="#ff0"/>
<rect x="270" y="241" width="54" height="10" fill="#ff0"/>
<rect x="381" y="241" width="143" height="10" fill="#ff0"/>
<rect x="567" y="241" width="254" height="10" fill="#ff0"/>
<text x="20" y="270" class="sm">0.0007071</text>
<rect x="100" y="260" width="224" height="12" fill="#00f"/>
<rect x="380" y="260" width="138" height="12" fill="#00f"/>
<rect x="566" y="260" width="39" height="12" fill="#00f"/>
<rect x="651" y="260" width="248" height="12" fill="#00f"/>
<line x1="324" y1="266" x2="379" y2="266" stroke="#00f"/>
<line x1="518" y1="266" x2="565" y2="266" stroke="#00f"/>
<line x1="605" y1="266" x2="650" y2="266" stroke="#00f"/>
<rect x="178" y="261" width="146" height="10" fill="#ff0"/>
<rect x="381" y="261" width="137" height="10" fill="#ff0"/>
<rect x="567" y="261" width="38" height="10" fill="#ff0"/>
<rect x="652" y="261" width="86" height="10" fill="#ff0"/>
<text x="20" y="290" class="sm">0.0004951</text>
<rect x="100" y="280" width="128" height="12" fill="#00f"/>
<rect x="269" y="280" width="55" height="12" fill="#00f"/>
<rect x="380" y="280" width="112" height="12" fill="#00f"/>
<rect x="566" y="280" width="333" height="12" fill="#00f"/>
<line x1="228" y1="286" x2="268" y2="286" stroke="#00f"/>
<line x1="324" y1="286" x2="379" y2="286" stroke="#00f"/>
<line x1="492" y1="286" x2="565" y2="286" stroke="#00f"/>
<rect x="119" y="281" width="109" height="10" fill="#ff0"/>
<rect x="270" y="281" width="54" height="10" fill="#ff0"/>
<rect x="381" y="281" width="111" height="10" fill="#ff0"/>
<rect x="567" y="281" width="64" height="10" fill="#ff0"/>
<text x="20" y="310" class="sm">0.0003349</text>
<rect x="100" y="300" width="126" height="12" fill="#00f"/>
<rect x="269" y="300" width="55" height="12" fill="#00f"/>
<rect x="380" y="300" width="144" height="12" fill="#00f"/>
<rect x="566" y="300" width="333" height="12" fill="#00f"/>
<line x1="226" y1="306" x2="268" y2="306" stroke="#00f"/>
<line x1="324" y1="306" x2="379" y2="306" stroke="#00f"/>
<line x1="524" y1="306" x2="565" y2="306" stroke="#00f"/>
<rect x="453" y="301" width="71" height="10" fill="#ff0"/>
<rect x="567" y="301" width="254" height="10" fill="#ff0"/>
<text x="20" y="330" class="sm">0.0001888</text>
<rect x="100" y="320" width="122" height="12" fill="#00f"/>
<rect x="269" y="320" width="55" height="12" fill="#00f"/>
<rect x="380" y="320" width="119" height="12" fill="#00f"/>
<rect x="566" y="320" width="333" height="12" fill="#00f"/>
<line x1="222" y1="326" x2="268" y2="326" stroke="#00f"/>
<line x1="324" y1="326" x2="379" y2="326" stroke="#00f"/>
<line x1="499" y1="326" x2="565" y2="326" stroke="#00f"/>
<rect x="119" y="321" width="103" height="10" fill="#ff0"/>
<rect x="270" y="321" width="54" height="10" fill="#ff0"/>
<rect x="381" y="321" width="118" height="10" fill="#ff0"/>
<rect x="567" y="321" width="3" height="10" fill="#ff0"/>
<text x="20" y="350" class="sm">0.0001685</text>
<rect x="100" y="340" width="122" height="12" fill="#00f"/>
<rect x="269" y="340" width="55" height="12" fill="#00f"/>
<rect x="380" y="340" width="149" height="12" fill="#00f"/>
<rect x="576" y="340" width="323" height="12" fill="#00f"/>
<line x1="222" y1="346" x2="268" y2="346" stroke="#00f"/>
<line x1="324" y1="346" x2="379" y2="346" stroke="#00f"/>
<line x1="529" y1="346" x2="575" y2="346" stroke="#00f"/>
<rect x="119" y="341" width="103" height="10" fill="#ff0"/>
<rect x="270" y="341" width="54" height="10" fill="#ff0"/>
<rect x="381" y="341" width="148" height="10" fill="#ff0"/>
<rect x="577" y="341" width="54" height="10" fill="#ff0"/>
<text x="20" y="370" class="sm">0.000168</text>
<rect x="100" y="360" width="122" height="12" fill="#00f"/>
<rect x="269" y="360" width="61" height="12" fill="#00f"/>
<rect x="380" y="360" width="144" height="12" fill="#00f"/>
<rect x="566" y="360" width="333" height="12" fill="#00f"/>
<line x1="222" y1="366" x2="268" y2="366" stroke="#00f"/>
<line x1="330" y1="366" x2="379" y2="366" stroke="#00f"/>
<line x1="524" y1="366" x2="565" y2="366" stroke="#00f"/>
<rect x="119" y="361" width="103" height="10" fill="#ff0"/>
<rect x="270" y="361" width="60" height="10" fill="#ff0"/>
<rect x="381" y="361" width="143" height="10" fill="#ff0"/>
<rect x="567" y="361" width="254" height="10" fill="#ff0"/>
<text x="20" y="390" class="sm">0.0001041</text>
<rect x="100" y="380" width="126" height="12" fill="#00f"/>
<rect x="269" y="380" width="55" height="12" fill="#00f"/>
<rect x="380" y="380" width="112" height="12" fill="#00f"/>
<rect x="566" y="380" width="333" height="12" fill="#00f"/>
<line x1="226" y1="386" x2="268" y2="386" stroke="#00f"/>
<line x1="324" y1="386" x2="379" y2="386" stroke="#00f"/>
<line x1="492" y1="386" x2="565" y2="386" stroke="#00f"/>
<rect x="609" y="381" width="212" height="10" fill="#ff0"/>
<text x="20" y="410" class="sm">0.0001004</text>
<rect x="100" y="400" width="128" height="12" fill="#00f"/>
<rect x="269" y="400" width="61" height="12" fill="#00f"/>
<rect x="380" y="400" width="138" height="12" fill="#00f"/>
<rect x="566" y="400" width="333" height="12" fill="#00f"/>
<line x1="228" y1="406" x2="268" y2="406" stroke="#00f"/>
<line x1="330" y1="406" x2="379" y2="406" stroke="#00f"/>
<line x1="518" y1="406" x2="565" y2="406" stroke="#00f"/>
<rect x="119" y="401" width="109" height="10" fill="#ff0"/>
<rect x="270" y="401" width="60" height="10" fill="#ff0"/>
<rect x="381" y="401" width="137" height="10" fill="#ff0"/>
<rect x="567" y="401" width="254" height="10" fill="#ff0"/>
<text x="20" y="430" class="sm">5.223e-05</text>
<rect x="100" y="420" width="122" height="12" fill="#00f"/>
<rect x="269" y="420" width="61" height="12" fill="#00f"/>
<rect x="380" y="420" width="112" height="12" fill="#00f"/>
<rect x="566" y="420" width="333" height="12" fill="#00f"/>
<line x1="222" y1="426" x2="268" y2="426" stroke="#00f"/>
<line x1="330" y1="426" x2="379" y2="426" stroke="#00f"/>
<line x1="492" y1="426" x2="565" y2="426" stroke="#00f"/>
<rect x="119" y="421" width="103" height="10" fill="#ff0"/>
<rect x="270" y="421" width="60" height="10" fill="#ff0"/>
<rect x="381" y="421" width="111" height="10" fill="#ff0"/>
<rect x="567" y="421" width="64" height="10" fill="#ff0"/>
<text x="20" y="450" class="sm">3.86e-05</text>
<rect x="100" y="440" width="224" height="12" fill="#00f"/>
<rect x="380" y="440" width="144" height="12" fill="#00f"/>
<rect x="566" y="440" width="39" height="12" fill="#00f"/>
<rect x="651" y="440" width="248" height="12" fill="#00f"/>
<line x1="324" y1="446" x2="379" y2="446" stroke="#00f"/>
<line x1="524" y1="446" x2="565" y2="446" stroke="#00f"/>
<line x1="605" y1="446" x2="650" y2="446" stroke="#00f"/>
<rect x="178" y="441" width="146" height="10" fill="#ff0"/>
<rect x="381" y="441" width="143" height="10" fill="#ff0"/>
<rect x="567" y="441" width="38" height="10" fill="#ff0"/>
<rect x="652" y="441" width="86" height="10" fill="#ff0"/>
<text x="20" y="470" class="sm">3.042e-05</text>
<rect x="100" y="460" width="122" height="12" fill="#00f"/>
<rect x="269" y="460" width="55" height="12" fill="#00f"/>
<rect x="380" y="460" width="144" height="12" fill="#00f"/>
<rect x="576" y="460" width="323" height="12" fill="#00f"/>
<line x1="222" y1="466" x2="268" y2="466" stroke="#00f"/>
<line x1="324" y1="466" x2="379" y2="466" stroke="#00f"/>
<line x1="524" y1="466" x2="575" y2="466" stroke="#00f"/>
<rect x="119" y="461" width="103" height="10" fill="#ff0"/>
<rect x="270" y="461" width="54" height="10" fill="#ff0"/>
<rect x="381" y="461" width="143" height="10" fill="#ff0"/>
<rect x="577" y="461" width="32" height="10" fill="#ff0"/>
<text x="20" y="490" class="sm">2.893e-05</text>
<rect x="100" y="480" width="122" height="12" fill="#00f"/>
<rect x="269" y="480" width="55" height="12" fill="#00f"/>
<rect x="380" y="480" width="149" height="12" fill="#00f"/>
<rect x="566" y="480" width="333" height="12" fill="#00f"/>
<line x1="222" y1="486" x2="268" y2="486" stroke="#00f"/>
<line x1="324" y1="486" x2="379" y2="486" stroke="#00f"/>
<line x1="529" y1="486" x2="565" y2="486" stroke="#00f"/>
<rect x="119" y="481" width="103" height="10" fill="#ff0"/>
<rect x="270" y="481" width="54" height="10" fill="#ff0"/>
<rect x="381" y="481" width="148" height="10" fill="#ff0"/>
<rect x="567" y="481" width="3" height="10" fill="#ff0"/>
<text x="20" y="510" class="sm">2.112e-05</text>
<rect x="100" y="500" width="126" height="12" fill="#00f"/>
<rect x="269" y="500" width="61" height="12" fill="#00f"/>
<rect x="380" y="500" width="138" height="12" fill="#00f"/>
<rect x="566" y="500" width="333" height="12" fill="#00f"/>
<line x1="226" y1="506" x2="268" y2="506" stroke="#00f"/>
<line x1="330" y1="506" x2="379" y2="506" stroke="#00f"/>
<line x1="518" y1="506" x2="565" y2="506" stroke="#00f"/>
<rect x="453" y="501" width="65" height="10" fill="#ff0"/>
<rect x="567" y="501" width="254" height="10" fill="#ff0"/>
</svg>
