<svg viewBox="0 0 932 765" xmlns="http://www.w3.org/2000/svg">

<style>
  .sm { font: 12px sans-serif; }
  .lg { font: 15px sans-serif; }
</style>
<rect fill="#ddd" x="0" y="0" width="100%" height="100%"/>
<text x="20" y="20" class="lg">ch.19375 X:11647365-11648296 Gene:WBGene00011446</text>
<text x="20" y="50" class="sm">WormBase</text>
<rect x="100" y="40" width="71" height="12" fill="#00f"/>
<rect x="218" y="40" width="134" height="12" fill="#00f"/>
<rect x="407" y="40" width="425" height="12" fill="#00f"/>
<line x1="171" y1="46" x2="217" y2="46" stroke="#00f"/>
<line x1="352" y1="46" x2="406" y2="46" stroke="#00f"/>
<rect x="119" y="41" width="52" height="10" fill="#ff0"/>
<rect x="219" y="41" width="133" height="10" fill="#ff0"/>
<rect x="408" y="41" width="310" height="10" fill="#ff0"/>
<rect x="101" y="41" width="17" height="10" fill="brown"><title>.</title></rect>
<rect x="719" y="41" width="113" height="10" fill="brown"><title>.</title></rect>
<text x="20" y="70" class="sm">Fitness: 0.3492804461388596</text>
<rect x="352" y="65" width="55" height="5" fill="#00f"><title>1567900.0</title></rect>
<rect x="171" y="70" width="47" height="5" fill="#00f"><title>901746.0</title></rect>
<rect x="356" y="75" width="56" height="5" fill="#f0f"><title>5335.0</title></rect>
<rect x="337" y="80" width="70" height="5" fill="#00f"><title>1429.0</title></rect>
<rect x="349" y="85" width="58" height="5" fill="#00f"><title>1290.0</title></rect>
<rect x="262" y="90" width="54" height="5" fill="#00f"><title>201.0</title></rect>
<rect x="171" y="95" width="236" height="5" fill="#00f"><title>167.0</title></rect>
<rect x="557" y="100" width="84" height="5" fill="#00f"><title>75.0</title></rect>
<rect x="557" y="105" width="66" height="5" fill="#00f"><title>65.0</title></rect>
<rect x="557" y="110" width="42" height="5" fill="#00f"><title>48.0</title></rect>
<rect x="316" y="115" width="91" height="5" fill="#00f"><title>35.0</title></rect>
<rect x="337" y="120" width="136" height="5" fill="#00f"><title>35.0</title></rect>
<rect x="253" y="125" width="63" height="5" fill="#00f"><title>24.0</title></rect>
<rect x="253" y="130" width="217" height="5" fill="#00f"><title>22.0</title></rect>
<rect x="349" y="135" width="130" height="5" fill="#00f"><title>21.0</title></rect>
<rect x="316" y="140" width="163" height="5" fill="#00f"><title>18.0</title></rect>
<rect x="265" y="145" width="142" height="5" fill="#00f"><title>16.0</title></rect>
<rect x="337" y="150" width="142" height="5" fill="#00f"><title>15.0</title></rect>
<rect x="316" y="155" width="249" height="5" fill="#00f"><title>14.0</title></rect>
<rect x="253" y="160" width="220" height="5" fill="#00f"><title>13.0</title></rect>
<rect x="454" y="165" width="107" height="5" fill="#00f"><title>13.0</title></rect>
<rect x="349" y="170" width="124" height="5" fill="#00f"><title>12.0</title></rect>
<rect x="530" y="175" width="48" height="5" fill="#00f"><title>11.0</title></rect>
<rect x="175" y="180" width="43" height="5" fill="#00f"><title>10.0</title></rect>
<rect x="262" y="185" width="211" height="5" fill="#00f"><title>10.0</title></rect>
<rect x="444" y="190" width="200" height="5" fill="#00f"><title>10.0</title></rect>
<rect x="253" y="195" width="226" height="5" fill="#00f"><title>8.0</title></rect>
<rect x="310" y="200" width="169" height="5" fill="#00f"><title>8.0</title></rect>
<rect x="447" y="205" width="216" height="5" fill="#00f"><title>8.0</title></rect>
<rect x="262" y="210" width="217" height="5" fill="#00f"><title>7.0</title></rect>
<rect x="505" y="215" width="72" height="5" fill="#00f"><title>7.0</title></rect>
<rect x="541" y="220" width="36" height="5" fill="#00f"><title>7.0</title></rect>
<rect x="286" y="225" width="376" height="5" fill="#00f"><title>6.0</title></rect>
<rect x="337" y="230" width="130" height="5" fill="#00f"><title>6.0</title></rect>
<rect x="352" y="235" width="127" height="5" fill="#00f"><title>6.0</title></rect>
<rect x="557" y="240" width="30" height="5" fill="#00f"><title>6.0</title></rect>
<rect x="262" y="245" width="145" height="5" fill="#00f"><title>5.0</title></rect>
<rect x="307" y="250" width="133" height="5" fill="#00f"><title>5.0</title></rect>
<rect x="316" y="255" width="157" height="5" fill="#00f"><title>5.0</title></rect>
<rect x="529" y="260" width="36" height="5" fill="#00f"><title>5.0</title></rect>
<rect x="183" y="265" width="374" height="5" fill="#f0f"><title>4.0</title></rect>
<rect x="238" y="270" width="283" height="5" fill="#f0f"><title>4.0</title></rect>
<rect x="257" y="275" width="33" height="5" fill="#00f"><title>4.0</title></rect>
<rect x="262" y="280" width="208" height="5" fill="#00f"><title>3.0</title></rect>
<rect x="303" y="285" width="115" height="5" fill="#00f"><title>3.0</title></rect>
<rect x="312" y="290" width="175" height="5" fill="#00f"><title>3.0</title></rect>
<rect x="339" y="295" width="140" height="5" fill="#00f"><title>3.0</title></rect>
<rect x="352" y="300" width="193" height="5" fill="#00f"><title>3.0</title></rect>
<rect x="352" y="305" width="211" height="5" fill="#00f"><title>3.0</title></rect>
<rect x="505" y="310" width="96" height="5" fill="#00f"><title>3.0</title></rect>
<rect x="509" y="315" width="48" height="5" fill="#f0f"><title>3.0</title></rect>
<rect x="520" y="320" width="57" height="5" fill="#00f"><title>3.0</title></rect>
<rect x="559" y="325" width="60" height="5" fill="#00f"><title>3.0</title></rect>
<text x="20" y="355" class="sm">0.8932</text>
<rect x="100" y="345" width="71" height="12" fill="#00f"/>
<rect x="218" y="345" width="134" height="12" fill="#00f"/>
<rect x="407" y="345" width="428" height="12" fill="#00f"/>
<line x1="171" y1="351" x2="217" y2="351" stroke="#00f"/>
<line x1="352" y1="351" x2="406" y2="351" stroke="#00f"/>
<rect x="119" y="346" width="52" height="10" fill="#ff0"/>
<rect x="219" y="346" width="133" height="10" fill="#ff0"/>
<rect x="408" y="346" width="310" height="10" fill="#ff0"/>
<text x="20" y="375" class="sm">0.03825</text>
<rect x="100" y="365" width="71" height="12" fill="#00f"/>
<rect x="218" y="365" width="131" height="12" fill="#00f"/>
<rect x="407" y="365" width="428" height="12" fill="#00f"/>
<line x1="171" y1="371" x2="217" y2="371" stroke="#00f"/>
<line x1="349" y1="371" x2="406" y2="371" stroke="#00f"/>
<rect x="119" y="366" width="52" height="10" fill="#ff0"/>
<rect x="219" y="366" width="130" height="10" fill="#ff0"/>
<rect x="408" y="366" width="310" height="10" fill="#ff0"/>
<text x="20" y="395" class="sm">0.02851</text>
<rect x="100" y="385" width="71" height="12" fill="#00f"/>
<rect x="218" y="385" width="134" height="12" fill="#00f"/>
<rect x="407" y="385" width="248" height="12" fill="#00f"/>
<rect x="702" y="385" width="133" height="12" fill="#00f"/>
<line x1="171" y1="391" x2="217" y2="391" stroke="#00f"/>
<line x1="352" y1="391" x2="406" y2="391" stroke="#00f"/>
<line x1="655" y1="391" x2="701" y2="391" stroke="#00f"/>
<rect x="119" y="386" width="52" height="10" fill="#ff0"/>
<rect x="219" y="386" width="133" height="10" fill="#ff0"/>
<rect x="408" y="386" width="247" height="10" fill="#ff0"/>
<rect x="703" y="386" width="41" height="10" fill="#ff0"/>
<text x="20" y="415" class="sm">0.01622</text>
<rect x="100" y="405" width="71" height="12" fill="#00f"/>
<rect x="218" y="405" width="617" height="12" fill="#00f"/>
<line x1="171" y1="411" x2="217" y2="411" stroke="#00f"/>
<rect x="423" y="406" width="311" height="10" fill="#ff0"/>
<text x="20" y="435" class="sm">0.007066</text>
<rect x="100" y="425" width="71" height="12" fill="#00f"/>
<rect x="218" y="425" width="47" height="12" fill="#00f"/>
<rect x="407" y="425" width="428" height="12" fill="#00f"/>
<line x1="171" y1="431" x2="217" y2="431" stroke="#00f"/>
<line x1="265" y1="431" x2="406" y2="431" stroke="#00f"/>
<rect x="119" y="426" width="52" height="10" fill="#ff0"/>
<rect x="219" y="426" width="46" height="10" fill="#ff0"/>
<rect x="408" y="426" width="310" height="10" fill="#ff0"/>
<text x="20" y="455" class="sm">0.004242</text>
<rect x="100" y="445" width="71" height="12" fill="#00f"/>
<rect x="218" y="445" width="80" height="12" fill="#00f"/>
<rect x="407" y="445" width="428" height="12" fill="#00f"/>
<line x1="171" y1="451" x2="217" y2="451" stroke="#00f"/>
<line x1="298" y1="451" x2="406" y2="451" stroke="#00f"/>
<rect x="119" y="446" width="52" height="10" fill="#ff0"/>
<rect x="219" y="446" width="79" height="10" fill="#ff0"/>
<rect x="408" y="446" width="310" height="10" fill="#ff0"/>
<text x="20" y="475" class="sm">0.002594</text>
<rect x="100" y="465" width="71" height="12" fill="#00f"/>
<rect x="218" y="465" width="134" height="12" fill="#00f"/>
<rect x="407" y="465" width="52" height="12" fill="#00f"/>
<rect x="563" y="465" width="272" height="12" fill="#00f"/>
<line x1="171" y1="471" x2="217" y2="471" stroke="#00f"/>
<line x1="352" y1="471" x2="406" y2="471" stroke="#00f"/>
<line x1="459" y1="471" x2="562" y2="471" stroke="#00f"/>
<rect x="119" y="466" width="52" height="10" fill="#ff0"/>
<rect x="219" y="466" width="133" height="10" fill="#ff0"/>
<rect x="408" y="466" width="51" height="10" fill="#ff0"/>
<rect x="564" y="466" width="72" height="10" fill="#ff0"/>
<text x="20" y="495" class="sm">0.002192</text>
<rect x="100" y="485" width="54" height="12" fill="#00f"/>
<rect x="218" y="485" width="134" height="12" fill="#00f"/>
<rect x="407" y="485" width="428" height="12" fill="#00f"/>
<line x1="154" y1="491" x2="217" y2="491" stroke="#00f"/>
<line x1="352" y1="491" x2="406" y2="491" stroke="#00f"/>
<rect x="247" y="486" width="105" height="10" fill="#ff0"/>
<rect x="408" y="486" width="310" height="10" fill="#ff0"/>
<text x="20" y="515" class="sm">0.001774</text>
<rect x="100" y="505" width="71" height="12" fill="#00f"/>
<rect x="218" y="505" width="134" height="12" fill="#00f"/>
<rect x="407" y="505" width="248" height="12" fill="#00f"/>
<rect x="693" y="505" width="142" height="12" fill="#00f"/>
<line x1="171" y1="511" x2="217" y2="511" stroke="#00f"/>
<line x1="352" y1="511" x2="406" y2="511" stroke="#00f"/>
<line x1="655" y1="511" x2="692" y2="511" stroke="#00f"/>
<rect x="119" y="506" width="52" height="10" fill="#ff0"/>
<rect x="219" y="506" width="133" height="10" fill="#ff0"/>
<rect x="408" y="506" width="247" height="10" fill="#ff0"/>
<rect x="694" y="506" width="8" height="10" fill="#ff0"/>
<text x="20" y="535" class="sm">0.001594</text>
<rect x="100" y="525" width="71" height="12" fill="#00f"/>
<rect x="218" y="525" width="119" height="12" fill="#00f"/>
<rect x="407" y="525" width="428" height="12" fill="#00f"/>
<line x1="171" y1="531" x2="217" y2="531" stroke="#00f"/>
<line x1="337" y1="531" x2="406" y2="531" stroke="#00f"/>
<rect x="119" y="526" width="52" height="10" fill="#ff0"/>
<rect x="219" y="526" width="118" height="10" fill="#ff0"/>
<rect x="408" y="526" width="310" height="10" fill="#ff0"/>
<text x="20" y="555" class="sm">0.001221</text>
<rect x="100" y="545" width="71" height="12" fill="#00f"/>
<rect x="218" y="545" width="131" height="12" fill="#00f"/>
<rect x="407" y="545" width="248" height="12" fill="#00f"/>
<rect x="702" y="545" width="133" height="12" fill="#00f"/>
<line x1="171" y1="551" x2="217" y2="551" stroke="#00f"/>
<line x1="349" y1="551" x2="406" y2="551" stroke="#00f"/>
<line x1="655" y1="551" x2="701" y2="551" stroke="#00f"/>
<rect x="119" y="546" width="52" height="10" fill="#ff0"/>
<rect x="219" y="546" width="130" height="10" fill="#ff0"/>
<rect x="408" y="546" width="247" height="10" fill="#ff0"/>
<rect x="703" y="546" width="41" height="10" fill="#ff0"/>
<text x="20" y="575" class="sm">0.001024</text>
<rect x="100" y="565" width="71" height="12" fill="#00f"/>
<rect x="218" y="565" width="44" height="12" fill="#00f"/>
<rect x="407" y="565" width="428" height="12" fill="#00f"/>
<line x1="171" y1="571" x2="217" y2="571" stroke="#00f"/>
<line x1="262" y1="571" x2="406" y2="571" stroke="#00f"/>
<rect x="119" y="566" width="52" height="10" fill="#ff0"/>
<rect x="219" y="566" width="43" height="10" fill="#ff0"/>
<rect x="408" y="566" width="310" height="10" fill="#ff0"/>
<text x="20" y="595" class="sm">0.0009079</text>
<rect x="100" y="585" width="71" height="12" fill="#00f"/>
<rect x="218" y="585" width="437" height="12" fill="#00f"/>
<rect x="702" y="585" width="133" height="12" fill="#00f"/>
<line x1="171" y1="591" x2="217" y2="591" stroke="#00f"/>
<line x1="655" y1="591" x2="701" y2="591" stroke="#00f"/>
<rect x="423" y="586" width="232" height="10" fill="#ff0"/>
<rect x="703" y="586" width="15" height="10" fill="#ff0"/>
<text x="20" y="615" class="sm">0.0002471</text>
<rect x="100" y="605" width="71" height="12" fill="#00f"/>
<rect x="218" y="605" width="35" height="12" fill="#00f"/>
<rect x="407" y="605" width="428" height="12" fill="#00f"/>
<line x1="171" y1="611" x2="217" y2="611" stroke="#00f"/>
<line x1="253" y1="611" x2="406" y2="611" stroke="#00f"/>
<rect x="119" y="606" width="52" height="10" fill="#ff0"/>
<rect x="219" y="606" width="34" height="10" fill="#ff0"/>
<rect x="408" y="606" width="310" height="10" fill="#ff0"/>
<text x="20" y="635" class="sm">0.0002255</text>
<rect x="100" y="625" width="71" height="12" fill="#00f"/>
<rect x="218" y="625" width="47" height="12" fill="#00f"/>
<rect x="407" y="625" width="248" height="12" fill="#00f"/>
<rect x="702" y="625" width="133" height="12" fill="#00f"/>
<line x1="171" y1="631" x2="217" y2="631" stroke="#00f"/>
<line x1="265" y1="631" x2="406" y2="631" stroke="#00f"/>
<line x1="655" y1="631" x2="701" y2="631" stroke="#00f"/>
<rect x="119" y="626" width="52" height="10" fill="#ff0"/>
<rect x="219" y="626" width="46" height="10" fill="#ff0"/>
<rect x="408" y="626" width="247" height="10" fill="#ff0"/>
<rect x="703" y="626" width="41" height="10" fill="#ff0"/>
<text x="20" y="655" class="sm">0.0002064</text>
<rect x="100" y="645" width="71" height="12" fill="#00f"/>
<rect x="218" y="645" width="119" height="12" fill="#00f"/>
<rect x="383" y="645" width="452" height="12" fill="#00f"/>
<line x1="171" y1="651" x2="217" y2="651" stroke="#00f"/>
<line x1="337" y1="651" x2="382" y2="651" stroke="#00f"/>
<rect x="296" y="646" width="41" height="10" fill="#ff0"/>
<rect x="384" y="646" width="350" height="10" fill="#ff0"/>
<text x="20" y="675" class="sm">0.0001513</text>
<rect x="100" y="665" width="71" height="12" fill="#00f"/>
<rect x="218" y="665" width="134" height="12" fill="#00f"/>
<rect x="407" y="665" width="52" height="12" fill="#00f"/>
<rect x="535" y="665" width="300" height="12" fill="#00f"/>
<line x1="171" y1="671" x2="217" y2="671" stroke="#00f"/>
<line x1="352" y1="671" x2="406" y2="671" stroke="#00f"/>
<line x1="459" y1="671" x2="534" y2="671" stroke="#00f"/>
<rect x="119" y="666" width="52" height="10" fill="#ff0"/>
<rect x="219" y="666" width="133" height="10" fill="#ff0"/>
<rect x="408" y="666" width="51" height="10" fill="#ff0"/>
<rect x="536" y="666" width="198" height="10" fill="#ff0"/>
<text x="20" y="695" class="sm">0.0001354</text>
<rect x="100" y="685" width="71" height="12" fill="#00f"/>
<rect x="218" y="685" width="80" height="12" fill="#00f"/>
<rect x="407" y="685" width="248" height="12" fill="#00f"/>
<rect x="702" y="685" width="133" height="12" fill="#00f"/>
<line x1="171" y1="691" x2="217" y2="691" stroke="#00f"/>
<line x1="298" y1="691" x2="406" y2="691" stroke="#00f"/>
<line x1="655" y1="691" x2="701" y2="691" stroke="#00f"/>
<rect x="119" y="686" width="52" height="10" fill="#ff0"/>
<rect x="219" y="686" width="79" height="10" fill="#ff0"/>
<rect x="408" y="686" width="247" height="10" fill="#ff0"/>
<rect x="703" y="686" width="41" height="10" fill="#ff0"/>
<text x="20" y="715" class="sm">0.0001111</text>
<rect x="100" y="705" width="71" height="12" fill="#00f"/>
<rect x="218" y="705" width="131" height="12" fill="#00f"/>
<rect x="407" y="705" width="52" height="12" fill="#00f"/>
<rect x="563" y="705" width="272" height="12" fill="#00f"/>
<line x1="171" y1="711" x2="217" y2="711" stroke="#00f"/>
<line x1="349" y1="711" x2="406" y2="711" stroke="#00f"/>
<line x1="459" y1="711" x2="562" y2="711" stroke="#00f"/>
<rect x="119" y="706" width="52" height="10" fill="#ff0"/>
<rect x="219" y="706" width="130" height="10" fill="#ff0"/>
<rect x="408" y="706" width="51" height="10" fill="#ff0"/>
<rect x="564" y="706" width="72" height="10" fill="#ff0"/>
<text x="20" y="735" class="sm">9.386e-05</text>
<rect x="100" y="725" width="54" height="12" fill="#00f"/>
<rect x="218" y="725" width="131" height="12" fill="#00f"/>
<rect x="407" y="725" width="428" height="12" fill="#00f"/>
<line x1="154" y1="731" x2="217" y2="731" stroke="#00f"/>
<line x1="349" y1="731" x2="406" y2="731" stroke="#00f"/>
<rect x="247" y="726" width="102" height="10" fill="#ff0"/>
<rect x="408" y="726" width="310" height="10" fill="#ff0"/>
</svg>
