<svg viewBox="0 0 688 515" xmlns="http://www.w3.org/2000/svg">

<style>
  .sm { font: 12px sans-serif; }
  .lg { font: 15px sans-serif; }
</style>
<rect fill="#ddd" x="0" y="0" width="100%" height="100%"/>
<text x="20" y="20" class="lg">ch.19523 X:12356094-12356781 Gene:WBGene00023493</text>
<text x="20" y="50" class="sm">WormBase</text>
<rect x="102" y="40" width="74" height="12" fill="#00f"/>
<rect x="223" y="40" width="367" height="12" fill="#00f"/>
<line x1="176" y1="46" x2="222" y2="46" stroke="#00f"/>
<rect x="174" y="41" width="2" height="10" fill="#ff0"/>
<rect x="224" y="41" width="302" height="10" fill="#ff0"/>
<rect x="103" y="41" width="70" height="10" fill="brown"><title>.</title></rect>
<rect x="527" y="41" width="63" height="10" fill="brown"><title>.</title></rect>
<text x="20" y="70" class="sm">Fitness: 0.00012680905099746975</text>
<rect x="176" y="65" width="47" height="5" fill="#00f"><title>218483.0</title></rect>
<rect x="401" y="70" width="46" height="5" fill="#00f"><title>14.0</title></rect>
<rect x="317" y="75" width="49" height="5" fill="#00f"><title>4.0</title></rect>
<text x="20" y="105" class="sm">0.9999</text>
<rect x="100" y="95" width="76" height="12" fill="#00f"/>
<rect x="223" y="95" width="368" height="12" fill="#00f"/>
<line x1="176" y1="101" x2="222" y2="101" stroke="#00f"/>
<rect x="174" y="96" width="2" height="10" fill="#ff0"/>
<rect x="224" y="96" width="302" height="10" fill="#ff0"/>
<text x="20" y="125" class="sm">4.784e-05</text>
<rect x="100" y="115" width="76" height="12" fill="#00f"/>
<rect x="223" y="115" width="94" height="12" fill="#00f"/>
<rect x="366" y="115" width="225" height="12" fill="#00f"/>
<line x1="176" y1="121" x2="222" y2="121" stroke="#00f"/>
<line x1="317" y1="121" x2="365" y2="121" stroke="#00f"/>
<rect x="174" y="116" width="2" height="10" fill="#ff0"/>
<rect x="224" y="116" width="93" height="10" fill="#ff0"/>
<rect x="367" y="116" width="91" height="10" fill="#ff0"/>
<text x="20" y="145" class="sm">3.227e-05</text>
<rect x="100" y="135" width="80" height="12" fill="#00f"/>
<rect x="223" y="135" width="368" height="12" fill="#00f"/>
<line x1="180" y1="141" x2="222" y2="141" stroke="#00f"/>
<rect x="312" y="136" width="146" height="10" fill="#ff0"/>
<text x="20" y="165" class="sm">6.678e-07</text>
<rect x="100" y="155" width="76" height="12" fill="#00f"/>
<rect x="223" y="155" width="178" height="12" fill="#00f"/>
<rect x="447" y="155" width="144" height="12" fill="#00f"/>
<line x1="176" y1="161" x2="222" y2="161" stroke="#00f"/>
<line x1="401" y1="161" x2="446" y2="161" stroke="#00f"/>
<rect x="312" y="156" width="89" height="10" fill="#ff0"/>
<rect x="448" y="156" width="128" height="10" fill="#ff0"/>
<text x="20" y="185" class="sm">3.209e-07</text>
<rect x="100" y="175" width="76" height="12" fill="#00f"/>
<rect x="223" y="175" width="166" height="12" fill="#00f"/>
<rect x="447" y="175" width="144" height="12" fill="#00f"/>
<line x1="176" y1="181" x2="222" y2="181" stroke="#00f"/>
<line x1="389" y1="181" x2="446" y2="181" stroke="#00f"/>
<rect x="312" y="176" width="77" height="10" fill="#ff0"/>
<rect x="448" y="176" width="128" height="10" fill="#ff0"/>
<text x="20" y="205" class="sm">1.692e-07</text>
<rect x="100" y="195" width="76" height="12" fill="#00f"/>
<rect x="267" y="195" width="324" height="12" fill="#00f"/>
<line x1="176" y1="201" x2="266" y2="201" stroke="#00f"/>
<rect x="312" y="196" width="146" height="10" fill="#ff0"/>
<text x="20" y="225" class="sm">3.932e-08</text>
<rect x="100" y="215" width="76" height="12" fill="#00f"/>
<rect x="293" y="215" width="298" height="12" fill="#00f"/>
<line x1="176" y1="221" x2="292" y2="221" stroke="#00f"/>
<rect x="174" y="216" width="2" height="10" fill="#ff0"/>
<rect x="294" y="216" width="164" height="10" fill="#ff0"/>
<text x="20" y="245" class="sm">3.301e-08</text>
<rect x="100" y="235" width="217" height="12" fill="#00f"/>
<rect x="366" y="235" width="225" height="12" fill="#00f"/>
<line x1="317" y1="241" x2="365" y2="241" stroke="#00f"/>
<rect x="448" y="236" width="128" height="10" fill="#ff0"/>
<text x="20" y="265" class="sm">2.555e-08</text>
<rect x="100" y="255" width="76" height="12" fill="#00f"/>
<rect x="223" y="255" width="166" height="12" fill="#00f"/>
<rect x="440" y="255" width="151" height="12" fill="#00f"/>
<line x1="176" y1="261" x2="222" y2="261" stroke="#00f"/>
<line x1="389" y1="261" x2="439" y2="261" stroke="#00f"/>
<rect x="174" y="256" width="2" height="10" fill="#ff0"/>
<rect x="224" y="256" width="165" height="10" fill="#ff0"/>
<rect x="441" y="256" width="85" height="10" fill="#ff0"/>
<text x="20" y="285" class="sm">1.827e-08</text>
<rect x="100" y="275" width="76" height="12" fill="#00f"/>
<rect x="223" y="275" width="91" height="12" fill="#00f"/>
<rect x="366" y="275" width="225" height="12" fill="#00f"/>
<line x1="176" y1="281" x2="222" y2="281" stroke="#00f"/>
<line x1="314" y1="281" x2="365" y2="281" stroke="#00f"/>
<rect x="174" y="276" width="2" height="10" fill="#ff0"/>
<rect x="224" y="276" width="90" height="10" fill="#ff0"/>
<rect x="367" y="276" width="91" height="10" fill="#ff0"/>
<text x="20" y="305" class="sm">1.901e-09</text>
<rect x="100" y="295" width="76" height="12" fill="#00f"/>
<rect x="447" y="295" width="144" height="12" fill="#00f"/>
<line x1="176" y1="301" x2="446" y2="301" stroke="#00f"/>
<rect x="174" y="296" width="2" height="10" fill="#ff0"/>
<rect x="448" y="296" width="128" height="10" fill="#ff0"/>
<text x="20" y="325" class="sm">1.544e-09</text>
<rect x="100" y="315" width="80" height="12" fill="#00f"/>
<rect x="223" y="315" width="94" height="12" fill="#00f"/>
<rect x="366" y="315" width="225" height="12" fill="#00f"/>
<line x1="180" y1="321" x2="222" y2="321" stroke="#00f"/>
<line x1="317" y1="321" x2="365" y2="321" stroke="#00f"/>
<rect x="448" y="316" width="128" height="10" fill="#ff0"/>
<text x="20" y="345" class="sm">1.448e-09</text>
<rect x="100" y="335" width="76" height="12" fill="#00f"/>
<rect x="366" y="335" width="225" height="12" fill="#00f"/>
<line x1="176" y1="341" x2="365" y2="341" stroke="#00f"/>
<rect x="448" y="336" width="128" height="10" fill="#ff0"/>
<text x="20" y="365" class="sm">1.438e-09</text>
<rect x="100" y="355" width="76" height="12" fill="#00f"/>
<rect x="223" y="355" width="168" height="12" fill="#00f"/>
<rect x="447" y="355" width="144" height="12" fill="#00f"/>
<line x1="176" y1="361" x2="222" y2="361" stroke="#00f"/>
<line x1="391" y1="361" x2="446" y2="361" stroke="#00f"/>
<rect x="174" y="356" width="2" height="10" fill="#ff0"/>
<rect x="224" y="356" width="167" height="10" fill="#ff0"/>
<rect x="448" y="356" width="128" height="10" fill="#ff0"/>
<text x="20" y="385" class="sm">6.574e-10</text>
<rect x="100" y="375" width="76" height="12" fill="#00f"/>
<rect x="223" y="375" width="94" height="12" fill="#00f"/>
<rect x="447" y="375" width="144" height="12" fill="#00f"/>
<line x1="176" y1="381" x2="222" y2="381" stroke="#00f"/>
<line x1="317" y1="381" x2="446" y2="381" stroke="#00f"/>
<rect x="312" y="376" width="5" height="10" fill="#ff0"/>
<rect x="448" y="376" width="128" height="10" fill="#ff0"/>
<text x="20" y="405" class="sm">5.067e-10</text>
<rect x="100" y="395" width="301" height="12" fill="#00f"/>
<rect x="447" y="395" width="144" height="12" fill="#00f"/>
<line x1="401" y1="401" x2="446" y2="401" stroke="#00f"/>
<rect x="312" y="396" width="89" height="10" fill="#ff0"/>
<rect x="448" y="396" width="128" height="10" fill="#ff0"/>
<text x="20" y="425" class="sm">2.485e-10</text>
<rect x="100" y="415" width="289" height="12" fill="#00f"/>
<rect x="447" y="415" width="144" height="12" fill="#00f"/>
<line x1="389" y1="421" x2="446" y2="421" stroke="#00f"/>
<rect x="312" y="416" width="77" height="10" fill="#ff0"/>
<rect x="448" y="416" width="128" height="10" fill="#ff0"/>
<text x="20" y="445" class="sm">2.128e-10</text>
<rect x="100" y="435" width="76" height="12" fill="#00f"/>
<rect x="351" y="435" width="240" height="12" fill="#00f"/>
<line x1="176" y1="441" x2="350" y2="441" stroke="#00f"/>
<rect x="448" y="436" width="128" height="10" fill="#ff0"/>
<text x="20" y="465" class="sm">1.907e-10</text>
<rect x="100" y="455" width="76" height="12" fill="#00f"/>
<rect x="223" y="455" width="271" height="12" fill="#00f"/>
<rect x="553" y="455" width="38" height="12" fill="#00f"/>
<line x1="176" y1="461" x2="222" y2="461" stroke="#00f"/>
<line x1="494" y1="461" x2="552" y2="461" stroke="#00f"/>
<rect x="174" y="456" width="2" height="10" fill="#ff0"/>
<rect x="224" y="456" width="270" height="10" fill="#ff0"/>
<rect x="554" y="456" width="22" height="10" fill="#ff0"/>
<text x="20" y="485" class="sm">1.36e-10</text>
<rect x="100" y="475" width="76" height="12" fill="#00f"/>
<rect x="223" y="475" width="82" height="12" fill="#00f"/>
<rect x="351" y="475" width="240" height="12" fill="#00f"/>
<line x1="176" y1="481" x2="222" y2="481" stroke="#00f"/>
<line x1="305" y1="481" x2="350" y2="481" stroke="#00f"/>
<rect x="174" y="476" width="2" height="10" fill="#ff0"/>
<rect x="224" y="476" width="81" height="10" fill="#ff0"/>
<rect x="352" y="476" width="106" height="10" fill="#ff0"/>
</svg>
