<svg viewBox="0 0 1048 515" xmlns="http://www.w3.org/2000/svg">

<style>
  .sm { font: 12px sans-serif; }
  .lg { font: 15px sans-serif; }
</style>
<rect fill="#ddd" x="0" y="0" width="100%" height="100%"/>
<text x="20" y="20" class="lg">ch.1250 I:6951035-6952082 Gene:WBGene00020397</text>
<text x="20" y="50" class="sm">WormBase</text>
<rect x="100" y="40" width="242" height="12" fill="#00f"/>
<rect x="517" y="40" width="120" height="12" fill="#00f"/>
<rect x="687" y="40" width="261" height="12" fill="#00f"/>
<line x1="342" y1="46" x2="516" y2="46" stroke="#00f"/>
<line x1="637" y1="46" x2="686" y2="46" stroke="#00f"/>
<rect x="208" y="41" width="134" height="10" fill="#ff0"/>
<rect x="518" y="41" width="119" height="10" fill="#ff0"/>
<rect x="688" y="41" width="173" height="10" fill="#ff0"/>
<rect x="101" y="41" width="106" height="10" fill="brown"><title>.</title></rect>
<rect x="862" y="41" width="86" height="10" fill="brown"><title>.</title></rect>
<text x="20" y="70" class="sm">Fitness: 0.22185792747017968</text>
<rect x="637" y="65" width="50" height="5" fill="#00f"><title>710053.0</title></rect>
<rect x="342" y="70" width="175" height="5" fill="#00f"><title>463042.0</title></rect>
<rect x="319" y="75" width="198" height="5" fill="#00f"><title>67.0</title></rect>
<text x="20" y="105" class="sm">0.7929</text>
<rect x="100" y="95" width="242" height="12" fill="#00f"/>
<rect x="517" y="95" width="120" height="12" fill="#00f"/>
<rect x="687" y="95" width="264" height="12" fill="#00f"/>
<line x1="342" y1="101" x2="516" y2="101" stroke="#00f"/>
<line x1="637" y1="101" x2="686" y2="101" stroke="#00f"/>
<rect x="208" y="96" width="134" height="10" fill="#ff0"/>
<rect x="518" y="96" width="119" height="10" fill="#ff0"/>
<rect x="688" y="96" width="173" height="10" fill="#ff0"/>
<text x="20" y="125" class="sm">0.08849</text>
<rect x="100" y="115" width="290" height="12" fill="#00f"/>
<rect x="517" y="115" width="120" height="12" fill="#00f"/>
<rect x="687" y="115" width="264" height="12" fill="#00f"/>
<line x1="390" y1="121" x2="516" y2="121" stroke="#00f"/>
<line x1="637" y1="121" x2="686" y2="121" stroke="#00f"/>
<rect x="208" y="116" width="176" height="10" fill="#ff0"/>
<text x="20" y="145" class="sm">0.0341</text>
<rect x="100" y="135" width="259" height="12" fill="#00f"/>
<rect x="517" y="135" width="120" height="12" fill="#00f"/>
<rect x="687" y="135" width="264" height="12" fill="#00f"/>
<line x1="359" y1="141" x2="516" y2="141" stroke="#00f"/>
<line x1="637" y1="141" x2="686" y2="141" stroke="#00f"/>
<rect x="208" y="136" width="151" height="10" fill="#ff0"/>
<rect x="518" y="136" width="45" height="10" fill="#ff0"/>
<text x="20" y="165" class="sm">0.02316</text>
<rect x="100" y="155" width="219" height="12" fill="#00f"/>
<rect x="517" y="155" width="120" height="12" fill="#00f"/>
<rect x="687" y="155" width="264" height="12" fill="#00f"/>
<line x1="319" y1="161" x2="516" y2="161" stroke="#00f"/>
<line x1="637" y1="161" x2="686" y2="161" stroke="#00f"/>
<rect x="700" y="156" width="161" height="10" fill="#ff0"/>
<text x="20" y="185" class="sm">0.0208</text>
<rect x="100" y="175" width="223" height="12" fill="#00f"/>
<rect x="517" y="175" width="120" height="12" fill="#00f"/>
<rect x="687" y="175" width="264" height="12" fill="#00f"/>
<line x1="323" y1="181" x2="516" y2="181" stroke="#00f"/>
<line x1="637" y1="181" x2="686" y2="181" stroke="#00f"/>
<rect x="700" y="176" width="161" height="10" fill="#ff0"/>
<text x="20" y="205" class="sm">0.006486</text>
<rect x="100" y="195" width="256" height="12" fill="#00f"/>
<rect x="517" y="195" width="120" height="12" fill="#00f"/>
<rect x="687" y="195" width="264" height="12" fill="#00f"/>
<line x1="356" y1="201" x2="516" y2="201" stroke="#00f"/>
<line x1="637" y1="201" x2="686" y2="201" stroke="#00f"/>
<rect x="208" y="196" width="148" height="10" fill="#ff0"/>
<rect x="518" y="196" width="45" height="10" fill="#ff0"/>
<text x="20" y="225" class="sm">0.005415</text>
<rect x="100" y="215" width="242" height="12" fill="#00f"/>
<rect x="517" y="215" width="76" height="12" fill="#00f"/>
<rect x="687" y="215" width="264" height="12" fill="#00f"/>
<line x1="342" y1="221" x2="516" y2="221" stroke="#00f"/>
<line x1="593" y1="221" x2="686" y2="221" stroke="#00f"/>
<rect x="208" y="216" width="134" height="10" fill="#ff0"/>
<rect x="518" y="216" width="75" height="10" fill="#ff0"/>
<rect x="688" y="216" width="79" height="10" fill="#ff0"/>
<text x="20" y="245" class="sm">0.0042</text>
<rect x="100" y="235" width="242" height="12" fill="#00f"/>
<rect x="494" y="235" width="143" height="12" fill="#00f"/>
<rect x="687" y="235" width="264" height="12" fill="#00f"/>
<line x1="342" y1="241" x2="493" y2="241" stroke="#00f"/>
<line x1="637" y1="241" x2="686" y2="241" stroke="#00f"/>
<rect x="208" y="236" width="134" height="10" fill="#ff0"/>
<rect x="495" y="236" width="68" height="10" fill="#ff0"/>
<text x="20" y="265" class="sm">0.003342</text>
<rect x="100" y="255" width="221" height="12" fill="#00f"/>
<rect x="517" y="255" width="120" height="12" fill="#00f"/>
<rect x="687" y="255" width="264" height="12" fill="#00f"/>
<line x1="321" y1="261" x2="516" y2="261" stroke="#00f"/>
<line x1="637" y1="261" x2="686" y2="261" stroke="#00f"/>
<rect x="208" y="256" width="113" height="10" fill="#ff0"/>
<rect x="518" y="256" width="119" height="10" fill="#ff0"/>
<rect x="688" y="256" width="173" height="10" fill="#ff0"/>
<text x="20" y="285" class="sm">0.003337</text>
<rect x="100" y="275" width="246" height="12" fill="#00f"/>
<rect x="517" y="275" width="120" height="12" fill="#00f"/>
<rect x="687" y="275" width="264" height="12" fill="#00f"/>
<line x1="346" y1="281" x2="516" y2="281" stroke="#00f"/>
<line x1="637" y1="281" x2="686" y2="281" stroke="#00f"/>
<rect x="700" y="276" width="161" height="10" fill="#ff0"/>
<text x="20" y="305" class="sm">0.002922</text>
<rect x="100" y="295" width="352" height="12" fill="#00f"/>
<rect x="517" y="295" width="120" height="12" fill="#00f"/>
<rect x="687" y="295" width="264" height="12" fill="#00f"/>
<line x1="452" y1="301" x2="516" y2="301" stroke="#00f"/>
<line x1="637" y1="301" x2="686" y2="301" stroke="#00f"/>
<rect x="208" y="296" width="176" height="10" fill="#ff0"/>
<text x="20" y="325" class="sm">0.002391</text>
<rect x="100" y="315" width="199" height="12" fill="#00f"/>
<rect x="517" y="315" width="120" height="12" fill="#00f"/>
<rect x="687" y="315" width="264" height="12" fill="#00f"/>
<line x1="299" y1="321" x2="516" y2="321" stroke="#00f"/>
<line x1="637" y1="321" x2="686" y2="321" stroke="#00f"/>
<rect x="700" y="316" width="161" height="10" fill="#ff0"/>
<text x="20" y="345" class="sm">0.002218</text>
<rect x="100" y="335" width="292" height="12" fill="#00f"/>
<rect x="517" y="335" width="120" height="12" fill="#00f"/>
<rect x="687" y="335" width="264" height="12" fill="#00f"/>
<line x1="392" y1="341" x2="516" y2="341" stroke="#00f"/>
<line x1="637" y1="341" x2="686" y2="341" stroke="#00f"/>
<rect x="208" y="336" width="176" height="10" fill="#ff0"/>
<text x="20" y="365" class="sm">0.001977</text>
<rect x="100" y="355" width="242" height="12" fill="#00f"/>
<rect x="457" y="355" width="180" height="12" fill="#00f"/>
<rect x="687" y="355" width="264" height="12" fill="#00f"/>
<line x1="342" y1="361" x2="456" y2="361" stroke="#00f"/>
<line x1="637" y1="361" x2="686" y2="361" stroke="#00f"/>
<rect x="700" y="356" width="161" height="10" fill="#ff0"/>
<text x="20" y="385" class="sm">0.0018</text>
<rect x="100" y="375" width="242" height="12" fill="#00f"/>
<rect x="517" y="375" width="120" height="12" fill="#00f"/>
<rect x="687" y="375" width="132" height="12" fill="#00f"/>
<rect x="861" y="375" width="90" height="12" fill="#00f"/>
<line x1="342" y1="381" x2="516" y2="381" stroke="#00f"/>
<line x1="637" y1="381" x2="686" y2="381" stroke="#00f"/>
<line x1="819" y1="381" x2="860" y2="381" stroke="#00f"/>
<rect x="208" y="376" width="134" height="10" fill="#ff0"/>
<rect x="518" y="376" width="119" height="10" fill="#ff0"/>
<rect x="688" y="376" width="131" height="10" fill="#ff0"/>
<rect x="862" y="376" width="53" height="10" fill="#ff0"/>
<text x="20" y="405" class="sm">0.001734</text>
<rect x="100" y="395" width="242" height="12" fill="#00f"/>
<rect x="425" y="395" width="212" height="12" fill="#00f"/>
<rect x="687" y="395" width="264" height="12" fill="#00f"/>
<line x1="342" y1="401" x2="424" y2="401" stroke="#00f"/>
<line x1="637" y1="401" x2="686" y2="401" stroke="#00f"/>
<rect x="208" y="396" width="134" height="10" fill="#ff0"/>
<rect x="426" y="396" width="137" height="10" fill="#ff0"/>
<text x="20" y="425" class="sm">0.001443</text>
<rect x="100" y="415" width="242" height="12" fill="#00f"/>
<rect x="463" y="415" width="174" height="12" fill="#00f"/>
<rect x="687" y="415" width="264" height="12" fill="#00f"/>
<line x1="342" y1="421" x2="462" y2="421" stroke="#00f"/>
<line x1="637" y1="421" x2="686" y2="421" stroke="#00f"/>
<rect x="700" y="416" width="161" height="10" fill="#ff0"/>
<text x="20" y="445" class="sm">0.001253</text>
<rect x="100" y="435" width="362" height="12" fill="#00f"/>
<rect x="517" y="435" width="120" height="12" fill="#00f"/>
<rect x="687" y="435" width="264" height="12" fill="#00f"/>
<line x1="462" y1="441" x2="516" y2="441" stroke="#00f"/>
<line x1="637" y1="441" x2="686" y2="441" stroke="#00f"/>
<rect x="451" y="436" width="11" height="10" fill="#ff0"/>
<rect x="518" y="436" width="119" height="10" fill="#ff0"/>
<rect x="688" y="436" width="173" height="10" fill="#ff0"/>
<text x="20" y="465" class="sm">0.001034</text>
<rect x="100" y="455" width="242" height="12" fill="#00f"/>
<rect x="517" y="455" width="434" height="12" fill="#00f"/>
<line x1="342" y1="461" x2="516" y2="461" stroke="#00f"/>
<rect x="208" y="456" width="134" height="10" fill="#ff0"/>
<rect x="518" y="456" width="140" height="10" fill="#ff0"/>
<text x="20" y="485" class="sm">0.001024</text>
<rect x="100" y="475" width="242" height="12" fill="#00f"/>
<rect x="449" y="475" width="188" height="12" fill="#00f"/>
<rect x="687" y="475" width="264" height="12" fill="#00f"/>
<line x1="342" y1="481" x2="448" y2="481" stroke="#00f"/>
<line x1="637" y1="481" x2="686" y2="481" stroke="#00f"/>
<rect x="208" y="476" width="134" height="10" fill="#ff0"/>
<rect x="450" y="476" width="113" height="10" fill="#ff0"/>
</svg>
