<svg viewBox="0 0 1021 510" xmlns="http://www.w3.org/2000/svg">

<style>
  .sm { font: 12px sans-serif; }
  .lg { font: 15px sans-serif; }
</style>
<rect fill="#ddd" x="0" y="0" width="100%" height="100%"/>
<text x="20" y="20" class="lg">ch.15864 V:13992556-13993576 Gene:WBGene00010262</text>
<text x="20" y="50" class="sm">WormBase</text>
<rect x="100" y="40" width="442" height="12" fill="#00f"/>
<rect x="608" y="40" width="313" height="12" fill="#00f"/>
<line x1="542" y1="46" x2="607" y2="46" stroke="#00f"/>
<rect x="207" y="41" width="335" height="10" fill="#ff0"/>
<rect x="609" y="41" width="140" height="10" fill="#ff0"/>
<rect x="101" y="41" width="105" height="10" fill="brown"><title>.</title></rect>
<rect x="750" y="41" width="171" height="10" fill="brown"><title>.</title></rect>
<text x="20" y="70" class="sm">Fitness: 0.00016792021220597342</text>
<rect x="542" y="65" width="66" height="5" fill="#00f"><title>250490.0</title></rect>
<rect x="542" y="70" width="102" height="5" fill="#00f"><title>217.0</title></rect>
<text x="20" y="100" class="sm">0.9991</text>
<rect x="100" y="90" width="442" height="12" fill="#00f"/>
<rect x="608" y="90" width="316" height="12" fill="#00f"/>
<line x1="542" y1="96" x2="607" y2="96" stroke="#00f"/>
<rect x="207" y="91" width="335" height="10" fill="#ff0"/>
<rect x="609" y="91" width="140" height="10" fill="#ff0"/>
<text x="20" y="120" class="sm">0.0007889</text>
<rect x="100" y="110" width="442" height="12" fill="#00f"/>
<rect x="644" y="110" width="280" height="12" fill="#00f"/>
<line x1="542" y1="116" x2="643" y2="116" stroke="#00f"/>
<rect x="207" y="111" width="335" height="10" fill="#ff0"/>
<rect x="645" y="111" width="104" height="10" fill="#ff0"/>
<text x="20" y="140" class="sm">8.296e-05</text>
<rect x="100" y="130" width="427" height="12" fill="#00f"/>
<rect x="608" y="130" width="316" height="12" fill="#00f"/>
<line x1="527" y1="136" x2="607" y2="136" stroke="#00f"/>
<rect x="207" y="131" width="320" height="10" fill="#ff0"/>
<rect x="609" y="131" width="140" height="10" fill="#ff0"/>
<text x="20" y="160" class="sm">4.772e-07</text>
<rect x="100" y="150" width="446" height="12" fill="#00f"/>
<rect x="608" y="150" width="316" height="12" fill="#00f"/>
<line x1="546" y1="156" x2="607" y2="156" stroke="#00f"/>
<rect x="207" y="151" width="339" height="10" fill="#ff0"/>
<rect x="609" y="151" width="112" height="10" fill="#ff0"/>
<text x="20" y="180" class="sm">2.052e-07</text>
<rect x="100" y="170" width="418" height="12" fill="#00f"/>
<rect x="608" y="170" width="316" height="12" fill="#00f"/>
<line x1="518" y1="176" x2="607" y2="176" stroke="#00f"/>
<rect x="207" y="171" width="311" height="10" fill="#ff0"/>
<rect x="609" y="171" width="140" height="10" fill="#ff0"/>
<text x="20" y="200" class="sm">1.488e-07</text>
<rect x="100" y="190" width="427" height="12" fill="#00f"/>
<rect x="644" y="190" width="280" height="12" fill="#00f"/>
<line x1="527" y1="196" x2="643" y2="196" stroke="#00f"/>
<rect x="207" y="191" width="320" height="10" fill="#ff0"/>
<rect x="645" y="191" width="104" height="10" fill="#ff0"/>
<text x="20" y="220" class="sm">1.368e-07</text>
<rect x="100" y="210" width="442" height="12" fill="#00f"/>
<rect x="649" y="210" width="275" height="12" fill="#00f"/>
<line x1="542" y1="216" x2="648" y2="216" stroke="#00f"/>
<rect x="207" y="211" width="335" height="10" fill="#ff0"/>
<rect x="650" y="211" width="71" height="10" fill="#ff0"/>
<text x="20" y="240" class="sm">2.426e-08</text>
<rect x="100" y="230" width="442" height="12" fill="#00f"/>
<rect x="578" y="230" width="346" height="12" fill="#00f"/>
<line x1="542" y1="236" x2="577" y2="236" stroke="#00f"/>
<rect x="207" y="231" width="335" height="10" fill="#ff0"/>
<rect x="579" y="231" width="170" height="10" fill="#ff0"/>
<text x="20" y="260" class="sm">2.669e-09</text>
<rect x="100" y="250" width="427" height="12" fill="#00f"/>
<rect x="578" y="250" width="346" height="12" fill="#00f"/>
<line x1="527" y1="256" x2="577" y2="256" stroke="#00f"/>
<rect x="207" y="251" width="320" height="10" fill="#ff0"/>
<rect x="579" y="251" width="170" height="10" fill="#ff0"/>
<text x="20" y="280" class="sm">1.303e-09</text>
<rect x="100" y="270" width="431" height="12" fill="#00f"/>
<rect x="608" y="270" width="316" height="12" fill="#00f"/>
<line x1="531" y1="276" x2="607" y2="276" stroke="#00f"/>
<rect x="207" y="271" width="324" height="10" fill="#ff0"/>
<rect x="609" y="271" width="112" height="10" fill="#ff0"/>
<text x="20" y="300" class="sm">6.498e-10</text>
<rect x="100" y="290" width="418" height="12" fill="#00f"/>
<rect x="561" y="290" width="363" height="12" fill="#00f"/>
<line x1="518" y1="296" x2="560" y2="296" stroke="#00f"/>
<rect x="207" y="291" width="311" height="10" fill="#ff0"/>
<rect x="562" y="291" width="5" height="10" fill="#ff0"/>
<text x="20" y="320" class="sm">5.861e-10</text>
<rect x="100" y="310" width="418" height="12" fill="#00f"/>
<rect x="644" y="310" width="280" height="12" fill="#00f"/>
<line x1="518" y1="316" x2="643" y2="316" stroke="#00f"/>
<rect x="207" y="311" width="311" height="10" fill="#ff0"/>
<rect x="645" y="311" width="104" height="10" fill="#ff0"/>
<text x="20" y="340" class="sm">1.831e-10</text>
<rect x="100" y="330" width="446" height="12" fill="#00f"/>
<rect x="644" y="330" width="280" height="12" fill="#00f"/>
<line x1="546" y1="336" x2="643" y2="336" stroke="#00f"/>
<rect x="207" y="331" width="339" height="10" fill="#ff0"/>
<rect x="645" y="331" width="76" height="10" fill="#ff0"/>
<text x="20" y="360" class="sm">1.262e-10</text>
<rect x="100" y="350" width="484" height="12" fill="#00f"/>
<rect x="644" y="350" width="280" height="12" fill="#00f"/>
<line x1="584" y1="356" x2="643" y2="356" stroke="#00f"/>
<rect x="207" y="351" width="365" height="10" fill="#ff0"/>
<text x="20" y="380" class="sm">2.95e-11</text>
<rect x="100" y="370" width="390" height="12" fill="#00f"/>
<rect x="608" y="370" width="316" height="12" fill="#00f"/>
<line x1="490" y1="376" x2="607" y2="376" stroke="#00f"/>
<rect x="207" y="371" width="283" height="10" fill="#ff0"/>
<rect x="609" y="371" width="147" height="10" fill="#ff0"/>
<text x="20" y="400" class="sm">1.541e-11</text>
<rect x="100" y="390" width="427" height="12" fill="#00f"/>
<rect x="649" y="390" width="275" height="12" fill="#00f"/>
<line x1="527" y1="396" x2="648" y2="396" stroke="#00f"/>
<rect x="207" y="391" width="320" height="10" fill="#ff0"/>
<rect x="650" y="391" width="71" height="10" fill="#ff0"/>
<text x="20" y="420" class="sm">2.504e-12</text>
<rect x="100" y="410" width="431" height="12" fill="#00f"/>
<rect x="644" y="410" width="280" height="12" fill="#00f"/>
<line x1="531" y1="416" x2="643" y2="416" stroke="#00f"/>
<rect x="207" y="411" width="324" height="10" fill="#ff0"/>
<rect x="645" y="411" width="76" height="10" fill="#ff0"/>
<text x="20" y="440" class="sm">8.263e-13</text>
<rect x="100" y="430" width="418" height="12" fill="#00f"/>
<rect x="578" y="430" width="346" height="12" fill="#00f"/>
<line x1="518" y1="436" x2="577" y2="436" stroke="#00f"/>
<rect x="207" y="431" width="311" height="10" fill="#ff0"/>
<rect x="579" y="431" width="170" height="10" fill="#ff0"/>
<text x="20" y="460" class="sm">7.18e-13</text>
<rect x="100" y="450" width="442" height="12" fill="#00f"/>
<rect x="608" y="450" width="36" height="12" fill="#00f"/>
<rect x="735" y="450" width="189" height="12" fill="#00f"/>
<line x1="542" y1="456" x2="607" y2="456" stroke="#00f"/>
<line x1="644" y1="456" x2="734" y2="456" stroke="#00f"/>
<rect x="207" y="451" width="335" height="10" fill="#ff0"/>
<rect x="609" y="451" width="35" height="10" fill="#ff0"/>
<rect x="736" y="451" width="20" height="10" fill="#ff0"/>
<text x="20" y="480" class="sm">1.919e-13</text>
<rect x="100" y="470" width="442" height="12" fill="#00f"/>
<rect x="608" y="470" width="36" height="12" fill="#00f"/>
<rect x="693" y="470" width="231" height="12" fill="#00f"/>
<line x1="542" y1="476" x2="607" y2="476" stroke="#00f"/>
<line x1="644" y1="476" x2="692" y2="476" stroke="#00f"/>
<rect x="207" y="471" width="335" height="10" fill="#ff0"/>
<rect x="609" y="471" width="35" height="10" fill="#ff0"/>
<rect x="694" y="471" width="62" height="10" fill="#ff0"/>
</svg>
