<svg viewBox="0 0 910 555" xmlns="http://www.w3.org/2000/svg">

<style>
  .sm { font: 12px sans-serif; }
  .lg { font: 15px sans-serif; }
</style>
<rect fill="#ddd" x="0" y="0" width="100%" height="100%"/>
<text x="20" y="20" class="lg">ch.15722 V:13468276-13469185 Gene:WBGene00009139</text>
<text x="20" y="50" class="sm">WormBase</text>
<rect x="100" y="40" width="140" height="12" fill="#00f"/>
<rect x="296" y="40" width="121" height="12" fill="#00f"/>
<rect x="463" y="40" width="66" height="12" fill="#00f"/>
<rect x="580" y="40" width="230" height="12" fill="#00f"/>
<line x1="240" y1="46" x2="295" y2="46" stroke="#00f"/>
<line x1="417" y1="46" x2="462" y2="46" stroke="#00f"/>
<line x1="529" y1="46" x2="579" y2="46" stroke="#00f"/>
<rect x="164" y="41" width="76" height="10" fill="#ff0"/>
<rect x="297" y="41" width="120" height="10" fill="#ff0"/>
<rect x="464" y="41" width="65" height="10" fill="#ff0"/>
<rect x="581" y="41" width="149" height="10" fill="#ff0"/>
<rect x="101" y="41" width="62" height="10" fill="brown"><title>.</title></rect>
<rect x="731" y="41" width="79" height="10" fill="brown"><title>.</title></rect>
<text x="20" y="70" class="sm">WormBase</text>
<rect x="330" y="60" width="87" height="12" fill="#00f"/>
<rect x="463" y="60" width="66" height="12" fill="#00f"/>
<rect x="580" y="60" width="150" height="12" fill="#00f"/>
<line x1="417" y1="66" x2="462" y2="66" stroke="#00f"/>
<line x1="529" y1="66" x2="579" y2="66" stroke="#00f"/>
<rect x="331" y="61" width="86" height="10" fill="#ff0"/>
<rect x="464" y="61" width="65" height="10" fill="#ff0"/>
<rect x="581" y="61" width="149" height="10" fill="#ff0"/>
<text x="20" y="90" class="sm">Fitness: 0.1283151528801113</text>
<rect x="529" y="85" width="51" height="5" fill="#00f"><title>322484.0</title></rect>
<rect x="417" y="90" width="46" height="5" fill="#00f"><title>304308.0</title></rect>
<rect x="240" y="95" width="56" height="5" fill="#00f"><title>195248.0</title></rect>
<rect x="529" y="100" width="58" height="5" fill="#00f"><title>102.0</title></rect>
<rect x="32" y="105" width="576" height="5" fill="#f0f"><title>6.0</title></rect>
<rect x="32" y="110" width="100" height="5" fill="#f0f"><title>3.0</title></rect>
<rect x="533" y="115" width="54" height="5" fill="#00f"><title>3.0</title></rect>
<text x="20" y="145" class="sm">0.7452</text>
<rect x="100" y="135" width="140" height="12" fill="#00f"/>
<rect x="296" y="135" width="121" height="12" fill="#00f"/>
<rect x="463" y="135" width="66" height="12" fill="#00f"/>
<rect x="580" y="135" width="233" height="12" fill="#00f"/>
<line x1="240" y1="141" x2="295" y2="141" stroke="#00f"/>
<line x1="417" y1="141" x2="462" y2="141" stroke="#00f"/>
<line x1="529" y1="141" x2="579" y2="141" stroke="#00f"/>
<rect x="164" y="136" width="76" height="10" fill="#ff0"/>
<rect x="297" y="136" width="120" height="10" fill="#ff0"/>
<rect x="464" y="136" width="65" height="10" fill="#ff0"/>
<rect x="581" y="136" width="149" height="10" fill="#ff0"/>
<text x="20" y="165" class="sm">0.1582</text>
<rect x="100" y="155" width="317" height="12" fill="#00f"/>
<rect x="463" y="155" width="66" height="12" fill="#00f"/>
<rect x="580" y="155" width="233" height="12" fill="#00f"/>
<line x1="417" y1="161" x2="462" y2="161" stroke="#00f"/>
<line x1="529" y1="161" x2="579" y2="161" stroke="#00f"/>
<rect x="331" y="156" width="86" height="10" fill="#ff0"/>
<rect x="464" y="156" width="65" height="10" fill="#ff0"/>
<rect x="581" y="156" width="149" height="10" fill="#ff0"/>
<text x="20" y="185" class="sm">0.06847</text>
<rect x="100" y="175" width="140" height="12" fill="#00f"/>
<rect x="296" y="175" width="233" height="12" fill="#00f"/>
<rect x="580" y="175" width="233" height="12" fill="#00f"/>
<line x1="240" y1="181" x2="295" y2="181" stroke="#00f"/>
<line x1="529" y1="181" x2="579" y2="181" stroke="#00f"/>
<rect x="164" y="176" width="76" height="10" fill="#ff0"/>
<rect x="297" y="176" width="135" height="10" fill="#ff0"/>
<text x="20" y="205" class="sm">0.01554</text>
<rect x="100" y="195" width="429" height="12" fill="#00f"/>
<rect x="580" y="195" width="233" height="12" fill="#00f"/>
<line x1="529" y1="201" x2="579" y2="201" stroke="#00f"/>
<rect x="476" y="196" width="53" height="10" fill="#ff0"/>
<rect x="581" y="196" width="149" height="10" fill="#ff0"/>
<text x="20" y="225" class="sm">0.0098</text>
<rect x="100" y="215" width="154" height="12" fill="#00f"/>
<rect x="296" y="215" width="121" height="12" fill="#00f"/>
<rect x="463" y="215" width="66" height="12" fill="#00f"/>
<rect x="580" y="215" width="233" height="12" fill="#00f"/>
<line x1="254" y1="221" x2="295" y2="221" stroke="#00f"/>
<line x1="417" y1="221" x2="462" y2="221" stroke="#00f"/>
<line x1="529" y1="221" x2="579" y2="221" stroke="#00f"/>
<rect x="331" y="216" width="86" height="10" fill="#ff0"/>
<rect x="464" y="216" width="65" height="10" fill="#ff0"/>
<rect x="581" y="216" width="149" height="10" fill="#ff0"/>
<text x="20" y="245" class="sm">0.0009004</text>
<rect x="100" y="235" width="154" height="12" fill="#00f"/>
<rect x="296" y="235" width="233" height="12" fill="#00f"/>
<rect x="580" y="235" width="233" height="12" fill="#00f"/>
<line x1="254" y1="241" x2="295" y2="241" stroke="#00f"/>
<line x1="529" y1="241" x2="579" y2="241" stroke="#00f"/>
<rect x="476" y="236" width="53" height="10" fill="#ff0"/>
<rect x="581" y="236" width="149" height="10" fill="#ff0"/>
<text x="20" y="265" class="sm">0.0007386</text>
<rect x="100" y="255" width="140" height="12" fill="#00f"/>
<rect x="296" y="255" width="121" height="12" fill="#00f"/>
<rect x="463" y="255" width="350" height="12" fill="#00f"/>
<line x1="240" y1="261" x2="295" y2="261" stroke="#00f"/>
<line x1="417" y1="261" x2="462" y2="261" stroke="#00f"/>
<rect x="164" y="256" width="76" height="10" fill="#ff0"/>
<rect x="297" y="256" width="120" height="10" fill="#ff0"/>
<rect x="464" y="256" width="266" height="10" fill="#ff0"/>
<text x="20" y="285" class="sm">0.0003107</text>
<rect x="100" y="275" width="140" height="12" fill="#00f"/>
<rect x="296" y="275" width="121" height="12" fill="#00f"/>
<rect x="463" y="275" width="70" height="12" fill="#00f"/>
<rect x="580" y="275" width="233" height="12" fill="#00f"/>
<line x1="240" y1="281" x2="295" y2="281" stroke="#00f"/>
<line x1="417" y1="281" x2="462" y2="281" stroke="#00f"/>
<line x1="533" y1="281" x2="579" y2="281" stroke="#00f"/>
<rect x="164" y="276" width="76" height="10" fill="#ff0"/>
<rect x="297" y="276" width="120" height="10" fill="#ff0"/>
<rect x="464" y="276" width="69" height="10" fill="#ff0"/>
<rect x="581" y="276" width="16" height="10" fill="#ff0"/>
<text x="20" y="305" class="sm">0.0001698</text>
<rect x="100" y="295" width="140" height="12" fill="#00f"/>
<rect x="296" y="295" width="121" height="12" fill="#00f"/>
<rect x="463" y="295" width="66" height="12" fill="#00f"/>
<rect x="587" y="295" width="226" height="12" fill="#00f"/>
<line x1="240" y1="301" x2="295" y2="301" stroke="#00f"/>
<line x1="417" y1="301" x2="462" y2="301" stroke="#00f"/>
<line x1="529" y1="301" x2="586" y2="301" stroke="#00f"/>
<rect x="164" y="296" width="76" height="10" fill="#ff0"/>
<rect x="297" y="296" width="120" height="10" fill="#ff0"/>
<rect x="464" y="296" width="65" height="10" fill="#ff0"/>
<rect x="588" y="296" width="50" height="10" fill="#ff0"/>
<text x="20" y="325" class="sm">0.0001568</text>
<rect x="100" y="315" width="317" height="12" fill="#00f"/>
<rect x="463" y="315" width="350" height="12" fill="#00f"/>
<line x1="417" y1="321" x2="462" y2="321" stroke="#00f"/>
<rect x="331" y="316" width="86" height="10" fill="#ff0"/>
<rect x="464" y="316" width="266" height="10" fill="#ff0"/>
<text x="20" y="345" class="sm">0.0001465</text>
<rect x="100" y="335" width="116" height="12" fill="#00f"/>
<rect x="296" y="335" width="121" height="12" fill="#00f"/>
<rect x="463" y="335" width="66" height="12" fill="#00f"/>
<rect x="580" y="335" width="233" height="12" fill="#00f"/>
<line x1="216" y1="341" x2="295" y2="341" stroke="#00f"/>
<line x1="417" y1="341" x2="462" y2="341" stroke="#00f"/>
<line x1="529" y1="341" x2="579" y2="341" stroke="#00f"/>
<rect x="164" y="336" width="52" height="10" fill="#ff0"/>
<rect x="297" y="336" width="120" height="10" fill="#ff0"/>
<rect x="464" y="336" width="65" height="10" fill="#ff0"/>
<rect x="581" y="336" width="149" height="10" fill="#ff0"/>
<text x="20" y="365" class="sm">0.0001261</text>
<rect x="100" y="355" width="140" height="12" fill="#00f"/>
<rect x="296" y="355" width="517" height="12" fill="#00f"/>
<line x1="240" y1="361" x2="295" y2="361" stroke="#00f"/>
<rect x="476" y="356" width="254" height="10" fill="#ff0"/>
<text x="20" y="385" class="sm">6.597e-05</text>
<rect x="100" y="375" width="317" height="12" fill="#00f"/>
<rect x="463" y="375" width="70" height="12" fill="#00f"/>
<rect x="580" y="375" width="233" height="12" fill="#00f"/>
<line x1="417" y1="381" x2="462" y2="381" stroke="#00f"/>
<line x1="533" y1="381" x2="579" y2="381" stroke="#00f"/>
<rect x="331" y="376" width="86" height="10" fill="#ff0"/>
<rect x="464" y="376" width="69" height="10" fill="#ff0"/>
<rect x="581" y="376" width="16" height="10" fill="#ff0"/>
<text x="20" y="405" class="sm">3.606e-05</text>
<rect x="100" y="395" width="317" height="12" fill="#00f"/>
<rect x="463" y="395" width="66" height="12" fill="#00f"/>
<rect x="587" y="395" width="226" height="12" fill="#00f"/>
<line x1="417" y1="401" x2="462" y2="401" stroke="#00f"/>
<line x1="529" y1="401" x2="586" y2="401" stroke="#00f"/>
<rect x="331" y="396" width="86" height="10" fill="#ff0"/>
<rect x="464" y="396" width="65" height="10" fill="#ff0"/>
<rect x="588" y="396" width="50" height="10" fill="#ff0"/>
<text x="20" y="425" class="sm">3.584e-05</text>
<rect x="100" y="415" width="140" height="12" fill="#00f"/>
<rect x="296" y="415" width="237" height="12" fill="#00f"/>
<rect x="580" y="415" width="233" height="12" fill="#00f"/>
<line x1="240" y1="421" x2="295" y2="421" stroke="#00f"/>
<line x1="533" y1="421" x2="579" y2="421" stroke="#00f"/>
<rect x="164" y="416" width="76" height="10" fill="#ff0"/>
<rect x="297" y="416" width="135" height="10" fill="#ff0"/>
<text x="20" y="445" class="sm">2.023e-05</text>
<rect x="100" y="435" width="140" height="12" fill="#00f"/>
<rect x="296" y="435" width="121" height="12" fill="#00f"/>
<rect x="580" y="435" width="233" height="12" fill="#00f"/>
<line x1="240" y1="441" x2="295" y2="441" stroke="#00f"/>
<line x1="417" y1="441" x2="579" y2="441" stroke="#00f"/>
<rect x="164" y="436" width="76" height="10" fill="#ff0"/>
<rect x="297" y="436" width="120" height="10" fill="#ff0"/>
<rect x="581" y="436" width="149" height="10" fill="#ff0"/>
<text x="20" y="465" class="sm">1.56e-05</text>
<rect x="100" y="455" width="140" height="12" fill="#00f"/>
<rect x="296" y="455" width="233" height="12" fill="#00f"/>
<rect x="587" y="455" width="226" height="12" fill="#00f"/>
<line x1="240" y1="461" x2="295" y2="461" stroke="#00f"/>
<line x1="529" y1="461" x2="586" y2="461" stroke="#00f"/>
<rect x="164" y="456" width="76" height="10" fill="#ff0"/>
<rect x="297" y="456" width="135" height="10" fill="#ff0"/>
<text x="20" y="485" class="sm">1.346e-05</text>
<rect x="100" y="475" width="116" height="12" fill="#00f"/>
<rect x="296" y="475" width="233" height="12" fill="#00f"/>
<rect x="580" y="475" width="233" height="12" fill="#00f"/>
<line x1="216" y1="481" x2="295" y2="481" stroke="#00f"/>
<line x1="529" y1="481" x2="579" y2="481" stroke="#00f"/>
<rect x="476" y="476" width="53" height="10" fill="#ff0"/>
<rect x="581" y="476" width="149" height="10" fill="#ff0"/>
<text x="20" y="505" class="sm">9.712e-06</text>
<rect x="100" y="495" width="154" height="12" fill="#00f"/>
<rect x="296" y="495" width="121" height="12" fill="#00f"/>
<rect x="463" y="495" width="350" height="12" fill="#00f"/>
<line x1="254" y1="501" x2="295" y2="501" stroke="#00f"/>
<line x1="417" y1="501" x2="462" y2="501" stroke="#00f"/>
<rect x="331" y="496" width="86" height="10" fill="#ff0"/>
<rect x="464" y="496" width="266" height="10" fill="#ff0"/>
<text x="20" y="525" class="sm">8.074e-06</text>
<rect x="100" y="515" width="433" height="12" fill="#00f"/>
<rect x="580" y="515" width="233" height="12" fill="#00f"/>
<line x1="533" y1="521" x2="579" y2="521" stroke="#00f"/>
<rect x="599" y="516" width="131" height="10" fill="#ff0"/>
</svg>
