<svg viewBox="0 0 705 545" xmlns="http://www.w3.org/2000/svg">

<style>
  .sm { font: 12px sans-serif; }
  .lg { font: 15px sans-serif; }
</style>
<rect fill="#ddd" x="0" y="0" width="100%" height="100%"/>
<text x="20" y="20" class="lg">ch.16275 V:15444816-15445520 Gene:WBGene00044206</text>
<text x="20" y="50" class="sm">WormBase</text>
<rect x="100" y="40" width="120" height="12" fill="#00f"/>
<rect x="386" y="40" width="166" height="12" fill="#00f"/>
<line x1="220" y1="46" x2="385" y2="46" stroke="#00f"/>
<rect x="109" y="41" width="111" height="10" fill="#ff0"/>
<rect x="387" y="41" width="28" height="10" fill="#ff0"/>
<rect x="101" y="41" width="7" height="10" fill="brown"><title>.</title></rect>
<rect x="416" y="41" width="136" height="10" fill="brown"><title>.</title></rect>
<text x="20" y="70" class="sm">WormBase</text>
<rect x="100" y="60" width="120" height="12" fill="#00f"/>
<rect x="373" y="60" width="232" height="12" fill="#00f"/>
<line x1="220" y1="66" x2="372" y2="66" stroke="#00f"/>
<rect x="109" y="61" width="111" height="10" fill="#ff0"/>
<rect x="374" y="61" width="112" height="10" fill="#ff0"/>
<rect x="101" y="61" width="7" height="10" fill="brown"><title>.</title></rect>
<rect x="487" y="61" width="118" height="10" fill="brown"><title>.</title></rect>
<text x="20" y="90" class="sm">Fitness: 0.0038085787345500427</text>
<rect x="220" y="85" width="153" height="5" fill="#00f"><title>842211.0</title></rect>
<rect x="220" y="90" width="166" height="5" fill="#00f"><title>75.0</title></rect>
<rect x="220" y="95" width="66" height="5" fill="#00f"><title>60.0</title></rect>
<rect x="35" y="100" width="67" height="5" fill="#00f"><title>8.0</title></rect>
<rect x="220" y="105" width="246" height="5" fill="#00f"><title>4.0</title></rect>
<text x="20" y="135" class="sm">0.9981</text>
<rect x="100" y="125" width="120" height="12" fill="#00f"/>
<rect x="373" y="125" width="235" height="12" fill="#00f"/>
<line x1="220" y1="131" x2="372" y2="131" stroke="#00f"/>
<rect x="109" y="126" width="111" height="10" fill="#ff0"/>
<rect x="374" y="126" width="112" height="10" fill="#ff0"/>
<text x="20" y="155" class="sm">0.0008268</text>
<rect x="100" y="145" width="166" height="12" fill="#00f"/>
<rect x="373" y="145" width="235" height="12" fill="#00f"/>
<line x1="266" y1="151" x2="372" y2="151" stroke="#00f"/>
<rect x="109" y="146" width="157" height="10" fill="#ff0"/>
<rect x="374" y="146" width="12" height="10" fill="#ff0"/>
<text x="20" y="175" class="sm">0.0005732</text>
<rect x="100" y="165" width="89" height="12" fill="#00f"/>
<rect x="373" y="165" width="235" height="12" fill="#00f"/>
<line x1="189" y1="171" x2="372" y2="171" stroke="#00f"/>
<rect x="109" y="166" width="80" height="10" fill="#ff0"/>
<rect x="374" y="166" width="41" height="10" fill="#ff0"/>
<text x="20" y="195" class="sm">0.000414</text>
<rect x="100" y="185" width="124" height="12" fill="#00f"/>
<rect x="373" y="185" width="235" height="12" fill="#00f"/>
<line x1="224" y1="191" x2="372" y2="191" stroke="#00f"/>
<rect x="109" y="186" width="115" height="10" fill="#ff0"/>
<rect x="374" y="186" width="12" height="10" fill="#ff0"/>
<text x="20" y="215" class="sm">6.818e-05</text>
<rect x="100" y="205" width="120" height="12" fill="#00f"/>
<rect x="571" y="205" width="37" height="12" fill="#00f"/>
<line x1="220" y1="211" x2="570" y2="211" stroke="#00f"/>
<rect x="109" y="206" width="111" height="10" fill="#ff0"/>
<rect x="572" y="206" width="4" height="10" fill="#ff0"/>
<text x="20" y="235" class="sm">1.929e-05</text>
<rect x="100" y="225" width="120" height="12" fill="#00f"/>
<rect x="386" y="225" width="222" height="12" fill="#00f"/>
<line x1="220" y1="231" x2="385" y2="231" stroke="#00f"/>
<rect x="109" y="226" width="111" height="10" fill="#ff0"/>
<rect x="387" y="226" width="28" height="10" fill="#ff0"/>
<text x="20" y="255" class="sm">1.272e-05</text>
<rect x="100" y="245" width="45" height="12" fill="#00f"/>
<rect x="373" y="245" width="235" height="12" fill="#00f"/>
<line x1="145" y1="251" x2="372" y2="251" stroke="#00f"/>
<rect x="487" y="246" width="83" height="10" fill="#ff0"/>
<text x="20" y="275" class="sm">3.989e-06</text>
<rect x="100" y="265" width="180" height="12" fill="#00f"/>
<rect x="373" y="265" width="235" height="12" fill="#00f"/>
<line x1="280" y1="271" x2="372" y2="271" stroke="#00f"/>
<rect x="109" y="266" width="161" height="10" fill="#ff0"/>
<text x="20" y="295" class="sm">2.469e-06</text>
<rect x="100" y="285" width="55" height="12" fill="#00f"/>
<rect x="373" y="285" width="235" height="12" fill="#00f"/>
<line x1="155" y1="291" x2="372" y2="291" stroke="#00f"/>
<rect x="487" y="286" width="83" height="10" fill="#ff0"/>
<text x="20" y="315" class="sm">1.651e-06</text>
<rect x="100" y="305" width="158" height="12" fill="#00f"/>
<rect x="373" y="305" width="235" height="12" fill="#00f"/>
<line x1="258" y1="311" x2="372" y2="311" stroke="#00f"/>
<rect x="109" y="306" width="149" height="10" fill="#ff0"/>
<rect x="374" y="306" width="41" height="10" fill="#ff0"/>
<text x="20" y="335" class="sm">8.37e-07</text>
<rect x="100" y="325" width="57" height="12" fill="#00f"/>
<rect x="373" y="325" width="235" height="12" fill="#00f"/>
<line x1="157" y1="331" x2="372" y2="331" stroke="#00f"/>
<rect x="487" y="326" width="83" height="10" fill="#ff0"/>
<text x="20" y="355" class="sm">2.762e-07</text>
<rect x="100" y="345" width="72" height="12" fill="#00f"/>
<rect x="373" y="345" width="235" height="12" fill="#00f"/>
<line x1="172" y1="351" x2="372" y2="351" stroke="#00f"/>
<rect x="487" y="346" width="83" height="10" fill="#ff0"/>
<text x="20" y="375" class="sm">5.52e-08</text>
<rect x="100" y="365" width="166" height="12" fill="#00f"/>
<rect x="571" y="365" width="37" height="12" fill="#00f"/>
<line x1="266" y1="371" x2="570" y2="371" stroke="#00f"/>
<rect x="109" y="366" width="157" height="10" fill="#ff0"/>
<rect x="572" y="366" width="27" height="10" fill="#ff0"/>
<text x="20" y="395" class="sm">4.145e-08</text>
<rect x="100" y="385" width="120" height="12" fill="#00f"/>
<rect x="415" y="385" width="193" height="12" fill="#00f"/>
<line x1="220" y1="391" x2="414" y2="391" stroke="#00f"/>
<rect x="109" y="386" width="111" height="10" fill="#ff0"/>
<rect x="416" y="386" width="70" height="10" fill="#ff0"/>
<text x="20" y="415" class="sm">3.959e-08</text>
<rect x="100" y="405" width="89" height="12" fill="#00f"/>
<rect x="571" y="405" width="37" height="12" fill="#00f"/>
<line x1="189" y1="411" x2="570" y2="411" stroke="#00f"/>
<rect x="167" y="406" width="22" height="10" fill="#ff0"/>
<rect x="572" y="406" width="27" height="10" fill="#ff0"/>
<text x="20" y="435" class="sm">2.852e-08</text>
<rect x="100" y="425" width="124" height="12" fill="#00f"/>
<rect x="571" y="425" width="37" height="12" fill="#00f"/>
<line x1="224" y1="431" x2="570" y2="431" stroke="#00f"/>
<rect x="109" y="426" width="115" height="10" fill="#ff0"/>
<rect x="572" y="426" width="27" height="10" fill="#ff0"/>
<text x="20" y="455" class="sm">1.572e-08</text>
<rect x="100" y="445" width="166" height="12" fill="#00f"/>
<rect x="386" y="445" width="222" height="12" fill="#00f"/>
<line x1="266" y1="451" x2="385" y2="451" stroke="#00f"/>
<rect x="109" y="446" width="157" height="10" fill="#ff0"/>
<rect x="387" y="446" width="99" height="10" fill="#ff0"/>
<text x="20" y="475" class="sm">1.105e-08</text>
<rect x="100" y="465" width="89" height="12" fill="#00f"/>
<rect x="386" y="465" width="222" height="12" fill="#00f"/>
<line x1="189" y1="471" x2="385" y2="471" stroke="#00f"/>
<rect x="109" y="466" width="80" height="10" fill="#ff0"/>
<rect x="387" y="466" width="68" height="10" fill="#ff0"/>
<text x="20" y="495" class="sm">8.231e-09</text>
<rect x="100" y="485" width="124" height="12" fill="#00f"/>
<rect x="386" y="485" width="222" height="12" fill="#00f"/>
<line x1="224" y1="491" x2="385" y2="491" stroke="#00f"/>
<rect x="109" y="486" width="115" height="10" fill="#ff0"/>
<rect x="387" y="486" width="99" height="10" fill="#ff0"/>
<text x="20" y="515" class="sm">4.085e-09</text>
<rect x="100" y="505" width="120" height="12" fill="#00f"/>
<rect x="579" y="505" width="29" height="12" fill="#00f"/>
<line x1="220" y1="511" x2="578" y2="511" stroke="#00f"/>
<rect x="109" y="506" width="111" height="10" fill="#ff0"/>
<rect x="580" y="506" width="19" height="10" fill="#ff0"/>
</svg>
