<svg viewBox="0 0 644 520" xmlns="http://www.w3.org/2000/svg">

<style>
  .sm { font: 12px sans-serif; }
  .lg { font: 15px sans-serif; }
</style>
<rect fill="#ddd" x="0" y="0" width="100%" height="100%"/>
<text x="20" y="20" class="lg">ch.18451 X:6086024-6086667 Gene:WBGene00016658</text>
<text x="20" y="50" class="sm">WormBase</text>
<rect x="100" y="40" width="128" height="12" fill="#00f"/>
<rect x="281" y="40" width="263" height="12" fill="#00f"/>
<line x1="228" y1="46" x2="280" y2="46" stroke="#00f"/>
<rect x="118" y="41" width="110" height="10" fill="#ff0"/>
<rect x="282" y="41" width="194" height="10" fill="#ff0"/>
<rect x="101" y="41" width="16" height="10" fill="brown"><title>.</title></rect>
<rect x="477" y="41" width="67" height="10" fill="brown"><title>.</title></rect>
<text x="20" y="70" class="sm">Fitness: 0.0002997648681627959</text>
<rect x="228" y="65" width="53" height="5" fill="#00f"><title>1265880.0</title></rect>
<rect x="228" y="70" width="57" height="5" fill="#00f"><title>180.0</title></rect>
<rect x="228" y="75" width="38" height="5" fill="#00f"><title>42.0</title></rect>
<rect x="364" y="80" width="48" height="5" fill="#00f"><title>12.0</title></rect>
<text x="20" y="110" class="sm">0.9998</text>
<rect x="100" y="100" width="128" height="12" fill="#00f"/>
<rect x="281" y="100" width="266" height="12" fill="#00f"/>
<line x1="228" y1="106" x2="280" y2="106" stroke="#00f"/>
<rect x="118" y="101" width="110" height="10" fill="#ff0"/>
<rect x="282" y="101" width="194" height="10" fill="#ff0"/>
<text x="20" y="130" class="sm">0.0001152</text>
<rect x="100" y="120" width="132" height="12" fill="#00f"/>
<rect x="281" y="120" width="266" height="12" fill="#00f"/>
<line x1="232" y1="126" x2="280" y2="126" stroke="#00f"/>
<rect x="191" y="121" width="41" height="10" fill="#ff0"/>
<rect x="282" y="121" width="194" height="10" fill="#ff0"/>
<text x="20" y="150" class="sm">5.549e-05</text>
<rect x="100" y="140" width="128" height="12" fill="#00f"/>
<rect x="285" y="140" width="262" height="12" fill="#00f"/>
<line x1="228" y1="146" x2="284" y2="146" stroke="#00f"/>
<rect x="118" y="141" width="110" height="10" fill="#ff0"/>
<rect x="286" y="141" width="197" height="10" fill="#ff0"/>
<text x="20" y="170" class="sm">3.354e-05</text>
<rect x="100" y="160" width="87" height="12" fill="#00f"/>
<rect x="281" y="160" width="266" height="12" fill="#00f"/>
<line x1="187" y1="166" x2="280" y2="166" stroke="#00f"/>
<rect x="325" y="161" width="158" height="10" fill="#ff0"/>
<text x="20" y="190" class="sm">9.025e-07</text>
<rect x="100" y="180" width="128" height="12" fill="#00f"/>
<rect x="281" y="180" width="191" height="12" fill="#00f"/>
<rect x="510" y="180" width="37" height="12" fill="#00f"/>
<line x1="228" y1="186" x2="280" y2="186" stroke="#00f"/>
<line x1="472" y1="186" x2="509" y2="186" stroke="#00f"/>
<rect x="118" y="181" width="110" height="10" fill="#ff0"/>
<rect x="282" y="181" width="190" height="10" fill="#ff0"/>
<rect x="511" y="181" width="18" height="10" fill="#ff0"/>
<text x="20" y="210" class="sm">1.515e-07</text>
<rect x="100" y="200" width="102" height="12" fill="#00f"/>
<rect x="281" y="200" width="266" height="12" fill="#00f"/>
<line x1="202" y1="206" x2="280" y2="206" stroke="#00f"/>
<rect x="195" y="201" width="7" height="10" fill="#ff0"/>
<rect x="282" y="201" width="201" height="10" fill="#ff0"/>
<text x="20" y="230" class="sm">7.501e-08</text>
<rect x="100" y="220" width="128" height="12" fill="#00f"/>
<rect x="281" y="220" width="83" height="12" fill="#00f"/>
<rect x="412" y="220" width="135" height="12" fill="#00f"/>
<line x1="228" y1="226" x2="280" y2="226" stroke="#00f"/>
<line x1="364" y1="226" x2="411" y2="226" stroke="#00f"/>
<rect x="118" y="221" width="110" height="10" fill="#ff0"/>
<rect x="282" y="221" width="82" height="10" fill="#ff0"/>
<rect x="413" y="221" width="63" height="10" fill="#ff0"/>
<text x="20" y="250" class="sm">2.906e-08</text>
<rect x="100" y="240" width="372" height="12" fill="#00f"/>
<rect x="510" y="240" width="37" height="12" fill="#00f"/>
<line x1="472" y1="246" x2="509" y2="246" stroke="#00f"/>
<rect x="118" y="241" width="134" height="10" fill="#ff0"/>
<text x="20" y="270" class="sm">1.96e-08</text>
<rect x="100" y="260" width="128" height="12" fill="#00f"/>
<rect x="281" y="260" width="109" height="12" fill="#00f"/>
<rect x="428" y="260" width="119" height="12" fill="#00f"/>
<line x1="228" y1="266" x2="280" y2="266" stroke="#00f"/>
<line x1="390" y1="266" x2="427" y2="266" stroke="#00f"/>
<rect x="118" y="261" width="110" height="10" fill="#ff0"/>
<rect x="282" y="261" width="108" height="10" fill="#ff0"/>
<rect x="429" y="261" width="100" height="10" fill="#ff0"/>
<text x="20" y="290" class="sm">9.482e-09</text>
<rect x="100" y="280" width="132" height="12" fill="#00f"/>
<rect x="285" y="280" width="262" height="12" fill="#00f"/>
<line x1="232" y1="286" x2="284" y2="286" stroke="#00f"/>
<rect x="118" y="281" width="114" height="10" fill="#ff0"/>
<rect x="286" y="281" width="190" height="10" fill="#ff0"/>
<text x="20" y="310" class="sm">8.98e-09</text>
<rect x="100" y="300" width="43" height="12" fill="#00f"/>
<rect x="281" y="300" width="266" height="12" fill="#00f"/>
<line x1="143" y1="306" x2="280" y2="306" stroke="#00f"/>
<rect x="118" y="301" width="25" height="10" fill="#ff0"/>
<rect x="282" y="301" width="201" height="10" fill="#ff0"/>
<text x="20" y="330" class="sm">5.274e-09</text>
<rect x="100" y="320" width="87" height="12" fill="#00f"/>
<rect x="285" y="320" width="262" height="12" fill="#00f"/>
<line x1="187" y1="326" x2="284" y2="326" stroke="#00f"/>
<rect x="118" y="321" width="69" height="10" fill="#ff0"/>
<rect x="286" y="321" width="190" height="10" fill="#ff0"/>
<text x="20" y="350" class="sm">5.098e-09</text>
<rect x="100" y="340" width="128" height="12" fill="#00f"/>
<rect x="266" y="340" width="281" height="12" fill="#00f"/>
<line x1="228" y1="346" x2="265" y2="346" stroke="#00f"/>
<rect x="118" y="341" width="110" height="10" fill="#ff0"/>
<rect x="267" y="341" width="209" height="10" fill="#ff0"/>
<text x="20" y="370" class="sm">5.086e-09</text>
<rect x="100" y="360" width="128" height="12" fill="#00f"/>
<rect x="311" y="360" width="236" height="12" fill="#00f"/>
<line x1="228" y1="366" x2="310" y2="366" stroke="#00f"/>
<rect x="118" y="361" width="110" height="10" fill="#ff0"/>
<rect x="312" y="361" width="164" height="10" fill="#ff0"/>
<text x="20" y="390" class="sm">4.267e-09</text>
<rect x="100" y="380" width="264" height="12" fill="#00f"/>
<rect x="412" y="380" width="135" height="12" fill="#00f"/>
<line x1="364" y1="386" x2="411" y2="386" stroke="#00f"/>
<rect x="118" y="381" width="134" height="10" fill="#ff0"/>
<text x="20" y="410" class="sm">3.023e-09</text>
<rect x="100" y="400" width="128" height="12" fill="#00f"/>
<rect x="281" y="400" width="109" height="12" fill="#00f"/>
<rect x="441" y="400" width="106" height="12" fill="#00f"/>
<line x1="228" y1="406" x2="280" y2="406" stroke="#00f"/>
<line x1="390" y1="406" x2="440" y2="406" stroke="#00f"/>
<rect x="118" y="401" width="110" height="10" fill="#ff0"/>
<rect x="282" y="401" width="108" height="10" fill="#ff0"/>
<rect x="442" y="401" width="34" height="10" fill="#ff0"/>
<text x="20" y="430" class="sm">2.831e-09</text>
<rect x="100" y="420" width="128" height="12" fill="#00f"/>
<rect x="281" y="420" width="67" height="12" fill="#00f"/>
<rect x="412" y="420" width="135" height="12" fill="#00f"/>
<line x1="228" y1="426" x2="280" y2="426" stroke="#00f"/>
<line x1="348" y1="426" x2="411" y2="426" stroke="#00f"/>
<rect x="118" y="421" width="110" height="10" fill="#ff0"/>
<rect x="282" y="421" width="66" height="10" fill="#ff0"/>
<rect x="413" y="421" width="70" height="10" fill="#ff0"/>
<text x="20" y="450" class="sm">2.8e-09</text>
<rect x="100" y="440" width="128" height="12" fill="#00f"/>
<rect x="281" y="440" width="83" height="12" fill="#00f"/>
<rect x="428" y="440" width="119" height="12" fill="#00f"/>
<line x1="228" y1="446" x2="280" y2="446" stroke="#00f"/>
<line x1="364" y1="446" x2="427" y2="446" stroke="#00f"/>
<rect x="118" y="441" width="110" height="10" fill="#ff0"/>
<rect x="282" y="441" width="82" height="10" fill="#ff0"/>
<rect x="429" y="441" width="54" height="10" fill="#ff0"/>
<text x="20" y="470" class="sm">1.067e-09</text>
<rect x="100" y="460" width="128" height="12" fill="#00f"/>
<rect x="281" y="460" width="67" height="12" fill="#00f"/>
<rect x="428" y="460" width="119" height="12" fill="#00f"/>
<line x1="228" y1="466" x2="280" y2="466" stroke="#00f"/>
<line x1="348" y1="466" x2="427" y2="466" stroke="#00f"/>
<rect x="118" y="461" width="110" height="10" fill="#ff0"/>
<rect x="282" y="461" width="66" height="10" fill="#ff0"/>
<rect x="429" y="461" width="100" height="10" fill="#ff0"/>
<text x="20" y="490" class="sm">6.344e-10</text>
<rect x="100" y="480" width="290" height="12" fill="#00f"/>
<rect x="428" y="480" width="119" height="12" fill="#00f"/>
<line x1="390" y1="486" x2="427" y2="486" stroke="#00f"/>
<rect x="118" y="481" width="134" height="10" fill="#ff0"/>
</svg>
