<svg viewBox="0 0 930 540" xmlns="http://www.w3.org/2000/svg">

<style>
  .sm { font: 12px sans-serif; }
  .lg { font: 15px sans-serif; }
</style>
<rect fill="#ddd" x="0" y="0" width="100%" height="100%"/>
<text x="20" y="20" class="lg">ch.15331 V:11824933-11825862 Gene:WBGene00008408</text>
<text x="20" y="50" class="sm">WormBase</text>
<rect x="102" y="40" width="109" height="12" fill="#00f"/>
<rect x="260" y="40" width="88" height="12" fill="#00f"/>
<rect x="389" y="40" width="77" height="12" fill="#00f"/>
<rect x="514" y="40" width="318" height="12" fill="#00f"/>
<line x1="211" y1="46" x2="259" y2="46" stroke="#00f"/>
<line x1="348" y1="46" x2="388" y2="46" stroke="#00f"/>
<line x1="466" y1="46" x2="513" y2="46" stroke="#00f"/>
<rect x="146" y="41" width="65" height="10" fill="#ff0"/>
<rect x="261" y="41" width="87" height="10" fill="#ff0"/>
<rect x="390" y="41" width="76" height="10" fill="#ff0"/>
<rect x="515" y="41" width="251" height="10" fill="#ff0"/>
<rect x="103" y="41" width="42" height="10" fill="brown"><title>.</title></rect>
<rect x="767" y="41" width="65" height="10" fill="brown"><title>.</title></rect>
<text x="20" y="70" class="sm">Fitness: 0.09248357930024503</text>
<rect x="348" y="65" width="41" height="5" fill="#00f"><title>461349.0</title></rect>
<rect x="211" y="70" width="49" height="5" fill="#00f"><title>408005.0</title></rect>
<rect x="466" y="75" width="48" height="5" fill="#00f"><title>350774.0</title></rect>
<rect x="215" y="80" width="45" height="5" fill="#00f"><title>606.0</title></rect>
<rect x="457" y="85" width="57" height="5" fill="#00f"><title>60.0</title></rect>
<rect x="215" y="90" width="48" height="5" fill="#00f"><title>44.0</title></rect>
<rect x="804" y="95" width="61" height="5" fill="#f0f"><title>8.0</title></rect>
<rect x="466" y="100" width="172" height="5" fill="#00f"><title>6.0</title></rect>
<text x="20" y="130" class="sm">0.9194</text>
<rect x="100" y="120" width="111" height="12" fill="#00f"/>
<rect x="260" y="120" width="88" height="12" fill="#00f"/>
<rect x="389" y="120" width="77" height="12" fill="#00f"/>
<rect x="514" y="120" width="319" height="12" fill="#00f"/>
<line x1="211" y1="126" x2="259" y2="126" stroke="#00f"/>
<line x1="348" y1="126" x2="388" y2="126" stroke="#00f"/>
<line x1="466" y1="126" x2="513" y2="126" stroke="#00f"/>
<rect x="146" y="121" width="65" height="10" fill="#ff0"/>
<rect x="261" y="121" width="87" height="10" fill="#ff0"/>
<rect x="390" y="121" width="76" height="10" fill="#ff0"/>
<rect x="515" y="121" width="251" height="10" fill="#ff0"/>
<text x="20" y="150" class="sm">0.07977</text>
<rect x="100" y="140" width="111" height="12" fill="#00f"/>
<rect x="260" y="140" width="88" height="12" fill="#00f"/>
<rect x="389" y="140" width="68" height="12" fill="#00f"/>
<rect x="514" y="140" width="319" height="12" fill="#00f"/>
<line x1="211" y1="146" x2="259" y2="146" stroke="#00f"/>
<line x1="348" y1="146" x2="388" y2="146" stroke="#00f"/>
<line x1="457" y1="146" x2="513" y2="146" stroke="#00f"/>
<rect x="146" y="141" width="65" height="10" fill="#ff0"/>
<rect x="261" y="141" width="87" height="10" fill="#ff0"/>
<rect x="390" y="141" width="67" height="10" fill="#ff0"/>
<rect x="515" y="141" width="251" height="10" fill="#ff0"/>
<text x="20" y="170" class="sm">0.0003477</text>
<rect x="100" y="160" width="111" height="12" fill="#00f"/>
<rect x="260" y="160" width="81" height="12" fill="#00f"/>
<rect x="389" y="160" width="77" height="12" fill="#00f"/>
<rect x="514" y="160" width="319" height="12" fill="#00f"/>
<line x1="211" y1="166" x2="259" y2="166" stroke="#00f"/>
<line x1="341" y1="166" x2="388" y2="166" stroke="#00f"/>
<line x1="466" y1="166" x2="513" y2="166" stroke="#00f"/>
<rect x="425" y="161" width="41" height="10" fill="#ff0"/>
<rect x="515" y="161" width="251" height="10" fill="#ff0"/>
<text x="20" y="190" class="sm">0.0002135</text>
<rect x="100" y="180" width="43" height="12" fill="#00f"/>
<rect x="260" y="180" width="88" height="12" fill="#00f"/>
<rect x="389" y="180" width="77" height="12" fill="#00f"/>
<rect x="514" y="180" width="319" height="12" fill="#00f"/>
<line x1="143" y1="186" x2="259" y2="186" stroke="#00f"/>
<line x1="348" y1="186" x2="388" y2="186" stroke="#00f"/>
<line x1="466" y1="186" x2="513" y2="186" stroke="#00f"/>
<rect x="282" y="181" width="66" height="10" fill="#ff0"/>
<rect x="390" y="181" width="76" height="10" fill="#ff0"/>
<rect x="515" y="181" width="251" height="10" fill="#ff0"/>
<text x="20" y="210" class="sm">6.552e-05</text>
<rect x="100" y="200" width="111" height="12" fill="#00f"/>
<rect x="260" y="200" width="36" height="12" fill="#00f"/>
<rect x="389" y="200" width="77" height="12" fill="#00f"/>
<rect x="514" y="200" width="319" height="12" fill="#00f"/>
<line x1="211" y1="206" x2="259" y2="206" stroke="#00f"/>
<line x1="296" y1="206" x2="388" y2="206" stroke="#00f"/>
<line x1="466" y1="206" x2="513" y2="206" stroke="#00f"/>
<rect x="425" y="201" width="41" height="10" fill="#ff0"/>
<rect x="515" y="201" width="251" height="10" fill="#ff0"/>
<text x="20" y="230" class="sm">4.312e-05</text>
<rect x="100" y="220" width="115" height="12" fill="#00f"/>
<rect x="260" y="220" width="88" height="12" fill="#00f"/>
<rect x="389" y="220" width="77" height="12" fill="#00f"/>
<rect x="514" y="220" width="319" height="12" fill="#00f"/>
<line x1="215" y1="226" x2="259" y2="226" stroke="#00f"/>
<line x1="348" y1="226" x2="388" y2="226" stroke="#00f"/>
<line x1="466" y1="226" x2="513" y2="226" stroke="#00f"/>
<rect x="282" y="221" width="66" height="10" fill="#ff0"/>
<rect x="390" y="221" width="76" height="10" fill="#ff0"/>
<rect x="515" y="221" width="251" height="10" fill="#ff0"/>
<text x="20" y="250" class="sm">3.017e-05</text>
<rect x="100" y="240" width="111" height="12" fill="#00f"/>
<rect x="260" y="240" width="81" height="12" fill="#00f"/>
<rect x="389" y="240" width="68" height="12" fill="#00f"/>
<rect x="514" y="240" width="319" height="12" fill="#00f"/>
<line x1="211" y1="246" x2="259" y2="246" stroke="#00f"/>
<line x1="341" y1="246" x2="388" y2="246" stroke="#00f"/>
<line x1="457" y1="246" x2="513" y2="246" stroke="#00f"/>
<rect x="425" y="241" width="32" height="10" fill="#ff0"/>
<rect x="515" y="241" width="251" height="10" fill="#ff0"/>
<text x="20" y="270" class="sm">2.477e-05</text>
<rect x="100" y="260" width="111" height="12" fill="#00f"/>
<rect x="260" y="260" width="88" height="12" fill="#00f"/>
<rect x="514" y="260" width="155" height="12" fill="#00f"/>
<rect x="710" y="260" width="123" height="12" fill="#00f"/>
<line x1="211" y1="266" x2="259" y2="266" stroke="#00f"/>
<line x1="348" y1="266" x2="513" y2="266" stroke="#00f"/>
<line x1="669" y1="266" x2="709" y2="266" stroke="#00f"/>
<rect x="146" y="261" width="65" height="10" fill="#ff0"/>
<rect x="261" y="261" width="87" height="10" fill="#ff0"/>
<rect x="515" y="261" width="82" height="10" fill="#ff0"/>
<text x="20" y="290" class="sm">2.418e-05</text>
<rect x="100" y="280" width="111" height="12" fill="#00f"/>
<rect x="260" y="280" width="206" height="12" fill="#00f"/>
<rect x="514" y="280" width="155" height="12" fill="#00f"/>
<rect x="710" y="280" width="123" height="12" fill="#00f"/>
<line x1="211" y1="286" x2="259" y2="286" stroke="#00f"/>
<line x1="466" y1="286" x2="513" y2="286" stroke="#00f"/>
<line x1="669" y1="286" x2="709" y2="286" stroke="#00f"/>
<rect x="425" y="281" width="41" height="10" fill="#ff0"/>
<rect x="515" y="281" width="154" height="10" fill="#ff0"/>
<rect x="711" y="281" width="39" height="10" fill="#ff0"/>
<text x="20" y="310" class="sm">2.379e-05</text>
<rect x="100" y="300" width="111" height="12" fill="#00f"/>
<rect x="260" y="300" width="88" height="12" fill="#00f"/>
<rect x="514" y="300" width="220" height="12" fill="#00f"/>
<rect x="789" y="300" width="44" height="12" fill="#00f"/>
<line x1="211" y1="306" x2="259" y2="306" stroke="#00f"/>
<line x1="348" y1="306" x2="513" y2="306" stroke="#00f"/>
<line x1="734" y1="306" x2="788" y2="306" stroke="#00f"/>
<rect x="346" y="301" width="2" height="10" fill="#ff0"/>
<rect x="515" y="301" width="219" height="10" fill="#ff0"/>
<rect x="790" y="301" width="25" height="10" fill="#ff0"/>
<text x="20" y="330" class="sm">2.322e-05</text>
<rect x="100" y="320" width="111" height="12" fill="#00f"/>
<rect x="260" y="320" width="206" height="12" fill="#00f"/>
<rect x="514" y="320" width="220" height="12" fill="#00f"/>
<rect x="789" y="320" width="44" height="12" fill="#00f"/>
<line x1="211" y1="326" x2="259" y2="326" stroke="#00f"/>
<line x1="466" y1="326" x2="513" y2="326" stroke="#00f"/>
<line x1="734" y1="326" x2="788" y2="326" stroke="#00f"/>
<rect x="425" y="321" width="41" height="10" fill="#ff0"/>
<rect x="515" y="321" width="219" height="10" fill="#ff0"/>
<rect x="790" y="321" width="25" height="10" fill="#ff0"/>
<text x="20" y="350" class="sm">1.852e-05</text>
<rect x="100" y="340" width="43" height="12" fill="#00f"/>
<rect x="260" y="340" width="88" height="12" fill="#00f"/>
<rect x="389" y="340" width="68" height="12" fill="#00f"/>
<rect x="514" y="340" width="319" height="12" fill="#00f"/>
<line x1="143" y1="346" x2="259" y2="346" stroke="#00f"/>
<line x1="348" y1="346" x2="388" y2="346" stroke="#00f"/>
<line x1="457" y1="346" x2="513" y2="346" stroke="#00f"/>
<rect x="282" y="341" width="66" height="10" fill="#ff0"/>
<rect x="390" y="341" width="67" height="10" fill="#ff0"/>
<rect x="515" y="341" width="251" height="10" fill="#ff0"/>
<text x="20" y="370" class="sm">6.632e-06</text>
<rect x="100" y="360" width="111" height="12" fill="#00f"/>
<rect x="260" y="360" width="88" height="12" fill="#00f"/>
<rect x="514" y="360" width="174" height="12" fill="#00f"/>
<rect x="789" y="360" width="44" height="12" fill="#00f"/>
<line x1="211" y1="366" x2="259" y2="366" stroke="#00f"/>
<line x1="348" y1="366" x2="513" y2="366" stroke="#00f"/>
<line x1="688" y1="366" x2="788" y2="366" stroke="#00f"/>
<rect x="146" y="361" width="65" height="10" fill="#ff0"/>
<rect x="261" y="361" width="87" height="10" fill="#ff0"/>
<rect x="515" y="361" width="82" height="10" fill="#ff0"/>
<text x="20" y="390" class="sm">6.474e-06</text>
<rect x="100" y="380" width="111" height="12" fill="#00f"/>
<rect x="260" y="380" width="206" height="12" fill="#00f"/>
<rect x="514" y="380" width="174" height="12" fill="#00f"/>
<rect x="789" y="380" width="44" height="12" fill="#00f"/>
<line x1="211" y1="386" x2="259" y2="386" stroke="#00f"/>
<line x1="466" y1="386" x2="513" y2="386" stroke="#00f"/>
<line x1="688" y1="386" x2="788" y2="386" stroke="#00f"/>
<rect x="425" y="381" width="41" height="10" fill="#ff0"/>
<rect x="515" y="381" width="173" height="10" fill="#ff0"/>
<rect x="790" y="381" width="8" height="10" fill="#ff0"/>
<text x="20" y="410" class="sm">5.685e-06</text>
<rect x="100" y="400" width="111" height="12" fill="#00f"/>
<rect x="260" y="400" width="36" height="12" fill="#00f"/>
<rect x="389" y="400" width="68" height="12" fill="#00f"/>
<rect x="514" y="400" width="319" height="12" fill="#00f"/>
<line x1="211" y1="406" x2="259" y2="406" stroke="#00f"/>
<line x1="296" y1="406" x2="388" y2="406" stroke="#00f"/>
<line x1="457" y1="406" x2="513" y2="406" stroke="#00f"/>
<rect x="425" y="401" width="32" height="10" fill="#ff0"/>
<rect x="515" y="401" width="251" height="10" fill="#ff0"/>
<text x="20" y="430" class="sm">5.371e-06</text>
<rect x="100" y="420" width="111" height="12" fill="#00f"/>
<rect x="260" y="420" width="88" height="12" fill="#00f"/>
<rect x="514" y="420" width="155" height="12" fill="#00f"/>
<rect x="789" y="420" width="44" height="12" fill="#00f"/>
<line x1="211" y1="426" x2="259" y2="426" stroke="#00f"/>
<line x1="348" y1="426" x2="513" y2="426" stroke="#00f"/>
<line x1="669" y1="426" x2="788" y2="426" stroke="#00f"/>
<rect x="146" y="421" width="65" height="10" fill="#ff0"/>
<rect x="261" y="421" width="87" height="10" fill="#ff0"/>
<rect x="515" y="421" width="82" height="10" fill="#ff0"/>
<text x="20" y="450" class="sm">5.243e-06</text>
<rect x="100" y="440" width="111" height="12" fill="#00f"/>
<rect x="260" y="440" width="206" height="12" fill="#00f"/>
<rect x="514" y="440" width="155" height="12" fill="#00f"/>
<rect x="789" y="440" width="44" height="12" fill="#00f"/>
<line x1="211" y1="446" x2="259" y2="446" stroke="#00f"/>
<line x1="466" y1="446" x2="513" y2="446" stroke="#00f"/>
<line x1="669" y1="446" x2="788" y2="446" stroke="#00f"/>
<rect x="146" y="441" width="65" height="10" fill="#ff0"/>
<rect x="261" y="441" width="110" height="10" fill="#ff0"/>
<text x="20" y="470" class="sm">5.021e-06</text>
<rect x="100" y="460" width="111" height="12" fill="#00f"/>
<rect x="260" y="460" width="197" height="12" fill="#00f"/>
<rect x="514" y="460" width="155" height="12" fill="#00f"/>
<rect x="710" y="460" width="123" height="12" fill="#00f"/>
<line x1="211" y1="466" x2="259" y2="466" stroke="#00f"/>
<line x1="457" y1="466" x2="513" y2="466" stroke="#00f"/>
<line x1="669" y1="466" x2="709" y2="466" stroke="#00f"/>
<rect x="425" y="461" width="32" height="10" fill="#ff0"/>
<rect x="515" y="461" width="154" height="10" fill="#ff0"/>
<rect x="711" y="461" width="39" height="10" fill="#ff0"/>
<text x="20" y="490" class="sm">4.822e-06</text>
<rect x="100" y="480" width="111" height="12" fill="#00f"/>
<rect x="260" y="480" width="197" height="12" fill="#00f"/>
<rect x="514" y="480" width="220" height="12" fill="#00f"/>
<rect x="789" y="480" width="44" height="12" fill="#00f"/>
<line x1="211" y1="486" x2="259" y2="486" stroke="#00f"/>
<line x1="457" y1="486" x2="513" y2="486" stroke="#00f"/>
<line x1="734" y1="486" x2="788" y2="486" stroke="#00f"/>
<rect x="425" y="481" width="32" height="10" fill="#ff0"/>
<rect x="515" y="481" width="219" height="10" fill="#ff0"/>
<rect x="790" y="481" width="25" height="10" fill="#ff0"/>
<text x="20" y="510" class="sm">3.741e-06</text>
<rect x="100" y="500" width="115" height="12" fill="#00f"/>
<rect x="260" y="500" width="88" height="12" fill="#00f"/>
<rect x="389" y="500" width="68" height="12" fill="#00f"/>
<rect x="514" y="500" width="319" height="12" fill="#00f"/>
<line x1="215" y1="506" x2="259" y2="506" stroke="#00f"/>
<line x1="348" y1="506" x2="388" y2="506" stroke="#00f"/>
<line x1="457" y1="506" x2="513" y2="506" stroke="#00f"/>
<rect x="282" y="501" width="66" height="10" fill="#ff0"/>
<rect x="390" y="501" width="67" height="10" fill="#ff0"/>
<rect x="515" y="501" width="251" height="10" fill="#ff0"/>
</svg>
