<svg viewBox="0 0 750 515" xmlns="http://www.w3.org/2000/svg">

<style>
  .sm { font: 12px sans-serif; }
  .lg { font: 15px sans-serif; }
</style>
<rect fill="#ddd" x="0" y="0" width="100%" height="100%"/>
<text x="20" y="20" class="lg">ch.10992 IV:9682884-9683633 Gene:WBGene00014240</text>
<text x="20" y="50" class="sm">WormBase</text>
<rect x="102" y="40" width="90" height="12" fill="#00f"/>
<rect x="260" y="40" width="392" height="12" fill="#00f"/>
<line x1="192" y1="46" x2="259" y2="46" stroke="#00f"/>
<rect x="115" y="41" width="77" height="10" fill="#ff0"/>
<rect x="261" y="41" width="359" height="10" fill="#ff0"/>
<rect x="103" y="41" width="11" height="10" fill="brown"><title>.</title></rect>
<rect x="621" y="41" width="31" height="10" fill="brown"><title>.</title></rect>
<text x="20" y="70" class="sm">Fitness: 0.05306246116084286</text>
<rect x="192" y="65" width="68" height="5" fill="#00f"><title>116350.0</title></rect>
<rect x="441" y="70" width="51" height="5" fill="#00f"><title>151.0</title></rect>
<rect x="192" y="75" width="70" height="5" fill="#00f"><title>34.0</title></rect>
<text x="20" y="105" class="sm">0.9734</text>
<rect x="100" y="95" width="92" height="12" fill="#00f"/>
<rect x="260" y="95" width="393" height="12" fill="#00f"/>
<line x1="192" y1="101" x2="259" y2="101" stroke="#00f"/>
<rect x="115" y="96" width="77" height="10" fill="#ff0"/>
<rect x="261" y="96" width="359" height="10" fill="#ff0"/>
<text x="20" y="125" class="sm">0.02438</text>
<rect x="100" y="115" width="92" height="12" fill="#00f"/>
<rect x="300" y="115" width="353" height="12" fill="#00f"/>
<line x1="192" y1="121" x2="299" y2="121" stroke="#00f"/>
<rect x="375" y="116" width="245" height="10" fill="#ff0"/>
<text x="20" y="145" class="sm">0.001935</text>
<rect x="100" y="135" width="199" height="12" fill="#00f"/>
<rect x="357" y="135" width="296" height="12" fill="#00f"/>
<line x1="299" y1="141" x2="356" y2="141" stroke="#00f"/>
<rect x="375" y="136" width="245" height="10" fill="#ff0"/>
<text x="20" y="165" class="sm">0.0001452</text>
<rect x="100" y="155" width="92" height="12" fill="#00f"/>
<rect x="357" y="155" width="296" height="12" fill="#00f"/>
<line x1="192" y1="161" x2="356" y2="161" stroke="#00f"/>
<rect x="375" y="156" width="245" height="10" fill="#ff0"/>
<text x="20" y="185" class="sm">5.898e-05</text>
<rect x="100" y="175" width="92" height="12" fill="#00f"/>
<rect x="268" y="175" width="385" height="12" fill="#00f"/>
<line x1="192" y1="181" x2="267" y2="181" stroke="#00f"/>
<rect x="375" y="176" width="245" height="10" fill="#ff0"/>
<text x="20" y="205" class="sm">2.609e-05</text>
<rect x="100" y="195" width="341" height="12" fill="#00f"/>
<rect x="492" y="195" width="161" height="12" fill="#00f"/>
<line x1="441" y1="201" x2="491" y2="201" stroke="#00f"/>
<rect x="375" y="196" width="66" height="10" fill="#ff0"/>
<rect x="493" y="196" width="127" height="10" fill="#ff0"/>
<text x="20" y="225" class="sm">3.568e-06</text>
<rect x="100" y="215" width="185" height="12" fill="#00f"/>
<rect x="357" y="215" width="296" height="12" fill="#00f"/>
<line x1="285" y1="221" x2="356" y2="221" stroke="#00f"/>
<rect x="375" y="216" width="245" height="10" fill="#ff0"/>
<text x="20" y="245" class="sm">3.32e-06</text>
<rect x="100" y="235" width="355" height="12" fill="#00f"/>
<rect x="498" y="235" width="155" height="12" fill="#00f"/>
<line x1="455" y1="241" x2="497" y2="241" stroke="#00f"/>
<rect x="115" y="236" width="176" height="10" fill="#ff0"/>
<text x="20" y="265" class="sm">2.286e-06</text>
<rect x="100" y="255" width="179" height="12" fill="#00f"/>
<rect x="357" y="255" width="296" height="12" fill="#00f"/>
<line x1="279" y1="261" x2="356" y2="261" stroke="#00f"/>
<rect x="375" y="256" width="245" height="10" fill="#ff0"/>
<text x="20" y="285" class="sm">1.681e-06</text>
<rect x="100" y="275" width="341" height="12" fill="#00f"/>
<rect x="498" y="275" width="155" height="12" fill="#00f"/>
<line x1="441" y1="281" x2="497" y2="281" stroke="#00f"/>
<rect x="375" y="276" width="66" height="10" fill="#ff0"/>
<rect x="499" y="276" width="121" height="10" fill="#ff0"/>
<text x="20" y="305" class="sm">1.34e-08</text>
<rect x="100" y="295" width="199" height="12" fill="#00f"/>
<rect x="349" y="295" width="304" height="12" fill="#00f"/>
<line x1="299" y1="301" x2="348" y2="301" stroke="#00f"/>
<rect x="375" y="296" width="245" height="10" fill="#ff0"/>
<text x="20" y="325" class="sm">1.272e-08</text>
<rect x="100" y="315" width="442" height="12" fill="#00f"/>
<rect x="588" y="315" width="65" height="12" fill="#00f"/>
<line x1="542" y1="321" x2="587" y2="321" stroke="#00f"/>
<rect x="115" y="316" width="176" height="10" fill="#ff0"/>
<text x="20" y="345" class="sm">2.157e-09</text>
<rect x="100" y="335" width="442" height="12" fill="#00f"/>
<rect x="584" y="335" width="69" height="12" fill="#00f"/>
<line x1="542" y1="341" x2="583" y2="341" stroke="#00f"/>
<rect x="375" y="336" width="167" height="10" fill="#ff0"/>
<rect x="585" y="336" width="35" height="10" fill="#ff0"/>
<text x="20" y="365" class="sm">2.026e-09</text>
<rect x="100" y="355" width="92" height="12" fill="#00f"/>
<rect x="262" y="355" width="391" height="12" fill="#00f"/>
<line x1="192" y1="361" x2="261" y2="361" stroke="#00f"/>
<rect x="375" y="356" width="245" height="10" fill="#ff0"/>
<text x="20" y="385" class="sm">2.02e-09</text>
<rect x="100" y="375" width="442" height="12" fill="#00f"/>
<rect x="594" y="375" width="59" height="12" fill="#00f"/>
<line x1="542" y1="381" x2="593" y2="381" stroke="#00f"/>
<rect x="115" y="376" width="176" height="10" fill="#ff0"/>
<text x="20" y="405" class="sm">1.004e-09</text>
<rect x="100" y="395" width="365" height="12" fill="#00f"/>
<rect x="521" y="395" width="132" height="12" fill="#00f"/>
<line x1="465" y1="401" x2="520" y2="401" stroke="#00f"/>
<rect x="115" y="396" width="176" height="10" fill="#ff0"/>
<text x="20" y="425" class="sm">3.897e-10</text>
<rect x="100" y="415" width="199" height="12" fill="#00f"/>
<rect x="360" y="415" width="293" height="12" fill="#00f"/>
<line x1="299" y1="421" x2="359" y2="421" stroke="#00f"/>
<rect x="375" y="416" width="245" height="10" fill="#ff0"/>
<text x="20" y="445" class="sm">2.769e-10</text>
<rect x="100" y="435" width="442" height="12" fill="#00f"/>
<rect x="597" y="435" width="56" height="12" fill="#00f"/>
<line x1="542" y1="441" x2="596" y2="441" stroke="#00f"/>
<rect x="115" y="436" width="176" height="10" fill="#ff0"/>
<text x="20" y="465" class="sm">1.875e-10</text>
<rect x="100" y="455" width="442" height="12" fill="#00f"/>
<rect x="581" y="455" width="72" height="12" fill="#00f"/>
<line x1="542" y1="461" x2="580" y2="461" stroke="#00f"/>
<rect x="375" y="456" width="167" height="10" fill="#ff0"/>
<rect x="582" y="456" width="38" height="10" fill="#ff0"/>
<text x="20" y="485" class="sm">1.578e-10</text>
<rect x="100" y="475" width="92" height="12" fill="#00f"/>
<rect x="360" y="475" width="293" height="12" fill="#00f"/>
<line x1="192" y1="481" x2="359" y2="481" stroke="#00f"/>
<rect x="375" y="476" width="245" height="10" fill="#ff0"/>
</svg>
