<svg viewBox="0 0 816 535" xmlns="http://www.w3.org/2000/svg">

<style>
  .sm { font: 12px sans-serif; }
  .lg { font: 15px sans-serif; }
</style>
<rect fill="#ddd" x="0" y="0" width="100%" height="100%"/>
<text x="20" y="20" class="lg">ch.1065 I:6211170-6211985 Gene:WBGene00020348</text>
<text x="20" y="50" class="sm">WormBase</text>
<rect x="102" y="40" width="139" height="12" fill="#00f"/>
<rect x="284" y="40" width="434" height="12" fill="#00f"/>
<line x1="241" y1="46" x2="283" y2="46" stroke="#00f"/>
<rect x="104" y="41" width="137" height="10" fill="#ff0"/>
<rect x="285" y="41" width="341" height="10" fill="#ff0"/>
<rect x="103" y="41" width="0" height="10" fill="brown"><title>.</title></rect>
<rect x="627" y="41" width="91" height="10" fill="brown"><title>.</title></rect>
<text x="20" y="70" class="sm">Fitness: 0.01656142915892214</text>
<rect x="241" y="65" width="43" height="5" fill="#00f"><title>360685.0</title></rect>
<rect x="356" y="70" width="49" height="5" fill="#00f"><title>51.0</title></rect>
<rect x="229" y="75" width="55" height="5" fill="#00f"><title>27.0</title></rect>
<rect x="419" y="80" width="79" height="5" fill="#f0f"><title>15.0</title></rect>
<rect x="347" y="85" width="58" height="5" fill="#00f"><title>6.0</title></rect>
<rect x="227" y="90" width="57" height="5" fill="#00f"><title>4.0</title></rect>
<rect x="197" y="95" width="309" height="5" fill="#00f"><title>3.0</title></rect>
<text x="20" y="125" class="sm">0.9916</text>
<rect x="100" y="115" width="141" height="12" fill="#00f"/>
<rect x="284" y="115" width="435" height="12" fill="#00f"/>
<line x1="241" y1="121" x2="283" y2="121" stroke="#00f"/>
<rect x="104" y="116" width="137" height="10" fill="#ff0"/>
<rect x="285" y="116" width="341" height="10" fill="#ff0"/>
<text x="20" y="145" class="sm">0.00299</text>
<rect x="100" y="135" width="360" height="12" fill="#00f"/>
<rect x="506" y="135" width="213" height="12" fill="#00f"/>
<line x1="460" y1="141" x2="505" y2="141" stroke="#00f"/>
<rect x="297" y="136" width="163" height="10" fill="#ff0"/>
<rect x="507" y="136" width="24" height="10" fill="#ff0"/>
<text x="20" y="165" class="sm">0.002956</text>
<rect x="100" y="155" width="127" height="12" fill="#00f"/>
<rect x="284" y="155" width="435" height="12" fill="#00f"/>
<line x1="227" y1="161" x2="283" y2="161" stroke="#00f"/>
<rect x="297" y="156" width="329" height="10" fill="#ff0"/>
<text x="20" y="185" class="sm">0.001024</text>
<rect x="100" y="175" width="97" height="12" fill="#00f"/>
<rect x="241" y="175" width="478" height="12" fill="#00f"/>
<line x1="197" y1="181" x2="240" y2="181" stroke="#00f"/>
<rect x="297" y="176" width="329" height="10" fill="#ff0"/>
<text x="20" y="205" class="sm">0.00092</text>
<rect x="100" y="195" width="129" height="12" fill="#00f"/>
<rect x="284" y="195" width="435" height="12" fill="#00f"/>
<line x1="229" y1="201" x2="283" y2="201" stroke="#00f"/>
<rect x="104" y="196" width="125" height="10" fill="#ff0"/>
<rect x="285" y="196" width="341" height="10" fill="#ff0"/>
<text x="20" y="225" class="sm">0.0001745</text>
<rect x="100" y="215" width="366" height="12" fill="#00f"/>
<rect x="506" y="215" width="213" height="12" fill="#00f"/>
<line x1="466" y1="221" x2="505" y2="221" stroke="#00f"/>
<rect x="297" y="216" width="169" height="10" fill="#ff0"/>
<rect x="507" y="216" width="24" height="10" fill="#ff0"/>
<text x="20" y="245" class="sm">0.0001522</text>
<rect x="100" y="235" width="500" height="12" fill="#00f"/>
<rect x="669" y="235" width="50" height="12" fill="#00f"/>
<line x1="600" y1="241" x2="668" y2="241" stroke="#00f"/>
<rect x="297" y="236" width="303" height="10" fill="#ff0"/>
<rect x="670" y="236" width="34" height="10" fill="#ff0"/>
<text x="20" y="265" class="sm">0.0001146</text>
<rect x="100" y="255" width="358" height="12" fill="#00f"/>
<rect x="506" y="255" width="213" height="12" fill="#00f"/>
<line x1="458" y1="261" x2="505" y2="261" stroke="#00f"/>
<rect x="297" y="256" width="161" height="10" fill="#ff0"/>
<rect x="507" y="256" width="119" height="10" fill="#ff0"/>
<text x="20" y="285" class="sm">1.126e-05</text>
<rect x="100" y="275" width="502" height="12" fill="#00f"/>
<rect x="669" y="275" width="50" height="12" fill="#00f"/>
<line x1="602" y1="281" x2="668" y2="281" stroke="#00f"/>
<rect x="297" y="276" width="305" height="10" fill="#ff0"/>
<rect x="670" y="276" width="26" height="10" fill="#ff0"/>
<text x="20" y="305" class="sm">1.039e-05</text>
<rect x="100" y="295" width="99" height="12" fill="#00f"/>
<rect x="241" y="295" width="478" height="12" fill="#00f"/>
<line x1="199" y1="301" x2="240" y2="301" stroke="#00f"/>
<rect x="297" y="296" width="329" height="10" fill="#ff0"/>
<text x="20" y="325" class="sm">7.23e-06</text>
<rect x="100" y="315" width="81" height="12" fill="#00f"/>
<rect x="241" y="315" width="478" height="12" fill="#00f"/>
<line x1="181" y1="321" x2="240" y2="321" stroke="#00f"/>
<rect x="297" y="316" width="329" height="10" fill="#ff0"/>
<text x="20" y="345" class="sm">5.815e-06</text>
<rect x="100" y="335" width="84" height="12" fill="#00f"/>
<rect x="241" y="335" width="478" height="12" fill="#00f"/>
<line x1="184" y1="341" x2="240" y2="341" stroke="#00f"/>
<rect x="297" y="336" width="329" height="10" fill="#ff0"/>
<text x="20" y="365" class="sm">2.563e-07</text>
<rect x="100" y="355" width="54" height="12" fill="#00f"/>
<rect x="198" y="355" width="521" height="12" fill="#00f"/>
<line x1="154" y1="361" x2="197" y2="361" stroke="#00f"/>
<rect x="297" y="356" width="329" height="10" fill="#ff0"/>
<text x="20" y="385" class="sm">7.387e-08</text>
<rect x="100" y="375" width="54" height="12" fill="#00f"/>
<rect x="241" y="375" width="478" height="12" fill="#00f"/>
<line x1="154" y1="381" x2="240" y2="381" stroke="#00f"/>
<rect x="297" y="376" width="329" height="10" fill="#ff0"/>
<text x="20" y="405" class="sm">8.311e-09</text>
<rect x="100" y="395" width="54" height="12" fill="#00f"/>
<rect x="284" y="395" width="435" height="12" fill="#00f"/>
<line x1="154" y1="401" x2="283" y2="401" stroke="#00f"/>
<rect x="104" y="396" width="50" height="10" fill="#ff0"/>
<rect x="285" y="396" width="341" height="10" fill="#ff0"/>
<text x="20" y="425" class="sm">7.376e-09</text>
<rect x="100" y="415" width="198" height="12" fill="#00f"/>
<rect x="361" y="415" width="358" height="12" fill="#00f"/>
<line x1="298" y1="421" x2="360" y2="421" stroke="#00f"/>
<rect x="375" y="416" width="251" height="10" fill="#ff0"/>
<text x="20" y="445" class="sm">4.399e-09</text>
<rect x="100" y="435" width="97" height="12" fill="#00f"/>
<rect x="284" y="435" width="435" height="12" fill="#00f"/>
<line x1="197" y1="441" x2="283" y2="441" stroke="#00f"/>
<rect x="297" y="436" width="329" height="10" fill="#ff0"/>
<text x="20" y="465" class="sm">4.137e-09</text>
<rect x="100" y="455" width="81" height="12" fill="#00f"/>
<rect x="284" y="455" width="435" height="12" fill="#00f"/>
<line x1="181" y1="461" x2="283" y2="461" stroke="#00f"/>
<rect x="104" y="456" width="77" height="10" fill="#ff0"/>
<rect x="285" y="456" width="341" height="10" fill="#ff0"/>
<text x="20" y="485" class="sm">2.853e-09</text>
<rect x="100" y="475" width="54" height="12" fill="#00f"/>
<rect x="207" y="475" width="512" height="12" fill="#00f"/>
<line x1="154" y1="481" x2="206" y2="481" stroke="#00f"/>
<rect x="297" y="476" width="329" height="10" fill="#ff0"/>
<text x="20" y="505" class="sm">2.701e-09</text>
<rect x="100" y="495" width="198" height="12" fill="#00f"/>
<rect x="366" y="495" width="353" height="12" fill="#00f"/>
<line x1="298" y1="501" x2="365" y2="501" stroke="#00f"/>
<rect x="375" y="496" width="251" height="10" fill="#ff0"/>
</svg>
