<svg viewBox="0 0 1032 625" xmlns="http://www.w3.org/2000/svg">

<style>
  .sm { font: 12px sans-serif; }
  .lg { font: 15px sans-serif; }
</style>
<rect fill="#ddd" x="0" y="0" width="100%" height="100%"/>
<text x="20" y="20" class="lg">ch.15884 V:14082653-14083684 Gene:WBGene00044080</text>
<text x="20" y="50" class="sm">WormBase</text>
<rect x="100" y="40" width="243" height="12" fill="#00f"/>
<rect x="394" y="40" width="191" height="12" fill="#00f"/>
<rect x="633" y="40" width="108" height="12" fill="#00f"/>
<rect x="786" y="40" width="146" height="12" fill="#00f"/>
<line x1="343" y1="46" x2="393" y2="46" stroke="#00f"/>
<line x1="585" y1="46" x2="632" y2="46" stroke="#00f"/>
<line x1="741" y1="46" x2="785" y2="46" stroke="#00f"/>
<rect x="157" y="41" width="186" height="10" fill="#ff0"/>
<rect x="395" y="41" width="190" height="10" fill="#ff0"/>
<rect x="634" y="41" width="107" height="10" fill="#ff0"/>
<rect x="787" y="41" width="47" height="10" fill="#ff0"/>
<rect x="101" y="41" width="55" height="10" fill="brown"><title>.</title></rect>
<rect x="835" y="41" width="97" height="10" fill="brown"><title>.</title></rect>
<text x="20" y="70" class="sm">WormBase</text>
<rect x="134" y="60" width="451" height="12" fill="#00f"/>
<rect x="633" y="60" width="108" height="12" fill="#00f"/>
<rect x="786" y="60" width="146" height="12" fill="#00f"/>
<line x1="585" y1="66" x2="632" y2="66" stroke="#00f"/>
<line x1="741" y1="66" x2="785" y2="66" stroke="#00f"/>
<rect x="157" y="61" width="428" height="10" fill="#ff0"/>
<rect x="634" y="61" width="107" height="10" fill="#ff0"/>
<rect x="787" y="61" width="47" height="10" fill="#ff0"/>
<rect x="135" y="61" width="21" height="10" fill="brown"><title>.</title></rect>
<rect x="835" y="61" width="97" height="10" fill="brown"><title>.</title></rect>
<text x="20" y="90" class="sm">Fitness: 0.07136966761150228</text>
<rect x="741" y="85" width="45" height="5" fill="#00f"><title>2225770.0</title></rect>
<rect x="343" y="90" width="51" height="5" fill="#00f"><title>1898630.0</title></rect>
<rect x="585" y="95" width="48" height="5" fill="#00f"><title>1837060.0</title></rect>
<rect x="585" y="100" width="58" height="5" fill="#00f"><title>2672.0</title></rect>
<rect x="343" y="105" width="36" height="5" fill="#00f"><title>484.0</title></rect>
<rect x="585" y="110" width="39" height="5" fill="#00f"><title>304.0</title></rect>
<rect x="830" y="115" width="40" height="5" fill="#00f"><title>292.0</title></rect>
<rect x="313" y="120" width="45" height="5" fill="#00f"><title>113.0</title></rect>
<rect x="313" y="125" width="81" height="5" fill="#00f"><title>33.0</title></rect>
<rect x="268" y="130" width="39" height="5" fill="#00f"><title>24.0</title></rect>
<rect x="194" y="135" width="339" height="5" fill="#00f"><title>22.0</title></rect>
<rect x="585" y="140" width="60" height="5" fill="#00f"><title>22.0</title></rect>
<rect x="313" y="145" width="41" height="5" fill="#00f"><title>16.0</title></rect>
<rect x="313" y="150" width="66" height="5" fill="#00f"><title>12.0</title></rect>
<rect x="824" y="155" width="46" height="5" fill="#00f"><title>12.0</title></rect>
<rect x="343" y="160" width="82" height="5" fill="#00f"><title>9.0</title></rect>
<rect x="667" y="165" width="165" height="5" fill="#00f"><title>8.0</title></rect>
<rect x="591" y="170" width="42" height="5" fill="#00f"><title>6.0</title></rect>
<rect x="461" y="175" width="47" height="5" fill="#00f"><title>4.0</title></rect>
<rect x="186" y="180" width="508" height="5" fill="#00f"><title>3.0</title></rect>
<rect x="494" y="185" width="43" height="5" fill="#00f"><title>3.0</title></rect>
<text x="20" y="215" class="sm">0.9381</text>
<rect x="100" y="205" width="243" height="12" fill="#00f"/>
<rect x="394" y="205" width="191" height="12" fill="#00f"/>
<rect x="633" y="205" width="108" height="12" fill="#00f"/>
<rect x="786" y="205" width="149" height="12" fill="#00f"/>
<line x1="343" y1="211" x2="393" y2="211" stroke="#00f"/>
<line x1="585" y1="211" x2="632" y2="211" stroke="#00f"/>
<line x1="741" y1="211" x2="785" y2="211" stroke="#00f"/>
<rect x="157" y="206" width="186" height="10" fill="#ff0"/>
<rect x="395" y="206" width="190" height="10" fill="#ff0"/>
<rect x="634" y="206" width="107" height="10" fill="#ff0"/>
<rect x="787" y="206" width="47" height="10" fill="#ff0"/>
<text x="20" y="235" class="sm">0.03831</text>
<rect x="100" y="225" width="485" height="12" fill="#00f"/>
<rect x="633" y="225" width="108" height="12" fill="#00f"/>
<rect x="786" y="225" width="149" height="12" fill="#00f"/>
<line x1="585" y1="231" x2="632" y2="231" stroke="#00f"/>
<line x1="741" y1="231" x2="785" y2="231" stroke="#00f"/>
<rect x="157" y="226" width="428" height="10" fill="#ff0"/>
<rect x="634" y="226" width="107" height="10" fill="#ff0"/>
<rect x="787" y="226" width="47" height="10" fill="#ff0"/>
<text x="20" y="255" class="sm">0.008756</text>
<rect x="100" y="245" width="213" height="12" fill="#00f"/>
<rect x="354" y="245" width="231" height="12" fill="#00f"/>
<rect x="633" y="245" width="108" height="12" fill="#00f"/>
<rect x="786" y="245" width="149" height="12" fill="#00f"/>
<line x1="313" y1="251" x2="353" y2="251" stroke="#00f"/>
<line x1="585" y1="251" x2="632" y2="251" stroke="#00f"/>
<line x1="741" y1="251" x2="785" y2="251" stroke="#00f"/>
<rect x="511" y="246" width="74" height="10" fill="#ff0"/>
<rect x="634" y="246" width="107" height="10" fill="#ff0"/>
<rect x="787" y="246" width="47" height="10" fill="#ff0"/>
<text x="20" y="275" class="sm">0.0022</text>
<rect x="100" y="265" width="243" height="12" fill="#00f"/>
<rect x="394" y="265" width="197" height="12" fill="#00f"/>
<rect x="633" y="265" width="108" height="12" fill="#00f"/>
<rect x="786" y="265" width="149" height="12" fill="#00f"/>
<line x1="343" y1="271" x2="393" y2="271" stroke="#00f"/>
<line x1="591" y1="271" x2="632" y2="271" stroke="#00f"/>
<line x1="741" y1="271" x2="785" y2="271" stroke="#00f"/>
<rect x="157" y="266" width="186" height="10" fill="#ff0"/>
<rect x="395" y="266" width="196" height="10" fill="#ff0"/>
<rect x="634" y="266" width="107" height="10" fill="#ff0"/>
<rect x="787" y="266" width="47" height="10" fill="#ff0"/>
<text x="20" y="295" class="sm">0.001572</text>
<rect x="100" y="285" width="161" height="12" fill="#00f"/>
<rect x="633" y="285" width="108" height="12" fill="#00f"/>
<rect x="786" y="285" width="149" height="12" fill="#00f"/>
<line x1="261" y1="291" x2="632" y2="291" stroke="#00f"/>
<line x1="741" y1="291" x2="785" y2="291" stroke="#00f"/>
<rect x="157" y="286" width="104" height="10" fill="#ff0"/>
<rect x="634" y="286" width="107" height="10" fill="#ff0"/>
<rect x="787" y="286" width="47" height="10" fill="#ff0"/>
<text x="20" y="315" class="sm">0.001219</text>
<rect x="100" y="305" width="243" height="12" fill="#00f"/>
<rect x="394" y="305" width="98" height="12" fill="#00f"/>
<rect x="633" y="305" width="108" height="12" fill="#00f"/>
<rect x="786" y="305" width="149" height="12" fill="#00f"/>
<line x1="343" y1="311" x2="393" y2="311" stroke="#00f"/>
<line x1="492" y1="311" x2="632" y2="311" stroke="#00f"/>
<line x1="741" y1="311" x2="785" y2="311" stroke="#00f"/>
<rect x="157" y="306" width="186" height="10" fill="#ff0"/>
<rect x="395" y="306" width="97" height="10" fill="#ff0"/>
<rect x="634" y="306" width="107" height="10" fill="#ff0"/>
<rect x="787" y="306" width="47" height="10" fill="#ff0"/>
<text x="20" y="335" class="sm">0.001204</text>
<rect x="100" y="325" width="213" height="12" fill="#00f"/>
<rect x="394" y="325" width="191" height="12" fill="#00f"/>
<rect x="633" y="325" width="108" height="12" fill="#00f"/>
<rect x="786" y="325" width="149" height="12" fill="#00f"/>
<line x1="313" y1="331" x2="393" y2="331" stroke="#00f"/>
<line x1="585" y1="331" x2="632" y2="331" stroke="#00f"/>
<line x1="741" y1="331" x2="785" y2="331" stroke="#00f"/>
<rect x="157" y="326" width="156" height="10" fill="#ff0"/>
<rect x="395" y="326" width="190" height="10" fill="#ff0"/>
<rect x="634" y="326" width="107" height="10" fill="#ff0"/>
<rect x="787" y="326" width="47" height="10" fill="#ff0"/>
<text x="20" y="355" class="sm">0.001163</text>
<rect x="100" y="345" width="243" height="12" fill="#00f"/>
<rect x="394" y="345" width="101" height="12" fill="#00f"/>
<rect x="633" y="345" width="108" height="12" fill="#00f"/>
<rect x="786" y="345" width="149" height="12" fill="#00f"/>
<line x1="343" y1="351" x2="393" y2="351" stroke="#00f"/>
<line x1="495" y1="351" x2="632" y2="351" stroke="#00f"/>
<line x1="741" y1="351" x2="785" y2="351" stroke="#00f"/>
<rect x="157" y="346" width="186" height="10" fill="#ff0"/>
<rect x="395" y="346" width="100" height="10" fill="#ff0"/>
<rect x="634" y="346" width="107" height="10" fill="#ff0"/>
<rect x="787" y="346" width="47" height="10" fill="#ff0"/>
<text x="20" y="375" class="sm">0.001126</text>
<rect x="100" y="365" width="485" height="12" fill="#00f"/>
<rect x="633" y="365" width="108" height="12" fill="#00f"/>
<rect x="786" y="365" width="44" height="12" fill="#00f"/>
<rect x="870" y="365" width="65" height="12" fill="#00f"/>
<line x1="585" y1="371" x2="632" y2="371" stroke="#00f"/>
<line x1="741" y1="371" x2="785" y2="371" stroke="#00f"/>
<line x1="830" y1="371" x2="869" y2="371" stroke="#00f"/>
<rect x="157" y="366" width="428" height="10" fill="#ff0"/>
<rect x="634" y="366" width="107" height="10" fill="#ff0"/>
<rect x="787" y="366" width="43" height="10" fill="#ff0"/>
<rect x="871" y="366" width="6" height="10" fill="#ff0"/>
<text x="20" y="395" class="sm">0.000985</text>
<rect x="100" y="385" width="243" height="12" fill="#00f"/>
<rect x="394" y="385" width="112" height="12" fill="#00f"/>
<rect x="633" y="385" width="108" height="12" fill="#00f"/>
<rect x="786" y="385" width="149" height="12" fill="#00f"/>
<line x1="343" y1="391" x2="393" y2="391" stroke="#00f"/>
<line x1="506" y1="391" x2="632" y2="391" stroke="#00f"/>
<line x1="741" y1="391" x2="785" y2="391" stroke="#00f"/>
<rect x="157" y="386" width="186" height="10" fill="#ff0"/>
<rect x="395" y="386" width="111" height="10" fill="#ff0"/>
<rect x="634" y="386" width="66" height="10" fill="#ff0"/>
<text x="20" y="415" class="sm">0.0009512</text>
<rect x="100" y="405" width="257" height="12" fill="#00f"/>
<rect x="394" y="405" width="191" height="12" fill="#00f"/>
<rect x="633" y="405" width="108" height="12" fill="#00f"/>
<rect x="786" y="405" width="149" height="12" fill="#00f"/>
<line x1="357" y1="411" x2="393" y2="411" stroke="#00f"/>
<line x1="585" y1="411" x2="632" y2="411" stroke="#00f"/>
<line x1="741" y1="411" x2="785" y2="411" stroke="#00f"/>
<rect x="157" y="406" width="200" height="10" fill="#ff0"/>
<rect x="395" y="406" width="119" height="10" fill="#ff0"/>
<text x="20" y="435" class="sm">0.0008633</text>
<rect x="100" y="425" width="243" height="12" fill="#00f"/>
<rect x="633" y="425" width="108" height="12" fill="#00f"/>
<rect x="786" y="425" width="149" height="12" fill="#00f"/>
<line x1="343" y1="431" x2="632" y2="431" stroke="#00f"/>
<line x1="741" y1="431" x2="785" y2="431" stroke="#00f"/>
<rect x="157" y="426" width="186" height="10" fill="#ff0"/>
<rect x="634" y="426" width="7" height="10" fill="#ff0"/>
<text x="20" y="455" class="sm">0.000753</text>
<rect x="100" y="445" width="213" height="12" fill="#00f"/>
<rect x="633" y="445" width="108" height="12" fill="#00f"/>
<rect x="786" y="445" width="149" height="12" fill="#00f"/>
<line x1="313" y1="451" x2="632" y2="451" stroke="#00f"/>
<line x1="741" y1="451" x2="785" y2="451" stroke="#00f"/>
<rect x="157" y="446" width="156" height="10" fill="#ff0"/>
<rect x="634" y="446" width="7" height="10" fill="#ff0"/>
<text x="20" y="475" class="sm">0.0007153</text>
<rect x="100" y="465" width="161" height="12" fill="#00f"/>
<rect x="394" y="465" width="191" height="12" fill="#00f"/>
<rect x="633" y="465" width="108" height="12" fill="#00f"/>
<rect x="786" y="465" width="149" height="12" fill="#00f"/>
<line x1="261" y1="471" x2="393" y2="471" stroke="#00f"/>
<line x1="585" y1="471" x2="632" y2="471" stroke="#00f"/>
<line x1="741" y1="471" x2="785" y2="471" stroke="#00f"/>
<rect x="511" y="466" width="74" height="10" fill="#ff0"/>
<rect x="634" y="466" width="107" height="10" fill="#ff0"/>
<rect x="787" y="466" width="47" height="10" fill="#ff0"/>
<text x="20" y="495" class="sm">0.0006675</text>
<rect x="100" y="485" width="257" height="12" fill="#00f"/>
<rect x="633" y="485" width="108" height="12" fill="#00f"/>
<rect x="786" y="485" width="149" height="12" fill="#00f"/>
<line x1="357" y1="491" x2="632" y2="491" stroke="#00f"/>
<line x1="741" y1="491" x2="785" y2="491" stroke="#00f"/>
<rect x="157" y="486" width="200" height="10" fill="#ff0"/>
<rect x="634" y="486" width="107" height="10" fill="#ff0"/>
<rect x="787" y="486" width="47" height="10" fill="#ff0"/>
<text x="20" y="515" class="sm">0.0005279</text>
<rect x="100" y="505" width="243" height="12" fill="#00f"/>
<rect x="394" y="505" width="80" height="12" fill="#00f"/>
<rect x="633" y="505" width="108" height="12" fill="#00f"/>
<rect x="786" y="505" width="149" height="12" fill="#00f"/>
<line x1="343" y1="511" x2="393" y2="511" stroke="#00f"/>
<line x1="474" y1="511" x2="632" y2="511" stroke="#00f"/>
<line x1="741" y1="511" x2="785" y2="511" stroke="#00f"/>
<rect x="157" y="506" width="186" height="10" fill="#ff0"/>
<rect x="395" y="506" width="79" height="10" fill="#ff0"/>
<rect x="634" y="506" width="107" height="10" fill="#ff0"/>
<rect x="787" y="506" width="47" height="10" fill="#ff0"/>
<text x="20" y="535" class="sm">0.0002904</text>
<rect x="100" y="525" width="293" height="12" fill="#00f"/>
<rect x="633" y="525" width="108" height="12" fill="#00f"/>
<rect x="786" y="525" width="149" height="12" fill="#00f"/>
<line x1="393" y1="531" x2="632" y2="531" stroke="#00f"/>
<line x1="741" y1="531" x2="785" y2="531" stroke="#00f"/>
<rect x="157" y="526" width="236" height="10" fill="#ff0"/>
<rect x="634" y="526" width="107" height="10" fill="#ff0"/>
<rect x="787" y="526" width="47" height="10" fill="#ff0"/>
<text x="20" y="555" class="sm">0.0002736</text>
<rect x="100" y="545" width="243" height="12" fill="#00f"/>
<rect x="394" y="545" width="191" height="12" fill="#00f"/>
<rect x="633" y="545" width="197" height="12" fill="#00f"/>
<rect x="870" y="545" width="65" height="12" fill="#00f"/>
<line x1="343" y1="551" x2="393" y2="551" stroke="#00f"/>
<line x1="585" y1="551" x2="632" y2="551" stroke="#00f"/>
<line x1="830" y1="551" x2="869" y2="551" stroke="#00f"/>
<rect x="157" y="546" width="186" height="10" fill="#ff0"/>
<rect x="395" y="546" width="190" height="10" fill="#ff0"/>
<rect x="634" y="546" width="134" height="10" fill="#ff0"/>
<text x="20" y="575" class="sm">0.0001753</text>
<rect x="100" y="565" width="485" height="12" fill="#00f"/>
<rect x="633" y="565" width="108" height="12" fill="#00f"/>
<rect x="786" y="565" width="38" height="12" fill="#00f"/>
<rect x="870" y="565" width="65" height="12" fill="#00f"/>
<line x1="585" y1="571" x2="632" y2="571" stroke="#00f"/>
<line x1="741" y1="571" x2="785" y2="571" stroke="#00f"/>
<line x1="824" y1="571" x2="869" y2="571" stroke="#00f"/>
<rect x="157" y="566" width="428" height="10" fill="#ff0"/>
<rect x="634" y="566" width="107" height="10" fill="#ff0"/>
<rect x="787" y="566" width="37" height="10" fill="#ff0"/>
<rect x="871" y="566" width="6" height="10" fill="#ff0"/>
<text x="20" y="595" class="sm">0.0001681</text>
<rect x="100" y="585" width="306" height="12" fill="#00f"/>
<rect x="633" y="585" width="108" height="12" fill="#00f"/>
<rect x="786" y="585" width="149" height="12" fill="#00f"/>
<line x1="406" y1="591" x2="632" y2="591" stroke="#00f"/>
<line x1="741" y1="591" x2="785" y2="591" stroke="#00f"/>
<rect x="157" y="586" width="249" height="10" fill="#ff0"/>
<rect x="634" y="586" width="7" height="10" fill="#ff0"/>
</svg>
