<svg viewBox="0 0 687 580" xmlns="http://www.w3.org/2000/svg">

<style>
  .sm { font: 12px sans-serif; }
  .lg { font: 15px sans-serif; }
</style>
<rect fill="#ddd" x="0" y="0" width="100%" height="100%"/>
<text x="20" y="20" class="lg">ch.14626 V:9088031-9088717 Gene:WBGene00002019</text>
<text x="20" y="50" class="sm">WormBase</text>
<rect x="100" y="40" width="138" height="12" fill="#00f"/>
<rect x="293" y="40" width="294" height="12" fill="#00f"/>
<line x1="238" y1="46" x2="292" y2="46" stroke="#00f"/>
<rect x="101" y="41" width="137" height="10" fill="#ff0"/>
<rect x="294" y="41" width="293" height="10" fill="#ff0"/>
<text x="20" y="70" class="sm">Fitness: 2.5395304091246677e-05</text>
<rect x="238" y="65" width="55" height="5" fill="#00f"><title>9848300.0</title></rect>
<rect x="251" y="70" width="54" height="5" fill="#f0f"><title>152.0</title></rect>
<rect x="108" y="75" width="419" height="5" fill="#00f"><title>38.0</title></rect>
<rect x="238" y="80" width="113" height="5" fill="#00f"><title>22.0</title></rect>
<rect x="22" y="85" width="48" height="5" fill="#00f"><title>20.0</title></rect>
<rect x="238" y="90" width="272" height="5" fill="#00f"><title>14.0</title></rect>
<rect x="238" y="95" width="227" height="5" fill="#00f"><title>11.0</title></rect>
<rect x="238" y="100" width="143" height="5" fill="#00f"><title>9.0</title></rect>
<rect x="238" y="105" width="158" height="5" fill="#00f"><title>7.0</title></rect>
<rect x="339" y="110" width="113" height="5" fill="#00f"><title>7.0</title></rect>
<rect x="346" y="115" width="114" height="5" fill="#00f"><title>7.0</title></rect>
<rect x="106" y="120" width="88" height="5" fill="#00f"><title>6.0</title></rect>
<rect x="325" y="125" width="101" height="5" fill="#00f"><title>6.0</title></rect>
<rect x="139" y="130" width="68" height="5" fill="#00f"><title>5.0</title></rect>
<rect x="103" y="135" width="325" height="5" fill="#f0f"><title>4.0</title></rect>
<rect x="135" y="140" width="36" height="5" fill="#00f"><title>3.0</title></rect>
<text x="20" y="170" class="sm">1.0</text>
<rect x="100" y="160" width="138" height="12" fill="#00f"/>
<rect x="293" y="160" width="297" height="12" fill="#00f"/>
<line x1="238" y1="166" x2="292" y2="166" stroke="#00f"/>
<rect x="101" y="161" width="137" height="10" fill="#ff0"/>
<rect x="294" y="161" width="293" height="10" fill="#ff0"/>
<text x="20" y="190" class="sm">6.916e-06</text>
<rect x="100" y="180" width="138" height="12" fill="#00f"/>
<rect x="396" y="180" width="194" height="12" fill="#00f"/>
<line x1="238" y1="186" x2="395" y2="186" stroke="#00f"/>
<rect x="101" y="181" width="137" height="10" fill="#ff0"/>
<rect x="397" y="181" width="56" height="10" fill="#ff0"/>
<text x="20" y="210" class="sm">4.472e-06</text>
<rect x="100" y="200" width="138" height="12" fill="#00f"/>
<rect x="405" y="200" width="185" height="12" fill="#00f"/>
<line x1="238" y1="206" x2="404" y2="206" stroke="#00f"/>
<rect x="101" y="201" width="137" height="10" fill="#ff0"/>
<rect x="406" y="201" width="47" height="10" fill="#ff0"/>
<text x="20" y="230" class="sm">2.663e-06</text>
<rect x="100" y="220" width="138" height="12" fill="#00f"/>
<rect x="351" y="220" width="239" height="12" fill="#00f"/>
<line x1="238" y1="226" x2="350" y2="226" stroke="#00f"/>
<rect x="101" y="221" width="137" height="10" fill="#ff0"/>
<rect x="352" y="221" width="35" height="10" fill="#ff0"/>
<text x="20" y="250" class="sm">6.21e-07</text>
<rect x="100" y="240" width="138" height="12" fill="#00f"/>
<rect x="417" y="240" width="173" height="12" fill="#00f"/>
<line x1="238" y1="246" x2="416" y2="246" stroke="#00f"/>
<rect x="101" y="241" width="137" height="10" fill="#ff0"/>
<rect x="418" y="241" width="35" height="10" fill="#ff0"/>
<text x="20" y="270" class="sm">3.404e-07</text>
<rect x="100" y="260" width="196" height="12" fill="#00f"/>
<rect x="351" y="260" width="239" height="12" fill="#00f"/>
<line x1="296" y1="266" x2="350" y2="266" stroke="#00f"/>
<rect x="101" y="261" width="149" height="10" fill="#ff0"/>
<text x="20" y="290" class="sm">1.953e-07</text>
<rect x="100" y="280" width="72" height="12" fill="#00f"/>
<rect x="293" y="280" width="297" height="12" fill="#00f"/>
<line x1="172" y1="286" x2="292" y2="286" stroke="#00f"/>
<rect x="101" y="281" width="71" height="10" fill="#ff0"/>
<rect x="294" y="281" width="293" height="10" fill="#ff0"/>
<text x="20" y="310" class="sm">1.192e-07</text>
<rect x="100" y="300" width="196" height="12" fill="#00f"/>
<rect x="396" y="300" width="194" height="12" fill="#00f"/>
<line x1="296" y1="306" x2="395" y2="306" stroke="#00f"/>
<rect x="101" y="301" width="149" height="10" fill="#ff0"/>
<text x="20" y="330" class="sm">9.829e-08</text>
<rect x="100" y="320" width="196" height="12" fill="#00f"/>
<rect x="405" y="320" width="185" height="12" fill="#00f"/>
<line x1="296" y1="326" x2="404" y2="326" stroke="#00f"/>
<rect x="101" y="321" width="149" height="10" fill="#ff0"/>
<text x="20" y="350" class="sm">9.541e-08</text>
<rect x="100" y="340" width="138" height="12" fill="#00f"/>
<rect x="465" y="340" width="125" height="12" fill="#00f"/>
<line x1="238" y1="346" x2="464" y2="346" stroke="#00f"/>
<rect x="101" y="341" width="137" height="10" fill="#ff0"/>
<rect x="466" y="341" width="14" height="10" fill="#ff0"/>
<text x="20" y="370" class="sm">4.799e-08</text>
<rect x="100" y="360" width="138" height="12" fill="#00f"/>
<rect x="379" y="360" width="211" height="12" fill="#00f"/>
<line x1="238" y1="366" x2="378" y2="366" stroke="#00f"/>
<rect x="135" y="361" width="103" height="10" fill="#ff0"/>
<rect x="380" y="361" width="207" height="10" fill="#ff0"/>
<text x="20" y="390" class="sm">1.546e-08</text>
<rect x="100" y="380" width="138" height="12" fill="#00f"/>
<rect x="354" y="380" width="236" height="12" fill="#00f"/>
<line x1="238" y1="386" x2="353" y2="386" stroke="#00f"/>
<rect x="101" y="381" width="137" height="10" fill="#ff0"/>
<rect x="355" y="381" width="32" height="10" fill="#ff0"/>
<text x="20" y="410" class="sm">9.743e-09</text>
<rect x="100" y="400" width="196" height="12" fill="#00f"/>
<rect x="417" y="400" width="173" height="12" fill="#00f"/>
<line x1="296" y1="406" x2="416" y2="406" stroke="#00f"/>
<rect x="101" y="401" width="149" height="10" fill="#ff0"/>
<text x="20" y="430" class="sm">9.654e-09</text>
<rect x="100" y="420" width="385" height="12" fill="#00f"/>
<rect x="527" y="420" width="63" height="12" fill="#00f"/>
<line x1="485" y1="426" x2="526" y2="426" stroke="#00f"/>
<rect x="101" y="421" width="149" height="10" fill="#ff0"/>
<text x="20" y="450" class="sm">9.265e-09</text>
<rect x="100" y="440" width="36" height="12" fill="#00f"/>
<rect x="293" y="440" width="297" height="12" fill="#00f"/>
<line x1="136" y1="446" x2="292" y2="446" stroke="#00f"/>
<rect x="101" y="441" width="35" height="10" fill="#ff0"/>
<rect x="294" y="441" width="293" height="10" fill="#ff0"/>
<text x="20" y="470" class="sm">9.121e-09</text>
<rect x="100" y="460" width="138" height="12" fill="#00f"/>
<rect x="419" y="460" width="171" height="12" fill="#00f"/>
<line x1="238" y1="466" x2="418" y2="466" stroke="#00f"/>
<rect x="101" y="461" width="137" height="10" fill="#ff0"/>
<rect x="420" y="461" width="167" height="10" fill="#ff0"/>
<text x="20" y="490" class="sm">6.101e-09</text>
<rect x="100" y="480" width="370" height="12" fill="#00f"/>
<rect x="510" y="480" width="80" height="12" fill="#00f"/>
<line x1="470" y1="486" x2="509" y2="486" stroke="#00f"/>
<rect x="101" y="481" width="149" height="10" fill="#ff0"/>
<text x="20" y="510" class="sm">4.388e-09</text>
<rect x="100" y="500" width="232" height="12" fill="#00f"/>
<rect x="396" y="500" width="194" height="12" fill="#00f"/>
<line x1="332" y1="506" x2="395" y2="506" stroke="#00f"/>
<rect x="101" y="501" width="149" height="10" fill="#ff0"/>
<text x="20" y="530" class="sm">3.55e-09</text>
<rect x="100" y="520" width="370" height="12" fill="#00f"/>
<rect x="527" y="520" width="63" height="12" fill="#00f"/>
<line x1="470" y1="526" x2="526" y2="526" stroke="#00f"/>
<rect x="101" y="521" width="149" height="10" fill="#ff0"/>
<text x="20" y="550" class="sm">2.04e-09</text>
<rect x="100" y="540" width="232" height="12" fill="#00f"/>
<rect x="405" y="540" width="185" height="12" fill="#00f"/>
<line x1="332" y1="546" x2="404" y2="546" stroke="#00f"/>
<rect x="101" y="541" width="149" height="10" fill="#ff0"/>
</svg>
