<svg viewBox="0 0 895 530" xmlns="http://www.w3.org/2000/svg">

<style>
  .sm { font: 12px sans-serif; }
  .lg { font: 15px sans-serif; }
</style>
<rect fill="#ddd" x="0" y="0" width="100%" height="100%"/>
<text x="20" y="20" class="lg">ch.1423 I:7729084-7729978 Gene:WBGene00077543</text>
<text x="20" y="50" class="sm">WormBase</text>
<rect x="100" y="40" width="168" height="12" fill="#00f"/>
<rect x="615" y="40" width="180" height="12" fill="#00f"/>
<line x1="268" y1="46" x2="614" y2="46" stroke="#00f"/>
<rect x="119" y="41" width="149" height="10" fill="#ff0"/>
<rect x="616" y="41" width="104" height="10" fill="#ff0"/>
<rect x="101" y="41" width="17" height="10" fill="brown"><title>.</title></rect>
<rect x="721" y="41" width="74" height="10" fill="brown"><title>.</title></rect>
<text x="20" y="70" class="sm">Fitness: 0.9763302432810839</text>
<rect x="268" y="65" width="347" height="5" fill="#00f"><title>184781.0</title></rect>
<rect x="268" y="70" width="327" height="5" fill="#00f"><title>26.0</title></rect>
<rect x="151" y="75" width="87" height="5" fill="#00f"><title>9.0</title></rect>
<rect x="565" y="80" width="50" height="5" fill="#00f"><title>7.0</title></rect>
<rect x="262" y="85" width="353" height="5" fill="#00f"><title>4.0</title></rect>
<rect x="466" y="90" width="149" height="5" fill="#00f"><title>3.0</title></rect>
<text x="20" y="120" class="sm">0.5118</text>
<rect x="100" y="110" width="168" height="12" fill="#00f"/>
<rect x="615" y="110" width="183" height="12" fill="#00f"/>
<line x1="268" y1="116" x2="614" y2="116" stroke="#00f"/>
<rect x="119" y="111" width="149" height="10" fill="#ff0"/>
<rect x="616" y="111" width="104" height="10" fill="#ff0"/>
<text x="20" y="140" class="sm">0.2339</text>
<rect x="100" y="130" width="160" height="12" fill="#00f"/>
<rect x="615" y="130" width="183" height="12" fill="#00f"/>
<line x1="260" y1="136" x2="614" y2="136" stroke="#00f"/>
<rect x="119" y="131" width="141" height="10" fill="#ff0"/>
<rect x="616" y="131" width="112" height="10" fill="#ff0"/>
<text x="20" y="160" class="sm">0.1006</text>
<rect x="100" y="150" width="145" height="12" fill="#00f"/>
<rect x="615" y="150" width="183" height="12" fill="#00f"/>
<line x1="245" y1="156" x2="614" y2="156" stroke="#00f"/>
<rect x="119" y="151" width="126" height="10" fill="#ff0"/>
<rect x="616" y="151" width="112" height="10" fill="#ff0"/>
<text x="20" y="180" class="sm">0.06476</text>
<rect x="100" y="170" width="197" height="12" fill="#00f"/>
<rect x="615" y="170" width="183" height="12" fill="#00f"/>
<line x1="297" y1="176" x2="614" y2="176" stroke="#00f"/>
<rect x="119" y="171" width="178" height="10" fill="#ff0"/>
<rect x="616" y="171" width="108" height="10" fill="#ff0"/>
<text x="20" y="200" class="sm">0.05626</text>
<rect x="100" y="190" width="106" height="12" fill="#00f"/>
<rect x="615" y="190" width="183" height="12" fill="#00f"/>
<line x1="206" y1="196" x2="614" y2="196" stroke="#00f"/>
<rect x="119" y="191" width="87" height="10" fill="#ff0"/>
<rect x="616" y="191" width="112" height="10" fill="#ff0"/>
<text x="20" y="220" class="sm">0.02019</text>
<rect x="100" y="210" width="40" height="12" fill="#00f"/>
<rect x="615" y="210" width="183" height="12" fill="#00f"/>
<line x1="140" y1="216" x2="614" y2="216" stroke="#00f"/>
<rect x="119" y="211" width="21" height="10" fill="#ff0"/>
<rect x="616" y="211" width="112" height="10" fill="#ff0"/>
<text x="20" y="240" class="sm">0.01041</text>
<rect x="100" y="230" width="162" height="12" fill="#00f"/>
<rect x="615" y="230" width="183" height="12" fill="#00f"/>
<line x1="262" y1="236" x2="614" y2="236" stroke="#00f"/>
<rect x="119" y="231" width="143" height="10" fill="#ff0"/>
<rect x="616" y="231" width="104" height="10" fill="#ff0"/>
<text x="20" y="260" class="sm">0.00193</text>
<rect x="100" y="250" width="87" height="12" fill="#00f"/>
<rect x="615" y="250" width="183" height="12" fill="#00f"/>
<line x1="187" y1="256" x2="614" y2="256" stroke="#00f"/>
<rect x="119" y="251" width="68" height="10" fill="#ff0"/>
<rect x="616" y="251" width="104" height="10" fill="#ff0"/>
<text x="20" y="280" class="sm">6.278e-05</text>
<rect x="100" y="270" width="153" height="12" fill="#00f"/>
<rect x="615" y="270" width="183" height="12" fill="#00f"/>
<line x1="253" y1="276" x2="614" y2="276" stroke="#00f"/>
<rect x="119" y="271" width="134" height="10" fill="#ff0"/>
<rect x="616" y="271" width="104" height="10" fill="#ff0"/>
<text x="20" y="300" class="sm">3.702e-05</text>
<rect x="100" y="290" width="54" height="12" fill="#00f"/>
<rect x="615" y="290" width="183" height="12" fill="#00f"/>
<line x1="154" y1="296" x2="614" y2="296" stroke="#00f"/>
<rect x="119" y="291" width="35" height="10" fill="#ff0"/>
<rect x="616" y="291" width="104" height="10" fill="#ff0"/>
<text x="20" y="320" class="sm">7.849e-06</text>
<rect x="100" y="310" width="272" height="12" fill="#00f"/>
<rect x="615" y="310" width="183" height="12" fill="#00f"/>
<line x1="372" y1="316" x2="614" y2="316" stroke="#00f"/>
<rect x="119" y="311" width="182" height="10" fill="#ff0"/>
<text x="20" y="340" class="sm">6.996e-06</text>
<rect x="100" y="330" width="278" height="12" fill="#00f"/>
<rect x="615" y="330" width="183" height="12" fill="#00f"/>
<line x1="378" y1="336" x2="614" y2="336" stroke="#00f"/>
<rect x="119" y="331" width="182" height="10" fill="#ff0"/>
<text x="20" y="360" class="sm">3.394e-06</text>
<rect x="100" y="350" width="317" height="12" fill="#00f"/>
<rect x="615" y="350" width="183" height="12" fill="#00f"/>
<line x1="417" y1="356" x2="614" y2="356" stroke="#00f"/>
<rect x="119" y="351" width="182" height="10" fill="#ff0"/>
<text x="20" y="380" class="sm">2.504e-06</text>
<rect x="100" y="370" width="210" height="12" fill="#00f"/>
<rect x="615" y="370" width="183" height="12" fill="#00f"/>
<line x1="310" y1="376" x2="614" y2="376" stroke="#00f"/>
<rect x="119" y="371" width="182" height="10" fill="#ff0"/>
<text x="20" y="400" class="sm">1.327e-06</text>
<rect x="100" y="390" width="168" height="12" fill="#00f"/>
<rect x="713" y="390" width="85" height="12" fill="#00f"/>
<line x1="268" y1="396" x2="712" y2="396" stroke="#00f"/>
<rect x="119" y="391" width="149" height="10" fill="#ff0"/>
<rect x="714" y="391" width="14" height="10" fill="#ff0"/>
<text x="20" y="420" class="sm">1.237e-06</text>
<rect x="100" y="410" width="288" height="12" fill="#00f"/>
<rect x="615" y="410" width="183" height="12" fill="#00f"/>
<line x1="388" y1="416" x2="614" y2="416" stroke="#00f"/>
<rect x="119" y="411" width="182" height="10" fill="#ff0"/>
<text x="20" y="440" class="sm">4.027e-07</text>
<rect x="100" y="430" width="160" height="12" fill="#00f"/>
<rect x="713" y="430" width="85" height="12" fill="#00f"/>
<line x1="260" y1="436" x2="712" y2="436" stroke="#00f"/>
<rect x="119" y="431" width="141" height="10" fill="#ff0"/>
<rect x="714" y="431" width="10" height="10" fill="#ff0"/>
<text x="20" y="460" class="sm">2.551e-07</text>
<rect x="100" y="450" width="145" height="12" fill="#00f"/>
<rect x="713" y="450" width="85" height="12" fill="#00f"/>
<line x1="245" y1="456" x2="712" y2="456" stroke="#00f"/>
<rect x="119" y="451" width="126" height="10" fill="#ff0"/>
<rect x="714" y="451" width="10" height="10" fill="#ff0"/>
<text x="20" y="480" class="sm">1.708e-07</text>
<rect x="100" y="470" width="197" height="12" fill="#00f"/>
<rect x="713" y="470" width="85" height="12" fill="#00f"/>
<line x1="297" y1="476" x2="712" y2="476" stroke="#00f"/>
<rect x="119" y="471" width="178" height="10" fill="#ff0"/>
<rect x="714" y="471" width="6" height="10" fill="#ff0"/>
<text x="20" y="500" class="sm">1.173e-07</text>
<rect x="100" y="490" width="106" height="12" fill="#00f"/>
<rect x="713" y="490" width="85" height="12" fill="#00f"/>
<line x1="206" y1="496" x2="712" y2="496" stroke="#00f"/>
<rect x="119" y="491" width="87" height="10" fill="#ff0"/>
<rect x="714" y="491" width="10" height="10" fill="#ff0"/>
</svg>
