<svg viewBox="0 0 969 535" xmlns="http://www.w3.org/2000/svg">

<style>
  .sm { font: 12px sans-serif; }
  .lg { font: 15px sans-serif; }
</style>
<rect fill="#ddd" x="0" y="0" width="100%" height="100%"/>
<text x="20" y="20" class="lg">ch.16382 V:15816282-15817250 Gene:WBGene00010019</text>
<text x="20" y="50" class="sm">WormBase</text>
<rect x="100" y="40" width="92" height="12" fill="#00f"/>
<rect x="400" y="40" width="170" height="12" fill="#00f"/>
<rect x="645" y="40" width="224" height="12" fill="#00f"/>
<line x1="192" y1="46" x2="399" y2="46" stroke="#00f"/>
<line x1="570" y1="46" x2="644" y2="46" stroke="#00f"/>
<rect x="183" y="41" width="9" height="10" fill="#ff0"/>
<rect x="401" y="41" width="169" height="10" fill="#ff0"/>
<rect x="646" y="41" width="134" height="10" fill="#ff0"/>
<rect x="101" y="41" width="81" height="10" fill="brown"><title>.</title></rect>
<rect x="781" y="41" width="88" height="10" fill="brown"><title>.</title></rect>
<text x="20" y="70" class="sm">WormBase</text>
<rect x="414" y="60" width="156" height="12" fill="#00f"/>
<rect x="645" y="60" width="135" height="12" fill="#00f"/>
<line x1="570" y1="66" x2="644" y2="66" stroke="#00f"/>
<rect x="415" y="61" width="155" height="10" fill="#ff0"/>
<rect x="646" y="61" width="134" height="10" fill="#ff0"/>
<text x="20" y="90" class="sm">Fitness: 0.014568256356219986</text>
<rect x="570" y="85" width="75" height="5" fill="#00f"><title>169025.0</title></rect>
<rect x="192" y="90" width="208" height="5" fill="#00f"><title>3262.0</title></rect>
<rect x="31" y="95" width="53" height="5" fill="#f0f"><title>20.0</title></rect>
<text x="20" y="125" class="sm">0.9809</text>
<rect x="100" y="115" width="470" height="12" fill="#00f"/>
<rect x="645" y="115" width="227" height="12" fill="#00f"/>
<line x1="570" y1="121" x2="644" y2="121" stroke="#00f"/>
<rect x="415" y="116" width="155" height="10" fill="#ff0"/>
<rect x="646" y="116" width="134" height="10" fill="#ff0"/>
<text x="20" y="145" class="sm">0.01185</text>
<rect x="100" y="135" width="92" height="12" fill="#00f"/>
<rect x="400" y="135" width="472" height="12" fill="#00f"/>
<line x1="192" y1="141" x2="399" y2="141" stroke="#00f"/>
<rect x="183" y="136" width="9" height="10" fill="#ff0"/>
<rect x="401" y="136" width="199" height="10" fill="#ff0"/>
<text x="20" y="165" class="sm">0.003095</text>
<rect x="100" y="155" width="438" height="12" fill="#00f"/>
<rect x="645" y="155" width="227" height="12" fill="#00f"/>
<line x1="538" y1="161" x2="644" y2="161" stroke="#00f"/>
<rect x="415" y="156" width="123" height="10" fill="#ff0"/>
<rect x="646" y="156" width="79" height="10" fill="#ff0"/>
<text x="20" y="185" class="sm">0.002636</text>
<rect x="100" y="175" width="208" height="12" fill="#00f"/>
<rect x="400" y="175" width="472" height="12" fill="#00f"/>
<line x1="308" y1="181" x2="399" y2="181" stroke="#00f"/>
<rect x="415" y="176" width="185" height="10" fill="#ff0"/>
<text x="20" y="205" class="sm">0.0002723</text>
<rect x="100" y="195" width="188" height="12" fill="#00f"/>
<rect x="400" y="195" width="472" height="12" fill="#00f"/>
<line x1="288" y1="201" x2="399" y2="201" stroke="#00f"/>
<rect x="415" y="196" width="185" height="10" fill="#ff0"/>
<text x="20" y="225" class="sm">0.0002652</text>
<rect x="100" y="215" width="474" height="12" fill="#00f"/>
<rect x="645" y="215" width="227" height="12" fill="#00f"/>
<line x1="574" y1="221" x2="644" y2="221" stroke="#00f"/>
<rect x="415" y="216" width="159" height="10" fill="#ff0"/>
<rect x="646" y="216" width="79" height="10" fill="#ff0"/>
<text x="20" y="245" class="sm">0.0002198</text>
<rect x="100" y="235" width="378" height="12" fill="#00f"/>
<rect x="645" y="235" width="227" height="12" fill="#00f"/>
<line x1="478" y1="241" x2="644" y2="241" stroke="#00f"/>
<rect x="415" y="236" width="63" height="10" fill="#ff0"/>
<rect x="646" y="236" width="79" height="10" fill="#ff0"/>
<text x="20" y="265" class="sm">0.0001944</text>
<rect x="100" y="255" width="92" height="12" fill="#00f"/>
<rect x="645" y="255" width="227" height="12" fill="#00f"/>
<line x1="192" y1="261" x2="644" y2="261" stroke="#00f"/>
<rect x="738" y="256" width="134" height="10" fill="#ff0"/>
<text x="20" y="285" class="sm">0.000167</text>
<rect x="100" y="275" width="92" height="12" fill="#00f"/>
<rect x="295" y="275" width="577" height="12" fill="#00f"/>
<line x1="192" y1="281" x2="294" y2="281" stroke="#00f"/>
<rect x="415" y="276" width="185" height="10" fill="#ff0"/>
<text x="20" y="305" class="sm">0.0001032</text>
<rect x="100" y="295" width="477" height="12" fill="#00f"/>
<rect x="645" y="295" width="227" height="12" fill="#00f"/>
<line x1="577" y1="301" x2="644" y2="301" stroke="#00f"/>
<rect x="415" y="296" width="162" height="10" fill="#ff0"/>
<rect x="646" y="296" width="79" height="10" fill="#ff0"/>
<text x="20" y="325" class="sm">7.935e-05</text>
<rect x="100" y="315" width="365" height="12" fill="#00f"/>
<rect x="645" y="315" width="227" height="12" fill="#00f"/>
<line x1="465" y1="321" x2="644" y2="321" stroke="#00f"/>
<rect x="415" y="316" width="50" height="10" fill="#ff0"/>
<rect x="646" y="316" width="134" height="10" fill="#ff0"/>
<text x="20" y="345" class="sm">6.828e-05</text>
<rect x="100" y="335" width="434" height="12" fill="#00f"/>
<rect x="645" y="335" width="227" height="12" fill="#00f"/>
<line x1="534" y1="341" x2="644" y2="341" stroke="#00f"/>
<rect x="415" y="336" width="119" height="10" fill="#ff0"/>
<rect x="646" y="336" width="134" height="10" fill="#ff0"/>
<text x="20" y="365" class="sm">5.718e-05</text>
<rect x="100" y="355" width="234" height="12" fill="#00f"/>
<rect x="400" y="355" width="472" height="12" fill="#00f"/>
<line x1="334" y1="361" x2="399" y2="361" stroke="#00f"/>
<rect x="415" y="356" width="185" height="10" fill="#ff0"/>
<text x="20" y="385" class="sm">4.724e-05</text>
<rect x="100" y="375" width="208" height="12" fill="#00f"/>
<rect x="645" y="375" width="227" height="12" fill="#00f"/>
<line x1="308" y1="381" x2="644" y2="381" stroke="#00f"/>
<rect x="854" y="376" width="18" height="10" fill="#ff0"/>
<text x="20" y="405" class="sm">3.253e-05</text>
<rect x="100" y="395" width="161" height="12" fill="#00f"/>
<rect x="400" y="395" width="472" height="12" fill="#00f"/>
<line x1="261" y1="401" x2="399" y2="401" stroke="#00f"/>
<rect x="415" y="396" width="185" height="10" fill="#ff0"/>
<text x="20" y="425" class="sm">2.328e-05</text>
<rect x="100" y="415" width="92" height="12" fill="#00f"/>
<rect x="335" y="415" width="537" height="12" fill="#00f"/>
<line x1="192" y1="421" x2="334" y2="421" stroke="#00f"/>
<rect x="415" y="416" width="185" height="10" fill="#ff0"/>
<text x="20" y="445" class="sm">6.408e-06</text>
<rect x="100" y="435" width="338" height="12" fill="#00f"/>
<rect x="645" y="435" width="227" height="12" fill="#00f"/>
<line x1="438" y1="441" x2="644" y2="441" stroke="#00f"/>
<rect x="415" y="436" width="23" height="10" fill="#ff0"/>
<rect x="646" y="436" width="134" height="10" fill="#ff0"/>
<text x="20" y="465" class="sm">4.358e-06</text>
<rect x="100" y="455" width="188" height="12" fill="#00f"/>
<rect x="645" y="455" width="227" height="12" fill="#00f"/>
<line x1="288" y1="461" x2="644" y2="461" stroke="#00f"/>
<rect x="834" y="456" width="38" height="10" fill="#ff0"/>
<text x="20" y="485" class="sm">3.633e-06</text>
<rect x="100" y="475" width="188" height="12" fill="#00f"/>
<rect x="335" y="475" width="537" height="12" fill="#00f"/>
<line x1="288" y1="481" x2="334" y2="481" stroke="#00f"/>
<rect x="415" y="476" width="185" height="10" fill="#ff0"/>
<text x="20" y="505" class="sm">2.158e-06</text>
<rect x="100" y="495" width="40" height="12" fill="#00f"/>
<rect x="400" y="495" width="472" height="12" fill="#00f"/>
<line x1="140" y1="501" x2="399" y2="501" stroke="#00f"/>
<rect x="415" y="496" width="185" height="10" fill="#ff0"/>
</svg>
