<svg viewBox="0 0 599 515" xmlns="http://www.w3.org/2000/svg">

<style>
  .sm { font: 12px sans-serif; }
  .lg { font: 15px sans-serif; }
</style>
<rect fill="#ddd" x="0" y="0" width="100%" height="100%"/>
<text x="20" y="20" class="lg">ch.10164 IV:5895390-5895988 Gene:WBGene00019152</text>
<text x="20" y="50" class="sm">WormBase</text>
<rect x="100" y="40" width="226" height="12" fill="#00f"/>
<rect x="374" y="40" width="125" height="12" fill="#00f"/>
<line x1="326" y1="46" x2="373" y2="46" stroke="#00f"/>
<rect x="129" y="41" width="197" height="10" fill="#ff0"/>
<rect x="375" y="41" width="56" height="10" fill="#ff0"/>
<rect x="101" y="41" width="27" height="10" fill="brown"><title>.</title></rect>
<rect x="432" y="41" width="67" height="10" fill="brown"><title>.</title></rect>
<text x="20" y="70" class="sm">Fitness: 0.0038041120174220023</text>
<rect x="326" y="65" width="48" height="5" fill="#00f"><title>225111.0</title></rect>
<rect x="250" y="70" width="36" height="5" fill="#f0f"><title>12.0</title></rect>
<rect x="256" y="75" width="45" height="5" fill="#f0f"><title>5.0</title></rect>
<text x="20" y="105" class="sm">0.9981</text>
<rect x="100" y="95" width="226" height="12" fill="#00f"/>
<rect x="374" y="95" width="128" height="12" fill="#00f"/>
<line x1="326" y1="101" x2="373" y2="101" stroke="#00f"/>
<rect x="129" y="96" width="197" height="10" fill="#ff0"/>
<rect x="375" y="96" width="56" height="10" fill="#ff0"/>
<text x="20" y="125" class="sm">0.001749</text>
<rect x="100" y="115" width="234" height="12" fill="#00f"/>
<rect x="374" y="115" width="128" height="12" fill="#00f"/>
<line x1="334" y1="121" x2="373" y2="121" stroke="#00f"/>
<rect x="129" y="116" width="205" height="10" fill="#ff0"/>
<rect x="375" y="116" width="42" height="10" fill="#ff0"/>
<text x="20" y="145" class="sm">0.0001045</text>
<rect x="100" y="135" width="226" height="12" fill="#00f"/>
<rect x="442" y="135" width="60" height="12" fill="#00f"/>
<line x1="326" y1="141" x2="441" y2="141" stroke="#00f"/>
<rect x="129" y="136" width="197" height="10" fill="#ff0"/>
<rect x="443" y="136" width="47" height="10" fill="#ff0"/>
<text x="20" y="165" class="sm">3.858e-05</text>
<rect x="100" y="155" width="234" height="12" fill="#00f"/>
<rect x="442" y="155" width="60" height="12" fill="#00f"/>
<line x1="334" y1="161" x2="441" y2="161" stroke="#00f"/>
<rect x="129" y="156" width="205" height="10" fill="#ff0"/>
<rect x="443" y="156" width="57" height="10" fill="#ff0"/>
<text x="20" y="185" class="sm">6.961e-06</text>
<rect x="100" y="175" width="234" height="12" fill="#00f"/>
<rect x="384" y="175" width="118" height="12" fill="#00f"/>
<line x1="334" y1="181" x2="383" y2="181" stroke="#00f"/>
<rect x="129" y="176" width="205" height="10" fill="#ff0"/>
<rect x="385" y="176" width="105" height="10" fill="#ff0"/>
<text x="20" y="205" class="sm">8.67e-07</text>
<rect x="100" y="195" width="234" height="12" fill="#00f"/>
<rect x="390" y="195" width="112" height="12" fill="#00f"/>
<line x1="334" y1="201" x2="389" y2="201" stroke="#00f"/>
<rect x="129" y="196" width="205" height="10" fill="#ff0"/>
<rect x="391" y="196" width="99" height="10" fill="#ff0"/>
<text x="20" y="225" class="sm">8.663e-07</text>
<rect x="100" y="215" width="226" height="12" fill="#00f"/>
<rect x="434" y="215" width="68" height="12" fill="#00f"/>
<line x1="326" y1="221" x2="433" y2="221" stroke="#00f"/>
<rect x="129" y="216" width="197" height="10" fill="#ff0"/>
<rect x="435" y="216" width="65" height="10" fill="#ff0"/>
<text x="20" y="245" class="sm">4.807e-07</text>
<rect x="100" y="235" width="226" height="12" fill="#00f"/>
<rect x="428" y="235" width="74" height="12" fill="#00f"/>
<line x1="326" y1="241" x2="427" y2="241" stroke="#00f"/>
<rect x="129" y="236" width="197" height="10" fill="#ff0"/>
<rect x="429" y="236" width="2" height="10" fill="#ff0"/>
<text x="20" y="265" class="sm">3.307e-07</text>
<rect x="100" y="255" width="226" height="12" fill="#00f"/>
<rect x="431" y="255" width="71" height="12" fill="#00f"/>
<line x1="326" y1="261" x2="430" y2="261" stroke="#00f"/>
<rect x="129" y="256" width="197" height="10" fill="#ff0"/>
<rect x="432" y="256" width="68" height="10" fill="#ff0"/>
<text x="20" y="285" class="sm">1.338e-07</text>
<rect x="100" y="275" width="226" height="12" fill="#00f"/>
<rect x="384" y="275" width="118" height="12" fill="#00f"/>
<line x1="326" y1="281" x2="383" y2="281" stroke="#00f"/>
<rect x="129" y="276" width="197" height="10" fill="#ff0"/>
<rect x="385" y="276" width="32" height="10" fill="#ff0"/>
<text x="20" y="305" class="sm">1.268e-07</text>
<rect x="100" y="295" width="234" height="12" fill="#00f"/>
<rect x="434" y="295" width="68" height="12" fill="#00f"/>
<line x1="334" y1="301" x2="433" y2="301" stroke="#00f"/>
<rect x="129" y="296" width="205" height="10" fill="#ff0"/>
<rect x="435" y="296" width="51" height="10" fill="#ff0"/>
<text x="20" y="325" class="sm">1.216e-07</text>
<rect x="100" y="315" width="234" height="12" fill="#00f"/>
<rect x="428" y="315" width="74" height="12" fill="#00f"/>
<line x1="334" y1="321" x2="427" y2="321" stroke="#00f"/>
<rect x="129" y="316" width="205" height="10" fill="#ff0"/>
<rect x="429" y="316" width="57" height="10" fill="#ff0"/>
<text x="20" y="345" class="sm">6.589e-08</text>
<rect x="100" y="335" width="234" height="12" fill="#00f"/>
<rect x="431" y="335" width="71" height="12" fill="#00f"/>
<line x1="334" y1="341" x2="430" y2="341" stroke="#00f"/>
<rect x="129" y="336" width="205" height="10" fill="#ff0"/>
<rect x="432" y="336" width="54" height="10" fill="#ff0"/>
<text x="20" y="365" class="sm">2.473e-08</text>
<rect x="100" y="355" width="226" height="12" fill="#00f"/>
<rect x="390" y="355" width="112" height="12" fill="#00f"/>
<line x1="326" y1="361" x2="389" y2="361" stroke="#00f"/>
<rect x="129" y="356" width="197" height="10" fill="#ff0"/>
<rect x="391" y="356" width="26" height="10" fill="#ff0"/>
<text x="20" y="385" class="sm">6.485e-10</text>
<rect x="100" y="375" width="234" height="12" fill="#00f"/>
<rect x="413" y="375" width="89" height="12" fill="#00f"/>
<line x1="334" y1="381" x2="412" y2="381" stroke="#00f"/>
<rect x="129" y="376" width="205" height="10" fill="#ff0"/>
<rect x="414" y="376" width="3" height="10" fill="#ff0"/>
<text x="20" y="405" class="sm">5.89e-10</text>
<rect x="100" y="395" width="226" height="12" fill="#00f"/>
<rect x="413" y="395" width="89" height="12" fill="#00f"/>
<line x1="326" y1="401" x2="412" y2="401" stroke="#00f"/>
<rect x="129" y="396" width="197" height="10" fill="#ff0"/>
<rect x="414" y="396" width="17" height="10" fill="#ff0"/>
<text x="20" y="425" class="sm">1.447e-10</text>
<rect x="100" y="415" width="93" height="12" fill="#00f"/>
<rect x="243" y="415" width="83" height="12" fill="#00f"/>
<rect x="374" y="415" width="128" height="12" fill="#00f"/>
<line x1="193" y1="421" x2="242" y2="421" stroke="#00f"/>
<line x1="326" y1="421" x2="373" y2="421" stroke="#00f"/>
<rect x="129" y="416" width="64" height="10" fill="#ff0"/>
<rect x="244" y="416" width="78" height="10" fill="#ff0"/>
<text x="20" y="445" class="sm">2.349e-11</text>
<rect x="100" y="435" width="91" height="12" fill="#00f"/>
<rect x="243" y="435" width="83" height="12" fill="#00f"/>
<rect x="374" y="435" width="128" height="12" fill="#00f"/>
<line x1="191" y1="441" x2="242" y2="441" stroke="#00f"/>
<line x1="326" y1="441" x2="373" y2="441" stroke="#00f"/>
<rect x="129" y="436" width="62" height="10" fill="#ff0"/>
<rect x="244" y="436" width="82" height="10" fill="#ff0"/>
<rect x="375" y="436" width="42" height="10" fill="#ff0"/>
<text x="20" y="465" class="sm">3.223e-13</text>
<rect x="100" y="455" width="93" height="12" fill="#00f"/>
<rect x="243" y="455" width="91" height="12" fill="#00f"/>
<rect x="374" y="455" width="128" height="12" fill="#00f"/>
<line x1="193" y1="461" x2="242" y2="461" stroke="#00f"/>
<line x1="334" y1="461" x2="373" y2="461" stroke="#00f"/>
<rect x="129" y="456" width="64" height="10" fill="#ff0"/>
<rect x="244" y="456" width="78" height="10" fill="#ff0"/>
<text x="20" y="485" class="sm">2.853e-13</text>
<rect x="100" y="475" width="298" height="12" fill="#00f"/>
<rect x="442" y="475" width="60" height="12" fill="#00f"/>
<line x1="398" y1="481" x2="441" y2="481" stroke="#00f"/>
<rect x="129" y="476" width="209" height="10" fill="#ff0"/>
</svg>
