<svg viewBox="0 0 510 515" xmlns="http://www.w3.org/2000/svg">

<style>
  .sm { font: 12px sans-serif; }
  .lg { font: 15px sans-serif; }
</style>
<rect fill="#ddd" x="0" y="0" width="100%" height="100%"/>
<text x="20" y="20" class="lg">ch.13394 V:3978725-3979234 Gene:WBGene00015046</text>
<text x="20" y="50" class="sm">WormBase</text>
<rect x="102" y="40" width="91" height="12" fill="#00f"/>
<rect x="239" y="40" width="173" height="12" fill="#00f"/>
<line x1="193" y1="46" x2="238" y2="46" stroke="#00f"/>
<rect x="109" y="41" width="84" height="10" fill="#ff0"/>
<rect x="240" y="41" width="94" height="10" fill="#ff0"/>
<rect x="103" y="41" width="5" height="10" fill="brown"><title>.</title></rect>
<rect x="335" y="41" width="77" height="10" fill="brown"><title>.</title></rect>
<text x="20" y="70" class="sm">Fitness: 2.9974186627477177e-07</text>
<rect x="193" y="65" width="46" height="5" fill="#00f"><title>536211.0</title></rect>
<rect x="197" y="70" width="42" height="5" fill="#00f"><title>36.0</title></rect>
<rect x="169" y="75" width="51" height="5" fill="#f0f"><title>6.0</title></rect>
<text x="20" y="105" class="sm">0.9999</text>
<rect x="100" y="95" width="93" height="12" fill="#00f"/>
<rect x="239" y="95" width="174" height="12" fill="#00f"/>
<line x1="193" y1="101" x2="238" y2="101" stroke="#00f"/>
<rect x="109" y="96" width="84" height="10" fill="#ff0"/>
<rect x="240" y="96" width="94" height="10" fill="#ff0"/>
<text x="20" y="125" class="sm">6.711e-05</text>
<rect x="100" y="115" width="97" height="12" fill="#00f"/>
<rect x="239" y="115" width="174" height="12" fill="#00f"/>
<line x1="197" y1="121" x2="238" y2="121" stroke="#00f"/>
<rect x="109" y="116" width="88" height="10" fill="#ff0"/>
<rect x="240" y="116" width="108" height="10" fill="#ff0"/>
<text x="20" y="145" class="sm">1.497e-07</text>
<rect x="100" y="135" width="58" height="12" fill="#00f"/>
<rect x="239" y="135" width="174" height="12" fill="#00f"/>
<line x1="158" y1="141" x2="238" y2="141" stroke="#00f"/>
<rect x="109" y="136" width="49" height="10" fill="#ff0"/>
<rect x="240" y="136" width="108" height="10" fill="#ff0"/>
<text x="20" y="165" class="sm">1.339e-10</text>
<rect x="100" y="155" width="58" height="12" fill="#00f"/>
<rect x="198" y="155" width="215" height="12" fill="#00f"/>
<line x1="158" y1="161" x2="197" y2="161" stroke="#00f"/>
<rect x="109" y="156" width="49" height="10" fill="#ff0"/>
<rect x="199" y="156" width="135" height="10" fill="#ff0"/>
<text x="20" y="185" class="sm">2.89e-11</text>
<rect x="100" y="175" width="65" height="12" fill="#00f"/>
<rect x="239" y="175" width="174" height="12" fill="#00f"/>
<line x1="165" y1="181" x2="238" y2="181" stroke="#00f"/>
<rect x="109" y="176" width="56" height="10" fill="#ff0"/>
<rect x="240" y="176" width="122" height="10" fill="#ff0"/>
<text x="20" y="205" class="sm">2.879e-12</text>
<rect x="100" y="195" width="35" height="12" fill="#00f"/>
<rect x="239" y="195" width="174" height="12" fill="#00f"/>
<line x1="135" y1="201" x2="238" y2="201" stroke="#00f"/>
<rect x="109" y="196" width="26" height="10" fill="#ff0"/>
<rect x="240" y="196" width="122" height="10" fill="#ff0"/>
<text x="20" y="225" class="sm">2.007e-13</text>
<rect x="100" y="215" width="93" height="12" fill="#00f"/>
<rect x="260" y="215" width="153" height="12" fill="#00f"/>
<line x1="193" y1="221" x2="259" y2="221" stroke="#00f"/>
<rect x="188" y="216" width="5" height="10" fill="#ff0"/>
<rect x="261" y="216" width="101" height="10" fill="#ff0"/>
<text x="20" y="245" class="sm">7.341e-14</text>
<rect x="100" y="235" width="58" height="12" fill="#00f"/>
<rect x="217" y="235" width="196" height="12" fill="#00f"/>
<line x1="158" y1="241" x2="216" y2="241" stroke="#00f"/>
<rect x="109" y="236" width="49" height="10" fill="#ff0"/>
<rect x="218" y="236" width="144" height="10" fill="#ff0"/>
<text x="20" y="265" class="sm">2.289e-14</text>
<rect x="100" y="255" width="35" height="12" fill="#00f"/>
<rect x="175" y="255" width="238" height="12" fill="#00f"/>
<line x1="135" y1="261" x2="174" y2="261" stroke="#00f"/>
<rect x="109" y="256" width="26" height="10" fill="#ff0"/>
<rect x="176" y="256" width="158" height="10" fill="#ff0"/>
<text x="20" y="285" class="sm">2.214e-14</text>
<rect x="100" y="275" width="93" height="12" fill="#00f"/>
<rect x="269" y="275" width="144" height="12" fill="#00f"/>
<line x1="193" y1="281" x2="268" y2="281" stroke="#00f"/>
<rect x="188" y="276" width="5" height="10" fill="#ff0"/>
<rect x="270" y="276" width="92" height="10" fill="#ff0"/>
<text x="20" y="305" class="sm">1.799e-14</text>
<rect x="100" y="295" width="93" height="12" fill="#00f"/>
<rect x="334" y="295" width="79" height="12" fill="#00f"/>
<line x1="193" y1="301" x2="333" y2="301" stroke="#00f"/>
<rect x="109" y="296" width="84" height="10" fill="#ff0"/>
<rect x="335" y="296" width="13" height="10" fill="#ff0"/>
<text x="20" y="325" class="sm">8.02e-15</text>
<rect x="100" y="315" width="116" height="12" fill="#00f"/>
<rect x="260" y="315" width="153" height="12" fill="#00f"/>
<line x1="216" y1="321" x2="259" y2="321" stroke="#00f"/>
<rect x="188" y="316" width="28" height="10" fill="#ff0"/>
<rect x="261" y="316" width="87" height="10" fill="#ff0"/>
<text x="20" y="345" class="sm">7.718e-16</text>
<rect x="100" y="335" width="116" height="12" fill="#00f"/>
<rect x="269" y="335" width="144" height="12" fill="#00f"/>
<line x1="216" y1="341" x2="268" y2="341" stroke="#00f"/>
<rect x="188" y="336" width="28" height="10" fill="#ff0"/>
<rect x="270" y="336" width="78" height="10" fill="#ff0"/>
<text x="20" y="365" class="sm">7.34e-16</text>
<rect x="100" y="355" width="146" height="12" fill="#00f"/>
<rect x="334" y="355" width="79" height="12" fill="#00f"/>
<line x1="246" y1="361" x2="333" y2="361" stroke="#00f"/>
<rect x="109" y="356" width="104" height="10" fill="#ff0"/>
<text x="20" y="385" class="sm">3.735e-16</text>
<rect x="100" y="375" width="35" height="12" fill="#00f"/>
<rect x="198" y="375" width="215" height="12" fill="#00f"/>
<line x1="135" y1="381" x2="197" y2="381" stroke="#00f"/>
<rect x="271" y="376" width="77" height="10" fill="#ff0"/>
<text x="20" y="405" class="sm">2.197e-16</text>
<rect x="100" y="395" width="65" height="12" fill="#00f"/>
<rect x="217" y="395" width="196" height="12" fill="#00f"/>
<line x1="165" y1="401" x2="216" y2="401" stroke="#00f"/>
<rect x="109" y="396" width="56" height="10" fill="#ff0"/>
<rect x="218" y="396" width="116" height="10" fill="#ff0"/>
<text x="20" y="425" class="sm">1.391e-16</text>
<rect x="100" y="415" width="97" height="12" fill="#00f"/>
<rect x="260" y="415" width="153" height="12" fill="#00f"/>
<line x1="197" y1="421" x2="259" y2="421" stroke="#00f"/>
<rect x="109" y="416" width="88" height="10" fill="#ff0"/>
<rect x="261" y="416" width="87" height="10" fill="#ff0"/>
<text x="20" y="445" class="sm">7.915e-18</text>
<rect x="100" y="435" width="58" height="12" fill="#00f"/>
<rect x="260" y="435" width="153" height="12" fill="#00f"/>
<line x1="158" y1="441" x2="259" y2="441" stroke="#00f"/>
<rect x="109" y="436" width="49" height="10" fill="#ff0"/>
<rect x="261" y="436" width="87" height="10" fill="#ff0"/>
<text x="20" y="465" class="sm">5.927e-18</text>
<rect x="100" y="455" width="97" height="12" fill="#00f"/>
<rect x="269" y="455" width="144" height="12" fill="#00f"/>
<line x1="197" y1="461" x2="268" y2="461" stroke="#00f"/>
<rect x="109" y="456" width="88" height="10" fill="#ff0"/>
<rect x="270" y="456" width="78" height="10" fill="#ff0"/>
<text x="20" y="485" class="sm">5.457e-18</text>
<rect x="100" y="475" width="97" height="12" fill="#00f"/>
<rect x="334" y="475" width="79" height="12" fill="#00f"/>
<line x1="197" y1="481" x2="333" y2="481" stroke="#00f"/>
<rect x="109" y="476" width="88" height="10" fill="#ff0"/>
<rect x="335" y="476" width="27" height="10" fill="#ff0"/>
</svg>
