<svg viewBox="0 0 670 520" xmlns="http://www.w3.org/2000/svg">

<style>
  .sm { font: 12px sans-serif; }
  .lg { font: 15px sans-serif; }
</style>
<rect fill="#ddd" x="0" y="0" width="100%" height="100%"/>
<text x="20" y="20" class="lg">ch.10955 IV:9510000-9510669 Gene:WBGene00007883</text>
<text x="20" y="50" class="sm">WormBase</text>
<rect x="102" y="40" width="109" height="12" fill="#00f"/>
<rect x="288" y="40" width="284" height="12" fill="#00f"/>
<line x1="211" y1="46" x2="287" y2="46" stroke="#00f"/>
<rect x="125" y="41" width="86" height="10" fill="#ff0"/>
<rect x="289" y="41" width="98" height="10" fill="#ff0"/>
<rect x="103" y="41" width="21" height="10" fill="brown"><title>.</title></rect>
<rect x="388" y="41" width="184" height="10" fill="brown"><title>.</title></rect>
<text x="20" y="70" class="sm">Fitness: 5.1467632582370905e-05</text>
<rect x="211" y="65" width="77" height="5" fill="#00f"><title>518243.0</title></rect>
<rect x="335" y="70" width="27" height="5" fill="#f0f"><title>11.0</title></rect>
<rect x="40" y="75" width="57" height="5" fill="#00f"><title>5.0</title></rect>
<rect x="40" y="80" width="51" height="5" fill="#f0f"><title>5.0</title></rect>
<text x="20" y="110" class="sm">1.0</text>
<rect x="100" y="100" width="111" height="12" fill="#00f"/>
<rect x="288" y="100" width="285" height="12" fill="#00f"/>
<line x1="211" y1="106" x2="287" y2="106" stroke="#00f"/>
<rect x="125" y="101" width="86" height="10" fill="#ff0"/>
<rect x="289" y="101" width="98" height="10" fill="#ff0"/>
<text x="20" y="130" class="sm">1.259e-05</text>
<rect x="100" y="120" width="77" height="12" fill="#00f"/>
<rect x="288" y="120" width="285" height="12" fill="#00f"/>
<line x1="177" y1="126" x2="287" y2="126" stroke="#00f"/>
<rect x="125" y="121" width="52" height="10" fill="#ff0"/>
<rect x="289" y="121" width="138" height="10" fill="#ff0"/>
<text x="20" y="150" class="sm">1.145e-05</text>
<rect x="100" y="140" width="111" height="12" fill="#00f"/>
<rect x="310" y="140" width="263" height="12" fill="#00f"/>
<line x1="211" y1="146" x2="309" y2="146" stroke="#00f"/>
<rect x="125" y="141" width="86" height="10" fill="#ff0"/>
<rect x="311" y="141" width="116" height="10" fill="#ff0"/>
<text x="20" y="170" class="sm">1.668e-06</text>
<rect x="100" y="160" width="91" height="12" fill="#00f"/>
<rect x="288" y="160" width="285" height="12" fill="#00f"/>
<line x1="191" y1="166" x2="287" y2="166" stroke="#00f"/>
<rect x="125" y="161" width="66" height="10" fill="#ff0"/>
<rect x="289" y="161" width="43" height="10" fill="#ff0"/>
<text x="20" y="190" class="sm">2.512e-08</text>
<rect x="100" y="180" width="162" height="12" fill="#00f"/>
<rect x="310" y="180" width="263" height="12" fill="#00f"/>
<line x1="262" y1="186" x2="309" y2="186" stroke="#00f"/>
<rect x="125" y="181" width="98" height="10" fill="#ff0"/>
<text x="20" y="210" class="sm">5.589e-10</text>
<rect x="100" y="200" width="117" height="12" fill="#00f"/>
<rect x="288" y="200" width="285" height="12" fill="#00f"/>
<line x1="217" y1="206" x2="287" y2="206" stroke="#00f"/>
<rect x="125" y="201" width="92" height="10" fill="#ff0"/>
<rect x="289" y="201" width="98" height="10" fill="#ff0"/>
<text x="20" y="230" class="sm">4.571e-10</text>
<rect x="100" y="220" width="57" height="12" fill="#00f"/>
<rect x="288" y="220" width="285" height="12" fill="#00f"/>
<line x1="157" y1="226" x2="287" y2="226" stroke="#00f"/>
<rect x="156" y="221" width="1" height="10" fill="#ff0"/>
<rect x="289" y="221" width="138" height="10" fill="#ff0"/>
<text x="20" y="250" class="sm">2.984e-10</text>
<rect x="100" y="240" width="77" height="12" fill="#00f"/>
<rect x="310" y="240" width="263" height="12" fill="#00f"/>
<line x1="177" y1="246" x2="309" y2="246" stroke="#00f"/>
<rect x="329" y="241" width="98" height="10" fill="#ff0"/>
<text x="20" y="270" class="sm">3.232e-11</text>
<rect x="100" y="260" width="91" height="12" fill="#00f"/>
<rect x="310" y="260" width="263" height="12" fill="#00f"/>
<line x1="191" y1="266" x2="309" y2="266" stroke="#00f"/>
<rect x="125" y="261" width="66" height="10" fill="#ff0"/>
<rect x="311" y="261" width="76" height="10" fill="#ff0"/>
<text x="20" y="290" class="sm">4.757e-12</text>
<rect x="100" y="280" width="93" height="12" fill="#00f"/>
<rect x="288" y="280" width="285" height="12" fill="#00f"/>
<line x1="193" y1="286" x2="287" y2="286" stroke="#00f"/>
<rect x="125" y="281" width="68" height="10" fill="#ff0"/>
<rect x="289" y="281" width="98" height="10" fill="#ff0"/>
<text x="20" y="310" class="sm">4.05e-12</text>
<rect x="100" y="300" width="111" height="12" fill="#00f"/>
<rect x="343" y="300" width="230" height="12" fill="#00f"/>
<line x1="211" y1="306" x2="342" y2="306" stroke="#00f"/>
<rect x="125" y="301" width="86" height="10" fill="#ff0"/>
<rect x="344" y="301" width="83" height="10" fill="#ff0"/>
<text x="20" y="330" class="sm">1.619e-12</text>
<rect x="100" y="320" width="63" height="12" fill="#00f"/>
<rect x="288" y="320" width="285" height="12" fill="#00f"/>
<line x1="163" y1="326" x2="287" y2="326" stroke="#00f"/>
<rect x="125" y="321" width="38" height="10" fill="#ff0"/>
<rect x="289" y="321" width="98" height="10" fill="#ff0"/>
<text x="20" y="350" class="sm">7.312e-13</text>
<rect x="100" y="340" width="152" height="12" fill="#00f"/>
<rect x="288" y="340" width="285" height="12" fill="#00f"/>
<line x1="252" y1="346" x2="287" y2="346" stroke="#00f"/>
<rect x="241" y="341" width="11" height="10" fill="#ff0"/>
<rect x="289" y="341" width="98" height="10" fill="#ff0"/>
<text x="20" y="370" class="sm">6.111e-13</text>
<rect x="100" y="360" width="111" height="12" fill="#00f"/>
<rect x="297" y="360" width="276" height="12" fill="#00f"/>
<line x1="211" y1="366" x2="296" y2="366" stroke="#00f"/>
<rect x="125" y="361" width="86" height="10" fill="#ff0"/>
<rect x="298" y="361" width="89" height="10" fill="#ff0"/>
<text x="20" y="390" class="sm">1.882e-14</text>
<rect x="100" y="380" width="77" height="12" fill="#00f"/>
<rect x="218" y="380" width="355" height="12" fill="#00f"/>
<line x1="177" y1="386" x2="217" y2="386" stroke="#00f"/>
<rect x="125" y="381" width="52" height="10" fill="#ff0"/>
<rect x="219" y="381" width="168" height="10" fill="#ff0"/>
<text x="20" y="410" class="sm">1.332e-14</text>
<rect x="100" y="400" width="152" height="12" fill="#00f"/>
<rect x="310" y="400" width="263" height="12" fill="#00f"/>
<line x1="252" y1="406" x2="309" y2="406" stroke="#00f"/>
<rect x="241" y="401" width="11" height="10" fill="#ff0"/>
<rect x="311" y="401" width="116" height="10" fill="#ff0"/>
<text x="20" y="430" class="sm">1.174e-14</text>
<rect x="100" y="420" width="57" height="12" fill="#00f"/>
<rect x="310" y="420" width="263" height="12" fill="#00f"/>
<line x1="157" y1="426" x2="309" y2="426" stroke="#00f"/>
<rect x="125" y="421" width="32" height="10" fill="#ff0"/>
<rect x="311" y="421" width="116" height="10" fill="#ff0"/>
<text x="20" y="450" class="sm">4.917e-15</text>
<rect x="100" y="440" width="117" height="12" fill="#00f"/>
<rect x="310" y="440" width="263" height="12" fill="#00f"/>
<line x1="217" y1="446" x2="309" y2="446" stroke="#00f"/>
<rect x="125" y="441" width="92" height="10" fill="#ff0"/>
<rect x="311" y="441" width="116" height="10" fill="#ff0"/>
<text x="20" y="470" class="sm">1.351e-16</text>
<rect x="100" y="460" width="93" height="12" fill="#00f"/>
<rect x="310" y="460" width="263" height="12" fill="#00f"/>
<line x1="193" y1="466" x2="309" y2="466" stroke="#00f"/>
<rect x="125" y="461" width="68" height="10" fill="#ff0"/>
<rect x="311" y="461" width="116" height="10" fill="#ff0"/>
<text x="20" y="490" class="sm">1.182e-16</text>
<rect x="100" y="480" width="28" height="12" fill="#00f"/>
<rect x="174" y="480" width="399" height="12" fill="#00f"/>
<line x1="128" y1="486" x2="173" y2="486" stroke="#00f"/>
<rect x="241" y="481" width="146" height="10" fill="#ff0"/>
</svg>
