<svg viewBox="0 0 572 510" xmlns="http://www.w3.org/2000/svg">

<style>
  .sm { font: 12px sans-serif; }
  .lg { font: 15px sans-serif; }
</style>
<rect fill="#ddd" x="0" y="0" width="100%" height="100%"/>
<text x="20" y="20" class="lg">ch.14927 V:10239490-10240061 Gene:WBGene00007537</text>
<text x="20" y="50" class="sm">WormBase</text>
<rect x="102" y="40" width="61" height="12" fill="#00f"/>
<rect x="210" y="40" width="264" height="12" fill="#00f"/>
<line x1="163" y1="46" x2="209" y2="46" stroke="#00f"/>
<rect x="150" y="41" width="13" height="10" fill="#ff0"/>
<rect x="211" y="41" width="207" height="10" fill="#ff0"/>
<rect x="103" y="41" width="46" height="10" fill="brown"><title>.</title></rect>
<rect x="419" y="41" width="55" height="10" fill="brown"><title>.</title></rect>
<text x="20" y="70" class="sm">Fitness: 1.4171400978314722e-09</text>
<rect x="163" y="65" width="47" height="5" fill="#00f"><title>111841.0</title></rect>
<rect x="359" y="70" width="49" height="5" fill="#f0f"><title>3.0</title></rect>
<text x="20" y="100" class="sm">1.0</text>
<rect x="100" y="90" width="63" height="12" fill="#00f"/>
<rect x="210" y="90" width="265" height="12" fill="#00f"/>
<line x1="163" y1="96" x2="209" y2="96" stroke="#00f"/>
<rect x="150" y="91" width="13" height="10" fill="#ff0"/>
<rect x="211" y="91" width="207" height="10" fill="#ff0"/>
<text x="20" y="120" class="sm">6.389e-10</text>
<rect x="100" y="110" width="67" height="12" fill="#00f"/>
<rect x="210" y="110" width="265" height="12" fill="#00f"/>
<line x1="167" y1="116" x2="209" y2="116" stroke="#00f"/>
<rect x="236" y="111" width="182" height="10" fill="#ff0"/>
<text x="20" y="140" class="sm">6.967e-11</text>
<rect x="100" y="130" width="63" height="12" fill="#00f"/>
<rect x="254" y="130" width="221" height="12" fill="#00f"/>
<line x1="163" y1="136" x2="253" y2="136" stroke="#00f"/>
<rect x="150" y="131" width="13" height="10" fill="#ff0"/>
<rect x="255" y="131" width="168" height="10" fill="#ff0"/>
<text x="20" y="160" class="sm">4.1e-18</text>
<rect x="100" y="150" width="87" height="12" fill="#00f"/>
<rect x="254" y="150" width="221" height="12" fill="#00f"/>
<line x1="187" y1="156" x2="253" y2="156" stroke="#00f"/>
<rect x="273" y="151" width="161" height="10" fill="#ff0"/>
<text x="20" y="180" class="sm">2.639e-18</text>
<rect x="100" y="170" width="63" height="12" fill="#00f"/>
<rect x="257" y="170" width="218" height="12" fill="#00f"/>
<line x1="163" y1="176" x2="256" y2="176" stroke="#00f"/>
<rect x="150" y="171" width="13" height="10" fill="#ff0"/>
<rect x="258" y="171" width="165" height="10" fill="#ff0"/>
<text x="20" y="200" class="sm">9.225e-20</text>
<rect x="100" y="190" width="67" height="12" fill="#00f"/>
<rect x="254" y="190" width="221" height="12" fill="#00f"/>
<line x1="167" y1="196" x2="253" y2="196" stroke="#00f"/>
<rect x="273" y="191" width="161" height="10" fill="#ff0"/>
<text x="20" y="220" class="sm">1.234e-20</text>
<rect x="100" y="210" width="63" height="12" fill="#00f"/>
<rect x="311" y="210" width="164" height="12" fill="#00f"/>
<line x1="163" y1="216" x2="310" y2="216" stroke="#00f"/>
<rect x="150" y="211" width="13" height="10" fill="#ff0"/>
<rect x="312" y="211" width="111" height="10" fill="#ff0"/>
<text x="20" y="240" class="sm">4.968e-24</text>
<rect x="100" y="230" width="63" height="12" fill="#00f"/>
<rect x="335" y="230" width="140" height="12" fill="#00f"/>
<line x1="163" y1="236" x2="334" y2="236" stroke="#00f"/>
<rect x="150" y="231" width="13" height="10" fill="#ff0"/>
<rect x="336" y="231" width="87" height="10" fill="#ff0"/>
<text x="20" y="260" class="sm">1.982e-24</text>
<rect x="100" y="250" width="63" height="12" fill="#00f"/>
<rect x="344" y="250" width="131" height="12" fill="#00f"/>
<line x1="163" y1="256" x2="343" y2="256" stroke="#00f"/>
<rect x="150" y="251" width="13" height="10" fill="#ff0"/>
<rect x="345" y="251" width="78" height="10" fill="#ff0"/>
<text x="20" y="280" class="sm">1.111e-25</text>
<rect x="100" y="270" width="87" height="12" fill="#00f"/>
<rect x="257" y="270" width="218" height="12" fill="#00f"/>
<line x1="187" y1="276" x2="256" y2="276" stroke="#00f"/>
<rect x="273" y="271" width="161" height="10" fill="#ff0"/>
<text x="20" y="300" class="sm">8.829e-26</text>
<rect x="100" y="290" width="63" height="12" fill="#00f"/>
<rect x="326" y="290" width="149" height="12" fill="#00f"/>
<line x1="163" y1="296" x2="325" y2="296" stroke="#00f"/>
<rect x="150" y="291" width="13" height="10" fill="#ff0"/>
<rect x="327" y="291" width="96" height="10" fill="#ff0"/>
<text x="20" y="320" class="sm">1.873e-26</text>
<rect x="100" y="310" width="137" height="12" fill="#00f"/>
<rect x="311" y="310" width="164" height="12" fill="#00f"/>
<line x1="237" y1="316" x2="310" y2="316" stroke="#00f"/>
<rect x="315" y="311" width="119" height="10" fill="#ff0"/>
<text x="20" y="340" class="sm">1.283e-26</text>
<rect x="100" y="330" width="147" height="12" fill="#00f"/>
<rect x="311" y="330" width="164" height="12" fill="#00f"/>
<line x1="247" y1="336" x2="310" y2="336" stroke="#00f"/>
<rect x="186" y="331" width="61" height="10" fill="#ff0"/>
<rect x="312" y="331" width="111" height="10" fill="#ff0"/>
<text x="20" y="360" class="sm">4.571e-27</text>
<rect x="100" y="350" width="63" height="12" fill="#00f"/>
<rect x="412" y="350" width="63" height="12" fill="#00f"/>
<line x1="163" y1="356" x2="411" y2="356" stroke="#00f"/>
<rect x="150" y="351" width="13" height="10" fill="#ff0"/>
<rect x="413" y="351" width="21" height="10" fill="#ff0"/>
<text x="20" y="380" class="sm">3.665e-27</text>
<rect x="100" y="370" width="67" height="12" fill="#00f"/>
<rect x="257" y="370" width="218" height="12" fill="#00f"/>
<line x1="167" y1="376" x2="256" y2="376" stroke="#00f"/>
<rect x="273" y="371" width="161" height="10" fill="#ff0"/>
<text x="20" y="400" class="sm">2.073e-28</text>
<rect x="100" y="390" width="87" height="12" fill="#00f"/>
<rect x="311" y="390" width="164" height="12" fill="#00f"/>
<line x1="187" y1="396" x2="310" y2="396" stroke="#00f"/>
<rect x="315" y="391" width="119" height="10" fill="#ff0"/>
<text x="20" y="420" class="sm">9.313e-29</text>
<rect x="100" y="410" width="120" height="12" fill="#00f"/>
<rect x="257" y="410" width="218" height="12" fill="#00f"/>
<line x1="220" y1="416" x2="256" y2="416" stroke="#00f"/>
<rect x="186" y="411" width="34" height="10" fill="#ff0"/>
<rect x="258" y="411" width="165" height="10" fill="#ff0"/>
<text x="20" y="440" class="sm">2.773e-29</text>
<rect x="100" y="430" width="67" height="12" fill="#00f"/>
<rect x="311" y="430" width="164" height="12" fill="#00f"/>
<line x1="167" y1="436" x2="310" y2="436" stroke="#00f"/>
<rect x="315" y="431" width="119" height="10" fill="#ff0"/>
<text x="20" y="460" class="sm">3.588e-30</text>
<rect x="100" y="450" width="137" height="12" fill="#00f"/>
<rect x="335" y="450" width="140" height="12" fill="#00f"/>
<line x1="237" y1="456" x2="334" y2="456" stroke="#00f"/>
<rect x="186" y="451" width="51" height="10" fill="#ff0"/>
<rect x="336" y="451" width="82" height="10" fill="#ff0"/>
<text x="20" y="480" class="sm">1.004e-30</text>
<rect x="100" y="470" width="137" height="12" fill="#00f"/>
<rect x="344" y="470" width="131" height="12" fill="#00f"/>
<line x1="237" y1="476" x2="343" y2="476" stroke="#00f"/>
<rect x="348" y="471" width="86" height="10" fill="#ff0"/>
</svg>
