<svg viewBox="0 0 665 530" xmlns="http://www.w3.org/2000/svg">

<style>
  .sm { font: 12px sans-serif; }
  .lg { font: 15px sans-serif; }
</style>
<rect fill="#ddd" x="0" y="0" width="100%" height="100%"/>
<text x="20" y="20" class="lg">ch.14064 V:7051615-7052279 Gene:WBGene00017613</text>
<text x="20" y="50" class="sm">WormBase</text>
<rect x="100" y="40" width="77" height="12" fill="#00f"/>
<rect x="227" y="40" width="338" height="12" fill="#00f"/>
<line x1="177" y1="46" x2="226" y2="46" stroke="#00f"/>
<rect x="114" y="41" width="63" height="10" fill="#ff0"/>
<rect x="228" y="41" width="277" height="10" fill="#ff0"/>
<rect x="101" y="41" width="12" height="10" fill="brown"><title>.</title></rect>
<rect x="506" y="41" width="59" height="10" fill="brown"><title>.</title></rect>
<text x="20" y="70" class="sm">Fitness: 5.114443557176157e-05</text>
<rect x="177" y="65" width="50" height="5" fill="#00f"><title>899297.0</title></rect>
<rect x="183" y="70" width="44" height="5" fill="#00f"><title>93.0</title></rect>
<rect x="350" y="75" width="47" height="5" fill="#f0f"><title>13.0</title></rect>
<rect x="183" y="80" width="52" height="5" fill="#00f"><title>12.0</title></rect>
<rect x="131" y="85" width="320" height="5" fill="#00f"><title>7.0</title></rect>
<rect x="271" y="90" width="54" height="5" fill="#00f"><title>4.0</title></rect>
<text x="20" y="120" class="sm">0.9999</text>
<rect x="100" y="110" width="77" height="12" fill="#00f"/>
<rect x="227" y="110" width="341" height="12" fill="#00f"/>
<line x1="177" y1="116" x2="226" y2="116" stroke="#00f"/>
<rect x="114" y="111" width="63" height="10" fill="#ff0"/>
<rect x="228" y="111" width="277" height="10" fill="#ff0"/>
<text x="20" y="140" class="sm">0.0001035</text>
<rect x="100" y="130" width="83" height="12" fill="#00f"/>
<rect x="227" y="130" width="341" height="12" fill="#00f"/>
<line x1="183" y1="136" x2="226" y2="136" stroke="#00f"/>
<rect x="114" y="131" width="69" height="10" fill="#ff0"/>
<rect x="228" y="131" width="277" height="10" fill="#ff0"/>
<text x="20" y="160" class="sm">1.24e-05</text>
<rect x="100" y="150" width="77" height="12" fill="#00f"/>
<rect x="241" y="150" width="327" height="12" fill="#00f"/>
<line x1="177" y1="156" x2="240" y2="156" stroke="#00f"/>
<rect x="157" y="151" width="20" height="10" fill="#ff0"/>
<rect x="242" y="151" width="263" height="10" fill="#ff0"/>
<text x="20" y="180" class="sm">7.542e-06</text>
<rect x="100" y="170" width="52" height="12" fill="#00f"/>
<rect x="227" y="170" width="341" height="12" fill="#00f"/>
<line x1="152" y1="176" x2="226" y2="176" stroke="#00f"/>
<rect x="236" y="171" width="269" height="10" fill="#ff0"/>
<text x="20" y="200" class="sm">3.322e-06</text>
<rect x="100" y="190" width="98" height="12" fill="#00f"/>
<rect x="241" y="190" width="327" height="12" fill="#00f"/>
<line x1="198" y1="196" x2="240" y2="196" stroke="#00f"/>
<rect x="157" y="191" width="41" height="10" fill="#ff0"/>
<rect x="242" y="191" width="263" height="10" fill="#ff0"/>
<text x="20" y="220" class="sm">2.214e-07</text>
<rect x="100" y="210" width="77" height="12" fill="#00f"/>
<rect x="256" y="210" width="312" height="12" fill="#00f"/>
<line x1="177" y1="216" x2="255" y2="216" stroke="#00f"/>
<rect x="157" y="211" width="20" height="10" fill="#ff0"/>
<rect x="257" y="211" width="248" height="10" fill="#ff0"/>
<text x="20" y="240" class="sm">4.507e-08</text>
<rect x="100" y="230" width="49" height="12" fill="#00f"/>
<rect x="227" y="230" width="341" height="12" fill="#00f"/>
<line x1="149" y1="236" x2="226" y2="236" stroke="#00f"/>
<rect x="236" y="231" width="269" height="10" fill="#ff0"/>
<text x="20" y="260" class="sm">2.307e-08</text>
<rect x="100" y="250" width="34" height="12" fill="#00f"/>
<rect x="227" y="250" width="341" height="12" fill="#00f"/>
<line x1="134" y1="256" x2="226" y2="256" stroke="#00f"/>
<rect x="236" y="251" width="269" height="10" fill="#ff0"/>
<text x="20" y="280" class="sm">2.209e-08</text>
<rect x="100" y="270" width="98" height="12" fill="#00f"/>
<rect x="256" y="270" width="312" height="12" fill="#00f"/>
<line x1="198" y1="276" x2="255" y2="276" stroke="#00f"/>
<rect x="157" y="271" width="41" height="10" fill="#ff0"/>
<rect x="257" y="271" width="248" height="10" fill="#ff0"/>
<text x="20" y="300" class="sm">2.119e-08</text>
<rect x="100" y="290" width="157" height="12" fill="#00f"/>
<rect x="325" y="290" width="243" height="12" fill="#00f"/>
<line x1="257" y1="296" x2="324" y2="296" stroke="#00f"/>
<rect x="374" y="291" width="131" height="10" fill="#ff0"/>
<text x="20" y="320" class="sm">1.778e-08</text>
<rect x="100" y="310" width="278" height="12" fill="#00f"/>
<rect x="424" y="310" width="144" height="12" fill="#00f"/>
<line x1="378" y1="316" x2="423" y2="316" stroke="#00f"/>
<rect x="236" y="311" width="142" height="10" fill="#ff0"/>
<rect x="425" y="311" width="96" height="10" fill="#ff0"/>
<text x="20" y="340" class="sm">1.356e-08</text>
<rect x="100" y="330" width="77" height="12" fill="#00f"/>
<rect x="227" y="330" width="151" height="12" fill="#00f"/>
<rect x="424" y="330" width="144" height="12" fill="#00f"/>
<line x1="177" y1="336" x2="226" y2="336" stroke="#00f"/>
<line x1="378" y1="336" x2="423" y2="336" stroke="#00f"/>
<rect x="114" y="331" width="63" height="10" fill="#ff0"/>
<rect x="228" y="331" width="150" height="10" fill="#ff0"/>
<rect x="425" y="331" width="96" height="10" fill="#ff0"/>
<text x="20" y="360" class="sm">1.338e-08</text>
<rect x="100" y="350" width="284" height="12" fill="#00f"/>
<rect x="424" y="350" width="144" height="12" fill="#00f"/>
<line x1="384" y1="356" x2="423" y2="356" stroke="#00f"/>
<rect x="236" y="351" width="148" height="10" fill="#ff0"/>
<rect x="425" y="351" width="96" height="10" fill="#ff0"/>
<text x="20" y="380" class="sm">1.184e-08</text>
<rect x="100" y="370" width="83" height="12" fill="#00f"/>
<rect x="241" y="370" width="327" height="12" fill="#00f"/>
<line x1="183" y1="376" x2="240" y2="376" stroke="#00f"/>
<rect x="157" y="371" width="26" height="10" fill="#ff0"/>
<rect x="242" y="371" width="263" height="10" fill="#ff0"/>
<text x="20" y="400" class="sm">1.086e-08</text>
<rect x="100" y="390" width="189" height="12" fill="#00f"/>
<rect x="325" y="390" width="243" height="12" fill="#00f"/>
<line x1="289" y1="396" x2="324" y2="396" stroke="#00f"/>
<rect x="236" y="391" width="53" height="10" fill="#ff0"/>
<rect x="326" y="391" width="179" height="10" fill="#ff0"/>
<text x="20" y="420" class="sm">1.075e-08</text>
<rect x="100" y="410" width="77" height="12" fill="#00f"/>
<rect x="227" y="410" width="157" height="12" fill="#00f"/>
<rect x="424" y="410" width="144" height="12" fill="#00f"/>
<line x1="177" y1="416" x2="226" y2="416" stroke="#00f"/>
<line x1="384" y1="416" x2="423" y2="416" stroke="#00f"/>
<rect x="114" y="411" width="63" height="10" fill="#ff0"/>
<rect x="228" y="411" width="156" height="10" fill="#ff0"/>
<rect x="425" y="411" width="96" height="10" fill="#ff0"/>
<text x="20" y="440" class="sm">1.072e-08</text>
<rect x="100" y="430" width="77" height="12" fill="#00f"/>
<rect x="235" y="430" width="333" height="12" fill="#00f"/>
<line x1="177" y1="436" x2="234" y2="436" stroke="#00f"/>
<rect x="157" y="431" width="20" height="10" fill="#ff0"/>
<rect x="236" y="431" width="269" height="10" fill="#ff0"/>
<text x="20" y="460" class="sm">6.191e-09</text>
<rect x="100" y="450" width="77" height="12" fill="#00f"/>
<rect x="227" y="450" width="62" height="12" fill="#00f"/>
<rect x="325" y="450" width="243" height="12" fill="#00f"/>
<line x1="177" y1="456" x2="226" y2="456" stroke="#00f"/>
<line x1="289" y1="456" x2="324" y2="456" stroke="#00f"/>
<rect x="114" y="451" width="63" height="10" fill="#ff0"/>
<rect x="228" y="451" width="61" height="10" fill="#ff0"/>
<rect x="326" y="451" width="179" height="10" fill="#ff0"/>
<text x="20" y="480" class="sm">5.71e-09</text>
<rect x="100" y="470" width="77" height="12" fill="#00f"/>
<rect x="227" y="470" width="30" height="12" fill="#00f"/>
<rect x="325" y="470" width="243" height="12" fill="#00f"/>
<line x1="177" y1="476" x2="226" y2="476" stroke="#00f"/>
<line x1="257" y1="476" x2="324" y2="476" stroke="#00f"/>
<rect x="390" y="471" width="131" height="10" fill="#ff0"/>
<text x="20" y="500" class="sm">4.196e-09</text>
<rect x="100" y="490" width="52" height="12" fill="#00f"/>
<rect x="241" y="490" width="327" height="12" fill="#00f"/>
<line x1="152" y1="496" x2="240" y2="496" stroke="#00f"/>
<rect x="114" y="491" width="38" height="10" fill="#ff0"/>
<rect x="242" y="491" width="263" height="10" fill="#ff0"/>
</svg>
