<svg viewBox="0 0 618 510" xmlns="http://www.w3.org/2000/svg">

<style>
  .sm { font: 12px sans-serif; }
  .lg { font: 15px sans-serif; }
</style>
<rect fill="#ddd" x="0" y="0" width="100%" height="100%"/>
<text x="20" y="20" class="lg">ch.14921 V:10227943-10228560 Gene:WBGene00007541</text>
<text x="20" y="50" class="sm">WormBase</text>
<rect x="102" y="40" width="100" height="12" fill="#00f"/>
<rect x="258" y="40" width="262" height="12" fill="#00f"/>
<line x1="202" y1="46" x2="257" y2="46" stroke="#00f"/>
<rect x="189" y="41" width="13" height="10" fill="#ff0"/>
<rect x="259" y="41" width="207" height="10" fill="#ff0"/>
<rect x="103" y="41" width="85" height="10" fill="brown"><title>.</title></rect>
<rect x="467" y="41" width="53" height="10" fill="brown"><title>.</title></rect>
<text x="20" y="70" class="sm">Fitness: 6.203003632090855e-05</text>
<rect x="202" y="65" width="56" height="5" fill="#00f"><title>290173.0</title></rect>
<rect x="471" y="70" width="82" height="5" fill="#00f"><title>9.0</title></rect>
<text x="20" y="100" class="sm">1.0</text>
<rect x="100" y="90" width="102" height="12" fill="#00f"/>
<rect x="258" y="90" width="263" height="12" fill="#00f"/>
<line x1="202" y1="96" x2="257" y2="96" stroke="#00f"/>
<rect x="189" y="91" width="13" height="10" fill="#ff0"/>
<rect x="259" y="91" width="207" height="10" fill="#ff0"/>
<text x="20" y="120" class="sm">4.682e-06</text>
<rect x="100" y="110" width="102" height="12" fill="#00f"/>
<rect x="302" y="110" width="219" height="12" fill="#00f"/>
<line x1="202" y1="116" x2="301" y2="116" stroke="#00f"/>
<rect x="189" y="111" width="13" height="10" fill="#ff0"/>
<rect x="303" y="111" width="168" height="10" fill="#ff0"/>
<text x="20" y="140" class="sm">3.25e-06</text>
<rect x="100" y="130" width="106" height="12" fill="#00f"/>
<rect x="258" y="130" width="263" height="12" fill="#00f"/>
<line x1="206" y1="136" x2="257" y2="136" stroke="#00f"/>
<rect x="284" y="131" width="182" height="10" fill="#ff0"/>
<text x="20" y="160" class="sm">3.431e-07</text>
<rect x="100" y="150" width="144" height="12" fill="#00f"/>
<rect x="302" y="150" width="219" height="12" fill="#00f"/>
<line x1="244" y1="156" x2="301" y2="156" stroke="#00f"/>
<rect x="321" y="151" width="161" height="10" fill="#ff0"/>
<text x="20" y="180" class="sm">8.585e-08</text>
<rect x="100" y="170" width="63" height="12" fill="#00f"/>
<rect x="258" y="170" width="263" height="12" fill="#00f"/>
<line x1="163" y1="176" x2="257" y2="176" stroke="#00f"/>
<rect x="284" y="171" width="182" height="10" fill="#ff0"/>
<text x="20" y="200" class="sm">4.412e-08</text>
<rect x="100" y="190" width="66" height="12" fill="#00f"/>
<rect x="258" y="190" width="263" height="12" fill="#00f"/>
<line x1="166" y1="196" x2="257" y2="196" stroke="#00f"/>
<rect x="284" y="191" width="182" height="10" fill="#ff0"/>
<text x="20" y="220" class="sm">1.157e-08</text>
<rect x="100" y="210" width="29" height="12" fill="#00f"/>
<rect x="258" y="210" width="263" height="12" fill="#00f"/>
<line x1="129" y1="216" x2="257" y2="216" stroke="#00f"/>
<rect x="284" y="211" width="182" height="10" fill="#ff0"/>
<text x="20" y="240" class="sm">3.68e-09</text>
<rect x="100" y="230" width="29" height="12" fill="#00f"/>
<rect x="174" y="230" width="347" height="12" fill="#00f"/>
<line x1="129" y1="236" x2="173" y2="236" stroke="#00f"/>
<rect x="284" y="231" width="182" height="10" fill="#ff0"/>
<text x="20" y="260" class="sm">2.158e-09</text>
<rect x="100" y="250" width="40" height="12" fill="#00f"/>
<rect x="258" y="250" width="263" height="12" fill="#00f"/>
<line x1="140" y1="256" x2="257" y2="256" stroke="#00f"/>
<rect x="284" y="251" width="182" height="10" fill="#ff0"/>
<text x="20" y="280" class="sm">4.808e-10</text>
<rect x="100" y="270" width="29" height="12" fill="#00f"/>
<rect x="174" y="270" width="28" height="12" fill="#00f"/>
<rect x="258" y="270" width="263" height="12" fill="#00f"/>
<line x1="129" y1="276" x2="173" y2="276" stroke="#00f"/>
<line x1="202" y1="276" x2="257" y2="276" stroke="#00f"/>
<rect x="189" y="271" width="13" height="10" fill="#ff0"/>
<rect x="259" y="271" width="207" height="10" fill="#ff0"/>
<text x="20" y="300" class="sm">7.19e-11</text>
<rect x="100" y="290" width="102" height="12" fill="#00f"/>
<rect x="305" y="290" width="216" height="12" fill="#00f"/>
<line x1="202" y1="296" x2="304" y2="296" stroke="#00f"/>
<rect x="189" y="291" width="13" height="10" fill="#ff0"/>
<rect x="306" y="291" width="165" height="10" fill="#ff0"/>
<text x="20" y="320" class="sm">1.052e-11</text>
<rect x="100" y="310" width="106" height="12" fill="#00f"/>
<rect x="302" y="310" width="219" height="12" fill="#00f"/>
<line x1="206" y1="316" x2="301" y2="316" stroke="#00f"/>
<rect x="321" y="311" width="161" height="10" fill="#ff0"/>
<text x="20" y="340" class="sm">8.036e-12</text>
<rect x="100" y="330" width="129" height="12" fill="#00f"/>
<rect x="302" y="330" width="219" height="12" fill="#00f"/>
<line x1="229" y1="336" x2="301" y2="336" stroke="#00f"/>
<rect x="321" y="331" width="161" height="10" fill="#ff0"/>
<text x="20" y="360" class="sm">4.321e-12</text>
<rect x="100" y="350" width="144" height="12" fill="#00f"/>
<rect x="305" y="350" width="216" height="12" fill="#00f"/>
<line x1="244" y1="356" x2="304" y2="356" stroke="#00f"/>
<rect x="321" y="351" width="161" height="10" fill="#ff0"/>
<text x="20" y="380" class="sm">1.115e-12</text>
<rect x="100" y="370" width="63" height="12" fill="#00f"/>
<rect x="302" y="370" width="219" height="12" fill="#00f"/>
<line x1="163" y1="376" x2="301" y2="376" stroke="#00f"/>
<rect x="321" y="371" width="161" height="10" fill="#ff0"/>
<text x="20" y="400" class="sm">6.021e-13</text>
<rect x="100" y="390" width="29" height="12" fill="#00f"/>
<rect x="164" y="390" width="357" height="12" fill="#00f"/>
<line x1="129" y1="396" x2="163" y2="396" stroke="#00f"/>
<rect x="284" y="391" width="182" height="10" fill="#ff0"/>
<text x="20" y="420" class="sm">5.871e-13</text>
<rect x="100" y="410" width="66" height="12" fill="#00f"/>
<rect x="302" y="410" width="219" height="12" fill="#00f"/>
<line x1="166" y1="416" x2="301" y2="416" stroke="#00f"/>
<rect x="321" y="411" width="161" height="10" fill="#ff0"/>
<text x="20" y="440" class="sm">1.416e-13</text>
<rect x="100" y="430" width="29" height="12" fill="#00f"/>
<rect x="164" y="430" width="38" height="12" fill="#00f"/>
<rect x="258" y="430" width="263" height="12" fill="#00f"/>
<line x1="129" y1="436" x2="163" y2="436" stroke="#00f"/>
<line x1="202" y1="436" x2="257" y2="436" stroke="#00f"/>
<rect x="189" y="431" width="13" height="10" fill="#ff0"/>
<rect x="259" y="431" width="207" height="10" fill="#ff0"/>
<text x="20" y="460" class="sm">1.347e-13</text>
<rect x="100" y="450" width="102" height="12" fill="#00f"/>
<rect x="359" y="450" width="162" height="12" fill="#00f"/>
<line x1="202" y1="456" x2="358" y2="456" stroke="#00f"/>
<rect x="189" y="451" width="13" height="10" fill="#ff0"/>
<rect x="360" y="451" width="111" height="10" fill="#ff0"/>
<text x="20" y="480" class="sm">1.311e-13</text>
<rect x="100" y="470" width="29" height="12" fill="#00f"/>
<rect x="302" y="470" width="219" height="12" fill="#00f"/>
<line x1="129" y1="476" x2="301" y2="476" stroke="#00f"/>
<rect x="321" y="471" width="161" height="10" fill="#ff0"/>
</svg>
