<svg viewBox="0 0 818 555" xmlns="http://www.w3.org/2000/svg">

<style>
  .sm { font: 12px sans-serif; }
  .lg { font: 15px sans-serif; }
</style>
<rect fill="#ddd" x="0" y="0" width="100%" height="100%"/>
<text x="20" y="20" class="lg">ch.10999 IV:9707047-9707864 Gene:WBGene00010484</text>
<text x="20" y="50" class="sm">WormBase</text>
<rect x="100" y="40" width="119" height="12" fill="#00f"/>
<rect x="478" y="40" width="240" height="12" fill="#00f"/>
<line x1="219" y1="46" x2="477" y2="46" stroke="#00f"/>
<rect x="113" y="41" width="106" height="10" fill="#ff0"/>
<rect x="479" y="41" width="135" height="10" fill="#ff0"/>
<rect x="101" y="41" width="11" height="10" fill="brown"><title>.</title></rect>
<rect x="615" y="41" width="103" height="10" fill="brown"><title>.</title></rect>
<text x="20" y="70" class="sm">WormBase</text>
<rect x="482" y="60" width="132" height="12" fill="#00f"/>
<rect x="483" y="61" width="131" height="10" fill="#ff0"/>
<text x="20" y="90" class="sm">Fitness: 0.0010368641373545693</text>
<rect x="219" y="85" width="259" height="5" fill="#00f"><title>405621.0</title></rect>
<rect x="219" y="90" width="261" height="5" fill="#00f"><title>170.0</title></rect>
<rect x="328" y="95" width="150" height="5" fill="#00f"><title>52.0</title></rect>
<rect x="426" y="100" width="52" height="5" fill="#00f"><title>28.0</title></rect>
<rect x="219" y="105" width="237" height="5" fill="#00f"><title>27.0</title></rect>
<rect x="223" y="110" width="255" height="5" fill="#00f"><title>10.0</title></rect>
<rect x="223" y="115" width="257" height="5" fill="#00f"><title>3.0</title></rect>
<text x="20" y="145" class="sm">0.9993</text>
<rect x="100" y="135" width="119" height="12" fill="#00f"/>
<rect x="478" y="135" width="243" height="12" fill="#00f"/>
<line x1="219" y1="141" x2="477" y2="141" stroke="#00f"/>
<rect x="113" y="136" width="106" height="10" fill="#ff0"/>
<rect x="479" y="136" width="135" height="10" fill="#ff0"/>
<text x="20" y="165" class="sm">0.0002286</text>
<rect x="100" y="155" width="228" height="12" fill="#00f"/>
<rect x="478" y="155" width="243" height="12" fill="#00f"/>
<line x1="328" y1="161" x2="477" y2="161" stroke="#00f"/>
<rect x="483" y="156" width="131" height="10" fill="#ff0"/>
<text x="20" y="185" class="sm">0.000214</text>
<rect x="100" y="175" width="119" height="12" fill="#00f"/>
<rect x="520" y="175" width="201" height="12" fill="#00f"/>
<line x1="219" y1="181" x2="519" y2="181" stroke="#00f"/>
<rect x="113" y="176" width="106" height="10" fill="#ff0"/>
<rect x="521" y="176" width="93" height="10" fill="#ff0"/>
<text x="20" y="205" class="sm">7.013e-05</text>
<rect x="100" y="195" width="119" height="12" fill="#00f"/>
<rect x="456" y="195" width="265" height="12" fill="#00f"/>
<line x1="219" y1="201" x2="455" y2="201" stroke="#00f"/>
<rect x="113" y="196" width="106" height="10" fill="#ff0"/>
<rect x="457" y="196" width="33" height="10" fill="#ff0"/>
<text x="20" y="225" class="sm">5.062e-05</text>
<rect x="100" y="215" width="119" height="12" fill="#00f"/>
<rect x="507" y="215" width="214" height="12" fill="#00f"/>
<line x1="219" y1="221" x2="506" y2="221" stroke="#00f"/>
<rect x="113" y="216" width="106" height="10" fill="#ff0"/>
<rect x="508" y="216" width="48" height="10" fill="#ff0"/>
<text x="20" y="245" class="sm">4.347e-05</text>
<rect x="100" y="235" width="135" height="12" fill="#00f"/>
<rect x="478" y="235" width="243" height="12" fill="#00f"/>
<line x1="235" y1="241" x2="477" y2="241" stroke="#00f"/>
<rect x="483" y="236" width="131" height="10" fill="#ff0"/>
<text x="20" y="265" class="sm">2.834e-05</text>
<rect x="100" y="255" width="53" height="12" fill="#00f"/>
<rect x="478" y="255" width="243" height="12" fill="#00f"/>
<line x1="153" y1="261" x2="477" y2="261" stroke="#00f"/>
<rect x="113" y="256" width="40" height="10" fill="#ff0"/>
<rect x="479" y="256" width="135" height="10" fill="#ff0"/>
<text x="20" y="285" class="sm">2.435e-05</text>
<rect x="100" y="275" width="72" height="12" fill="#00f"/>
<rect x="478" y="275" width="243" height="12" fill="#00f"/>
<line x1="172" y1="281" x2="477" y2="281" stroke="#00f"/>
<rect x="483" y="276" width="131" height="10" fill="#ff0"/>
<text x="20" y="305" class="sm">1.634e-05</text>
<rect x="100" y="295" width="94" height="12" fill="#00f"/>
<rect x="478" y="295" width="243" height="12" fill="#00f"/>
<line x1="194" y1="301" x2="477" y2="301" stroke="#00f"/>
<rect x="187" y="296" width="7" height="10" fill="#ff0"/>
<rect x="479" y="296" width="135" height="10" fill="#ff0"/>
<text x="20" y="325" class="sm">6.957e-06</text>
<rect x="100" y="315" width="207" height="12" fill="#00f"/>
<rect x="478" y="315" width="243" height="12" fill="#00f"/>
<line x1="307" y1="321" x2="477" y2="321" stroke="#00f"/>
<rect x="483" y="316" width="131" height="10" fill="#ff0"/>
<text x="20" y="345" class="sm">5.11e-06</text>
<rect x="100" y="335" width="119" height="12" fill="#00f"/>
<rect x="478" y="335" width="61" height="12" fill="#00f"/>
<rect x="647" y="335" width="74" height="12" fill="#00f"/>
<line x1="219" y1="341" x2="477" y2="341" stroke="#00f"/>
<line x1="539" y1="341" x2="646" y2="341" stroke="#00f"/>
<rect x="113" y="336" width="106" height="10" fill="#ff0"/>
<rect x="479" y="336" width="60" height="10" fill="#ff0"/>
<rect x="648" y="336" width="29" height="10" fill="#ff0"/>
<text x="20" y="365" class="sm">4.327e-06</text>
<rect x="100" y="355" width="160" height="12" fill="#00f"/>
<rect x="478" y="355" width="243" height="12" fill="#00f"/>
<line x1="260" y1="361" x2="477" y2="361" stroke="#00f"/>
<rect x="483" y="356" width="131" height="10" fill="#ff0"/>
<text x="20" y="385" class="sm">3.193e-06</text>
<rect x="100" y="375" width="119" height="12" fill="#00f"/>
<rect x="478" y="375" width="61" height="12" fill="#00f"/>
<rect x="640" y="375" width="81" height="12" fill="#00f"/>
<line x1="219" y1="381" x2="477" y2="381" stroke="#00f"/>
<line x1="539" y1="381" x2="639" y2="381" stroke="#00f"/>
<rect x="113" y="376" width="106" height="10" fill="#ff0"/>
<rect x="479" y="376" width="60" height="10" fill="#ff0"/>
<rect x="641" y="376" width="17" height="10" fill="#ff0"/>
<text x="20" y="405" class="sm">2.179e-06</text>
<rect x="100" y="395" width="74" height="12" fill="#00f"/>
<rect x="478" y="395" width="243" height="12" fill="#00f"/>
<line x1="174" y1="401" x2="477" y2="401" stroke="#00f"/>
<rect x="113" y="396" width="61" height="10" fill="#ff0"/>
<rect x="479" y="396" width="135" height="10" fill="#ff0"/>
<text x="20" y="425" class="sm">8.82e-07</text>
<rect x="100" y="415" width="119" height="12" fill="#00f"/>
<rect x="478" y="415" width="59" height="12" fill="#00f"/>
<rect x="647" y="415" width="74" height="12" fill="#00f"/>
<line x1="219" y1="421" x2="477" y2="421" stroke="#00f"/>
<line x1="537" y1="421" x2="646" y2="421" stroke="#00f"/>
<rect x="113" y="416" width="106" height="10" fill="#ff0"/>
<rect x="479" y="416" width="58" height="10" fill="#ff0"/>
<rect x="648" y="416" width="10" height="10" fill="#ff0"/>
<text x="20" y="445" class="sm">6.71e-07</text>
<rect x="100" y="435" width="119" height="12" fill="#00f"/>
<rect x="333" y="435" width="93" height="12" fill="#00f"/>
<rect x="478" y="435" width="243" height="12" fill="#00f"/>
<line x1="219" y1="441" x2="332" y2="441" stroke="#00f"/>
<line x1="426" y1="441" x2="477" y2="441" stroke="#00f"/>
<rect x="483" y="436" width="131" height="10" fill="#ff0"/>
<text x="20" y="465" class="sm">5.948e-07</text>
<rect x="100" y="455" width="119" height="12" fill="#00f"/>
<rect x="478" y="455" width="130" height="12" fill="#00f"/>
<rect x="647" y="455" width="74" height="12" fill="#00f"/>
<line x1="219" y1="461" x2="477" y2="461" stroke="#00f"/>
<line x1="608" y1="461" x2="646" y2="461" stroke="#00f"/>
<rect x="113" y="456" width="106" height="10" fill="#ff0"/>
<rect x="479" y="456" width="129" height="10" fill="#ff0"/>
<rect x="648" y="456" width="29" height="10" fill="#ff0"/>
<text x="20" y="485" class="sm">5.44e-07</text>
<rect x="100" y="475" width="119" height="12" fill="#00f"/>
<rect x="478" y="475" width="59" height="12" fill="#00f"/>
<rect x="640" y="475" width="81" height="12" fill="#00f"/>
<line x1="219" y1="481" x2="477" y2="481" stroke="#00f"/>
<line x1="537" y1="481" x2="639" y2="481" stroke="#00f"/>
<rect x="113" y="476" width="106" height="10" fill="#ff0"/>
<rect x="479" y="476" width="58" height="10" fill="#ff0"/>
<rect x="641" y="476" width="73" height="10" fill="#ff0"/>
<text x="20" y="505" class="sm">4.003e-07</text>
<rect x="100" y="495" width="123" height="12" fill="#00f"/>
<rect x="478" y="495" width="243" height="12" fill="#00f"/>
<line x1="223" y1="501" x2="477" y2="501" stroke="#00f"/>
<rect x="483" y="496" width="131" height="10" fill="#ff0"/>
<text x="20" y="525" class="sm">3.466e-07</text>
<rect x="100" y="515" width="119" height="12" fill="#00f"/>
<rect x="478" y="515" width="61" height="12" fill="#00f"/>
<rect x="649" y="515" width="72" height="12" fill="#00f"/>
<line x1="219" y1="521" x2="477" y2="521" stroke="#00f"/>
<line x1="539" y1="521" x2="648" y2="521" stroke="#00f"/>
<rect x="113" y="516" width="106" height="10" fill="#ff0"/>
<rect x="479" y="516" width="60" height="10" fill="#ff0"/>
<rect x="650" y="516" width="8" height="10" fill="#ff0"/>
</svg>
