<svg viewBox="0 0 644 525" xmlns="http://www.w3.org/2000/svg">

<style>
  .sm { font: 12px sans-serif; }
  .lg { font: 15px sans-serif; }
</style>
<rect fill="#ddd" x="0" y="0" width="100%" height="100%"/>
<text x="20" y="20" class="lg">ch.18895 X:8610806-8611449 Gene:WBGene00044578</text>
<text x="20" y="50" class="sm">WormBase</text>
<rect x="100" y="40" width="269" height="12" fill="#00f"/>
<rect x="419" y="40" width="125" height="12" fill="#00f"/>
<line x1="369" y1="46" x2="418" y2="46" stroke="#00f"/>
<rect x="127" y="41" width="242" height="10" fill="#ff0"/>
<rect x="420" y="41" width="110" height="10" fill="#ff0"/>
<rect x="101" y="41" width="25" height="10" fill="brown"><title>.</title></rect>
<rect x="531" y="41" width="13" height="10" fill="brown"><title>.</title></rect>
<text x="20" y="70" class="sm">Fitness: 0.0063129927453771575</text>
<rect x="369" y="65" width="50" height="5" fill="#00f"><title>284193.0</title></rect>
<rect x="373" y="70" width="49" height="5" fill="#00f"><title>903.0</title></rect>
<rect x="369" y="75" width="53" height="5" fill="#00f"><title>111.0</title></rect>
<rect x="373" y="80" width="46" height="5" fill="#00f"><title>73.0</title></rect>
<rect x="188" y="85" width="100" height="5" fill="#f0f"><title>4.0</title></rect>
<text x="20" y="115" class="sm">0.9963</text>
<rect x="100" y="105" width="269" height="12" fill="#00f"/>
<rect x="419" y="105" width="128" height="12" fill="#00f"/>
<line x1="369" y1="111" x2="418" y2="111" stroke="#00f"/>
<rect x="127" y="106" width="242" height="10" fill="#ff0"/>
<rect x="420" y="106" width="110" height="10" fill="#ff0"/>
<text x="20" y="135" class="sm">0.002526</text>
<rect x="100" y="125" width="273" height="12" fill="#00f"/>
<rect x="419" y="125" width="128" height="12" fill="#00f"/>
<line x1="373" y1="131" x2="418" y2="131" stroke="#00f"/>
<rect x="127" y="126" width="246" height="10" fill="#ff0"/>
<rect x="420" y="126" width="10" height="10" fill="#ff0"/>
<text x="20" y="155" class="sm">0.001023</text>
<rect x="100" y="145" width="269" height="12" fill="#00f"/>
<rect x="422" y="145" width="125" height="12" fill="#00f"/>
<line x1="369" y1="151" x2="421" y2="151" stroke="#00f"/>
<rect x="127" y="146" width="242" height="10" fill="#ff0"/>
<rect x="423" y="146" width="107" height="10" fill="#ff0"/>
<text x="20" y="175" class="sm">0.000131</text>
<rect x="100" y="165" width="258" height="12" fill="#00f"/>
<rect x="419" y="165" width="128" height="12" fill="#00f"/>
<line x1="358" y1="171" x2="418" y2="171" stroke="#00f"/>
<rect x="215" y="166" width="143" height="10" fill="#ff0"/>
<rect x="420" y="166" width="110" height="10" fill="#ff0"/>
<text x="20" y="195" class="sm">1.051e-05</text>
<rect x="100" y="185" width="176" height="12" fill="#00f"/>
<rect x="321" y="185" width="226" height="12" fill="#00f"/>
<line x1="276" y1="191" x2="320" y2="191" stroke="#00f"/>
<rect x="127" y="186" width="149" height="10" fill="#ff0"/>
<rect x="322" y="186" width="122" height="10" fill="#ff0"/>
<text x="20" y="215" class="sm">8.815e-06</text>
<rect x="100" y="205" width="273" height="12" fill="#00f"/>
<rect x="422" y="205" width="125" height="12" fill="#00f"/>
<line x1="373" y1="211" x2="421" y2="211" stroke="#00f"/>
<rect x="127" y="206" width="246" height="10" fill="#ff0"/>
<rect x="423" y="206" width="7" height="10" fill="#ff0"/>
<text x="20" y="235" class="sm">7.185e-06</text>
<rect x="100" y="225" width="340" height="12" fill="#00f"/>
<rect x="491" y="225" width="56" height="12" fill="#00f"/>
<line x1="440" y1="231" x2="490" y2="231" stroke="#00f"/>
<rect x="127" y="226" width="313" height="10" fill="#ff0"/>
<rect x="492" y="226" width="15" height="10" fill="#ff0"/>
<text x="20" y="255" class="sm">1.584e-06</text>
<rect x="100" y="245" width="258" height="12" fill="#00f"/>
<rect x="397" y="245" width="150" height="12" fill="#00f"/>
<line x1="358" y1="251" x2="396" y2="251" stroke="#00f"/>
<rect x="127" y="246" width="231" height="10" fill="#ff0"/>
<rect x="398" y="246" width="46" height="10" fill="#ff0"/>
<text x="20" y="275" class="sm">1.351e-06</text>
<rect x="100" y="265" width="184" height="12" fill="#00f"/>
<rect x="419" y="265" width="128" height="12" fill="#00f"/>
<line x1="284" y1="271" x2="418" y2="271" stroke="#00f"/>
<rect x="127" y="266" width="157" height="10" fill="#ff0"/>
<rect x="420" y="266" width="24" height="10" fill="#ff0"/>
<text x="20" y="295" class="sm">2.545e-07</text>
<rect x="100" y="285" width="292" height="12" fill="#00f"/>
<rect x="441" y="285" width="106" height="12" fill="#00f"/>
<line x1="392" y1="291" x2="440" y2="291" stroke="#00f"/>
<rect x="127" y="286" width="265" height="10" fill="#ff0"/>
<rect x="442" y="286" width="72" height="10" fill="#ff0"/>
<text x="20" y="315" class="sm">2.044e-07</text>
<rect x="100" y="305" width="269" height="12" fill="#00f"/>
<rect x="466" y="305" width="81" height="12" fill="#00f"/>
<line x1="369" y1="311" x2="465" y2="311" stroke="#00f"/>
<rect x="127" y="306" width="242" height="10" fill="#ff0"/>
<rect x="467" y="306" width="47" height="10" fill="#ff0"/>
<text x="20" y="335" class="sm">1.816e-07</text>
<rect x="100" y="325" width="136" height="12" fill="#00f"/>
<rect x="419" y="325" width="128" height="12" fill="#00f"/>
<line x1="236" y1="331" x2="418" y2="331" stroke="#00f"/>
<rect x="127" y="326" width="109" height="10" fill="#ff0"/>
<rect x="420" y="326" width="24" height="10" fill="#ff0"/>
<text x="20" y="355" class="sm">1.292e-07</text>
<rect x="100" y="345" width="258" height="12" fill="#00f"/>
<rect x="422" y="345" width="125" height="12" fill="#00f"/>
<line x1="358" y1="351" x2="421" y2="351" stroke="#00f"/>
<rect x="215" y="346" width="143" height="10" fill="#ff0"/>
<rect x="423" y="346" width="107" height="10" fill="#ff0"/>
<text x="20" y="375" class="sm">1.166e-07</text>
<rect x="100" y="365" width="212" height="12" fill="#00f"/>
<rect x="419" y="365" width="128" height="12" fill="#00f"/>
<line x1="312" y1="371" x2="418" y2="371" stroke="#00f"/>
<rect x="127" y="366" width="185" height="10" fill="#ff0"/>
<rect x="420" y="366" width="110" height="10" fill="#ff0"/>
<text x="20" y="395" class="sm">1.007e-07</text>
<rect x="100" y="385" width="176" height="12" fill="#00f"/>
<rect x="419" y="385" width="128" height="12" fill="#00f"/>
<line x1="276" y1="391" x2="418" y2="391" stroke="#00f"/>
<rect x="127" y="386" width="149" height="10" fill="#ff0"/>
<rect x="420" y="386" width="110" height="10" fill="#ff0"/>
<text x="20" y="415" class="sm">1.007e-07</text>
<rect x="100" y="405" width="157" height="12" fill="#00f"/>
<rect x="419" y="405" width="128" height="12" fill="#00f"/>
<line x1="257" y1="411" x2="418" y2="411" stroke="#00f"/>
<rect x="127" y="406" width="130" height="10" fill="#ff0"/>
<rect x="420" y="406" width="24" height="10" fill="#ff0"/>
<text x="20" y="435" class="sm">9.814e-08</text>
<rect x="100" y="425" width="214" height="12" fill="#00f"/>
<rect x="419" y="425" width="128" height="12" fill="#00f"/>
<line x1="314" y1="431" x2="418" y2="431" stroke="#00f"/>
<rect x="127" y="426" width="187" height="10" fill="#ff0"/>
<rect x="420" y="426" width="24" height="10" fill="#ff0"/>
<text x="20" y="455" class="sm">9.579e-08</text>
<rect x="100" y="445" width="176" height="12" fill="#00f"/>
<rect x="321" y="445" width="48" height="12" fill="#00f"/>
<rect x="419" y="445" width="128" height="12" fill="#00f"/>
<line x1="276" y1="451" x2="320" y2="451" stroke="#00f"/>
<line x1="369" y1="451" x2="418" y2="451" stroke="#00f"/>
<rect x="127" y="446" width="149" height="10" fill="#ff0"/>
<rect x="322" y="446" width="47" height="10" fill="#ff0"/>
<rect x="420" y="446" width="110" height="10" fill="#ff0"/>
<text x="20" y="475" class="sm">6.948e-08</text>
<rect x="100" y="465" width="214" height="12" fill="#00f"/>
<rect x="368" y="465" width="179" height="12" fill="#00f"/>
<line x1="314" y1="471" x2="367" y2="471" stroke="#00f"/>
<rect x="127" y="466" width="187" height="10" fill="#ff0"/>
<rect x="369" y="466" width="75" height="10" fill="#ff0"/>
<text x="20" y="495" class="sm">4.301e-08</text>
<rect x="100" y="485" width="269" height="12" fill="#00f"/>
<rect x="441" y="485" width="106" height="12" fill="#00f"/>
<line x1="369" y1="491" x2="440" y2="491" stroke="#00f"/>
<rect x="127" y="486" width="242" height="10" fill="#ff0"/>
<rect x="442" y="486" width="2" height="10" fill="#ff0"/>
</svg>
