<svg viewBox="0 0 619 525" xmlns="http://www.w3.org/2000/svg">

<style>
  .sm { font: 12px sans-serif; }
  .lg { font: 15px sans-serif; }
</style>
<rect fill="#ddd" x="0" y="0" width="100%" height="100%"/>
<text x="20" y="20" class="lg">ch.15760 V:13621302-13621920 Gene:WBGene00023419</text>
<text x="20" y="50" class="sm">WormBase</text>
<rect x="102" y="40" width="135" height="12" fill="#00f"/>
<rect x="281" y="40" width="240" height="12" fill="#00f"/>
<line x1="237" y1="46" x2="280" y2="46" stroke="#00f"/>
<rect x="103" y="41" width="134" height="10" fill="#ff0"/>
<rect x="282" y="41" width="59" height="10" fill="#ff0"/>
<rect x="342" y="41" width="179" height="10" fill="brown"><title>.</title></rect>
<text x="20" y="70" class="sm">Fitness: 0.0005174448739671656</text>
<rect x="237" y="65" width="44" height="5" fill="#00f"><title>442722.0</title></rect>
<rect x="168" y="70" width="58" height="5" fill="#00f"><title>47.0</title></rect>
<rect x="168" y="75" width="113" height="5" fill="#00f"><title>35.0</title></rect>
<rect x="168" y="80" width="47" height="5" fill="#00f"><title>9.0</title></rect>
<rect x="11" y="85" width="91" height="5" fill="#00f"><title>4.0</title></rect>
<text x="20" y="115" class="sm">0.9997</text>
<rect x="100" y="105" width="137" height="12" fill="#00f"/>
<rect x="281" y="105" width="241" height="12" fill="#00f"/>
<line x1="237" y1="111" x2="280" y2="111" stroke="#00f"/>
<rect x="194" y="106" width="43" height="10" fill="#ff0"/>
<rect x="282" y="106" width="207" height="10" fill="#ff0"/>
<text x="20" y="135" class="sm">0.0001344</text>
<rect x="100" y="125" width="68" height="12" fill="#00f"/>
<rect x="281" y="125" width="241" height="12" fill="#00f"/>
<line x1="168" y1="131" x2="280" y2="131" stroke="#00f"/>
<rect x="103" y="126" width="65" height="10" fill="#ff0"/>
<rect x="282" y="126" width="59" height="10" fill="#ff0"/>
<text x="20" y="155" class="sm">0.0001002</text>
<rect x="100" y="145" width="114" height="12" fill="#00f"/>
<rect x="263" y="145" width="259" height="12" fill="#00f"/>
<line x1="214" y1="151" x2="262" y2="151" stroke="#00f"/>
<rect x="103" y="146" width="111" height="10" fill="#ff0"/>
<rect x="264" y="146" width="43" height="10" fill="#ff0"/>
<text x="20" y="175" class="sm">1.712e-05</text>
<rect x="100" y="165" width="137" height="12" fill="#00f"/>
<rect x="281" y="165" width="141" height="12" fill="#00f"/>
<rect x="467" y="165" width="55" height="12" fill="#00f"/>
<line x1="237" y1="171" x2="280" y2="171" stroke="#00f"/>
<line x1="422" y1="171" x2="466" y2="171" stroke="#00f"/>
<rect x="194" y="166" width="43" height="10" fill="#ff0"/>
<rect x="282" y="166" width="140" height="10" fill="#ff0"/>
<rect x="468" y="166" width="21" height="10" fill="#ff0"/>
<text x="20" y="195" class="sm">1.442e-05</text>
<rect x="100" y="185" width="137" height="12" fill="#00f"/>
<rect x="281" y="185" width="134" height="12" fill="#00f"/>
<rect x="467" y="185" width="55" height="12" fill="#00f"/>
<line x1="237" y1="191" x2="280" y2="191" stroke="#00f"/>
<line x1="415" y1="191" x2="466" y2="191" stroke="#00f"/>
<rect x="103" y="186" width="134" height="10" fill="#ff0"/>
<rect x="282" y="186" width="59" height="10" fill="#ff0"/>
<text x="20" y="215" class="sm">1.064e-05</text>
<rect x="100" y="205" width="315" height="12" fill="#00f"/>
<rect x="467" y="205" width="55" height="12" fill="#00f"/>
<line x1="415" y1="211" x2="466" y2="211" stroke="#00f"/>
<rect x="103" y="206" width="164" height="10" fill="#ff0"/>
<text x="20" y="235" class="sm">1.025e-05</text>
<rect x="100" y="225" width="322" height="12" fill="#00f"/>
<rect x="467" y="225" width="55" height="12" fill="#00f"/>
<line x1="422" y1="231" x2="466" y2="231" stroke="#00f"/>
<rect x="103" y="226" width="164" height="10" fill="#ff0"/>
<text x="20" y="255" class="sm">9.416e-06</text>
<rect x="100" y="245" width="68" height="12" fill="#00f"/>
<rect x="467" y="245" width="55" height="12" fill="#00f"/>
<line x1="168" y1="251" x2="466" y2="251" stroke="#00f"/>
<rect x="103" y="246" width="65" height="10" fill="#ff0"/>
<rect x="468" y="246" width="38" height="10" fill="#ff0"/>
<text x="20" y="275" class="sm">9.096e-06</text>
<rect x="100" y="265" width="137" height="12" fill="#00f"/>
<rect x="311" y="265" width="211" height="12" fill="#00f"/>
<line x1="237" y1="271" x2="310" y2="271" stroke="#00f"/>
<rect x="194" y="266" width="43" height="10" fill="#ff0"/>
<rect x="312" y="266" width="177" height="10" fill="#ff0"/>
<text x="20" y="295" class="sm">6.254e-06</text>
<rect x="100" y="285" width="114" height="12" fill="#00f"/>
<rect x="257" y="285" width="265" height="12" fill="#00f"/>
<line x1="214" y1="291" x2="256" y2="291" stroke="#00f"/>
<rect x="103" y="286" width="111" height="10" fill="#ff0"/>
<rect x="258" y="286" width="49" height="10" fill="#ff0"/>
<text x="20" y="315" class="sm">6.125e-06</text>
<rect x="100" y="305" width="137" height="12" fill="#00f"/>
<rect x="281" y="305" width="111" height="12" fill="#00f"/>
<rect x="436" y="305" width="86" height="12" fill="#00f"/>
<line x1="237" y1="311" x2="280" y2="311" stroke="#00f"/>
<line x1="392" y1="311" x2="435" y2="311" stroke="#00f"/>
<rect x="103" y="306" width="134" height="10" fill="#ff0"/>
<rect x="282" y="306" width="59" height="10" fill="#ff0"/>
<text x="20" y="335" class="sm">4.31e-06</text>
<rect x="100" y="325" width="68" height="12" fill="#00f"/>
<rect x="215" y="325" width="307" height="12" fill="#00f"/>
<line x1="168" y1="331" x2="214" y2="331" stroke="#00f"/>
<rect x="103" y="326" width="65" height="10" fill="#ff0"/>
<rect x="216" y="326" width="41" height="10" fill="#ff0"/>
<text x="20" y="355" class="sm">3.745e-06</text>
<rect x="100" y="345" width="292" height="12" fill="#00f"/>
<rect x="436" y="345" width="86" height="12" fill="#00f"/>
<line x1="392" y1="351" x2="435" y2="351" stroke="#00f"/>
<rect x="103" y="346" width="164" height="10" fill="#ff0"/>
<text x="20" y="375" class="sm">2.614e-06</text>
<rect x="100" y="365" width="137" height="12" fill="#00f"/>
<rect x="281" y="365" width="134" height="12" fill="#00f"/>
<rect x="460" y="365" width="62" height="12" fill="#00f"/>
<line x1="237" y1="371" x2="280" y2="371" stroke="#00f"/>
<line x1="415" y1="371" x2="459" y2="371" stroke="#00f"/>
<rect x="194" y="366" width="43" height="10" fill="#ff0"/>
<rect x="282" y="366" width="133" height="10" fill="#ff0"/>
<rect x="461" y="366" width="28" height="10" fill="#ff0"/>
<text x="20" y="395" class="sm">2.207e-06</text>
<rect x="100" y="385" width="68" height="12" fill="#00f"/>
<rect x="311" y="385" width="211" height="12" fill="#00f"/>
<line x1="168" y1="391" x2="310" y2="391" stroke="#00f"/>
<rect x="103" y="386" width="65" height="10" fill="#ff0"/>
<rect x="312" y="386" width="29" height="10" fill="#ff0"/>
<text x="20" y="415" class="sm">1.974e-06</text>
<rect x="100" y="405" width="114" height="12" fill="#00f"/>
<rect x="281" y="405" width="241" height="12" fill="#00f"/>
<line x1="214" y1="411" x2="280" y2="411" stroke="#00f"/>
<rect x="171" y="406" width="43" height="10" fill="#ff0"/>
<rect x="282" y="406" width="207" height="10" fill="#ff0"/>
<text x="20" y="435" class="sm">1.928e-06</text>
<rect x="100" y="425" width="315" height="12" fill="#00f"/>
<rect x="460" y="425" width="62" height="12" fill="#00f"/>
<line x1="415" y1="431" x2="459" y2="431" stroke="#00f"/>
<rect x="103" y="426" width="164" height="10" fill="#ff0"/>
<text x="20" y="455" class="sm">1.864e-06</text>
<rect x="100" y="445" width="137" height="12" fill="#00f"/>
<rect x="467" y="445" width="55" height="12" fill="#00f"/>
<line x1="237" y1="451" x2="466" y2="451" stroke="#00f"/>
<rect x="103" y="446" width="134" height="10" fill="#ff0"/>
<rect x="468" y="446" width="38" height="10" fill="#ff0"/>
<text x="20" y="475" class="sm">1.43e-06</text>
<rect x="100" y="465" width="162" height="12" fill="#00f"/>
<rect x="311" y="465" width="211" height="12" fill="#00f"/>
<line x1="262" y1="471" x2="310" y2="471" stroke="#00f"/>
<rect x="103" y="466" width="159" height="10" fill="#ff0"/>
<rect x="312" y="466" width="124" height="10" fill="#ff0"/>
<text x="20" y="495" class="sm">1.238e-06</text>
<rect x="100" y="485" width="68" height="12" fill="#00f"/>
<rect x="263" y="485" width="259" height="12" fill="#00f"/>
<line x1="168" y1="491" x2="262" y2="491" stroke="#00f"/>
<rect x="350" y="486" width="86" height="10" fill="#ff0"/>
</svg>
