<svg viewBox="0 0 677 525" xmlns="http://www.w3.org/2000/svg">

<style>
  .sm { font: 12px sans-serif; }
  .lg { font: 15px sans-serif; }
</style>
<rect fill="#ddd" x="0" y="0" width="100%" height="100%"/>
<text x="20" y="20" class="lg">ch.13058 V:2730522-2731198 Gene:WBGene00016052</text>
<text x="20" y="50" class="sm">WormBase</text>
<rect x="102" y="40" width="211" height="12" fill="#00f"/>
<rect x="370" y="40" width="209" height="12" fill="#00f"/>
<line x1="313" y1="46" x2="369" y2="46" stroke="#00f"/>
<rect x="121" y="41" width="192" height="10" fill="#ff0"/>
<rect x="371" y="41" width="127" height="10" fill="#ff0"/>
<rect x="103" y="41" width="17" height="10" fill="brown"><title>.</title></rect>
<rect x="499" y="41" width="80" height="10" fill="brown"><title>.</title></rect>
<text x="20" y="70" class="sm">Fitness: 4.099530750051724e-05</text>
<rect x="313" y="65" width="57" height="5" fill="#00f"><title>682885.0</title></rect>
<rect x="317" y="70" width="53" height="5" fill="#00f"><title>106.0</title></rect>
<rect x="201" y="75" width="45" height="5" fill="#00f"><title>10.0</title></rect>
<rect x="177" y="80" width="50" height="5" fill="#f0f"><title>8.0</title></rect>
<rect x="167" y="85" width="34" height="5" fill="#00f"><title>4.0</title></rect>
<text x="20" y="115" class="sm">0.9998</text>
<rect x="100" y="105" width="213" height="12" fill="#00f"/>
<rect x="370" y="105" width="210" height="12" fill="#00f"/>
<line x1="313" y1="111" x2="369" y2="111" stroke="#00f"/>
<rect x="121" y="106" width="192" height="10" fill="#ff0"/>
<rect x="371" y="106" width="127" height="10" fill="#ff0"/>
<text x="20" y="135" class="sm">0.0001634</text>
<rect x="100" y="125" width="217" height="12" fill="#00f"/>
<rect x="370" y="125" width="210" height="12" fill="#00f"/>
<line x1="317" y1="131" x2="369" y2="131" stroke="#00f"/>
<rect x="121" y="126" width="196" height="10" fill="#ff0"/>
<rect x="371" y="126" width="135" height="10" fill="#ff0"/>
<text x="20" y="155" class="sm">8.105e-06</text>
<rect x="100" y="145" width="196" height="12" fill="#00f"/>
<rect x="370" y="145" width="210" height="12" fill="#00f"/>
<line x1="296" y1="151" x2="369" y2="151" stroke="#00f"/>
<rect x="121" y="146" width="175" height="10" fill="#ff0"/>
<rect x="371" y="146" width="135" height="10" fill="#ff0"/>
<text x="20" y="175" class="sm">1.798e-06</text>
<rect x="100" y="165" width="165" height="12" fill="#00f"/>
<rect x="370" y="165" width="210" height="12" fill="#00f"/>
<line x1="265" y1="171" x2="369" y2="171" stroke="#00f"/>
<rect x="121" y="166" width="144" height="10" fill="#ff0"/>
<rect x="371" y="166" width="127" height="10" fill="#ff0"/>
<text x="20" y="195" class="sm">4.546e-07</text>
<rect x="100" y="185" width="353" height="12" fill="#00f"/>
<rect x="516" y="185" width="64" height="12" fill="#00f"/>
<line x1="453" y1="191" x2="515" y2="191" stroke="#00f"/>
<rect x="121" y="186" width="239" height="10" fill="#ff0"/>
<text x="20" y="215" class="sm">3.93e-07</text>
<rect x="100" y="205" width="213" height="12" fill="#00f"/>
<rect x="516" y="205" width="64" height="12" fill="#00f"/>
<line x1="313" y1="211" x2="515" y2="211" stroke="#00f"/>
<rect x="121" y="206" width="192" height="10" fill="#ff0"/>
<rect x="517" y="206" width="34" height="10" fill="#ff0"/>
<text x="20" y="235" class="sm">3.78e-07</text>
<rect x="100" y="225" width="156" height="12" fill="#00f"/>
<rect x="370" y="225" width="210" height="12" fill="#00f"/>
<line x1="256" y1="231" x2="369" y2="231" stroke="#00f"/>
<rect x="121" y="226" width="135" height="10" fill="#ff0"/>
<rect x="371" y="226" width="127" height="10" fill="#ff0"/>
<text x="20" y="255" class="sm">2.471e-07</text>
<rect x="100" y="245" width="379" height="12" fill="#00f"/>
<rect x="516" y="245" width="64" height="12" fill="#00f"/>
<line x1="479" y1="251" x2="515" y2="251" stroke="#00f"/>
<rect x="121" y="246" width="239" height="10" fill="#ff0"/>
<text x="20" y="275" class="sm">5.955e-08</text>
<rect x="100" y="265" width="213" height="12" fill="#00f"/>
<rect x="414" y="265" width="166" height="12" fill="#00f"/>
<line x1="313" y1="271" x2="413" y2="271" stroke="#00f"/>
<rect x="121" y="266" width="192" height="10" fill="#ff0"/>
<rect x="415" y="266" width="91" height="10" fill="#ff0"/>
<text x="20" y="295" class="sm">1.805e-08</text>
<rect x="100" y="285" width="356" height="12" fill="#00f"/>
<rect x="516" y="285" width="64" height="12" fill="#00f"/>
<line x1="456" y1="291" x2="515" y2="291" stroke="#00f"/>
<rect x="121" y="286" width="239" height="10" fill="#ff0"/>
<text x="20" y="315" class="sm">1.082e-08</text>
<rect x="100" y="305" width="237" height="12" fill="#00f"/>
<rect x="516" y="305" width="64" height="12" fill="#00f"/>
<line x1="337" y1="311" x2="515" y2="311" stroke="#00f"/>
<rect x="121" y="306" width="216" height="10" fill="#ff0"/>
<rect x="517" y="306" width="34" height="10" fill="#ff0"/>
<text x="20" y="335" class="sm">7.265e-09</text>
<rect x="100" y="325" width="112" height="12" fill="#00f"/>
<rect x="370" y="325" width="210" height="12" fill="#00f"/>
<line x1="212" y1="331" x2="369" y2="331" stroke="#00f"/>
<rect x="121" y="326" width="91" height="10" fill="#ff0"/>
<rect x="371" y="326" width="135" height="10" fill="#ff0"/>
<text x="20" y="355" class="sm">5.726e-09</text>
<rect x="100" y="345" width="213" height="12" fill="#00f"/>
<rect x="478" y="345" width="102" height="12" fill="#00f"/>
<line x1="313" y1="351" x2="477" y2="351" stroke="#00f"/>
<rect x="121" y="346" width="192" height="10" fill="#ff0"/>
<rect x="479" y="346" width="19" height="10" fill="#ff0"/>
<text x="20" y="375" class="sm">3.256e-09</text>
<rect x="100" y="365" width="338" height="12" fill="#00f"/>
<rect x="516" y="365" width="64" height="12" fill="#00f"/>
<line x1="438" y1="371" x2="515" y2="371" stroke="#00f"/>
<rect x="121" y="366" width="239" height="10" fill="#ff0"/>
<text x="20" y="395" class="sm">2.978e-09</text>
<rect x="100" y="385" width="237" height="12" fill="#00f"/>
<rect x="414" y="385" width="166" height="12" fill="#00f"/>
<line x1="337" y1="391" x2="413" y2="391" stroke="#00f"/>
<rect x="121" y="386" width="216" height="10" fill="#ff0"/>
<rect x="415" y="386" width="91" height="10" fill="#ff0"/>
<text x="20" y="415" class="sm">2.468e-09</text>
<rect x="100" y="405" width="196" height="12" fill="#00f"/>
<rect x="338" y="405" width="242" height="12" fill="#00f"/>
<line x1="296" y1="411" x2="337" y2="411" stroke="#00f"/>
<rect x="255" y="406" width="41" height="10" fill="#ff0"/>
<rect x="339" y="406" width="167" height="10" fill="#ff0"/>
<text x="20" y="435" class="sm">2.02e-09</text>
<rect x="100" y="425" width="133" height="12" fill="#00f"/>
<rect x="370" y="425" width="210" height="12" fill="#00f"/>
<line x1="233" y1="431" x2="369" y2="431" stroke="#00f"/>
<rect x="121" y="426" width="112" height="10" fill="#ff0"/>
<rect x="371" y="426" width="135" height="10" fill="#ff0"/>
<text x="20" y="455" class="sm">6.211e-10</text>
<rect x="100" y="445" width="338" height="12" fill="#00f"/>
<rect x="478" y="445" width="102" height="12" fill="#00f"/>
<line x1="438" y1="451" x2="477" y2="451" stroke="#00f"/>
<rect x="121" y="446" width="239" height="10" fill="#ff0"/>
<text x="20" y="475" class="sm">2.222e-10</text>
<rect x="100" y="465" width="122" height="12" fill="#00f"/>
<rect x="370" y="465" width="210" height="12" fill="#00f"/>
<line x1="222" y1="471" x2="369" y2="471" stroke="#00f"/>
<rect x="194" y="466" width="28" height="10" fill="#ff0"/>
<rect x="371" y="466" width="135" height="10" fill="#ff0"/>
<text x="20" y="495" class="sm">1.666e-10</text>
<rect x="100" y="485" width="237" height="12" fill="#00f"/>
<rect x="478" y="485" width="102" height="12" fill="#00f"/>
<line x1="337" y1="491" x2="477" y2="491" stroke="#00f"/>
<rect x="121" y="486" width="216" height="10" fill="#ff0"/>
<rect x="479" y="486" width="19" height="10" fill="#ff0"/>
</svg>
