<svg viewBox="0 0 774 570" xmlns="http://www.w3.org/2000/svg">

<style>
  .sm { font: 12px sans-serif; }
  .lg { font: 15px sans-serif; }
</style>
<rect fill="#ddd" x="0" y="0" width="100%" height="100%"/>
<text x="20" y="20" class="lg">ch.15526 V:12637563-12638336 Gene:WBGene00010174</text>
<text x="20" y="50" class="sm">WormBase</text>
<rect x="100" y="40" width="114" height="12" fill="#00f"/>
<rect x="458" y="40" width="216" height="12" fill="#00f"/>
<line x1="214" y1="46" x2="457" y2="46" stroke="#00f"/>
<rect x="124" y="41" width="90" height="10" fill="#ff0"/>
<rect x="459" y="41" width="82" height="10" fill="#ff0"/>
<rect x="101" y="41" width="22" height="10" fill="brown"><title>.</title></rect>
<rect x="542" y="41" width="132" height="10" fill="brown"><title>.</title></rect>
<text x="20" y="70" class="sm">WormBase</text>
<rect x="463" y="60" width="78" height="12" fill="#00f"/>
<rect x="464" y="61" width="77" height="10" fill="#ff0"/>
<text x="20" y="90" class="sm">Fitness: 0.0012955468799971004</text>
<rect x="214" y="85" width="244" height="5" fill="#00f"><title>2873300.0</title></rect>
<rect x="214" y="90" width="233" height="5" fill="#00f"><title>2306.0</title></rect>
<rect x="286" y="95" width="172" height="5" fill="#00f"><title>205.0</title></rect>
<rect x="220" y="100" width="243" height="5" fill="#f0f"><title>184.0</title></rect>
<rect x="214" y="105" width="286" height="5" fill="#00f"><title>12.0</title></rect>
<rect x="149" y="110" width="439" height="5" fill="#00f"><title>7.0</title></rect>
<rect x="214" y="115" width="348" height="5" fill="#00f"><title>5.0</title></rect>
<rect x="214" y="120" width="47" height="5" fill="#00f"><title>4.0</title></rect>
<rect x="214" y="125" width="208" height="5" fill="#00f"><title>3.0</title></rect>
<rect x="214" y="130" width="274" height="5" fill="#00f"><title>3.0</title></rect>
<text x="20" y="160" class="sm">0.9991</text>
<rect x="100" y="150" width="114" height="12" fill="#00f"/>
<rect x="458" y="150" width="219" height="12" fill="#00f"/>
<line x1="214" y1="156" x2="457" y2="156" stroke="#00f"/>
<rect x="124" y="151" width="90" height="10" fill="#ff0"/>
<rect x="459" y="151" width="82" height="10" fill="#ff0"/>
<text x="20" y="180" class="sm">0.0004544</text>
<rect x="100" y="170" width="114" height="12" fill="#00f"/>
<rect x="488" y="170" width="189" height="12" fill="#00f"/>
<line x1="214" y1="176" x2="487" y2="176" stroke="#00f"/>
<rect x="124" y="171" width="90" height="10" fill="#ff0"/>
<rect x="489" y="171" width="52" height="10" fill="#ff0"/>
<text x="20" y="200" class="sm">0.0001757</text>
<rect x="100" y="190" width="114" height="12" fill="#00f"/>
<rect x="447" y="190" width="230" height="12" fill="#00f"/>
<line x1="214" y1="196" x2="446" y2="196" stroke="#00f"/>
<rect x="124" y="191" width="90" height="10" fill="#ff0"/>
<rect x="448" y="191" width="127" height="10" fill="#ff0"/>
<text x="20" y="220" class="sm">0.0001177</text>
<rect x="100" y="210" width="267" height="12" fill="#00f"/>
<rect x="458" y="210" width="219" height="12" fill="#00f"/>
<line x1="367" y1="216" x2="457" y2="216" stroke="#00f"/>
<text x="20" y="240" class="sm">7.044e-05</text>
<rect x="100" y="230" width="186" height="12" fill="#00f"/>
<rect x="458" y="230" width="219" height="12" fill="#00f"/>
<line x1="286" y1="236" x2="457" y2="236" stroke="#00f"/>
<rect x="645" y="231" width="32" height="10" fill="#ff0"/>
<text x="20" y="260" class="sm">1.695e-05</text>
<rect x="100" y="250" width="190" height="12" fill="#00f"/>
<rect x="458" y="250" width="219" height="12" fill="#00f"/>
<line x1="290" y1="256" x2="457" y2="256" stroke="#00f"/>
<rect x="649" y="251" width="28" height="10" fill="#ff0"/>
<text x="20" y="280" class="sm">1.596e-05</text>
<rect x="100" y="270" width="33" height="12" fill="#00f"/>
<rect x="458" y="270" width="219" height="12" fill="#00f"/>
<line x1="133" y1="276" x2="457" y2="276" stroke="#00f"/>
<rect x="492" y="271" width="116" height="10" fill="#ff0"/>
<text x="20" y="300" class="sm">1.577e-05</text>
<rect x="100" y="290" width="114" height="12" fill="#00f"/>
<rect x="483" y="290" width="194" height="12" fill="#00f"/>
<line x1="214" y1="296" x2="482" y2="296" stroke="#00f"/>
<rect x="124" y="291" width="90" height="10" fill="#ff0"/>
<rect x="484" y="291" width="91" height="10" fill="#ff0"/>
<text x="20" y="320" class="sm">9.294e-06</text>
<rect x="100" y="310" width="114" height="12" fill="#00f"/>
<rect x="472" y="310" width="205" height="12" fill="#00f"/>
<line x1="214" y1="316" x2="471" y2="316" stroke="#00f"/>
<rect x="124" y="311" width="90" height="10" fill="#ff0"/>
<rect x="473" y="311" width="142" height="10" fill="#ff0"/>
<text x="20" y="340" class="sm">7.614e-06</text>
<rect x="100" y="330" width="114" height="12" fill="#00f"/>
<rect x="261" y="330" width="416" height="12" fill="#00f"/>
<line x1="214" y1="336" x2="260" y2="336" stroke="#00f"/>
<rect x="124" y="331" width="90" height="10" fill="#ff0"/>
<rect x="262" y="331" width="109" height="10" fill="#ff0"/>
<text x="20" y="360" class="sm">5.626e-06</text>
<rect x="100" y="350" width="114" height="12" fill="#00f"/>
<rect x="291" y="350" width="386" height="12" fill="#00f"/>
<line x1="214" y1="356" x2="290" y2="356" stroke="#00f"/>
<rect x="124" y="351" width="90" height="10" fill="#ff0"/>
<rect x="292" y="351" width="79" height="10" fill="#ff0"/>
<text x="20" y="380" class="sm">3.853e-06</text>
<rect x="100" y="370" width="160" height="12" fill="#00f"/>
<rect x="458" y="370" width="219" height="12" fill="#00f"/>
<line x1="260" y1="376" x2="457" y2="376" stroke="#00f"/>
<rect x="619" y="371" width="58" height="10" fill="#ff0"/>
<text x="20" y="400" class="sm">7.088e-07</text>
<rect x="100" y="390" width="114" height="12" fill="#00f"/>
<rect x="286" y="390" width="391" height="12" fill="#00f"/>
<line x1="214" y1="396" x2="285" y2="396" stroke="#00f"/>
<rect x="459" y="391" width="116" height="10" fill="#ff0"/>
<text x="20" y="420" class="sm">5.679e-07</text>
<rect x="100" y="410" width="42" height="12" fill="#00f"/>
<rect x="458" y="410" width="219" height="12" fill="#00f"/>
<line x1="142" y1="416" x2="457" y2="416" stroke="#00f"/>
<rect x="501" y="411" width="116" height="10" fill="#ff0"/>
<text x="20" y="440" class="sm">3.493e-07</text>
<rect x="100" y="430" width="35" height="12" fill="#00f"/>
<rect x="458" y="430" width="219" height="12" fill="#00f"/>
<line x1="135" y1="436" x2="457" y2="436" stroke="#00f"/>
<rect x="124" y="431" width="11" height="10" fill="#ff0"/>
<rect x="459" y="431" width="116" height="10" fill="#ff0"/>
<text x="20" y="460" class="sm">2.235e-07</text>
<rect x="100" y="450" width="77" height="12" fill="#00f"/>
<rect x="458" y="450" width="219" height="12" fill="#00f"/>
<line x1="177" y1="456" x2="457" y2="456" stroke="#00f"/>
<rect x="124" y="451" width="53" height="10" fill="#ff0"/>
<rect x="459" y="451" width="116" height="10" fill="#ff0"/>
<text x="20" y="480" class="sm">2.053e-07</text>
<rect x="100" y="470" width="114" height="12" fill="#00f"/>
<rect x="541" y="470" width="136" height="12" fill="#00f"/>
<line x1="214" y1="476" x2="540" y2="476" stroke="#00f"/>
<rect x="124" y="471" width="90" height="10" fill="#ff0"/>
<rect x="542" y="471" width="73" height="10" fill="#ff0"/>
<text x="20" y="500" class="sm">1.651e-07</text>
<rect x="100" y="490" width="304" height="12" fill="#00f"/>
<rect x="458" y="490" width="219" height="12" fill="#00f"/>
<line x1="404" y1="496" x2="457" y2="496" stroke="#00f"/>
<text x="20" y="520" class="sm">1.332e-07</text>
<rect x="100" y="510" width="114" height="12" fill="#00f"/>
<rect x="422" y="510" width="255" height="12" fill="#00f"/>
<line x1="214" y1="516" x2="421" y2="516" stroke="#00f"/>
<rect x="124" y="511" width="90" height="10" fill="#ff0"/>
<rect x="423" y="511" width="118" height="10" fill="#ff0"/>
<text x="20" y="540" class="sm">1.279e-07</text>
<rect x="100" y="530" width="114" height="12" fill="#00f"/>
<rect x="261" y="530" width="106" height="12" fill="#00f"/>
<rect x="458" y="530" width="219" height="12" fill="#00f"/>
<line x1="214" y1="536" x2="260" y2="536" stroke="#00f"/>
<line x1="367" y1="536" x2="457" y2="536" stroke="#00f"/>
<rect x="124" y="531" width="90" height="10" fill="#ff0"/>
<rect x="262" y="531" width="105" height="10" fill="#ff0"/>
<rect x="459" y="531" width="3" height="10" fill="#ff0"/>
</svg>
