<svg viewBox="0 0 615 515" xmlns="http://www.w3.org/2000/svg">

<style>
  .sm { font: 12px sans-serif; }
  .lg { font: 15px sans-serif; }
</style>
<rect fill="#ddd" x="0" y="0" width="100%" height="100%"/>
<text x="20" y="20" class="lg">ch.13709 V:5311835-5312449 Gene:WBGene00015683</text>
<text x="20" y="50" class="sm">WormBase</text>
<rect x="100" y="40" width="51" height="12" fill="#00f"/>
<rect x="200" y="40" width="315" height="12" fill="#00f"/>
<line x1="151" y1="46" x2="199" y2="46" stroke="#00f"/>
<rect x="101" y="41" width="50" height="10" fill="#ff0"/>
<rect x="201" y="41" width="245" height="10" fill="#ff0"/>
<rect x="447" y="41" width="68" height="10" fill="brown"><title>.</title></rect>
<text x="20" y="70" class="sm">Fitness: 1.526808657482669e-05</text>
<rect x="151" y="65" width="49" height="5" fill="#00f"><title>721080.0</title></rect>
<rect x="151" y="70" width="52" height="5" fill="#00f"><title>312.0</title></rect>
<rect x="417" y="75" width="84" height="5" fill="#f0f"><title>7.0</title></rect>
<text x="20" y="105" class="sm">0.9996</text>
<rect x="100" y="95" width="51" height="12" fill="#00f"/>
<rect x="200" y="95" width="318" height="12" fill="#00f"/>
<line x1="151" y1="101" x2="199" y2="101" stroke="#00f"/>
<rect x="101" y="96" width="50" height="10" fill="#ff0"/>
<rect x="201" y="96" width="245" height="10" fill="#ff0"/>
<text x="20" y="125" class="sm">0.0004303</text>
<rect x="100" y="115" width="51" height="12" fill="#00f"/>
<rect x="203" y="115" width="315" height="12" fill="#00f"/>
<line x1="151" y1="121" x2="202" y2="121" stroke="#00f"/>
<rect x="101" y="116" width="50" height="10" fill="#ff0"/>
<rect x="204" y="116" width="242" height="10" fill="#ff0"/>
<text x="20" y="145" class="sm">6.339e-06</text>
<rect x="100" y="135" width="51" height="12" fill="#00f"/>
<rect x="243" y="135" width="275" height="12" fill="#00f"/>
<line x1="151" y1="141" x2="242" y2="141" stroke="#00f"/>
<rect x="101" y="136" width="50" height="10" fill="#ff0"/>
<rect x="244" y="136" width="119" height="10" fill="#ff0"/>
<text x="20" y="165" class="sm">8.874e-07</text>
<rect x="100" y="155" width="42" height="12" fill="#00f"/>
<rect x="200" y="155" width="318" height="12" fill="#00f"/>
<line x1="142" y1="161" x2="199" y2="161" stroke="#00f"/>
<rect x="101" y="156" width="41" height="10" fill="#ff0"/>
<rect x="201" y="156" width="245" height="10" fill="#ff0"/>
<text x="20" y="185" class="sm">1.284e-07</text>
<rect x="100" y="175" width="51" height="12" fill="#00f"/>
<rect x="246" y="175" width="272" height="12" fill="#00f"/>
<line x1="151" y1="181" x2="245" y2="181" stroke="#00f"/>
<rect x="101" y="176" width="50" height="10" fill="#ff0"/>
<rect x="247" y="176" width="116" height="10" fill="#ff0"/>
<text x="20" y="205" class="sm">1.113e-07</text>
<rect x="100" y="195" width="51" height="12" fill="#00f"/>
<rect x="252" y="195" width="266" height="12" fill="#00f"/>
<line x1="151" y1="201" x2="251" y2="201" stroke="#00f"/>
<rect x="101" y="196" width="50" height="10" fill="#ff0"/>
<rect x="253" y="196" width="110" height="10" fill="#ff0"/>
<text x="20" y="225" class="sm">8.882e-08</text>
<rect x="100" y="215" width="289" height="12" fill="#00f"/>
<rect x="487" y="215" width="31" height="12" fill="#00f"/>
<line x1="389" y1="221" x2="486" y2="221" stroke="#00f"/>
<rect x="101" y="216" width="179" height="10" fill="#ff0"/>
<text x="20" y="245" class="sm">7.586e-08</text>
<rect x="100" y="235" width="331" height="12" fill="#00f"/>
<rect x="487" y="235" width="31" height="12" fill="#00f"/>
<line x1="431" y1="241" x2="486" y2="241" stroke="#00f"/>
<rect x="101" y="236" width="179" height="10" fill="#ff0"/>
<text x="20" y="265" class="sm">1.124e-09</text>
<rect x="100" y="255" width="51" height="12" fill="#00f"/>
<rect x="487" y="255" width="31" height="12" fill="#00f"/>
<line x1="151" y1="261" x2="486" y2="261" stroke="#00f"/>
<rect x="101" y="256" width="50" height="10" fill="#ff0"/>
<rect x="488" y="256" width="20" height="10" fill="#ff0"/>
<text x="20" y="285" class="sm">6.759e-10</text>
<rect x="100" y="275" width="51" height="12" fill="#00f"/>
<rect x="282" y="275" width="236" height="12" fill="#00f"/>
<line x1="151" y1="281" x2="281" y2="281" stroke="#00f"/>
<rect x="353" y="276" width="134" height="10" fill="#ff0"/>
<text x="20" y="305" class="sm">4.482e-10</text>
<rect x="100" y="295" width="308" height="12" fill="#00f"/>
<rect x="487" y="295" width="31" height="12" fill="#00f"/>
<line x1="408" y1="301" x2="486" y2="301" stroke="#00f"/>
<rect x="101" y="296" width="179" height="10" fill="#ff0"/>
<text x="20" y="325" class="sm">3.414e-10</text>
<rect x="100" y="315" width="51" height="12" fill="#00f"/>
<rect x="323" y="315" width="195" height="12" fill="#00f"/>
<line x1="151" y1="321" x2="322" y2="321" stroke="#00f"/>
<rect x="101" y="316" width="50" height="10" fill="#ff0"/>
<rect x="324" y="316" width="122" height="10" fill="#ff0"/>
<text x="20" y="345" class="sm">3.066e-10</text>
<rect x="100" y="335" width="42" height="12" fill="#00f"/>
<rect x="203" y="335" width="315" height="12" fill="#00f"/>
<line x1="142" y1="341" x2="202" y2="341" stroke="#00f"/>
<rect x="101" y="336" width="41" height="10" fill="#ff0"/>
<rect x="204" y="336" width="242" height="10" fill="#ff0"/>
<text x="20" y="365" class="sm">2.242e-10</text>
<rect x="100" y="355" width="326" height="12" fill="#00f"/>
<rect x="487" y="355" width="31" height="12" fill="#00f"/>
<line x1="426" y1="361" x2="486" y2="361" stroke="#00f"/>
<rect x="101" y="356" width="179" height="10" fill="#ff0"/>
<text x="20" y="385" class="sm">1.786e-10</text>
<rect x="100" y="375" width="289" height="12" fill="#00f"/>
<rect x="466" y="375" width="52" height="12" fill="#00f"/>
<line x1="389" y1="381" x2="465" y2="381" stroke="#00f"/>
<rect x="101" y="376" width="179" height="10" fill="#ff0"/>
<text x="20" y="405" class="sm">9.809e-11</text>
<rect x="100" y="395" width="51" height="12" fill="#00f"/>
<rect x="256" y="395" width="262" height="12" fill="#00f"/>
<line x1="151" y1="401" x2="255" y2="401" stroke="#00f"/>
<rect x="353" y="396" width="134" height="10" fill="#ff0"/>
<text x="20" y="425" class="sm">7.141e-11</text>
<rect x="100" y="415" width="51" height="12" fill="#00f"/>
<rect x="265" y="415" width="253" height="12" fill="#00f"/>
<line x1="151" y1="421" x2="264" y2="421" stroke="#00f"/>
<rect x="353" y="416" width="134" height="10" fill="#ff0"/>
<text x="20" y="445" class="sm">3.876e-11</text>
<rect x="100" y="435" width="42" height="12" fill="#00f"/>
<rect x="243" y="435" width="275" height="12" fill="#00f"/>
<line x1="142" y1="441" x2="242" y2="441" stroke="#00f"/>
<rect x="101" y="436" width="41" height="10" fill="#ff0"/>
<rect x="244" y="436" width="119" height="10" fill="#ff0"/>
<text x="20" y="465" class="sm">1.607e-11</text>
<rect x="100" y="455" width="265" height="12" fill="#00f"/>
<rect x="487" y="455" width="31" height="12" fill="#00f"/>
<line x1="365" y1="461" x2="486" y2="461" stroke="#00f"/>
<rect x="101" y="456" width="179" height="10" fill="#ff0"/>
<text x="20" y="485" class="sm">1.437e-11</text>
<rect x="100" y="475" width="348" height="12" fill="#00f"/>
<rect x="487" y="475" width="31" height="12" fill="#00f"/>
<line x1="448" y1="481" x2="486" y2="481" stroke="#00f"/>
<rect x="101" y="476" width="179" height="10" fill="#ff0"/>
</svg>
