<svg viewBox="0 0 840 790" xmlns="http://www.w3.org/2000/svg">

<style>
  .sm { font: 12px sans-serif; }
  .lg { font: 15px sans-serif; }
</style>
<rect fill="#ddd" x="0" y="0" width="100%" height="100%"/>
<text x="20" y="20" class="lg">ch.11482 IV:11602541-11603380 Gene:WBGene00004480</text>
<text x="20" y="50" class="sm">WormBase</text>
<rect x="100" y="40" width="149" height="12" fill="#00f"/>
<rect x="301" y="40" width="206" height="12" fill="#00f"/>
<rect x="553" y="40" width="187" height="12" fill="#00f"/>
<line x1="249" y1="46" x2="300" y2="46" stroke="#00f"/>
<line x1="507" y1="46" x2="552" y2="46" stroke="#00f"/>
<rect x="112" y="41" width="137" height="10" fill="#ff0"/>
<rect x="302" y="41" width="205" height="10" fill="#ff0"/>
<rect x="554" y="41" width="123" height="10" fill="#ff0"/>
<rect x="101" y="41" width="10" height="10" fill="brown"><title>.</title></rect>
<rect x="678" y="41" width="62" height="10" fill="brown"><title>.</title></rect>
<text x="20" y="70" class="sm">Fitness: 0.02397990773011315</text>
<rect x="249" y="65" width="52" height="5" fill="#00f"><title>22203200.0</title></rect>
<rect x="507" y="70" width="46" height="5" fill="#00f"><title>21014100.0</title></rect>
<rect x="507" y="75" width="48" height="5" fill="#00f"><title>13852.0</title></rect>
<rect x="507" y="80" width="60" height="5" fill="#00f"><title>243.0</title></rect>
<rect x="219" y="85" width="82" height="5" fill="#00f"><title>140.0</title></rect>
<rect x="478" y="90" width="75" height="5" fill="#00f"><title>129.0</title></rect>
<rect x="680" y="95" width="94" height="5" fill="#00f"><title>103.0</title></rect>
<rect x="53" y="100" width="47" height="5" fill="#00f"><title>90.0</title></rect>
<rect x="348" y="105" width="33" height="5" fill="#00f"><title>77.0</title></rect>
<rect x="501" y="110" width="44" height="5" fill="#f0f"><title>77.0</title></rect>
<rect x="731" y="115" width="43" height="5" fill="#00f"><title>40.0</title></rect>
<rect x="507" y="120" width="160" height="5" fill="#00f"><title>23.0</title></rect>
<rect x="507" y="125" width="81" height="5" fill="#00f"><title>22.0</title></rect>
<rect x="253" y="130" width="48" height="5" fill="#00f"><title>18.0</title></rect>
<rect x="244" y="135" width="57" height="5" fill="#00f"><title>15.0</title></rect>
<rect x="249" y="140" width="61" height="5" fill="#00f"><title>14.0</title></rect>
<rect x="501" y="145" width="79" height="5" fill="#f0f"><title>13.0</title></rect>
<rect x="419" y="150" width="213" height="5" fill="#00f"><title>12.0</title></rect>
<rect x="171" y="155" width="226" height="5" fill="#00f"><title>11.0</title></rect>
<rect x="515" y="160" width="48" height="5" fill="#f0f"><title>11.0</title></rect>
<rect x="244" y="165" width="136" height="5" fill="#00f"><title>10.0</title></rect>
<rect x="171" y="170" width="66" height="5" fill="#00f"><title>9.0</title></rect>
<rect x="572" y="175" width="77" height="5" fill="#f0f"><title>9.0</title></rect>
<rect x="237" y="180" width="160" height="5" fill="#00f"><title>8.0</title></rect>
<rect x="134" y="185" width="208" height="5" fill="#f0f"><title>7.0</title></rect>
<rect x="385" y="190" width="54" height="5" fill="#f0f"><title>7.0</title></rect>
<rect x="418" y="195" width="33" height="5" fill="#00f"><title>7.0</title></rect>
<rect x="333" y="200" width="117" height="5" fill="#00f"><title>6.0</title></rect>
<rect x="492" y="205" width="88" height="5" fill="#f0f"><title>6.0</title></rect>
<rect x="501" y="210" width="71" height="5" fill="#f0f"><title>6.0</title></rect>
<rect x="507" y="215" width="83" height="5" fill="#00f"><title>6.0</title></rect>
<rect x="572" y="220" width="38" height="5" fill="#f0f"><title>6.0</title></rect>
<rect x="153" y="225" width="66" height="5" fill="#00f"><title>5.0</title></rect>
<rect x="190" y="230" width="280" height="5" fill="#f0f"><title>5.0</title></rect>
<rect x="219" y="235" width="91" height="5" fill="#00f"><title>5.0</title></rect>
<rect x="447" y="240" width="106" height="5" fill="#00f"><title>5.0</title></rect>
<rect x="507" y="245" width="109" height="5" fill="#00f"><title>5.0</title></rect>
<rect x="315" y="250" width="334" height="5" fill="#f0f"><title>4.0</title></rect>
<rect x="330" y="255" width="67" height="5" fill="#00f"><title>4.0</title></rect>
<rect x="349" y="260" width="48" height="5" fill="#00f"><title>4.0</title></rect>
<rect x="426" y="265" width="44" height="5" fill="#f0f"><title>4.0</title></rect>
<rect x="430" y="270" width="60" height="5" fill="#f0f"><title>4.0</title></rect>
<rect x="575" y="275" width="41" height="5" fill="#00f"><title>4.0</title></rect>
<rect x="55" y="280" width="45" height="5" fill="#00f"><title>3.0</title></rect>
<rect x="162" y="285" width="229" height="5" fill="#00f"><title>3.0</title></rect>
<rect x="182" y="290" width="186" height="5" fill="#00f"><title>3.0</title></rect>
<rect x="237" y="295" width="154" height="5" fill="#00f"><title>3.0</title></rect>
<rect x="237" y="300" width="208" height="5" fill="#00f"><title>3.0</title></rect>
<rect x="379" y="305" width="174" height="5" fill="#00f"><title>3.0</title></rect>
<rect x="401" y="310" width="44" height="5" fill="#00f"><title>3.0</title></rect>
<rect x="409" y="315" width="52" height="5" fill="#00f"><title>3.0</title></rect>
<rect x="415" y="320" width="33" height="5" fill="#00f"><title>3.0</title></rect>
<rect x="419" y="325" width="47" height="5" fill="#00f"><title>3.0</title></rect>
<rect x="419" y="330" width="134" height="5" fill="#00f"><title>3.0</title></rect>
<rect x="421" y="335" width="38" height="5" fill="#00f"><title>3.0</title></rect>
<rect x="430" y="340" width="170" height="5" fill="#f0f"><title>3.0</title></rect>
<rect x="492" y="345" width="48" height="5" fill="#f0f"><title>3.0</title></rect>
<rect x="575" y="350" width="57" height="5" fill="#00f"><title>3.0</title></rect>
<text x="20" y="380" class="sm">0.9359</text>
<rect x="100" y="370" width="149" height="12" fill="#00f"/>
<rect x="301" y="370" width="206" height="12" fill="#00f"/>
<rect x="553" y="370" width="190" height="12" fill="#00f"/>
<line x1="249" y1="376" x2="300" y2="376" stroke="#00f"/>
<line x1="507" y1="376" x2="552" y2="376" stroke="#00f"/>
<rect x="112" y="371" width="137" height="10" fill="#ff0"/>
<rect x="302" y="371" width="205" height="10" fill="#ff0"/>
<rect x="554" y="371" width="123" height="10" fill="#ff0"/>
<text x="20" y="400" class="sm">0.04029</text>
<rect x="100" y="390" width="149" height="12" fill="#00f"/>
<rect x="301" y="390" width="442" height="12" fill="#00f"/>
<line x1="249" y1="396" x2="300" y2="396" stroke="#00f"/>
<rect x="112" y="391" width="137" height="10" fill="#ff0"/>
<rect x="302" y="391" width="236" height="10" fill="#ff0"/>
<text x="20" y="420" class="sm">0.01428</text>
<rect x="100" y="410" width="149" height="12" fill="#00f"/>
<rect x="301" y="410" width="220" height="12" fill="#00f"/>
<rect x="567" y="410" width="176" height="12" fill="#00f"/>
<line x1="249" y1="416" x2="300" y2="416" stroke="#00f"/>
<line x1="521" y1="416" x2="566" y2="416" stroke="#00f"/>
<rect x="112" y="411" width="137" height="10" fill="#ff0"/>
<rect x="302" y="411" width="219" height="10" fill="#ff0"/>
<rect x="568" y="411" width="1" height="10" fill="#ff0"/>
<text x="20" y="440" class="sm">0.004853</text>
<rect x="100" y="430" width="144" height="12" fill="#00f"/>
<rect x="301" y="430" width="206" height="12" fill="#00f"/>
<rect x="553" y="430" width="190" height="12" fill="#00f"/>
<line x1="244" y1="436" x2="300" y2="436" stroke="#00f"/>
<line x1="507" y1="436" x2="552" y2="436" stroke="#00f"/>
<rect x="365" y="431" width="142" height="10" fill="#ff0"/>
<rect x="554" y="431" width="123" height="10" fill="#ff0"/>
<text x="20" y="460" class="sm">0.0009666</text>
<rect x="100" y="450" width="149" height="12" fill="#00f"/>
<rect x="301" y="450" width="206" height="12" fill="#00f"/>
<rect x="553" y="450" width="70" height="12" fill="#00f"/>
<rect x="667" y="450" width="76" height="12" fill="#00f"/>
<line x1="249" y1="456" x2="300" y2="456" stroke="#00f"/>
<line x1="507" y1="456" x2="552" y2="456" stroke="#00f"/>
<line x1="623" y1="456" x2="666" y2="456" stroke="#00f"/>
<rect x="112" y="451" width="137" height="10" fill="#ff0"/>
<rect x="302" y="451" width="205" height="10" fill="#ff0"/>
<rect x="554" y="451" width="69" height="10" fill="#ff0"/>
<rect x="668" y="451" width="26" height="10" fill="#ff0"/>
<text x="20" y="480" class="sm">0.0008403</text>
<rect x="100" y="470" width="114" height="12" fill="#00f"/>
<rect x="301" y="470" width="206" height="12" fill="#00f"/>
<rect x="553" y="470" width="190" height="12" fill="#00f"/>
<line x1="214" y1="476" x2="300" y2="476" stroke="#00f"/>
<line x1="507" y1="476" x2="552" y2="476" stroke="#00f"/>
<rect x="365" y="471" width="142" height="10" fill="#ff0"/>
<rect x="554" y="471" width="123" height="10" fill="#ff0"/>
<text x="20" y="500" class="sm">0.0006259</text>
<rect x="100" y="490" width="149" height="12" fill="#00f"/>
<rect x="301" y="490" width="154" height="12" fill="#00f"/>
<rect x="507" y="490" width="236" height="12" fill="#00f"/>
<line x1="249" y1="496" x2="300" y2="496" stroke="#00f"/>
<line x1="455" y1="496" x2="506" y2="496" stroke="#00f"/>
<rect x="112" y="491" width="137" height="10" fill="#ff0"/>
<rect x="302" y="491" width="153" height="10" fill="#ff0"/>
<rect x="508" y="491" width="169" height="10" fill="#ff0"/>
<text x="20" y="520" class="sm">0.0006118</text>
<rect x="100" y="510" width="149" height="12" fill="#00f"/>
<rect x="301" y="510" width="206" height="12" fill="#00f"/>
<rect x="555" y="510" width="188" height="12" fill="#00f"/>
<line x1="249" y1="516" x2="300" y2="516" stroke="#00f"/>
<line x1="507" y1="516" x2="554" y2="516" stroke="#00f"/>
<rect x="112" y="511" width="137" height="10" fill="#ff0"/>
<rect x="302" y="511" width="205" height="10" fill="#ff0"/>
<rect x="556" y="511" width="138" height="10" fill="#ff0"/>
<text x="20" y="540" class="sm">0.000435</text>
<rect x="100" y="530" width="149" height="12" fill="#00f"/>
<rect x="301" y="530" width="206" height="12" fill="#00f"/>
<rect x="553" y="530" width="58" height="12" fill="#00f"/>
<rect x="667" y="530" width="76" height="12" fill="#00f"/>
<line x1="249" y1="536" x2="300" y2="536" stroke="#00f"/>
<line x1="507" y1="536" x2="552" y2="536" stroke="#00f"/>
<line x1="611" y1="536" x2="666" y2="536" stroke="#00f"/>
<rect x="112" y="531" width="137" height="10" fill="#ff0"/>
<rect x="302" y="531" width="205" height="10" fill="#ff0"/>
<rect x="554" y="531" width="57" height="10" fill="#ff0"/>
<rect x="668" y="531" width="26" height="10" fill="#ff0"/>
<text x="20" y="560" class="sm">0.0002324</text>
<rect x="100" y="550" width="149" height="12" fill="#00f"/>
<rect x="301" y="550" width="206" height="12" fill="#00f"/>
<rect x="567" y="550" width="176" height="12" fill="#00f"/>
<line x1="249" y1="556" x2="300" y2="556" stroke="#00f"/>
<line x1="507" y1="556" x2="566" y2="556" stroke="#00f"/>
<rect x="112" y="551" width="137" height="10" fill="#ff0"/>
<rect x="302" y="551" width="205" height="10" fill="#ff0"/>
<rect x="568" y="551" width="126" height="10" fill="#ff0"/>
<text x="20" y="580" class="sm">0.0002089</text>
<rect x="100" y="570" width="144" height="12" fill="#00f"/>
<rect x="301" y="570" width="442" height="12" fill="#00f"/>
<line x1="244" y1="576" x2="300" y2="576" stroke="#00f"/>
<rect x="112" y="571" width="132" height="10" fill="#ff0"/>
<rect x="302" y="571" width="124" height="10" fill="#ff0"/>
<text x="20" y="600" class="sm">0.0001873</text>
<rect x="100" y="590" width="149" height="12" fill="#00f"/>
<rect x="301" y="590" width="206" height="12" fill="#00f"/>
<rect x="553" y="590" width="58" height="12" fill="#00f"/>
<rect x="656" y="590" width="87" height="12" fill="#00f"/>
<line x1="249" y1="596" x2="300" y2="596" stroke="#00f"/>
<line x1="507" y1="596" x2="552" y2="596" stroke="#00f"/>
<line x1="611" y1="596" x2="655" y2="596" stroke="#00f"/>
<rect x="112" y="591" width="137" height="10" fill="#ff0"/>
<rect x="302" y="591" width="205" height="10" fill="#ff0"/>
<rect x="554" y="591" width="57" height="10" fill="#ff0"/>
<rect x="657" y="591" width="20" height="10" fill="#ff0"/>
<text x="20" y="620" class="sm">0.0001298</text>
<rect x="100" y="610" width="149" height="12" fill="#00f"/>
<rect x="301" y="610" width="206" height="12" fill="#00f"/>
<rect x="553" y="610" width="72" height="12" fill="#00f"/>
<rect x="667" y="610" width="76" height="12" fill="#00f"/>
<line x1="249" y1="616" x2="300" y2="616" stroke="#00f"/>
<line x1="507" y1="616" x2="552" y2="616" stroke="#00f"/>
<line x1="625" y1="616" x2="666" y2="616" stroke="#00f"/>
<rect x="112" y="611" width="137" height="10" fill="#ff0"/>
<rect x="302" y="611" width="205" height="10" fill="#ff0"/>
<rect x="554" y="611" width="71" height="10" fill="#ff0"/>
<rect x="668" y="611" width="9" height="10" fill="#ff0"/>
<text x="20" y="640" class="sm">0.0001284</text>
<rect x="100" y="630" width="153" height="12" fill="#00f"/>
<rect x="301" y="630" width="206" height="12" fill="#00f"/>
<rect x="553" y="630" width="190" height="12" fill="#00f"/>
<line x1="253" y1="636" x2="300" y2="636" stroke="#00f"/>
<line x1="507" y1="636" x2="552" y2="636" stroke="#00f"/>
<rect x="365" y="631" width="142" height="10" fill="#ff0"/>
<rect x="554" y="631" width="123" height="10" fill="#ff0"/>
<text x="20" y="660" class="sm">8.866e-05</text>
<rect x="100" y="650" width="407" height="12" fill="#00f"/>
<rect x="553" y="650" width="190" height="12" fill="#00f"/>
<line x1="507" y1="656" x2="552" y2="656" stroke="#00f"/>
<rect x="365" y="651" width="142" height="10" fill="#ff0"/>
<rect x="554" y="651" width="123" height="10" fill="#ff0"/>
<text x="20" y="680" class="sm">7.407e-05</text>
<rect x="100" y="670" width="144" height="12" fill="#00f"/>
<rect x="301" y="670" width="220" height="12" fill="#00f"/>
<rect x="567" y="670" width="176" height="12" fill="#00f"/>
<line x1="244" y1="676" x2="300" y2="676" stroke="#00f"/>
<line x1="521" y1="676" x2="566" y2="676" stroke="#00f"/>
<rect x="112" y="671" width="132" height="10" fill="#ff0"/>
<rect x="302" y="671" width="124" height="10" fill="#ff0"/>
<text x="20" y="700" class="sm">6.041e-05</text>
<rect x="100" y="690" width="149" height="12" fill="#00f"/>
<rect x="301" y="690" width="220" height="12" fill="#00f"/>
<rect x="570" y="690" width="173" height="12" fill="#00f"/>
<line x1="249" y1="696" x2="300" y2="696" stroke="#00f"/>
<line x1="521" y1="696" x2="569" y2="696" stroke="#00f"/>
<rect x="112" y="691" width="137" height="10" fill="#ff0"/>
<rect x="302" y="691" width="219" height="10" fill="#ff0"/>
<rect x="571" y="691" width="106" height="10" fill="#ff0"/>
<text x="20" y="720" class="sm">5.003e-05</text>
<rect x="100" y="710" width="149" height="12" fill="#00f"/>
<rect x="301" y="710" width="322" height="12" fill="#00f"/>
<rect x="667" y="710" width="76" height="12" fill="#00f"/>
<line x1="249" y1="716" x2="300" y2="716" stroke="#00f"/>
<line x1="623" y1="716" x2="666" y2="716" stroke="#00f"/>
<rect x="112" y="711" width="137" height="10" fill="#ff0"/>
<rect x="302" y="711" width="236" height="10" fill="#ff0"/>
<text x="20" y="740" class="sm">3.618e-05</text>
<rect x="100" y="730" width="114" height="12" fill="#00f"/>
<rect x="301" y="730" width="442" height="12" fill="#00f"/>
<line x1="214" y1="736" x2="300" y2="736" stroke="#00f"/>
<rect x="112" y="731" width="102" height="10" fill="#ff0"/>
<rect x="302" y="731" width="124" height="10" fill="#ff0"/>
<text x="20" y="760" class="sm">3.463e-05</text>
<rect x="100" y="750" width="149" height="12" fill="#00f"/>
<rect x="301" y="750" width="206" height="12" fill="#00f"/>
<rect x="553" y="750" width="36" height="12" fill="#00f"/>
<rect x="632" y="750" width="111" height="12" fill="#00f"/>
<line x1="249" y1="756" x2="300" y2="756" stroke="#00f"/>
<line x1="507" y1="756" x2="552" y2="756" stroke="#00f"/>
<line x1="589" y1="756" x2="631" y2="756" stroke="#00f"/>
<rect x="112" y="751" width="137" height="10" fill="#ff0"/>
<rect x="302" y="751" width="205" height="10" fill="#ff0"/>
<rect x="554" y="751" width="35" height="10" fill="#ff0"/>
<rect x="633" y="751" width="51" height="10" fill="#ff0"/>
</svg>
