<svg viewBox="0 0 1039 565" xmlns="http://www.w3.org/2000/svg">

<style>
  .sm { font: 12px sans-serif; }
  .lg { font: 15px sans-serif; }
</style>
<rect fill="#ddd" x="0" y="0" width="100%" height="100%"/>
<text x="20" y="20" class="lg">ch.14504 V:8618932-8619970 Gene:WBGene00001694</text>
<text x="20" y="50" class="sm">WormBase</text>
<rect x="100" y="40" width="97" height="12" fill="#00f"/>
<rect x="512" y="40" width="427" height="12" fill="#00f"/>
<line x1="197" y1="46" x2="511" y2="46" stroke="#00f"/>
<rect x="119" y="41" width="78" height="10" fill="#ff0"/>
<rect x="513" y="41" width="229" height="10" fill="#ff0"/>
<rect x="101" y="41" width="17" height="10" fill="brown"><title>.</title></rect>
<rect x="743" y="41" width="196" height="10" fill="brown"><title>.</title></rect>
<text x="20" y="70" class="sm">Fitness: 0.006952667571370449</text>
<rect x="197" y="65" width="315" height="5" fill="#00f"><title>1541950.0</title></rect>
<rect x="197" y="70" width="308" height="5" fill="#00f"><title>125.0</title></rect>
<rect x="209" y="75" width="303" height="5" fill="#00f"><title>34.0</title></rect>
<rect x="542" y="80" width="191" height="5" fill="#00f"><title>24.0</title></rect>
<rect x="202" y="85" width="317" height="5" fill="#f0f"><title>22.0</title></rect>
<rect x="545" y="90" width="234" height="5" fill="#00f"><title>20.0</title></rect>
<rect x="587" y="95" width="260" height="5" fill="#00f"><title>9.0</title></rect>
<rect x="402" y="100" width="103" height="5" fill="#00f"><title>8.0</title></rect>
<rect x="402" y="105" width="110" height="5" fill="#00f"><title>8.0</title></rect>
<rect x="661" y="110" width="98" height="5" fill="#00f"><title>6.0</title></rect>
<rect x="202" y="115" width="327" height="5" fill="#f0f"><title>5.0</title></rect>
<rect x="197" y="120" width="49" height="5" fill="#00f"><title>4.0</title></rect>
<rect x="180" y="125" width="541" height="5" fill="#f0f"><title>3.0</title></rect>
<text x="20" y="155" class="sm">0.9965</text>
<rect x="100" y="145" width="97" height="12" fill="#00f"/>
<rect x="512" y="145" width="430" height="12" fill="#00f"/>
<line x1="197" y1="151" x2="511" y2="151" stroke="#00f"/>
<rect x="119" y="146" width="78" height="10" fill="#ff0"/>
<rect x="513" y="146" width="229" height="10" fill="#ff0"/>
<text x="20" y="175" class="sm">0.003167</text>
<rect x="100" y="165" width="111" height="12" fill="#00f"/>
<rect x="512" y="165" width="430" height="12" fill="#00f"/>
<line x1="211" y1="171" x2="511" y2="171" stroke="#00f"/>
<rect x="570" y="166" width="260" height="10" fill="#ff0"/>
<text x="20" y="195" class="sm">0.0001857</text>
<rect x="100" y="185" width="97" height="12" fill="#00f"/>
<rect x="532" y="185" width="410" height="12" fill="#00f"/>
<line x1="197" y1="191" x2="531" y2="191" stroke="#00f"/>
<rect x="570" y="186" width="260" height="10" fill="#ff0"/>
<text x="20" y="215" class="sm">9.412e-05</text>
<rect x="100" y="205" width="97" height="12" fill="#00f"/>
<rect x="545" y="205" width="397" height="12" fill="#00f"/>
<line x1="197" y1="211" x2="544" y2="211" stroke="#00f"/>
<rect x="119" y="206" width="78" height="10" fill="#ff0"/>
<rect x="546" y="206" width="196" height="10" fill="#ff0"/>
<text x="20" y="235" class="sm">1.877e-05</text>
<rect x="100" y="225" width="97" height="12" fill="#00f"/>
<rect x="541" y="225" width="401" height="12" fill="#00f"/>
<line x1="197" y1="231" x2="540" y2="231" stroke="#00f"/>
<rect x="570" y="226" width="260" height="10" fill="#ff0"/>
<text x="20" y="255" class="sm">1.603e-05</text>
<rect x="100" y="245" width="109" height="12" fill="#00f"/>
<rect x="512" y="245" width="430" height="12" fill="#00f"/>
<line x1="209" y1="251" x2="511" y2="251" stroke="#00f"/>
<rect x="119" y="246" width="90" height="10" fill="#ff0"/>
<rect x="513" y="246" width="229" height="10" fill="#ff0"/>
<text x="20" y="275" class="sm">1.27e-05</text>
<rect x="100" y="265" width="302" height="12" fill="#00f"/>
<rect x="512" y="265" width="430" height="12" fill="#00f"/>
<line x1="402" y1="271" x2="511" y2="271" stroke="#00f"/>
<rect x="570" y="266" width="260" height="10" fill="#ff0"/>
<text x="20" y="295" class="sm">7.563e-06</text>
<rect x="100" y="285" width="97" height="12" fill="#00f"/>
<rect x="505" y="285" width="437" height="12" fill="#00f"/>
<line x1="197" y1="291" x2="504" y2="291" stroke="#00f"/>
<rect x="570" y="286" width="260" height="10" fill="#ff0"/>
<text x="20" y="315" class="sm">1.265e-06</text>
<rect x="100" y="305" width="97" height="12" fill="#00f"/>
<rect x="535" y="305" width="407" height="12" fill="#00f"/>
<line x1="197" y1="311" x2="534" y2="311" stroke="#00f"/>
<rect x="570" y="306" width="260" height="10" fill="#ff0"/>
<text x="20" y="335" class="sm">1.201e-06</text>
<rect x="100" y="325" width="111" height="12" fill="#00f"/>
<rect x="532" y="325" width="410" height="12" fill="#00f"/>
<line x1="211" y1="331" x2="531" y2="331" stroke="#00f"/>
<rect x="119" y="326" width="92" height="10" fill="#ff0"/>
<rect x="533" y="326" width="209" height="10" fill="#ff0"/>
<text x="20" y="355" class="sm">3.823e-07</text>
<rect x="100" y="345" width="111" height="12" fill="#00f"/>
<rect x="545" y="345" width="397" height="12" fill="#00f"/>
<line x1="211" y1="351" x2="544" y2="351" stroke="#00f"/>
<rect x="570" y="346" width="260" height="10" fill="#ff0"/>
<text x="20" y="375" class="sm">2.713e-07</text>
<rect x="100" y="365" width="97" height="12" fill="#00f"/>
<rect x="554" y="365" width="388" height="12" fill="#00f"/>
<line x1="197" y1="371" x2="553" y2="371" stroke="#00f"/>
<rect x="189" y="366" width="8" height="10" fill="#ff0"/>
<rect x="555" y="366" width="275" height="10" fill="#ff0"/>
<text x="20" y="395" class="sm">6.394e-08</text>
<rect x="100" y="385" width="111" height="12" fill="#00f"/>
<rect x="541" y="385" width="401" height="12" fill="#00f"/>
<line x1="211" y1="391" x2="540" y2="391" stroke="#00f"/>
<rect x="119" y="386" width="92" height="10" fill="#ff0"/>
<rect x="542" y="386" width="200" height="10" fill="#ff0"/>
<text x="20" y="415" class="sm">3.698e-08</text>
<rect x="100" y="405" width="111" height="12" fill="#00f"/>
<rect x="505" y="405" width="437" height="12" fill="#00f"/>
<line x1="211" y1="411" x2="504" y2="411" stroke="#00f"/>
<rect x="119" y="406" width="92" height="10" fill="#ff0"/>
<rect x="506" y="406" width="236" height="10" fill="#ff0"/>
<text x="20" y="435" class="sm">8.099e-09</text>
<rect x="100" y="425" width="111" height="12" fill="#00f"/>
<rect x="535" y="425" width="407" height="12" fill="#00f"/>
<line x1="211" y1="431" x2="534" y2="431" stroke="#00f"/>
<rect x="119" y="426" width="92" height="10" fill="#ff0"/>
<rect x="536" y="426" width="206" height="10" fill="#ff0"/>
<text x="20" y="455" class="sm">4.88e-09</text>
<rect x="100" y="445" width="302" height="12" fill="#00f"/>
<rect x="532" y="445" width="410" height="12" fill="#00f"/>
<line x1="402" y1="451" x2="531" y2="451" stroke="#00f"/>
<rect x="570" y="446" width="260" height="10" fill="#ff0"/>
<text x="20" y="475" class="sm">4.717e-09</text>
<rect x="100" y="465" width="109" height="12" fill="#00f"/>
<rect x="532" y="465" width="410" height="12" fill="#00f"/>
<line x1="209" y1="471" x2="531" y2="471" stroke="#00f"/>
<rect x="570" y="466" width="260" height="10" fill="#ff0"/>
<text x="20" y="495" class="sm">2.575e-09</text>
<rect x="100" y="485" width="302" height="12" fill="#00f"/>
<rect x="545" y="485" width="397" height="12" fill="#00f"/>
<line x1="402" y1="491" x2="544" y2="491" stroke="#00f"/>
<rect x="570" y="486" width="260" height="10" fill="#ff0"/>
<text x="20" y="515" class="sm">1.941e-09</text>
<rect x="100" y="505" width="111" height="12" fill="#00f"/>
<rect x="554" y="505" width="388" height="12" fill="#00f"/>
<line x1="211" y1="511" x2="553" y2="511" stroke="#00f"/>
<rect x="119" y="506" width="92" height="10" fill="#ff0"/>
<rect x="555" y="506" width="275" height="10" fill="#ff0"/>
<text x="20" y="535" class="sm">1.76e-09</text>
<rect x="100" y="525" width="109" height="12" fill="#00f"/>
<rect x="545" y="525" width="397" height="12" fill="#00f"/>
<line x1="209" y1="531" x2="544" y2="531" stroke="#00f"/>
<rect x="119" y="526" width="90" height="10" fill="#ff0"/>
<rect x="546" y="526" width="196" height="10" fill="#ff0"/>
</svg>
