<svg viewBox="0 0 893 525" xmlns="http://www.w3.org/2000/svg">

<style>
  .sm { font: 12px sans-serif; }
  .lg { font: 15px sans-serif; }
</style>
<rect fill="#ddd" x="0" y="0" width="100%" height="100%"/>
<text x="20" y="20" class="lg">ch.12871 V:2015736-2016628 Gene:WBGene00019090</text>
<text x="20" y="50" class="sm">WormBase</text>
<rect x="102" y="40" width="104" height="12" fill="#00f"/>
<rect x="402" y="40" width="183" height="12" fill="#00f"/>
<rect x="631" y="40" width="164" height="12" fill="#00f"/>
<line x1="206" y1="46" x2="401" y2="46" stroke="#00f"/>
<line x1="585" y1="46" x2="630" y2="46" stroke="#00f"/>
<rect x="122" y="41" width="84" height="10" fill="#ff0"/>
<rect x="403" y="41" width="182" height="10" fill="#ff0"/>
<rect x="632" y="41" width="82" height="10" fill="#ff0"/>
<rect x="103" y="41" width="18" height="10" fill="brown"><title>.</title></rect>
<rect x="715" y="41" width="80" height="10" fill="brown"><title>.</title></rect>
<text x="20" y="70" class="sm">Fitness: 0.18849495128681937</text>
<rect x="206" y="65" width="196" height="5" fill="#00f"><title>163374.0</title></rect>
<rect x="585" y="70" width="46" height="5" fill="#00f"><title>117066.0</title></rect>
<rect x="596" y="75" width="45" height="5" fill="#f0f"><title>18.0</title></rect>
<rect x="206" y="80" width="51" height="5" fill="#00f"><title>5.0</title></rect>
<rect x="585" y="85" width="58" height="5" fill="#00f"><title>3.0</title></rect>
<text x="20" y="115" class="sm">0.8206</text>
<rect x="100" y="105" width="106" height="12" fill="#00f"/>
<rect x="402" y="105" width="183" height="12" fill="#00f"/>
<rect x="631" y="105" width="165" height="12" fill="#00f"/>
<line x1="206" y1="111" x2="401" y2="111" stroke="#00f"/>
<line x1="585" y1="111" x2="630" y2="111" stroke="#00f"/>
<rect x="122" y="106" width="84" height="10" fill="#ff0"/>
<rect x="403" y="106" width="182" height="10" fill="#ff0"/>
<rect x="632" y="106" width="82" height="10" fill="#ff0"/>
<text x="20" y="135" class="sm">0.1262</text>
<rect x="100" y="125" width="106" height="12" fill="#00f"/>
<rect x="402" y="125" width="169" height="12" fill="#00f"/>
<rect x="631" y="125" width="165" height="12" fill="#00f"/>
<line x1="206" y1="131" x2="401" y2="131" stroke="#00f"/>
<line x1="571" y1="131" x2="630" y2="131" stroke="#00f"/>
<rect x="122" y="126" width="84" height="10" fill="#ff0"/>
<rect x="403" y="126" width="168" height="10" fill="#ff0"/>
<rect x="632" y="126" width="15" height="10" fill="#ff0"/>
<text x="20" y="155" class="sm">0.01719</text>
<rect x="100" y="145" width="106" height="12" fill="#00f"/>
<rect x="402" y="145" width="187" height="12" fill="#00f"/>
<rect x="631" y="145" width="165" height="12" fill="#00f"/>
<line x1="206" y1="151" x2="401" y2="151" stroke="#00f"/>
<line x1="589" y1="151" x2="630" y2="151" stroke="#00f"/>
<rect x="122" y="146" width="84" height="10" fill="#ff0"/>
<rect x="403" y="146" width="186" height="10" fill="#ff0"/>
<rect x="632" y="146" width="15" height="10" fill="#ff0"/>
<text x="20" y="175" class="sm">0.009834</text>
<rect x="100" y="165" width="106" height="12" fill="#00f"/>
<rect x="402" y="165" width="78" height="12" fill="#00f"/>
<rect x="522" y="165" width="63" height="12" fill="#00f"/>
<rect x="631" y="165" width="165" height="12" fill="#00f"/>
<line x1="206" y1="171" x2="401" y2="171" stroke="#00f"/>
<line x1="480" y1="171" x2="521" y2="171" stroke="#00f"/>
<line x1="585" y1="171" x2="630" y2="171" stroke="#00f"/>
<rect x="122" y="166" width="84" height="10" fill="#ff0"/>
<rect x="403" y="166" width="77" height="10" fill="#ff0"/>
<rect x="523" y="166" width="62" height="10" fill="#ff0"/>
<rect x="632" y="166" width="82" height="10" fill="#ff0"/>
<text x="20" y="195" class="sm">0.009474</text>
<rect x="100" y="185" width="66" height="12" fill="#00f"/>
<rect x="402" y="185" width="183" height="12" fill="#00f"/>
<rect x="631" y="185" width="165" height="12" fill="#00f"/>
<line x1="166" y1="191" x2="401" y2="191" stroke="#00f"/>
<line x1="585" y1="191" x2="630" y2="191" stroke="#00f"/>
<rect x="438" y="186" width="147" height="10" fill="#ff0"/>
<rect x="632" y="186" width="82" height="10" fill="#ff0"/>
<text x="20" y="215" class="sm">0.00698</text>
<rect x="100" y="205" width="106" height="12" fill="#00f"/>
<rect x="402" y="205" width="169" height="12" fill="#00f"/>
<rect x="703" y="205" width="93" height="12" fill="#00f"/>
<line x1="206" y1="211" x2="401" y2="211" stroke="#00f"/>
<line x1="571" y1="211" x2="702" y2="211" stroke="#00f"/>
<rect x="122" y="206" width="84" height="10" fill="#ff0"/>
<rect x="403" y="206" width="168" height="10" fill="#ff0"/>
<rect x="704" y="206" width="30" height="10" fill="#ff0"/>
<text x="20" y="235" class="sm">0.001764</text>
<rect x="100" y="225" width="106" height="12" fill="#00f"/>
<rect x="257" y="225" width="38" height="12" fill="#00f"/>
<rect x="402" y="225" width="183" height="12" fill="#00f"/>
<rect x="631" y="225" width="165" height="12" fill="#00f"/>
<line x1="206" y1="231" x2="256" y2="231" stroke="#00f"/>
<line x1="295" y1="231" x2="401" y2="231" stroke="#00f"/>
<line x1="585" y1="231" x2="630" y2="231" stroke="#00f"/>
<rect x="438" y="226" width="147" height="10" fill="#ff0"/>
<rect x="632" y="226" width="82" height="10" fill="#ff0"/>
<text x="20" y="255" class="sm">0.001457</text>
<rect x="100" y="245" width="66" height="12" fill="#00f"/>
<rect x="402" y="245" width="169" height="12" fill="#00f"/>
<rect x="631" y="245" width="165" height="12" fill="#00f"/>
<line x1="166" y1="251" x2="401" y2="251" stroke="#00f"/>
<line x1="571" y1="251" x2="630" y2="251" stroke="#00f"/>
<rect x="438" y="246" width="133" height="10" fill="#ff0"/>
<rect x="632" y="246" width="15" height="10" fill="#ff0"/>
<text x="20" y="275" class="sm">0.001363</text>
<rect x="100" y="265" width="106" height="12" fill="#00f"/>
<rect x="703" y="265" width="93" height="12" fill="#00f"/>
<line x1="206" y1="271" x2="702" y2="271" stroke="#00f"/>
<rect x="122" y="266" width="84" height="10" fill="#ff0"/>
<rect x="704" y="266" width="10" height="10" fill="#ff0"/>
<text x="20" y="295" class="sm">0.000985</text>
<rect x="100" y="285" width="106" height="12" fill="#00f"/>
<rect x="522" y="285" width="63" height="12" fill="#00f"/>
<rect x="631" y="285" width="165" height="12" fill="#00f"/>
<line x1="206" y1="291" x2="521" y2="291" stroke="#00f"/>
<line x1="585" y1="291" x2="630" y2="291" stroke="#00f"/>
<rect x="122" y="286" width="84" height="10" fill="#ff0"/>
<rect x="523" y="286" width="62" height="10" fill="#ff0"/>
<rect x="632" y="286" width="82" height="10" fill="#ff0"/>
<text x="20" y="315" class="sm">0.0009112</text>
<rect x="100" y="305" width="106" height="12" fill="#00f"/>
<rect x="402" y="305" width="183" height="12" fill="#00f"/>
<rect x="703" y="305" width="93" height="12" fill="#00f"/>
<line x1="206" y1="311" x2="401" y2="311" stroke="#00f"/>
<line x1="585" y1="311" x2="702" y2="311" stroke="#00f"/>
<rect x="122" y="306" width="84" height="10" fill="#ff0"/>
<rect x="403" y="306" width="182" height="10" fill="#ff0"/>
<rect x="704" y="306" width="10" height="10" fill="#ff0"/>
<text x="20" y="335" class="sm">0.0008983</text>
<rect x="100" y="325" width="106" height="12" fill="#00f"/>
<rect x="631" y="325" width="165" height="12" fill="#00f"/>
<line x1="206" y1="331" x2="630" y2="331" stroke="#00f"/>
<rect x="122" y="326" width="84" height="10" fill="#ff0"/>
<rect x="632" y="326" width="82" height="10" fill="#ff0"/>
<text x="20" y="355" class="sm">0.0006327</text>
<rect x="100" y="345" width="106" height="12" fill="#00f"/>
<rect x="402" y="345" width="78" height="12" fill="#00f"/>
<rect x="522" y="345" width="49" height="12" fill="#00f"/>
<rect x="631" y="345" width="165" height="12" fill="#00f"/>
<line x1="206" y1="351" x2="401" y2="351" stroke="#00f"/>
<line x1="480" y1="351" x2="521" y2="351" stroke="#00f"/>
<line x1="571" y1="351" x2="630" y2="351" stroke="#00f"/>
<rect x="122" y="346" width="84" height="10" fill="#ff0"/>
<rect x="403" y="346" width="77" height="10" fill="#ff0"/>
<rect x="523" y="346" width="48" height="10" fill="#ff0"/>
<rect x="632" y="346" width="15" height="10" fill="#ff0"/>
<text x="20" y="375" class="sm">0.0003581</text>
<rect x="100" y="365" width="106" height="12" fill="#00f"/>
<rect x="386" y="365" width="199" height="12" fill="#00f"/>
<rect x="631" y="365" width="165" height="12" fill="#00f"/>
<line x1="206" y1="371" x2="385" y2="371" stroke="#00f"/>
<line x1="585" y1="371" x2="630" y2="371" stroke="#00f"/>
<rect x="438" y="366" width="147" height="10" fill="#ff0"/>
<rect x="632" y="366" width="82" height="10" fill="#ff0"/>
<text x="20" y="395" class="sm">0.0003497</text>
<rect x="100" y="385" width="106" height="12" fill="#00f"/>
<rect x="402" y="385" width="183" height="12" fill="#00f"/>
<rect x="631" y="385" width="32" height="12" fill="#00f"/>
<rect x="703" y="385" width="93" height="12" fill="#00f"/>
<line x1="206" y1="391" x2="401" y2="391" stroke="#00f"/>
<line x1="585" y1="391" x2="630" y2="391" stroke="#00f"/>
<line x1="663" y1="391" x2="702" y2="391" stroke="#00f"/>
<rect x="122" y="386" width="84" height="10" fill="#ff0"/>
<rect x="403" y="386" width="182" height="10" fill="#ff0"/>
<rect x="632" y="386" width="31" height="10" fill="#ff0"/>
<rect x="704" y="386" width="26" height="10" fill="#ff0"/>
<text x="20" y="415" class="sm">0.0002713</text>
<rect x="100" y="405" width="106" height="12" fill="#00f"/>
<rect x="257" y="405" width="38" height="12" fill="#00f"/>
<rect x="402" y="405" width="169" height="12" fill="#00f"/>
<rect x="631" y="405" width="165" height="12" fill="#00f"/>
<line x1="206" y1="411" x2="256" y2="411" stroke="#00f"/>
<line x1="295" y1="411" x2="401" y2="411" stroke="#00f"/>
<line x1="571" y1="411" x2="630" y2="411" stroke="#00f"/>
<rect x="438" y="406" width="133" height="10" fill="#ff0"/>
<rect x="632" y="406" width="15" height="10" fill="#ff0"/>
<text x="20" y="435" class="sm">0.0002197</text>
<rect x="100" y="425" width="106" height="12" fill="#00f"/>
<rect x="402" y="425" width="78" height="12" fill="#00f"/>
<rect x="522" y="425" width="67" height="12" fill="#00f"/>
<rect x="631" y="425" width="165" height="12" fill="#00f"/>
<line x1="206" y1="431" x2="401" y2="431" stroke="#00f"/>
<line x1="480" y1="431" x2="521" y2="431" stroke="#00f"/>
<line x1="589" y1="431" x2="630" y2="431" stroke="#00f"/>
<rect x="122" y="426" width="84" height="10" fill="#ff0"/>
<rect x="403" y="426" width="77" height="10" fill="#ff0"/>
<rect x="523" y="426" width="66" height="10" fill="#ff0"/>
<rect x="632" y="426" width="15" height="10" fill="#ff0"/>
<text x="20" y="455" class="sm">0.0002129</text>
<rect x="100" y="445" width="51" height="12" fill="#00f"/>
<rect x="402" y="445" width="183" height="12" fill="#00f"/>
<rect x="631" y="445" width="165" height="12" fill="#00f"/>
<line x1="151" y1="451" x2="401" y2="451" stroke="#00f"/>
<line x1="585" y1="451" x2="630" y2="451" stroke="#00f"/>
<rect x="438" y="446" width="147" height="10" fill="#ff0"/>
<rect x="632" y="446" width="82" height="10" fill="#ff0"/>
<text x="20" y="475" class="sm">0.0001985</text>
<rect x="100" y="465" width="66" height="12" fill="#00f"/>
<rect x="402" y="465" width="187" height="12" fill="#00f"/>
<rect x="631" y="465" width="165" height="12" fill="#00f"/>
<line x1="166" y1="471" x2="401" y2="471" stroke="#00f"/>
<line x1="589" y1="471" x2="630" y2="471" stroke="#00f"/>
<rect x="438" y="466" width="151" height="10" fill="#ff0"/>
<rect x="632" y="466" width="15" height="10" fill="#ff0"/>
<text x="20" y="495" class="sm">0.0001952</text>
<rect x="100" y="485" width="106" height="12" fill="#00f"/>
<rect x="402" y="485" width="119" height="12" fill="#00f"/>
<rect x="703" y="485" width="93" height="12" fill="#00f"/>
<line x1="206" y1="491" x2="401" y2="491" stroke="#00f"/>
<line x1="521" y1="491" x2="702" y2="491" stroke="#00f"/>
<rect x="122" y="486" width="84" height="10" fill="#ff0"/>
<rect x="403" y="486" width="118" height="10" fill="#ff0"/>
<rect x="704" y="486" width="26" height="10" fill="#ff0"/>
</svg>
