<svg viewBox="0 0 880 560" xmlns="http://www.w3.org/2000/svg">

<style>
  .sm { font: 12px sans-serif; }
  .lg { font: 15px sans-serif; }
</style>
<rect fill="#ddd" x="0" y="0" width="100%" height="100%"/>
<text x="20" y="20" class="lg">ch.11331 IV:11009196-11010075 Gene:WBGene00008777</text>
<text x="20" y="50" class="sm">WormBase</text>
<rect x="100" y="40" width="161" height="12" fill="#00f"/>
<rect x="621" y="40" width="159" height="12" fill="#00f"/>
<line x1="261" y1="46" x2="620" y2="46" stroke="#00f"/>
<rect x="113" y="41" width="148" height="10" fill="#ff0"/>
<rect x="622" y="41" width="117" height="10" fill="#ff0"/>
<rect x="101" y="41" width="11" height="10" fill="brown"><title>.</title></rect>
<rect x="740" y="41" width="40" height="10" fill="brown"><title>.</title></rect>
<text x="20" y="70" class="sm">Fitness: 0.5462166048530521</text>
<rect x="261" y="65" width="360" height="5" fill="#00f"><title>759135.0</title></rect>
<rect x="734" y="70" width="48" height="5" fill="#00f"><title>285223.0</title></rect>
<rect x="259" y="75" width="362" height="5" fill="#00f"><title>64.0</title></rect>
<rect x="261" y="80" width="368" height="5" fill="#00f"><title>29.0</title></rect>
<rect x="738" y="85" width="44" height="5" fill="#00f"><title>25.0</title></rect>
<rect x="256" y="90" width="365" height="5" fill="#00f"><title>18.0</title></rect>
<rect x="261" y="95" width="362" height="5" fill="#00f"><title>15.0</title></rect>
<rect x="141" y="100" width="72" height="5" fill="#00f"><title>10.0</title></rect>
<rect x="171" y="105" width="60" height="5" fill="#00f"><title>7.0</title></rect>
<rect x="658" y="110" width="59" height="5" fill="#00f"><title>7.0</title></rect>
<rect x="140" y="115" width="30" height="5" fill="#f0f"><title>5.0</title></rect>
<rect x="265" y="120" width="358" height="5" fill="#00f"><title>5.0</title></rect>
<text x="20" y="150" class="sm">0.8924</text>
<rect x="100" y="140" width="161" height="12" fill="#00f"/>
<rect x="621" y="140" width="162" height="12" fill="#00f"/>
<line x1="261" y1="146" x2="620" y2="146" stroke="#00f"/>
<rect x="113" y="141" width="148" height="10" fill="#ff0"/>
<rect x="622" y="141" width="117" height="10" fill="#ff0"/>
<text x="20" y="170" class="sm">0.03883</text>
<rect x="100" y="160" width="161" height="12" fill="#00f"/>
<rect x="629" y="160" width="154" height="12" fill="#00f"/>
<line x1="261" y1="166" x2="628" y2="166" stroke="#00f"/>
<rect x="113" y="161" width="148" height="10" fill="#ff0"/>
<rect x="630" y="161" width="36" height="10" fill="#ff0"/>
<text x="20" y="190" class="sm">0.0141</text>
<rect x="100" y="180" width="159" height="12" fill="#00f"/>
<rect x="621" y="180" width="162" height="12" fill="#00f"/>
<line x1="259" y1="186" x2="620" y2="186" stroke="#00f"/>
<rect x="113" y="181" width="146" height="10" fill="#ff0"/>
<rect x="622" y="181" width="44" height="10" fill="#ff0"/>
<text x="20" y="210" class="sm">0.01273</text>
<rect x="100" y="200" width="161" height="12" fill="#00f"/>
<rect x="692" y="200" width="91" height="12" fill="#00f"/>
<line x1="261" y1="206" x2="691" y2="206" stroke="#00f"/>
<rect x="113" y="201" width="148" height="10" fill="#ff0"/>
<rect x="693" y="201" width="36" height="10" fill="#ff0"/>
<text x="20" y="230" class="sm">0.01202</text>
<rect x="100" y="220" width="165" height="12" fill="#00f"/>
<rect x="621" y="220" width="162" height="12" fill="#00f"/>
<line x1="265" y1="226" x2="620" y2="226" stroke="#00f"/>
<rect x="189" y="221" width="76" height="10" fill="#ff0"/>
<rect x="622" y="221" width="117" height="10" fill="#ff0"/>
<text x="20" y="250" class="sm">0.007614</text>
<rect x="100" y="240" width="161" height="12" fill="#00f"/>
<rect x="632" y="240" width="151" height="12" fill="#00f"/>
<line x1="261" y1="246" x2="631" y2="246" stroke="#00f"/>
<rect x="113" y="241" width="148" height="10" fill="#ff0"/>
<rect x="633" y="241" width="33" height="10" fill="#ff0"/>
<text x="20" y="270" class="sm">0.00611</text>
<rect x="100" y="260" width="156" height="12" fill="#00f"/>
<rect x="621" y="260" width="162" height="12" fill="#00f"/>
<line x1="256" y1="266" x2="620" y2="266" stroke="#00f"/>
<rect x="113" y="261" width="143" height="10" fill="#ff0"/>
<rect x="622" y="261" width="44" height="10" fill="#ff0"/>
<text x="20" y="290" class="sm">0.005518</text>
<rect x="100" y="280" width="161" height="12" fill="#00f"/>
<rect x="623" y="280" width="160" height="12" fill="#00f"/>
<line x1="261" y1="286" x2="622" y2="286" stroke="#00f"/>
<rect x="113" y="281" width="148" height="10" fill="#ff0"/>
<rect x="624" y="281" width="42" height="10" fill="#ff0"/>
<text x="20" y="310" class="sm">0.002306</text>
<rect x="100" y="300" width="201" height="12" fill="#00f"/>
<rect x="621" y="300" width="162" height="12" fill="#00f"/>
<line x1="301" y1="306" x2="620" y2="306" stroke="#00f"/>
<rect x="113" y="301" width="152" height="10" fill="#ff0"/>
<text x="20" y="330" class="sm">0.001894</text>
<rect x="100" y="320" width="161" height="12" fill="#00f"/>
<rect x="477" y="320" width="64" height="12" fill="#00f"/>
<rect x="621" y="320" width="162" height="12" fill="#00f"/>
<line x1="261" y1="326" x2="476" y2="326" stroke="#00f"/>
<line x1="541" y1="326" x2="620" y2="326" stroke="#00f"/>
<rect x="189" y="321" width="72" height="10" fill="#ff0"/>
<rect x="478" y="321" width="63" height="10" fill="#ff0"/>
<rect x="622" y="321" width="117" height="10" fill="#ff0"/>
<text x="20" y="350" class="sm">0.001436</text>
<rect x="100" y="340" width="161" height="12" fill="#00f"/>
<rect x="644" y="340" width="139" height="12" fill="#00f"/>
<line x1="261" y1="346" x2="643" y2="346" stroke="#00f"/>
<rect x="113" y="341" width="148" height="10" fill="#ff0"/>
<rect x="645" y="341" width="21" height="10" fill="#ff0"/>
<text x="20" y="370" class="sm">0.0009958</text>
<rect x="100" y="360" width="247" height="12" fill="#00f"/>
<rect x="621" y="360" width="162" height="12" fill="#00f"/>
<line x1="347" y1="366" x2="620" y2="366" stroke="#00f"/>
<rect x="298" y="361" width="49" height="10" fill="#ff0"/>
<rect x="622" y="361" width="117" height="10" fill="#ff0"/>
<text x="20" y="390" class="sm">0.000927</text>
<rect x="100" y="380" width="267" height="12" fill="#00f"/>
<rect x="621" y="380" width="162" height="12" fill="#00f"/>
<line x1="367" y1="386" x2="620" y2="386" stroke="#00f"/>
<rect x="113" y="381" width="152" height="10" fill="#ff0"/>
<text x="20" y="410" class="sm">0.0006292</text>
<rect x="100" y="400" width="159" height="12" fill="#00f"/>
<rect x="629" y="400" width="154" height="12" fill="#00f"/>
<line x1="259" y1="406" x2="628" y2="406" stroke="#00f"/>
<rect x="113" y="401" width="146" height="10" fill="#ff0"/>
<rect x="630" y="401" width="62" height="10" fill="#ff0"/>
<text x="20" y="430" class="sm">0.0005323</text>
<rect x="100" y="420" width="165" height="12" fill="#00f"/>
<rect x="629" y="420" width="154" height="12" fill="#00f"/>
<line x1="265" y1="426" x2="628" y2="426" stroke="#00f"/>
<rect x="113" y="421" width="152" height="10" fill="#ff0"/>
<text x="20" y="450" class="sm">0.0005295</text>
<rect x="100" y="440" width="161" height="12" fill="#00f"/>
<rect x="621" y="440" width="32" height="12" fill="#00f"/>
<rect x="692" y="440" width="91" height="12" fill="#00f"/>
<line x1="261" y1="446" x2="620" y2="446" stroke="#00f"/>
<line x1="653" y1="446" x2="691" y2="446" stroke="#00f"/>
<rect x="113" y="441" width="148" height="10" fill="#ff0"/>
<rect x="622" y="441" width="31" height="10" fill="#ff0"/>
<rect x="693" y="441" width="46" height="10" fill="#ff0"/>
<text x="20" y="470" class="sm">0.0003952</text>
<rect x="100" y="460" width="161" height="12" fill="#00f"/>
<rect x="477" y="460" width="59" height="12" fill="#00f"/>
<rect x="621" y="460" width="162" height="12" fill="#00f"/>
<line x1="261" y1="466" x2="476" y2="466" stroke="#00f"/>
<line x1="536" y1="466" x2="620" y2="466" stroke="#00f"/>
<rect x="189" y="461" width="72" height="10" fill="#ff0"/>
<rect x="478" y="461" width="58" height="10" fill="#ff0"/>
<rect x="622" y="461" width="44" height="10" fill="#ff0"/>
<text x="20" y="490" class="sm">0.0003753</text>
<rect x="100" y="480" width="161" height="12" fill="#00f"/>
<rect x="634" y="480" width="149" height="12" fill="#00f"/>
<line x1="261" y1="486" x2="633" y2="486" stroke="#00f"/>
<rect x="113" y="481" width="148" height="10" fill="#ff0"/>
<rect x="635" y="481" width="57" height="10" fill="#ff0"/>
<text x="20" y="510" class="sm">0.0003471</text>
<rect x="100" y="500" width="283" height="12" fill="#00f"/>
<rect x="621" y="500" width="162" height="12" fill="#00f"/>
<line x1="383" y1="506" x2="620" y2="506" stroke="#00f"/>
<rect x="298" y="501" width="85" height="10" fill="#ff0"/>
<rect x="622" y="501" width="117" height="10" fill="#ff0"/>
<text x="20" y="530" class="sm">0.0003051</text>
<rect x="100" y="520" width="161" height="12" fill="#00f"/>
<rect x="489" y="520" width="52" height="12" fill="#00f"/>
<rect x="621" y="520" width="162" height="12" fill="#00f"/>
<line x1="261" y1="526" x2="488" y2="526" stroke="#00f"/>
<line x1="541" y1="526" x2="620" y2="526" stroke="#00f"/>
<rect x="189" y="521" width="72" height="10" fill="#ff0"/>
<rect x="490" y="521" width="51" height="10" fill="#ff0"/>
<rect x="622" y="521" width="117" height="10" fill="#ff0"/>
</svg>
