<svg viewBox="0 0 866 570" xmlns="http://www.w3.org/2000/svg">

<style>
  .sm { font: 12px sans-serif; }
  .lg { font: 15px sans-serif; }
</style>
<rect fill="#ddd" x="0" y="0" width="100%" height="100%"/>
<text x="20" y="20" class="lg">ch.17237 V:19405629-19406494 Gene:WBGene00044291</text>
<text x="20" y="50" class="sm">WormBase</text>
<rect x="100" y="40" width="84" height="12" fill="#00f"/>
<rect x="236" y="40" width="266" height="12" fill="#00f"/>
<rect x="551" y="40" width="215" height="12" fill="#00f"/>
<line x1="184" y1="46" x2="235" y2="46" stroke="#00f"/>
<line x1="502" y1="46" x2="550" y2="46" stroke="#00f"/>
<rect x="173" y="41" width="11" height="10" fill="#ff0"/>
<rect x="237" y="41" width="265" height="10" fill="#ff0"/>
<rect x="552" y="41" width="213" height="10" fill="#ff0"/>
<rect x="101" y="41" width="71" height="10" fill="brown"><title>.</title></rect>
<rect x="766" y="41" width="0" height="10" fill="brown"><title>.</title></rect>
<text x="20" y="70" class="sm">WormBase</text>
<rect x="293" y="60" width="209" height="12" fill="#00f"/>
<rect x="551" y="60" width="214" height="12" fill="#00f"/>
<line x1="502" y1="66" x2="550" y2="66" stroke="#00f"/>
<rect x="294" y="61" width="208" height="10" fill="#ff0"/>
<rect x="552" y="61" width="213" height="10" fill="#ff0"/>
<text x="20" y="90" class="sm">Fitness: 0.040434153170929465</text>
<rect x="184" y="85" width="52" height="5" fill="#00f"><title>120355.0</title></rect>
<rect x="502" y="90" width="49" height="5" fill="#00f"><title>116429.0</title></rect>
<rect x="502" y="95" width="42" height="5" fill="#00f"><title>9769.0</title></rect>
<rect x="188" y="100" width="48" height="5" fill="#00f"><title>330.0</title></rect>
<rect x="182" y="105" width="54" height="5" fill="#00f"><title>260.0</title></rect>
<rect x="184" y="110" width="58" height="5" fill="#00f"><title>18.0</title></rect>
<rect x="320" y="115" width="136" height="5" fill="#00f"><title>6.0</title></rect>
<rect x="356" y="120" width="100" height="5" fill="#00f"><title>6.0</title></rect>
<rect x="502" y="125" width="61" height="5" fill="#00f"><title>6.0</title></rect>
<rect x="177" y="130" width="59" height="5" fill="#00f"><title>5.0</title></rect>
<text x="20" y="160" class="sm">0.4836</text>
<rect x="100" y="150" width="84" height="12" fill="#00f"/>
<rect x="236" y="150" width="533" height="12" fill="#00f"/>
<line x1="184" y1="156" x2="235" y2="156" stroke="#00f"/>
<rect x="173" y="151" width="11" height="10" fill="#ff0"/>
<rect x="237" y="151" width="269" height="10" fill="#ff0"/>
<text x="20" y="180" class="sm">0.4699</text>
<rect x="100" y="170" width="402" height="12" fill="#00f"/>
<rect x="551" y="170" width="218" height="12" fill="#00f"/>
<line x1="502" y1="176" x2="550" y2="176" stroke="#00f"/>
<rect x="294" y="171" width="208" height="10" fill="#ff0"/>
<rect x="552" y="171" width="213" height="10" fill="#ff0"/>
<text x="20" y="200" class="sm">0.0247</text>
<rect x="100" y="190" width="402" height="12" fill="#00f"/>
<rect x="544" y="190" width="225" height="12" fill="#00f"/>
<line x1="502" y1="196" x2="543" y2="196" stroke="#00f"/>
<rect x="412" y="191" width="90" height="10" fill="#ff0"/>
<rect x="545" y="191" width="220" height="10" fill="#ff0"/>
<text x="20" y="220" class="sm">0.009828</text>
<rect x="100" y="210" width="82" height="12" fill="#00f"/>
<rect x="236" y="210" width="533" height="12" fill="#00f"/>
<line x1="182" y1="216" x2="235" y2="216" stroke="#00f"/>
<rect x="359" y="211" width="227" height="10" fill="#ff0"/>
<text x="20" y="240" class="sm">0.007489</text>
<rect x="100" y="230" width="77" height="12" fill="#00f"/>
<rect x="236" y="230" width="533" height="12" fill="#00f"/>
<line x1="177" y1="236" x2="235" y2="236" stroke="#00f"/>
<rect x="359" y="231" width="227" height="10" fill="#ff0"/>
<text x="20" y="260" class="sm">0.001006</text>
<rect x="100" y="250" width="402" height="12" fill="#00f"/>
<rect x="649" y="250" width="120" height="12" fill="#00f"/>
<line x1="502" y1="256" x2="648" y2="256" stroke="#00f"/>
<rect x="294" y="251" width="208" height="10" fill="#ff0"/>
<rect x="650" y="251" width="9" height="10" fill="#ff0"/>
<text x="20" y="280" class="sm">0.0008606</text>
<rect x="100" y="270" width="88" height="12" fill="#00f"/>
<rect x="236" y="270" width="533" height="12" fill="#00f"/>
<line x1="188" y1="276" x2="235" y2="276" stroke="#00f"/>
<rect x="359" y="271" width="227" height="10" fill="#ff0"/>
<text x="20" y="300" class="sm">0.0006734</text>
<rect x="100" y="290" width="256" height="12" fill="#00f"/>
<rect x="456" y="290" width="313" height="12" fill="#00f"/>
<line x1="356" y1="296" x2="455" y2="296" stroke="#00f"/>
<rect x="294" y="291" width="62" height="10" fill="#ff0"/>
<rect x="457" y="291" width="80" height="10" fill="#ff0"/>
<text x="20" y="320" class="sm">0.0005094</text>
<rect x="100" y="310" width="402" height="12" fill="#00f"/>
<rect x="670" y="310" width="99" height="12" fill="#00f"/>
<line x1="502" y1="316" x2="669" y2="316" stroke="#00f"/>
<rect x="294" y="311" width="208" height="10" fill="#ff0"/>
<rect x="671" y="311" width="39" height="10" fill="#ff0"/>
<text x="20" y="340" class="sm">0.0004967</text>
<rect x="100" y="330" width="402" height="12" fill="#00f"/>
<rect x="563" y="330" width="206" height="12" fill="#00f"/>
<line x1="502" y1="336" x2="562" y2="336" stroke="#00f"/>
<rect x="294" y="331" width="208" height="10" fill="#ff0"/>
<rect x="564" y="331" width="201" height="10" fill="#ff0"/>
<text x="20" y="360" class="sm">0.0001671</text>
<rect x="100" y="350" width="256" height="12" fill="#00f"/>
<rect x="398" y="350" width="371" height="12" fill="#00f"/>
<line x1="356" y1="356" x2="397" y2="356" stroke="#00f"/>
<rect x="294" y="351" width="62" height="10" fill="#ff0"/>
<rect x="399" y="351" width="107" height="10" fill="#ff0"/>
<text x="20" y="380" class="sm">0.0001498</text>
<rect x="100" y="370" width="84" height="12" fill="#00f"/>
<rect x="456" y="370" width="313" height="12" fill="#00f"/>
<line x1="184" y1="376" x2="455" y2="376" stroke="#00f"/>
<rect x="628" y="371" width="137" height="10" fill="#ff0"/>
<text x="20" y="400" class="sm">0.0001478</text>
<rect x="100" y="390" width="456" height="12" fill="#00f"/>
<rect x="599" y="390" width="170" height="12" fill="#00f"/>
<line x1="556" y1="396" x2="598" y2="396" stroke="#00f"/>
<rect x="294" y="391" width="212" height="10" fill="#ff0"/>
<text x="20" y="420" class="sm">0.0001036</text>
<rect x="100" y="410" width="433" height="12" fill="#00f"/>
<rect x="649" y="410" width="120" height="12" fill="#00f"/>
<line x1="533" y1="416" x2="648" y2="416" stroke="#00f"/>
<rect x="359" y="411" width="174" height="10" fill="#ff0"/>
<rect x="650" y="411" width="115" height="10" fill="#ff0"/>
<text x="20" y="440" class="sm">7.427e-05</text>
<rect x="100" y="430" width="456" height="12" fill="#00f"/>
<rect x="649" y="430" width="120" height="12" fill="#00f"/>
<line x1="556" y1="436" x2="648" y2="436" stroke="#00f"/>
<rect x="359" y="431" width="197" height="10" fill="#ff0"/>
<rect x="650" y="431" width="50" height="10" fill="#ff0"/>
<text x="20" y="460" class="sm">6.771e-05</text>
<rect x="100" y="450" width="220" height="12" fill="#00f"/>
<rect x="367" y="450" width="402" height="12" fill="#00f"/>
<line x1="320" y1="456" x2="366" y2="456" stroke="#00f"/>
<rect x="294" y="451" width="26" height="10" fill="#ff0"/>
<rect x="368" y="451" width="218" height="10" fill="#ff0"/>
<text x="20" y="480" class="sm">6.335e-05</text>
<rect x="100" y="470" width="220" height="12" fill="#00f"/>
<rect x="456" y="470" width="313" height="12" fill="#00f"/>
<line x1="320" y1="476" x2="455" y2="476" stroke="#00f"/>
<rect x="628" y="471" width="137" height="10" fill="#ff0"/>
<text x="20" y="500" class="sm">5.625e-05</text>
<rect x="100" y="490" width="402" height="12" fill="#00f"/>
<rect x="599" y="490" width="170" height="12" fill="#00f"/>
<line x1="502" y1="496" x2="598" y2="496" stroke="#00f"/>
<rect x="294" y="491" width="208" height="10" fill="#ff0"/>
<rect x="600" y="491" width="165" height="10" fill="#ff0"/>
<text x="20" y="520" class="sm">5.143e-05</text>
<rect x="100" y="510" width="433" height="12" fill="#00f"/>
<rect x="670" y="510" width="99" height="12" fill="#00f"/>
<line x1="533" y1="516" x2="669" y2="516" stroke="#00f"/>
<rect x="294" y="511" width="212" height="10" fill="#ff0"/>
<text x="20" y="540" class="sm">4.396e-05</text>
<rect x="100" y="530" width="402" height="12" fill="#00f"/>
<rect x="633" y="530" width="136" height="12" fill="#00f"/>
<line x1="502" y1="536" x2="632" y2="536" stroke="#00f"/>
<rect x="359" y="531" width="143" height="10" fill="#ff0"/>
<rect x="634" y="531" width="131" height="10" fill="#ff0"/>
</svg>
