<svg viewBox="0 0 1071 625" xmlns="http://www.w3.org/2000/svg">

<style>
  .sm { font: 12px sans-serif; }
  .lg { font: 15px sans-serif; }
</style>
<rect fill="#ddd" x="0" y="0" width="100%" height="100%"/>
<text x="20" y="20" class="lg">ch.15157 V:11124086-11125156 Gene:WBGene00007390</text>
<text x="20" y="50" class="sm">WormBase</text>
<rect x="100" y="40" width="74" height="12" fill="#00f"/>
<rect x="217" y="40" width="107" height="12" fill="#00f"/>
<rect x="388" y="40" width="93" height="12" fill="#00f"/>
<rect x="528" y="40" width="443" height="12" fill="#00f"/>
<line x1="174" y1="46" x2="216" y2="46" stroke="#00f"/>
<line x1="324" y1="46" x2="387" y2="46" stroke="#00f"/>
<line x1="481" y1="46" x2="527" y2="46" stroke="#00f"/>
<rect x="225" y="41" width="99" height="10" fill="#ff0"/>
<rect x="389" y="41" width="92" height="10" fill="#ff0"/>
<rect x="529" y="41" width="244" height="10" fill="#ff0"/>
<rect x="101" y="41" width="73" height="10" fill="brown"><title>.</title></rect>
<rect x="218" y="41" width="6" height="10" fill="brown"><title>.</title></rect>
<rect x="774" y="41" width="197" height="10" fill="brown"><title>.</title></rect>
<text x="20" y="70" class="sm">WormBase</text>
<rect x="217" y="60" width="107" height="12" fill="#00f"/>
<rect x="388" y="60" width="93" height="12" fill="#00f"/>
<rect x="528" y="60" width="440" height="12" fill="#00f"/>
<line x1="324" y1="66" x2="387" y2="66" stroke="#00f"/>
<line x1="481" y1="66" x2="527" y2="66" stroke="#00f"/>
<rect x="225" y="61" width="99" height="10" fill="#ff0"/>
<rect x="389" y="61" width="92" height="10" fill="#ff0"/>
<rect x="529" y="61" width="244" height="10" fill="#ff0"/>
<rect x="218" y="61" width="6" height="10" fill="brown"><title>.</title></rect>
<rect x="774" y="61" width="194" height="10" fill="brown"><title>.</title></rect>
<text x="20" y="90" class="sm">WormBase</text>
<rect x="638" y="80" width="135" height="12" fill="#00f"/>
<rect x="639" y="81" width="134" height="10" fill="#ff0"/>
<text x="20" y="110" class="sm">Fitness: 0.0770395310683079</text>
<rect x="324" y="105" width="64" height="5" fill="#00f"><title>481083.0</title></rect>
<rect x="481" y="110" width="47" height="5" fill="#00f"><title>457839.0</title></rect>
<rect x="174" y="115" width="43" height="5" fill="#00f"><title>36257.0</title></rect>
<rect x="481" y="120" width="36" height="5" fill="#00f"><title>3781.0</title></rect>
<rect x="485" y="125" width="46" height="5" fill="#00f"><title>311.0</title></rect>
<rect x="171" y="130" width="46" height="5" fill="#00f"><title>200.0</title></rect>
<rect x="314" y="135" width="64" height="5" fill="#f0f"><title>151.0</title></rect>
<rect x="314" y="140" width="50" height="5" fill="#f0f"><title>123.0</title></rect>
<rect x="481" y="145" width="50" height="5" fill="#00f"><title>28.0</title></rect>
<rect x="853" y="150" width="44" height="5" fill="#f0f"><title>14.0</title></rect>
<rect x="485" y="155" width="43" height="5" fill="#00f"><title>6.0</title></rect>
<rect x="314" y="160" width="230" height="5" fill="#f0f"><title>4.0</title></rect>
<rect x="553" y="165" width="40" height="5" fill="#00f"><title>4.0</title></rect>
<rect x="174" y="170" width="66" height="5" fill="#00f"><title>3.0</title></rect>
<rect x="306" y="175" width="110" height="5" fill="#00f"><title>3.0</title></rect>
<rect x="306" y="180" width="116" height="5" fill="#00f"><title>3.0</title></rect>
<rect x="324" y="185" width="92" height="5" fill="#00f"><title>3.0</title></rect>
<text x="20" y="215" class="sm">0.4946</text>
<rect x="100" y="205" width="224" height="12" fill="#00f"/>
<rect x="388" y="205" width="586" height="12" fill="#00f"/>
<line x1="324" y1="211" x2="387" y2="211" stroke="#00f"/>
<rect x="222" y="206" width="102" height="10" fill="#ff0"/>
<rect x="389" y="206" width="97" height="10" fill="#ff0"/>
<text x="20" y="235" class="sm">0.4687</text>
<rect x="100" y="225" width="381" height="12" fill="#00f"/>
<rect x="528" y="225" width="446" height="12" fill="#00f"/>
<line x1="481" y1="231" x2="527" y2="231" stroke="#00f"/>
<rect x="478" y="226" width="3" height="10" fill="#ff0"/>
<rect x="529" y="226" width="244" height="10" fill="#ff0"/>
<text x="20" y="255" class="sm">0.008378</text>
<rect x="100" y="245" width="385" height="12" fill="#00f"/>
<rect x="528" y="245" width="446" height="12" fill="#00f"/>
<line x1="485" y1="251" x2="527" y2="251" stroke="#00f"/>
<rect x="639" y="246" width="134" height="10" fill="#ff0"/>
<text x="20" y="275" class="sm">0.006302</text>
<rect x="100" y="265" width="224" height="12" fill="#00f"/>
<rect x="422" y="265" width="552" height="12" fill="#00f"/>
<line x1="324" y1="271" x2="421" y2="271" stroke="#00f"/>
<rect x="639" y="266" width="134" height="10" fill="#ff0"/>
<text x="20" y="295" class="sm">0.004616</text>
<rect x="100" y="285" width="71" height="12" fill="#00f"/>
<rect x="217" y="285" width="757" height="12" fill="#00f"/>
<line x1="171" y1="291" x2="216" y2="291" stroke="#00f"/>
<rect x="639" y="286" width="134" height="10" fill="#ff0"/>
<text x="20" y="315" class="sm">0.002607</text>
<rect x="100" y="305" width="228" height="12" fill="#00f"/>
<rect x="388" y="305" width="586" height="12" fill="#00f"/>
<line x1="328" y1="311" x2="387" y2="311" stroke="#00f"/>
<rect x="639" y="306" width="134" height="10" fill="#ff0"/>
<text x="20" y="335" class="sm">0.002387</text>
<rect x="100" y="325" width="116" height="12" fill="#00f"/>
<rect x="269" y="325" width="705" height="12" fill="#00f"/>
<line x1="216" y1="331" x2="268" y2="331" stroke="#00f"/>
<rect x="154" y="326" width="62" height="10" fill="#ff0"/>
<rect x="270" y="326" width="74" height="10" fill="#ff0"/>
<text x="20" y="355" class="sm">0.002062</text>
<rect x="100" y="345" width="116" height="12" fill="#00f"/>
<rect x="388" y="345" width="586" height="12" fill="#00f"/>
<line x1="216" y1="351" x2="387" y2="351" stroke="#00f"/>
<rect x="639" y="346" width="134" height="10" fill="#ff0"/>
<text x="20" y="375" class="sm">0.001868</text>
<rect x="100" y="365" width="224" height="12" fill="#00f"/>
<rect x="416" y="365" width="558" height="12" fill="#00f"/>
<line x1="324" y1="371" x2="415" y2="371" stroke="#00f"/>
<rect x="639" y="366" width="134" height="10" fill="#ff0"/>
<text x="20" y="395" class="sm">0.001814</text>
<rect x="100" y="385" width="74" height="12" fill="#00f"/>
<rect x="217" y="385" width="757" height="12" fill="#00f"/>
<line x1="174" y1="391" x2="216" y2="391" stroke="#00f"/>
<rect x="639" y="386" width="134" height="10" fill="#ff0"/>
<text x="20" y="415" class="sm">0.001665</text>
<rect x="100" y="405" width="703" height="12" fill="#00f"/>
<rect x="842" y="405" width="132" height="12" fill="#00f"/>
<line x1="803" y1="411" x2="841" y2="411" stroke="#00f"/>
<rect x="639" y="406" width="134" height="10" fill="#ff0"/>
<text x="20" y="435" class="sm">0.0008654</text>
<rect x="100" y="425" width="551" height="12" fill="#00f"/>
<rect x="747" y="425" width="227" height="12" fill="#00f"/>
<line x1="651" y1="431" x2="746" y2="431" stroke="#00f"/>
<rect x="222" y="426" width="122" height="10" fill="#ff0"/>
<text x="20" y="455" class="sm">0.0008558</text>
<rect x="100" y="445" width="381" height="12" fill="#00f"/>
<rect x="517" y="445" width="457" height="12" fill="#00f"/>
<line x1="481" y1="451" x2="516" y2="451" stroke="#00f"/>
<rect x="639" y="446" width="134" height="10" fill="#ff0"/>
<text x="20" y="475" class="sm">0.0007437</text>
<rect x="100" y="465" width="381" height="12" fill="#00f"/>
<rect x="531" y="465" width="443" height="12" fill="#00f"/>
<line x1="481" y1="471" x2="530" y2="471" stroke="#00f"/>
<rect x="478" y="466" width="3" height="10" fill="#ff0"/>
<rect x="532" y="466" width="241" height="10" fill="#ff0"/>
<text x="20" y="495" class="sm">0.0006485</text>
<rect x="100" y="485" width="335" height="12" fill="#00f"/>
<rect x="486" y="485" width="488" height="12" fill="#00f"/>
<line x1="435" y1="491" x2="485" y2="491" stroke="#00f"/>
<rect x="639" y="486" width="134" height="10" fill="#ff0"/>
<text x="20" y="515" class="sm">0.0005957</text>
<rect x="100" y="505" width="416" height="12" fill="#00f"/>
<rect x="560" y="505" width="414" height="12" fill="#00f"/>
<line x1="516" y1="511" x2="559" y2="511" stroke="#00f"/>
<rect x="639" y="506" width="134" height="10" fill="#ff0"/>
<text x="20" y="535" class="sm">0.0004095</text>
<rect x="100" y="525" width="80" height="12" fill="#00f"/>
<rect x="217" y="525" width="757" height="12" fill="#00f"/>
<line x1="180" y1="531" x2="216" y2="531" stroke="#00f"/>
<rect x="639" y="526" width="134" height="10" fill="#ff0"/>
<text x="20" y="555" class="sm">0.0003347</text>
<rect x="100" y="545" width="224" height="12" fill="#00f"/>
<rect x="440" y="545" width="534" height="12" fill="#00f"/>
<line x1="324" y1="551" x2="439" y2="551" stroke="#00f"/>
<rect x="639" y="546" width="134" height="10" fill="#ff0"/>
<text x="20" y="575" class="sm">0.0003178</text>
<rect x="100" y="565" width="335" height="12" fill="#00f"/>
<rect x="528" y="565" width="446" height="12" fill="#00f"/>
<line x1="435" y1="571" x2="527" y2="571" stroke="#00f"/>
<rect x="639" y="566" width="134" height="10" fill="#ff0"/>
<text x="20" y="595" class="sm">0.0003139</text>
<rect x="100" y="585" width="116" height="12" fill="#00f"/>
<rect x="306" y="585" width="668" height="12" fill="#00f"/>
<line x1="216" y1="591" x2="305" y2="591" stroke="#00f"/>
<rect x="639" y="586" width="134" height="10" fill="#ff0"/>
</svg>
