<svg viewBox="0 0 861 515" xmlns="http://www.w3.org/2000/svg">

<style>
  .sm { font: 12px sans-serif; }
  .lg { font: 15px sans-serif; }
</style>
<rect fill="#ddd" x="0" y="0" width="100%" height="100%"/>
<text x="20" y="20" class="lg">ch.17137 V:18807969-18808829 Gene:WBGene00008310</text>
<text x="20" y="50" class="sm">WormBase</text>
<rect x="102" y="40" width="249" height="12" fill="#00f"/>
<rect x="564" y="40" width="199" height="12" fill="#00f"/>
<line x1="351" y1="46" x2="563" y2="46" stroke="#00f"/>
<rect x="171" y="41" width="180" height="10" fill="#ff0"/>
<rect x="565" y="41" width="157" height="10" fill="#ff0"/>
<rect x="103" y="41" width="67" height="10" fill="brown"><title>.</title></rect>
<rect x="723" y="41" width="40" height="10" fill="brown"><title>.</title></rect>
<text x="20" y="70" class="sm">Fitness: 5.5939181761245006e-05</text>
<rect x="351" y="65" width="213" height="5" fill="#00f"><title>157432.0</title></rect>
<rect x="98" y="70" width="50" height="5" fill="#f0f"><title>28.0</title></rect>
<rect x="113" y="75" width="50" height="5" fill="#00f"><title>4.0</title></rect>
<text x="20" y="105" class="sm">1.0</text>
<rect x="100" y="95" width="251" height="12" fill="#00f"/>
<rect x="564" y="95" width="200" height="12" fill="#00f"/>
<line x1="351" y1="101" x2="563" y2="101" stroke="#00f"/>
<rect x="171" y="96" width="180" height="10" fill="#ff0"/>
<rect x="565" y="96" width="157" height="10" fill="#ff0"/>
<text x="20" y="125" class="sm">2.318e-05</text>
<rect x="100" y="115" width="211" height="12" fill="#00f"/>
<rect x="564" y="115" width="200" height="12" fill="#00f"/>
<line x1="311" y1="121" x2="563" y2="121" stroke="#00f"/>
<rect x="171" y="116" width="140" height="10" fill="#ff0"/>
<rect x="565" y="116" width="95" height="10" fill="#ff0"/>
<text x="20" y="145" class="sm">4.13e-06</text>
<rect x="100" y="135" width="284" height="12" fill="#00f"/>
<rect x="564" y="135" width="200" height="12" fill="#00f"/>
<line x1="384" y1="141" x2="563" y2="141" stroke="#00f"/>
<rect x="171" y="136" width="203" height="10" fill="#ff0"/>
<text x="20" y="165" class="sm">3.122e-07</text>
<rect x="100" y="155" width="251" height="12" fill="#00f"/>
<rect x="710" y="155" width="54" height="12" fill="#00f"/>
<line x1="351" y1="161" x2="709" y2="161" stroke="#00f"/>
<rect x="171" y="156" width="180" height="10" fill="#ff0"/>
<rect x="711" y="156" width="1" height="10" fill="#ff0"/>
<text x="20" y="185" class="sm">2.758e-07</text>
<rect x="100" y="175" width="251" height="12" fill="#00f"/>
<rect x="538" y="175" width="226" height="12" fill="#00f"/>
<line x1="351" y1="181" x2="537" y2="181" stroke="#00f"/>
<rect x="171" y="176" width="180" height="10" fill="#ff0"/>
<rect x="539" y="176" width="1" height="10" fill="#ff0"/>
<text x="20" y="205" class="sm">5.983e-08</text>
<rect x="100" y="195" width="255" height="12" fill="#00f"/>
<rect x="564" y="195" width="200" height="12" fill="#00f"/>
<line x1="355" y1="201" x2="563" y2="201" stroke="#00f"/>
<rect x="171" y="196" width="184" height="10" fill="#ff0"/>
<rect x="565" y="196" width="15" height="10" fill="#ff0"/>
<text x="20" y="225" class="sm">7.192e-09</text>
<rect x="100" y="215" width="251" height="12" fill="#00f"/>
<rect x="591" y="215" width="173" height="12" fill="#00f"/>
<line x1="351" y1="221" x2="590" y2="221" stroke="#00f"/>
<rect x="171" y="216" width="180" height="10" fill="#ff0"/>
<rect x="592" y="216" width="1" height="10" fill="#ff0"/>
<text x="20" y="245" class="sm">3.938e-09</text>
<rect x="100" y="235" width="251" height="12" fill="#00f"/>
<rect x="661" y="235" width="103" height="12" fill="#00f"/>
<line x1="351" y1="241" x2="660" y2="241" stroke="#00f"/>
<rect x="171" y="236" width="180" height="10" fill="#ff0"/>
<rect x="662" y="236" width="1" height="10" fill="#ff0"/>
<text x="20" y="265" class="sm">1.271e-09</text>
<rect x="100" y="255" width="193" height="12" fill="#00f"/>
<rect x="564" y="255" width="200" height="12" fill="#00f"/>
<line x1="293" y1="261" x2="563" y2="261" stroke="#00f"/>
<rect x="171" y="256" width="122" height="10" fill="#ff0"/>
<rect x="565" y="256" width="95" height="10" fill="#ff0"/>
<text x="20" y="285" class="sm">5.812e-11</text>
<rect x="100" y="275" width="251" height="12" fill="#00f"/>
<rect x="697" y="275" width="67" height="12" fill="#00f"/>
<line x1="351" y1="281" x2="696" y2="281" stroke="#00f"/>
<rect x="171" y="276" width="180" height="10" fill="#ff0"/>
<rect x="698" y="276" width="1" height="10" fill="#ff0"/>
<text x="20" y="305" class="sm">4.686e-11</text>
<rect x="100" y="295" width="251" height="12" fill="#00f"/>
<rect x="587" y="295" width="177" height="12" fill="#00f"/>
<line x1="351" y1="301" x2="586" y2="301" stroke="#00f"/>
<rect x="171" y="296" width="180" height="10" fill="#ff0"/>
<rect x="588" y="296" width="25" height="10" fill="#ff0"/>
<text x="20" y="325" class="sm">1.526e-11</text>
<rect x="100" y="315" width="53" height="12" fill="#00f"/>
<rect x="564" y="315" width="200" height="12" fill="#00f"/>
<line x1="153" y1="321" x2="563" y2="321" stroke="#00f"/>
<rect x="582" y="316" width="140" height="10" fill="#ff0"/>
<text x="20" y="345" class="sm">7.569e-12</text>
<rect x="100" y="335" width="211" height="12" fill="#00f"/>
<rect x="710" y="335" width="54" height="12" fill="#00f"/>
<line x1="311" y1="341" x2="709" y2="341" stroke="#00f"/>
<rect x="171" y="336" width="140" height="10" fill="#ff0"/>
<rect x="711" y="336" width="11" height="10" fill="#ff0"/>
<text x="20" y="365" class="sm">7.317e-12</text>
<rect x="100" y="355" width="211" height="12" fill="#00f"/>
<rect x="538" y="355" width="226" height="12" fill="#00f"/>
<line x1="311" y1="361" x2="537" y2="361" stroke="#00f"/>
<rect x="199" y="356" width="112" height="10" fill="#ff0"/>
<rect x="539" y="356" width="183" height="10" fill="#ff0"/>
<text x="20" y="385" class="sm">3.977e-12</text>
<rect x="100" y="375" width="251" height="12" fill="#00f"/>
<rect x="626" y="375" width="138" height="12" fill="#00f"/>
<line x1="351" y1="381" x2="625" y2="381" stroke="#00f"/>
<rect x="171" y="376" width="180" height="10" fill="#ff0"/>
<rect x="627" y="376" width="1" height="10" fill="#ff0"/>
<text x="20" y="405" class="sm">1.274e-12</text>
<rect x="100" y="395" width="284" height="12" fill="#00f"/>
<rect x="538" y="395" width="226" height="12" fill="#00f"/>
<line x1="384" y1="401" x2="537" y2="401" stroke="#00f"/>
<rect x="171" y="396" width="203" height="10" fill="#ff0"/>
<text x="20" y="425" class="sm">1.272e-12</text>
<rect x="100" y="415" width="284" height="12" fill="#00f"/>
<rect x="710" y="415" width="54" height="12" fill="#00f"/>
<line x1="384" y1="421" x2="709" y2="421" stroke="#00f"/>
<rect x="171" y="416" width="203" height="10" fill="#ff0"/>
<text x="20" y="445" class="sm">1.832e-13</text>
<rect x="100" y="435" width="211" height="12" fill="#00f"/>
<rect x="591" y="435" width="173" height="12" fill="#00f"/>
<line x1="311" y1="441" x2="590" y2="441" stroke="#00f"/>
<rect x="171" y="436" width="140" height="10" fill="#ff0"/>
<rect x="592" y="436" width="68" height="10" fill="#ff0"/>
<text x="20" y="465" class="sm">1.008e-13</text>
<rect x="100" y="455" width="211" height="12" fill="#00f"/>
<rect x="661" y="455" width="103" height="12" fill="#00f"/>
<line x1="311" y1="461" x2="660" y2="461" stroke="#00f"/>
<rect x="199" y="456" width="112" height="10" fill="#ff0"/>
<rect x="662" y="456" width="60" height="10" fill="#ff0"/>
<text x="20" y="485" class="sm">4.581e-14</text>
<rect x="100" y="475" width="163" height="12" fill="#00f"/>
<rect x="564" y="475" width="200" height="12" fill="#00f"/>
<line x1="263" y1="481" x2="563" y2="481" stroke="#00f"/>
<rect x="171" y="476" width="92" height="10" fill="#ff0"/>
<rect x="565" y="476" width="95" height="10" fill="#ff0"/>
</svg>
