<svg viewBox="0 0 865 590" xmlns="http://www.w3.org/2000/svg">

<style>
  .sm { font: 12px sans-serif; }
  .lg { font: 15px sans-serif; }
</style>
<rect fill="#ddd" x="0" y="0" width="100%" height="100%"/>
<text x="20" y="20" class="lg">ch.12331 IV:16865740-16866604 Gene:WBGene00020286</text>
<text x="20" y="50" class="sm">WormBase</text>
<rect x="100" y="40" width="84" height="12" fill="#00f"/>
<rect x="233" y="40" width="86" height="12" fill="#00f"/>
<rect x="381" y="40" width="384" height="12" fill="#00f"/>
<line x1="184" y1="46" x2="232" y2="46" stroke="#00f"/>
<line x1="319" y1="46" x2="380" y2="46" stroke="#00f"/>
<rect x="101" y="41" width="83" height="10" fill="#ff0"/>
<rect x="234" y="41" width="85" height="10" fill="#ff0"/>
<rect x="382" y="41" width="339" height="10" fill="#ff0"/>
<rect x="722" y="41" width="43" height="10" fill="brown"><title>.</title></rect>
<text x="20" y="70" class="sm">WormBase</text>
<rect x="239" y="60" width="80" height="12" fill="#00f"/>
<rect x="381" y="60" width="384" height="12" fill="#00f"/>
<line x1="319" y1="66" x2="380" y2="66" stroke="#00f"/>
<rect x="240" y="61" width="79" height="10" fill="#ff0"/>
<rect x="382" y="61" width="339" height="10" fill="#ff0"/>
<rect x="722" y="61" width="43" height="10" fill="brown"><title>.</title></rect>
<text x="20" y="90" class="sm">WormBase</text>
<rect x="394" y="80" width="327" height="12" fill="#00f"/>
<rect x="395" y="81" width="326" height="10" fill="#ff0"/>
<text x="20" y="110" class="sm">Fitness: 0.08339680874734992</text>
<rect x="184" y="105" width="49" height="5" fill="#00f"><title>330396.0</title></rect>
<rect x="319" y="110" width="62" height="5" fill="#00f"><title>284542.0</title></rect>
<rect x="307" y="115" width="315" height="5" fill="#00f"><title>8.0</title></rect>
<rect x="530" y="120" width="103" height="5" fill="#00f"><title>7.0</title></rect>
<rect x="184" y="125" width="252" height="5" fill="#00f"><title>5.0</title></rect>
<rect x="423" y="130" width="48" height="5" fill="#00f"><title>5.0</title></rect>
<rect x="184" y="135" width="61" height="5" fill="#00f"><title>4.0</title></rect>
<rect x="319" y="140" width="117" height="5" fill="#00f"><title>4.0</title></rect>
<rect x="184" y="145" width="465" height="5" fill="#00f"><title>3.0</title></rect>
<rect x="540" y="150" width="35" height="5" fill="#00f"><title>3.0</title></rect>
<text x="20" y="180" class="sm">0.9078</text>
<rect x="100" y="170" width="84" height="12" fill="#00f"/>
<rect x="233" y="170" width="86" height="12" fill="#00f"/>
<rect x="381" y="170" width="387" height="12" fill="#00f"/>
<line x1="184" y1="176" x2="232" y2="176" stroke="#00f"/>
<line x1="319" y1="176" x2="380" y2="176" stroke="#00f"/>
<rect x="101" y="171" width="83" height="10" fill="#ff0"/>
<rect x="234" y="171" width="85" height="10" fill="#ff0"/>
<rect x="382" y="171" width="339" height="10" fill="#ff0"/>
<text x="20" y="200" class="sm">0.05454</text>
<rect x="100" y="190" width="84" height="12" fill="#00f"/>
<rect x="233" y="190" width="71" height="12" fill="#00f"/>
<rect x="381" y="190" width="387" height="12" fill="#00f"/>
<line x1="184" y1="196" x2="232" y2="196" stroke="#00f"/>
<line x1="304" y1="196" x2="380" y2="196" stroke="#00f"/>
<rect x="101" y="191" width="83" height="10" fill="#ff0"/>
<rect x="234" y="191" width="70" height="10" fill="#ff0"/>
<rect x="382" y="191" width="339" height="10" fill="#ff0"/>
<text x="20" y="220" class="sm">0.009546</text>
<rect x="100" y="210" width="84" height="12" fill="#00f"/>
<rect x="233" y="210" width="535" height="12" fill="#00f"/>
<line x1="184" y1="216" x2="232" y2="216" stroke="#00f"/>
<rect x="395" y="211" width="326" height="10" fill="#ff0"/>
<text x="20" y="240" class="sm">0.009007</text>
<rect x="100" y="230" width="84" height="12" fill="#00f"/>
<rect x="233" y="230" width="35" height="12" fill="#00f"/>
<rect x="381" y="230" width="387" height="12" fill="#00f"/>
<line x1="184" y1="236" x2="232" y2="236" stroke="#00f"/>
<line x1="268" y1="236" x2="380" y2="236" stroke="#00f"/>
<rect x="101" y="231" width="83" height="10" fill="#ff0"/>
<rect x="234" y="231" width="34" height="10" fill="#ff0"/>
<rect x="382" y="231" width="339" height="10" fill="#ff0"/>
<text x="20" y="260" class="sm">0.008848</text>
<rect x="100" y="250" width="84" height="12" fill="#00f"/>
<rect x="233" y="250" width="86" height="12" fill="#00f"/>
<rect x="381" y="250" width="159" height="12" fill="#00f"/>
<rect x="590" y="250" width="178" height="12" fill="#00f"/>
<line x1="184" y1="256" x2="232" y2="256" stroke="#00f"/>
<line x1="319" y1="256" x2="380" y2="256" stroke="#00f"/>
<line x1="540" y1="256" x2="589" y2="256" stroke="#00f"/>
<rect x="101" y="251" width="83" height="10" fill="#ff0"/>
<rect x="234" y="251" width="85" height="10" fill="#ff0"/>
<rect x="382" y="251" width="158" height="10" fill="#ff0"/>
<rect x="591" y="251" width="114" height="10" fill="#ff0"/>
<text x="20" y="280" class="sm">0.00473</text>
<rect x="100" y="270" width="84" height="12" fill="#00f"/>
<rect x="233" y="270" width="35" height="12" fill="#00f"/>
<rect x="317" y="270" width="451" height="12" fill="#00f"/>
<line x1="184" y1="276" x2="232" y2="276" stroke="#00f"/>
<line x1="268" y1="276" x2="316" y2="276" stroke="#00f"/>
<rect x="395" y="271" width="326" height="10" fill="#ff0"/>
<text x="20" y="300" class="sm">0.001243</text>
<rect x="100" y="290" width="84" height="12" fill="#00f"/>
<rect x="233" y="290" width="29" height="12" fill="#00f"/>
<rect x="381" y="290" width="387" height="12" fill="#00f"/>
<line x1="184" y1="296" x2="232" y2="296" stroke="#00f"/>
<line x1="262" y1="296" x2="380" y2="296" stroke="#00f"/>
<rect x="101" y="291" width="83" height="10" fill="#ff0"/>
<rect x="234" y="291" width="28" height="10" fill="#ff0"/>
<rect x="382" y="291" width="339" height="10" fill="#ff0"/>
<text x="20" y="320" class="sm">0.001175</text>
<rect x="100" y="310" width="84" height="12" fill="#00f"/>
<rect x="233" y="310" width="37" height="12" fill="#00f"/>
<rect x="381" y="310" width="387" height="12" fill="#00f"/>
<line x1="184" y1="316" x2="232" y2="316" stroke="#00f"/>
<line x1="270" y1="316" x2="380" y2="316" stroke="#00f"/>
<rect x="160" y="311" width="24" height="10" fill="#ff0"/>
<rect x="234" y="311" width="36" height="10" fill="#ff0"/>
<rect x="382" y="311" width="339" height="10" fill="#ff0"/>
<text x="20" y="340" class="sm">0.001059</text>
<rect x="100" y="330" width="84" height="12" fill="#00f"/>
<rect x="233" y="330" width="86" height="12" fill="#00f"/>
<rect x="381" y="330" width="159" height="12" fill="#00f"/>
<rect x="575" y="330" width="193" height="12" fill="#00f"/>
<line x1="184" y1="336" x2="232" y2="336" stroke="#00f"/>
<line x1="319" y1="336" x2="380" y2="336" stroke="#00f"/>
<line x1="540" y1="336" x2="574" y2="336" stroke="#00f"/>
<rect x="101" y="331" width="83" height="10" fill="#ff0"/>
<rect x="234" y="331" width="85" height="10" fill="#ff0"/>
<rect x="382" y="331" width="158" height="10" fill="#ff0"/>
<rect x="576" y="331" width="3" height="10" fill="#ff0"/>
<text x="20" y="360" class="sm">0.0006437</text>
<rect x="100" y="350" width="84" height="12" fill="#00f"/>
<rect x="233" y="350" width="37" height="12" fill="#00f"/>
<rect x="317" y="350" width="451" height="12" fill="#00f"/>
<line x1="184" y1="356" x2="232" y2="356" stroke="#00f"/>
<line x1="270" y1="356" x2="316" y2="356" stroke="#00f"/>
<rect x="395" y="351" width="326" height="10" fill="#ff0"/>
<text x="20" y="380" class="sm">0.0005315</text>
<rect x="100" y="370" width="84" height="12" fill="#00f"/>
<rect x="233" y="370" width="71" height="12" fill="#00f"/>
<rect x="381" y="370" width="159" height="12" fill="#00f"/>
<rect x="590" y="370" width="178" height="12" fill="#00f"/>
<line x1="184" y1="376" x2="232" y2="376" stroke="#00f"/>
<line x1="304" y1="376" x2="380" y2="376" stroke="#00f"/>
<line x1="540" y1="376" x2="589" y2="376" stroke="#00f"/>
<rect x="101" y="371" width="83" height="10" fill="#ff0"/>
<rect x="234" y="371" width="70" height="10" fill="#ff0"/>
<rect x="382" y="371" width="158" height="10" fill="#ff0"/>
<rect x="591" y="371" width="114" height="10" fill="#ff0"/>
<text x="20" y="400" class="sm">0.0004547</text>
<rect x="100" y="390" width="84" height="12" fill="#00f"/>
<rect x="233" y="390" width="29" height="12" fill="#00f"/>
<rect x="317" y="390" width="451" height="12" fill="#00f"/>
<line x1="184" y1="396" x2="232" y2="396" stroke="#00f"/>
<line x1="262" y1="396" x2="316" y2="396" stroke="#00f"/>
<rect x="395" y="391" width="326" height="10" fill="#ff0"/>
<text x="20" y="420" class="sm">8.778e-05</text>
<rect x="100" y="410" width="84" height="12" fill="#00f"/>
<rect x="233" y="410" width="35" height="12" fill="#00f"/>
<rect x="381" y="410" width="159" height="12" fill="#00f"/>
<rect x="590" y="410" width="178" height="12" fill="#00f"/>
<line x1="184" y1="416" x2="232" y2="416" stroke="#00f"/>
<line x1="268" y1="416" x2="380" y2="416" stroke="#00f"/>
<line x1="540" y1="416" x2="589" y2="416" stroke="#00f"/>
<rect x="101" y="411" width="83" height="10" fill="#ff0"/>
<rect x="234" y="411" width="34" height="10" fill="#ff0"/>
<rect x="382" y="411" width="158" height="10" fill="#ff0"/>
<rect x="591" y="411" width="114" height="10" fill="#ff0"/>
<text x="20" y="440" class="sm">7.775e-05</text>
<rect x="100" y="430" width="84" height="12" fill="#00f"/>
<rect x="233" y="430" width="307" height="12" fill="#00f"/>
<rect x="590" y="430" width="178" height="12" fill="#00f"/>
<line x1="184" y1="436" x2="232" y2="436" stroke="#00f"/>
<line x1="540" y1="436" x2="589" y2="436" stroke="#00f"/>
<rect x="395" y="431" width="145" height="10" fill="#ff0"/>
<rect x="591" y="431" width="114" height="10" fill="#ff0"/>
<text x="20" y="460" class="sm">6.361e-05</text>
<rect x="100" y="450" width="84" height="12" fill="#00f"/>
<rect x="233" y="450" width="71" height="12" fill="#00f"/>
<rect x="381" y="450" width="159" height="12" fill="#00f"/>
<rect x="575" y="450" width="193" height="12" fill="#00f"/>
<line x1="184" y1="456" x2="232" y2="456" stroke="#00f"/>
<line x1="304" y1="456" x2="380" y2="456" stroke="#00f"/>
<line x1="540" y1="456" x2="574" y2="456" stroke="#00f"/>
<rect x="101" y="451" width="83" height="10" fill="#ff0"/>
<rect x="234" y="451" width="70" height="10" fill="#ff0"/>
<rect x="382" y="451" width="158" height="10" fill="#ff0"/>
<rect x="576" y="451" width="3" height="10" fill="#ff0"/>
<text x="20" y="480" class="sm">5.906e-05</text>
<rect x="100" y="470" width="84" height="12" fill="#00f"/>
<rect x="233" y="470" width="86" height="12" fill="#00f"/>
<rect x="381" y="470" width="121" height="12" fill="#00f"/>
<rect x="575" y="470" width="193" height="12" fill="#00f"/>
<line x1="184" y1="476" x2="232" y2="476" stroke="#00f"/>
<line x1="319" y1="476" x2="380" y2="476" stroke="#00f"/>
<line x1="502" y1="476" x2="574" y2="476" stroke="#00f"/>
<rect x="160" y="471" width="24" height="10" fill="#ff0"/>
<rect x="234" y="471" width="85" height="10" fill="#ff0"/>
<rect x="382" y="471" width="120" height="10" fill="#ff0"/>
<rect x="576" y="471" width="145" height="10" fill="#ff0"/>
<text x="20" y="500" class="sm">4.698e-05</text>
<rect x="100" y="490" width="84" height="12" fill="#00f"/>
<rect x="233" y="490" width="35" height="12" fill="#00f"/>
<rect x="317" y="490" width="223" height="12" fill="#00f"/>
<rect x="590" y="490" width="178" height="12" fill="#00f"/>
<line x1="184" y1="496" x2="232" y2="496" stroke="#00f"/>
<line x1="268" y1="496" x2="316" y2="496" stroke="#00f"/>
<line x1="540" y1="496" x2="589" y2="496" stroke="#00f"/>
<rect x="395" y="491" width="145" height="10" fill="#ff0"/>
<rect x="591" y="491" width="114" height="10" fill="#ff0"/>
<text x="20" y="520" class="sm">1.528e-05</text>
<rect x="100" y="510" width="84" height="12" fill="#00f"/>
<rect x="233" y="510" width="86" height="12" fill="#00f"/>
<rect x="381" y="510" width="121" height="12" fill="#00f"/>
<rect x="590" y="510" width="178" height="12" fill="#00f"/>
<line x1="184" y1="516" x2="232" y2="516" stroke="#00f"/>
<line x1="319" y1="516" x2="380" y2="516" stroke="#00f"/>
<line x1="502" y1="516" x2="589" y2="516" stroke="#00f"/>
<rect x="160" y="511" width="24" height="10" fill="#ff0"/>
<rect x="234" y="511" width="85" height="10" fill="#ff0"/>
<rect x="382" y="511" width="120" height="10" fill="#ff0"/>
<rect x="591" y="511" width="130" height="10" fill="#ff0"/>
<text x="20" y="540" class="sm">1.211e-05</text>
<rect x="100" y="530" width="84" height="12" fill="#00f"/>
<rect x="233" y="530" width="29" height="12" fill="#00f"/>
<rect x="381" y="530" width="159" height="12" fill="#00f"/>
<rect x="590" y="530" width="178" height="12" fill="#00f"/>
<line x1="184" y1="536" x2="232" y2="536" stroke="#00f"/>
<line x1="262" y1="536" x2="380" y2="536" stroke="#00f"/>
<line x1="540" y1="536" x2="589" y2="536" stroke="#00f"/>
<rect x="101" y="531" width="83" height="10" fill="#ff0"/>
<rect x="234" y="531" width="28" height="10" fill="#ff0"/>
<rect x="382" y="531" width="158" height="10" fill="#ff0"/>
<rect x="591" y="531" width="114" height="10" fill="#ff0"/>
<text x="20" y="560" class="sm">1.145e-05</text>
<rect x="100" y="550" width="84" height="12" fill="#00f"/>
<rect x="233" y="550" width="37" height="12" fill="#00f"/>
<rect x="381" y="550" width="159" height="12" fill="#00f"/>
<rect x="590" y="550" width="178" height="12" fill="#00f"/>
<line x1="184" y1="556" x2="232" y2="556" stroke="#00f"/>
<line x1="270" y1="556" x2="380" y2="556" stroke="#00f"/>
<line x1="540" y1="556" x2="589" y2="556" stroke="#00f"/>
<rect x="160" y="551" width="24" height="10" fill="#ff0"/>
<rect x="234" y="551" width="36" height="10" fill="#ff0"/>
<rect x="382" y="551" width="158" height="10" fill="#ff0"/>
<rect x="591" y="551" width="114" height="10" fill="#ff0"/>
</svg>
