<svg viewBox="0 0 830 565" xmlns="http://www.w3.org/2000/svg">

<style>
  .sm { font: 12px sans-serif; }
  .lg { font: 15px sans-serif; }
</style>
<rect fill="#ddd" x="0" y="0" width="100%" height="100%"/>
<text x="20" y="20" class="lg">ch.10638 IV:8200504-8201333 Gene:WBGene00044608</text>
<text x="20" y="50" class="sm">WormBase</text>
<rect x="102" y="40" width="74" height="12" fill="#00f"/>
<rect x="268" y="40" width="102" height="12" fill="#00f"/>
<rect x="421" y="40" width="311" height="12" fill="#00f"/>
<line x1="176" y1="46" x2="267" y2="46" stroke="#00f"/>
<line x1="370" y1="46" x2="420" y2="46" stroke="#00f"/>
<rect x="108" y="41" width="68" height="10" fill="#ff0"/>
<rect x="269" y="41" width="101" height="10" fill="#ff0"/>
<rect x="422" y="41" width="224" height="10" fill="#ff0"/>
<rect x="103" y="41" width="4" height="10" fill="brown"><title>.</title></rect>
<rect x="647" y="41" width="85" height="10" fill="brown"><title>.</title></rect>
<text x="20" y="70" class="sm">Fitness: 0.14909874811127702</text>
<rect x="370" y="65" width="51" height="5" fill="#00f"><title>458925.0</title></rect>
<rect x="176" y="70" width="92" height="5" fill="#00f"><title>431369.0</title></rect>
<rect x="176" y="75" width="78" height="5" fill="#00f"><title>775.0</title></rect>
<rect x="176" y="80" width="81" height="5" fill="#00f"><title>592.0</title></rect>
<rect x="521" y="85" width="43" height="5" fill="#00f"><title>418.0</title></rect>
<rect x="370" y="90" width="34" height="5" fill="#00f"><title>188.0</title></rect>
<rect x="167" y="95" width="101" height="5" fill="#00f"><title>107.0</title></rect>
<rect x="176" y="100" width="98" height="5" fill="#00f"><title>67.0</title></rect>
<rect x="370" y="105" width="194" height="5" fill="#00f"><title>51.0</title></rect>
<rect x="370" y="110" width="141" height="5" fill="#00f"><title>33.0</title></rect>
<rect x="370" y="115" width="103" height="5" fill="#00f"><title>29.0</title></rect>
<rect x="491" y="120" width="73" height="5" fill="#00f"><title>8.0</title></rect>
<rect x="45" y="125" width="57" height="5" fill="#00f"><title>8.0</title></rect>
<text x="20" y="155" class="sm">0.7214</text>
<rect x="100" y="145" width="76" height="12" fill="#00f"/>
<rect x="268" y="145" width="102" height="12" fill="#00f"/>
<rect x="421" y="145" width="312" height="12" fill="#00f"/>
<line x1="176" y1="151" x2="267" y2="151" stroke="#00f"/>
<line x1="370" y1="151" x2="420" y2="151" stroke="#00f"/>
<rect x="108" y="146" width="68" height="10" fill="#ff0"/>
<rect x="269" y="146" width="101" height="10" fill="#ff0"/>
<rect x="422" y="146" width="224" height="10" fill="#ff0"/>
<text x="20" y="175" class="sm">0.1367</text>
<rect x="100" y="165" width="270" height="12" fill="#00f"/>
<rect x="421" y="165" width="312" height="12" fill="#00f"/>
<line x1="370" y1="171" x2="420" y2="171" stroke="#00f"/>
<rect x="479" y="166" width="167" height="10" fill="#ff0"/>
<text x="20" y="195" class="sm">0.06806</text>
<rect x="100" y="185" width="67" height="12" fill="#00f"/>
<rect x="268" y="185" width="102" height="12" fill="#00f"/>
<rect x="421" y="185" width="312" height="12" fill="#00f"/>
<line x1="167" y1="191" x2="267" y2="191" stroke="#00f"/>
<line x1="370" y1="191" x2="420" y2="191" stroke="#00f"/>
<rect x="108" y="186" width="59" height="10" fill="#ff0"/>
<rect x="269" y="186" width="101" height="10" fill="#ff0"/>
<rect x="422" y="186" width="224" height="10" fill="#ff0"/>
<text x="20" y="215" class="sm">0.02788</text>
<rect x="100" y="205" width="76" height="12" fill="#00f"/>
<rect x="268" y="205" width="102" height="12" fill="#00f"/>
<rect x="421" y="205" width="100" height="12" fill="#00f"/>
<rect x="564" y="205" width="169" height="12" fill="#00f"/>
<line x1="176" y1="211" x2="267" y2="211" stroke="#00f"/>
<line x1="370" y1="211" x2="420" y2="211" stroke="#00f"/>
<line x1="521" y1="211" x2="563" y2="211" stroke="#00f"/>
<rect x="108" y="206" width="68" height="10" fill="#ff0"/>
<rect x="269" y="206" width="101" height="10" fill="#ff0"/>
<rect x="422" y="206" width="99" height="10" fill="#ff0"/>
<rect x="565" y="206" width="124" height="10" fill="#ff0"/>
<text x="20" y="235" class="sm">0.01583</text>
<rect x="100" y="225" width="76" height="12" fill="#00f"/>
<rect x="268" y="225" width="465" height="12" fill="#00f"/>
<line x1="176" y1="231" x2="267" y2="231" stroke="#00f"/>
<rect x="108" y="226" width="68" height="10" fill="#ff0"/>
<rect x="269" y="226" width="122" height="10" fill="#ff0"/>
<text x="20" y="255" class="sm">0.005282</text>
<rect x="100" y="245" width="270" height="12" fill="#00f"/>
<rect x="421" y="245" width="100" height="12" fill="#00f"/>
<rect x="564" y="245" width="169" height="12" fill="#00f"/>
<line x1="370" y1="251" x2="420" y2="251" stroke="#00f"/>
<line x1="521" y1="251" x2="563" y2="251" stroke="#00f"/>
<rect x="479" y="246" width="42" height="10" fill="#ff0"/>
<rect x="565" y="246" width="124" height="10" fill="#ff0"/>
<text x="20" y="275" class="sm">0.004103</text>
<rect x="100" y="265" width="76" height="12" fill="#00f"/>
<rect x="268" y="265" width="136" height="12" fill="#00f"/>
<rect x="473" y="265" width="260" height="12" fill="#00f"/>
<line x1="176" y1="271" x2="267" y2="271" stroke="#00f"/>
<line x1="404" y1="271" x2="472" y2="271" stroke="#00f"/>
<rect x="108" y="266" width="68" height="10" fill="#ff0"/>
<rect x="269" y="266" width="122" height="10" fill="#ff0"/>
<text x="20" y="295" class="sm">0.003309</text>
<rect x="100" y="285" width="76" height="12" fill="#00f"/>
<rect x="268" y="285" width="102" height="12" fill="#00f"/>
<rect x="473" y="285" width="260" height="12" fill="#00f"/>
<line x1="176" y1="291" x2="267" y2="291" stroke="#00f"/>
<line x1="370" y1="291" x2="472" y2="291" stroke="#00f"/>
<rect x="108" y="286" width="68" height="10" fill="#ff0"/>
<rect x="269" y="286" width="101" height="10" fill="#ff0"/>
<rect x="474" y="286" width="14" height="10" fill="#ff0"/>
<text x="20" y="315" class="sm">0.00263</text>
<rect x="100" y="305" width="67" height="12" fill="#00f"/>
<rect x="268" y="305" width="102" height="12" fill="#00f"/>
<rect x="421" y="305" width="100" height="12" fill="#00f"/>
<rect x="564" y="305" width="169" height="12" fill="#00f"/>
<line x1="167" y1="311" x2="267" y2="311" stroke="#00f"/>
<line x1="370" y1="311" x2="420" y2="311" stroke="#00f"/>
<line x1="521" y1="311" x2="563" y2="311" stroke="#00f"/>
<rect x="108" y="306" width="59" height="10" fill="#ff0"/>
<rect x="269" y="306" width="101" height="10" fill="#ff0"/>
<rect x="422" y="306" width="99" height="10" fill="#ff0"/>
<rect x="565" y="306" width="124" height="10" fill="#ff0"/>
<text x="20" y="335" class="sm">0.002258</text>
<rect x="100" y="325" width="219" height="12" fill="#00f"/>
<rect x="421" y="325" width="312" height="12" fill="#00f"/>
<line x1="319" y1="331" x2="420" y2="331" stroke="#00f"/>
<rect x="479" y="326" width="167" height="10" fill="#ff0"/>
<text x="20" y="355" class="sm">0.002056</text>
<rect x="100" y="345" width="219" height="12" fill="#00f"/>
<rect x="473" y="345" width="260" height="12" fill="#00f"/>
<line x1="319" y1="351" x2="472" y2="351" stroke="#00f"/>
<rect x="229" y="346" width="90" height="10" fill="#ff0"/>
<rect x="474" y="346" width="172" height="10" fill="#ff0"/>
<text x="20" y="375" class="sm">0.001753</text>
<rect x="100" y="365" width="76" height="12" fill="#00f"/>
<rect x="274" y="365" width="96" height="12" fill="#00f"/>
<rect x="421" y="365" width="312" height="12" fill="#00f"/>
<line x1="176" y1="371" x2="273" y2="371" stroke="#00f"/>
<line x1="370" y1="371" x2="420" y2="371" stroke="#00f"/>
<rect x="108" y="366" width="68" height="10" fill="#ff0"/>
<rect x="275" y="366" width="95" height="10" fill="#ff0"/>
<rect x="422" y="366" width="224" height="10" fill="#ff0"/>
<text x="20" y="395" class="sm">0.001494</text>
<rect x="100" y="385" width="67" height="12" fill="#00f"/>
<rect x="268" y="385" width="465" height="12" fill="#00f"/>
<line x1="167" y1="391" x2="267" y2="391" stroke="#00f"/>
<rect x="108" y="386" width="59" height="10" fill="#ff0"/>
<rect x="269" y="386" width="122" height="10" fill="#ff0"/>
<text x="20" y="415" class="sm">0.001236</text>
<rect x="100" y="405" width="76" height="12" fill="#00f"/>
<rect x="268" y="405" width="51" height="12" fill="#00f"/>
<rect x="421" y="405" width="312" height="12" fill="#00f"/>
<line x1="176" y1="411" x2="267" y2="411" stroke="#00f"/>
<line x1="319" y1="411" x2="420" y2="411" stroke="#00f"/>
<rect x="108" y="406" width="68" height="10" fill="#ff0"/>
<rect x="269" y="406" width="50" height="10" fill="#ff0"/>
<rect x="422" y="406" width="224" height="10" fill="#ff0"/>
<text x="20" y="435" class="sm">0.001144</text>
<rect x="100" y="425" width="67" height="12" fill="#00f"/>
<rect x="205" y="425" width="165" height="12" fill="#00f"/>
<rect x="421" y="425" width="312" height="12" fill="#00f"/>
<line x1="167" y1="431" x2="204" y2="431" stroke="#00f"/>
<line x1="370" y1="431" x2="420" y2="431" stroke="#00f"/>
<rect x="479" y="426" width="167" height="10" fill="#ff0"/>
<text x="20" y="455" class="sm">0.001125</text>
<rect x="100" y="445" width="76" height="12" fill="#00f"/>
<rect x="268" y="445" width="51" height="12" fill="#00f"/>
<rect x="473" y="445" width="260" height="12" fill="#00f"/>
<line x1="176" y1="451" x2="267" y2="451" stroke="#00f"/>
<line x1="319" y1="451" x2="472" y2="451" stroke="#00f"/>
<rect x="307" y="446" width="12" height="10" fill="#ff0"/>
<rect x="474" y="446" width="172" height="10" fill="#ff0"/>
<text x="20" y="475" class="sm">0.001062</text>
<rect x="100" y="465" width="211" height="12" fill="#00f"/>
<rect x="421" y="465" width="312" height="12" fill="#00f"/>
<line x1="311" y1="471" x2="420" y2="471" stroke="#00f"/>
<rect x="279" y="466" width="32" height="10" fill="#ff0"/>
<rect x="422" y="466" width="224" height="10" fill="#ff0"/>
<text x="20" y="495" class="sm">0.000957</text>
<rect x="100" y="485" width="217" height="12" fill="#00f"/>
<rect x="421" y="485" width="312" height="12" fill="#00f"/>
<line x1="317" y1="491" x2="420" y2="491" stroke="#00f"/>
<rect x="279" y="486" width="38" height="10" fill="#ff0"/>
<rect x="422" y="486" width="224" height="10" fill="#ff0"/>
<text x="20" y="515" class="sm">0.0008603</text>
<rect x="100" y="505" width="76" height="12" fill="#00f"/>
<rect x="268" y="505" width="102" height="12" fill="#00f"/>
<rect x="421" y="505" width="70" height="12" fill="#00f"/>
<rect x="548" y="505" width="185" height="12" fill="#00f"/>
<line x1="176" y1="511" x2="267" y2="511" stroke="#00f"/>
<line x1="370" y1="511" x2="420" y2="511" stroke="#00f"/>
<line x1="491" y1="511" x2="547" y2="511" stroke="#00f"/>
<rect x="108" y="506" width="68" height="10" fill="#ff0"/>
<rect x="269" y="506" width="101" height="10" fill="#ff0"/>
<rect x="422" y="506" width="69" height="10" fill="#ff0"/>
<rect x="549" y="506" width="97" height="10" fill="#ff0"/>
<text x="20" y="535" class="sm">0.0008447</text>
<rect x="100" y="525" width="76" height="12" fill="#00f"/>
<rect x="268" y="525" width="102" height="12" fill="#00f"/>
<rect x="421" y="525" width="111" height="12" fill="#00f"/>
<rect x="599" y="525" width="134" height="12" fill="#00f"/>
<line x1="176" y1="531" x2="267" y2="531" stroke="#00f"/>
<line x1="370" y1="531" x2="420" y2="531" stroke="#00f"/>
<line x1="532" y1="531" x2="598" y2="531" stroke="#00f"/>
<rect x="108" y="526" width="68" height="10" fill="#ff0"/>
<rect x="269" y="526" width="101" height="10" fill="#ff0"/>
<rect x="422" y="526" width="110" height="10" fill="#ff0"/>
<rect x="600" y="526" width="89" height="10" fill="#ff0"/>
</svg>
