<svg viewBox="0 0 838 530" xmlns="http://www.w3.org/2000/svg">

<style>
  .sm { font: 12px sans-serif; }
  .lg { font: 15px sans-serif; }
</style>
<rect fill="#ddd" x="0" y="0" width="100%" height="100%"/>
<text x="20" y="20" class="lg">ch.19716 X:13582020-13582857 Gene:WBGene00010033</text>
<text x="20" y="50" class="sm">WormBase</text>
<rect x="100" y="40" width="155" height="12" fill="#00f"/>
<rect x="305" y="40" width="147" height="12" fill="#00f"/>
<rect x="501" y="40" width="237" height="12" fill="#00f"/>
<line x1="255" y1="46" x2="304" y2="46" stroke="#00f"/>
<line x1="452" y1="46" x2="500" y2="46" stroke="#00f"/>
<rect x="183" y="41" width="72" height="10" fill="#ff0"/>
<rect x="306" y="41" width="146" height="10" fill="#ff0"/>
<rect x="502" y="41" width="79" height="10" fill="#ff0"/>
<rect x="101" y="41" width="81" height="10" fill="brown"><title>.</title></rect>
<rect x="582" y="41" width="156" height="10" fill="brown"><title>.</title></rect>
<text x="20" y="70" class="sm">Fitness: 0.044406069396421284</text>
<rect x="255" y="65" width="50" height="5" fill="#00f"><title>107498.0</title></rect>
<rect x="452" y="70" width="49" height="5" fill="#00f"><title>101259.0</title></rect>
<rect x="259" y="75" width="46" height="5" fill="#00f"><title>63.0</title></rect>
<rect x="255" y="80" width="52" height="5" fill="#00f"><title>18.0</title></rect>
<rect x="259" y="85" width="48" height="5" fill="#00f"><title>4.0</title></rect>
<rect x="456" y="90" width="45" height="5" fill="#00f"><title>4.0</title></rect>
<text x="20" y="120" class="sm">0.9833</text>
<rect x="100" y="110" width="155" height="12" fill="#00f"/>
<rect x="305" y="110" width="147" height="12" fill="#00f"/>
<rect x="501" y="110" width="240" height="12" fill="#00f"/>
<line x1="255" y1="116" x2="304" y2="116" stroke="#00f"/>
<line x1="452" y1="116" x2="500" y2="116" stroke="#00f"/>
<rect x="183" y="111" width="72" height="10" fill="#ff0"/>
<rect x="306" y="111" width="146" height="10" fill="#ff0"/>
<rect x="502" y="111" width="79" height="10" fill="#ff0"/>
<text x="20" y="140" class="sm">0.006125</text>
<rect x="100" y="130" width="146" height="12" fill="#00f"/>
<rect x="305" y="130" width="147" height="12" fill="#00f"/>
<rect x="501" y="130" width="240" height="12" fill="#00f"/>
<line x1="246" y1="136" x2="304" y2="136" stroke="#00f"/>
<line x1="452" y1="136" x2="500" y2="136" stroke="#00f"/>
<rect x="348" y="131" width="104" height="10" fill="#ff0"/>
<rect x="502" y="131" width="149" height="10" fill="#ff0"/>
<text x="20" y="160" class="sm">0.004925</text>
<rect x="100" y="150" width="155" height="12" fill="#00f"/>
<rect x="307" y="150" width="145" height="12" fill="#00f"/>
<rect x="501" y="150" width="240" height="12" fill="#00f"/>
<line x1="255" y1="156" x2="306" y2="156" stroke="#00f"/>
<line x1="452" y1="156" x2="500" y2="156" stroke="#00f"/>
<rect x="348" y="151" width="104" height="10" fill="#ff0"/>
<rect x="502" y="151" width="149" height="10" fill="#ff0"/>
<text x="20" y="180" class="sm">0.002106</text>
<rect x="100" y="170" width="155" height="12" fill="#00f"/>
<rect x="305" y="170" width="60" height="12" fill="#00f"/>
<rect x="420" y="170" width="32" height="12" fill="#00f"/>
<rect x="501" y="170" width="240" height="12" fill="#00f"/>
<line x1="255" y1="176" x2="304" y2="176" stroke="#00f"/>
<line x1="365" y1="176" x2="419" y2="176" stroke="#00f"/>
<line x1="452" y1="176" x2="500" y2="176" stroke="#00f"/>
<rect x="183" y="171" width="72" height="10" fill="#ff0"/>
<rect x="306" y="171" width="59" height="10" fill="#ff0"/>
<rect x="421" y="171" width="31" height="10" fill="#ff0"/>
<rect x="502" y="171" width="149" height="10" fill="#ff0"/>
<text x="20" y="200" class="sm">0.001031</text>
<rect x="100" y="190" width="142" height="12" fill="#00f"/>
<rect x="305" y="190" width="147" height="12" fill="#00f"/>
<rect x="501" y="190" width="240" height="12" fill="#00f"/>
<line x1="242" y1="196" x2="304" y2="196" stroke="#00f"/>
<line x1="452" y1="196" x2="500" y2="196" stroke="#00f"/>
<rect x="348" y="191" width="104" height="10" fill="#ff0"/>
<rect x="502" y="191" width="149" height="10" fill="#ff0"/>
<text x="20" y="220" class="sm">0.0008639</text>
<rect x="100" y="210" width="352" height="12" fill="#00f"/>
<rect x="501" y="210" width="240" height="12" fill="#00f"/>
<line x1="452" y1="216" x2="500" y2="216" stroke="#00f"/>
<rect x="348" y="211" width="104" height="10" fill="#ff0"/>
<rect x="502" y="211" width="149" height="10" fill="#ff0"/>
<text x="20" y="240" class="sm">0.0007623</text>
<rect x="100" y="230" width="155" height="12" fill="#00f"/>
<rect x="305" y="230" width="147" height="12" fill="#00f"/>
<rect x="501" y="230" width="110" height="12" fill="#00f"/>
<rect x="663" y="230" width="78" height="12" fill="#00f"/>
<line x1="255" y1="236" x2="304" y2="236" stroke="#00f"/>
<line x1="452" y1="236" x2="500" y2="236" stroke="#00f"/>
<line x1="611" y1="236" x2="662" y2="236" stroke="#00f"/>
<rect x="183" y="231" width="72" height="10" fill="#ff0"/>
<rect x="306" y="231" width="146" height="10" fill="#ff0"/>
<rect x="502" y="231" width="79" height="10" fill="#ff0"/>
<text x="20" y="260" class="sm">0.0002075</text>
<rect x="100" y="250" width="155" height="12" fill="#00f"/>
<rect x="305" y="250" width="147" height="12" fill="#00f"/>
<rect x="521" y="250" width="220" height="12" fill="#00f"/>
<line x1="255" y1="256" x2="304" y2="256" stroke="#00f"/>
<line x1="452" y1="256" x2="520" y2="256" stroke="#00f"/>
<rect x="183" y="251" width="72" height="10" fill="#ff0"/>
<rect x="306" y="251" width="146" height="10" fill="#ff0"/>
<rect x="522" y="251" width="16" height="10" fill="#ff0"/>
<text x="20" y="280" class="sm">0.0002044</text>
<rect x="100" y="270" width="159" height="12" fill="#00f"/>
<rect x="305" y="270" width="147" height="12" fill="#00f"/>
<rect x="501" y="270" width="240" height="12" fill="#00f"/>
<line x1="259" y1="276" x2="304" y2="276" stroke="#00f"/>
<line x1="452" y1="276" x2="500" y2="276" stroke="#00f"/>
<rect x="348" y="271" width="104" height="10" fill="#ff0"/>
<rect x="502" y="271" width="149" height="10" fill="#ff0"/>
<text x="20" y="300" class="sm">0.0001229</text>
<rect x="100" y="290" width="155" height="12" fill="#00f"/>
<rect x="305" y="290" width="147" height="12" fill="#00f"/>
<rect x="501" y="290" width="124" height="12" fill="#00f"/>
<rect x="663" y="290" width="78" height="12" fill="#00f"/>
<line x1="255" y1="296" x2="304" y2="296" stroke="#00f"/>
<line x1="452" y1="296" x2="500" y2="296" stroke="#00f"/>
<line x1="625" y1="296" x2="662" y2="296" stroke="#00f"/>
<rect x="183" y="291" width="72" height="10" fill="#ff0"/>
<rect x="306" y="291" width="146" height="10" fill="#ff0"/>
<rect x="502" y="291" width="79" height="10" fill="#ff0"/>
<text x="20" y="320" class="sm">9.446e-05</text>
<rect x="100" y="310" width="140" height="12" fill="#00f"/>
<rect x="305" y="310" width="147" height="12" fill="#00f"/>
<rect x="501" y="310" width="240" height="12" fill="#00f"/>
<line x1="240" y1="316" x2="304" y2="316" stroke="#00f"/>
<line x1="452" y1="316" x2="500" y2="316" stroke="#00f"/>
<rect x="183" y="311" width="57" height="10" fill="#ff0"/>
<rect x="306" y="311" width="146" height="10" fill="#ff0"/>
<rect x="502" y="311" width="79" height="10" fill="#ff0"/>
<text x="20" y="340" class="sm">6.855e-05</text>
<rect x="100" y="330" width="155" height="12" fill="#00f"/>
<rect x="305" y="330" width="77" height="12" fill="#00f"/>
<rect x="420" y="330" width="32" height="12" fill="#00f"/>
<rect x="501" y="330" width="240" height="12" fill="#00f"/>
<line x1="255" y1="336" x2="304" y2="336" stroke="#00f"/>
<line x1="382" y1="336" x2="419" y2="336" stroke="#00f"/>
<line x1="452" y1="336" x2="500" y2="336" stroke="#00f"/>
<rect x="183" y="331" width="72" height="10" fill="#ff0"/>
<rect x="306" y="331" width="76" height="10" fill="#ff0"/>
<rect x="421" y="331" width="31" height="10" fill="#ff0"/>
<rect x="502" y="331" width="3" height="10" fill="#ff0"/>
<text x="20" y="360" class="sm">3.699e-05</text>
<rect x="100" y="350" width="155" height="12" fill="#00f"/>
<rect x="305" y="350" width="147" height="12" fill="#00f"/>
<rect x="501" y="350" width="118" height="12" fill="#00f"/>
<rect x="663" y="350" width="78" height="12" fill="#00f"/>
<line x1="255" y1="356" x2="304" y2="356" stroke="#00f"/>
<line x1="452" y1="356" x2="500" y2="356" stroke="#00f"/>
<line x1="619" y1="356" x2="662" y2="356" stroke="#00f"/>
<rect x="183" y="351" width="72" height="10" fill="#ff0"/>
<rect x="306" y="351" width="146" height="10" fill="#ff0"/>
<rect x="502" y="351" width="79" height="10" fill="#ff0"/>
<text x="20" y="380" class="sm">2.697e-05</text>
<rect x="100" y="370" width="146" height="12" fill="#00f"/>
<rect x="307" y="370" width="145" height="12" fill="#00f"/>
<rect x="501" y="370" width="240" height="12" fill="#00f"/>
<line x1="246" y1="376" x2="306" y2="376" stroke="#00f"/>
<line x1="452" y1="376" x2="500" y2="376" stroke="#00f"/>
<rect x="348" y="371" width="104" height="10" fill="#ff0"/>
<rect x="502" y="371" width="149" height="10" fill="#ff0"/>
<text x="20" y="400" class="sm">2.258e-05</text>
<rect x="100" y="390" width="133" height="12" fill="#00f"/>
<rect x="305" y="390" width="147" height="12" fill="#00f"/>
<rect x="501" y="390" width="240" height="12" fill="#00f"/>
<line x1="233" y1="396" x2="304" y2="396" stroke="#00f"/>
<line x1="452" y1="396" x2="500" y2="396" stroke="#00f"/>
<rect x="348" y="391" width="104" height="10" fill="#ff0"/>
<rect x="502" y="391" width="149" height="10" fill="#ff0"/>
<text x="20" y="420" class="sm">1.353e-05</text>
<rect x="100" y="410" width="124" height="12" fill="#00f"/>
<rect x="305" y="410" width="147" height="12" fill="#00f"/>
<rect x="501" y="410" width="240" height="12" fill="#00f"/>
<line x1="224" y1="416" x2="304" y2="416" stroke="#00f"/>
<line x1="452" y1="416" x2="500" y2="416" stroke="#00f"/>
<rect x="348" y="411" width="104" height="10" fill="#ff0"/>
<rect x="502" y="411" width="149" height="10" fill="#ff0"/>
<text x="20" y="440" class="sm">1.312e-05</text>
<rect x="100" y="430" width="146" height="12" fill="#00f"/>
<rect x="305" y="430" width="60" height="12" fill="#00f"/>
<rect x="420" y="430" width="32" height="12" fill="#00f"/>
<rect x="501" y="430" width="240" height="12" fill="#00f"/>
<line x1="246" y1="436" x2="304" y2="436" stroke="#00f"/>
<line x1="365" y1="436" x2="419" y2="436" stroke="#00f"/>
<line x1="452" y1="436" x2="500" y2="436" stroke="#00f"/>
<rect x="335" y="431" width="30" height="10" fill="#ff0"/>
<rect x="421" y="431" width="31" height="10" fill="#ff0"/>
<rect x="502" y="431" width="149" height="10" fill="#ff0"/>
<text x="20" y="460" class="sm">1.3e-05</text>
<rect x="100" y="450" width="155" height="12" fill="#00f"/>
<rect x="305" y="450" width="147" height="12" fill="#00f"/>
<rect x="501" y="450" width="110" height="12" fill="#00f"/>
<rect x="651" y="450" width="90" height="12" fill="#00f"/>
<line x1="255" y1="456" x2="304" y2="456" stroke="#00f"/>
<line x1="452" y1="456" x2="500" y2="456" stroke="#00f"/>
<line x1="611" y1="456" x2="650" y2="456" stroke="#00f"/>
<rect x="183" y="451" width="72" height="10" fill="#ff0"/>
<rect x="306" y="451" width="146" height="10" fill="#ff0"/>
<rect x="502" y="451" width="79" height="10" fill="#ff0"/>
<text x="20" y="480" class="sm">1.002e-05</text>
<rect x="100" y="470" width="155" height="12" fill="#00f"/>
<rect x="307" y="470" width="58" height="12" fill="#00f"/>
<rect x="420" y="470" width="32" height="12" fill="#00f"/>
<rect x="501" y="470" width="240" height="12" fill="#00f"/>
<line x1="255" y1="476" x2="306" y2="476" stroke="#00f"/>
<line x1="365" y1="476" x2="419" y2="476" stroke="#00f"/>
<line x1="452" y1="476" x2="500" y2="476" stroke="#00f"/>
<rect x="335" y="471" width="30" height="10" fill="#ff0"/>
<rect x="421" y="471" width="31" height="10" fill="#ff0"/>
<rect x="502" y="471" width="149" height="10" fill="#ff0"/>
<text x="20" y="500" class="sm">6.358e-06</text>
<rect x="100" y="490" width="155" height="12" fill="#00f"/>
<rect x="305" y="490" width="147" height="12" fill="#00f"/>
<rect x="540" y="490" width="201" height="12" fill="#00f"/>
<line x1="255" y1="496" x2="304" y2="496" stroke="#00f"/>
<line x1="452" y1="496" x2="539" y2="496" stroke="#00f"/>
<rect x="183" y="491" width="72" height="10" fill="#ff0"/>
<rect x="306" y="491" width="146" height="10" fill="#ff0"/>
<rect x="541" y="491" width="40" height="10" fill="#ff0"/>
</svg>
