<svg viewBox="0 0 875 585" xmlns="http://www.w3.org/2000/svg">

<style>
  .sm { font: 12px sans-serif; }
  .lg { font: 15px sans-serif; }
</style>
<rect fill="#ddd" x="0" y="0" width="100%" height="100%"/>
<text x="20" y="20" class="lg">ch.15620 V:12967208-12968082 Gene:WBGene00011309</text>
<text x="20" y="50" class="sm">WormBase</text>
<rect x="258" y="40" width="50" height="12" fill="#00f"/>
<rect x="357" y="40" width="104" height="12" fill="#00f"/>
<rect x="609" y="40" width="168" height="12" fill="#00f"/>
<line x1="308" y1="46" x2="356" y2="46" stroke="#00f"/>
<line x1="461" y1="46" x2="608" y2="46" stroke="#00f"/>
<rect x="292" y="41" width="16" height="10" fill="#ff0"/>
<rect x="358" y="41" width="103" height="10" fill="#ff0"/>
<rect x="610" y="41" width="94" height="10" fill="#ff0"/>
<rect x="259" y="41" width="32" height="10" fill="brown"><title>.</title></rect>
<rect x="705" y="41" width="72" height="10" fill="brown"><title>.</title></rect>
<text x="20" y="70" class="sm">WormBase</text>
<rect x="102" y="60" width="61" height="12" fill="#00f"/>
<rect x="260" y="60" width="48" height="12" fill="#00f"/>
<rect x="357" y="60" width="104" height="12" fill="#00f"/>
<rect x="609" y="60" width="168" height="12" fill="#00f"/>
<line x1="163" y1="66" x2="259" y2="66" stroke="#00f"/>
<line x1="308" y1="66" x2="356" y2="66" stroke="#00f"/>
<line x1="461" y1="66" x2="608" y2="66" stroke="#00f"/>
<rect x="292" y="61" width="16" height="10" fill="#ff0"/>
<rect x="358" y="61" width="103" height="10" fill="#ff0"/>
<rect x="610" y="61" width="94" height="10" fill="#ff0"/>
<rect x="103" y="61" width="60" height="10" fill="brown"><title>.</title></rect>
<rect x="261" y="61" width="30" height="10" fill="brown"><title>.</title></rect>
<rect x="705" y="61" width="72" height="10" fill="brown"><title>.</title></rect>
<text x="20" y="90" class="sm">Fitness: 0.21391739319947636</text>
<rect x="461" y="85" width="148" height="5" fill="#00f"><title>678577.0</title></rect>
<rect x="308" y="90" width="49" height="5" fill="#00f"><title>470962.0</title></rect>
<rect x="163" y="95" width="97" height="5" fill="#00f"><title>11781.0</title></rect>
<rect x="308" y="100" width="65" height="5" fill="#00f"><title>2298.0</title></rect>
<rect x="724" y="105" width="150" height="5" fill="#00f"><title>665.0</title></rect>
<rect x="712" y="110" width="162" height="5" fill="#00f"><title>73.0</title></rect>
<rect x="461" y="115" width="172" height="5" fill="#00f"><title>37.0</title></rect>
<rect x="313" y="120" width="48" height="5" fill="#f0f"><title>25.0</title></rect>
<rect x="163" y="125" width="446" height="5" fill="#00f"><title>23.0</title></rect>
<rect x="752" y="130" width="122" height="5" fill="#00f"><title>18.0</title></rect>
<rect x="308" y="135" width="301" height="5" fill="#00f"><title>13.0</title></rect>
<rect x="308" y="140" width="73" height="5" fill="#00f"><title>12.0</title></rect>
<rect x="163" y="145" width="210" height="5" fill="#00f"><title>4.0</title></rect>
<text x="20" y="175" class="sm">0.8119</text>
<rect x="100" y="165" width="208" height="12" fill="#00f"/>
<rect x="357" y="165" width="104" height="12" fill="#00f"/>
<rect x="609" y="165" width="169" height="12" fill="#00f"/>
<line x1="308" y1="171" x2="356" y2="171" stroke="#00f"/>
<line x1="461" y1="171" x2="608" y2="171" stroke="#00f"/>
<rect x="292" y="166" width="16" height="10" fill="#ff0"/>
<rect x="358" y="166" width="103" height="10" fill="#ff0"/>
<rect x="610" y="166" width="94" height="10" fill="#ff0"/>
<text x="20" y="195" class="sm">0.1551</text>
<rect x="100" y="185" width="208" height="12" fill="#00f"/>
<rect x="373" y="185" width="88" height="12" fill="#00f"/>
<rect x="609" y="185" width="169" height="12" fill="#00f"/>
<line x1="308" y1="191" x2="372" y2="191" stroke="#00f"/>
<line x1="461" y1="191" x2="608" y2="191" stroke="#00f"/>
<rect x="215" y="186" width="93" height="10" fill="#ff0"/>
<rect x="374" y="186" width="55" height="10" fill="#ff0"/>
<text x="20" y="215" class="sm">0.004668</text>
<rect x="100" y="205" width="361" height="12" fill="#00f"/>
<rect x="609" y="205" width="169" height="12" fill="#00f"/>
<line x1="461" y1="211" x2="608" y2="211" stroke="#00f"/>
<rect x="215" y="206" width="246" height="10" fill="#ff0"/>
<rect x="610" y="206" width="94" height="10" fill="#ff0"/>
<text x="20" y="235" class="sm">0.003972</text>
<rect x="100" y="225" width="208" height="12" fill="#00f"/>
<rect x="609" y="225" width="169" height="12" fill="#00f"/>
<line x1="308" y1="231" x2="608" y2="231" stroke="#00f"/>
<rect x="215" y="226" width="93" height="10" fill="#ff0"/>
<rect x="610" y="226" width="94" height="10" fill="#ff0"/>
<text x="20" y="255" class="sm">0.003577</text>
<rect x="100" y="245" width="208" height="12" fill="#00f"/>
<rect x="357" y="245" width="104" height="12" fill="#00f"/>
<rect x="650" y="245" width="128" height="12" fill="#00f"/>
<line x1="308" y1="251" x2="356" y2="251" stroke="#00f"/>
<line x1="461" y1="251" x2="649" y2="251" stroke="#00f"/>
<rect x="292" y="246" width="16" height="10" fill="#ff0"/>
<rect x="358" y="246" width="103" height="10" fill="#ff0"/>
<rect x="651" y="246" width="73" height="10" fill="#ff0"/>
<text x="20" y="275" class="sm">0.003204</text>
<rect x="100" y="265" width="208" height="12" fill="#00f"/>
<rect x="357" y="265" width="104" height="12" fill="#00f"/>
<rect x="724" y="265" width="54" height="12" fill="#00f"/>
<line x1="308" y1="271" x2="356" y2="271" stroke="#00f"/>
<line x1="461" y1="271" x2="723" y2="271" stroke="#00f"/>
<rect x="292" y="266" width="16" height="10" fill="#ff0"/>
<rect x="358" y="266" width="103" height="10" fill="#ff0"/>
<rect x="725" y="266" width="7" height="10" fill="#ff0"/>
<text x="20" y="295" class="sm">0.003141</text>
<rect x="100" y="285" width="208" height="12" fill="#00f"/>
<rect x="357" y="285" width="75" height="12" fill="#00f"/>
<rect x="609" y="285" width="169" height="12" fill="#00f"/>
<line x1="308" y1="291" x2="356" y2="291" stroke="#00f"/>
<line x1="432" y1="291" x2="608" y2="291" stroke="#00f"/>
<rect x="292" y="286" width="16" height="10" fill="#ff0"/>
<rect x="358" y="286" width="74" height="10" fill="#ff0"/>
<rect x="610" y="286" width="21" height="10" fill="#ff0"/>
<text x="20" y="315" class="sm">0.002115</text>
<rect x="100" y="305" width="208" height="12" fill="#00f"/>
<rect x="357" y="305" width="104" height="12" fill="#00f"/>
<rect x="679" y="305" width="99" height="12" fill="#00f"/>
<line x1="308" y1="311" x2="356" y2="311" stroke="#00f"/>
<line x1="461" y1="311" x2="678" y2="311" stroke="#00f"/>
<rect x="292" y="306" width="16" height="10" fill="#ff0"/>
<rect x="358" y="306" width="103" height="10" fill="#ff0"/>
<rect x="680" y="306" width="1" height="10" fill="#ff0"/>
<text x="20" y="335" class="sm">0.001729</text>
<rect x="100" y="325" width="63" height="12" fill="#00f"/>
<rect x="213" y="325" width="95" height="12" fill="#00f"/>
<rect x="357" y="325" width="104" height="12" fill="#00f"/>
<rect x="609" y="325" width="169" height="12" fill="#00f"/>
<line x1="163" y1="331" x2="212" y2="331" stroke="#00f"/>
<line x1="308" y1="331" x2="356" y2="331" stroke="#00f"/>
<line x1="461" y1="331" x2="608" y2="331" stroke="#00f"/>
<rect x="292" y="326" width="16" height="10" fill="#ff0"/>
<rect x="358" y="326" width="103" height="10" fill="#ff0"/>
<rect x="610" y="326" width="94" height="10" fill="#ff0"/>
<text x="20" y="355" class="sm">0.001486</text>
<rect x="100" y="345" width="208" height="12" fill="#00f"/>
<rect x="357" y="345" width="104" height="12" fill="#00f"/>
<rect x="633" y="345" width="145" height="12" fill="#00f"/>
<line x1="308" y1="351" x2="356" y2="351" stroke="#00f"/>
<line x1="461" y1="351" x2="632" y2="351" stroke="#00f"/>
<rect x="292" y="346" width="16" height="10" fill="#ff0"/>
<rect x="358" y="346" width="103" height="10" fill="#ff0"/>
<rect x="634" y="346" width="1" height="10" fill="#ff0"/>
<text x="20" y="375" class="sm">0.001421</text>
<rect x="100" y="365" width="208" height="12" fill="#00f"/>
<rect x="357" y="365" width="287" height="12" fill="#00f"/>
<rect x="691" y="365" width="87" height="12" fill="#00f"/>
<line x1="308" y1="371" x2="356" y2="371" stroke="#00f"/>
<line x1="644" y1="371" x2="690" y2="371" stroke="#00f"/>
<rect x="292" y="366" width="16" height="10" fill="#ff0"/>
<rect x="358" y="366" width="129" height="10" fill="#ff0"/>
<text x="20" y="395" class="sm">0.001227</text>
<rect x="100" y="385" width="208" height="12" fill="#00f"/>
<rect x="357" y="385" width="421" height="12" fill="#00f"/>
<line x1="308" y1="391" x2="356" y2="391" stroke="#00f"/>
<rect x="292" y="386" width="16" height="10" fill="#ff0"/>
<rect x="358" y="386" width="129" height="10" fill="#ff0"/>
<text x="20" y="415" class="sm">0.001166</text>
<rect x="100" y="405" width="208" height="12" fill="#00f"/>
<rect x="357" y="405" width="104" height="12" fill="#00f"/>
<rect x="732" y="405" width="46" height="12" fill="#00f"/>
<line x1="308" y1="411" x2="356" y2="411" stroke="#00f"/>
<line x1="461" y1="411" x2="731" y2="411" stroke="#00f"/>
<rect x="292" y="406" width="16" height="10" fill="#ff0"/>
<rect x="358" y="406" width="103" height="10" fill="#ff0"/>
<rect x="733" y="406" width="37" height="10" fill="#ff0"/>
<text x="20" y="435" class="sm">0.001079</text>
<rect x="100" y="425" width="208" height="12" fill="#00f"/>
<rect x="357" y="425" width="104" height="12" fill="#00f"/>
<rect x="691" y="425" width="87" height="12" fill="#00f"/>
<line x1="308" y1="431" x2="356" y2="431" stroke="#00f"/>
<line x1="461" y1="431" x2="690" y2="431" stroke="#00f"/>
<rect x="292" y="426" width="16" height="10" fill="#ff0"/>
<rect x="358" y="426" width="103" height="10" fill="#ff0"/>
<rect x="692" y="426" width="40" height="10" fill="#ff0"/>
<text x="20" y="455" class="sm">0.001067</text>
<rect x="100" y="445" width="208" height="12" fill="#00f"/>
<rect x="357" y="445" width="104" height="12" fill="#00f"/>
<rect x="609" y="445" width="35" height="12" fill="#00f"/>
<rect x="691" y="445" width="87" height="12" fill="#00f"/>
<line x1="308" y1="451" x2="356" y2="451" stroke="#00f"/>
<line x1="461" y1="451" x2="608" y2="451" stroke="#00f"/>
<line x1="644" y1="451" x2="690" y2="451" stroke="#00f"/>
<rect x="292" y="446" width="16" height="10" fill="#ff0"/>
<rect x="358" y="446" width="103" height="10" fill="#ff0"/>
<rect x="610" y="446" width="34" height="10" fill="#ff0"/>
<rect x="692" y="446" width="32" height="10" fill="#ff0"/>
<text x="20" y="475" class="sm">0.0006953</text>
<rect x="100" y="465" width="208" height="12" fill="#00f"/>
<rect x="373" y="465" width="271" height="12" fill="#00f"/>
<rect x="691" y="465" width="87" height="12" fill="#00f"/>
<line x1="308" y1="471" x2="372" y2="471" stroke="#00f"/>
<line x1="644" y1="471" x2="690" y2="471" stroke="#00f"/>
<rect x="215" y="466" width="93" height="10" fill="#ff0"/>
<rect x="374" y="466" width="55" height="10" fill="#ff0"/>
<text x="20" y="495" class="sm">0.0006835</text>
<rect x="100" y="485" width="208" height="12" fill="#00f"/>
<rect x="373" y="485" width="88" height="12" fill="#00f"/>
<rect x="650" y="485" width="128" height="12" fill="#00f"/>
<line x1="308" y1="491" x2="372" y2="491" stroke="#00f"/>
<line x1="461" y1="491" x2="649" y2="491" stroke="#00f"/>
<rect x="215" y="486" width="93" height="10" fill="#ff0"/>
<rect x="374" y="486" width="55" height="10" fill="#ff0"/>
<text x="20" y="515" class="sm">0.0006488</text>
<rect x="100" y="505" width="208" height="12" fill="#00f"/>
<rect x="357" y="505" width="108" height="12" fill="#00f"/>
<rect x="609" y="505" width="169" height="12" fill="#00f"/>
<line x1="308" y1="511" x2="356" y2="511" stroke="#00f"/>
<line x1="465" y1="511" x2="608" y2="511" stroke="#00f"/>
<rect x="292" y="506" width="16" height="10" fill="#ff0"/>
<rect x="358" y="506" width="107" height="10" fill="#ff0"/>
<rect x="610" y="506" width="21" height="10" fill="#ff0"/>
<text x="20" y="535" class="sm">0.0006123</text>
<rect x="100" y="525" width="208" height="12" fill="#00f"/>
<rect x="373" y="525" width="88" height="12" fill="#00f"/>
<rect x="724" y="525" width="54" height="12" fill="#00f"/>
<line x1="308" y1="531" x2="372" y2="531" stroke="#00f"/>
<line x1="461" y1="531" x2="723" y2="531" stroke="#00f"/>
<rect x="215" y="526" width="93" height="10" fill="#ff0"/>
<rect x="374" y="526" width="55" height="10" fill="#ff0"/>
<text x="20" y="555" class="sm">0.0004233</text>
<rect x="100" y="545" width="208" height="12" fill="#00f"/>
<rect x="357" y="545" width="46" height="12" fill="#00f"/>
<rect x="609" y="545" width="169" height="12" fill="#00f"/>
<line x1="308" y1="551" x2="356" y2="551" stroke="#00f"/>
<line x1="403" y1="551" x2="608" y2="551" stroke="#00f"/>
<rect x="215" y="546" width="93" height="10" fill="#ff0"/>
<rect x="358" y="546" width="7" height="10" fill="#ff0"/>
</svg>
