<svg viewBox="0 0 634 510" xmlns="http://www.w3.org/2000/svg">

<style>
  .sm { font: 12px sans-serif; }
  .lg { font: 15px sans-serif; }
</style>
<rect fill="#ddd" x="0" y="0" width="100%" height="100%"/>
<text x="20" y="20" class="lg">ch.19517 X:12342846-12343479 Gene:WBGene00009634</text>
<text x="20" y="50" class="sm">WormBase</text>
<rect x="102" y="40" width="27" height="12" fill="#00f"/>
<rect x="174" y="40" width="362" height="12" fill="#00f"/>
<line x1="129" y1="46" x2="173" y2="46" stroke="#00f"/>
<rect x="127" y="41" width="2" height="10" fill="#ff0"/>
<rect x="175" y="41" width="302" height="10" fill="#ff0"/>
<rect x="103" y="41" width="23" height="10" fill="brown"><title>.</title></rect>
<rect x="478" y="41" width="58" height="10" fill="brown"><title>.</title></rect>
<text x="20" y="70" class="sm">Fitness: 5.9341281024800205e-05</text>
<rect x="129" y="65" width="45" height="5" fill="#00f"><title>134748.0</title></rect>
<rect x="352" y="70" width="46" height="5" fill="#00f"><title>4.0</title></rect>
<text x="20" y="100" class="sm">1.0</text>
<rect x="100" y="90" width="29" height="12" fill="#00f"/>
<rect x="174" y="90" width="363" height="12" fill="#00f"/>
<line x1="129" y1="96" x2="173" y2="96" stroke="#00f"/>
<rect x="127" y="91" width="2" height="10" fill="#ff0"/>
<rect x="175" y="91" width="302" height="10" fill="#ff0"/>
<text x="20" y="120" class="sm">1.3e-05</text>
<rect x="100" y="110" width="33" height="12" fill="#00f"/>
<rect x="174" y="110" width="363" height="12" fill="#00f"/>
<line x1="133" y1="116" x2="173" y2="116" stroke="#00f"/>
<rect x="263" y="111" width="146" height="10" fill="#ff0"/>
<text x="20" y="140" class="sm">5.285e-06</text>
<rect x="100" y="130" width="29" height="12" fill="#00f"/>
<rect x="174" y="130" width="274" height="12" fill="#00f"/>
<rect x="497" y="130" width="40" height="12" fill="#00f"/>
<line x1="129" y1="136" x2="173" y2="136" stroke="#00f"/>
<line x1="448" y1="136" x2="496" y2="136" stroke="#00f"/>
<rect x="127" y="131" width="2" height="10" fill="#ff0"/>
<rect x="175" y="131" width="273" height="10" fill="#ff0"/>
<rect x="498" y="131" width="19" height="10" fill="#ff0"/>
<text x="20" y="160" class="sm">6.077e-08</text>
<rect x="100" y="150" width="29" height="12" fill="#00f"/>
<rect x="218" y="150" width="319" height="12" fill="#00f"/>
<line x1="129" y1="156" x2="217" y2="156" stroke="#00f"/>
<rect x="263" y="151" width="146" height="10" fill="#ff0"/>
<text x="20" y="180" class="sm">1.352e-08</text>
<rect x="100" y="170" width="29" height="12" fill="#00f"/>
<rect x="174" y="170" width="178" height="12" fill="#00f"/>
<rect x="398" y="170" width="139" height="12" fill="#00f"/>
<line x1="129" y1="176" x2="173" y2="176" stroke="#00f"/>
<line x1="352" y1="176" x2="397" y2="176" stroke="#00f"/>
<rect x="127" y="171" width="2" height="10" fill="#ff0"/>
<rect x="175" y="171" width="177" height="10" fill="#ff0"/>
<rect x="399" y="171" width="10" height="10" fill="#ff0"/>
<text x="20" y="200" class="sm">5.395e-09</text>
<rect x="100" y="190" width="29" height="12" fill="#00f"/>
<rect x="174" y="190" width="196" height="12" fill="#00f"/>
<rect x="421" y="190" width="116" height="12" fill="#00f"/>
<line x1="129" y1="196" x2="173" y2="196" stroke="#00f"/>
<line x1="370" y1="196" x2="420" y2="196" stroke="#00f"/>
<rect x="127" y="191" width="2" height="10" fill="#ff0"/>
<rect x="175" y="191" width="195" height="10" fill="#ff0"/>
<rect x="422" y="191" width="55" height="10" fill="#ff0"/>
<text x="20" y="220" class="sm">6.876e-10</text>
<rect x="100" y="210" width="29" height="12" fill="#00f"/>
<rect x="174" y="210" width="166" height="12" fill="#00f"/>
<rect x="398" y="210" width="139" height="12" fill="#00f"/>
<line x1="129" y1="216" x2="173" y2="216" stroke="#00f"/>
<line x1="340" y1="216" x2="397" y2="216" stroke="#00f"/>
<rect x="127" y="211" width="2" height="10" fill="#ff0"/>
<rect x="175" y="211" width="165" height="10" fill="#ff0"/>
<rect x="399" y="211" width="10" height="10" fill="#ff0"/>
<text x="20" y="240" class="sm">3.132e-10</text>
<rect x="100" y="230" width="29" height="12" fill="#00f"/>
<rect x="174" y="230" width="76" height="12" fill="#00f"/>
<rect x="302" y="230" width="235" height="12" fill="#00f"/>
<line x1="129" y1="236" x2="173" y2="236" stroke="#00f"/>
<line x1="250" y1="236" x2="301" y2="236" stroke="#00f"/>
<rect x="127" y="231" width="2" height="10" fill="#ff0"/>
<rect x="175" y="231" width="75" height="10" fill="#ff0"/>
<rect x="303" y="231" width="106" height="10" fill="#ff0"/>
<text x="20" y="260" class="sm">2.21e-10</text>
<rect x="100" y="250" width="29" height="12" fill="#00f"/>
<rect x="174" y="250" width="84" height="12" fill="#00f"/>
<rect x="302" y="250" width="235" height="12" fill="#00f"/>
<line x1="129" y1="256" x2="173" y2="256" stroke="#00f"/>
<line x1="258" y1="256" x2="301" y2="256" stroke="#00f"/>
<rect x="127" y="251" width="2" height="10" fill="#ff0"/>
<rect x="175" y="251" width="83" height="10" fill="#ff0"/>
<rect x="303" y="251" width="47" height="10" fill="#ff0"/>
<text x="20" y="280" class="sm">1.326e-10</text>
<rect x="100" y="270" width="29" height="12" fill="#00f"/>
<rect x="174" y="270" width="82" height="12" fill="#00f"/>
<rect x="302" y="270" width="235" height="12" fill="#00f"/>
<line x1="129" y1="276" x2="173" y2="276" stroke="#00f"/>
<line x1="256" y1="276" x2="301" y2="276" stroke="#00f"/>
<rect x="127" y="271" width="2" height="10" fill="#ff0"/>
<rect x="175" y="271" width="81" height="10" fill="#ff0"/>
<rect x="303" y="271" width="106" height="10" fill="#ff0"/>
<text x="20" y="300" class="sm">1.219e-10</text>
<rect x="100" y="290" width="29" height="12" fill="#00f"/>
<rect x="244" y="290" width="293" height="12" fill="#00f"/>
<line x1="129" y1="296" x2="243" y2="296" stroke="#00f"/>
<rect x="127" y="291" width="2" height="10" fill="#ff0"/>
<rect x="245" y="291" width="164" height="10" fill="#ff0"/>
<text x="20" y="320" class="sm">6.868e-11</text>
<rect x="100" y="310" width="33" height="12" fill="#00f"/>
<rect x="174" y="310" width="274" height="12" fill="#00f"/>
<rect x="497" y="310" width="40" height="12" fill="#00f"/>
<line x1="133" y1="316" x2="173" y2="316" stroke="#00f"/>
<line x1="448" y1="316" x2="496" y2="316" stroke="#00f"/>
<rect x="263" y="311" width="146" height="10" fill="#ff0"/>
<text x="20" y="340" class="sm">6.527e-11</text>
<rect x="100" y="330" width="29" height="12" fill="#00f"/>
<rect x="174" y="330" width="30" height="12" fill="#00f"/>
<rect x="244" y="330" width="293" height="12" fill="#00f"/>
<line x1="129" y1="336" x2="173" y2="336" stroke="#00f"/>
<line x1="204" y1="336" x2="243" y2="336" stroke="#00f"/>
<rect x="127" y="331" width="2" height="10" fill="#ff0"/>
<rect x="175" y="331" width="29" height="10" fill="#ff0"/>
<rect x="245" y="331" width="164" height="10" fill="#ff0"/>
<text x="20" y="360" class="sm">4.426e-11</text>
<rect x="100" y="350" width="348" height="12" fill="#00f"/>
<rect x="497" y="350" width="40" height="12" fill="#00f"/>
<line x1="448" y1="356" x2="496" y2="356" stroke="#00f"/>
<rect x="263" y="351" width="146" height="10" fill="#ff0"/>
<text x="20" y="380" class="sm">2.648e-11</text>
<rect x="100" y="370" width="29" height="12" fill="#00f"/>
<rect x="174" y="370" width="91" height="12" fill="#00f"/>
<rect x="302" y="370" width="235" height="12" fill="#00f"/>
<line x1="129" y1="376" x2="173" y2="376" stroke="#00f"/>
<line x1="265" y1="376" x2="301" y2="376" stroke="#00f"/>
<rect x="127" y="371" width="2" height="10" fill="#ff0"/>
<rect x="175" y="371" width="90" height="10" fill="#ff0"/>
<rect x="303" y="371" width="106" height="10" fill="#ff0"/>
<text x="20" y="400" class="sm">1.165e-11</text>
<rect x="100" y="390" width="73" height="12" fill="#00f"/>
<rect x="218" y="390" width="319" height="12" fill="#00f"/>
<line x1="173" y1="396" x2="217" y2="396" stroke="#00f"/>
<rect x="263" y="391" width="146" height="10" fill="#ff0"/>
<text x="20" y="420" class="sm">1.082e-11</text>
<rect x="100" y="410" width="29" height="12" fill="#00f"/>
<rect x="174" y="410" width="196" height="12" fill="#00f"/>
<rect x="426" y="410" width="111" height="12" fill="#00f"/>
<line x1="129" y1="416" x2="173" y2="416" stroke="#00f"/>
<line x1="370" y1="416" x2="425" y2="416" stroke="#00f"/>
<rect x="127" y="411" width="2" height="10" fill="#ff0"/>
<rect x="175" y="411" width="195" height="10" fill="#ff0"/>
<rect x="427" y="411" width="43" height="10" fill="#ff0"/>
<text x="20" y="440" class="sm">5.103e-12</text>
<rect x="100" y="430" width="33" height="12" fill="#00f"/>
<rect x="218" y="430" width="319" height="12" fill="#00f"/>
<line x1="133" y1="436" x2="217" y2="436" stroke="#00f"/>
<rect x="127" y="431" width="6" height="10" fill="#ff0"/>
<rect x="219" y="431" width="190" height="10" fill="#ff0"/>
<text x="20" y="460" class="sm">3.962e-12</text>
<rect x="100" y="450" width="29" height="12" fill="#00f"/>
<rect x="174" y="450" width="168" height="12" fill="#00f"/>
<rect x="398" y="450" width="139" height="12" fill="#00f"/>
<line x1="129" y1="456" x2="173" y2="456" stroke="#00f"/>
<line x1="342" y1="456" x2="397" y2="456" stroke="#00f"/>
<rect x="127" y="451" width="2" height="10" fill="#ff0"/>
<rect x="175" y="451" width="167" height="10" fill="#ff0"/>
<rect x="399" y="451" width="26" height="10" fill="#ff0"/>
<text x="20" y="480" class="sm">3.658e-12</text>
<rect x="100" y="470" width="29" height="12" fill="#00f"/>
<rect x="174" y="470" width="30" height="12" fill="#00f"/>
<rect x="246" y="470" width="291" height="12" fill="#00f"/>
<line x1="129" y1="476" x2="173" y2="476" stroke="#00f"/>
<line x1="204" y1="476" x2="245" y2="476" stroke="#00f"/>
<rect x="127" y="471" width="2" height="10" fill="#ff0"/>
<rect x="175" y="471" width="29" height="10" fill="#ff0"/>
<rect x="247" y="471" width="230" height="10" fill="#ff0"/>
</svg>
