<svg viewBox="0 0 711 830" xmlns="http://www.w3.org/2000/svg">

<style>
  .sm { font: 12px sans-serif; }
  .lg { font: 15px sans-serif; }
</style>
<rect fill="#ddd" x="0" y="0" width="100%" height="100%"/>
<text x="20" y="20" class="lg">ch.12965 V:2329344-2330054 Gene:WBGene00017490</text>
<text x="20" y="50" class="sm">WormBase</text>
<rect x="102" y="40" width="253" height="12" fill="#00f"/>
<rect x="401" y="40" width="212" height="12" fill="#00f"/>
<line x1="355" y1="46" x2="400" y2="46" stroke="#00f"/>
<rect x="103" y="41" width="252" height="10" fill="#ff0"/>
<rect x="402" y="41" width="211" height="10" fill="#ff0"/>
<text x="20" y="70" class="sm">Fitness: 0.0007937297799351806</text>
<rect x="355" y="65" width="46" height="5" fill="#00f"><title>10419400.0</title></rect>
<rect x="433" y="70" width="118" height="5" fill="#00f"><title>1912.0</title></rect>
<rect x="355" y="75" width="49" height="5" fill="#00f"><title>1330.0</title></rect>
<rect x="359" y="80" width="45" height="5" fill="#00f"><title>968.0</title></rect>
<rect x="355" y="85" width="154" height="5" fill="#00f"><title>306.0</title></rect>
<rect x="353" y="90" width="46" height="5" fill="#f0f"><title>247.0</title></rect>
<rect x="433" y="95" width="105" height="5" fill="#00f"><title>206.0</title></rect>
<rect x="223" y="100" width="244" height="5" fill="#f0f"><title>171.0</title></rect>
<rect x="307" y="105" width="94" height="5" fill="#00f"><title>152.0</title></rect>
<rect x="324" y="110" width="109" height="5" fill="#00f"><title>131.0</title></rect>
<rect x="355" y="115" width="151" height="5" fill="#00f"><title>81.0</title></rect>
<rect x="355" y="120" width="97" height="5" fill="#00f"><title>78.0</title></rect>
<rect x="276" y="125" width="157" height="5" fill="#00f"><title>60.0</title></rect>
<rect x="324" y="130" width="230" height="5" fill="#00f"><title>52.0</title></rect>
<rect x="324" y="135" width="214" height="5" fill="#00f"><title>36.0</title></rect>
<rect x="72" y="140" width="52" height="5" fill="#00f"><title>36.0</title></rect>
<rect x="166" y="145" width="343" height="5" fill="#00f"><title>27.0</title></rect>
<rect x="355" y="150" width="64" height="5" fill="#00f"><title>23.0</title></rect>
<rect x="166" y="155" width="235" height="5" fill="#00f"><title>23.0</title></rect>
<rect x="150" y="160" width="109" height="5" fill="#f0f"><title>22.0</title></rect>
<rect x="174" y="165" width="124" height="5" fill="#f0f"><title>21.0</title></rect>
<rect x="276" y="170" width="48" height="5" fill="#00f"><title>20.0</title></rect>
<rect x="186" y="175" width="94" height="5" fill="#f0f"><title>20.0</title></rect>
<rect x="505" y="180" width="42" height="5" fill="#00f"><title>18.0</title></rect>
<rect x="307" y="185" width="166" height="5" fill="#00f"><title>18.0</title></rect>
<rect x="324" y="190" width="188" height="5" fill="#00f"><title>17.0</title></rect>
<rect x="245" y="195" width="77" height="5" fill="#f0f"><title>17.0</title></rect>
<rect x="355" y="200" width="107" height="5" fill="#00f"><title>14.0</title></rect>
<rect x="176" y="205" width="47" height="5" fill="#00f"><title>13.0</title></rect>
<rect x="124" y="210" width="77" height="5" fill="#00f"><title>13.0</title></rect>
<rect x="421" y="215" width="117" height="5" fill="#00f"><title>12.0</title></rect>
<rect x="235" y="220" width="36" height="5" fill="#f0f"><title>12.0</title></rect>
<rect x="359" y="225" width="171" height="5" fill="#00f"><title>10.0</title></rect>
<rect x="304" y="230" width="95" height="5" fill="#f0f"><title>9.0</title></rect>
<rect x="256" y="235" width="217" height="5" fill="#00f"><title>8.0</title></rect>
<rect x="152" y="240" width="170" height="5" fill="#f0f"><title>8.0</title></rect>
<rect x="446" y="245" width="27" height="5" fill="#00f"><title>7.0</title></rect>
<rect x="446" y="250" width="60" height="5" fill="#00f"><title>5.0</title></rect>
<rect x="418" y="255" width="88" height="5" fill="#00f"><title>5.0</title></rect>
<rect x="324" y="260" width="128" height="5" fill="#00f"><title>5.0</title></rect>
<rect x="307" y="265" width="97" height="5" fill="#00f"><title>5.0</title></rect>
<rect x="234" y="270" width="90" height="5" fill="#00f"><title>5.0</title></rect>
<rect x="359" y="275" width="188" height="5" fill="#00f"><title>4.0</title></rect>
<rect x="189" y="280" width="284" height="5" fill="#00f"><title>4.0</title></rect>
<rect x="276" y="285" width="176" height="5" fill="#00f"><title>4.0</title></rect>
<rect x="355" y="290" width="57" height="5" fill="#00f"><title>4.0</title></rect>
<rect x="307" y="295" width="35" height="5" fill="#00f"><title>4.0</title></rect>
<rect x="141" y="300" width="152" height="5" fill="#f0f"><title>4.0</title></rect>
<rect x="124" y="305" width="59" height="5" fill="#00f"><title>4.0</title></rect>
<rect x="92" y="310" width="91" height="5" fill="#00f"><title>4.0</title></rect>
<rect x="324" y="315" width="227" height="5" fill="#00f"><title>3.0</title></rect>
<rect x="437" y="320" width="101" height="5" fill="#00f"><title>3.0</title></rect>
<rect x="307" y="325" width="231" height="5" fill="#00f"><title>3.0</title></rect>
<rect x="359" y="330" width="147" height="5" fill="#00f"><title>3.0</title></rect>
<rect x="281" y="335" width="217" height="5" fill="#f0f"><title>3.0</title></rect>
<rect x="452" y="340" width="44" height="5" fill="#f0f"><title>3.0</title></rect>
<rect x="437" y="345" width="36" height="5" fill="#00f"><title>3.0</title></rect>
<rect x="418" y="350" width="55" height="5" fill="#00f"><title>3.0</title></rect>
<rect x="234" y="355" width="239" height="5" fill="#00f"><title>3.0</title></rect>
<rect x="418" y="360" width="44" height="5" fill="#00f"><title>3.0</title></rect>
<rect x="256" y="365" width="148" height="5" fill="#00f"><title>3.0</title></rect>
<rect x="176" y="370" width="148" height="5" fill="#00f"><title>3.0</title></rect>
<rect x="124" y="375" width="200" height="5" fill="#00f"><title>3.0</title></rect>
<rect x="200" y="380" width="77" height="5" fill="#00f"><title>3.0</title></rect>
<rect x="176" y="385" width="81" height="5" fill="#00f"><title>3.0</title></rect>
<rect x="166" y="390" width="91" height="5" fill="#00f"><title>3.0</title></rect>
<text x="20" y="420" class="sm">0.9995</text>
<rect x="100" y="410" width="255" height="12" fill="#00f"/>
<rect x="401" y="410" width="213" height="12" fill="#00f"/>
<line x1="355" y1="416" x2="400" y2="416" stroke="#00f"/>
<rect x="103" y="411" width="252" height="10" fill="#ff0"/>
<rect x="402" y="411" width="211" height="10" fill="#ff0"/>
<text x="20" y="440" class="sm">0.000162</text>
<rect x="100" y="430" width="259" height="12" fill="#00f"/>
<rect x="401" y="430" width="213" height="12" fill="#00f"/>
<line x1="359" y1="436" x2="400" y2="436" stroke="#00f"/>
<rect x="103" y="431" width="256" height="10" fill="#ff0"/>
<rect x="402" y="431" width="9" height="10" fill="#ff0"/>
<text x="20" y="460" class="sm">0.0001499</text>
<rect x="100" y="450" width="100" height="12" fill="#00f"/>
<rect x="401" y="450" width="213" height="12" fill="#00f"/>
<line x1="200" y1="456" x2="400" y2="456" stroke="#00f"/>
<rect x="173" y="451" width="27" height="10" fill="#ff0"/>
<rect x="402" y="451" width="211" height="10" fill="#ff0"/>
<text x="20" y="480" class="sm">0.0001383</text>
<rect x="100" y="470" width="255" height="12" fill="#00f"/>
<rect x="404" y="470" width="210" height="12" fill="#00f"/>
<line x1="355" y1="476" x2="403" y2="476" stroke="#00f"/>
<rect x="103" y="471" width="252" height="10" fill="#ff0"/>
<rect x="405" y="471" width="208" height="10" fill="#ff0"/>
<text x="20" y="500" class="sm">2.723e-05</text>
<rect x="100" y="490" width="207" height="12" fill="#00f"/>
<rect x="401" y="490" width="213" height="12" fill="#00f"/>
<line x1="307" y1="496" x2="400" y2="496" stroke="#00f"/>
<rect x="103" y="491" width="204" height="10" fill="#ff0"/>
<rect x="402" y="491" width="211" height="10" fill="#ff0"/>
<text x="20" y="520" class="sm">2.164e-05</text>
<rect x="100" y="510" width="255" height="12" fill="#00f"/>
<rect x="412" y="510" width="202" height="12" fill="#00f"/>
<line x1="355" y1="516" x2="411" y2="516" stroke="#00f"/>
<rect x="103" y="511" width="252" height="10" fill="#ff0"/>
<rect x="413" y="511" width="1" height="10" fill="#ff0"/>
<text x="20" y="540" class="sm">1.313e-05</text>
<rect x="100" y="530" width="224" height="12" fill="#00f"/>
<rect x="401" y="530" width="213" height="12" fill="#00f"/>
<line x1="324" y1="536" x2="400" y2="536" stroke="#00f"/>
<rect x="103" y="531" width="221" height="10" fill="#ff0"/>
<rect x="402" y="531" width="2" height="10" fill="#ff0"/>
<text x="20" y="560" class="sm">1.103e-05</text>
<rect x="100" y="550" width="134" height="12" fill="#00f"/>
<rect x="401" y="550" width="213" height="12" fill="#00f"/>
<line x1="234" y1="556" x2="400" y2="556" stroke="#00f"/>
<rect x="231" y="551" width="3" height="10" fill="#ff0"/>
<rect x="402" y="551" width="211" height="10" fill="#ff0"/>
<text x="20" y="580" class="sm">8.609e-06</text>
<rect x="100" y="570" width="255" height="12" fill="#00f"/>
<rect x="419" y="570" width="195" height="12" fill="#00f"/>
<line x1="355" y1="576" x2="418" y2="576" stroke="#00f"/>
<rect x="103" y="571" width="252" height="10" fill="#ff0"/>
<rect x="420" y="571" width="193" height="10" fill="#ff0"/>
<text x="20" y="600" class="sm">3.367e-06</text>
<rect x="100" y="590" width="255" height="12" fill="#00f"/>
<rect x="473" y="590" width="141" height="12" fill="#00f"/>
<line x1="355" y1="596" x2="472" y2="596" stroke="#00f"/>
<rect x="103" y="591" width="252" height="10" fill="#ff0"/>
<rect x="474" y="591" width="139" height="10" fill="#ff0"/>
<text x="20" y="620" class="sm">2.059e-06</text>
<rect x="100" y="610" width="255" height="12" fill="#00f"/>
<rect x="530" y="610" width="84" height="12" fill="#00f"/>
<line x1="355" y1="616" x2="529" y2="616" stroke="#00f"/>
<rect x="103" y="611" width="252" height="10" fill="#ff0"/>
<rect x="531" y="611" width="82" height="10" fill="#ff0"/>
<text x="20" y="640" class="sm">1.67e-06</text>
<rect x="100" y="630" width="66" height="12" fill="#00f"/>
<rect x="401" y="630" width="213" height="12" fill="#00f"/>
<line x1="166" y1="636" x2="400" y2="636" stroke="#00f"/>
<rect x="103" y="631" width="63" height="10" fill="#ff0"/>
<rect x="402" y="631" width="211" height="10" fill="#ff0"/>
<text x="20" y="660" class="sm">4.897e-07</text>
<rect x="100" y="650" width="255" height="12" fill="#00f"/>
<rect x="504" y="650" width="110" height="12" fill="#00f"/>
<line x1="355" y1="656" x2="503" y2="656" stroke="#00f"/>
<rect x="103" y="651" width="252" height="10" fill="#ff0"/>
<rect x="505" y="651" width="1" height="10" fill="#ff0"/>
<text x="20" y="680" class="sm">1.843e-07</text>
<rect x="100" y="670" width="89" height="12" fill="#00f"/>
<rect x="401" y="670" width="213" height="12" fill="#00f"/>
<line x1="189" y1="676" x2="400" y2="676" stroke="#00f"/>
<rect x="103" y="671" width="86" height="10" fill="#ff0"/>
<rect x="402" y="671" width="2" height="10" fill="#ff0"/>
<text x="20" y="700" class="sm">1.722e-07</text>
<rect x="100" y="690" width="74" height="12" fill="#00f"/>
<rect x="401" y="690" width="213" height="12" fill="#00f"/>
<line x1="174" y1="696" x2="400" y2="696" stroke="#00f"/>
<rect x="414" y="691" width="89" height="10" fill="#ff0"/>
<text x="20" y="720" class="sm">1.717e-07</text>
<rect x="100" y="710" width="100" height="12" fill="#00f"/>
<rect x="246" y="710" width="109" height="12" fill="#00f"/>
<rect x="401" y="710" width="213" height="12" fill="#00f"/>
<line x1="200" y1="716" x2="245" y2="716" stroke="#00f"/>
<line x1="355" y1="716" x2="400" y2="716" stroke="#00f"/>
<rect x="103" y="711" width="97" height="10" fill="#ff0"/>
<rect x="247" y="711" width="108" height="10" fill="#ff0"/>
<rect x="402" y="711" width="2" height="10" fill="#ff0"/>
<text x="20" y="740" class="sm">1.534e-07</text>
<rect x="100" y="730" width="255" height="12" fill="#00f"/>
<rect x="452" y="730" width="162" height="12" fill="#00f"/>
<line x1="355" y1="736" x2="451" y2="736" stroke="#00f"/>
<rect x="103" y="731" width="252" height="10" fill="#ff0"/>
<rect x="453" y="731" width="160" height="10" fill="#ff0"/>
<text x="20" y="760" class="sm">1.039e-07</text>
<rect x="100" y="750" width="156" height="12" fill="#00f"/>
<rect x="401" y="750" width="213" height="12" fill="#00f"/>
<line x1="256" y1="756" x2="400" y2="756" stroke="#00f"/>
<rect x="103" y="751" width="153" height="10" fill="#ff0"/>
<rect x="402" y="751" width="211" height="10" fill="#ff0"/>
<text x="20" y="780" class="sm">8.961e-08</text>
<rect x="100" y="770" width="255" height="12" fill="#00f"/>
<rect x="538" y="770" width="76" height="12" fill="#00f"/>
<line x1="355" y1="776" x2="537" y2="776" stroke="#00f"/>
<rect x="103" y="771" width="252" height="10" fill="#ff0"/>
<rect x="539" y="771" width="52" height="10" fill="#ff0"/>
<text x="20" y="800" class="sm">7.534e-08</text>
<rect x="100" y="790" width="100" height="12" fill="#00f"/>
<rect x="387" y="790" width="227" height="12" fill="#00f"/>
<line x1="200" y1="796" x2="386" y2="796" stroke="#00f"/>
<rect x="103" y="791" width="97" height="10" fill="#ff0"/>
<rect x="388" y="791" width="6" height="10" fill="#ff0"/>
</svg>
