<svg viewBox="0 0 819 630" xmlns="http://www.w3.org/2000/svg">

<style>
  .sm { font: 12px sans-serif; }
  .lg { font: 15px sans-serif; }
</style>
<rect fill="#ddd" x="0" y="0" width="100%" height="100%"/>
<text x="20" y="20" class="lg">ch.18248 X:4715078-4715896 Gene:WBGene00004438</text>
<text x="20" y="50" class="sm">WormBase</text>
<rect x="100" y="40" width="155" height="12" fill="#00f"/>
<rect x="323" y="40" width="193" height="12" fill="#00f"/>
<rect x="573" y="40" width="146" height="12" fill="#00f"/>
<line x1="255" y1="46" x2="322" y2="46" stroke="#00f"/>
<line x1="516" y1="46" x2="572" y2="46" stroke="#00f"/>
<rect x="107" y="41" width="148" height="10" fill="#ff0"/>
<rect x="324" y="41" width="192" height="10" fill="#ff0"/>
<rect x="574" y="41" width="101" height="10" fill="#ff0"/>
<rect x="101" y="41" width="5" height="10" fill="brown"><title>.</title></rect>
<rect x="676" y="41" width="43" height="10" fill="brown"><title>.</title></rect>
<text x="20" y="70" class="sm">Fitness: 0.06004109111081764</text>
<rect x="255" y="65" width="68" height="5" fill="#00f"><title>5844340.0</title></rect>
<rect x="516" y="70" width="57" height="5" fill="#00f"><title>4838340.0</title></rect>
<rect x="520" y="75" width="53" height="5" fill="#00f"><title>71.0</title></rect>
<rect x="160" y="80" width="254" height="5" fill="#00f"><title>52.0</title></rect>
<rect x="516" y="85" width="87" height="5" fill="#00f"><title>15.0</title></rect>
<rect x="412" y="90" width="57" height="5" fill="#00f"><title>14.0</title></rect>
<rect x="110" y="95" width="240" height="5" fill="#f0f"><title>11.0</title></rect>
<rect x="162" y="100" width="28" height="5" fill="#00f"><title>10.0</title></rect>
<rect x="350" y="105" width="32" height="5" fill="#f0f"><title>8.0</title></rect>
<rect x="501" y="110" width="72" height="5" fill="#00f"><title>8.0</title></rect>
<rect x="232" y="115" width="109" height="5" fill="#f0f"><title>6.0</title></rect>
<rect x="367" y="120" width="32" height="5" fill="#00f"><title>5.0</title></rect>
<rect x="139" y="125" width="218" height="5" fill="#00f"><title>4.0</title></rect>
<rect x="335" y="130" width="238" height="5" fill="#00f"><title>4.0</title></rect>
<rect x="350" y="135" width="34" height="5" fill="#f0f"><title>4.0</title></rect>
<rect x="390" y="140" width="81" height="5" fill="#00f"><title>4.0</title></rect>
<rect x="435" y="145" width="138" height="5" fill="#00f"><title>4.0</title></rect>
<rect x="438" y="150" width="38" height="5" fill="#00f"><title>4.0</title></rect>
<rect x="119" y="155" width="231" height="5" fill="#f0f"><title>3.0</title></rect>
<rect x="160" y="160" width="449" height="5" fill="#00f"><title>3.0</title></rect>
<rect x="255" y="165" width="318" height="5" fill="#00f"><title>3.0</title></rect>
<rect x="350" y="170" width="42" height="5" fill="#f0f"><title>3.0</title></rect>
<rect x="383" y="175" width="85" height="5" fill="#00f"><title>3.0</title></rect>
<rect x="444" y="180" width="129" height="5" fill="#00f"><title>3.0</title></rect>
<rect x="483" y="185" width="90" height="5" fill="#00f"><title>3.0</title></rect>
<rect x="510" y="190" width="111" height="5" fill="#f0f"><title>3.0</title></rect>
<text x="20" y="220" class="sm">0.868</text>
<rect x="100" y="210" width="155" height="12" fill="#00f"/>
<rect x="323" y="210" width="193" height="12" fill="#00f"/>
<rect x="573" y="210" width="149" height="12" fill="#00f"/>
<line x1="255" y1="216" x2="322" y2="216" stroke="#00f"/>
<line x1="516" y1="216" x2="572" y2="216" stroke="#00f"/>
<rect x="107" y="211" width="148" height="10" fill="#ff0"/>
<rect x="324" y="211" width="192" height="10" fill="#ff0"/>
<rect x="574" y="211" width="101" height="10" fill="#ff0"/>
<text x="20" y="240" class="sm">0.07646</text>
<rect x="100" y="230" width="155" height="12" fill="#00f"/>
<rect x="323" y="230" width="399" height="12" fill="#00f"/>
<line x1="255" y1="236" x2="322" y2="236" stroke="#00f"/>
<rect x="107" y="231" width="148" height="10" fill="#ff0"/>
<rect x="324" y="231" width="249" height="10" fill="#ff0"/>
<text x="20" y="260" class="sm">0.04849</text>
<rect x="100" y="250" width="155" height="12" fill="#00f"/>
<rect x="323" y="250" width="197" height="12" fill="#00f"/>
<rect x="573" y="250" width="149" height="12" fill="#00f"/>
<line x1="255" y1="256" x2="322" y2="256" stroke="#00f"/>
<line x1="520" y1="256" x2="572" y2="256" stroke="#00f"/>
<rect x="107" y="251" width="148" height="10" fill="#ff0"/>
<rect x="324" y="251" width="196" height="10" fill="#ff0"/>
<rect x="574" y="251" width="58" height="10" fill="#ff0"/>
<text x="20" y="280" class="sm">0.004137</text>
<rect x="100" y="270" width="155" height="12" fill="#00f"/>
<rect x="357" y="270" width="159" height="12" fill="#00f"/>
<rect x="573" y="270" width="149" height="12" fill="#00f"/>
<line x1="255" y1="276" x2="356" y2="276" stroke="#00f"/>
<line x1="516" y1="276" x2="572" y2="276" stroke="#00f"/>
<rect x="513" y="271" width="3" height="10" fill="#ff0"/>
<rect x="574" y="271" width="148" height="10" fill="#ff0"/>
<text x="20" y="300" class="sm">0.0006834</text>
<rect x="100" y="290" width="155" height="12" fill="#00f"/>
<rect x="323" y="290" width="121" height="12" fill="#00f"/>
<rect x="573" y="290" width="149" height="12" fill="#00f"/>
<line x1="255" y1="296" x2="322" y2="296" stroke="#00f"/>
<line x1="444" y1="296" x2="572" y2="296" stroke="#00f"/>
<rect x="107" y="291" width="148" height="10" fill="#ff0"/>
<rect x="324" y="291" width="120" height="10" fill="#ff0"/>
<rect x="574" y="291" width="101" height="10" fill="#ff0"/>
<text x="20" y="320" class="sm">0.0004854</text>
<rect x="100" y="310" width="155" height="12" fill="#00f"/>
<rect x="348" y="310" width="168" height="12" fill="#00f"/>
<rect x="573" y="310" width="149" height="12" fill="#00f"/>
<line x1="255" y1="316" x2="347" y2="316" stroke="#00f"/>
<line x1="516" y1="316" x2="572" y2="316" stroke="#00f"/>
<rect x="358" y="311" width="158" height="10" fill="#ff0"/>
<rect x="574" y="311" width="101" height="10" fill="#ff0"/>
<text x="20" y="340" class="sm">0.0004604</text>
<rect x="100" y="330" width="155" height="12" fill="#00f"/>
<rect x="323" y="330" width="193" height="12" fill="#00f"/>
<rect x="603" y="330" width="119" height="12" fill="#00f"/>
<line x1="255" y1="336" x2="322" y2="336" stroke="#00f"/>
<line x1="516" y1="336" x2="602" y2="336" stroke="#00f"/>
<rect x="107" y="331" width="148" height="10" fill="#ff0"/>
<rect x="324" y="331" width="192" height="10" fill="#ff0"/>
<rect x="604" y="331" width="71" height="10" fill="#ff0"/>
<text x="20" y="360" class="sm">0.0003634</text>
<rect x="100" y="350" width="155" height="12" fill="#00f"/>
<rect x="357" y="350" width="365" height="12" fill="#00f"/>
<line x1="255" y1="356" x2="356" y2="356" stroke="#00f"/>
<rect x="513" y="351" width="209" height="10" fill="#ff0"/>
<text x="20" y="380" class="sm">0.0002249</text>
<rect x="100" y="370" width="155" height="12" fill="#00f"/>
<rect x="357" y="370" width="163" height="12" fill="#00f"/>
<rect x="573" y="370" width="149" height="12" fill="#00f"/>
<line x1="255" y1="376" x2="356" y2="376" stroke="#00f"/>
<line x1="520" y1="376" x2="572" y2="376" stroke="#00f"/>
<rect x="513" y="371" width="7" height="10" fill="#ff0"/>
<rect x="574" y="371" width="148" height="10" fill="#ff0"/>
<text x="20" y="400" class="sm">0.0001679</text>
<rect x="100" y="390" width="155" height="12" fill="#00f"/>
<rect x="336" y="390" width="180" height="12" fill="#00f"/>
<rect x="573" y="390" width="149" height="12" fill="#00f"/>
<line x1="255" y1="396" x2="335" y2="396" stroke="#00f"/>
<line x1="516" y1="396" x2="572" y2="396" stroke="#00f"/>
<rect x="358" y="391" width="158" height="10" fill="#ff0"/>
<rect x="574" y="391" width="101" height="10" fill="#ff0"/>
<text x="20" y="420" class="sm">0.0001146</text>
<rect x="100" y="410" width="145" height="12" fill="#00f"/>
<rect x="323" y="410" width="193" height="12" fill="#00f"/>
<rect x="573" y="410" width="149" height="12" fill="#00f"/>
<line x1="245" y1="416" x2="322" y2="416" stroke="#00f"/>
<line x1="516" y1="416" x2="572" y2="416" stroke="#00f"/>
<rect x="358" y="411" width="158" height="10" fill="#ff0"/>
<rect x="574" y="411" width="101" height="10" fill="#ff0"/>
<text x="20" y="440" class="sm">0.0001111</text>
<rect x="100" y="430" width="155" height="12" fill="#00f"/>
<rect x="323" y="430" width="193" height="12" fill="#00f"/>
<rect x="551" y="430" width="171" height="12" fill="#00f"/>
<line x1="255" y1="436" x2="322" y2="436" stroke="#00f"/>
<line x1="516" y1="436" x2="550" y2="436" stroke="#00f"/>
<rect x="107" y="431" width="148" height="10" fill="#ff0"/>
<rect x="324" y="431" width="192" height="10" fill="#ff0"/>
<rect x="552" y="431" width="80" height="10" fill="#ff0"/>
<text x="20" y="460" class="sm">8.77e-05</text>
<rect x="100" y="450" width="155" height="12" fill="#00f"/>
<rect x="323" y="450" width="197" height="12" fill="#00f"/>
<rect x="603" y="450" width="119" height="12" fill="#00f"/>
<line x1="255" y1="456" x2="322" y2="456" stroke="#00f"/>
<line x1="520" y1="456" x2="602" y2="456" stroke="#00f"/>
<rect x="107" y="451" width="148" height="10" fill="#ff0"/>
<rect x="324" y="451" width="196" height="10" fill="#ff0"/>
<rect x="604" y="451" width="1" height="10" fill="#ff0"/>
<text x="20" y="480" class="sm">4.633e-05</text>
<rect x="100" y="470" width="155" height="12" fill="#00f"/>
<rect x="323" y="470" width="121" height="12" fill="#00f"/>
<rect x="543" y="470" width="179" height="12" fill="#00f"/>
<line x1="255" y1="476" x2="322" y2="476" stroke="#00f"/>
<line x1="444" y1="476" x2="542" y2="476" stroke="#00f"/>
<rect x="107" y="471" width="148" height="10" fill="#ff0"/>
<rect x="324" y="471" width="120" height="10" fill="#ff0"/>
<rect x="544" y="471" width="29" height="10" fill="#ff0"/>
<text x="20" y="500" class="sm">4.475e-05</text>
<rect x="100" y="490" width="155" height="12" fill="#00f"/>
<rect x="348" y="490" width="374" height="12" fill="#00f"/>
<line x1="255" y1="496" x2="347" y2="496" stroke="#00f"/>
<rect x="358" y="491" width="215" height="10" fill="#ff0"/>
<text x="20" y="520" class="sm">3.83e-05</text>
<rect x="100" y="510" width="155" height="12" fill="#00f"/>
<rect x="323" y="510" width="141" height="12" fill="#00f"/>
<rect x="573" y="510" width="149" height="12" fill="#00f"/>
<line x1="255" y1="516" x2="322" y2="516" stroke="#00f"/>
<line x1="464" y1="516" x2="572" y2="516" stroke="#00f"/>
<rect x="107" y="511" width="148" height="10" fill="#ff0"/>
<rect x="324" y="511" width="140" height="10" fill="#ff0"/>
<rect x="574" y="511" width="132" height="10" fill="#ff0"/>
<text x="20" y="540" class="sm">2.68e-05</text>
<rect x="100" y="530" width="155" height="12" fill="#00f"/>
<rect x="348" y="530" width="172" height="12" fill="#00f"/>
<rect x="573" y="530" width="149" height="12" fill="#00f"/>
<line x1="255" y1="536" x2="347" y2="536" stroke="#00f"/>
<line x1="520" y1="536" x2="572" y2="536" stroke="#00f"/>
<rect x="358" y="531" width="162" height="10" fill="#ff0"/>
<rect x="574" y="531" width="58" height="10" fill="#ff0"/>
<text x="20" y="560" class="sm">1.632e-05</text>
<rect x="100" y="550" width="155" height="12" fill="#00f"/>
<rect x="336" y="550" width="386" height="12" fill="#00f"/>
<line x1="255" y1="556" x2="335" y2="556" stroke="#00f"/>
<rect x="358" y="551" width="215" height="10" fill="#ff0"/>
<text x="20" y="580" class="sm">1.219e-05</text>
<rect x="100" y="570" width="155" height="12" fill="#00f"/>
<rect x="323" y="570" width="178" height="12" fill="#00f"/>
<rect x="573" y="570" width="149" height="12" fill="#00f"/>
<line x1="255" y1="576" x2="322" y2="576" stroke="#00f"/>
<line x1="501" y1="576" x2="572" y2="576" stroke="#00f"/>
<rect x="107" y="571" width="148" height="10" fill="#ff0"/>
<rect x="324" y="571" width="177" height="10" fill="#ff0"/>
<rect x="574" y="571" width="101" height="10" fill="#ff0"/>
<text x="20" y="600" class="sm">1.01e-05</text>
<rect x="100" y="590" width="145" height="12" fill="#00f"/>
<rect x="323" y="590" width="399" height="12" fill="#00f"/>
<line x1="245" y1="596" x2="322" y2="596" stroke="#00f"/>
<rect x="358" y="591" width="215" height="10" fill="#ff0"/>
</svg>
