<svg viewBox="0 0 801 525" xmlns="http://www.w3.org/2000/svg">

<style>
  .sm { font: 12px sans-serif; }
  .lg { font: 15px sans-serif; }
</style>
<rect fill="#ddd" x="0" y="0" width="100%" height="100%"/>
<text x="20" y="20" class="lg">ch.1200 I:6741176-6741976 Gene:WBGene00020931</text>
<text x="20" y="50" class="sm">WormBase</text>
<rect x="100" y="40" width="105" height="12" fill="#00f"/>
<rect x="256" y="40" width="445" height="12" fill="#00f"/>
<line x1="205" y1="46" x2="255" y2="46" stroke="#00f"/>
<rect x="113" y="41" width="92" height="10" fill="#ff0"/>
<rect x="257" y="41" width="332" height="10" fill="#ff0"/>
<rect x="101" y="41" width="11" height="10" fill="brown"><title>.</title></rect>
<rect x="590" y="41" width="111" height="10" fill="brown"><title>.</title></rect>
<text x="20" y="70" class="sm">Fitness: 1.4651575543455079e-05</text>
<rect x="205" y="65" width="51" height="5" fill="#00f"><title>1501530.0</title></rect>
<rect x="180" y="70" width="116" height="5" fill="#00f"><title>8.0</title></rect>
<rect x="539" y="75" width="55" height="5" fill="#f0f"><title>6.0</title></rect>
<rect x="190" y="80" width="66" height="5" fill="#00f"><title>4.0</title></rect>
<rect x="411" y="85" width="180" height="5" fill="#00f"><title>3.0</title></rect>
<text x="20" y="115" class="sm">1.0</text>
<rect x="100" y="105" width="105" height="12" fill="#00f"/>
<rect x="256" y="105" width="448" height="12" fill="#00f"/>
<line x1="205" y1="111" x2="255" y2="111" stroke="#00f"/>
<rect x="113" y="106" width="92" height="10" fill="#ff0"/>
<rect x="257" y="106" width="332" height="10" fill="#ff0"/>
<text x="20" y="135" class="sm">4.752e-06</text>
<rect x="100" y="125" width="82" height="12" fill="#00f"/>
<rect x="256" y="125" width="448" height="12" fill="#00f"/>
<line x1="182" y1="131" x2="255" y2="131" stroke="#00f"/>
<rect x="141" y="126" width="41" height="10" fill="#ff0"/>
<rect x="257" y="126" width="332" height="10" fill="#ff0"/>
<text x="20" y="155" class="sm">3.273e-06</text>
<rect x="100" y="145" width="90" height="12" fill="#00f"/>
<rect x="256" y="145" width="448" height="12" fill="#00f"/>
<line x1="190" y1="151" x2="255" y2="151" stroke="#00f"/>
<rect x="113" y="146" width="77" height="10" fill="#ff0"/>
<rect x="257" y="146" width="332" height="10" fill="#ff0"/>
<text x="20" y="175" class="sm">1.109e-06</text>
<rect x="100" y="165" width="80" height="12" fill="#00f"/>
<rect x="256" y="165" width="448" height="12" fill="#00f"/>
<line x1="180" y1="171" x2="255" y2="171" stroke="#00f"/>
<rect x="380" y="166" width="209" height="10" fill="#ff0"/>
<text x="20" y="195" class="sm">1.734e-07</text>
<rect x="100" y="185" width="196" height="12" fill="#00f"/>
<rect x="338" y="185" width="366" height="12" fill="#00f"/>
<line x1="296" y1="191" x2="337" y2="191" stroke="#00f"/>
<rect x="113" y="186" width="183" height="10" fill="#ff0"/>
<rect x="339" y="186" width="250" height="10" fill="#ff0"/>
<text x="20" y="215" class="sm">6.082e-08</text>
<rect x="100" y="205" width="105" height="12" fill="#00f"/>
<rect x="293" y="205" width="411" height="12" fill="#00f"/>
<line x1="205" y1="211" x2="292" y2="211" stroke="#00f"/>
<rect x="380" y="206" width="209" height="10" fill="#ff0"/>
<text x="20" y="235" class="sm">4.873e-09</text>
<rect x="100" y="225" width="453" height="12" fill="#00f"/>
<rect x="599" y="225" width="105" height="12" fill="#00f"/>
<line x1="553" y1="231" x2="598" y2="231" stroke="#00f"/>
<rect x="113" y="226" width="440" height="10" fill="#ff0"/>
<rect x="600" y="226" width="41" height="10" fill="#ff0"/>
<text x="20" y="255" class="sm">7.343e-11</text>
<rect x="100" y="245" width="82" height="12" fill="#00f"/>
<rect x="293" y="245" width="411" height="12" fill="#00f"/>
<line x1="182" y1="251" x2="292" y2="251" stroke="#00f"/>
<rect x="380" y="246" width="209" height="10" fill="#ff0"/>
<text x="20" y="275" class="sm">2.134e-11</text>
<rect x="100" y="265" width="90" height="12" fill="#00f"/>
<rect x="293" y="265" width="411" height="12" fill="#00f"/>
<line x1="190" y1="271" x2="292" y2="271" stroke="#00f"/>
<rect x="380" y="266" width="209" height="10" fill="#ff0"/>
<text x="20" y="295" class="sm">1.864e-11</text>
<rect x="100" y="285" width="80" height="12" fill="#00f"/>
<rect x="293" y="285" width="411" height="12" fill="#00f"/>
<line x1="180" y1="291" x2="292" y2="291" stroke="#00f"/>
<rect x="141" y="286" width="39" height="10" fill="#ff0"/>
<rect x="294" y="286" width="295" height="10" fill="#ff0"/>
<text x="20" y="315" class="sm">1.604e-11</text>
<rect x="100" y="305" width="105" height="12" fill="#00f"/>
<rect x="338" y="305" width="366" height="12" fill="#00f"/>
<line x1="205" y1="311" x2="337" y2="311" stroke="#00f"/>
<rect x="113" y="306" width="92" height="10" fill="#ff0"/>
<rect x="339" y="306" width="167" height="10" fill="#ff0"/>
<text x="20" y="335" class="sm">1.404e-11</text>
<rect x="100" y="325" width="105" height="12" fill="#00f"/>
<rect x="274" y="325" width="430" height="12" fill="#00f"/>
<line x1="205" y1="331" x2="273" y2="331" stroke="#00f"/>
<rect x="113" y="326" width="92" height="10" fill="#ff0"/>
<rect x="275" y="326" width="314" height="10" fill="#ff0"/>
<text x="20" y="355" class="sm">4.344e-12</text>
<rect x="100" y="345" width="252" height="12" fill="#00f"/>
<rect x="413" y="345" width="291" height="12" fill="#00f"/>
<line x1="352" y1="351" x2="412" y2="351" stroke="#00f"/>
<rect x="113" y="346" width="239" height="10" fill="#ff0"/>
<rect x="414" y="346" width="92" height="10" fill="#ff0"/>
<text x="20" y="375" class="sm">3.233e-12</text>
<rect x="100" y="365" width="156" height="12" fill="#00f"/>
<rect x="293" y="365" width="411" height="12" fill="#00f"/>
<line x1="256" y1="371" x2="292" y2="371" stroke="#00f"/>
<rect x="380" y="366" width="209" height="10" fill="#ff0"/>
<text x="20" y="395" class="sm">8.492e-13</text>
<rect x="100" y="385" width="252" height="12" fill="#00f"/>
<rect x="419" y="385" width="285" height="12" fill="#00f"/>
<line x1="352" y1="391" x2="418" y2="391" stroke="#00f"/>
<rect x="113" y="386" width="239" height="10" fill="#ff0"/>
<rect x="420" y="386" width="86" height="10" fill="#ff0"/>
<text x="20" y="415" class="sm">8.257e-13</text>
<rect x="100" y="405" width="223" height="12" fill="#00f"/>
<rect x="368" y="405" width="336" height="12" fill="#00f"/>
<line x1="323" y1="411" x2="367" y2="411" stroke="#00f"/>
<rect x="113" y="406" width="210" height="10" fill="#ff0"/>
<rect x="369" y="406" width="220" height="10" fill="#ff0"/>
<text x="20" y="435" class="sm">4.223e-13</text>
<rect x="100" y="425" width="105" height="12" fill="#00f"/>
<rect x="302" y="425" width="402" height="12" fill="#00f"/>
<line x1="205" y1="431" x2="301" y2="431" stroke="#00f"/>
<rect x="380" y="426" width="209" height="10" fill="#ff0"/>
<text x="20" y="455" class="sm">4.074e-13</text>
<rect x="100" y="445" width="105" height="12" fill="#00f"/>
<rect x="329" y="445" width="375" height="12" fill="#00f"/>
<line x1="205" y1="451" x2="328" y2="451" stroke="#00f"/>
<rect x="113" y="446" width="92" height="10" fill="#ff0"/>
<rect x="330" y="446" width="176" height="10" fill="#ff0"/>
<text x="20" y="475" class="sm">2.645e-13</text>
<rect x="100" y="465" width="105" height="12" fill="#00f"/>
<rect x="286" y="465" width="418" height="12" fill="#00f"/>
<line x1="205" y1="471" x2="285" y2="471" stroke="#00f"/>
<rect x="113" y="466" width="92" height="10" fill="#ff0"/>
<rect x="287" y="466" width="302" height="10" fill="#ff0"/>
<text x="20" y="495" class="sm">2.389e-13</text>
<rect x="100" y="485" width="301" height="12" fill="#00f"/>
<rect x="440" y="485" width="264" height="12" fill="#00f"/>
<line x1="401" y1="491" x2="439" y2="491" stroke="#00f"/>
<rect x="113" y="486" width="288" height="10" fill="#ff0"/>
<rect x="441" y="486" width="148" height="10" fill="#ff0"/>
</svg>
