<svg viewBox="0 0 746 530" xmlns="http://www.w3.org/2000/svg">

<style>
  .sm { font: 12px sans-serif; }
  .lg { font: 15px sans-serif; }
</style>
<rect fill="#ddd" x="0" y="0" width="100%" height="100%"/>
<text x="20" y="20" class="lg">ch.1157 I:6552734-6553479 Gene:WBGene00019007</text>
<text x="20" y="50" class="sm">WormBase</text>
<rect x="102" y="40" width="64" height="12" fill="#00f"/>
<rect x="431" y="40" width="217" height="12" fill="#00f"/>
<line x1="166" y1="46" x2="430" y2="46" stroke="#00f"/>
<rect x="111" y="41" width="55" height="10" fill="#ff0"/>
<rect x="432" y="41" width="114" height="10" fill="#ff0"/>
<rect x="103" y="41" width="7" height="10" fill="brown"><title>.</title></rect>
<rect x="547" y="41" width="101" height="10" fill="brown"><title>.</title></rect>
<text x="20" y="70" class="sm">Fitness: 5.494949275108345e-06</text>
<rect x="166" y="65" width="265" height="5" fill="#00f"><title>3507470.0</title></rect>
<rect x="166" y="70" width="272" height="5" fill="#00f"><title>2369.0</title></rect>
<rect x="271" y="75" width="50" height="5" fill="#f0f"><title>67.0</title></rect>
<rect x="170" y="80" width="268" height="5" fill="#00f"><title>7.0</title></rect>
<rect x="463" y="85" width="38" height="5" fill="#f0f"><title>3.0</title></rect>
<rect x="166" y="90" width="242" height="5" fill="#00f"><title>3.0</title></rect>
<text x="20" y="120" class="sm">0.9993</text>
<rect x="100" y="110" width="66" height="12" fill="#00f"/>
<rect x="431" y="110" width="218" height="12" fill="#00f"/>
<line x1="166" y1="116" x2="430" y2="116" stroke="#00f"/>
<rect x="443" y="111" width="173" height="10" fill="#ff0"/>
<text x="20" y="140" class="sm">0.0006764</text>
<rect x="100" y="130" width="66" height="12" fill="#00f"/>
<rect x="438" y="130" width="211" height="12" fill="#00f"/>
<line x1="166" y1="136" x2="437" y2="136" stroke="#00f"/>
<rect x="111" y="131" width="55" height="10" fill="#ff0"/>
<rect x="439" y="131" width="177" height="10" fill="#ff0"/>
<text x="20" y="160" class="sm">6.592e-07</text>
<rect x="100" y="150" width="70" height="12" fill="#00f"/>
<rect x="431" y="150" width="218" height="12" fill="#00f"/>
<line x1="170" y1="156" x2="430" y2="156" stroke="#00f"/>
<rect x="443" y="151" width="173" height="10" fill="#ff0"/>
<text x="20" y="180" class="sm">3.63e-07</text>
<rect x="100" y="170" width="37" height="12" fill="#00f"/>
<rect x="431" y="170" width="218" height="12" fill="#00f"/>
<line x1="137" y1="176" x2="430" y2="176" stroke="#00f"/>
<rect x="443" y="171" width="173" height="10" fill="#ff0"/>
<text x="20" y="200" class="sm">1.012e-07</text>
<rect x="100" y="190" width="66" height="12" fill="#00f"/>
<rect x="408" y="190" width="241" height="12" fill="#00f"/>
<line x1="166" y1="196" x2="407" y2="196" stroke="#00f"/>
<rect x="410" y="191" width="206" height="10" fill="#ff0"/>
<text x="20" y="220" class="sm">3.207e-08</text>
<rect x="100" y="210" width="66" height="12" fill="#00f"/>
<rect x="360" y="210" width="289" height="12" fill="#00f"/>
<line x1="166" y1="216" x2="359" y2="216" stroke="#00f"/>
<rect x="111" y="211" width="55" height="10" fill="#ff0"/>
<rect x="361" y="211" width="255" height="10" fill="#ff0"/>
<text x="20" y="240" class="sm">4.062e-09</text>
<rect x="100" y="230" width="66" height="12" fill="#00f"/>
<rect x="448" y="230" width="201" height="12" fill="#00f"/>
<line x1="166" y1="236" x2="447" y2="236" stroke="#00f"/>
<rect x="111" y="231" width="55" height="10" fill="#ff0"/>
<rect x="449" y="231" width="42" height="10" fill="#ff0"/>
<text x="20" y="260" class="sm">1.493e-09</text>
<rect x="100" y="250" width="92" height="12" fill="#00f"/>
<rect x="431" y="250" width="218" height="12" fill="#00f"/>
<line x1="192" y1="256" x2="430" y2="256" stroke="#00f"/>
<rect x="443" y="251" width="173" height="10" fill="#ff0"/>
<text x="20" y="280" class="sm">4.485e-10</text>
<rect x="100" y="270" width="70" height="12" fill="#00f"/>
<rect x="438" y="270" width="211" height="12" fill="#00f"/>
<line x1="170" y1="276" x2="437" y2="276" stroke="#00f"/>
<rect x="443" y="271" width="173" height="10" fill="#ff0"/>
<text x="20" y="300" class="sm">2.508e-10</text>
<rect x="100" y="290" width="66" height="12" fill="#00f"/>
<rect x="325" y="290" width="324" height="12" fill="#00f"/>
<line x1="166" y1="296" x2="324" y2="296" stroke="#00f"/>
<rect x="389" y="291" width="227" height="10" fill="#ff0"/>
<text x="20" y="320" class="sm">2.489e-10</text>
<rect x="100" y="310" width="37" height="12" fill="#00f"/>
<rect x="438" y="310" width="211" height="12" fill="#00f"/>
<line x1="137" y1="316" x2="437" y2="316" stroke="#00f"/>
<rect x="443" y="311" width="173" height="10" fill="#ff0"/>
<text x="20" y="340" class="sm">2.066e-10</text>
<rect x="100" y="330" width="107" height="12" fill="#00f"/>
<rect x="431" y="330" width="218" height="12" fill="#00f"/>
<line x1="207" y1="336" x2="430" y2="336" stroke="#00f"/>
<rect x="443" y="331" width="173" height="10" fill="#ff0"/>
<text x="20" y="360" class="sm">2.005e-10</text>
<rect x="100" y="350" width="66" height="12" fill="#00f"/>
<rect x="591" y="350" width="58" height="12" fill="#00f"/>
<line x1="166" y1="356" x2="590" y2="356" stroke="#00f"/>
<rect x="111" y="351" width="55" height="10" fill="#ff0"/>
<rect x="592" y="351" width="0" height="10" fill="#ff0"/>
<text x="20" y="380" class="sm">1.476e-10</text>
<rect x="100" y="370" width="66" height="12" fill="#00f"/>
<rect x="616" y="370" width="33" height="12" fill="#00f"/>
<line x1="166" y1="376" x2="615" y2="376" stroke="#00f"/>
<rect x="111" y="371" width="55" height="10" fill="#ff0"/>
<rect x="617" y="371" width="0" height="10" fill="#ff0"/>
<text x="20" y="400" class="sm">1.331e-10</text>
<rect x="100" y="390" width="66" height="12" fill="#00f"/>
<rect x="302" y="390" width="347" height="12" fill="#00f"/>
<line x1="166" y1="396" x2="301" y2="396" stroke="#00f"/>
<rect x="389" y="391" width="227" height="10" fill="#ff0"/>
<text x="20" y="420" class="sm">3.77e-11</text>
<rect x="100" y="410" width="32" height="12" fill="#00f"/>
<rect x="431" y="410" width="218" height="12" fill="#00f"/>
<line x1="132" y1="416" x2="430" y2="416" stroke="#00f"/>
<rect x="111" y="411" width="21" height="10" fill="#ff0"/>
<rect x="432" y="411" width="184" height="10" fill="#ff0"/>
<text x="20" y="440" class="sm">3.294e-12</text>
<rect x="100" y="430" width="66" height="12" fill="#00f"/>
<rect x="431" y="430" width="101" height="12" fill="#00f"/>
<rect x="591" y="430" width="58" height="12" fill="#00f"/>
<line x1="166" y1="436" x2="430" y2="436" stroke="#00f"/>
<line x1="532" y1="436" x2="590" y2="436" stroke="#00f"/>
<rect x="111" y="431" width="55" height="10" fill="#ff0"/>
<rect x="432" y="431" width="100" height="10" fill="#ff0"/>
<rect x="592" y="431" width="7" height="10" fill="#ff0"/>
<text x="20" y="460" class="sm">2.203e-12</text>
<rect x="100" y="450" width="66" height="12" fill="#00f"/>
<rect x="431" y="450" width="101" height="12" fill="#00f"/>
<rect x="616" y="450" width="33" height="12" fill="#00f"/>
<line x1="166" y1="456" x2="430" y2="456" stroke="#00f"/>
<line x1="532" y1="456" x2="615" y2="456" stroke="#00f"/>
<rect x="492" y="451" width="40" height="10" fill="#ff0"/>
<rect x="617" y="451" width="18" height="10" fill="#ff0"/>
<text x="20" y="480" class="sm">1.027e-12</text>
<rect x="100" y="470" width="92" height="12" fill="#00f"/>
<rect x="438" y="470" width="211" height="12" fill="#00f"/>
<line x1="192" y1="476" x2="437" y2="476" stroke="#00f"/>
<rect x="443" y="471" width="173" height="10" fill="#ff0"/>
<text x="20" y="500" class="sm">4.043e-13</text>
<rect x="100" y="490" width="66" height="12" fill="#00f"/>
<rect x="457" y="490" width="192" height="12" fill="#00f"/>
<line x1="166" y1="496" x2="456" y2="496" stroke="#00f"/>
<rect x="492" y="491" width="59" height="10" fill="#ff0"/>
</svg>
