<svg viewBox="0 0 684 515" xmlns="http://www.w3.org/2000/svg">

<style>
  .sm { font: 12px sans-serif; }
  .lg { font: 15px sans-serif; }
</style>
<rect fill="#ddd" x="0" y="0" width="100%" height="100%"/>
<text x="20" y="20" class="lg">ch.14065 V:7052617-7053300 Gene:WBGene00017621</text>
<text x="20" y="50" class="sm">WormBase</text>
<rect x="102" y="40" width="76" height="12" fill="#00f"/>
<rect x="230" y="40" width="356" height="12" fill="#00f"/>
<line x1="178" y1="46" x2="229" y2="46" stroke="#00f"/>
<rect x="106" y="41" width="72" height="10" fill="#ff0"/>
<rect x="231" y="41" width="274" height="10" fill="#ff0"/>
<rect x="103" y="41" width="2" height="10" fill="brown"><title>.</title></rect>
<rect x="506" y="41" width="80" height="10" fill="brown"><title>.</title></rect>
<text x="20" y="70" class="sm">Fitness: 1.2970981749856723e-05</text>
<rect x="178" y="65" width="52" height="5" fill="#00f"><title>462516.0</title></rect>
<rect x="175" y="70" width="55" height="5" fill="#00f"><title>52.0</title></rect>
<rect x="370" y="75" width="99" height="5" fill="#00f"><title>3.0</title></rect>
<text x="20" y="105" class="sm">0.9999</text>
<rect x="100" y="95" width="78" height="12" fill="#00f"/>
<rect x="230" y="95" width="357" height="12" fill="#00f"/>
<line x1="178" y1="101" x2="229" y2="101" stroke="#00f"/>
<rect x="106" y="96" width="72" height="10" fill="#ff0"/>
<rect x="231" y="96" width="274" height="10" fill="#ff0"/>
<text x="20" y="125" class="sm">0.0001178</text>
<rect x="100" y="115" width="75" height="12" fill="#00f"/>
<rect x="230" y="115" width="357" height="12" fill="#00f"/>
<line x1="175" y1="121" x2="229" y2="121" stroke="#00f"/>
<rect x="106" y="116" width="69" height="10" fill="#ff0"/>
<rect x="231" y="116" width="274" height="10" fill="#ff0"/>
<text x="20" y="145" class="sm">4.694e-07</text>
<rect x="100" y="135" width="65" height="12" fill="#00f"/>
<rect x="230" y="135" width="357" height="12" fill="#00f"/>
<line x1="165" y1="141" x2="229" y2="141" stroke="#00f"/>
<rect x="399" y="136" width="170" height="10" fill="#ff0"/>
<text x="20" y="165" class="sm">4.378e-08</text>
<rect x="100" y="155" width="78" height="12" fill="#00f"/>
<rect x="497" y="155" width="90" height="12" fill="#00f"/>
<line x1="178" y1="161" x2="496" y2="161" stroke="#00f"/>
<rect x="152" y="156" width="26" height="10" fill="#ff0"/>
<rect x="498" y="156" width="71" height="10" fill="#ff0"/>
<text x="20" y="185" class="sm">1.58e-08</text>
<rect x="100" y="175" width="138" height="12" fill="#00f"/>
<rect x="497" y="175" width="90" height="12" fill="#00f"/>
<line x1="238" y1="181" x2="496" y2="181" stroke="#00f"/>
<rect x="106" y="176" width="101" height="10" fill="#ff0"/>
<text x="20" y="205" class="sm">3.806e-09</text>
<rect x="100" y="195" width="41" height="12" fill="#00f"/>
<rect x="230" y="195" width="357" height="12" fill="#00f"/>
<line x1="141" y1="201" x2="229" y2="201" stroke="#00f"/>
<rect x="399" y="196" width="170" height="10" fill="#ff0"/>
<text x="20" y="225" class="sm">2.099e-09</text>
<rect x="100" y="215" width="26" height="12" fill="#00f"/>
<rect x="230" y="215" width="357" height="12" fill="#00f"/>
<line x1="126" y1="221" x2="229" y2="221" stroke="#00f"/>
<rect x="399" y="216" width="170" height="10" fill="#ff0"/>
<text x="20" y="245" class="sm">1.012e-09</text>
<rect x="100" y="235" width="138" height="12" fill="#00f"/>
<rect x="287" y="235" width="300" height="12" fill="#00f"/>
<line x1="238" y1="241" x2="286" y2="241" stroke="#00f"/>
<rect x="399" y="236" width="170" height="10" fill="#ff0"/>
<text x="20" y="265" class="sm">6.449e-10</text>
<rect x="100" y="255" width="78" height="12" fill="#00f"/>
<rect x="463" y="255" width="124" height="12" fill="#00f"/>
<line x1="178" y1="261" x2="462" y2="261" stroke="#00f"/>
<rect x="106" y="256" width="72" height="10" fill="#ff0"/>
<rect x="464" y="256" width="52" height="10" fill="#ff0"/>
<text x="20" y="285" class="sm">4.627e-10</text>
<rect x="100" y="275" width="78" height="12" fill="#00f"/>
<rect x="478" y="275" width="109" height="12" fill="#00f"/>
<line x1="178" y1="281" x2="477" y2="281" stroke="#00f"/>
<rect x="106" y="276" width="72" height="10" fill="#ff0"/>
<rect x="479" y="276" width="37" height="10" fill="#ff0"/>
<text x="20" y="305" class="sm">3.73e-10</text>
<rect x="100" y="295" width="78" height="12" fill="#00f"/>
<rect x="412" y="295" width="175" height="12" fill="#00f"/>
<line x1="178" y1="301" x2="411" y2="301" stroke="#00f"/>
<rect x="441" y="296" width="128" height="10" fill="#ff0"/>
<text x="20" y="325" class="sm">3.713e-10</text>
<rect x="100" y="315" width="78" height="12" fill="#00f"/>
<rect x="379" y="315" width="208" height="12" fill="#00f"/>
<line x1="178" y1="321" x2="378" y2="321" stroke="#00f"/>
<rect x="399" y="316" width="170" height="10" fill="#ff0"/>
<text x="20" y="345" class="sm">3.596e-10</text>
<rect x="100" y="335" width="78" height="12" fill="#00f"/>
<rect x="388" y="335" width="199" height="12" fill="#00f"/>
<line x1="178" y1="341" x2="387" y2="341" stroke="#00f"/>
<rect x="399" y="336" width="170" height="10" fill="#ff0"/>
<text x="20" y="365" class="sm">1.966e-10</text>
<rect x="100" y="355" width="270" height="12" fill="#00f"/>
<rect x="412" y="355" width="175" height="12" fill="#00f"/>
<line x1="370" y1="361" x2="411" y2="361" stroke="#00f"/>
<rect x="441" y="356" width="128" height="10" fill="#ff0"/>
<text x="20" y="385" class="sm">1.713e-10</text>
<rect x="100" y="375" width="78" height="12" fill="#00f"/>
<rect x="337" y="375" width="250" height="12" fill="#00f"/>
<line x1="178" y1="381" x2="336" y2="381" stroke="#00f"/>
<rect x="152" y="376" width="26" height="10" fill="#ff0"/>
<rect x="338" y="376" width="167" height="10" fill="#ff0"/>
<text x="20" y="405" class="sm">1.477e-10</text>
<rect x="100" y="395" width="138" height="12" fill="#00f"/>
<rect x="379" y="395" width="208" height="12" fill="#00f"/>
<line x1="238" y1="401" x2="378" y2="401" stroke="#00f"/>
<rect x="399" y="396" width="170" height="10" fill="#ff0"/>
<text x="20" y="425" class="sm">1.463e-10</text>
<rect x="100" y="415" width="138" height="12" fill="#00f"/>
<rect x="463" y="415" width="124" height="12" fill="#00f"/>
<line x1="238" y1="421" x2="462" y2="421" stroke="#00f"/>
<rect x="106" y="416" width="101" height="10" fill="#ff0"/>
<text x="20" y="445" class="sm">1.241e-10</text>
<rect x="100" y="435" width="209" height="12" fill="#00f"/>
<rect x="497" y="435" width="90" height="12" fill="#00f"/>
<line x1="309" y1="441" x2="496" y2="441" stroke="#00f"/>
<rect x="106" y="436" width="101" height="10" fill="#ff0"/>
<text x="20" y="465" class="sm">1.229e-10</text>
<rect x="100" y="455" width="270" height="12" fill="#00f"/>
<rect x="497" y="455" width="90" height="12" fill="#00f"/>
<line x1="370" y1="461" x2="496" y2="461" stroke="#00f"/>
<rect x="106" y="456" width="101" height="10" fill="#ff0"/>
<text x="20" y="485" class="sm">1.002e-10</text>
<rect x="100" y="475" width="138" height="12" fill="#00f"/>
<rect x="478" y="475" width="109" height="12" fill="#00f"/>
<line x1="238" y1="481" x2="477" y2="481" stroke="#00f"/>
<rect x="106" y="476" width="101" height="10" fill="#ff0"/>
</svg>
