<svg viewBox="0 0 721 540" xmlns="http://www.w3.org/2000/svg">

<style>
  .sm { font: 12px sans-serif; }
  .lg { font: 15px sans-serif; }
</style>
<rect fill="#ddd" x="0" y="0" width="100%" height="100%"/>
<text x="20" y="20" class="lg">ch.17917 X:2577642-2578362 Gene:WBGene00045268</text>
<text x="20" y="50" class="sm">WormBase</text>
<rect x="100" y="40" width="163" height="12" fill="#00f"/>
<rect x="305" y="40" width="316" height="12" fill="#00f"/>
<line x1="263" y1="46" x2="304" y2="46" stroke="#00f"/>
<rect x="110" y="41" width="153" height="10" fill="#ff0"/>
<rect x="306" y="41" width="265" height="10" fill="#ff0"/>
<rect x="101" y="41" width="8" height="10" fill="brown"><title>.</title></rect>
<rect x="572" y="41" width="49" height="10" fill="brown"><title>.</title></rect>
<text x="20" y="70" class="sm">Fitness: 0.007490785312781054</text>
<rect x="263" y="65" width="42" height="5" fill="#00f"><title>293210.0</title></rect>
<rect x="386" y="70" width="46" height="5" fill="#00f"><title>1343.0</title></rect>
<rect x="263" y="75" width="57" height="5" fill="#00f"><title>774.0</title></rect>
<rect x="203" y="80" width="102" height="5" fill="#00f"><title>52.0</title></rect>
<rect x="263" y="85" width="36" height="5" fill="#00f"><title>29.0</title></rect>
<rect x="263" y="90" width="78" height="5" fill="#00f"><title>15.0</title></rect>
<rect x="267" y="95" width="43" height="5" fill="#00f"><title>11.0</title></rect>
<rect x="263" y="100" width="47" height="5" fill="#00f"><title>7.0</title></rect>
<text x="20" y="130" class="sm">0.9923</text>
<rect x="100" y="120" width="163" height="12" fill="#00f"/>
<rect x="305" y="120" width="319" height="12" fill="#00f"/>
<line x1="263" y1="126" x2="304" y2="126" stroke="#00f"/>
<rect x="110" y="121" width="153" height="10" fill="#ff0"/>
<rect x="306" y="121" width="265" height="10" fill="#ff0"/>
<text x="20" y="150" class="sm">0.003455</text>
<rect x="100" y="140" width="163" height="12" fill="#00f"/>
<rect x="305" y="140" width="81" height="12" fill="#00f"/>
<rect x="432" y="140" width="192" height="12" fill="#00f"/>
<line x1="263" y1="146" x2="304" y2="146" stroke="#00f"/>
<line x1="386" y1="146" x2="431" y2="146" stroke="#00f"/>
<rect x="110" y="141" width="153" height="10" fill="#ff0"/>
<rect x="306" y="141" width="80" height="10" fill="#ff0"/>
<rect x="433" y="141" width="49" height="10" fill="#ff0"/>
<text x="20" y="170" class="sm">0.001501</text>
<rect x="100" y="160" width="163" height="12" fill="#00f"/>
<rect x="305" y="160" width="208" height="12" fill="#00f"/>
<rect x="562" y="160" width="62" height="12" fill="#00f"/>
<line x1="263" y1="166" x2="304" y2="166" stroke="#00f"/>
<line x1="513" y1="166" x2="561" y2="166" stroke="#00f"/>
<rect x="110" y="161" width="153" height="10" fill="#ff0"/>
<rect x="306" y="161" width="207" height="10" fill="#ff0"/>
<rect x="563" y="161" width="18" height="10" fill="#ff0"/>
<text x="20" y="190" class="sm">0.0009496</text>
<rect x="100" y="180" width="163" height="12" fill="#00f"/>
<rect x="305" y="180" width="215" height="12" fill="#00f"/>
<rect x="562" y="180" width="62" height="12" fill="#00f"/>
<line x1="263" y1="186" x2="304" y2="186" stroke="#00f"/>
<line x1="520" y1="186" x2="561" y2="186" stroke="#00f"/>
<rect x="110" y="181" width="153" height="10" fill="#ff0"/>
<rect x="306" y="181" width="214" height="10" fill="#ff0"/>
<rect x="563" y="181" width="8" height="10" fill="#ff0"/>
<text x="20" y="210" class="sm">0.0009233</text>
<rect x="100" y="200" width="167" height="12" fill="#00f"/>
<rect x="305" y="200" width="319" height="12" fill="#00f"/>
<line x1="267" y1="206" x2="304" y2="206" stroke="#00f"/>
<rect x="329" y="201" width="242" height="10" fill="#ff0"/>
<text x="20" y="230" class="sm">0.0003304</text>
<rect x="100" y="220" width="286" height="12" fill="#00f"/>
<rect x="432" y="220" width="192" height="12" fill="#00f"/>
<line x1="386" y1="226" x2="431" y2="226" stroke="#00f"/>
<rect x="306" y="221" width="80" height="10" fill="#ff0"/>
<rect x="433" y="221" width="98" height="10" fill="#ff0"/>
<text x="20" y="250" class="sm">0.0001821</text>
<rect x="100" y="240" width="163" height="12" fill="#00f"/>
<rect x="310" y="240" width="314" height="12" fill="#00f"/>
<line x1="263" y1="246" x2="309" y2="246" stroke="#00f"/>
<rect x="329" y="241" width="242" height="10" fill="#ff0"/>
<text x="20" y="270" class="sm">0.0001109</text>
<rect x="100" y="260" width="163" height="12" fill="#00f"/>
<rect x="320" y="260" width="304" height="12" fill="#00f"/>
<line x1="263" y1="266" x2="319" y2="266" stroke="#00f"/>
<rect x="110" y="261" width="153" height="10" fill="#ff0"/>
<rect x="321" y="261" width="250" height="10" fill="#ff0"/>
<text x="20" y="290" class="sm">8.939e-05</text>
<rect x="100" y="280" width="413" height="12" fill="#00f"/>
<rect x="562" y="280" width="62" height="12" fill="#00f"/>
<line x1="513" y1="286" x2="561" y2="286" stroke="#00f"/>
<rect x="329" y="281" width="184" height="10" fill="#ff0"/>
<rect x="563" y="281" width="18" height="10" fill="#ff0"/>
<text x="20" y="310" class="sm">5.452e-05</text>
<rect x="100" y="300" width="420" height="12" fill="#00f"/>
<rect x="562" y="300" width="62" height="12" fill="#00f"/>
<line x1="520" y1="306" x2="561" y2="306" stroke="#00f"/>
<rect x="329" y="301" width="191" height="10" fill="#ff0"/>
<rect x="563" y="301" width="8" height="10" fill="#ff0"/>
<text x="20" y="330" class="sm">3.038e-05</text>
<rect x="100" y="320" width="163" height="12" fill="#00f"/>
<rect x="305" y="320" width="173" height="12" fill="#00f"/>
<rect x="536" y="320" width="88" height="12" fill="#00f"/>
<line x1="263" y1="326" x2="304" y2="326" stroke="#00f"/>
<line x1="478" y1="326" x2="535" y2="326" stroke="#00f"/>
<rect x="110" y="321" width="153" height="10" fill="#ff0"/>
<rect x="306" y="321" width="172" height="10" fill="#ff0"/>
<rect x="537" y="321" width="44" height="10" fill="#ff0"/>
<text x="20" y="350" class="sm">2.692e-05</text>
<rect x="100" y="340" width="167" height="12" fill="#00f"/>
<rect x="320" y="340" width="304" height="12" fill="#00f"/>
<line x1="267" y1="346" x2="319" y2="346" stroke="#00f"/>
<rect x="329" y="341" width="242" height="10" fill="#ff0"/>
<text x="20" y="370" class="sm">6.468e-06</text>
<rect x="100" y="360" width="163" height="12" fill="#00f"/>
<rect x="305" y="360" width="199" height="12" fill="#00f"/>
<rect x="562" y="360" width="62" height="12" fill="#00f"/>
<line x1="263" y1="366" x2="304" y2="366" stroke="#00f"/>
<line x1="504" y1="366" x2="561" y2="366" stroke="#00f"/>
<rect x="110" y="361" width="153" height="10" fill="#ff0"/>
<rect x="306" y="361" width="198" height="10" fill="#ff0"/>
<rect x="563" y="361" width="18" height="10" fill="#ff0"/>
<text x="20" y="390" class="sm">4.323e-06</text>
<rect x="100" y="380" width="163" height="12" fill="#00f"/>
<rect x="305" y="380" width="193" height="12" fill="#00f"/>
<rect x="536" y="380" width="88" height="12" fill="#00f"/>
<line x1="263" y1="386" x2="304" y2="386" stroke="#00f"/>
<line x1="498" y1="386" x2="535" y2="386" stroke="#00f"/>
<rect x="110" y="381" width="153" height="10" fill="#ff0"/>
<rect x="306" y="381" width="192" height="10" fill="#ff0"/>
<rect x="537" y="381" width="24" height="10" fill="#ff0"/>
<text x="20" y="410" class="sm">3.307e-06</text>
<rect x="100" y="400" width="167" height="12" fill="#00f"/>
<rect x="310" y="400" width="314" height="12" fill="#00f"/>
<line x1="267" y1="406" x2="309" y2="406" stroke="#00f"/>
<rect x="329" y="401" width="242" height="10" fill="#ff0"/>
<text x="20" y="430" class="sm">3.214e-06</text>
<rect x="100" y="420" width="167" height="12" fill="#00f"/>
<rect x="305" y="420" width="81" height="12" fill="#00f"/>
<rect x="432" y="420" width="192" height="12" fill="#00f"/>
<line x1="267" y1="426" x2="304" y2="426" stroke="#00f"/>
<line x1="386" y1="426" x2="431" y2="426" stroke="#00f"/>
<rect x="519" y="421" width="105" height="10" fill="#ff0"/>
<text x="20" y="450" class="sm">3.072e-06</text>
<rect x="100" y="440" width="163" height="12" fill="#00f"/>
<rect x="305" y="440" width="102" height="12" fill="#00f"/>
<rect x="461" y="440" width="163" height="12" fill="#00f"/>
<line x1="263" y1="446" x2="304" y2="446" stroke="#00f"/>
<line x1="407" y1="446" x2="460" y2="446" stroke="#00f"/>
<rect x="110" y="441" width="153" height="10" fill="#ff0"/>
<rect x="306" y="441" width="101" height="10" fill="#ff0"/>
<rect x="462" y="441" width="109" height="10" fill="#ff0"/>
<text x="20" y="470" class="sm">2.608e-06</text>
<rect x="100" y="460" width="163" height="12" fill="#00f"/>
<rect x="305" y="460" width="81" height="12" fill="#00f"/>
<rect x="432" y="460" width="81" height="12" fill="#00f"/>
<rect x="562" y="460" width="62" height="12" fill="#00f"/>
<line x1="263" y1="466" x2="304" y2="466" stroke="#00f"/>
<line x1="386" y1="466" x2="431" y2="466" stroke="#00f"/>
<line x1="513" y1="466" x2="561" y2="466" stroke="#00f"/>
<rect x="110" y="461" width="153" height="10" fill="#ff0"/>
<rect x="306" y="461" width="80" height="10" fill="#ff0"/>
<rect x="433" y="461" width="49" height="10" fill="#ff0"/>
<text x="20" y="490" class="sm">2.152e-06</text>
<rect x="100" y="480" width="163" height="12" fill="#00f"/>
<rect x="305" y="480" width="81" height="12" fill="#00f"/>
<rect x="432" y="480" width="88" height="12" fill="#00f"/>
<rect x="562" y="480" width="62" height="12" fill="#00f"/>
<line x1="263" y1="486" x2="304" y2="486" stroke="#00f"/>
<line x1="386" y1="486" x2="431" y2="486" stroke="#00f"/>
<line x1="520" y1="486" x2="561" y2="486" stroke="#00f"/>
<rect x="110" y="481" width="153" height="10" fill="#ff0"/>
<rect x="306" y="481" width="80" height="10" fill="#ff0"/>
<rect x="433" y="481" width="49" height="10" fill="#ff0"/>
<text x="20" y="510" class="sm">1.965e-06</text>
<rect x="100" y="500" width="378" height="12" fill="#00f"/>
<rect x="536" y="500" width="88" height="12" fill="#00f"/>
<line x1="478" y1="506" x2="535" y2="506" stroke="#00f"/>
<rect x="306" y="501" width="172" height="10" fill="#ff0"/>
<rect x="537" y="501" width="24" height="10" fill="#ff0"/>
</svg>
