<svg viewBox="0 0 870 565" xmlns="http://www.w3.org/2000/svg">

<style>
  .sm { font: 12px sans-serif; }
  .lg { font: 15px sans-serif; }
</style>
<rect fill="#ddd" x="0" y="0" width="100%" height="100%"/>
<text x="20" y="20" class="lg">ch.13612 V:4911612-4912481 Gene:WBGene00019236</text>
<text x="20" y="50" class="sm">WormBase</text>
<rect x="102" y="40" width="140" height="12" fill="#00f"/>
<rect x="464" y="40" width="125" height="12" fill="#00f"/>
<rect x="636" y="40" width="136" height="12" fill="#00f"/>
<line x1="242" y1="46" x2="463" y2="46" stroke="#00f"/>
<line x1="589" y1="46" x2="635" y2="46" stroke="#00f"/>
<rect x="104" y="41" width="138" height="10" fill="#ff0"/>
<rect x="465" y="41" width="124" height="10" fill="#ff0"/>
<rect x="637" y="41" width="62" height="10" fill="#ff0"/>
<rect x="103" y="41" width="0" height="10" fill="brown"><title>.</title></rect>
<rect x="700" y="41" width="72" height="10" fill="brown"><title>.</title></rect>
<text x="20" y="70" class="sm">Fitness: 0.0025645306088581377</text>
<rect x="589" y="65" width="47" height="5" fill="#00f"><title>771854.0</title></rect>
<rect x="242" y="70" width="222" height="5" fill="#00f"><title>768341.0</title></rect>
<rect x="242" y="75" width="213" height="5" fill="#00f"><title>301.0</title></rect>
<rect x="715" y="80" width="102" height="5" fill="#00f"><title>64.0</title></rect>
<rect x="593" y="85" width="43" height="5" fill="#00f"><title>46.0</title></rect>
<rect x="582" y="90" width="247" height="5" fill="#f0f"><title>21.0</title></rect>
<rect x="242" y="95" width="228" height="5" fill="#00f"><title>13.0</title></rect>
<rect x="653" y="100" width="176" height="5" fill="#f0f"><title>11.0</title></rect>
<rect x="246" y="105" width="224" height="5" fill="#00f"><title>10.0</title></rect>
<rect x="30" y="110" width="86" height="5" fill="#f0f"><title>6.0</title></rect>
<rect x="572" y="115" width="64" height="5" fill="#00f"><title>4.0</title></rect>
<rect x="30" y="120" width="799" height="5" fill="#f0f"><title>3.0</title></rect>
<rect x="695" y="125" width="122" height="5" fill="#f0f"><title>3.0</title></rect>
<text x="20" y="155" class="sm">0.9987</text>
<rect x="100" y="145" width="142" height="12" fill="#00f"/>
<rect x="464" y="145" width="125" height="12" fill="#00f"/>
<rect x="636" y="145" width="137" height="12" fill="#00f"/>
<line x1="242" y1="151" x2="463" y2="151" stroke="#00f"/>
<line x1="589" y1="151" x2="635" y2="151" stroke="#00f"/>
<rect x="104" y="146" width="138" height="10" fill="#ff0"/>
<rect x="465" y="146" width="124" height="10" fill="#ff0"/>
<rect x="637" y="146" width="62" height="10" fill="#ff0"/>
<text x="20" y="175" class="sm">0.0005976</text>
<rect x="100" y="165" width="142" height="12" fill="#00f"/>
<rect x="442" y="165" width="147" height="12" fill="#00f"/>
<rect x="636" y="165" width="137" height="12" fill="#00f"/>
<line x1="242" y1="171" x2="441" y2="171" stroke="#00f"/>
<line x1="589" y1="171" x2="635" y2="171" stroke="#00f"/>
<rect x="104" y="166" width="138" height="10" fill="#ff0"/>
<rect x="443" y="166" width="94" height="10" fill="#ff0"/>
<text x="20" y="195" class="sm">0.0004734</text>
<rect x="100" y="185" width="142" height="12" fill="#00f"/>
<rect x="497" y="185" width="92" height="12" fill="#00f"/>
<rect x="636" y="185" width="137" height="12" fill="#00f"/>
<line x1="242" y1="191" x2="496" y2="191" stroke="#00f"/>
<line x1="589" y1="191" x2="635" y2="191" stroke="#00f"/>
<rect x="104" y="186" width="138" height="10" fill="#ff0"/>
<rect x="498" y="186" width="91" height="10" fill="#ff0"/>
<rect x="637" y="186" width="62" height="10" fill="#ff0"/>
<text x="20" y="215" class="sm">0.0001644</text>
<rect x="100" y="205" width="158" height="12" fill="#00f"/>
<rect x="464" y="205" width="125" height="12" fill="#00f"/>
<rect x="636" y="205" width="137" height="12" fill="#00f"/>
<line x1="258" y1="211" x2="463" y2="211" stroke="#00f"/>
<line x1="589" y1="211" x2="635" y2="211" stroke="#00f"/>
<rect x="104" y="206" width="154" height="10" fill="#ff0"/>
<rect x="465" y="206" width="72" height="10" fill="#ff0"/>
<text x="20" y="235" class="sm">7.066e-05</text>
<rect x="100" y="225" width="163" height="12" fill="#00f"/>
<rect x="464" y="225" width="125" height="12" fill="#00f"/>
<rect x="636" y="225" width="137" height="12" fill="#00f"/>
<line x1="263" y1="231" x2="463" y2="231" stroke="#00f"/>
<line x1="589" y1="231" x2="635" y2="231" stroke="#00f"/>
<rect x="104" y="226" width="158" height="10" fill="#ff0"/>
<text x="20" y="255" class="sm">4.042e-06</text>
<rect x="100" y="245" width="146" height="12" fill="#00f"/>
<rect x="464" y="245" width="125" height="12" fill="#00f"/>
<rect x="636" y="245" width="137" height="12" fill="#00f"/>
<line x1="246" y1="251" x2="463" y2="251" stroke="#00f"/>
<line x1="589" y1="251" x2="635" y2="251" stroke="#00f"/>
<rect x="104" y="246" width="142" height="10" fill="#ff0"/>
<rect x="465" y="246" width="72" height="10" fill="#ff0"/>
<text x="20" y="275" class="sm">3.444e-06</text>
<rect x="100" y="265" width="92" height="12" fill="#00f"/>
<rect x="464" y="265" width="125" height="12" fill="#00f"/>
<rect x="636" y="265" width="137" height="12" fill="#00f"/>
<line x1="192" y1="271" x2="463" y2="271" stroke="#00f"/>
<line x1="589" y1="271" x2="635" y2="271" stroke="#00f"/>
<rect x="139" y="266" width="53" height="10" fill="#ff0"/>
<rect x="465" y="266" width="124" height="10" fill="#ff0"/>
<rect x="637" y="266" width="75" height="10" fill="#ff0"/>
<text x="20" y="295" class="sm">1.854e-06</text>
<rect x="100" y="285" width="56" height="12" fill="#00f"/>
<rect x="464" y="285" width="125" height="12" fill="#00f"/>
<rect x="636" y="285" width="137" height="12" fill="#00f"/>
<line x1="156" y1="291" x2="463" y2="291" stroke="#00f"/>
<line x1="589" y1="291" x2="635" y2="291" stroke="#00f"/>
<rect x="139" y="286" width="17" height="10" fill="#ff0"/>
<rect x="465" y="286" width="124" height="10" fill="#ff0"/>
<rect x="637" y="286" width="75" height="10" fill="#ff0"/>
<text x="20" y="315" class="sm">4.79e-07</text>
<rect x="100" y="305" width="142" height="12" fill="#00f"/>
<rect x="464" y="305" width="108" height="12" fill="#00f"/>
<rect x="636" y="305" width="137" height="12" fill="#00f"/>
<line x1="242" y1="311" x2="463" y2="311" stroke="#00f"/>
<line x1="572" y1="311" x2="635" y2="311" stroke="#00f"/>
<rect x="104" y="306" width="138" height="10" fill="#ff0"/>
<rect x="465" y="306" width="107" height="10" fill="#ff0"/>
<rect x="637" y="306" width="22" height="10" fill="#ff0"/>
<text x="20" y="335" class="sm">2.97e-07</text>
<rect x="100" y="325" width="198" height="12" fill="#00f"/>
<rect x="464" y="325" width="125" height="12" fill="#00f"/>
<rect x="636" y="325" width="137" height="12" fill="#00f"/>
<line x1="298" y1="331" x2="463" y2="331" stroke="#00f"/>
<line x1="589" y1="331" x2="635" y2="331" stroke="#00f"/>
<rect x="104" y="326" width="158" height="10" fill="#ff0"/>
<text x="20" y="355" class="sm">2.806e-07</text>
<rect x="100" y="345" width="142" height="12" fill="#00f"/>
<rect x="470" y="345" width="119" height="12" fill="#00f"/>
<rect x="636" y="345" width="137" height="12" fill="#00f"/>
<line x1="242" y1="351" x2="469" y2="351" stroke="#00f"/>
<line x1="589" y1="351" x2="635" y2="351" stroke="#00f"/>
<rect x="104" y="346" width="138" height="10" fill="#ff0"/>
<rect x="471" y="346" width="118" height="10" fill="#ff0"/>
<rect x="637" y="346" width="62" height="10" fill="#ff0"/>
<text x="20" y="375" class="sm">2.056e-07</text>
<rect x="100" y="365" width="142" height="12" fill="#00f"/>
<rect x="464" y="365" width="129" height="12" fill="#00f"/>
<rect x="636" y="365" width="137" height="12" fill="#00f"/>
<line x1="242" y1="371" x2="463" y2="371" stroke="#00f"/>
<line x1="593" y1="371" x2="635" y2="371" stroke="#00f"/>
<rect x="104" y="366" width="138" height="10" fill="#ff0"/>
<rect x="465" y="366" width="128" height="10" fill="#ff0"/>
<rect x="637" y="366" width="22" height="10" fill="#ff0"/>
<text x="20" y="395" class="sm">1.983e-07</text>
<rect x="100" y="385" width="142" height="12" fill="#00f"/>
<rect x="464" y="385" width="125" height="12" fill="#00f"/>
<rect x="664" y="385" width="109" height="12" fill="#00f"/>
<line x1="242" y1="391" x2="463" y2="391" stroke="#00f"/>
<line x1="589" y1="391" x2="663" y2="391" stroke="#00f"/>
<rect x="104" y="386" width="138" height="10" fill="#ff0"/>
<rect x="465" y="386" width="124" height="10" fill="#ff0"/>
<rect x="665" y="386" width="47" height="10" fill="#ff0"/>
<text x="20" y="415" class="sm">1.816e-07</text>
<rect x="100" y="405" width="158" height="12" fill="#00f"/>
<rect x="442" y="405" width="147" height="12" fill="#00f"/>
<rect x="636" y="405" width="137" height="12" fill="#00f"/>
<line x1="258" y1="411" x2="441" y2="411" stroke="#00f"/>
<line x1="589" y1="411" x2="635" y2="411" stroke="#00f"/>
<rect x="104" y="406" width="154" height="10" fill="#ff0"/>
<rect x="443" y="406" width="146" height="10" fill="#ff0"/>
<rect x="637" y="406" width="75" height="10" fill="#ff0"/>
<text x="20" y="435" class="sm">1.659e-07</text>
<rect x="100" y="425" width="212" height="12" fill="#00f"/>
<rect x="464" y="425" width="125" height="12" fill="#00f"/>
<rect x="636" y="425" width="137" height="12" fill="#00f"/>
<line x1="312" y1="431" x2="463" y2="431" stroke="#00f"/>
<line x1="589" y1="431" x2="635" y2="431" stroke="#00f"/>
<rect x="104" y="426" width="158" height="10" fill="#ff0"/>
<text x="20" y="455" class="sm">1.427e-07</text>
<rect x="100" y="445" width="158" height="12" fill="#00f"/>
<rect x="497" y="445" width="92" height="12" fill="#00f"/>
<rect x="636" y="445" width="137" height="12" fill="#00f"/>
<line x1="258" y1="451" x2="496" y2="451" stroke="#00f"/>
<line x1="589" y1="451" x2="635" y2="451" stroke="#00f"/>
<rect x="104" y="446" width="154" height="10" fill="#ff0"/>
<rect x="498" y="446" width="39" height="10" fill="#ff0"/>
<text x="20" y="475" class="sm">1.226e-07</text>
<rect x="100" y="465" width="40" height="12" fill="#00f"/>
<rect x="193" y="465" width="49" height="12" fill="#00f"/>
<rect x="464" y="465" width="125" height="12" fill="#00f"/>
<rect x="636" y="465" width="137" height="12" fill="#00f"/>
<line x1="140" y1="471" x2="192" y2="471" stroke="#00f"/>
<line x1="242" y1="471" x2="463" y2="471" stroke="#00f"/>
<line x1="589" y1="471" x2="635" y2="471" stroke="#00f"/>
<rect x="222" y="466" width="20" height="10" fill="#ff0"/>
<rect x="465" y="466" width="124" height="10" fill="#ff0"/>
<rect x="637" y="466" width="75" height="10" fill="#ff0"/>
<text x="20" y="495" class="sm">1.13e-07</text>
<rect x="100" y="485" width="142" height="12" fill="#00f"/>
<rect x="455" y="485" width="134" height="12" fill="#00f"/>
<rect x="636" y="485" width="137" height="12" fill="#00f"/>
<line x1="242" y1="491" x2="454" y2="491" stroke="#00f"/>
<line x1="589" y1="491" x2="635" y2="491" stroke="#00f"/>
<rect x="104" y="486" width="138" height="10" fill="#ff0"/>
<rect x="456" y="486" width="133" height="10" fill="#ff0"/>
<rect x="637" y="486" width="62" height="10" fill="#ff0"/>
<text x="20" y="515" class="sm">1.031e-07</text>
<rect x="100" y="505" width="54" height="12" fill="#00f"/>
<rect x="193" y="505" width="49" height="12" fill="#00f"/>
<rect x="464" y="505" width="125" height="12" fill="#00f"/>
<rect x="636" y="505" width="137" height="12" fill="#00f"/>
<line x1="154" y1="511" x2="192" y2="511" stroke="#00f"/>
<line x1="242" y1="511" x2="463" y2="511" stroke="#00f"/>
<line x1="589" y1="511" x2="635" y2="511" stroke="#00f"/>
<rect x="104" y="506" width="50" height="10" fill="#ff0"/>
<rect x="194" y="506" width="48" height="10" fill="#ff0"/>
<rect x="465" y="506" width="124" height="10" fill="#ff0"/>
<rect x="637" y="506" width="62" height="10" fill="#ff0"/>
<text x="20" y="535" class="sm">7.507e-08</text>
<rect x="100" y="525" width="163" height="12" fill="#00f"/>
<rect x="442" y="525" width="147" height="12" fill="#00f"/>
<rect x="636" y="525" width="137" height="12" fill="#00f"/>
<line x1="263" y1="531" x2="441" y2="531" stroke="#00f"/>
<line x1="589" y1="531" x2="635" y2="531" stroke="#00f"/>
<rect x="104" y="526" width="158" height="10" fill="#ff0"/>
</svg>
