<svg viewBox="0 0 605 550" xmlns="http://www.w3.org/2000/svg">

<style>
  .sm { font: 12px sans-serif; }
  .lg { font: 15px sans-serif; }
</style>
<rect fill="#ddd" x="0" y="0" width="100%" height="100%"/>
<text x="20" y="20" class="lg">ch.18744 X:7725879-7726483 Gene:WBGene00004999</text>
<text x="20" y="50" class="sm">WormBase</text>
<rect x="100" y="40" width="157" height="12" fill="#00f"/>
<rect x="306" y="40" width="199" height="12" fill="#00f"/>
<line x1="257" y1="46" x2="305" y2="46" stroke="#00f"/>
<rect x="102" y="41" width="155" height="10" fill="#ff0"/>
<rect x="307" y="41" width="155" height="10" fill="#ff0"/>
<rect x="101" y="41" width="0" height="10" fill="brown"><title>.</title></rect>
<rect x="463" y="41" width="42" height="10" fill="brown"><title>.</title></rect>
<text x="20" y="70" class="sm">Fitness: 0.0005725403800053388</text>
<rect x="257" y="65" width="49" height="5" fill="#00f"><title>9048060.0</title></rect>
<rect x="65" y="70" width="35" height="5" fill="#00f"><title>2591.0</title></rect>
<rect x="261" y="75" width="45" height="5" fill="#00f"><title>226.0</title></rect>
<rect x="188" y="80" width="29" height="5" fill="#f0f"><title>11.0</title></rect>
<rect x="437" y="85" width="158" height="5" fill="#f0f"><title>11.0</title></rect>
<rect x="141" y="90" width="47" height="5" fill="#f0f"><title>10.0</title></rect>
<rect x="248" y="95" width="58" height="5" fill="#00f"><title>10.0</title></rect>
<rect x="119" y="100" width="59" height="5" fill="#f0f"><title>8.0</title></rect>
<rect x="437" y="105" width="142" height="5" fill="#f0f"><title>4.0</title></rect>
<rect x="257" y="110" width="70" height="5" fill="#00f"><title>3.0</title></rect>
<text x="20" y="140" class="sm">0.9998</text>
<rect x="100" y="130" width="157" height="12" fill="#00f"/>
<rect x="306" y="130" width="202" height="12" fill="#00f"/>
<line x1="257" y1="136" x2="305" y2="136" stroke="#00f"/>
<rect x="102" y="131" width="155" height="10" fill="#ff0"/>
<rect x="307" y="131" width="155" height="10" fill="#ff0"/>
<text x="20" y="160" class="sm">0.0001178</text>
<rect x="100" y="150" width="161" height="12" fill="#00f"/>
<rect x="306" y="150" width="202" height="12" fill="#00f"/>
<line x1="261" y1="156" x2="305" y2="156" stroke="#00f"/>
<rect x="102" y="151" width="159" height="10" fill="#ff0"/>
<rect x="307" y="151" width="7" height="10" fill="#ff0"/>
<text x="20" y="180" class="sm">2.701e-05</text>
<rect x="100" y="170" width="157" height="12" fill="#00f"/>
<rect x="327" y="170" width="181" height="12" fill="#00f"/>
<line x1="257" y1="176" x2="326" y2="176" stroke="#00f"/>
<rect x="102" y="171" width="155" height="10" fill="#ff0"/>
<rect x="328" y="171" width="134" height="10" fill="#ff0"/>
<text x="20" y="200" class="sm">2.351e-05</text>
<rect x="100" y="190" width="93" height="12" fill="#00f"/>
<rect x="306" y="190" width="202" height="12" fill="#00f"/>
<line x1="193" y1="196" x2="305" y2="196" stroke="#00f"/>
<rect x="102" y="191" width="91" height="10" fill="#ff0"/>
<rect x="307" y="191" width="180" height="10" fill="#ff0"/>
<text x="20" y="220" class="sm">1.54e-05</text>
<rect x="100" y="210" width="93" height="12" fill="#00f"/>
<rect x="291" y="210" width="217" height="12" fill="#00f"/>
<line x1="193" y1="216" x2="290" y2="216" stroke="#00f"/>
<rect x="102" y="211" width="91" height="10" fill="#ff0"/>
<rect x="292" y="211" width="195" height="10" fill="#ff0"/>
<text x="20" y="240" class="sm">1.26e-05</text>
<rect x="100" y="230" width="264" height="12" fill="#00f"/>
<rect x="414" y="230" width="94" height="12" fill="#00f"/>
<line x1="364" y1="236" x2="413" y2="236" stroke="#00f"/>
<rect x="102" y="231" width="212" height="10" fill="#ff0"/>
<text x="20" y="260" class="sm">1.252e-05</text>
<rect x="100" y="250" width="264" height="12" fill="#00f"/>
<rect x="430" y="250" width="78" height="12" fill="#00f"/>
<line x1="364" y1="256" x2="429" y2="256" stroke="#00f"/>
<rect x="102" y="251" width="212" height="10" fill="#ff0"/>
<text x="20" y="280" class="sm">6.909e-06</text>
<rect x="100" y="270" width="93" height="12" fill="#00f"/>
<rect x="235" y="270" width="273" height="12" fill="#00f"/>
<line x1="193" y1="276" x2="234" y2="276" stroke="#00f"/>
<rect x="102" y="271" width="91" height="10" fill="#ff0"/>
<rect x="236" y="271" width="78" height="10" fill="#ff0"/>
<text x="20" y="300" class="sm">5.713e-06</text>
<rect x="100" y="290" width="148" height="12" fill="#00f"/>
<rect x="291" y="290" width="217" height="12" fill="#00f"/>
<line x1="248" y1="296" x2="290" y2="296" stroke="#00f"/>
<rect x="102" y="291" width="146" height="10" fill="#ff0"/>
<rect x="292" y="291" width="2" height="10" fill="#ff0"/>
<text x="20" y="320" class="sm">2.583e-06</text>
<rect x="100" y="310" width="148" height="12" fill="#00f"/>
<rect x="306" y="310" width="202" height="12" fill="#00f"/>
<line x1="248" y1="316" x2="305" y2="316" stroke="#00f"/>
<rect x="102" y="311" width="146" height="10" fill="#ff0"/>
<rect x="307" y="311" width="155" height="10" fill="#ff0"/>
<text x="20" y="340" class="sm">1.902e-06</text>
<rect x="100" y="330" width="271" height="12" fill="#00f"/>
<rect x="430" y="330" width="78" height="12" fill="#00f"/>
<line x1="371" y1="336" x2="429" y2="336" stroke="#00f"/>
<rect x="102" y="331" width="212" height="10" fill="#ff0"/>
<text x="20" y="360" class="sm">7.699e-07</text>
<rect x="100" y="350" width="157" height="12" fill="#00f"/>
<rect x="330" y="350" width="178" height="12" fill="#00f"/>
<line x1="257" y1="356" x2="329" y2="356" stroke="#00f"/>
<rect x="102" y="351" width="155" height="10" fill="#ff0"/>
<rect x="331" y="351" width="131" height="10" fill="#ff0"/>
<text x="20" y="380" class="sm">5.566e-07</text>
<rect x="100" y="370" width="271" height="12" fill="#00f"/>
<rect x="414" y="370" width="94" height="12" fill="#00f"/>
<line x1="371" y1="376" x2="413" y2="376" stroke="#00f"/>
<rect x="102" y="371" width="212" height="10" fill="#ff0"/>
<text x="20" y="400" class="sm">4.594e-07</text>
<rect x="100" y="390" width="164" height="12" fill="#00f"/>
<rect x="306" y="390" width="202" height="12" fill="#00f"/>
<line x1="264" y1="396" x2="305" y2="396" stroke="#00f"/>
<rect x="102" y="391" width="162" height="10" fill="#ff0"/>
<rect x="307" y="391" width="7" height="10" fill="#ff0"/>
<text x="20" y="420" class="sm">3.153e-07</text>
<rect x="100" y="410" width="176" height="12" fill="#00f"/>
<rect x="327" y="410" width="181" height="12" fill="#00f"/>
<line x1="276" y1="416" x2="326" y2="416" stroke="#00f"/>
<rect x="102" y="411" width="174" height="10" fill="#ff0"/>
<rect x="328" y="411" width="40" height="10" fill="#ff0"/>
<text x="20" y="440" class="sm">2.698e-07</text>
<rect x="100" y="430" width="157" height="12" fill="#00f"/>
<rect x="387" y="430" width="121" height="12" fill="#00f"/>
<line x1="257" y1="436" x2="386" y2="436" stroke="#00f"/>
<rect x="102" y="431" width="155" height="10" fill="#ff0"/>
<rect x="388" y="431" width="74" height="10" fill="#ff0"/>
<text x="20" y="460" class="sm">2.666e-07</text>
<rect x="100" y="450" width="264" height="12" fill="#00f"/>
<rect x="408" y="450" width="100" height="12" fill="#00f"/>
<line x1="364" y1="456" x2="407" y2="456" stroke="#00f"/>
<rect x="102" y="451" width="212" height="10" fill="#ff0"/>
<text x="20" y="480" class="sm">2.342e-07</text>
<rect x="100" y="470" width="93" height="12" fill="#00f"/>
<rect x="254" y="470" width="254" height="12" fill="#00f"/>
<line x1="193" y1="476" x2="253" y2="476" stroke="#00f"/>
<rect x="102" y="471" width="91" height="10" fill="#ff0"/>
<rect x="255" y="471" width="6" height="10" fill="#ff0"/>
<text x="20" y="500" class="sm">2.178e-07</text>
<rect x="100" y="490" width="157" height="12" fill="#00f"/>
<rect x="430" y="490" width="78" height="12" fill="#00f"/>
<line x1="257" y1="496" x2="429" y2="496" stroke="#00f"/>
<rect x="102" y="491" width="155" height="10" fill="#ff0"/>
<rect x="431" y="491" width="56" height="10" fill="#ff0"/>
<text x="20" y="520" class="sm">1.179e-07</text>
<rect x="100" y="510" width="100" height="12" fill="#00f"/>
<rect x="306" y="510" width="202" height="12" fill="#00f"/>
<line x1="200" y1="516" x2="305" y2="516" stroke="#00f"/>
<rect x="102" y="511" width="98" height="10" fill="#ff0"/>
<rect x="307" y="511" width="155" height="10" fill="#ff0"/>
</svg>
