<svg viewBox="0 0 1077 525" xmlns="http://www.w3.org/2000/svg">

<style>
  .sm { font: 12px sans-serif; }
  .lg { font: 15px sans-serif; }
</style>
<rect fill="#ddd" x="0" y="0" width="100%" height="100%"/>
<text x="20" y="20" class="lg">ch.15124 V:11011489-11012565 Gene:WBGene00007553</text>
<text x="20" y="50" class="sm">WormBase</text>
<rect x="102" y="40" width="244" height="12" fill="#00f"/>
<rect x="396" y="40" width="583" height="12" fill="#00f"/>
<line x1="346" y1="46" x2="395" y2="46" stroke="#00f"/>
<rect x="202" y="41" width="144" height="10" fill="#ff0"/>
<rect x="397" y="41" width="265" height="10" fill="#ff0"/>
<rect x="103" y="41" width="98" height="10" fill="brown"><title>.</title></rect>
<rect x="663" y="41" width="316" height="10" fill="brown"><title>.</title></rect>
<text x="20" y="70" class="sm">Fitness: 0.0002978794455436207</text>
<rect x="346" y="65" width="50" height="5" fill="#00f"><title>288647.0</title></rect>
<rect x="452" y="70" width="46" height="5" fill="#00f"><title>43.0</title></rect>
<rect x="515" y="75" width="72" height="5" fill="#f0f"><title>10.0</title></rect>
<rect x="235" y="80" width="313" height="5" fill="#f0f"><title>3.0</title></rect>
<rect x="353" y="85" width="43" height="5" fill="#00f"><title>3.0</title></rect>
<text x="20" y="115" class="sm">0.9999</text>
<rect x="100" y="105" width="246" height="12" fill="#00f"/>
<rect x="396" y="105" width="584" height="12" fill="#00f"/>
<line x1="346" y1="111" x2="395" y2="111" stroke="#00f"/>
<rect x="202" y="106" width="144" height="10" fill="#ff0"/>
<rect x="397" y="106" width="265" height="10" fill="#ff0"/>
<text x="20" y="135" class="sm">9.839e-05</text>
<rect x="100" y="125" width="558" height="12" fill="#00f"/>
<rect x="700" y="125" width="280" height="12" fill="#00f"/>
<line x1="658" y1="131" x2="699" y2="131" stroke="#00f"/>
<rect x="202" y="126" width="158" height="10" fill="#ff0"/>
<text x="20" y="155" class="sm">3.844e-05</text>
<rect x="100" y="145" width="253" height="12" fill="#00f"/>
<rect x="396" y="145" width="584" height="12" fill="#00f"/>
<line x1="353" y1="151" x2="395" y2="151" stroke="#00f"/>
<rect x="202" y="146" width="151" height="10" fill="#ff0"/>
<rect x="397" y="146" width="18" height="10" fill="#ff0"/>
<text x="20" y="175" class="sm">2.736e-06</text>
<rect x="100" y="165" width="224" height="12" fill="#00f"/>
<rect x="396" y="165" width="584" height="12" fill="#00f"/>
<line x1="324" y1="171" x2="395" y2="171" stroke="#00f"/>
<rect x="202" y="166" width="122" height="10" fill="#ff0"/>
<rect x="397" y="166" width="35" height="10" fill="#ff0"/>
<text x="20" y="195" class="sm">7.003e-07</text>
<rect x="100" y="185" width="212" height="12" fill="#00f"/>
<rect x="396" y="185" width="584" height="12" fill="#00f"/>
<line x1="312" y1="191" x2="395" y2="191" stroke="#00f"/>
<rect x="202" y="186" width="110" height="10" fill="#ff0"/>
<rect x="397" y="186" width="35" height="10" fill="#ff0"/>
<text x="20" y="215" class="sm">8.892e-08</text>
<rect x="100" y="205" width="162" height="12" fill="#00f"/>
<rect x="396" y="205" width="584" height="12" fill="#00f"/>
<line x1="262" y1="211" x2="395" y2="211" stroke="#00f"/>
<rect x="202" y="206" width="60" height="10" fill="#ff0"/>
<rect x="397" y="206" width="265" height="10" fill="#ff0"/>
<text x="20" y="235" class="sm">7.429e-09</text>
<rect x="100" y="225" width="352" height="12" fill="#00f"/>
<rect x="498" y="225" width="482" height="12" fill="#00f"/>
<line x1="452" y1="231" x2="497" y2="231" stroke="#00f"/>
<rect x="202" y="226" width="158" height="10" fill="#ff0"/>
<text x="20" y="255" class="sm">1.829e-09</text>
<rect x="100" y="245" width="246" height="12" fill="#00f"/>
<rect x="459" y="245" width="521" height="12" fill="#00f"/>
<line x1="346" y1="251" x2="458" y2="251" stroke="#00f"/>
<rect x="202" y="246" width="144" height="10" fill="#ff0"/>
<rect x="460" y="246" width="202" height="10" fill="#ff0"/>
<text x="20" y="275" class="sm">1.621e-09</text>
<rect x="100" y="265" width="538" height="12" fill="#00f"/>
<rect x="700" y="265" width="280" height="12" fill="#00f"/>
<line x1="638" y1="271" x2="699" y2="271" stroke="#00f"/>
<rect x="612" y="266" width="26" height="10" fill="#ff0"/>
<rect x="701" y="266" width="146" height="10" fill="#ff0"/>
<text x="20" y="295" class="sm">9.458e-10</text>
<rect x="100" y="285" width="191" height="12" fill="#00f"/>
<rect x="396" y="285" width="584" height="12" fill="#00f"/>
<line x1="291" y1="291" x2="395" y2="291" stroke="#00f"/>
<rect x="202" y="286" width="89" height="10" fill="#ff0"/>
<rect x="397" y="286" width="35" height="10" fill="#ff0"/>
<text x="20" y="315" class="sm">4.189e-10</text>
<rect x="100" y="305" width="727" height="12" fill="#00f"/>
<rect x="882" y="305" width="98" height="12" fill="#00f"/>
<line x1="827" y1="311" x2="881" y2="311" stroke="#00f"/>
<rect x="202" y="306" width="158" height="10" fill="#ff0"/>
<text x="20" y="335" class="sm">1.315e-10</text>
<rect x="100" y="325" width="565" height="12" fill="#00f"/>
<rect x="700" y="325" width="280" height="12" fill="#00f"/>
<line x1="665" y1="331" x2="699" y2="331" stroke="#00f"/>
<rect x="202" y="326" width="158" height="10" fill="#ff0"/>
<text x="20" y="355" class="sm">1.02e-10</text>
<rect x="100" y="345" width="295" height="12" fill="#00f"/>
<rect x="459" y="345" width="521" height="12" fill="#00f"/>
<line x1="395" y1="351" x2="458" y2="351" stroke="#00f"/>
<rect x="202" y="346" width="158" height="10" fill="#ff0"/>
<text x="20" y="375" class="sm">6.379e-11</text>
<rect x="100" y="365" width="162" height="12" fill="#00f"/>
<rect x="325" y="365" width="655" height="12" fill="#00f"/>
<line x1="262" y1="371" x2="324" y2="371" stroke="#00f"/>
<rect x="202" y="366" width="60" height="10" fill="#ff0"/>
<rect x="326" y="366" width="34" height="10" fill="#ff0"/>
<text x="20" y="395" class="sm">5.534e-11</text>
<rect x="100" y="385" width="246" height="12" fill="#00f"/>
<rect x="498" y="385" width="482" height="12" fill="#00f"/>
<line x1="346" y1="391" x2="497" y2="391" stroke="#00f"/>
<rect x="202" y="386" width="144" height="10" fill="#ff0"/>
<rect x="499" y="386" width="163" height="10" fill="#ff0"/>
<text x="20" y="415" class="sm">4.695e-11</text>
<rect x="100" y="405" width="191" height="12" fill="#00f"/>
<rect x="338" y="405" width="642" height="12" fill="#00f"/>
<line x1="291" y1="411" x2="337" y2="411" stroke="#00f"/>
<rect x="202" y="406" width="89" height="10" fill="#ff0"/>
<rect x="339" y="406" width="11" height="10" fill="#ff0"/>
<text x="20" y="435" class="sm">2.9e-11</text>
<rect x="100" y="425" width="149" height="12" fill="#00f"/>
<rect x="396" y="425" width="584" height="12" fill="#00f"/>
<line x1="249" y1="431" x2="395" y2="431" stroke="#00f"/>
<rect x="202" y="426" width="47" height="10" fill="#ff0"/>
<rect x="397" y="426" width="35" height="10" fill="#ff0"/>
<text x="20" y="455" class="sm">2.488e-11</text>
<rect x="100" y="445" width="735" height="12" fill="#00f"/>
<rect x="882" y="445" width="98" height="12" fill="#00f"/>
<line x1="835" y1="451" x2="881" y2="451" stroke="#00f"/>
<rect x="202" y="446" width="158" height="10" fill="#ff0"/>
<text x="20" y="475" class="sm">1.663e-11</text>
<rect x="100" y="465" width="295" height="12" fill="#00f"/>
<rect x="437" y="465" width="543" height="12" fill="#00f"/>
<line x1="395" y1="471" x2="436" y2="471" stroke="#00f"/>
<rect x="202" y="466" width="158" height="10" fill="#ff0"/>
<text x="20" y="495" class="sm">8.18e-12</text>
<rect x="100" y="485" width="336" height="12" fill="#00f"/>
<rect x="479" y="485" width="501" height="12" fill="#00f"/>
<line x1="436" y1="491" x2="478" y2="491" stroke="#00f"/>
<rect x="202" y="486" width="158" height="10" fill="#ff0"/>
</svg>
