<svg viewBox="0 0 867 595" xmlns="http://www.w3.org/2000/svg">

<style>
  .sm { font: 12px sans-serif; }
  .lg { font: 15px sans-serif; }
</style>
<rect fill="#ddd" x="0" y="0" width="100%" height="100%"/>
<text x="20" y="20" class="lg">ch.11023 IV:9796588-9797454 Gene:WBGene00011743</text>
<text x="20" y="50" class="sm">WormBase</text>
<rect x="102" y="40" width="83" height="12" fill="#00f"/>
<rect x="230" y="40" width="102" height="12" fill="#00f"/>
<rect x="375" y="40" width="90" height="12" fill="#00f"/>
<rect x="511" y="40" width="258" height="12" fill="#00f"/>
<line x1="185" y1="46" x2="229" y2="46" stroke="#00f"/>
<line x1="332" y1="46" x2="374" y2="46" stroke="#00f"/>
<line x1="465" y1="46" x2="510" y2="46" stroke="#00f"/>
<rect x="105" y="41" width="80" height="10" fill="#ff0"/>
<rect x="231" y="41" width="101" height="10" fill="#ff0"/>
<rect x="376" y="41" width="89" height="10" fill="#ff0"/>
<rect x="512" y="41" width="101" height="10" fill="#ff0"/>
<rect x="103" y="41" width="1" height="10" fill="brown"><title>.</title></rect>
<rect x="614" y="41" width="155" height="10" fill="brown"><title>.</title></rect>
<text x="20" y="70" class="sm">Fitness: 0.08515405385038112</text>
<rect x="332" y="65" width="43" height="5" fill="#00f"><title>1017950.0</title></rect>
<rect x="185" y="70" width="45" height="5" fill="#00f"><title>941745.0</title></rect>
<rect x="465" y="75" width="46" height="5" fill="#00f"><title>806408.0</title></rect>
<rect x="332" y="80" width="52" height="5" fill="#00f"><title>292.0</title></rect>
<rect x="465" y="85" width="55" height="5" fill="#00f"><title>99.0</title></rect>
<rect x="332" y="90" width="66" height="5" fill="#00f"><title>93.0</title></rect>
<rect x="185" y="95" width="54" height="5" fill="#00f"><title>82.0</title></rect>
<rect x="185" y="100" width="50" height="5" fill="#00f"><title>56.0</title></rect>
<rect x="278" y="105" width="329" height="5" fill="#f0f"><title>33.0</title></rect>
<rect x="674" y="110" width="190" height="5" fill="#00f"><title>13.0</title></rect>
<rect x="188" y="115" width="42" height="5" fill="#00f"><title>10.0</title></rect>
<rect x="296" y="120" width="79" height="5" fill="#00f"><title>9.0</title></rect>
<rect x="59" y="125" width="43" height="5" fill="#00f"><title>9.0</title></rect>
<rect x="267" y="130" width="150" height="5" fill="#f0f"><title>8.0</title></rect>
<rect x="178" y="135" width="52" height="5" fill="#00f"><title>7.0</title></rect>
<rect x="146" y="140" width="112" height="5" fill="#00f"><title>6.0</title></rect>
<rect x="478" y="145" width="42" height="5" fill="#00f"><title>5.0</title></rect>
<rect x="562" y="150" width="72" height="5" fill="#f0f"><title>4.0</title></rect>
<rect x="188" y="155" width="47" height="5" fill="#00f"><title>4.0</title></rect>
<text x="20" y="185" class="sm">0.9962</text>
<rect x="100" y="175" width="85" height="12" fill="#00f"/>
<rect x="230" y="175" width="102" height="12" fill="#00f"/>
<rect x="375" y="175" width="90" height="12" fill="#00f"/>
<rect x="511" y="175" width="259" height="12" fill="#00f"/>
<line x1="185" y1="181" x2="229" y2="181" stroke="#00f"/>
<line x1="332" y1="181" x2="374" y2="181" stroke="#00f"/>
<line x1="465" y1="181" x2="510" y2="181" stroke="#00f"/>
<rect x="105" y="176" width="80" height="10" fill="#ff0"/>
<rect x="231" y="176" width="101" height="10" fill="#ff0"/>
<rect x="376" y="176" width="89" height="10" fill="#ff0"/>
<rect x="512" y="176" width="101" height="10" fill="#ff0"/>
<text x="20" y="205" class="sm">0.001703</text>
<rect x="100" y="195" width="78" height="12" fill="#00f"/>
<rect x="230" y="195" width="102" height="12" fill="#00f"/>
<rect x="375" y="195" width="90" height="12" fill="#00f"/>
<rect x="511" y="195" width="259" height="12" fill="#00f"/>
<line x1="178" y1="201" x2="229" y2="201" stroke="#00f"/>
<line x1="332" y1="201" x2="374" y2="201" stroke="#00f"/>
<line x1="465" y1="201" x2="510" y2="201" stroke="#00f"/>
<rect x="524" y="196" width="191" height="10" fill="#ff0"/>
<text x="20" y="225" class="sm">0.0007308</text>
<rect x="100" y="215" width="85" height="12" fill="#00f"/>
<rect x="230" y="215" width="102" height="12" fill="#00f"/>
<rect x="375" y="215" width="103" height="12" fill="#00f"/>
<rect x="722" y="215" width="48" height="12" fill="#00f"/>
<line x1="185" y1="221" x2="229" y2="221" stroke="#00f"/>
<line x1="332" y1="221" x2="374" y2="221" stroke="#00f"/>
<line x1="478" y1="221" x2="721" y2="221" stroke="#00f"/>
<rect x="105" y="216" width="80" height="10" fill="#ff0"/>
<rect x="231" y="216" width="101" height="10" fill="#ff0"/>
<rect x="376" y="216" width="98" height="10" fill="#ff0"/>
<text x="20" y="245" class="sm">0.0004018</text>
<rect x="100" y="235" width="232" height="12" fill="#00f"/>
<rect x="375" y="235" width="90" height="12" fill="#00f"/>
<rect x="511" y="235" width="163" height="12" fill="#00f"/>
<rect x="722" y="235" width="48" height="12" fill="#00f"/>
<line x1="332" y1="241" x2="374" y2="241" stroke="#00f"/>
<line x1="465" y1="241" x2="510" y2="241" stroke="#00f"/>
<line x1="674" y1="241" x2="721" y2="241" stroke="#00f"/>
<rect x="654" y="236" width="20" height="10" fill="#ff0"/>
<rect x="723" y="236" width="47" height="10" fill="#ff0"/>
<text x="20" y="265" class="sm">0.0003811</text>
<rect x="100" y="255" width="85" height="12" fill="#00f"/>
<rect x="230" y="255" width="102" height="12" fill="#00f"/>
<rect x="375" y="255" width="90" height="12" fill="#00f"/>
<rect x="722" y="255" width="48" height="12" fill="#00f"/>
<line x1="185" y1="261" x2="229" y2="261" stroke="#00f"/>
<line x1="332" y1="261" x2="374" y2="261" stroke="#00f"/>
<line x1="465" y1="261" x2="721" y2="261" stroke="#00f"/>
<rect x="105" y="256" width="80" height="10" fill="#ff0"/>
<rect x="231" y="256" width="101" height="10" fill="#ff0"/>
<rect x="376" y="256" width="89" height="10" fill="#ff0"/>
<rect x="723" y="256" width="8" height="10" fill="#ff0"/>
<text x="20" y="285" class="sm">0.0002738</text>
<rect x="100" y="275" width="85" height="12" fill="#00f"/>
<rect x="230" y="275" width="102" height="12" fill="#00f"/>
<rect x="375" y="275" width="103" height="12" fill="#00f"/>
<rect x="593" y="275" width="177" height="12" fill="#00f"/>
<line x1="185" y1="281" x2="229" y2="281" stroke="#00f"/>
<line x1="332" y1="281" x2="374" y2="281" stroke="#00f"/>
<line x1="478" y1="281" x2="592" y2="281" stroke="#00f"/>
<rect x="105" y="276" width="80" height="10" fill="#ff0"/>
<rect x="231" y="276" width="101" height="10" fill="#ff0"/>
<rect x="376" y="276" width="98" height="10" fill="#ff0"/>
<text x="20" y="305" class="sm">0.0001731</text>
<rect x="100" y="295" width="85" height="12" fill="#00f"/>
<rect x="230" y="295" width="102" height="12" fill="#00f"/>
<rect x="375" y="295" width="90" height="12" fill="#00f"/>
<rect x="593" y="295" width="177" height="12" fill="#00f"/>
<line x1="185" y1="301" x2="229" y2="301" stroke="#00f"/>
<line x1="332" y1="301" x2="374" y2="301" stroke="#00f"/>
<line x1="465" y1="301" x2="592" y2="301" stroke="#00f"/>
<rect x="105" y="296" width="80" height="10" fill="#ff0"/>
<rect x="231" y="296" width="101" height="10" fill="#ff0"/>
<rect x="376" y="296" width="89" height="10" fill="#ff0"/>
<rect x="594" y="296" width="128" height="10" fill="#ff0"/>
<text x="20" y="325" class="sm">5.462e-05</text>
<rect x="100" y="315" width="85" height="12" fill="#00f"/>
<rect x="230" y="315" width="102" height="12" fill="#00f"/>
<rect x="375" y="315" width="103" height="12" fill="#00f"/>
<rect x="520" y="315" width="250" height="12" fill="#00f"/>
<line x1="185" y1="321" x2="229" y2="321" stroke="#00f"/>
<line x1="332" y1="321" x2="374" y2="321" stroke="#00f"/>
<line x1="478" y1="321" x2="519" y2="321" stroke="#00f"/>
<rect x="105" y="316" width="80" height="10" fill="#ff0"/>
<rect x="231" y="316" width="101" height="10" fill="#ff0"/>
<rect x="376" y="316" width="98" height="10" fill="#ff0"/>
<text x="20" y="345" class="sm">3.209e-05</text>
<rect x="100" y="335" width="93" height="12" fill="#00f"/>
<rect x="230" y="335" width="102" height="12" fill="#00f"/>
<rect x="375" y="335" width="90" height="12" fill="#00f"/>
<rect x="511" y="335" width="259" height="12" fill="#00f"/>
<line x1="193" y1="341" x2="229" y2="341" stroke="#00f"/>
<line x1="332" y1="341" x2="374" y2="341" stroke="#00f"/>
<line x1="465" y1="341" x2="510" y2="341" stroke="#00f"/>
<rect x="524" y="336" width="191" height="10" fill="#ff0"/>
<text x="20" y="365" class="sm">2.119e-05</text>
<rect x="100" y="355" width="85" height="12" fill="#00f"/>
<rect x="230" y="355" width="102" height="12" fill="#00f"/>
<rect x="375" y="355" width="90" height="12" fill="#00f"/>
<rect x="520" y="355" width="250" height="12" fill="#00f"/>
<line x1="185" y1="361" x2="229" y2="361" stroke="#00f"/>
<line x1="332" y1="361" x2="374" y2="361" stroke="#00f"/>
<line x1="465" y1="361" x2="519" y2="361" stroke="#00f"/>
<rect x="105" y="356" width="80" height="10" fill="#ff0"/>
<rect x="231" y="356" width="101" height="10" fill="#ff0"/>
<rect x="376" y="356" width="89" height="10" fill="#ff0"/>
<rect x="521" y="356" width="92" height="10" fill="#ff0"/>
<text x="20" y="385" class="sm">1.17e-05</text>
<rect x="100" y="375" width="85" height="12" fill="#00f"/>
<rect x="230" y="375" width="102" height="12" fill="#00f"/>
<rect x="375" y="375" width="103" height="12" fill="#00f"/>
<rect x="673" y="375" width="97" height="12" fill="#00f"/>
<line x1="185" y1="381" x2="229" y2="381" stroke="#00f"/>
<line x1="332" y1="381" x2="374" y2="381" stroke="#00f"/>
<line x1="478" y1="381" x2="672" y2="381" stroke="#00f"/>
<rect x="105" y="376" width="80" height="10" fill="#ff0"/>
<rect x="231" y="376" width="101" height="10" fill="#ff0"/>
<rect x="376" y="376" width="98" height="10" fill="#ff0"/>
<text x="20" y="405" class="sm">1.125e-05</text>
<rect x="100" y="395" width="85" height="12" fill="#00f"/>
<rect x="230" y="395" width="102" height="12" fill="#00f"/>
<rect x="375" y="395" width="90" height="12" fill="#00f"/>
<rect x="673" y="395" width="97" height="12" fill="#00f"/>
<line x1="185" y1="401" x2="229" y2="401" stroke="#00f"/>
<line x1="332" y1="401" x2="374" y2="401" stroke="#00f"/>
<line x1="465" y1="401" x2="672" y2="401" stroke="#00f"/>
<rect x="322" y="396" width="10" height="10" fill="#ff0"/>
<rect x="376" y="396" width="89" height="10" fill="#ff0"/>
<rect x="674" y="396" width="48" height="10" fill="#ff0"/>
<text x="20" y="425" class="sm">7.218e-06</text>
<rect x="100" y="415" width="88" height="12" fill="#00f"/>
<rect x="230" y="415" width="102" height="12" fill="#00f"/>
<rect x="375" y="415" width="90" height="12" fill="#00f"/>
<rect x="511" y="415" width="259" height="12" fill="#00f"/>
<line x1="188" y1="421" x2="229" y2="421" stroke="#00f"/>
<line x1="332" y1="421" x2="374" y2="421" stroke="#00f"/>
<line x1="465" y1="421" x2="510" y2="421" stroke="#00f"/>
<rect x="105" y="416" width="83" height="10" fill="#ff0"/>
<rect x="231" y="416" width="101" height="10" fill="#ff0"/>
<rect x="376" y="416" width="89" height="10" fill="#ff0"/>
<rect x="512" y="416" width="101" height="10" fill="#ff0"/>
<text x="20" y="445" class="sm">3.277e-06</text>
<rect x="100" y="435" width="85" height="12" fill="#00f"/>
<rect x="230" y="435" width="102" height="12" fill="#00f"/>
<rect x="375" y="435" width="299" height="12" fill="#00f"/>
<rect x="722" y="435" width="48" height="12" fill="#00f"/>
<line x1="185" y1="441" x2="229" y2="441" stroke="#00f"/>
<line x1="332" y1="441" x2="374" y2="441" stroke="#00f"/>
<line x1="674" y1="441" x2="721" y2="441" stroke="#00f"/>
<rect x="105" y="436" width="80" height="10" fill="#ff0"/>
<rect x="231" y="436" width="101" height="10" fill="#ff0"/>
<rect x="376" y="436" width="98" height="10" fill="#ff0"/>
<text x="20" y="465" class="sm">2.658e-06</text>
<rect x="100" y="455" width="106" height="12" fill="#00f"/>
<rect x="255" y="455" width="77" height="12" fill="#00f"/>
<rect x="375" y="455" width="90" height="12" fill="#00f"/>
<rect x="511" y="455" width="259" height="12" fill="#00f"/>
<line x1="206" y1="461" x2="254" y2="461" stroke="#00f"/>
<line x1="332" y1="461" x2="374" y2="461" stroke="#00f"/>
<line x1="465" y1="461" x2="510" y2="461" stroke="#00f"/>
<rect x="453" y="456" width="12" height="10" fill="#ff0"/>
<rect x="512" y="456" width="178" height="10" fill="#ff0"/>
<text x="20" y="485" class="sm">2.373e-06</text>
<rect x="100" y="475" width="46" height="12" fill="#00f"/>
<rect x="230" y="475" width="102" height="12" fill="#00f"/>
<rect x="375" y="475" width="90" height="12" fill="#00f"/>
<rect x="511" y="475" width="259" height="12" fill="#00f"/>
<line x1="146" y1="481" x2="229" y2="481" stroke="#00f"/>
<line x1="332" y1="481" x2="374" y2="481" stroke="#00f"/>
<line x1="465" y1="481" x2="510" y2="481" stroke="#00f"/>
<rect x="105" y="476" width="41" height="10" fill="#ff0"/>
<rect x="231" y="476" width="101" height="10" fill="#ff0"/>
<rect x="376" y="476" width="89" height="10" fill="#ff0"/>
<rect x="512" y="476" width="101" height="10" fill="#ff0"/>
<text x="20" y="505" class="sm">2.133e-06</text>
<rect x="100" y="495" width="85" height="12" fill="#00f"/>
<rect x="230" y="495" width="102" height="12" fill="#00f"/>
<rect x="384" y="495" width="81" height="12" fill="#00f"/>
<rect x="511" y="495" width="259" height="12" fill="#00f"/>
<line x1="185" y1="501" x2="229" y2="501" stroke="#00f"/>
<line x1="332" y1="501" x2="383" y2="501" stroke="#00f"/>
<line x1="465" y1="501" x2="510" y2="501" stroke="#00f"/>
<rect x="105" y="496" width="80" height="10" fill="#ff0"/>
<rect x="231" y="496" width="101" height="10" fill="#ff0"/>
<rect x="385" y="496" width="80" height="10" fill="#ff0"/>
<rect x="512" y="496" width="101" height="10" fill="#ff0"/>
<text x="20" y="525" class="sm">1.249e-06</text>
<rect x="100" y="515" width="78" height="12" fill="#00f"/>
<rect x="230" y="515" width="102" height="12" fill="#00f"/>
<rect x="375" y="515" width="103" height="12" fill="#00f"/>
<rect x="722" y="515" width="48" height="12" fill="#00f"/>
<line x1="178" y1="521" x2="229" y2="521" stroke="#00f"/>
<line x1="332" y1="521" x2="374" y2="521" stroke="#00f"/>
<line x1="478" y1="521" x2="721" y2="521" stroke="#00f"/>
<rect x="105" y="516" width="73" height="10" fill="#ff0"/>
<rect x="231" y="516" width="42" height="10" fill="#ff0"/>
<text x="20" y="545" class="sm">6.667e-07</text>
<rect x="100" y="535" width="85" height="12" fill="#00f"/>
<rect x="230" y="535" width="102" height="12" fill="#00f"/>
<rect x="398" y="535" width="67" height="12" fill="#00f"/>
<rect x="511" y="535" width="259" height="12" fill="#00f"/>
<line x1="185" y1="541" x2="229" y2="541" stroke="#00f"/>
<line x1="332" y1="541" x2="397" y2="541" stroke="#00f"/>
<line x1="465" y1="541" x2="510" y2="541" stroke="#00f"/>
<rect x="105" y="536" width="80" height="10" fill="#ff0"/>
<rect x="231" y="536" width="101" height="10" fill="#ff0"/>
<rect x="399" y="536" width="62" height="10" fill="#ff0"/>
<text x="20" y="565" class="sm">6.516e-07</text>
<rect x="100" y="555" width="78" height="12" fill="#00f"/>
<rect x="230" y="555" width="102" height="12" fill="#00f"/>
<rect x="375" y="555" width="90" height="12" fill="#00f"/>
<rect x="722" y="555" width="48" height="12" fill="#00f"/>
<line x1="178" y1="561" x2="229" y2="561" stroke="#00f"/>
<line x1="332" y1="561" x2="374" y2="561" stroke="#00f"/>
<line x1="465" y1="561" x2="721" y2="561" stroke="#00f"/>
<rect x="105" y="556" width="73" height="10" fill="#ff0"/>
<rect x="231" y="556" width="42" height="10" fill="#ff0"/>
</svg>
