<svg viewBox="0 0 1067 590" xmlns="http://www.w3.org/2000/svg">

<style>
  .sm { font: 12px sans-serif; }
  .lg { font: 15px sans-serif; }
</style>
<rect fill="#ddd" x="0" y="0" width="100%" height="100%"/>
<text x="20" y="20" class="lg">ch.13918 V:6426146-6427212 Gene:WBGene00020275</text>
<text x="20" y="50" class="sm">WormBase</text>
<rect x="102" y="40" width="245" height="12" fill="#00f"/>
<rect x="672" y="40" width="297" height="12" fill="#00f"/>
<line x1="347" y1="46" x2="671" y2="46" stroke="#00f"/>
<rect x="105" y="41" width="242" height="10" fill="#ff0"/>
<rect x="673" y="41" width="146" height="10" fill="#ff0"/>
<rect x="103" y="41" width="1" height="10" fill="brown"><title>.</title></rect>
<rect x="820" y="41" width="149" height="10" fill="brown"><title>.</title></rect>
<text x="20" y="70" class="sm">WormBase</text>
<rect x="102" y="60" width="245" height="12" fill="#00f"/>
<rect x="672" y="60" width="229" height="12" fill="#00f"/>
<line x1="347" y1="66" x2="671" y2="66" stroke="#00f"/>
<rect x="105" y="61" width="242" height="10" fill="#ff0"/>
<rect x="673" y="61" width="146" height="10" fill="#ff0"/>
<rect x="103" y="61" width="1" height="10" fill="brown"><title>.</title></rect>
<rect x="820" y="61" width="81" height="10" fill="brown"><title>.</title></rect>
<text x="20" y="90" class="sm">Fitness: 0.00023839290922322736</text>
<rect x="347" y="85" width="325" height="5" fill="#00f"><title>3983710.0</title></rect>
<rect x="347" y="90" width="338" height="5" fill="#00f"><title>385.0</title></rect>
<rect x="216" y="95" width="44" height="5" fill="#00f"><title>220.0</title></rect>
<rect x="216" y="100" width="58" height="5" fill="#00f"><title>138.0</title></rect>
<rect x="216" y="105" width="48" height="5" fill="#00f"><title>92.0</title></rect>
<rect x="163" y="110" width="67" height="5" fill="#f0f"><title>36.0</title></rect>
<rect x="761" y="115" width="30" height="5" fill="#f0f"><title>26.0</title></rect>
<rect x="37" y="120" width="65" height="5" fill="#00f"><title>19.0</title></rect>
<rect x="347" y="125" width="356" height="5" fill="#00f"><title>12.0</title></rect>
<rect x="243" y="130" width="63" height="5" fill="#f0f"><title>8.0</title></rect>
<rect x="140" y="135" width="43" height="5" fill="#f0f"><title>5.0</title></rect>
<rect x="347" y="140" width="383" height="5" fill="#00f"><title>4.0</title></rect>
<rect x="216" y="145" width="71" height="5" fill="#00f"><title>4.0</title></rect>
<rect x="838" y="150" width="83" height="5" fill="#f0f"><title>3.0</title></rect>
<text x="20" y="180" class="sm">0.9998</text>
<rect x="100" y="170" width="247" height="12" fill="#00f"/>
<rect x="672" y="170" width="298" height="12" fill="#00f"/>
<line x1="347" y1="176" x2="671" y2="176" stroke="#00f"/>
<rect x="105" y="171" width="242" height="10" fill="#ff0"/>
<rect x="673" y="171" width="146" height="10" fill="#ff0"/>
<text x="20" y="200" class="sm">0.0001258</text>
<rect x="100" y="190" width="247" height="12" fill="#00f"/>
<rect x="685" y="190" width="285" height="12" fill="#00f"/>
<line x1="347" y1="196" x2="684" y2="196" stroke="#00f"/>
<rect x="105" y="191" width="242" height="10" fill="#ff0"/>
<rect x="686" y="191" width="191" height="10" fill="#ff0"/>
<text x="20" y="220" class="sm">2.369e-05</text>
<rect x="100" y="210" width="208" height="12" fill="#00f"/>
<rect x="672" y="210" width="298" height="12" fill="#00f"/>
<line x1="308" y1="216" x2="671" y2="216" stroke="#00f"/>
<rect x="105" y="211" width="203" height="10" fill="#ff0"/>
<rect x="673" y="211" width="146" height="10" fill="#ff0"/>
<text x="20" y="240" class="sm">1.548e-05</text>
<rect x="100" y="230" width="247" height="12" fill="#00f"/>
<rect x="703" y="230" width="267" height="12" fill="#00f"/>
<line x1="347" y1="236" x2="702" y2="236" stroke="#00f"/>
<rect x="105" y="231" width="242" height="10" fill="#ff0"/>
<rect x="704" y="231" width="173" height="10" fill="#ff0"/>
<text x="20" y="260" class="sm">5.299e-06</text>
<rect x="100" y="250" width="247" height="12" fill="#00f"/>
<rect x="611" y="250" width="359" height="12" fill="#00f"/>
<line x1="347" y1="256" x2="610" y2="256" stroke="#00f"/>
<rect x="105" y="251" width="242" height="10" fill="#ff0"/>
<rect x="612" y="251" width="32" height="10" fill="#ff0"/>
<text x="20" y="280" class="sm">1.559e-06</text>
<rect x="100" y="270" width="142" height="12" fill="#00f"/>
<rect x="672" y="270" width="298" height="12" fill="#00f"/>
<line x1="242" y1="276" x2="671" y2="276" stroke="#00f"/>
<rect x="105" y="271" width="137" height="10" fill="#ff0"/>
<rect x="673" y="271" width="146" height="10" fill="#ff0"/>
<text x="20" y="300" class="sm">1.53e-06</text>
<rect x="100" y="290" width="211" height="12" fill="#00f"/>
<rect x="672" y="290" width="298" height="12" fill="#00f"/>
<line x1="311" y1="296" x2="671" y2="296" stroke="#00f"/>
<rect x="105" y="291" width="206" height="10" fill="#ff0"/>
<rect x="673" y="291" width="146" height="10" fill="#ff0"/>
<text x="20" y="320" class="sm">8.31e-07</text>
<rect x="100" y="310" width="116" height="12" fill="#00f"/>
<rect x="672" y="310" width="298" height="12" fill="#00f"/>
<line x1="216" y1="316" x2="671" y2="316" stroke="#00f"/>
<rect x="755" y="311" width="122" height="10" fill="#ff0"/>
<text x="20" y="340" class="sm">5.149e-07</text>
<rect x="100" y="330" width="247" height="12" fill="#00f"/>
<rect x="730" y="330" width="240" height="12" fill="#00f"/>
<line x1="347" y1="336" x2="729" y2="336" stroke="#00f"/>
<rect x="105" y="331" width="242" height="10" fill="#ff0"/>
<rect x="731" y="331" width="146" height="10" fill="#ff0"/>
<text x="20" y="360" class="sm">4.485e-08</text>
<rect x="100" y="350" width="186" height="12" fill="#00f"/>
<rect x="672" y="350" width="298" height="12" fill="#00f"/>
<line x1="286" y1="356" x2="671" y2="356" stroke="#00f"/>
<rect x="105" y="351" width="181" height="10" fill="#ff0"/>
<rect x="673" y="351" width="204" height="10" fill="#ff0"/>
<text x="20" y="380" class="sm">2.936e-09</text>
<rect x="100" y="370" width="208" height="12" fill="#00f"/>
<rect x="685" y="370" width="285" height="12" fill="#00f"/>
<line x1="308" y1="376" x2="684" y2="376" stroke="#00f"/>
<rect x="105" y="371" width="203" height="10" fill="#ff0"/>
<rect x="686" y="371" width="191" height="10" fill="#ff0"/>
<text x="20" y="400" class="sm">1.106e-09</text>
<rect x="100" y="390" width="247" height="12" fill="#00f"/>
<rect x="826" y="390" width="144" height="12" fill="#00f"/>
<line x1="347" y1="396" x2="825" y2="396" stroke="#00f"/>
<rect x="105" y="391" width="242" height="10" fill="#ff0"/>
<rect x="827" y="391" width="50" height="10" fill="#ff0"/>
<text x="20" y="420" class="sm">5.325e-10</text>
<rect x="100" y="410" width="247" height="12" fill="#00f"/>
<rect x="738" y="410" width="232" height="12" fill="#00f"/>
<line x1="347" y1="416" x2="737" y2="416" stroke="#00f"/>
<rect x="105" y="411" width="242" height="10" fill="#ff0"/>
<rect x="739" y="411" width="80" height="10" fill="#ff0"/>
<text x="20" y="440" class="sm">3.361e-10</text>
<rect x="100" y="430" width="247" height="12" fill="#00f"/>
<rect x="633" y="430" width="337" height="12" fill="#00f"/>
<line x1="347" y1="436" x2="632" y2="436" stroke="#00f"/>
<rect x="307" y="431" width="40" height="10" fill="#ff0"/>
<rect x="634" y="431" width="243" height="10" fill="#ff0"/>
<text x="20" y="460" class="sm">3.195e-10</text>
<rect x="100" y="450" width="208" height="12" fill="#00f"/>
<rect x="703" y="450" width="267" height="12" fill="#00f"/>
<line x1="308" y1="456" x2="702" y2="456" stroke="#00f"/>
<rect x="105" y="451" width="203" height="10" fill="#ff0"/>
<rect x="704" y="451" width="173" height="10" fill="#ff0"/>
<text x="20" y="480" class="sm">2.384e-10</text>
<rect x="100" y="470" width="247" height="12" fill="#00f"/>
<rect x="622" y="470" width="348" height="12" fill="#00f"/>
<line x1="347" y1="476" x2="621" y2="476" stroke="#00f"/>
<rect x="105" y="471" width="242" height="10" fill="#ff0"/>
<rect x="623" y="471" width="254" height="10" fill="#ff0"/>
<text x="20" y="500" class="sm">1.983e-10</text>
<rect x="100" y="490" width="142" height="12" fill="#00f"/>
<rect x="685" y="490" width="285" height="12" fill="#00f"/>
<line x1="242" y1="496" x2="684" y2="496" stroke="#00f"/>
<rect x="105" y="491" width="137" height="10" fill="#ff0"/>
<rect x="686" y="491" width="191" height="10" fill="#ff0"/>
<text x="20" y="520" class="sm">1.944e-10</text>
<rect x="100" y="510" width="211" height="12" fill="#00f"/>
<rect x="685" y="510" width="285" height="12" fill="#00f"/>
<line x1="311" y1="516" x2="684" y2="516" stroke="#00f"/>
<rect x="105" y="511" width="206" height="10" fill="#ff0"/>
<rect x="686" y="511" width="191" height="10" fill="#ff0"/>
<text x="20" y="540" class="sm">1.324e-10</text>
<rect x="100" y="530" width="208" height="12" fill="#00f"/>
<rect x="611" y="530" width="359" height="12" fill="#00f"/>
<line x1="308" y1="536" x2="610" y2="536" stroke="#00f"/>
<rect x="105" y="531" width="203" height="10" fill="#ff0"/>
<rect x="612" y="531" width="32" height="10" fill="#ff0"/>
<text x="20" y="560" class="sm">1.11e-10</text>
<rect x="100" y="550" width="116" height="12" fill="#00f"/>
<rect x="685" y="550" width="285" height="12" fill="#00f"/>
<line x1="216" y1="556" x2="684" y2="556" stroke="#00f"/>
<rect x="105" y="551" width="111" height="10" fill="#ff0"/>
<rect x="686" y="551" width="133" height="10" fill="#ff0"/>
</svg>
