<svg viewBox="0 0 895 530" xmlns="http://www.w3.org/2000/svg">

<style>
  .sm { font: 12px sans-serif; }
  .lg { font: 15px sans-serif; }
</style>
<rect fill="#ddd" x="0" y="0" width="100%" height="100%"/>
<text x="20" y="20" class="lg">ch.15518 V:12607313-12608207 Gene:WBGene00007589</text>
<text x="20" y="50" class="sm">WormBase</text>
<rect x="100" y="40" width="166" height="12" fill="#00f"/>
<rect x="326" y="40" width="469" height="12" fill="#00f"/>
<line x1="266" y1="46" x2="325" y2="46" stroke="#00f"/>
<rect x="103" y="41" width="163" height="10" fill="#ff0"/>
<rect x="327" y="41" width="324" height="10" fill="#ff0"/>
<rect x="101" y="41" width="1" height="10" fill="brown"><title>.</title></rect>
<rect x="652" y="41" width="143" height="10" fill="brown"><title>.</title></rect>
<text x="20" y="70" class="sm">Fitness: 0.008969374335614693</text>
<rect x="266" y="65" width="60" height="5" fill="#00f"><title>133201.0</title></rect>
<rect x="417" y="70" width="70" height="5" fill="#00f"><title>59.0</title></rect>
<rect x="266" y="75" width="39" height="5" fill="#00f"><title>20.0</title></rect>
<rect x="266" y="80" width="221" height="5" fill="#00f"><title>11.0</title></rect>
<rect x="417" y="85" width="62" height="5" fill="#00f"><title>10.0</title></rect>
<rect x="266" y="90" width="213" height="5" fill="#00f"><title>5.0</title></rect>
<text x="20" y="120" class="sm">0.9955</text>
<rect x="100" y="110" width="166" height="12" fill="#00f"/>
<rect x="326" y="110" width="472" height="12" fill="#00f"/>
<line x1="266" y1="116" x2="325" y2="116" stroke="#00f"/>
<rect x="103" y="111" width="163" height="10" fill="#ff0"/>
<rect x="327" y="111" width="324" height="10" fill="#ff0"/>
<text x="20" y="140" class="sm">0.00218</text>
<rect x="100" y="130" width="142" height="12" fill="#00f"/>
<rect x="326" y="130" width="472" height="12" fill="#00f"/>
<line x1="242" y1="136" x2="325" y2="136" stroke="#00f"/>
<rect x="103" y="131" width="139" height="10" fill="#ff0"/>
<rect x="327" y="131" width="324" height="10" fill="#ff0"/>
<text x="20" y="160" class="sm">0.00168</text>
<rect x="100" y="150" width="156" height="12" fill="#00f"/>
<rect x="326" y="150" width="472" height="12" fill="#00f"/>
<line x1="256" y1="156" x2="325" y2="156" stroke="#00f"/>
<rect x="409" y="151" width="242" height="10" fill="#ff0"/>
<text x="20" y="180" class="sm">0.0002485</text>
<rect x="100" y="170" width="553" height="12" fill="#00f"/>
<rect x="703" y="170" width="95" height="12" fill="#00f"/>
<line x1="653" y1="176" x2="702" y2="176" stroke="#00f"/>
<rect x="409" y="171" width="242" height="10" fill="#ff0"/>
<text x="20" y="200" class="sm">0.0002346</text>
<rect x="100" y="190" width="59" height="12" fill="#00f"/>
<rect x="326" y="190" width="472" height="12" fill="#00f"/>
<line x1="159" y1="196" x2="325" y2="196" stroke="#00f"/>
<rect x="409" y="191" width="242" height="10" fill="#ff0"/>
<text x="20" y="220" class="sm">6.071e-05</text>
<rect x="100" y="210" width="249" height="12" fill="#00f"/>
<rect x="397" y="210" width="401" height="12" fill="#00f"/>
<line x1="349" y1="216" x2="396" y2="216" stroke="#00f"/>
<rect x="409" y="211" width="242" height="10" fill="#ff0"/>
<text x="20" y="240" class="sm">4.26e-05</text>
<rect x="100" y="230" width="337" height="12" fill="#00f"/>
<rect x="487" y="230" width="311" height="12" fill="#00f"/>
<line x1="437" y1="236" x2="486" y2="236" stroke="#00f"/>
<rect x="103" y="231" width="191" height="10" fill="#ff0"/>
<text x="20" y="260" class="sm">2.128e-05</text>
<rect x="100" y="250" width="551" height="12" fill="#00f"/>
<rect x="703" y="250" width="95" height="12" fill="#00f"/>
<line x1="651" y1="256" x2="702" y2="256" stroke="#00f"/>
<rect x="409" y="251" width="242" height="10" fill="#ff0"/>
<text x="20" y="280" class="sm">3.922e-06</text>
<rect x="100" y="270" width="317" height="12" fill="#00f"/>
<rect x="463" y="270" width="335" height="12" fill="#00f"/>
<line x1="417" y1="276" x2="462" y2="276" stroke="#00f"/>
<rect x="103" y="271" width="191" height="10" fill="#ff0"/>
<text x="20" y="300" class="sm">3.313e-06</text>
<rect x="100" y="290" width="59" height="12" fill="#00f"/>
<rect x="487" y="290" width="311" height="12" fill="#00f"/>
<line x1="159" y1="296" x2="486" y2="296" stroke="#00f"/>
<rect x="123" y="291" width="36" height="10" fill="#ff0"/>
<rect x="488" y="291" width="163" height="10" fill="#ff0"/>
<text x="20" y="320" class="sm">3.096e-06</text>
<rect x="100" y="310" width="142" height="12" fill="#00f"/>
<rect x="487" y="310" width="311" height="12" fill="#00f"/>
<line x1="242" y1="316" x2="486" y2="316" stroke="#00f"/>
<rect x="173" y="311" width="69" height="10" fill="#ff0"/>
<rect x="488" y="311" width="163" height="10" fill="#ff0"/>
<text x="20" y="340" class="sm">2.023e-06</text>
<rect x="100" y="330" width="166" height="12" fill="#00f"/>
<rect x="487" y="330" width="311" height="12" fill="#00f"/>
<line x1="266" y1="336" x2="486" y2="336" stroke="#00f"/>
<rect x="103" y="331" width="163" height="10" fill="#ff0"/>
<rect x="488" y="331" width="72" height="10" fill="#ff0"/>
<text x="20" y="360" class="sm">1.387e-06</text>
<rect x="100" y="350" width="67" height="12" fill="#00f"/>
<rect x="326" y="350" width="472" height="12" fill="#00f"/>
<line x1="167" y1="356" x2="325" y2="356" stroke="#00f"/>
<rect x="103" y="351" width="64" height="10" fill="#ff0"/>
<rect x="327" y="351" width="324" height="10" fill="#ff0"/>
<text x="20" y="380" class="sm">1.33e-06</text>
<rect x="100" y="370" width="189" height="12" fill="#00f"/>
<rect x="326" y="370" width="472" height="12" fill="#00f"/>
<line x1="289" y1="376" x2="325" y2="376" stroke="#00f"/>
<rect x="409" y="371" width="242" height="10" fill="#ff0"/>
<text x="20" y="400" class="sm">6.903e-07</text>
<rect x="100" y="390" width="142" height="12" fill="#00f"/>
<rect x="745" y="390" width="53" height="12" fill="#00f"/>
<line x1="242" y1="396" x2="744" y2="396" stroke="#00f"/>
<rect x="103" y="391" width="139" height="10" fill="#ff0"/>
<rect x="746" y="391" width="33" height="10" fill="#ff0"/>
<text x="20" y="420" class="sm">5.794e-07</text>
<rect x="100" y="410" width="166" height="12" fill="#00f"/>
<rect x="745" y="410" width="53" height="12" fill="#00f"/>
<line x1="266" y1="416" x2="744" y2="416" stroke="#00f"/>
<rect x="103" y="411" width="163" height="10" fill="#ff0"/>
<rect x="746" y="411" width="33" height="10" fill="#ff0"/>
<text x="20" y="440" class="sm">3.878e-07</text>
<rect x="100" y="430" width="67" height="12" fill="#00f"/>
<rect x="217" y="430" width="581" height="12" fill="#00f"/>
<line x1="167" y1="436" x2="216" y2="436" stroke="#00f"/>
<rect x="409" y="431" width="242" height="10" fill="#ff0"/>
<text x="20" y="460" class="sm">3.394e-07</text>
<rect x="100" y="450" width="57" height="12" fill="#00f"/>
<rect x="326" y="450" width="472" height="12" fill="#00f"/>
<line x1="157" y1="456" x2="325" y2="456" stroke="#00f"/>
<rect x="123" y="451" width="34" height="10" fill="#ff0"/>
<rect x="327" y="451" width="324" height="10" fill="#ff0"/>
<text x="20" y="480" class="sm">3.013e-07</text>
<rect x="100" y="470" width="59" height="12" fill="#00f"/>
<rect x="217" y="470" width="581" height="12" fill="#00f"/>
<line x1="159" y1="476" x2="216" y2="476" stroke="#00f"/>
<rect x="409" y="471" width="242" height="10" fill="#ff0"/>
<text x="20" y="500" class="sm">2.58e-07</text>
<rect x="100" y="490" width="59" height="12" fill="#00f"/>
<rect x="745" y="490" width="53" height="12" fill="#00f"/>
<line x1="159" y1="496" x2="744" y2="496" stroke="#00f"/>
<rect x="123" y="491" width="36" height="10" fill="#ff0"/>
<rect x="746" y="491" width="16" height="10" fill="#ff0"/>
</svg>
