<svg viewBox="0 0 911 555" xmlns="http://www.w3.org/2000/svg">

<style>
  .sm { font: 12px sans-serif; }
  .lg { font: 15px sans-serif; }
</style>
<rect fill="#ddd" x="0" y="0" width="100%" height="100%"/>
<text x="20" y="20" class="lg">ch.10499 IV:7556537-7557447 Gene:WBGene00302976</text>
<text x="20" y="50" class="sm">WormBase</text>
<rect x="100" y="40" width="132" height="12" fill="#00f"/>
<rect x="281" y="40" width="207" height="12" fill="#00f"/>
<rect x="549" y="40" width="262" height="12" fill="#00f"/>
<line x1="232" y1="46" x2="280" y2="46" stroke="#00f"/>
<line x1="488" y1="46" x2="548" y2="46" stroke="#00f"/>
<rect x="113" y="41" width="119" height="10" fill="#ff0"/>
<rect x="282" y="41" width="206" height="10" fill="#ff0"/>
<rect x="550" y="41" width="119" height="10" fill="#ff0"/>
<rect x="101" y="41" width="11" height="10" fill="brown"><title>.</title></rect>
<rect x="670" y="41" width="141" height="10" fill="brown"><title>.</title></rect>
<text x="20" y="70" class="sm">Fitness: 0.03449307111043105</text>
<rect x="488" y="65" width="61" height="5" fill="#00f"><title>137329.0</title></rect>
<rect x="232" y="70" width="49" height="5" fill="#00f"><title>87989.0</title></rect>
<rect x="727" y="75" width="93" height="5" fill="#00f"><title>1582.0</title></rect>
<rect x="727" y="80" width="75" height="5" fill="#00f"><title>97.0</title></rect>
<rect x="232" y="85" width="53" height="5" fill="#00f"><title>19.0</title></rect>
<rect x="356" y="90" width="52" height="5" fill="#f0f"><title>12.0</title></rect>
<rect x="321" y="95" width="99" height="5" fill="#00f"><title>9.0</title></rect>
<rect x="820" y="100" width="47" height="5" fill="#00f"><title>5.0</title></rect>
<rect x="820" y="105" width="42" height="5" fill="#00f"><title>4.0</title></rect>
<rect x="477" y="110" width="72" height="5" fill="#00f"><title>3.0</title></rect>
<rect x="767" y="115" width="64" height="5" fill="#00f"><title>3.0</title></rect>
<text x="20" y="145" class="sm">0.5983</text>
<rect x="100" y="135" width="388" height="12" fill="#00f"/>
<rect x="549" y="135" width="265" height="12" fill="#00f"/>
<line x1="488" y1="141" x2="548" y2="141" stroke="#00f"/>
<rect x="252" y="136" width="236" height="10" fill="#ff0"/>
<rect x="550" y="136" width="119" height="10" fill="#ff0"/>
<text x="20" y="165" class="sm">0.3845</text>
<rect x="100" y="155" width="132" height="12" fill="#00f"/>
<rect x="281" y="155" width="533" height="12" fill="#00f"/>
<line x1="232" y1="161" x2="280" y2="161" stroke="#00f"/>
<rect x="113" y="156" width="119" height="10" fill="#ff0"/>
<rect x="282" y="156" width="260" height="10" fill="#ff0"/>
<text x="20" y="185" class="sm">0.01338</text>
<rect x="100" y="175" width="377" height="12" fill="#00f"/>
<rect x="549" y="175" width="265" height="12" fill="#00f"/>
<line x1="477" y1="181" x2="548" y2="181" stroke="#00f"/>
<rect x="252" y="176" width="225" height="10" fill="#ff0"/>
<rect x="550" y="176" width="103" height="10" fill="#ff0"/>
<text x="20" y="205" class="sm">0.001471</text>
<rect x="100" y="195" width="132" height="12" fill="#00f"/>
<rect x="285" y="195" width="529" height="12" fill="#00f"/>
<line x1="232" y1="201" x2="284" y2="201" stroke="#00f"/>
<rect x="113" y="196" width="119" height="10" fill="#ff0"/>
<rect x="286" y="196" width="5" height="10" fill="#ff0"/>
<text x="20" y="225" class="sm">0.0009386</text>
<rect x="100" y="215" width="388" height="12" fill="#00f"/>
<rect x="681" y="215" width="133" height="12" fill="#00f"/>
<line x1="488" y1="221" x2="680" y2="221" stroke="#00f"/>
<rect x="113" y="216" width="125" height="10" fill="#ff0"/>
<text x="20" y="245" class="sm">0.0005764</text>
<rect x="100" y="235" width="132" height="12" fill="#00f"/>
<rect x="333" y="235" width="481" height="12" fill="#00f"/>
<line x1="232" y1="241" x2="332" y2="241" stroke="#00f"/>
<rect x="113" y="236" width="119" height="10" fill="#ff0"/>
<rect x="334" y="236" width="20" height="10" fill="#ff0"/>
<text x="20" y="265" class="sm">0.0002609</text>
<rect x="100" y="255" width="123" height="12" fill="#00f"/>
<rect x="281" y="255" width="533" height="12" fill="#00f"/>
<line x1="223" y1="261" x2="280" y2="261" stroke="#00f"/>
<rect x="113" y="256" width="110" height="10" fill="#ff0"/>
<rect x="282" y="256" width="260" height="10" fill="#ff0"/>
<text x="20" y="285" class="sm">0.0001783</text>
<rect x="100" y="275" width="381" height="12" fill="#00f"/>
<rect x="549" y="275" width="265" height="12" fill="#00f"/>
<line x1="481" y1="281" x2="548" y2="281" stroke="#00f"/>
<rect x="113" y="276" width="125" height="10" fill="#ff0"/>
<text x="20" y="305" class="sm">7.547e-05</text>
<rect x="100" y="295" width="388" height="12" fill="#00f"/>
<rect x="589" y="295" width="225" height="12" fill="#00f"/>
<line x1="488" y1="301" x2="588" y2="301" stroke="#00f"/>
<rect x="113" y="296" width="125" height="10" fill="#ff0"/>
<text x="20" y="325" class="sm">7.305e-05</text>
<rect x="100" y="315" width="42" height="12" fill="#00f"/>
<rect x="281" y="315" width="533" height="12" fill="#00f"/>
<line x1="142" y1="321" x2="280" y2="321" stroke="#00f"/>
<rect x="113" y="316" width="29" height="10" fill="#ff0"/>
<rect x="282" y="316" width="260" height="10" fill="#ff0"/>
<text x="20" y="345" class="sm">6.26e-05</text>
<rect x="100" y="335" width="491" height="12" fill="#00f"/>
<rect x="681" y="335" width="133" height="12" fill="#00f"/>
<line x1="591" y1="341" x2="680" y2="341" stroke="#00f"/>
<rect x="252" y="336" width="290" height="10" fill="#ff0"/>
<text x="20" y="365" class="sm">4.857e-05</text>
<rect x="100" y="355" width="388" height="12" fill="#00f"/>
<rect x="636" y="355" width="178" height="12" fill="#00f"/>
<line x1="488" y1="361" x2="635" y2="361" stroke="#00f"/>
<rect x="252" y="356" width="236" height="10" fill="#ff0"/>
<rect x="637" y="356" width="32" height="10" fill="#ff0"/>
<text x="20" y="385" class="sm">4.171e-05</text>
<rect x="100" y="375" width="377" height="12" fill="#00f"/>
<rect x="681" y="375" width="133" height="12" fill="#00f"/>
<line x1="477" y1="381" x2="680" y2="381" stroke="#00f"/>
<rect x="252" y="376" width="225" height="10" fill="#ff0"/>
<rect x="682" y="376" width="49" height="10" fill="#ff0"/>
<text x="20" y="405" class="sm">3.815e-05</text>
<rect x="100" y="395" width="491" height="12" fill="#00f"/>
<rect x="636" y="395" width="178" height="12" fill="#00f"/>
<line x1="591" y1="401" x2="635" y2="401" stroke="#00f"/>
<rect x="252" y="396" width="290" height="10" fill="#ff0"/>
<text x="20" y="425" class="sm">3.123e-05</text>
<rect x="100" y="415" width="319" height="12" fill="#00f"/>
<rect x="549" y="415" width="265" height="12" fill="#00f"/>
<line x1="419" y1="421" x2="548" y2="421" stroke="#00f"/>
<rect x="252" y="416" width="167" height="10" fill="#ff0"/>
<rect x="550" y="416" width="119" height="10" fill="#ff0"/>
<text x="20" y="445" class="sm">2.265e-05</text>
<rect x="100" y="435" width="132" height="12" fill="#00f"/>
<rect x="351" y="435" width="463" height="12" fill="#00f"/>
<line x1="232" y1="441" x2="350" y2="441" stroke="#00f"/>
<rect x="113" y="436" width="119" height="10" fill="#ff0"/>
<rect x="352" y="436" width="2" height="10" fill="#ff0"/>
<text x="20" y="465" class="sm">2.168e-05</text>
<rect x="100" y="455" width="430" height="12" fill="#00f"/>
<rect x="681" y="455" width="133" height="12" fill="#00f"/>
<line x1="530" y1="461" x2="680" y2="461" stroke="#00f"/>
<rect x="113" y="456" width="125" height="10" fill="#ff0"/>
<text x="20" y="485" class="sm">1.646e-05</text>
<rect x="100" y="475" width="388" height="12" fill="#00f"/>
<rect x="592" y="475" width="222" height="12" fill="#00f"/>
<line x1="488" y1="481" x2="591" y2="481" stroke="#00f"/>
<rect x="113" y="476" width="125" height="10" fill="#ff0"/>
<text x="20" y="505" class="sm">1.338e-05</text>
<rect x="100" y="495" width="250" height="12" fill="#00f"/>
<rect x="402" y="495" width="412" height="12" fill="#00f"/>
<line x1="350" y1="501" x2="401" y2="501" stroke="#00f"/>
<rect x="252" y="496" width="98" height="10" fill="#ff0"/>
<rect x="403" y="496" width="89" height="10" fill="#ff0"/>
<text x="20" y="525" class="sm">8.974e-06</text>
<rect x="100" y="515" width="498" height="12" fill="#00f"/>
<rect x="681" y="515" width="133" height="12" fill="#00f"/>
<line x1="598" y1="521" x2="680" y2="521" stroke="#00f"/>
<rect x="252" y="516" width="290" height="10" fill="#ff0"/>
</svg>
