<svg viewBox="0 0 1122 570" xmlns="http://www.w3.org/2000/svg">

<style>
  .sm { font: 12px sans-serif; }
  .lg { font: 15px sans-serif; }
</style>
<rect fill="#ddd" x="0" y="0" width="100%" height="100%"/>
<text x="20" y="20" class="lg">ch.11335 IV:11020417-11021538 Gene:WBGene00044784</text>
<text x="20" y="50" class="sm">WormBase</text>
<rect x="100" y="40" width="104" height="12" fill="#00f"/>
<rect x="493" y="40" width="529" height="12" fill="#00f"/>
<line x1="204" y1="46" x2="492" y2="46" stroke="#00f"/>
<rect x="109" y="41" width="95" height="10" fill="#ff0"/>
<rect x="494" y="41" width="146" height="10" fill="#ff0"/>
<rect x="101" y="41" width="7" height="10" fill="brown"><title>.</title></rect>
<rect x="641" y="41" width="381" height="10" fill="brown"><title>.</title></rect>
<text x="20" y="70" class="sm">WormBase</text>
<rect x="547" y="60" width="93" height="12" fill="#00f"/>
<rect x="548" y="61" width="92" height="10" fill="#ff0"/>
<text x="20" y="90" class="sm">Fitness: 0.9053278819656637</text>
<rect x="204" y="85" width="289" height="5" fill="#00f"><title>917824.0</title></rect>
<rect x="715" y="90" width="34" height="5" fill="#00f"><title>59.0</title></rect>
<rect x="825" y="95" width="50" height="5" fill="#f0f"><title>37.0</title></rect>
<rect x="401" y="100" width="92" height="5" fill="#00f"><title>18.0</title></rect>
<rect x="198" y="105" width="295" height="5" fill="#00f"><title>16.0</title></rect>
<rect x="48" y="110" width="52" height="5" fill="#00f"><title>13.0</title></rect>
<rect x="196" y="115" width="271" height="5" fill="#f0f"><title>13.0</title></rect>
<rect x="511" y="120" width="57" height="5" fill="#00f"><title>9.0</title></rect>
<rect x="9" y="125" width="458" height="5" fill="#f0f"><title>5.0</title></rect>
<rect x="9" y="130" width="60" height="5" fill="#f0f"><title>4.0</title></rect>
<text x="20" y="160" class="sm">0.5473</text>
<rect x="100" y="150" width="104" height="12" fill="#00f"/>
<rect x="493" y="150" width="532" height="12" fill="#00f"/>
<line x1="204" y1="156" x2="492" y2="156" stroke="#00f"/>
<rect x="109" y="151" width="95" height="10" fill="#ff0"/>
<rect x="494" y="151" width="146" height="10" fill="#ff0"/>
<text x="20" y="180" class="sm">0.4102</text>
<rect x="100" y="170" width="98" height="12" fill="#00f"/>
<rect x="493" y="170" width="532" height="12" fill="#00f"/>
<line x1="198" y1="176" x2="492" y2="176" stroke="#00f"/>
<rect x="109" y="171" width="89" height="10" fill="#ff0"/>
<rect x="494" y="171" width="146" height="10" fill="#ff0"/>
<text x="20" y="200" class="sm">0.01882</text>
<rect x="100" y="190" width="162" height="12" fill="#00f"/>
<rect x="493" y="190" width="532" height="12" fill="#00f"/>
<line x1="262" y1="196" x2="492" y2="196" stroke="#00f"/>
<rect x="659" y="191" width="149" height="10" fill="#ff0"/>
<text x="20" y="220" class="sm">0.01055</text>
<rect x="100" y="210" width="104" height="12" fill="#00f"/>
<rect x="996" y="210" width="29" height="12" fill="#00f"/>
<line x1="204" y1="216" x2="995" y2="216" stroke="#00f"/>
<rect x="158" y="211" width="44" height="10" fill="#ff0"/>
<text x="20" y="240" class="sm">0.008156</text>
<rect x="100" y="230" width="98" height="12" fill="#00f"/>
<rect x="996" y="230" width="29" height="12" fill="#00f"/>
<line x1="198" y1="236" x2="995" y2="236" stroke="#00f"/>
<rect x="158" y="231" width="40" height="10" fill="#ff0"/>
<rect x="997" y="231" width="6" height="10" fill="#ff0"/>
<text x="20" y="260" class="sm">0.001213</text>
<rect x="100" y="250" width="104" height="12" fill="#00f"/>
<rect x="749" y="250" width="276" height="12" fill="#00f"/>
<line x1="204" y1="256" x2="748" y2="256" stroke="#00f"/>
<rect x="109" y="251" width="95" height="10" fill="#ff0"/>
<rect x="750" y="251" width="92" height="10" fill="#ff0"/>
<text x="20" y="280" class="sm">0.001123</text>
<rect x="100" y="270" width="104" height="12" fill="#00f"/>
<rect x="885" y="270" width="140" height="12" fill="#00f"/>
<line x1="204" y1="276" x2="884" y2="276" stroke="#00f"/>
<rect x="109" y="271" width="95" height="10" fill="#ff0"/>
<rect x="886" y="271" width="38" height="10" fill="#ff0"/>
<text x="20" y="300" class="sm">0.0009379</text>
<rect x="100" y="290" width="98" height="12" fill="#00f"/>
<rect x="749" y="290" width="276" height="12" fill="#00f"/>
<line x1="198" y1="296" x2="748" y2="296" stroke="#00f"/>
<rect x="109" y="291" width="89" height="10" fill="#ff0"/>
<rect x="750" y="291" width="92" height="10" fill="#ff0"/>
<text x="20" y="320" class="sm">0.0008687</text>
<rect x="100" y="310" width="98" height="12" fill="#00f"/>
<rect x="885" y="310" width="140" height="12" fill="#00f"/>
<line x1="198" y1="316" x2="884" y2="316" stroke="#00f"/>
<rect x="109" y="311" width="89" height="10" fill="#ff0"/>
<rect x="886" y="311" width="38" height="10" fill="#ff0"/>
<text x="20" y="340" class="sm">0.0003307</text>
<rect x="100" y="330" width="162" height="12" fill="#00f"/>
<rect x="996" y="330" width="29" height="12" fill="#00f"/>
<line x1="262" y1="336" x2="995" y2="336" stroke="#00f"/>
<rect x="109" y="331" width="116" height="10" fill="#ff0"/>
<text x="20" y="360" class="sm">0.0002179</text>
<rect x="100" y="350" width="104" height="12" fill="#00f"/>
<rect x="831" y="350" width="194" height="12" fill="#00f"/>
<line x1="204" y1="356" x2="830" y2="356" stroke="#00f"/>
<rect x="109" y="351" width="95" height="10" fill="#ff0"/>
<rect x="832" y="351" width="53" height="10" fill="#ff0"/>
<text x="20" y="380" class="sm">0.0001685</text>
<rect x="100" y="370" width="98" height="12" fill="#00f"/>
<rect x="831" y="370" width="194" height="12" fill="#00f"/>
<line x1="198" y1="376" x2="830" y2="376" stroke="#00f"/>
<rect x="109" y="371" width="89" height="10" fill="#ff0"/>
<rect x="832" y="371" width="53" height="10" fill="#ff0"/>
<text x="20" y="400" class="sm">6.511e-05</text>
<rect x="100" y="390" width="180" height="12" fill="#00f"/>
<rect x="493" y="390" width="532" height="12" fill="#00f"/>
<line x1="280" y1="396" x2="492" y2="396" stroke="#00f"/>
<rect x="659" y="391" width="149" height="10" fill="#ff0"/>
<text x="20" y="420" class="sm">3.858e-05</text>
<rect x="100" y="410" width="162" height="12" fill="#00f"/>
<rect x="749" y="410" width="276" height="12" fill="#00f"/>
<line x1="262" y1="416" x2="748" y2="416" stroke="#00f"/>
<rect x="109" y="411" width="116" height="10" fill="#ff0"/>
<text x="20" y="440" class="sm">3.522e-05</text>
<rect x="100" y="430" width="162" height="12" fill="#00f"/>
<rect x="885" y="430" width="140" height="12" fill="#00f"/>
<line x1="262" y1="436" x2="884" y2="436" stroke="#00f"/>
<rect x="109" y="431" width="116" height="10" fill="#ff0"/>
<text x="20" y="460" class="sm">1.943e-05</text>
<rect x="100" y="450" width="228" height="12" fill="#00f"/>
<rect x="493" y="450" width="532" height="12" fill="#00f"/>
<line x1="328" y1="456" x2="492" y2="456" stroke="#00f"/>
<rect x="659" y="451" width="149" height="10" fill="#ff0"/>
<text x="20" y="480" class="sm">6.834e-06</text>
<rect x="100" y="470" width="162" height="12" fill="#00f"/>
<rect x="831" y="470" width="194" height="12" fill="#00f"/>
<line x1="262" y1="476" x2="830" y2="476" stroke="#00f"/>
<rect x="851" y="471" width="116" height="10" fill="#ff0"/>
<text x="20" y="500" class="sm">3.998e-06</text>
<rect x="100" y="490" width="210" height="12" fill="#00f"/>
<rect x="493" y="490" width="532" height="12" fill="#00f"/>
<line x1="310" y1="496" x2="492" y2="496" stroke="#00f"/>
<rect x="659" y="491" width="149" height="10" fill="#ff0"/>
<text x="20" y="520" class="sm">2.133e-06</text>
<rect x="100" y="510" width="301" height="12" fill="#00f"/>
<rect x="493" y="510" width="532" height="12" fill="#00f"/>
<line x1="401" y1="516" x2="492" y2="516" stroke="#00f"/>
<rect x="659" y="511" width="149" height="10" fill="#ff0"/>
<text x="20" y="540" class="sm">1.939e-06</text>
<rect x="100" y="530" width="104" height="12" fill="#00f"/>
<rect x="533" y="530" width="492" height="12" fill="#00f"/>
<line x1="204" y1="536" x2="532" y2="536" stroke="#00f"/>
<rect x="109" y="531" width="95" height="10" fill="#ff0"/>
<rect x="534" y="531" width="86" height="10" fill="#ff0"/>
</svg>
