<svg viewBox="0 0 686 525" xmlns="http://www.w3.org/2000/svg">

<style>
  .sm { font: 12px sans-serif; }
  .lg { font: 15px sans-serif; }
</style>
<rect fill="#ddd" x="0" y="0" width="100%" height="100%"/>
<text x="20" y="20" class="lg">ch.15091 V:10896558-10897243 Gene:WBGene00001303</text>
<text x="20" y="50" class="sm">WormBase</text>
<rect x="102" y="40" width="102" height="12" fill="#00f"/>
<rect x="253" y="40" width="335" height="12" fill="#00f"/>
<line x1="204" y1="46" x2="252" y2="46" stroke="#00f"/>
<rect x="111" y="41" width="93" height="10" fill="#ff0"/>
<rect x="254" y="41" width="112" height="10" fill="#ff0"/>
<rect x="103" y="41" width="7" height="10" fill="brown"><title>.</title></rect>
<rect x="367" y="41" width="221" height="10" fill="brown"><title>.</title></rect>
<text x="20" y="70" class="sm">Fitness: 4.633924000497403e-06</text>
<rect x="204" y="65" width="49" height="5" fill="#00f"><title>4742840.0</title></rect>
<rect x="204" y="70" width="57" height="5" fill="#00f"><title>164.0</title></rect>
<rect x="141" y="75" width="137" height="5" fill="#f0f"><title>8.0</title></rect>
<rect x="5" y="80" width="97" height="5" fill="#00f"><title>7.0</title></rect>
<rect x="204" y="85" width="60" height="5" fill="#00f"><title>4.0</title></rect>
<text x="20" y="115" class="sm">1.0</text>
<rect x="100" y="105" width="104" height="12" fill="#00f"/>
<rect x="253" y="105" width="336" height="12" fill="#00f"/>
<line x1="204" y1="111" x2="252" y2="111" stroke="#00f"/>
<rect x="111" y="106" width="93" height="10" fill="#ff0"/>
<rect x="254" y="106" width="112" height="10" fill="#ff0"/>
<text x="20" y="135" class="sm">3.574e-05</text>
<rect x="100" y="125" width="104" height="12" fill="#00f"/>
<rect x="261" y="125" width="328" height="12" fill="#00f"/>
<line x1="204" y1="131" x2="260" y2="131" stroke="#00f"/>
<rect x="111" y="126" width="93" height="10" fill="#ff0"/>
<rect x="262" y="126" width="85" height="10" fill="#ff0"/>
<text x="20" y="155" class="sm">5.621e-07</text>
<rect x="100" y="145" width="83" height="12" fill="#00f"/>
<rect x="253" y="145" width="336" height="12" fill="#00f"/>
<line x1="183" y1="151" x2="252" y2="151" stroke="#00f"/>
<rect x="413" y="146" width="122" height="10" fill="#ff0"/>
<text x="20" y="175" class="sm">3.016e-07</text>
<rect x="100" y="165" width="129" height="12" fill="#00f"/>
<rect x="280" y="165" width="309" height="12" fill="#00f"/>
<line x1="229" y1="171" x2="279" y2="171" stroke="#00f"/>
<rect x="111" y="166" width="118" height="10" fill="#ff0"/>
<rect x="281" y="166" width="66" height="10" fill="#ff0"/>
<text x="20" y="195" class="sm">7.946e-08</text>
<rect x="100" y="185" width="104" height="12" fill="#00f"/>
<rect x="486" y="185" width="103" height="12" fill="#00f"/>
<line x1="204" y1="191" x2="485" y2="191" stroke="#00f"/>
<rect x="111" y="186" width="93" height="10" fill="#ff0"/>
<rect x="487" y="186" width="52" height="10" fill="#ff0"/>
<text x="20" y="215" class="sm">2.102e-08</text>
<rect x="100" y="205" width="104" height="12" fill="#00f"/>
<rect x="280" y="205" width="309" height="12" fill="#00f"/>
<line x1="204" y1="211" x2="279" y2="211" stroke="#00f"/>
<rect x="111" y="206" width="93" height="10" fill="#ff0"/>
<rect x="281" y="206" width="85" height="10" fill="#ff0"/>
<text x="20" y="235" class="sm">4.849e-09</text>
<rect x="100" y="225" width="73" height="12" fill="#00f"/>
<rect x="253" y="225" width="336" height="12" fill="#00f"/>
<line x1="173" y1="231" x2="252" y2="231" stroke="#00f"/>
<rect x="111" y="226" width="62" height="10" fill="#ff0"/>
<rect x="254" y="226" width="281" height="10" fill="#ff0"/>
<text x="20" y="255" class="sm">3.613e-09</text>
<rect x="100" y="245" width="280" height="12" fill="#00f"/>
<rect x="486" y="245" width="103" height="12" fill="#00f"/>
<line x1="380" y1="251" x2="485" y2="251" stroke="#00f"/>
<rect x="223" y="246" width="143" height="10" fill="#ff0"/>
<text x="20" y="275" class="sm">3.147e-09</text>
<rect x="100" y="265" width="63" height="12" fill="#00f"/>
<rect x="253" y="265" width="336" height="12" fill="#00f"/>
<line x1="163" y1="271" x2="252" y2="271" stroke="#00f"/>
<rect x="111" y="266" width="52" height="10" fill="#ff0"/>
<rect x="254" y="266" width="93" height="10" fill="#ff0"/>
<text x="20" y="295" class="sm">2.238e-09</text>
<rect x="100" y="285" width="104" height="12" fill="#00f"/>
<rect x="264" y="285" width="325" height="12" fill="#00f"/>
<line x1="204" y1="291" x2="263" y2="291" stroke="#00f"/>
<rect x="111" y="286" width="93" height="10" fill="#ff0"/>
<rect x="265" y="286" width="82" height="10" fill="#ff0"/>
<text x="20" y="315" class="sm">1.426e-09</text>
<rect x="100" y="305" width="48" height="12" fill="#00f"/>
<rect x="253" y="305" width="336" height="12" fill="#00f"/>
<line x1="148" y1="311" x2="252" y2="311" stroke="#00f"/>
<rect x="111" y="306" width="37" height="10" fill="#ff0"/>
<rect x="254" y="306" width="93" height="10" fill="#ff0"/>
<text x="20" y="335" class="sm">1.402e-09</text>
<rect x="100" y="325" width="104" height="12" fill="#00f"/>
<rect x="390" y="325" width="199" height="12" fill="#00f"/>
<line x1="204" y1="331" x2="389" y2="331" stroke="#00f"/>
<rect x="111" y="326" width="93" height="10" fill="#ff0"/>
<rect x="391" y="326" width="148" height="10" fill="#ff0"/>
<text x="20" y="355" class="sm">1.327e-09</text>
<rect x="100" y="345" width="129" height="12" fill="#00f"/>
<rect x="486" y="345" width="103" height="12" fill="#00f"/>
<line x1="229" y1="351" x2="485" y2="351" stroke="#00f"/>
<rect x="111" y="346" width="118" height="10" fill="#ff0"/>
<rect x="487" y="346" width="48" height="10" fill="#ff0"/>
<text x="20" y="375" class="sm">6.449e-10</text>
<rect x="100" y="365" width="118" height="12" fill="#00f"/>
<rect x="261" y="365" width="328" height="12" fill="#00f"/>
<line x1="218" y1="371" x2="260" y2="371" stroke="#00f"/>
<rect x="111" y="366" width="107" height="10" fill="#ff0"/>
<rect x="262" y="366" width="104" height="10" fill="#ff0"/>
<text x="20" y="395" class="sm">2.828e-10</text>
<rect x="100" y="385" width="104" height="12" fill="#00f"/>
<rect x="488" y="385" width="101" height="12" fill="#00f"/>
<line x1="204" y1="391" x2="487" y2="391" stroke="#00f"/>
<rect x="111" y="386" width="93" height="10" fill="#ff0"/>
<rect x="489" y="386" width="46" height="10" fill="#ff0"/>
<text x="20" y="415" class="sm">2.48e-10</text>
<rect x="100" y="405" width="83" height="12" fill="#00f"/>
<rect x="261" y="405" width="328" height="12" fill="#00f"/>
<line x1="183" y1="411" x2="260" y2="411" stroke="#00f"/>
<rect x="413" y="406" width="122" height="10" fill="#ff0"/>
<text x="20" y="435" class="sm">1.75e-10</text>
<rect x="100" y="425" width="104" height="12" fill="#00f"/>
<rect x="361" y="425" width="228" height="12" fill="#00f"/>
<line x1="204" y1="431" x2="360" y2="431" stroke="#00f"/>
<rect x="413" y="426" width="122" height="10" fill="#ff0"/>
<text x="20" y="455" class="sm">7.599e-11</text>
<rect x="100" y="445" width="129" height="12" fill="#00f"/>
<rect x="390" y="445" width="199" height="12" fill="#00f"/>
<line x1="229" y1="451" x2="389" y2="451" stroke="#00f"/>
<rect x="111" y="446" width="118" height="10" fill="#ff0"/>
<rect x="391" y="446" width="144" height="10" fill="#ff0"/>
<text x="20" y="475" class="sm">2.303e-11</text>
<rect x="100" y="465" width="118" height="12" fill="#00f"/>
<rect x="253" y="465" width="336" height="12" fill="#00f"/>
<line x1="218" y1="471" x2="252" y2="471" stroke="#00f"/>
<rect x="111" y="466" width="107" height="10" fill="#ff0"/>
<rect x="254" y="466" width="281" height="10" fill="#ff0"/>
<text x="20" y="495" class="sm">1.834e-11</text>
<rect x="100" y="485" width="280" height="12" fill="#00f"/>
<rect x="488" y="485" width="101" height="12" fill="#00f"/>
<line x1="380" y1="491" x2="487" y2="491" stroke="#00f"/>
<rect x="223" y="486" width="143" height="10" fill="#ff0"/>
</svg>
