<svg viewBox="0 0 967 540" xmlns="http://www.w3.org/2000/svg">

<style>
  .sm { font: 12px sans-serif; }
  .lg { font: 15px sans-serif; }
</style>
<rect fill="#ddd" x="0" y="0" width="100%" height="100%"/>
<text x="20" y="20" class="lg">ch.17406 V:20375436-20376402 Gene:WBGene00002118</text>
<text x="20" y="50" class="sm">WormBase</text>
<rect x="100" y="40" width="185" height="12" fill="#00f"/>
<rect x="670" y="40" width="197" height="12" fill="#00f"/>
<line x1="285" y1="46" x2="669" y2="46" stroke="#00f"/>
<rect x="105" y="41" width="180" height="10" fill="#ff0"/>
<rect x="671" y="41" width="103" height="10" fill="#ff0"/>
<rect x="101" y="41" width="3" height="10" fill="brown"><title>.</title></rect>
<rect x="775" y="41" width="92" height="10" fill="brown"><title>.</title></rect>
<text x="20" y="70" class="sm">Fitness: 0.006360462632047362</text>
<rect x="285" y="65" width="385" height="5" fill="#00f"><title>314606.0</title></rect>
<rect x="587" y="70" width="83" height="5" fill="#00f"><title>822.0</title></rect>
<rect x="285" y="75" width="387" height="5" fill="#00f"><title>159.0</title></rect>
<rect x="285" y="80" width="371" height="5" fill="#00f"><title>140.0</title></rect>
<rect x="285" y="85" width="182" height="5" fill="#00f"><title>19.0</title></rect>
<rect x="239" y="90" width="431" height="5" fill="#00f"><title>17.0</title></rect>
<rect x="310" y="95" width="360" height="5" fill="#00f"><title>11.0</title></rect>
<rect x="315" y="100" width="355" height="5" fill="#00f"><title>9.0</title></rect>
<text x="20" y="130" class="sm">0.9967</text>
<rect x="100" y="120" width="185" height="12" fill="#00f"/>
<rect x="670" y="120" width="200" height="12" fill="#00f"/>
<line x1="285" y1="126" x2="669" y2="126" stroke="#00f"/>
<rect x="105" y="121" width="180" height="10" fill="#ff0"/>
<rect x="671" y="121" width="103" height="10" fill="#ff0"/>
<text x="20" y="150" class="sm">0.001186</text>
<rect x="100" y="140" width="170" height="12" fill="#00f"/>
<rect x="670" y="140" width="200" height="12" fill="#00f"/>
<line x1="270" y1="146" x2="669" y2="146" stroke="#00f"/>
<rect x="105" y="141" width="165" height="10" fill="#ff0"/>
<rect x="671" y="141" width="1" height="10" fill="#ff0"/>
<text x="20" y="170" class="sm">0.0008731</text>
<rect x="100" y="160" width="185" height="12" fill="#00f"/>
<rect x="656" y="160" width="214" height="12" fill="#00f"/>
<line x1="285" y1="166" x2="655" y2="166" stroke="#00f"/>
<rect x="105" y="161" width="180" height="10" fill="#ff0"/>
<rect x="657" y="161" width="46" height="10" fill="#ff0"/>
<text x="20" y="190" class="sm">0.0008477</text>
<rect x="100" y="180" width="210" height="12" fill="#00f"/>
<rect x="670" y="180" width="200" height="12" fill="#00f"/>
<line x1="310" y1="186" x2="669" y2="186" stroke="#00f"/>
<rect x="105" y="181" width="205" height="10" fill="#ff0"/>
<rect x="671" y="181" width="0" height="10" fill="#ff0"/>
<text x="20" y="210" class="sm">0.0001477</text>
<rect x="100" y="200" width="185" height="12" fill="#00f"/>
<rect x="467" y="200" width="28" height="12" fill="#00f"/>
<rect x="670" y="200" width="200" height="12" fill="#00f"/>
<line x1="285" y1="206" x2="466" y2="206" stroke="#00f"/>
<line x1="495" y1="206" x2="669" y2="206" stroke="#00f"/>
<rect x="105" y="201" width="180" height="10" fill="#ff0"/>
<rect x="468" y="201" width="27" height="10" fill="#ff0"/>
<rect x="671" y="201" width="81" height="10" fill="#ff0"/>
<text x="20" y="230" class="sm">9.519e-05</text>
<rect x="100" y="220" width="158" height="12" fill="#00f"/>
<rect x="670" y="220" width="200" height="12" fill="#00f"/>
<line x1="258" y1="226" x2="669" y2="226" stroke="#00f"/>
<rect x="105" y="221" width="153" height="10" fill="#ff0"/>
<rect x="671" y="221" width="1" height="10" fill="#ff0"/>
<text x="20" y="250" class="sm">7.532e-05</text>
<rect x="100" y="240" width="185" height="12" fill="#00f"/>
<rect x="670" y="240" width="29" height="12" fill="#00f"/>
<rect x="783" y="240" width="87" height="12" fill="#00f"/>
<line x1="285" y1="246" x2="669" y2="246" stroke="#00f"/>
<line x1="699" y1="246" x2="782" y2="246" stroke="#00f"/>
<rect x="105" y="241" width="180" height="10" fill="#ff0"/>
<rect x="671" y="241" width="28" height="10" fill="#ff0"/>
<rect x="784" y="241" width="38" height="10" fill="#ff0"/>
<text x="20" y="270" class="sm">6.053e-05</text>
<rect x="100" y="260" width="185" height="12" fill="#00f"/>
<rect x="670" y="260" width="77" height="12" fill="#00f"/>
<rect x="783" y="260" width="87" height="12" fill="#00f"/>
<line x1="285" y1="266" x2="669" y2="266" stroke="#00f"/>
<line x1="747" y1="266" x2="782" y2="266" stroke="#00f"/>
<rect x="105" y="261" width="180" height="10" fill="#ff0"/>
<rect x="671" y="261" width="76" height="10" fill="#ff0"/>
<rect x="784" y="261" width="38" height="10" fill="#ff0"/>
<text x="20" y="290" class="sm">9.544e-06</text>
<rect x="100" y="280" width="99" height="12" fill="#00f"/>
<rect x="670" y="280" width="200" height="12" fill="#00f"/>
<line x1="199" y1="286" x2="669" y2="286" stroke="#00f"/>
<rect x="105" y="281" width="94" height="10" fill="#ff0"/>
<rect x="671" y="281" width="81" height="10" fill="#ff0"/>
<text x="20" y="310" class="sm">7.823e-06</text>
<rect x="100" y="300" width="215" height="12" fill="#00f"/>
<rect x="670" y="300" width="200" height="12" fill="#00f"/>
<line x1="315" y1="306" x2="669" y2="306" stroke="#00f"/>
<rect x="105" y="301" width="206" height="10" fill="#ff0"/>
<text x="20" y="330" class="sm">3.786e-06</text>
<rect x="100" y="320" width="185" height="12" fill="#00f"/>
<rect x="783" y="320" width="87" height="12" fill="#00f"/>
<line x1="285" y1="326" x2="782" y2="326" stroke="#00f"/>
<rect x="105" y="321" width="180" height="10" fill="#ff0"/>
<rect x="784" y="321" width="49" height="10" fill="#ff0"/>
<text x="20" y="350" class="sm">1.585e-06</text>
<rect x="100" y="340" width="260" height="12" fill="#00f"/>
<rect x="670" y="340" width="200" height="12" fill="#00f"/>
<line x1="360" y1="346" x2="669" y2="346" stroke="#00f"/>
<rect x="105" y="341" width="206" height="10" fill="#ff0"/>
<text x="20" y="370" class="sm">1.205e-06</text>
<rect x="100" y="360" width="267" height="12" fill="#00f"/>
<rect x="670" y="360" width="200" height="12" fill="#00f"/>
<line x1="367" y1="366" x2="669" y2="366" stroke="#00f"/>
<rect x="105" y="361" width="206" height="10" fill="#ff0"/>
<text x="20" y="390" class="sm">9.549e-07</text>
<rect x="100" y="380" width="170" height="12" fill="#00f"/>
<rect x="656" y="380" width="214" height="12" fill="#00f"/>
<line x1="270" y1="386" x2="655" y2="386" stroke="#00f"/>
<rect x="105" y="381" width="165" height="10" fill="#ff0"/>
<rect x="657" y="381" width="46" height="10" fill="#ff0"/>
<text x="20" y="410" class="sm">8.86e-07</text>
<rect x="100" y="400" width="195" height="12" fill="#00f"/>
<rect x="670" y="400" width="200" height="12" fill="#00f"/>
<line x1="295" y1="406" x2="669" y2="406" stroke="#00f"/>
<rect x="105" y="401" width="190" height="10" fill="#ff0"/>
<rect x="671" y="401" width="81" height="10" fill="#ff0"/>
<text x="20" y="430" class="sm">8.458e-07</text>
<rect x="100" y="420" width="139" height="12" fill="#00f"/>
<rect x="670" y="420" width="200" height="12" fill="#00f"/>
<line x1="239" y1="426" x2="669" y2="426" stroke="#00f"/>
<rect x="105" y="421" width="134" height="10" fill="#ff0"/>
<rect x="671" y="421" width="32" height="10" fill="#ff0"/>
<text x="20" y="450" class="sm">6.925e-07</text>
<rect x="100" y="440" width="210" height="12" fill="#00f"/>
<rect x="656" y="440" width="214" height="12" fill="#00f"/>
<line x1="310" y1="446" x2="655" y2="446" stroke="#00f"/>
<rect x="105" y="441" width="205" height="10" fill="#ff0"/>
<rect x="657" y="441" width="117" height="10" fill="#ff0"/>
<text x="20" y="470" class="sm">2.57e-07</text>
<rect x="100" y="460" width="116" height="12" fill="#00f"/>
<rect x="670" y="460" width="200" height="12" fill="#00f"/>
<line x1="216" y1="466" x2="669" y2="466" stroke="#00f"/>
<rect x="105" y="461" width="111" height="10" fill="#ff0"/>
<rect x="671" y="461" width="103" height="10" fill="#ff0"/>
<text x="20" y="490" class="sm">1.521e-07</text>
<rect x="100" y="480" width="170" height="12" fill="#00f"/>
<rect x="467" y="480" width="28" height="12" fill="#00f"/>
<rect x="670" y="480" width="200" height="12" fill="#00f"/>
<line x1="270" y1="486" x2="466" y2="486" stroke="#00f"/>
<line x1="495" y1="486" x2="669" y2="486" stroke="#00f"/>
<rect x="105" y="481" width="165" height="10" fill="#ff0"/>
<rect x="468" y="481" width="1" height="10" fill="#ff0"/>
<text x="20" y="510" class="sm">1.474e-07</text>
<rect x="100" y="500" width="185" height="12" fill="#00f"/>
<rect x="467" y="500" width="28" height="12" fill="#00f"/>
<rect x="656" y="500" width="214" height="12" fill="#00f"/>
<line x1="285" y1="506" x2="466" y2="506" stroke="#00f"/>
<line x1="495" y1="506" x2="655" y2="506" stroke="#00f"/>
<rect x="105" y="501" width="180" height="10" fill="#ff0"/>
<rect x="468" y="501" width="27" height="10" fill="#ff0"/>
<rect x="657" y="501" width="117" height="10" fill="#ff0"/>
</svg>
