<svg viewBox="0 0 1179 610" xmlns="http://www.w3.org/2000/svg">

<style>
  .sm { font: 12px sans-serif; }
  .lg { font: 15px sans-serif; }
</style>
<rect fill="#ddd" x="0" y="0" width="100%" height="100%"/>
<text x="20" y="20" class="lg">ch.15505 V:12552113-12553291 Gene:WBGene00009724</text>
<text x="20" y="50" class="sm">WormBase</text>
<rect x="102" y="40" width="113" height="12" fill="#00f"/>
<rect x="270" y="40" width="811" height="12" fill="#00f"/>
<line x1="215" y1="46" x2="269" y2="46" stroke="#00f"/>
<rect x="128" y="41" width="87" height="10" fill="#ff0"/>
<rect x="271" y="41" width="598" height="10" fill="#ff0"/>
<rect x="103" y="41" width="24" height="10" fill="brown"><title>.</title></rect>
<rect x="870" y="41" width="211" height="10" fill="brown"><title>.</title></rect>
<text x="20" y="70" class="sm">WormBase</text>
<rect x="102" y="60" width="113" height="12" fill="#00f"/>
<rect x="387" y="60" width="690" height="12" fill="#00f"/>
<line x1="215" y1="66" x2="386" y2="66" stroke="#00f"/>
<rect x="128" y="61" width="87" height="10" fill="#ff0"/>
<rect x="388" y="61" width="481" height="10" fill="#ff0"/>
<rect x="103" y="61" width="24" height="10" fill="brown"><title>.</title></rect>
<rect x="870" y="61" width="207" height="10" fill="brown"><title>.</title></rect>
<text x="20" y="90" class="sm">Fitness: 0.002667369398638324</text>
<rect x="215" y="85" width="55" height="5" fill="#00f"><title>870637.0</title></rect>
<rect x="215" y="90" width="172" height="5" fill="#00f"><title>57126.0</title></rect>
<rect x="1054" y="95" width="54" height="5" fill="#00f"><title>40.0</title></rect>
<rect x="215" y="100" width="153" height="5" fill="#00f"><title>23.0</title></rect>
<rect x="912" y="105" width="48" height="5" fill="#f0f"><title>15.0</title></rect>
<rect x="215" y="110" width="180" height="5" fill="#00f"><title>13.0</title></rect>
<rect x="718" y="115" width="200" height="5" fill="#f0f"><title>11.0</title></rect>
<rect x="215" y="120" width="201" height="5" fill="#00f"><title>9.0</title></rect>
<rect x="62" y="125" width="40" height="5" fill="#00f"><title>7.0</title></rect>
<rect x="486" y="130" width="50" height="5" fill="#f0f"><title>6.0</title></rect>
<rect x="398" y="135" width="79" height="5" fill="#00f"><title>6.0</title></rect>
<rect x="706" y="140" width="254" height="5" fill="#f0f"><title>5.0</title></rect>
<rect x="447" y="145" width="500" height="5" fill="#f0f"><title>5.0</title></rect>
<rect x="139" y="150" width="512" height="5" fill="#f0f"><title>5.0</title></rect>
<rect x="855" y="155" width="63" height="5" fill="#f0f"><title>4.0</title></rect>
<rect x="137" y="160" width="781" height="5" fill="#f0f"><title>4.0</title></rect>
<rect x="219" y="165" width="176" height="5" fill="#00f"><title>4.0</title></rect>
<rect x="772" y="170" width="160" height="5" fill="#f0f"><title>3.0</title></rect>
<text x="20" y="200" class="sm">0.9379</text>
<rect x="100" y="190" width="115" height="12" fill="#00f"/>
<rect x="270" y="190" width="812" height="12" fill="#00f"/>
<line x1="215" y1="196" x2="269" y2="196" stroke="#00f"/>
<rect x="128" y="191" width="87" height="10" fill="#ff0"/>
<rect x="271" y="191" width="598" height="10" fill="#ff0"/>
<text x="20" y="220" class="sm">0.06072</text>
<rect x="100" y="210" width="115" height="12" fill="#00f"/>
<rect x="387" y="210" width="695" height="12" fill="#00f"/>
<line x1="215" y1="216" x2="386" y2="216" stroke="#00f"/>
<rect x="128" y="211" width="87" height="10" fill="#ff0"/>
<rect x="388" y="211" width="481" height="10" fill="#ff0"/>
<text x="20" y="240" class="sm">0.0005248</text>
<rect x="100" y="230" width="115" height="12" fill="#00f"/>
<rect x="471" y="230" width="611" height="12" fill="#00f"/>
<line x1="215" y1="236" x2="470" y2="236" stroke="#00f"/>
<rect x="128" y="231" width="87" height="10" fill="#ff0"/>
<rect x="472" y="231" width="397" height="10" fill="#ff0"/>
<text x="20" y="260" class="sm">0.0004106</text>
<rect x="100" y="250" width="298" height="12" fill="#00f"/>
<rect x="471" y="250" width="611" height="12" fill="#00f"/>
<line x1="398" y1="256" x2="470" y2="256" stroke="#00f"/>
<rect x="303" y="251" width="95" height="10" fill="#ff0"/>
<rect x="472" y="251" width="260" height="10" fill="#ff0"/>
<text x="20" y="280" class="sm">0.0002656</text>
<rect x="100" y="270" width="115" height="12" fill="#00f"/>
<rect x="416" y="270" width="666" height="12" fill="#00f"/>
<line x1="215" y1="276" x2="415" y2="276" stroke="#00f"/>
<rect x="213" y="271" width="2" height="10" fill="#ff0"/>
<rect x="417" y="271" width="452" height="10" fill="#ff0"/>
<text x="20" y="300" class="sm">6.732e-05</text>
<rect x="100" y="290" width="115" height="12" fill="#00f"/>
<rect x="404" y="290" width="678" height="12" fill="#00f"/>
<line x1="215" y1="296" x2="403" y2="296" stroke="#00f"/>
<rect x="213" y="291" width="2" height="10" fill="#ff0"/>
<rect x="405" y="291" width="464" height="10" fill="#ff0"/>
<text x="20" y="320" class="sm">2.357e-05</text>
<rect x="100" y="310" width="119" height="12" fill="#00f"/>
<rect x="270" y="310" width="812" height="12" fill="#00f"/>
<line x1="219" y1="316" x2="269" y2="316" stroke="#00f"/>
<rect x="213" y="311" width="6" height="10" fill="#ff0"/>
<rect x="271" y="311" width="598" height="10" fill="#ff0"/>
<text x="20" y="340" class="sm">2.131e-05</text>
<rect x="100" y="330" width="115" height="12" fill="#00f"/>
<rect x="423" y="330" width="659" height="12" fill="#00f"/>
<line x1="215" y1="336" x2="422" y2="336" stroke="#00f"/>
<rect x="128" y="331" width="87" height="10" fill="#ff0"/>
<rect x="424" y="331" width="445" height="10" fill="#ff0"/>
<text x="20" y="360" class="sm">6.336e-06</text>
<rect x="100" y="350" width="115" height="12" fill="#00f"/>
<rect x="309" y="350" width="773" height="12" fill="#00f"/>
<line x1="215" y1="356" x2="308" y2="356" stroke="#00f"/>
<rect x="128" y="351" width="87" height="10" fill="#ff0"/>
<rect x="310" y="351" width="559" height="10" fill="#ff0"/>
<text x="20" y="380" class="sm">6.197e-06</text>
<rect x="100" y="370" width="115" height="12" fill="#00f"/>
<rect x="377" y="370" width="705" height="12" fill="#00f"/>
<line x1="215" y1="376" x2="376" y2="376" stroke="#00f"/>
<rect x="213" y="371" width="2" height="10" fill="#ff0"/>
<rect x="378" y="371" width="491" height="10" fill="#ff0"/>
<text x="20" y="400" class="sm">2.614e-06</text>
<rect x="100" y="390" width="115" height="12" fill="#00f"/>
<rect x="477" y="390" width="605" height="12" fill="#00f"/>
<line x1="215" y1="396" x2="476" y2="396" stroke="#00f"/>
<rect x="128" y="391" width="87" height="10" fill="#ff0"/>
<rect x="478" y="391" width="391" height="10" fill="#ff0"/>
<text x="20" y="420" class="sm">2.454e-06</text>
<rect x="100" y="410" width="247" height="12" fill="#00f"/>
<rect x="387" y="410" width="695" height="12" fill="#00f"/>
<line x1="347" y1="416" x2="386" y2="416" stroke="#00f"/>
<rect x="406" y="411" width="326" height="10" fill="#ff0"/>
<text x="20" y="440" class="sm">1.99e-06</text>
<rect x="100" y="430" width="686" height="12" fill="#00f"/>
<rect x="874" y="430" width="208" height="12" fill="#00f"/>
<line x1="786" y1="436" x2="873" y2="436" stroke="#00f"/>
<rect x="303" y="431" width="483" height="10" fill="#ff0"/>
<rect x="875" y="431" width="187" height="10" fill="#ff0"/>
<text x="20" y="460" class="sm">1.987e-06</text>
<rect x="100" y="450" width="298" height="12" fill="#00f"/>
<rect x="477" y="450" width="605" height="12" fill="#00f"/>
<line x1="398" y1="456" x2="476" y2="456" stroke="#00f"/>
<rect x="303" y="451" width="95" height="10" fill="#ff0"/>
<rect x="478" y="451" width="254" height="10" fill="#ff0"/>
<text x="20" y="480" class="sm">1.64e-06</text>
<rect x="100" y="470" width="115" height="12" fill="#00f"/>
<rect x="429" y="470" width="653" height="12" fill="#00f"/>
<line x1="215" y1="476" x2="428" y2="476" stroke="#00f"/>
<rect x="128" y="471" width="87" height="10" fill="#ff0"/>
<rect x="430" y="471" width="439" height="10" fill="#ff0"/>
<text x="20" y="500" class="sm">1.407e-06</text>
<rect x="100" y="490" width="119" height="12" fill="#00f"/>
<rect x="387" y="490" width="695" height="12" fill="#00f"/>
<line x1="219" y1="496" x2="386" y2="496" stroke="#00f"/>
<rect x="213" y="491" width="6" height="10" fill="#ff0"/>
<rect x="388" y="491" width="481" height="10" fill="#ff0"/>
<text x="20" y="520" class="sm">1.325e-06</text>
<rect x="100" y="510" width="679" height="12" fill="#00f"/>
<rect x="874" y="510" width="208" height="12" fill="#00f"/>
<line x1="779" y1="516" x2="873" y2="516" stroke="#00f"/>
<rect x="303" y="511" width="476" height="10" fill="#ff0"/>
<rect x="875" y="511" width="11" height="10" fill="#ff0"/>
<text x="20" y="540" class="sm">1.122e-06</text>
<rect x="100" y="530" width="115" height="12" fill="#00f"/>
<rect x="368" y="530" width="714" height="12" fill="#00f"/>
<line x1="215" y1="536" x2="367" y2="536" stroke="#00f"/>
<rect x="213" y="531" width="2" height="10" fill="#ff0"/>
<rect x="369" y="531" width="500" height="10" fill="#ff0"/>
<text x="20" y="560" class="sm">9.111e-07</text>
<rect x="100" y="550" width="115" height="12" fill="#00f"/>
<rect x="576" y="550" width="506" height="12" fill="#00f"/>
<line x1="215" y1="556" x2="575" y2="556" stroke="#00f"/>
<rect x="128" y="551" width="87" height="10" fill="#ff0"/>
<rect x="577" y="551" width="292" height="10" fill="#ff0"/>
<text x="20" y="580" class="sm">9.002e-07</text>
<rect x="100" y="570" width="54" height="12" fill="#00f"/>
<rect x="270" y="570" width="812" height="12" fill="#00f"/>
<line x1="154" y1="576" x2="269" y2="576" stroke="#00f"/>
<rect x="303" y="571" width="566" height="10" fill="#ff0"/>
</svg>
