<svg viewBox="0 0 595 505" xmlns="http://www.w3.org/2000/svg">

<style>
  .sm { font: 12px sans-serif; }
  .lg { font: 15px sans-serif; }
</style>
<rect fill="#ddd" x="0" y="0" width="100%" height="100%"/>
<text x="20" y="20" class="lg">ch.16147 V:15086813-15087407 Gene:WBGene00007240</text>
<text x="20" y="50" class="sm">WormBase</text>
<rect x="102" y="40" width="74" height="12" fill="#00f"/>
<rect x="219" y="40" width="278" height="12" fill="#00f"/>
<line x1="176" y1="46" x2="218" y2="46" stroke="#00f"/>
<rect x="114" y="41" width="62" height="10" fill="#ff0"/>
<rect x="220" y="41" width="239" height="10" fill="#ff0"/>
<rect x="103" y="41" width="10" height="10" fill="brown"><title>.</title></rect>
<rect x="460" y="41" width="37" height="10" fill="brown"><title>.</title></rect>
<text x="20" y="70" class="sm">Fitness: 5.525920321455859e-15</text>
<rect x="176" y="65" width="43" height="5" fill="#00f"><title>114292.0</title></rect>
<text x="20" y="95" class="sm">1.0</text>
<rect x="100" y="85" width="76" height="12" fill="#00f"/>
<rect x="219" y="85" width="279" height="12" fill="#00f"/>
<line x1="176" y1="91" x2="218" y2="91" stroke="#00f"/>
<rect x="114" y="86" width="62" height="10" fill="#ff0"/>
<rect x="220" y="86" width="239" height="10" fill="#ff0"/>
<text x="20" y="115" class="sm">1.213e-15</text>
<rect x="100" y="105" width="46" height="12" fill="#00f"/>
<rect x="219" y="105" width="279" height="12" fill="#00f"/>
<line x1="146" y1="111" x2="218" y2="111" stroke="#00f"/>
<rect x="114" y="106" width="32" height="10" fill="#ff0"/>
<rect x="220" y="106" width="239" height="10" fill="#ff0"/>
<text x="20" y="135" class="sm">1.147e-15</text>
<rect x="100" y="125" width="80" height="12" fill="#00f"/>
<rect x="219" y="125" width="279" height="12" fill="#00f"/>
<line x1="180" y1="131" x2="218" y2="131" stroke="#00f"/>
<rect x="317" y="126" width="125" height="10" fill="#ff0"/>
<text x="20" y="155" class="sm">4.979e-16</text>
<rect x="100" y="145" width="76" height="12" fill="#00f"/>
<rect x="377" y="145" width="121" height="12" fill="#00f"/>
<line x1="176" y1="151" x2="376" y2="151" stroke="#00f"/>
<rect x="114" y="146" width="62" height="10" fill="#ff0"/>
<rect x="378" y="146" width="2" height="10" fill="#ff0"/>
<text x="20" y="175" class="sm">3.48e-18</text>
<rect x="100" y="165" width="276" height="12" fill="#00f"/>
<rect x="416" y="165" width="82" height="12" fill="#00f"/>
<line x1="376" y1="171" x2="415" y2="171" stroke="#00f"/>
<rect x="317" y="166" width="59" height="10" fill="#ff0"/>
<rect x="417" y="166" width="65" height="10" fill="#ff0"/>
<text x="20" y="195" class="sm">3.96e-21</text>
<rect x="100" y="185" width="219" height="12" fill="#00f"/>
<rect x="377" y="185" width="121" height="12" fill="#00f"/>
<line x1="319" y1="191" x2="376" y2="191" stroke="#00f"/>
<rect x="114" y="186" width="77" height="10" fill="#ff0"/>
<text x="20" y="215" class="sm">1.066e-21</text>
<rect x="100" y="205" width="76" height="12" fill="#00f"/>
<rect x="416" y="205" width="82" height="12" fill="#00f"/>
<line x1="176" y1="211" x2="415" y2="211" stroke="#00f"/>
<rect x="114" y="206" width="62" height="10" fill="#ff0"/>
<rect x="417" y="206" width="65" height="10" fill="#ff0"/>
<text x="20" y="235" class="sm">2.417e-23</text>
<rect x="100" y="225" width="144" height="12" fill="#00f"/>
<rect x="377" y="225" width="121" height="12" fill="#00f"/>
<line x1="244" y1="231" x2="376" y2="231" stroke="#00f"/>
<rect x="114" y="226" width="77" height="10" fill="#ff0"/>
<text x="20" y="255" class="sm">5.326e-24</text>
<rect x="100" y="245" width="76" height="12" fill="#00f"/>
<rect x="410" y="245" width="88" height="12" fill="#00f"/>
<line x1="176" y1="251" x2="409" y2="251" stroke="#00f"/>
<rect x="114" y="246" width="62" height="10" fill="#ff0"/>
<rect x="411" y="246" width="71" height="10" fill="#ff0"/>
<text x="20" y="275" class="sm">3.919e-24</text>
<rect x="100" y="265" width="261" height="12" fill="#00f"/>
<rect x="416" y="265" width="82" height="12" fill="#00f"/>
<line x1="361" y1="271" x2="415" y2="271" stroke="#00f"/>
<rect x="317" y="266" width="44" height="10" fill="#ff0"/>
<rect x="417" y="266" width="65" height="10" fill="#ff0"/>
<text x="20" y="295" class="sm">2.067e-24</text>
<rect x="100" y="285" width="76" height="12" fill="#00f"/>
<rect x="219" y="285" width="157" height="12" fill="#00f"/>
<rect x="416" y="285" width="82" height="12" fill="#00f"/>
<line x1="176" y1="291" x2="218" y2="291" stroke="#00f"/>
<line x1="376" y1="291" x2="415" y2="291" stroke="#00f"/>
<rect x="114" y="286" width="62" height="10" fill="#ff0"/>
<rect x="220" y="286" width="156" height="10" fill="#ff0"/>
<rect x="417" y="286" width="25" height="10" fill="#ff0"/>
<text x="20" y="315" class="sm">5.946e-25</text>
<rect x="100" y="305" width="261" height="12" fill="#00f"/>
<rect x="410" y="305" width="88" height="12" fill="#00f"/>
<line x1="361" y1="311" x2="409" y2="311" stroke="#00f"/>
<rect x="317" y="306" width="44" height="10" fill="#ff0"/>
<rect x="411" y="306" width="71" height="10" fill="#ff0"/>
<text x="20" y="335" class="sm">1.055e-25</text>
<rect x="100" y="325" width="276" height="12" fill="#00f"/>
<rect x="456" y="325" width="42" height="12" fill="#00f"/>
<line x1="376" y1="331" x2="455" y2="331" stroke="#00f"/>
<rect x="114" y="326" width="77" height="10" fill="#ff0"/>
<text x="20" y="355" class="sm">7.933e-26</text>
<rect x="100" y="345" width="46" height="12" fill="#00f"/>
<rect x="181" y="345" width="317" height="12" fill="#00f"/>
<line x1="146" y1="351" x2="180" y2="351" stroke="#00f"/>
<rect x="317" y="346" width="125" height="10" fill="#ff0"/>
<text x="20" y="375" class="sm">5.542e-26</text>
<rect x="100" y="365" width="276" height="12" fill="#00f"/>
<rect x="453" y="365" width="45" height="12" fill="#00f"/>
<line x1="376" y1="371" x2="452" y2="371" stroke="#00f"/>
<rect x="114" y="366" width="77" height="10" fill="#ff0"/>
<text x="20" y="395" class="sm">2.49e-26</text>
<rect x="100" y="385" width="76" height="12" fill="#00f"/>
<rect x="456" y="385" width="42" height="12" fill="#00f"/>
<line x1="176" y1="391" x2="455" y2="391" stroke="#00f"/>
<rect x="114" y="386" width="62" height="10" fill="#ff0"/>
<rect x="457" y="386" width="2" height="10" fill="#ff0"/>
<text x="20" y="415" class="sm">7.204e-27</text>
<rect x="100" y="405" width="76" height="12" fill="#00f"/>
<rect x="453" y="405" width="45" height="12" fill="#00f"/>
<line x1="176" y1="411" x2="452" y2="411" stroke="#00f"/>
<rect x="114" y="406" width="62" height="10" fill="#ff0"/>
<rect x="454" y="406" width="5" height="10" fill="#ff0"/>
<text x="20" y="435" class="sm">3.964e-27</text>
<rect x="100" y="425" width="46" height="12" fill="#00f"/>
<rect x="377" y="425" width="121" height="12" fill="#00f"/>
<line x1="146" y1="431" x2="376" y2="431" stroke="#00f"/>
<rect x="386" y="426" width="56" height="10" fill="#ff0"/>
<text x="20" y="455" class="sm">2.323e-27</text>
<rect x="100" y="445" width="76" height="12" fill="#00f"/>
<rect x="219" y="445" width="100" height="12" fill="#00f"/>
<rect x="377" y="445" width="121" height="12" fill="#00f"/>
<line x1="176" y1="451" x2="218" y2="451" stroke="#00f"/>
<line x1="319" y1="451" x2="376" y2="451" stroke="#00f"/>
<rect x="114" y="446" width="62" height="10" fill="#ff0"/>
<rect x="220" y="446" width="99" height="10" fill="#ff0"/>
<rect x="378" y="446" width="64" height="10" fill="#ff0"/>
<text x="20" y="475" class="sm">2.019e-28</text>
<rect x="100" y="465" width="112" height="12" fill="#00f"/>
<rect x="377" y="465" width="121" height="12" fill="#00f"/>
<line x1="212" y1="471" x2="376" y2="471" stroke="#00f"/>
<rect x="114" y="466" width="77" height="10" fill="#ff0"/>
</svg>
