<svg viewBox="0 0 966 520" xmlns="http://www.w3.org/2000/svg">

<style>
  .sm { font: 12px sans-serif; }
  .lg { font: 15px sans-serif; }
</style>
<rect fill="#ddd" x="0" y="0" width="100%" height="100%"/>
<text x="20" y="20" class="lg">ch.12589 V:622070-623035 Gene:WBGene00018616</text>
<text x="20" y="50" class="sm">WormBase</text>
<rect x="102" y="40" width="187" height="12" fill="#00f"/>
<rect x="433" y="40" width="435" height="12" fill="#00f"/>
<line x1="289" y1="46" x2="432" y2="46" stroke="#00f"/>
<rect x="130" y="41" width="159" height="10" fill="#ff0"/>
<rect x="434" y="41" width="334" height="10" fill="#ff0"/>
<rect x="103" y="41" width="26" height="10" fill="brown"><title>.</title></rect>
<rect x="769" y="41" width="99" height="10" fill="brown"><title>.</title></rect>
<text x="20" y="70" class="sm">Fitness: 0.00025771435310577935</text>
<rect x="289" y="65" width="144" height="5" fill="#00f"><title>117022.0</title></rect>
<rect x="217" y="70" width="216" height="5" fill="#00f"><title>7.0</title></rect>
<rect x="284" y="75" width="667" height="5" fill="#f0f"><title>3.0</title></rect>
<rect x="289" y="80" width="228" height="5" fill="#00f"><title>3.0</title></rect>
<text x="20" y="110" class="sm">0.9999</text>
<rect x="100" y="100" width="189" height="12" fill="#00f"/>
<rect x="433" y="100" width="436" height="12" fill="#00f"/>
<line x1="289" y1="106" x2="432" y2="106" stroke="#00f"/>
<rect x="127" y="101" width="162" height="10" fill="#ff0"/>
<rect x="434" y="101" width="334" height="10" fill="#ff0"/>
<text x="20" y="130" class="sm">7.448e-05</text>
<rect x="100" y="120" width="193" height="12" fill="#00f"/>
<rect x="433" y="120" width="436" height="12" fill="#00f"/>
<line x1="293" y1="126" x2="432" y2="126" stroke="#00f"/>
<rect x="275" y="121" width="18" height="10" fill="#ff0"/>
<rect x="434" y="121" width="334" height="10" fill="#ff0"/>
<text x="20" y="150" class="sm">5.255e-05</text>
<rect x="100" y="140" width="217" height="12" fill="#00f"/>
<rect x="433" y="140" width="436" height="12" fill="#00f"/>
<line x1="317" y1="146" x2="432" y2="146" stroke="#00f"/>
<rect x="535" y="141" width="233" height="10" fill="#ff0"/>
<text x="20" y="170" class="sm">4.607e-07</text>
<rect x="100" y="160" width="68" height="12" fill="#00f"/>
<rect x="433" y="160" width="436" height="12" fill="#00f"/>
<line x1="168" y1="166" x2="432" y2="166" stroke="#00f"/>
<rect x="535" y="161" width="233" height="10" fill="#ff0"/>
<text x="20" y="190" class="sm">4.068e-07</text>
<rect x="100" y="180" width="189" height="12" fill="#00f"/>
<rect x="370" y="180" width="499" height="12" fill="#00f"/>
<line x1="289" y1="186" x2="369" y2="186" stroke="#00f"/>
<rect x="535" y="181" width="233" height="10" fill="#ff0"/>
<text x="20" y="210" class="sm">2.111e-07</text>
<rect x="100" y="200" width="85" height="12" fill="#00f"/>
<rect x="433" y="200" width="436" height="12" fill="#00f"/>
<line x1="185" y1="206" x2="432" y2="206" stroke="#00f"/>
<rect x="535" y="201" width="233" height="10" fill="#ff0"/>
<text x="20" y="230" class="sm">1.914e-07</text>
<rect x="100" y="220" width="189" height="12" fill="#00f"/>
<rect x="353" y="220" width="516" height="12" fill="#00f"/>
<line x1="289" y1="226" x2="352" y2="226" stroke="#00f"/>
<rect x="127" y="221" width="162" height="10" fill="#ff0"/>
<rect x="354" y="221" width="151" height="10" fill="#ff0"/>
<text x="20" y="250" class="sm">1.745e-07</text>
<rect x="100" y="240" width="156" height="12" fill="#00f"/>
<rect x="433" y="240" width="436" height="12" fill="#00f"/>
<line x1="256" y1="246" x2="432" y2="246" stroke="#00f"/>
<rect x="127" y="241" width="129" height="10" fill="#ff0"/>
<rect x="434" y="241" width="334" height="10" fill="#ff0"/>
<text x="20" y="270" class="sm">1.358e-07</text>
<rect x="100" y="260" width="189" height="12" fill="#00f"/>
<rect x="362" y="260" width="507" height="12" fill="#00f"/>
<line x1="289" y1="266" x2="361" y2="266" stroke="#00f"/>
<rect x="127" y="261" width="162" height="10" fill="#ff0"/>
<rect x="363" y="261" width="142" height="10" fill="#ff0"/>
<text x="20" y="290" class="sm">7.346e-08</text>
<rect x="100" y="280" width="276" height="12" fill="#00f"/>
<rect x="433" y="280" width="436" height="12" fill="#00f"/>
<line x1="376" y1="286" x2="432" y2="286" stroke="#00f"/>
<rect x="535" y="281" width="233" height="10" fill="#ff0"/>
<text x="20" y="310" class="sm">5.041e-08</text>
<rect x="100" y="300" width="274" height="12" fill="#00f"/>
<rect x="433" y="300" width="436" height="12" fill="#00f"/>
<line x1="374" y1="306" x2="432" y2="306" stroke="#00f"/>
<rect x="535" y="301" width="233" height="10" fill="#ff0"/>
<text x="20" y="330" class="sm">2.828e-08</text>
<rect x="100" y="320" width="663" height="12" fill="#00f"/>
<rect x="806" y="320" width="63" height="12" fill="#00f"/>
<line x1="763" y1="326" x2="805" y2="326" stroke="#00f"/>
<rect x="535" y="321" width="228" height="10" fill="#ff0"/>
<rect x="807" y="321" width="13" height="10" fill="#ff0"/>
<text x="20" y="350" class="sm">2.587e-08</text>
<rect x="100" y="340" width="68" height="12" fill="#00f"/>
<rect x="247" y="340" width="622" height="12" fill="#00f"/>
<line x1="168" y1="346" x2="246" y2="346" stroke="#00f"/>
<rect x="535" y="341" width="233" height="10" fill="#ff0"/>
<text x="20" y="370" class="sm">2.18e-08</text>
<rect x="100" y="360" width="269" height="12" fill="#00f"/>
<rect x="433" y="360" width="436" height="12" fill="#00f"/>
<line x1="369" y1="366" x2="432" y2="366" stroke="#00f"/>
<rect x="535" y="361" width="233" height="10" fill="#ff0"/>
<text x="20" y="390" class="sm">1.896e-08</text>
<rect x="100" y="380" width="226" height="12" fill="#00f"/>
<rect x="433" y="380" width="436" height="12" fill="#00f"/>
<line x1="326" y1="386" x2="432" y2="386" stroke="#00f"/>
<rect x="535" y="381" width="233" height="10" fill="#ff0"/>
<text x="20" y="410" class="sm">1.585e-08</text>
<rect x="100" y="400" width="670" height="12" fill="#00f"/>
<rect x="806" y="400" width="63" height="12" fill="#00f"/>
<line x1="770" y1="406" x2="805" y2="406" stroke="#00f"/>
<rect x="535" y="401" width="233" height="10" fill="#ff0"/>
<text x="20" y="430" class="sm">1.115e-08</text>
<rect x="100" y="420" width="572" height="12" fill="#00f"/>
<rect x="806" y="420" width="63" height="12" fill="#00f"/>
<line x1="672" y1="426" x2="805" y2="426" stroke="#00f"/>
<rect x="535" y="421" width="137" height="10" fill="#ff0"/>
<rect x="807" y="421" width="47" height="10" fill="#ff0"/>
<text x="20" y="450" class="sm">4.113e-09</text>
<rect x="100" y="440" width="85" height="12" fill="#00f"/>
<rect x="247" y="440" width="622" height="12" fill="#00f"/>
<line x1="185" y1="446" x2="246" y2="446" stroke="#00f"/>
<rect x="535" y="441" width="233" height="10" fill="#ff0"/>
<text x="20" y="470" class="sm">1.897e-10</text>
<rect x="100" y="460" width="616" height="12" fill="#00f"/>
<rect x="806" y="460" width="63" height="12" fill="#00f"/>
<line x1="716" y1="466" x2="805" y2="466" stroke="#00f"/>
<rect x="127" y="461" width="182" height="10" fill="#ff0"/>
<text x="20" y="490" class="sm">1.128e-10</text>
<rect x="100" y="480" width="182" height="12" fill="#00f"/>
<rect x="433" y="480" width="436" height="12" fill="#00f"/>
<line x1="282" y1="486" x2="432" y2="486" stroke="#00f"/>
<rect x="535" y="481" width="233" height="10" fill="#ff0"/>
</svg>
