<svg viewBox="0 0 846 530" xmlns="http://www.w3.org/2000/svg">

<style>
  .sm { font: 12px sans-serif; }
  .lg { font: 15px sans-serif; }
</style>
<rect fill="#ddd" x="0" y="0" width="100%" height="100%"/>
<text x="20" y="20" class="lg">ch.1101 I:6329436-6330281 Gene:WBGene00194703</text>
<text x="20" y="50" class="sm">WormBase</text>
<rect x="100" y="40" width="146" height="12" fill="#00f"/>
<rect x="291" y="40" width="455" height="12" fill="#00f"/>
<line x1="246" y1="46" x2="290" y2="46" stroke="#00f"/>
<rect x="167" y="41" width="79" height="10" fill="#ff0"/>
<rect x="292" y="41" width="399" height="10" fill="#ff0"/>
<rect x="101" y="41" width="65" height="10" fill="brown"><title>.</title></rect>
<rect x="692" y="41" width="54" height="10" fill="brown"><title>.</title></rect>
<text x="20" y="70" class="sm">Fitness: 0.00025076000107213944</text>
<rect x="246" y="65" width="45" height="5" fill="#00f"><title>348055.0</title></rect>
<rect x="244" y="70" width="47" height="5" fill="#00f"><title>2377.0</title></rect>
<rect x="238" y="75" width="53" height="5" fill="#00f"><title>22.0</title></rect>
<rect x="365" y="80" width="48" height="5" fill="#00f"><title>15.0</title></rect>
<rect x="246" y="85" width="59" height="5" fill="#00f"><title>7.0</title></rect>
<rect x="246" y="90" width="68" height="5" fill="#00f"><title>3.0</title></rect>
<text x="20" y="120" class="sm">0.9931</text>
<rect x="100" y="110" width="146" height="12" fill="#00f"/>
<rect x="291" y="110" width="458" height="12" fill="#00f"/>
<line x1="246" y1="116" x2="290" y2="116" stroke="#00f"/>
<rect x="167" y="111" width="79" height="10" fill="#ff0"/>
<rect x="292" y="111" width="399" height="10" fill="#ff0"/>
<text x="20" y="140" class="sm">0.00681</text>
<rect x="100" y="130" width="144" height="12" fill="#00f"/>
<rect x="291" y="130" width="458" height="12" fill="#00f"/>
<line x1="244" y1="136" x2="290" y2="136" stroke="#00f"/>
<rect x="222" y="131" width="22" height="10" fill="#ff0"/>
<rect x="292" y="131" width="399" height="10" fill="#ff0"/>
<text x="20" y="160" class="sm">6.984e-05</text>
<rect x="100" y="150" width="369" height="12" fill="#00f"/>
<rect x="506" y="150" width="243" height="12" fill="#00f"/>
<line x1="469" y1="156" x2="505" y2="156" stroke="#00f"/>
<rect x="222" y="151" width="230" height="10" fill="#ff0"/>
<text x="20" y="180" class="sm">1.353e-05</text>
<rect x="100" y="170" width="146" height="12" fill="#00f"/>
<rect x="380" y="170" width="369" height="12" fill="#00f"/>
<line x1="246" y1="176" x2="379" y2="176" stroke="#00f"/>
<rect x="167" y="171" width="79" height="10" fill="#ff0"/>
<rect x="381" y="171" width="45" height="10" fill="#ff0"/>
<text x="20" y="200" class="sm">7.297e-06</text>
<rect x="100" y="190" width="146" height="12" fill="#00f"/>
<rect x="305" y="190" width="444" height="12" fill="#00f"/>
<line x1="246" y1="196" x2="304" y2="196" stroke="#00f"/>
<rect x="222" y="191" width="24" height="10" fill="#ff0"/>
<rect x="306" y="191" width="385" height="10" fill="#ff0"/>
<text x="20" y="220" class="sm">1.412e-06</text>
<rect x="100" y="210" width="146" height="12" fill="#00f"/>
<rect x="314" y="210" width="435" height="12" fill="#00f"/>
<line x1="246" y1="216" x2="313" y2="216" stroke="#00f"/>
<rect x="222" y="211" width="24" height="10" fill="#ff0"/>
<rect x="315" y="211" width="376" height="10" fill="#ff0"/>
<text x="20" y="240" class="sm">1.195e-06</text>
<rect x="100" y="230" width="348" height="12" fill="#00f"/>
<rect x="494" y="230" width="255" height="12" fill="#00f"/>
<line x1="448" y1="236" x2="493" y2="236" stroke="#00f"/>
<rect x="222" y="231" width="226" height="10" fill="#ff0"/>
<rect x="495" y="231" width="3" height="10" fill="#ff0"/>
<text x="20" y="260" class="sm">6.768e-07</text>
<rect x="100" y="250" width="86" height="12" fill="#00f"/>
<rect x="291" y="250" width="458" height="12" fill="#00f"/>
<line x1="186" y1="256" x2="290" y2="256" stroke="#00f"/>
<rect x="167" y="251" width="19" height="10" fill="#ff0"/>
<rect x="292" y="251" width="399" height="10" fill="#ff0"/>
<text x="20" y="280" class="sm">4.648e-07</text>
<rect x="100" y="270" width="348" height="12" fill="#00f"/>
<rect x="506" y="270" width="243" height="12" fill="#00f"/>
<line x1="448" y1="276" x2="505" y2="276" stroke="#00f"/>
<rect x="222" y="271" width="226" height="10" fill="#ff0"/>
<rect x="507" y="271" width="27" height="10" fill="#ff0"/>
<text x="20" y="300" class="sm">4.028e-07</text>
<rect x="100" y="290" width="150" height="12" fill="#00f"/>
<rect x="291" y="290" width="458" height="12" fill="#00f"/>
<line x1="250" y1="296" x2="290" y2="296" stroke="#00f"/>
<rect x="222" y="291" width="28" height="10" fill="#ff0"/>
<rect x="292" y="291" width="399" height="10" fill="#ff0"/>
<text x="20" y="320" class="sm">3.51e-07</text>
<rect x="100" y="310" width="146" height="12" fill="#00f"/>
<rect x="398" y="310" width="351" height="12" fill="#00f"/>
<line x1="246" y1="316" x2="397" y2="316" stroke="#00f"/>
<rect x="578" y="311" width="113" height="10" fill="#ff0"/>
<text x="20" y="340" class="sm">3.005e-07</text>
<rect x="100" y="330" width="146" height="12" fill="#00f"/>
<rect x="326" y="330" width="423" height="12" fill="#00f"/>
<line x1="246" y1="336" x2="325" y2="336" stroke="#00f"/>
<rect x="222" y="331" width="24" height="10" fill="#ff0"/>
<rect x="327" y="331" width="364" height="10" fill="#ff0"/>
<text x="20" y="360" class="sm">2.339e-07</text>
<rect x="100" y="350" width="369" height="12" fill="#00f"/>
<rect x="524" y="350" width="225" height="12" fill="#00f"/>
<line x1="469" y1="356" x2="523" y2="356" stroke="#00f"/>
<rect x="222" y="351" width="230" height="10" fill="#ff0"/>
<text x="20" y="380" class="sm">2.208e-07</text>
<rect x="100" y="370" width="369" height="12" fill="#00f"/>
<rect x="536" y="370" width="213" height="12" fill="#00f"/>
<line x1="469" y1="376" x2="535" y2="376" stroke="#00f"/>
<rect x="222" y="371" width="230" height="10" fill="#ff0"/>
<text x="20" y="400" class="sm">1.059e-07</text>
<rect x="100" y="390" width="146" height="12" fill="#00f"/>
<rect x="335" y="390" width="414" height="12" fill="#00f"/>
<line x1="246" y1="396" x2="334" y2="396" stroke="#00f"/>
<rect x="222" y="391" width="24" height="10" fill="#ff0"/>
<rect x="336" y="391" width="355" height="10" fill="#ff0"/>
<text x="20" y="420" class="sm">8.478e-08</text>
<rect x="100" y="410" width="144" height="12" fill="#00f"/>
<rect x="380" y="410" width="369" height="12" fill="#00f"/>
<line x1="244" y1="416" x2="379" y2="416" stroke="#00f"/>
<rect x="167" y="411" width="77" height="10" fill="#ff0"/>
<rect x="381" y="411" width="71" height="10" fill="#ff0"/>
<text x="20" y="440" class="sm">3.53e-08</text>
<rect x="100" y="430" width="144" height="12" fill="#00f"/>
<rect x="305" y="430" width="444" height="12" fill="#00f"/>
<line x1="244" y1="436" x2="304" y2="436" stroke="#00f"/>
<rect x="167" y="431" width="77" height="10" fill="#ff0"/>
<rect x="306" y="431" width="146" height="10" fill="#ff0"/>
<text x="20" y="460" class="sm">1.894e-08</text>
<rect x="100" y="450" width="345" height="12" fill="#00f"/>
<rect x="494" y="450" width="255" height="12" fill="#00f"/>
<line x1="445" y1="456" x2="493" y2="456" stroke="#00f"/>
<rect x="222" y="451" width="223" height="10" fill="#ff0"/>
<rect x="495" y="451" width="3" height="10" fill="#ff0"/>
<text x="20" y="480" class="sm">1.456e-08</text>
<rect x="100" y="470" width="153" height="12" fill="#00f"/>
<rect x="291" y="470" width="458" height="12" fill="#00f"/>
<line x1="253" y1="476" x2="290" y2="476" stroke="#00f"/>
<rect x="222" y="471" width="31" height="10" fill="#ff0"/>
<rect x="292" y="471" width="399" height="10" fill="#ff0"/>
<text x="20" y="500" class="sm">1.324e-08</text>
<rect x="100" y="490" width="138" height="12" fill="#00f"/>
<rect x="291" y="490" width="458" height="12" fill="#00f"/>
<line x1="238" y1="496" x2="290" y2="496" stroke="#00f"/>
<rect x="222" y="491" width="16" height="10" fill="#ff0"/>
<rect x="292" y="491" width="399" height="10" fill="#ff0"/>
</svg>
