<svg viewBox="0 0 964 595" xmlns="http://www.w3.org/2000/svg">

<style>
  .sm { font: 12px sans-serif; }
  .lg { font: 15px sans-serif; }
</style>
<rect fill="#ddd" x="0" y="0" width="100%" height="100%"/>
<text x="20" y="20" class="lg">ch.1594 I:8591115-8592078 Gene:WBGene00004305</text>
<text x="20" y="50" class="sm">WormBase</text>
<rect x="100" y="40" width="99" height="12" fill="#00f"/>
<rect x="240" y="40" width="92" height="12" fill="#00f"/>
<rect x="375" y="40" width="99" height="12" fill="#00f"/>
<rect x="519" y="40" width="345" height="12" fill="#00f"/>
<line x1="199" y1="46" x2="239" y2="46" stroke="#00f"/>
<line x1="332" y1="46" x2="374" y2="46" stroke="#00f"/>
<line x1="474" y1="46" x2="518" y2="46" stroke="#00f"/>
<rect x="103" y="41" width="96" height="10" fill="#ff0"/>
<rect x="241" y="41" width="91" height="10" fill="#ff0"/>
<rect x="376" y="41" width="98" height="10" fill="#ff0"/>
<rect x="520" y="41" width="113" height="10" fill="#ff0"/>
<rect x="101" y="41" width="1" height="10" fill="brown"><title>.</title></rect>
<rect x="634" y="41" width="230" height="10" fill="brown"><title>.</title></rect>
<text x="20" y="70" class="sm">Fitness: 0.011001828189278496</text>
<rect x="474" y="65" width="45" height="5" fill="#00f"><title>1215740.0</title></rect>
<rect x="332" y="70" width="43" height="5" fill="#00f"><title>1121370.0</title></rect>
<rect x="199" y="75" width="41" height="5" fill="#00f"><title>1023910.0</title></rect>
<rect x="190" y="80" width="50" height="5" fill="#00f"><title>273.0</title></rect>
<rect x="325" y="85" width="50" height="5" fill="#00f"><title>272.0</title></rect>
<rect x="474" y="90" width="55" height="5" fill="#00f"><title>177.0</title></rect>
<rect x="199" y="95" width="89" height="5" fill="#00f"><title>158.0</title></rect>
<rect x="187" y="100" width="53" height="5" fill="#00f"><title>114.0</title></rect>
<rect x="463" y="105" width="56" height="5" fill="#00f"><title>95.0</title></rect>
<rect x="474" y="110" width="470" height="5" fill="#00f"><title>29.0</title></rect>
<rect x="199" y="115" width="65" height="5" fill="#00f"><title>17.0</title></rect>
<rect x="774" y="120" width="170" height="5" fill="#00f"><title>10.0</title></rect>
<rect x="208" y="125" width="67" height="5" fill="#f0f"><title>5.0</title></rect>
<rect x="456" y="130" width="63" height="5" fill="#00f"><title>5.0</title></rect>
<rect x="474" y="135" width="79" height="5" fill="#00f"><title>5.0</title></rect>
<rect x="562" y="140" width="78" height="5" fill="#00f"><title>4.0</title></rect>
<rect x="199" y="145" width="176" height="5" fill="#00f"><title>3.0</title></rect>
<rect x="478" y="150" width="41" height="5" fill="#00f"><title>3.0</title></rect>
<rect x="580" y="155" width="54" height="5" fill="#00f"><title>3.0</title></rect>
<text x="20" y="185" class="sm">0.8003</text>
<rect x="100" y="175" width="99" height="12" fill="#00f"/>
<rect x="240" y="175" width="92" height="12" fill="#00f"/>
<rect x="375" y="175" width="99" height="12" fill="#00f"/>
<rect x="519" y="175" width="348" height="12" fill="#00f"/>
<line x1="199" y1="181" x2="239" y2="181" stroke="#00f"/>
<line x1="332" y1="181" x2="374" y2="181" stroke="#00f"/>
<line x1="474" y1="181" x2="518" y2="181" stroke="#00f"/>
<rect x="103" y="176" width="96" height="10" fill="#ff0"/>
<rect x="241" y="176" width="91" height="10" fill="#ff0"/>
<rect x="376" y="176" width="98" height="10" fill="#ff0"/>
<rect x="520" y="176" width="113" height="10" fill="#ff0"/>
<text x="20" y="205" class="sm">0.1241</text>
<rect x="100" y="195" width="232" height="12" fill="#00f"/>
<rect x="375" y="195" width="99" height="12" fill="#00f"/>
<rect x="519" y="195" width="348" height="12" fill="#00f"/>
<line x1="332" y1="201" x2="374" y2="201" stroke="#00f"/>
<line x1="474" y1="201" x2="518" y2="201" stroke="#00f"/>
<rect x="276" y="196" width="56" height="10" fill="#ff0"/>
<rect x="376" y="196" width="98" height="10" fill="#ff0"/>
<rect x="520" y="196" width="113" height="10" fill="#ff0"/>
<text x="20" y="225" class="sm">0.05382</text>
<rect x="100" y="215" width="99" height="12" fill="#00f"/>
<rect x="240" y="215" width="234" height="12" fill="#00f"/>
<rect x="519" y="215" width="348" height="12" fill="#00f"/>
<line x1="199" y1="221" x2="239" y2="221" stroke="#00f"/>
<line x1="474" y1="221" x2="518" y2="221" stroke="#00f"/>
<rect x="103" y="216" width="96" height="10" fill="#ff0"/>
<rect x="241" y="216" width="178" height="10" fill="#ff0"/>
<text x="20" y="245" class="sm">0.008081</text>
<rect x="100" y="235" width="90" height="12" fill="#00f"/>
<rect x="240" y="235" width="92" height="12" fill="#00f"/>
<rect x="375" y="235" width="99" height="12" fill="#00f"/>
<rect x="519" y="235" width="348" height="12" fill="#00f"/>
<line x1="190" y1="241" x2="239" y2="241" stroke="#00f"/>
<line x1="332" y1="241" x2="374" y2="241" stroke="#00f"/>
<line x1="474" y1="241" x2="518" y2="241" stroke="#00f"/>
<rect x="103" y="236" width="87" height="10" fill="#ff0"/>
<rect x="241" y="236" width="91" height="10" fill="#ff0"/>
<rect x="376" y="236" width="98" height="10" fill="#ff0"/>
<rect x="520" y="236" width="113" height="10" fill="#ff0"/>
<text x="20" y="265" class="sm">0.007007</text>
<rect x="100" y="255" width="374" height="12" fill="#00f"/>
<rect x="519" y="255" width="348" height="12" fill="#00f"/>
<line x1="474" y1="261" x2="518" y2="261" stroke="#00f"/>
<rect x="103" y="256" width="176" height="10" fill="#ff0"/>
<text x="20" y="285" class="sm">0.001797</text>
<rect x="100" y="275" width="71" height="12" fill="#00f"/>
<rect x="240" y="275" width="92" height="12" fill="#00f"/>
<rect x="375" y="275" width="99" height="12" fill="#00f"/>
<rect x="519" y="275" width="348" height="12" fill="#00f"/>
<line x1="171" y1="281" x2="239" y2="281" stroke="#00f"/>
<line x1="332" y1="281" x2="374" y2="281" stroke="#00f"/>
<line x1="474" y1="281" x2="518" y2="281" stroke="#00f"/>
<rect x="276" y="276" width="56" height="10" fill="#ff0"/>
<rect x="376" y="276" width="98" height="10" fill="#ff0"/>
<rect x="520" y="276" width="113" height="10" fill="#ff0"/>
<text x="20" y="305" class="sm">0.0009739</text>
<rect x="100" y="295" width="99" height="12" fill="#00f"/>
<rect x="240" y="295" width="85" height="12" fill="#00f"/>
<rect x="375" y="295" width="99" height="12" fill="#00f"/>
<rect x="519" y="295" width="348" height="12" fill="#00f"/>
<line x1="199" y1="301" x2="239" y2="301" stroke="#00f"/>
<line x1="325" y1="301" x2="374" y2="301" stroke="#00f"/>
<line x1="474" y1="301" x2="518" y2="301" stroke="#00f"/>
<rect x="103" y="296" width="96" height="10" fill="#ff0"/>
<rect x="241" y="296" width="84" height="10" fill="#ff0"/>
<rect x="376" y="296" width="39" height="10" fill="#ff0"/>
<text x="20" y="325" class="sm">0.0005942</text>
<rect x="100" y="315" width="153" height="12" fill="#00f"/>
<rect x="303" y="315" width="171" height="12" fill="#00f"/>
<rect x="519" y="315" width="348" height="12" fill="#00f"/>
<line x1="253" y1="321" x2="302" y2="321" stroke="#00f"/>
<line x1="474" y1="321" x2="518" y2="321" stroke="#00f"/>
<rect x="103" y="316" width="150" height="10" fill="#ff0"/>
<rect x="304" y="316" width="115" height="10" fill="#ff0"/>
<text x="20" y="345" class="sm">0.0005844</text>
<rect x="100" y="335" width="129" height="12" fill="#00f"/>
<rect x="288" y="335" width="44" height="12" fill="#00f"/>
<rect x="375" y="335" width="99" height="12" fill="#00f"/>
<rect x="519" y="335" width="348" height="12" fill="#00f"/>
<line x1="229" y1="341" x2="287" y2="341" stroke="#00f"/>
<line x1="332" y1="341" x2="374" y2="341" stroke="#00f"/>
<line x1="474" y1="341" x2="518" y2="341" stroke="#00f"/>
<rect x="103" y="336" width="126" height="10" fill="#ff0"/>
<rect x="289" y="336" width="43" height="10" fill="#ff0"/>
<rect x="376" y="336" width="98" height="10" fill="#ff0"/>
<rect x="520" y="336" width="113" height="10" fill="#ff0"/>
<text x="20" y="365" class="sm">0.0005434</text>
<rect x="100" y="355" width="90" height="12" fill="#00f"/>
<rect x="240" y="355" width="234" height="12" fill="#00f"/>
<rect x="519" y="355" width="348" height="12" fill="#00f"/>
<line x1="190" y1="361" x2="239" y2="361" stroke="#00f"/>
<line x1="474" y1="361" x2="518" y2="361" stroke="#00f"/>
<rect x="103" y="356" width="87" height="10" fill="#ff0"/>
<rect x="241" y="356" width="178" height="10" fill="#ff0"/>
<text x="20" y="385" class="sm">0.0004174</text>
<rect x="100" y="375" width="129" height="12" fill="#00f"/>
<rect x="288" y="375" width="186" height="12" fill="#00f"/>
<rect x="519" y="375" width="348" height="12" fill="#00f"/>
<line x1="229" y1="381" x2="287" y2="381" stroke="#00f"/>
<line x1="474" y1="381" x2="518" y2="381" stroke="#00f"/>
<rect x="103" y="376" width="126" height="10" fill="#ff0"/>
<rect x="289" y="376" width="130" height="10" fill="#ff0"/>
<text x="20" y="405" class="sm">0.0003509</text>
<rect x="100" y="395" width="153" height="12" fill="#00f"/>
<rect x="297" y="395" width="177" height="12" fill="#00f"/>
<rect x="519" y="395" width="348" height="12" fill="#00f"/>
<line x1="253" y1="401" x2="296" y2="401" stroke="#00f"/>
<line x1="474" y1="401" x2="518" y2="401" stroke="#00f"/>
<rect x="103" y="396" width="150" height="10" fill="#ff0"/>
<rect x="298" y="396" width="121" height="10" fill="#ff0"/>
<text x="20" y="425" class="sm">0.0002472</text>
<rect x="100" y="415" width="153" height="12" fill="#00f"/>
<rect x="303" y="415" width="29" height="12" fill="#00f"/>
<rect x="375" y="415" width="99" height="12" fill="#00f"/>
<rect x="519" y="415" width="348" height="12" fill="#00f"/>
<line x1="253" y1="421" x2="302" y2="421" stroke="#00f"/>
<line x1="332" y1="421" x2="374" y2="421" stroke="#00f"/>
<line x1="474" y1="421" x2="518" y2="421" stroke="#00f"/>
<rect x="103" y="416" width="150" height="10" fill="#ff0"/>
<rect x="304" y="416" width="28" height="10" fill="#ff0"/>
<rect x="376" y="416" width="98" height="10" fill="#ff0"/>
<rect x="520" y="416" width="113" height="10" fill="#ff0"/>
<text x="20" y="445" class="sm">0.0002252</text>
<rect x="100" y="435" width="153" height="12" fill="#00f"/>
<rect x="297" y="435" width="35" height="12" fill="#00f"/>
<rect x="375" y="435" width="99" height="12" fill="#00f"/>
<rect x="519" y="435" width="348" height="12" fill="#00f"/>
<line x1="253" y1="441" x2="296" y2="441" stroke="#00f"/>
<line x1="332" y1="441" x2="374" y2="441" stroke="#00f"/>
<line x1="474" y1="441" x2="518" y2="441" stroke="#00f"/>
<rect x="103" y="436" width="150" height="10" fill="#ff0"/>
<rect x="298" y="436" width="34" height="10" fill="#ff0"/>
<rect x="376" y="436" width="98" height="10" fill="#ff0"/>
<rect x="520" y="436" width="113" height="10" fill="#ff0"/>
<text x="20" y="465" class="sm">0.0001985</text>
<rect x="100" y="455" width="99" height="12" fill="#00f"/>
<rect x="240" y="455" width="104" height="12" fill="#00f"/>
<rect x="426" y="455" width="48" height="12" fill="#00f"/>
<rect x="519" y="455" width="348" height="12" fill="#00f"/>
<line x1="199" y1="461" x2="239" y2="461" stroke="#00f"/>
<line x1="344" y1="461" x2="425" y2="461" stroke="#00f"/>
<line x1="474" y1="461" x2="518" y2="461" stroke="#00f"/>
<rect x="103" y="456" width="96" height="10" fill="#ff0"/>
<rect x="241" y="456" width="103" height="10" fill="#ff0"/>
<rect x="427" y="456" width="47" height="10" fill="#ff0"/>
<rect x="520" y="456" width="113" height="10" fill="#ff0"/>
<text x="20" y="485" class="sm">0.0001708</text>
<rect x="100" y="475" width="153" height="12" fill="#00f"/>
<rect x="293" y="475" width="181" height="12" fill="#00f"/>
<rect x="519" y="475" width="348" height="12" fill="#00f"/>
<line x1="253" y1="481" x2="292" y2="481" stroke="#00f"/>
<line x1="474" y1="481" x2="518" y2="481" stroke="#00f"/>
<rect x="103" y="476" width="150" height="10" fill="#ff0"/>
<rect x="294" y="476" width="16" height="10" fill="#ff0"/>
<text x="20" y="505" class="sm">0.0001666</text>
<rect x="100" y="495" width="153" height="12" fill="#00f"/>
<rect x="375" y="495" width="99" height="12" fill="#00f"/>
<rect x="519" y="495" width="348" height="12" fill="#00f"/>
<line x1="253" y1="501" x2="374" y2="501" stroke="#00f"/>
<line x1="474" y1="501" x2="518" y2="501" stroke="#00f"/>
<rect x="103" y="496" width="150" height="10" fill="#ff0"/>
<rect x="376" y="496" width="43" height="10" fill="#ff0"/>
<text x="20" y="525" class="sm">0.0001653</text>
<rect x="100" y="515" width="64" height="12" fill="#00f"/>
<rect x="240" y="515" width="92" height="12" fill="#00f"/>
<rect x="375" y="515" width="99" height="12" fill="#00f"/>
<rect x="519" y="515" width="348" height="12" fill="#00f"/>
<line x1="164" y1="521" x2="239" y2="521" stroke="#00f"/>
<line x1="332" y1="521" x2="374" y2="521" stroke="#00f"/>
<line x1="474" y1="521" x2="518" y2="521" stroke="#00f"/>
<rect x="276" y="516" width="56" height="10" fill="#ff0"/>
<rect x="376" y="516" width="98" height="10" fill="#ff0"/>
<rect x="520" y="516" width="113" height="10" fill="#ff0"/>
<text x="20" y="545" class="sm">0.0001627</text>
<rect x="100" y="535" width="225" height="12" fill="#00f"/>
<rect x="375" y="535" width="99" height="12" fill="#00f"/>
<rect x="519" y="535" width="348" height="12" fill="#00f"/>
<line x1="325" y1="541" x2="374" y2="541" stroke="#00f"/>
<line x1="474" y1="541" x2="518" y2="541" stroke="#00f"/>
<rect x="103" y="536" width="176" height="10" fill="#ff0"/>
<text x="20" y="565" class="sm">0.0001514</text>
<rect x="100" y="555" width="153" height="12" fill="#00f"/>
<rect x="293" y="555" width="39" height="12" fill="#00f"/>
<rect x="375" y="555" width="99" height="12" fill="#00f"/>
<rect x="519" y="555" width="348" height="12" fill="#00f"/>
<line x1="253" y1="561" x2="292" y2="561" stroke="#00f"/>
<line x1="332" y1="561" x2="374" y2="561" stroke="#00f"/>
<line x1="474" y1="561" x2="518" y2="561" stroke="#00f"/>
<rect x="103" y="556" width="150" height="10" fill="#ff0"/>
<rect x="294" y="556" width="16" height="10" fill="#ff0"/>
</svg>
