<svg viewBox="0 0 656 550" xmlns="http://www.w3.org/2000/svg">

<style>
  .sm { font: 12px sans-serif; }
  .lg { font: 15px sans-serif; }
</style>
<rect fill="#ddd" x="0" y="0" width="100%" height="100%"/>
<text x="20" y="20" class="lg">ch.18370 X:5516608-5517263 Gene:WBGene00020738</text>
<text x="20" y="50" class="sm">WormBase</text>
<rect x="102" y="40" width="77" height="12" fill="#00f"/>
<rect x="229" y="40" width="329" height="12" fill="#00f"/>
<line x1="179" y1="46" x2="228" y2="46" stroke="#00f"/>
<rect x="126" y="41" width="53" height="10" fill="#ff0"/>
<rect x="230" y="41" width="119" height="10" fill="#ff0"/>
<rect x="103" y="41" width="22" height="10" fill="brown"><title>.</title></rect>
<rect x="350" y="41" width="208" height="10" fill="brown"><title>.</title></rect>
<text x="20" y="70" class="sm">Fitness: 2.19524208717346e-05</text>
<rect x="179" y="65" width="50" height="5" fill="#00f"><title>1456100.0</title></rect>
<rect x="183" y="70" width="46" height="5" fill="#00f"><title>1582.0</title></rect>
<rect x="192" y="75" width="73" height="5" fill="#f0f"><title>912.0</title></rect>
<rect x="434" y="80" width="59" height="5" fill="#f0f"><title>85.0</title></rect>
<rect x="544" y="85" width="104" height="5" fill="#00f"><title>16.0</title></rect>
<rect x="192" y="90" width="69" height="5" fill="#f0f"><title>16.0</title></rect>
<rect x="342" y="95" width="28" height="5" fill="#f0f"><title>8.0</title></rect>
<rect x="170" y="100" width="110" height="5" fill="#f0f"><title>4.0</title></rect>
<rect x="167" y="105" width="52" height="5" fill="#f0f"><title>4.0</title></rect>
<rect x="270" y="110" width="72" height="5" fill="#f0f"><title>3.0</title></rect>
<text x="20" y="140" class="sm">0.9989</text>
<rect x="100" y="130" width="79" height="12" fill="#00f"/>
<rect x="229" y="130" width="330" height="12" fill="#00f"/>
<line x1="179" y1="136" x2="228" y2="136" stroke="#00f"/>
<rect x="126" y="131" width="53" height="10" fill="#ff0"/>
<rect x="230" y="131" width="119" height="10" fill="#ff0"/>
<text x="20" y="160" class="sm">0.001086</text>
<rect x="100" y="150" width="83" height="12" fill="#00f"/>
<rect x="229" y="150" width="330" height="12" fill="#00f"/>
<line x1="183" y1="156" x2="228" y2="156" stroke="#00f"/>
<rect x="126" y="151" width="57" height="10" fill="#ff0"/>
<rect x="230" y="151" width="148" height="10" fill="#ff0"/>
<text x="20" y="180" class="sm">3.055e-06</text>
<rect x="100" y="170" width="54" height="12" fill="#00f"/>
<rect x="229" y="170" width="330" height="12" fill="#00f"/>
<line x1="154" y1="176" x2="228" y2="176" stroke="#00f"/>
<rect x="126" y="171" width="28" height="10" fill="#ff0"/>
<rect x="230" y="171" width="279" height="10" fill="#ff0"/>
<text x="20" y="200" class="sm">5.109e-09</text>
<rect x="100" y="190" width="301" height="12" fill="#00f"/>
<rect x="489" y="190" width="70" height="12" fill="#00f"/>
<line x1="401" y1="196" x2="488" y2="196" stroke="#00f"/>
<rect x="126" y="191" width="275" height="10" fill="#ff0"/>
<rect x="490" y="191" width="14" height="10" fill="#ff0"/>
<text x="20" y="220" class="sm">2.22e-10</text>
<rect x="100" y="210" width="79" height="12" fill="#00f"/>
<rect x="239" y="210" width="320" height="12" fill="#00f"/>
<line x1="179" y1="216" x2="238" y2="216" stroke="#00f"/>
<rect x="126" y="211" width="53" height="10" fill="#ff0"/>
<rect x="240" y="211" width="269" height="10" fill="#ff0"/>
<text x="20" y="240" class="sm">1.694e-10</text>
<rect x="100" y="230" width="231" height="12" fill="#00f"/>
<rect x="390" y="230" width="169" height="12" fill="#00f"/>
<line x1="331" y1="236" x2="389" y2="236" stroke="#00f"/>
<rect x="126" y="231" width="205" height="10" fill="#ff0"/>
<rect x="391" y="231" width="93" height="10" fill="#ff0"/>
<text x="20" y="260" class="sm">8.629e-11</text>
<rect x="100" y="250" width="79" height="12" fill="#00f"/>
<rect x="250" y="250" width="309" height="12" fill="#00f"/>
<line x1="179" y1="256" x2="249" y2="256" stroke="#00f"/>
<rect x="126" y="251" width="53" height="10" fill="#ff0"/>
<rect x="251" y="251" width="98" height="10" fill="#ff0"/>
<text x="20" y="280" class="sm">1.885e-11</text>
<rect x="100" y="270" width="231" height="12" fill="#00f"/>
<rect x="489" y="270" width="70" height="12" fill="#00f"/>
<line x1="331" y1="276" x2="488" y2="276" stroke="#00f"/>
<rect x="256" y="271" width="75" height="10" fill="#ff0"/>
<rect x="490" y="271" width="19" height="10" fill="#ff0"/>
<text x="20" y="300" class="sm">6.946e-13</text>
<rect x="100" y="290" width="83" height="12" fill="#00f"/>
<rect x="239" y="290" width="320" height="12" fill="#00f"/>
<line x1="183" y1="296" x2="238" y2="296" stroke="#00f"/>
<rect x="126" y="291" width="57" height="10" fill="#ff0"/>
<rect x="240" y="291" width="109" height="10" fill="#ff0"/>
<text x="20" y="320" class="sm">6.037e-13</text>
<rect x="100" y="310" width="79" height="12" fill="#00f"/>
<rect x="489" y="310" width="70" height="12" fill="#00f"/>
<line x1="179" y1="316" x2="488" y2="316" stroke="#00f"/>
<rect x="126" y="311" width="53" height="10" fill="#ff0"/>
<rect x="490" y="311" width="14" height="10" fill="#ff0"/>
<text x="20" y="340" class="sm">3.128e-13</text>
<rect x="100" y="330" width="79" height="12" fill="#00f"/>
<rect x="253" y="330" width="306" height="12" fill="#00f"/>
<line x1="179" y1="336" x2="252" y2="336" stroke="#00f"/>
<rect x="357" y="331" width="152" height="10" fill="#ff0"/>
<text x="20" y="360" class="sm">2.043e-13</text>
<rect x="100" y="350" width="79" height="12" fill="#00f"/>
<rect x="390" y="350" width="169" height="12" fill="#00f"/>
<line x1="179" y1="356" x2="389" y2="356" stroke="#00f"/>
<rect x="126" y="351" width="53" height="10" fill="#ff0"/>
<rect x="391" y="351" width="71" height="10" fill="#ff0"/>
<text x="20" y="380" class="sm">1.181e-13</text>
<rect x="100" y="370" width="83" height="12" fill="#00f"/>
<rect x="250" y="370" width="309" height="12" fill="#00f"/>
<line x1="183" y1="376" x2="249" y2="376" stroke="#00f"/>
<rect x="126" y="371" width="57" height="10" fill="#ff0"/>
<rect x="251" y="371" width="127" height="10" fill="#ff0"/>
<text x="20" y="400" class="sm">1.133e-13</text>
<rect x="100" y="390" width="79" height="12" fill="#00f"/>
<rect x="350" y="390" width="209" height="12" fill="#00f"/>
<line x1="179" y1="396" x2="349" y2="396" stroke="#00f"/>
<rect x="126" y="391" width="53" height="10" fill="#ff0"/>
<rect x="351" y="391" width="158" height="10" fill="#ff0"/>
<text x="20" y="420" class="sm">2.129e-14</text>
<rect x="100" y="410" width="138" height="12" fill="#00f"/>
<rect x="489" y="410" width="70" height="12" fill="#00f"/>
<line x1="238" y1="416" x2="488" y2="416" stroke="#00f"/>
<rect x="498" y="411" width="11" height="10" fill="#ff0"/>
<text x="20" y="440" class="sm">1.217e-14</text>
<rect x="100" y="430" width="54" height="12" fill="#00f"/>
<rect x="250" y="430" width="309" height="12" fill="#00f"/>
<line x1="154" y1="436" x2="249" y2="436" stroke="#00f"/>
<rect x="126" y="431" width="28" height="10" fill="#ff0"/>
<rect x="251" y="431" width="258" height="10" fill="#ff0"/>
<text x="20" y="460" class="sm">1.19e-14</text>
<rect x="100" y="450" width="138" height="12" fill="#00f"/>
<rect x="350" y="450" width="209" height="12" fill="#00f"/>
<line x1="238" y1="456" x2="349" y2="456" stroke="#00f"/>
<rect x="357" y="451" width="152" height="10" fill="#ff0"/>
<text x="20" y="480" class="sm">6.919e-15</text>
<rect x="100" y="470" width="138" height="12" fill="#00f"/>
<rect x="390" y="470" width="169" height="12" fill="#00f"/>
<line x1="238" y1="476" x2="389" y2="476" stroke="#00f"/>
<rect x="126" y="471" width="112" height="10" fill="#ff0"/>
<rect x="391" y="471" width="93" height="10" fill="#ff0"/>
<text x="20" y="500" class="sm">5.59e-15</text>
<rect x="100" y="490" width="54" height="12" fill="#00f"/>
<rect x="239" y="490" width="320" height="12" fill="#00f"/>
<line x1="154" y1="496" x2="238" y2="496" stroke="#00f"/>
<rect x="126" y="491" width="28" height="10" fill="#ff0"/>
<rect x="240" y="491" width="138" height="10" fill="#ff0"/>
<text x="20" y="520" class="sm">1.889e-15</text>
<rect x="100" y="510" width="79" height="12" fill="#00f"/>
<rect x="229" y="510" width="172" height="12" fill="#00f"/>
<rect x="489" y="510" width="70" height="12" fill="#00f"/>
<line x1="179" y1="516" x2="228" y2="516" stroke="#00f"/>
<line x1="401" y1="516" x2="488" y2="516" stroke="#00f"/>
<rect x="126" y="511" width="53" height="10" fill="#ff0"/>
<rect x="230" y="511" width="119" height="10" fill="#ff0"/>
</svg>
