<svg viewBox="0 0 663 560" xmlns="http://www.w3.org/2000/svg">

<style>
  .sm { font: 12px sans-serif; }
  .lg { font: 15px sans-serif; }
</style>
<rect fill="#ddd" x="0" y="0" width="100%" height="100%"/>
<text x="20" y="20" class="lg">ch.1976 I:10179745-10180407 Gene:WBGene00303030</text>
<text x="20" y="50" class="sm">WormBase</text>
<rect x="100" y="40" width="216" height="12" fill="#00f"/>
<rect x="362" y="40" width="82" height="12" fill="#00f"/>
<rect x="492" y="40" width="71" height="12" fill="#00f"/>
<line x1="316" y1="46" x2="361" y2="46" stroke="#00f"/>
<line x1="444" y1="46" x2="491" y2="46" stroke="#00f"/>
<rect x="101" y="41" width="215" height="10" fill="#ff0"/>
<rect x="363" y="41" width="81" height="10" fill="#ff0"/>
<rect x="493" y="41" width="70" height="10" fill="#ff0"/>
<text x="20" y="70" class="sm">Fitness: 0.6751934899776035</text>
<rect x="444" y="65" width="48" height="5" fill="#00f"><title>145232.0</title></rect>
<rect x="563" y="70" width="48" height="5" fill="#00f"><title>143292.0</title></rect>
<rect x="316" y="75" width="46" height="5" fill="#00f"><title>135980.0</title></rect>
<rect x="563" y="80" width="38" height="5" fill="#00f"><title>48.0</title></rect>
<rect x="214" y="85" width="148" height="5" fill="#00f"><title>35.0</title></rect>
<rect x="437" y="90" width="55" height="5" fill="#00f"><title>35.0</title></rect>
<rect x="51" y="95" width="44" height="5" fill="#00f"><title>33.0</title></rect>
<rect x="214" y="100" width="42" height="5" fill="#00f"><title>20.0</title></rect>
<rect x="316" y="105" width="58" height="5" fill="#00f"><title>9.0</title></rect>
<rect x="426" y="110" width="66" height="5" fill="#00f"><title>8.0</title></rect>
<rect x="5" y="115" width="90" height="5" fill="#00f"><title>4.0</title></rect>
<rect x="214" y="120" width="38" height="5" fill="#00f"><title>3.0</title></rect>
<text x="20" y="150" class="sm">0.502</text>
<rect x="100" y="140" width="216" height="12" fill="#00f"/>
<rect x="362" y="140" width="82" height="12" fill="#00f"/>
<rect x="492" y="140" width="74" height="12" fill="#00f"/>
<line x1="316" y1="146" x2="361" y2="146" stroke="#00f"/>
<line x1="444" y1="146" x2="491" y2="146" stroke="#00f"/>
<rect x="101" y="141" width="215" height="10" fill="#ff0"/>
<rect x="363" y="141" width="81" height="10" fill="#ff0"/>
<rect x="493" y="141" width="70" height="10" fill="#ff0"/>
<text x="20" y="170" class="sm">0.2012</text>
<rect x="100" y="160" width="114" height="12" fill="#00f"/>
<rect x="252" y="160" width="64" height="12" fill="#00f"/>
<rect x="362" y="160" width="82" height="12" fill="#00f"/>
<rect x="492" y="160" width="74" height="12" fill="#00f"/>
<line x1="214" y1="166" x2="251" y2="166" stroke="#00f"/>
<line x1="316" y1="166" x2="361" y2="166" stroke="#00f"/>
<line x1="444" y1="166" x2="491" y2="166" stroke="#00f"/>
<rect x="101" y="161" width="113" height="10" fill="#ff0"/>
<rect x="253" y="161" width="59" height="10" fill="#ff0"/>
<text x="20" y="190" class="sm">0.1874</text>
<rect x="100" y="180" width="114" height="12" fill="#00f"/>
<rect x="256" y="180" width="60" height="12" fill="#00f"/>
<rect x="362" y="180" width="82" height="12" fill="#00f"/>
<rect x="492" y="180" width="74" height="12" fill="#00f"/>
<line x1="214" y1="186" x2="255" y2="186" stroke="#00f"/>
<line x1="316" y1="186" x2="361" y2="186" stroke="#00f"/>
<line x1="444" y1="186" x2="491" y2="186" stroke="#00f"/>
<rect x="101" y="181" width="113" height="10" fill="#ff0"/>
<rect x="257" y="181" width="59" height="10" fill="#ff0"/>
<rect x="363" y="181" width="81" height="10" fill="#ff0"/>
<rect x="493" y="181" width="70" height="10" fill="#ff0"/>
<text x="20" y="210" class="sm">0.02219</text>
<rect x="100" y="200" width="81" height="12" fill="#00f"/>
<rect x="232" y="200" width="84" height="12" fill="#00f"/>
<rect x="362" y="200" width="82" height="12" fill="#00f"/>
<rect x="492" y="200" width="74" height="12" fill="#00f"/>
<line x1="181" y1="206" x2="231" y2="206" stroke="#00f"/>
<line x1="316" y1="206" x2="361" y2="206" stroke="#00f"/>
<line x1="444" y1="206" x2="491" y2="206" stroke="#00f"/>
<rect x="101" y="201" width="80" height="10" fill="#ff0"/>
<rect x="233" y="201" width="83" height="10" fill="#ff0"/>
<rect x="363" y="201" width="81" height="10" fill="#ff0"/>
<rect x="493" y="201" width="70" height="10" fill="#ff0"/>
<text x="20" y="230" class="sm">0.0113</text>
<rect x="100" y="220" width="216" height="12" fill="#00f"/>
<rect x="362" y="220" width="75" height="12" fill="#00f"/>
<rect x="492" y="220" width="74" height="12" fill="#00f"/>
<line x1="316" y1="226" x2="361" y2="226" stroke="#00f"/>
<line x1="437" y1="226" x2="491" y2="226" stroke="#00f"/>
<text x="20" y="250" class="sm">0.01085</text>
<rect x="100" y="240" width="114" height="12" fill="#00f"/>
<rect x="256" y="240" width="188" height="12" fill="#00f"/>
<rect x="492" y="240" width="74" height="12" fill="#00f"/>
<line x1="214" y1="246" x2="255" y2="246" stroke="#00f"/>
<line x1="444" y1="246" x2="491" y2="246" stroke="#00f"/>
<rect x="327" y="241" width="117" height="10" fill="#ff0"/>
<rect x="493" y="241" width="70" height="10" fill="#ff0"/>
<text x="20" y="270" class="sm">0.01056</text>
<rect x="100" y="260" width="344" height="12" fill="#00f"/>
<rect x="492" y="260" width="74" height="12" fill="#00f"/>
<line x1="444" y1="266" x2="491" y2="266" stroke="#00f"/>
<rect x="101" y="261" width="221" height="10" fill="#ff0"/>
<text x="20" y="290" class="sm">0.009922</text>
<rect x="100" y="280" width="114" height="12" fill="#00f"/>
<rect x="252" y="280" width="192" height="12" fill="#00f"/>
<rect x="492" y="280" width="74" height="12" fill="#00f"/>
<line x1="214" y1="286" x2="251" y2="286" stroke="#00f"/>
<line x1="444" y1="286" x2="491" y2="286" stroke="#00f"/>
<rect x="327" y="281" width="117" height="10" fill="#ff0"/>
<rect x="493" y="281" width="70" height="10" fill="#ff0"/>
<text x="20" y="310" class="sm">0.008189</text>
<rect x="100" y="300" width="216" height="12" fill="#00f"/>
<rect x="362" y="300" width="204" height="12" fill="#00f"/>
<line x1="316" y1="306" x2="361" y2="306" stroke="#00f"/>
<rect x="101" y="301" width="215" height="10" fill="#ff0"/>
<rect x="363" y="301" width="92" height="10" fill="#ff0"/>
<text x="20" y="330" class="sm">0.006255</text>
<rect x="100" y="320" width="216" height="12" fill="#00f"/>
<rect x="374" y="320" width="70" height="12" fill="#00f"/>
<rect x="492" y="320" width="74" height="12" fill="#00f"/>
<line x1="316" y1="326" x2="373" y2="326" stroke="#00f"/>
<line x1="444" y1="326" x2="491" y2="326" stroke="#00f"/>
<rect x="101" y="321" width="215" height="10" fill="#ff0"/>
<rect x="375" y="321" width="69" height="10" fill="#ff0"/>
<rect x="493" y="321" width="70" height="10" fill="#ff0"/>
<text x="20" y="350" class="sm">0.004528</text>
<rect x="100" y="340" width="114" height="12" fill="#00f"/>
<rect x="252" y="340" width="64" height="12" fill="#00f"/>
<rect x="362" y="340" width="75" height="12" fill="#00f"/>
<rect x="492" y="340" width="74" height="12" fill="#00f"/>
<line x1="214" y1="346" x2="251" y2="346" stroke="#00f"/>
<line x1="316" y1="346" x2="361" y2="346" stroke="#00f"/>
<line x1="437" y1="346" x2="491" y2="346" stroke="#00f"/>
<rect x="101" y="341" width="113" height="10" fill="#ff0"/>
<rect x="253" y="341" width="59" height="10" fill="#ff0"/>
<text x="20" y="370" class="sm">0.004217</text>
<rect x="100" y="360" width="114" height="12" fill="#00f"/>
<rect x="256" y="360" width="60" height="12" fill="#00f"/>
<rect x="362" y="360" width="75" height="12" fill="#00f"/>
<rect x="492" y="360" width="74" height="12" fill="#00f"/>
<line x1="214" y1="366" x2="255" y2="366" stroke="#00f"/>
<line x1="316" y1="366" x2="361" y2="366" stroke="#00f"/>
<line x1="437" y1="366" x2="491" y2="366" stroke="#00f"/>
<text x="20" y="390" class="sm">0.003282</text>
<rect x="100" y="380" width="114" height="12" fill="#00f"/>
<rect x="252" y="380" width="64" height="12" fill="#00f"/>
<rect x="362" y="380" width="204" height="12" fill="#00f"/>
<line x1="214" y1="386" x2="251" y2="386" stroke="#00f"/>
<line x1="316" y1="386" x2="361" y2="386" stroke="#00f"/>
<rect x="101" y="381" width="113" height="10" fill="#ff0"/>
<rect x="253" y="381" width="59" height="10" fill="#ff0"/>
<text x="20" y="410" class="sm">0.003057</text>
<rect x="100" y="400" width="114" height="12" fill="#00f"/>
<rect x="256" y="400" width="60" height="12" fill="#00f"/>
<rect x="362" y="400" width="204" height="12" fill="#00f"/>
<line x1="214" y1="406" x2="255" y2="406" stroke="#00f"/>
<line x1="316" y1="406" x2="361" y2="406" stroke="#00f"/>
<rect x="101" y="401" width="113" height="10" fill="#ff0"/>
<rect x="257" y="401" width="59" height="10" fill="#ff0"/>
<rect x="363" y="401" width="92" height="10" fill="#ff0"/>
<text x="20" y="430" class="sm">0.003031</text>
<rect x="100" y="420" width="216" height="12" fill="#00f"/>
<rect x="362" y="420" width="64" height="12" fill="#00f"/>
<rect x="492" y="420" width="74" height="12" fill="#00f"/>
<line x1="316" y1="426" x2="361" y2="426" stroke="#00f"/>
<line x1="426" y1="426" x2="491" y2="426" stroke="#00f"/>
<rect x="101" y="421" width="215" height="10" fill="#ff0"/>
<rect x="363" y="421" width="63" height="10" fill="#ff0"/>
<rect x="493" y="421" width="70" height="10" fill="#ff0"/>
<text x="20" y="450" class="sm">0.002819</text>
<rect x="100" y="440" width="81" height="12" fill="#00f"/>
<rect x="224" y="440" width="92" height="12" fill="#00f"/>
<rect x="362" y="440" width="82" height="12" fill="#00f"/>
<rect x="492" y="440" width="74" height="12" fill="#00f"/>
<line x1="181" y1="446" x2="223" y2="446" stroke="#00f"/>
<line x1="316" y1="446" x2="361" y2="446" stroke="#00f"/>
<line x1="444" y1="446" x2="491" y2="446" stroke="#00f"/>
<rect x="101" y="441" width="80" height="10" fill="#ff0"/>
<rect x="225" y="441" width="65" height="10" fill="#ff0"/>
<text x="20" y="470" class="sm">0.002507</text>
<rect x="100" y="460" width="114" height="12" fill="#00f"/>
<rect x="252" y="460" width="64" height="12" fill="#00f"/>
<rect x="374" y="460" width="70" height="12" fill="#00f"/>
<rect x="492" y="460" width="74" height="12" fill="#00f"/>
<line x1="214" y1="466" x2="251" y2="466" stroke="#00f"/>
<line x1="316" y1="466" x2="373" y2="466" stroke="#00f"/>
<line x1="444" y1="466" x2="491" y2="466" stroke="#00f"/>
<rect x="101" y="461" width="113" height="10" fill="#ff0"/>
<rect x="253" y="461" width="59" height="10" fill="#ff0"/>
<text x="20" y="490" class="sm">0.002368</text>
<rect x="100" y="480" width="114" height="12" fill="#00f"/>
<rect x="273" y="480" width="43" height="12" fill="#00f"/>
<rect x="362" y="480" width="82" height="12" fill="#00f"/>
<rect x="492" y="480" width="74" height="12" fill="#00f"/>
<line x1="214" y1="486" x2="272" y2="486" stroke="#00f"/>
<line x1="316" y1="486" x2="361" y2="486" stroke="#00f"/>
<line x1="444" y1="486" x2="491" y2="486" stroke="#00f"/>
<rect x="101" y="481" width="113" height="10" fill="#ff0"/>
<rect x="274" y="481" width="38" height="10" fill="#ff0"/>
<text x="20" y="510" class="sm">0.002335</text>
<rect x="100" y="500" width="114" height="12" fill="#00f"/>
<rect x="256" y="500" width="60" height="12" fill="#00f"/>
<rect x="374" y="500" width="70" height="12" fill="#00f"/>
<rect x="492" y="500" width="74" height="12" fill="#00f"/>
<line x1="214" y1="506" x2="255" y2="506" stroke="#00f"/>
<line x1="316" y1="506" x2="373" y2="506" stroke="#00f"/>
<line x1="444" y1="506" x2="491" y2="506" stroke="#00f"/>
<rect x="101" y="501" width="113" height="10" fill="#ff0"/>
<rect x="257" y="501" width="59" height="10" fill="#ff0"/>
<rect x="375" y="501" width="69" height="10" fill="#ff0"/>
<rect x="493" y="501" width="70" height="10" fill="#ff0"/>
<text x="20" y="530" class="sm">0.002019</text>
<rect x="100" y="520" width="216" height="12" fill="#00f"/>
<rect x="362" y="520" width="97" height="12" fill="#00f"/>
<rect x="531" y="520" width="35" height="12" fill="#00f"/>
<line x1="316" y1="526" x2="361" y2="526" stroke="#00f"/>
<line x1="459" y1="526" x2="530" y2="526" stroke="#00f"/>
<rect x="101" y="521" width="215" height="10" fill="#ff0"/>
<rect x="363" y="521" width="92" height="10" fill="#ff0"/>
</svg>
