<svg viewBox="0 0 993 615" xmlns="http://www.w3.org/2000/svg">

<style>
  .sm { font: 12px sans-serif; }
  .lg { font: 15px sans-serif; }
</style>
<rect fill="#ddd" x="0" y="0" width="100%" height="100%"/>
<text x="20" y="20" class="lg">ch.12400 IV:17276856-17277848 Gene:WBGene00009156</text>
<text x="20" y="50" class="sm">WormBase</text>
<rect x="100" y="40" width="92" height="12" fill="#00f"/>
<rect x="247" y="40" width="205" height="12" fill="#00f"/>
<rect x="650" y="40" width="243" height="12" fill="#00f"/>
<line x1="192" y1="46" x2="246" y2="46" stroke="#00f"/>
<line x1="452" y1="46" x2="649" y2="46" stroke="#00f"/>
<rect x="111" y="41" width="81" height="10" fill="#ff0"/>
<rect x="248" y="41" width="204" height="10" fill="#ff0"/>
<rect x="651" y="41" width="174" height="10" fill="#ff0"/>
<rect x="101" y="41" width="9" height="10" fill="brown"><title>.</title></rect>
<rect x="826" y="41" width="67" height="10" fill="brown"><title>.</title></rect>
<text x="20" y="70" class="sm">WormBase</text>
<rect x="426" y="60" width="26" height="12" fill="#00f"/>
<rect x="650" y="60" width="175" height="12" fill="#00f"/>
<line x1="452" y1="66" x2="649" y2="66" stroke="#00f"/>
<rect x="427" y="61" width="25" height="10" fill="#ff0"/>
<rect x="651" y="61" width="174" height="10" fill="#ff0"/>
<text x="20" y="90" class="sm">WormBase</text>
<rect x="681" y="80" width="144" height="12" fill="#00f"/>
<rect x="682" y="81" width="143" height="10" fill="#ff0"/>
<text x="20" y="110" class="sm">Fitness: 0.01613868516520273</text>
<rect x="452" y="105" width="198" height="5" fill="#00f"><title>388794.0</title></rect>
<rect x="192" y="110" width="55" height="5" fill="#00f"><title>370289.0</title></rect>
<rect x="508" y="115" width="142" height="5" fill="#00f"><title>188.0</title></rect>
<rect x="192" y="120" width="458" height="5" fill="#00f"><title>37.0</title></rect>
<rect x="452" y="125" width="200" height="5" fill="#00f"><title>33.0</title></rect>
<rect x="259" y="130" width="52" height="5" fill="#00f"><title>18.0</title></rect>
<rect x="32" y="135" width="47" height="5" fill="#00f"><title>15.0</title></rect>
<rect x="452" y="140" width="167" height="5" fill="#00f"><title>14.0</title></rect>
<rect x="821" y="145" width="42" height="5" fill="#f0f"><title>14.0</title></rect>
<rect x="163" y="150" width="42" height="5" fill="#f0f"><title>12.0</title></rect>
<rect x="456" y="155" width="196" height="5" fill="#00f"><title>12.0</title></rect>
<rect x="452" y="160" width="246" height="5" fill="#00f"><title>9.0</title></rect>
<rect x="192" y="165" width="78" height="5" fill="#00f"><title>6.0</title></rect>
<rect x="192" y="170" width="119" height="5" fill="#00f"><title>6.0</title></rect>
<rect x="192" y="175" width="67" height="5" fill="#00f"><title>3.0</title></rect>
<text x="20" y="205" class="sm">0.9553</text>
<rect x="100" y="195" width="92" height="12" fill="#00f"/>
<rect x="247" y="195" width="205" height="12" fill="#00f"/>
<rect x="650" y="195" width="246" height="12" fill="#00f"/>
<line x1="192" y1="201" x2="246" y2="201" stroke="#00f"/>
<line x1="452" y1="201" x2="649" y2="201" stroke="#00f"/>
<rect x="111" y="196" width="81" height="10" fill="#ff0"/>
<rect x="248" y="196" width="204" height="10" fill="#ff0"/>
<rect x="651" y="196" width="174" height="10" fill="#ff0"/>
<text x="20" y="225" class="sm">0.02858</text>
<rect x="100" y="215" width="352" height="12" fill="#00f"/>
<rect x="650" y="215" width="246" height="12" fill="#00f"/>
<line x1="452" y1="221" x2="649" y2="221" stroke="#00f"/>
<rect x="427" y="216" width="25" height="10" fill="#ff0"/>
<rect x="651" y="216" width="174" height="10" fill="#ff0"/>
<text x="20" y="245" class="sm">0.005449</text>
<rect x="100" y="235" width="92" height="12" fill="#00f"/>
<rect x="270" y="235" width="182" height="12" fill="#00f"/>
<rect x="650" y="235" width="246" height="12" fill="#00f"/>
<line x1="192" y1="241" x2="269" y2="241" stroke="#00f"/>
<line x1="452" y1="241" x2="649" y2="241" stroke="#00f"/>
<rect x="427" y="236" width="25" height="10" fill="#ff0"/>
<rect x="651" y="236" width="174" height="10" fill="#ff0"/>
<text x="20" y="265" class="sm">0.003114</text>
<rect x="100" y="255" width="85" height="12" fill="#00f"/>
<rect x="247" y="255" width="205" height="12" fill="#00f"/>
<rect x="650" y="255" width="246" height="12" fill="#00f"/>
<line x1="185" y1="261" x2="246" y2="261" stroke="#00f"/>
<line x1="452" y1="261" x2="649" y2="261" stroke="#00f"/>
<rect x="427" y="256" width="25" height="10" fill="#ff0"/>
<rect x="651" y="256" width="174" height="10" fill="#ff0"/>
<text x="20" y="285" class="sm">0.001762</text>
<rect x="100" y="275" width="92" height="12" fill="#00f"/>
<rect x="247" y="275" width="87" height="12" fill="#00f"/>
<rect x="387" y="275" width="65" height="12" fill="#00f"/>
<rect x="650" y="275" width="246" height="12" fill="#00f"/>
<line x1="192" y1="281" x2="246" y2="281" stroke="#00f"/>
<line x1="334" y1="281" x2="386" y2="281" stroke="#00f"/>
<line x1="452" y1="281" x2="649" y2="281" stroke="#00f"/>
<rect x="111" y="276" width="81" height="10" fill="#ff0"/>
<rect x="248" y="276" width="86" height="10" fill="#ff0"/>
<rect x="388" y="276" width="55" height="10" fill="#ff0"/>
<text x="20" y="305" class="sm">0.00155</text>
<rect x="100" y="295" width="96" height="12" fill="#00f"/>
<rect x="247" y="295" width="205" height="12" fill="#00f"/>
<rect x="650" y="295" width="246" height="12" fill="#00f"/>
<line x1="196" y1="301" x2="246" y2="301" stroke="#00f"/>
<line x1="452" y1="301" x2="649" y2="301" stroke="#00f"/>
<rect x="427" y="296" width="25" height="10" fill="#ff0"/>
<rect x="651" y="296" width="174" height="10" fill="#ff0"/>
<text x="20" y="325" class="sm">0.001068</text>
<rect x="100" y="315" width="92" height="12" fill="#00f"/>
<rect x="311" y="315" width="141" height="12" fill="#00f"/>
<rect x="650" y="315" width="246" height="12" fill="#00f"/>
<line x1="192" y1="321" x2="310" y2="321" stroke="#00f"/>
<line x1="452" y1="321" x2="649" y2="321" stroke="#00f"/>
<rect x="427" y="316" width="25" height="10" fill="#ff0"/>
<rect x="651" y="316" width="174" height="10" fill="#ff0"/>
<text x="20" y="345" class="sm">0.0009045</text>
<rect x="100" y="335" width="92" height="12" fill="#00f"/>
<rect x="247" y="335" width="209" height="12" fill="#00f"/>
<rect x="650" y="335" width="246" height="12" fill="#00f"/>
<line x1="192" y1="341" x2="246" y2="341" stroke="#00f"/>
<line x1="456" y1="341" x2="649" y2="341" stroke="#00f"/>
<rect x="111" y="336" width="81" height="10" fill="#ff0"/>
<rect x="248" y="336" width="208" height="10" fill="#ff0"/>
<text x="20" y="365" class="sm">0.0005907</text>
<rect x="100" y="355" width="92" height="12" fill="#00f"/>
<rect x="247" y="355" width="261" height="12" fill="#00f"/>
<rect x="650" y="355" width="246" height="12" fill="#00f"/>
<line x1="192" y1="361" x2="246" y2="361" stroke="#00f"/>
<line x1="508" y1="361" x2="649" y2="361" stroke="#00f"/>
<rect x="111" y="356" width="81" height="10" fill="#ff0"/>
<rect x="248" y="356" width="208" height="10" fill="#ff0"/>
<text x="20" y="385" class="sm">0.0004458</text>
<rect x="100" y="375" width="92" height="12" fill="#00f"/>
<rect x="276" y="375" width="176" height="12" fill="#00f"/>
<rect x="650" y="375" width="246" height="12" fill="#00f"/>
<line x1="192" y1="381" x2="275" y2="381" stroke="#00f"/>
<line x1="452" y1="381" x2="649" y2="381" stroke="#00f"/>
<rect x="427" y="376" width="25" height="10" fill="#ff0"/>
<rect x="651" y="376" width="174" height="10" fill="#ff0"/>
<text x="20" y="405" class="sm">0.0003751</text>
<rect x="100" y="395" width="46" height="12" fill="#00f"/>
<rect x="247" y="395" width="205" height="12" fill="#00f"/>
<rect x="650" y="395" width="246" height="12" fill="#00f"/>
<line x1="146" y1="401" x2="246" y2="401" stroke="#00f"/>
<line x1="452" y1="401" x2="649" y2="401" stroke="#00f"/>
<rect x="427" y="396" width="25" height="10" fill="#ff0"/>
<rect x="651" y="396" width="174" height="10" fill="#ff0"/>
<text x="20" y="425" class="sm">0.0002356</text>
<rect x="100" y="415" width="92" height="12" fill="#00f"/>
<rect x="247" y="415" width="273" height="12" fill="#00f"/>
<rect x="650" y="415" width="246" height="12" fill="#00f"/>
<line x1="192" y1="421" x2="246" y2="421" stroke="#00f"/>
<line x1="520" y1="421" x2="649" y2="421" stroke="#00f"/>
<rect x="111" y="416" width="81" height="10" fill="#ff0"/>
<rect x="248" y="416" width="208" height="10" fill="#ff0"/>
<text x="20" y="445" class="sm">0.0001591</text>
<rect x="100" y="435" width="92" height="12" fill="#00f"/>
<rect x="247" y="435" width="69" height="12" fill="#00f"/>
<rect x="387" y="435" width="65" height="12" fill="#00f"/>
<rect x="650" y="435" width="246" height="12" fill="#00f"/>
<line x1="192" y1="441" x2="246" y2="441" stroke="#00f"/>
<line x1="316" y1="441" x2="386" y2="441" stroke="#00f"/>
<line x1="452" y1="441" x2="649" y2="441" stroke="#00f"/>
<rect x="111" y="436" width="81" height="10" fill="#ff0"/>
<rect x="248" y="436" width="68" height="10" fill="#ff0"/>
<rect x="388" y="436" width="55" height="10" fill="#ff0"/>
<text x="20" y="465" class="sm">8.589e-05</text>
<rect x="100" y="455" width="92" height="12" fill="#00f"/>
<rect x="247" y="455" width="191" height="12" fill="#00f"/>
<rect x="650" y="455" width="246" height="12" fill="#00f"/>
<line x1="192" y1="461" x2="246" y2="461" stroke="#00f"/>
<line x1="438" y1="461" x2="649" y2="461" stroke="#00f"/>
<rect x="111" y="456" width="81" height="10" fill="#ff0"/>
<rect x="248" y="456" width="190" height="10" fill="#ff0"/>
<rect x="651" y="456" width="137" height="10" fill="#ff0"/>
<text x="20" y="485" class="sm">8.108e-05</text>
<rect x="100" y="475" width="92" height="12" fill="#00f"/>
<rect x="247" y="475" width="214" height="12" fill="#00f"/>
<rect x="650" y="475" width="246" height="12" fill="#00f"/>
<line x1="192" y1="481" x2="246" y2="481" stroke="#00f"/>
<line x1="461" y1="481" x2="649" y2="481" stroke="#00f"/>
<rect x="111" y="476" width="81" height="10" fill="#ff0"/>
<rect x="248" y="476" width="208" height="10" fill="#ff0"/>
<text x="20" y="505" class="sm">6.441e-05</text>
<rect x="100" y="495" width="55" height="12" fill="#00f"/>
<rect x="247" y="495" width="205" height="12" fill="#00f"/>
<rect x="650" y="495" width="246" height="12" fill="#00f"/>
<line x1="155" y1="501" x2="246" y2="501" stroke="#00f"/>
<line x1="452" y1="501" x2="649" y2="501" stroke="#00f"/>
<rect x="427" y="496" width="25" height="10" fill="#ff0"/>
<rect x="651" y="496" width="174" height="10" fill="#ff0"/>
<text x="20" y="525" class="sm">5.774e-05</text>
<rect x="100" y="515" width="92" height="12" fill="#00f"/>
<rect x="247" y="515" width="87" height="12" fill="#00f"/>
<rect x="650" y="515" width="246" height="12" fill="#00f"/>
<line x1="192" y1="521" x2="246" y2="521" stroke="#00f"/>
<line x1="334" y1="521" x2="649" y2="521" stroke="#00f"/>
<rect x="111" y="516" width="81" height="10" fill="#ff0"/>
<rect x="248" y="516" width="86" height="10" fill="#ff0"/>
<rect x="651" y="516" width="1" height="10" fill="#ff0"/>
<text x="20" y="545" class="sm">5.763e-05</text>
<rect x="100" y="535" width="92" height="12" fill="#00f"/>
<rect x="247" y="535" width="205" height="12" fill="#00f"/>
<rect x="619" y="535" width="277" height="12" fill="#00f"/>
<line x1="192" y1="541" x2="246" y2="541" stroke="#00f"/>
<line x1="452" y1="541" x2="618" y2="541" stroke="#00f"/>
<rect x="111" y="536" width="81" height="10" fill="#ff0"/>
<rect x="248" y="536" width="204" height="10" fill="#ff0"/>
<rect x="620" y="536" width="168" height="10" fill="#ff0"/>
<text x="20" y="565" class="sm">4.783e-05</text>
<rect x="100" y="555" width="234" height="12" fill="#00f"/>
<rect x="387" y="555" width="65" height="12" fill="#00f"/>
<rect x="650" y="555" width="246" height="12" fill="#00f"/>
<line x1="334" y1="561" x2="386" y2="561" stroke="#00f"/>
<line x1="452" y1="561" x2="649" y2="561" stroke="#00f"/>
<rect x="427" y="556" width="25" height="10" fill="#ff0"/>
<rect x="651" y="556" width="174" height="10" fill="#ff0"/>
<text x="20" y="585" class="sm">4.635e-05</text>
<rect x="100" y="575" width="92" height="12" fill="#00f"/>
<rect x="247" y="575" width="265" height="12" fill="#00f"/>
<rect x="650" y="575" width="246" height="12" fill="#00f"/>
<line x1="192" y1="581" x2="246" y2="581" stroke="#00f"/>
<line x1="512" y1="581" x2="649" y2="581" stroke="#00f"/>
<rect x="111" y="576" width="81" height="10" fill="#ff0"/>
<rect x="248" y="576" width="208" height="10" fill="#ff0"/>
</svg>
