<svg viewBox="0 0 805 525" xmlns="http://www.w3.org/2000/svg">

<style>
  .sm { font: 12px sans-serif; }
  .lg { font: 15px sans-serif; }
</style>
<rect fill="#ddd" x="0" y="0" width="100%" height="100%"/>
<text x="20" y="20" class="lg">ch.12554 V:503928-504732 Gene:WBGene00004144</text>
<text x="20" y="50" class="sm">WormBase</text>
<rect x="100" y="40" width="200" height="12" fill="#00f"/>
<rect x="369" y="40" width="336" height="12" fill="#00f"/>
<line x1="300" y1="46" x2="368" y2="46" stroke="#00f"/>
<rect x="112" y="41" width="188" height="10" fill="#ff0"/>
<rect x="370" y="41" width="275" height="10" fill="#ff0"/>
<rect x="101" y="41" width="10" height="10" fill="brown"><title>.</title></rect>
<rect x="646" y="41" width="59" height="10" fill="brown"><title>.</title></rect>
<text x="20" y="70" class="sm">Fitness: 5.20545538569441e-06</text>
<rect x="300" y="65" width="69" height="5" fill="#00f"><title>444973.0</title></rect>
<rect x="300" y="70" width="83" height="5" fill="#00f"><title>180.0</title></rect>
<rect x="309" y="75" width="47" height="5" fill="#f0f"><title>65.0</title></rect>
<rect x="304" y="80" width="65" height="5" fill="#00f"><title>10.0</title></rect>
<rect x="307" y="85" width="71" height="5" fill="#f0f"><title>7.0</title></rect>
<text x="20" y="115" class="sm">0.9996</text>
<rect x="100" y="105" width="200" height="12" fill="#00f"/>
<rect x="369" y="105" width="339" height="12" fill="#00f"/>
<line x1="300" y1="111" x2="368" y2="111" stroke="#00f"/>
<rect x="112" y="106" width="188" height="10" fill="#ff0"/>
<rect x="370" y="106" width="275" height="10" fill="#ff0"/>
<text x="20" y="135" class="sm">0.0004037</text>
<rect x="100" y="125" width="200" height="12" fill="#00f"/>
<rect x="383" y="125" width="325" height="12" fill="#00f"/>
<line x1="300" y1="131" x2="382" y2="131" stroke="#00f"/>
<rect x="112" y="126" width="188" height="10" fill="#ff0"/>
<rect x="384" y="126" width="92" height="10" fill="#ff0"/>
<text x="20" y="155" class="sm">2.335e-05</text>
<rect x="100" y="145" width="204" height="12" fill="#00f"/>
<rect x="369" y="145" width="339" height="12" fill="#00f"/>
<line x1="304" y1="151" x2="368" y2="151" stroke="#00f"/>
<rect x="112" y="146" width="192" height="10" fill="#ff0"/>
<rect x="370" y="146" width="106" height="10" fill="#ff0"/>
<text x="20" y="175" class="sm">8.708e-07</text>
<rect x="100" y="165" width="144" height="12" fill="#00f"/>
<rect x="369" y="165" width="339" height="12" fill="#00f"/>
<line x1="244" y1="171" x2="368" y2="171" stroke="#00f"/>
<rect x="112" y="166" width="132" height="10" fill="#ff0"/>
<rect x="370" y="166" width="106" height="10" fill="#ff0"/>
<text x="20" y="195" class="sm">7.148e-07</text>
<rect x="100" y="185" width="40" height="12" fill="#00f"/>
<rect x="369" y="185" width="339" height="12" fill="#00f"/>
<line x1="140" y1="191" x2="368" y2="191" stroke="#00f"/>
<rect x="112" y="186" width="28" height="10" fill="#ff0"/>
<rect x="370" y="186" width="72" height="10" fill="#ff0"/>
<text x="20" y="215" class="sm">9.042e-08</text>
<rect x="100" y="205" width="200" height="12" fill="#00f"/>
<rect x="565" y="205" width="143" height="12" fill="#00f"/>
<line x1="300" y1="211" x2="564" y2="211" stroke="#00f"/>
<rect x="112" y="206" width="188" height="10" fill="#ff0"/>
<rect x="566" y="206" width="29" height="10" fill="#ff0"/>
<text x="20" y="235" class="sm">2.299e-08</text>
<rect x="100" y="225" width="47" height="12" fill="#00f"/>
<rect x="369" y="225" width="339" height="12" fill="#00f"/>
<line x1="147" y1="231" x2="368" y2="231" stroke="#00f"/>
<rect x="112" y="226" width="35" height="10" fill="#ff0"/>
<rect x="370" y="226" width="275" height="10" fill="#ff0"/>
<text x="20" y="255" class="sm">8.037e-09</text>
<rect x="100" y="245" width="204" height="12" fill="#00f"/>
<rect x="383" y="245" width="325" height="12" fill="#00f"/>
<line x1="304" y1="251" x2="382" y2="251" stroke="#00f"/>
<rect x="112" y="246" width="192" height="10" fill="#ff0"/>
<rect x="384" y="246" width="58" height="10" fill="#ff0"/>
<text x="20" y="275" class="sm">4.769e-09</text>
<rect x="100" y="265" width="200" height="12" fill="#00f"/>
<rect x="450" y="265" width="258" height="12" fill="#00f"/>
<line x1="300" y1="271" x2="449" y2="271" stroke="#00f"/>
<rect x="112" y="266" width="188" height="10" fill="#ff0"/>
<rect x="451" y="266" width="194" height="10" fill="#ff0"/>
<text x="20" y="295" class="sm">2.052e-09</text>
<rect x="100" y="285" width="50" height="12" fill="#00f"/>
<rect x="369" y="285" width="339" height="12" fill="#00f"/>
<line x1="150" y1="291" x2="368" y2="291" stroke="#00f"/>
<rect x="112" y="286" width="38" height="10" fill="#ff0"/>
<rect x="370" y="286" width="275" height="10" fill="#ff0"/>
<text x="20" y="315" class="sm">6.941e-10</text>
<rect x="100" y="305" width="200" height="12" fill="#00f"/>
<rect x="531" y="305" width="177" height="12" fill="#00f"/>
<line x1="300" y1="311" x2="530" y2="311" stroke="#00f"/>
<rect x="112" y="306" width="188" height="10" fill="#ff0"/>
<rect x="532" y="306" width="113" height="10" fill="#ff0"/>
<text x="20" y="335" class="sm">6.734e-10</text>
<rect x="100" y="325" width="144" height="12" fill="#00f"/>
<rect x="383" y="325" width="325" height="12" fill="#00f"/>
<line x1="244" y1="331" x2="382" y2="331" stroke="#00f"/>
<rect x="112" y="326" width="132" height="10" fill="#ff0"/>
<rect x="384" y="326" width="58" height="10" fill="#ff0"/>
<text x="20" y="355" class="sm">6.549e-10</text>
<rect x="100" y="345" width="40" height="12" fill="#00f"/>
<rect x="192" y="345" width="516" height="12" fill="#00f"/>
<line x1="140" y1="351" x2="191" y2="351" stroke="#00f"/>
<rect x="112" y="346" width="28" height="10" fill="#ff0"/>
<rect x="193" y="346" width="51" height="10" fill="#ff0"/>
<text x="20" y="375" class="sm">6.077e-10</text>
<rect x="100" y="365" width="40" height="12" fill="#00f"/>
<rect x="383" y="365" width="325" height="12" fill="#00f"/>
<line x1="140" y1="371" x2="382" y2="371" stroke="#00f"/>
<rect x="112" y="366" width="28" height="10" fill="#ff0"/>
<rect x="384" y="366" width="261" height="10" fill="#ff0"/>
<text x="20" y="395" class="sm">4.586e-10</text>
<rect x="100" y="385" width="76" height="12" fill="#00f"/>
<rect x="369" y="385" width="339" height="12" fill="#00f"/>
<line x1="176" y1="391" x2="368" y2="391" stroke="#00f"/>
<rect x="112" y="386" width="64" height="10" fill="#ff0"/>
<rect x="370" y="386" width="72" height="10" fill="#ff0"/>
<text x="20" y="415" class="sm">8.151e-11</text>
<rect x="100" y="405" width="109" height="12" fill="#00f"/>
<rect x="369" y="405" width="339" height="12" fill="#00f"/>
<line x1="209" y1="411" x2="368" y2="411" stroke="#00f"/>
<rect x="112" y="406" width="97" height="10" fill="#ff0"/>
<rect x="370" y="406" width="72" height="10" fill="#ff0"/>
<text x="20" y="435" class="sm">2.525e-11</text>
<rect x="100" y="425" width="47" height="12" fill="#00f"/>
<rect x="192" y="425" width="516" height="12" fill="#00f"/>
<line x1="147" y1="431" x2="191" y2="431" stroke="#00f"/>
<rect x="112" y="426" width="35" height="10" fill="#ff0"/>
<rect x="193" y="426" width="128" height="10" fill="#ff0"/>
<text x="20" y="455" class="sm">2.141e-11</text>
<rect x="100" y="445" width="200" height="12" fill="#00f"/>
<rect x="422" y="445" width="286" height="12" fill="#00f"/>
<line x1="300" y1="451" x2="421" y2="451" stroke="#00f"/>
<rect x="112" y="446" width="188" height="10" fill="#ff0"/>
<rect x="423" y="446" width="53" height="10" fill="#ff0"/>
<text x="20" y="475" class="sm">1.623e-11</text>
<rect x="100" y="465" width="47" height="12" fill="#00f"/>
<rect x="383" y="465" width="325" height="12" fill="#00f"/>
<line x1="147" y1="471" x2="382" y2="471" stroke="#00f"/>
<rect x="112" y="466" width="35" height="10" fill="#ff0"/>
<rect x="384" y="466" width="92" height="10" fill="#ff0"/>
<text x="20" y="495" class="sm">7.061e-12</text>
<rect x="100" y="485" width="40" height="12" fill="#00f"/>
<rect x="192" y="485" width="108" height="12" fill="#00f"/>
<rect x="369" y="485" width="339" height="12" fill="#00f"/>
<line x1="140" y1="491" x2="191" y2="491" stroke="#00f"/>
<line x1="300" y1="491" x2="368" y2="491" stroke="#00f"/>
<rect x="250" y="486" width="50" height="10" fill="#ff0"/>
<rect x="370" y="486" width="275" height="10" fill="#ff0"/>
</svg>
