<svg viewBox="0 0 592 755" xmlns="http://www.w3.org/2000/svg">

<style>
  .sm { font: 12px sans-serif; }
  .lg { font: 15px sans-serif; }
</style>
<rect fill="#ddd" x="0" y="0" width="100%" height="100%"/>
<text x="20" y="20" class="lg">ch.15164 V:11147246-11147837 Gene:WBGene00003771</text>
<text x="20" y="50" class="sm">WormBase</text>
<rect x="100" y="40" width="84" height="12" fill="#00f"/>
<rect x="232" y="40" width="260" height="12" fill="#00f"/>
<line x1="184" y1="46" x2="231" y2="46" stroke="#00f"/>
<rect x="112" y="41" width="72" height="10" fill="#ff0"/>
<rect x="233" y="41" width="151" height="10" fill="#ff0"/>
<rect x="101" y="41" width="10" height="10" fill="brown"><title>.</title></rect>
<rect x="385" y="41" width="107" height="10" fill="brown"><title>.</title></rect>
<text x="20" y="70" class="sm">Fitness: 0.005171003844957309</text>
<rect x="184" y="65" width="48" height="5" fill="#00f"><title>3668820.0</title></rect>
<rect x="271" y="70" width="81" height="5" fill="#00f"><title>5850.0</title></rect>
<rect x="292" y="75" width="60" height="5" fill="#00f"><title>1320.0</title></rect>
<rect x="259" y="80" width="93" height="5" fill="#00f"><title>867.0</title></rect>
<rect x="247" y="85" width="45" height="5" fill="#00f"><title>324.0</title></rect>
<rect x="259" y="90" width="33" height="5" fill="#00f"><title>324.0</title></rect>
<rect x="247" y="95" width="105" height="5" fill="#00f"><title>185.0</title></rect>
<rect x="292" y="100" width="75" height="5" fill="#00f"><title>148.0</title></rect>
<rect x="325" y="105" width="27" height="5" fill="#00f"><title>126.0</title></rect>
<rect x="292" y="110" width="27" height="5" fill="#00f"><title>103.0</title></rect>
<rect x="292" y="115" width="51" height="5" fill="#00f"><title>100.0</title></rect>
<rect x="176" y="120" width="56" height="5" fill="#00f"><title>98.0</title></rect>
<rect x="285" y="125" width="87" height="5" fill="#00f"><title>96.0</title></rect>
<rect x="171" y="130" width="160" height="5" fill="#00f"><title>53.0</title></rect>
<rect x="271" y="135" width="72" height="5" fill="#00f"><title>52.0</title></rect>
<rect x="312" y="140" width="48" height="5" fill="#00f"><title>50.0</title></rect>
<rect x="188" y="145" width="44" height="5" fill="#00f"><title>49.0</title></rect>
<rect x="165" y="150" width="127" height="5" fill="#00f"><title>46.0</title></rect>
<rect x="282" y="155" width="84" height="5" fill="#00f"><title>41.0</title></rect>
<rect x="184" y="160" width="135" height="5" fill="#00f"><title>32.0</title></rect>
<rect x="271" y="165" width="48" height="5" fill="#00f"><title>29.0</title></rect>
<rect x="271" y="170" width="96" height="5" fill="#00f"><title>26.0</title></rect>
<rect x="259" y="175" width="43" height="5" fill="#00f"><title>19.0</title></rect>
<rect x="273" y="180" width="93" height="5" fill="#00f"><title>18.0</title></rect>
<rect x="292" y="185" width="39" height="5" fill="#00f"><title>15.0</title></rect>
<rect x="171" y="190" width="137" height="5" fill="#00f"><title>9.0</title></rect>
<rect x="184" y="195" width="183" height="5" fill="#00f"><title>9.0</title></rect>
<rect x="259" y="200" width="60" height="5" fill="#00f"><title>9.0</title></rect>
<rect x="287" y="205" width="81" height="5" fill="#00f"><title>9.0</title></rect>
<rect x="311" y="210" width="47" height="5" fill="#f0f"><title>9.0</title></rect>
<rect x="327" y="215" width="36" height="5" fill="#00f"><title>9.0</title></rect>
<rect x="176" y="220" width="116" height="5" fill="#00f"><title>8.0</title></rect>
<rect x="268" y="225" width="84" height="5" fill="#00f"><title>8.0</title></rect>
<rect x="238" y="230" width="64" height="5" fill="#00f"><title>7.0</title></rect>
<rect x="259" y="235" width="108" height="5" fill="#00f"><title>7.0</title></rect>
<rect x="206" y="240" width="190" height="5" fill="#f0f"><title>6.0</title></rect>
<rect x="288" y="245" width="30" height="5" fill="#00f"><title>6.0</title></rect>
<rect x="184" y="250" width="159" height="5" fill="#00f"><title>5.0</title></rect>
<rect x="184" y="255" width="168" height="5" fill="#00f"><title>5.0</title></rect>
<rect x="273" y="260" width="57" height="5" fill="#00f"><title>5.0</title></rect>
<rect x="312" y="265" width="35" height="5" fill="#00f"><title>5.0</title></rect>
<rect x="235" y="270" width="117" height="5" fill="#00f"><title>4.0</title></rect>
<rect x="292" y="275" width="87" height="5" fill="#00f"><title>4.0</title></rect>
<rect x="238" y="280" width="81" height="5" fill="#00f"><title>3.0</title></rect>
<rect x="251" y="285" width="59" height="5" fill="#00f"><title>3.0</title></rect>
<rect x="259" y="290" width="84" height="5" fill="#00f"><title>3.0</title></rect>
<rect x="267" y="295" width="94" height="5" fill="#00f"><title>3.0</title></rect>
<rect x="268" y="300" width="37" height="5" fill="#00f"><title>3.0</title></rect>
<rect x="270" y="305" width="94" height="5" fill="#00f"><title>3.0</title></rect>
<rect x="271" y="310" width="31" height="5" fill="#00f"><title>3.0</title></rect>
<rect x="282" y="315" width="72" height="5" fill="#00f"><title>3.0</title></rect>
<text x="20" y="345" class="sm">0.9979</text>
<rect x="100" y="335" width="84" height="12" fill="#00f"/>
<rect x="232" y="335" width="263" height="12" fill="#00f"/>
<line x1="184" y1="341" x2="231" y2="341" stroke="#00f"/>
<rect x="170" y="336" width="14" height="10" fill="#ff0"/>
<rect x="233" y="336" width="224" height="10" fill="#ff0"/>
<text x="20" y="365" class="sm">0.001013</text>
<rect x="100" y="355" width="76" height="12" fill="#00f"/>
<rect x="232" y="355" width="263" height="12" fill="#00f"/>
<line x1="176" y1="361" x2="231" y2="361" stroke="#00f"/>
<rect x="309" y="356" width="186" height="10" fill="#ff0"/>
<text x="20" y="385" class="sm">0.0002214</text>
<rect x="100" y="375" width="159" height="12" fill="#00f"/>
<rect x="302" y="375" width="193" height="12" fill="#00f"/>
<line x1="259" y1="381" x2="301" y2="381" stroke="#00f"/>
<rect x="323" y="376" width="134" height="10" fill="#ff0"/>
<text x="20" y="405" class="sm">0.0001346</text>
<rect x="100" y="395" width="147" height="12" fill="#00f"/>
<rect x="292" y="395" width="203" height="12" fill="#00f"/>
<line x1="247" y1="401" x2="291" y2="401" stroke="#00f"/>
<rect x="233" y="396" width="14" height="10" fill="#ff0"/>
<rect x="293" y="396" width="164" height="10" fill="#ff0"/>
<text x="20" y="425" class="sm">0.0001197</text>
<rect x="100" y="415" width="88" height="12" fill="#00f"/>
<rect x="232" y="415" width="263" height="12" fill="#00f"/>
<line x1="188" y1="421" x2="231" y2="421" stroke="#00f"/>
<rect x="321" y="416" width="174" height="10" fill="#ff0"/>
<text x="20" y="445" class="sm">0.0001157</text>
<rect x="100" y="435" width="147" height="12" fill="#00f"/>
<rect x="302" y="435" width="193" height="12" fill="#00f"/>
<line x1="247" y1="441" x2="301" y2="441" stroke="#00f"/>
<rect x="323" y="436" width="134" height="10" fill="#ff0"/>
<text x="20" y="465" class="sm">8.567e-05</text>
<rect x="100" y="455" width="84" height="12" fill="#00f"/>
<rect x="352" y="455" width="143" height="12" fill="#00f"/>
<line x1="184" y1="461" x2="351" y2="461" stroke="#00f"/>
<rect x="170" y="456" width="14" height="10" fill="#ff0"/>
<rect x="353" y="456" width="104" height="10" fill="#ff0"/>
<text x="20" y="485" class="sm">6.325e-05</text>
<rect x="100" y="475" width="84" height="12" fill="#00f"/>
<rect x="302" y="475" width="193" height="12" fill="#00f"/>
<line x1="184" y1="481" x2="301" y2="481" stroke="#00f"/>
<rect x="323" y="476" width="134" height="10" fill="#ff0"/>
<text x="20" y="505" class="sm">6.275e-05</text>
<rect x="100" y="495" width="159" height="12" fill="#00f"/>
<rect x="308" y="495" width="187" height="12" fill="#00f"/>
<line x1="259" y1="501" x2="307" y2="501" stroke="#00f"/>
<rect x="323" y="496" width="134" height="10" fill="#ff0"/>
<text x="20" y="525" class="sm">5.586e-05</text>
<rect x="100" y="515" width="321" height="12" fill="#00f"/>
<rect x="468" y="515" width="27" height="12" fill="#00f"/>
<line x1="421" y1="521" x2="467" y2="521" stroke="#00f"/>
<rect x="279" y="516" width="142" height="10" fill="#ff0"/>
<rect x="469" y="516" width="9" height="10" fill="#ff0"/>
<text x="20" y="545" class="sm">3.824e-05</text>
<rect x="100" y="535" width="135" height="12" fill="#00f"/>
<rect x="292" y="535" width="203" height="12" fill="#00f"/>
<line x1="235" y1="541" x2="291" y2="541" stroke="#00f"/>
<rect x="233" y="536" width="2" height="10" fill="#ff0"/>
<rect x="293" y="536" width="164" height="10" fill="#ff0"/>
<text x="20" y="565" class="sm">3.674e-05</text>
<rect x="100" y="555" width="159" height="12" fill="#00f"/>
<rect x="305" y="555" width="190" height="12" fill="#00f"/>
<line x1="259" y1="561" x2="304" y2="561" stroke="#00f"/>
<rect x="323" y="556" width="134" height="10" fill="#ff0"/>
<text x="20" y="585" class="sm">3.125e-05</text>
<rect x="100" y="575" width="84" height="12" fill="#00f"/>
<rect x="292" y="575" width="203" height="12" fill="#00f"/>
<line x1="184" y1="581" x2="291" y2="581" stroke="#00f"/>
<rect x="170" y="576" width="14" height="10" fill="#ff0"/>
<rect x="293" y="576" width="164" height="10" fill="#ff0"/>
<text x="20" y="605" class="sm">2.705e-05</text>
<rect x="100" y="595" width="84" height="12" fill="#00f"/>
<rect x="381" y="595" width="114" height="12" fill="#00f"/>
<line x1="184" y1="601" x2="380" y2="601" stroke="#00f"/>
<rect x="170" y="596" width="14" height="10" fill="#ff0"/>
<rect x="382" y="596" width="2" height="10" fill="#ff0"/>
<text x="20" y="625" class="sm">2.142e-05</text>
<rect x="100" y="615" width="84" height="12" fill="#00f"/>
<rect x="331" y="615" width="164" height="12" fill="#00f"/>
<line x1="184" y1="621" x2="330" y2="621" stroke="#00f"/>
<rect x="170" y="616" width="14" height="10" fill="#ff0"/>
<rect x="332" y="616" width="125" height="10" fill="#ff0"/>
<text x="20" y="645" class="sm">1.71e-05</text>
<rect x="100" y="635" width="38" height="12" fill="#00f"/>
<rect x="189" y="635" width="306" height="12" fill="#00f"/>
<line x1="138" y1="641" x2="188" y2="641" stroke="#00f"/>
<rect x="233" y="636" width="224" height="10" fill="#ff0"/>
<text x="20" y="665" class="sm">1.245e-05</text>
<rect x="100" y="655" width="225" height="12" fill="#00f"/>
<rect x="381" y="655" width="114" height="12" fill="#00f"/>
<line x1="325" y1="661" x2="380" y2="661" stroke="#00f"/>
<rect x="279" y="656" width="46" height="10" fill="#ff0"/>
<rect x="382" y="656" width="75" height="10" fill="#ff0"/>
<text x="20" y="685" class="sm">1.145e-05</text>
<rect x="100" y="675" width="135" height="12" fill="#00f"/>
<rect x="302" y="675" width="193" height="12" fill="#00f"/>
<line x1="235" y1="681" x2="301" y2="681" stroke="#00f"/>
<rect x="323" y="676" width="134" height="10" fill="#ff0"/>
<text x="20" y="705" class="sm">9.65e-06</text>
<rect x="100" y="695" width="84" height="12" fill="#00f"/>
<rect x="308" y="695" width="187" height="12" fill="#00f"/>
<line x1="184" y1="701" x2="307" y2="701" stroke="#00f"/>
<rect x="112" y="696" width="72" height="10" fill="#ff0"/>
<rect x="309" y="696" width="148" height="10" fill="#ff0"/>
<text x="20" y="725" class="sm">8.353e-06</text>
<rect x="100" y="715" width="84" height="12" fill="#00f"/>
<rect x="468" y="715" width="27" height="12" fill="#00f"/>
<line x1="184" y1="721" x2="467" y2="721" stroke="#00f"/>
</svg>
