<svg viewBox="0 0 742 530" xmlns="http://www.w3.org/2000/svg">

<style>
  .sm { font: 12px sans-serif; }
  .lg { font: 15px sans-serif; }
</style>
<rect fill="#ddd" x="0" y="0" width="100%" height="100%"/>
<text x="20" y="20" class="lg">ch.1786 I:9419357-9420098 Gene:WBGene00007644</text>
<text x="20" y="50" class="sm">WormBase</text>
<rect x="100" y="40" width="118" height="12" fill="#00f"/>
<rect x="269" y="40" width="62" height="12" fill="#00f"/>
<rect x="372" y="40" width="270" height="12" fill="#00f"/>
<line x1="218" y1="46" x2="268" y2="46" stroke="#00f"/>
<line x1="331" y1="46" x2="371" y2="46" stroke="#00f"/>
<rect x="132" y="41" width="86" height="10" fill="#ff0"/>
<rect x="270" y="41" width="61" height="10" fill="#ff0"/>
<rect x="373" y="41" width="228" height="10" fill="#ff0"/>
<rect x="101" y="41" width="30" height="10" fill="brown"><title>.</title></rect>
<rect x="602" y="41" width="40" height="10" fill="brown"><title>.</title></rect>
<text x="20" y="70" class="sm">Fitness: 0.002332868563266524</text>
<rect x="218" y="65" width="51" height="5" fill="#00f"><title>158787.0</title></rect>
<rect x="331" y="70" width="41" height="5" fill="#00f"><title>157909.0</title></rect>
<rect x="331" y="75" width="50" height="5" fill="#00f"><title>654.0</title></rect>
<rect x="218" y="80" width="54" height="5" fill="#00f"><title>19.0</title></rect>
<rect x="222" y="85" width="50" height="5" fill="#00f"><title>19.0</title></rect>
<rect x="331" y="90" width="67" height="5" fill="#00f"><title>5.0</title></rect>
<text x="20" y="120" class="sm">0.9917</text>
<rect x="100" y="110" width="118" height="12" fill="#00f"/>
<rect x="269" y="110" width="62" height="12" fill="#00f"/>
<rect x="372" y="110" width="273" height="12" fill="#00f"/>
<line x1="218" y1="116" x2="268" y2="116" stroke="#00f"/>
<line x1="331" y1="116" x2="371" y2="116" stroke="#00f"/>
<rect x="132" y="111" width="86" height="10" fill="#ff0"/>
<rect x="270" y="111" width="61" height="10" fill="#ff0"/>
<rect x="373" y="111" width="228" height="10" fill="#ff0"/>
<text x="20" y="140" class="sm">0.003463</text>
<rect x="100" y="130" width="118" height="12" fill="#00f"/>
<rect x="269" y="130" width="62" height="12" fill="#00f"/>
<rect x="381" y="130" width="264" height="12" fill="#00f"/>
<line x1="218" y1="136" x2="268" y2="136" stroke="#00f"/>
<line x1="331" y1="136" x2="380" y2="136" stroke="#00f"/>
<rect x="132" y="131" width="86" height="10" fill="#ff0"/>
<rect x="270" y="131" width="61" height="10" fill="#ff0"/>
<rect x="382" y="131" width="219" height="10" fill="#ff0"/>
<text x="20" y="160" class="sm">0.002922</text>
<rect x="100" y="150" width="118" height="12" fill="#00f"/>
<rect x="269" y="150" width="376" height="12" fill="#00f"/>
<line x1="218" y1="156" x2="268" y2="156" stroke="#00f"/>
<rect x="132" y="151" width="86" height="10" fill="#ff0"/>
<rect x="270" y="151" width="92" height="10" fill="#ff0"/>
<text x="20" y="180" class="sm">0.0005834</text>
<rect x="100" y="170" width="118" height="12" fill="#00f"/>
<rect x="269" y="170" width="62" height="12" fill="#00f"/>
<rect x="372" y="170" width="106" height="12" fill="#00f"/>
<rect x="542" y="170" width="103" height="12" fill="#00f"/>
<line x1="218" y1="176" x2="268" y2="176" stroke="#00f"/>
<line x1="331" y1="176" x2="371" y2="176" stroke="#00f"/>
<line x1="478" y1="176" x2="541" y2="176" stroke="#00f"/>
<rect x="132" y="171" width="86" height="10" fill="#ff0"/>
<rect x="270" y="171" width="61" height="10" fill="#ff0"/>
<rect x="373" y="171" width="105" height="10" fill="#ff0"/>
<rect x="543" y="171" width="17" height="10" fill="#ff0"/>
<text x="20" y="200" class="sm">0.0005393</text>
<rect x="100" y="190" width="118" height="12" fill="#00f"/>
<rect x="269" y="190" width="66" height="12" fill="#00f"/>
<rect x="372" y="190" width="273" height="12" fill="#00f"/>
<line x1="218" y1="196" x2="268" y2="196" stroke="#00f"/>
<line x1="335" y1="196" x2="371" y2="196" stroke="#00f"/>
<rect x="132" y="191" width="86" height="10" fill="#ff0"/>
<rect x="270" y="191" width="65" height="10" fill="#ff0"/>
<rect x="373" y="191" width="11" height="10" fill="#ff0"/>
<text x="20" y="220" class="sm">0.0002077</text>
<rect x="100" y="210" width="118" height="12" fill="#00f"/>
<rect x="269" y="210" width="62" height="12" fill="#00f"/>
<rect x="398" y="210" width="247" height="12" fill="#00f"/>
<line x1="218" y1="216" x2="268" y2="216" stroke="#00f"/>
<line x1="331" y1="216" x2="397" y2="216" stroke="#00f"/>
<rect x="132" y="211" width="86" height="10" fill="#ff0"/>
<rect x="270" y="211" width="61" height="10" fill="#ff0"/>
<rect x="399" y="211" width="27" height="10" fill="#ff0"/>
<text x="20" y="240" class="sm">0.0001661</text>
<rect x="100" y="230" width="118" height="12" fill="#00f"/>
<rect x="269" y="230" width="62" height="12" fill="#00f"/>
<rect x="372" y="230" width="106" height="12" fill="#00f"/>
<rect x="533" y="230" width="112" height="12" fill="#00f"/>
<line x1="218" y1="236" x2="268" y2="236" stroke="#00f"/>
<line x1="331" y1="236" x2="371" y2="236" stroke="#00f"/>
<line x1="478" y1="236" x2="532" y2="236" stroke="#00f"/>
<rect x="132" y="231" width="86" height="10" fill="#ff0"/>
<rect x="270" y="231" width="61" height="10" fill="#ff0"/>
<rect x="373" y="231" width="105" height="10" fill="#ff0"/>
<rect x="534" y="231" width="26" height="10" fill="#ff0"/>
<text x="20" y="260" class="sm">0.0001221</text>
<rect x="100" y="250" width="118" height="12" fill="#00f"/>
<rect x="269" y="250" width="66" height="12" fill="#00f"/>
<rect x="381" y="250" width="264" height="12" fill="#00f"/>
<line x1="218" y1="256" x2="268" y2="256" stroke="#00f"/>
<line x1="335" y1="256" x2="380" y2="256" stroke="#00f"/>
<rect x="132" y="251" width="86" height="10" fill="#ff0"/>
<rect x="270" y="251" width="65" height="10" fill="#ff0"/>
<rect x="382" y="251" width="2" height="10" fill="#ff0"/>
<text x="20" y="280" class="sm">8.32e-05</text>
<rect x="100" y="270" width="118" height="12" fill="#00f"/>
<rect x="269" y="270" width="62" height="12" fill="#00f"/>
<rect x="385" y="270" width="260" height="12" fill="#00f"/>
<line x1="218" y1="276" x2="268" y2="276" stroke="#00f"/>
<line x1="331" y1="276" x2="384" y2="276" stroke="#00f"/>
<rect x="132" y="271" width="86" height="10" fill="#ff0"/>
<rect x="270" y="271" width="61" height="10" fill="#ff0"/>
<rect x="386" y="271" width="75" height="10" fill="#ff0"/>
<text x="20" y="300" class="sm">5.482e-05</text>
<rect x="100" y="290" width="71" height="12" fill="#00f"/>
<rect x="229" y="290" width="102" height="12" fill="#00f"/>
<rect x="372" y="290" width="273" height="12" fill="#00f"/>
<line x1="171" y1="296" x2="228" y2="296" stroke="#00f"/>
<line x1="331" y1="296" x2="371" y2="296" stroke="#00f"/>
<rect x="282" y="291" width="49" height="10" fill="#ff0"/>
<rect x="373" y="291" width="228" height="10" fill="#ff0"/>
<text x="20" y="320" class="sm">5.395e-05</text>
<rect x="100" y="310" width="118" height="12" fill="#00f"/>
<rect x="269" y="310" width="111" height="12" fill="#00f"/>
<rect x="490" y="310" width="155" height="12" fill="#00f"/>
<line x1="218" y1="316" x2="268" y2="316" stroke="#00f"/>
<line x1="380" y1="316" x2="489" y2="316" stroke="#00f"/>
<rect x="132" y="311" width="86" height="10" fill="#ff0"/>
<rect x="270" y="311" width="92" height="10" fill="#ff0"/>
<text x="20" y="340" class="sm">5.376e-05</text>
<rect x="100" y="330" width="34" height="12" fill="#00f"/>
<rect x="172" y="330" width="46" height="12" fill="#00f"/>
<rect x="269" y="330" width="62" height="12" fill="#00f"/>
<rect x="372" y="330" width="273" height="12" fill="#00f"/>
<line x1="134" y1="336" x2="171" y2="336" stroke="#00f"/>
<line x1="218" y1="336" x2="268" y2="336" stroke="#00f"/>
<line x1="331" y1="336" x2="371" y2="336" stroke="#00f"/>
<rect x="282" y="331" width="49" height="10" fill="#ff0"/>
<rect x="373" y="331" width="228" height="10" fill="#ff0"/>
<text x="20" y="360" class="sm">2.381e-05</text>
<rect x="100" y="350" width="118" height="12" fill="#00f"/>
<rect x="269" y="350" width="62" height="12" fill="#00f"/>
<rect x="372" y="350" width="144" height="12" fill="#00f"/>
<rect x="560" y="350" width="85" height="12" fill="#00f"/>
<line x1="218" y1="356" x2="268" y2="356" stroke="#00f"/>
<line x1="331" y1="356" x2="371" y2="356" stroke="#00f"/>
<line x1="516" y1="356" x2="559" y2="356" stroke="#00f"/>
<rect x="132" y="351" width="86" height="10" fill="#ff0"/>
<rect x="270" y="351" width="61" height="10" fill="#ff0"/>
<rect x="373" y="351" width="143" height="10" fill="#ff0"/>
<rect x="561" y="351" width="66" height="10" fill="#ff0"/>
<text x="20" y="380" class="sm">1.525e-05</text>
<rect x="100" y="370" width="118" height="12" fill="#00f"/>
<rect x="269" y="370" width="66" height="12" fill="#00f"/>
<rect x="398" y="370" width="247" height="12" fill="#00f"/>
<line x1="218" y1="376" x2="268" y2="376" stroke="#00f"/>
<line x1="335" y1="376" x2="397" y2="376" stroke="#00f"/>
<rect x="132" y="371" width="86" height="10" fill="#ff0"/>
<rect x="270" y="371" width="65" height="10" fill="#ff0"/>
<rect x="399" y="371" width="62" height="10" fill="#ff0"/>
<text x="20" y="400" class="sm">9.626e-06</text>
<rect x="100" y="390" width="118" height="12" fill="#00f"/>
<rect x="269" y="390" width="111" height="12" fill="#00f"/>
<rect x="421" y="390" width="224" height="12" fill="#00f"/>
<line x1="218" y1="396" x2="268" y2="396" stroke="#00f"/>
<line x1="380" y1="396" x2="420" y2="396" stroke="#00f"/>
<rect x="132" y="391" width="86" height="10" fill="#ff0"/>
<rect x="270" y="391" width="92" height="10" fill="#ff0"/>
<text x="20" y="420" class="sm">9.262e-06</text>
<rect x="100" y="410" width="118" height="12" fill="#00f"/>
<rect x="269" y="410" width="62" height="12" fill="#00f"/>
<rect x="372" y="410" width="109" height="12" fill="#00f"/>
<rect x="542" y="410" width="103" height="12" fill="#00f"/>
<line x1="218" y1="416" x2="268" y2="416" stroke="#00f"/>
<line x1="331" y1="416" x2="371" y2="416" stroke="#00f"/>
<line x1="481" y1="416" x2="541" y2="416" stroke="#00f"/>
<rect x="132" y="411" width="86" height="10" fill="#ff0"/>
<rect x="270" y="411" width="61" height="10" fill="#ff0"/>
<rect x="373" y="411" width="108" height="10" fill="#ff0"/>
<rect x="543" y="411" width="17" height="10" fill="#ff0"/>
<text x="20" y="440" class="sm">8.934e-06</text>
<rect x="100" y="430" width="118" height="12" fill="#00f"/>
<rect x="269" y="430" width="66" height="12" fill="#00f"/>
<rect x="385" y="430" width="260" height="12" fill="#00f"/>
<line x1="218" y1="436" x2="268" y2="436" stroke="#00f"/>
<line x1="335" y1="436" x2="384" y2="436" stroke="#00f"/>
<rect x="132" y="431" width="86" height="10" fill="#ff0"/>
<rect x="270" y="431" width="65" height="10" fill="#ff0"/>
<rect x="386" y="431" width="215" height="10" fill="#ff0"/>
<text x="20" y="460" class="sm">4.652e-06</text>
<rect x="100" y="450" width="118" height="12" fill="#00f"/>
<rect x="269" y="450" width="111" height="12" fill="#00f"/>
<rect x="479" y="450" width="166" height="12" fill="#00f"/>
<line x1="218" y1="456" x2="268" y2="456" stroke="#00f"/>
<line x1="380" y1="456" x2="478" y2="456" stroke="#00f"/>
<rect x="132" y="451" width="86" height="10" fill="#ff0"/>
<rect x="270" y="451" width="92" height="10" fill="#ff0"/>
<text x="20" y="480" class="sm">3.981e-06</text>
<rect x="100" y="470" width="122" height="12" fill="#00f"/>
<rect x="269" y="470" width="62" height="12" fill="#00f"/>
<rect x="372" y="470" width="273" height="12" fill="#00f"/>
<line x1="222" y1="476" x2="268" y2="476" stroke="#00f"/>
<line x1="331" y1="476" x2="371" y2="476" stroke="#00f"/>
<rect x="282" y="471" width="49" height="10" fill="#ff0"/>
<rect x="373" y="471" width="228" height="10" fill="#ff0"/>
<text x="20" y="500" class="sm">3.912e-06</text>
<rect x="100" y="490" width="231" height="12" fill="#00f"/>
<rect x="372" y="490" width="273" height="12" fill="#00f"/>
<line x1="331" y1="496" x2="371" y2="496" stroke="#00f"/>
<rect x="282" y="491" width="49" height="10" fill="#ff0"/>
<rect x="373" y="491" width="228" height="10" fill="#ff0"/>
</svg>
