<svg viewBox="0 0 705 520" xmlns="http://www.w3.org/2000/svg">

<style>
  .sm { font: 12px sans-serif; }
  .lg { font: 15px sans-serif; }
</style>
<rect fill="#ddd" x="0" y="0" width="100%" height="100%"/>
<text x="20" y="20" class="lg">ch.18626 X:7029036-7029740 Gene:WBGene00020126</text>
<text x="20" y="50" class="sm">WormBase</text>
<rect x="100" y="40" width="114" height="12" fill="#00f"/>
<rect x="297" y="40" width="308" height="12" fill="#00f"/>
<line x1="214" y1="46" x2="296" y2="46" stroke="#00f"/>
<rect x="140" y="41" width="74" height="10" fill="#ff0"/>
<rect x="298" y="41" width="179" height="10" fill="#ff0"/>
<rect x="101" y="41" width="38" height="10" fill="brown"><title>.</title></rect>
<rect x="478" y="41" width="127" height="10" fill="brown"><title>.</title></rect>
<text x="20" y="70" class="sm">Fitness: 0.2016484101609428</text>
<rect x="214" y="65" width="83" height="5" fill="#00f"><title>142283.0</title></rect>
<rect x="214" y="70" width="74" height="5" fill="#00f"><title>22967.0</title></rect>
<rect x="214" y="75" width="112" height="5" fill="#00f"><title>4.0</title></rect>
<rect x="107" y="80" width="67" height="5" fill="#00f"><title>3.0</title></rect>
<text x="20" y="110" class="sm">0.8664</text>
<rect x="100" y="100" width="114" height="12" fill="#00f"/>
<rect x="297" y="100" width="311" height="12" fill="#00f"/>
<line x1="214" y1="106" x2="296" y2="106" stroke="#00f"/>
<rect x="140" y="101" width="74" height="10" fill="#ff0"/>
<rect x="298" y="101" width="179" height="10" fill="#ff0"/>
<text x="20" y="130" class="sm">0.03826</text>
<rect x="100" y="120" width="114" height="12" fill="#00f"/>
<rect x="288" y="120" width="320" height="12" fill="#00f"/>
<line x1="214" y1="126" x2="287" y2="126" stroke="#00f"/>
<rect x="140" y="121" width="74" height="10" fill="#ff0"/>
<rect x="289" y="121" width="188" height="10" fill="#ff0"/>
<text x="20" y="150" class="sm">0.01847</text>
<rect x="100" y="140" width="274" height="12" fill="#00f"/>
<rect x="411" y="140" width="197" height="12" fill="#00f"/>
<line x1="374" y1="146" x2="410" y2="146" stroke="#00f"/>
<rect x="140" y="141" width="83" height="10" fill="#ff0"/>
<text x="20" y="170" class="sm">0.01368</text>
<rect x="100" y="160" width="81" height="12" fill="#00f"/>
<rect x="223" y="160" width="385" height="12" fill="#00f"/>
<line x1="181" y1="166" x2="222" y2="166" stroke="#00f"/>
<rect x="140" y="161" width="41" height="10" fill="#ff0"/>
<rect x="224" y="161" width="14" height="10" fill="#ff0"/>
<text x="20" y="190" class="sm">0.01015</text>
<rect x="100" y="180" width="142" height="12" fill="#00f"/>
<rect x="297" y="180" width="311" height="12" fill="#00f"/>
<line x1="242" y1="186" x2="296" y2="186" stroke="#00f"/>
<rect x="140" y="181" width="83" height="10" fill="#ff0"/>
<text x="20" y="210" class="sm">0.009406</text>
<rect x="100" y="200" width="324" height="12" fill="#00f"/>
<rect x="498" y="200" width="110" height="12" fill="#00f"/>
<line x1="424" y1="206" x2="497" y2="206" stroke="#00f"/>
<rect x="140" y="201" width="83" height="10" fill="#ff0"/>
<text x="20" y="230" class="sm">0.00914</text>
<rect x="100" y="220" width="114" height="12" fill="#00f"/>
<rect x="316" y="220" width="292" height="12" fill="#00f"/>
<line x1="214" y1="226" x2="315" y2="226" stroke="#00f"/>
<rect x="140" y="221" width="74" height="10" fill="#ff0"/>
<rect x="317" y="221" width="17" height="10" fill="#ff0"/>
<text x="20" y="250" class="sm">0.008627</text>
<rect x="100" y="240" width="91" height="12" fill="#00f"/>
<rect x="297" y="240" width="311" height="12" fill="#00f"/>
<line x1="191" y1="246" x2="296" y2="246" stroke="#00f"/>
<rect x="140" y="241" width="51" height="10" fill="#ff0"/>
<rect x="298" y="241" width="13" height="10" fill="#ff0"/>
<text x="20" y="270" class="sm">0.006816</text>
<rect x="100" y="260" width="114" height="12" fill="#00f"/>
<rect x="307" y="260" width="301" height="12" fill="#00f"/>
<line x1="214" y1="266" x2="306" y2="266" stroke="#00f"/>
<rect x="140" y="261" width="74" height="10" fill="#ff0"/>
<rect x="308" y="261" width="26" height="10" fill="#ff0"/>
<text x="20" y="290" class="sm">0.005234</text>
<rect x="100" y="280" width="45" height="12" fill="#00f"/>
<rect x="214" y="280" width="394" height="12" fill="#00f"/>
<line x1="145" y1="286" x2="213" y2="286" stroke="#00f"/>
<rect x="276" y="281" width="35" height="10" fill="#ff0"/>
<text x="20" y="310" class="sm">0.003874</text>
<rect x="100" y="300" width="331" height="12" fill="#00f"/>
<rect x="498" y="300" width="110" height="12" fill="#00f"/>
<line x1="431" y1="306" x2="497" y2="306" stroke="#00f"/>
<rect x="140" y="301" width="83" height="10" fill="#ff0"/>
<text x="20" y="330" class="sm">0.002781</text>
<rect x="100" y="320" width="179" height="12" fill="#00f"/>
<rect x="316" y="320" width="292" height="12" fill="#00f"/>
<line x1="279" y1="326" x2="315" y2="326" stroke="#00f"/>
<rect x="276" y="321" width="3" height="10" fill="#ff0"/>
<rect x="317" y="321" width="160" height="10" fill="#ff0"/>
<text x="20" y="350" class="sm">0.001703</text>
<rect x="100" y="340" width="427" height="12" fill="#00f"/>
<rect x="574" y="340" width="34" height="12" fill="#00f"/>
<line x1="527" y1="346" x2="573" y2="346" stroke="#00f"/>
<rect x="140" y="341" width="83" height="10" fill="#ff0"/>
<text x="20" y="370" class="sm">0.001343</text>
<rect x="100" y="360" width="81" height="12" fill="#00f"/>
<rect x="297" y="360" width="311" height="12" fill="#00f"/>
<line x1="181" y1="366" x2="296" y2="366" stroke="#00f"/>
<rect x="140" y="361" width="41" height="10" fill="#ff0"/>
<rect x="298" y="361" width="179" height="10" fill="#ff0"/>
<text x="20" y="390" class="sm">0.000987</text>
<rect x="100" y="380" width="45" height="12" fill="#00f"/>
<rect x="223" y="380" width="385" height="12" fill="#00f"/>
<line x1="145" y1="386" x2="222" y2="386" stroke="#00f"/>
<rect x="276" y="381" width="35" height="10" fill="#ff0"/>
<text x="20" y="410" class="sm">0.0007408</text>
<rect x="100" y="400" width="274" height="12" fill="#00f"/>
<rect x="498" y="400" width="110" height="12" fill="#00f"/>
<line x1="374" y1="406" x2="497" y2="406" stroke="#00f"/>
<rect x="140" y="401" width="83" height="10" fill="#ff0"/>
<text x="20" y="430" class="sm">0.0007233</text>
<rect x="100" y="420" width="225" height="12" fill="#00f"/>
<rect x="360" y="420" width="248" height="12" fill="#00f"/>
<line x1="325" y1="426" x2="359" y2="426" stroke="#00f"/>
<rect x="311" y="421" width="14" height="10" fill="#ff0"/>
<rect x="361" y="421" width="116" height="10" fill="#ff0"/>
<text x="20" y="450" class="sm">0.0006396</text>
<rect x="100" y="440" width="274" height="12" fill="#00f"/>
<rect x="418" y="440" width="190" height="12" fill="#00f"/>
<line x1="374" y1="446" x2="417" y2="446" stroke="#00f"/>
<rect x="140" y="441" width="83" height="10" fill="#ff0"/>
<text x="20" y="470" class="sm">0.0005782</text>
<rect x="100" y="460" width="50" height="12" fill="#00f"/>
<rect x="214" y="460" width="394" height="12" fill="#00f"/>
<line x1="150" y1="466" x2="213" y2="466" stroke="#00f"/>
<rect x="140" y="461" width="10" height="10" fill="#ff0"/>
<rect x="215" y="461" width="96" height="10" fill="#ff0"/>
<text x="20" y="490" class="sm">0.0004139</text>
<rect x="100" y="480" width="91" height="12" fill="#00f"/>
<rect x="288" y="480" width="320" height="12" fill="#00f"/>
<line x1="191" y1="486" x2="287" y2="486" stroke="#00f"/>
<rect x="140" y="481" width="51" height="10" fill="#ff0"/>
<rect x="289" y="481" width="22" height="10" fill="#ff0"/>
</svg>
