<svg viewBox="0 0 772 520" xmlns="http://www.w3.org/2000/svg">

<style>
  .sm { font: 12px sans-serif; }
  .lg { font: 15px sans-serif; }
</style>
<rect fill="#ddd" x="0" y="0" width="100%" height="100%"/>
<text x="20" y="20" class="lg">ch.15816 V:13853734-13854505 Gene:WBGene00008628</text>
<text x="20" y="50" class="sm">WormBase</text>
<rect x="102" y="40" width="191" height="12" fill="#00f"/>
<rect x="344" y="40" width="330" height="12" fill="#00f"/>
<line x1="293" y1="46" x2="343" y2="46" stroke="#00f"/>
<rect x="122" y="41" width="171" height="10" fill="#ff0"/>
<rect x="345" y="41" width="265" height="10" fill="#ff0"/>
<rect x="103" y="41" width="18" height="10" fill="brown"><title>.</title></rect>
<rect x="611" y="41" width="63" height="10" fill="brown"><title>.</title></rect>
<text x="20" y="70" class="sm">Fitness: 1.7410087823454554e-05</text>
<rect x="293" y="65" width="51" height="5" fill="#00f"><title>824891.0</title></rect>
<rect x="297" y="70" width="47" height="5" fill="#00f"><title>1206.0</title></rect>
<rect x="276" y="75" width="68" height="5" fill="#00f"><title>28.0</title></rect>
<rect x="439" y="80" width="76" height="5" fill="#00f"><title>5.0</title></rect>
<text x="20" y="110" class="sm">0.9985</text>
<rect x="100" y="100" width="193" height="12" fill="#00f"/>
<rect x="344" y="100" width="331" height="12" fill="#00f"/>
<line x1="293" y1="106" x2="343" y2="106" stroke="#00f"/>
<rect x="122" y="101" width="171" height="10" fill="#ff0"/>
<rect x="345" y="101" width="265" height="10" fill="#ff0"/>
<text x="20" y="130" class="sm">0.001461</text>
<rect x="100" y="120" width="197" height="12" fill="#00f"/>
<rect x="344" y="120" width="331" height="12" fill="#00f"/>
<line x1="297" y1="126" x2="343" y2="126" stroke="#00f"/>
<rect x="279" y="121" width="18" height="10" fill="#ff0"/>
<rect x="345" y="121" width="265" height="10" fill="#ff0"/>
<text x="20" y="150" class="sm">3.124e-05</text>
<rect x="100" y="140" width="176" height="12" fill="#00f"/>
<rect x="344" y="140" width="331" height="12" fill="#00f"/>
<line x1="276" y1="146" x2="343" y2="146" stroke="#00f"/>
<rect x="122" y="141" width="154" height="10" fill="#ff0"/>
<rect x="345" y="141" width="12" height="10" fill="#ff0"/>
<text x="20" y="170" class="sm">1.156e-07</text>
<rect x="100" y="160" width="168" height="12" fill="#00f"/>
<rect x="344" y="160" width="331" height="12" fill="#00f"/>
<line x1="268" y1="166" x2="343" y2="166" stroke="#00f"/>
<rect x="122" y="161" width="146" height="10" fill="#ff0"/>
<rect x="345" y="161" width="98" height="10" fill="#ff0"/>
<text x="20" y="190" class="sm">1.493e-08</text>
<rect x="100" y="180" width="103" height="12" fill="#00f"/>
<rect x="245" y="180" width="430" height="12" fill="#00f"/>
<line x1="203" y1="186" x2="244" y2="186" stroke="#00f"/>
<rect x="122" y="181" width="81" height="10" fill="#ff0"/>
<rect x="246" y="181" width="73" height="10" fill="#ff0"/>
<text x="20" y="210" class="sm">1.22e-08</text>
<rect x="100" y="200" width="193" height="12" fill="#00f"/>
<rect x="377" y="200" width="298" height="12" fill="#00f"/>
<line x1="293" y1="206" x2="376" y2="206" stroke="#00f"/>
<rect x="122" y="201" width="171" height="10" fill="#ff0"/>
<rect x="378" y="201" width="232" height="10" fill="#ff0"/>
<text x="20" y="230" class="sm">1.015e-08</text>
<rect x="100" y="220" width="176" height="12" fill="#00f"/>
<rect x="322" y="220" width="353" height="12" fill="#00f"/>
<line x1="276" y1="226" x2="321" y2="226" stroke="#00f"/>
<rect x="122" y="221" width="154" height="10" fill="#ff0"/>
<rect x="323" y="221" width="12" height="10" fill="#ff0"/>
<text x="20" y="250" class="sm">9.332e-09</text>
<rect x="100" y="240" width="193" height="12" fill="#00f"/>
<rect x="398" y="240" width="277" height="12" fill="#00f"/>
<line x1="293" y1="246" x2="397" y2="246" stroke="#00f"/>
<rect x="122" y="241" width="171" height="10" fill="#ff0"/>
<rect x="399" y="241" width="211" height="10" fill="#ff0"/>
<text x="20" y="270" class="sm">5.56e-09</text>
<rect x="100" y="260" width="96" height="12" fill="#00f"/>
<rect x="245" y="260" width="430" height="12" fill="#00f"/>
<line x1="196" y1="266" x2="244" y2="266" stroke="#00f"/>
<rect x="122" y="261" width="74" height="10" fill="#ff0"/>
<rect x="246" y="261" width="26" height="10" fill="#ff0"/>
<text x="20" y="290" class="sm">5.325e-09</text>
<rect x="100" y="280" width="60" height="12" fill="#00f"/>
<rect x="211" y="280" width="464" height="12" fill="#00f"/>
<line x1="160" y1="286" x2="210" y2="286" stroke="#00f"/>
<rect x="122" y="281" width="38" height="10" fill="#ff0"/>
<rect x="212" y="281" width="107" height="10" fill="#ff0"/>
<text x="20" y="310" class="sm">2.288e-09</text>
<rect x="100" y="300" width="243" height="12" fill="#00f"/>
<rect x="398" y="300" width="277" height="12" fill="#00f"/>
<line x1="343" y1="306" x2="397" y2="306" stroke="#00f"/>
<rect x="122" y="301" width="197" height="10" fill="#ff0"/>
<text x="20" y="330" class="sm">2.04e-09</text>
<rect x="100" y="320" width="221" height="12" fill="#00f"/>
<rect x="377" y="320" width="298" height="12" fill="#00f"/>
<line x1="321" y1="326" x2="376" y2="326" stroke="#00f"/>
<rect x="279" y="321" width="42" height="10" fill="#ff0"/>
<rect x="378" y="321" width="232" height="10" fill="#ff0"/>
<text x="20" y="350" class="sm">1.372e-09</text>
<rect x="100" y="340" width="135" height="12" fill="#00f"/>
<rect x="344" y="340" width="331" height="12" fill="#00f"/>
<line x1="235" y1="346" x2="343" y2="346" stroke="#00f"/>
<rect x="122" y="341" width="113" height="10" fill="#ff0"/>
<rect x="345" y="341" width="98" height="10" fill="#ff0"/>
<text x="20" y="370" class="sm">7.763e-10</text>
<rect x="100" y="360" width="162" height="12" fill="#00f"/>
<rect x="344" y="360" width="331" height="12" fill="#00f"/>
<line x1="262" y1="366" x2="343" y2="366" stroke="#00f"/>
<rect x="122" y="361" width="140" height="10" fill="#ff0"/>
<rect x="345" y="361" width="98" height="10" fill="#ff0"/>
<text x="20" y="390" class="sm">5.875e-10</text>
<rect x="100" y="380" width="103" height="12" fill="#00f"/>
<rect x="254" y="380" width="421" height="12" fill="#00f"/>
<line x1="203" y1="386" x2="253" y2="386" stroke="#00f"/>
<rect x="122" y="381" width="81" height="10" fill="#ff0"/>
<rect x="255" y="381" width="64" height="10" fill="#ff0"/>
<text x="20" y="410" class="sm">5.388e-10</text>
<rect x="100" y="400" width="421" height="12" fill="#00f"/>
<rect x="582" y="400" width="93" height="12" fill="#00f"/>
<line x1="521" y1="406" x2="581" y2="406" stroke="#00f"/>
<rect x="122" y="401" width="197" height="10" fill="#ff0"/>
<text x="20" y="430" class="sm">3.316e-10</text>
<rect x="100" y="420" width="93" height="12" fill="#00f"/>
<rect x="245" y="420" width="430" height="12" fill="#00f"/>
<line x1="193" y1="426" x2="244" y2="426" stroke="#00f"/>
<rect x="122" y="421" width="71" height="10" fill="#ff0"/>
<rect x="246" y="421" width="26" height="10" fill="#ff0"/>
<text x="20" y="450" class="sm">2.622e-10</text>
<rect x="100" y="440" width="193" height="12" fill="#00f"/>
<rect x="457" y="440" width="218" height="12" fill="#00f"/>
<line x1="293" y1="446" x2="456" y2="446" stroke="#00f"/>
<rect x="122" y="441" width="171" height="10" fill="#ff0"/>
<rect x="458" y="441" width="40" height="10" fill="#ff0"/>
<text x="20" y="470" class="sm">2.529e-10</text>
<rect x="100" y="460" width="96" height="12" fill="#00f"/>
<rect x="236" y="460" width="439" height="12" fill="#00f"/>
<line x1="196" y1="466" x2="235" y2="466" stroke="#00f"/>
<rect x="122" y="461" width="74" height="10" fill="#ff0"/>
<rect x="237" y="461" width="35" height="10" fill="#ff0"/>
<text x="20" y="490" class="sm">2.265e-10</text>
<rect x="100" y="480" width="53" height="12" fill="#00f"/>
<rect x="211" y="480" width="464" height="12" fill="#00f"/>
<line x1="153" y1="486" x2="210" y2="486" stroke="#00f"/>
<rect x="381" y="481" width="62" height="10" fill="#ff0"/>
</svg>
