<svg viewBox="0 0 659 530" xmlns="http://www.w3.org/2000/svg">

<style>
  .sm { font: 12px sans-serif; }
  .lg { font: 15px sans-serif; }
</style>
<rect fill="#ddd" x="0" y="0" width="100%" height="100%"/>
<text x="20" y="20" class="lg">ch.17584 X:530451-531109 Gene:WBGene00015142</text>
<text x="20" y="50" class="sm">WormBase</text>
<rect x="102" y="40" width="117" height="12" fill="#00f"/>
<rect x="268" y="40" width="293" height="12" fill="#00f"/>
<line x1="219" y1="46" x2="267" y2="46" stroke="#00f"/>
<rect x="151" y="41" width="68" height="10" fill="#ff0"/>
<rect x="269" y="41" width="218" height="10" fill="#ff0"/>
<rect x="103" y="41" width="47" height="10" fill="brown"><title>.</title></rect>
<rect x="488" y="41" width="73" height="10" fill="brown"><title>.</title></rect>
<text x="20" y="70" class="sm">Fitness: 0.0005407217110655204</text>
<rect x="219" y="65" width="49" height="5" fill="#00f"><title>106710.0</title></rect>
<rect x="219" y="70" width="51" height="5" fill="#00f"><title>30.0</title></rect>
<rect x="608" y="75" width="46" height="5" fill="#00f"><title>10.0</title></rect>
<rect x="142" y="80" width="170" height="5" fill="#f0f"><title>7.0</title></rect>
<rect x="407" y="85" width="51" height="5" fill="#00f"><title>4.0</title></rect>
<rect x="419" y="90" width="57" height="5" fill="#f0f"><title>3.0</title></rect>
<text x="20" y="120" class="sm">0.9995</text>
<rect x="100" y="110" width="119" height="12" fill="#00f"/>
<rect x="268" y="110" width="294" height="12" fill="#00f"/>
<line x1="219" y1="116" x2="267" y2="116" stroke="#00f"/>
<rect x="151" y="111" width="68" height="10" fill="#ff0"/>
<rect x="269" y="111" width="218" height="10" fill="#ff0"/>
<text x="20" y="140" class="sm">0.0001948</text>
<rect x="100" y="130" width="119" height="12" fill="#00f"/>
<rect x="270" y="130" width="292" height="12" fill="#00f"/>
<line x1="219" y1="136" x2="269" y2="136" stroke="#00f"/>
<rect x="151" y="131" width="68" height="10" fill="#ff0"/>
<rect x="271" y="131" width="59" height="10" fill="#ff0"/>
<text x="20" y="160" class="sm">5.241e-05</text>
<rect x="100" y="150" width="83" height="12" fill="#00f"/>
<rect x="268" y="150" width="294" height="12" fill="#00f"/>
<line x1="183" y1="156" x2="267" y2="156" stroke="#00f"/>
<rect x="151" y="151" width="32" height="10" fill="#ff0"/>
<rect x="269" y="151" width="218" height="10" fill="#ff0"/>
<text x="20" y="180" class="sm">4.3e-05</text>
<rect x="100" y="170" width="184" height="12" fill="#00f"/>
<rect x="332" y="170" width="230" height="12" fill="#00f"/>
<line x1="284" y1="176" x2="331" y2="176" stroke="#00f"/>
<rect x="374" y="171" width="113" height="10" fill="#ff0"/>
<text x="20" y="200" class="sm">3.608e-05</text>
<rect x="100" y="190" width="59" height="12" fill="#00f"/>
<rect x="205" y="190" width="357" height="12" fill="#00f"/>
<line x1="159" y1="196" x2="204" y2="196" stroke="#00f"/>
<rect x="374" y="191" width="113" height="10" fill="#ff0"/>
<text x="20" y="220" class="sm">3.386e-05</text>
<rect x="100" y="210" width="148" height="12" fill="#00f"/>
<rect x="296" y="210" width="266" height="12" fill="#00f"/>
<line x1="248" y1="216" x2="295" y2="216" stroke="#00f"/>
<rect x="151" y="211" width="97" height="10" fill="#ff0"/>
<rect x="297" y="211" width="33" height="10" fill="#ff0"/>
<text x="20" y="240" class="sm">2.736e-05</text>
<rect x="100" y="230" width="59" height="12" fill="#00f"/>
<rect x="268" y="230" width="294" height="12" fill="#00f"/>
<line x1="159" y1="236" x2="267" y2="236" stroke="#00f"/>
<rect x="151" y="231" width="8" height="10" fill="#ff0"/>
<rect x="269" y="231" width="218" height="10" fill="#ff0"/>
<text x="20" y="260" class="sm">2.237e-05</text>
<rect x="100" y="250" width="62" height="12" fill="#00f"/>
<rect x="268" y="250" width="294" height="12" fill="#00f"/>
<line x1="162" y1="256" x2="267" y2="256" stroke="#00f"/>
<rect x="151" y="251" width="11" height="10" fill="#ff0"/>
<rect x="269" y="251" width="218" height="10" fill="#ff0"/>
<text x="20" y="280" class="sm">1.296e-05</text>
<rect x="100" y="270" width="62" height="12" fill="#00f"/>
<rect x="205" y="270" width="357" height="12" fill="#00f"/>
<line x1="162" y1="276" x2="204" y2="276" stroke="#00f"/>
<rect x="374" y="271" width="113" height="10" fill="#ff0"/>
<text x="20" y="300" class="sm">1.175e-05</text>
<rect x="100" y="290" width="62" height="12" fill="#00f"/>
<rect x="214" y="290" width="348" height="12" fill="#00f"/>
<line x1="162" y1="296" x2="213" y2="296" stroke="#00f"/>
<rect x="374" y="291" width="113" height="10" fill="#ff0"/>
<text x="20" y="320" class="sm">7.661e-06</text>
<rect x="100" y="310" width="83" height="12" fill="#00f"/>
<rect x="296" y="310" width="266" height="12" fill="#00f"/>
<line x1="183" y1="316" x2="295" y2="316" stroke="#00f"/>
<rect x="374" y="311" width="113" height="10" fill="#ff0"/>
<text x="20" y="340" class="sm">6.858e-06</text>
<rect x="100" y="330" width="119" height="12" fill="#00f"/>
<rect x="296" y="330" width="266" height="12" fill="#00f"/>
<line x1="219" y1="336" x2="295" y2="336" stroke="#00f"/>
<rect x="374" y="331" width="113" height="10" fill="#ff0"/>
<text x="20" y="360" class="sm">5.096e-06</text>
<rect x="100" y="350" width="141" height="12" fill="#00f"/>
<rect x="296" y="350" width="266" height="12" fill="#00f"/>
<line x1="241" y1="356" x2="295" y2="356" stroke="#00f"/>
<rect x="151" y="351" width="90" height="10" fill="#ff0"/>
<rect x="297" y="351" width="190" height="10" fill="#ff0"/>
<text x="20" y="380" class="sm">3.394e-06</text>
<rect x="100" y="370" width="156" height="12" fill="#00f"/>
<rect x="296" y="370" width="266" height="12" fill="#00f"/>
<line x1="256" y1="376" x2="295" y2="376" stroke="#00f"/>
<rect x="374" y="371" width="113" height="10" fill="#ff0"/>
<text x="20" y="400" class="sm">1.718e-06</text>
<rect x="100" y="390" width="304" height="12" fill="#00f"/>
<rect x="446" y="390" width="116" height="12" fill="#00f"/>
<line x1="404" y1="396" x2="445" y2="396" stroke="#00f"/>
<rect x="151" y="391" width="101" height="10" fill="#ff0"/>
<text x="20" y="420" class="sm">1.693e-06</text>
<rect x="100" y="410" width="59" height="12" fill="#00f"/>
<rect x="296" y="410" width="266" height="12" fill="#00f"/>
<line x1="159" y1="416" x2="295" y2="416" stroke="#00f"/>
<rect x="374" y="411" width="113" height="10" fill="#ff0"/>
<text x="20" y="440" class="sm">1.637e-06</text>
<rect x="100" y="430" width="59" height="12" fill="#00f"/>
<rect x="214" y="430" width="348" height="12" fill="#00f"/>
<line x1="159" y1="436" x2="213" y2="436" stroke="#00f"/>
<rect x="374" y="431" width="113" height="10" fill="#ff0"/>
<text x="20" y="460" class="sm">1.507e-06</text>
<rect x="100" y="450" width="62" height="12" fill="#00f"/>
<rect x="296" y="450" width="266" height="12" fill="#00f"/>
<line x1="162" y1="456" x2="295" y2="456" stroke="#00f"/>
<rect x="374" y="451" width="113" height="10" fill="#ff0"/>
<text x="20" y="480" class="sm">1.475e-07</text>
<rect x="100" y="470" width="36" height="12" fill="#00f"/>
<rect x="268" y="470" width="294" height="12" fill="#00f"/>
<line x1="136" y1="476" x2="267" y2="476" stroke="#00f"/>
<rect x="374" y="471" width="113" height="10" fill="#ff0"/>
<text x="20" y="500" class="sm">1.084e-07</text>
<rect x="100" y="490" width="119" height="12" fill="#00f"/>
<rect x="332" y="490" width="230" height="12" fill="#00f"/>
<line x1="219" y1="496" x2="331" y2="496" stroke="#00f"/>
<rect x="374" y="491" width="113" height="10" fill="#ff0"/>
</svg>
