<svg viewBox="0 0 879 585" xmlns="http://www.w3.org/2000/svg">

<style>
  .sm { font: 12px sans-serif; }
  .lg { font: 15px sans-serif; }
</style>
<rect fill="#ddd" x="0" y="0" width="100%" height="100%"/>
<text x="20" y="20" class="lg">ch.10645 IV:8225574-8226452 Gene:WBGene00020374</text>
<text x="20" y="50" class="sm">WormBase</text>
<rect x="100" y="40" width="87" height="12" fill="#00f"/>
<rect x="537" y="40" width="73" height="12" fill="#00f"/>
<rect x="662" y="40" width="117" height="12" fill="#00f"/>
<line x1="187" y1="46" x2="536" y2="46" stroke="#00f"/>
<line x1="610" y1="46" x2="661" y2="46" stroke="#00f"/>
<rect x="104" y="41" width="83" height="10" fill="#ff0"/>
<rect x="538" y="41" width="72" height="10" fill="#ff0"/>
<rect x="663" y="41" width="34" height="10" fill="#ff0"/>
<rect x="101" y="41" width="2" height="10" fill="brown"><title>.</title></rect>
<rect x="698" y="41" width="81" height="10" fill="brown"><title>.</title></rect>
<text x="20" y="70" class="sm">Fitness: 0.10866634609952752</text>
<rect x="610" y="65" width="52" height="5" fill="#00f"><title>1193980.0</title></rect>
<rect x="187" y="70" width="350" height="5" fill="#00f"><title>960765.0</title></rect>
<rect x="55" y="75" width="47" height="5" fill="#00f"><title>424.0</title></rect>
<rect x="386" y="80" width="151" height="5" fill="#00f"><title>272.0</title></rect>
<rect x="269" y="85" width="268" height="5" fill="#00f"><title>151.0</title></rect>
<rect x="27" y="90" width="75" height="5" fill="#00f"><title>145.0</title></rect>
<rect x="614" y="95" width="48" height="5" fill="#00f"><title>130.0</title></rect>
<rect x="604" y="100" width="58" height="5" fill="#00f"><title>103.0</title></rect>
<rect x="191" y="105" width="346" height="5" fill="#00f"><title>19.0</title></rect>
<rect x="601" y="110" width="61" height="5" fill="#00f"><title>16.0</title></rect>
<rect x="187" y="115" width="368" height="5" fill="#00f"><title>13.0</title></rect>
<rect x="597" y="120" width="65" height="5" fill="#00f"><title>11.0</title></rect>
<rect x="610" y="125" width="64" height="5" fill="#00f"><title>11.0</title></rect>
<rect x="594" y="130" width="68" height="5" fill="#00f"><title>9.0</title></rect>
<rect x="187" y="135" width="475" height="5" fill="#00f"><title>6.0</title></rect>
<rect x="187" y="140" width="314" height="5" fill="#00f"><title>4.0</title></rect>
<rect x="610" y="145" width="88" height="5" fill="#00f"><title>3.0</title></rect>
<text x="20" y="175" class="sm">0.9948</text>
<rect x="100" y="165" width="87" height="12" fill="#00f"/>
<rect x="537" y="165" width="73" height="12" fill="#00f"/>
<rect x="662" y="165" width="120" height="12" fill="#00f"/>
<line x1="187" y1="171" x2="536" y2="171" stroke="#00f"/>
<line x1="610" y1="171" x2="661" y2="171" stroke="#00f"/>
<rect x="104" y="166" width="83" height="10" fill="#ff0"/>
<rect x="538" y="166" width="72" height="10" fill="#ff0"/>
<rect x="663" y="166" width="34" height="10" fill="#ff0"/>
<text x="20" y="195" class="sm">0.004796</text>
<rect x="100" y="185" width="91" height="12" fill="#00f"/>
<rect x="537" y="185" width="73" height="12" fill="#00f"/>
<rect x="662" y="185" width="120" height="12" fill="#00f"/>
<line x1="191" y1="191" x2="536" y2="191" stroke="#00f"/>
<line x1="610" y1="191" x2="661" y2="191" stroke="#00f"/>
<rect x="104" y="186" width="87" height="10" fill="#ff0"/>
<rect x="538" y="186" width="72" height="10" fill="#ff0"/>
<rect x="663" y="186" width="93" height="10" fill="#ff0"/>
<text x="20" y="215" class="sm">0.0002639</text>
<rect x="100" y="205" width="87" height="12" fill="#00f"/>
<rect x="332" y="205" width="54" height="12" fill="#00f"/>
<rect x="537" y="205" width="73" height="12" fill="#00f"/>
<rect x="662" y="205" width="120" height="12" fill="#00f"/>
<line x1="187" y1="211" x2="331" y2="211" stroke="#00f"/>
<line x1="386" y1="211" x2="536" y2="211" stroke="#00f"/>
<line x1="610" y1="211" x2="661" y2="211" stroke="#00f"/>
<rect x="171" y="206" width="16" height="10" fill="#ff0"/>
<rect x="333" y="206" width="53" height="10" fill="#ff0"/>
<rect x="538" y="206" width="72" height="10" fill="#ff0"/>
<rect x="663" y="206" width="38" height="10" fill="#ff0"/>
<text x="20" y="235" class="sm">6.508e-05</text>
<rect x="100" y="225" width="87" height="12" fill="#00f"/>
<rect x="332" y="225" width="32" height="12" fill="#00f"/>
<rect x="537" y="225" width="73" height="12" fill="#00f"/>
<rect x="662" y="225" width="120" height="12" fill="#00f"/>
<line x1="187" y1="231" x2="331" y2="231" stroke="#00f"/>
<line x1="364" y1="231" x2="536" y2="231" stroke="#00f"/>
<line x1="610" y1="231" x2="661" y2="231" stroke="#00f"/>
<rect x="104" y="226" width="83" height="10" fill="#ff0"/>
<rect x="333" y="226" width="31" height="10" fill="#ff0"/>
<rect x="538" y="226" width="72" height="10" fill="#ff0"/>
<rect x="663" y="226" width="38" height="10" fill="#ff0"/>
<text x="20" y="255" class="sm">3.033e-05</text>
<rect x="100" y="245" width="87" height="12" fill="#00f"/>
<rect x="555" y="245" width="55" height="12" fill="#00f"/>
<rect x="662" y="245" width="120" height="12" fill="#00f"/>
<line x1="187" y1="251" x2="554" y2="251" stroke="#00f"/>
<line x1="610" y1="251" x2="661" y2="251" stroke="#00f"/>
<rect x="104" y="246" width="83" height="10" fill="#ff0"/>
<rect x="556" y="246" width="54" height="10" fill="#ff0"/>
<rect x="663" y="246" width="34" height="10" fill="#ff0"/>
<text x="20" y="275" class="sm">1.627e-05</text>
<rect x="100" y="265" width="64" height="12" fill="#00f"/>
<rect x="537" y="265" width="73" height="12" fill="#00f"/>
<rect x="662" y="265" width="120" height="12" fill="#00f"/>
<line x1="164" y1="271" x2="536" y2="271" stroke="#00f"/>
<line x1="610" y1="271" x2="661" y2="271" stroke="#00f"/>
<rect x="104" y="266" width="60" height="10" fill="#ff0"/>
<rect x="538" y="266" width="72" height="10" fill="#ff0"/>
<rect x="663" y="266" width="93" height="10" fill="#ff0"/>
<text x="20" y="295" class="sm">7.16e-06</text>
<rect x="100" y="285" width="87" height="12" fill="#00f"/>
<rect x="537" y="285" width="60" height="12" fill="#00f"/>
<rect x="662" y="285" width="120" height="12" fill="#00f"/>
<line x1="187" y1="291" x2="536" y2="291" stroke="#00f"/>
<line x1="597" y1="291" x2="661" y2="291" stroke="#00f"/>
<rect x="104" y="286" width="83" height="10" fill="#ff0"/>
<rect x="538" y="286" width="59" height="10" fill="#ff0"/>
<rect x="663" y="286" width="38" height="10" fill="#ff0"/>
<text x="20" y="315" class="sm">5.288e-06</text>
<rect x="100" y="305" width="87" height="12" fill="#00f"/>
<rect x="537" y="305" width="73" height="12" fill="#00f"/>
<rect x="698" y="305" width="84" height="12" fill="#00f"/>
<line x1="187" y1="311" x2="536" y2="311" stroke="#00f"/>
<line x1="610" y1="311" x2="697" y2="311" stroke="#00f"/>
<rect x="104" y="306" width="83" height="10" fill="#ff0"/>
<rect x="538" y="306" width="72" height="10" fill="#ff0"/>
<rect x="699" y="306" width="52" height="10" fill="#ff0"/>
<text x="20" y="335" class="sm">3.996e-06</text>
<rect x="100" y="325" width="87" height="12" fill="#00f"/>
<rect x="537" y="325" width="77" height="12" fill="#00f"/>
<rect x="662" y="325" width="120" height="12" fill="#00f"/>
<line x1="187" y1="331" x2="536" y2="331" stroke="#00f"/>
<line x1="614" y1="331" x2="661" y2="331" stroke="#00f"/>
<rect x="104" y="326" width="83" height="10" fill="#ff0"/>
<rect x="538" y="326" width="76" height="10" fill="#ff0"/>
<rect x="663" y="326" width="93" height="10" fill="#ff0"/>
<text x="20" y="355" class="sm">3.719e-06</text>
<rect x="100" y="345" width="87" height="12" fill="#00f"/>
<rect x="537" y="345" width="73" height="12" fill="#00f"/>
<rect x="674" y="345" width="108" height="12" fill="#00f"/>
<line x1="187" y1="351" x2="536" y2="351" stroke="#00f"/>
<line x1="610" y1="351" x2="673" y2="351" stroke="#00f"/>
<rect x="104" y="346" width="83" height="10" fill="#ff0"/>
<rect x="538" y="346" width="72" height="10" fill="#ff0"/>
<rect x="675" y="346" width="22" height="10" fill="#ff0"/>
<text x="20" y="375" class="sm">1.544e-06</text>
<rect x="100" y="365" width="91" height="12" fill="#00f"/>
<rect x="332" y="365" width="54" height="12" fill="#00f"/>
<rect x="537" y="365" width="73" height="12" fill="#00f"/>
<rect x="662" y="365" width="120" height="12" fill="#00f"/>
<line x1="191" y1="371" x2="331" y2="371" stroke="#00f"/>
<line x1="386" y1="371" x2="536" y2="371" stroke="#00f"/>
<line x1="610" y1="371" x2="661" y2="371" stroke="#00f"/>
<rect x="570" y="366" width="40" height="10" fill="#ff0"/>
<rect x="663" y="366" width="93" height="10" fill="#ff0"/>
<text x="20" y="395" class="sm">1.014e-06</text>
<rect x="100" y="385" width="87" height="12" fill="#00f"/>
<rect x="537" y="385" width="73" height="12" fill="#00f"/>
<rect x="713" y="385" width="69" height="12" fill="#00f"/>
<line x1="187" y1="391" x2="536" y2="391" stroke="#00f"/>
<line x1="610" y1="391" x2="712" y2="391" stroke="#00f"/>
<rect x="104" y="386" width="83" height="10" fill="#ff0"/>
<rect x="538" y="386" width="72" height="10" fill="#ff0"/>
<rect x="714" y="386" width="37" height="10" fill="#ff0"/>
<text x="20" y="415" class="sm">8.114e-07</text>
<rect x="100" y="405" width="87" height="12" fill="#00f"/>
<rect x="304" y="405" width="82" height="12" fill="#00f"/>
<rect x="537" y="405" width="73" height="12" fill="#00f"/>
<rect x="662" y="405" width="120" height="12" fill="#00f"/>
<line x1="187" y1="411" x2="303" y2="411" stroke="#00f"/>
<line x1="386" y1="411" x2="536" y2="411" stroke="#00f"/>
<line x1="610" y1="411" x2="661" y2="411" stroke="#00f"/>
<rect x="570" y="406" width="40" height="10" fill="#ff0"/>
<rect x="663" y="406" width="93" height="10" fill="#ff0"/>
<text x="20" y="435" class="sm">7.148e-07</text>
<rect x="100" y="425" width="87" height="12" fill="#00f"/>
<rect x="537" y="425" width="64" height="12" fill="#00f"/>
<rect x="662" y="425" width="120" height="12" fill="#00f"/>
<line x1="187" y1="431" x2="536" y2="431" stroke="#00f"/>
<line x1="601" y1="431" x2="661" y2="431" stroke="#00f"/>
<rect x="104" y="426" width="83" height="10" fill="#ff0"/>
<rect x="538" y="426" width="63" height="10" fill="#ff0"/>
<rect x="663" y="426" width="34" height="10" fill="#ff0"/>
<text x="20" y="455" class="sm">5.562e-07</text>
<rect x="100" y="445" width="87" height="12" fill="#00f"/>
<rect x="304" y="445" width="60" height="12" fill="#00f"/>
<rect x="537" y="445" width="73" height="12" fill="#00f"/>
<rect x="662" y="445" width="120" height="12" fill="#00f"/>
<line x1="187" y1="451" x2="303" y2="451" stroke="#00f"/>
<line x1="364" y1="451" x2="536" y2="451" stroke="#00f"/>
<line x1="610" y1="451" x2="661" y2="451" stroke="#00f"/>
<rect x="171" y="446" width="16" height="10" fill="#ff0"/>
<rect x="305" y="446" width="59" height="10" fill="#ff0"/>
<rect x="538" y="446" width="72" height="10" fill="#ff0"/>
<rect x="663" y="446" width="38" height="10" fill="#ff0"/>
<text x="20" y="475" class="sm">5.556e-07</text>
<rect x="100" y="465" width="72" height="12" fill="#00f"/>
<rect x="537" y="465" width="73" height="12" fill="#00f"/>
<rect x="662" y="465" width="120" height="12" fill="#00f"/>
<line x1="172" y1="471" x2="536" y2="471" stroke="#00f"/>
<line x1="610" y1="471" x2="661" y2="471" stroke="#00f"/>
<rect x="104" y="466" width="68" height="10" fill="#ff0"/>
<rect x="538" y="466" width="72" height="10" fill="#ff0"/>
<rect x="663" y="466" width="34" height="10" fill="#ff0"/>
<text x="20" y="495" class="sm">5.194e-07</text>
<rect x="100" y="485" width="87" height="12" fill="#00f"/>
<rect x="537" y="485" width="73" height="12" fill="#00f"/>
<rect x="662" y="485" width="35" height="12" fill="#00f"/>
<rect x="742" y="485" width="40" height="12" fill="#00f"/>
<line x1="187" y1="491" x2="536" y2="491" stroke="#00f"/>
<line x1="610" y1="491" x2="661" y2="491" stroke="#00f"/>
<line x1="697" y1="491" x2="741" y2="491" stroke="#00f"/>
<rect x="104" y="486" width="83" height="10" fill="#ff0"/>
<rect x="538" y="486" width="72" height="10" fill="#ff0"/>
<rect x="663" y="486" width="34" height="10" fill="#ff0"/>
<text x="20" y="515" class="sm">4.401e-07</text>
<rect x="100" y="505" width="87" height="12" fill="#00f"/>
<rect x="295" y="505" width="26" height="12" fill="#00f"/>
<rect x="537" y="505" width="73" height="12" fill="#00f"/>
<rect x="662" y="505" width="120" height="12" fill="#00f"/>
<line x1="187" y1="511" x2="294" y2="511" stroke="#00f"/>
<line x1="321" y1="511" x2="536" y2="511" stroke="#00f"/>
<line x1="610" y1="511" x2="661" y2="511" stroke="#00f"/>
<rect x="171" y="506" width="16" height="10" fill="#ff0"/>
<rect x="296" y="506" width="25" height="10" fill="#ff0"/>
<rect x="538" y="506" width="72" height="10" fill="#ff0"/>
<rect x="663" y="506" width="93" height="10" fill="#ff0"/>
<text x="20" y="535" class="sm">3.808e-07</text>
<rect x="100" y="525" width="91" height="12" fill="#00f"/>
<rect x="332" y="525" width="32" height="12" fill="#00f"/>
<rect x="537" y="525" width="73" height="12" fill="#00f"/>
<rect x="662" y="525" width="120" height="12" fill="#00f"/>
<line x1="191" y1="531" x2="331" y2="531" stroke="#00f"/>
<line x1="364" y1="531" x2="536" y2="531" stroke="#00f"/>
<line x1="610" y1="531" x2="661" y2="531" stroke="#00f"/>
<rect x="171" y="526" width="20" height="10" fill="#ff0"/>
<rect x="333" y="526" width="31" height="10" fill="#ff0"/>
<rect x="538" y="526" width="72" height="10" fill="#ff0"/>
<rect x="663" y="526" width="38" height="10" fill="#ff0"/>
<text x="20" y="555" class="sm">2.238e-07</text>
<rect x="100" y="545" width="54" height="12" fill="#00f"/>
<rect x="537" y="545" width="73" height="12" fill="#00f"/>
<rect x="662" y="545" width="120" height="12" fill="#00f"/>
<line x1="154" y1="551" x2="536" y2="551" stroke="#00f"/>
<line x1="610" y1="551" x2="661" y2="551" stroke="#00f"/>
<rect x="104" y="546" width="50" height="10" fill="#ff0"/>
<rect x="538" y="546" width="72" height="10" fill="#ff0"/>
<rect x="663" y="546" width="34" height="10" fill="#ff0"/>
</svg>
