<svg viewBox="0 0 689 510" xmlns="http://www.w3.org/2000/svg">

<style>
  .sm { font: 12px sans-serif; }
  .lg { font: 15px sans-serif; }
</style>
<rect fill="#ddd" x="0" y="0" width="100%" height="100%"/>
<text x="20" y="20" class="lg">ch.17744 X:1502690-1503378 Gene:WBGene00017294</text>
<text x="20" y="50" class="sm">WormBase</text>
<rect x="100" y="40" width="172" height="12" fill="#00f"/>
<rect x="333" y="40" width="256" height="12" fill="#00f"/>
<line x1="272" y1="46" x2="332" y2="46" stroke="#00f"/>
<rect x="197" y="41" width="75" height="10" fill="#ff0"/>
<rect x="334" y="41" width="196" height="10" fill="#ff0"/>
<rect x="101" y="41" width="95" height="10" fill="brown"><title>.</title></rect>
<rect x="531" y="41" width="58" height="10" fill="brown"><title>.</title></rect>
<text x="20" y="70" class="sm">Fitness: 2.921599283440906e-05</text>
<rect x="272" y="65" width="61" height="5" fill="#00f"><title>133192.0</title></rect>
<rect x="269" y="70" width="64" height="5" fill="#00f"><title>83.0</title></rect>
<text x="20" y="100" class="sm">0.9994</text>
<rect x="100" y="90" width="172" height="12" fill="#00f"/>
<rect x="333" y="90" width="259" height="12" fill="#00f"/>
<line x1="272" y1="96" x2="332" y2="96" stroke="#00f"/>
<rect x="197" y="91" width="75" height="10" fill="#ff0"/>
<rect x="334" y="91" width="196" height="10" fill="#ff0"/>
<text x="20" y="120" class="sm">0.0006166</text>
<rect x="100" y="110" width="169" height="12" fill="#00f"/>
<rect x="333" y="110" width="259" height="12" fill="#00f"/>
<line x1="269" y1="116" x2="332" y2="116" stroke="#00f"/>
<rect x="197" y="111" width="72" height="10" fill="#ff0"/>
<rect x="334" y="111" width="196" height="10" fill="#ff0"/>
<text x="20" y="140" class="sm">1.287e-05</text>
<rect x="100" y="130" width="176" height="12" fill="#00f"/>
<rect x="333" y="130" width="259" height="12" fill="#00f"/>
<line x1="276" y1="136" x2="332" y2="136" stroke="#00f"/>
<rect x="252" y="131" width="24" height="10" fill="#ff0"/>
<rect x="334" y="131" width="196" height="10" fill="#ff0"/>
<text x="20" y="160" class="sm">7.75e-07</text>
<rect x="100" y="150" width="179" height="12" fill="#00f"/>
<rect x="333" y="150" width="259" height="12" fill="#00f"/>
<line x1="279" y1="156" x2="332" y2="156" stroke="#00f"/>
<rect x="252" y="151" width="27" height="10" fill="#ff0"/>
<rect x="334" y="151" width="196" height="10" fill="#ff0"/>
<text x="20" y="180" class="sm">7.646e-07</text>
<rect x="100" y="170" width="192" height="12" fill="#00f"/>
<rect x="333" y="170" width="259" height="12" fill="#00f"/>
<line x1="292" y1="176" x2="332" y2="176" stroke="#00f"/>
<rect x="197" y="171" width="95" height="10" fill="#ff0"/>
<rect x="334" y="171" width="50" height="10" fill="#ff0"/>
<text x="20" y="200" class="sm">1.442e-07</text>
<rect x="100" y="190" width="114" height="12" fill="#00f"/>
<rect x="333" y="190" width="259" height="12" fill="#00f"/>
<line x1="214" y1="196" x2="332" y2="196" stroke="#00f"/>
<rect x="197" y="191" width="17" height="10" fill="#ff0"/>
<rect x="334" y="191" width="50" height="10" fill="#ff0"/>
<text x="20" y="220" class="sm">3.494e-08</text>
<rect x="100" y="210" width="172" height="12" fill="#00f"/>
<rect x="357" y="210" width="235" height="12" fill="#00f"/>
<line x1="272" y1="216" x2="356" y2="216" stroke="#00f"/>
<rect x="197" y="211" width="75" height="10" fill="#ff0"/>
<rect x="358" y="211" width="172" height="10" fill="#ff0"/>
<text x="20" y="240" class="sm">1.207e-08</text>
<rect x="100" y="230" width="172" height="12" fill="#00f"/>
<rect x="369" y="230" width="223" height="12" fill="#00f"/>
<line x1="272" y1="236" x2="368" y2="236" stroke="#00f"/>
<rect x="197" y="231" width="75" height="10" fill="#ff0"/>
<rect x="370" y="231" width="160" height="10" fill="#ff0"/>
<text x="20" y="260" class="sm">3.764e-09</text>
<rect x="100" y="250" width="172" height="12" fill="#00f"/>
<rect x="386" y="250" width="206" height="12" fill="#00f"/>
<line x1="272" y1="256" x2="385" y2="256" stroke="#00f"/>
<rect x="197" y="251" width="75" height="10" fill="#ff0"/>
<rect x="387" y="251" width="88" height="10" fill="#ff0"/>
<text x="20" y="280" class="sm">3.139e-09</text>
<rect x="100" y="270" width="195" height="12" fill="#00f"/>
<rect x="333" y="270" width="259" height="12" fill="#00f"/>
<line x1="295" y1="276" x2="332" y2="276" stroke="#00f"/>
<rect x="197" y="271" width="98" height="10" fill="#ff0"/>
<rect x="334" y="271" width="50" height="10" fill="#ff0"/>
<text x="20" y="300" class="sm">3.78e-10</text>
<rect x="100" y="290" width="85" height="12" fill="#00f"/>
<rect x="333" y="290" width="259" height="12" fill="#00f"/>
<line x1="185" y1="296" x2="332" y2="296" stroke="#00f"/>
<rect x="445" y="291" width="47" height="10" fill="#ff0"/>
<text x="20" y="320" class="sm">3.328e-10</text>
<rect x="100" y="310" width="33" height="12" fill="#00f"/>
<rect x="333" y="310" width="259" height="12" fill="#00f"/>
<line x1="133" y1="316" x2="332" y2="316" stroke="#00f"/>
<rect x="445" y="311" width="47" height="10" fill="#ff0"/>
<text x="20" y="340" class="sm">1.886e-11</text>
<rect x="100" y="330" width="169" height="12" fill="#00f"/>
<rect x="357" y="330" width="235" height="12" fill="#00f"/>
<line x1="269" y1="336" x2="356" y2="336" stroke="#00f"/>
<rect x="197" y="331" width="72" height="10" fill="#ff0"/>
<rect x="358" y="331" width="172" height="10" fill="#ff0"/>
<text x="20" y="360" class="sm">6.407e-12</text>
<rect x="100" y="350" width="169" height="12" fill="#00f"/>
<rect x="369" y="350" width="223" height="12" fill="#00f"/>
<line x1="269" y1="356" x2="368" y2="356" stroke="#00f"/>
<rect x="197" y="351" width="72" height="10" fill="#ff0"/>
<rect x="370" y="351" width="160" height="10" fill="#ff0"/>
<text x="20" y="380" class="sm">2.059e-12</text>
<rect x="100" y="370" width="169" height="12" fill="#00f"/>
<rect x="386" y="370" width="206" height="12" fill="#00f"/>
<line x1="269" y1="376" x2="385" y2="376" stroke="#00f"/>
<rect x="197" y="371" width="72" height="10" fill="#ff0"/>
<rect x="387" y="371" width="88" height="10" fill="#ff0"/>
<text x="20" y="400" class="sm">5.237e-13</text>
<rect x="100" y="390" width="176" height="12" fill="#00f"/>
<rect x="357" y="390" width="235" height="12" fill="#00f"/>
<line x1="276" y1="396" x2="356" y2="396" stroke="#00f"/>
<rect x="197" y="391" width="79" height="10" fill="#ff0"/>
<rect x="358" y="391" width="117" height="10" fill="#ff0"/>
<text x="20" y="420" class="sm">2.92e-13</text>
<rect x="100" y="410" width="51" height="12" fill="#00f"/>
<rect x="333" y="410" width="259" height="12" fill="#00f"/>
<line x1="151" y1="416" x2="332" y2="416" stroke="#00f"/>
<rect x="445" y="411" width="47" height="10" fill="#ff0"/>
<text x="20" y="440" class="sm">2.011e-13</text>
<rect x="100" y="430" width="176" height="12" fill="#00f"/>
<rect x="369" y="430" width="223" height="12" fill="#00f"/>
<line x1="276" y1="436" x2="368" y2="436" stroke="#00f"/>
<rect x="197" y="431" width="79" height="10" fill="#ff0"/>
<rect x="370" y="431" width="105" height="10" fill="#ff0"/>
<text x="20" y="460" class="sm">6.032e-14</text>
<rect x="100" y="450" width="176" height="12" fill="#00f"/>
<rect x="386" y="450" width="206" height="12" fill="#00f"/>
<line x1="276" y1="456" x2="385" y2="456" stroke="#00f"/>
<rect x="197" y="451" width="79" height="10" fill="#ff0"/>
<rect x="387" y="451" width="105" height="10" fill="#ff0"/>
<text x="20" y="480" class="sm">3.707e-14</text>
<rect x="100" y="470" width="179" height="12" fill="#00f"/>
<rect x="357" y="470" width="235" height="12" fill="#00f"/>
<line x1="279" y1="476" x2="356" y2="476" stroke="#00f"/>
<rect x="197" y="471" width="82" height="10" fill="#ff0"/>
<rect x="358" y="471" width="117" height="10" fill="#ff0"/>
</svg>
