<svg viewBox="0 0 682 595" xmlns="http://www.w3.org/2000/svg">

<style>
  .sm { font: 12px sans-serif; }
  .lg { font: 15px sans-serif; }
</style>
<rect fill="#ddd" x="0" y="0" width="100%" height="100%"/>
<text x="20" y="20" class="lg">ch.16114 V:14991068-14991749 Gene:WBGene00011319</text>
<text x="20" y="50" class="sm">WormBase</text>
<rect x="100" y="40" width="104" height="12" fill="#00f"/>
<rect x="250" y="40" width="75" height="12" fill="#00f"/>
<rect x="368" y="40" width="214" height="12" fill="#00f"/>
<line x1="204" y1="46" x2="249" y2="46" stroke="#00f"/>
<line x1="325" y1="46" x2="367" y2="46" stroke="#00f"/>
<rect x="121" y="41" width="83" height="10" fill="#ff0"/>
<rect x="251" y="41" width="74" height="10" fill="#ff0"/>
<rect x="369" y="41" width="137" height="10" fill="#ff0"/>
<rect x="101" y="41" width="19" height="10" fill="brown"><title>.</title></rect>
<rect x="507" y="41" width="75" height="10" fill="brown"><title>.</title></rect>
<text x="20" y="70" class="sm">Fitness: 0.04201975898458473</text>
<rect x="325" y="65" width="43" height="5" fill="#00f"><title>768778.0</title></rect>
<rect x="204" y="70" width="46" height="5" fill="#00f"><title>706282.0</title></rect>
<rect x="204" y="75" width="48" height="5" fill="#00f"><title>1171.0</title></rect>
<rect x="57" y="80" width="75" height="5" fill="#f0f"><title>656.0</title></rect>
<rect x="45" y="85" width="87" height="5" fill="#f0f"><title>292.0</title></rect>
<rect x="325" y="90" width="51" height="5" fill="#00f"><title>228.0</title></rect>
<rect x="54" y="95" width="78" height="5" fill="#f0f"><title>154.0</title></rect>
<rect x="27" y="100" width="73" height="5" fill="#00f"><title>151.0</title></rect>
<rect x="204" y="105" width="164" height="5" fill="#00f"><title>75.0</title></rect>
<rect x="204" y="110" width="60" height="5" fill="#00f"><title>72.0</title></rect>
<rect x="325" y="115" width="47" height="5" fill="#00f"><title>66.0</title></rect>
<rect x="315" y="120" width="53" height="5" fill="#00f"><title>25.0</title></rect>
<rect x="204" y="125" width="63" height="5" fill="#00f"><title>18.0</title></rect>
<rect x="57" y="130" width="72" height="5" fill="#f0f"><title>12.0</title></rect>
<rect x="45" y="135" width="84" height="5" fill="#f0f"><title>6.0</title></rect>
<rect x="198" y="140" width="52" height="5" fill="#00f"><title>6.0</title></rect>
<rect x="307" y="145" width="61" height="5" fill="#00f"><title>6.0</title></rect>
<rect x="59" y="150" width="41" height="5" fill="#00f"><title>5.0</title></rect>
<rect x="54" y="155" width="75" height="5" fill="#f0f"><title>4.0</title></rect>
<text x="20" y="185" class="sm">0.9827</text>
<rect x="100" y="175" width="104" height="12" fill="#00f"/>
<rect x="250" y="175" width="75" height="12" fill="#00f"/>
<rect x="368" y="175" width="217" height="12" fill="#00f"/>
<line x1="204" y1="181" x2="249" y2="181" stroke="#00f"/>
<line x1="325" y1="181" x2="367" y2="181" stroke="#00f"/>
<rect x="121" y="176" width="83" height="10" fill="#ff0"/>
<rect x="251" y="176" width="74" height="10" fill="#ff0"/>
<rect x="369" y="176" width="137" height="10" fill="#ff0"/>
<text x="20" y="205" class="sm">0.006662</text>
<rect x="100" y="195" width="108" height="12" fill="#00f"/>
<rect x="250" y="195" width="75" height="12" fill="#00f"/>
<rect x="368" y="195" width="217" height="12" fill="#00f"/>
<line x1="208" y1="201" x2="249" y2="201" stroke="#00f"/>
<line x1="325" y1="201" x2="367" y2="201" stroke="#00f"/>
<rect x="406" y="196" width="164" height="10" fill="#ff0"/>
<text x="20" y="225" class="sm">0.005802</text>
<rect x="100" y="215" width="98" height="12" fill="#00f"/>
<rect x="250" y="215" width="75" height="12" fill="#00f"/>
<rect x="368" y="215" width="217" height="12" fill="#00f"/>
<line x1="198" y1="221" x2="249" y2="221" stroke="#00f"/>
<line x1="325" y1="221" x2="367" y2="221" stroke="#00f"/>
<rect x="121" y="216" width="77" height="10" fill="#ff0"/>
<rect x="251" y="216" width="74" height="10" fill="#ff0"/>
<rect x="369" y="216" width="137" height="10" fill="#ff0"/>
<text x="20" y="245" class="sm">0.004256</text>
<rect x="100" y="235" width="104" height="12" fill="#00f"/>
<rect x="252" y="235" width="73" height="12" fill="#00f"/>
<rect x="368" y="235" width="217" height="12" fill="#00f"/>
<line x1="204" y1="241" x2="251" y2="241" stroke="#00f"/>
<line x1="325" y1="241" x2="367" y2="241" stroke="#00f"/>
<rect x="406" y="236" width="164" height="10" fill="#ff0"/>
<text x="20" y="265" class="sm">0.0001508</text>
<rect x="100" y="255" width="116" height="12" fill="#00f"/>
<rect x="264" y="255" width="61" height="12" fill="#00f"/>
<rect x="368" y="255" width="217" height="12" fill="#00f"/>
<line x1="216" y1="261" x2="263" y2="261" stroke="#00f"/>
<line x1="325" y1="261" x2="367" y2="261" stroke="#00f"/>
<rect x="406" y="256" width="164" height="10" fill="#ff0"/>
<text x="20" y="285" class="sm">0.0001088</text>
<rect x="100" y="275" width="104" height="12" fill="#00f"/>
<rect x="264" y="275" width="61" height="12" fill="#00f"/>
<rect x="368" y="275" width="217" height="12" fill="#00f"/>
<line x1="204" y1="281" x2="263" y2="281" stroke="#00f"/>
<line x1="325" y1="281" x2="367" y2="281" stroke="#00f"/>
<rect x="406" y="276" width="164" height="10" fill="#ff0"/>
<text x="20" y="305" class="sm">8.468e-05</text>
<rect x="100" y="295" width="104" height="12" fill="#00f"/>
<rect x="250" y="295" width="65" height="12" fill="#00f"/>
<rect x="368" y="295" width="217" height="12" fill="#00f"/>
<line x1="204" y1="301" x2="249" y2="301" stroke="#00f"/>
<line x1="315" y1="301" x2="367" y2="301" stroke="#00f"/>
<rect x="283" y="296" width="32" height="10" fill="#ff0"/>
<rect x="369" y="296" width="137" height="10" fill="#ff0"/>
<text x="20" y="325" class="sm">7.91e-05</text>
<rect x="100" y="315" width="104" height="12" fill="#00f"/>
<rect x="250" y="315" width="79" height="12" fill="#00f"/>
<rect x="368" y="315" width="217" height="12" fill="#00f"/>
<line x1="204" y1="321" x2="249" y2="321" stroke="#00f"/>
<line x1="329" y1="321" x2="367" y2="321" stroke="#00f"/>
<rect x="121" y="316" width="83" height="10" fill="#ff0"/>
<rect x="251" y="316" width="78" height="10" fill="#ff0"/>
<rect x="369" y="316" width="13" height="10" fill="#ff0"/>
<text x="20" y="345" class="sm">6.505e-05</text>
<rect x="100" y="335" width="108" height="12" fill="#00f"/>
<rect x="252" y="335" width="73" height="12" fill="#00f"/>
<rect x="368" y="335" width="217" height="12" fill="#00f"/>
<line x1="208" y1="341" x2="251" y2="341" stroke="#00f"/>
<line x1="325" y1="341" x2="367" y2="341" stroke="#00f"/>
<rect x="406" y="336" width="164" height="10" fill="#ff0"/>
<text x="20" y="365" class="sm">2.459e-05</text>
<rect x="100" y="355" width="42" height="12" fill="#00f"/>
<rect x="178" y="355" width="26" height="12" fill="#00f"/>
<rect x="250" y="355" width="75" height="12" fill="#00f"/>
<rect x="368" y="355" width="217" height="12" fill="#00f"/>
<line x1="142" y1="361" x2="177" y2="361" stroke="#00f"/>
<line x1="204" y1="361" x2="249" y2="361" stroke="#00f"/>
<line x1="325" y1="361" x2="367" y2="361" stroke="#00f"/>
<rect x="121" y="356" width="21" height="10" fill="#ff0"/>
<rect x="179" y="356" width="25" height="10" fill="#ff0"/>
<rect x="251" y="356" width="74" height="10" fill="#ff0"/>
<rect x="369" y="356" width="137" height="10" fill="#ff0"/>
<text x="20" y="385" class="sm">2.095e-05</text>
<rect x="100" y="375" width="108" height="12" fill="#00f"/>
<rect x="264" y="375" width="61" height="12" fill="#00f"/>
<rect x="368" y="375" width="217" height="12" fill="#00f"/>
<line x1="208" y1="381" x2="263" y2="381" stroke="#00f"/>
<line x1="325" y1="381" x2="367" y2="381" stroke="#00f"/>
<rect x="406" y="376" width="164" height="10" fill="#ff0"/>
<text x="20" y="405" class="sm">1.387e-05</text>
<rect x="100" y="395" width="88" height="12" fill="#00f"/>
<rect x="250" y="395" width="75" height="12" fill="#00f"/>
<rect x="368" y="395" width="217" height="12" fill="#00f"/>
<line x1="188" y1="401" x2="249" y2="401" stroke="#00f"/>
<line x1="325" y1="401" x2="367" y2="401" stroke="#00f"/>
<rect x="406" y="396" width="164" height="10" fill="#ff0"/>
<text x="20" y="425" class="sm">1.35e-05</text>
<rect x="100" y="415" width="104" height="12" fill="#00f"/>
<rect x="250" y="415" width="133" height="12" fill="#00f"/>
<rect x="430" y="415" width="155" height="12" fill="#00f"/>
<line x1="204" y1="421" x2="249" y2="421" stroke="#00f"/>
<line x1="383" y1="421" x2="429" y2="421" stroke="#00f"/>
<rect x="121" y="416" width="83" height="10" fill="#ff0"/>
<rect x="251" y="416" width="95" height="10" fill="#ff0"/>
<text x="20" y="445" class="sm">7.298e-06</text>
<rect x="100" y="435" width="98" height="12" fill="#00f"/>
<rect x="252" y="435" width="73" height="12" fill="#00f"/>
<rect x="368" y="435" width="217" height="12" fill="#00f"/>
<line x1="198" y1="441" x2="251" y2="441" stroke="#00f"/>
<line x1="325" y1="441" x2="367" y2="441" stroke="#00f"/>
<rect x="406" y="436" width="164" height="10" fill="#ff0"/>
<text x="20" y="465" class="sm">2.47e-06</text>
<rect x="100" y="455" width="104" height="12" fill="#00f"/>
<rect x="250" y="455" width="335" height="12" fill="#00f"/>
<line x1="204" y1="461" x2="249" y2="461" stroke="#00f"/>
<rect x="121" y="456" width="83" height="10" fill="#ff0"/>
<rect x="251" y="456" width="95" height="10" fill="#ff0"/>
<text x="20" y="485" class="sm">1.294e-06</text>
<rect x="100" y="475" width="104" height="12" fill="#00f"/>
<rect x="250" y="475" width="57" height="12" fill="#00f"/>
<rect x="368" y="475" width="217" height="12" fill="#00f"/>
<line x1="204" y1="481" x2="249" y2="481" stroke="#00f"/>
<line x1="307" y1="481" x2="367" y2="481" stroke="#00f"/>
<rect x="121" y="476" width="83" height="10" fill="#ff0"/>
<rect x="251" y="476" width="56" height="10" fill="#ff0"/>
<rect x="369" y="476" width="137" height="10" fill="#ff0"/>
<text x="20" y="505" class="sm">6.397e-07</text>
<rect x="100" y="495" width="81" height="12" fill="#00f"/>
<rect x="250" y="495" width="75" height="12" fill="#00f"/>
<rect x="368" y="495" width="217" height="12" fill="#00f"/>
<line x1="181" y1="501" x2="249" y2="501" stroke="#00f"/>
<line x1="325" y1="501" x2="367" y2="501" stroke="#00f"/>
<rect x="406" y="496" width="164" height="10" fill="#ff0"/>
<text x="20" y="525" class="sm">5.741e-07</text>
<rect x="100" y="515" width="108" height="12" fill="#00f"/>
<rect x="250" y="515" width="65" height="12" fill="#00f"/>
<rect x="368" y="515" width="217" height="12" fill="#00f"/>
<line x1="208" y1="521" x2="249" y2="521" stroke="#00f"/>
<line x1="315" y1="521" x2="367" y2="521" stroke="#00f"/>
<rect x="283" y="516" width="32" height="10" fill="#ff0"/>
<rect x="369" y="516" width="137" height="10" fill="#ff0"/>
<text x="20" y="545" class="sm">5.362e-07</text>
<rect x="100" y="535" width="108" height="12" fill="#00f"/>
<rect x="250" y="535" width="79" height="12" fill="#00f"/>
<rect x="368" y="535" width="217" height="12" fill="#00f"/>
<line x1="208" y1="541" x2="249" y2="541" stroke="#00f"/>
<line x1="329" y1="541" x2="367" y2="541" stroke="#00f"/>
<rect x="406" y="536" width="164" height="10" fill="#ff0"/>
<text x="20" y="565" class="sm">5.051e-07</text>
<rect x="100" y="555" width="42" height="12" fill="#00f"/>
<rect x="178" y="555" width="30" height="12" fill="#00f"/>
<rect x="250" y="555" width="75" height="12" fill="#00f"/>
<rect x="368" y="555" width="217" height="12" fill="#00f"/>
<line x1="142" y1="561" x2="177" y2="561" stroke="#00f"/>
<line x1="208" y1="561" x2="249" y2="561" stroke="#00f"/>
<line x1="325" y1="561" x2="367" y2="561" stroke="#00f"/>
<rect x="406" y="556" width="164" height="10" fill="#ff0"/>
</svg>
