<svg viewBox="0 0 912 550" xmlns="http://www.w3.org/2000/svg">

<style>
  .sm { font: 12px sans-serif; }
  .lg { font: 15px sans-serif; }
</style>
<rect fill="#ddd" x="0" y="0" width="100%" height="100%"/>
<text x="20" y="20" class="lg">ch.1685 I:8945433-8946344 Gene:WBGene00009964</text>
<text x="20" y="50" class="sm">WormBase</text>
<rect x="102" y="40" width="120" height="12" fill="#00f"/>
<rect x="509" y="40" width="305" height="12" fill="#00f"/>
<line x1="222" y1="46" x2="508" y2="46" stroke="#00f"/>
<rect x="168" y="41" width="54" height="10" fill="#ff0"/>
<rect x="510" y="41" width="172" height="10" fill="#ff0"/>
<rect x="103" y="41" width="64" height="10" fill="brown"><title>.</title></rect>
<rect x="683" y="41" width="131" height="10" fill="brown"><title>.</title></rect>
<text x="20" y="70" class="sm">Fitness: 0.0016113579416680006</text>
<rect x="222" y="65" width="287" height="5" fill="#00f"><title>521362.0</title></rect>
<rect x="590" y="70" width="64" height="5" fill="#00f"><title>604.0</title></rect>
<rect x="596" y="75" width="58" height="5" fill="#00f"><title>225.0</title></rect>
<rect x="222" y="80" width="279" height="5" fill="#00f"><title>167.0</title></rect>
<rect x="590" y="85" width="36" height="5" fill="#00f"><title>48.0</title></rect>
<rect x="556" y="90" width="46" height="5" fill="#f0f"><title>9.0</title></rect>
<rect x="588" y="95" width="33" height="5" fill="#f0f"><title>5.0</title></rect>
<rect x="222" y="100" width="432" height="5" fill="#00f"><title>3.0</title></rect>
<rect x="282" y="105" width="227" height="5" fill="#00f"><title>3.0</title></rect>
<rect x="187" y="110" width="322" height="5" fill="#00f"><title>3.0</title></rect>
<text x="20" y="140" class="sm">0.998</text>
<rect x="100" y="130" width="122" height="12" fill="#00f"/>
<rect x="509" y="130" width="306" height="12" fill="#00f"/>
<line x1="222" y1="136" x2="508" y2="136" stroke="#00f"/>
<rect x="168" y="131" width="54" height="10" fill="#ff0"/>
<rect x="510" y="131" width="172" height="10" fill="#ff0"/>
<text x="20" y="160" class="sm">0.001202</text>
<rect x="100" y="150" width="122" height="12" fill="#00f"/>
<rect x="509" y="150" width="81" height="12" fill="#00f"/>
<rect x="654" y="150" width="161" height="12" fill="#00f"/>
<line x1="222" y1="156" x2="508" y2="156" stroke="#00f"/>
<line x1="590" y1="156" x2="653" y2="156" stroke="#00f"/>
<rect x="168" y="151" width="54" height="10" fill="#ff0"/>
<rect x="510" y="151" width="80" height="10" fill="#ff0"/>
<rect x="655" y="151" width="55" height="10" fill="#ff0"/>
<text x="20" y="180" class="sm">0.0004099</text>
<rect x="100" y="170" width="87" height="12" fill="#00f"/>
<rect x="509" y="170" width="306" height="12" fill="#00f"/>
<line x1="187" y1="176" x2="508" y2="176" stroke="#00f"/>
<rect x="130" y="171" width="57" height="10" fill="#ff0"/>
<rect x="510" y="171" width="172" height="10" fill="#ff0"/>
<text x="20" y="200" class="sm">0.0001406</text>
<rect x="100" y="190" width="91" height="12" fill="#00f"/>
<rect x="509" y="190" width="306" height="12" fill="#00f"/>
<line x1="191" y1="196" x2="508" y2="196" stroke="#00f"/>
<rect x="130" y="191" width="61" height="10" fill="#ff0"/>
<rect x="510" y="191" width="123" height="10" fill="#ff0"/>
<text x="20" y="220" class="sm">9.563e-05</text>
<rect x="100" y="210" width="122" height="12" fill="#00f"/>
<rect x="509" y="210" width="108" height="12" fill="#00f"/>
<rect x="654" y="210" width="161" height="12" fill="#00f"/>
<line x1="222" y1="216" x2="508" y2="216" stroke="#00f"/>
<line x1="617" y1="216" x2="653" y2="216" stroke="#00f"/>
<rect x="168" y="211" width="54" height="10" fill="#ff0"/>
<rect x="510" y="211" width="107" height="10" fill="#ff0"/>
<rect x="655" y="211" width="55" height="10" fill="#ff0"/>
<text x="20" y="240" class="sm">3.637e-05</text>
<rect x="100" y="230" width="122" height="12" fill="#00f"/>
<rect x="509" y="230" width="87" height="12" fill="#00f"/>
<rect x="654" y="230" width="161" height="12" fill="#00f"/>
<line x1="222" y1="236" x2="508" y2="236" stroke="#00f"/>
<line x1="596" y1="236" x2="653" y2="236" stroke="#00f"/>
<rect x="168" y="231" width="54" height="10" fill="#ff0"/>
<rect x="510" y="231" width="86" height="10" fill="#ff0"/>
<rect x="655" y="231" width="55" height="10" fill="#ff0"/>
<text x="20" y="260" class="sm">1.827e-05</text>
<rect x="100" y="250" width="143" height="12" fill="#00f"/>
<rect x="509" y="250" width="306" height="12" fill="#00f"/>
<line x1="243" y1="256" x2="508" y2="256" stroke="#00f"/>
<rect x="168" y="251" width="75" height="10" fill="#ff0"/>
<rect x="510" y="251" width="172" height="10" fill="#ff0"/>
<text x="20" y="280" class="sm">1.699e-05</text>
<rect x="100" y="270" width="182" height="12" fill="#00f"/>
<rect x="509" y="270" width="306" height="12" fill="#00f"/>
<line x1="282" y1="276" x2="508" y2="276" stroke="#00f"/>
<rect x="168" y="271" width="114" height="10" fill="#ff0"/>
<rect x="510" y="271" width="172" height="10" fill="#ff0"/>
<text x="20" y="300" class="sm">1.368e-05</text>
<rect x="100" y="290" width="44" height="12" fill="#00f"/>
<rect x="509" y="290" width="306" height="12" fill="#00f"/>
<line x1="144" y1="296" x2="508" y2="296" stroke="#00f"/>
<rect x="570" y="291" width="140" height="10" fill="#ff0"/>
<text x="20" y="320" class="sm">1.332e-05</text>
<rect x="100" y="310" width="122" height="12" fill="#00f"/>
<rect x="365" y="310" width="94" height="12" fill="#00f"/>
<rect x="509" y="310" width="306" height="12" fill="#00f"/>
<line x1="222" y1="316" x2="364" y2="316" stroke="#00f"/>
<line x1="459" y1="316" x2="508" y2="316" stroke="#00f"/>
<rect x="444" y="311" width="15" height="10" fill="#ff0"/>
<rect x="510" y="311" width="172" height="10" fill="#ff0"/>
<text x="20" y="340" class="sm">1.312e-05</text>
<rect x="100" y="330" width="122" height="12" fill="#00f"/>
<rect x="466" y="330" width="349" height="12" fill="#00f"/>
<line x1="222" y1="336" x2="465" y2="336" stroke="#00f"/>
<rect x="130" y="331" width="92" height="10" fill="#ff0"/>
<rect x="467" y="331" width="215" height="10" fill="#ff0"/>
<text x="20" y="360" class="sm">9.916e-06</text>
<rect x="100" y="350" width="122" height="12" fill="#00f"/>
<rect x="654" y="350" width="161" height="12" fill="#00f"/>
<line x1="222" y1="356" x2="653" y2="356" stroke="#00f"/>
<rect x="130" y="351" width="92" height="10" fill="#ff0"/>
<rect x="655" y="351" width="44" height="10" fill="#ff0"/>
<text x="20" y="380" class="sm">7.397e-06</text>
<rect x="100" y="370" width="103" height="12" fill="#00f"/>
<rect x="509" y="370" width="306" height="12" fill="#00f"/>
<line x1="203" y1="376" x2="508" y2="376" stroke="#00f"/>
<rect x="130" y="371" width="73" height="10" fill="#ff0"/>
<rect x="510" y="371" width="123" height="10" fill="#ff0"/>
<text x="20" y="400" class="sm">7.034e-06</text>
<rect x="100" y="390" width="100" height="12" fill="#00f"/>
<rect x="509" y="390" width="306" height="12" fill="#00f"/>
<line x1="200" y1="396" x2="508" y2="396" stroke="#00f"/>
<rect x="130" y="391" width="70" height="10" fill="#ff0"/>
<rect x="510" y="391" width="123" height="10" fill="#ff0"/>
<text x="20" y="420" class="sm">6.649e-06</text>
<rect x="100" y="410" width="122" height="12" fill="#00f"/>
<rect x="509" y="410" width="75" height="12" fill="#00f"/>
<rect x="654" y="410" width="161" height="12" fill="#00f"/>
<line x1="222" y1="416" x2="508" y2="416" stroke="#00f"/>
<line x1="584" y1="416" x2="653" y2="416" stroke="#00f"/>
<rect x="168" y="411" width="54" height="10" fill="#ff0"/>
<rect x="510" y="411" width="74" height="10" fill="#ff0"/>
<rect x="655" y="411" width="55" height="10" fill="#ff0"/>
<text x="20" y="440" class="sm">2.638e-06</text>
<rect x="100" y="430" width="122" height="12" fill="#00f"/>
<rect x="509" y="430" width="81" height="12" fill="#00f"/>
<rect x="699" y="430" width="116" height="12" fill="#00f"/>
<line x1="222" y1="436" x2="508" y2="436" stroke="#00f"/>
<line x1="590" y1="436" x2="698" y2="436" stroke="#00f"/>
<rect x="168" y="431" width="54" height="10" fill="#ff0"/>
<rect x="510" y="431" width="80" height="10" fill="#ff0"/>
<rect x="700" y="431" width="10" height="10" fill="#ff0"/>
<text x="20" y="460" class="sm">6.555e-07</text>
<rect x="100" y="450" width="122" height="12" fill="#00f"/>
<rect x="509" y="450" width="81" height="12" fill="#00f"/>
<rect x="752" y="450" width="63" height="12" fill="#00f"/>
<line x1="222" y1="456" x2="508" y2="456" stroke="#00f"/>
<line x1="590" y1="456" x2="751" y2="456" stroke="#00f"/>
<rect x="168" y="451" width="54" height="10" fill="#ff0"/>
<rect x="510" y="451" width="80" height="10" fill="#ff0"/>
<rect x="753" y="451" width="28" height="10" fill="#ff0"/>
<text x="20" y="480" class="sm">5.842e-07</text>
<rect x="100" y="470" width="87" height="12" fill="#00f"/>
<rect x="244" y="470" width="76" height="12" fill="#00f"/>
<rect x="509" y="470" width="306" height="12" fill="#00f"/>
<line x1="187" y1="476" x2="243" y2="476" stroke="#00f"/>
<line x1="320" y1="476" x2="508" y2="476" stroke="#00f"/>
<rect x="130" y="471" width="57" height="10" fill="#ff0"/>
<rect x="245" y="471" width="75" height="10" fill="#ff0"/>
<rect x="510" y="471" width="123" height="10" fill="#ff0"/>
<text x="20" y="500" class="sm">5.778e-07</text>
<rect x="100" y="490" width="87" height="12" fill="#00f"/>
<rect x="244" y="490" width="38" height="12" fill="#00f"/>
<rect x="509" y="490" width="306" height="12" fill="#00f"/>
<line x1="187" y1="496" x2="243" y2="496" stroke="#00f"/>
<line x1="282" y1="496" x2="508" y2="496" stroke="#00f"/>
<rect x="168" y="491" width="19" height="10" fill="#ff0"/>
<rect x="245" y="491" width="37" height="10" fill="#ff0"/>
<rect x="510" y="491" width="172" height="10" fill="#ff0"/>
<text x="20" y="520" class="sm">4.937e-07</text>
<rect x="100" y="510" width="87" height="12" fill="#00f"/>
<rect x="509" y="510" width="81" height="12" fill="#00f"/>
<rect x="654" y="510" width="161" height="12" fill="#00f"/>
<line x1="187" y1="516" x2="508" y2="516" stroke="#00f"/>
<line x1="590" y1="516" x2="653" y2="516" stroke="#00f"/>
<rect x="130" y="511" width="57" height="10" fill="#ff0"/>
<rect x="510" y="511" width="80" height="10" fill="#ff0"/>
<rect x="655" y="511" width="55" height="10" fill="#ff0"/>
</svg>
