<svg viewBox="0 0 1010 530" xmlns="http://www.w3.org/2000/svg">

<style>
  .sm { font: 12px sans-serif; }
  .lg { font: 15px sans-serif; }
</style>
<rect fill="#ddd" x="0" y="0" width="100%" height="100%"/>
<text x="20" y="20" class="lg">ch.17331 V:19924124-19925133 Gene:WBGene00004810</text>
<text x="20" y="50" class="sm">WormBase</text>
<rect x="100" y="40" width="92" height="12" fill="#00f"/>
<rect x="249" y="40" width="246" height="12" fill="#00f"/>
<rect x="567" y="40" width="343" height="12" fill="#00f"/>
<line x1="192" y1="46" x2="248" y2="46" stroke="#00f"/>
<line x1="495" y1="46" x2="566" y2="46" stroke="#00f"/>
<rect x="130" y="41" width="62" height="10" fill="#ff0"/>
<rect x="250" y="41" width="245" height="10" fill="#ff0"/>
<rect x="568" y="41" width="170" height="10" fill="#ff0"/>
<rect x="101" y="41" width="28" height="10" fill="brown"><title>.</title></rect>
<rect x="739" y="41" width="171" height="10" fill="brown"><title>.</title></rect>
<text x="20" y="70" class="sm">Fitness: 0.7276894089594199</text>
<rect x="495" y="65" width="72" height="5" fill="#00f"><title>194618.0</title></rect>
<rect x="192" y="70" width="57" height="5" fill="#00f"><title>175545.0</title></rect>
<rect x="31" y="75" width="69" height="5" fill="#00f"><title>12.0</title></rect>
<rect x="495" y="80" width="76" height="5" fill="#00f"><title>7.0</title></rect>
<rect x="495" y="85" width="40" height="5" fill="#00f"><title>6.0</title></rect>
<rect x="426" y="90" width="141" height="5" fill="#00f"><title>4.0</title></rect>
<text x="20" y="120" class="sm">0.4802</text>
<rect x="100" y="110" width="92" height="12" fill="#00f"/>
<rect x="249" y="110" width="664" height="12" fill="#00f"/>
<line x1="192" y1="116" x2="248" y2="116" stroke="#00f"/>
<rect x="130" y="111" width="62" height="10" fill="#ff0"/>
<rect x="250" y="111" width="257" height="10" fill="#ff0"/>
<text x="20" y="140" class="sm">0.1856</text>
<rect x="100" y="130" width="395" height="12" fill="#00f"/>
<rect x="535" y="130" width="378" height="12" fill="#00f"/>
<line x1="495" y1="136" x2="534" y2="136" stroke="#00f"/>
<rect x="628" y="131" width="110" height="10" fill="#ff0"/>
<text x="20" y="160" class="sm">0.1639</text>
<rect x="100" y="150" width="395" height="12" fill="#00f"/>
<rect x="567" y="150" width="346" height="12" fill="#00f"/>
<line x1="495" y1="156" x2="566" y2="156" stroke="#00f"/>
<rect x="457" y="151" width="38" height="10" fill="#ff0"/>
<rect x="568" y="151" width="170" height="10" fill="#ff0"/>
<text x="20" y="180" class="sm">0.04961</text>
<rect x="100" y="170" width="625" height="12" fill="#00f"/>
<rect x="853" y="170" width="60" height="12" fill="#00f"/>
<line x1="725" y1="176" x2="852" y2="176" stroke="#00f"/>
<rect x="441" y="171" width="185" height="10" fill="#ff0"/>
<text x="20" y="200" class="sm">0.02188</text>
<rect x="100" y="190" width="645" height="12" fill="#00f"/>
<rect x="853" y="190" width="60" height="12" fill="#00f"/>
<line x1="745" y1="196" x2="852" y2="196" stroke="#00f"/>
<rect x="441" y="191" width="185" height="10" fill="#ff0"/>
<text x="20" y="220" class="sm">0.02029</text>
<rect x="100" y="210" width="70" height="12" fill="#00f"/>
<rect x="249" y="210" width="664" height="12" fill="#00f"/>
<line x1="170" y1="216" x2="248" y2="216" stroke="#00f"/>
<rect x="441" y="211" width="185" height="10" fill="#ff0"/>
<text x="20" y="240" class="sm">0.01606</text>
<rect x="100" y="230" width="118" height="12" fill="#00f"/>
<rect x="269" y="230" width="644" height="12" fill="#00f"/>
<line x1="218" y1="236" x2="268" y2="236" stroke="#00f"/>
<rect x="441" y="231" width="185" height="10" fill="#ff0"/>
<text x="20" y="260" class="sm">0.01583</text>
<rect x="100" y="250" width="336" height="12" fill="#00f"/>
<rect x="567" y="250" width="346" height="12" fill="#00f"/>
<line x1="436" y1="256" x2="566" y2="256" stroke="#00f"/>
<rect x="628" y="251" width="110" height="10" fill="#ff0"/>
<text x="20" y="280" class="sm">0.01109</text>
<rect x="100" y="270" width="92" height="12" fill="#00f"/>
<rect x="269" y="270" width="644" height="12" fill="#00f"/>
<line x1="192" y1="276" x2="268" y2="276" stroke="#00f"/>
<rect x="176" y="271" width="16" height="10" fill="#ff0"/>
<rect x="270" y="271" width="237" height="10" fill="#ff0"/>
<text x="20" y="300" class="sm">0.00676</text>
<rect x="100" y="290" width="259" height="12" fill="#00f"/>
<rect x="567" y="290" width="346" height="12" fill="#00f"/>
<line x1="359" y1="296" x2="566" y2="296" stroke="#00f"/>
<rect x="628" y="291" width="110" height="10" fill="#ff0"/>
<text x="20" y="320" class="sm">0.005697</text>
<rect x="100" y="310" width="92" height="12" fill="#00f"/>
<rect x="567" y="310" width="346" height="12" fill="#00f"/>
<line x1="192" y1="316" x2="566" y2="316" stroke="#00f"/>
<rect x="130" y="311" width="62" height="10" fill="#ff0"/>
<rect x="568" y="311" width="170" height="10" fill="#ff0"/>
<text x="20" y="340" class="sm">0.005626</text>
<rect x="100" y="330" width="336" height="12" fill="#00f"/>
<rect x="535" y="330" width="378" height="12" fill="#00f"/>
<line x1="436" y1="336" x2="534" y2="336" stroke="#00f"/>
<rect x="628" y="331" width="110" height="10" fill="#ff0"/>
<text x="20" y="360" class="sm">0.004516</text>
<rect x="100" y="350" width="92" height="12" fill="#00f"/>
<rect x="279" y="350" width="634" height="12" fill="#00f"/>
<line x1="192" y1="356" x2="278" y2="356" stroke="#00f"/>
<rect x="130" y="351" width="62" height="10" fill="#ff0"/>
<rect x="280" y="351" width="227" height="10" fill="#ff0"/>
<text x="20" y="380" class="sm">0.002569</text>
<rect x="100" y="370" width="118" height="12" fill="#00f"/>
<rect x="279" y="370" width="634" height="12" fill="#00f"/>
<line x1="218" y1="376" x2="278" y2="376" stroke="#00f"/>
<rect x="441" y="371" width="185" height="10" fill="#ff0"/>
<text x="20" y="400" class="sm">0.002529</text>
<rect x="100" y="390" width="379" height="12" fill="#00f"/>
<rect x="535" y="390" width="378" height="12" fill="#00f"/>
<line x1="479" y1="396" x2="534" y2="396" stroke="#00f"/>
<rect x="457" y="391" width="22" height="10" fill="#ff0"/>
<rect x="536" y="391" width="90" height="10" fill="#ff0"/>
<text x="20" y="420" class="sm">0.00194</text>
<rect x="100" y="410" width="259" height="12" fill="#00f"/>
<rect x="535" y="410" width="378" height="12" fill="#00f"/>
<line x1="359" y1="416" x2="534" y2="416" stroke="#00f"/>
<rect x="628" y="411" width="110" height="10" fill="#ff0"/>
<text x="20" y="440" class="sm">0.001693</text>
<rect x="100" y="430" width="92" height="12" fill="#00f"/>
<rect x="535" y="430" width="378" height="12" fill="#00f"/>
<line x1="192" y1="436" x2="534" y2="436" stroke="#00f"/>
<rect x="628" y="431" width="110" height="10" fill="#ff0"/>
<text x="20" y="460" class="sm">0.001473</text>
<rect x="100" y="450" width="137" height="12" fill="#00f"/>
<rect x="279" y="450" width="634" height="12" fill="#00f"/>
<line x1="237" y1="456" x2="278" y2="456" stroke="#00f"/>
<rect x="441" y="451" width="185" height="10" fill="#ff0"/>
<text x="20" y="480" class="sm">0.001402</text>
<rect x="100" y="470" width="379" height="12" fill="#00f"/>
<rect x="567" y="470" width="346" height="12" fill="#00f"/>
<line x1="479" y1="476" x2="566" y2="476" stroke="#00f"/>
<rect x="441" y="471" width="38" height="10" fill="#ff0"/>
<rect x="568" y="471" width="170" height="10" fill="#ff0"/>
<text x="20" y="500" class="sm">0.001331</text>
<rect x="100" y="490" width="395" height="12" fill="#00f"/>
<rect x="853" y="490" width="60" height="12" fill="#00f"/>
<line x1="495" y1="496" x2="852" y2="496" stroke="#00f"/>
<rect x="441" y="491" width="54" height="10" fill="#ff0"/>
<rect x="854" y="491" width="37" height="10" fill="#ff0"/>
</svg>
