<svg viewBox="0 0 975 510" xmlns="http://www.w3.org/2000/svg">

<style>
  .sm { font: 12px sans-serif; }
  .lg { font: 15px sans-serif; }
</style>
<rect fill="#ddd" x="0" y="0" width="100%" height="100%"/>
<text x="20" y="20" class="lg">ch.11191 IV:10408603-10409577 Gene:WBGene00011224</text>
<text x="20" y="50" class="sm">WormBase</text>
<rect x="102" y="40" width="334" height="12" fill="#00f"/>
<rect x="664" y="40" width="213" height="12" fill="#00f"/>
<line x1="436" y1="46" x2="663" y2="46" stroke="#00f"/>
<rect x="103" y="41" width="333" height="10" fill="#ff0"/>
<rect x="665" y="41" width="73" height="10" fill="#ff0"/>
<rect x="739" y="41" width="138" height="10" fill="brown"><title>.</title></rect>
<text x="20" y="70" class="sm">Fitness: 1.697197433244533</text>
<rect x="436" y="65" width="228" height="5" fill="#00f"><title>137223.0</title></rect>
<rect x="358" y="70" width="306" height="5" fill="#00f"><title>772.0</title></rect>
<text x="20" y="100" class="sm">0.4941</text>
<rect x="100" y="90" width="309" height="12" fill="#00f"/>
<rect x="664" y="90" width="214" height="12" fill="#00f"/>
<line x1="409" y1="96" x2="663" y2="96" stroke="#00f"/>
<rect x="103" y="91" width="306" height="10" fill="#ff0"/>
<rect x="665" y="91" width="73" height="10" fill="#ff0"/>
<text x="20" y="120" class="sm">0.1466</text>
<rect x="100" y="110" width="336" height="12" fill="#00f"/>
<rect x="664" y="110" width="214" height="12" fill="#00f"/>
<line x1="436" y1="116" x2="663" y2="116" stroke="#00f"/>
<rect x="103" y="111" width="333" height="10" fill="#ff0"/>
<rect x="665" y="111" width="73" height="10" fill="#ff0"/>
<text x="20" y="140" class="sm">0.08831</text>
<rect x="100" y="130" width="386" height="12" fill="#00f"/>
<rect x="664" y="130" width="214" height="12" fill="#00f"/>
<line x1="486" y1="136" x2="663" y2="136" stroke="#00f"/>
<rect x="103" y="131" width="350" height="10" fill="#ff0"/>
<text x="20" y="160" class="sm">0.06921</text>
<rect x="100" y="150" width="261" height="12" fill="#00f"/>
<rect x="664" y="150" width="214" height="12" fill="#00f"/>
<line x1="361" y1="156" x2="663" y2="156" stroke="#00f"/>
<rect x="103" y="151" width="258" height="10" fill="#ff0"/>
<rect x="665" y="151" width="73" height="10" fill="#ff0"/>
<text x="20" y="180" class="sm">0.05722</text>
<rect x="100" y="170" width="258" height="12" fill="#00f"/>
<rect x="664" y="170" width="214" height="12" fill="#00f"/>
<line x1="358" y1="176" x2="663" y2="176" stroke="#00f"/>
<rect x="103" y="171" width="255" height="10" fill="#ff0"/>
<rect x="665" y="171" width="73" height="10" fill="#ff0"/>
<text x="20" y="200" class="sm">0.03871</text>
<rect x="100" y="190" width="290" height="12" fill="#00f"/>
<rect x="664" y="190" width="214" height="12" fill="#00f"/>
<line x1="390" y1="196" x2="663" y2="196" stroke="#00f"/>
<rect x="103" y="191" width="287" height="10" fill="#ff0"/>
<rect x="665" y="191" width="8" height="10" fill="#ff0"/>
<text x="20" y="220" class="sm">0.03833</text>
<rect x="100" y="210" width="713" height="12" fill="#00f"/>
<rect x="848" y="210" width="30" height="12" fill="#00f"/>
<line x1="813" y1="216" x2="847" y2="216" stroke="#00f"/>
<rect x="103" y="211" width="350" height="10" fill="#ff0"/>
<text x="20" y="240" class="sm">0.03692</text>
<rect x="100" y="230" width="503" height="12" fill="#00f"/>
<rect x="664" y="230" width="214" height="12" fill="#00f"/>
<line x1="603" y1="236" x2="663" y2="236" stroke="#00f"/>
<rect x="103" y="231" width="350" height="10" fill="#ff0"/>
<text x="20" y="260" class="sm">0.008373</text>
<rect x="100" y="250" width="309" height="12" fill="#00f"/>
<rect x="502" y="250" width="376" height="12" fill="#00f"/>
<line x1="409" y1="256" x2="501" y2="256" stroke="#00f"/>
<rect x="103" y="251" width="306" height="10" fill="#ff0"/>
<rect x="503" y="251" width="49" height="10" fill="#ff0"/>
<text x="20" y="280" class="sm">0.006127</text>
<rect x="100" y="270" width="309" height="12" fill="#00f"/>
<rect x="848" y="270" width="30" height="12" fill="#00f"/>
<line x1="409" y1="276" x2="847" y2="276" stroke="#00f"/>
<rect x="174" y="271" width="104" height="10" fill="#ff0"/>
<text x="20" y="300" class="sm">0.00438</text>
<rect x="100" y="290" width="363" height="12" fill="#00f"/>
<rect x="664" y="290" width="214" height="12" fill="#00f"/>
<line x1="463" y1="296" x2="663" y2="296" stroke="#00f"/>
<rect x="103" y="291" width="350" height="10" fill="#ff0"/>
<text x="20" y="320" class="sm">0.002586</text>
<rect x="100" y="310" width="336" height="12" fill="#00f"/>
<rect x="502" y="310" width="376" height="12" fill="#00f"/>
<line x1="436" y1="316" x2="501" y2="316" stroke="#00f"/>
<rect x="103" y="311" width="333" height="10" fill="#ff0"/>
<rect x="503" y="311" width="49" height="10" fill="#ff0"/>
<text x="20" y="340" class="sm">0.001804</text>
<rect x="100" y="330" width="336" height="12" fill="#00f"/>
<rect x="848" y="330" width="30" height="12" fill="#00f"/>
<line x1="436" y1="336" x2="847" y2="336" stroke="#00f"/>
<rect x="174" y="331" width="104" height="10" fill="#ff0"/>
<text x="20" y="360" class="sm">0.001412</text>
<rect x="100" y="350" width="379" height="12" fill="#00f"/>
<rect x="664" y="350" width="214" height="12" fill="#00f"/>
<line x1="479" y1="356" x2="663" y2="356" stroke="#00f"/>
<rect x="103" y="351" width="350" height="10" fill="#ff0"/>
<text x="20" y="380" class="sm">0.001157</text>
<rect x="100" y="370" width="261" height="12" fill="#00f"/>
<rect x="502" y="370" width="376" height="12" fill="#00f"/>
<line x1="361" y1="376" x2="501" y2="376" stroke="#00f"/>
<rect x="103" y="371" width="258" height="10" fill="#ff0"/>
<rect x="503" y="371" width="49" height="10" fill="#ff0"/>
<text x="20" y="400" class="sm">0.001094</text>
<rect x="100" y="390" width="386" height="12" fill="#00f"/>
<rect x="848" y="390" width="30" height="12" fill="#00f"/>
<line x1="486" y1="396" x2="847" y2="396" stroke="#00f"/>
<rect x="103" y="391" width="350" height="10" fill="#ff0"/>
<text x="20" y="420" class="sm">0.001088</text>
<rect x="100" y="410" width="643" height="12" fill="#00f"/>
<rect x="848" y="410" width="30" height="12" fill="#00f"/>
<line x1="743" y1="416" x2="847" y2="416" stroke="#00f"/>
<rect x="103" y="411" width="350" height="10" fill="#ff0"/>
<text x="20" y="440" class="sm">0.0009558</text>
<rect x="100" y="430" width="258" height="12" fill="#00f"/>
<rect x="502" y="430" width="376" height="12" fill="#00f"/>
<line x1="358" y1="436" x2="501" y2="436" stroke="#00f"/>
<rect x="103" y="431" width="255" height="10" fill="#ff0"/>
<rect x="503" y="431" width="49" height="10" fill="#ff0"/>
<text x="20" y="460" class="sm">0.0008486</text>
<rect x="100" y="450" width="261" height="12" fill="#00f"/>
<rect x="848" y="450" width="30" height="12" fill="#00f"/>
<line x1="361" y1="456" x2="847" y2="456" stroke="#00f"/>
<rect x="174" y="451" width="104" height="10" fill="#ff0"/>
<text x="20" y="480" class="sm">0.0006983</text>
<rect x="100" y="470" width="258" height="12" fill="#00f"/>
<rect x="848" y="470" width="30" height="12" fill="#00f"/>
<line x1="358" y1="476" x2="847" y2="476" stroke="#00f"/>
<rect x="174" y="471" width="104" height="10" fill="#ff0"/>
</svg>
