<svg viewBox="0 0 966 550" xmlns="http://www.w3.org/2000/svg">

<style>
  .sm { font: 12px sans-serif; }
  .lg { font: 15px sans-serif; }
</style>
<rect fill="#ddd" x="0" y="0" width="100%" height="100%"/>
<text x="20" y="20" class="lg">ch.18855 X:8413330-8414295 Gene:WBGene00017258</text>
<text x="20" y="50" class="sm">WormBase</text>
<rect x="100" y="40" width="156" height="12" fill="#00f"/>
<rect x="306" y="40" width="64" height="12" fill="#00f"/>
<rect x="417" y="40" width="141" height="12" fill="#00f"/>
<rect x="607" y="40" width="259" height="12" fill="#00f"/>
<line x1="256" y1="46" x2="305" y2="46" stroke="#00f"/>
<line x1="370" y1="46" x2="416" y2="46" stroke="#00f"/>
<line x1="558" y1="46" x2="606" y2="46" stroke="#00f"/>
<rect x="181" y="41" width="75" height="10" fill="#ff0"/>
<rect x="307" y="41" width="63" height="10" fill="#ff0"/>
<rect x="418" y="41" width="140" height="10" fill="#ff0"/>
<rect x="608" y="41" width="69" height="10" fill="#ff0"/>
<rect x="101" y="41" width="79" height="10" fill="brown"><title>.</title></rect>
<rect x="678" y="41" width="188" height="10" fill="brown"><title>.</title></rect>
<text x="20" y="70" class="sm">Fitness: 0.16945664908740654</text>
<rect x="558" y="65" width="49" height="5" fill="#00f"><title>131100.0</title></rect>
<rect x="370" y="70" width="47" height="5" fill="#00f"><title>97841.0</title></rect>
<rect x="256" y="75" width="50" height="5" fill="#00f"><title>87407.0</title></rect>
<rect x="89" y="80" width="217" height="5" fill="#00f"><title>1654.0</title></rect>
<rect x="370" y="85" width="58" height="5" fill="#00f"><title>246.0</title></rect>
<rect x="370" y="90" width="64" height="5" fill="#00f"><title>21.0</title></rect>
<rect x="256" y="95" width="36" height="5" fill="#00f"><title>15.0</title></rect>
<rect x="89" y="100" width="52" height="5" fill="#00f"><title>5.0</title></rect>
<rect x="558" y="105" width="302" height="5" fill="#00f"><title>4.0</title></rect>
<rect x="89" y="110" width="129" height="5" fill="#00f"><title>3.0</title></rect>
<text x="20" y="140" class="sm">0.9998</text>
<rect x="100" y="130" width="156" height="12" fill="#00f"/>
<rect x="306" y="130" width="64" height="12" fill="#00f"/>
<rect x="417" y="130" width="141" height="12" fill="#00f"/>
<rect x="607" y="130" width="262" height="12" fill="#00f"/>
<line x1="256" y1="136" x2="305" y2="136" stroke="#00f"/>
<line x1="370" y1="136" x2="416" y2="136" stroke="#00f"/>
<line x1="558" y1="136" x2="606" y2="136" stroke="#00f"/>
<rect x="181" y="131" width="75" height="10" fill="#ff0"/>
<rect x="307" y="131" width="63" height="10" fill="#ff0"/>
<rect x="418" y="131" width="140" height="10" fill="#ff0"/>
<rect x="608" y="131" width="69" height="10" fill="#ff0"/>
<text x="20" y="160" class="sm">6.738e-05</text>
<rect x="100" y="150" width="156" height="12" fill="#00f"/>
<rect x="306" y="150" width="64" height="12" fill="#00f"/>
<rect x="417" y="150" width="145" height="12" fill="#00f"/>
<rect x="607" y="150" width="262" height="12" fill="#00f"/>
<line x1="256" y1="156" x2="305" y2="156" stroke="#00f"/>
<line x1="370" y1="156" x2="416" y2="156" stroke="#00f"/>
<line x1="562" y1="156" x2="606" y2="156" stroke="#00f"/>
<rect x="181" y="151" width="75" height="10" fill="#ff0"/>
<rect x="307" y="151" width="63" height="10" fill="#ff0"/>
<rect x="418" y="151" width="144" height="10" fill="#ff0"/>
<rect x="608" y="151" width="146" height="10" fill="#ff0"/>
<text x="20" y="180" class="sm">6.661e-05</text>
<rect x="100" y="170" width="156" height="12" fill="#00f"/>
<rect x="306" y="170" width="64" height="12" fill="#00f"/>
<rect x="417" y="170" width="131" height="12" fill="#00f"/>
<rect x="607" y="170" width="262" height="12" fill="#00f"/>
<line x1="256" y1="176" x2="305" y2="176" stroke="#00f"/>
<line x1="370" y1="176" x2="416" y2="176" stroke="#00f"/>
<line x1="548" y1="176" x2="606" y2="176" stroke="#00f"/>
<rect x="181" y="171" width="75" height="10" fill="#ff0"/>
<rect x="307" y="171" width="63" height="10" fill="#ff0"/>
<rect x="418" y="171" width="130" height="10" fill="#ff0"/>
<rect x="608" y="171" width="13" height="10" fill="#ff0"/>
<text x="20" y="200" class="sm">3.605e-05</text>
<rect x="100" y="190" width="156" height="12" fill="#00f"/>
<rect x="306" y="190" width="64" height="12" fill="#00f"/>
<rect x="417" y="190" width="97" height="12" fill="#00f"/>
<rect x="607" y="190" width="262" height="12" fill="#00f"/>
<line x1="256" y1="196" x2="305" y2="196" stroke="#00f"/>
<line x1="370" y1="196" x2="416" y2="196" stroke="#00f"/>
<line x1="514" y1="196" x2="606" y2="196" stroke="#00f"/>
<rect x="181" y="191" width="75" height="10" fill="#ff0"/>
<rect x="307" y="191" width="63" height="10" fill="#ff0"/>
<rect x="418" y="191" width="96" height="10" fill="#ff0"/>
<rect x="608" y="191" width="146" height="10" fill="#ff0"/>
<text x="20" y="220" class="sm">2.229e-05</text>
<rect x="100" y="210" width="156" height="12" fill="#00f"/>
<rect x="306" y="210" width="69" height="12" fill="#00f"/>
<rect x="417" y="210" width="141" height="12" fill="#00f"/>
<rect x="607" y="210" width="262" height="12" fill="#00f"/>
<line x1="256" y1="216" x2="305" y2="216" stroke="#00f"/>
<line x1="375" y1="216" x2="416" y2="216" stroke="#00f"/>
<line x1="558" y1="216" x2="606" y2="216" stroke="#00f"/>
<rect x="181" y="211" width="75" height="10" fill="#ff0"/>
<rect x="307" y="211" width="68" height="10" fill="#ff0"/>
<rect x="418" y="211" width="73" height="10" fill="#ff0"/>
<text x="20" y="240" class="sm">7.974e-06</text>
<rect x="100" y="230" width="156" height="12" fill="#00f"/>
<rect x="306" y="230" width="64" height="12" fill="#00f"/>
<rect x="417" y="230" width="333" height="12" fill="#00f"/>
<rect x="794" y="230" width="75" height="12" fill="#00f"/>
<line x1="256" y1="236" x2="305" y2="236" stroke="#00f"/>
<line x1="370" y1="236" x2="416" y2="236" stroke="#00f"/>
<line x1="750" y1="236" x2="793" y2="236" stroke="#00f"/>
<rect x="181" y="231" width="75" height="10" fill="#ff0"/>
<rect x="307" y="231" width="63" height="10" fill="#ff0"/>
<rect x="418" y="231" width="332" height="10" fill="#ff0"/>
<rect x="795" y="231" width="24" height="10" fill="#ff0"/>
<text x="20" y="260" class="sm">5.926e-06</text>
<rect x="100" y="250" width="156" height="12" fill="#00f"/>
<rect x="306" y="250" width="27" height="12" fill="#00f"/>
<rect x="417" y="250" width="141" height="12" fill="#00f"/>
<rect x="607" y="250" width="262" height="12" fill="#00f"/>
<line x1="256" y1="256" x2="305" y2="256" stroke="#00f"/>
<line x1="333" y1="256" x2="416" y2="256" stroke="#00f"/>
<line x1="558" y1="256" x2="606" y2="256" stroke="#00f"/>
<rect x="311" y="251" width="22" height="10" fill="#ff0"/>
<rect x="418" y="251" width="140" height="10" fill="#ff0"/>
<rect x="608" y="251" width="69" height="10" fill="#ff0"/>
<text x="20" y="280" class="sm">2.825e-06</text>
<rect x="100" y="270" width="42" height="12" fill="#00f"/>
<rect x="306" y="270" width="64" height="12" fill="#00f"/>
<rect x="417" y="270" width="141" height="12" fill="#00f"/>
<rect x="607" y="270" width="262" height="12" fill="#00f"/>
<line x1="142" y1="276" x2="305" y2="276" stroke="#00f"/>
<line x1="370" y1="276" x2="416" y2="276" stroke="#00f"/>
<line x1="558" y1="276" x2="606" y2="276" stroke="#00f"/>
<rect x="315" y="271" width="55" height="10" fill="#ff0"/>
<rect x="418" y="271" width="140" height="10" fill="#ff0"/>
<rect x="608" y="271" width="69" height="10" fill="#ff0"/>
<text x="20" y="300" class="sm">1.824e-06</text>
<rect x="100" y="290" width="156" height="12" fill="#00f"/>
<rect x="306" y="290" width="64" height="12" fill="#00f"/>
<rect x="417" y="290" width="208" height="12" fill="#00f"/>
<rect x="765" y="290" width="104" height="12" fill="#00f"/>
<line x1="256" y1="296" x2="305" y2="296" stroke="#00f"/>
<line x1="370" y1="296" x2="416" y2="296" stroke="#00f"/>
<line x1="625" y1="296" x2="764" y2="296" stroke="#00f"/>
<rect x="181" y="291" width="75" height="10" fill="#ff0"/>
<rect x="307" y="291" width="63" height="10" fill="#ff0"/>
<rect x="418" y="291" width="207" height="10" fill="#ff0"/>
<rect x="766" y="291" width="53" height="10" fill="#ff0"/>
<text x="20" y="320" class="sm">5.174e-07</text>
<rect x="100" y="310" width="156" height="12" fill="#00f"/>
<rect x="306" y="310" width="64" height="12" fill="#00f"/>
<rect x="428" y="310" width="130" height="12" fill="#00f"/>
<rect x="607" y="310" width="262" height="12" fill="#00f"/>
<line x1="256" y1="316" x2="305" y2="316" stroke="#00f"/>
<line x1="370" y1="316" x2="427" y2="316" stroke="#00f"/>
<line x1="558" y1="316" x2="606" y2="316" stroke="#00f"/>
<rect x="181" y="311" width="75" height="10" fill="#ff0"/>
<rect x="307" y="311" width="63" height="10" fill="#ff0"/>
<rect x="429" y="311" width="21" height="10" fill="#ff0"/>
<text x="20" y="340" class="sm">5.018e-07</text>
<rect x="100" y="330" width="156" height="12" fill="#00f"/>
<rect x="306" y="330" width="64" height="12" fill="#00f"/>
<rect x="417" y="330" width="97" height="12" fill="#00f"/>
<rect x="765" y="330" width="104" height="12" fill="#00f"/>
<line x1="256" y1="336" x2="305" y2="336" stroke="#00f"/>
<line x1="370" y1="336" x2="416" y2="336" stroke="#00f"/>
<line x1="514" y1="336" x2="764" y2="336" stroke="#00f"/>
<rect x="181" y="331" width="75" height="10" fill="#ff0"/>
<rect x="307" y="331" width="63" height="10" fill="#ff0"/>
<rect x="418" y="331" width="96" height="10" fill="#ff0"/>
<rect x="766" y="331" width="53" height="10" fill="#ff0"/>
<text x="20" y="360" class="sm">4.677e-07</text>
<rect x="100" y="350" width="156" height="12" fill="#00f"/>
<rect x="306" y="350" width="64" height="12" fill="#00f"/>
<rect x="417" y="350" width="208" height="12" fill="#00f"/>
<rect x="726" y="350" width="143" height="12" fill="#00f"/>
<line x1="256" y1="356" x2="305" y2="356" stroke="#00f"/>
<line x1="370" y1="356" x2="416" y2="356" stroke="#00f"/>
<line x1="625" y1="356" x2="725" y2="356" stroke="#00f"/>
<rect x="181" y="351" width="75" height="10" fill="#ff0"/>
<rect x="307" y="351" width="63" height="10" fill="#ff0"/>
<rect x="418" y="351" width="207" height="10" fill="#ff0"/>
<rect x="727" y="351" width="2" height="10" fill="#ff0"/>
<text x="20" y="380" class="sm">3.176e-07</text>
<rect x="100" y="370" width="156" height="12" fill="#00f"/>
<rect x="306" y="370" width="64" height="12" fill="#00f"/>
<rect x="417" y="370" width="97" height="12" fill="#00f"/>
<rect x="554" y="370" width="315" height="12" fill="#00f"/>
<line x1="256" y1="376" x2="305" y2="376" stroke="#00f"/>
<line x1="370" y1="376" x2="416" y2="376" stroke="#00f"/>
<line x1="514" y1="376" x2="553" y2="376" stroke="#00f"/>
<rect x="181" y="371" width="75" height="10" fill="#ff0"/>
<rect x="307" y="371" width="63" height="10" fill="#ff0"/>
<rect x="418" y="371" width="96" height="10" fill="#ff0"/>
<rect x="555" y="371" width="122" height="10" fill="#ff0"/>
<text x="20" y="400" class="sm">2.638e-07</text>
<rect x="100" y="390" width="156" height="12" fill="#00f"/>
<rect x="306" y="390" width="64" height="12" fill="#00f"/>
<rect x="417" y="390" width="308" height="12" fill="#00f"/>
<rect x="765" y="390" width="104" height="12" fill="#00f"/>
<line x1="256" y1="396" x2="305" y2="396" stroke="#00f"/>
<line x1="370" y1="396" x2="416" y2="396" stroke="#00f"/>
<line x1="725" y1="396" x2="764" y2="396" stroke="#00f"/>
<rect x="181" y="391" width="75" height="10" fill="#ff0"/>
<rect x="307" y="391" width="63" height="10" fill="#ff0"/>
<rect x="418" y="391" width="307" height="10" fill="#ff0"/>
<rect x="766" y="391" width="34" height="10" fill="#ff0"/>
<text x="20" y="420" class="sm">2.536e-07</text>
<rect x="100" y="410" width="156" height="12" fill="#00f"/>
<rect x="306" y="410" width="64" height="12" fill="#00f"/>
<rect x="417" y="410" width="243" height="12" fill="#00f"/>
<rect x="726" y="410" width="143" height="12" fill="#00f"/>
<line x1="256" y1="416" x2="305" y2="416" stroke="#00f"/>
<line x1="370" y1="416" x2="416" y2="416" stroke="#00f"/>
<line x1="660" y1="416" x2="725" y2="416" stroke="#00f"/>
<rect x="181" y="411" width="75" height="10" fill="#ff0"/>
<rect x="307" y="411" width="63" height="10" fill="#ff0"/>
<rect x="418" y="411" width="242" height="10" fill="#ff0"/>
<rect x="727" y="411" width="27" height="10" fill="#ff0"/>
<text x="20" y="440" class="sm">2.524e-07</text>
<rect x="100" y="430" width="156" height="12" fill="#00f"/>
<rect x="306" y="430" width="64" height="12" fill="#00f"/>
<rect x="417" y="430" width="39" height="12" fill="#00f"/>
<rect x="607" y="430" width="262" height="12" fill="#00f"/>
<line x1="256" y1="436" x2="305" y2="436" stroke="#00f"/>
<line x1="370" y1="436" x2="416" y2="436" stroke="#00f"/>
<line x1="456" y1="436" x2="606" y2="436" stroke="#00f"/>
<rect x="181" y="431" width="75" height="10" fill="#ff0"/>
<rect x="307" y="431" width="63" height="10" fill="#ff0"/>
<rect x="418" y="431" width="38" height="10" fill="#ff0"/>
<rect x="608" y="431" width="69" height="10" fill="#ff0"/>
<text x="20" y="460" class="sm">1.75e-07</text>
<rect x="100" y="450" width="156" height="12" fill="#00f"/>
<rect x="306" y="450" width="64" height="12" fill="#00f"/>
<rect x="417" y="450" width="153" height="12" fill="#00f"/>
<rect x="607" y="450" width="262" height="12" fill="#00f"/>
<line x1="256" y1="456" x2="305" y2="456" stroke="#00f"/>
<line x1="370" y1="456" x2="416" y2="456" stroke="#00f"/>
<line x1="570" y1="456" x2="606" y2="456" stroke="#00f"/>
<rect x="181" y="451" width="75" height="10" fill="#ff0"/>
<rect x="307" y="451" width="63" height="10" fill="#ff0"/>
<rect x="418" y="451" width="152" height="10" fill="#ff0"/>
<rect x="608" y="451" width="69" height="10" fill="#ff0"/>
<text x="20" y="480" class="sm">1.481e-07</text>
<rect x="100" y="470" width="156" height="12" fill="#00f"/>
<rect x="306" y="470" width="64" height="12" fill="#00f"/>
<rect x="417" y="470" width="59" height="12" fill="#00f"/>
<rect x="607" y="470" width="262" height="12" fill="#00f"/>
<line x1="256" y1="476" x2="305" y2="476" stroke="#00f"/>
<line x1="370" y1="476" x2="416" y2="476" stroke="#00f"/>
<line x1="476" y1="476" x2="606" y2="476" stroke="#00f"/>
<rect x="181" y="471" width="75" height="10" fill="#ff0"/>
<rect x="307" y="471" width="63" height="10" fill="#ff0"/>
<rect x="418" y="471" width="58" height="10" fill="#ff0"/>
<rect x="608" y="471" width="13" height="10" fill="#ff0"/>
<text x="20" y="500" class="sm">1.055e-07</text>
<rect x="100" y="490" width="156" height="12" fill="#00f"/>
<rect x="306" y="490" width="64" height="12" fill="#00f"/>
<rect x="417" y="490" width="243" height="12" fill="#00f"/>
<rect x="765" y="490" width="104" height="12" fill="#00f"/>
<line x1="256" y1="496" x2="305" y2="496" stroke="#00f"/>
<line x1="370" y1="496" x2="416" y2="496" stroke="#00f"/>
<line x1="660" y1="496" x2="764" y2="496" stroke="#00f"/>
<rect x="181" y="491" width="75" height="10" fill="#ff0"/>
<rect x="307" y="491" width="63" height="10" fill="#ff0"/>
<rect x="418" y="491" width="242" height="10" fill="#ff0"/>
<rect x="766" y="491" width="75" height="10" fill="#ff0"/>
<text x="20" y="520" class="sm">8.899e-08</text>
<rect x="100" y="510" width="156" height="12" fill="#00f"/>
<rect x="306" y="510" width="64" height="12" fill="#00f"/>
<rect x="417" y="510" width="97" height="12" fill="#00f"/>
<rect x="794" y="510" width="75" height="12" fill="#00f"/>
<line x1="256" y1="516" x2="305" y2="516" stroke="#00f"/>
<line x1="370" y1="516" x2="416" y2="516" stroke="#00f"/>
<line x1="514" y1="516" x2="793" y2="516" stroke="#00f"/>
<rect x="181" y="511" width="75" height="10" fill="#ff0"/>
<rect x="307" y="511" width="63" height="10" fill="#ff0"/>
<rect x="418" y="511" width="96" height="10" fill="#ff0"/>
<rect x="795" y="511" width="5" height="10" fill="#ff0"/>
</svg>
