<svg viewBox="0 0 679 515" xmlns="http://www.w3.org/2000/svg">

<style>
  .sm { font: 12px sans-serif; }
  .lg { font: 15px sans-serif; }
</style>
<rect fill="#ddd" x="0" y="0" width="100%" height="100%"/>
<text x="20" y="20" class="lg">ch.19851 X:14423305-14423983 Gene:WBGene00009090</text>
<text x="20" y="50" class="sm">WormBase</text>
<rect x="100" y="40" width="143" height="12" fill="#00f"/>
<rect x="300" y="40" width="279" height="12" fill="#00f"/>
<line x1="243" y1="46" x2="299" y2="46" stroke="#00f"/>
<rect x="146" y="41" width="97" height="10" fill="#ff0"/>
<rect x="301" y="41" width="207" height="10" fill="#ff0"/>
<rect x="101" y="41" width="44" height="10" fill="brown"><title>.</title></rect>
<rect x="509" y="41" width="70" height="10" fill="brown"><title>.</title></rect>
<text x="20" y="70" class="sm">Fitness: 1.097402279224875e-06</text>
<rect x="243" y="65" width="57" height="5" fill="#00f"><title>251228.0</title></rect>
<rect x="539" y="70" width="92" height="5" fill="#f0f"><title>17.0</title></rect>
<rect x="243" y="75" width="100" height="5" fill="#00f"><title>14.0</title></rect>
<text x="20" y="105" class="sm">0.9999</text>
<rect x="100" y="95" width="143" height="12" fill="#00f"/>
<rect x="300" y="95" width="282" height="12" fill="#00f"/>
<line x1="243" y1="101" x2="299" y2="101" stroke="#00f"/>
<rect x="128" y="96" width="115" height="10" fill="#ff0"/>
<rect x="301" y="96" width="207" height="10" fill="#ff0"/>
<text x="20" y="125" class="sm">5.533e-05</text>
<rect x="100" y="115" width="143" height="12" fill="#00f"/>
<rect x="343" y="115" width="239" height="12" fill="#00f"/>
<line x1="243" y1="121" x2="342" y2="121" stroke="#00f"/>
<rect x="128" y="116" width="115" height="10" fill="#ff0"/>
<rect x="344" y="116" width="204" height="10" fill="#ff0"/>
<text x="20" y="145" class="sm">1.961e-07</text>
<rect x="100" y="135" width="34" height="12" fill="#00f"/>
<rect x="188" y="135" width="394" height="12" fill="#00f"/>
<line x1="134" y1="141" x2="187" y2="141" stroke="#00f"/>
<rect x="292" y="136" width="233" height="10" fill="#ff0"/>
<text x="20" y="165" class="sm">1.935e-07</text>
<rect x="100" y="155" width="87" height="12" fill="#00f"/>
<rect x="300" y="155" width="282" height="12" fill="#00f"/>
<line x1="187" y1="161" x2="299" y2="161" stroke="#00f"/>
<rect x="128" y="156" width="59" height="10" fill="#ff0"/>
<rect x="301" y="156" width="224" height="10" fill="#ff0"/>
<text x="20" y="185" class="sm">1.391e-07</text>
<rect x="100" y="175" width="34" height="12" fill="#00f"/>
<rect x="300" y="175" width="282" height="12" fill="#00f"/>
<line x1="134" y1="181" x2="299" y2="181" stroke="#00f"/>
<rect x="128" y="176" width="6" height="10" fill="#ff0"/>
<rect x="301" y="176" width="247" height="10" fill="#ff0"/>
<text x="20" y="205" class="sm">6.479e-09</text>
<rect x="100" y="195" width="62" height="12" fill="#00f"/>
<rect x="300" y="195" width="282" height="12" fill="#00f"/>
<line x1="162" y1="201" x2="299" y2="201" stroke="#00f"/>
<rect x="132" y="196" width="30" height="10" fill="#ff0"/>
<rect x="301" y="196" width="247" height="10" fill="#ff0"/>
<text x="20" y="225" class="sm">5.519e-09</text>
<rect x="100" y="215" width="147" height="12" fill="#00f"/>
<rect x="300" y="215" width="282" height="12" fill="#00f"/>
<line x1="247" y1="221" x2="299" y2="221" stroke="#00f"/>
<rect x="345" y="216" width="203" height="10" fill="#ff0"/>
<text x="20" y="245" class="sm">3.91e-09</text>
<rect x="100" y="235" width="175" height="12" fill="#00f"/>
<rect x="343" y="235" width="239" height="12" fill="#00f"/>
<line x1="275" y1="241" x2="342" y2="241" stroke="#00f"/>
<rect x="345" y="236" width="203" height="10" fill="#ff0"/>
<text x="20" y="265" class="sm">9.285e-10</text>
<rect x="100" y="255" width="34" height="12" fill="#00f"/>
<rect x="171" y="255" width="411" height="12" fill="#00f"/>
<line x1="134" y1="261" x2="170" y2="261" stroke="#00f"/>
<rect x="292" y="256" width="233" height="10" fill="#ff0"/>
<text x="20" y="285" class="sm">8.644e-10</text>
<rect x="100" y="275" width="193" height="12" fill="#00f"/>
<rect x="343" y="275" width="239" height="12" fill="#00f"/>
<line x1="293" y1="281" x2="342" y2="281" stroke="#00f"/>
<rect x="292" y="276" width="1" height="10" fill="#ff0"/>
<rect x="344" y="276" width="204" height="10" fill="#ff0"/>
<text x="20" y="305" class="sm">8.203e-10</text>
<rect x="100" y="295" width="385" height="12" fill="#00f"/>
<rect x="527" y="295" width="55" height="12" fill="#00f"/>
<line x1="485" y1="301" x2="526" y2="301" stroke="#00f"/>
<rect x="292" y="296" width="193" height="10" fill="#ff0"/>
<rect x="528" y="296" width="15" height="10" fill="#ff0"/>
<text x="20" y="325" class="sm">4.119e-10</text>
<rect x="100" y="315" width="87" height="12" fill="#00f"/>
<rect x="248" y="315" width="334" height="12" fill="#00f"/>
<line x1="187" y1="321" x2="247" y2="321" stroke="#00f"/>
<rect x="128" y="316" width="59" height="10" fill="#ff0"/>
<rect x="249" y="316" width="299" height="10" fill="#ff0"/>
<text x="20" y="345" class="sm">3.241e-10</text>
<rect x="100" y="335" width="161" height="12" fill="#00f"/>
<rect x="300" y="335" width="282" height="12" fill="#00f"/>
<line x1="261" y1="341" x2="299" y2="341" stroke="#00f"/>
<rect x="345" y="336" width="203" height="10" fill="#ff0"/>
<text x="20" y="365" class="sm">2.561e-10</text>
<rect x="100" y="355" width="208" height="12" fill="#00f"/>
<rect x="343" y="355" width="239" height="12" fill="#00f"/>
<line x1="308" y1="361" x2="342" y2="361" stroke="#00f"/>
<rect x="292" y="356" width="16" height="10" fill="#ff0"/>
<rect x="344" y="356" width="204" height="10" fill="#ff0"/>
<text x="20" y="385" class="sm">1.361e-10</text>
<rect x="100" y="375" width="54" height="12" fill="#00f"/>
<rect x="300" y="375" width="282" height="12" fill="#00f"/>
<line x1="154" y1="381" x2="299" y2="381" stroke="#00f"/>
<rect x="128" y="376" width="26" height="10" fill="#ff0"/>
<rect x="301" y="376" width="224" height="10" fill="#ff0"/>
<text x="20" y="405" class="sm">1.217e-10</text>
<rect x="100" y="395" width="34" height="12" fill="#00f"/>
<rect x="248" y="395" width="334" height="12" fill="#00f"/>
<line x1="134" y1="401" x2="247" y2="401" stroke="#00f"/>
<rect x="132" y="396" width="2" height="10" fill="#ff0"/>
<rect x="249" y="396" width="299" height="10" fill="#ff0"/>
<text x="20" y="425" class="sm">6.073e-11</text>
<rect x="100" y="415" width="34" height="12" fill="#00f"/>
<rect x="343" y="415" width="239" height="12" fill="#00f"/>
<line x1="134" y1="421" x2="342" y2="421" stroke="#00f"/>
<rect x="124" y="416" width="10" height="10" fill="#ff0"/>
<rect x="344" y="416" width="204" height="10" fill="#ff0"/>
<text x="20" y="445" class="sm">5.64e-11</text>
<rect x="100" y="435" width="87" height="12" fill="#00f"/>
<rect x="343" y="435" width="239" height="12" fill="#00f"/>
<line x1="187" y1="441" x2="342" y2="441" stroke="#00f"/>
<rect x="132" y="436" width="55" height="10" fill="#ff0"/>
<rect x="344" y="436" width="204" height="10" fill="#ff0"/>
<text x="20" y="465" class="sm">1.981e-11</text>
<rect x="100" y="455" width="346" height="12" fill="#00f"/>
<rect x="502" y="455" width="80" height="12" fill="#00f"/>
<line x1="446" y1="461" x2="501" y2="461" stroke="#00f"/>
<rect x="292" y="456" width="154" height="10" fill="#ff0"/>
<rect x="503" y="456" width="0" height="10" fill="#ff0"/>
<text x="20" y="485" class="sm">1.491e-11</text>
<rect x="100" y="475" width="74" height="12" fill="#00f"/>
<rect x="300" y="475" width="282" height="12" fill="#00f"/>
<line x1="174" y1="481" x2="299" y2="481" stroke="#00f"/>
<rect x="132" y="476" width="42" height="10" fill="#ff0"/>
<rect x="301" y="476" width="247" height="10" fill="#ff0"/>
</svg>
