<svg viewBox="0 0 809 555" xmlns="http://www.w3.org/2000/svg">

<style>
  .sm { font: 12px sans-serif; }
  .lg { font: 15px sans-serif; }
</style>
<rect fill="#ddd" x="0" y="0" width="100%" height="100%"/>
<text x="20" y="20" class="lg">ch.10604 IV:8016174-8016982 Gene:WBGene00016129</text>
<text x="20" y="50" class="sm">WormBase</text>
<rect x="100" y="40" width="107" height="12" fill="#00f"/>
<rect x="257" y="40" width="103" height="12" fill="#00f"/>
<rect x="414" y="40" width="295" height="12" fill="#00f"/>
<line x1="207" y1="46" x2="256" y2="46" stroke="#00f"/>
<line x1="360" y1="46" x2="413" y2="46" stroke="#00f"/>
<rect x="107" y="41" width="100" height="10" fill="#ff0"/>
<rect x="258" y="41" width="102" height="10" fill="#ff0"/>
<rect x="415" y="41" width="203" height="10" fill="#ff0"/>
<rect x="101" y="41" width="5" height="10" fill="brown"><title>.</title></rect>
<rect x="619" y="41" width="90" height="10" fill="brown"><title>.</title></rect>
<text x="20" y="70" class="sm">WormBase</text>
<rect x="261" y="60" width="99" height="12" fill="#00f"/>
<rect x="414" y="60" width="204" height="12" fill="#00f"/>
<line x1="360" y1="66" x2="413" y2="66" stroke="#00f"/>
<rect x="262" y="61" width="98" height="10" fill="#ff0"/>
<rect x="415" y="61" width="203" height="10" fill="#ff0"/>
<text x="20" y="90" class="sm">Fitness: 0.19708286308110007</text>
<rect x="360" y="85" width="54" height="5" fill="#00f"><title>404096.0</title></rect>
<rect x="207" y="90" width="50" height="5" fill="#00f"><title>342164.0</title></rect>
<rect x="493" y="95" width="47" height="5" fill="#00f"><title>134.0</title></rect>
<rect x="360" y="100" width="159" height="5" fill="#00f"><title>7.0</title></rect>
<rect x="519" y="105" width="47" height="5" fill="#00f"><title>6.0</title></rect>
<rect x="207" y="110" width="70" height="5" fill="#00f"><title>5.0</title></rect>
<rect x="374" y="115" width="94" height="5" fill="#f0f"><title>4.0</title></rect>
<text x="20" y="145" class="sm">0.8027</text>
<rect x="100" y="135" width="107" height="12" fill="#00f"/>
<rect x="257" y="135" width="103" height="12" fill="#00f"/>
<rect x="414" y="135" width="298" height="12" fill="#00f"/>
<line x1="207" y1="141" x2="256" y2="141" stroke="#00f"/>
<line x1="360" y1="141" x2="413" y2="141" stroke="#00f"/>
<rect x="107" y="136" width="100" height="10" fill="#ff0"/>
<rect x="258" y="136" width="102" height="10" fill="#ff0"/>
<rect x="415" y="136" width="203" height="10" fill="#ff0"/>
<text x="20" y="165" class="sm">0.05748</text>
<rect x="100" y="155" width="107" height="12" fill="#00f"/>
<rect x="257" y="155" width="103" height="12" fill="#00f"/>
<rect x="414" y="155" width="195" height="12" fill="#00f"/>
<rect x="665" y="155" width="47" height="12" fill="#00f"/>
<line x1="207" y1="161" x2="256" y2="161" stroke="#00f"/>
<line x1="360" y1="161" x2="413" y2="161" stroke="#00f"/>
<line x1="609" y1="161" x2="664" y2="161" stroke="#00f"/>
<rect x="107" y="156" width="100" height="10" fill="#ff0"/>
<rect x="258" y="156" width="102" height="10" fill="#ff0"/>
<rect x="415" y="156" width="194" height="10" fill="#ff0"/>
<rect x="666" y="156" width="23" height="10" fill="#ff0"/>
<text x="20" y="185" class="sm">0.04776</text>
<rect x="100" y="175" width="107" height="12" fill="#00f"/>
<rect x="257" y="175" width="455" height="12" fill="#00f"/>
<line x1="207" y1="181" x2="256" y2="181" stroke="#00f"/>
<rect x="107" y="176" width="100" height="10" fill="#ff0"/>
<rect x="258" y="176" width="120" height="10" fill="#ff0"/>
<text x="20" y="205" class="sm">0.01493</text>
<rect x="100" y="195" width="107" height="12" fill="#00f"/>
<rect x="257" y="195" width="103" height="12" fill="#00f"/>
<rect x="414" y="195" width="198" height="12" fill="#00f"/>
<rect x="665" y="195" width="47" height="12" fill="#00f"/>
<line x1="207" y1="201" x2="256" y2="201" stroke="#00f"/>
<line x1="360" y1="201" x2="413" y2="201" stroke="#00f"/>
<line x1="612" y1="201" x2="664" y2="201" stroke="#00f"/>
<rect x="107" y="196" width="100" height="10" fill="#ff0"/>
<rect x="258" y="196" width="102" height="10" fill="#ff0"/>
<rect x="415" y="196" width="197" height="10" fill="#ff0"/>
<rect x="666" y="196" width="23" height="10" fill="#ff0"/>
<text x="20" y="225" class="sm">0.01334</text>
<rect x="100" y="215" width="107" height="12" fill="#00f"/>
<rect x="257" y="215" width="79" height="12" fill="#00f"/>
<rect x="414" y="215" width="298" height="12" fill="#00f"/>
<line x1="207" y1="221" x2="256" y2="221" stroke="#00f"/>
<line x1="336" y1="221" x2="413" y2="221" stroke="#00f"/>
<rect x="107" y="216" width="100" height="10" fill="#ff0"/>
<rect x="258" y="216" width="78" height="10" fill="#ff0"/>
<rect x="415" y="216" width="203" height="10" fill="#ff0"/>
<text x="20" y="245" class="sm">0.01132</text>
<rect x="100" y="235" width="107" height="12" fill="#00f"/>
<rect x="257" y="235" width="103" height="12" fill="#00f"/>
<rect x="519" y="235" width="193" height="12" fill="#00f"/>
<line x1="207" y1="241" x2="256" y2="241" stroke="#00f"/>
<line x1="360" y1="241" x2="518" y2="241" stroke="#00f"/>
<rect x="107" y="236" width="100" height="10" fill="#ff0"/>
<rect x="258" y="236" width="102" height="10" fill="#ff0"/>
<rect x="520" y="236" width="98" height="10" fill="#ff0"/>
<text x="20" y="265" class="sm">0.01118</text>
<rect x="100" y="255" width="107" height="12" fill="#00f"/>
<rect x="414" y="255" width="298" height="12" fill="#00f"/>
<line x1="207" y1="261" x2="413" y2="261" stroke="#00f"/>
<rect x="456" y="256" width="209" height="10" fill="#ff0"/>
<text x="20" y="285" class="sm">0.01108</text>
<rect x="100" y="275" width="107" height="12" fill="#00f"/>
<rect x="257" y="275" width="103" height="12" fill="#00f"/>
<rect x="414" y="275" width="108" height="12" fill="#00f"/>
<rect x="566" y="275" width="146" height="12" fill="#00f"/>
<line x1="207" y1="281" x2="256" y2="281" stroke="#00f"/>
<line x1="360" y1="281" x2="413" y2="281" stroke="#00f"/>
<line x1="522" y1="281" x2="565" y2="281" stroke="#00f"/>
<rect x="107" y="276" width="100" height="10" fill="#ff0"/>
<rect x="258" y="276" width="102" height="10" fill="#ff0"/>
<rect x="415" y="276" width="107" height="10" fill="#ff0"/>
<rect x="567" y="276" width="98" height="10" fill="#ff0"/>
<text x="20" y="305" class="sm">0.007633</text>
<rect x="100" y="295" width="260" height="12" fill="#00f"/>
<rect x="414" y="295" width="298" height="12" fill="#00f"/>
<line x1="360" y1="301" x2="413" y2="301" stroke="#00f"/>
<rect x="262" y="296" width="98" height="10" fill="#ff0"/>
<rect x="415" y="296" width="203" height="10" fill="#ff0"/>
<text x="20" y="325" class="sm">0.003718</text>
<rect x="100" y="315" width="107" height="12" fill="#00f"/>
<rect x="257" y="315" width="103" height="12" fill="#00f"/>
<rect x="414" y="315" width="79" height="12" fill="#00f"/>
<rect x="540" y="315" width="172" height="12" fill="#00f"/>
<line x1="207" y1="321" x2="256" y2="321" stroke="#00f"/>
<line x1="360" y1="321" x2="413" y2="321" stroke="#00f"/>
<line x1="493" y1="321" x2="539" y2="321" stroke="#00f"/>
<rect x="107" y="316" width="100" height="10" fill="#ff0"/>
<rect x="258" y="316" width="102" height="10" fill="#ff0"/>
<rect x="415" y="316" width="78" height="10" fill="#ff0"/>
<rect x="541" y="316" width="124" height="10" fill="#ff0"/>
<text x="20" y="345" class="sm">0.003307</text>
<rect x="100" y="335" width="107" height="12" fill="#00f"/>
<rect x="257" y="335" width="191" height="12" fill="#00f"/>
<rect x="519" y="335" width="193" height="12" fill="#00f"/>
<line x1="207" y1="341" x2="256" y2="341" stroke="#00f"/>
<line x1="448" y1="341" x2="518" y2="341" stroke="#00f"/>
<rect x="107" y="336" width="100" height="10" fill="#ff0"/>
<rect x="258" y="336" width="120" height="10" fill="#ff0"/>
<text x="20" y="365" class="sm">0.003085</text>
<rect x="100" y="355" width="107" height="12" fill="#00f"/>
<rect x="519" y="355" width="193" height="12" fill="#00f"/>
<line x1="207" y1="361" x2="518" y2="361" stroke="#00f"/>
<rect x="107" y="356" width="100" height="10" fill="#ff0"/>
<rect x="520" y="356" width="6" height="10" fill="#ff0"/>
<text x="20" y="385" class="sm">0.002918</text>
<rect x="100" y="375" width="107" height="12" fill="#00f"/>
<rect x="257" y="375" width="103" height="12" fill="#00f"/>
<rect x="414" y="375" width="83" height="12" fill="#00f"/>
<rect x="540" y="375" width="172" height="12" fill="#00f"/>
<line x1="207" y1="381" x2="256" y2="381" stroke="#00f"/>
<line x1="360" y1="381" x2="413" y2="381" stroke="#00f"/>
<line x1="497" y1="381" x2="539" y2="381" stroke="#00f"/>
<rect x="107" y="376" width="100" height="10" fill="#ff0"/>
<rect x="258" y="376" width="102" height="10" fill="#ff0"/>
<rect x="415" y="376" width="82" height="10" fill="#ff0"/>
<rect x="541" y="376" width="42" height="10" fill="#ff0"/>
<text x="20" y="405" class="sm">0.002746</text>
<rect x="100" y="395" width="107" height="12" fill="#00f"/>
<rect x="257" y="395" width="352" height="12" fill="#00f"/>
<rect x="665" y="395" width="47" height="12" fill="#00f"/>
<line x1="207" y1="401" x2="256" y2="401" stroke="#00f"/>
<line x1="609" y1="401" x2="664" y2="401" stroke="#00f"/>
<rect x="107" y="396" width="100" height="10" fill="#ff0"/>
<rect x="258" y="396" width="120" height="10" fill="#ff0"/>
<text x="20" y="425" class="sm">0.001644</text>
<rect x="100" y="415" width="107" height="12" fill="#00f"/>
<rect x="257" y="415" width="79" height="12" fill="#00f"/>
<rect x="519" y="415" width="193" height="12" fill="#00f"/>
<line x1="207" y1="421" x2="256" y2="421" stroke="#00f"/>
<line x1="336" y1="421" x2="518" y2="421" stroke="#00f"/>
<rect x="107" y="416" width="100" height="10" fill="#ff0"/>
<rect x="258" y="416" width="78" height="10" fill="#ff0"/>
<rect x="520" y="416" width="98" height="10" fill="#ff0"/>
<text x="20" y="445" class="sm">0.00116</text>
<rect x="100" y="435" width="107" height="12" fill="#00f"/>
<rect x="257" y="435" width="103" height="12" fill="#00f"/>
<rect x="414" y="435" width="105" height="12" fill="#00f"/>
<rect x="566" y="435" width="146" height="12" fill="#00f"/>
<line x1="207" y1="441" x2="256" y2="441" stroke="#00f"/>
<line x1="360" y1="441" x2="413" y2="441" stroke="#00f"/>
<line x1="519" y1="441" x2="565" y2="441" stroke="#00f"/>
<rect x="107" y="436" width="100" height="10" fill="#ff0"/>
<rect x="258" y="436" width="102" height="10" fill="#ff0"/>
<rect x="415" y="436" width="104" height="10" fill="#ff0"/>
<rect x="567" y="436" width="98" height="10" fill="#ff0"/>
<text x="20" y="465" class="sm">0.001049</text>
<rect x="100" y="455" width="107" height="12" fill="#00f"/>
<rect x="277" y="455" width="83" height="12" fill="#00f"/>
<rect x="414" y="455" width="298" height="12" fill="#00f"/>
<line x1="207" y1="461" x2="276" y2="461" stroke="#00f"/>
<line x1="360" y1="461" x2="413" y2="461" stroke="#00f"/>
<rect x="316" y="456" width="44" height="10" fill="#ff0"/>
<rect x="415" y="456" width="203" height="10" fill="#ff0"/>
<text x="20" y="485" class="sm">0.001024</text>
<rect x="100" y="475" width="107" height="12" fill="#00f"/>
<rect x="257" y="475" width="103" height="12" fill="#00f"/>
<rect x="414" y="475" width="87" height="12" fill="#00f"/>
<rect x="540" y="475" width="172" height="12" fill="#00f"/>
<line x1="207" y1="481" x2="256" y2="481" stroke="#00f"/>
<line x1="360" y1="481" x2="413" y2="481" stroke="#00f"/>
<line x1="501" y1="481" x2="539" y2="481" stroke="#00f"/>
<rect x="107" y="476" width="100" height="10" fill="#ff0"/>
<rect x="258" y="476" width="102" height="10" fill="#ff0"/>
<rect x="415" y="476" width="86" height="10" fill="#ff0"/>
<rect x="541" y="476" width="77" height="10" fill="#ff0"/>
<text x="20" y="505" class="sm">0.0009554</text>
<rect x="100" y="495" width="107" height="12" fill="#00f"/>
<rect x="257" y="495" width="79" height="12" fill="#00f"/>
<rect x="414" y="495" width="195" height="12" fill="#00f"/>
<rect x="665" y="495" width="47" height="12" fill="#00f"/>
<line x1="207" y1="501" x2="256" y2="501" stroke="#00f"/>
<line x1="336" y1="501" x2="413" y2="501" stroke="#00f"/>
<line x1="609" y1="501" x2="664" y2="501" stroke="#00f"/>
<rect x="107" y="496" width="100" height="10" fill="#ff0"/>
<rect x="258" y="496" width="78" height="10" fill="#ff0"/>
<rect x="415" y="496" width="194" height="10" fill="#ff0"/>
<rect x="666" y="496" width="23" height="10" fill="#ff0"/>
<text x="20" y="525" class="sm">0.0009319</text>
<rect x="100" y="515" width="107" height="12" fill="#00f"/>
<rect x="257" y="515" width="355" height="12" fill="#00f"/>
<rect x="665" y="515" width="47" height="12" fill="#00f"/>
<line x1="207" y1="521" x2="256" y2="521" stroke="#00f"/>
<line x1="612" y1="521" x2="664" y2="521" stroke="#00f"/>
<rect x="107" y="516" width="100" height="10" fill="#ff0"/>
<rect x="258" y="516" width="120" height="10" fill="#ff0"/>
</svg>
