<svg viewBox="0 0 929 540" xmlns="http://www.w3.org/2000/svg">

<style>
  .sm { font: 12px sans-serif; }
  .lg { font: 15px sans-serif; }
</style>
<rect fill="#ddd" x="0" y="0" width="100%" height="100%"/>
<text x="20" y="20" class="lg">ch.1340 I:7312697-7313625 Gene:WBGene00003236</text>
<text x="20" y="50" class="sm">WormBase</text>
<rect x="102" y="40" width="55" height="12" fill="#00f"/>
<rect x="200" y="40" width="63" height="12" fill="#00f"/>
<rect x="393" y="40" width="438" height="12" fill="#00f"/>
<line x1="157" y1="46" x2="199" y2="46" stroke="#00f"/>
<line x1="263" y1="46" x2="392" y2="46" stroke="#00f"/>
<rect x="104" y="41" width="53" height="10" fill="#ff0"/>
<rect x="201" y="41" width="62" height="10" fill="#ff0"/>
<rect x="394" y="41" width="323" height="10" fill="#ff0"/>
<rect x="103" y="41" width="0" height="10" fill="brown"><title>.</title></rect>
<rect x="718" y="41" width="113" height="10" fill="brown"><title>.</title></rect>
<text x="20" y="70" class="sm">Fitness: 0.13855791154306615</text>
<rect x="263" y="65" width="130" height="5" fill="#00f"><title>311168.0</title></rect>
<rect x="157" y="70" width="43" height="5" fill="#00f"><title>235556.0</title></rect>
<rect x="332" y="75" width="61" height="5" fill="#00f"><title>97.0</title></rect>
<rect x="263" y="80" width="112" height="5" fill="#00f"><title>66.0</title></rect>
<rect x="263" y="85" width="188" height="5" fill="#00f"><title>50.0</title></rect>
<rect x="150" y="90" width="50" height="5" fill="#00f"><title>48.0</title></rect>
<rect x="139" y="95" width="61" height="5" fill="#00f"><title>10.0</title></rect>
<rect x="263" y="100" width="179" height="5" fill="#00f"><title>4.0</title></rect>
<text x="20" y="130" class="sm">0.9988</text>
<rect x="100" y="120" width="57" height="12" fill="#00f"/>
<rect x="200" y="120" width="63" height="12" fill="#00f"/>
<rect x="393" y="120" width="439" height="12" fill="#00f"/>
<line x1="157" y1="126" x2="199" y2="126" stroke="#00f"/>
<line x1="263" y1="126" x2="392" y2="126" stroke="#00f"/>
<rect x="104" y="121" width="53" height="10" fill="#ff0"/>
<rect x="201" y="121" width="62" height="10" fill="#ff0"/>
<rect x="394" y="121" width="323" height="10" fill="#ff0"/>
<text x="20" y="150" class="sm">0.001157</text>
<rect x="100" y="140" width="50" height="12" fill="#00f"/>
<rect x="200" y="140" width="63" height="12" fill="#00f"/>
<rect x="393" y="140" width="439" height="12" fill="#00f"/>
<line x1="150" y1="146" x2="199" y2="146" stroke="#00f"/>
<line x1="263" y1="146" x2="392" y2="146" stroke="#00f"/>
<rect x="219" y="141" width="44" height="10" fill="#ff0"/>
<rect x="394" y="141" width="323" height="10" fill="#ff0"/>
<text x="20" y="170" class="sm">2.467e-07</text>
<rect x="100" y="160" width="57" height="12" fill="#00f"/>
<rect x="200" y="160" width="63" height="12" fill="#00f"/>
<rect x="451" y="160" width="381" height="12" fill="#00f"/>
<line x1="157" y1="166" x2="199" y2="166" stroke="#00f"/>
<line x1="263" y1="166" x2="450" y2="166" stroke="#00f"/>
<rect x="104" y="161" width="53" height="10" fill="#ff0"/>
<rect x="201" y="161" width="62" height="10" fill="#ff0"/>
<rect x="452" y="161" width="89" height="10" fill="#ff0"/>
<text x="20" y="190" class="sm">4.239e-08</text>
<rect x="100" y="180" width="57" height="12" fill="#00f"/>
<rect x="200" y="180" width="67" height="12" fill="#00f"/>
<rect x="393" y="180" width="439" height="12" fill="#00f"/>
<line x1="157" y1="186" x2="199" y2="186" stroke="#00f"/>
<line x1="267" y1="186" x2="392" y2="186" stroke="#00f"/>
<rect x="400" y="181" width="317" height="10" fill="#ff0"/>
<text x="20" y="210" class="sm">2.599e-08</text>
<rect x="100" y="200" width="57" height="12" fill="#00f"/>
<rect x="200" y="200" width="57" height="12" fill="#00f"/>
<rect x="393" y="200" width="439" height="12" fill="#00f"/>
<line x1="157" y1="206" x2="199" y2="206" stroke="#00f"/>
<line x1="257" y1="206" x2="392" y2="206" stroke="#00f"/>
<rect x="104" y="201" width="53" height="10" fill="#ff0"/>
<rect x="201" y="201" width="56" height="10" fill="#ff0"/>
<rect x="394" y="201" width="323" height="10" fill="#ff0"/>
<text x="20" y="230" class="sm">8.358e-09</text>
<rect x="100" y="220" width="39" height="12" fill="#00f"/>
<rect x="200" y="220" width="63" height="12" fill="#00f"/>
<rect x="393" y="220" width="439" height="12" fill="#00f"/>
<line x1="139" y1="226" x2="199" y2="226" stroke="#00f"/>
<line x1="263" y1="226" x2="392" y2="226" stroke="#00f"/>
<rect x="104" y="221" width="35" height="10" fill="#ff0"/>
<rect x="201" y="221" width="62" height="10" fill="#ff0"/>
<rect x="394" y="221" width="323" height="10" fill="#ff0"/>
<text x="20" y="250" class="sm">4.05e-09</text>
<rect x="100" y="240" width="57" height="12" fill="#00f"/>
<rect x="200" y="240" width="70" height="12" fill="#00f"/>
<rect x="393" y="240" width="439" height="12" fill="#00f"/>
<line x1="157" y1="246" x2="199" y2="246" stroke="#00f"/>
<line x1="270" y1="246" x2="392" y2="246" stroke="#00f"/>
<rect x="400" y="241" width="317" height="10" fill="#ff0"/>
<text x="20" y="270" class="sm">2.965e-09</text>
<rect x="100" y="260" width="57" height="12" fill="#00f"/>
<rect x="200" y="260" width="63" height="12" fill="#00f"/>
<rect x="421" y="260" width="411" height="12" fill="#00f"/>
<line x1="157" y1="266" x2="199" y2="266" stroke="#00f"/>
<line x1="263" y1="266" x2="420" y2="266" stroke="#00f"/>
<rect x="104" y="261" width="53" height="10" fill="#ff0"/>
<rect x="201" y="261" width="62" height="10" fill="#ff0"/>
<rect x="422" y="261" width="8" height="10" fill="#ff0"/>
<text x="20" y="290" class="sm">2.678e-09</text>
<rect x="100" y="280" width="57" height="12" fill="#00f"/>
<rect x="200" y="280" width="63" height="12" fill="#00f"/>
<rect x="393" y="280" width="118" height="12" fill="#00f"/>
<rect x="553" y="280" width="279" height="12" fill="#00f"/>
<line x1="157" y1="286" x2="199" y2="286" stroke="#00f"/>
<line x1="263" y1="286" x2="392" y2="286" stroke="#00f"/>
<line x1="511" y1="286" x2="552" y2="286" stroke="#00f"/>
<rect x="104" y="281" width="53" height="10" fill="#ff0"/>
<rect x="201" y="281" width="62" height="10" fill="#ff0"/>
<rect x="394" y="281" width="117" height="10" fill="#ff0"/>
<rect x="554" y="281" width="163" height="10" fill="#ff0"/>
<text x="20" y="310" class="sm">2.429e-09</text>
<rect x="100" y="300" width="57" height="12" fill="#00f"/>
<rect x="200" y="300" width="63" height="12" fill="#00f"/>
<rect x="442" y="300" width="390" height="12" fill="#00f"/>
<line x1="157" y1="306" x2="199" y2="306" stroke="#00f"/>
<line x1="263" y1="306" x2="441" y2="306" stroke="#00f"/>
<rect x="104" y="301" width="53" height="10" fill="#ff0"/>
<rect x="201" y="301" width="62" height="10" fill="#ff0"/>
<rect x="443" y="301" width="8" height="10" fill="#ff0"/>
<text x="20" y="330" class="sm">1.417e-09</text>
<rect x="100" y="320" width="57" height="12" fill="#00f"/>
<rect x="200" y="320" width="27" height="12" fill="#00f"/>
<rect x="393" y="320" width="439" height="12" fill="#00f"/>
<line x1="157" y1="326" x2="199" y2="326" stroke="#00f"/>
<line x1="227" y1="326" x2="392" y2="326" stroke="#00f"/>
<rect x="104" y="321" width="53" height="10" fill="#ff0"/>
<rect x="201" y="321" width="26" height="10" fill="#ff0"/>
<rect x="394" y="321" width="323" height="10" fill="#ff0"/>
<text x="20" y="350" class="sm">1.173e-09</text>
<rect x="100" y="340" width="57" height="12" fill="#00f"/>
<rect x="200" y="340" width="63" height="12" fill="#00f"/>
<rect x="393" y="340" width="159" height="12" fill="#00f"/>
<rect x="640" y="340" width="192" height="12" fill="#00f"/>
<line x1="157" y1="346" x2="199" y2="346" stroke="#00f"/>
<line x1="263" y1="346" x2="392" y2="346" stroke="#00f"/>
<line x1="552" y1="346" x2="639" y2="346" stroke="#00f"/>
<rect x="104" y="341" width="53" height="10" fill="#ff0"/>
<rect x="201" y="341" width="62" height="10" fill="#ff0"/>
<rect x="394" y="341" width="158" height="10" fill="#ff0"/>
<rect x="641" y="341" width="29" height="10" fill="#ff0"/>
<text x="20" y="370" class="sm">1.099e-09</text>
<rect x="100" y="360" width="57" height="12" fill="#00f"/>
<rect x="200" y="360" width="63" height="12" fill="#00f"/>
<rect x="393" y="360" width="75" height="12" fill="#00f"/>
<rect x="528" y="360" width="304" height="12" fill="#00f"/>
<line x1="157" y1="366" x2="199" y2="366" stroke="#00f"/>
<line x1="263" y1="366" x2="392" y2="366" stroke="#00f"/>
<line x1="468" y1="366" x2="527" y2="366" stroke="#00f"/>
<rect x="104" y="361" width="53" height="10" fill="#ff0"/>
<rect x="201" y="361" width="62" height="10" fill="#ff0"/>
<rect x="394" y="361" width="74" height="10" fill="#ff0"/>
<rect x="529" y="361" width="188" height="10" fill="#ff0"/>
<text x="20" y="390" class="sm">7.243e-10</text>
<rect x="100" y="380" width="57" height="12" fill="#00f"/>
<rect x="200" y="380" width="63" height="12" fill="#00f"/>
<rect x="393" y="380" width="108" height="12" fill="#00f"/>
<rect x="541" y="380" width="291" height="12" fill="#00f"/>
<line x1="157" y1="386" x2="199" y2="386" stroke="#00f"/>
<line x1="263" y1="386" x2="392" y2="386" stroke="#00f"/>
<line x1="501" y1="386" x2="540" y2="386" stroke="#00f"/>
<rect x="104" y="381" width="53" height="10" fill="#ff0"/>
<rect x="201" y="381" width="62" height="10" fill="#ff0"/>
<rect x="394" y="381" width="107" height="10" fill="#ff0"/>
<rect x="542" y="381" width="35" height="10" fill="#ff0"/>
<text x="20" y="410" class="sm">4.237e-10</text>
<rect x="100" y="400" width="57" height="12" fill="#00f"/>
<rect x="200" y="400" width="63" height="12" fill="#00f"/>
<rect x="375" y="400" width="457" height="12" fill="#00f"/>
<line x1="157" y1="406" x2="199" y2="406" stroke="#00f"/>
<line x1="263" y1="406" x2="374" y2="406" stroke="#00f"/>
<rect x="104" y="401" width="53" height="10" fill="#ff0"/>
<rect x="201" y="401" width="62" height="10" fill="#ff0"/>
<rect x="376" y="401" width="341" height="10" fill="#ff0"/>
<text x="20" y="430" class="sm">2.857e-10</text>
<rect x="100" y="420" width="50" height="12" fill="#00f"/>
<rect x="200" y="420" width="63" height="12" fill="#00f"/>
<rect x="451" y="420" width="381" height="12" fill="#00f"/>
<line x1="150" y1="426" x2="199" y2="426" stroke="#00f"/>
<line x1="263" y1="426" x2="450" y2="426" stroke="#00f"/>
<rect x="219" y="421" width="44" height="10" fill="#ff0"/>
<rect x="452" y="421" width="89" height="10" fill="#ff0"/>
<text x="20" y="450" class="sm">8.786e-11</text>
<rect x="100" y="440" width="57" height="12" fill="#00f"/>
<rect x="228" y="440" width="35" height="12" fill="#00f"/>
<rect x="393" y="440" width="439" height="12" fill="#00f"/>
<line x1="157" y1="446" x2="227" y2="446" stroke="#00f"/>
<line x1="263" y1="446" x2="392" y2="446" stroke="#00f"/>
<rect x="231" y="441" width="32" height="10" fill="#ff0"/>
<rect x="394" y="441" width="323" height="10" fill="#ff0"/>
<text x="20" y="470" class="sm">4.91e-11</text>
<rect x="100" y="460" width="50" height="12" fill="#00f"/>
<rect x="200" y="460" width="67" height="12" fill="#00f"/>
<rect x="393" y="460" width="439" height="12" fill="#00f"/>
<line x1="150" y1="466" x2="199" y2="466" stroke="#00f"/>
<line x1="267" y1="466" x2="392" y2="466" stroke="#00f"/>
<rect x="400" y="461" width="317" height="10" fill="#ff0"/>
<text x="20" y="490" class="sm">3.01e-11</text>
<rect x="100" y="480" width="50" height="12" fill="#00f"/>
<rect x="200" y="480" width="57" height="12" fill="#00f"/>
<rect x="393" y="480" width="439" height="12" fill="#00f"/>
<line x1="150" y1="486" x2="199" y2="486" stroke="#00f"/>
<line x1="257" y1="486" x2="392" y2="486" stroke="#00f"/>
<rect x="219" y="481" width="38" height="10" fill="#ff0"/>
<rect x="394" y="481" width="323" height="10" fill="#ff0"/>
<text x="20" y="510" class="sm">1.42e-11</text>
<rect x="100" y="500" width="57" height="12" fill="#00f"/>
<rect x="200" y="500" width="63" height="12" fill="#00f"/>
<rect x="393" y="500" width="108" height="12" fill="#00f"/>
<rect x="553" y="500" width="279" height="12" fill="#00f"/>
<line x1="157" y1="506" x2="199" y2="506" stroke="#00f"/>
<line x1="263" y1="506" x2="392" y2="506" stroke="#00f"/>
<line x1="501" y1="506" x2="552" y2="506" stroke="#00f"/>
<rect x="104" y="501" width="53" height="10" fill="#ff0"/>
<rect x="201" y="501" width="62" height="10" fill="#ff0"/>
<rect x="394" y="501" width="107" height="10" fill="#ff0"/>
<rect x="554" y="501" width="23" height="10" fill="#ff0"/>
</svg>
