<svg viewBox="0 0 719 535" xmlns="http://www.w3.org/2000/svg">

<style>
  .sm { font: 12px sans-serif; }
  .lg { font: 15px sans-serif; }
</style>
<rect fill="#ddd" x="0" y="0" width="100%" height="100%"/>
<text x="20" y="20" class="lg">ch.11381 IV:11177977-11178695 Gene:WBGene00007449</text>
<text x="20" y="50" class="sm">WormBase</text>
<rect x="102" y="40" width="98" height="12" fill="#00f"/>
<rect x="456" y="40" width="165" height="12" fill="#00f"/>
<line x1="200" y1="46" x2="455" y2="46" stroke="#00f"/>
<rect x="118" y="41" width="82" height="10" fill="#ff0"/>
<rect x="457" y="41" width="84" height="10" fill="#ff0"/>
<rect x="103" y="41" width="14" height="10" fill="brown"><title>.</title></rect>
<rect x="542" y="41" width="79" height="10" fill="brown"><title>.</title></rect>
<text x="20" y="70" class="sm">Fitness: 0.00012145995176319449</text>
<rect x="200" y="65" width="256" height="5" fill="#00f"><title>679009.0</title></rect>
<rect x="200" y="70" width="270" height="5" fill="#00f"><title>54.0</title></rect>
<rect x="191" y="75" width="257" height="5" fill="#f0f"><title>48.0</title></rect>
<rect x="204" y="80" width="255" height="5" fill="#00f"><title>6.0</title></rect>
<rect x="551" y="85" width="127" height="5" fill="#f0f"><title>3.0</title></rect>
<rect x="200" y="90" width="259" height="5" fill="#00f"><title>3.0</title></rect>
<rect x="204" y="95" width="252" height="5" fill="#00f"><title>3.0</title></rect>
<text x="20" y="125" class="sm">0.9999</text>
<rect x="100" y="115" width="100" height="12" fill="#00f"/>
<rect x="456" y="115" width="166" height="12" fill="#00f"/>
<line x1="200" y1="121" x2="455" y2="121" stroke="#00f"/>
<rect x="109" y="116" width="91" height="10" fill="#ff0"/>
<rect x="457" y="116" width="84" height="10" fill="#ff0"/>
<text x="20" y="145" class="sm">3.007e-05</text>
<rect x="100" y="135" width="100" height="12" fill="#00f"/>
<rect x="470" y="135" width="152" height="12" fill="#00f"/>
<line x1="200" y1="141" x2="469" y2="141" stroke="#00f"/>
<rect x="109" y="136" width="91" height="10" fill="#ff0"/>
<rect x="471" y="136" width="48" height="10" fill="#ff0"/>
<text x="20" y="165" class="sm">2.697e-05</text>
<rect x="100" y="155" width="100" height="12" fill="#00f"/>
<rect x="494" y="155" width="128" height="12" fill="#00f"/>
<line x1="200" y1="161" x2="493" y2="161" stroke="#00f"/>
<rect x="109" y="156" width="91" height="10" fill="#ff0"/>
<rect x="495" y="156" width="24" height="10" fill="#ff0"/>
<text x="20" y="185" class="sm">2.69e-05</text>
<rect x="100" y="175" width="104" height="12" fill="#00f"/>
<rect x="456" y="175" width="166" height="12" fill="#00f"/>
<line x1="204" y1="181" x2="455" y2="181" stroke="#00f"/>
<rect x="109" y="176" width="95" height="10" fill="#ff0"/>
<rect x="457" y="176" width="62" height="10" fill="#ff0"/>
<text x="20" y="205" class="sm">6.695e-06</text>
<rect x="100" y="195" width="100" height="12" fill="#00f"/>
<rect x="488" y="195" width="134" height="12" fill="#00f"/>
<line x1="200" y1="201" x2="487" y2="201" stroke="#00f"/>
<rect x="109" y="196" width="91" height="10" fill="#ff0"/>
<rect x="489" y="196" width="30" height="10" fill="#ff0"/>
<text x="20" y="225" class="sm">1.973e-06</text>
<rect x="100" y="215" width="100" height="12" fill="#00f"/>
<rect x="459" y="215" width="163" height="12" fill="#00f"/>
<line x1="200" y1="221" x2="458" y2="221" stroke="#00f"/>
<rect x="109" y="216" width="91" height="10" fill="#ff0"/>
<rect x="460" y="216" width="81" height="10" fill="#ff0"/>
<text x="20" y="245" class="sm">1.459e-07</text>
<rect x="100" y="235" width="100" height="12" fill="#00f"/>
<rect x="560" y="235" width="62" height="12" fill="#00f"/>
<line x1="200" y1="241" x2="559" y2="241" stroke="#00f"/>
<rect x="109" y="236" width="91" height="10" fill="#ff0"/>
<rect x="561" y="236" width="39" height="10" fill="#ff0"/>
<text x="20" y="265" class="sm">3.739e-08</text>
<rect x="100" y="255" width="100" height="12" fill="#00f"/>
<rect x="473" y="255" width="149" height="12" fill="#00f"/>
<line x1="200" y1="261" x2="472" y2="261" stroke="#00f"/>
<rect x="109" y="256" width="91" height="10" fill="#ff0"/>
<rect x="474" y="256" width="45" height="10" fill="#ff0"/>
<text x="20" y="285" class="sm">2.369e-08</text>
<rect x="100" y="275" width="100" height="12" fill="#00f"/>
<rect x="512" y="275" width="110" height="12" fill="#00f"/>
<line x1="200" y1="281" x2="511" y2="281" stroke="#00f"/>
<rect x="109" y="276" width="91" height="10" fill="#ff0"/>
<rect x="513" y="276" width="6" height="10" fill="#ff0"/>
<text x="20" y="305" class="sm">9.802e-09</text>
<rect x="100" y="295" width="100" height="12" fill="#00f"/>
<rect x="516" y="295" width="106" height="12" fill="#00f"/>
<line x1="200" y1="301" x2="515" y2="301" stroke="#00f"/>
<rect x="109" y="296" width="91" height="10" fill="#ff0"/>
<rect x="517" y="296" width="24" height="10" fill="#ff0"/>
<text x="20" y="325" class="sm">3.206e-09</text>
<rect x="100" y="315" width="100" height="12" fill="#00f"/>
<rect x="521" y="315" width="101" height="12" fill="#00f"/>
<line x1="200" y1="321" x2="520" y2="321" stroke="#00f"/>
<rect x="109" y="316" width="91" height="10" fill="#ff0"/>
<rect x="522" y="316" width="0" height="10" fill="#ff0"/>
<text x="20" y="345" class="sm">1.249e-09</text>
<rect x="100" y="335" width="68" height="12" fill="#00f"/>
<rect x="456" y="335" width="166" height="12" fill="#00f"/>
<line x1="168" y1="341" x2="455" y2="341" stroke="#00f"/>
<rect x="109" y="336" width="59" height="10" fill="#ff0"/>
<rect x="457" y="336" width="62" height="10" fill="#ff0"/>
<text x="20" y="365" class="sm">7.36e-10</text>
<rect x="100" y="355" width="104" height="12" fill="#00f"/>
<rect x="470" y="355" width="152" height="12" fill="#00f"/>
<line x1="204" y1="361" x2="469" y2="361" stroke="#00f"/>
<rect x="109" y="356" width="95" height="10" fill="#ff0"/>
<rect x="471" y="356" width="89" height="10" fill="#ff0"/>
<text x="20" y="385" class="sm">6.835e-10</text>
<rect x="100" y="375" width="104" height="12" fill="#00f"/>
<rect x="494" y="375" width="128" height="12" fill="#00f"/>
<line x1="204" y1="381" x2="493" y2="381" stroke="#00f"/>
<rect x="109" y="376" width="95" height="10" fill="#ff0"/>
<rect x="495" y="376" width="65" height="10" fill="#ff0"/>
<text x="20" y="405" class="sm">1.67e-10</text>
<rect x="100" y="395" width="104" height="12" fill="#00f"/>
<rect x="488" y="395" width="134" height="12" fill="#00f"/>
<line x1="204" y1="401" x2="487" y2="401" stroke="#00f"/>
<rect x="109" y="396" width="95" height="10" fill="#ff0"/>
<rect x="489" y="396" width="71" height="10" fill="#ff0"/>
<text x="20" y="425" class="sm">5.214e-11</text>
<rect x="100" y="415" width="104" height="12" fill="#00f"/>
<rect x="459" y="415" width="163" height="12" fill="#00f"/>
<line x1="204" y1="421" x2="458" y2="421" stroke="#00f"/>
<rect x="109" y="416" width="95" height="10" fill="#ff0"/>
<rect x="460" y="416" width="59" height="10" fill="#ff0"/>
<text x="20" y="445" class="sm">4.257e-11</text>
<rect x="100" y="435" width="100" height="12" fill="#00f"/>
<rect x="380" y="435" width="242" height="12" fill="#00f"/>
<line x1="200" y1="441" x2="379" y2="441" stroke="#00f"/>
<rect x="109" y="436" width="91" height="10" fill="#ff0"/>
<rect x="381" y="436" width="42" height="10" fill="#ff0"/>
<text x="20" y="465" class="sm">2.959e-11</text>
<rect x="100" y="455" width="77" height="12" fill="#00f"/>
<rect x="456" y="455" width="166" height="12" fill="#00f"/>
<line x1="177" y1="461" x2="455" y2="461" stroke="#00f"/>
<rect x="109" y="456" width="68" height="10" fill="#ff0"/>
<rect x="457" y="456" width="62" height="10" fill="#ff0"/>
<text x="20" y="485" class="sm">1.361e-11</text>
<rect x="100" y="475" width="100" height="12" fill="#00f"/>
<rect x="533" y="475" width="89" height="12" fill="#00f"/>
<line x1="200" y1="481" x2="532" y2="481" stroke="#00f"/>
<rect x="109" y="476" width="91" height="10" fill="#ff0"/>
<rect x="534" y="476" width="66" height="10" fill="#ff0"/>
<text x="20" y="505" class="sm">9.768e-12</text>
<rect x="100" y="495" width="100" height="12" fill="#00f"/>
<rect x="411" y="495" width="211" height="12" fill="#00f"/>
<line x1="200" y1="501" x2="410" y2="501" stroke="#00f"/>
<rect x="109" y="496" width="91" height="10" fill="#ff0"/>
<rect x="412" y="496" width="129" height="10" fill="#ff0"/>
</svg>
