<svg viewBox="0 0 563 520" xmlns="http://www.w3.org/2000/svg">

<style>
  .sm { font: 12px sans-serif; }
  .lg { font: 15px sans-serif; }
</style>
<rect fill="#ddd" x="0" y="0" width="100%" height="100%"/>
<text x="20" y="20" class="lg">ch.14924 V:10231132-10231694 Gene:WBGene00007544</text>
<text x="20" y="50" class="sm">WormBase</text>
<rect x="100" y="40" width="50" height="12" fill="#00f"/>
<rect x="197" y="40" width="266" height="12" fill="#00f"/>
<line x1="150" y1="46" x2="196" y2="46" stroke="#00f"/>
<rect x="137" y="41" width="13" height="10" fill="#ff0"/>
<rect x="198" y="41" width="207" height="10" fill="#ff0"/>
<rect x="101" y="41" width="35" height="10" fill="brown"><title>.</title></rect>
<rect x="406" y="41" width="57" height="10" fill="brown"><title>.</title></rect>
<text x="20" y="70" class="sm">Fitness: 0.0002315561399581178</text>
<rect x="150" y="65" width="47" height="5" fill="#00f"><title>120907.0</title></rect>
<rect x="346" y="70" width="49" height="5" fill="#f0f"><title>24.0</title></rect>
<rect x="243" y="75" width="105" height="5" fill="#00f"><title>7.0</title></rect>
<rect x="307" y="80" width="33" height="5" fill="#00f"><title>7.0</title></rect>
<text x="20" y="110" class="sm">0.9999</text>
<rect x="100" y="100" width="50" height="12" fill="#00f"/>
<rect x="197" y="100" width="269" height="12" fill="#00f"/>
<line x1="150" y1="106" x2="196" y2="106" stroke="#00f"/>
<rect x="137" y="101" width="13" height="10" fill="#ff0"/>
<rect x="198" y="101" width="207" height="10" fill="#ff0"/>
<text x="20" y="130" class="sm">8.433e-05</text>
<rect x="100" y="120" width="54" height="12" fill="#00f"/>
<rect x="197" y="120" width="269" height="12" fill="#00f"/>
<line x1="154" y1="126" x2="196" y2="126" stroke="#00f"/>
<rect x="260" y="121" width="185" height="10" fill="#ff0"/>
<text x="20" y="150" class="sm">3.129e-05</text>
<rect x="100" y="140" width="50" height="12" fill="#00f"/>
<rect x="241" y="140" width="225" height="12" fill="#00f"/>
<line x1="150" y1="146" x2="240" y2="146" stroke="#00f"/>
<rect x="260" y="141" width="185" height="10" fill="#ff0"/>
<text x="20" y="170" class="sm">1.094e-08</text>
<rect x="100" y="160" width="50" height="12" fill="#00f"/>
<rect x="244" y="160" width="222" height="12" fill="#00f"/>
<line x1="150" y1="166" x2="243" y2="166" stroke="#00f"/>
<rect x="260" y="161" width="185" height="10" fill="#ff0"/>
<text x="20" y="190" class="sm">3.725e-09</text>
<rect x="100" y="180" width="54" height="12" fill="#00f"/>
<rect x="241" y="180" width="225" height="12" fill="#00f"/>
<line x1="154" y1="186" x2="240" y2="186" stroke="#00f"/>
<rect x="260" y="181" width="185" height="10" fill="#ff0"/>
<text x="20" y="210" class="sm">5.44e-11</text>
<rect x="100" y="200" width="50" height="12" fill="#00f"/>
<rect x="197" y="200" width="37" height="12" fill="#00f"/>
<rect x="298" y="200" width="168" height="12" fill="#00f"/>
<line x1="150" y1="206" x2="196" y2="206" stroke="#00f"/>
<line x1="234" y1="206" x2="297" y2="206" stroke="#00f"/>
<rect x="137" y="201" width="13" height="10" fill="#ff0"/>
<rect x="198" y="201" width="36" height="10" fill="#ff0"/>
<rect x="299" y="201" width="146" height="10" fill="#ff0"/>
<text x="20" y="230" class="sm">2.56e-11</text>
<rect x="100" y="220" width="50" height="12" fill="#00f"/>
<rect x="197" y="220" width="27" height="12" fill="#00f"/>
<rect x="298" y="220" width="168" height="12" fill="#00f"/>
<line x1="150" y1="226" x2="196" y2="226" stroke="#00f"/>
<line x1="224" y1="226" x2="297" y2="226" stroke="#00f"/>
<rect x="137" y="221" width="13" height="10" fill="#ff0"/>
<rect x="198" y="221" width="26" height="10" fill="#ff0"/>
<rect x="299" y="221" width="111" height="10" fill="#ff0"/>
<text x="20" y="250" class="sm">1.433e-11</text>
<rect x="100" y="240" width="50" height="12" fill="#00f"/>
<rect x="298" y="240" width="168" height="12" fill="#00f"/>
<line x1="150" y1="246" x2="297" y2="246" stroke="#00f"/>
<rect x="302" y="241" width="143" height="10" fill="#ff0"/>
<text x="20" y="270" class="sm">1.356e-11</text>
<rect x="100" y="260" width="107" height="12" fill="#00f"/>
<rect x="244" y="260" width="222" height="12" fill="#00f"/>
<line x1="207" y1="266" x2="243" y2="266" stroke="#00f"/>
<rect x="260" y="261" width="185" height="10" fill="#ff0"/>
<text x="20" y="290" class="sm">1.762e-12</text>
<rect x="100" y="280" width="134" height="12" fill="#00f"/>
<rect x="298" y="280" width="168" height="12" fill="#00f"/>
<line x1="234" y1="286" x2="297" y2="286" stroke="#00f"/>
<rect x="223" y="281" width="11" height="10" fill="#ff0"/>
<rect x="299" y="281" width="146" height="10" fill="#ff0"/>
<text x="20" y="310" class="sm">1.332e-12</text>
<rect x="100" y="300" width="54" height="12" fill="#00f"/>
<rect x="244" y="300" width="222" height="12" fill="#00f"/>
<line x1="154" y1="306" x2="243" y2="306" stroke="#00f"/>
<rect x="260" y="301" width="185" height="10" fill="#ff0"/>
<text x="20" y="330" class="sm">7.567e-13</text>
<rect x="100" y="320" width="124" height="12" fill="#00f"/>
<rect x="298" y="320" width="168" height="12" fill="#00f"/>
<line x1="224" y1="326" x2="297" y2="326" stroke="#00f"/>
<rect x="302" y="321" width="143" height="10" fill="#ff0"/>
<text x="20" y="350" class="sm">5.75e-13</text>
<rect x="100" y="340" width="50" height="12" fill="#00f"/>
<rect x="197" y="340" width="37" height="12" fill="#00f"/>
<rect x="313" y="340" width="153" height="12" fill="#00f"/>
<line x1="150" y1="346" x2="196" y2="346" stroke="#00f"/>
<line x1="234" y1="346" x2="312" y2="346" stroke="#00f"/>
<rect x="137" y="341" width="13" height="10" fill="#ff0"/>
<rect x="198" y="341" width="36" height="10" fill="#ff0"/>
<rect x="314" y="341" width="131" height="10" fill="#ff0"/>
<text x="20" y="370" class="sm">4.288e-13</text>
<rect x="100" y="360" width="50" height="12" fill="#00f"/>
<rect x="197" y="360" width="37" height="12" fill="#00f"/>
<rect x="322" y="360" width="144" height="12" fill="#00f"/>
<line x1="150" y1="366" x2="196" y2="366" stroke="#00f"/>
<line x1="234" y1="366" x2="321" y2="366" stroke="#00f"/>
<rect x="137" y="361" width="13" height="10" fill="#ff0"/>
<rect x="198" y="361" width="36" height="10" fill="#ff0"/>
<rect x="323" y="361" width="122" height="10" fill="#ff0"/>
<text x="20" y="390" class="sm">3.541e-13</text>
<rect x="100" y="380" width="50" height="12" fill="#00f"/>
<rect x="197" y="380" width="27" height="12" fill="#00f"/>
<rect x="322" y="380" width="144" height="12" fill="#00f"/>
<line x1="150" y1="386" x2="196" y2="386" stroke="#00f"/>
<line x1="224" y1="386" x2="321" y2="386" stroke="#00f"/>
<rect x="137" y="381" width="13" height="10" fill="#ff0"/>
<rect x="198" y="381" width="26" height="10" fill="#ff0"/>
<rect x="323" y="381" width="87" height="10" fill="#ff0"/>
<text x="20" y="410" class="sm">3.404e-13</text>
<rect x="100" y="400" width="50" height="12" fill="#00f"/>
<rect x="313" y="400" width="153" height="12" fill="#00f"/>
<line x1="150" y1="406" x2="312" y2="406" stroke="#00f"/>
<rect x="326" y="401" width="119" height="10" fill="#ff0"/>
<text x="20" y="430" class="sm">3.098e-13</text>
<rect x="100" y="420" width="50" height="12" fill="#00f"/>
<rect x="197" y="420" width="27" height="12" fill="#00f"/>
<rect x="313" y="420" width="153" height="12" fill="#00f"/>
<line x1="150" y1="426" x2="196" y2="426" stroke="#00f"/>
<line x1="224" y1="426" x2="312" y2="426" stroke="#00f"/>
<rect x="137" y="421" width="13" height="10" fill="#ff0"/>
<rect x="198" y="421" width="26" height="10" fill="#ff0"/>
<rect x="314" y="421" width="96" height="10" fill="#ff0"/>
<text x="20" y="450" class="sm">2.817e-13</text>
<rect x="100" y="440" width="50" height="12" fill="#00f"/>
<rect x="322" y="440" width="144" height="12" fill="#00f"/>
<line x1="150" y1="446" x2="321" y2="446" stroke="#00f"/>
<rect x="326" y="441" width="119" height="10" fill="#ff0"/>
<text x="20" y="470" class="sm">4.986e-14</text>
<rect x="100" y="460" width="50" height="12" fill="#00f"/>
<rect x="197" y="460" width="37" height="12" fill="#00f"/>
<rect x="331" y="460" width="135" height="12" fill="#00f"/>
<line x1="150" y1="466" x2="196" y2="466" stroke="#00f"/>
<line x1="234" y1="466" x2="330" y2="466" stroke="#00f"/>
<rect x="137" y="461" width="13" height="10" fill="#ff0"/>
<rect x="198" y="461" width="36" height="10" fill="#ff0"/>
<rect x="332" y="461" width="113" height="10" fill="#ff0"/>
<text x="20" y="490" class="sm">4.501e-14</text>
<rect x="100" y="480" width="50" height="12" fill="#00f"/>
<rect x="197" y="480" width="27" height="12" fill="#00f"/>
<rect x="331" y="480" width="135" height="12" fill="#00f"/>
<line x1="150" y1="486" x2="196" y2="486" stroke="#00f"/>
<line x1="224" y1="486" x2="330" y2="486" stroke="#00f"/>
<rect x="137" y="481" width="13" height="10" fill="#ff0"/>
<rect x="198" y="481" width="26" height="10" fill="#ff0"/>
<rect x="332" y="481" width="78" height="10" fill="#ff0"/>
</svg>
