<svg viewBox="0 0 623 590" xmlns="http://www.w3.org/2000/svg">

<style>
  .sm { font: 12px sans-serif; }
  .lg { font: 15px sans-serif; }
</style>
<rect fill="#ddd" x="0" y="0" width="100%" height="100%"/>
<text x="20" y="20" class="lg">ch.13397 V:3984325-3984947 Gene:WBGene00003767</text>
<text x="20" y="50" class="sm">WormBase</text>
<rect x="100" y="40" width="113" height="12" fill="#00f"/>
<rect x="282" y="40" width="241" height="12" fill="#00f"/>
<line x1="213" y1="46" x2="281" y2="46" stroke="#00f"/>
<rect x="123" y="41" width="90" height="10" fill="#ff0"/>
<rect x="283" y="41" width="130" height="10" fill="#ff0"/>
<rect x="101" y="41" width="21" height="10" fill="brown"><title>.</title></rect>
<rect x="414" y="41" width="109" height="10" fill="brown"><title>.</title></rect>
<text x="20" y="70" class="sm">Fitness: 0.004296055068139117</text>
<rect x="213" y="65" width="69" height="5" fill="#00f"><title>1521120.0</title></rect>
<rect x="217" y="70" width="68" height="5" fill="#00f"><title>2899.0</title></rect>
<rect x="327" y="75" width="72" height="5" fill="#00f"><title>277.0</title></rect>
<rect x="213" y="80" width="81" height="5" fill="#00f"><title>71.0</title></rect>
<rect x="327" y="85" width="48" height="5" fill="#00f"><title>62.0</title></rect>
<rect x="217" y="90" width="65" height="5" fill="#00f"><title>60.0</title></rect>
<rect x="213" y="95" width="72" height="5" fill="#00f"><title>50.0</title></rect>
<rect x="213" y="100" width="42" height="5" fill="#00f"><title>41.0</title></rect>
<rect x="56" y="105" width="77" height="5" fill="#f0f"><title>39.0</title></rect>
<rect x="213" y="110" width="102" height="5" fill="#00f"><title>21.0</title></rect>
<rect x="213" y="115" width="162" height="5" fill="#00f"><title>20.0</title></rect>
<rect x="56" y="120" width="46" height="5" fill="#f0f"><title>16.0</title></rect>
<rect x="185" y="125" width="142" height="5" fill="#00f"><title>12.0</title></rect>
<rect x="350" y="130" width="48" height="5" fill="#00f"><title>7.0</title></rect>
<rect x="367" y="135" width="42" height="5" fill="#00f"><title>7.0</title></rect>
<rect x="176" y="140" width="151" height="5" fill="#00f"><title>3.0</title></rect>
<rect x="332" y="145" width="48" height="5" fill="#00f"><title>3.0</title></rect>
<rect x="348" y="150" width="51" height="5" fill="#00f"><title>3.0</title></rect>
<text x="20" y="180" class="sm">0.9979</text>
<rect x="100" y="170" width="113" height="12" fill="#00f"/>
<rect x="282" y="170" width="244" height="12" fill="#00f"/>
<line x1="213" y1="176" x2="281" y2="176" stroke="#00f"/>
<rect x="123" y="171" width="90" height="10" fill="#ff0"/>
<rect x="283" y="171" width="130" height="10" fill="#ff0"/>
<text x="20" y="200" class="sm">0.001278</text>
<rect x="100" y="190" width="113" height="12" fill="#00f"/>
<rect x="294" y="190" width="232" height="12" fill="#00f"/>
<line x1="213" y1="196" x2="293" y2="196" stroke="#00f"/>
<rect x="123" y="191" width="90" height="10" fill="#ff0"/>
<rect x="295" y="191" width="118" height="10" fill="#ff0"/>
<text x="20" y="220" class="sm">0.0004342</text>
<rect x="100" y="210" width="113" height="12" fill="#00f"/>
<rect x="327" y="210" width="199" height="12" fill="#00f"/>
<line x1="213" y1="216" x2="326" y2="216" stroke="#00f"/>
<rect x="123" y="211" width="90" height="10" fill="#ff0"/>
<rect x="328" y="211" width="85" height="10" fill="#ff0"/>
<text x="20" y="240" class="sm">0.0001339</text>
<rect x="100" y="230" width="113" height="12" fill="#00f"/>
<rect x="255" y="230" width="271" height="12" fill="#00f"/>
<line x1="213" y1="236" x2="254" y2="236" stroke="#00f"/>
<rect x="123" y="231" width="90" height="10" fill="#ff0"/>
<rect x="256" y="231" width="157" height="10" fill="#ff0"/>
<text x="20" y="260" class="sm">9.428e-05</text>
<rect x="100" y="250" width="117" height="12" fill="#00f"/>
<rect x="282" y="250" width="244" height="12" fill="#00f"/>
<line x1="217" y1="256" x2="281" y2="256" stroke="#00f"/>
<rect x="123" y="251" width="94" height="10" fill="#ff0"/>
<rect x="283" y="251" width="153" height="10" fill="#ff0"/>
<text x="20" y="280" class="sm">5.709e-05</text>
<rect x="100" y="270" width="113" height="12" fill="#00f"/>
<rect x="399" y="270" width="127" height="12" fill="#00f"/>
<line x1="213" y1="276" x2="398" y2="276" stroke="#00f"/>
<rect x="123" y="271" width="90" height="10" fill="#ff0"/>
<rect x="400" y="271" width="13" height="10" fill="#ff0"/>
<text x="20" y="300" class="sm">3.915e-05</text>
<rect x="100" y="290" width="113" height="12" fill="#00f"/>
<rect x="285" y="290" width="241" height="12" fill="#00f"/>
<line x1="213" y1="296" x2="284" y2="296" stroke="#00f"/>
<rect x="123" y="291" width="90" height="10" fill="#ff0"/>
<rect x="286" y="291" width="127" height="10" fill="#ff0"/>
<text x="20" y="320" class="sm">3.103e-05</text>
<rect x="100" y="310" width="125" height="12" fill="#00f"/>
<rect x="282" y="310" width="244" height="12" fill="#00f"/>
<line x1="225" y1="316" x2="281" y2="316" stroke="#00f"/>
<rect x="199" y="311" width="26" height="10" fill="#ff0"/>
<rect x="283" y="311" width="161" height="10" fill="#ff0"/>
<text x="20" y="340" class="sm">2.525e-05</text>
<rect x="100" y="330" width="113" height="12" fill="#00f"/>
<rect x="252" y="330" width="274" height="12" fill="#00f"/>
<line x1="213" y1="336" x2="251" y2="336" stroke="#00f"/>
<rect x="123" y="331" width="90" height="10" fill="#ff0"/>
<rect x="253" y="331" width="160" height="10" fill="#ff0"/>
<text x="20" y="360" class="sm">2.496e-05</text>
<rect x="100" y="350" width="113" height="12" fill="#00f"/>
<rect x="315" y="350" width="211" height="12" fill="#00f"/>
<line x1="213" y1="356" x2="314" y2="356" stroke="#00f"/>
<rect x="123" y="351" width="90" height="10" fill="#ff0"/>
<rect x="316" y="351" width="97" height="10" fill="#ff0"/>
<text x="20" y="380" class="sm">1.18e-05</text>
<rect x="100" y="370" width="113" height="12" fill="#00f"/>
<rect x="375" y="370" width="151" height="12" fill="#00f"/>
<line x1="213" y1="376" x2="374" y2="376" stroke="#00f"/>
<rect x="123" y="371" width="90" height="10" fill="#ff0"/>
<rect x="376" y="371" width="37" height="10" fill="#ff0"/>
<text x="20" y="400" class="sm">2.156e-06</text>
<rect x="100" y="390" width="113" height="12" fill="#00f"/>
<rect x="410" y="390" width="116" height="12" fill="#00f"/>
<line x1="213" y1="396" x2="409" y2="396" stroke="#00f"/>
<rect x="123" y="391" width="90" height="10" fill="#ff0"/>
<rect x="411" y="391" width="25" height="10" fill="#ff0"/>
<text x="20" y="420" class="sm">6.033e-07</text>
<rect x="100" y="410" width="243" height="12" fill="#00f"/>
<rect x="399" y="410" width="127" height="12" fill="#00f"/>
<line x1="343" y1="416" x2="398" y2="416" stroke="#00f"/>
<rect x="123" y="411" width="113" height="10" fill="#ff0"/>
<text x="20" y="440" class="sm">5.748e-07</text>
<rect x="100" y="430" width="46" height="12" fill="#00f"/>
<rect x="282" y="430" width="244" height="12" fill="#00f"/>
<line x1="146" y1="436" x2="281" y2="436" stroke="#00f"/>
<rect x="123" y="431" width="23" height="10" fill="#ff0"/>
<rect x="283" y="431" width="161" height="10" fill="#ff0"/>
<text x="20" y="460" class="sm">2.02e-07</text>
<rect x="100" y="450" width="219" height="12" fill="#00f"/>
<rect x="399" y="450" width="127" height="12" fill="#00f"/>
<line x1="319" y1="456" x2="398" y2="456" stroke="#00f"/>
<rect x="123" y="451" width="113" height="10" fill="#ff0"/>
<text x="20" y="480" class="sm">1.158e-07</text>
<rect x="100" y="470" width="117" height="12" fill="#00f"/>
<rect x="294" y="470" width="232" height="12" fill="#00f"/>
<line x1="217" y1="476" x2="293" y2="476" stroke="#00f"/>
<rect x="123" y="471" width="94" height="10" fill="#ff0"/>
<rect x="295" y="471" width="141" height="10" fill="#ff0"/>
<text x="20" y="500" class="sm">9.155e-08</text>
<rect x="100" y="490" width="151" height="12" fill="#00f"/>
<rect x="294" y="490" width="232" height="12" fill="#00f"/>
<line x1="251" y1="496" x2="293" y2="496" stroke="#00f"/>
<rect x="199" y="491" width="52" height="10" fill="#ff0"/>
<rect x="295" y="491" width="141" height="10" fill="#ff0"/>
<text x="20" y="520" class="sm">6.373e-08</text>
<rect x="100" y="510" width="219" height="12" fill="#00f"/>
<rect x="375" y="510" width="151" height="12" fill="#00f"/>
<line x1="319" y1="516" x2="374" y2="516" stroke="#00f"/>
<rect x="123" y="511" width="113" height="10" fill="#ff0"/>
<text x="20" y="540" class="sm">3.88e-08</text>
<rect x="100" y="530" width="117" height="12" fill="#00f"/>
<rect x="327" y="530" width="199" height="12" fill="#00f"/>
<line x1="217" y1="536" x2="326" y2="536" stroke="#00f"/>
<rect x="123" y="531" width="94" height="10" fill="#ff0"/>
<rect x="328" y="531" width="108" height="10" fill="#ff0"/>
<text x="20" y="560" class="sm">3.266e-08</text>
<rect x="100" y="550" width="52" height="12" fill="#00f"/>
<rect x="282" y="550" width="244" height="12" fill="#00f"/>
<line x1="152" y1="556" x2="281" y2="556" stroke="#00f"/>
<rect x="123" y="551" width="29" height="10" fill="#ff0"/>
<rect x="283" y="551" width="161" height="10" fill="#ff0"/>
</svg>
