<svg viewBox="0 0 1008 580" xmlns="http://www.w3.org/2000/svg">

<style>
  .sm { font: 12px sans-serif; }
  .lg { font: 15px sans-serif; }
</style>
<rect fill="#ddd" x="0" y="0" width="100%" height="100%"/>
<text x="20" y="20" class="lg">ch.14069 V:7059563-7060570 Gene:WBGene00021959</text>
<text x="20" y="50" class="sm">WormBase</text>
<rect x="102" y="40" width="36" height="12" fill="#00f"/>
<rect x="214" y="40" width="126" height="12" fill="#00f"/>
<rect x="439" y="40" width="122" height="12" fill="#00f"/>
<rect x="606" y="40" width="304" height="12" fill="#00f"/>
<line x1="138" y1="46" x2="213" y2="46" stroke="#00f"/>
<line x1="340" y1="46" x2="438" y2="46" stroke="#00f"/>
<line x1="561" y1="46" x2="605" y2="46" stroke="#00f"/>
<rect x="215" y="41" width="125" height="10" fill="#ff0"/>
<rect x="440" y="41" width="121" height="10" fill="#ff0"/>
<rect x="607" y="41" width="144" height="10" fill="#ff0"/>
<rect x="103" y="41" width="35" height="10" fill="brown"><title>.</title></rect>
<rect x="752" y="41" width="158" height="10" fill="brown"><title>.</title></rect>
<text x="20" y="70" class="sm">WormBase</text>
<rect x="214" y="60" width="126" height="12" fill="#00f"/>
<rect x="439" y="60" width="122" height="12" fill="#00f"/>
<rect x="606" y="60" width="237" height="12" fill="#00f"/>
<line x1="340" y1="66" x2="438" y2="66" stroke="#00f"/>
<line x1="561" y1="66" x2="605" y2="66" stroke="#00f"/>
<rect x="215" y="61" width="125" height="10" fill="#ff0"/>
<rect x="440" y="61" width="121" height="10" fill="#ff0"/>
<rect x="607" y="61" width="144" height="10" fill="#ff0"/>
<rect x="752" y="61" width="91" height="10" fill="brown"><title>.</title></rect>
<text x="20" y="90" class="sm">Fitness: 0.02695389439550375</text>
<rect x="561" y="85" width="45" height="5" fill="#00f"><title>1514230.0</title></rect>
<rect x="340" y="90" width="99" height="5" fill="#00f"><title>1364140.0</title></rect>
<rect x="138" y="95" width="76" height="5" fill="#00f"><title>2742.0</title></rect>
<rect x="762" y="100" width="186" height="5" fill="#00f"><title>532.0</title></rect>
<rect x="561" y="105" width="67" height="5" fill="#00f"><title>74.0</title></rect>
<rect x="647" y="110" width="301" height="5" fill="#00f"><title>22.0</title></rect>
<rect x="554" y="115" width="52" height="5" fill="#00f"><title>17.0</title></rect>
<rect x="340" y="120" width="266" height="5" fill="#00f"><title>14.0</title></rect>
<rect x="521" y="125" width="85" height="5" fill="#00f"><title>11.0</title></rect>
<rect x="747" y="130" width="78" height="5" fill="#f0f"><title>8.0</title></rect>
<rect x="881" y="135" width="47" height="5" fill="#f0f"><title>7.0</title></rect>
<rect x="561" y="140" width="49" height="5" fill="#00f"><title>5.0</title></rect>
<text x="20" y="170" class="sm">0.5356</text>
<rect x="100" y="160" width="240" height="12" fill="#00f"/>
<rect x="439" y="160" width="122" height="12" fill="#00f"/>
<rect x="606" y="160" width="305" height="12" fill="#00f"/>
<line x1="340" y1="166" x2="438" y2="166" stroke="#00f"/>
<line x1="561" y1="166" x2="605" y2="166" stroke="#00f"/>
<rect x="215" y="161" width="125" height="10" fill="#ff0"/>
<rect x="440" y="161" width="121" height="10" fill="#ff0"/>
<rect x="607" y="161" width="144" height="10" fill="#ff0"/>
<text x="20" y="190" class="sm">0.2585</text>
<rect x="100" y="180" width="461" height="12" fill="#00f"/>
<rect x="606" y="180" width="305" height="12" fill="#00f"/>
<line x1="561" y1="186" x2="605" y2="186" stroke="#00f"/>
<rect x="215" y="181" width="346" height="10" fill="#ff0"/>
<rect x="607" y="181" width="144" height="10" fill="#ff0"/>
<text x="20" y="210" class="sm">0.1843</text>
<rect x="100" y="200" width="240" height="12" fill="#00f"/>
<rect x="439" y="200" width="472" height="12" fill="#00f"/>
<line x1="340" y1="206" x2="438" y2="206" stroke="#00f"/>
<rect x="215" y="201" width="125" height="10" fill="#ff0"/>
<rect x="440" y="201" width="125" height="10" fill="#ff0"/>
<text x="20" y="230" class="sm">0.004828</text>
<rect x="100" y="220" width="240" height="12" fill="#00f"/>
<rect x="439" y="220" width="130" height="12" fill="#00f"/>
<rect x="606" y="220" width="305" height="12" fill="#00f"/>
<line x1="340" y1="226" x2="438" y2="226" stroke="#00f"/>
<line x1="569" y1="226" x2="605" y2="226" stroke="#00f"/>
<rect x="215" y="221" width="125" height="10" fill="#ff0"/>
<rect x="440" y="221" width="125" height="10" fill="#ff0"/>
<text x="20" y="250" class="sm">0.004148</text>
<rect x="100" y="240" width="240" height="12" fill="#00f"/>
<rect x="439" y="240" width="122" height="12" fill="#00f"/>
<rect x="658" y="240" width="253" height="12" fill="#00f"/>
<line x1="340" y1="246" x2="438" y2="246" stroke="#00f"/>
<line x1="561" y1="246" x2="657" y2="246" stroke="#00f"/>
<rect x="215" y="241" width="125" height="10" fill="#ff0"/>
<rect x="440" y="241" width="121" height="10" fill="#ff0"/>
<rect x="659" y="241" width="84" height="10" fill="#ff0"/>
<text x="20" y="270" class="sm">0.00264</text>
<rect x="100" y="260" width="469" height="12" fill="#00f"/>
<rect x="606" y="260" width="305" height="12" fill="#00f"/>
<line x1="569" y1="266" x2="605" y2="266" stroke="#00f"/>
<rect x="215" y="261" width="350" height="10" fill="#ff0"/>
<text x="20" y="290" class="sm">0.002002</text>
<rect x="100" y="280" width="461" height="12" fill="#00f"/>
<rect x="658" y="280" width="253" height="12" fill="#00f"/>
<line x1="561" y1="286" x2="657" y2="286" stroke="#00f"/>
<rect x="215" y="281" width="346" height="10" fill="#ff0"/>
<rect x="659" y="281" width="84" height="10" fill="#ff0"/>
<text x="20" y="310" class="sm">0.001428</text>
<rect x="100" y="300" width="38" height="12" fill="#00f"/>
<rect x="189" y="300" width="151" height="12" fill="#00f"/>
<rect x="439" y="300" width="122" height="12" fill="#00f"/>
<rect x="606" y="300" width="305" height="12" fill="#00f"/>
<line x1="138" y1="306" x2="188" y2="306" stroke="#00f"/>
<line x1="340" y1="306" x2="438" y2="306" stroke="#00f"/>
<line x1="561" y1="306" x2="605" y2="306" stroke="#00f"/>
<rect x="215" y="301" width="125" height="10" fill="#ff0"/>
<rect x="440" y="301" width="121" height="10" fill="#ff0"/>
<rect x="607" y="301" width="144" height="10" fill="#ff0"/>
<text x="20" y="330" class="sm">0.001312</text>
<rect x="100" y="320" width="244" height="12" fill="#00f"/>
<rect x="439" y="320" width="122" height="12" fill="#00f"/>
<rect x="606" y="320" width="305" height="12" fill="#00f"/>
<line x1="344" y1="326" x2="438" y2="326" stroke="#00f"/>
<line x1="561" y1="326" x2="605" y2="326" stroke="#00f"/>
<rect x="215" y="321" width="129" height="10" fill="#ff0"/>
<rect x="440" y="321" width="121" height="10" fill="#ff0"/>
<rect x="607" y="321" width="2" height="10" fill="#ff0"/>
<text x="20" y="350" class="sm">0.001087</text>
<rect x="100" y="340" width="38" height="12" fill="#00f"/>
<rect x="214" y="340" width="126" height="12" fill="#00f"/>
<rect x="439" y="340" width="122" height="12" fill="#00f"/>
<rect x="606" y="340" width="305" height="12" fill="#00f"/>
<line x1="138" y1="346" x2="213" y2="346" stroke="#00f"/>
<line x1="340" y1="346" x2="438" y2="346" stroke="#00f"/>
<line x1="561" y1="346" x2="605" y2="346" stroke="#00f"/>
<rect x="253" y="341" width="87" height="10" fill="#ff0"/>
<rect x="440" y="341" width="121" height="10" fill="#ff0"/>
<rect x="607" y="341" width="182" height="10" fill="#ff0"/>
<text x="20" y="370" class="sm">0.000719</text>
<rect x="100" y="360" width="240" height="12" fill="#00f"/>
<rect x="439" y="360" width="166" height="12" fill="#00f"/>
<rect x="658" y="360" width="253" height="12" fill="#00f"/>
<line x1="340" y1="366" x2="438" y2="366" stroke="#00f"/>
<line x1="605" y1="366" x2="657" y2="366" stroke="#00f"/>
<rect x="215" y="361" width="125" height="10" fill="#ff0"/>
<rect x="440" y="361" width="125" height="10" fill="#ff0"/>
<text x="20" y="390" class="sm">0.0005411</text>
<rect x="100" y="380" width="38" height="12" fill="#00f"/>
<rect x="189" y="380" width="372" height="12" fill="#00f"/>
<rect x="606" y="380" width="305" height="12" fill="#00f"/>
<line x1="138" y1="386" x2="188" y2="386" stroke="#00f"/>
<line x1="561" y1="386" x2="605" y2="386" stroke="#00f"/>
<rect x="215" y="381" width="346" height="10" fill="#ff0"/>
<rect x="607" y="381" width="144" height="10" fill="#ff0"/>
<text x="20" y="410" class="sm">0.0004915</text>
<rect x="100" y="400" width="38" height="12" fill="#00f"/>
<rect x="189" y="400" width="151" height="12" fill="#00f"/>
<rect x="439" y="400" width="472" height="12" fill="#00f"/>
<line x1="138" y1="406" x2="188" y2="406" stroke="#00f"/>
<line x1="340" y1="406" x2="438" y2="406" stroke="#00f"/>
<rect x="215" y="401" width="125" height="10" fill="#ff0"/>
<rect x="440" y="401" width="125" height="10" fill="#ff0"/>
<text x="20" y="430" class="sm">0.0004516</text>
<rect x="100" y="420" width="244" height="12" fill="#00f"/>
<rect x="439" y="420" width="472" height="12" fill="#00f"/>
<line x1="344" y1="426" x2="438" y2="426" stroke="#00f"/>
<rect x="215" y="421" width="129" height="10" fill="#ff0"/>
<rect x="440" y="421" width="133" height="10" fill="#ff0"/>
<text x="20" y="450" class="sm">0.000426</text>
<rect x="100" y="440" width="38" height="12" fill="#00f"/>
<rect x="214" y="440" width="347" height="12" fill="#00f"/>
<rect x="606" y="440" width="305" height="12" fill="#00f"/>
<line x1="138" y1="446" x2="213" y2="446" stroke="#00f"/>
<line x1="561" y1="446" x2="605" y2="446" stroke="#00f"/>
<rect x="253" y="441" width="308" height="10" fill="#ff0"/>
<rect x="607" y="441" width="182" height="10" fill="#ff0"/>
<text x="20" y="470" class="sm">0.0003848</text>
<rect x="100" y="460" width="505" height="12" fill="#00f"/>
<rect x="658" y="460" width="253" height="12" fill="#00f"/>
<line x1="605" y1="466" x2="657" y2="466" stroke="#00f"/>
<rect x="215" y="461" width="350" height="10" fill="#ff0"/>
<text x="20" y="490" class="sm">0.0003743</text>
<rect x="100" y="480" width="38" height="12" fill="#00f"/>
<rect x="214" y="480" width="126" height="12" fill="#00f"/>
<rect x="439" y="480" width="472" height="12" fill="#00f"/>
<line x1="138" y1="486" x2="213" y2="486" stroke="#00f"/>
<line x1="340" y1="486" x2="438" y2="486" stroke="#00f"/>
<rect x="253" y="481" width="87" height="10" fill="#ff0"/>
<rect x="440" y="481" width="163" height="10" fill="#ff0"/>
<text x="20" y="510" class="sm">0.0002877</text>
<rect x="100" y="500" width="38" height="12" fill="#00f"/>
<rect x="189" y="500" width="722" height="12" fill="#00f"/>
<line x1="138" y1="506" x2="188" y2="506" stroke="#00f"/>
<rect x="215" y="501" width="350" height="10" fill="#ff0"/>
<text x="20" y="530" class="sm">0.0002698</text>
<rect x="100" y="520" width="281" height="12" fill="#00f"/>
<rect x="439" y="520" width="122" height="12" fill="#00f"/>
<rect x="606" y="520" width="305" height="12" fill="#00f"/>
<line x1="381" y1="526" x2="438" y2="526" stroke="#00f"/>
<line x1="561" y1="526" x2="605" y2="526" stroke="#00f"/>
<rect x="485" y="521" width="76" height="10" fill="#ff0"/>
<rect x="607" y="521" width="144" height="10" fill="#ff0"/>
<text x="20" y="550" class="sm">0.0002157</text>
<rect x="100" y="540" width="38" height="12" fill="#00f"/>
<rect x="214" y="540" width="697" height="12" fill="#00f"/>
<line x1="138" y1="546" x2="213" y2="546" stroke="#00f"/>
<rect x="253" y="541" width="350" height="10" fill="#ff0"/>
</svg>
