<svg viewBox="0 0 950 535" xmlns="http://www.w3.org/2000/svg">

<style>
  .sm { font: 12px sans-serif; }
  .lg { font: 15px sans-serif; }
</style>
<rect fill="#ddd" x="0" y="0" width="100%" height="100%"/>
<text x="20" y="20" class="lg">ch.11163 IV:10277160-10278109 Gene:WBGene00044922</text>
<text x="20" y="50" class="sm">WormBase</text>
<rect x="100" y="40" width="173" height="12" fill="#00f"/>
<rect x="567" y="40" width="283" height="12" fill="#00f"/>
<line x1="273" y1="46" x2="566" y2="46" stroke="#00f"/>
<rect x="210" y="41" width="63" height="10" fill="#ff0"/>
<rect x="568" y="41" width="175" height="10" fill="#ff0"/>
<rect x="101" y="41" width="108" height="10" fill="brown"><title>.</title></rect>
<rect x="744" y="41" width="106" height="10" fill="brown"><title>.</title></rect>
<text x="20" y="70" class="sm">Fitness: 0.001822041324176762</text>
<rect x="273" y="65" width="294" height="5" fill="#00f"><title>120937.0</title></rect>
<rect x="154" y="70" width="46" height="5" fill="#00f"><title>83.0</title></rect>
<rect x="614" y="75" width="90" height="5" fill="#00f"><title>15.0</title></rect>
<rect x="648" y="80" width="57" height="5" fill="#00f"><title>14.0</title></rect>
<rect x="636" y="85" width="39" height="5" fill="#00f"><title>8.0</title></rect>
<rect x="613" y="90" width="90" height="5" fill="#00f"><title>4.0</title></rect>
<rect x="609" y="95" width="96" height="5" fill="#00f"><title>3.0</title></rect>
<text x="20" y="125" class="sm">0.9992</text>
<rect x="100" y="115" width="173" height="12" fill="#00f"/>
<rect x="567" y="115" width="286" height="12" fill="#00f"/>
<line x1="273" y1="121" x2="566" y2="121" stroke="#00f"/>
<rect x="210" y="116" width="63" height="10" fill="#ff0"/>
<rect x="568" y="116" width="175" height="10" fill="#ff0"/>
<text x="20" y="145" class="sm">0.0002326</text>
<rect x="100" y="135" width="54" height="12" fill="#00f"/>
<rect x="567" y="135" width="286" height="12" fill="#00f"/>
<line x1="154" y1="141" x2="566" y2="141" stroke="#00f"/>
<rect x="582" y="136" width="161" height="10" fill="#ff0"/>
<text x="20" y="165" class="sm">0.0001525</text>
<rect x="100" y="155" width="173" height="12" fill="#00f"/>
<rect x="539" y="155" width="314" height="12" fill="#00f"/>
<line x1="273" y1="161" x2="538" y2="161" stroke="#00f"/>
<rect x="582" y="156" width="161" height="10" fill="#ff0"/>
<text x="20" y="185" class="sm">0.000138</text>
<rect x="100" y="175" width="54" height="12" fill="#00f"/>
<rect x="200" y="175" width="73" height="12" fill="#00f"/>
<rect x="567" y="175" width="286" height="12" fill="#00f"/>
<line x1="154" y1="181" x2="199" y2="181" stroke="#00f"/>
<line x1="273" y1="181" x2="566" y2="181" stroke="#00f"/>
<rect x="210" y="176" width="63" height="10" fill="#ff0"/>
<rect x="568" y="176" width="175" height="10" fill="#ff0"/>
<text x="20" y="205" class="sm">8.356e-05</text>
<rect x="100" y="195" width="121" height="12" fill="#00f"/>
<rect x="567" y="195" width="286" height="12" fill="#00f"/>
<line x1="221" y1="201" x2="566" y2="201" stroke="#00f"/>
<rect x="582" y="196" width="161" height="10" fill="#ff0"/>
<text x="20" y="225" class="sm">4.656e-05</text>
<rect x="100" y="215" width="150" height="12" fill="#00f"/>
<rect x="567" y="215" width="286" height="12" fill="#00f"/>
<line x1="250" y1="221" x2="566" y2="221" stroke="#00f"/>
<rect x="210" y="216" width="40" height="10" fill="#ff0"/>
<rect x="568" y="216" width="234" height="10" fill="#ff0"/>
<text x="20" y="245" class="sm">4e-05</text>
<rect x="100" y="235" width="173" height="12" fill="#00f"/>
<rect x="364" y="235" width="38" height="12" fill="#00f"/>
<rect x="567" y="235" width="286" height="12" fill="#00f"/>
<line x1="273" y1="241" x2="363" y2="241" stroke="#00f"/>
<line x1="402" y1="241" x2="566" y2="241" stroke="#00f"/>
<rect x="582" y="236" width="161" height="10" fill="#ff0"/>
<text x="20" y="265" class="sm">1.842e-05</text>
<rect x="100" y="255" width="173" height="12" fill="#00f"/>
<rect x="321" y="255" width="81" height="12" fill="#00f"/>
<rect x="567" y="255" width="286" height="12" fill="#00f"/>
<line x1="273" y1="261" x2="320" y2="261" stroke="#00f"/>
<line x1="402" y1="261" x2="566" y2="261" stroke="#00f"/>
<rect x="582" y="256" width="161" height="10" fill="#ff0"/>
<text x="20" y="285" class="sm">1.216e-05</text>
<rect x="100" y="275" width="173" height="12" fill="#00f"/>
<rect x="594" y="275" width="259" height="12" fill="#00f"/>
<line x1="273" y1="281" x2="593" y2="281" stroke="#00f"/>
<rect x="272" y="276" width="1" height="10" fill="#ff0"/>
<rect x="595" y="276" width="207" height="10" fill="#ff0"/>
<text x="20" y="305" class="sm">9.497e-06</text>
<rect x="100" y="295" width="173" height="12" fill="#00f"/>
<rect x="345" y="295" width="57" height="12" fill="#00f"/>
<rect x="567" y="295" width="286" height="12" fill="#00f"/>
<line x1="273" y1="301" x2="344" y2="301" stroke="#00f"/>
<line x1="402" y1="301" x2="566" y2="301" stroke="#00f"/>
<rect x="582" y="296" width="161" height="10" fill="#ff0"/>
<text x="20" y="325" class="sm">9.027e-06</text>
<rect x="100" y="315" width="173" height="12" fill="#00f"/>
<rect x="364" y="315" width="49" height="12" fill="#00f"/>
<rect x="567" y="315" width="286" height="12" fill="#00f"/>
<line x1="273" y1="321" x2="363" y2="321" stroke="#00f"/>
<line x1="413" y1="321" x2="566" y2="321" stroke="#00f"/>
<rect x="412" y="316" width="1" height="10" fill="#ff0"/>
<rect x="568" y="316" width="234" height="10" fill="#ff0"/>
<text x="20" y="345" class="sm">4.446e-06</text>
<rect x="100" y="335" width="173" height="12" fill="#00f"/>
<rect x="501" y="335" width="26" height="12" fill="#00f"/>
<rect x="567" y="335" width="286" height="12" fill="#00f"/>
<line x1="273" y1="341" x2="500" y2="341" stroke="#00f"/>
<line x1="527" y1="341" x2="566" y2="341" stroke="#00f"/>
<rect x="272" y="336" width="1" height="10" fill="#ff0"/>
<rect x="502" y="336" width="25" height="10" fill="#ff0"/>
<rect x="568" y="336" width="175" height="10" fill="#ff0"/>
<text x="20" y="365" class="sm">3.456e-06</text>
<rect x="100" y="355" width="173" height="12" fill="#00f"/>
<rect x="321" y="355" width="92" height="12" fill="#00f"/>
<rect x="567" y="355" width="286" height="12" fill="#00f"/>
<line x1="273" y1="361" x2="320" y2="361" stroke="#00f"/>
<line x1="413" y1="361" x2="566" y2="361" stroke="#00f"/>
<rect x="412" y="356" width="1" height="10" fill="#ff0"/>
<rect x="568" y="356" width="234" height="10" fill="#ff0"/>
<text x="20" y="385" class="sm">2.045e-06</text>
<rect x="100" y="375" width="173" height="12" fill="#00f"/>
<rect x="345" y="375" width="68" height="12" fill="#00f"/>
<rect x="567" y="375" width="286" height="12" fill="#00f"/>
<line x1="273" y1="381" x2="344" y2="381" stroke="#00f"/>
<line x1="413" y1="381" x2="566" y2="381" stroke="#00f"/>
<rect x="412" y="376" width="1" height="10" fill="#ff0"/>
<rect x="568" y="376" width="234" height="10" fill="#ff0"/>
<text x="20" y="405" class="sm">1.337e-06</text>
<rect x="100" y="395" width="173" height="12" fill="#00f"/>
<rect x="366" y="395" width="36" height="12" fill="#00f"/>
<rect x="567" y="395" width="286" height="12" fill="#00f"/>
<line x1="273" y1="401" x2="365" y2="401" stroke="#00f"/>
<line x1="402" y1="401" x2="566" y2="401" stroke="#00f"/>
<rect x="210" y="396" width="63" height="10" fill="#ff0"/>
<rect x="367" y="396" width="35" height="10" fill="#ff0"/>
<rect x="568" y="396" width="175" height="10" fill="#ff0"/>
<text x="20" y="425" class="sm">1.307e-06</text>
<rect x="100" y="415" width="196" height="12" fill="#00f"/>
<rect x="567" y="415" width="286" height="12" fill="#00f"/>
<line x1="296" y1="421" x2="566" y2="421" stroke="#00f"/>
<rect x="582" y="416" width="161" height="10" fill="#ff0"/>
<text x="20" y="445" class="sm">1.24e-06</text>
<rect x="100" y="435" width="173" height="12" fill="#00f"/>
<rect x="324" y="435" width="78" height="12" fill="#00f"/>
<rect x="567" y="435" width="286" height="12" fill="#00f"/>
<line x1="273" y1="441" x2="323" y2="441" stroke="#00f"/>
<line x1="402" y1="441" x2="566" y2="441" stroke="#00f"/>
<rect x="582" y="436" width="161" height="10" fill="#ff0"/>
<text x="20" y="465" class="sm">1.201e-06</text>
<rect x="100" y="455" width="114" height="12" fill="#00f"/>
<rect x="567" y="455" width="286" height="12" fill="#00f"/>
<line x1="214" y1="461" x2="566" y2="461" stroke="#00f"/>
<rect x="210" y="456" width="4" height="10" fill="#ff0"/>
<rect x="568" y="456" width="234" height="10" fill="#ff0"/>
<text x="20" y="485" class="sm">9.756e-07</text>
<rect x="100" y="475" width="173" height="12" fill="#00f"/>
<rect x="501" y="475" width="352" height="12" fill="#00f"/>
<line x1="273" y1="481" x2="500" y2="481" stroke="#00f"/>
<rect x="582" y="476" width="161" height="10" fill="#ff0"/>
<text x="20" y="505" class="sm">9.289e-07</text>
<rect x="100" y="495" width="173" height="12" fill="#00f"/>
<rect x="350" y="495" width="52" height="12" fill="#00f"/>
<rect x="567" y="495" width="286" height="12" fill="#00f"/>
<line x1="273" y1="501" x2="349" y2="501" stroke="#00f"/>
<line x1="402" y1="501" x2="566" y2="501" stroke="#00f"/>
<rect x="582" y="496" width="161" height="10" fill="#ff0"/>
</svg>
