<svg viewBox="0 0 787 565" xmlns="http://www.w3.org/2000/svg">

<style>
  .sm { font: 12px sans-serif; }
  .lg { font: 15px sans-serif; }
</style>
<rect fill="#ddd" x="0" y="0" width="100%" height="100%"/>
<text x="20" y="20" class="lg">ch.13942 V:6520335-6521121 Gene:WBGene00018489</text>
<text x="20" y="50" class="sm">WormBase</text>
<rect x="100" y="40" width="64" height="12" fill="#00f"/>
<rect x="207" y="40" width="181" height="12" fill="#00f"/>
<rect x="439" y="40" width="248" height="12" fill="#00f"/>
<line x1="164" y1="46" x2="206" y2="46" stroke="#00f"/>
<line x1="388" y1="46" x2="438" y2="46" stroke="#00f"/>
<rect x="101" y="41" width="63" height="10" fill="#ff0"/>
<rect x="208" y="41" width="180" height="10" fill="#ff0"/>
<rect x="440" y="41" width="174" height="10" fill="#ff0"/>
<rect x="615" y="41" width="72" height="10" fill="brown"><title>.</title></rect>
<text x="20" y="70" class="sm">Fitness: 0.0810702813765673</text>
<rect x="388" y="65" width="51" height="5" fill="#00f"><title>409125.0</title></rect>
<rect x="164" y="70" width="43" height="5" fill="#00f"><title>300288.0</title></rect>
<rect x="157" y="75" width="50" height="5" fill="#00f"><title>147.0</title></rect>
<rect x="486" y="80" width="54" height="5" fill="#00f"><title>52.0</title></rect>
<rect x="388" y="85" width="84" height="5" fill="#00f"><title>42.0</title></rect>
<rect x="324" y="90" width="33" height="5" fill="#00f"><title>41.0</title></rect>
<rect x="366" y="95" width="183" height="5" fill="#00f"><title>22.0</title></rect>
<rect x="150" y="100" width="220" height="5" fill="#f0f"><title>10.0</title></rect>
<rect x="388" y="105" width="93" height="5" fill="#00f"><title>9.0</title></rect>
<rect x="453" y="110" width="54" height="5" fill="#00f"><title>8.0</title></rect>
<rect x="312" y="115" width="237" height="5" fill="#00f"><title>5.0</title></rect>
<rect x="282" y="120" width="75" height="5" fill="#00f"><title>3.0</title></rect>
<rect x="453" y="125" width="45" height="5" fill="#00f"><title>3.0</title></rect>
<text x="20" y="155" class="sm">0.5733</text>
<rect x="100" y="145" width="288" height="12" fill="#00f"/>
<rect x="439" y="145" width="251" height="12" fill="#00f"/>
<line x1="388" y1="151" x2="438" y2="151" stroke="#00f"/>
<rect x="253" y="146" width="135" height="10" fill="#ff0"/>
<rect x="440" y="146" width="235" height="10" fill="#ff0"/>
<text x="20" y="175" class="sm">0.3865</text>
<rect x="100" y="165" width="64" height="12" fill="#00f"/>
<rect x="207" y="165" width="483" height="12" fill="#00f"/>
<line x1="164" y1="171" x2="206" y2="171" stroke="#00f"/>
<rect x="253" y="166" width="422" height="10" fill="#ff0"/>
<text x="20" y="195" class="sm">0.03061</text>
<rect x="100" y="185" width="57" height="12" fill="#00f"/>
<rect x="207" y="185" width="483" height="12" fill="#00f"/>
<line x1="157" y1="191" x2="206" y2="191" stroke="#00f"/>
<rect x="253" y="186" width="422" height="10" fill="#ff0"/>
<text x="20" y="215" class="sm">0.003092</text>
<rect x="100" y="205" width="68" height="12" fill="#00f"/>
<rect x="207" y="205" width="483" height="12" fill="#00f"/>
<line x1="168" y1="211" x2="206" y2="211" stroke="#00f"/>
<rect x="253" y="206" width="422" height="10" fill="#ff0"/>
<text x="20" y="235" class="sm">0.002508</text>
<rect x="100" y="225" width="266" height="12" fill="#00f"/>
<rect x="439" y="225" width="251" height="12" fill="#00f"/>
<line x1="366" y1="231" x2="438" y2="231" stroke="#00f"/>
<rect x="101" y="226" width="265" height="10" fill="#ff0"/>
<rect x="440" y="226" width="174" height="10" fill="#ff0"/>
<text x="20" y="255" class="sm">0.001127</text>
<rect x="100" y="245" width="250" height="12" fill="#00f"/>
<rect x="439" y="245" width="251" height="12" fill="#00f"/>
<line x1="350" y1="251" x2="438" y2="251" stroke="#00f"/>
<rect x="101" y="246" width="249" height="10" fill="#ff0"/>
<rect x="440" y="246" width="235" height="10" fill="#ff0"/>
<text x="20" y="275" class="sm">0.001055</text>
<rect x="100" y="265" width="275" height="12" fill="#00f"/>
<rect x="439" y="265" width="251" height="12" fill="#00f"/>
<line x1="375" y1="271" x2="438" y2="271" stroke="#00f"/>
<rect x="101" y="266" width="274" height="10" fill="#ff0"/>
<rect x="440" y="266" width="174" height="10" fill="#ff0"/>
<text x="20" y="295" class="sm">0.0004785</text>
<rect x="100" y="285" width="142" height="12" fill="#00f"/>
<rect x="288" y="285" width="402" height="12" fill="#00f"/>
<line x1="242" y1="291" x2="287" y2="291" stroke="#00f"/>
<rect x="382" y="286" width="293" height="10" fill="#ff0"/>
<text x="20" y="315" class="sm">0.0003617</text>
<rect x="100" y="305" width="224" height="12" fill="#00f"/>
<rect x="439" y="305" width="251" height="12" fill="#00f"/>
<line x1="324" y1="311" x2="438" y2="311" stroke="#00f"/>
<rect x="101" y="306" width="223" height="10" fill="#ff0"/>
<rect x="440" y="306" width="174" height="10" fill="#ff0"/>
<text x="20" y="335" class="sm">0.0002378</text>
<rect x="100" y="325" width="64" height="12" fill="#00f"/>
<rect x="439" y="325" width="251" height="12" fill="#00f"/>
<line x1="164" y1="331" x2="438" y2="331" stroke="#00f"/>
<rect x="101" y="326" width="63" height="10" fill="#ff0"/>
<rect x="440" y="326" width="235" height="10" fill="#ff0"/>
<text x="20" y="355" class="sm">0.000113</text>
<rect x="100" y="345" width="142" height="12" fill="#00f"/>
<rect x="303" y="345" width="387" height="12" fill="#00f"/>
<line x1="242" y1="351" x2="302" y2="351" stroke="#00f"/>
<rect x="382" y="346" width="293" height="10" fill="#ff0"/>
<text x="20" y="375" class="sm">0.0001062</text>
<rect x="100" y="365" width="30" height="12" fill="#00f"/>
<rect x="187" y="365" width="503" height="12" fill="#00f"/>
<line x1="130" y1="371" x2="186" y2="371" stroke="#00f"/>
<rect x="253" y="366" width="422" height="10" fill="#ff0"/>
<text x="20" y="395" class="sm">0.0001006</text>
<rect x="100" y="385" width="64" height="12" fill="#00f"/>
<rect x="246" y="385" width="444" height="12" fill="#00f"/>
<line x1="164" y1="391" x2="245" y2="391" stroke="#00f"/>
<rect x="253" y="386" width="422" height="10" fill="#ff0"/>
<text x="20" y="415" class="sm">9.702e-05</text>
<rect x="100" y="405" width="142" height="12" fill="#00f"/>
<rect x="439" y="405" width="251" height="12" fill="#00f"/>
<line x1="242" y1="411" x2="438" y2="411" stroke="#00f"/>
<rect x="101" y="406" width="141" height="10" fill="#ff0"/>
<rect x="440" y="406" width="235" height="10" fill="#ff0"/>
<text x="20" y="435" class="sm">7.818e-05</text>
<rect x="100" y="425" width="209" height="12" fill="#00f"/>
<rect x="439" y="425" width="251" height="12" fill="#00f"/>
<line x1="309" y1="431" x2="438" y2="431" stroke="#00f"/>
<rect x="101" y="426" width="208" height="10" fill="#ff0"/>
<rect x="440" y="426" width="0" height="10" fill="#ff0"/>
<text x="20" y="455" class="sm">6.864e-05</text>
<rect x="100" y="445" width="359" height="12" fill="#00f"/>
<rect x="498" y="445" width="192" height="12" fill="#00f"/>
<line x1="459" y1="451" x2="497" y2="451" stroke="#00f"/>
<rect x="253" y="446" width="206" height="10" fill="#ff0"/>
<rect x="499" y="446" width="176" height="10" fill="#ff0"/>
<text x="20" y="475" class="sm">6.12e-05</text>
<rect x="100" y="465" width="64" height="12" fill="#00f"/>
<rect x="273" y="465" width="417" height="12" fill="#00f"/>
<line x1="164" y1="471" x2="272" y2="471" stroke="#00f"/>
<rect x="382" y="466" width="293" height="10" fill="#ff0"/>
<text x="20" y="495" class="sm">5.966e-05</text>
<rect x="100" y="485" width="64" height="12" fill="#00f"/>
<rect x="303" y="485" width="387" height="12" fill="#00f"/>
<line x1="164" y1="491" x2="302" y2="491" stroke="#00f"/>
<rect x="382" y="486" width="293" height="10" fill="#ff0"/>
<text x="20" y="515" class="sm">5.407e-05</text>
<rect x="100" y="505" width="64" height="12" fill="#00f"/>
<rect x="288" y="505" width="402" height="12" fill="#00f"/>
<line x1="164" y1="511" x2="287" y2="511" stroke="#00f"/>
<rect x="382" y="506" width="293" height="10" fill="#ff0"/>
<text x="20" y="535" class="sm">4.972e-05</text>
<rect x="100" y="525" width="30" height="12" fill="#00f"/>
<rect x="207" y="525" width="483" height="12" fill="#00f"/>
<line x1="130" y1="531" x2="206" y2="531" stroke="#00f"/>
<rect x="253" y="526" width="422" height="10" fill="#ff0"/>
</svg>
