<svg viewBox="0 0 1101 575" xmlns="http://www.w3.org/2000/svg">

<style>
  .sm { font: 12px sans-serif; }
  .lg { font: 15px sans-serif; }
</style>
<rect fill="#ddd" x="0" y="0" width="100%" height="100%"/>
<text x="20" y="20" class="lg">ch.1420 I:7723656-7724756 Gene:WBGene00009191</text>
<text x="20" y="50" class="sm">WormBase</text>
<rect x="102" y="40" width="92" height="12" fill="#00f"/>
<rect x="272" y="40" width="84" height="12" fill="#00f"/>
<rect x="450" y="40" width="553" height="12" fill="#00f"/>
<line x1="194" y1="46" x2="271" y2="46" stroke="#00f"/>
<line x1="356" y1="46" x2="449" y2="46" stroke="#00f"/>
<rect x="105" y="41" width="89" height="10" fill="#ff0"/>
<rect x="273" y="41" width="83" height="10" fill="#ff0"/>
<rect x="451" y="41" width="314" height="10" fill="#ff0"/>
<rect x="103" y="41" width="1" height="10" fill="brown"><title>.</title></rect>
<rect x="766" y="41" width="237" height="10" fill="brown"><title>.</title></rect>
<text x="20" y="70" class="sm">Fitness: 0.029329372376665674</text>
<rect x="356" y="65" width="94" height="5" fill="#00f"><title>280585.0</title></rect>
<rect x="194" y="70" width="78" height="5" fill="#00f"><title>228849.0</title></rect>
<rect x="194" y="75" width="82" height="5" fill="#00f"><title>2176.0</title></rect>
<rect x="194" y="80" width="58" height="5" fill="#00f"><title>75.0</title></rect>
<rect x="360" y="85" width="95" height="5" fill="#00f"><title>34.0</title></rect>
<rect x="356" y="90" width="99" height="5" fill="#00f"><title>33.0</title></rect>
<rect x="194" y="95" width="256" height="5" fill="#00f"><title>31.0</title></rect>
<rect x="421" y="100" width="52" height="5" fill="#f0f"><title>18.0</title></rect>
<rect x="354" y="105" width="96" height="5" fill="#00f"><title>15.0</title></rect>
<rect x="198" y="110" width="74" height="5" fill="#00f"><title>13.0</title></rect>
<rect x="648" y="115" width="67" height="5" fill="#f0f"><title>8.0</title></rect>
<rect x="356" y="120" width="52" height="5" fill="#00f"><title>6.0</title></rect>
<rect x="313" y="125" width="137" height="5" fill="#00f"><title>3.0</title></rect>
<rect x="194" y="130" width="91" height="5" fill="#00f"><title>3.0</title></rect>
<rect x="198" y="135" width="78" height="5" fill="#00f"><title>3.0</title></rect>
<text x="20" y="165" class="sm">0.7623</text>
<rect x="100" y="155" width="94" height="12" fill="#00f"/>
<rect x="272" y="155" width="84" height="12" fill="#00f"/>
<rect x="450" y="155" width="554" height="12" fill="#00f"/>
<line x1="194" y1="161" x2="271" y2="161" stroke="#00f"/>
<line x1="356" y1="161" x2="449" y2="161" stroke="#00f"/>
<rect x="105" y="156" width="89" height="10" fill="#ff0"/>
<rect x="273" y="156" width="83" height="10" fill="#ff0"/>
<rect x="451" y="156" width="314" height="10" fill="#ff0"/>
<text x="20" y="185" class="sm">0.2066</text>
<rect x="100" y="175" width="256" height="12" fill="#00f"/>
<rect x="450" y="175" width="554" height="12" fill="#00f"/>
<line x1="356" y1="181" x2="449" y2="181" stroke="#00f"/>
<rect x="264" y="176" width="92" height="10" fill="#ff0"/>
<rect x="451" y="176" width="314" height="10" fill="#ff0"/>
<text x="20" y="205" class="sm">0.006188</text>
<rect x="100" y="195" width="94" height="12" fill="#00f"/>
<rect x="272" y="195" width="118" height="12" fill="#00f"/>
<rect x="450" y="195" width="554" height="12" fill="#00f"/>
<line x1="194" y1="201" x2="271" y2="201" stroke="#00f"/>
<line x1="390" y1="201" x2="449" y2="201" stroke="#00f"/>
<rect x="364" y="196" width="26" height="10" fill="#ff0"/>
<rect x="451" y="196" width="314" height="10" fill="#ff0"/>
<text x="20" y="225" class="sm">0.005509</text>
<rect x="100" y="215" width="94" height="12" fill="#00f"/>
<rect x="272" y="215" width="732" height="12" fill="#00f"/>
<line x1="194" y1="221" x2="271" y2="221" stroke="#00f"/>
<rect x="364" y="216" width="401" height="10" fill="#ff0"/>
<text x="20" y="245" class="sm">0.004375</text>
<rect x="100" y="235" width="29" height="12" fill="#00f"/>
<rect x="272" y="235" width="84" height="12" fill="#00f"/>
<rect x="450" y="235" width="554" height="12" fill="#00f"/>
<line x1="129" y1="241" x2="271" y2="241" stroke="#00f"/>
<line x1="356" y1="241" x2="449" y2="241" stroke="#00f"/>
<rect x="288" y="236" width="68" height="10" fill="#ff0"/>
<rect x="451" y="236" width="314" height="10" fill="#ff0"/>
<text x="20" y="265" class="sm">0.003082</text>
<rect x="100" y="255" width="94" height="12" fill="#00f"/>
<rect x="272" y="255" width="88" height="12" fill="#00f"/>
<rect x="450" y="255" width="554" height="12" fill="#00f"/>
<line x1="194" y1="261" x2="271" y2="261" stroke="#00f"/>
<line x1="360" y1="261" x2="449" y2="261" stroke="#00f"/>
<rect x="105" y="256" width="89" height="10" fill="#ff0"/>
<rect x="273" y="256" width="87" height="10" fill="#ff0"/>
<rect x="451" y="256" width="130" height="10" fill="#ff0"/>
<text x="20" y="285" class="sm">0.002489</text>
<rect x="100" y="275" width="94" height="12" fill="#00f"/>
<rect x="272" y="275" width="41" height="12" fill="#00f"/>
<rect x="450" y="275" width="554" height="12" fill="#00f"/>
<line x1="194" y1="281" x2="271" y2="281" stroke="#00f"/>
<line x1="313" y1="281" x2="449" y2="281" stroke="#00f"/>
<rect x="496" y="276" width="269" height="10" fill="#ff0"/>
<text x="20" y="305" class="sm">0.001917</text>
<rect x="100" y="295" width="94" height="12" fill="#00f"/>
<rect x="272" y="295" width="82" height="12" fill="#00f"/>
<rect x="450" y="295" width="554" height="12" fill="#00f"/>
<line x1="194" y1="301" x2="271" y2="301" stroke="#00f"/>
<line x1="354" y1="301" x2="449" y2="301" stroke="#00f"/>
<rect x="105" y="296" width="89" height="10" fill="#ff0"/>
<rect x="273" y="296" width="81" height="10" fill="#ff0"/>
<rect x="451" y="296" width="130" height="10" fill="#ff0"/>
<text x="20" y="325" class="sm">0.001768</text>
<rect x="100" y="315" width="290" height="12" fill="#00f"/>
<rect x="450" y="315" width="554" height="12" fill="#00f"/>
<line x1="390" y1="321" x2="449" y2="321" stroke="#00f"/>
<rect x="364" y="316" width="26" height="10" fill="#ff0"/>
<rect x="451" y="316" width="314" height="10" fill="#ff0"/>
<text x="20" y="345" class="sm">0.001711</text>
<rect x="100" y="335" width="94" height="12" fill="#00f"/>
<rect x="450" y="335" width="554" height="12" fill="#00f"/>
<line x1="194" y1="341" x2="449" y2="341" stroke="#00f"/>
<rect x="105" y="336" width="89" height="10" fill="#ff0"/>
<rect x="451" y="336" width="314" height="10" fill="#ff0"/>
<text x="20" y="365" class="sm">0.001015</text>
<rect x="100" y="355" width="94" height="12" fill="#00f"/>
<rect x="272" y="355" width="84" height="12" fill="#00f"/>
<rect x="450" y="355" width="409" height="12" fill="#00f"/>
<rect x="947" y="355" width="57" height="12" fill="#00f"/>
<line x1="194" y1="361" x2="271" y2="361" stroke="#00f"/>
<line x1="356" y1="361" x2="449" y2="361" stroke="#00f"/>
<line x1="859" y1="361" x2="946" y2="361" stroke="#00f"/>
<rect x="105" y="356" width="89" height="10" fill="#ff0"/>
<rect x="273" y="356" width="83" height="10" fill="#ff0"/>
<rect x="451" y="356" width="314" height="10" fill="#ff0"/>
<text x="20" y="385" class="sm">0.0008613</text>
<rect x="100" y="375" width="260" height="12" fill="#00f"/>
<rect x="450" y="375" width="554" height="12" fill="#00f"/>
<line x1="360" y1="381" x2="449" y2="381" stroke="#00f"/>
<rect x="496" y="376" width="269" height="10" fill="#ff0"/>
<text x="20" y="405" class="sm">0.0005117</text>
<rect x="100" y="395" width="254" height="12" fill="#00f"/>
<rect x="450" y="395" width="554" height="12" fill="#00f"/>
<line x1="354" y1="401" x2="449" y2="401" stroke="#00f"/>
<rect x="496" y="396" width="269" height="10" fill="#ff0"/>
<text x="20" y="425" class="sm">0.0004685</text>
<rect x="100" y="415" width="213" height="12" fill="#00f"/>
<rect x="450" y="415" width="554" height="12" fill="#00f"/>
<line x1="313" y1="421" x2="449" y2="421" stroke="#00f"/>
<rect x="257" y="416" width="56" height="10" fill="#ff0"/>
<rect x="451" y="416" width="314" height="10" fill="#ff0"/>
<text x="20" y="445" class="sm">0.00037</text>
<rect x="100" y="435" width="94" height="12" fill="#00f"/>
<rect x="272" y="435" width="45" height="12" fill="#00f"/>
<rect x="450" y="435" width="554" height="12" fill="#00f"/>
<line x1="194" y1="441" x2="271" y2="441" stroke="#00f"/>
<line x1="317" y1="441" x2="449" y2="441" stroke="#00f"/>
<rect x="105" y="436" width="89" height="10" fill="#ff0"/>
<rect x="273" y="436" width="44" height="10" fill="#ff0"/>
<rect x="451" y="436" width="314" height="10" fill="#ff0"/>
<text x="20" y="465" class="sm">0.0002992</text>
<rect x="100" y="455" width="94" height="12" fill="#00f"/>
<rect x="272" y="455" width="84" height="12" fill="#00f"/>
<rect x="450" y="455" width="409" height="12" fill="#00f"/>
<rect x="926" y="455" width="78" height="12" fill="#00f"/>
<line x1="194" y1="461" x2="271" y2="461" stroke="#00f"/>
<line x1="356" y1="461" x2="449" y2="461" stroke="#00f"/>
<line x1="859" y1="461" x2="925" y2="461" stroke="#00f"/>
<rect x="105" y="456" width="89" height="10" fill="#ff0"/>
<rect x="273" y="456" width="83" height="10" fill="#ff0"/>
<rect x="451" y="456" width="314" height="10" fill="#ff0"/>
<text x="20" y="485" class="sm">0.0002751</text>
<rect x="100" y="475" width="256" height="12" fill="#00f"/>
<rect x="450" y="475" width="409" height="12" fill="#00f"/>
<rect x="947" y="475" width="57" height="12" fill="#00f"/>
<line x1="356" y1="481" x2="449" y2="481" stroke="#00f"/>
<line x1="859" y1="481" x2="946" y2="481" stroke="#00f"/>
<rect x="264" y="476" width="92" height="10" fill="#ff0"/>
<rect x="451" y="476" width="314" height="10" fill="#ff0"/>
<text x="20" y="505" class="sm">0.0001553</text>
<rect x="100" y="495" width="192" height="12" fill="#00f"/>
<rect x="450" y="495" width="554" height="12" fill="#00f"/>
<line x1="292" y1="501" x2="449" y2="501" stroke="#00f"/>
<rect x="257" y="496" width="35" height="10" fill="#ff0"/>
<rect x="451" y="496" width="314" height="10" fill="#ff0"/>
<text x="20" y="525" class="sm">0.0001118</text>
<rect x="100" y="515" width="94" height="12" fill="#00f"/>
<rect x="272" y="515" width="143" height="12" fill="#00f"/>
<rect x="450" y="515" width="554" height="12" fill="#00f"/>
<line x1="194" y1="521" x2="271" y2="521" stroke="#00f"/>
<line x1="415" y1="521" x2="449" y2="521" stroke="#00f"/>
<rect x="496" y="516" width="269" height="10" fill="#ff0"/>
<text x="20" y="545" class="sm">8.34e-05</text>
<rect x="100" y="535" width="94" height="12" fill="#00f"/>
<rect x="272" y="535" width="76" height="12" fill="#00f"/>
<rect x="450" y="535" width="554" height="12" fill="#00f"/>
<line x1="194" y1="541" x2="271" y2="541" stroke="#00f"/>
<line x1="348" y1="541" x2="449" y2="541" stroke="#00f"/>
<rect x="105" y="536" width="89" height="10" fill="#ff0"/>
<rect x="273" y="536" width="75" height="10" fill="#ff0"/>
<rect x="451" y="536" width="130" height="10" fill="#ff0"/>
</svg>
