<svg viewBox="0 0 848 610" xmlns="http://www.w3.org/2000/svg">

<style>
  .sm { font: 12px sans-serif; }
  .lg { font: 15px sans-serif; }
</style>
<rect fill="#ddd" x="0" y="0" width="100%" height="100%"/>
<text x="20" y="20" class="lg">ch.15112 V:10955021-10955868 Gene:WBGene00008917</text>
<text x="20" y="50" class="sm">WormBase</text>
<rect x="100" y="40" width="112" height="12" fill="#00f"/>
<rect x="259" y="40" width="79" height="12" fill="#00f"/>
<rect x="383" y="40" width="53" height="12" fill="#00f"/>
<rect x="584" y="40" width="164" height="12" fill="#00f"/>
<line x1="212" y1="46" x2="258" y2="46" stroke="#00f"/>
<line x1="338" y1="46" x2="382" y2="46" stroke="#00f"/>
<line x1="436" y1="46" x2="583" y2="46" stroke="#00f"/>
<rect x="110" y="41" width="102" height="10" fill="#ff0"/>
<rect x="260" y="41" width="78" height="10" fill="#ff0"/>
<rect x="384" y="41" width="52" height="10" fill="#ff0"/>
<rect x="585" y="41" width="136" height="10" fill="#ff0"/>
<rect x="101" y="41" width="8" height="10" fill="brown"><title>.</title></rect>
<rect x="722" y="41" width="26" height="10" fill="brown"><title>.</title></rect>
<text x="20" y="70" class="sm">Fitness: 0.6264079719031314</text>
<rect x="338" y="65" width="45" height="5" fill="#00f"><title>171976.0</title></rect>
<rect x="436" y="70" width="148" height="5" fill="#00f"><title>161848.0</title></rect>
<rect x="212" y="75" width="47" height="5" fill="#00f"><title>137810.0</title></rect>
<rect x="338" y="80" width="40" height="5" fill="#00f"><title>6915.0</title></rect>
<rect x="207" y="85" width="52" height="5" fill="#00f"><title>2878.0</title></rect>
<rect x="332" y="90" width="46" height="5" fill="#00f"><title>214.0</title></rect>
<rect x="216" y="95" width="43" height="5" fill="#00f"><title>157.0</title></rect>
<rect x="436" y="100" width="362" height="5" fill="#00f"><title>69.0</title></rect>
<rect x="212" y="105" width="50" height="5" fill="#00f"><title>43.0</title></rect>
<rect x="332" y="110" width="51" height="5" fill="#00f"><title>40.0</title></rect>
<rect x="216" y="115" width="46" height="5" fill="#00f"><title>30.0</title></rect>
<rect x="338" y="120" width="246" height="5" fill="#00f"><title>29.0</title></rect>
<rect x="342" y="125" width="41" height="5" fill="#00f"><title>18.0</title></rect>
<rect x="431" y="130" width="153" height="5" fill="#00f"><title>15.0</title></rect>
<rect x="535" y="135" width="49" height="5" fill="#00f"><title>15.0</title></rect>
<rect x="336" y="140" width="47" height="5" fill="#00f"><title>14.0</title></rect>
<rect x="623" y="145" width="175" height="5" fill="#00f"><title>8.0</title></rect>
<rect x="436" y="150" width="188" height="5" fill="#00f"><title>7.0</title></rect>
<rect x="164" y="155" width="134" height="5" fill="#f0f"><title>6.0</title></rect>
<rect x="436" y="160" width="160" height="5" fill="#00f"><title>5.0</title></rect>
<rect x="336" y="165" width="42" height="5" fill="#00f"><title>3.0</title></rect>
<rect x="338" y="170" width="46" height="5" fill="#00f"><title>3.0</title></rect>
<text x="20" y="200" class="sm">0.2503</text>
<rect x="100" y="190" width="112" height="12" fill="#00f"/>
<rect x="259" y="190" width="79" height="12" fill="#00f"/>
<rect x="383" y="190" width="48" height="12" fill="#00f"/>
<rect x="584" y="190" width="167" height="12" fill="#00f"/>
<line x1="212" y1="196" x2="258" y2="196" stroke="#00f"/>
<line x1="338" y1="196" x2="382" y2="196" stroke="#00f"/>
<line x1="431" y1="196" x2="583" y2="196" stroke="#00f"/>
<rect x="110" y="191" width="102" height="10" fill="#ff0"/>
<rect x="260" y="191" width="78" height="10" fill="#ff0"/>
<rect x="384" y="191" width="47" height="10" fill="#ff0"/>
<rect x="585" y="191" width="105" height="10" fill="#ff0"/>
<text x="20" y="220" class="sm">0.205</text>
<rect x="100" y="210" width="112" height="12" fill="#00f"/>
<rect x="259" y="210" width="79" height="12" fill="#00f"/>
<rect x="383" y="210" width="368" height="12" fill="#00f"/>
<line x1="212" y1="216" x2="258" y2="216" stroke="#00f"/>
<line x1="338" y1="216" x2="382" y2="216" stroke="#00f"/>
<rect x="110" y="211" width="102" height="10" fill="#ff0"/>
<rect x="260" y="211" width="78" height="10" fill="#ff0"/>
<rect x="384" y="211" width="129" height="10" fill="#ff0"/>
<text x="20" y="240" class="sm">0.1004</text>
<rect x="100" y="230" width="112" height="12" fill="#00f"/>
<rect x="259" y="230" width="79" height="12" fill="#00f"/>
<rect x="383" y="230" width="48" height="12" fill="#00f"/>
<rect x="532" y="230" width="219" height="12" fill="#00f"/>
<line x1="212" y1="236" x2="258" y2="236" stroke="#00f"/>
<line x1="338" y1="236" x2="382" y2="236" stroke="#00f"/>
<line x1="431" y1="236" x2="531" y2="236" stroke="#00f"/>
<rect x="110" y="231" width="102" height="10" fill="#ff0"/>
<rect x="260" y="231" width="78" height="10" fill="#ff0"/>
<rect x="384" y="231" width="47" height="10" fill="#ff0"/>
<rect x="533" y="231" width="3" height="10" fill="#ff0"/>
<text x="20" y="260" class="sm">0.08667</text>
<rect x="100" y="250" width="112" height="12" fill="#00f"/>
<rect x="259" y="250" width="79" height="12" fill="#00f"/>
<rect x="383" y="250" width="53" height="12" fill="#00f"/>
<rect x="584" y="250" width="167" height="12" fill="#00f"/>
<line x1="212" y1="256" x2="258" y2="256" stroke="#00f"/>
<line x1="338" y1="256" x2="382" y2="256" stroke="#00f"/>
<line x1="436" y1="256" x2="583" y2="256" stroke="#00f"/>
<rect x="110" y="251" width="102" height="10" fill="#ff0"/>
<rect x="260" y="251" width="78" height="10" fill="#ff0"/>
<rect x="384" y="251" width="52" height="10" fill="#ff0"/>
<rect x="585" y="251" width="136" height="10" fill="#ff0"/>
<text x="20" y="280" class="sm">0.04364</text>
<rect x="100" y="270" width="238" height="12" fill="#00f"/>
<rect x="383" y="270" width="48" height="12" fill="#00f"/>
<rect x="584" y="270" width="167" height="12" fill="#00f"/>
<line x1="338" y1="276" x2="382" y2="276" stroke="#00f"/>
<line x1="431" y1="276" x2="583" y2="276" stroke="#00f"/>
<rect x="313" y="271" width="25" height="10" fill="#ff0"/>
<rect x="384" y="271" width="47" height="10" fill="#ff0"/>
<rect x="585" y="271" width="105" height="10" fill="#ff0"/>
<text x="20" y="300" class="sm">0.04078</text>
<rect x="100" y="290" width="112" height="12" fill="#00f"/>
<rect x="259" y="290" width="79" height="12" fill="#00f"/>
<rect x="383" y="290" width="64" height="12" fill="#00f"/>
<rect x="584" y="290" width="167" height="12" fill="#00f"/>
<line x1="212" y1="296" x2="258" y2="296" stroke="#00f"/>
<line x1="338" y1="296" x2="382" y2="296" stroke="#00f"/>
<line x1="447" y1="296" x2="583" y2="296" stroke="#00f"/>
<rect x="110" y="291" width="102" height="10" fill="#ff0"/>
<rect x="260" y="291" width="78" height="10" fill="#ff0"/>
<rect x="384" y="291" width="63" height="10" fill="#ff0"/>
<rect x="585" y="291" width="29" height="10" fill="#ff0"/>
<text x="20" y="320" class="sm">0.03818</text>
<rect x="100" y="310" width="112" height="12" fill="#00f"/>
<rect x="259" y="310" width="79" height="12" fill="#00f"/>
<rect x="383" y="310" width="53" height="12" fill="#00f"/>
<rect x="532" y="310" width="219" height="12" fill="#00f"/>
<line x1="212" y1="316" x2="258" y2="316" stroke="#00f"/>
<line x1="338" y1="316" x2="382" y2="316" stroke="#00f"/>
<line x1="436" y1="316" x2="531" y2="316" stroke="#00f"/>
<rect x="110" y="311" width="102" height="10" fill="#ff0"/>
<rect x="260" y="311" width="78" height="10" fill="#ff0"/>
<rect x="384" y="311" width="52" height="10" fill="#ff0"/>
<rect x="533" y="311" width="31" height="10" fill="#ff0"/>
<text x="20" y="340" class="sm">0.03658</text>
<rect x="100" y="330" width="112" height="12" fill="#00f"/>
<rect x="259" y="330" width="79" height="12" fill="#00f"/>
<rect x="383" y="330" width="48" height="12" fill="#00f"/>
<rect x="624" y="330" width="127" height="12" fill="#00f"/>
<line x1="212" y1="336" x2="258" y2="336" stroke="#00f"/>
<line x1="338" y1="336" x2="382" y2="336" stroke="#00f"/>
<line x1="431" y1="336" x2="623" y2="336" stroke="#00f"/>
<rect x="110" y="331" width="102" height="10" fill="#ff0"/>
<rect x="260" y="331" width="78" height="10" fill="#ff0"/>
<rect x="384" y="331" width="47" height="10" fill="#ff0"/>
<rect x="625" y="331" width="96" height="10" fill="#ff0"/>
<text x="20" y="360" class="sm">0.03575</text>
<rect x="100" y="350" width="238" height="12" fill="#00f"/>
<rect x="383" y="350" width="368" height="12" fill="#00f"/>
<line x1="338" y1="356" x2="382" y2="356" stroke="#00f"/>
<rect x="313" y="351" width="25" height="10" fill="#ff0"/>
<rect x="384" y="351" width="129" height="10" fill="#ff0"/>
<text x="20" y="380" class="sm">0.01751</text>
<rect x="100" y="370" width="238" height="12" fill="#00f"/>
<rect x="383" y="370" width="48" height="12" fill="#00f"/>
<rect x="532" y="370" width="219" height="12" fill="#00f"/>
<line x1="338" y1="376" x2="382" y2="376" stroke="#00f"/>
<line x1="431" y1="376" x2="531" y2="376" stroke="#00f"/>
<rect x="565" y="371" width="125" height="10" fill="#ff0"/>
<text x="20" y="400" class="sm">0.01721</text>
<rect x="100" y="390" width="66" height="12" fill="#00f"/>
<rect x="259" y="390" width="79" height="12" fill="#00f"/>
<rect x="383" y="390" width="48" height="12" fill="#00f"/>
<rect x="584" y="390" width="167" height="12" fill="#00f"/>
<line x1="166" y1="396" x2="258" y2="396" stroke="#00f"/>
<line x1="338" y1="396" x2="382" y2="396" stroke="#00f"/>
<line x1="431" y1="396" x2="583" y2="396" stroke="#00f"/>
<rect x="313" y="391" width="25" height="10" fill="#ff0"/>
<rect x="384" y="391" width="47" height="10" fill="#ff0"/>
<rect x="585" y="391" width="105" height="10" fill="#ff0"/>
<text x="20" y="420" class="sm">0.01711</text>
<rect x="100" y="410" width="116" height="12" fill="#00f"/>
<rect x="259" y="410" width="79" height="12" fill="#00f"/>
<rect x="383" y="410" width="48" height="12" fill="#00f"/>
<rect x="584" y="410" width="167" height="12" fill="#00f"/>
<line x1="216" y1="416" x2="258" y2="416" stroke="#00f"/>
<line x1="338" y1="416" x2="382" y2="416" stroke="#00f"/>
<line x1="431" y1="416" x2="583" y2="416" stroke="#00f"/>
<rect x="313" y="411" width="25" height="10" fill="#ff0"/>
<rect x="384" y="411" width="47" height="10" fill="#ff0"/>
<rect x="585" y="411" width="105" height="10" fill="#ff0"/>
<text x="20" y="440" class="sm">0.01701</text>
<rect x="100" y="430" width="112" height="12" fill="#00f"/>
<rect x="259" y="430" width="79" height="12" fill="#00f"/>
<rect x="383" y="430" width="240" height="12" fill="#00f"/>
<rect x="683" y="430" width="68" height="12" fill="#00f"/>
<line x1="212" y1="436" x2="258" y2="436" stroke="#00f"/>
<line x1="338" y1="436" x2="382" y2="436" stroke="#00f"/>
<line x1="623" y1="436" x2="682" y2="436" stroke="#00f"/>
<rect x="110" y="431" width="102" height="10" fill="#ff0"/>
<rect x="260" y="431" width="78" height="10" fill="#ff0"/>
<rect x="384" y="431" width="129" height="10" fill="#ff0"/>
<text x="20" y="460" class="sm">0.01615</text>
<rect x="100" y="450" width="112" height="12" fill="#00f"/>
<rect x="259" y="450" width="79" height="12" fill="#00f"/>
<rect x="383" y="450" width="64" height="12" fill="#00f"/>
<rect x="532" y="450" width="219" height="12" fill="#00f"/>
<line x1="212" y1="456" x2="258" y2="456" stroke="#00f"/>
<line x1="338" y1="456" x2="382" y2="456" stroke="#00f"/>
<line x1="447" y1="456" x2="531" y2="456" stroke="#00f"/>
<rect x="110" y="451" width="102" height="10" fill="#ff0"/>
<rect x="260" y="451" width="78" height="10" fill="#ff0"/>
<rect x="384" y="451" width="63" height="10" fill="#ff0"/>
<rect x="533" y="451" width="26" height="10" fill="#ff0"/>
<text x="20" y="480" class="sm">0.01511</text>
<rect x="100" y="470" width="238" height="12" fill="#00f"/>
<rect x="383" y="470" width="53" height="12" fill="#00f"/>
<rect x="584" y="470" width="167" height="12" fill="#00f"/>
<line x1="338" y1="476" x2="382" y2="476" stroke="#00f"/>
<line x1="436" y1="476" x2="583" y2="476" stroke="#00f"/>
<rect x="313" y="471" width="25" height="10" fill="#ff0"/>
<rect x="384" y="471" width="52" height="10" fill="#ff0"/>
<rect x="585" y="471" width="136" height="10" fill="#ff0"/>
<text x="20" y="500" class="sm">0.0141</text>
<rect x="100" y="490" width="66" height="12" fill="#00f"/>
<rect x="259" y="490" width="79" height="12" fill="#00f"/>
<rect x="383" y="490" width="368" height="12" fill="#00f"/>
<line x1="166" y1="496" x2="258" y2="496" stroke="#00f"/>
<line x1="338" y1="496" x2="382" y2="496" stroke="#00f"/>
<rect x="313" y="491" width="25" height="10" fill="#ff0"/>
<rect x="384" y="491" width="129" height="10" fill="#ff0"/>
<text x="20" y="520" class="sm">0.01402</text>
<rect x="100" y="510" width="116" height="12" fill="#00f"/>
<rect x="259" y="510" width="79" height="12" fill="#00f"/>
<rect x="383" y="510" width="368" height="12" fill="#00f"/>
<line x1="216" y1="516" x2="258" y2="516" stroke="#00f"/>
<line x1="338" y1="516" x2="382" y2="516" stroke="#00f"/>
<rect x="313" y="511" width="25" height="10" fill="#ff0"/>
<rect x="384" y="511" width="129" height="10" fill="#ff0"/>
<text x="20" y="540" class="sm">0.01356</text>
<rect x="100" y="530" width="112" height="12" fill="#00f"/>
<rect x="259" y="530" width="79" height="12" fill="#00f"/>
<rect x="383" y="530" width="53" height="12" fill="#00f"/>
<rect x="624" y="530" width="127" height="12" fill="#00f"/>
<line x1="212" y1="536" x2="258" y2="536" stroke="#00f"/>
<line x1="338" y1="536" x2="382" y2="536" stroke="#00f"/>
<line x1="436" y1="536" x2="623" y2="536" stroke="#00f"/>
<rect x="110" y="531" width="102" height="10" fill="#ff0"/>
<rect x="260" y="531" width="78" height="10" fill="#ff0"/>
<rect x="384" y="531" width="52" height="10" fill="#ff0"/>
<rect x="625" y="531" width="28" height="10" fill="#ff0"/>
<text x="20" y="560" class="sm">0.01163</text>
<rect x="100" y="550" width="112" height="12" fill="#00f"/>
<rect x="259" y="550" width="79" height="12" fill="#00f"/>
<rect x="584" y="550" width="167" height="12" fill="#00f"/>
<line x1="212" y1="556" x2="258" y2="556" stroke="#00f"/>
<line x1="338" y1="556" x2="583" y2="556" stroke="#00f"/>
<rect x="110" y="551" width="102" height="10" fill="#ff0"/>
<rect x="260" y="551" width="78" height="10" fill="#ff0"/>
<rect x="585" y="551" width="105" height="10" fill="#ff0"/>
<text x="20" y="580" class="sm">0.009274</text>
<rect x="100" y="570" width="112" height="12" fill="#00f"/>
<rect x="259" y="570" width="79" height="12" fill="#00f"/>
<rect x="428" y="570" width="323" height="12" fill="#00f"/>
<line x1="212" y1="576" x2="258" y2="576" stroke="#00f"/>
<line x1="338" y1="576" x2="427" y2="576" stroke="#00f"/>
<rect x="110" y="571" width="102" height="10" fill="#ff0"/>
<rect x="260" y="571" width="78" height="10" fill="#ff0"/>
<rect x="429" y="571" width="84" height="10" fill="#ff0"/>
</svg>
