<svg viewBox="0 0 712 540" xmlns="http://www.w3.org/2000/svg">

<style>
  .sm { font: 12px sans-serif; }
  .lg { font: 15px sans-serif; }
</style>
<rect fill="#ddd" x="0" y="0" width="100%" height="100%"/>
<text x="20" y="20" class="lg">ch.2947 II:41371-42082 Gene:WBGene00017750</text>
<text x="20" y="50" class="sm">WormBase</text>
<rect x="102" y="40" width="139" height="12" fill="#00f"/>
<rect x="402" y="40" width="212" height="12" fill="#00f"/>
<line x1="241" y1="46" x2="401" y2="46" stroke="#00f"/>
<rect x="107" y="41" width="134" height="10" fill="#ff0"/>
<rect x="403" y="41" width="155" height="10" fill="#ff0"/>
<rect x="103" y="41" width="3" height="10" fill="brown"><title>.</title></rect>
<rect x="559" y="41" width="55" height="10" fill="brown"><title>.</title></rect>
<text x="20" y="70" class="sm">Fitness: 1.5339832050839195</text>
<rect x="241" y="65" width="161" height="5" fill="#00f"><title>307510.0</title></rect>
<rect x="184" y="70" width="218" height="5" fill="#00f"><title>205.0</title></rect>
<rect x="220" y="75" width="182" height="5" fill="#00f"><title>73.0</title></rect>
<rect x="226" y="80" width="50" height="5" fill="#f0f"><title>26.0</title></rect>
<rect x="360" y="85" width="42" height="5" fill="#00f"><title>20.0</title></rect>
<rect x="241" y="90" width="146" height="5" fill="#00f"><title>11.0</title></rect>
<rect x="33" y="95" width="69" height="5" fill="#00f"><title>5.0</title></rect>
<rect x="214" y="100" width="188" height="5" fill="#00f"><title>3.0</title></rect>
<text x="20" y="130" class="sm">0.279</text>
<rect x="100" y="120" width="114" height="12" fill="#00f"/>
<rect x="402" y="120" width="213" height="12" fill="#00f"/>
<line x1="214" y1="126" x2="401" y2="126" stroke="#00f"/>
<rect x="107" y="121" width="107" height="10" fill="#ff0"/>
<rect x="403" y="121" width="155" height="10" fill="#ff0"/>
<text x="20" y="150" class="sm">0.2328</text>
<rect x="100" y="140" width="141" height="12" fill="#00f"/>
<rect x="402" y="140" width="213" height="12" fill="#00f"/>
<line x1="241" y1="146" x2="401" y2="146" stroke="#00f"/>
<rect x="107" y="141" width="134" height="10" fill="#ff0"/>
<rect x="403" y="141" width="155" height="10" fill="#ff0"/>
<text x="20" y="170" class="sm">0.1184</text>
<rect x="100" y="160" width="210" height="12" fill="#00f"/>
<rect x="402" y="160" width="213" height="12" fill="#00f"/>
<line x1="310" y1="166" x2="401" y2="166" stroke="#00f"/>
<rect x="107" y="161" width="140" height="10" fill="#ff0"/>
<text x="20" y="190" class="sm">0.07615</text>
<rect x="100" y="180" width="219" height="12" fill="#00f"/>
<rect x="402" y="180" width="213" height="12" fill="#00f"/>
<line x1="319" y1="186" x2="401" y2="186" stroke="#00f"/>
<rect x="107" y="181" width="140" height="10" fill="#ff0"/>
<text x="20" y="210" class="sm">0.0731</text>
<rect x="100" y="200" width="114" height="12" fill="#00f"/>
<rect x="387" y="200" width="228" height="12" fill="#00f"/>
<line x1="214" y1="206" x2="386" y2="206" stroke="#00f"/>
<rect x="107" y="201" width="107" height="10" fill="#ff0"/>
<rect x="388" y="201" width="14" height="10" fill="#ff0"/>
<text x="20" y="230" class="sm">0.06109</text>
<rect x="100" y="220" width="141" height="12" fill="#00f"/>
<rect x="387" y="220" width="228" height="12" fill="#00f"/>
<line x1="241" y1="226" x2="386" y2="226" stroke="#00f"/>
<rect x="107" y="221" width="134" height="10" fill="#ff0"/>
<rect x="388" y="221" width="14" height="10" fill="#ff0"/>
<text x="20" y="250" class="sm">0.04917</text>
<rect x="100" y="240" width="120" height="12" fill="#00f"/>
<rect x="402" y="240" width="213" height="12" fill="#00f"/>
<line x1="220" y1="246" x2="401" y2="246" stroke="#00f"/>
<rect x="107" y="241" width="113" height="10" fill="#ff0"/>
<rect x="403" y="241" width="155" height="10" fill="#ff0"/>
<text x="20" y="270" class="sm">0.03276</text>
<rect x="100" y="260" width="210" height="12" fill="#00f"/>
<rect x="387" y="260" width="228" height="12" fill="#00f"/>
<line x1="310" y1="266" x2="386" y2="266" stroke="#00f"/>
<rect x="107" y="261" width="140" height="10" fill="#ff0"/>
<text x="20" y="290" class="sm">0.02118</text>
<rect x="100" y="280" width="219" height="12" fill="#00f"/>
<rect x="387" y="280" width="228" height="12" fill="#00f"/>
<line x1="319" y1="286" x2="386" y2="286" stroke="#00f"/>
<rect x="264" y="281" width="55" height="10" fill="#ff0"/>
<rect x="388" y="281" width="90" height="10" fill="#ff0"/>
<text x="20" y="310" class="sm">0.01767</text>
<rect x="100" y="300" width="84" height="12" fill="#00f"/>
<rect x="402" y="300" width="213" height="12" fill="#00f"/>
<line x1="184" y1="306" x2="401" y2="306" stroke="#00f"/>
<rect x="107" y="301" width="77" height="10" fill="#ff0"/>
<rect x="403" y="301" width="155" height="10" fill="#ff0"/>
<text x="20" y="330" class="sm">0.01296</text>
<rect x="100" y="320" width="120" height="12" fill="#00f"/>
<rect x="387" y="320" width="228" height="12" fill="#00f"/>
<line x1="220" y1="326" x2="386" y2="326" stroke="#00f"/>
<rect x="107" y="321" width="113" height="10" fill="#ff0"/>
<rect x="388" y="321" width="14" height="10" fill="#ff0"/>
<text x="20" y="350" class="sm">0.01113</text>
<rect x="100" y="340" width="249" height="12" fill="#00f"/>
<rect x="402" y="340" width="213" height="12" fill="#00f"/>
<line x1="349" y1="346" x2="401" y2="346" stroke="#00f"/>
<rect x="107" y="341" width="140" height="10" fill="#ff0"/>
<text x="20" y="370" class="sm">0.004618</text>
<rect x="100" y="360" width="84" height="12" fill="#00f"/>
<rect x="387" y="360" width="228" height="12" fill="#00f"/>
<line x1="184" y1="366" x2="386" y2="366" stroke="#00f"/>
<rect x="107" y="361" width="77" height="10" fill="#ff0"/>
<rect x="388" y="361" width="14" height="10" fill="#ff0"/>
<text x="20" y="390" class="sm">0.002883</text>
<rect x="100" y="380" width="260" height="12" fill="#00f"/>
<rect x="402" y="380" width="213" height="12" fill="#00f"/>
<line x1="360" y1="386" x2="401" y2="386" stroke="#00f"/>
<rect x="107" y="381" width="140" height="10" fill="#ff0"/>
<text x="20" y="410" class="sm">0.00253</text>
<rect x="100" y="400" width="249" height="12" fill="#00f"/>
<rect x="387" y="400" width="228" height="12" fill="#00f"/>
<line x1="349" y1="406" x2="386" y2="406" stroke="#00f"/>
<rect x="107" y="401" width="140" height="10" fill="#ff0"/>
<text x="20" y="430" class="sm">0.001189</text>
<rect x="100" y="420" width="114" height="12" fill="#00f"/>
<rect x="540" y="420" width="75" height="12" fill="#00f"/>
<line x1="214" y1="426" x2="539" y2="426" stroke="#00f"/>
<rect x="107" y="421" width="107" height="10" fill="#ff0"/>
<rect x="541" y="421" width="17" height="10" fill="#ff0"/>
<text x="20" y="450" class="sm">0.001036</text>
<rect x="100" y="440" width="114" height="12" fill="#00f"/>
<rect x="359" y="440" width="256" height="12" fill="#00f"/>
<line x1="214" y1="446" x2="358" y2="446" stroke="#00f"/>
<rect x="107" y="441" width="107" height="10" fill="#ff0"/>
<rect x="360" y="441" width="47" height="10" fill="#ff0"/>
<text x="20" y="470" class="sm">0.0009838</text>
<rect x="100" y="460" width="141" height="12" fill="#00f"/>
<rect x="540" y="460" width="75" height="12" fill="#00f"/>
<line x1="241" y1="466" x2="539" y2="466" stroke="#00f"/>
<rect x="107" y="461" width="134" height="10" fill="#ff0"/>
<rect x="541" y="461" width="17" height="10" fill="#ff0"/>
<text x="20" y="490" class="sm">0.000847</text>
<rect x="100" y="480" width="141" height="12" fill="#00f"/>
<rect x="359" y="480" width="256" height="12" fill="#00f"/>
<line x1="241" y1="486" x2="358" y2="486" stroke="#00f"/>
<rect x="107" y="481" width="134" height="10" fill="#ff0"/>
<rect x="360" y="481" width="47" height="10" fill="#ff0"/>
<text x="20" y="510" class="sm">0.0005865</text>
<rect x="100" y="500" width="210" height="12" fill="#00f"/>
<rect x="359" y="500" width="256" height="12" fill="#00f"/>
<line x1="310" y1="506" x2="358" y2="506" stroke="#00f"/>
<rect x="107" y="501" width="140" height="10" fill="#ff0"/>
</svg>
