<svg viewBox="0 0 706 530" xmlns="http://www.w3.org/2000/svg">

<style>
  .sm { font: 12px sans-serif; }
  .lg { font: 15px sans-serif; }
</style>
<rect fill="#ddd" x="0" y="0" width="100%" height="100%"/>
<text x="20" y="20" class="lg">ch.267 I:2064876-2065581 Gene:WBGene00021348</text>
<text x="20" y="50" class="sm">WormBase</text>
<rect x="100" y="40" width="194" height="12" fill="#00f"/>
<rect x="357" y="40" width="249" height="12" fill="#00f"/>
<line x1="294" y1="46" x2="356" y2="46" stroke="#00f"/>
<rect x="193" y="41" width="101" height="10" fill="#ff0"/>
<rect x="358" y="41" width="146" height="10" fill="#ff0"/>
<rect x="101" y="41" width="91" height="10" fill="brown"><title>.</title></rect>
<rect x="505" y="41" width="101" height="10" fill="brown"><title>.</title></rect>
<text x="20" y="70" class="sm">Fitness: 1.0183493351977164e-05</text>
<rect x="294" y="65" width="63" height="5" fill="#00f"><title>1819810.0</title></rect>
<rect x="294" y="70" width="44" height="5" fill="#00f"><title>136.0</title></rect>
<rect x="610" y="75" width="87" height="5" fill="#f0f"><title>26.0</title></rect>
<rect x="298" y="80" width="59" height="5" fill="#00f"><title>7.0</title></rect>
<rect x="51" y="85" width="49" height="5" fill="#00f"><title>5.0</title></rect>
<rect x="292" y="90" width="405" height="5" fill="#f0f"><title>4.0</title></rect>
<text x="20" y="120" class="sm">0.9999</text>
<rect x="100" y="110" width="194" height="12" fill="#00f"/>
<rect x="357" y="110" width="252" height="12" fill="#00f"/>
<line x1="294" y1="116" x2="356" y2="116" stroke="#00f"/>
<rect x="193" y="111" width="101" height="10" fill="#ff0"/>
<rect x="358" y="111" width="146" height="10" fill="#ff0"/>
<text x="20" y="140" class="sm">7.474e-05</text>
<rect x="100" y="130" width="194" height="12" fill="#00f"/>
<rect x="338" y="130" width="271" height="12" fill="#00f"/>
<line x1="294" y1="136" x2="337" y2="136" stroke="#00f"/>
<rect x="193" y="131" width="101" height="10" fill="#ff0"/>
<rect x="339" y="131" width="56" height="10" fill="#ff0"/>
<text x="20" y="160" class="sm">4.722e-06</text>
<rect x="100" y="150" width="198" height="12" fill="#00f"/>
<rect x="357" y="150" width="252" height="12" fill="#00f"/>
<line x1="298" y1="156" x2="356" y2="156" stroke="#00f"/>
<rect x="193" y="151" width="105" height="10" fill="#ff0"/>
<rect x="358" y="151" width="37" height="10" fill="#ff0"/>
<text x="20" y="180" class="sm">4.139e-06</text>
<rect x="100" y="170" width="123" height="12" fill="#00f"/>
<rect x="357" y="170" width="252" height="12" fill="#00f"/>
<line x1="223" y1="176" x2="356" y2="176" stroke="#00f"/>
<rect x="367" y="171" width="137" height="10" fill="#ff0"/>
<text x="20" y="200" class="sm">6.119e-08</text>
<rect x="100" y="190" width="123" height="12" fill="#00f"/>
<rect x="267" y="190" width="27" height="12" fill="#00f"/>
<rect x="357" y="190" width="252" height="12" fill="#00f"/>
<line x1="223" y1="196" x2="266" y2="196" stroke="#00f"/>
<line x1="294" y1="196" x2="356" y2="196" stroke="#00f"/>
<rect x="367" y="191" width="137" height="10" fill="#ff0"/>
<text x="20" y="220" class="sm">4.354e-10</text>
<rect x="100" y="210" width="47" height="12" fill="#00f"/>
<rect x="212" y="210" width="82" height="12" fill="#00f"/>
<rect x="357" y="210" width="252" height="12" fill="#00f"/>
<line x1="147" y1="216" x2="211" y2="216" stroke="#00f"/>
<line x1="294" y1="216" x2="356" y2="216" stroke="#00f"/>
<rect x="367" y="211" width="137" height="10" fill="#ff0"/>
<text x="20" y="240" class="sm">3.984e-10</text>
<rect x="100" y="230" width="47" height="12" fill="#00f"/>
<rect x="357" y="230" width="252" height="12" fill="#00f"/>
<line x1="147" y1="236" x2="356" y2="236" stroke="#00f"/>
<rect x="367" y="231" width="137" height="10" fill="#ff0"/>
<text x="20" y="260" class="sm">1.815e-10</text>
<rect x="100" y="250" width="45" height="12" fill="#00f"/>
<rect x="357" y="250" width="252" height="12" fill="#00f"/>
<line x1="145" y1="256" x2="356" y2="256" stroke="#00f"/>
<rect x="367" y="251" width="137" height="10" fill="#ff0"/>
<text x="20" y="280" class="sm">1.785e-10</text>
<rect x="100" y="270" width="45" height="12" fill="#00f"/>
<rect x="212" y="270" width="82" height="12" fill="#00f"/>
<rect x="357" y="270" width="252" height="12" fill="#00f"/>
<line x1="145" y1="276" x2="211" y2="276" stroke="#00f"/>
<line x1="294" y1="276" x2="356" y2="276" stroke="#00f"/>
<rect x="367" y="271" width="137" height="10" fill="#ff0"/>
<text x="20" y="300" class="sm">1.278e-10</text>
<rect x="100" y="290" width="198" height="12" fill="#00f"/>
<rect x="338" y="290" width="271" height="12" fill="#00f"/>
<line x1="298" y1="296" x2="337" y2="296" stroke="#00f"/>
<rect x="193" y="291" width="105" height="10" fill="#ff0"/>
<rect x="339" y="291" width="43" height="10" fill="#ff0"/>
<text x="20" y="320" class="sm">8.928e-11</text>
<rect x="100" y="310" width="123" height="12" fill="#00f"/>
<rect x="338" y="310" width="271" height="12" fill="#00f"/>
<line x1="223" y1="316" x2="337" y2="316" stroke="#00f"/>
<rect x="367" y="311" width="137" height="10" fill="#ff0"/>
<text x="20" y="340" class="sm">1.172e-11</text>
<rect x="100" y="330" width="123" height="12" fill="#00f"/>
<rect x="261" y="330" width="33" height="12" fill="#00f"/>
<rect x="357" y="330" width="252" height="12" fill="#00f"/>
<line x1="223" y1="336" x2="260" y2="336" stroke="#00f"/>
<line x1="294" y1="336" x2="356" y2="336" stroke="#00f"/>
<rect x="367" y="331" width="137" height="10" fill="#ff0"/>
<text x="20" y="360" class="sm">4.573e-12</text>
<rect x="100" y="350" width="123" height="12" fill="#00f"/>
<rect x="267" y="350" width="27" height="12" fill="#00f"/>
<rect x="338" y="350" width="271" height="12" fill="#00f"/>
<line x1="223" y1="356" x2="266" y2="356" stroke="#00f"/>
<line x1="294" y1="356" x2="337" y2="356" stroke="#00f"/>
<rect x="367" y="351" width="137" height="10" fill="#ff0"/>
<text x="20" y="380" class="sm">3.298e-12</text>
<rect x="100" y="370" width="194" height="12" fill="#00f"/>
<rect x="357" y="370" width="46" height="12" fill="#00f"/>
<rect x="454" y="370" width="155" height="12" fill="#00f"/>
<line x1="294" y1="376" x2="356" y2="376" stroke="#00f"/>
<line x1="403" y1="376" x2="453" y2="376" stroke="#00f"/>
<rect x="193" y="371" width="101" height="10" fill="#ff0"/>
<rect x="358" y="371" width="45" height="10" fill="#ff0"/>
<rect x="455" y="371" width="49" height="10" fill="#ff0"/>
<text x="20" y="400" class="sm">7.341e-13</text>
<rect x="100" y="390" width="47" height="12" fill="#00f"/>
<rect x="267" y="390" width="27" height="12" fill="#00f"/>
<rect x="357" y="390" width="252" height="12" fill="#00f"/>
<line x1="147" y1="396" x2="266" y2="396" stroke="#00f"/>
<line x1="294" y1="396" x2="356" y2="396" stroke="#00f"/>
<rect x="367" y="391" width="137" height="10" fill="#ff0"/>
<text x="20" y="420" class="sm">3.433e-13</text>
<rect x="100" y="410" width="45" height="12" fill="#00f"/>
<rect x="267" y="410" width="27" height="12" fill="#00f"/>
<rect x="357" y="410" width="252" height="12" fill="#00f"/>
<line x1="145" y1="416" x2="266" y2="416" stroke="#00f"/>
<line x1="294" y1="416" x2="356" y2="416" stroke="#00f"/>
<rect x="367" y="411" width="137" height="10" fill="#ff0"/>
<text x="20" y="440" class="sm">2.569e-13</text>
<rect x="100" y="430" width="123" height="12" fill="#00f"/>
<rect x="267" y="430" width="31" height="12" fill="#00f"/>
<rect x="357" y="430" width="252" height="12" fill="#00f"/>
<line x1="223" y1="436" x2="266" y2="436" stroke="#00f"/>
<line x1="298" y1="436" x2="356" y2="436" stroke="#00f"/>
<rect x="367" y="431" width="137" height="10" fill="#ff0"/>
<text x="20" y="460" class="sm">7.051e-14</text>
<rect x="100" y="450" width="194" height="12" fill="#00f"/>
<rect x="357" y="450" width="39" height="12" fill="#00f"/>
<rect x="454" y="450" width="155" height="12" fill="#00f"/>
<line x1="294" y1="456" x2="356" y2="456" stroke="#00f"/>
<line x1="396" y1="456" x2="453" y2="456" stroke="#00f"/>
<rect x="193" y="451" width="101" height="10" fill="#ff0"/>
<rect x="358" y="451" width="38" height="10" fill="#ff0"/>
<rect x="455" y="451" width="41" height="10" fill="#ff0"/>
<text x="20" y="480" class="sm">3.255e-14</text>
<rect x="100" y="470" width="47" height="12" fill="#00f"/>
<rect x="212" y="470" width="82" height="12" fill="#00f"/>
<rect x="338" y="470" width="271" height="12" fill="#00f"/>
<line x1="147" y1="476" x2="211" y2="476" stroke="#00f"/>
<line x1="294" y1="476" x2="337" y2="476" stroke="#00f"/>
<rect x="367" y="471" width="137" height="10" fill="#ff0"/>
<text x="20" y="500" class="sm">2.317e-14</text>
<rect x="100" y="490" width="99" height="12" fill="#00f"/>
<rect x="357" y="490" width="252" height="12" fill="#00f"/>
<line x1="199" y1="496" x2="356" y2="496" stroke="#00f"/>
<rect x="367" y="491" width="137" height="10" fill="#ff0"/>
</svg>
