<svg viewBox="0 0 863 545" xmlns="http://www.w3.org/2000/svg">

<style>
  .sm { font: 12px sans-serif; }
  .lg { font: 15px sans-serif; }
</style>
<rect fill="#ddd" x="0" y="0" width="100%" height="100%"/>
<text x="20" y="20" class="lg">ch.2931 I:15052910-15053772 Gene:WBGene00009287</text>
<text x="20" y="50" class="sm">WormBase</text>
<rect x="100" y="40" width="429" height="12" fill="#00f"/>
<rect x="580" y="40" width="183" height="12" fill="#00f"/>
<line x1="529" y1="46" x2="579" y2="46" stroke="#00f"/>
<rect x="116" y="41" width="413" height="10" fill="#ff0"/>
<rect x="581" y="41" width="128" height="10" fill="#ff0"/>
<rect x="101" y="41" width="14" height="10" fill="brown"><title>.</title></rect>
<rect x="710" y="41" width="53" height="10" fill="brown"><title>.</title></rect>
<text x="20" y="70" class="sm">Fitness: 0.0002516637771920408</text>
<rect x="529" y="65" width="51" height="5" fill="#00f"><title>285847.0</title></rect>
<rect x="328" y="70" width="52" height="5" fill="#f0f"><title>777.0</title></rect>
<rect x="425" y="75" width="44" height="5" fill="#00f"><title>213.0</title></rect>
<rect x="719" y="80" width="72" height="5" fill="#f0f"><title>179.0</title></rect>
<rect x="421" y="85" width="48" height="5" fill="#00f"><title>33.0</title></rect>
<rect x="449" y="90" width="139" height="5" fill="#f0f"><title>11.0</title></rect>
<rect x="154" y="95" width="45" height="5" fill="#f0f"><title>3.0</title></rect>
<rect x="167" y="100" width="136" height="5" fill="#00f"><title>3.0</title></rect>
<rect x="449" y="105" width="48" height="5" fill="#f0f"><title>3.0</title></rect>
<text x="20" y="135" class="sm">0.9992</text>
<rect x="100" y="125" width="429" height="12" fill="#00f"/>
<rect x="580" y="125" width="186" height="12" fill="#00f"/>
<line x1="529" y1="131" x2="579" y2="131" stroke="#00f"/>
<rect x="116" y="126" width="413" height="10" fill="#ff0"/>
<rect x="581" y="126" width="128" height="10" fill="#ff0"/>
<text x="20" y="155" class="sm">0.0007531</text>
<rect x="100" y="145" width="325" height="12" fill="#00f"/>
<rect x="469" y="145" width="297" height="12" fill="#00f"/>
<line x1="425" y1="151" x2="468" y2="151" stroke="#00f"/>
<rect x="116" y="146" width="309" height="10" fill="#ff0"/>
<rect x="470" y="146" width="10" height="10" fill="#ff0"/>
<text x="20" y="175" class="sm">2.597e-05</text>
<rect x="100" y="165" width="325" height="12" fill="#00f"/>
<rect x="469" y="165" width="60" height="12" fill="#00f"/>
<rect x="580" y="165" width="186" height="12" fill="#00f"/>
<line x1="425" y1="171" x2="468" y2="171" stroke="#00f"/>
<line x1="529" y1="171" x2="579" y2="171" stroke="#00f"/>
<rect x="116" y="166" width="309" height="10" fill="#ff0"/>
<rect x="470" y="166" width="10" height="10" fill="#ff0"/>
<text x="20" y="195" class="sm">2.089e-05</text>
<rect x="100" y="185" width="63" height="12" fill="#00f"/>
<rect x="254" y="185" width="512" height="12" fill="#00f"/>
<line x1="163" y1="191" x2="253" y2="191" stroke="#00f"/>
<rect x="272" y="186" width="275" height="10" fill="#ff0"/>
<text x="20" y="215" class="sm">1.207e-05</text>
<rect x="100" y="205" width="559" height="12" fill="#00f"/>
<rect x="709" y="205" width="57" height="12" fill="#00f"/>
<line x1="659" y1="211" x2="708" y2="211" stroke="#00f"/>
<rect x="116" y="206" width="431" height="10" fill="#ff0"/>
<text x="20" y="235" class="sm">1.034e-05</text>
<rect x="100" y="225" width="429" height="12" fill="#00f"/>
<rect x="616" y="225" width="150" height="12" fill="#00f"/>
<line x1="529" y1="231" x2="615" y2="231" stroke="#00f"/>
<rect x="116" y="226" width="413" height="10" fill="#ff0"/>
<rect x="617" y="226" width="92" height="10" fill="#ff0"/>
<text x="20" y="255" class="sm">3.087e-06</text>
<rect x="100" y="245" width="363" height="12" fill="#00f"/>
<rect x="580" y="245" width="186" height="12" fill="#00f"/>
<line x1="463" y1="251" x2="579" y2="251" stroke="#00f"/>
<rect x="116" y="246" width="347" height="10" fill="#ff0"/>
<rect x="581" y="246" width="128" height="10" fill="#ff0"/>
<text x="20" y="275" class="sm">1.699e-06</text>
<rect x="100" y="265" width="325" height="12" fill="#00f"/>
<rect x="580" y="265" width="186" height="12" fill="#00f"/>
<line x1="425" y1="271" x2="579" y2="271" stroke="#00f"/>
<rect x="116" y="266" width="309" height="10" fill="#ff0"/>
<rect x="581" y="266" width="43" height="10" fill="#ff0"/>
<text x="20" y="295" class="sm">1.506e-06</text>
<rect x="100" y="285" width="63" height="12" fill="#00f"/>
<rect x="254" y="285" width="275" height="12" fill="#00f"/>
<rect x="580" y="285" width="186" height="12" fill="#00f"/>
<line x1="163" y1="291" x2="253" y2="291" stroke="#00f"/>
<line x1="529" y1="291" x2="579" y2="291" stroke="#00f"/>
<rect x="272" y="286" width="257" height="10" fill="#ff0"/>
<rect x="581" y="286" width="128" height="10" fill="#ff0"/>
<text x="20" y="315" class="sm">7.579e-07</text>
<rect x="100" y="305" width="556" height="12" fill="#00f"/>
<rect x="709" y="305" width="57" height="12" fill="#00f"/>
<line x1="656" y1="311" x2="708" y2="311" stroke="#00f"/>
<rect x="116" y="306" width="431" height="10" fill="#ff0"/>
<text x="20" y="335" class="sm">5.833e-07</text>
<rect x="100" y="325" width="429" height="12" fill="#00f"/>
<rect x="580" y="325" width="79" height="12" fill="#00f"/>
<rect x="709" y="325" width="57" height="12" fill="#00f"/>
<line x1="529" y1="331" x2="579" y2="331" stroke="#00f"/>
<line x1="659" y1="331" x2="708" y2="331" stroke="#00f"/>
<rect x="420" y="326" width="104" height="10" fill="#ff0"/>
<text x="20" y="355" class="sm">5.799e-07</text>
<rect x="100" y="345" width="312" height="12" fill="#00f"/>
<rect x="469" y="345" width="297" height="12" fill="#00f"/>
<line x1="412" y1="351" x2="468" y2="351" stroke="#00f"/>
<rect x="116" y="346" width="296" height="10" fill="#ff0"/>
<rect x="470" y="346" width="77" height="10" fill="#ff0"/>
<text x="20" y="375" class="sm">3.374e-07</text>
<rect x="100" y="365" width="63" height="12" fill="#00f"/>
<rect x="229" y="365" width="537" height="12" fill="#00f"/>
<line x1="163" y1="371" x2="228" y2="371" stroke="#00f"/>
<rect x="116" y="366" width="47" height="10" fill="#ff0"/>
<rect x="230" y="366" width="317" height="10" fill="#ff0"/>
<text x="20" y="395" class="sm">3.266e-07</text>
<rect x="100" y="385" width="118" height="12" fill="#00f"/>
<rect x="254" y="385" width="512" height="12" fill="#00f"/>
<line x1="218" y1="391" x2="253" y2="391" stroke="#00f"/>
<rect x="116" y="386" width="102" height="10" fill="#ff0"/>
<rect x="255" y="386" width="292" height="10" fill="#ff0"/>
<text x="20" y="415" class="sm">1.934e-07</text>
<rect x="100" y="405" width="342" height="12" fill="#00f"/>
<rect x="580" y="405" width="186" height="12" fill="#00f"/>
<line x1="442" y1="411" x2="579" y2="411" stroke="#00f"/>
<rect x="116" y="406" width="326" height="10" fill="#ff0"/>
<rect x="581" y="406" width="128" height="10" fill="#ff0"/>
<text x="20" y="435" class="sm">1.664e-07</text>
<rect x="100" y="425" width="573" height="12" fill="#00f"/>
<rect x="709" y="425" width="57" height="12" fill="#00f"/>
<line x1="673" y1="431" x2="708" y2="431" stroke="#00f"/>
<rect x="116" y="426" width="431" height="10" fill="#ff0"/>
<text x="20" y="455" class="sm">1.629e-07</text>
<rect x="100" y="445" width="351" height="12" fill="#00f"/>
<rect x="580" y="445" width="186" height="12" fill="#00f"/>
<line x1="451" y1="451" x2="579" y2="451" stroke="#00f"/>
<rect x="116" y="446" width="335" height="10" fill="#ff0"/>
<rect x="581" y="446" width="128" height="10" fill="#ff0"/>
<text x="20" y="475" class="sm">7.83e-08</text>
<rect x="100" y="465" width="429" height="12" fill="#00f"/>
<rect x="626" y="465" width="140" height="12" fill="#00f"/>
<line x1="529" y1="471" x2="625" y2="471" stroke="#00f"/>
<rect x="420" y="466" width="104" height="10" fill="#ff0"/>
<text x="20" y="495" class="sm">7.761e-08</text>
<rect x="100" y="485" width="363" height="12" fill="#00f"/>
<rect x="509" y="485" width="257" height="12" fill="#00f"/>
<line x1="463" y1="491" x2="508" y2="491" stroke="#00f"/>
<rect x="116" y="486" width="347" height="10" fill="#ff0"/>
<rect x="510" y="486" width="14" height="10" fill="#ff0"/>
<text x="20" y="515" class="sm">4.159e-08</text>
<rect x="100" y="505" width="35" height="12" fill="#00f"/>
<rect x="254" y="505" width="512" height="12" fill="#00f"/>
<line x1="135" y1="511" x2="253" y2="511" stroke="#00f"/>
<rect x="120" y="506" width="15" height="10" fill="#ff0"/>
<rect x="255" y="506" width="292" height="10" fill="#ff0"/>
</svg>
