<svg viewBox="0 0 987 555" xmlns="http://www.w3.org/2000/svg">

<style>
  .sm { font: 12px sans-serif; }
  .lg { font: 15px sans-serif; }
</style>
<rect fill="#ddd" x="0" y="0" width="100%" height="100%"/>
<text x="20" y="20" class="lg">ch.2036 I:10474722-10475708 Gene:WBGene00013726</text>
<text x="20" y="50" class="sm">WormBase</text>
<rect x="100" y="40" width="169" height="12" fill="#00f"/>
<rect x="342" y="40" width="105" height="12" fill="#00f"/>
<rect x="496" y="40" width="84" height="12" fill="#00f"/>
<rect x="629" y="40" width="258" height="12" fill="#00f"/>
<line x1="269" y1="46" x2="341" y2="46" stroke="#00f"/>
<line x1="447" y1="46" x2="495" y2="46" stroke="#00f"/>
<line x1="580" y1="46" x2="628" y2="46" stroke="#00f"/>
<rect x="192" y="41" width="77" height="10" fill="#ff0"/>
<rect x="343" y="41" width="104" height="10" fill="#ff0"/>
<rect x="497" y="41" width="83" height="10" fill="#ff0"/>
<rect x="630" y="41" width="146" height="10" fill="#ff0"/>
<rect x="101" y="41" width="90" height="10" fill="brown"><title>.</title></rect>
<rect x="777" y="41" width="110" height="10" fill="brown"><title>.</title></rect>
<text x="20" y="70" class="sm">Fitness: 0.21121649455229344</text>
<rect x="447" y="65" width="49" height="5" fill="#00f"><title>184973.0</title></rect>
<rect x="269" y="70" width="73" height="5" fill="#00f"><title>146730.0</title></rect>
<rect x="580" y="75" width="49" height="5" fill="#00f"><title>113811.0</title></rect>
<rect x="447" y="80" width="182" height="5" fill="#00f"><title>16811.0</title></rect>
<rect x="242" y="85" width="100" height="5" fill="#00f"><title>1812.0</title></rect>
<rect x="447" y="90" width="69" height="5" fill="#00f"><title>116.0</title></rect>
<rect x="431" y="95" width="93" height="5" fill="#f0f"><title>66.0</title></rect>
<rect x="269" y="100" width="48" height="5" fill="#00f"><title>49.0</title></rect>
<rect x="447" y="105" width="80" height="5" fill="#00f"><title>13.0</title></rect>
<rect x="837" y="110" width="26" height="5" fill="#00f"><title>5.0</title></rect>
<rect x="580" y="115" width="68" height="5" fill="#00f"><title>3.0</title></rect>
<text x="20" y="145" class="sm">0.9498</text>
<rect x="100" y="135" width="169" height="12" fill="#00f"/>
<rect x="342" y="135" width="105" height="12" fill="#00f"/>
<rect x="496" y="135" width="84" height="12" fill="#00f"/>
<rect x="629" y="135" width="261" height="12" fill="#00f"/>
<line x1="269" y1="141" x2="341" y2="141" stroke="#00f"/>
<line x1="447" y1="141" x2="495" y2="141" stroke="#00f"/>
<line x1="580" y1="141" x2="628" y2="141" stroke="#00f"/>
<rect x="192" y="136" width="77" height="10" fill="#ff0"/>
<rect x="343" y="136" width="104" height="10" fill="#ff0"/>
<rect x="497" y="136" width="83" height="10" fill="#ff0"/>
<rect x="630" y="136" width="146" height="10" fill="#ff0"/>
<text x="20" y="165" class="sm">0.03681</text>
<rect x="100" y="155" width="169" height="12" fill="#00f"/>
<rect x="317" y="155" width="130" height="12" fill="#00f"/>
<rect x="496" y="155" width="84" height="12" fill="#00f"/>
<rect x="629" y="155" width="261" height="12" fill="#00f"/>
<line x1="269" y1="161" x2="316" y2="161" stroke="#00f"/>
<line x1="447" y1="161" x2="495" y2="161" stroke="#00f"/>
<line x1="580" y1="161" x2="628" y2="161" stroke="#00f"/>
<rect x="259" y="156" width="10" height="10" fill="#ff0"/>
<rect x="318" y="156" width="129" height="10" fill="#ff0"/>
<rect x="497" y="156" width="83" height="10" fill="#ff0"/>
<rect x="630" y="156" width="146" height="10" fill="#ff0"/>
<text x="20" y="185" class="sm">0.01184</text>
<rect x="100" y="175" width="193" height="12" fill="#00f"/>
<rect x="342" y="175" width="105" height="12" fill="#00f"/>
<rect x="496" y="175" width="84" height="12" fill="#00f"/>
<rect x="629" y="175" width="261" height="12" fill="#00f"/>
<line x1="293" y1="181" x2="341" y2="181" stroke="#00f"/>
<line x1="447" y1="181" x2="495" y2="181" stroke="#00f"/>
<line x1="580" y1="181" x2="628" y2="181" stroke="#00f"/>
<rect x="668" y="176" width="188" height="10" fill="#ff0"/>
<text x="20" y="205" class="sm">0.00071</text>
<rect x="100" y="195" width="173" height="12" fill="#00f"/>
<rect x="342" y="195" width="105" height="12" fill="#00f"/>
<rect x="496" y="195" width="84" height="12" fill="#00f"/>
<rect x="629" y="195" width="261" height="12" fill="#00f"/>
<line x1="273" y1="201" x2="341" y2="201" stroke="#00f"/>
<line x1="447" y1="201" x2="495" y2="201" stroke="#00f"/>
<line x1="580" y1="201" x2="628" y2="201" stroke="#00f"/>
<rect x="668" y="196" width="188" height="10" fill="#ff0"/>
<text x="20" y="225" class="sm">0.000509</text>
<rect x="100" y="215" width="169" height="12" fill="#00f"/>
<rect x="342" y="215" width="72" height="12" fill="#00f"/>
<rect x="496" y="215" width="84" height="12" fill="#00f"/>
<rect x="629" y="215" width="261" height="12" fill="#00f"/>
<line x1="269" y1="221" x2="341" y2="221" stroke="#00f"/>
<line x1="414" y1="221" x2="495" y2="221" stroke="#00f"/>
<line x1="580" y1="221" x2="628" y2="221" stroke="#00f"/>
<rect x="192" y="216" width="77" height="10" fill="#ff0"/>
<rect x="343" y="216" width="71" height="10" fill="#ff0"/>
<rect x="497" y="216" width="83" height="10" fill="#ff0"/>
<rect x="630" y="216" width="146" height="10" fill="#ff0"/>
<text x="20" y="245" class="sm">0.0001295</text>
<rect x="100" y="235" width="142" height="12" fill="#00f"/>
<rect x="342" y="235" width="105" height="12" fill="#00f"/>
<rect x="496" y="235" width="84" height="12" fill="#00f"/>
<rect x="629" y="235" width="261" height="12" fill="#00f"/>
<line x1="242" y1="241" x2="341" y2="241" stroke="#00f"/>
<line x1="447" y1="241" x2="495" y2="241" stroke="#00f"/>
<line x1="580" y1="241" x2="628" y2="241" stroke="#00f"/>
<rect x="192" y="236" width="50" height="10" fill="#ff0"/>
<rect x="343" y="236" width="104" height="10" fill="#ff0"/>
<rect x="497" y="236" width="83" height="10" fill="#ff0"/>
<rect x="630" y="236" width="146" height="10" fill="#ff0"/>
<text x="20" y="265" class="sm">5.061e-05</text>
<rect x="100" y="255" width="169" height="12" fill="#00f"/>
<rect x="317" y="255" width="97" height="12" fill="#00f"/>
<rect x="496" y="255" width="84" height="12" fill="#00f"/>
<rect x="629" y="255" width="261" height="12" fill="#00f"/>
<line x1="269" y1="261" x2="316" y2="261" stroke="#00f"/>
<line x1="414" y1="261" x2="495" y2="261" stroke="#00f"/>
<line x1="580" y1="261" x2="628" y2="261" stroke="#00f"/>
<rect x="259" y="256" width="10" height="10" fill="#ff0"/>
<rect x="318" y="256" width="96" height="10" fill="#ff0"/>
<rect x="497" y="256" width="83" height="10" fill="#ff0"/>
<rect x="630" y="256" width="146" height="10" fill="#ff0"/>
<text x="20" y="285" class="sm">4.839e-05</text>
<rect x="100" y="275" width="169" height="12" fill="#00f"/>
<rect x="342" y="275" width="238" height="12" fill="#00f"/>
<rect x="629" y="275" width="143" height="12" fill="#00f"/>
<rect x="809" y="275" width="81" height="12" fill="#00f"/>
<line x1="269" y1="281" x2="341" y2="281" stroke="#00f"/>
<line x1="580" y1="281" x2="628" y2="281" stroke="#00f"/>
<line x1="772" y1="281" x2="808" y2="281" stroke="#00f"/>
<rect x="192" y="276" width="77" height="10" fill="#ff0"/>
<rect x="343" y="276" width="146" height="10" fill="#ff0"/>
<text x="20" y="305" class="sm">2.562e-05</text>
<rect x="100" y="295" width="33" height="12" fill="#00f"/>
<rect x="342" y="295" width="105" height="12" fill="#00f"/>
<rect x="496" y="295" width="84" height="12" fill="#00f"/>
<rect x="629" y="295" width="261" height="12" fill="#00f"/>
<line x1="133" y1="301" x2="341" y2="301" stroke="#00f"/>
<line x1="447" y1="301" x2="495" y2="301" stroke="#00f"/>
<line x1="580" y1="301" x2="628" y2="301" stroke="#00f"/>
<rect x="668" y="296" width="188" height="10" fill="#ff0"/>
<text x="20" y="325" class="sm">1.941e-05</text>
<rect x="100" y="315" width="173" height="12" fill="#00f"/>
<rect x="317" y="315" width="130" height="12" fill="#00f"/>
<rect x="496" y="315" width="84" height="12" fill="#00f"/>
<rect x="629" y="315" width="261" height="12" fill="#00f"/>
<line x1="273" y1="321" x2="316" y2="321" stroke="#00f"/>
<line x1="447" y1="321" x2="495" y2="321" stroke="#00f"/>
<line x1="580" y1="321" x2="628" y2="321" stroke="#00f"/>
<rect x="668" y="316" width="188" height="10" fill="#ff0"/>
<text x="20" y="345" class="sm">1.281e-05</text>
<rect x="100" y="335" width="139" height="12" fill="#00f"/>
<rect x="342" y="335" width="105" height="12" fill="#00f"/>
<rect x="496" y="335" width="84" height="12" fill="#00f"/>
<rect x="629" y="335" width="261" height="12" fill="#00f"/>
<line x1="239" y1="341" x2="341" y2="341" stroke="#00f"/>
<line x1="447" y1="341" x2="495" y2="341" stroke="#00f"/>
<line x1="580" y1="341" x2="628" y2="341" stroke="#00f"/>
<rect x="192" y="336" width="47" height="10" fill="#ff0"/>
<rect x="343" y="336" width="104" height="10" fill="#ff0"/>
<rect x="497" y="336" width="83" height="10" fill="#ff0"/>
<rect x="630" y="336" width="146" height="10" fill="#ff0"/>
<text x="20" y="365" class="sm">1.252e-05</text>
<rect x="100" y="355" width="169" height="12" fill="#00f"/>
<rect x="342" y="355" width="105" height="12" fill="#00f"/>
<rect x="496" y="355" width="90" height="12" fill="#00f"/>
<rect x="629" y="355" width="261" height="12" fill="#00f"/>
<line x1="269" y1="361" x2="341" y2="361" stroke="#00f"/>
<line x1="447" y1="361" x2="495" y2="361" stroke="#00f"/>
<line x1="586" y1="361" x2="628" y2="361" stroke="#00f"/>
<rect x="192" y="356" width="77" height="10" fill="#ff0"/>
<rect x="343" y="356" width="104" height="10" fill="#ff0"/>
<rect x="497" y="356" width="89" height="10" fill="#ff0"/>
<rect x="630" y="356" width="146" height="10" fill="#ff0"/>
<text x="20" y="385" class="sm">6.345e-06</text>
<rect x="100" y="375" width="193" height="12" fill="#00f"/>
<rect x="342" y="375" width="72" height="12" fill="#00f"/>
<rect x="496" y="375" width="84" height="12" fill="#00f"/>
<rect x="629" y="375" width="261" height="12" fill="#00f"/>
<line x1="293" y1="381" x2="341" y2="381" stroke="#00f"/>
<line x1="414" y1="381" x2="495" y2="381" stroke="#00f"/>
<line x1="580" y1="381" x2="628" y2="381" stroke="#00f"/>
<rect x="668" y="376" width="188" height="10" fill="#ff0"/>
<text x="20" y="405" class="sm">5.81e-06</text>
<rect x="100" y="395" width="169" height="12" fill="#00f"/>
<rect x="342" y="395" width="105" height="12" fill="#00f"/>
<rect x="496" y="395" width="37" height="12" fill="#00f"/>
<rect x="629" y="395" width="261" height="12" fill="#00f"/>
<line x1="269" y1="401" x2="341" y2="401" stroke="#00f"/>
<line x1="447" y1="401" x2="495" y2="401" stroke="#00f"/>
<line x1="533" y1="401" x2="628" y2="401" stroke="#00f"/>
<rect x="192" y="396" width="77" height="10" fill="#ff0"/>
<rect x="343" y="396" width="104" height="10" fill="#ff0"/>
<rect x="497" y="396" width="36" height="10" fill="#ff0"/>
<rect x="630" y="396" width="28" height="10" fill="#ff0"/>
<text x="20" y="425" class="sm">4.688e-06</text>
<rect x="100" y="415" width="169" height="12" fill="#00f"/>
<rect x="342" y="415" width="112" height="12" fill="#00f"/>
<rect x="496" y="415" width="84" height="12" fill="#00f"/>
<rect x="629" y="415" width="261" height="12" fill="#00f"/>
<line x1="269" y1="421" x2="341" y2="421" stroke="#00f"/>
<line x1="454" y1="421" x2="495" y2="421" stroke="#00f"/>
<line x1="580" y1="421" x2="628" y2="421" stroke="#00f"/>
<rect x="192" y="416" width="77" height="10" fill="#ff0"/>
<rect x="343" y="416" width="111" height="10" fill="#ff0"/>
<rect x="497" y="416" width="13" height="10" fill="#ff0"/>
<text x="20" y="445" class="sm">3.643e-06</text>
<rect x="100" y="435" width="169" height="12" fill="#00f"/>
<rect x="342" y="435" width="109" height="12" fill="#00f"/>
<rect x="496" y="435" width="84" height="12" fill="#00f"/>
<rect x="629" y="435" width="261" height="12" fill="#00f"/>
<line x1="269" y1="441" x2="341" y2="441" stroke="#00f"/>
<line x1="451" y1="441" x2="495" y2="441" stroke="#00f"/>
<line x1="580" y1="441" x2="628" y2="441" stroke="#00f"/>
<rect x="192" y="436" width="77" height="10" fill="#ff0"/>
<rect x="343" y="436" width="108" height="10" fill="#ff0"/>
<rect x="497" y="436" width="13" height="10" fill="#ff0"/>
<text x="20" y="465" class="sm">2.268e-06</text>
<rect x="100" y="455" width="169" height="12" fill="#00f"/>
<rect x="342" y="455" width="238" height="12" fill="#00f"/>
<rect x="629" y="455" width="140" height="12" fill="#00f"/>
<rect x="809" y="455" width="81" height="12" fill="#00f"/>
<line x1="269" y1="461" x2="341" y2="461" stroke="#00f"/>
<line x1="580" y1="461" x2="628" y2="461" stroke="#00f"/>
<line x1="769" y1="461" x2="808" y2="461" stroke="#00f"/>
<rect x="192" y="456" width="77" height="10" fill="#ff0"/>
<rect x="343" y="456" width="146" height="10" fill="#ff0"/>
<text x="20" y="485" class="sm">2.215e-06</text>
<rect x="100" y="475" width="169" height="12" fill="#00f"/>
<rect x="342" y="475" width="105" height="12" fill="#00f"/>
<rect x="629" y="475" width="143" height="12" fill="#00f"/>
<rect x="809" y="475" width="81" height="12" fill="#00f"/>
<line x1="269" y1="481" x2="341" y2="481" stroke="#00f"/>
<line x1="447" y1="481" x2="628" y2="481" stroke="#00f"/>
<line x1="772" y1="481" x2="808" y2="481" stroke="#00f"/>
<rect x="192" y="476" width="77" height="10" fill="#ff0"/>
<rect x="343" y="476" width="104" height="10" fill="#ff0"/>
<rect x="630" y="476" width="142" height="10" fill="#ff0"/>
<rect x="810" y="476" width="0" height="10" fill="#ff0"/>
<text x="20" y="505" class="sm">1.761e-06</text>
<rect x="100" y="495" width="169" height="12" fill="#00f"/>
<rect x="317" y="495" width="263" height="12" fill="#00f"/>
<rect x="629" y="495" width="143" height="12" fill="#00f"/>
<rect x="809" y="495" width="81" height="12" fill="#00f"/>
<line x1="269" y1="501" x2="316" y2="501" stroke="#00f"/>
<line x1="580" y1="501" x2="628" y2="501" stroke="#00f"/>
<line x1="772" y1="501" x2="808" y2="501" stroke="#00f"/>
<rect x="542" y="496" width="38" height="10" fill="#ff0"/>
<rect x="630" y="496" width="142" height="10" fill="#ff0"/>
<rect x="810" y="496" width="0" height="10" fill="#ff0"/>
<text x="20" y="525" class="sm">9.966e-07</text>
<rect x="100" y="515" width="169" height="12" fill="#00f"/>
<rect x="342" y="515" width="238" height="12" fill="#00f"/>
<rect x="629" y="515" width="124" height="12" fill="#00f"/>
<rect x="809" y="515" width="81" height="12" fill="#00f"/>
<line x1="269" y1="521" x2="341" y2="521" stroke="#00f"/>
<line x1="580" y1="521" x2="628" y2="521" stroke="#00f"/>
<line x1="753" y1="521" x2="808" y2="521" stroke="#00f"/>
<rect x="192" y="516" width="77" height="10" fill="#ff0"/>
<rect x="343" y="516" width="146" height="10" fill="#ff0"/>
</svg>
