<svg viewBox="0 0 894 605" xmlns="http://www.w3.org/2000/svg">

<style>
  .sm { font: 12px sans-serif; }
  .lg { font: 15px sans-serif; }
</style>
<rect fill="#ddd" x="0" y="0" width="100%" height="100%"/>
<text x="20" y="20" class="lg">ch.2331 I:11910228-11911121 Gene:WBGene00011156</text>
<text x="20" y="50" class="sm">WormBase</text>
<rect x="102" y="40" width="87" height="12" fill="#00f"/>
<rect x="382" y="40" width="79" height="12" fill="#00f"/>
<rect x="546" y="40" width="250" height="12" fill="#00f"/>
<line x1="189" y1="46" x2="381" y2="46" stroke="#00f"/>
<line x1="461" y1="46" x2="545" y2="46" stroke="#00f"/>
<rect x="168" y="41" width="21" height="10" fill="#ff0"/>
<rect x="383" y="41" width="78" height="10" fill="#ff0"/>
<rect x="547" y="41" width="156" height="10" fill="#ff0"/>
<rect x="103" y="41" width="64" height="10" fill="brown"><title>.</title></rect>
<rect x="704" y="41" width="92" height="10" fill="brown"><title>.</title></rect>
<text x="20" y="70" class="sm">Fitness: 0.08694913482842426</text>
<rect x="461" y="65" width="85" height="5" fill="#00f"><title>15781400.0</title></rect>
<rect x="189" y="70" width="193" height="5" fill="#00f"><title>13257300.0</title></rect>
<rect x="456" y="75" width="90" height="5" fill="#00f"><title>504.0</title></rect>
<rect x="189" y="80" width="357" height="5" fill="#00f"><title>244.0</title></rect>
<rect x="413" y="85" width="196" height="5" fill="#f0f"><title>76.0</title></rect>
<rect x="189" y="90" width="458" height="5" fill="#00f"><title>60.0</title></rect>
<rect x="169" y="95" width="269" height="5" fill="#00f"><title>27.0</title></rect>
<rect x="714" y="100" width="90" height="5" fill="#f0f"><title>24.0</title></rect>
<rect x="171" y="105" width="407" height="5" fill="#f0f"><title>19.0</title></rect>
<rect x="498" y="110" width="74" height="5" fill="#f0f"><title>13.0</title></rect>
<rect x="583" y="115" width="63" height="5" fill="#f0f"><title>7.0</title></rect>
<rect x="189" y="120" width="165" height="5" fill="#00f"><title>7.0</title></rect>
<rect x="572" y="125" width="26" height="5" fill="#00f"><title>6.0</title></rect>
<rect x="466" y="130" width="112" height="5" fill="#f0f"><title>4.0</title></rect>
<rect x="482" y="135" width="85" height="5" fill="#f0f"><title>4.0</title></rect>
<rect x="403" y="140" width="297" height="5" fill="#f0f"><title>3.0</title></rect>
<rect x="573" y="145" width="59" height="5" fill="#f0f"><title>3.0</title></rect>
<rect x="434" y="150" width="129" height="5" fill="#f0f"><title>3.0</title></rect>
<rect x="447" y="155" width="99" height="5" fill="#00f"><title>3.0</title></rect>
<rect x="218" y="160" width="193" height="5" fill="#00f"><title>3.0</title></rect>
<rect x="189" y="165" width="149" height="5" fill="#00f"><title>3.0</title></rect>
<text x="20" y="195" class="sm">0.9993</text>
<rect x="100" y="185" width="89" height="12" fill="#00f"/>
<rect x="382" y="185" width="79" height="12" fill="#00f"/>
<rect x="546" y="185" width="251" height="12" fill="#00f"/>
<line x1="189" y1="191" x2="381" y2="191" stroke="#00f"/>
<line x1="461" y1="191" x2="545" y2="191" stroke="#00f"/>
<rect x="168" y="186" width="21" height="10" fill="#ff0"/>
<rect x="383" y="186" width="78" height="10" fill="#ff0"/>
<rect x="547" y="186" width="156" height="10" fill="#ff0"/>
<text x="20" y="215" class="sm">0.0004144</text>
<rect x="100" y="205" width="89" height="12" fill="#00f"/>
<rect x="434" y="205" width="27" height="12" fill="#00f"/>
<rect x="546" y="205" width="251" height="12" fill="#00f"/>
<line x1="189" y1="211" x2="433" y2="211" stroke="#00f"/>
<line x1="461" y1="211" x2="545" y2="211" stroke="#00f"/>
<rect x="168" y="206" width="21" height="10" fill="#ff0"/>
<rect x="435" y="206" width="26" height="10" fill="#ff0"/>
<rect x="547" y="206" width="187" height="10" fill="#ff0"/>
<text x="20" y="235" class="sm">0.0002229</text>
<rect x="100" y="225" width="105" height="12" fill="#00f"/>
<rect x="382" y="225" width="79" height="12" fill="#00f"/>
<rect x="546" y="225" width="251" height="12" fill="#00f"/>
<line x1="205" y1="231" x2="381" y2="231" stroke="#00f"/>
<line x1="461" y1="231" x2="545" y2="231" stroke="#00f"/>
<rect x="741" y="226" width="26" height="10" fill="#ff0"/>
<text x="20" y="255" class="sm">2.828e-05</text>
<rect x="100" y="245" width="98" height="12" fill="#00f"/>
<rect x="382" y="245" width="79" height="12" fill="#00f"/>
<rect x="546" y="245" width="251" height="12" fill="#00f"/>
<line x1="198" y1="251" x2="381" y2="251" stroke="#00f"/>
<line x1="461" y1="251" x2="545" y2="251" stroke="#00f"/>
<rect x="168" y="246" width="26" height="10" fill="#ff0"/>
<text x="20" y="275" class="sm">4.133e-06</text>
<rect x="100" y="265" width="82" height="12" fill="#00f"/>
<rect x="382" y="265" width="79" height="12" fill="#00f"/>
<rect x="546" y="265" width="251" height="12" fill="#00f"/>
<line x1="182" y1="271" x2="381" y2="271" stroke="#00f"/>
<line x1="461" y1="271" x2="545" y2="271" stroke="#00f"/>
<rect x="168" y="266" width="14" height="10" fill="#ff0"/>
<rect x="383" y="266" width="78" height="10" fill="#ff0"/>
<rect x="547" y="266" width="187" height="10" fill="#ff0"/>
<text x="20" y="295" class="sm">3.51e-06</text>
<rect x="100" y="285" width="89" height="12" fill="#00f"/>
<rect x="411" y="285" width="50" height="12" fill="#00f"/>
<rect x="546" y="285" width="251" height="12" fill="#00f"/>
<line x1="189" y1="291" x2="410" y2="291" stroke="#00f"/>
<line x1="461" y1="291" x2="545" y2="291" stroke="#00f"/>
<rect x="168" y="286" width="21" height="10" fill="#ff0"/>
<rect x="412" y="286" width="49" height="10" fill="#ff0"/>
<rect x="547" y="286" width="194" height="10" fill="#ff0"/>
<text x="20" y="315" class="sm">4.782e-07</text>
<rect x="100" y="305" width="93" height="12" fill="#00f"/>
<rect x="382" y="305" width="79" height="12" fill="#00f"/>
<rect x="546" y="305" width="251" height="12" fill="#00f"/>
<line x1="193" y1="311" x2="381" y2="311" stroke="#00f"/>
<line x1="461" y1="311" x2="545" y2="311" stroke="#00f"/>
<rect x="168" y="306" width="25" height="10" fill="#ff0"/>
<rect x="383" y="306" width="78" height="10" fill="#ff0"/>
<rect x="547" y="306" width="194" height="10" fill="#ff0"/>
<text x="20" y="335" class="sm">4.373e-07</text>
<rect x="100" y="325" width="89" height="12" fill="#00f"/>
<rect x="382" y="325" width="74" height="12" fill="#00f"/>
<rect x="546" y="325" width="251" height="12" fill="#00f"/>
<line x1="189" y1="331" x2="381" y2="331" stroke="#00f"/>
<line x1="456" y1="331" x2="545" y2="331" stroke="#00f"/>
<rect x="168" y="326" width="21" height="10" fill="#ff0"/>
<rect x="383" y="326" width="73" height="10" fill="#ff0"/>
<rect x="547" y="326" width="194" height="10" fill="#ff0"/>
<text x="20" y="355" class="sm">3.838e-07</text>
<rect x="100" y="345" width="69" height="12" fill="#00f"/>
<rect x="382" y="345" width="79" height="12" fill="#00f"/>
<rect x="546" y="345" width="251" height="12" fill="#00f"/>
<line x1="169" y1="351" x2="381" y2="351" stroke="#00f"/>
<line x1="461" y1="351" x2="545" y2="351" stroke="#00f"/>
<rect x="741" y="346" width="26" height="10" fill="#ff0"/>
<text x="20" y="375" class="sm">3.034e-07</text>
<rect x="100" y="365" width="89" height="12" fill="#00f"/>
<rect x="382" y="365" width="79" height="12" fill="#00f"/>
<rect x="546" y="365" width="82" height="12" fill="#00f"/>
<rect x="663" y="365" width="134" height="12" fill="#00f"/>
<line x1="189" y1="371" x2="381" y2="371" stroke="#00f"/>
<line x1="461" y1="371" x2="545" y2="371" stroke="#00f"/>
<line x1="628" y1="371" x2="662" y2="371" stroke="#00f"/>
<rect x="168" y="366" width="21" height="10" fill="#ff0"/>
<rect x="383" y="366" width="78" height="10" fill="#ff0"/>
<rect x="547" y="366" width="81" height="10" fill="#ff0"/>
<rect x="664" y="366" width="77" height="10" fill="#ff0"/>
<text x="20" y="395" class="sm">1.032e-07</text>
<rect x="100" y="385" width="105" height="12" fill="#00f"/>
<rect x="434" y="385" width="27" height="12" fill="#00f"/>
<rect x="546" y="385" width="251" height="12" fill="#00f"/>
<line x1="205" y1="391" x2="433" y2="391" stroke="#00f"/>
<line x1="461" y1="391" x2="545" y2="391" stroke="#00f"/>
<rect x="168" y="386" width="26" height="10" fill="#ff0"/>
<text x="20" y="415" class="sm">6.725e-08</text>
<rect x="100" y="405" width="89" height="12" fill="#00f"/>
<rect x="239" y="405" width="40" height="12" fill="#00f"/>
<rect x="382" y="405" width="79" height="12" fill="#00f"/>
<rect x="546" y="405" width="251" height="12" fill="#00f"/>
<line x1="189" y1="411" x2="238" y2="411" stroke="#00f"/>
<line x1="279" y1="411" x2="381" y2="411" stroke="#00f"/>
<line x1="461" y1="411" x2="545" y2="411" stroke="#00f"/>
<rect x="168" y="406" width="21" height="10" fill="#ff0"/>
<rect x="240" y="406" width="39" height="10" fill="#ff0"/>
<rect x="383" y="406" width="78" height="10" fill="#ff0"/>
<rect x="547" y="406" width="194" height="10" fill="#ff0"/>
<text x="20" y="435" class="sm">5.402e-08</text>
<rect x="100" y="425" width="89" height="12" fill="#00f"/>
<rect x="382" y="425" width="415" height="12" fill="#00f"/>
<line x1="189" y1="431" x2="381" y2="431" stroke="#00f"/>
<rect x="529" y="426" width="212" height="10" fill="#ff0"/>
<text x="20" y="455" class="sm">3.987e-08</text>
<rect x="100" y="445" width="89" height="12" fill="#00f"/>
<rect x="382" y="445" width="79" height="12" fill="#00f"/>
<rect x="546" y="445" width="82" height="12" fill="#00f"/>
<rect x="693" y="445" width="104" height="12" fill="#00f"/>
<line x1="189" y1="451" x2="381" y2="451" stroke="#00f"/>
<line x1="461" y1="451" x2="545" y2="451" stroke="#00f"/>
<line x1="628" y1="451" x2="692" y2="451" stroke="#00f"/>
<rect x="168" y="446" width="21" height="10" fill="#ff0"/>
<rect x="383" y="446" width="78" height="10" fill="#ff0"/>
<rect x="547" y="446" width="81" height="10" fill="#ff0"/>
<rect x="694" y="446" width="47" height="10" fill="#ff0"/>
<text x="20" y="475" class="sm">3.616e-08</text>
<rect x="100" y="465" width="64" height="12" fill="#00f"/>
<rect x="382" y="465" width="79" height="12" fill="#00f"/>
<rect x="546" y="465" width="251" height="12" fill="#00f"/>
<line x1="164" y1="471" x2="381" y2="471" stroke="#00f"/>
<line x1="461" y1="471" x2="545" y2="471" stroke="#00f"/>
<rect x="741" y="466" width="26" height="10" fill="#ff0"/>
<text x="20" y="495" class="sm">1.779e-08</text>
<rect x="100" y="485" width="89" height="12" fill="#00f"/>
<rect x="382" y="485" width="79" height="12" fill="#00f"/>
<rect x="565" y="485" width="232" height="12" fill="#00f"/>
<line x1="189" y1="491" x2="381" y2="491" stroke="#00f"/>
<line x1="461" y1="491" x2="564" y2="491" stroke="#00f"/>
<rect x="168" y="486" width="21" height="10" fill="#ff0"/>
<rect x="383" y="486" width="78" height="10" fill="#ff0"/>
<rect x="566" y="486" width="168" height="10" fill="#ff0"/>
<text x="20" y="515" class="sm">1.457e-08</text>
<rect x="100" y="505" width="98" height="12" fill="#00f"/>
<rect x="434" y="505" width="27" height="12" fill="#00f"/>
<rect x="546" y="505" width="251" height="12" fill="#00f"/>
<line x1="198" y1="511" x2="433" y2="511" stroke="#00f"/>
<line x1="461" y1="511" x2="545" y2="511" stroke="#00f"/>
<rect x="168" y="506" width="26" height="10" fill="#ff0"/>
<text x="20" y="535" class="sm">8.108e-09</text>
<rect x="100" y="525" width="89" height="12" fill="#00f"/>
<rect x="382" y="525" width="65" height="12" fill="#00f"/>
<rect x="546" y="525" width="251" height="12" fill="#00f"/>
<line x1="189" y1="531" x2="381" y2="531" stroke="#00f"/>
<line x1="447" y1="531" x2="545" y2="531" stroke="#00f"/>
<rect x="168" y="526" width="21" height="10" fill="#ff0"/>
<rect x="383" y="526" width="64" height="10" fill="#ff0"/>
<rect x="547" y="526" width="194" height="10" fill="#ff0"/>
<text x="20" y="555" class="sm">2.221e-09</text>
<rect x="100" y="545" width="89" height="12" fill="#00f"/>
<rect x="382" y="545" width="79" height="12" fill="#00f"/>
<rect x="546" y="545" width="51" height="12" fill="#00f"/>
<rect x="693" y="545" width="104" height="12" fill="#00f"/>
<line x1="189" y1="551" x2="381" y2="551" stroke="#00f"/>
<line x1="461" y1="551" x2="545" y2="551" stroke="#00f"/>
<line x1="597" y1="551" x2="692" y2="551" stroke="#00f"/>
<rect x="168" y="546" width="21" height="10" fill="#ff0"/>
<rect x="383" y="546" width="78" height="10" fill="#ff0"/>
<rect x="547" y="546" width="50" height="10" fill="#ff0"/>
<rect x="694" y="546" width="9" height="10" fill="#ff0"/>
<text x="20" y="575" class="sm">2.117e-09</text>
<rect x="100" y="565" width="89" height="12" fill="#00f"/>
<rect x="251" y="565" width="28" height="12" fill="#00f"/>
<rect x="382" y="565" width="79" height="12" fill="#00f"/>
<rect x="546" y="565" width="251" height="12" fill="#00f"/>
<line x1="189" y1="571" x2="250" y2="571" stroke="#00f"/>
<line x1="279" y1="571" x2="381" y2="571" stroke="#00f"/>
<line x1="461" y1="571" x2="545" y2="571" stroke="#00f"/>
<rect x="168" y="566" width="21" height="10" fill="#ff0"/>
<rect x="252" y="566" width="27" height="10" fill="#ff0"/>
<rect x="383" y="566" width="78" height="10" fill="#ff0"/>
<rect x="547" y="566" width="194" height="10" fill="#ff0"/>
</svg>
