<svg viewBox="0 0 826 575" xmlns="http://www.w3.org/2000/svg">

<style>
  .sm { font: 12px sans-serif; }
  .lg { font: 15px sans-serif; }
</style>
<rect fill="#ddd" x="0" y="0" width="100%" height="100%"/>
<text x="20" y="20" class="lg">ch.2330 I:11909266-11910091 Gene:WBGene00011155</text>
<text x="20" y="50" class="sm">WormBase</text>
<rect x="102" y="40" width="42" height="12" fill="#00f"/>
<rect x="362" y="40" width="79" height="12" fill="#00f"/>
<rect x="496" y="40" width="232" height="12" fill="#00f"/>
<line x1="144" y1="46" x2="361" y2="46" stroke="#00f"/>
<line x1="441" y1="46" x2="495" y2="46" stroke="#00f"/>
<rect x="120" y="41" width="24" height="10" fill="#ff0"/>
<rect x="363" y="41" width="78" height="10" fill="#ff0"/>
<rect x="497" y="41" width="147" height="10" fill="#ff0"/>
<rect x="103" y="41" width="16" height="10" fill="brown"><title>.</title></rect>
<rect x="645" y="41" width="83" height="10" fill="brown"><title>.</title></rect>
<text x="20" y="70" class="sm">Fitness: 0.7632259861766211</text>
<rect x="441" y="65" width="55" height="5" fill="#00f"><title>5179870.0</title></rect>
<rect x="144" y="70" width="218" height="5" fill="#00f"><title>4637780.0</title></rect>
<rect x="144" y="75" width="238" height="5" fill="#00f"><title>8412.0</title></rect>
<rect x="436" y="80" width="60" height="5" fill="#00f"><title>811.0</title></rect>
<rect x="121" y="85" width="261" height="5" fill="#00f"><title>90.0</title></rect>
<rect x="533" y="90" width="63" height="5" fill="#f0f"><title>89.0</title></rect>
<rect x="144" y="95" width="352" height="5" fill="#00f"><title>37.0</title></rect>
<rect x="144" y="100" width="164" height="5" fill="#00f"><title>16.0</title></rect>
<rect x="393" y="105" width="166" height="5" fill="#f0f"><title>9.0</title></rect>
<rect x="137" y="110" width="254" height="5" fill="#00f"><title>7.0</title></rect>
<rect x="66" y="115" width="296" height="5" fill="#00f"><title>7.0</title></rect>
<rect x="319" y="120" width="43" height="5" fill="#00f"><title>6.0</title></rect>
<rect x="551" y="125" width="54" height="5" fill="#f0f"><title>4.0</title></rect>
<rect x="66" y="130" width="316" height="5" fill="#00f"><title>4.0</title></rect>
<rect x="188" y="135" width="218" height="5" fill="#f0f"><title>3.0</title></rect>
<text x="20" y="165" class="sm">0.5239</text>
<rect x="100" y="155" width="341" height="12" fill="#00f"/>
<rect x="496" y="155" width="233" height="12" fill="#00f"/>
<line x1="441" y1="161" x2="495" y2="161" stroke="#00f"/>
<rect x="592" y="156" width="98" height="10" fill="#ff0"/>
<text x="20" y="185" class="sm">0.1365</text>
<rect x="100" y="175" width="44" height="12" fill="#00f"/>
<rect x="382" y="175" width="347" height="12" fill="#00f"/>
<line x1="144" y1="181" x2="381" y2="181" stroke="#00f"/>
<rect x="120" y="176" width="24" height="10" fill="#ff0"/>
<rect x="383" y="176" width="208" height="10" fill="#ff0"/>
<text x="20" y="205" class="sm">0.09728</text>
<rect x="100" y="195" width="44" height="12" fill="#00f"/>
<rect x="362" y="195" width="367" height="12" fill="#00f"/>
<line x1="144" y1="201" x2="361" y2="201" stroke="#00f"/>
<rect x="469" y="196" width="122" height="10" fill="#ff0"/>
<text x="20" y="225" class="sm">0.09332</text>
<rect x="100" y="215" width="336" height="12" fill="#00f"/>
<rect x="496" y="215" width="233" height="12" fill="#00f"/>
<line x1="436" y1="221" x2="495" y2="221" stroke="#00f"/>
<rect x="592" y="216" width="98" height="10" fill="#ff0"/>
<text x="20" y="245" class="sm">0.08017</text>
<rect x="100" y="235" width="44" height="12" fill="#00f"/>
<rect x="496" y="235" width="233" height="12" fill="#00f"/>
<line x1="144" y1="241" x2="495" y2="241" stroke="#00f"/>
<rect x="120" y="236" width="24" height="10" fill="#ff0"/>
<rect x="497" y="236" width="94" height="10" fill="#ff0"/>
<text x="20" y="265" class="sm">0.03315</text>
<rect x="100" y="255" width="44" height="12" fill="#00f"/>
<rect x="301" y="255" width="428" height="12" fill="#00f"/>
<line x1="144" y1="261" x2="300" y2="261" stroke="#00f"/>
<rect x="120" y="256" width="24" height="10" fill="#ff0"/>
<rect x="302" y="256" width="289" height="10" fill="#ff0"/>
<text x="20" y="285" class="sm">0.006403</text>
<rect x="100" y="275" width="44" height="12" fill="#00f"/>
<rect x="414" y="275" width="315" height="12" fill="#00f"/>
<line x1="144" y1="281" x2="413" y2="281" stroke="#00f"/>
<rect x="469" y="276" width="122" height="10" fill="#ff0"/>
<text x="20" y="305" class="sm">0.006393</text>
<rect x="100" y="295" width="261" height="12" fill="#00f"/>
<rect x="496" y="295" width="233" height="12" fill="#00f"/>
<line x1="361" y1="301" x2="495" y2="301" stroke="#00f"/>
<rect x="592" y="296" width="98" height="10" fill="#ff0"/>
<text x="20" y="325" class="sm">0.005637</text>
<rect x="100" y="315" width="261" height="12" fill="#00f"/>
<rect x="414" y="315" width="315" height="12" fill="#00f"/>
<line x1="361" y1="321" x2="413" y2="321" stroke="#00f"/>
<rect x="469" y="316" width="122" height="10" fill="#ff0"/>
<text x="20" y="345" class="sm">0.003151</text>
<rect x="100" y="335" width="44" height="12" fill="#00f"/>
<rect x="308" y="335" width="421" height="12" fill="#00f"/>
<line x1="144" y1="341" x2="307" y2="341" stroke="#00f"/>
<rect x="120" y="336" width="24" height="10" fill="#ff0"/>
<rect x="309" y="336" width="136" height="10" fill="#ff0"/>
<text x="20" y="365" class="sm">0.002801</text>
<rect x="100" y="355" width="200" height="12" fill="#00f"/>
<rect x="362" y="355" width="367" height="12" fill="#00f"/>
<line x1="300" y1="361" x2="361" y2="361" stroke="#00f"/>
<rect x="469" y="356" width="122" height="10" fill="#ff0"/>
<text x="20" y="385" class="sm">0.001823</text>
<rect x="100" y="375" width="70" height="12" fill="#00f"/>
<rect x="382" y="375" width="347" height="12" fill="#00f"/>
<line x1="170" y1="381" x2="381" y2="381" stroke="#00f"/>
<rect x="469" y="376" width="122" height="10" fill="#ff0"/>
<text x="20" y="405" class="sm">0.001745</text>
<rect x="100" y="395" width="200" height="12" fill="#00f"/>
<rect x="382" y="395" width="347" height="12" fill="#00f"/>
<line x1="300" y1="401" x2="381" y2="401" stroke="#00f"/>
<rect x="469" y="396" width="122" height="10" fill="#ff0"/>
<text x="20" y="425" class="sm">0.001657</text>
<rect x="100" y="415" width="91" height="12" fill="#00f"/>
<rect x="382" y="415" width="347" height="12" fill="#00f"/>
<line x1="191" y1="421" x2="381" y2="421" stroke="#00f"/>
<rect x="469" y="416" width="122" height="10" fill="#ff0"/>
<text x="20" y="445" class="sm">0.001224</text>
<rect x="100" y="435" width="70" height="12" fill="#00f"/>
<rect x="362" y="435" width="367" height="12" fill="#00f"/>
<line x1="170" y1="441" x2="361" y2="441" stroke="#00f"/>
<rect x="469" y="436" width="122" height="10" fill="#ff0"/>
<text x="20" y="465" class="sm">0.001111</text>
<rect x="100" y="455" width="70" height="12" fill="#00f"/>
<rect x="496" y="455" width="233" height="12" fill="#00f"/>
<line x1="170" y1="461" x2="495" y2="461" stroke="#00f"/>
<rect x="592" y="456" width="98" height="10" fill="#ff0"/>
<text x="20" y="485" class="sm">0.001106</text>
<rect x="100" y="475" width="91" height="12" fill="#00f"/>
<rect x="496" y="475" width="233" height="12" fill="#00f"/>
<line x1="191" y1="481" x2="495" y2="481" stroke="#00f"/>
<rect x="592" y="476" width="98" height="10" fill="#ff0"/>
<text x="20" y="505" class="sm">0.001001</text>
<rect x="100" y="495" width="91" height="12" fill="#00f"/>
<rect x="362" y="495" width="367" height="12" fill="#00f"/>
<line x1="191" y1="501" x2="361" y2="501" stroke="#00f"/>
<rect x="469" y="496" width="122" height="10" fill="#ff0"/>
<text x="20" y="525" class="sm">0.0009858</text>
<rect x="100" y="515" width="202" height="12" fill="#00f"/>
<rect x="362" y="515" width="367" height="12" fill="#00f"/>
<line x1="302" y1="521" x2="361" y2="521" stroke="#00f"/>
<rect x="469" y="516" width="122" height="10" fill="#ff0"/>
<text x="20" y="545" class="sm">0.0006111</text>
<rect x="100" y="535" width="91" height="12" fill="#00f"/>
<rect x="301" y="535" width="428" height="12" fill="#00f"/>
<line x1="191" y1="541" x2="300" y2="541" stroke="#00f"/>
<rect x="469" y="536" width="122" height="10" fill="#ff0"/>
</svg>
