<svg viewBox="0 0 759 670" xmlns="http://www.w3.org/2000/svg">

<style>
  .sm { font: 12px sans-serif; }
  .lg { font: 15px sans-serif; }
</style>
<rect fill="#ddd" x="0" y="0" width="100%" height="100%"/>
<text x="20" y="20" class="lg">ch.2559 I:12918622-12919380 Gene:WBGene00001427</text>
<text x="20" y="50" class="sm">WormBase</text>
<rect x="100" y="40" width="203" height="12" fill="#00f"/>
<rect x="356" y="40" width="303" height="12" fill="#00f"/>
<line x1="303" y1="46" x2="355" y2="46" stroke="#00f"/>
<rect x="106" y="41" width="197" height="10" fill="#ff0"/>
<rect x="357" y="41" width="128" height="10" fill="#ff0"/>
<rect x="101" y="41" width="4" height="10" fill="brown"><title>.</title></rect>
<rect x="486" y="41" width="173" height="10" fill="brown"><title>.</title></rect>
<text x="20" y="70" class="sm">Fitness: 0.0002837004195988689</text>
<rect x="303" y="65" width="53" height="5" fill="#00f"><title>5238140.0</title></rect>
<rect x="303" y="70" width="60" height="5" fill="#00f"><title>2533.0</title></rect>
<rect x="307" y="75" width="49" height="5" fill="#00f"><title>1291.0</title></rect>
<rect x="294" y="80" width="62" height="5" fill="#00f"><title>264.0</title></rect>
<rect x="223" y="85" width="188" height="5" fill="#f0f"><title>127.0</title></rect>
<rect x="270" y="90" width="110" height="5" fill="#00f"><title>108.0</title></rect>
<rect x="307" y="95" width="56" height="5" fill="#00f"><title>59.0</title></rect>
<rect x="163" y="100" width="107" height="5" fill="#00f"><title>57.0</title></rect>
<rect x="144" y="105" width="126" height="5" fill="#00f"><title>51.0</title></rect>
<rect x="373" y="110" width="88" height="5" fill="#00f"><title>48.0</title></rect>
<rect x="388" y="115" width="41" height="5" fill="#f0f"><title>45.0</title></rect>
<rect x="270" y="120" width="191" height="5" fill="#00f"><title>34.0</title></rect>
<rect x="144" y="125" width="236" height="5" fill="#00f"><title>31.0</title></rect>
<rect x="176" y="130" width="209" height="5" fill="#f0f"><title>31.0</title></rect>
<rect x="111" y="135" width="102" height="5" fill="#00f"><title>30.0</title></rect>
<rect x="176" y="140" width="112" height="5" fill="#f0f"><title>26.0</title></rect>
<rect x="270" y="145" width="150" height="5" fill="#00f"><title>17.0</title></rect>
<rect x="303" y="150" width="135" height="5" fill="#00f"><title>17.0</title></rect>
<rect x="171" y="155" width="99" height="5" fill="#00f"><title>13.0</title></rect>
<rect x="506" y="160" width="30" height="5" fill="#00f"><title>11.0</title></rect>
<rect x="195" y="165" width="231" height="5" fill="#f0f"><title>10.0</title></rect>
<rect x="270" y="170" width="101" height="5" fill="#00f"><title>10.0</title></rect>
<rect x="270" y="175" width="86" height="5" fill="#00f"><title>9.0</title></rect>
<rect x="171" y="180" width="42" height="5" fill="#00f"><title>8.0</title></rect>
<rect x="176" y="185" width="250" height="5" fill="#f0f"><title>7.0</title></rect>
<rect x="220" y="190" width="165" height="5" fill="#f0f"><title>7.0</title></rect>
<rect x="398" y="195" width="45" height="5" fill="#f0f"><title>6.0</title></rect>
<rect x="270" y="200" width="250" height="5" fill="#00f"><title>5.0</title></rect>
<rect x="218" y="205" width="167" height="5" fill="#f0f"><title>3.0</title></rect>
<rect x="248" y="210" width="31" height="5" fill="#00f"><title>3.0</title></rect>
<rect x="380" y="215" width="154" height="5" fill="#f0f"><title>3.0</title></rect>
<rect x="387" y="220" width="175" height="5" fill="#00f"><title>3.0</title></rect>
<rect x="452" y="225" width="34" height="5" fill="#00f"><title>3.0</title></rect>
<rect x="476" y="230" width="30" height="5" fill="#00f"><title>3.0</title></rect>
<text x="20" y="260" class="sm">0.9992</text>
<rect x="100" y="250" width="203" height="12" fill="#00f"/>
<rect x="356" y="250" width="306" height="12" fill="#00f"/>
<line x1="303" y1="256" x2="355" y2="256" stroke="#00f"/>
<rect x="106" y="251" width="197" height="10" fill="#ff0"/>
<rect x="357" y="251" width="128" height="10" fill="#ff0"/>
<text x="20" y="280" class="sm">0.0005487</text>
<rect x="100" y="270" width="203" height="12" fill="#00f"/>
<rect x="363" y="270" width="299" height="12" fill="#00f"/>
<line x1="303" y1="276" x2="362" y2="276" stroke="#00f"/>
<rect x="106" y="271" width="197" height="10" fill="#ff0"/>
<rect x="364" y="271" width="200" height="10" fill="#ff0"/>
<text x="20" y="300" class="sm">0.00025</text>
<rect x="100" y="290" width="207" height="12" fill="#00f"/>
<rect x="356" y="290" width="306" height="12" fill="#00f"/>
<line x1="307" y1="296" x2="355" y2="296" stroke="#00f"/>
<rect x="282" y="291" width="25" height="10" fill="#ff0"/>
<rect x="357" y="291" width="207" height="10" fill="#ff0"/>
<text x="20" y="320" class="sm">7.574e-06</text>
<rect x="100" y="310" width="425" height="12" fill="#00f"/>
<rect x="574" y="310" width="88" height="12" fill="#00f"/>
<line x1="525" y1="316" x2="573" y2="316" stroke="#00f"/>
<rect x="106" y="311" width="230" height="10" fill="#ff0"/>
<text x="20" y="340" class="sm">6.975e-06</text>
<rect x="100" y="330" width="203" height="12" fill="#00f"/>
<rect x="438" y="330" width="224" height="12" fill="#00f"/>
<line x1="303" y1="336" x2="437" y2="336" stroke="#00f"/>
<rect x="106" y="331" width="197" height="10" fill="#ff0"/>
<rect x="439" y="331" width="125" height="10" fill="#ff0"/>
<text x="20" y="360" class="sm">3.002e-06</text>
<rect x="100" y="350" width="194" height="12" fill="#00f"/>
<rect x="356" y="350" width="306" height="12" fill="#00f"/>
<line x1="294" y1="356" x2="355" y2="356" stroke="#00f"/>
<rect x="106" y="351" width="188" height="10" fill="#ff0"/>
<rect x="357" y="351" width="128" height="10" fill="#ff0"/>
<text x="20" y="380" class="sm">1.587e-06</text>
<rect x="100" y="370" width="425" height="12" fill="#00f"/>
<rect x="634" y="370" width="28" height="12" fill="#00f"/>
<line x1="525" y1="376" x2="633" y2="376" stroke="#00f"/>
<rect x="106" y="371" width="230" height="10" fill="#ff0"/>
<text x="20" y="400" class="sm">1.277e-06</text>
<rect x="100" y="390" width="170" height="12" fill="#00f"/>
<rect x="356" y="390" width="306" height="12" fill="#00f"/>
<line x1="270" y1="396" x2="355" y2="396" stroke="#00f"/>
<rect x="106" y="391" width="164" height="10" fill="#ff0"/>
<rect x="357" y="391" width="128" height="10" fill="#ff0"/>
<text x="20" y="420" class="sm">8.184e-07</text>
<rect x="100" y="410" width="203" height="12" fill="#00f"/>
<rect x="380" y="410" width="282" height="12" fill="#00f"/>
<line x1="303" y1="416" x2="379" y2="416" stroke="#00f"/>
<rect x="106" y="411" width="197" height="10" fill="#ff0"/>
<rect x="381" y="411" width="104" height="10" fill="#ff0"/>
<text x="20" y="440" class="sm">7.627e-07</text>
<rect x="100" y="430" width="148" height="12" fill="#00f"/>
<rect x="356" y="430" width="306" height="12" fill="#00f"/>
<line x1="248" y1="436" x2="355" y2="436" stroke="#00f"/>
<rect x="106" y="431" width="142" height="10" fill="#ff0"/>
<rect x="357" y="431" width="207" height="10" fill="#ff0"/>
<text x="20" y="460" class="sm">7.349e-07</text>
<rect x="100" y="450" width="203" height="12" fill="#00f"/>
<rect x="517" y="450" width="145" height="12" fill="#00f"/>
<line x1="303" y1="456" x2="516" y2="456" stroke="#00f"/>
<rect x="106" y="451" width="197" height="10" fill="#ff0"/>
<rect x="518" y="451" width="26" height="10" fill="#ff0"/>
<text x="20" y="480" class="sm">5.547e-07</text>
<rect x="100" y="470" width="203" height="12" fill="#00f"/>
<rect x="506" y="470" width="156" height="12" fill="#00f"/>
<line x1="303" y1="476" x2="505" y2="476" stroke="#00f"/>
<rect x="106" y="471" width="197" height="10" fill="#ff0"/>
<rect x="507" y="471" width="41" height="10" fill="#ff0"/>
<text x="20" y="500" class="sm">3.539e-07</text>
<rect x="100" y="490" width="266" height="12" fill="#00f"/>
<rect x="438" y="490" width="224" height="12" fill="#00f"/>
<line x1="366" y1="496" x2="437" y2="496" stroke="#00f"/>
<rect x="106" y="491" width="230" height="10" fill="#ff0"/>
<text x="20" y="520" class="sm">2.67e-07</text>
<rect x="100" y="510" width="398" height="12" fill="#00f"/>
<rect x="634" y="510" width="28" height="12" fill="#00f"/>
<line x1="498" y1="516" x2="633" y2="516" stroke="#00f"/>
<rect x="106" y="511" width="230" height="10" fill="#ff0"/>
<text x="20" y="540" class="sm">1.685e-07</text>
<rect x="100" y="530" width="203" height="12" fill="#00f"/>
<rect x="634" y="530" width="28" height="12" fill="#00f"/>
<line x1="303" y1="536" x2="633" y2="536" stroke="#00f"/>
<rect x="106" y="531" width="197" height="10" fill="#ff0"/>
<rect x="635" y="531" width="2" height="10" fill="#ff0"/>
<text x="20" y="560" class="sm">1.682e-07</text>
<rect x="100" y="550" width="207" height="12" fill="#00f"/>
<rect x="363" y="550" width="299" height="12" fill="#00f"/>
<line x1="307" y1="556" x2="362" y2="556" stroke="#00f"/>
<rect x="106" y="551" width="201" height="10" fill="#ff0"/>
<rect x="364" y="551" width="121" height="10" fill="#ff0"/>
<text x="20" y="580" class="sm">9.741e-08</text>
<rect x="100" y="570" width="427" height="12" fill="#00f"/>
<rect x="574" y="570" width="88" height="12" fill="#00f"/>
<line x1="527" y1="576" x2="573" y2="576" stroke="#00f"/>
<rect x="106" y="571" width="230" height="10" fill="#ff0"/>
<text x="20" y="600" class="sm">7.108e-08</text>
<rect x="100" y="590" width="398" height="12" fill="#00f"/>
<rect x="574" y="590" width="88" height="12" fill="#00f"/>
<line x1="498" y1="596" x2="573" y2="596" stroke="#00f"/>
<rect x="106" y="591" width="230" height="10" fill="#ff0"/>
<text x="20" y="620" class="sm">5.813e-08</text>
<rect x="100" y="610" width="86" height="12" fill="#00f"/>
<rect x="356" y="610" width="306" height="12" fill="#00f"/>
<line x1="186" y1="616" x2="355" y2="616" stroke="#00f"/>
<rect x="106" y="611" width="80" height="10" fill="#ff0"/>
<rect x="357" y="611" width="128" height="10" fill="#ff0"/>
<text x="20" y="640" class="sm">5.058e-08</text>
<rect x="100" y="630" width="203" height="12" fill="#00f"/>
<rect x="461" y="630" width="201" height="12" fill="#00f"/>
<line x1="303" y1="636" x2="460" y2="636" stroke="#00f"/>
<rect x="106" y="631" width="197" height="10" fill="#ff0"/>
<rect x="462" y="631" width="23" height="10" fill="#ff0"/>
</svg>
