<svg viewBox="0 0 1124 565" xmlns="http://www.w3.org/2000/svg">

<style>
  .sm { font: 12px sans-serif; }
  .lg { font: 15px sans-serif; }
</style>
<rect fill="#ddd" x="0" y="0" width="100%" height="100%"/>
<text x="20" y="20" class="lg">ch.2077 I:10624364-10625487 Gene:WBGene00016621</text>
<text x="20" y="50" class="sm">WormBase</text>
<rect x="100" y="40" width="184" height="12" fill="#00f"/>
<rect x="575" y="40" width="150" height="12" fill="#00f"/>
<rect x="770" y="40" width="254" height="12" fill="#00f"/>
<line x1="284" y1="46" x2="574" y2="46" stroke="#00f"/>
<line x1="725" y1="46" x2="769" y2="46" stroke="#00f"/>
<rect x="108" y="41" width="176" height="10" fill="#ff0"/>
<rect x="576" y="41" width="149" height="10" fill="#ff0"/>
<rect x="771" y="41" width="140" height="10" fill="#ff0"/>
<rect x="101" y="41" width="6" height="10" fill="brown"><title>.</title></rect>
<rect x="912" y="41" width="112" height="10" fill="brown"><title>.</title></rect>
<text x="20" y="70" class="sm">Fitness: 0.7787103642084136</text>
<rect x="284" y="65" width="291" height="5" fill="#00f"><title>241238.0</title></rect>
<rect x="725" y="70" width="45" height="5" fill="#00f"><title>203238.0</title></rect>
<rect x="718" y="75" width="52" height="5" fill="#00f"><title>353.0</title></rect>
<rect x="893" y="80" width="131" height="5" fill="#00f"><title>184.0</title></rect>
<rect x="275" y="85" width="300" height="5" fill="#00f"><title>85.0</title></rect>
<rect x="284" y="90" width="486" height="5" fill="#00f"><title>48.0</title></rect>
<rect x="978" y="95" width="46" height="5" fill="#00f"><title>45.0</title></rect>
<rect x="284" y="100" width="740" height="5" fill="#00f"><title>19.0</title></rect>
<rect x="1055" y="105" width="51" height="5" fill="#00f"><title>14.0</title></rect>
<rect x="284" y="110" width="348" height="5" fill="#00f"><title>6.0</title></rect>
<rect x="899" y="115" width="125" height="5" fill="#00f"><title>5.0</title></rect>
<rect x="835" y="120" width="189" height="5" fill="#00f"><title>3.0</title></rect>
<rect x="958" y="125" width="66" height="5" fill="#00f"><title>3.0</title></rect>
<text x="20" y="155" class="sm">0.4365</text>
<rect x="100" y="145" width="184" height="12" fill="#00f"/>
<rect x="575" y="145" width="452" height="12" fill="#00f"/>
<line x1="284" y1="151" x2="574" y2="151" stroke="#00f"/>
<rect x="108" y="146" width="176" height="10" fill="#ff0"/>
<rect x="576" y="146" width="335" height="10" fill="#ff0"/>
<text x="20" y="175" class="sm">0.3153</text>
<rect x="100" y="165" width="184" height="12" fill="#00f"/>
<rect x="575" y="165" width="143" height="12" fill="#00f"/>
<rect x="770" y="165" width="257" height="12" fill="#00f"/>
<line x1="284" y1="171" x2="574" y2="171" stroke="#00f"/>
<line x1="718" y1="171" x2="769" y2="171" stroke="#00f"/>
<rect x="108" y="166" width="176" height="10" fill="#ff0"/>
<rect x="576" y="166" width="142" height="10" fill="#ff0"/>
<rect x="771" y="166" width="180" height="10" fill="#ff0"/>
<text x="20" y="195" class="sm">0.08338</text>
<rect x="100" y="185" width="184" height="12" fill="#00f"/>
<rect x="575" y="185" width="150" height="12" fill="#00f"/>
<rect x="770" y="185" width="257" height="12" fill="#00f"/>
<line x1="284" y1="191" x2="574" y2="191" stroke="#00f"/>
<line x1="725" y1="191" x2="769" y2="191" stroke="#00f"/>
<rect x="108" y="186" width="176" height="10" fill="#ff0"/>
<rect x="576" y="186" width="149" height="10" fill="#ff0"/>
<rect x="771" y="186" width="140" height="10" fill="#ff0"/>
<text x="20" y="215" class="sm">0.04426</text>
<rect x="100" y="205" width="184" height="12" fill="#00f"/>
<rect x="632" y="205" width="395" height="12" fill="#00f"/>
<line x1="284" y1="211" x2="631" y2="211" stroke="#00f"/>
<rect x="108" y="206" width="176" height="10" fill="#ff0"/>
<rect x="633" y="206" width="278" height="10" fill="#ff0"/>
<text x="20" y="235" class="sm">0.04159</text>
<rect x="100" y="225" width="184" height="12" fill="#00f"/>
<rect x="632" y="225" width="86" height="12" fill="#00f"/>
<rect x="770" y="225" width="257" height="12" fill="#00f"/>
<line x1="284" y1="231" x2="631" y2="231" stroke="#00f"/>
<line x1="718" y1="231" x2="769" y2="231" stroke="#00f"/>
<rect x="108" y="226" width="176" height="10" fill="#ff0"/>
<rect x="633" y="226" width="85" height="10" fill="#ff0"/>
<rect x="771" y="226" width="180" height="10" fill="#ff0"/>
<text x="20" y="255" class="sm">0.01134</text>
<rect x="100" y="245" width="147" height="12" fill="#00f"/>
<rect x="575" y="245" width="452" height="12" fill="#00f"/>
<line x1="247" y1="251" x2="574" y2="251" stroke="#00f"/>
<rect x="233" y="246" width="14" height="10" fill="#ff0"/>
<rect x="576" y="246" width="335" height="10" fill="#ff0"/>
<text x="20" y="275" class="sm">0.0102</text>
<rect x="100" y="265" width="184" height="12" fill="#00f"/>
<rect x="632" y="265" width="93" height="12" fill="#00f"/>
<rect x="770" y="265" width="257" height="12" fill="#00f"/>
<line x1="284" y1="271" x2="631" y2="271" stroke="#00f"/>
<line x1="725" y1="271" x2="769" y2="271" stroke="#00f"/>
<rect x="108" y="266" width="176" height="10" fill="#ff0"/>
<rect x="633" y="266" width="92" height="10" fill="#ff0"/>
<rect x="771" y="266" width="140" height="10" fill="#ff0"/>
<text x="20" y="295" class="sm">0.008192</text>
<rect x="100" y="285" width="147" height="12" fill="#00f"/>
<rect x="575" y="285" width="143" height="12" fill="#00f"/>
<rect x="770" y="285" width="257" height="12" fill="#00f"/>
<line x1="247" y1="291" x2="574" y2="291" stroke="#00f"/>
<line x1="718" y1="291" x2="769" y2="291" stroke="#00f"/>
<rect x="233" y="286" width="14" height="10" fill="#ff0"/>
<rect x="576" y="286" width="142" height="10" fill="#ff0"/>
<rect x="771" y="286" width="180" height="10" fill="#ff0"/>
<text x="20" y="315" class="sm">0.007682</text>
<rect x="100" y="305" width="184" height="12" fill="#00f"/>
<rect x="433" y="305" width="285" height="12" fill="#00f"/>
<rect x="770" y="305" width="257" height="12" fill="#00f"/>
<line x1="284" y1="311" x2="432" y2="311" stroke="#00f"/>
<line x1="718" y1="311" x2="769" y2="311" stroke="#00f"/>
<rect x="576" y="306" width="142" height="10" fill="#ff0"/>
<rect x="771" y="306" width="180" height="10" fill="#ff0"/>
<text x="20" y="335" class="sm">0.006636</text>
<rect x="100" y="325" width="184" height="12" fill="#00f"/>
<rect x="433" y="325" width="594" height="12" fill="#00f"/>
<line x1="284" y1="331" x2="432" y2="331" stroke="#00f"/>
<rect x="576" y="326" width="335" height="10" fill="#ff0"/>
<text x="20" y="355" class="sm">0.005627</text>
<rect x="100" y="345" width="175" height="12" fill="#00f"/>
<rect x="575" y="345" width="452" height="12" fill="#00f"/>
<line x1="275" y1="351" x2="574" y2="351" stroke="#00f"/>
<rect x="108" y="346" width="167" height="10" fill="#ff0"/>
<rect x="576" y="346" width="335" height="10" fill="#ff0"/>
<text x="20" y="375" class="sm">0.00482</text>
<rect x="100" y="365" width="618" height="12" fill="#00f"/>
<rect x="770" y="365" width="257" height="12" fill="#00f"/>
<line x1="718" y1="371" x2="769" y2="371" stroke="#00f"/>
<rect x="576" y="366" width="142" height="10" fill="#ff0"/>
<rect x="771" y="366" width="180" height="10" fill="#ff0"/>
<text x="20" y="395" class="sm">0.004479</text>
<rect x="100" y="385" width="184" height="12" fill="#00f"/>
<rect x="770" y="385" width="257" height="12" fill="#00f"/>
<line x1="284" y1="391" x2="769" y2="391" stroke="#00f"/>
<rect x="108" y="386" width="176" height="10" fill="#ff0"/>
<rect x="771" y="386" width="140" height="10" fill="#ff0"/>
<text x="20" y="415" class="sm">0.004065</text>
<rect x="100" y="405" width="175" height="12" fill="#00f"/>
<rect x="575" y="405" width="143" height="12" fill="#00f"/>
<rect x="770" y="405" width="257" height="12" fill="#00f"/>
<line x1="275" y1="411" x2="574" y2="411" stroke="#00f"/>
<line x1="718" y1="411" x2="769" y2="411" stroke="#00f"/>
<rect x="108" y="406" width="167" height="10" fill="#ff0"/>
<rect x="576" y="406" width="142" height="10" fill="#ff0"/>
<rect x="771" y="406" width="180" height="10" fill="#ff0"/>
<text x="20" y="435" class="sm">0.003215</text>
<rect x="100" y="425" width="184" height="12" fill="#00f"/>
<rect x="433" y="425" width="144" height="12" fill="#00f"/>
<rect x="632" y="425" width="395" height="12" fill="#00f"/>
<line x1="284" y1="431" x2="432" y2="431" stroke="#00f"/>
<line x1="577" y1="431" x2="631" y2="431" stroke="#00f"/>
<rect x="108" y="426" width="176" height="10" fill="#ff0"/>
<rect x="434" y="426" width="125" height="10" fill="#ff0"/>
<text x="20" y="455" class="sm">0.003021</text>
<rect x="100" y="445" width="184" height="12" fill="#00f"/>
<rect x="433" y="445" width="144" height="12" fill="#00f"/>
<rect x="632" y="445" width="86" height="12" fill="#00f"/>
<rect x="770" y="445" width="257" height="12" fill="#00f"/>
<line x1="284" y1="451" x2="432" y2="451" stroke="#00f"/>
<line x1="577" y1="451" x2="631" y2="451" stroke="#00f"/>
<line x1="718" y1="451" x2="769" y2="451" stroke="#00f"/>
<rect x="108" y="446" width="176" height="10" fill="#ff0"/>
<rect x="434" y="446" width="125" height="10" fill="#ff0"/>
<text x="20" y="475" class="sm">0.002814</text>
<rect x="100" y="465" width="477" height="12" fill="#00f"/>
<rect x="632" y="465" width="395" height="12" fill="#00f"/>
<line x1="577" y1="471" x2="631" y2="471" stroke="#00f"/>
<rect x="108" y="466" width="185" height="10" fill="#ff0"/>
<text x="20" y="495" class="sm">0.002644</text>
<rect x="100" y="485" width="477" height="12" fill="#00f"/>
<rect x="632" y="485" width="86" height="12" fill="#00f"/>
<rect x="770" y="485" width="257" height="12" fill="#00f"/>
<line x1="577" y1="491" x2="631" y2="491" stroke="#00f"/>
<line x1="718" y1="491" x2="769" y2="491" stroke="#00f"/>
<rect x="108" y="486" width="185" height="10" fill="#ff0"/>
<text x="20" y="515" class="sm">0.002166</text>
<rect x="100" y="505" width="147" height="12" fill="#00f"/>
<rect x="575" y="505" width="150" height="12" fill="#00f"/>
<rect x="770" y="505" width="257" height="12" fill="#00f"/>
<line x1="247" y1="511" x2="574" y2="511" stroke="#00f"/>
<line x1="725" y1="511" x2="769" y2="511" stroke="#00f"/>
<rect x="233" y="506" width="14" height="10" fill="#ff0"/>
<rect x="576" y="506" width="149" height="10" fill="#ff0"/>
<rect x="771" y="506" width="140" height="10" fill="#ff0"/>
<text x="20" y="535" class="sm">0.00202</text>
<rect x="100" y="525" width="184" height="12" fill="#00f"/>
<rect x="433" y="525" width="292" height="12" fill="#00f"/>
<rect x="770" y="525" width="257" height="12" fill="#00f"/>
<line x1="284" y1="531" x2="432" y2="531" stroke="#00f"/>
<line x1="725" y1="531" x2="769" y2="531" stroke="#00f"/>
<rect x="108" y="526" width="176" height="10" fill="#ff0"/>
<rect x="434" y="526" width="125" height="10" fill="#ff0"/>
</svg>
