<svg viewBox="0 0 650 540" xmlns="http://www.w3.org/2000/svg">

<style>
  .sm { font: 12px sans-serif; }
  .lg { font: 15px sans-serif; }
</style>
<rect fill="#ddd" x="0" y="0" width="100%" height="100%"/>
<text x="20" y="20" class="lg">ch.2784 I:14113536-14114185 Gene:WBGene00013406</text>
<text x="20" y="50" class="sm">WormBase</text>
<rect x="100" y="40" width="173" height="12" fill="#00f"/>
<rect x="317" y="40" width="67" height="12" fill="#00f"/>
<rect x="429" y="40" width="121" height="12" fill="#00f"/>
<line x1="273" y1="46" x2="316" y2="46" stroke="#00f"/>
<line x1="384" y1="46" x2="428" y2="46" stroke="#00f"/>
<rect x="101" y="41" width="172" height="10" fill="#ff0"/>
<rect x="318" y="41" width="66" height="10" fill="#ff0"/>
<rect x="430" y="41" width="38" height="10" fill="#ff0"/>
<rect x="469" y="41" width="81" height="10" fill="brown"><title>.</title></rect>
<text x="20" y="70" class="sm">Fitness: 0.1636485595237281</text>
<rect x="273" y="65" width="44" height="5" fill="#00f"><title>1269480.0</title></rect>
<rect x="384" y="70" width="45" height="5" fill="#00f"><title>928610.0</title></rect>
<rect x="273" y="75" width="46" height="5" fill="#00f"><title>111.0</title></rect>
<rect x="265" y="80" width="52" height="5" fill="#00f"><title>48.0</title></rect>
<rect x="255" y="85" width="62" height="5" fill="#00f"><title>26.0</title></rect>
<rect x="273" y="90" width="56" height="5" fill="#00f"><title>24.0</title></rect>
<rect x="26" y="95" width="74" height="5" fill="#00f"><title>18.0</title></rect>
<rect x="248" y="100" width="69" height="5" fill="#00f"><title>4.0</title></rect>
<text x="20" y="130" class="sm">0.9912</text>
<rect x="100" y="120" width="173" height="12" fill="#00f"/>
<rect x="317" y="120" width="67" height="12" fill="#00f"/>
<rect x="429" y="120" width="124" height="12" fill="#00f"/>
<line x1="273" y1="126" x2="316" y2="126" stroke="#00f"/>
<line x1="384" y1="126" x2="428" y2="126" stroke="#00f"/>
<rect x="101" y="121" width="172" height="10" fill="#ff0"/>
<rect x="318" y="121" width="66" height="10" fill="#ff0"/>
<rect x="430" y="121" width="38" height="10" fill="#ff0"/>
<text x="20" y="150" class="sm">0.004928</text>
<rect x="100" y="140" width="165" height="12" fill="#00f"/>
<rect x="317" y="140" width="67" height="12" fill="#00f"/>
<rect x="429" y="140" width="124" height="12" fill="#00f"/>
<line x1="265" y1="146" x2="316" y2="146" stroke="#00f"/>
<line x1="384" y1="146" x2="428" y2="146" stroke="#00f"/>
<rect x="101" y="141" width="164" height="10" fill="#ff0"/>
<rect x="318" y="141" width="29" height="10" fill="#ff0"/>
<text x="20" y="170" class="sm">0.003121</text>
<rect x="100" y="160" width="148" height="12" fill="#00f"/>
<rect x="317" y="160" width="67" height="12" fill="#00f"/>
<rect x="429" y="160" width="124" height="12" fill="#00f"/>
<line x1="248" y1="166" x2="316" y2="166" stroke="#00f"/>
<line x1="384" y1="166" x2="428" y2="166" stroke="#00f"/>
<rect x="101" y="161" width="147" height="10" fill="#ff0"/>
<rect x="318" y="161" width="66" height="10" fill="#ff0"/>
<rect x="430" y="161" width="105" height="10" fill="#ff0"/>
<text x="20" y="190" class="sm">0.0003107</text>
<rect x="100" y="180" width="173" height="12" fill="#00f"/>
<rect x="317" y="180" width="67" height="12" fill="#00f"/>
<rect x="429" y="180" width="50" height="12" fill="#00f"/>
<rect x="524" y="180" width="29" height="12" fill="#00f"/>
<line x1="273" y1="186" x2="316" y2="186" stroke="#00f"/>
<line x1="384" y1="186" x2="428" y2="186" stroke="#00f"/>
<line x1="479" y1="186" x2="523" y2="186" stroke="#00f"/>
<rect x="101" y="181" width="172" height="10" fill="#ff0"/>
<rect x="318" y="181" width="66" height="10" fill="#ff0"/>
<rect x="430" y="181" width="38" height="10" fill="#ff0"/>
<text x="20" y="210" class="sm">0.0002408</text>
<rect x="100" y="200" width="284" height="12" fill="#00f"/>
<rect x="429" y="200" width="124" height="12" fill="#00f"/>
<line x1="384" y1="206" x2="428" y2="206" stroke="#00f"/>
<rect x="101" y="201" width="283" height="10" fill="#ff0"/>
<rect x="430" y="201" width="105" height="10" fill="#ff0"/>
<text x="20" y="230" class="sm">0.0001132</text>
<rect x="100" y="220" width="105" height="12" fill="#00f"/>
<rect x="317" y="220" width="67" height="12" fill="#00f"/>
<rect x="429" y="220" width="124" height="12" fill="#00f"/>
<line x1="205" y1="226" x2="316" y2="226" stroke="#00f"/>
<line x1="384" y1="226" x2="428" y2="226" stroke="#00f"/>
<rect x="101" y="221" width="104" height="10" fill="#ff0"/>
<rect x="318" y="221" width="29" height="10" fill="#ff0"/>
<text x="20" y="250" class="sm">0.0001051</text>
<rect x="100" y="240" width="155" height="12" fill="#00f"/>
<rect x="317" y="240" width="67" height="12" fill="#00f"/>
<rect x="429" y="240" width="124" height="12" fill="#00f"/>
<line x1="255" y1="246" x2="316" y2="246" stroke="#00f"/>
<line x1="384" y1="246" x2="428" y2="246" stroke="#00f"/>
<rect x="101" y="241" width="154" height="10" fill="#ff0"/>
<rect x="318" y="241" width="66" height="10" fill="#ff0"/>
<rect x="430" y="241" width="38" height="10" fill="#ff0"/>
<text x="20" y="270" class="sm">1.264e-05</text>
<rect x="100" y="260" width="86" height="12" fill="#00f"/>
<rect x="232" y="260" width="41" height="12" fill="#00f"/>
<rect x="317" y="260" width="67" height="12" fill="#00f"/>
<rect x="429" y="260" width="124" height="12" fill="#00f"/>
<line x1="186" y1="266" x2="231" y2="266" stroke="#00f"/>
<line x1="273" y1="266" x2="316" y2="266" stroke="#00f"/>
<line x1="384" y1="266" x2="428" y2="266" stroke="#00f"/>
<rect x="383" y="261" width="1" height="10" fill="#ff0"/>
<rect x="430" y="261" width="105" height="10" fill="#ff0"/>
<text x="20" y="290" class="sm">7.323e-06</text>
<rect x="100" y="280" width="173" height="12" fill="#00f"/>
<rect x="317" y="280" width="54" height="12" fill="#00f"/>
<rect x="429" y="280" width="124" height="12" fill="#00f"/>
<line x1="273" y1="286" x2="316" y2="286" stroke="#00f"/>
<line x1="371" y1="286" x2="428" y2="286" stroke="#00f"/>
<rect x="101" y="281" width="172" height="10" fill="#ff0"/>
<rect x="318" y="281" width="53" height="10" fill="#ff0"/>
<rect x="430" y="281" width="105" height="10" fill="#ff0"/>
<text x="20" y="310" class="sm">1.749e-06</text>
<rect x="100" y="300" width="86" height="12" fill="#00f"/>
<rect x="317" y="300" width="67" height="12" fill="#00f"/>
<rect x="429" y="300" width="124" height="12" fill="#00f"/>
<line x1="186" y1="306" x2="316" y2="306" stroke="#00f"/>
<line x1="384" y1="306" x2="428" y2="306" stroke="#00f"/>
<rect x="101" y="301" width="85" height="10" fill="#ff0"/>
<rect x="318" y="301" width="66" height="10" fill="#ff0"/>
<rect x="430" y="301" width="38" height="10" fill="#ff0"/>
<text x="20" y="330" class="sm">1.545e-06</text>
<rect x="100" y="320" width="165" height="12" fill="#00f"/>
<rect x="317" y="320" width="67" height="12" fill="#00f"/>
<rect x="429" y="320" width="50" height="12" fill="#00f"/>
<rect x="524" y="320" width="29" height="12" fill="#00f"/>
<line x1="265" y1="326" x2="316" y2="326" stroke="#00f"/>
<line x1="384" y1="326" x2="428" y2="326" stroke="#00f"/>
<line x1="479" y1="326" x2="523" y2="326" stroke="#00f"/>
<rect x="101" y="321" width="164" height="10" fill="#ff0"/>
<rect x="318" y="321" width="29" height="10" fill="#ff0"/>
<text x="20" y="350" class="sm">9.786e-07</text>
<rect x="100" y="340" width="148" height="12" fill="#00f"/>
<rect x="317" y="340" width="67" height="12" fill="#00f"/>
<rect x="429" y="340" width="50" height="12" fill="#00f"/>
<rect x="524" y="340" width="29" height="12" fill="#00f"/>
<line x1="248" y1="346" x2="316" y2="346" stroke="#00f"/>
<line x1="384" y1="346" x2="428" y2="346" stroke="#00f"/>
<line x1="479" y1="346" x2="523" y2="346" stroke="#00f"/>
<rect x="101" y="341" width="147" height="10" fill="#ff0"/>
<rect x="318" y="341" width="66" height="10" fill="#ff0"/>
<rect x="430" y="341" width="49" height="10" fill="#ff0"/>
<rect x="525" y="341" width="10" height="10" fill="#ff0"/>
<text x="20" y="370" class="sm">4.273e-07</text>
<rect x="100" y="360" width="78" height="12" fill="#00f"/>
<rect x="232" y="360" width="41" height="12" fill="#00f"/>
<rect x="317" y="360" width="67" height="12" fill="#00f"/>
<rect x="429" y="360" width="124" height="12" fill="#00f"/>
<line x1="178" y1="366" x2="231" y2="366" stroke="#00f"/>
<line x1="273" y1="366" x2="316" y2="366" stroke="#00f"/>
<line x1="384" y1="366" x2="428" y2="366" stroke="#00f"/>
<rect x="101" y="361" width="77" height="10" fill="#ff0"/>
<rect x="233" y="361" width="40" height="10" fill="#ff0"/>
<rect x="318" y="361" width="66" height="10" fill="#ff0"/>
<rect x="430" y="361" width="38" height="10" fill="#ff0"/>
<text x="20" y="390" class="sm">4.142e-07</text>
<rect x="100" y="380" width="173" height="12" fill="#00f"/>
<rect x="317" y="380" width="236" height="12" fill="#00f"/>
<line x1="273" y1="386" x2="316" y2="386" stroke="#00f"/>
<rect x="101" y="381" width="172" height="10" fill="#ff0"/>
<rect x="318" y="381" width="150" height="10" fill="#ff0"/>
<text x="20" y="410" class="sm">3.381e-07</text>
<rect x="100" y="400" width="78" height="12" fill="#00f"/>
<rect x="317" y="400" width="67" height="12" fill="#00f"/>
<rect x="429" y="400" width="124" height="12" fill="#00f"/>
<line x1="178" y1="406" x2="316" y2="406" stroke="#00f"/>
<line x1="384" y1="406" x2="428" y2="406" stroke="#00f"/>
<rect x="101" y="401" width="77" height="10" fill="#ff0"/>
<rect x="318" y="401" width="29" height="10" fill="#ff0"/>
<text x="20" y="430" class="sm">1.746e-07</text>
<rect x="100" y="420" width="131" height="12" fill="#00f"/>
<rect x="317" y="420" width="67" height="12" fill="#00f"/>
<rect x="429" y="420" width="124" height="12" fill="#00f"/>
<line x1="231" y1="426" x2="316" y2="426" stroke="#00f"/>
<line x1="384" y1="426" x2="428" y2="426" stroke="#00f"/>
<rect x="101" y="421" width="130" height="10" fill="#ff0"/>
<rect x="318" y="421" width="66" height="10" fill="#ff0"/>
<rect x="430" y="421" width="38" height="10" fill="#ff0"/>
<text x="20" y="450" class="sm">1.249e-07</text>
<rect x="100" y="440" width="148" height="12" fill="#00f"/>
<rect x="429" y="440" width="124" height="12" fill="#00f"/>
<line x1="248" y1="446" x2="428" y2="446" stroke="#00f"/>
<rect x="101" y="441" width="147" height="10" fill="#ff0"/>
<rect x="430" y="441" width="55" height="10" fill="#ff0"/>
<text x="20" y="470" class="sm">7.548e-08</text>
<rect x="100" y="460" width="284" height="12" fill="#00f"/>
<rect x="429" y="460" width="50" height="12" fill="#00f"/>
<rect x="524" y="460" width="29" height="12" fill="#00f"/>
<line x1="384" y1="466" x2="428" y2="466" stroke="#00f"/>
<line x1="479" y1="466" x2="523" y2="466" stroke="#00f"/>
<rect x="101" y="461" width="283" height="10" fill="#ff0"/>
<rect x="430" y="461" width="49" height="10" fill="#ff0"/>
<rect x="525" y="461" width="10" height="10" fill="#ff0"/>
<text x="20" y="490" class="sm">5.482e-08</text>
<rect x="100" y="480" width="86" height="12" fill="#00f"/>
<rect x="232" y="480" width="152" height="12" fill="#00f"/>
<rect x="429" y="480" width="124" height="12" fill="#00f"/>
<line x1="186" y1="486" x2="231" y2="486" stroke="#00f"/>
<line x1="384" y1="486" x2="428" y2="486" stroke="#00f"/>
<rect x="383" y="481" width="1" height="10" fill="#ff0"/>
<rect x="430" y="481" width="105" height="10" fill="#ff0"/>
<text x="20" y="510" class="sm">4.5e-08</text>
<rect x="100" y="500" width="48" height="12" fill="#00f"/>
<rect x="317" y="500" width="67" height="12" fill="#00f"/>
<rect x="429" y="500" width="124" height="12" fill="#00f"/>
<line x1="148" y1="506" x2="316" y2="506" stroke="#00f"/>
<line x1="384" y1="506" x2="428" y2="506" stroke="#00f"/>
<rect x="383" y="501" width="1" height="10" fill="#ff0"/>
<rect x="430" y="501" width="105" height="10" fill="#ff0"/>
</svg>
