<svg viewBox="0 0 690 530" xmlns="http://www.w3.org/2000/svg">

<style>
  .sm { font: 12px sans-serif; }
  .lg { font: 15px sans-serif; }
</style>
<rect fill="#ddd" x="0" y="0" width="100%" height="100%"/>
<text x="20" y="20" class="lg">ch.2011 I:10373273-10373962 Gene:WBGene00003587</text>
<text x="20" y="50" class="sm">WormBase</text>
<rect x="102" y="40" width="90" height="12" fill="#00f"/>
<rect x="260" y="40" width="332" height="12" fill="#00f"/>
<line x1="192" y1="46" x2="259" y2="46" stroke="#00f"/>
<rect x="106" y="41" width="86" height="10" fill="#ff0"/>
<rect x="261" y="41" width="146" height="10" fill="#ff0"/>
<rect x="103" y="41" width="2" height="10" fill="brown"><title>.</title></rect>
<rect x="408" y="41" width="184" height="10" fill="brown"><title>.</title></rect>
<text x="20" y="70" class="sm">Fitness: 3.365303055880219e-05</text>
<rect x="192" y="65" width="68" height="5" fill="#00f"><title>1172750.0</title></rect>
<rect x="192" y="70" width="81" height="5" fill="#00f"><title>10.0</title></rect>
<rect x="192" y="75" width="75" height="5" fill="#00f"><title>6.0</title></rect>
<rect x="192" y="80" width="84" height="5" fill="#00f"><title>5.0</title></rect>
<rect x="192" y="85" width="104" height="5" fill="#00f"><title>4.0</title></rect>
<rect x="57" y="90" width="45" height="5" fill="#00f"><title>4.0</title></rect>
<text x="20" y="120" class="sm">1.0</text>
<rect x="100" y="110" width="92" height="12" fill="#00f"/>
<rect x="260" y="110" width="333" height="12" fill="#00f"/>
<line x1="192" y1="116" x2="259" y2="116" stroke="#00f"/>
<rect x="106" y="111" width="86" height="10" fill="#ff0"/>
<rect x="261" y="111" width="146" height="10" fill="#ff0"/>
<text x="20" y="140" class="sm">1.742e-05</text>
<rect x="100" y="130" width="92" height="12" fill="#00f"/>
<rect x="267" y="130" width="326" height="12" fill="#00f"/>
<line x1="192" y1="136" x2="266" y2="136" stroke="#00f"/>
<rect x="164" y="131" width="28" height="10" fill="#ff0"/>
<rect x="268" y="131" width="318" height="10" fill="#ff0"/>
<text x="20" y="160" class="sm">3.224e-06</text>
<rect x="100" y="150" width="71" height="12" fill="#00f"/>
<rect x="260" y="150" width="333" height="12" fill="#00f"/>
<line x1="171" y1="156" x2="259" y2="156" stroke="#00f"/>
<rect x="106" y="151" width="65" height="10" fill="#ff0"/>
<rect x="261" y="151" width="146" height="10" fill="#ff0"/>
<text x="20" y="180" class="sm">2.168e-06</text>
<rect x="100" y="170" width="92" height="12" fill="#00f"/>
<rect x="296" y="170" width="297" height="12" fill="#00f"/>
<line x1="192" y1="176" x2="295" y2="176" stroke="#00f"/>
<rect x="106" y="171" width="86" height="10" fill="#ff0"/>
<rect x="297" y="171" width="110" height="10" fill="#ff0"/>
<text x="20" y="200" class="sm">5.724e-07</text>
<rect x="100" y="190" width="92" height="12" fill="#00f"/>
<rect x="276" y="190" width="317" height="12" fill="#00f"/>
<line x1="192" y1="196" x2="275" y2="196" stroke="#00f"/>
<rect x="164" y="191" width="28" height="10" fill="#ff0"/>
<rect x="277" y="191" width="309" height="10" fill="#ff0"/>
<text x="20" y="220" class="sm">3.56e-07</text>
<rect x="100" y="210" width="92" height="12" fill="#00f"/>
<rect x="477" y="210" width="116" height="12" fill="#00f"/>
<line x1="192" y1="216" x2="476" y2="216" stroke="#00f"/>
<rect x="106" y="211" width="86" height="10" fill="#ff0"/>
<rect x="478" y="211" width="68" height="10" fill="#ff0"/>
<text x="20" y="240" class="sm">1.946e-07</text>
<rect x="100" y="230" width="92" height="12" fill="#00f"/>
<rect x="339" y="230" width="254" height="12" fill="#00f"/>
<line x1="192" y1="236" x2="338" y2="236" stroke="#00f"/>
<rect x="164" y="231" width="28" height="10" fill="#ff0"/>
<rect x="340" y="231" width="246" height="10" fill="#ff0"/>
<text x="20" y="260" class="sm">7.596e-08</text>
<rect x="100" y="250" width="92" height="12" fill="#00f"/>
<rect x="342" y="250" width="251" height="12" fill="#00f"/>
<line x1="192" y1="256" x2="341" y2="256" stroke="#00f"/>
<rect x="164" y="251" width="28" height="10" fill="#ff0"/>
<rect x="343" y="251" width="243" height="10" fill="#ff0"/>
<text x="20" y="280" class="sm">4.469e-08</text>
<rect x="100" y="270" width="92" height="12" fill="#00f"/>
<rect x="273" y="270" width="320" height="12" fill="#00f"/>
<line x1="192" y1="276" x2="272" y2="276" stroke="#00f"/>
<rect x="164" y="271" width="28" height="10" fill="#ff0"/>
<rect x="274" y="271" width="312" height="10" fill="#ff0"/>
<text x="20" y="300" class="sm">2.135e-08</text>
<rect x="100" y="290" width="92" height="12" fill="#00f"/>
<rect x="353" y="290" width="240" height="12" fill="#00f"/>
<line x1="192" y1="296" x2="352" y2="296" stroke="#00f"/>
<rect x="106" y="291" width="86" height="10" fill="#ff0"/>
<rect x="354" y="291" width="53" height="10" fill="#ff0"/>
<text x="20" y="320" class="sm">1.397e-08</text>
<rect x="100" y="310" width="92" height="12" fill="#00f"/>
<rect x="345" y="310" width="248" height="12" fill="#00f"/>
<line x1="192" y1="316" x2="344" y2="316" stroke="#00f"/>
<rect x="164" y="311" width="28" height="10" fill="#ff0"/>
<rect x="346" y="311" width="240" height="10" fill="#ff0"/>
<text x="20" y="340" class="sm">1.164e-08</text>
<rect x="100" y="330" width="92" height="12" fill="#00f"/>
<rect x="538" y="330" width="55" height="12" fill="#00f"/>
<line x1="192" y1="336" x2="537" y2="336" stroke="#00f"/>
<rect x="106" y="331" width="86" height="10" fill="#ff0"/>
<rect x="539" y="331" width="47" height="10" fill="#ff0"/>
<text x="20" y="360" class="sm">9.735e-09</text>
<rect x="100" y="350" width="92" height="12" fill="#00f"/>
<rect x="450" y="350" width="143" height="12" fill="#00f"/>
<line x1="192" y1="356" x2="449" y2="356" stroke="#00f"/>
<rect x="106" y="351" width="86" height="10" fill="#ff0"/>
<rect x="451" y="351" width="95" height="10" fill="#ff0"/>
<text x="20" y="380" class="sm">8.345e-09</text>
<rect x="100" y="370" width="313" height="12" fill="#00f"/>
<rect x="477" y="370" width="116" height="12" fill="#00f"/>
<line x1="413" y1="376" x2="476" y2="376" stroke="#00f"/>
<rect x="106" y="371" width="116" height="10" fill="#ff0"/>
<text x="20" y="400" class="sm">5.726e-09</text>
<rect x="100" y="390" width="92" height="12" fill="#00f"/>
<rect x="335" y="390" width="258" height="12" fill="#00f"/>
<line x1="192" y1="396" x2="334" y2="396" stroke="#00f"/>
<rect x="106" y="391" width="86" height="10" fill="#ff0"/>
<rect x="336" y="391" width="71" height="10" fill="#ff0"/>
<text x="20" y="420" class="sm">4.786e-09</text>
<rect x="100" y="410" width="328" height="12" fill="#00f"/>
<rect x="477" y="410" width="116" height="12" fill="#00f"/>
<line x1="428" y1="416" x2="476" y2="416" stroke="#00f"/>
<rect x="412" y="411" width="16" height="10" fill="#ff0"/>
<rect x="478" y="411" width="108" height="10" fill="#ff0"/>
<text x="20" y="440" class="sm">1.246e-09</text>
<rect x="100" y="430" width="92" height="12" fill="#00f"/>
<rect x="317" y="430" width="276" height="12" fill="#00f"/>
<line x1="192" y1="436" x2="316" y2="436" stroke="#00f"/>
<rect x="106" y="431" width="86" height="10" fill="#ff0"/>
<rect x="318" y="431" width="89" height="10" fill="#ff0"/>
<text x="20" y="460" class="sm">5.925e-10</text>
<rect x="100" y="450" width="92" height="12" fill="#00f"/>
<rect x="408" y="450" width="185" height="12" fill="#00f"/>
<line x1="192" y1="456" x2="407" y2="456" stroke="#00f"/>
<rect x="164" y="451" width="28" height="10" fill="#ff0"/>
<rect x="409" y="451" width="177" height="10" fill="#ff0"/>
<text x="20" y="480" class="sm">3.916e-10</text>
<rect x="100" y="470" width="328" height="12" fill="#00f"/>
<rect x="538" y="470" width="55" height="12" fill="#00f"/>
<line x1="428" y1="476" x2="537" y2="476" stroke="#00f"/>
<rect x="106" y="471" width="116" height="10" fill="#ff0"/>
<text x="20" y="500" class="sm">3.587e-10</text>
<rect x="100" y="490" width="313" height="12" fill="#00f"/>
<rect x="538" y="490" width="55" height="12" fill="#00f"/>
<line x1="413" y1="496" x2="537" y2="496" stroke="#00f"/>
<rect x="106" y="491" width="116" height="10" fill="#ff0"/>
</svg>
