<svg viewBox="0 0 553 520" xmlns="http://www.w3.org/2000/svg">

<style>
  .sm { font: 12px sans-serif; }
  .lg { font: 15px sans-serif; }
</style>
<rect fill="#ddd" x="0" y="0" width="100%" height="100%"/>
<text x="20" y="20" class="lg">ch.2762 I:14027136-14027688 Gene:WBGene00002110</text>
<text x="20" y="50" class="sm">WormBase</text>
<rect x="100" y="40" width="167" height="12" fill="#00f"/>
<rect x="310" y="40" width="143" height="12" fill="#00f"/>
<line x1="267" y1="46" x2="309" y2="46" stroke="#00f"/>
<rect x="120" y="41" width="147" height="10" fill="#ff0"/>
<rect x="311" y="41" width="103" height="10" fill="#ff0"/>
<rect x="101" y="41" width="18" height="10" fill="brown"><title>.</title></rect>
<rect x="415" y="41" width="38" height="10" fill="brown"><title>.</title></rect>
<text x="20" y="70" class="sm">Fitness: 0.010360890428184203</text>
<rect x="267" y="65" width="43" height="5" fill="#00f"><title>421472.0</title></rect>
<rect x="186" y="70" width="124" height="5" fill="#00f"><title>18.0</title></rect>
<rect x="253" y="75" width="57" height="5" fill="#00f"><title>9.0</title></rect>
<rect x="270" y="80" width="40" height="5" fill="#00f"><title>6.0</title></rect>
<text x="20" y="110" class="sm">0.9948</text>
<rect x="100" y="100" width="167" height="12" fill="#00f"/>
<rect x="310" y="100" width="146" height="12" fill="#00f"/>
<line x1="267" y1="106" x2="309" y2="106" stroke="#00f"/>
<rect x="120" y="101" width="147" height="10" fill="#ff0"/>
<rect x="311" y="101" width="103" height="10" fill="#ff0"/>
<text x="20" y="130" class="sm">0.002602</text>
<rect x="100" y="120" width="170" height="12" fill="#00f"/>
<rect x="310" y="120" width="146" height="12" fill="#00f"/>
<line x1="270" y1="126" x2="309" y2="126" stroke="#00f"/>
<rect x="120" y="121" width="150" height="10" fill="#ff0"/>
<rect x="311" y="121" width="103" height="10" fill="#ff0"/>
<text x="20" y="150" class="sm">0.002355</text>
<rect x="100" y="140" width="153" height="12" fill="#00f"/>
<rect x="310" y="140" width="146" height="12" fill="#00f"/>
<line x1="253" y1="146" x2="309" y2="146" stroke="#00f"/>
<rect x="120" y="141" width="133" height="10" fill="#ff0"/>
<rect x="311" y="141" width="72" height="10" fill="#ff0"/>
<text x="20" y="170" class="sm">0.0001294</text>
<rect x="100" y="160" width="107" height="12" fill="#00f"/>
<rect x="260" y="160" width="196" height="12" fill="#00f"/>
<line x1="207" y1="166" x2="259" y2="166" stroke="#00f"/>
<rect x="120" y="161" width="87" height="10" fill="#ff0"/>
<rect x="261" y="161" width="1" height="10" fill="#ff0"/>
<text x="20" y="190" class="sm">5.008e-05</text>
<rect x="100" y="180" width="55" height="12" fill="#00f"/>
<rect x="200" y="180" width="256" height="12" fill="#00f"/>
<line x1="155" y1="186" x2="199" y2="186" stroke="#00f"/>
<rect x="120" y="181" width="35" height="10" fill="#ff0"/>
<rect x="201" y="181" width="182" height="10" fill="#ff0"/>
<text x="20" y="210" class="sm">2.724e-05</text>
<rect x="100" y="200" width="130" height="12" fill="#00f"/>
<rect x="271" y="200" width="185" height="12" fill="#00f"/>
<line x1="230" y1="206" x2="270" y2="206" stroke="#00f"/>
<rect x="120" y="201" width="110" height="10" fill="#ff0"/>
<rect x="272" y="201" width="11" height="10" fill="#ff0"/>
<text x="20" y="230" class="sm">1.411e-05</text>
<rect x="100" y="220" width="179" height="12" fill="#00f"/>
<rect x="324" y="220" width="132" height="12" fill="#00f"/>
<line x1="279" y1="226" x2="323" y2="226" stroke="#00f"/>
<rect x="120" y="221" width="159" height="10" fill="#ff0"/>
<rect x="325" y="221" width="58" height="10" fill="#ff0"/>
<text x="20" y="250" class="sm">1.168e-05</text>
<rect x="100" y="240" width="104" height="12" fill="#00f"/>
<rect x="260" y="240" width="196" height="12" fill="#00f"/>
<line x1="204" y1="246" x2="259" y2="246" stroke="#00f"/>
<rect x="120" y="241" width="84" height="10" fill="#ff0"/>
<rect x="261" y="241" width="10" height="10" fill="#ff0"/>
<text x="20" y="270" class="sm">1.153e-05</text>
<rect x="100" y="260" width="107" height="12" fill="#00f"/>
<rect x="267" y="260" width="189" height="12" fill="#00f"/>
<line x1="207" y1="266" x2="266" y2="266" stroke="#00f"/>
<rect x="120" y="261" width="87" height="10" fill="#ff0"/>
<rect x="268" y="261" width="115" height="10" fill="#ff0"/>
<text x="20" y="290" class="sm">8.925e-06</text>
<rect x="100" y="280" width="55" height="12" fill="#00f"/>
<rect x="200" y="280" width="67" height="12" fill="#00f"/>
<rect x="310" y="280" width="146" height="12" fill="#00f"/>
<line x1="155" y1="286" x2="199" y2="286" stroke="#00f"/>
<line x1="267" y1="286" x2="309" y2="286" stroke="#00f"/>
<rect x="120" y="281" width="35" height="10" fill="#ff0"/>
<rect x="201" y="281" width="66" height="10" fill="#ff0"/>
<rect x="311" y="281" width="103" height="10" fill="#ff0"/>
<text x="20" y="310" class="sm">7.323e-06</text>
<rect x="100" y="300" width="86" height="12" fill="#00f"/>
<rect x="310" y="300" width="146" height="12" fill="#00f"/>
<line x1="186" y1="306" x2="309" y2="306" stroke="#00f"/>
<rect x="120" y="301" width="66" height="10" fill="#ff0"/>
<rect x="311" y="301" width="103" height="10" fill="#ff0"/>
<text x="20" y="330" class="sm">1.939e-06</text>
<rect x="100" y="320" width="86" height="12" fill="#00f"/>
<rect x="267" y="320" width="189" height="12" fill="#00f"/>
<line x1="186" y1="326" x2="266" y2="326" stroke="#00f"/>
<rect x="120" y="321" width="66" height="10" fill="#ff0"/>
<rect x="268" y="321" width="115" height="10" fill="#ff0"/>
<text x="20" y="350" class="sm">1.865e-06</text>
<rect x="100" y="340" width="104" height="12" fill="#00f"/>
<rect x="267" y="340" width="189" height="12" fill="#00f"/>
<line x1="204" y1="346" x2="266" y2="346" stroke="#00f"/>
<rect x="120" y="341" width="84" height="10" fill="#ff0"/>
<rect x="268" y="341" width="115" height="10" fill="#ff0"/>
<text x="20" y="370" class="sm">9.177e-07</text>
<rect x="100" y="360" width="55" height="12" fill="#00f"/>
<rect x="195" y="360" width="261" height="12" fill="#00f"/>
<line x1="155" y1="366" x2="194" y2="366" stroke="#00f"/>
<rect x="297" y="361" width="86" height="10" fill="#ff0"/>
<text x="20" y="390" class="sm">3.983e-07</text>
<rect x="100" y="380" width="55" height="12" fill="#00f"/>
<rect x="202" y="380" width="254" height="12" fill="#00f"/>
<line x1="155" y1="386" x2="201" y2="386" stroke="#00f"/>
<rect x="120" y="381" width="35" height="10" fill="#ff0"/>
<rect x="203" y="381" width="68" height="10" fill="#ff0"/>
<text x="20" y="410" class="sm">3.004e-07</text>
<rect x="100" y="400" width="104" height="12" fill="#00f"/>
<rect x="310" y="400" width="146" height="12" fill="#00f"/>
<line x1="204" y1="406" x2="309" y2="406" stroke="#00f"/>
<rect x="120" y="401" width="84" height="10" fill="#ff0"/>
<rect x="311" y="401" width="103" height="10" fill="#ff0"/>
<text x="20" y="430" class="sm">1.555e-07</text>
<rect x="100" y="420" width="55" height="12" fill="#00f"/>
<rect x="195" y="420" width="72" height="12" fill="#00f"/>
<rect x="310" y="420" width="146" height="12" fill="#00f"/>
<line x1="155" y1="426" x2="194" y2="426" stroke="#00f"/>
<line x1="267" y1="426" x2="309" y2="426" stroke="#00f"/>
<rect x="229" y="421" width="38" height="10" fill="#ff0"/>
<rect x="311" y="421" width="119" height="10" fill="#ff0"/>
<text x="20" y="450" class="sm">1.352e-07</text>
<rect x="100" y="440" width="130" height="12" fill="#00f"/>
<rect x="310" y="440" width="146" height="12" fill="#00f"/>
<line x1="230" y1="446" x2="309" y2="446" stroke="#00f"/>
<rect x="120" y="441" width="110" height="10" fill="#ff0"/>
<rect x="311" y="441" width="119" height="10" fill="#ff0"/>
<text x="20" y="470" class="sm">8.57e-08</text>
<rect x="100" y="460" width="107" height="12" fill="#00f"/>
<rect x="310" y="460" width="146" height="12" fill="#00f"/>
<line x1="207" y1="466" x2="309" y2="466" stroke="#00f"/>
<rect x="120" y="461" width="87" height="10" fill="#ff0"/>
<rect x="311" y="461" width="103" height="10" fill="#ff0"/>
<text x="20" y="490" class="sm">7.233e-08</text>
<rect x="100" y="480" width="55" height="12" fill="#00f"/>
<rect x="202" y="480" width="65" height="12" fill="#00f"/>
<rect x="310" y="480" width="146" height="12" fill="#00f"/>
<line x1="155" y1="486" x2="201" y2="486" stroke="#00f"/>
<line x1="267" y1="486" x2="309" y2="486" stroke="#00f"/>
<rect x="120" y="481" width="35" height="10" fill="#ff0"/>
<rect x="203" y="481" width="64" height="10" fill="#ff0"/>
<rect x="311" y="481" width="72" height="10" fill="#ff0"/>
</svg>
