<svg viewBox="0 0 1022 540" xmlns="http://www.w3.org/2000/svg">

<style>
  .sm { font: 12px sans-serif; }
  .lg { font: 15px sans-serif; }
</style>
<rect fill="#ddd" x="0" y="0" width="100%" height="100%"/>
<text x="20" y="20" class="lg">ch.20084 X:15857053-15858074 Gene:WBGene00010007</text>
<text x="20" y="50" class="sm">WormBase</text>
<rect x="100" y="40" width="188" height="12" fill="#00f"/>
<rect x="348" y="40" width="204" height="12" fill="#00f"/>
<rect x="604" y="40" width="318" height="12" fill="#00f"/>
<line x1="288" y1="46" x2="347" y2="46" stroke="#00f"/>
<line x1="552" y1="46" x2="603" y2="46" stroke="#00f"/>
<rect x="118" y="41" width="170" height="10" fill="#ff0"/>
<rect x="349" y="41" width="203" height="10" fill="#ff0"/>
<rect x="605" y="41" width="284" height="10" fill="#ff0"/>
<rect x="101" y="41" width="16" height="10" fill="brown"><title>.</title></rect>
<rect x="890" y="41" width="32" height="10" fill="brown"><title>.</title></rect>
<text x="20" y="70" class="sm">Fitness: 0.006185946282497216</text>
<rect x="288" y="65" width="60" height="5" fill="#00f"><title>569765.0</title></rect>
<rect x="552" y="70" width="52" height="5" fill="#00f"><title>454985.0</title></rect>
<rect x="288" y="75" width="316" height="5" fill="#00f"><title>221.0</title></rect>
<rect x="211" y="80" width="150" height="5" fill="#f0f"><title>6.0</title></rect>
<rect x="128" y="85" width="53" height="5" fill="#00f"><title>5.0</title></rect>
<rect x="755" y="90" width="48" height="5" fill="#f0f"><title>5.0</title></rect>
<rect x="561" y="95" width="67" height="5" fill="#f0f"><title>4.0</title></rect>
<rect x="572" y="100" width="56" height="5" fill="#f0f"><title>4.0</title></rect>
<text x="20" y="130" class="sm">0.5566</text>
<rect x="100" y="120" width="188" height="12" fill="#00f"/>
<rect x="348" y="120" width="577" height="12" fill="#00f"/>
<line x1="288" y1="126" x2="347" y2="126" stroke="#00f"/>
<rect x="118" y="121" width="170" height="10" fill="#ff0"/>
<rect x="349" y="121" width="212" height="10" fill="#ff0"/>
<text x="20" y="150" class="sm">0.4411</text>
<rect x="100" y="140" width="452" height="12" fill="#00f"/>
<rect x="604" y="140" width="321" height="12" fill="#00f"/>
<line x1="552" y1="146" x2="603" y2="146" stroke="#00f"/>
<rect x="118" y="141" width="434" height="10" fill="#ff0"/>
<rect x="605" y="141" width="284" height="10" fill="#ff0"/>
<text x="20" y="170" class="sm">0.0009357</text>
<rect x="100" y="160" width="139" height="12" fill="#00f"/>
<rect x="348" y="160" width="577" height="12" fill="#00f"/>
<line x1="239" y1="166" x2="347" y2="166" stroke="#00f"/>
<rect x="653" y="161" width="236" height="10" fill="#ff0"/>
<text x="20" y="190" class="sm">0.0002288</text>
<rect x="100" y="180" width="141" height="12" fill="#00f"/>
<rect x="348" y="180" width="577" height="12" fill="#00f"/>
<line x1="241" y1="186" x2="347" y2="186" stroke="#00f"/>
<rect x="182" y="181" width="59" height="10" fill="#ff0"/>
<rect x="349" y="181" width="212" height="10" fill="#ff0"/>
<text x="20" y="210" class="sm">0.0002004</text>
<rect x="100" y="200" width="452" height="12" fill="#00f"/>
<rect x="679" y="200" width="246" height="12" fill="#00f"/>
<line x1="552" y1="206" x2="678" y2="206" stroke="#00f"/>
<rect x="118" y="201" width="434" height="10" fill="#ff0"/>
<rect x="680" y="201" width="209" height="10" fill="#ff0"/>
<text x="20" y="230" class="sm">0.0001699</text>
<rect x="100" y="220" width="452" height="12" fill="#00f"/>
<rect x="755" y="220" width="170" height="12" fill="#00f"/>
<line x1="552" y1="226" x2="754" y2="226" stroke="#00f"/>
<rect x="118" y="221" width="434" height="10" fill="#ff0"/>
<rect x="756" y="221" width="107" height="10" fill="#ff0"/>
<text x="20" y="250" class="sm">0.0001404</text>
<rect x="100" y="240" width="452" height="12" fill="#00f"/>
<rect x="682" y="240" width="243" height="12" fill="#00f"/>
<line x1="552" y1="246" x2="681" y2="246" stroke="#00f"/>
<rect x="118" y="241" width="434" height="10" fill="#ff0"/>
<rect x="683" y="241" width="206" height="10" fill="#ff0"/>
<text x="20" y="270" class="sm">0.0001283</text>
<rect x="100" y="260" width="89" height="12" fill="#00f"/>
<rect x="238" y="260" width="687" height="12" fill="#00f"/>
<line x1="189" y1="266" x2="237" y2="266" stroke="#00f"/>
<rect x="653" y="261" width="236" height="10" fill="#ff0"/>
<text x="20" y="290" class="sm">0.0001221</text>
<rect x="100" y="280" width="452" height="12" fill="#00f"/>
<rect x="719" y="280" width="206" height="12" fill="#00f"/>
<line x1="552" y1="286" x2="718" y2="286" stroke="#00f"/>
<rect x="118" y="281" width="434" height="10" fill="#ff0"/>
<rect x="720" y="281" width="29" height="10" fill="#ff0"/>
<text x="20" y="310" class="sm">0.0001163</text>
<rect x="100" y="300" width="188" height="12" fill="#00f"/>
<rect x="475" y="300" width="450" height="12" fill="#00f"/>
<line x1="288" y1="306" x2="474" y2="306" stroke="#00f"/>
<rect x="653" y="301" width="236" height="10" fill="#ff0"/>
<text x="20" y="330" class="sm">6.821e-05</text>
<rect x="100" y="320" width="452" height="12" fill="#00f"/>
<rect x="677" y="320" width="248" height="12" fill="#00f"/>
<line x1="552" y1="326" x2="676" y2="326" stroke="#00f"/>
<rect x="118" y="321" width="434" height="10" fill="#ff0"/>
<rect x="678" y="321" width="41" height="10" fill="#ff0"/>
<text x="20" y="350" class="sm">5.181e-05</text>
<rect x="100" y="340" width="188" height="12" fill="#00f"/>
<rect x="422" y="340" width="503" height="12" fill="#00f"/>
<line x1="288" y1="346" x2="421" y2="346" stroke="#00f"/>
<rect x="182" y="341" width="106" height="10" fill="#ff0"/>
<rect x="423" y="341" width="138" height="10" fill="#ff0"/>
<text x="20" y="370" class="sm">4.511e-05</text>
<rect x="100" y="360" width="433" height="12" fill="#00f"/>
<rect x="604" y="360" width="321" height="12" fill="#00f"/>
<line x1="533" y1="366" x2="603" y2="366" stroke="#00f"/>
<rect x="118" y="361" width="415" height="10" fill="#ff0"/>
<rect x="605" y="361" width="72" height="10" fill="#ff0"/>
<text x="20" y="390" class="sm">2.706e-05</text>
<rect x="100" y="380" width="188" height="12" fill="#00f"/>
<rect x="412" y="380" width="513" height="12" fill="#00f"/>
<line x1="288" y1="386" x2="411" y2="386" stroke="#00f"/>
<rect x="653" y="381" width="236" height="10" fill="#ff0"/>
<text x="20" y="410" class="sm">2.342e-05</text>
<rect x="100" y="400" width="188" height="12" fill="#00f"/>
<rect x="604" y="400" width="321" height="12" fill="#00f"/>
<line x1="288" y1="406" x2="603" y2="406" stroke="#00f"/>
<rect x="118" y="401" width="170" height="10" fill="#ff0"/>
<rect x="605" y="401" width="284" height="10" fill="#ff0"/>
<text x="20" y="430" class="sm">2.018e-05</text>
<rect x="100" y="420" width="188" height="12" fill="#00f"/>
<rect x="469" y="420" width="456" height="12" fill="#00f"/>
<line x1="288" y1="426" x2="468" y2="426" stroke="#00f"/>
<rect x="653" y="421" width="236" height="10" fill="#ff0"/>
<text x="20" y="450" class="sm">1.431e-05</text>
<rect x="100" y="440" width="139" height="12" fill="#00f"/>
<rect x="293" y="440" width="632" height="12" fill="#00f"/>
<line x1="239" y1="446" x2="292" y2="446" stroke="#00f"/>
<rect x="118" y="441" width="121" height="10" fill="#ff0"/>
<rect x="294" y="441" width="267" height="10" fill="#ff0"/>
<text x="20" y="470" class="sm">1.429e-05</text>
<rect x="100" y="460" width="188" height="12" fill="#00f"/>
<rect x="381" y="460" width="544" height="12" fill="#00f"/>
<line x1="288" y1="466" x2="380" y2="466" stroke="#00f"/>
<rect x="118" y="461" width="170" height="10" fill="#ff0"/>
<rect x="382" y="461" width="179" height="10" fill="#ff0"/>
<text x="20" y="490" class="sm">1.145e-05</text>
<rect x="100" y="480" width="368" height="12" fill="#00f"/>
<rect x="604" y="480" width="321" height="12" fill="#00f"/>
<line x1="468" y1="486" x2="603" y2="486" stroke="#00f"/>
<rect x="118" y="481" width="350" height="10" fill="#ff0"/>
<rect x="605" y="481" width="284" height="10" fill="#ff0"/>
<text x="20" y="510" class="sm">1.077e-05</text>
<rect x="100" y="500" width="493" height="12" fill="#00f"/>
<rect x="679" y="500" width="246" height="12" fill="#00f"/>
<line x1="593" y1="506" x2="678" y2="506" stroke="#00f"/>
<rect x="118" y="501" width="443" height="10" fill="#ff0"/>
</svg>
