<svg viewBox="0 0 522 515" xmlns="http://www.w3.org/2000/svg">

<style>
  .sm { font: 12px sans-serif; }
  .lg { font: 15px sans-serif; }
</style>
<rect fill="#ddd" x="0" y="0" width="100%" height="100%"/>
<text x="20" y="20" class="lg">ch.3287 II:1631895-1632416 Gene:WBGene00015605</text>
<text x="20" y="50" class="sm">WormBase</text>
<rect x="102" y="40" width="144" height="12" fill="#00f"/>
<rect x="293" y="40" width="131" height="12" fill="#00f"/>
<line x1="246" y1="46" x2="292" y2="46" stroke="#00f"/>
<rect x="108" y="41" width="138" height="10" fill="#ff0"/>
<rect x="294" y="41" width="97" height="10" fill="#ff0"/>
<rect x="103" y="41" width="4" height="10" fill="brown"><title>.</title></rect>
<rect x="392" y="41" width="32" height="10" fill="brown"><title>.</title></rect>
<text x="20" y="70" class="sm">Fitness: 2.441381504496868e-05</text>
<rect x="246" y="65" width="47" height="5" fill="#00f"><title>807866.0</title></rect>
<rect x="250" y="70" width="43" height="5" fill="#00f"><title>1324.0</title></rect>
<rect x="246" y="75" width="62" height="5" fill="#00f"><title>21.0</title></rect>
<text x="20" y="105" class="sm">0.9983</text>
<rect x="100" y="95" width="146" height="12" fill="#00f"/>
<rect x="293" y="95" width="132" height="12" fill="#00f"/>
<line x1="246" y1="101" x2="292" y2="101" stroke="#00f"/>
<rect x="108" y="96" width="138" height="10" fill="#ff0"/>
<rect x="294" y="96" width="97" height="10" fill="#ff0"/>
<text x="20" y="125" class="sm">0.001635</text>
<rect x="100" y="115" width="150" height="12" fill="#00f"/>
<rect x="293" y="115" width="132" height="12" fill="#00f"/>
<line x1="250" y1="121" x2="292" y2="121" stroke="#00f"/>
<rect x="108" y="116" width="142" height="10" fill="#ff0"/>
<rect x="294" y="116" width="93" height="10" fill="#ff0"/>
<text x="20" y="145" class="sm">1.588e-05</text>
<rect x="100" y="135" width="146" height="12" fill="#00f"/>
<rect x="308" y="135" width="117" height="12" fill="#00f"/>
<line x1="246" y1="141" x2="307" y2="141" stroke="#00f"/>
<rect x="108" y="136" width="138" height="10" fill="#ff0"/>
<rect x="309" y="136" width="82" height="10" fill="#ff0"/>
<text x="20" y="165" class="sm">8.782e-06</text>
<rect x="100" y="155" width="71" height="12" fill="#00f"/>
<rect x="293" y="155" width="132" height="12" fill="#00f"/>
<line x1="171" y1="161" x2="292" y2="161" stroke="#00f"/>
<rect x="108" y="156" width="63" height="10" fill="#ff0"/>
<rect x="294" y="156" width="97" height="10" fill="#ff0"/>
<text x="20" y="185" class="sm">2.034e-06</text>
<rect x="100" y="175" width="159" height="12" fill="#00f"/>
<rect x="308" y="175" width="117" height="12" fill="#00f"/>
<line x1="259" y1="181" x2="307" y2="181" stroke="#00f"/>
<rect x="181" y="176" width="78" height="10" fill="#ff0"/>
<rect x="309" y="176" width="82" height="10" fill="#ff0"/>
<text x="20" y="205" class="sm">1.018e-06</text>
<rect x="100" y="195" width="161" height="12" fill="#00f"/>
<rect x="308" y="195" width="117" height="12" fill="#00f"/>
<line x1="261" y1="201" x2="307" y2="201" stroke="#00f"/>
<rect x="108" y="196" width="152" height="10" fill="#ff0"/>
<text x="20" y="225" class="sm">1.377e-07</text>
<rect x="100" y="215" width="40" height="12" fill="#00f"/>
<rect x="293" y="215" width="132" height="12" fill="#00f"/>
<line x1="140" y1="221" x2="292" y2="221" stroke="#00f"/>
<rect x="108" y="216" width="32" height="10" fill="#ff0"/>
<rect x="294" y="216" width="56" height="10" fill="#ff0"/>
<text x="20" y="245" class="sm">9.497e-08</text>
<rect x="100" y="235" width="146" height="12" fill="#00f"/>
<rect x="398" y="235" width="27" height="12" fill="#00f"/>
<line x1="246" y1="241" x2="397" y2="241" stroke="#00f"/>
<rect x="108" y="236" width="138" height="10" fill="#ff0"/>
<rect x="399" y="236" width="1" height="10" fill="#ff0"/>
<text x="20" y="265" class="sm">8.754e-08</text>
<rect x="100" y="255" width="150" height="12" fill="#00f"/>
<rect x="308" y="255" width="117" height="12" fill="#00f"/>
<line x1="250" y1="261" x2="307" y2="261" stroke="#00f"/>
<rect x="108" y="256" width="142" height="10" fill="#ff0"/>
<rect x="309" y="256" width="78" height="10" fill="#ff0"/>
<text x="20" y="285" class="sm">3.352e-08</text>
<rect x="100" y="275" width="146" height="12" fill="#00f"/>
<rect x="371" y="275" width="54" height="12" fill="#00f"/>
<line x1="246" y1="281" x2="370" y2="281" stroke="#00f"/>
<rect x="108" y="276" width="138" height="10" fill="#ff0"/>
<rect x="372" y="276" width="19" height="10" fill="#ff0"/>
<text x="20" y="305" class="sm">5.633e-09</text>
<rect x="100" y="295" width="222" height="12" fill="#00f"/>
<rect x="371" y="295" width="54" height="12" fill="#00f"/>
<line x1="322" y1="301" x2="370" y2="301" stroke="#00f"/>
<rect x="108" y="296" width="152" height="10" fill="#ff0"/>
<text x="20" y="325" class="sm">5.554e-09</text>
<rect x="100" y="315" width="146" height="12" fill="#00f"/>
<rect x="303" y="315" width="122" height="12" fill="#00f"/>
<line x1="246" y1="321" x2="302" y2="321" stroke="#00f"/>
<rect x="108" y="316" width="138" height="10" fill="#ff0"/>
<rect x="304" y="316" width="46" height="10" fill="#ff0"/>
<text x="20" y="345" class="sm">2.036e-09</text>
<rect x="100" y="335" width="71" height="12" fill="#00f"/>
<rect x="308" y="335" width="117" height="12" fill="#00f"/>
<line x1="171" y1="341" x2="307" y2="341" stroke="#00f"/>
<rect x="108" y="336" width="63" height="10" fill="#ff0"/>
<rect x="309" y="336" width="82" height="10" fill="#ff0"/>
<text x="20" y="365" class="sm">1.495e-09</text>
<rect x="100" y="355" width="146" height="12" fill="#00f"/>
<rect x="352" y="355" width="73" height="12" fill="#00f"/>
<line x1="246" y1="361" x2="351" y2="361" stroke="#00f"/>
<rect x="108" y="356" width="138" height="10" fill="#ff0"/>
<rect x="353" y="356" width="34" height="10" fill="#ff0"/>
<text x="20" y="385" class="sm">1.097e-09</text>
<rect x="100" y="375" width="159" height="12" fill="#00f"/>
<rect x="398" y="375" width="27" height="12" fill="#00f"/>
<line x1="259" y1="381" x2="397" y2="381" stroke="#00f"/>
<rect x="108" y="376" width="151" height="10" fill="#ff0"/>
<rect x="399" y="376" width="0" height="10" fill="#ff0"/>
<text x="20" y="405" class="sm">5.761e-10</text>
<rect x="100" y="395" width="161" height="12" fill="#00f"/>
<rect x="398" y="395" width="27" height="12" fill="#00f"/>
<line x1="261" y1="401" x2="397" y2="401" stroke="#00f"/>
<rect x="108" y="396" width="152" height="10" fill="#ff0"/>
<text x="20" y="425" class="sm">5.679e-10</text>
<rect x="100" y="415" width="222" height="12" fill="#00f"/>
<rect x="398" y="415" width="27" height="12" fill="#00f"/>
<line x1="322" y1="421" x2="397" y2="421" stroke="#00f"/>
<rect x="108" y="416" width="152" height="10" fill="#ff0"/>
<text x="20" y="445" class="sm">4.502e-10</text>
<rect x="100" y="435" width="159" height="12" fill="#00f"/>
<rect x="371" y="435" width="54" height="12" fill="#00f"/>
<line x1="259" y1="441" x2="370" y2="441" stroke="#00f"/>
<rect x="108" y="436" width="151" height="10" fill="#ff0"/>
<rect x="372" y="436" width="15" height="10" fill="#ff0"/>
<text x="20" y="465" class="sm">2.239e-10</text>
<rect x="100" y="455" width="161" height="12" fill="#00f"/>
<rect x="371" y="455" width="54" height="12" fill="#00f"/>
<line x1="261" y1="461" x2="370" y2="461" stroke="#00f"/>
<rect x="108" y="456" width="152" height="10" fill="#ff0"/>
<text x="20" y="485" class="sm">2.13e-10</text>
<rect x="100" y="475" width="150" height="12" fill="#00f"/>
<rect x="398" y="475" width="27" height="12" fill="#00f"/>
<line x1="250" y1="481" x2="397" y2="481" stroke="#00f"/>
<rect x="108" y="476" width="142" height="10" fill="#ff0"/>
<rect x="399" y="476" width="9" height="10" fill="#ff0"/>
</svg>
