<svg viewBox="0 0 811 525" xmlns="http://www.w3.org/2000/svg">

<style>
  .sm { font: 12px sans-serif; }
  .lg { font: 15px sans-serif; }
</style>
<rect fill="#ddd" x="0" y="0" width="100%" height="100%"/>
<text x="20" y="20" class="lg">ch.3236 II:1403221-1404031 Gene:WBGene00302984</text>
<text x="20" y="50" class="sm">WormBase</text>
<rect x="100" y="40" width="72" height="12" fill="#00f"/>
<rect x="218" y="40" width="493" height="12" fill="#00f"/>
<line x1="172" y1="46" x2="217" y2="46" stroke="#00f"/>
<rect x="105" y="41" width="67" height="10" fill="#ff0"/>
<rect x="219" y="41" width="165" height="10" fill="#ff0"/>
<rect x="101" y="41" width="3" height="10" fill="brown"><title>.</title></rect>
<rect x="385" y="41" width="326" height="10" fill="brown"><title>.</title></rect>
<text x="20" y="70" class="sm">Fitness: 0.0008545285517335965</text>
<rect x="172" y="65" width="46" height="5" fill="#00f"><title>159267.0</title></rect>
<rect x="172" y="70" width="53" height="5" fill="#00f"><title>66.0</title></rect>
<rect x="687" y="75" width="80" height="5" fill="#00f"><title>5.0</title></rect>
<rect x="297" y="80" width="366" height="5" fill="#f0f"><title>4.0</title></rect>
<rect x="67" y="85" width="194" height="5" fill="#f0f"><title>3.0</title></rect>
<text x="20" y="115" class="sm">0.9996</text>
<rect x="100" y="105" width="72" height="12" fill="#00f"/>
<rect x="218" y="105" width="496" height="12" fill="#00f"/>
<line x1="172" y1="111" x2="217" y2="111" stroke="#00f"/>
<rect x="105" y="106" width="67" height="10" fill="#ff0"/>
<rect x="219" y="106" width="165" height="10" fill="#ff0"/>
<text x="20" y="135" class="sm">0.0002695</text>
<rect x="100" y="125" width="72" height="12" fill="#00f"/>
<rect x="232" y="125" width="482" height="12" fill="#00f"/>
<line x1="172" y1="131" x2="231" y2="131" stroke="#00f"/>
<rect x="105" y="126" width="67" height="10" fill="#ff0"/>
<rect x="233" y="126" width="51" height="10" fill="#ff0"/>
<text x="20" y="155" class="sm">5.521e-05</text>
<rect x="100" y="145" width="48" height="12" fill="#00f"/>
<rect x="218" y="145" width="496" height="12" fill="#00f"/>
<line x1="148" y1="151" x2="217" y2="151" stroke="#00f"/>
<rect x="105" y="146" width="43" height="10" fill="#ff0"/>
<rect x="219" y="146" width="165" height="10" fill="#ff0"/>
<text x="20" y="175" class="sm">2.756e-05</text>
<rect x="100" y="165" width="72" height="12" fill="#00f"/>
<rect x="534" y="165" width="180" height="12" fill="#00f"/>
<line x1="172" y1="171" x2="533" y2="171" stroke="#00f"/>
<rect x="105" y="166" width="67" height="10" fill="#ff0"/>
<rect x="535" y="166" width="105" height="10" fill="#ff0"/>
<text x="20" y="195" class="sm">1.833e-05</text>
<rect x="100" y="185" width="72" height="12" fill="#00f"/>
<rect x="225" y="185" width="489" height="12" fill="#00f"/>
<line x1="172" y1="191" x2="224" y2="191" stroke="#00f"/>
<rect x="105" y="186" width="67" height="10" fill="#ff0"/>
<rect x="226" y="186" width="75" height="10" fill="#ff0"/>
<text x="20" y="215" class="sm">1.647e-05</text>
<rect x="100" y="205" width="76" height="12" fill="#00f"/>
<rect x="218" y="205" width="496" height="12" fill="#00f"/>
<line x1="176" y1="211" x2="217" y2="211" stroke="#00f"/>
<rect x="449" y="206" width="83" height="10" fill="#ff0"/>
<text x="20" y="235" class="sm">1.278e-05</text>
<rect x="100" y="225" width="72" height="12" fill="#00f"/>
<rect x="264" y="225" width="450" height="12" fill="#00f"/>
<line x1="172" y1="231" x2="263" y2="231" stroke="#00f"/>
<rect x="105" y="226" width="67" height="10" fill="#ff0"/>
<rect x="265" y="226" width="36" height="10" fill="#ff0"/>
<text x="20" y="255" class="sm">9.446e-06</text>
<rect x="100" y="245" width="72" height="12" fill="#00f"/>
<rect x="286" y="245" width="428" height="12" fill="#00f"/>
<line x1="172" y1="251" x2="285" y2="251" stroke="#00f"/>
<rect x="105" y="246" width="67" height="10" fill="#ff0"/>
<rect x="287" y="246" width="111" height="10" fill="#ff0"/>
<text x="20" y="275" class="sm">8.897e-06</text>
<rect x="100" y="265" width="72" height="12" fill="#00f"/>
<rect x="509" y="265" width="205" height="12" fill="#00f"/>
<line x1="172" y1="271" x2="508" y2="271" stroke="#00f"/>
<text x="20" y="295" class="sm">6.633e-06</text>
<rect x="100" y="285" width="72" height="12" fill="#00f"/>
<rect x="247" y="285" width="467" height="12" fill="#00f"/>
<line x1="172" y1="291" x2="246" y2="291" stroke="#00f"/>
<rect x="105" y="286" width="67" height="10" fill="#ff0"/>
<rect x="248" y="286" width="36" height="10" fill="#ff0"/>
<text x="20" y="315" class="sm">3.726e-06</text>
<rect x="100" y="305" width="72" height="12" fill="#00f"/>
<rect x="227" y="305" width="487" height="12" fill="#00f"/>
<line x1="172" y1="311" x2="226" y2="311" stroke="#00f"/>
<rect x="105" y="306" width="67" height="10" fill="#ff0"/>
<rect x="228" y="306" width="156" height="10" fill="#ff0"/>
<text x="20" y="335" class="sm">3.705e-06</text>
<rect x="100" y="325" width="72" height="12" fill="#00f"/>
<rect x="532" y="325" width="182" height="12" fill="#00f"/>
<line x1="172" y1="331" x2="531" y2="331" stroke="#00f"/>
<rect x="105" y="326" width="67" height="10" fill="#ff0"/>
<rect x="533" y="326" width="126" height="10" fill="#ff0"/>
<text x="20" y="355" class="sm">1.046e-06</text>
<rect x="100" y="345" width="72" height="12" fill="#00f"/>
<rect x="495" y="345" width="219" height="12" fill="#00f"/>
<line x1="172" y1="351" x2="494" y2="351" stroke="#00f"/>
<rect x="105" y="346" width="67" height="10" fill="#ff0"/>
<rect x="496" y="346" width="36" height="10" fill="#ff0"/>
<text x="20" y="375" class="sm">2.242e-07</text>
<rect x="100" y="365" width="427" height="12" fill="#00f"/>
<rect x="570" y="365" width="144" height="12" fill="#00f"/>
<line x1="527" y1="371" x2="569" y2="371" stroke="#00f"/>
<rect x="391" y="366" width="136" height="10" fill="#ff0"/>
<rect x="571" y="366" width="69" height="10" fill="#ff0"/>
<text x="20" y="395" class="sm">1.576e-07</text>
<rect x="100" y="385" width="72" height="12" fill="#00f"/>
<rect x="570" y="385" width="144" height="12" fill="#00f"/>
<line x1="172" y1="391" x2="569" y2="391" stroke="#00f"/>
<rect x="105" y="386" width="67" height="10" fill="#ff0"/>
<rect x="571" y="386" width="69" height="10" fill="#ff0"/>
<text x="20" y="415" class="sm">1.09e-07</text>
<rect x="100" y="405" width="72" height="12" fill="#00f"/>
<rect x="522" y="405" width="192" height="12" fill="#00f"/>
<line x1="172" y1="411" x2="521" y2="411" stroke="#00f"/>
<rect x="105" y="406" width="67" height="10" fill="#ff0"/>
<rect x="523" y="406" width="9" height="10" fill="#ff0"/>
<text x="20" y="435" class="sm">9.161e-08</text>
<rect x="100" y="425" width="353" height="12" fill="#00f"/>
<rect x="509" y="425" width="205" height="12" fill="#00f"/>
<line x1="453" y1="431" x2="508" y2="431" stroke="#00f"/>
<rect x="391" y="426" width="62" height="10" fill="#ff0"/>
<rect x="510" y="426" width="149" height="10" fill="#ff0"/>
<text x="20" y="455" class="sm">7.092e-08</text>
<rect x="100" y="445" width="72" height="12" fill="#00f"/>
<rect x="553" y="445" width="161" height="12" fill="#00f"/>
<line x1="172" y1="451" x2="552" y2="451" stroke="#00f"/>
<rect x="105" y="446" width="67" height="10" fill="#ff0"/>
<rect x="554" y="446" width="105" height="10" fill="#ff0"/>
<text x="20" y="475" class="sm">6.726e-08</text>
<rect x="100" y="465" width="48" height="12" fill="#00f"/>
<rect x="206" y="465" width="508" height="12" fill="#00f"/>
<line x1="148" y1="471" x2="205" y2="471" stroke="#00f"/>
<rect x="105" y="466" width="43" height="10" fill="#ff0"/>
<rect x="207" y="466" width="177" height="10" fill="#ff0"/>
<text x="20" y="495" class="sm">6.156e-08</text>
<rect x="100" y="485" width="48" height="12" fill="#00f"/>
<rect x="232" y="485" width="482" height="12" fill="#00f"/>
<line x1="148" y1="491" x2="231" y2="491" stroke="#00f"/>
<rect x="105" y="486" width="43" height="10" fill="#ff0"/>
<rect x="233" y="486" width="51" height="10" fill="#ff0"/>
</svg>
