<svg viewBox="0 0 920 520" xmlns="http://www.w3.org/2000/svg">

<style>
  .sm { font: 12px sans-serif; }
  .lg { font: 15px sans-serif; }
</style>
<rect fill="#ddd" x="0" y="0" width="100%" height="100%"/>
<text x="20" y="20" class="lg">ch.3571 II:2638288-2639207 Gene:WBGene00017708</text>
<text x="20" y="50" class="sm">WormBase</text>
<rect x="100" y="40" width="116" height="12" fill="#00f"/>
<rect x="271" y="40" width="277" height="12" fill="#00f"/>
<rect x="604" y="40" width="216" height="12" fill="#00f"/>
<line x1="216" y1="46" x2="270" y2="46" stroke="#00f"/>
<line x1="548" y1="46" x2="603" y2="46" stroke="#00f"/>
<rect x="115" y="41" width="101" height="10" fill="#ff0"/>
<rect x="272" y="41" width="276" height="10" fill="#ff0"/>
<rect x="605" y="41" width="100" height="10" fill="#ff0"/>
<rect x="101" y="41" width="13" height="10" fill="brown"><title>.</title></rect>
<rect x="706" y="41" width="114" height="10" fill="brown"><title>.</title></rect>
<text x="20" y="70" class="sm">Fitness: 0.27953889416117794</text>
<rect x="548" y="65" width="56" height="5" fill="#00f"><title>162101.0</title></rect>
<rect x="216" y="70" width="55" height="5" fill="#00f"><title>145575.0</title></rect>
<rect x="227" y="75" width="44" height="5" fill="#00f"><title>5239.0</title></rect>
<rect x="216" y="80" width="388" height="5" fill="#00f"><title>29.0</title></rect>
<text x="20" y="110" class="sm">0.6704</text>
<rect x="100" y="100" width="116" height="12" fill="#00f"/>
<rect x="271" y="100" width="277" height="12" fill="#00f"/>
<rect x="604" y="100" width="219" height="12" fill="#00f"/>
<line x1="216" y1="106" x2="270" y2="106" stroke="#00f"/>
<line x1="548" y1="106" x2="603" y2="106" stroke="#00f"/>
<rect x="115" y="101" width="101" height="10" fill="#ff0"/>
<rect x="272" y="101" width="276" height="10" fill="#ff0"/>
<rect x="605" y="101" width="100" height="10" fill="#ff0"/>
<text x="20" y="130" class="sm">0.191</text>
<rect x="100" y="120" width="127" height="12" fill="#00f"/>
<rect x="271" y="120" width="277" height="12" fill="#00f"/>
<rect x="604" y="120" width="219" height="12" fill="#00f"/>
<line x1="227" y1="126" x2="270" y2="126" stroke="#00f"/>
<line x1="548" y1="126" x2="603" y2="126" stroke="#00f"/>
<rect x="281" y="121" width="267" height="10" fill="#ff0"/>
<rect x="605" y="121" width="100" height="10" fill="#ff0"/>
<text x="20" y="150" class="sm">0.1007</text>
<rect x="100" y="140" width="104" height="12" fill="#00f"/>
<rect x="271" y="140" width="277" height="12" fill="#00f"/>
<rect x="604" y="140" width="219" height="12" fill="#00f"/>
<line x1="204" y1="146" x2="270" y2="146" stroke="#00f"/>
<line x1="548" y1="146" x2="603" y2="146" stroke="#00f"/>
<rect x="115" y="141" width="89" height="10" fill="#ff0"/>
<rect x="272" y="141" width="276" height="10" fill="#ff0"/>
<rect x="605" y="141" width="100" height="10" fill="#ff0"/>
<text x="20" y="170" class="sm">0.01896</text>
<rect x="100" y="160" width="116" height="12" fill="#00f"/>
<rect x="271" y="160" width="552" height="12" fill="#00f"/>
<line x1="216" y1="166" x2="270" y2="166" stroke="#00f"/>
<rect x="115" y="161" width="101" height="10" fill="#ff0"/>
<rect x="272" y="161" width="287" height="10" fill="#ff0"/>
<text x="20" y="190" class="sm">0.005404</text>
<rect x="100" y="180" width="127" height="12" fill="#00f"/>
<rect x="271" y="180" width="552" height="12" fill="#00f"/>
<line x1="227" y1="186" x2="270" y2="186" stroke="#00f"/>
<rect x="281" y="181" width="278" height="10" fill="#ff0"/>
<text x="20" y="210" class="sm">0.003128</text>
<rect x="100" y="200" width="448" height="12" fill="#00f"/>
<rect x="604" y="200" width="219" height="12" fill="#00f"/>
<line x1="548" y1="206" x2="603" y2="206" stroke="#00f"/>
<rect x="281" y="201" width="267" height="10" fill="#ff0"/>
<rect x="605" y="201" width="100" height="10" fill="#ff0"/>
<text x="20" y="230" class="sm">0.00285</text>
<rect x="100" y="220" width="104" height="12" fill="#00f"/>
<rect x="271" y="220" width="552" height="12" fill="#00f"/>
<line x1="204" y1="226" x2="270" y2="226" stroke="#00f"/>
<rect x="115" y="221" width="89" height="10" fill="#ff0"/>
<rect x="272" y="221" width="287" height="10" fill="#ff0"/>
<text x="20" y="250" class="sm">0.001302</text>
<rect x="100" y="240" width="40" height="12" fill="#00f"/>
<rect x="271" y="240" width="277" height="12" fill="#00f"/>
<rect x="604" y="240" width="219" height="12" fill="#00f"/>
<line x1="140" y1="246" x2="270" y2="246" stroke="#00f"/>
<line x1="548" y1="246" x2="603" y2="246" stroke="#00f"/>
<rect x="281" y="241" width="267" height="10" fill="#ff0"/>
<rect x="605" y="241" width="100" height="10" fill="#ff0"/>
<text x="20" y="270" class="sm">0.001209</text>
<rect x="100" y="260" width="146" height="12" fill="#00f"/>
<rect x="441" y="260" width="107" height="12" fill="#00f"/>
<rect x="604" y="260" width="219" height="12" fill="#00f"/>
<line x1="246" y1="266" x2="440" y2="266" stroke="#00f"/>
<line x1="548" y1="266" x2="603" y2="266" stroke="#00f"/>
<rect x="212" y="261" width="34" height="10" fill="#ff0"/>
<rect x="442" y="261" width="106" height="10" fill="#ff0"/>
<rect x="605" y="261" width="100" height="10" fill="#ff0"/>
<text x="20" y="290" class="sm">0.001182</text>
<rect x="100" y="280" width="146" height="12" fill="#00f"/>
<rect x="428" y="280" width="120" height="12" fill="#00f"/>
<rect x="604" y="280" width="219" height="12" fill="#00f"/>
<line x1="246" y1="286" x2="427" y2="286" stroke="#00f"/>
<line x1="548" y1="286" x2="603" y2="286" stroke="#00f"/>
<rect x="505" y="281" width="43" height="10" fill="#ff0"/>
<rect x="605" y="281" width="120" height="10" fill="#ff0"/>
<text x="20" y="310" class="sm">0.0007889</text>
<rect x="100" y="300" width="116" height="12" fill="#00f"/>
<rect x="441" y="300" width="107" height="12" fill="#00f"/>
<rect x="604" y="300" width="219" height="12" fill="#00f"/>
<line x1="216" y1="306" x2="440" y2="306" stroke="#00f"/>
<line x1="548" y1="306" x2="603" y2="306" stroke="#00f"/>
<rect x="212" y="301" width="4" height="10" fill="#ff0"/>
<rect x="442" y="301" width="106" height="10" fill="#ff0"/>
<rect x="605" y="301" width="100" height="10" fill="#ff0"/>
<text x="20" y="330" class="sm">0.0007723</text>
<rect x="100" y="320" width="104" height="12" fill="#00f"/>
<rect x="441" y="320" width="107" height="12" fill="#00f"/>
<rect x="604" y="320" width="219" height="12" fill="#00f"/>
<line x1="204" y1="326" x2="440" y2="326" stroke="#00f"/>
<line x1="548" y1="326" x2="603" y2="326" stroke="#00f"/>
<rect x="505" y="321" width="43" height="10" fill="#ff0"/>
<rect x="605" y="321" width="120" height="10" fill="#ff0"/>
<text x="20" y="350" class="sm">0.0007274</text>
<rect x="100" y="340" width="104" height="12" fill="#00f"/>
<rect x="428" y="340" width="120" height="12" fill="#00f"/>
<rect x="604" y="340" width="219" height="12" fill="#00f"/>
<line x1="204" y1="346" x2="427" y2="346" stroke="#00f"/>
<line x1="548" y1="346" x2="603" y2="346" stroke="#00f"/>
<rect x="505" y="341" width="43" height="10" fill="#ff0"/>
<rect x="605" y="341" width="120" height="10" fill="#ff0"/>
<text x="20" y="370" class="sm">0.0005561</text>
<rect x="100" y="360" width="116" height="12" fill="#00f"/>
<rect x="428" y="360" width="120" height="12" fill="#00f"/>
<rect x="604" y="360" width="219" height="12" fill="#00f"/>
<line x1="216" y1="366" x2="427" y2="366" stroke="#00f"/>
<line x1="548" y1="366" x2="603" y2="366" stroke="#00f"/>
<rect x="505" y="361" width="43" height="10" fill="#ff0"/>
<rect x="605" y="361" width="120" height="10" fill="#ff0"/>
<text x="20" y="390" class="sm">0.000385</text>
<rect x="100" y="380" width="62" height="12" fill="#00f"/>
<rect x="271" y="380" width="277" height="12" fill="#00f"/>
<rect x="604" y="380" width="219" height="12" fill="#00f"/>
<line x1="162" y1="386" x2="270" y2="386" stroke="#00f"/>
<line x1="548" y1="386" x2="603" y2="386" stroke="#00f"/>
<rect x="115" y="381" width="47" height="10" fill="#ff0"/>
<rect x="272" y="381" width="276" height="10" fill="#ff0"/>
<rect x="605" y="381" width="100" height="10" fill="#ff0"/>
<text x="20" y="410" class="sm">0.0001771</text>
<rect x="100" y="400" width="74" height="12" fill="#00f"/>
<rect x="271" y="400" width="277" height="12" fill="#00f"/>
<rect x="604" y="400" width="219" height="12" fill="#00f"/>
<line x1="174" y1="406" x2="270" y2="406" stroke="#00f"/>
<line x1="548" y1="406" x2="603" y2="406" stroke="#00f"/>
<rect x="115" y="401" width="59" height="10" fill="#ff0"/>
<rect x="272" y="401" width="276" height="10" fill="#ff0"/>
<rect x="605" y="401" width="100" height="10" fill="#ff0"/>
<text x="20" y="430" class="sm">0.0001338</text>
<rect x="100" y="420" width="116" height="12" fill="#00f"/>
<rect x="271" y="420" width="277" height="12" fill="#00f"/>
<rect x="604" y="420" width="139" height="12" fill="#00f"/>
<rect x="790" y="420" width="33" height="12" fill="#00f"/>
<line x1="216" y1="426" x2="270" y2="426" stroke="#00f"/>
<line x1="548" y1="426" x2="603" y2="426" stroke="#00f"/>
<line x1="743" y1="426" x2="789" y2="426" stroke="#00f"/>
<rect x="115" y="421" width="101" height="10" fill="#ff0"/>
<rect x="272" y="421" width="276" height="10" fill="#ff0"/>
<rect x="605" y="421" width="100" height="10" fill="#ff0"/>
<text x="20" y="450" class="sm">0.0001043</text>
<rect x="100" y="440" width="31" height="12" fill="#00f"/>
<rect x="271" y="440" width="277" height="12" fill="#00f"/>
<rect x="604" y="440" width="219" height="12" fill="#00f"/>
<line x1="131" y1="446" x2="270" y2="446" stroke="#00f"/>
<line x1="548" y1="446" x2="603" y2="446" stroke="#00f"/>
<rect x="281" y="441" width="267" height="10" fill="#ff0"/>
<rect x="605" y="441" width="100" height="10" fill="#ff0"/>
<text x="20" y="470" class="sm">9.725e-05</text>
<rect x="100" y="460" width="127" height="12" fill="#00f"/>
<rect x="441" y="460" width="107" height="12" fill="#00f"/>
<rect x="604" y="460" width="219" height="12" fill="#00f"/>
<line x1="227" y1="466" x2="440" y2="466" stroke="#00f"/>
<line x1="548" y1="466" x2="603" y2="466" stroke="#00f"/>
<rect x="505" y="461" width="43" height="10" fill="#ff0"/>
<rect x="605" y="461" width="120" height="10" fill="#ff0"/>
<text x="20" y="490" class="sm">7.183e-05</text>
<rect x="100" y="480" width="127" height="12" fill="#00f"/>
<rect x="428" y="480" width="120" height="12" fill="#00f"/>
<rect x="604" y="480" width="219" height="12" fill="#00f"/>
<line x1="227" y1="486" x2="427" y2="486" stroke="#00f"/>
<line x1="548" y1="486" x2="603" y2="486" stroke="#00f"/>
<rect x="212" y="481" width="15" height="10" fill="#ff0"/>
<rect x="429" y="481" width="119" height="10" fill="#ff0"/>
<rect x="605" y="481" width="100" height="10" fill="#ff0"/>
</svg>
