<svg viewBox="0 0 532 520" xmlns="http://www.w3.org/2000/svg">

<style>
  .sm { font: 12px sans-serif; }
  .lg { font: 15px sans-serif; }
</style>
<rect fill="#ddd" x="0" y="0" width="100%" height="100%"/>
<text x="20" y="20" class="lg">ch.3288 II:1633690-1634221 Gene:WBGene00015593</text>
<text x="20" y="50" class="sm">WormBase</text>
<rect x="100" y="40" width="155" height="12" fill="#00f"/>
<rect x="302" y="40" width="130" height="12" fill="#00f"/>
<line x1="255" y1="46" x2="301" y2="46" stroke="#00f"/>
<rect x="117" y="41" width="138" height="10" fill="#ff0"/>
<rect x="303" y="41" width="97" height="10" fill="#ff0"/>
<rect x="101" y="41" width="15" height="10" fill="brown"><title>.</title></rect>
<rect x="401" y="41" width="31" height="10" fill="brown"><title>.</title></rect>
<text x="20" y="70" class="sm">Fitness: 5.4646425736305854e-05</text>
<rect x="255" y="65" width="47" height="5" fill="#00f"><title>383317.0</title></rect>
<rect x="259" y="70" width="43" height="5" fill="#00f"><title>682.0</title></rect>
<rect x="255" y="75" width="62" height="5" fill="#00f"><title>7.0</title></rect>
<rect x="190" y="80" width="25" height="5" fill="#00f"><title>4.0</title></rect>
<text x="20" y="110" class="sm">0.9982</text>
<rect x="100" y="100" width="155" height="12" fill="#00f"/>
<rect x="302" y="100" width="133" height="12" fill="#00f"/>
<line x1="255" y1="106" x2="301" y2="106" stroke="#00f"/>
<rect x="117" y="101" width="138" height="10" fill="#ff0"/>
<rect x="303" y="101" width="97" height="10" fill="#ff0"/>
<text x="20" y="130" class="sm">0.001771</text>
<rect x="100" y="120" width="159" height="12" fill="#00f"/>
<rect x="302" y="120" width="133" height="12" fill="#00f"/>
<line x1="259" y1="126" x2="301" y2="126" stroke="#00f"/>
<rect x="117" y="121" width="142" height="10" fill="#ff0"/>
<rect x="303" y="121" width="93" height="10" fill="#ff0"/>
<text x="20" y="150" class="sm">1.523e-05</text>
<rect x="100" y="140" width="125" height="12" fill="#00f"/>
<rect x="302" y="140" width="133" height="12" fill="#00f"/>
<line x1="225" y1="146" x2="301" y2="146" stroke="#00f"/>
<rect x="117" y="141" width="108" height="10" fill="#ff0"/>
<rect x="303" y="141" width="97" height="10" fill="#ff0"/>
<text x="20" y="170" class="sm">1.017e-05</text>
<rect x="100" y="160" width="155" height="12" fill="#00f"/>
<rect x="317" y="160" width="118" height="12" fill="#00f"/>
<line x1="255" y1="166" x2="316" y2="166" stroke="#00f"/>
<rect x="117" y="161" width="138" height="10" fill="#ff0"/>
<rect x="318" y="161" width="82" height="10" fill="#ff0"/>
<text x="20" y="190" class="sm">5.241e-06</text>
<rect x="100" y="180" width="80" height="12" fill="#00f"/>
<rect x="302" y="180" width="133" height="12" fill="#00f"/>
<line x1="180" y1="186" x2="301" y2="186" stroke="#00f"/>
<rect x="117" y="181" width="63" height="10" fill="#ff0"/>
<rect x="303" y="181" width="97" height="10" fill="#ff0"/>
<text x="20" y="210" class="sm">2.552e-06</text>
<rect x="100" y="200" width="49" height="12" fill="#00f"/>
<rect x="302" y="200" width="133" height="12" fill="#00f"/>
<line x1="149" y1="206" x2="301" y2="206" stroke="#00f"/>
<rect x="117" y="201" width="32" height="10" fill="#ff0"/>
<rect x="303" y="201" width="56" height="10" fill="#ff0"/>
<text x="20" y="230" class="sm">1.094e-06</text>
<rect x="100" y="220" width="32" height="12" fill="#00f"/>
<rect x="302" y="220" width="133" height="12" fill="#00f"/>
<line x1="132" y1="226" x2="301" y2="226" stroke="#00f"/>
<rect x="117" y="221" width="15" height="10" fill="#ff0"/>
<rect x="303" y="221" width="97" height="10" fill="#ff0"/>
<text x="20" y="250" class="sm">1.063e-06</text>
<rect x="100" y="240" width="170" height="12" fill="#00f"/>
<rect x="317" y="240" width="118" height="12" fill="#00f"/>
<line x1="270" y1="246" x2="316" y2="246" stroke="#00f"/>
<rect x="117" y="241" width="152" height="10" fill="#ff0"/>
<text x="20" y="270" class="sm">9.004e-07</text>
<rect x="100" y="260" width="168" height="12" fill="#00f"/>
<rect x="317" y="260" width="118" height="12" fill="#00f"/>
<line x1="268" y1="266" x2="316" y2="266" stroke="#00f"/>
<rect x="190" y="261" width="78" height="10" fill="#ff0"/>
<rect x="318" y="261" width="82" height="10" fill="#ff0"/>
<text x="20" y="290" class="sm">5.061e-07</text>
<rect x="100" y="280" width="155" height="12" fill="#00f"/>
<rect x="380" y="280" width="55" height="12" fill="#00f"/>
<line x1="255" y1="286" x2="379" y2="286" stroke="#00f"/>
<rect x="117" y="281" width="138" height="10" fill="#ff0"/>
<rect x="381" y="281" width="19" height="10" fill="#ff0"/>
<text x="20" y="310" class="sm">2.217e-07</text>
<rect x="100" y="300" width="231" height="12" fill="#00f"/>
<rect x="380" y="300" width="55" height="12" fill="#00f"/>
<line x1="331" y1="306" x2="379" y2="306" stroke="#00f"/>
<rect x="117" y="301" width="152" height="10" fill="#ff0"/>
<text x="20" y="330" class="sm">2.094e-07</text>
<rect x="100" y="320" width="155" height="12" fill="#00f"/>
<rect x="407" y="320" width="28" height="12" fill="#00f"/>
<line x1="255" y1="326" x2="406" y2="326" stroke="#00f"/>
<rect x="117" y="321" width="138" height="10" fill="#ff0"/>
<rect x="408" y="321" width="1" height="10" fill="#ff0"/>
<text x="20" y="350" class="sm">8.36e-08</text>
<rect x="100" y="340" width="80" height="12" fill="#00f"/>
<rect x="221" y="340" width="214" height="12" fill="#00f"/>
<line x1="180" y1="346" x2="220" y2="346" stroke="#00f"/>
<rect x="117" y="341" width="63" height="10" fill="#ff0"/>
<rect x="222" y="341" width="37" height="10" fill="#ff0"/>
<text x="20" y="370" class="sm">6.622e-08</text>
<rect x="100" y="360" width="159" height="12" fill="#00f"/>
<rect x="317" y="360" width="118" height="12" fill="#00f"/>
<line x1="259" y1="366" x2="316" y2="366" stroke="#00f"/>
<rect x="117" y="361" width="142" height="10" fill="#ff0"/>
<rect x="318" y="361" width="78" height="10" fill="#ff0"/>
<text x="20" y="390" class="sm">4.86e-08</text>
<rect x="100" y="380" width="155" height="12" fill="#00f"/>
<rect x="361" y="380" width="74" height="12" fill="#00f"/>
<line x1="255" y1="386" x2="360" y2="386" stroke="#00f"/>
<rect x="117" y="381" width="138" height="10" fill="#ff0"/>
<rect x="362" y="381" width="34" height="10" fill="#ff0"/>
<text x="20" y="410" class="sm">3.084e-08</text>
<rect x="100" y="400" width="211" height="12" fill="#00f"/>
<rect x="361" y="400" width="74" height="12" fill="#00f"/>
<line x1="311" y1="406" x2="360" y2="406" stroke="#00f"/>
<rect x="117" y="401" width="152" height="10" fill="#ff0"/>
<text x="20" y="430" class="sm">1.631e-08</text>
<rect x="100" y="420" width="155" height="12" fill="#00f"/>
<rect x="312" y="420" width="123" height="12" fill="#00f"/>
<line x1="255" y1="426" x2="311" y2="426" stroke="#00f"/>
<rect x="117" y="421" width="138" height="10" fill="#ff0"/>
<rect x="313" y="421" width="46" height="10" fill="#ff0"/>
<text x="20" y="450" class="sm">1.238e-08</text>
<rect x="100" y="440" width="211" height="12" fill="#00f"/>
<rect x="380" y="440" width="55" height="12" fill="#00f"/>
<line x1="311" y1="446" x2="379" y2="446" stroke="#00f"/>
<rect x="117" y="441" width="152" height="10" fill="#ff0"/>
<text x="20" y="470" class="sm">9.088e-09</text>
<rect x="100" y="460" width="155" height="12" fill="#00f"/>
<rect x="302" y="460" width="29" height="12" fill="#00f"/>
<rect x="380" y="460" width="55" height="12" fill="#00f"/>
<line x1="255" y1="466" x2="301" y2="466" stroke="#00f"/>
<line x1="331" y1="466" x2="379" y2="466" stroke="#00f"/>
<rect x="190" y="461" width="65" height="10" fill="#ff0"/>
<rect x="303" y="461" width="28" height="10" fill="#ff0"/>
<rect x="381" y="461" width="15" height="10" fill="#ff0"/>
<text x="20" y="490" class="sm">4.691e-09</text>
<rect x="100" y="480" width="170" height="12" fill="#00f"/>
<rect x="380" y="480" width="55" height="12" fill="#00f"/>
<line x1="270" y1="486" x2="379" y2="486" stroke="#00f"/>
<rect x="117" y="481" width="152" height="10" fill="#ff0"/>
</svg>
