<svg viewBox="0 0 965 540" xmlns="http://www.w3.org/2000/svg">

<style>
  .sm { font: 12px sans-serif; }
  .lg { font: 15px sans-serif; }
</style>
<rect fill="#ddd" x="0" y="0" width="100%" height="100%"/>
<text x="20" y="20" class="lg">ch.3979 II:3993095-3994059 Gene:WBGene00021190</text>
<text x="20" y="50" class="sm">WormBase</text>
<rect x="100" y="40" width="289" height="12" fill="#00f"/>
<rect x="435" y="40" width="151" height="12" fill="#00f"/>
<rect x="633" y="40" width="232" height="12" fill="#00f"/>
<line x1="389" y1="46" x2="434" y2="46" stroke="#00f"/>
<line x1="586" y1="46" x2="632" y2="46" stroke="#00f"/>
<rect x="211" y="41" width="178" height="10" fill="#ff0"/>
<rect x="436" y="41" width="150" height="10" fill="#ff0"/>
<rect x="634" y="41" width="80" height="10" fill="#ff0"/>
<rect x="101" y="41" width="109" height="10" fill="brown"><title>.</title></rect>
<rect x="715" y="41" width="150" height="10" fill="brown"><title>.</title></rect>
<text x="20" y="70" class="sm">Fitness: 0.13272507293898111</text>
<rect x="389" y="65" width="46" height="5" fill="#00f"><title>101882.0</title></rect>
<rect x="586" y="70" width="47" height="5" fill="#00f"><title>82730.0</title></rect>
<rect x="586" y="75" width="38" height="5" fill="#00f"><title>142.0</title></rect>
<rect x="578" y="80" width="55" height="5" fill="#00f"><title>113.0</title></rect>
<rect x="512" y="85" width="47" height="5" fill="#00f"><title>21.0</title></rect>
<rect x="375" y="90" width="60" height="5" fill="#00f"><title>4.0</title></rect>
<rect x="566" y="95" width="45" height="5" fill="#f0f"><title>4.0</title></rect>
<rect x="578" y="100" width="46" height="5" fill="#00f"><title>4.0</title></rect>
<text x="20" y="130" class="sm">0.9287</text>
<rect x="100" y="120" width="289" height="12" fill="#00f"/>
<rect x="435" y="120" width="151" height="12" fill="#00f"/>
<rect x="633" y="120" width="235" height="12" fill="#00f"/>
<line x1="389" y1="126" x2="434" y2="126" stroke="#00f"/>
<line x1="586" y1="126" x2="632" y2="126" stroke="#00f"/>
<rect x="211" y="121" width="178" height="10" fill="#ff0"/>
<rect x="436" y="121" width="150" height="10" fill="#ff0"/>
<rect x="634" y="121" width="80" height="10" fill="#ff0"/>
<text x="20" y="150" class="sm">0.01955</text>
<rect x="100" y="140" width="188" height="12" fill="#00f"/>
<rect x="326" y="140" width="63" height="12" fill="#00f"/>
<rect x="435" y="140" width="151" height="12" fill="#00f"/>
<rect x="633" y="140" width="235" height="12" fill="#00f"/>
<line x1="288" y1="146" x2="325" y2="146" stroke="#00f"/>
<line x1="389" y1="146" x2="434" y2="146" stroke="#00f"/>
<line x1="586" y1="146" x2="632" y2="146" stroke="#00f"/>
<rect x="331" y="141" width="58" height="10" fill="#ff0"/>
<rect x="436" y="141" width="150" height="10" fill="#ff0"/>
<rect x="634" y="141" width="80" height="10" fill="#ff0"/>
<text x="20" y="170" class="sm">0.01557</text>
<rect x="100" y="160" width="289" height="12" fill="#00f"/>
<rect x="435" y="160" width="58" height="12" fill="#00f"/>
<rect x="542" y="160" width="44" height="12" fill="#00f"/>
<rect x="633" y="160" width="235" height="12" fill="#00f"/>
<line x1="389" y1="166" x2="434" y2="166" stroke="#00f"/>
<line x1="493" y1="166" x2="541" y2="166" stroke="#00f"/>
<line x1="586" y1="166" x2="632" y2="166" stroke="#00f"/>
<rect x="211" y="161" width="178" height="10" fill="#ff0"/>
<rect x="436" y="161" width="57" height="10" fill="#ff0"/>
<rect x="543" y="161" width="43" height="10" fill="#ff0"/>
<rect x="634" y="161" width="66" height="10" fill="#ff0"/>
<text x="20" y="190" class="sm">0.01216</text>
<rect x="100" y="180" width="289" height="12" fill="#00f"/>
<rect x="435" y="180" width="143" height="12" fill="#00f"/>
<rect x="633" y="180" width="235" height="12" fill="#00f"/>
<line x1="389" y1="186" x2="434" y2="186" stroke="#00f"/>
<line x1="578" y1="186" x2="632" y2="186" stroke="#00f"/>
<rect x="211" y="181" width="178" height="10" fill="#ff0"/>
<rect x="436" y="181" width="142" height="10" fill="#ff0"/>
<rect x="634" y="181" width="43" height="10" fill="#ff0"/>
<text x="20" y="210" class="sm">0.004053</text>
<rect x="100" y="200" width="289" height="12" fill="#00f"/>
<rect x="435" y="200" width="103" height="12" fill="#00f"/>
<rect x="633" y="200" width="235" height="12" fill="#00f"/>
<line x1="389" y1="206" x2="434" y2="206" stroke="#00f"/>
<line x1="538" y1="206" x2="632" y2="206" stroke="#00f"/>
<rect x="211" y="201" width="178" height="10" fill="#ff0"/>
<rect x="436" y="201" width="102" height="10" fill="#ff0"/>
<rect x="634" y="201" width="80" height="10" fill="#ff0"/>
<text x="20" y="230" class="sm">0.003483</text>
<rect x="100" y="220" width="486" height="12" fill="#00f"/>
<rect x="633" y="220" width="235" height="12" fill="#00f"/>
<line x1="586" y1="226" x2="632" y2="226" stroke="#00f"/>
<rect x="446" y="221" width="140" height="10" fill="#ff0"/>
<rect x="634" y="221" width="80" height="10" fill="#ff0"/>
<text x="20" y="250" class="sm">0.002996</text>
<rect x="100" y="240" width="289" height="12" fill="#00f"/>
<rect x="435" y="240" width="109" height="12" fill="#00f"/>
<rect x="633" y="240" width="235" height="12" fill="#00f"/>
<line x1="389" y1="246" x2="434" y2="246" stroke="#00f"/>
<line x1="544" y1="246" x2="632" y2="246" stroke="#00f"/>
<rect x="211" y="241" width="178" height="10" fill="#ff0"/>
<rect x="436" y="241" width="108" height="10" fill="#ff0"/>
<rect x="634" y="241" width="80" height="10" fill="#ff0"/>
<text x="20" y="270" class="sm">0.002005</text>
<rect x="100" y="260" width="263" height="12" fill="#00f"/>
<rect x="435" y="260" width="151" height="12" fill="#00f"/>
<rect x="633" y="260" width="235" height="12" fill="#00f"/>
<line x1="363" y1="266" x2="434" y2="266" stroke="#00f"/>
<line x1="586" y1="266" x2="632" y2="266" stroke="#00f"/>
<rect x="211" y="261" width="152" height="10" fill="#ff0"/>
<rect x="436" y="261" width="134" height="10" fill="#ff0"/>
<text x="20" y="290" class="sm">0.00173</text>
<rect x="100" y="280" width="293" height="12" fill="#00f"/>
<rect x="435" y="280" width="151" height="12" fill="#00f"/>
<rect x="633" y="280" width="235" height="12" fill="#00f"/>
<line x1="393" y1="286" x2="434" y2="286" stroke="#00f"/>
<line x1="586" y1="286" x2="632" y2="286" stroke="#00f"/>
<rect x="446" y="281" width="140" height="10" fill="#ff0"/>
<rect x="634" y="281" width="80" height="10" fill="#ff0"/>
<text x="20" y="310" class="sm">0.001377</text>
<rect x="100" y="300" width="155" height="12" fill="#00f"/>
<rect x="326" y="300" width="63" height="12" fill="#00f"/>
<rect x="435" y="300" width="151" height="12" fill="#00f"/>
<rect x="633" y="300" width="235" height="12" fill="#00f"/>
<line x1="255" y1="306" x2="325" y2="306" stroke="#00f"/>
<line x1="389" y1="306" x2="434" y2="306" stroke="#00f"/>
<line x1="586" y1="306" x2="632" y2="306" stroke="#00f"/>
<rect x="331" y="301" width="58" height="10" fill="#ff0"/>
<rect x="436" y="301" width="150" height="10" fill="#ff0"/>
<rect x="634" y="301" width="80" height="10" fill="#ff0"/>
<text x="20" y="330" class="sm">0.001164</text>
<rect x="100" y="320" width="289" height="12" fill="#00f"/>
<rect x="435" y="320" width="115" height="12" fill="#00f"/>
<rect x="633" y="320" width="235" height="12" fill="#00f"/>
<line x1="389" y1="326" x2="434" y2="326" stroke="#00f"/>
<line x1="550" y1="326" x2="632" y2="326" stroke="#00f"/>
<rect x="211" y="321" width="178" height="10" fill="#ff0"/>
<rect x="436" y="321" width="114" height="10" fill="#ff0"/>
<rect x="634" y="321" width="80" height="10" fill="#ff0"/>
<text x="20" y="350" class="sm">0.001148</text>
<rect x="100" y="340" width="289" height="12" fill="#00f"/>
<rect x="435" y="340" width="58" height="12" fill="#00f"/>
<rect x="559" y="340" width="27" height="12" fill="#00f"/>
<rect x="633" y="340" width="235" height="12" fill="#00f"/>
<line x1="389" y1="346" x2="434" y2="346" stroke="#00f"/>
<line x1="493" y1="346" x2="558" y2="346" stroke="#00f"/>
<line x1="586" y1="346" x2="632" y2="346" stroke="#00f"/>
<rect x="211" y="341" width="178" height="10" fill="#ff0"/>
<rect x="436" y="341" width="57" height="10" fill="#ff0"/>
<rect x="560" y="341" width="26" height="10" fill="#ff0"/>
<rect x="634" y="341" width="80" height="10" fill="#ff0"/>
<text x="20" y="370" class="sm">0.001054</text>
<rect x="100" y="360" width="289" height="12" fill="#00f"/>
<rect x="435" y="360" width="106" height="12" fill="#00f"/>
<rect x="633" y="360" width="235" height="12" fill="#00f"/>
<line x1="389" y1="366" x2="434" y2="366" stroke="#00f"/>
<line x1="541" y1="366" x2="632" y2="366" stroke="#00f"/>
<rect x="211" y="361" width="178" height="10" fill="#ff0"/>
<rect x="436" y="361" width="105" height="10" fill="#ff0"/>
<rect x="634" y="361" width="80" height="10" fill="#ff0"/>
<text x="20" y="390" class="sm">0.0009613</text>
<rect x="100" y="380" width="275" height="12" fill="#00f"/>
<rect x="435" y="380" width="151" height="12" fill="#00f"/>
<rect x="633" y="380" width="235" height="12" fill="#00f"/>
<line x1="375" y1="386" x2="434" y2="386" stroke="#00f"/>
<line x1="586" y1="386" x2="632" y2="386" stroke="#00f"/>
<rect x="211" y="381" width="164" height="10" fill="#ff0"/>
<rect x="436" y="381" width="134" height="10" fill="#ff0"/>
<text x="20" y="410" class="sm">0.0009378</text>
<rect x="100" y="400" width="289" height="12" fill="#00f"/>
<rect x="435" y="400" width="58" height="12" fill="#00f"/>
<rect x="633" y="400" width="235" height="12" fill="#00f"/>
<line x1="389" y1="406" x2="434" y2="406" stroke="#00f"/>
<line x1="493" y1="406" x2="632" y2="406" stroke="#00f"/>
<rect x="211" y="401" width="178" height="10" fill="#ff0"/>
<rect x="436" y="401" width="57" height="10" fill="#ff0"/>
<rect x="634" y="401" width="80" height="10" fill="#ff0"/>
<text x="20" y="430" class="sm">0.0008892</text>
<rect x="100" y="420" width="289" height="12" fill="#00f"/>
<rect x="512" y="420" width="74" height="12" fill="#00f"/>
<rect x="633" y="420" width="235" height="12" fill="#00f"/>
<line x1="389" y1="426" x2="511" y2="426" stroke="#00f"/>
<line x1="586" y1="426" x2="632" y2="426" stroke="#00f"/>
<rect x="211" y="421" width="178" height="10" fill="#ff0"/>
<rect x="513" y="421" width="57" height="10" fill="#ff0"/>
<text x="20" y="450" class="sm">0.0008069</text>
<rect x="100" y="440" width="289" height="12" fill="#00f"/>
<rect x="435" y="440" width="151" height="12" fill="#00f"/>
<rect x="633" y="440" width="134" height="12" fill="#00f"/>
<rect x="815" y="440" width="53" height="12" fill="#00f"/>
<line x1="389" y1="446" x2="434" y2="446" stroke="#00f"/>
<line x1="586" y1="446" x2="632" y2="446" stroke="#00f"/>
<line x1="767" y1="446" x2="814" y2="446" stroke="#00f"/>
<rect x="211" y="441" width="178" height="10" fill="#ff0"/>
<rect x="436" y="441" width="150" height="10" fill="#ff0"/>
<rect x="634" y="441" width="80" height="10" fill="#ff0"/>
<text x="20" y="470" class="sm">0.0006453</text>
<rect x="100" y="460" width="393" height="12" fill="#00f"/>
<rect x="542" y="460" width="44" height="12" fill="#00f"/>
<rect x="633" y="460" width="235" height="12" fill="#00f"/>
<line x1="493" y1="466" x2="541" y2="466" stroke="#00f"/>
<line x1="586" y1="466" x2="632" y2="466" stroke="#00f"/>
<rect x="211" y="461" width="182" height="10" fill="#ff0"/>
<text x="20" y="490" class="sm">0.000414</text>
<rect x="100" y="480" width="289" height="12" fill="#00f"/>
<rect x="435" y="480" width="151" height="12" fill="#00f"/>
<rect x="681" y="480" width="187" height="12" fill="#00f"/>
<line x1="389" y1="486" x2="434" y2="486" stroke="#00f"/>
<line x1="586" y1="486" x2="680" y2="486" stroke="#00f"/>
<rect x="211" y="481" width="178" height="10" fill="#ff0"/>
<rect x="436" y="481" width="150" height="10" fill="#ff0"/>
<rect x="682" y="481" width="32" height="10" fill="#ff0"/>
<text x="20" y="510" class="sm">0.0003816</text>
<rect x="100" y="500" width="289" height="12" fill="#00f"/>
<rect x="435" y="500" width="100" height="12" fill="#00f"/>
<rect x="633" y="500" width="235" height="12" fill="#00f"/>
<line x1="389" y1="506" x2="434" y2="506" stroke="#00f"/>
<line x1="535" y1="506" x2="632" y2="506" stroke="#00f"/>
<rect x="211" y="501" width="178" height="10" fill="#ff0"/>
<rect x="436" y="501" width="99" height="10" fill="#ff0"/>
<rect x="634" y="501" width="80" height="10" fill="#ff0"/>
</svg>
