<svg viewBox="0 0 876 575" xmlns="http://www.w3.org/2000/svg">

<style>
  .sm { font: 12px sans-serif; }
  .lg { font: 15px sans-serif; }
</style>
<rect fill="#ddd" x="0" y="0" width="100%" height="100%"/>
<text x="20" y="20" class="lg">ch.4383 II:5648695-5649570 Gene:WBGene00302971</text>
<text x="20" y="50" class="sm">WormBase</text>
<rect x="102" y="40" width="113" height="12" fill="#00f"/>
<rect x="288" y="40" width="162" height="12" fill="#00f"/>
<rect x="498" y="40" width="280" height="12" fill="#00f"/>
<line x1="215" y1="46" x2="287" y2="46" stroke="#00f"/>
<line x1="450" y1="46" x2="497" y2="46" stroke="#00f"/>
<rect x="132" y="41" width="83" height="10" fill="#ff0"/>
<rect x="289" y="41" width="155" height="10" fill="#ff0"/>
<rect x="103" y="41" width="28" height="10" fill="brown"><title>.</title></rect>
<rect x="445" y="41" width="5" height="10" fill="brown"><title>.</title></rect>
<rect x="499" y="41" width="279" height="10" fill="brown"><title>.</title></rect>
<text x="20" y="70" class="sm">Fitness: 0.9853807018484994</text>
<rect x="215" y="65" width="73" height="5" fill="#00f"><title>361028.0</title></rect>
<rect x="791" y="70" width="46" height="5" fill="#00f"><title>330804.0</title></rect>
<rect x="450" y="75" width="48" height="5" fill="#00f"><title>296071.0</title></rect>
<rect x="11" y="80" width="91" height="5" fill="#00f"><title>2344.0</title></rect>
<rect x="129" y="85" width="48" height="5" fill="#00f"><title>167.0</title></rect>
<rect x="791" y="90" width="34" height="5" fill="#00f"><title>144.0</title></rect>
<rect x="782" y="95" width="47" height="5" fill="#f0f"><title>120.0</title></rect>
<rect x="791" y="100" width="51" height="5" fill="#00f"><title>57.0</title></rect>
<rect x="244" y="105" width="44" height="5" fill="#00f"><title>18.0</title></rect>
<rect x="246" y="110" width="42" height="5" fill="#00f"><title>11.0</title></rect>
<rect x="589" y="115" width="88" height="5" fill="#f0f"><title>8.0</title></rect>
<rect x="178" y="120" width="320" height="5" fill="#00f"><title>8.0</title></rect>
<rect x="791" y="125" width="66" height="5" fill="#00f"><title>5.0</title></rect>
<rect x="215" y="130" width="283" height="5" fill="#00f"><title>3.0</title></rect>
<rect x="215" y="135" width="45" height="5" fill="#00f"><title>3.0</title></rect>
<text x="20" y="165" class="sm">0.2803</text>
<rect x="100" y="155" width="115" height="12" fill="#00f"/>
<rect x="288" y="155" width="162" height="12" fill="#00f"/>
<rect x="498" y="155" width="281" height="12" fill="#00f"/>
<line x1="215" y1="161" x2="287" y2="161" stroke="#00f"/>
<line x1="450" y1="161" x2="497" y2="161" stroke="#00f"/>
<rect x="132" y="156" width="83" height="10" fill="#ff0"/>
<rect x="289" y="156" width="155" height="10" fill="#ff0"/>
<text x="20" y="185" class="sm">0.1739</text>
<rect x="100" y="175" width="119" height="12" fill="#00f"/>
<rect x="288" y="175" width="162" height="12" fill="#00f"/>
<rect x="498" y="175" width="281" height="12" fill="#00f"/>
<line x1="219" y1="181" x2="287" y2="181" stroke="#00f"/>
<line x1="450" y1="181" x2="497" y2="181" stroke="#00f"/>
<rect x="132" y="176" width="87" height="10" fill="#ff0"/>
<rect x="289" y="176" width="28" height="10" fill="#ff0"/>
<text x="20" y="205" class="sm">0.124</text>
<rect x="100" y="195" width="146" height="12" fill="#00f"/>
<rect x="288" y="195" width="162" height="12" fill="#00f"/>
<rect x="498" y="195" width="281" height="12" fill="#00f"/>
<line x1="246" y1="201" x2="287" y2="201" stroke="#00f"/>
<line x1="450" y1="201" x2="497" y2="201" stroke="#00f"/>
<rect x="132" y="196" width="107" height="10" fill="#ff0"/>
<text x="20" y="225" class="sm">0.06024</text>
<rect x="100" y="215" width="115" height="12" fill="#00f"/>
<rect x="288" y="215" width="166" height="12" fill="#00f"/>
<rect x="498" y="215" width="281" height="12" fill="#00f"/>
<line x1="215" y1="221" x2="287" y2="221" stroke="#00f"/>
<line x1="454" y1="221" x2="497" y2="221" stroke="#00f"/>
<rect x="132" y="216" width="83" height="10" fill="#ff0"/>
<rect x="289" y="216" width="155" height="10" fill="#ff0"/>
<text x="20" y="245" class="sm">0.04899</text>
<rect x="100" y="235" width="104" height="12" fill="#00f"/>
<rect x="288" y="235" width="162" height="12" fill="#00f"/>
<rect x="498" y="235" width="281" height="12" fill="#00f"/>
<line x1="204" y1="241" x2="287" y2="241" stroke="#00f"/>
<line x1="450" y1="241" x2="497" y2="241" stroke="#00f"/>
<rect x="132" y="236" width="72" height="10" fill="#ff0"/>
<rect x="289" y="236" width="28" height="10" fill="#ff0"/>
<text x="20" y="265" class="sm">0.04384</text>
<rect x="100" y="255" width="115" height="12" fill="#00f"/>
<rect x="288" y="255" width="142" height="12" fill="#00f"/>
<rect x="498" y="255" width="281" height="12" fill="#00f"/>
<line x1="215" y1="261" x2="287" y2="261" stroke="#00f"/>
<line x1="430" y1="261" x2="497" y2="261" stroke="#00f"/>
<rect x="132" y="256" width="83" height="10" fill="#ff0"/>
<rect x="289" y="256" width="141" height="10" fill="#ff0"/>
<rect x="499" y="256" width="43" height="10" fill="#ff0"/>
<text x="20" y="285" class="sm">0.04215</text>
<rect x="100" y="275" width="115" height="12" fill="#00f"/>
<rect x="288" y="275" width="106" height="12" fill="#00f"/>
<rect x="498" y="275" width="281" height="12" fill="#00f"/>
<line x1="215" y1="281" x2="287" y2="281" stroke="#00f"/>
<line x1="394" y1="281" x2="497" y2="281" stroke="#00f"/>
<rect x="132" y="276" width="83" height="10" fill="#ff0"/>
<rect x="289" y="276" width="105" height="10" fill="#ff0"/>
<rect x="499" y="276" width="43" height="10" fill="#ff0"/>
<text x="20" y="305" class="sm">0.03739</text>
<rect x="100" y="295" width="119" height="12" fill="#00f"/>
<rect x="288" y="295" width="166" height="12" fill="#00f"/>
<rect x="498" y="295" width="281" height="12" fill="#00f"/>
<line x1="219" y1="301" x2="287" y2="301" stroke="#00f"/>
<line x1="454" y1="301" x2="497" y2="301" stroke="#00f"/>
<rect x="132" y="296" width="87" height="10" fill="#ff0"/>
<rect x="289" y="296" width="28" height="10" fill="#ff0"/>
<text x="20" y="325" class="sm">0.02721</text>
<rect x="100" y="315" width="119" height="12" fill="#00f"/>
<rect x="288" y="315" width="142" height="12" fill="#00f"/>
<rect x="498" y="315" width="281" height="12" fill="#00f"/>
<line x1="219" y1="321" x2="287" y2="321" stroke="#00f"/>
<line x1="430" y1="321" x2="497" y2="321" stroke="#00f"/>
<rect x="132" y="316" width="87" height="10" fill="#ff0"/>
<rect x="289" y="316" width="28" height="10" fill="#ff0"/>
<text x="20" y="345" class="sm">0.02666</text>
<rect x="100" y="335" width="146" height="12" fill="#00f"/>
<rect x="288" y="335" width="166" height="12" fill="#00f"/>
<rect x="498" y="335" width="281" height="12" fill="#00f"/>
<line x1="246" y1="341" x2="287" y2="341" stroke="#00f"/>
<line x1="454" y1="341" x2="497" y2="341" stroke="#00f"/>
<rect x="132" y="336" width="107" height="10" fill="#ff0"/>
<text x="20" y="365" class="sm">0.02616</text>
<rect x="100" y="355" width="119" height="12" fill="#00f"/>
<rect x="288" y="355" width="106" height="12" fill="#00f"/>
<rect x="498" y="355" width="281" height="12" fill="#00f"/>
<line x1="219" y1="361" x2="287" y2="361" stroke="#00f"/>
<line x1="394" y1="361" x2="497" y2="361" stroke="#00f"/>
<rect x="132" y="356" width="87" height="10" fill="#ff0"/>
<rect x="289" y="356" width="28" height="10" fill="#ff0"/>
<text x="20" y="385" class="sm">0.0194</text>
<rect x="100" y="375" width="146" height="12" fill="#00f"/>
<rect x="288" y="375" width="142" height="12" fill="#00f"/>
<rect x="498" y="375" width="281" height="12" fill="#00f"/>
<line x1="246" y1="381" x2="287" y2="381" stroke="#00f"/>
<line x1="430" y1="381" x2="497" y2="381" stroke="#00f"/>
<rect x="132" y="376" width="107" height="10" fill="#ff0"/>
<text x="20" y="405" class="sm">0.01865</text>
<rect x="100" y="395" width="146" height="12" fill="#00f"/>
<rect x="288" y="395" width="106" height="12" fill="#00f"/>
<rect x="498" y="395" width="281" height="12" fill="#00f"/>
<line x1="246" y1="401" x2="287" y2="401" stroke="#00f"/>
<line x1="394" y1="401" x2="497" y2="401" stroke="#00f"/>
<rect x="132" y="396" width="107" height="10" fill="#ff0"/>
<text x="20" y="425" class="sm">0.01645</text>
<rect x="100" y="415" width="155" height="12" fill="#00f"/>
<rect x="318" y="415" width="132" height="12" fill="#00f"/>
<rect x="498" y="415" width="281" height="12" fill="#00f"/>
<line x1="255" y1="421" x2="317" y2="421" stroke="#00f"/>
<line x1="450" y1="421" x2="497" y2="421" stroke="#00f"/>
<rect x="132" y="416" width="107" height="10" fill="#ff0"/>
<text x="20" y="445" class="sm">0.01139</text>
<rect x="100" y="435" width="78" height="12" fill="#00f"/>
<rect x="288" y="435" width="162" height="12" fill="#00f"/>
<rect x="498" y="435" width="281" height="12" fill="#00f"/>
<line x1="178" y1="441" x2="287" y2="441" stroke="#00f"/>
<line x1="450" y1="441" x2="497" y2="441" stroke="#00f"/>
<rect x="132" y="436" width="46" height="10" fill="#ff0"/>
<rect x="289" y="436" width="161" height="10" fill="#ff0"/>
<rect x="499" y="436" width="204" height="10" fill="#ff0"/>
<text x="20" y="465" class="sm">0.01073</text>
<rect x="100" y="455" width="115" height="12" fill="#00f"/>
<rect x="288" y="455" width="172" height="12" fill="#00f"/>
<rect x="498" y="455" width="281" height="12" fill="#00f"/>
<line x1="215" y1="461" x2="287" y2="461" stroke="#00f"/>
<line x1="460" y1="461" x2="497" y2="461" stroke="#00f"/>
<rect x="132" y="456" width="83" height="10" fill="#ff0"/>
<rect x="289" y="456" width="155" height="10" fill="#ff0"/>
<text x="20" y="485" class="sm">0.01053</text>
<rect x="100" y="475" width="104" height="12" fill="#00f"/>
<rect x="288" y="475" width="166" height="12" fill="#00f"/>
<rect x="498" y="475" width="281" height="12" fill="#00f"/>
<line x1="204" y1="481" x2="287" y2="481" stroke="#00f"/>
<line x1="454" y1="481" x2="497" y2="481" stroke="#00f"/>
<rect x="132" y="476" width="72" height="10" fill="#ff0"/>
<rect x="289" y="476" width="28" height="10" fill="#ff0"/>
<text x="20" y="505" class="sm">0.007662</text>
<rect x="100" y="495" width="104" height="12" fill="#00f"/>
<rect x="288" y="495" width="142" height="12" fill="#00f"/>
<rect x="498" y="495" width="281" height="12" fill="#00f"/>
<line x1="204" y1="501" x2="287" y2="501" stroke="#00f"/>
<line x1="430" y1="501" x2="497" y2="501" stroke="#00f"/>
<rect x="132" y="496" width="72" height="10" fill="#ff0"/>
<rect x="289" y="496" width="28" height="10" fill="#ff0"/>
<text x="20" y="525" class="sm">0.007367</text>
<rect x="100" y="515" width="104" height="12" fill="#00f"/>
<rect x="288" y="515" width="106" height="12" fill="#00f"/>
<rect x="498" y="515" width="281" height="12" fill="#00f"/>
<line x1="204" y1="521" x2="287" y2="521" stroke="#00f"/>
<line x1="394" y1="521" x2="497" y2="521" stroke="#00f"/>
<rect x="132" y="516" width="72" height="10" fill="#ff0"/>
<rect x="289" y="516" width="28" height="10" fill="#ff0"/>
<text x="20" y="545" class="sm">0.006957</text>
<rect x="100" y="535" width="115" height="12" fill="#00f"/>
<rect x="288" y="535" width="491" height="12" fill="#00f"/>
<line x1="215" y1="541" x2="287" y2="541" stroke="#00f"/>
<rect x="132" y="536" width="83" height="10" fill="#ff0"/>
<rect x="289" y="536" width="155" height="10" fill="#ff0"/>
</svg>
