<svg viewBox="0 0 712 565" xmlns="http://www.w3.org/2000/svg">

<style>
  .sm { font: 12px sans-serif; }
  .lg { font: 15px sans-serif; }
</style>
<rect fill="#ddd" x="0" y="0" width="100%" height="100%"/>
<text x="20" y="20" class="lg">ch.4082 II:4562850-4563561 Gene:WBGene00000928</text>
<text x="20" y="50" class="sm">WormBase</text>
<rect x="100" y="40" width="154" height="12" fill="#00f"/>
<rect x="343" y="40" width="269" height="12" fill="#00f"/>
<line x1="254" y1="46" x2="342" y2="46" stroke="#00f"/>
<rect x="102" y="41" width="152" height="10" fill="#ff0"/>
<rect x="344" y="41" width="257" height="10" fill="#ff0"/>
<rect x="101" y="41" width="0" height="10" fill="brown"><title>.</title></rect>
<rect x="602" y="41" width="10" height="10" fill="brown"><title>.</title></rect>
<text x="20" y="70" class="sm">Fitness: 1.240596989210764e-05</text>
<rect x="254" y="65" width="89" height="5" fill="#00f"><title>3763410.0</title></rect>
<rect x="435" y="70" width="45" height="5" fill="#f0f"><title>40.0</title></rect>
<rect x="229" y="75" width="123" height="5" fill="#f0f"><title>15.0</title></rect>
<rect x="295" y="80" width="48" height="5" fill="#00f"><title>14.0</title></rect>
<rect x="243" y="85" width="223" height="5" fill="#f0f"><title>9.0</title></rect>
<rect x="383" y="90" width="131" height="5" fill="#f0f"><title>7.0</title></rect>
<rect x="45" y="95" width="55" height="5" fill="#00f"><title>5.0</title></rect>
<rect x="208" y="100" width="135" height="5" fill="#00f"><title>5.0</title></rect>
<rect x="239" y="105" width="89" height="5" fill="#f0f"><title>5.0</title></rect>
<rect x="266" y="110" width="46" height="5" fill="#f0f"><title>5.0</title></rect>
<rect x="258" y="115" width="85" height="5" fill="#00f"><title>3.0</title></rect>
<rect x="302" y="120" width="41" height="5" fill="#00f"><title>3.0</title></rect>
<rect x="380" y="125" width="120" height="5" fill="#00f"><title>3.0</title></rect>
<text x="20" y="155" class="sm">1.0</text>
<rect x="100" y="145" width="154" height="12" fill="#00f"/>
<rect x="343" y="145" width="272" height="12" fill="#00f"/>
<line x1="254" y1="151" x2="342" y2="151" stroke="#00f"/>
<rect x="102" y="146" width="152" height="10" fill="#ff0"/>
<rect x="344" y="146" width="257" height="10" fill="#ff0"/>
<text x="20" y="175" class="sm">3.851e-06</text>
<rect x="100" y="165" width="108" height="12" fill="#00f"/>
<rect x="343" y="165" width="272" height="12" fill="#00f"/>
<line x1="208" y1="171" x2="342" y2="171" stroke="#00f"/>
<rect x="356" y="166" width="245" height="10" fill="#ff0"/>
<text x="20" y="195" class="sm">1.816e-06</text>
<rect x="100" y="185" width="154" height="12" fill="#00f"/>
<rect x="303" y="185" width="312" height="12" fill="#00f"/>
<line x1="254" y1="191" x2="302" y2="191" stroke="#00f"/>
<rect x="196" y="186" width="58" height="10" fill="#ff0"/>
<rect x="304" y="186" width="297" height="10" fill="#ff0"/>
<text x="20" y="215" class="sm">7.514e-07</text>
<rect x="100" y="205" width="202" height="12" fill="#00f"/>
<rect x="343" y="205" width="272" height="12" fill="#00f"/>
<line x1="302" y1="211" x2="342" y2="211" stroke="#00f"/>
<rect x="102" y="206" width="200" height="10" fill="#ff0"/>
<rect x="344" y="206" width="257" height="10" fill="#ff0"/>
<text x="20" y="235" class="sm">5.124e-07</text>
<rect x="100" y="225" width="125" height="12" fill="#00f"/>
<rect x="343" y="225" width="272" height="12" fill="#00f"/>
<line x1="225" y1="231" x2="342" y2="231" stroke="#00f"/>
<rect x="196" y="226" width="29" height="10" fill="#ff0"/>
<rect x="344" y="226" width="257" height="10" fill="#ff0"/>
<text x="20" y="255" class="sm">4.729e-07</text>
<rect x="100" y="245" width="195" height="12" fill="#00f"/>
<rect x="343" y="245" width="272" height="12" fill="#00f"/>
<line x1="295" y1="251" x2="342" y2="251" stroke="#00f"/>
<rect x="356" y="246" width="245" height="10" fill="#ff0"/>
<text x="20" y="275" class="sm">1.272e-08</text>
<rect x="100" y="265" width="158" height="12" fill="#00f"/>
<rect x="343" y="265" width="272" height="12" fill="#00f"/>
<line x1="258" y1="271" x2="342" y2="271" stroke="#00f"/>
<rect x="102" y="266" width="156" height="10" fill="#ff0"/>
<rect x="344" y="266" width="145" height="10" fill="#ff0"/>
<text x="20" y="295" class="sm">4.632e-10</text>
<rect x="100" y="285" width="154" height="12" fill="#00f"/>
<rect x="307" y="285" width="308" height="12" fill="#00f"/>
<line x1="254" y1="291" x2="306" y2="291" stroke="#00f"/>
<rect x="102" y="286" width="152" height="10" fill="#ff0"/>
<rect x="308" y="286" width="293" height="10" fill="#ff0"/>
<text x="20" y="315" class="sm">4.209e-10</text>
<rect x="100" y="305" width="176" height="12" fill="#00f"/>
<rect x="343" y="305" width="272" height="12" fill="#00f"/>
<line x1="276" y1="311" x2="342" y2="311" stroke="#00f"/>
<rect x="102" y="306" width="174" height="10" fill="#ff0"/>
<rect x="344" y="306" width="145" height="10" fill="#ff0"/>
<text x="20" y="335" class="sm">2.671e-10</text>
<rect x="100" y="325" width="154" height="12" fill="#00f"/>
<rect x="315" y="325" width="300" height="12" fill="#00f"/>
<line x1="254" y1="331" x2="314" y2="331" stroke="#00f"/>
<rect x="196" y="326" width="58" height="10" fill="#ff0"/>
<rect x="316" y="326" width="285" height="10" fill="#ff0"/>
<text x="20" y="355" class="sm">2.29e-10</text>
<rect x="100" y="345" width="183" height="12" fill="#00f"/>
<rect x="343" y="345" width="272" height="12" fill="#00f"/>
<line x1="283" y1="351" x2="342" y2="351" stroke="#00f"/>
<rect x="356" y="346" width="245" height="10" fill="#ff0"/>
<text x="20" y="375" class="sm">6.066e-11</text>
<rect x="100" y="365" width="87" height="12" fill="#00f"/>
<rect x="343" y="365" width="272" height="12" fill="#00f"/>
<line x1="187" y1="371" x2="342" y2="371" stroke="#00f"/>
<rect x="176" y="366" width="11" height="10" fill="#ff0"/>
<rect x="344" y="366" width="257" height="10" fill="#ff0"/>
<text x="20" y="395" class="sm">1.762e-11</text>
<rect x="100" y="385" width="108" height="12" fill="#00f"/>
<rect x="303" y="385" width="312" height="12" fill="#00f"/>
<line x1="208" y1="391" x2="302" y2="391" stroke="#00f"/>
<rect x="102" y="386" width="106" height="10" fill="#ff0"/>
<rect x="304" y="386" width="297" height="10" fill="#ff0"/>
<text x="20" y="415" class="sm">2.03e-12</text>
<rect x="100" y="405" width="125" height="12" fill="#00f"/>
<rect x="303" y="405" width="312" height="12" fill="#00f"/>
<line x1="225" y1="411" x2="302" y2="411" stroke="#00f"/>
<rect x="356" y="406" width="245" height="10" fill="#ff0"/>
<text x="20" y="435" class="sm">1.888e-12</text>
<rect x="100" y="425" width="80" height="12" fill="#00f"/>
<rect x="343" y="425" width="272" height="12" fill="#00f"/>
<line x1="180" y1="431" x2="342" y2="431" stroke="#00f"/>
<rect x="356" y="426" width="245" height="10" fill="#ff0"/>
<text x="20" y="455" class="sm">1.353e-12</text>
<rect x="100" y="445" width="112" height="12" fill="#00f"/>
<rect x="343" y="445" width="272" height="12" fill="#00f"/>
<line x1="212" y1="451" x2="342" y2="451" stroke="#00f"/>
<rect x="102" y="446" width="110" height="10" fill="#ff0"/>
<rect x="344" y="446" width="257" height="10" fill="#ff0"/>
<text x="20" y="475" class="sm">5.8e-13</text>
<rect x="100" y="465" width="161" height="12" fill="#00f"/>
<rect x="343" y="465" width="272" height="12" fill="#00f"/>
<line x1="261" y1="471" x2="342" y2="471" stroke="#00f"/>
<rect x="102" y="466" width="159" height="10" fill="#ff0"/>
<rect x="344" y="466" width="145" height="10" fill="#ff0"/>
<text x="20" y="495" class="sm">2.432e-14</text>
<rect x="100" y="485" width="158" height="12" fill="#00f"/>
<rect x="303" y="485" width="312" height="12" fill="#00f"/>
<line x1="258" y1="491" x2="302" y2="491" stroke="#00f"/>
<rect x="356" y="486" width="245" height="10" fill="#ff0"/>
<text x="20" y="515" class="sm">9.541e-15</text>
<rect x="100" y="505" width="154" height="12" fill="#00f"/>
<rect x="472" y="505" width="143" height="12" fill="#00f"/>
<line x1="254" y1="511" x2="471" y2="511" stroke="#00f"/>
<rect x="102" y="506" width="152" height="10" fill="#ff0"/>
<rect x="473" y="506" width="128" height="10" fill="#ff0"/>
<text x="20" y="535" class="sm">3.949e-15</text>
<rect x="100" y="525" width="108" height="12" fill="#00f"/>
<rect x="307" y="525" width="308" height="12" fill="#00f"/>
<line x1="208" y1="531" x2="306" y2="531" stroke="#00f"/>
<rect x="356" y="526" width="245" height="10" fill="#ff0"/>
</svg>
