<svg viewBox="0 0 853 555" xmlns="http://www.w3.org/2000/svg">

<style>
  .sm { font: 12px sans-serif; }
  .lg { font: 15px sans-serif; }
</style>
<rect fill="#ddd" x="0" y="0" width="100%" height="100%"/>
<text x="20" y="20" class="lg">ch.4745 II:7112980-7113832 Gene:WBGene00017348</text>
<text x="20" y="50" class="sm">WormBase</text>
<rect x="100" y="40" width="112" height="12" fill="#00f"/>
<rect x="259" y="40" width="494" height="12" fill="#00f"/>
<line x1="212" y1="46" x2="258" y2="46" stroke="#00f"/>
<rect x="105" y="41" width="107" height="10" fill="#ff0"/>
<rect x="260" y="41" width="353" height="10" fill="#ff0"/>
<rect x="101" y="41" width="3" height="10" fill="brown"><title>.</title></rect>
<rect x="614" y="41" width="139" height="10" fill="brown"><title>.</title></rect>
<text x="20" y="70" class="sm">Fitness: 0.0027260504343102517</text>
<rect x="212" y="65" width="47" height="5" fill="#00f"><title>440384.0</title></rect>
<rect x="212" y="70" width="36" height="5" fill="#00f"><title>2051.0</title></rect>
<rect x="315" y="75" width="44" height="5" fill="#00f"><title>69.0</title></rect>
<rect x="177" y="80" width="43" height="5" fill="#f0f"><title>23.0</title></rect>
<rect x="331" y="85" width="47" height="5" fill="#00f"><title>11.0</title></rect>
<rect x="212" y="90" width="33" height="5" fill="#00f"><title>10.0</title></rect>
<rect x="198" y="95" width="50" height="5" fill="#00f"><title>7.0</title></rect>
<rect x="331" y="100" width="56" height="5" fill="#00f"><title>5.0</title></rect>
<rect x="203" y="105" width="42" height="5" fill="#00f"><title>3.0</title></rect>
<rect x="212" y="110" width="63" height="5" fill="#00f"><title>3.0</title></rect>
<rect x="613" y="115" width="61" height="5" fill="#00f"><title>3.0</title></rect>
<text x="20" y="145" class="sm">0.9945</text>
<rect x="100" y="135" width="112" height="12" fill="#00f"/>
<rect x="259" y="135" width="497" height="12" fill="#00f"/>
<line x1="212" y1="141" x2="258" y2="141" stroke="#00f"/>
<rect x="105" y="136" width="107" height="10" fill="#ff0"/>
<rect x="260" y="136" width="353" height="10" fill="#ff0"/>
<text x="20" y="165" class="sm">0.003934</text>
<rect x="100" y="155" width="112" height="12" fill="#00f"/>
<rect x="248" y="155" width="508" height="12" fill="#00f"/>
<line x1="212" y1="161" x2="247" y2="161" stroke="#00f"/>
<rect x="278" y="156" width="335" height="10" fill="#ff0"/>
<text x="20" y="185" class="sm">0.0005964</text>
<rect x="100" y="175" width="215" height="12" fill="#00f"/>
<rect x="359" y="175" width="397" height="12" fill="#00f"/>
<line x1="315" y1="181" x2="358" y2="181" stroke="#00f"/>
<rect x="249" y="176" width="66" height="10" fill="#ff0"/>
<rect x="360" y="176" width="253" height="10" fill="#ff0"/>
<text x="20" y="205" class="sm">0.0002467</text>
<rect x="100" y="195" width="87" height="12" fill="#00f"/>
<rect x="259" y="195" width="497" height="12" fill="#00f"/>
<line x1="187" y1="201" x2="258" y2="201" stroke="#00f"/>
<rect x="278" y="196" width="335" height="10" fill="#ff0"/>
<text x="20" y="225" class="sm">0.0002214</text>
<rect x="100" y="215" width="526" height="12" fill="#00f"/>
<rect x="674" y="215" width="82" height="12" fill="#00f"/>
<line x1="626" y1="221" x2="673" y2="221" stroke="#00f"/>
<rect x="278" y="216" width="335" height="10" fill="#ff0"/>
<text x="20" y="245" class="sm">0.0001377</text>
<rect x="100" y="235" width="215" height="12" fill="#00f"/>
<rect x="387" y="235" width="369" height="12" fill="#00f"/>
<line x1="315" y1="241" x2="386" y2="241" stroke="#00f"/>
<rect x="278" y="236" width="37" height="10" fill="#ff0"/>
<rect x="388" y="236" width="225" height="10" fill="#ff0"/>
<text x="20" y="265" class="sm">0.0001203</text>
<rect x="100" y="255" width="112" height="12" fill="#00f"/>
<rect x="275" y="255" width="481" height="12" fill="#00f"/>
<line x1="212" y1="261" x2="274" y2="261" stroke="#00f"/>
<rect x="278" y="256" width="335" height="10" fill="#ff0"/>
<text x="20" y="285" class="sm">6.432e-05</text>
<rect x="100" y="275" width="513" height="12" fill="#00f"/>
<rect x="674" y="275" width="82" height="12" fill="#00f"/>
<line x1="613" y1="281" x2="673" y2="281" stroke="#00f"/>
<rect x="278" y="276" width="335" height="10" fill="#ff0"/>
<text x="20" y="305" class="sm">2.187e-05</text>
<rect x="100" y="295" width="112" height="12" fill="#00f"/>
<rect x="292" y="295" width="464" height="12" fill="#00f"/>
<line x1="212" y1="301" x2="291" y2="301" stroke="#00f"/>
<rect x="105" y="296" width="107" height="10" fill="#ff0"/>
<rect x="293" y="296" width="320" height="10" fill="#ff0"/>
<text x="20" y="325" class="sm">1.864e-05</text>
<rect x="100" y="315" width="215" height="12" fill="#00f"/>
<rect x="398" y="315" width="358" height="12" fill="#00f"/>
<line x1="315" y1="321" x2="397" y2="321" stroke="#00f"/>
<rect x="249" y="316" width="66" height="10" fill="#ff0"/>
<rect x="399" y="316" width="214" height="10" fill="#ff0"/>
<text x="20" y="345" class="sm">1.833e-05</text>
<rect x="100" y="335" width="215" height="12" fill="#00f"/>
<rect x="351" y="335" width="405" height="12" fill="#00f"/>
<line x1="315" y1="341" x2="350" y2="341" stroke="#00f"/>
<rect x="278" y="336" width="37" height="10" fill="#ff0"/>
<rect x="352" y="336" width="261" height="10" fill="#ff0"/>
<text x="20" y="365" class="sm">1.739e-05</text>
<rect x="100" y="355" width="98" height="12" fill="#00f"/>
<rect x="259" y="355" width="497" height="12" fill="#00f"/>
<line x1="198" y1="361" x2="258" y2="361" stroke="#00f"/>
<rect x="278" y="356" width="335" height="10" fill="#ff0"/>
<text x="20" y="385" class="sm">1.587e-05</text>
<rect x="100" y="375" width="428" height="12" fill="#00f"/>
<rect x="674" y="375" width="82" height="12" fill="#00f"/>
<line x1="528" y1="381" x2="673" y2="381" stroke="#00f"/>
<rect x="278" y="376" width="250" height="10" fill="#ff0"/>
<rect x="675" y="376" width="63" height="10" fill="#ff0"/>
<text x="20" y="405" class="sm">1.142e-05</text>
<rect x="100" y="395" width="513" height="12" fill="#00f"/>
<rect x="654" y="395" width="102" height="12" fill="#00f"/>
<line x1="613" y1="401" x2="653" y2="401" stroke="#00f"/>
<rect x="278" y="396" width="335" height="10" fill="#ff0"/>
<text x="20" y="425" class="sm">7.84e-06</text>
<rect x="100" y="415" width="215" height="12" fill="#00f"/>
<rect x="389" y="415" width="367" height="12" fill="#00f"/>
<line x1="315" y1="421" x2="388" y2="421" stroke="#00f"/>
<rect x="249" y="416" width="66" height="10" fill="#ff0"/>
<rect x="390" y="416" width="223" height="10" fill="#ff0"/>
<text x="20" y="445" class="sm">7.154e-06</text>
<rect x="100" y="435" width="112" height="12" fill="#00f"/>
<rect x="341" y="435" width="415" height="12" fill="#00f"/>
<line x1="212" y1="441" x2="340" y2="441" stroke="#00f"/>
<rect x="458" y="436" width="155" height="10" fill="#ff0"/>
<text x="20" y="465" class="sm">5.479e-06</text>
<rect x="100" y="455" width="428" height="12" fill="#00f"/>
<rect x="647" y="455" width="109" height="12" fill="#00f"/>
<line x1="528" y1="461" x2="646" y2="461" stroke="#00f"/>
<rect x="278" y="456" width="250" height="10" fill="#ff0"/>
<rect x="648" y="456" width="6" height="10" fill="#ff0"/>
<text x="20" y="485" class="sm">3.648e-06</text>
<rect x="100" y="475" width="112" height="12" fill="#00f"/>
<rect x="311" y="475" width="445" height="12" fill="#00f"/>
<line x1="212" y1="481" x2="310" y2="481" stroke="#00f"/>
<rect x="458" y="476" width="155" height="10" fill="#ff0"/>
<text x="20" y="505" class="sm">3.176e-06</text>
<rect x="100" y="495" width="215" height="12" fill="#00f"/>
<rect x="417" y="495" width="339" height="12" fill="#00f"/>
<line x1="315" y1="501" x2="416" y2="501" stroke="#00f"/>
<rect x="278" y="496" width="37" height="10" fill="#ff0"/>
<rect x="418" y="496" width="195" height="10" fill="#ff0"/>
<text x="20" y="525" class="sm">3.109e-06</text>
<rect x="100" y="515" width="428" height="12" fill="#00f"/>
<rect x="654" y="515" width="102" height="12" fill="#00f"/>
<line x1="528" y1="521" x2="653" y2="521" stroke="#00f"/>
<rect x="278" y="516" width="250" height="10" fill="#ff0"/>
<rect x="655" y="516" width="6" height="10" fill="#ff0"/>
</svg>
