<svg viewBox="0 0 952 525" xmlns="http://www.w3.org/2000/svg">

<style>
  .sm { font: 12px sans-serif; }
  .lg { font: 15px sans-serif; }
</style>
<rect fill="#ddd" x="0" y="0" width="100%" height="100%"/>
<text x="20" y="20" class="lg">ch.4444 II:5838563-5839514 Gene:WBGene00022885</text>
<text x="20" y="50" class="sm">WormBase</text>
<rect x="102" y="40" width="174" height="12" fill="#00f"/>
<rect x="326" y="40" width="235" height="12" fill="#00f"/>
<rect x="605" y="40" width="249" height="12" fill="#00f"/>
<line x1="276" y1="46" x2="325" y2="46" stroke="#00f"/>
<line x1="561" y1="46" x2="604" y2="46" stroke="#00f"/>
<rect x="191" y="41" width="85" height="10" fill="#ff0"/>
<rect x="327" y="41" width="234" height="10" fill="#ff0"/>
<rect x="606" y="41" width="197" height="10" fill="#ff0"/>
<rect x="103" y="41" width="87" height="10" fill="brown"><title>.</title></rect>
<rect x="804" y="41" width="50" height="10" fill="brown"><title>.</title></rect>
<text x="20" y="70" class="sm">Fitness: 0.02825848139933405</text>
<rect x="561" y="65" width="44" height="5" fill="#00f"><title>160198.0</title></rect>
<rect x="276" y="70" width="50" height="5" fill="#00f"><title>137899.0</title></rect>
<rect x="561" y="75" width="48" height="5" fill="#00f"><title>169.0</title></rect>
<rect x="481" y="80" width="124" height="5" fill="#00f"><title>8.0</title></rect>
<rect x="280" y="85" width="46" height="5" fill="#00f"><title>3.0</title></rect>
<text x="20" y="115" class="sm">0.5267</text>
<rect x="100" y="105" width="461" height="12" fill="#00f"/>
<rect x="605" y="105" width="250" height="12" fill="#00f"/>
<line x1="561" y1="111" x2="604" y2="111" stroke="#00f"/>
<rect x="508" y="106" width="53" height="10" fill="#ff0"/>
<rect x="606" y="106" width="197" height="10" fill="#ff0"/>
<text x="20" y="135" class="sm">0.459</text>
<rect x="100" y="125" width="176" height="12" fill="#00f"/>
<rect x="326" y="125" width="529" height="12" fill="#00f"/>
<line x1="276" y1="131" x2="325" y2="131" stroke="#00f"/>
<rect x="191" y="126" width="85" height="10" fill="#ff0"/>
<rect x="327" y="126" width="264" height="10" fill="#ff0"/>
<text x="20" y="155" class="sm">0.01129</text>
<rect x="100" y="145" width="180" height="12" fill="#00f"/>
<rect x="326" y="145" width="529" height="12" fill="#00f"/>
<line x1="280" y1="151" x2="325" y2="151" stroke="#00f"/>
<rect x="633" y="146" width="170" height="10" fill="#ff0"/>
<text x="20" y="175" class="sm">0.002477</text>
<rect x="100" y="165" width="629" height="12" fill="#00f"/>
<rect x="790" y="165" width="65" height="12" fill="#00f"/>
<line x1="729" y1="171" x2="789" y2="171" stroke="#00f"/>
<rect x="633" y="166" width="96" height="10" fill="#ff0"/>
<rect x="791" y="166" width="22" height="10" fill="#ff0"/>
<text x="20" y="195" class="sm">0.0001681</text>
<rect x="100" y="185" width="381" height="12" fill="#00f"/>
<rect x="605" y="185" width="250" height="12" fill="#00f"/>
<line x1="481" y1="191" x2="604" y2="191" stroke="#00f"/>
<rect x="633" y="186" width="170" height="10" fill="#ff0"/>
<text x="20" y="215" class="sm">0.0001229</text>
<rect x="100" y="205" width="176" height="12" fill="#00f"/>
<rect x="326" y="205" width="235" height="12" fill="#00f"/>
<rect x="605" y="205" width="250" height="12" fill="#00f"/>
<line x1="276" y1="211" x2="325" y2="211" stroke="#00f"/>
<line x1="561" y1="211" x2="604" y2="211" stroke="#00f"/>
<rect x="191" y="206" width="85" height="10" fill="#ff0"/>
<rect x="327" y="206" width="234" height="10" fill="#ff0"/>
<rect x="606" y="206" width="197" height="10" fill="#ff0"/>
<text x="20" y="235" class="sm">9.806e-05</text>
<rect x="100" y="225" width="546" height="12" fill="#00f"/>
<rect x="696" y="225" width="159" height="12" fill="#00f"/>
<line x1="646" y1="231" x2="695" y2="231" stroke="#00f"/>
<rect x="191" y="226" width="89" height="10" fill="#ff0"/>
<text x="20" y="255" class="sm">7.25e-05</text>
<rect x="100" y="245" width="152" height="12" fill="#00f"/>
<rect x="326" y="245" width="529" height="12" fill="#00f"/>
<line x1="252" y1="251" x2="325" y2="251" stroke="#00f"/>
<rect x="191" y="246" width="61" height="10" fill="#ff0"/>
<rect x="327" y="246" width="264" height="10" fill="#ff0"/>
<text x="20" y="275" class="sm">1.635e-05</text>
<rect x="100" y="265" width="176" height="12" fill="#00f"/>
<rect x="353" y="265" width="502" height="12" fill="#00f"/>
<line x1="276" y1="271" x2="352" y2="271" stroke="#00f"/>
<rect x="191" y="266" width="85" height="10" fill="#ff0"/>
<rect x="354" y="266" width="237" height="10" fill="#ff0"/>
<text x="20" y="295" class="sm">1.346e-05</text>
<rect x="100" y="285" width="461" height="12" fill="#00f"/>
<rect x="609" y="285" width="246" height="12" fill="#00f"/>
<line x1="561" y1="291" x2="608" y2="291" stroke="#00f"/>
<rect x="633" y="286" width="170" height="10" fill="#ff0"/>
<text x="20" y="315" class="sm">5.871e-06</text>
<rect x="100" y="305" width="176" height="12" fill="#00f"/>
<rect x="387" y="305" width="468" height="12" fill="#00f"/>
<line x1="276" y1="311" x2="386" y2="311" stroke="#00f"/>
<rect x="633" y="306" width="170" height="10" fill="#ff0"/>
<text x="20" y="335" class="sm">5.805e-06</text>
<rect x="100" y="325" width="272" height="12" fill="#00f"/>
<rect x="418" y="325" width="437" height="12" fill="#00f"/>
<line x1="372" y1="331" x2="417" y2="331" stroke="#00f"/>
<rect x="633" y="326" width="170" height="10" fill="#ff0"/>
<text x="20" y="355" class="sm">5.221e-06</text>
<rect x="100" y="345" width="176" height="12" fill="#00f"/>
<rect x="605" y="345" width="250" height="12" fill="#00f"/>
<line x1="276" y1="351" x2="604" y2="351" stroke="#00f"/>
<rect x="633" y="346" width="170" height="10" fill="#ff0"/>
<text x="20" y="375" class="sm">3.898e-06</text>
<rect x="100" y="365" width="435" height="12" fill="#00f"/>
<rect x="605" y="365" width="250" height="12" fill="#00f"/>
<line x1="535" y1="371" x2="604" y2="371" stroke="#00f"/>
<rect x="633" y="366" width="170" height="10" fill="#ff0"/>
<text x="20" y="395" class="sm">3.877e-06</text>
<rect x="100" y="385" width="621" height="12" fill="#00f"/>
<rect x="790" y="385" width="65" height="12" fill="#00f"/>
<line x1="721" y1="391" x2="789" y2="391" stroke="#00f"/>
<rect x="633" y="386" width="88" height="10" fill="#ff0"/>
<rect x="791" y="386" width="12" height="10" fill="#ff0"/>
<text x="20" y="415" class="sm">3.024e-06</text>
<rect x="100" y="405" width="180" height="12" fill="#00f"/>
<rect x="326" y="405" width="235" height="12" fill="#00f"/>
<rect x="605" y="405" width="250" height="12" fill="#00f"/>
<line x1="280" y1="411" x2="325" y2="411" stroke="#00f"/>
<line x1="561" y1="411" x2="604" y2="411" stroke="#00f"/>
<rect x="508" y="406" width="53" height="10" fill="#ff0"/>
<rect x="606" y="406" width="197" height="10" fill="#ff0"/>
<text x="20" y="435" class="sm">2.119e-06</text>
<rect x="100" y="425" width="261" height="12" fill="#00f"/>
<rect x="605" y="425" width="250" height="12" fill="#00f"/>
<line x1="361" y1="431" x2="604" y2="431" stroke="#00f"/>
<rect x="311" y="426" width="50" height="10" fill="#ff0"/>
<rect x="606" y="426" width="197" height="10" fill="#ff0"/>
<text x="20" y="455" class="sm">1.78e-06</text>
<rect x="100" y="445" width="272" height="12" fill="#00f"/>
<rect x="605" y="445" width="250" height="12" fill="#00f"/>
<line x1="372" y1="451" x2="604" y2="451" stroke="#00f"/>
<rect x="633" y="446" width="170" height="10" fill="#ff0"/>
<text x="20" y="475" class="sm">1.672e-06</text>
<rect x="100" y="465" width="96" height="12" fill="#00f"/>
<rect x="326" y="465" width="529" height="12" fill="#00f"/>
<line x1="196" y1="471" x2="325" y2="471" stroke="#00f"/>
<rect x="633" y="466" width="170" height="10" fill="#ff0"/>
<text x="20" y="495" class="sm">9.752e-07</text>
<rect x="100" y="485" width="191" height="12" fill="#00f"/>
<rect x="353" y="485" width="502" height="12" fill="#00f"/>
<line x1="291" y1="491" x2="352" y2="491" stroke="#00f"/>
<rect x="633" y="486" width="170" height="10" fill="#ff0"/>
</svg>
