<svg viewBox="0 0 954 615" xmlns="http://www.w3.org/2000/svg">

<style>
  .sm { font: 12px sans-serif; }
  .lg { font: 15px sans-serif; }
</style>
<rect fill="#ddd" x="0" y="0" width="100%" height="100%"/>
<text x="20" y="20" class="lg">ch.4742 II:7105463-7106416 Gene:WBGene00004447</text>
<text x="20" y="50" class="sm">WormBase</text>
<rect x="100" y="40" width="56" height="12" fill="#00f"/>
<rect x="380" y="40" width="163" height="12" fill="#00f"/>
<rect x="587" y="40" width="138" height="12" fill="#00f"/>
<rect x="771" y="40" width="81" height="12" fill="#00f"/>
<line x1="156" y1="46" x2="379" y2="46" stroke="#00f"/>
<line x1="543" y1="46" x2="586" y2="46" stroke="#00f"/>
<line x1="725" y1="46" x2="770" y2="46" stroke="#00f"/>
<rect x="107" y="41" width="49" height="10" fill="#ff0"/>
<rect x="381" y="41" width="162" height="10" fill="#ff0"/>
<rect x="588" y="41" width="137" height="10" fill="#ff0"/>
<rect x="772" y="41" width="23" height="10" fill="#ff0"/>
<rect x="101" y="41" width="5" height="10" fill="brown"><title>.</title></rect>
<rect x="796" y="41" width="56" height="10" fill="brown"><title>.</title></rect>
<text x="20" y="70" class="sm">WormBase</text>
<rect x="100" y="60" width="56" height="12" fill="#00f"/>
<rect x="380" y="60" width="163" height="12" fill="#00f"/>
<rect x="587" y="60" width="138" height="12" fill="#00f"/>
<rect x="771" y="60" width="83" height="12" fill="#00f"/>
<line x1="156" y1="66" x2="379" y2="66" stroke="#00f"/>
<line x1="543" y1="66" x2="586" y2="66" stroke="#00f"/>
<line x1="725" y1="66" x2="770" y2="66" stroke="#00f"/>
<rect x="107" y="61" width="49" height="10" fill="#ff0"/>
<rect x="381" y="61" width="162" height="10" fill="#ff0"/>
<rect x="588" y="61" width="137" height="10" fill="#ff0"/>
<rect x="772" y="61" width="23" height="10" fill="#ff0"/>
<rect x="101" y="61" width="5" height="10" fill="brown"><title>.</title></rect>
<rect x="796" y="61" width="58" height="10" fill="brown"><title>.</title></rect>
<text x="20" y="90" class="sm">Fitness: 0.24075929813590166</text>
<rect x="543" y="85" width="44" height="5" fill="#00f"><title>21054600.0</title></rect>
<rect x="156" y="90" width="224" height="5" fill="#00f"><title>16147100.0</title></rect>
<rect x="725" y="95" width="46" height="5" fill="#00f"><title>10065200.0</title></rect>
<rect x="722" y="100" width="49" height="5" fill="#00f"><title>1260.0</title></rect>
<rect x="443" y="105" width="158" height="5" fill="#f0f"><title>42.0</title></rect>
<rect x="467" y="110" width="219" height="5" fill="#f0f"><title>26.0</title></rect>
<rect x="465" y="115" width="60" height="5" fill="#00f"><title>12.0</title></rect>
<rect x="518" y="120" width="69" height="5" fill="#00f"><title>12.0</title></rect>
<rect x="146" y="125" width="464" height="5" fill="#f0f"><title>9.0</title></rect>
<rect x="438" y="130" width="245" height="5" fill="#00f"><title>9.0</title></rect>
<rect x="525" y="135" width="152" height="5" fill="#00f"><title>6.0</title></rect>
<rect x="417" y="140" width="212" height="5" fill="#00f"><title>5.0</title></rect>
<rect x="443" y="145" width="253" height="5" fill="#f0f"><title>5.0</title></rect>
<rect x="146" y="150" width="297" height="5" fill="#f0f"><title>4.0</title></rect>
<rect x="424" y="155" width="39" height="5" fill="#00f"><title>4.0</title></rect>
<rect x="455" y="160" width="70" height="5" fill="#00f"><title>4.0</title></rect>
<rect x="437" y="165" width="58" height="5" fill="#00f"><title>3.0</title></rect>
<rect x="443" y="170" width="207" height="5" fill="#f0f"><title>3.0</title></rect>
<rect x="538" y="175" width="63" height="5" fill="#f0f"><title>3.0</title></rect>
<text x="20" y="205" class="sm">0.9998</text>
<rect x="100" y="195" width="56" height="12" fill="#00f"/>
<rect x="380" y="195" width="163" height="12" fill="#00f"/>
<rect x="587" y="195" width="138" height="12" fill="#00f"/>
<rect x="771" y="195" width="86" height="12" fill="#00f"/>
<line x1="156" y1="201" x2="379" y2="201" stroke="#00f"/>
<line x1="543" y1="201" x2="586" y2="201" stroke="#00f"/>
<line x1="725" y1="201" x2="770" y2="201" stroke="#00f"/>
<rect x="107" y="196" width="49" height="10" fill="#ff0"/>
<rect x="381" y="196" width="162" height="10" fill="#ff0"/>
<rect x="588" y="196" width="137" height="10" fill="#ff0"/>
<rect x="772" y="196" width="23" height="10" fill="#ff0"/>
<text x="20" y="225" class="sm">0.0001366</text>
<rect x="100" y="215" width="56" height="12" fill="#00f"/>
<rect x="380" y="215" width="163" height="12" fill="#00f"/>
<rect x="587" y="215" width="135" height="12" fill="#00f"/>
<rect x="771" y="215" width="86" height="12" fill="#00f"/>
<line x1="156" y1="221" x2="379" y2="221" stroke="#00f"/>
<line x1="543" y1="221" x2="586" y2="221" stroke="#00f"/>
<line x1="722" y1="221" x2="770" y2="221" stroke="#00f"/>
<rect x="107" y="216" width="49" height="10" fill="#ff0"/>
<rect x="381" y="216" width="162" height="10" fill="#ff0"/>
<rect x="588" y="216" width="134" height="10" fill="#ff0"/>
<rect x="772" y="216" width="23" height="10" fill="#ff0"/>
<text x="20" y="245" class="sm">3.289e-05</text>
<rect x="100" y="235" width="60" height="12" fill="#00f"/>
<rect x="380" y="235" width="163" height="12" fill="#00f"/>
<rect x="587" y="235" width="138" height="12" fill="#00f"/>
<rect x="771" y="235" width="86" height="12" fill="#00f"/>
<line x1="160" y1="241" x2="379" y2="241" stroke="#00f"/>
<line x1="543" y1="241" x2="586" y2="241" stroke="#00f"/>
<line x1="725" y1="241" x2="770" y2="241" stroke="#00f"/>
<rect x="107" y="236" width="53" height="10" fill="#ff0"/>
<rect x="381" y="236" width="80" height="10" fill="#ff0"/>
<text x="20" y="265" class="sm">2.455e-07</text>
<rect x="100" y="255" width="56" height="12" fill="#00f"/>
<rect x="380" y="255" width="138" height="12" fill="#00f"/>
<rect x="587" y="255" width="138" height="12" fill="#00f"/>
<rect x="771" y="255" width="86" height="12" fill="#00f"/>
<line x1="156" y1="261" x2="379" y2="261" stroke="#00f"/>
<line x1="518" y1="261" x2="586" y2="261" stroke="#00f"/>
<line x1="725" y1="261" x2="770" y2="261" stroke="#00f"/>
<rect x="107" y="256" width="49" height="10" fill="#ff0"/>
<rect x="381" y="256" width="137" height="10" fill="#ff0"/>
<rect x="588" y="256" width="137" height="10" fill="#ff0"/>
<rect x="772" y="256" width="30" height="10" fill="#ff0"/>
<text x="20" y="285" class="sm">4.904e-08</text>
<rect x="100" y="275" width="56" height="12" fill="#00f"/>
<rect x="414" y="275" width="129" height="12" fill="#00f"/>
<rect x="587" y="275" width="138" height="12" fill="#00f"/>
<rect x="771" y="275" width="86" height="12" fill="#00f"/>
<line x1="156" y1="281" x2="413" y2="281" stroke="#00f"/>
<line x1="543" y1="281" x2="586" y2="281" stroke="#00f"/>
<line x1="725" y1="281" x2="770" y2="281" stroke="#00f"/>
<rect x="107" y="276" width="49" height="10" fill="#ff0"/>
<rect x="415" y="276" width="39" height="10" fill="#ff0"/>
<text x="20" y="305" class="sm">1.818e-08</text>
<rect x="100" y="295" width="84" height="12" fill="#00f"/>
<rect x="380" y="295" width="163" height="12" fill="#00f"/>
<rect x="587" y="295" width="138" height="12" fill="#00f"/>
<rect x="771" y="295" width="86" height="12" fill="#00f"/>
<line x1="184" y1="301" x2="379" y2="301" stroke="#00f"/>
<line x1="543" y1="301" x2="586" y2="301" stroke="#00f"/>
<line x1="725" y1="301" x2="770" y2="301" stroke="#00f"/>
<rect x="159" y="296" width="25" height="10" fill="#ff0"/>
<rect x="381" y="296" width="162" height="10" fill="#ff0"/>
<rect x="588" y="296" width="137" height="10" fill="#ff0"/>
<rect x="772" y="296" width="23" height="10" fill="#ff0"/>
<text x="20" y="325" class="sm">6.581e-09</text>
<rect x="100" y="315" width="56" height="12" fill="#00f"/>
<rect x="394" y="315" width="149" height="12" fill="#00f"/>
<rect x="587" y="315" width="138" height="12" fill="#00f"/>
<rect x="771" y="315" width="86" height="12" fill="#00f"/>
<line x1="156" y1="321" x2="393" y2="321" stroke="#00f"/>
<line x1="543" y1="321" x2="586" y2="321" stroke="#00f"/>
<line x1="725" y1="321" x2="770" y2="321" stroke="#00f"/>
<rect x="107" y="316" width="49" height="10" fill="#ff0"/>
<rect x="395" y="316" width="66" height="10" fill="#ff0"/>
<text x="20" y="345" class="sm">4.493e-09</text>
<rect x="100" y="335" width="60" height="12" fill="#00f"/>
<rect x="380" y="335" width="163" height="12" fill="#00f"/>
<rect x="587" y="335" width="135" height="12" fill="#00f"/>
<rect x="771" y="335" width="86" height="12" fill="#00f"/>
<line x1="160" y1="341" x2="379" y2="341" stroke="#00f"/>
<line x1="543" y1="341" x2="586" y2="341" stroke="#00f"/>
<line x1="722" y1="341" x2="770" y2="341" stroke="#00f"/>
<rect x="107" y="336" width="53" height="10" fill="#ff0"/>
<rect x="381" y="336" width="80" height="10" fill="#ff0"/>
<text x="20" y="365" class="sm">3.354e-11</text>
<rect x="100" y="355" width="56" height="12" fill="#00f"/>
<rect x="380" y="355" width="138" height="12" fill="#00f"/>
<rect x="587" y="355" width="135" height="12" fill="#00f"/>
<rect x="771" y="355" width="86" height="12" fill="#00f"/>
<line x1="156" y1="361" x2="379" y2="361" stroke="#00f"/>
<line x1="518" y1="361" x2="586" y2="361" stroke="#00f"/>
<line x1="722" y1="361" x2="770" y2="361" stroke="#00f"/>
<rect x="107" y="356" width="49" height="10" fill="#ff0"/>
<rect x="381" y="356" width="137" height="10" fill="#ff0"/>
<rect x="588" y="356" width="134" height="10" fill="#ff0"/>
<rect x="772" y="356" width="30" height="10" fill="#ff0"/>
<text x="20" y="385" class="sm">1.664e-11</text>
<rect x="100" y="375" width="56" height="12" fill="#00f"/>
<rect x="380" y="375" width="163" height="12" fill="#00f"/>
<rect x="587" y="375" width="138" height="12" fill="#00f"/>
<rect x="796" y="375" width="61" height="12" fill="#00f"/>
<line x1="156" y1="381" x2="379" y2="381" stroke="#00f"/>
<line x1="543" y1="381" x2="586" y2="381" stroke="#00f"/>
<line x1="725" y1="381" x2="795" y2="381" stroke="#00f"/>
<rect x="107" y="376" width="49" height="10" fill="#ff0"/>
<rect x="381" y="376" width="162" height="10" fill="#ff0"/>
<rect x="588" y="376" width="137" height="10" fill="#ff0"/>
<rect x="797" y="376" width="5" height="10" fill="#ff0"/>
<text x="20" y="405" class="sm">8.078e-12</text>
<rect x="100" y="395" width="60" height="12" fill="#00f"/>
<rect x="380" y="395" width="138" height="12" fill="#00f"/>
<rect x="587" y="395" width="138" height="12" fill="#00f"/>
<rect x="771" y="395" width="86" height="12" fill="#00f"/>
<line x1="160" y1="401" x2="379" y2="401" stroke="#00f"/>
<line x1="518" y1="401" x2="586" y2="401" stroke="#00f"/>
<line x1="725" y1="401" x2="770" y2="401" stroke="#00f"/>
<rect x="107" y="396" width="53" height="10" fill="#ff0"/>
<rect x="381" y="396" width="80" height="10" fill="#ff0"/>
<text x="20" y="425" class="sm">6.829e-12</text>
<rect x="100" y="415" width="56" height="12" fill="#00f"/>
<rect x="380" y="415" width="127" height="12" fill="#00f"/>
<rect x="587" y="415" width="138" height="12" fill="#00f"/>
<rect x="771" y="415" width="86" height="12" fill="#00f"/>
<line x1="156" y1="421" x2="379" y2="421" stroke="#00f"/>
<line x1="507" y1="421" x2="586" y2="421" stroke="#00f"/>
<line x1="725" y1="421" x2="770" y2="421" stroke="#00f"/>
<rect x="107" y="416" width="49" height="10" fill="#ff0"/>
<rect x="381" y="416" width="126" height="10" fill="#ff0"/>
<rect x="588" y="416" width="137" height="10" fill="#ff0"/>
<rect x="772" y="416" width="23" height="10" fill="#ff0"/>
<text x="20" y="445" class="sm">6.699e-12</text>
<rect x="100" y="435" width="56" height="12" fill="#00f"/>
<rect x="414" y="435" width="129" height="12" fill="#00f"/>
<rect x="587" y="435" width="135" height="12" fill="#00f"/>
<rect x="771" y="435" width="86" height="12" fill="#00f"/>
<line x1="156" y1="441" x2="413" y2="441" stroke="#00f"/>
<line x1="543" y1="441" x2="586" y2="441" stroke="#00f"/>
<line x1="722" y1="441" x2="770" y2="441" stroke="#00f"/>
<rect x="107" y="436" width="49" height="10" fill="#ff0"/>
<rect x="415" y="436" width="39" height="10" fill="#ff0"/>
<text x="20" y="465" class="sm">6.482e-12</text>
<rect x="100" y="455" width="56" height="12" fill="#00f"/>
<rect x="288" y="455" width="255" height="12" fill="#00f"/>
<rect x="587" y="455" width="138" height="12" fill="#00f"/>
<rect x="771" y="455" width="86" height="12" fill="#00f"/>
<line x1="156" y1="461" x2="287" y2="461" stroke="#00f"/>
<line x1="543" y1="461" x2="586" y2="461" stroke="#00f"/>
<line x1="725" y1="461" x2="770" y2="461" stroke="#00f"/>
<rect x="482" y="456" width="61" height="10" fill="#ff0"/>
<rect x="588" y="456" width="0" height="10" fill="#ff0"/>
<text x="20" y="485" class="sm">2.526e-12</text>
<rect x="100" y="475" width="56" height="12" fill="#00f"/>
<rect x="380" y="475" width="163" height="12" fill="#00f"/>
<rect x="587" y="475" width="112" height="12" fill="#00f"/>
<rect x="771" y="475" width="86" height="12" fill="#00f"/>
<line x1="156" y1="481" x2="379" y2="481" stroke="#00f"/>
<line x1="543" y1="481" x2="586" y2="481" stroke="#00f"/>
<line x1="699" y1="481" x2="770" y2="481" stroke="#00f"/>
<rect x="482" y="476" width="61" height="10" fill="#ff0"/>
<rect x="588" y="476" width="0" height="10" fill="#ff0"/>
<text x="20" y="505" class="sm">2.518e-12</text>
<rect x="100" y="495" width="56" height="12" fill="#00f"/>
<rect x="346" y="495" width="197" height="12" fill="#00f"/>
<rect x="587" y="495" width="138" height="12" fill="#00f"/>
<rect x="771" y="495" width="86" height="12" fill="#00f"/>
<line x1="156" y1="501" x2="345" y2="501" stroke="#00f"/>
<line x1="543" y1="501" x2="586" y2="501" stroke="#00f"/>
<line x1="725" y1="501" x2="770" y2="501" stroke="#00f"/>
<rect x="107" y="496" width="49" height="10" fill="#ff0"/>
<rect x="347" y="496" width="15" height="10" fill="#ff0"/>
<text x="20" y="525" class="sm">2.483e-12</text>
<rect x="100" y="515" width="84" height="12" fill="#00f"/>
<rect x="380" y="515" width="163" height="12" fill="#00f"/>
<rect x="587" y="515" width="135" height="12" fill="#00f"/>
<rect x="771" y="515" width="86" height="12" fill="#00f"/>
<line x1="184" y1="521" x2="379" y2="521" stroke="#00f"/>
<line x1="543" y1="521" x2="586" y2="521" stroke="#00f"/>
<line x1="722" y1="521" x2="770" y2="521" stroke="#00f"/>
<rect x="159" y="516" width="25" height="10" fill="#ff0"/>
<rect x="381" y="516" width="162" height="10" fill="#ff0"/>
<rect x="588" y="516" width="134" height="10" fill="#ff0"/>
<rect x="772" y="516" width="23" height="10" fill="#ff0"/>
<text x="20" y="545" class="sm">2.17e-12</text>
<rect x="100" y="535" width="56" height="12" fill="#00f"/>
<rect x="331" y="535" width="212" height="12" fill="#00f"/>
<rect x="587" y="535" width="138" height="12" fill="#00f"/>
<rect x="771" y="535" width="86" height="12" fill="#00f"/>
<line x1="156" y1="541" x2="330" y2="541" stroke="#00f"/>
<line x1="543" y1="541" x2="586" y2="541" stroke="#00f"/>
<line x1="725" y1="541" x2="770" y2="541" stroke="#00f"/>
<rect x="107" y="536" width="49" height="10" fill="#ff0"/>
<rect x="332" y="536" width="30" height="10" fill="#ff0"/>
<text x="20" y="565" class="sm">1.39e-12</text>
<rect x="100" y="555" width="56" height="12" fill="#00f"/>
<rect x="380" y="555" width="130" height="12" fill="#00f"/>
<rect x="587" y="555" width="138" height="12" fill="#00f"/>
<rect x="771" y="555" width="86" height="12" fill="#00f"/>
<line x1="156" y1="561" x2="379" y2="561" stroke="#00f"/>
<line x1="510" y1="561" x2="586" y2="561" stroke="#00f"/>
<line x1="725" y1="561" x2="770" y2="561" stroke="#00f"/>
<rect x="107" y="556" width="49" height="10" fill="#ff0"/>
<rect x="381" y="556" width="129" height="10" fill="#ff0"/>
<rect x="588" y="556" width="137" height="10" fill="#ff0"/>
<rect x="772" y="556" width="23" height="10" fill="#ff0"/>
<text x="20" y="585" class="sm">1.264e-12</text>
<rect x="100" y="575" width="60" height="12" fill="#00f"/>
<rect x="414" y="575" width="129" height="12" fill="#00f"/>
<rect x="587" y="575" width="138" height="12" fill="#00f"/>
<rect x="771" y="575" width="86" height="12" fill="#00f"/>
<line x1="160" y1="581" x2="413" y2="581" stroke="#00f"/>
<line x1="543" y1="581" x2="586" y2="581" stroke="#00f"/>
<line x1="725" y1="581" x2="770" y2="581" stroke="#00f"/>
<rect x="107" y="576" width="53" height="10" fill="#ff0"/>
<rect x="415" y="576" width="128" height="10" fill="#ff0"/>
<rect x="588" y="576" width="137" height="10" fill="#ff0"/>
<rect x="772" y="576" width="23" height="10" fill="#ff0"/>
</svg>
