<svg viewBox="0 0 975 535" xmlns="http://www.w3.org/2000/svg">

<style>
  .sm { font: 12px sans-serif; }
  .lg { font: 15px sans-serif; }
</style>
<rect fill="#ddd" x="0" y="0" width="100%" height="100%"/>
<text x="20" y="20" class="lg">ch.4286 II:5358595-5359569 Gene:WBGene00017293</text>
<text x="20" y="50" class="sm">WormBase</text>
<rect x="100" y="40" width="92" height="12" fill="#00f"/>
<rect x="234" y="40" width="127" height="12" fill="#00f"/>
<rect x="412" y="40" width="463" height="12" fill="#00f"/>
<line x1="192" y1="46" x2="233" y2="46" stroke="#00f"/>
<line x1="361" y1="46" x2="411" y2="46" stroke="#00f"/>
<rect x="101" y="41" width="91" height="10" fill="#ff0"/>
<rect x="235" y="41" width="126" height="10" fill="#ff0"/>
<rect x="413" y="41" width="341" height="10" fill="#ff0"/>
<rect x="755" y="41" width="120" height="10" fill="brown"><title>.</title></rect>
<text x="20" y="70" class="sm">Fitness: 0.012572221702301553</text>
<rect x="192" y="65" width="42" height="5" fill="#00f"><title>505401.0</title></rect>
<rect x="361" y="70" width="51" height="5" fill="#00f"><title>475165.0</title></rect>
<rect x="185" y="75" width="49" height="5" fill="#00f"><title>199.0</title></rect>
<rect x="192" y="80" width="44" height="5" fill="#00f"><title>91.0</title></rect>
<rect x="4" y="85" width="96" height="5" fill="#00f"><title>56.0</title></rect>
<rect x="347" y="90" width="65" height="5" fill="#00f"><title>31.0</title></rect>
<rect x="192" y="95" width="52" height="5" fill="#00f"><title>4.0</title></rect>
<text x="20" y="125" class="sm">0.9255</text>
<rect x="100" y="115" width="92" height="12" fill="#00f"/>
<rect x="234" y="115" width="127" height="12" fill="#00f"/>
<rect x="412" y="115" width="466" height="12" fill="#00f"/>
<line x1="192" y1="121" x2="233" y2="121" stroke="#00f"/>
<line x1="361" y1="121" x2="411" y2="121" stroke="#00f"/>
<rect x="101" y="116" width="91" height="10" fill="#ff0"/>
<rect x="235" y="116" width="126" height="10" fill="#ff0"/>
<rect x="413" y="116" width="341" height="10" fill="#ff0"/>
<text x="20" y="145" class="sm">0.05499</text>
<rect x="100" y="135" width="92" height="12" fill="#00f"/>
<rect x="234" y="135" width="644" height="12" fill="#00f"/>
<line x1="192" y1="141" x2="233" y2="141" stroke="#00f"/>
<rect x="437" y="136" width="317" height="10" fill="#ff0"/>
<text x="20" y="165" class="sm">0.006952</text>
<rect x="100" y="155" width="261" height="12" fill="#00f"/>
<rect x="412" y="155" width="466" height="12" fill="#00f"/>
<line x1="361" y1="161" x2="411" y2="161" stroke="#00f"/>
<rect x="350" y="156" width="11" height="10" fill="#ff0"/>
<rect x="413" y="156" width="341" height="10" fill="#ff0"/>
<text x="20" y="185" class="sm">0.005625</text>
<rect x="100" y="175" width="92" height="12" fill="#00f"/>
<rect x="234" y="175" width="113" height="12" fill="#00f"/>
<rect x="412" y="175" width="466" height="12" fill="#00f"/>
<line x1="192" y1="181" x2="233" y2="181" stroke="#00f"/>
<line x1="347" y1="181" x2="411" y2="181" stroke="#00f"/>
<rect x="300" y="176" width="47" height="10" fill="#ff0"/>
<rect x="413" y="176" width="341" height="10" fill="#ff0"/>
<text x="20" y="205" class="sm">0.004845</text>
<rect x="100" y="195" width="85" height="12" fill="#00f"/>
<rect x="234" y="195" width="127" height="12" fill="#00f"/>
<rect x="412" y="195" width="466" height="12" fill="#00f"/>
<line x1="185" y1="201" x2="233" y2="201" stroke="#00f"/>
<line x1="361" y1="201" x2="411" y2="201" stroke="#00f"/>
<rect x="350" y="196" width="11" height="10" fill="#ff0"/>
<rect x="413" y="196" width="341" height="10" fill="#ff0"/>
<text x="20" y="225" class="sm">0.0004312</text>
<rect x="100" y="215" width="29" height="12" fill="#00f"/>
<rect x="186" y="215" width="175" height="12" fill="#00f"/>
<rect x="412" y="215" width="466" height="12" fill="#00f"/>
<line x1="129" y1="221" x2="185" y2="221" stroke="#00f"/>
<line x1="361" y1="221" x2="411" y2="221" stroke="#00f"/>
<rect x="350" y="216" width="11" height="10" fill="#ff0"/>
<rect x="413" y="216" width="341" height="10" fill="#ff0"/>
<text x="20" y="245" class="sm">0.0003694</text>
<rect x="100" y="235" width="97" height="12" fill="#00f"/>
<rect x="234" y="235" width="127" height="12" fill="#00f"/>
<rect x="412" y="235" width="466" height="12" fill="#00f"/>
<line x1="197" y1="241" x2="233" y2="241" stroke="#00f"/>
<line x1="361" y1="241" x2="411" y2="241" stroke="#00f"/>
<rect x="350" y="236" width="11" height="10" fill="#ff0"/>
<rect x="413" y="236" width="341" height="10" fill="#ff0"/>
<text x="20" y="265" class="sm">0.0002879</text>
<rect x="100" y="255" width="85" height="12" fill="#00f"/>
<rect x="234" y="255" width="644" height="12" fill="#00f"/>
<line x1="185" y1="261" x2="233" y2="261" stroke="#00f"/>
<rect x="437" y="256" width="317" height="10" fill="#ff0"/>
<text x="20" y="285" class="sm">0.0002595</text>
<rect x="100" y="275" width="92" height="12" fill="#00f"/>
<rect x="234" y="275" width="127" height="12" fill="#00f"/>
<rect x="412" y="275" width="177" height="12" fill="#00f"/>
<rect x="638" y="275" width="240" height="12" fill="#00f"/>
<line x1="192" y1="281" x2="233" y2="281" stroke="#00f"/>
<line x1="361" y1="281" x2="411" y2="281" stroke="#00f"/>
<line x1="589" y1="281" x2="637" y2="281" stroke="#00f"/>
<rect x="101" y="276" width="91" height="10" fill="#ff0"/>
<rect x="235" y="276" width="126" height="10" fill="#ff0"/>
<rect x="413" y="276" width="176" height="10" fill="#ff0"/>
<rect x="639" y="276" width="26" height="10" fill="#ff0"/>
<text x="20" y="305" class="sm">0.0001289</text>
<rect x="100" y="295" width="29" height="12" fill="#00f"/>
<rect x="234" y="295" width="127" height="12" fill="#00f"/>
<rect x="412" y="295" width="466" height="12" fill="#00f"/>
<line x1="129" y1="301" x2="233" y2="301" stroke="#00f"/>
<line x1="361" y1="301" x2="411" y2="301" stroke="#00f"/>
<rect x="101" y="296" width="28" height="10" fill="#ff0"/>
<rect x="235" y="296" width="126" height="10" fill="#ff0"/>
<rect x="413" y="296" width="341" height="10" fill="#ff0"/>
<text x="20" y="325" class="sm">0.0001284</text>
<rect x="100" y="315" width="92" height="12" fill="#00f"/>
<rect x="236" y="315" width="125" height="12" fill="#00f"/>
<rect x="412" y="315" width="466" height="12" fill="#00f"/>
<line x1="192" y1="321" x2="235" y2="321" stroke="#00f"/>
<line x1="361" y1="321" x2="411" y2="321" stroke="#00f"/>
<rect x="156" y="316" width="36" height="10" fill="#ff0"/>
<rect x="237" y="316" width="124" height="10" fill="#ff0"/>
<rect x="413" y="316" width="341" height="10" fill="#ff0"/>
<text x="20" y="345" class="sm">9.598e-05</text>
<rect x="100" y="335" width="92" height="12" fill="#00f"/>
<rect x="234" y="335" width="127" height="12" fill="#00f"/>
<rect x="412" y="335" width="177" height="12" fill="#00f"/>
<rect x="632" y="335" width="246" height="12" fill="#00f"/>
<line x1="192" y1="341" x2="233" y2="341" stroke="#00f"/>
<line x1="361" y1="341" x2="411" y2="341" stroke="#00f"/>
<line x1="589" y1="341" x2="631" y2="341" stroke="#00f"/>
<rect x="101" y="336" width="91" height="10" fill="#ff0"/>
<rect x="235" y="336" width="126" height="10" fill="#ff0"/>
<rect x="413" y="336" width="176" height="10" fill="#ff0"/>
<rect x="633" y="336" width="32" height="10" fill="#ff0"/>
<text x="20" y="365" class="sm">7.273e-05</text>
<rect x="100" y="355" width="92" height="12" fill="#00f"/>
<rect x="234" y="355" width="127" height="12" fill="#00f"/>
<rect x="419" y="355" width="459" height="12" fill="#00f"/>
<line x1="192" y1="361" x2="233" y2="361" stroke="#00f"/>
<line x1="361" y1="361" x2="418" y2="361" stroke="#00f"/>
<rect x="437" y="356" width="317" height="10" fill="#ff0"/>
<text x="20" y="385" class="sm">7.109e-05</text>
<rect x="100" y="375" width="29" height="12" fill="#00f"/>
<rect x="216" y="375" width="145" height="12" fill="#00f"/>
<rect x="412" y="375" width="466" height="12" fill="#00f"/>
<line x1="129" y1="381" x2="215" y2="381" stroke="#00f"/>
<line x1="361" y1="381" x2="411" y2="381" stroke="#00f"/>
<rect x="101" y="376" width="28" height="10" fill="#ff0"/>
<rect x="217" y="376" width="144" height="10" fill="#ff0"/>
<rect x="413" y="376" width="341" height="10" fill="#ff0"/>
<text x="20" y="405" class="sm">6.822e-05</text>
<rect x="100" y="395" width="92" height="12" fill="#00f"/>
<rect x="234" y="395" width="30" height="12" fill="#00f"/>
<rect x="311" y="395" width="50" height="12" fill="#00f"/>
<rect x="412" y="395" width="466" height="12" fill="#00f"/>
<line x1="192" y1="401" x2="233" y2="401" stroke="#00f"/>
<line x1="264" y1="401" x2="310" y2="401" stroke="#00f"/>
<line x1="361" y1="401" x2="411" y2="401" stroke="#00f"/>
<rect x="156" y="396" width="36" height="10" fill="#ff0"/>
<rect x="235" y="396" width="29" height="10" fill="#ff0"/>
<rect x="312" y="396" width="49" height="10" fill="#ff0"/>
<rect x="413" y="396" width="341" height="10" fill="#ff0"/>
<text x="20" y="425" class="sm">4.206e-05</text>
<rect x="100" y="415" width="92" height="12" fill="#00f"/>
<rect x="234" y="415" width="127" height="12" fill="#00f"/>
<rect x="412" y="415" width="177" height="12" fill="#00f"/>
<rect x="647" y="415" width="231" height="12" fill="#00f"/>
<line x1="192" y1="421" x2="233" y2="421" stroke="#00f"/>
<line x1="361" y1="421" x2="411" y2="421" stroke="#00f"/>
<line x1="589" y1="421" x2="646" y2="421" stroke="#00f"/>
<rect x="101" y="416" width="91" height="10" fill="#ff0"/>
<rect x="235" y="416" width="126" height="10" fill="#ff0"/>
<rect x="413" y="416" width="176" height="10" fill="#ff0"/>
<rect x="648" y="416" width="17" height="10" fill="#ff0"/>
<text x="20" y="445" class="sm">4.193e-05</text>
<rect x="100" y="435" width="247" height="12" fill="#00f"/>
<rect x="412" y="435" width="466" height="12" fill="#00f"/>
<line x1="347" y1="441" x2="411" y2="441" stroke="#00f"/>
<rect x="300" y="436" width="47" height="10" fill="#ff0"/>
<rect x="413" y="436" width="341" height="10" fill="#ff0"/>
<text x="20" y="465" class="sm">3.989e-05</text>
<rect x="100" y="455" width="92" height="12" fill="#00f"/>
<rect x="244" y="455" width="117" height="12" fill="#00f"/>
<rect x="412" y="455" width="466" height="12" fill="#00f"/>
<line x1="192" y1="461" x2="243" y2="461" stroke="#00f"/>
<line x1="361" y1="461" x2="411" y2="461" stroke="#00f"/>
<rect x="350" y="456" width="11" height="10" fill="#ff0"/>
<rect x="413" y="456" width="341" height="10" fill="#ff0"/>
<text x="20" y="485" class="sm">3.202e-05</text>
<rect x="100" y="475" width="92" height="12" fill="#00f"/>
<rect x="234" y="475" width="127" height="12" fill="#00f"/>
<rect x="412" y="475" width="159" height="12" fill="#00f"/>
<rect x="606" y="475" width="272" height="12" fill="#00f"/>
<line x1="192" y1="481" x2="233" y2="481" stroke="#00f"/>
<line x1="361" y1="481" x2="411" y2="481" stroke="#00f"/>
<line x1="571" y1="481" x2="605" y2="481" stroke="#00f"/>
<rect x="101" y="476" width="91" height="10" fill="#ff0"/>
<rect x="235" y="476" width="126" height="10" fill="#ff0"/>
<rect x="413" y="476" width="158" height="10" fill="#ff0"/>
<rect x="607" y="476" width="104" height="10" fill="#ff0"/>
<text x="20" y="505" class="sm">2.944e-05</text>
<rect x="100" y="495" width="85" height="12" fill="#00f"/>
<rect x="234" y="495" width="113" height="12" fill="#00f"/>
<rect x="412" y="495" width="466" height="12" fill="#00f"/>
<line x1="185" y1="501" x2="233" y2="501" stroke="#00f"/>
<line x1="347" y1="501" x2="411" y2="501" stroke="#00f"/>
<rect x="300" y="496" width="47" height="10" fill="#ff0"/>
<rect x="413" y="496" width="341" height="10" fill="#ff0"/>
</svg>
