<svg viewBox="0 0 807 540" xmlns="http://www.w3.org/2000/svg">

<style>
  .sm { font: 12px sans-serif; }
  .lg { font: 15px sans-serif; }
</style>
<rect fill="#ddd" x="0" y="0" width="100%" height="100%"/>
<text x="20" y="20" class="lg">ch.467 I:3317878-3318684 Gene:WBGene00021548</text>
<text x="20" y="50" class="sm">WormBase</text>
<rect x="102" y="40" width="101" height="12" fill="#00f"/>
<rect x="400" y="40" width="309" height="12" fill="#00f"/>
<line x1="203" y1="46" x2="399" y2="46" stroke="#00f"/>
<rect x="112" y="41" width="91" height="10" fill="#ff0"/>
<rect x="401" y="41" width="231" height="10" fill="#ff0"/>
<rect x="103" y="41" width="8" height="10" fill="brown"><title>.</title></rect>
<rect x="633" y="41" width="76" height="10" fill="brown"><title>.</title></rect>
<text x="20" y="70" class="sm">Fitness: 0.004107853788148741</text>
<rect x="203" y="65" width="197" height="5" fill="#00f"><title>551752.0</title></rect>
<rect x="203" y="70" width="52" height="5" fill="#00f"><title>1341.0</title></rect>
<rect x="322" y="75" width="78" height="5" fill="#00f"><title>489.0</title></rect>
<rect x="196" y="80" width="196" height="5" fill="#f0f"><title>33.0</title></rect>
<rect x="207" y="85" width="48" height="5" fill="#00f"><title>16.0</title></rect>
<rect x="442" y="90" width="30" height="5" fill="#f0f"><title>11.0</title></rect>
<rect x="207" y="95" width="193" height="5" fill="#00f"><title>8.0</title></rect>
<rect x="668" y="100" width="74" height="5" fill="#f0f"><title>3.0</title></rect>
<text x="20" y="130" class="sm">0.9963</text>
<rect x="100" y="120" width="103" height="12" fill="#00f"/>
<rect x="400" y="120" width="310" height="12" fill="#00f"/>
<line x1="203" y1="126" x2="399" y2="126" stroke="#00f"/>
<rect x="112" y="121" width="91" height="10" fill="#ff0"/>
<rect x="401" y="121" width="231" height="10" fill="#ff0"/>
<text x="20" y="150" class="sm">0.001069</text>
<rect x="100" y="140" width="222" height="12" fill="#00f"/>
<rect x="400" y="140" width="310" height="12" fill="#00f"/>
<line x1="322" y1="146" x2="399" y2="146" stroke="#00f"/>
<rect x="417" y="141" width="215" height="10" fill="#ff0"/>
<text x="20" y="170" class="sm">0.0009988</text>
<rect x="100" y="160" width="77" height="12" fill="#00f"/>
<rect x="400" y="160" width="310" height="12" fill="#00f"/>
<line x1="177" y1="166" x2="399" y2="166" stroke="#00f"/>
<rect x="134" y="161" width="43" height="10" fill="#ff0"/>
<rect x="401" y="161" width="231" height="10" fill="#ff0"/>
<text x="20" y="190" class="sm">0.0007312</text>
<rect x="100" y="180" width="103" height="12" fill="#00f"/>
<rect x="255" y="180" width="455" height="12" fill="#00f"/>
<line x1="203" y1="186" x2="254" y2="186" stroke="#00f"/>
<rect x="417" y="181" width="215" height="10" fill="#ff0"/>
<text x="20" y="210" class="sm">0.0006052</text>
<rect x="100" y="200" width="103" height="12" fill="#00f"/>
<rect x="349" y="200" width="361" height="12" fill="#00f"/>
<line x1="203" y1="206" x2="348" y2="206" stroke="#00f"/>
<rect x="417" y="201" width="215" height="10" fill="#ff0"/>
<text x="20" y="230" class="sm">0.0001162</text>
<rect x="100" y="220" width="187" height="12" fill="#00f"/>
<rect x="400" y="220" width="310" height="12" fill="#00f"/>
<line x1="287" y1="226" x2="399" y2="226" stroke="#00f"/>
<rect x="417" y="221" width="215" height="10" fill="#ff0"/>
<text x="20" y="250" class="sm">0.000105</text>
<rect x="100" y="240" width="107" height="12" fill="#00f"/>
<rect x="400" y="240" width="310" height="12" fill="#00f"/>
<line x1="207" y1="246" x2="399" y2="246" stroke="#00f"/>
<rect x="417" y="241" width="215" height="10" fill="#ff0"/>
<text x="20" y="270" class="sm">5.47e-05</text>
<rect x="100" y="260" width="103" height="12" fill="#00f"/>
<rect x="425" y="260" width="285" height="12" fill="#00f"/>
<line x1="203" y1="266" x2="424" y2="266" stroke="#00f"/>
<rect x="112" y="261" width="91" height="10" fill="#ff0"/>
<rect x="426" y="261" width="123" height="10" fill="#ff0"/>
<text x="20" y="290" class="sm">1.696e-06</text>
<rect x="100" y="280" width="103" height="12" fill="#00f"/>
<rect x="272" y="280" width="438" height="12" fill="#00f"/>
<line x1="203" y1="286" x2="271" y2="286" stroke="#00f"/>
<rect x="417" y="281" width="215" height="10" fill="#ff0"/>
<text x="20" y="310" class="sm">4.21e-07</text>
<rect x="100" y="300" width="77" height="12" fill="#00f"/>
<rect x="349" y="300" width="361" height="12" fill="#00f"/>
<line x1="177" y1="306" x2="348" y2="306" stroke="#00f"/>
<rect x="417" y="301" width="215" height="10" fill="#ff0"/>
<text x="20" y="330" class="sm">1.734e-07</text>
<rect x="100" y="320" width="103" height="12" fill="#00f"/>
<rect x="283" y="320" width="427" height="12" fill="#00f"/>
<line x1="203" y1="326" x2="282" y2="326" stroke="#00f"/>
<rect x="417" y="321" width="215" height="10" fill="#ff0"/>
<text x="20" y="350" class="sm">1.355e-07</text>
<rect x="100" y="340" width="187" height="12" fill="#00f"/>
<rect x="349" y="340" width="361" height="12" fill="#00f"/>
<line x1="287" y1="346" x2="348" y2="346" stroke="#00f"/>
<rect x="417" y="341" width="215" height="10" fill="#ff0"/>
<text x="20" y="370" class="sm">1.106e-07</text>
<rect x="100" y="360" width="77" height="12" fill="#00f"/>
<rect x="255" y="360" width="455" height="12" fill="#00f"/>
<line x1="177" y1="366" x2="254" y2="366" stroke="#00f"/>
<rect x="417" y="361" width="215" height="10" fill="#ff0"/>
<text x="20" y="390" class="sm">9.138e-08</text>
<rect x="100" y="380" width="107" height="12" fill="#00f"/>
<rect x="255" y="380" width="455" height="12" fill="#00f"/>
<line x1="207" y1="386" x2="254" y2="386" stroke="#00f"/>
<rect x="417" y="381" width="215" height="10" fill="#ff0"/>
<text x="20" y="410" class="sm">6.402e-08</text>
<rect x="100" y="400" width="107" height="12" fill="#00f"/>
<rect x="349" y="400" width="361" height="12" fill="#00f"/>
<line x1="207" y1="406" x2="348" y2="406" stroke="#00f"/>
<rect x="417" y="401" width="215" height="10" fill="#ff0"/>
<text x="20" y="430" class="sm">4.488e-08</text>
<rect x="100" y="420" width="77" height="12" fill="#00f"/>
<rect x="425" y="420" width="285" height="12" fill="#00f"/>
<line x1="177" y1="426" x2="424" y2="426" stroke="#00f"/>
<rect x="112" y="421" width="65" height="10" fill="#ff0"/>
<rect x="426" y="421" width="206" height="10" fill="#ff0"/>
<text x="20" y="450" class="sm">3.515e-08</text>
<rect x="100" y="440" width="222" height="12" fill="#00f"/>
<rect x="425" y="440" width="285" height="12" fill="#00f"/>
<line x1="322" y1="446" x2="424" y2="446" stroke="#00f"/>
<rect x="531" y="441" width="101" height="10" fill="#ff0"/>
<text x="20" y="470" class="sm">3.019e-08</text>
<rect x="100" y="460" width="103" height="12" fill="#00f"/>
<rect x="437" y="460" width="273" height="12" fill="#00f"/>
<line x1="203" y1="466" x2="436" y2="466" stroke="#00f"/>
<rect x="112" y="461" width="91" height="10" fill="#ff0"/>
<rect x="438" y="461" width="111" height="10" fill="#ff0"/>
<text x="20" y="490" class="sm">5.399e-09</text>
<rect x="100" y="480" width="107" height="12" fill="#00f"/>
<rect x="425" y="480" width="285" height="12" fill="#00f"/>
<line x1="207" y1="486" x2="424" y2="486" stroke="#00f"/>
<rect x="531" y="481" width="101" height="10" fill="#ff0"/>
<text x="20" y="510" class="sm">4.718e-09</text>
<rect x="100" y="500" width="187" height="12" fill="#00f"/>
<rect x="425" y="500" width="285" height="12" fill="#00f"/>
<line x1="287" y1="506" x2="424" y2="506" stroke="#00f"/>
<rect x="531" y="501" width="101" height="10" fill="#ff0"/>
</svg>
