<svg viewBox="0 0 621 520" xmlns="http://www.w3.org/2000/svg">

<style>
  .sm { font: 12px sans-serif; }
  .lg { font: 15px sans-serif; }
</style>
<rect fill="#ddd" x="0" y="0" width="100%" height="100%"/>
<text x="20" y="20" class="lg">ch.4878 II:7698513-7699133 Gene:WBGene00015205</text>
<text x="20" y="50" class="sm">WormBase</text>
<rect x="102" y="40" width="112" height="12" fill="#00f"/>
<rect x="309" y="40" width="214" height="12" fill="#00f"/>
<line x1="214" y1="46" x2="308" y2="46" stroke="#00f"/>
<rect x="103" y="41" width="111" height="10" fill="#ff0"/>
<rect x="310" y="41" width="151" height="10" fill="#ff0"/>
<rect x="462" y="41" width="61" height="10" fill="brown"><title>.</title></rect>
<text x="20" y="70" class="sm">Fitness: 1.3803616478052698</text>
<rect x="214" y="65" width="95" height="5" fill="#00f"><title>418119.0</title></rect>
<rect x="253" y="70" width="56" height="5" fill="#00f"><title>151.0</title></rect>
<rect x="169" y="75" width="140" height="5" fill="#00f"><title>14.0</title></rect>
<rect x="214" y="80" width="66" height="5" fill="#00f"><title>5.0</title></rect>
<text x="20" y="110" class="sm">0.4774</text>
<rect x="100" y="100" width="105" height="12" fill="#00f"/>
<rect x="309" y="100" width="215" height="12" fill="#00f"/>
<line x1="205" y1="106" x2="308" y2="106" stroke="#00f"/>
<rect x="103" y="101" width="102" height="10" fill="#ff0"/>
<rect x="310" y="101" width="151" height="10" fill="#ff0"/>
<text x="20" y="130" class="sm">0.3094</text>
<rect x="100" y="120" width="114" height="12" fill="#00f"/>
<rect x="309" y="120" width="215" height="12" fill="#00f"/>
<line x1="214" y1="126" x2="308" y2="126" stroke="#00f"/>
<rect x="103" y="121" width="111" height="10" fill="#ff0"/>
<rect x="310" y="121" width="151" height="10" fill="#ff0"/>
<text x="20" y="150" class="sm">0.1525</text>
<rect x="100" y="140" width="69" height="12" fill="#00f"/>
<rect x="309" y="140" width="215" height="12" fill="#00f"/>
<line x1="169" y1="146" x2="308" y2="146" stroke="#00f"/>
<rect x="103" y="141" width="66" height="10" fill="#ff0"/>
<rect x="310" y="141" width="151" height="10" fill="#ff0"/>
<text x="20" y="170" class="sm">0.02739</text>
<rect x="100" y="160" width="153" height="12" fill="#00f"/>
<rect x="309" y="160" width="215" height="12" fill="#00f"/>
<line x1="253" y1="166" x2="308" y2="166" stroke="#00f"/>
<rect x="185" y="161" width="68" height="10" fill="#ff0"/>
<rect x="310" y="161" width="161" height="10" fill="#ff0"/>
<text x="20" y="190" class="sm">0.02168</text>
<rect x="100" y="180" width="29" height="12" fill="#00f"/>
<rect x="309" y="180" width="215" height="12" fill="#00f"/>
<line x1="129" y1="186" x2="308" y2="186" stroke="#00f"/>
<rect x="103" y="181" width="26" height="10" fill="#ff0"/>
<rect x="310" y="181" width="161" height="10" fill="#ff0"/>
<text x="20" y="210" class="sm">0.004484</text>
<rect x="100" y="200" width="118" height="12" fill="#00f"/>
<rect x="309" y="200" width="215" height="12" fill="#00f"/>
<line x1="218" y1="206" x2="308" y2="206" stroke="#00f"/>
<rect x="185" y="201" width="33" height="10" fill="#ff0"/>
<rect x="310" y="201" width="151" height="10" fill="#ff0"/>
<text x="20" y="230" class="sm">0.002219</text>
<rect x="100" y="220" width="105" height="12" fill="#00f"/>
<rect x="426" y="220" width="98" height="12" fill="#00f"/>
<line x1="205" y1="226" x2="425" y2="226" stroke="#00f"/>
<rect x="103" y="221" width="102" height="10" fill="#ff0"/>
<rect x="427" y="221" width="34" height="10" fill="#ff0"/>
<text x="20" y="250" class="sm">0.002047</text>
<rect x="100" y="240" width="91" height="12" fill="#00f"/>
<rect x="309" y="240" width="215" height="12" fill="#00f"/>
<line x1="191" y1="246" x2="308" y2="246" stroke="#00f"/>
<rect x="185" y="241" width="6" height="10" fill="#ff0"/>
<rect x="310" y="241" width="151" height="10" fill="#ff0"/>
<text x="20" y="270" class="sm">0.001518</text>
<rect x="100" y="260" width="114" height="12" fill="#00f"/>
<rect x="426" y="260" width="98" height="12" fill="#00f"/>
<line x1="214" y1="266" x2="425" y2="266" stroke="#00f"/>
<rect x="103" y="261" width="111" height="10" fill="#ff0"/>
<rect x="427" y="261" width="34" height="10" fill="#ff0"/>
<text x="20" y="290" class="sm">0.0007103</text>
<rect x="100" y="280" width="69" height="12" fill="#00f"/>
<rect x="426" y="280" width="98" height="12" fill="#00f"/>
<line x1="169" y1="286" x2="425" y2="286" stroke="#00f"/>
<rect x="103" y="281" width="66" height="10" fill="#ff0"/>
<rect x="427" y="281" width="34" height="10" fill="#ff0"/>
<text x="20" y="310" class="sm">0.0003568</text>
<rect x="100" y="300" width="153" height="12" fill="#00f"/>
<rect x="426" y="300" width="98" height="12" fill="#00f"/>
<line x1="253" y1="306" x2="425" y2="306" stroke="#00f"/>
<rect x="103" y="301" width="146" height="10" fill="#ff0"/>
<text x="20" y="330" class="sm">8.515e-05</text>
<rect x="100" y="320" width="29" height="12" fill="#00f"/>
<rect x="426" y="320" width="98" height="12" fill="#00f"/>
<line x1="129" y1="326" x2="425" y2="326" stroke="#00f"/>
<rect x="103" y="321" width="26" height="10" fill="#ff0"/>
<rect x="427" y="321" width="44" height="10" fill="#ff0"/>
<text x="20" y="350" class="sm">3.294e-05</text>
<rect x="100" y="340" width="105" height="12" fill="#00f"/>
<rect x="445" y="340" width="79" height="12" fill="#00f"/>
<line x1="205" y1="346" x2="444" y2="346" stroke="#00f"/>
<rect x="103" y="341" width="102" height="10" fill="#ff0"/>
<rect x="446" y="341" width="1" height="10" fill="#ff0"/>
<text x="20" y="370" class="sm">2.253e-05</text>
<rect x="100" y="360" width="114" height="12" fill="#00f"/>
<rect x="445" y="360" width="79" height="12" fill="#00f"/>
<line x1="214" y1="366" x2="444" y2="366" stroke="#00f"/>
<rect x="103" y="361" width="111" height="10" fill="#ff0"/>
<rect x="446" y="361" width="25" height="10" fill="#ff0"/>
<text x="20" y="390" class="sm">2.127e-05</text>
<rect x="100" y="380" width="118" height="12" fill="#00f"/>
<rect x="426" y="380" width="98" height="12" fill="#00f"/>
<line x1="218" y1="386" x2="425" y2="386" stroke="#00f"/>
<rect x="103" y="381" width="115" height="10" fill="#ff0"/>
<rect x="427" y="381" width="87" height="10" fill="#ff0"/>
<text x="20" y="410" class="sm">2.051e-05</text>
<rect x="100" y="400" width="183" height="12" fill="#00f"/>
<rect x="426" y="400" width="98" height="12" fill="#00f"/>
<line x1="283" y1="406" x2="425" y2="406" stroke="#00f"/>
<rect x="103" y="401" width="146" height="10" fill="#ff0"/>
<text x="20" y="430" class="sm">9.761e-06</text>
<rect x="100" y="420" width="69" height="12" fill="#00f"/>
<rect x="445" y="420" width="79" height="12" fill="#00f"/>
<line x1="169" y1="426" x2="444" y2="426" stroke="#00f"/>
<rect x="103" y="421" width="66" height="10" fill="#ff0"/>
<rect x="446" y="421" width="25" height="10" fill="#ff0"/>
<text x="20" y="450" class="sm">9.183e-06</text>
<rect x="100" y="440" width="91" height="12" fill="#00f"/>
<rect x="426" y="440" width="98" height="12" fill="#00f"/>
<line x1="191" y1="446" x2="425" y2="446" stroke="#00f"/>
<rect x="103" y="441" width="88" height="10" fill="#ff0"/>
<rect x="427" y="441" width="87" height="10" fill="#ff0"/>
<text x="20" y="470" class="sm">4.978e-06</text>
<rect x="100" y="460" width="256" height="12" fill="#00f"/>
<rect x="426" y="460" width="98" height="12" fill="#00f"/>
<line x1="356" y1="466" x2="425" y2="466" stroke="#00f"/>
<rect x="103" y="461" width="146" height="10" fill="#ff0"/>
<text x="20" y="490" class="sm">4.862e-06</text>
<rect x="100" y="480" width="153" height="12" fill="#00f"/>
<rect x="445" y="480" width="79" height="12" fill="#00f"/>
<line x1="253" y1="486" x2="444" y2="486" stroke="#00f"/>
<rect x="103" y="481" width="146" height="10" fill="#ff0"/>
</svg>
