<svg viewBox="0 0 723 510" xmlns="http://www.w3.org/2000/svg">

<style>
  .sm { font: 12px sans-serif; }
  .lg { font: 15px sans-serif; }
</style>
<rect fill="#ddd" x="0" y="0" width="100%" height="100%"/>
<text x="20" y="20" class="lg">ch.4330 II:5496440-5497162 Gene:WBGene00017390</text>
<text x="20" y="50" class="sm">WormBase</text>
<rect x="100" y="40" width="181" height="12" fill="#00f"/>
<rect x="426" y="40" width="197" height="12" fill="#00f"/>
<line x1="281" y1="46" x2="425" y2="46" stroke="#00f"/>
<rect x="208" y="41" width="73" height="10" fill="#ff0"/>
<rect x="427" y="41" width="126" height="10" fill="#ff0"/>
<rect x="101" y="41" width="106" height="10" fill="brown"><title>.</title></rect>
<rect x="554" y="41" width="69" height="10" fill="brown"><title>.</title></rect>
<text x="20" y="70" class="sm">Fitness: 9.69396501073871e-05</text>
<rect x="281" y="65" width="145" height="5" fill="#00f"><title>351213.0</title></rect>
<rect x="281" y="70" width="198" height="5" fill="#00f"><title>8.0</title></rect>
<text x="20" y="100" class="sm">1.0</text>
<rect x="100" y="90" width="181" height="12" fill="#00f"/>
<rect x="426" y="90" width="200" height="12" fill="#00f"/>
<line x1="281" y1="96" x2="425" y2="96" stroke="#00f"/>
<rect x="208" y="91" width="73" height="10" fill="#ff0"/>
<rect x="427" y="91" width="126" height="10" fill="#ff0"/>
<text x="20" y="120" class="sm">2.979e-05</text>
<rect x="100" y="110" width="224" height="12" fill="#00f"/>
<rect x="426" y="110" width="200" height="12" fill="#00f"/>
<line x1="324" y1="116" x2="425" y2="116" stroke="#00f"/>
<rect x="432" y="111" width="125" height="10" fill="#ff0"/>
<text x="20" y="140" class="sm">1.489e-05</text>
<rect x="100" y="130" width="181" height="12" fill="#00f"/>
<rect x="354" y="130" width="272" height="12" fill="#00f"/>
<line x1="281" y1="136" x2="353" y2="136" stroke="#00f"/>
<rect x="208" y="131" width="73" height="10" fill="#ff0"/>
<rect x="355" y="131" width="60" height="10" fill="#ff0"/>
<text x="20" y="160" class="sm">3.203e-06</text>
<rect x="100" y="150" width="86" height="12" fill="#00f"/>
<rect x="426" y="150" width="200" height="12" fill="#00f"/>
<line x1="186" y1="156" x2="425" y2="156" stroke="#00f"/>
<rect x="113" y="151" width="73" height="10" fill="#ff0"/>
<rect x="427" y="151" width="126" height="10" fill="#ff0"/>
<text x="20" y="180" class="sm">2.456e-07</text>
<rect x="100" y="170" width="73" height="12" fill="#00f"/>
<rect x="426" y="170" width="200" height="12" fill="#00f"/>
<line x1="173" y1="176" x2="425" y2="176" stroke="#00f"/>
<rect x="432" y="171" width="125" height="10" fill="#ff0"/>
<text x="20" y="200" class="sm">2.279e-07</text>
<rect x="100" y="190" width="181" height="12" fill="#00f"/>
<rect x="402" y="190" width="224" height="12" fill="#00f"/>
<line x1="281" y1="196" x2="401" y2="196" stroke="#00f"/>
<rect x="432" y="191" width="125" height="10" fill="#ff0"/>
<text x="20" y="220" class="sm">3.97e-08</text>
<rect x="100" y="210" width="55" height="12" fill="#00f"/>
<rect x="426" y="210" width="200" height="12" fill="#00f"/>
<line x1="155" y1="216" x2="425" y2="216" stroke="#00f"/>
<rect x="432" y="211" width="125" height="10" fill="#ff0"/>
<text x="20" y="240" class="sm">2.59e-08</text>
<rect x="100" y="230" width="94" height="12" fill="#00f"/>
<rect x="426" y="230" width="200" height="12" fill="#00f"/>
<line x1="194" y1="236" x2="425" y2="236" stroke="#00f"/>
<rect x="432" y="231" width="125" height="10" fill="#ff0"/>
<text x="20" y="260" class="sm">2.466e-08</text>
<rect x="100" y="250" width="40" height="12" fill="#00f"/>
<rect x="426" y="250" width="200" height="12" fill="#00f"/>
<line x1="140" y1="256" x2="425" y2="256" stroke="#00f"/>
<rect x="432" y="251" width="125" height="10" fill="#ff0"/>
<text x="20" y="280" class="sm">1.733e-08</text>
<rect x="100" y="270" width="181" height="12" fill="#00f"/>
<rect x="343" y="270" width="283" height="12" fill="#00f"/>
<line x1="281" y1="276" x2="342" y2="276" stroke="#00f"/>
<rect x="432" y="271" width="125" height="10" fill="#ff0"/>
<text x="20" y="300" class="sm">2.072e-09</text>
<rect x="100" y="290" width="83" height="12" fill="#00f"/>
<rect x="426" y="290" width="200" height="12" fill="#00f"/>
<line x1="183" y1="296" x2="425" y2="296" stroke="#00f"/>
<rect x="113" y="291" width="70" height="10" fill="#ff0"/>
<rect x="427" y="291" width="126" height="10" fill="#ff0"/>
<text x="20" y="320" class="sm">2.028e-09</text>
<rect x="100" y="310" width="181" height="12" fill="#00f"/>
<rect x="372" y="310" width="254" height="12" fill="#00f"/>
<line x1="281" y1="316" x2="371" y2="316" stroke="#00f"/>
<rect x="432" y="311" width="125" height="10" fill="#ff0"/>
<text x="20" y="340" class="sm">1.399e-09</text>
<rect x="100" y="330" width="80" height="12" fill="#00f"/>
<rect x="426" y="330" width="200" height="12" fill="#00f"/>
<line x1="180" y1="336" x2="425" y2="336" stroke="#00f"/>
<rect x="113" y="331" width="67" height="10" fill="#ff0"/>
<rect x="427" y="331" width="126" height="10" fill="#ff0"/>
<text x="20" y="360" class="sm">1.277e-09</text>
<rect x="100" y="350" width="181" height="12" fill="#00f"/>
<rect x="318" y="350" width="308" height="12" fill="#00f"/>
<line x1="281" y1="356" x2="317" y2="356" stroke="#00f"/>
<rect x="208" y="351" width="73" height="10" fill="#ff0"/>
<rect x="319" y="351" width="96" height="10" fill="#ff0"/>
<text x="20" y="380" class="sm">7.319e-10</text>
<rect x="100" y="370" width="271" height="12" fill="#00f"/>
<rect x="426" y="370" width="200" height="12" fill="#00f"/>
<line x1="371" y1="376" x2="425" y2="376" stroke="#00f"/>
<rect x="432" y="371" width="125" height="10" fill="#ff0"/>
<text x="20" y="400" class="sm">5.993e-10</text>
<rect x="100" y="390" width="181" height="12" fill="#00f"/>
<rect x="479" y="390" width="147" height="12" fill="#00f"/>
<line x1="281" y1="396" x2="478" y2="396" stroke="#00f"/>
<rect x="208" y="391" width="73" height="10" fill="#ff0"/>
<rect x="480" y="391" width="30" height="10" fill="#ff0"/>
<text x="20" y="420" class="sm">1.806e-10</text>
<rect x="100" y="410" width="181" height="12" fill="#00f"/>
<rect x="565" y="410" width="61" height="12" fill="#00f"/>
<line x1="281" y1="416" x2="564" y2="416" stroke="#00f"/>
<rect x="113" y="411" width="98" height="10" fill="#ff0"/>
<text x="20" y="440" class="sm">1.736e-10</text>
<rect x="100" y="430" width="222" height="12" fill="#00f"/>
<rect x="426" y="430" width="200" height="12" fill="#00f"/>
<line x1="322" y1="436" x2="425" y2="436" stroke="#00f"/>
<rect x="432" y="431" width="125" height="10" fill="#ff0"/>
<text x="20" y="460" class="sm">7.317e-11</text>
<rect x="100" y="450" width="242" height="12" fill="#00f"/>
<rect x="426" y="450" width="200" height="12" fill="#00f"/>
<line x1="342" y1="456" x2="425" y2="456" stroke="#00f"/>
<rect x="432" y="451" width="125" height="10" fill="#ff0"/>
<text x="20" y="480" class="sm">6.967e-11</text>
<rect x="100" y="470" width="185" height="12" fill="#00f"/>
<rect x="426" y="470" width="200" height="12" fill="#00f"/>
<line x1="285" y1="476" x2="425" y2="476" stroke="#00f"/>
<rect x="432" y="471" width="125" height="10" fill="#ff0"/>
</svg>
