<svg viewBox="0 0 982 540" xmlns="http://www.w3.org/2000/svg">

<style>
  .sm { font: 12px sans-serif; }
  .lg { font: 15px sans-serif; }
</style>
<rect fill="#ddd" x="0" y="0" width="100%" height="100%"/>
<text x="20" y="20" class="lg">ch.4034 II:4320736-4321717 Gene:WBGene00021795</text>
<text x="20" y="50" class="sm">WormBase</text>
<rect x="100" y="40" width="108" height="12" fill="#00f"/>
<rect x="257" y="40" width="403" height="12" fill="#00f"/>
<rect x="713" y="40" width="169" height="12" fill="#00f"/>
<line x1="208" y1="46" x2="256" y2="46" stroke="#00f"/>
<line x1="660" y1="46" x2="712" y2="46" stroke="#00f"/>
<rect x="120" y="41" width="88" height="10" fill="#ff0"/>
<rect x="258" y="41" width="402" height="10" fill="#ff0"/>
<rect x="714" y="41" width="86" height="10" fill="#ff0"/>
<rect x="101" y="41" width="18" height="10" fill="brown"><title>.</title></rect>
<rect x="801" y="41" width="81" height="10" fill="brown"><title>.</title></rect>
<text x="20" y="70" class="sm">Fitness: 0.12741947328985445</text>
<rect x="208" y="65" width="49" height="5" fill="#00f"><title>208393.0</title></rect>
<rect x="660" y="70" width="53" height="5" fill="#00f"><title>178786.0</title></rect>
<rect x="58" y="75" width="42" height="5" fill="#00f"><title>1481.0</title></rect>
<rect x="58" y="80" width="44" height="5" fill="#00f"><title>310.0</title></rect>
<rect x="37" y="85" width="63" height="5" fill="#00f"><title>68.0</title></rect>
<rect x="330" y="90" width="206" height="5" fill="#00f"><title>13.0</title></rect>
<rect x="521" y="95" width="50" height="5" fill="#00f"><title>6.0</title></rect>
<rect x="231" y="100" width="47" height="5" fill="#f0f"><title>4.0</title></rect>
<text x="20" y="130" class="sm">0.9182</text>
<rect x="100" y="120" width="108" height="12" fill="#00f"/>
<rect x="257" y="120" width="403" height="12" fill="#00f"/>
<rect x="713" y="120" width="172" height="12" fill="#00f"/>
<line x1="208" y1="126" x2="256" y2="126" stroke="#00f"/>
<line x1="660" y1="126" x2="712" y2="126" stroke="#00f"/>
<rect x="120" y="121" width="88" height="10" fill="#ff0"/>
<rect x="258" y="121" width="402" height="10" fill="#ff0"/>
<rect x="714" y="121" width="86" height="10" fill="#ff0"/>
<text x="20" y="150" class="sm">0.03442</text>
<rect x="100" y="140" width="108" height="12" fill="#00f"/>
<rect x="257" y="140" width="264" height="12" fill="#00f"/>
<rect x="571" y="140" width="89" height="12" fill="#00f"/>
<rect x="713" y="140" width="172" height="12" fill="#00f"/>
<line x1="208" y1="146" x2="256" y2="146" stroke="#00f"/>
<line x1="521" y1="146" x2="570" y2="146" stroke="#00f"/>
<line x1="660" y1="146" x2="712" y2="146" stroke="#00f"/>
<rect x="120" y="141" width="88" height="10" fill="#ff0"/>
<rect x="258" y="141" width="263" height="10" fill="#ff0"/>
<rect x="572" y="141" width="42" height="10" fill="#ff0"/>
<text x="20" y="170" class="sm">0.01381</text>
<rect x="100" y="160" width="560" height="12" fill="#00f"/>
<rect x="713" y="160" width="172" height="12" fill="#00f"/>
<line x1="660" y1="166" x2="712" y2="166" stroke="#00f"/>
<rect x="280" y="161" width="380" height="10" fill="#ff0"/>
<rect x="714" y="161" width="86" height="10" fill="#ff0"/>
<text x="20" y="190" class="sm">0.01023</text>
<rect x="100" y="180" width="108" height="12" fill="#00f"/>
<rect x="257" y="180" width="26" height="12" fill="#00f"/>
<rect x="327" y="180" width="333" height="12" fill="#00f"/>
<rect x="713" y="180" width="172" height="12" fill="#00f"/>
<line x1="208" y1="186" x2="256" y2="186" stroke="#00f"/>
<line x1="283" y1="186" x2="326" y2="186" stroke="#00f"/>
<line x1="660" y1="186" x2="712" y2="186" stroke="#00f"/>
<rect x="269" y="181" width="14" height="10" fill="#ff0"/>
<rect x="328" y="181" width="332" height="10" fill="#ff0"/>
<rect x="714" y="181" width="86" height="10" fill="#ff0"/>
<text x="20" y="210" class="sm">0.006033</text>
<rect x="100" y="200" width="100" height="12" fill="#00f"/>
<rect x="257" y="200" width="403" height="12" fill="#00f"/>
<rect x="713" y="200" width="172" height="12" fill="#00f"/>
<line x1="200" y1="206" x2="256" y2="206" stroke="#00f"/>
<line x1="660" y1="206" x2="712" y2="206" stroke="#00f"/>
<rect x="280" y="201" width="380" height="10" fill="#ff0"/>
<rect x="714" y="201" width="86" height="10" fill="#ff0"/>
<text x="20" y="230" class="sm">0.005992</text>
<rect x="100" y="220" width="30" height="12" fill="#00f"/>
<rect x="257" y="220" width="403" height="12" fill="#00f"/>
<rect x="713" y="220" width="172" height="12" fill="#00f"/>
<line x1="130" y1="226" x2="256" y2="226" stroke="#00f"/>
<line x1="660" y1="226" x2="712" y2="226" stroke="#00f"/>
<rect x="120" y="221" width="10" height="10" fill="#ff0"/>
<rect x="258" y="221" width="402" height="10" fill="#ff0"/>
<rect x="714" y="221" width="86" height="10" fill="#ff0"/>
<text x="20" y="250" class="sm">0.003894</text>
<rect x="100" y="240" width="30" height="12" fill="#00f"/>
<rect x="170" y="240" width="38" height="12" fill="#00f"/>
<rect x="257" y="240" width="403" height="12" fill="#00f"/>
<rect x="713" y="240" width="172" height="12" fill="#00f"/>
<line x1="130" y1="246" x2="169" y2="246" stroke="#00f"/>
<line x1="208" y1="246" x2="256" y2="246" stroke="#00f"/>
<line x1="660" y1="246" x2="712" y2="246" stroke="#00f"/>
<rect x="180" y="241" width="28" height="10" fill="#ff0"/>
<rect x="258" y="241" width="402" height="10" fill="#ff0"/>
<rect x="714" y="241" width="86" height="10" fill="#ff0"/>
<text x="20" y="270" class="sm">0.002832</text>
<rect x="100" y="260" width="108" height="12" fill="#00f"/>
<rect x="257" y="260" width="264" height="12" fill="#00f"/>
<rect x="557" y="260" width="103" height="12" fill="#00f"/>
<rect x="713" y="260" width="172" height="12" fill="#00f"/>
<line x1="208" y1="266" x2="256" y2="266" stroke="#00f"/>
<line x1="521" y1="266" x2="556" y2="266" stroke="#00f"/>
<line x1="660" y1="266" x2="712" y2="266" stroke="#00f"/>
<rect x="120" y="261" width="88" height="10" fill="#ff0"/>
<rect x="258" y="261" width="263" height="10" fill="#ff0"/>
<rect x="558" y="261" width="102" height="10" fill="#ff0"/>
<rect x="714" y="261" width="86" height="10" fill="#ff0"/>
<text x="20" y="290" class="sm">0.0008437</text>
<rect x="100" y="280" width="108" height="12" fill="#00f"/>
<rect x="257" y="280" width="403" height="12" fill="#00f"/>
<rect x="734" y="280" width="151" height="12" fill="#00f"/>
<line x1="208" y1="286" x2="256" y2="286" stroke="#00f"/>
<line x1="660" y1="286" x2="733" y2="286" stroke="#00f"/>
<rect x="120" y="281" width="88" height="10" fill="#ff0"/>
<rect x="258" y="281" width="402" height="10" fill="#ff0"/>
<rect x="735" y="281" width="65" height="10" fill="#ff0"/>
<text x="20" y="310" class="sm">0.0007076</text>
<rect x="100" y="300" width="108" height="12" fill="#00f"/>
<rect x="257" y="300" width="84" height="12" fill="#00f"/>
<rect x="399" y="300" width="261" height="12" fill="#00f"/>
<rect x="713" y="300" width="172" height="12" fill="#00f"/>
<line x1="208" y1="306" x2="256" y2="306" stroke="#00f"/>
<line x1="341" y1="306" x2="398" y2="306" stroke="#00f"/>
<line x1="660" y1="306" x2="712" y2="306" stroke="#00f"/>
<rect x="442" y="301" width="218" height="10" fill="#ff0"/>
<rect x="714" y="301" width="86" height="10" fill="#ff0"/>
<text x="20" y="330" class="sm">0.0005803</text>
<rect x="100" y="320" width="108" height="12" fill="#00f"/>
<rect x="257" y="320" width="380" height="12" fill="#00f"/>
<rect x="713" y="320" width="172" height="12" fill="#00f"/>
<line x1="208" y1="326" x2="256" y2="326" stroke="#00f"/>
<line x1="637" y1="326" x2="712" y2="326" stroke="#00f"/>
<rect x="120" y="321" width="88" height="10" fill="#ff0"/>
<rect x="258" y="321" width="379" height="10" fill="#ff0"/>
<rect x="714" y="321" width="46" height="10" fill="#ff0"/>
<text x="20" y="350" class="sm">0.0005564</text>
<rect x="100" y="340" width="421" height="12" fill="#00f"/>
<rect x="571" y="340" width="89" height="12" fill="#00f"/>
<rect x="713" y="340" width="172" height="12" fill="#00f"/>
<line x1="521" y1="346" x2="570" y2="346" stroke="#00f"/>
<line x1="660" y1="346" x2="712" y2="346" stroke="#00f"/>
<rect x="280" y="341" width="241" height="10" fill="#ff0"/>
<rect x="572" y="341" width="42" height="10" fill="#ff0"/>
<text x="20" y="370" class="sm">0.000461</text>
<rect x="100" y="360" width="108" height="12" fill="#00f"/>
<rect x="257" y="360" width="403" height="12" fill="#00f"/>
<rect x="753" y="360" width="132" height="12" fill="#00f"/>
<line x1="208" y1="366" x2="256" y2="366" stroke="#00f"/>
<line x1="660" y1="366" x2="752" y2="366" stroke="#00f"/>
<rect x="120" y="361" width="88" height="10" fill="#ff0"/>
<rect x="258" y="361" width="402" height="10" fill="#ff0"/>
<rect x="754" y="361" width="59" height="10" fill="#ff0"/>
<text x="20" y="390" class="sm">0.0004134</text>
<rect x="100" y="380" width="108" height="12" fill="#00f"/>
<rect x="257" y="380" width="378" height="12" fill="#00f"/>
<rect x="713" y="380" width="172" height="12" fill="#00f"/>
<line x1="208" y1="386" x2="256" y2="386" stroke="#00f"/>
<line x1="635" y1="386" x2="712" y2="386" stroke="#00f"/>
<rect x="120" y="381" width="88" height="10" fill="#ff0"/>
<rect x="258" y="381" width="377" height="10" fill="#ff0"/>
<rect x="714" y="381" width="99" height="10" fill="#ff0"/>
<text x="20" y="410" class="sm">0.0002262</text>
<rect x="100" y="400" width="100" height="12" fill="#00f"/>
<rect x="257" y="400" width="264" height="12" fill="#00f"/>
<rect x="571" y="400" width="89" height="12" fill="#00f"/>
<rect x="713" y="400" width="172" height="12" fill="#00f"/>
<line x1="200" y1="406" x2="256" y2="406" stroke="#00f"/>
<line x1="521" y1="406" x2="570" y2="406" stroke="#00f"/>
<line x1="660" y1="406" x2="712" y2="406" stroke="#00f"/>
<rect x="280" y="401" width="241" height="10" fill="#ff0"/>
<rect x="572" y="401" width="42" height="10" fill="#ff0"/>
<text x="20" y="430" class="sm">0.0002247</text>
<rect x="100" y="420" width="30" height="12" fill="#00f"/>
<rect x="257" y="420" width="264" height="12" fill="#00f"/>
<rect x="571" y="420" width="89" height="12" fill="#00f"/>
<rect x="713" y="420" width="172" height="12" fill="#00f"/>
<line x1="130" y1="426" x2="256" y2="426" stroke="#00f"/>
<line x1="521" y1="426" x2="570" y2="426" stroke="#00f"/>
<line x1="660" y1="426" x2="712" y2="426" stroke="#00f"/>
<rect x="120" y="421" width="10" height="10" fill="#ff0"/>
<rect x="258" y="421" width="263" height="10" fill="#ff0"/>
<rect x="572" y="421" width="42" height="10" fill="#ff0"/>
<text x="20" y="450" class="sm">0.0001559</text>
<rect x="100" y="440" width="108" height="12" fill="#00f"/>
<rect x="257" y="440" width="268" height="12" fill="#00f"/>
<rect x="571" y="440" width="89" height="12" fill="#00f"/>
<rect x="713" y="440" width="172" height="12" fill="#00f"/>
<line x1="208" y1="446" x2="256" y2="446" stroke="#00f"/>
<line x1="525" y1="446" x2="570" y2="446" stroke="#00f"/>
<line x1="660" y1="446" x2="712" y2="446" stroke="#00f"/>
<rect x="120" y="441" width="88" height="10" fill="#ff0"/>
<rect x="258" y="441" width="267" height="10" fill="#ff0"/>
<rect x="572" y="441" width="88" height="10" fill="#ff0"/>
<rect x="714" y="441" width="99" height="10" fill="#ff0"/>
<text x="20" y="470" class="sm">0.000149</text>
<rect x="100" y="460" width="108" height="12" fill="#00f"/>
<rect x="327" y="460" width="333" height="12" fill="#00f"/>
<rect x="713" y="460" width="172" height="12" fill="#00f"/>
<line x1="208" y1="466" x2="326" y2="466" stroke="#00f"/>
<line x1="660" y1="466" x2="712" y2="466" stroke="#00f"/>
<rect x="334" y="461" width="326" height="10" fill="#ff0"/>
<rect x="714" y="461" width="86" height="10" fill="#ff0"/>
<text x="20" y="490" class="sm">0.0001448</text>
<rect x="100" y="480" width="173" height="12" fill="#00f"/>
<rect x="327" y="480" width="333" height="12" fill="#00f"/>
<rect x="713" y="480" width="172" height="12" fill="#00f"/>
<line x1="273" y1="486" x2="326" y2="486" stroke="#00f"/>
<line x1="660" y1="486" x2="712" y2="486" stroke="#00f"/>
<rect x="334" y="481" width="326" height="10" fill="#ff0"/>
<rect x="714" y="481" width="86" height="10" fill="#ff0"/>
<text x="20" y="510" class="sm">0.0001187</text>
<rect x="100" y="500" width="108" height="12" fill="#00f"/>
<rect x="257" y="500" width="343" height="12" fill="#00f"/>
<rect x="713" y="500" width="172" height="12" fill="#00f"/>
<line x1="208" y1="506" x2="256" y2="506" stroke="#00f"/>
<line x1="600" y1="506" x2="712" y2="506" stroke="#00f"/>
<rect x="120" y="501" width="88" height="10" fill="#ff0"/>
<rect x="258" y="501" width="342" height="10" fill="#ff0"/>
<rect x="714" y="501" width="86" height="10" fill="#ff0"/>
</svg>
