<svg viewBox="0 0 756 530" xmlns="http://www.w3.org/2000/svg">

<style>
  .sm { font: 12px sans-serif; }
  .lg { font: 15px sans-serif; }
</style>
<rect fill="#ddd" x="0" y="0" width="100%" height="100%"/>
<text x="20" y="20" class="lg">ch.4206 II:5011423-5012178 Gene:WBGene00044665</text>
<text x="20" y="50" class="sm">WormBase</text>
<rect x="102" y="40" width="80" height="12" fill="#00f"/>
<rect x="231" y="40" width="176" height="12" fill="#00f"/>
<rect x="449" y="40" width="209" height="12" fill="#00f"/>
<line x1="182" y1="46" x2="230" y2="46" stroke="#00f"/>
<line x1="407" y1="46" x2="448" y2="46" stroke="#00f"/>
<rect x="125" y="41" width="57" height="10" fill="#ff0"/>
<rect x="232" y="41" width="175" height="10" fill="#ff0"/>
<rect x="450" y="41" width="143" height="10" fill="#ff0"/>
<rect x="103" y="41" width="21" height="10" fill="brown"><title>.</title></rect>
<rect x="594" y="41" width="64" height="10" fill="brown"><title>.</title></rect>
<text x="20" y="70" class="sm">Fitness: 0.215817692581054</text>
<rect x="407" y="65" width="42" height="5" fill="#00f"><title>143915.0</title></rect>
<rect x="182" y="70" width="49" height="5" fill="#00f"><title>98218.0</title></rect>
<rect x="407" y="75" width="52" height="5" fill="#00f"><title>8136.0</title></rect>
<rect x="182" y="80" width="43" height="5" fill="#00f"><title>2285.0</title></rect>
<rect x="404" y="85" width="45" height="5" fill="#00f"><title>521.0</title></rect>
<rect x="399" y="90" width="41" height="5" fill="#f0f"><title>3.0</title></rect>
<text x="20" y="120" class="sm">0.8362</text>
<rect x="100" y="110" width="82" height="12" fill="#00f"/>
<rect x="231" y="110" width="176" height="12" fill="#00f"/>
<rect x="449" y="110" width="210" height="12" fill="#00f"/>
<line x1="182" y1="116" x2="230" y2="116" stroke="#00f"/>
<line x1="407" y1="116" x2="448" y2="116" stroke="#00f"/>
<rect x="125" y="111" width="57" height="10" fill="#ff0"/>
<rect x="232" y="111" width="175" height="10" fill="#ff0"/>
<rect x="450" y="111" width="143" height="10" fill="#ff0"/>
<text x="20" y="140" class="sm">0.1035</text>
<rect x="100" y="130" width="82" height="12" fill="#00f"/>
<rect x="225" y="130" width="182" height="12" fill="#00f"/>
<rect x="449" y="130" width="210" height="12" fill="#00f"/>
<line x1="182" y1="136" x2="224" y2="136" stroke="#00f"/>
<line x1="407" y1="136" x2="448" y2="136" stroke="#00f"/>
<rect x="125" y="131" width="57" height="10" fill="#ff0"/>
<rect x="226" y="131" width="181" height="10" fill="#ff0"/>
<rect x="450" y="131" width="143" height="10" fill="#ff0"/>
<text x="20" y="160" class="sm">0.02777</text>
<rect x="100" y="150" width="82" height="12" fill="#00f"/>
<rect x="231" y="150" width="176" height="12" fill="#00f"/>
<rect x="459" y="150" width="200" height="12" fill="#00f"/>
<line x1="182" y1="156" x2="230" y2="156" stroke="#00f"/>
<line x1="407" y1="156" x2="458" y2="156" stroke="#00f"/>
<rect x="125" y="151" width="57" height="10" fill="#ff0"/>
<rect x="232" y="151" width="175" height="10" fill="#ff0"/>
<rect x="460" y="151" width="101" height="10" fill="#ff0"/>
<text x="20" y="180" class="sm">0.01522</text>
<rect x="100" y="170" width="82" height="12" fill="#00f"/>
<rect x="315" y="170" width="92" height="12" fill="#00f"/>
<rect x="449" y="170" width="210" height="12" fill="#00f"/>
<line x1="182" y1="176" x2="314" y2="176" stroke="#00f"/>
<line x1="407" y1="176" x2="448" y2="176" stroke="#00f"/>
<rect x="125" y="171" width="57" height="10" fill="#ff0"/>
<rect x="316" y="171" width="91" height="10" fill="#ff0"/>
<rect x="450" y="171" width="143" height="10" fill="#ff0"/>
<text x="20" y="200" class="sm">0.003869</text>
<rect x="100" y="190" width="82" height="12" fill="#00f"/>
<rect x="231" y="190" width="125" height="12" fill="#00f"/>
<rect x="405" y="190" width="254" height="12" fill="#00f"/>
<line x1="182" y1="196" x2="230" y2="196" stroke="#00f"/>
<line x1="356" y1="196" x2="404" y2="196" stroke="#00f"/>
<rect x="274" y="191" width="82" height="10" fill="#ff0"/>
<rect x="406" y="191" width="114" height="10" fill="#ff0"/>
<text x="20" y="220" class="sm">0.003438</text>
<rect x="100" y="210" width="82" height="12" fill="#00f"/>
<rect x="225" y="210" width="182" height="12" fill="#00f"/>
<rect x="459" y="210" width="200" height="12" fill="#00f"/>
<line x1="182" y1="216" x2="224" y2="216" stroke="#00f"/>
<line x1="407" y1="216" x2="458" y2="216" stroke="#00f"/>
<rect x="125" y="211" width="57" height="10" fill="#ff0"/>
<rect x="226" y="211" width="181" height="10" fill="#ff0"/>
<rect x="460" y="211" width="101" height="10" fill="#ff0"/>
<text x="20" y="240" class="sm">0.002638</text>
<rect x="100" y="230" width="82" height="12" fill="#00f"/>
<rect x="231" y="230" width="176" height="12" fill="#00f"/>
<rect x="449" y="230" width="36" height="12" fill="#00f"/>
<rect x="524" y="230" width="135" height="12" fill="#00f"/>
<line x1="182" y1="236" x2="230" y2="236" stroke="#00f"/>
<line x1="407" y1="236" x2="448" y2="236" stroke="#00f"/>
<line x1="485" y1="236" x2="523" y2="236" stroke="#00f"/>
<rect x="125" y="231" width="57" height="10" fill="#ff0"/>
<rect x="232" y="231" width="175" height="10" fill="#ff0"/>
<rect x="450" y="231" width="35" height="10" fill="#ff0"/>
<rect x="525" y="231" width="68" height="10" fill="#ff0"/>
<text x="20" y="260" class="sm">0.001269</text>
<rect x="100" y="250" width="82" height="12" fill="#00f"/>
<rect x="231" y="250" width="428" height="12" fill="#00f"/>
<line x1="182" y1="256" x2="230" y2="256" stroke="#00f"/>
<rect x="125" y="251" width="57" height="10" fill="#ff0"/>
<rect x="232" y="251" width="193" height="10" fill="#ff0"/>
<text x="20" y="280" class="sm">0.001125</text>
<rect x="100" y="270" width="82" height="12" fill="#00f"/>
<rect x="231" y="270" width="125" height="12" fill="#00f"/>
<rect x="449" y="270" width="210" height="12" fill="#00f"/>
<line x1="182" y1="276" x2="230" y2="276" stroke="#00f"/>
<line x1="356" y1="276" x2="448" y2="276" stroke="#00f"/>
<rect x="125" y="271" width="57" height="10" fill="#ff0"/>
<rect x="232" y="271" width="124" height="10" fill="#ff0"/>
<rect x="450" y="271" width="143" height="10" fill="#ff0"/>
<text x="20" y="300" class="sm">0.001113</text>
<rect x="100" y="290" width="82" height="12" fill="#00f"/>
<rect x="231" y="290" width="44" height="12" fill="#00f"/>
<rect x="315" y="290" width="92" height="12" fill="#00f"/>
<rect x="449" y="290" width="210" height="12" fill="#00f"/>
<line x1="182" y1="296" x2="230" y2="296" stroke="#00f"/>
<line x1="275" y1="296" x2="314" y2="296" stroke="#00f"/>
<line x1="407" y1="296" x2="448" y2="296" stroke="#00f"/>
<rect x="233" y="291" width="42" height="10" fill="#ff0"/>
<rect x="316" y="291" width="91" height="10" fill="#ff0"/>
<rect x="450" y="291" width="143" height="10" fill="#ff0"/>
<text x="20" y="320" class="sm">0.0009204</text>
<rect x="100" y="310" width="82" height="12" fill="#00f"/>
<rect x="231" y="310" width="176" height="12" fill="#00f"/>
<rect x="449" y="310" width="126" height="12" fill="#00f"/>
<rect x="630" y="310" width="29" height="12" fill="#00f"/>
<line x1="182" y1="316" x2="230" y2="316" stroke="#00f"/>
<line x1="407" y1="316" x2="448" y2="316" stroke="#00f"/>
<line x1="575" y1="316" x2="629" y2="316" stroke="#00f"/>
<rect x="125" y="311" width="57" height="10" fill="#ff0"/>
<rect x="232" y="311" width="175" height="10" fill="#ff0"/>
<rect x="450" y="311" width="125" height="10" fill="#ff0"/>
<rect x="631" y="311" width="11" height="10" fill="#ff0"/>
<text x="20" y="340" class="sm">0.0005075</text>
<rect x="100" y="330" width="82" height="12" fill="#00f"/>
<rect x="225" y="330" width="131" height="12" fill="#00f"/>
<rect x="405" y="330" width="254" height="12" fill="#00f"/>
<line x1="182" y1="336" x2="224" y2="336" stroke="#00f"/>
<line x1="356" y1="336" x2="404" y2="336" stroke="#00f"/>
<rect x="274" y="331" width="82" height="10" fill="#ff0"/>
<rect x="406" y="331" width="114" height="10" fill="#ff0"/>
<text x="20" y="360" class="sm">0.0005054</text>
<rect x="100" y="350" width="82" height="12" fill="#00f"/>
<rect x="315" y="350" width="92" height="12" fill="#00f"/>
<rect x="459" y="350" width="200" height="12" fill="#00f"/>
<line x1="182" y1="356" x2="314" y2="356" stroke="#00f"/>
<line x1="407" y1="356" x2="458" y2="356" stroke="#00f"/>
<rect x="125" y="351" width="57" height="10" fill="#ff0"/>
<rect x="316" y="351" width="91" height="10" fill="#ff0"/>
<rect x="460" y="351" width="101" height="10" fill="#ff0"/>
<text x="20" y="380" class="sm">0.0004028</text>
<rect x="100" y="370" width="307" height="12" fill="#00f"/>
<rect x="449" y="370" width="210" height="12" fill="#00f"/>
<line x1="407" y1="376" x2="448" y2="376" stroke="#00f"/>
<rect x="267" y="371" width="140" height="10" fill="#ff0"/>
<rect x="450" y="371" width="143" height="10" fill="#ff0"/>
<text x="20" y="400" class="sm">0.0003266</text>
<rect x="100" y="390" width="82" height="12" fill="#00f"/>
<rect x="225" y="390" width="182" height="12" fill="#00f"/>
<rect x="449" y="390" width="36" height="12" fill="#00f"/>
<rect x="524" y="390" width="135" height="12" fill="#00f"/>
<line x1="182" y1="396" x2="224" y2="396" stroke="#00f"/>
<line x1="407" y1="396" x2="448" y2="396" stroke="#00f"/>
<line x1="485" y1="396" x2="523" y2="396" stroke="#00f"/>
<rect x="125" y="391" width="57" height="10" fill="#ff0"/>
<rect x="226" y="391" width="181" height="10" fill="#ff0"/>
<rect x="450" y="391" width="35" height="10" fill="#ff0"/>
<rect x="525" y="391" width="68" height="10" fill="#ff0"/>
<text x="20" y="420" class="sm">0.0003057</text>
<rect x="100" y="410" width="50" height="12" fill="#00f"/>
<rect x="231" y="410" width="176" height="12" fill="#00f"/>
<rect x="449" y="410" width="210" height="12" fill="#00f"/>
<line x1="150" y1="416" x2="230" y2="416" stroke="#00f"/>
<line x1="407" y1="416" x2="448" y2="416" stroke="#00f"/>
<rect x="267" y="411" width="140" height="10" fill="#ff0"/>
<rect x="450" y="411" width="143" height="10" fill="#ff0"/>
<text x="20" y="440" class="sm">0.0002392</text>
<rect x="100" y="430" width="82" height="12" fill="#00f"/>
<rect x="231" y="430" width="176" height="12" fill="#00f"/>
<rect x="449" y="430" width="103" height="12" fill="#00f"/>
<rect x="594" y="430" width="65" height="12" fill="#00f"/>
<line x1="182" y1="436" x2="230" y2="436" stroke="#00f"/>
<line x1="407" y1="436" x2="448" y2="436" stroke="#00f"/>
<line x1="552" y1="436" x2="593" y2="436" stroke="#00f"/>
<rect x="125" y="431" width="57" height="10" fill="#ff0"/>
<rect x="232" y="431" width="175" height="10" fill="#ff0"/>
<rect x="450" y="431" width="102" height="10" fill="#ff0"/>
<rect x="595" y="431" width="43" height="10" fill="#ff0"/>
<text x="20" y="460" class="sm">0.0002016</text>
<rect x="100" y="450" width="82" height="12" fill="#00f"/>
<rect x="231" y="450" width="176" height="12" fill="#00f"/>
<rect x="449" y="450" width="36" height="12" fill="#00f"/>
<rect x="562" y="450" width="97" height="12" fill="#00f"/>
<line x1="182" y1="456" x2="230" y2="456" stroke="#00f"/>
<line x1="407" y1="456" x2="448" y2="456" stroke="#00f"/>
<line x1="485" y1="456" x2="561" y2="456" stroke="#00f"/>
<rect x="274" y="451" width="104" height="10" fill="#ff0"/>
<text x="20" y="480" class="sm">0.0001898</text>
<rect x="100" y="470" width="82" height="12" fill="#00f"/>
<rect x="225" y="470" width="50" height="12" fill="#00f"/>
<rect x="315" y="470" width="92" height="12" fill="#00f"/>
<rect x="449" y="470" width="210" height="12" fill="#00f"/>
<line x1="182" y1="476" x2="224" y2="476" stroke="#00f"/>
<line x1="275" y1="476" x2="314" y2="476" stroke="#00f"/>
<line x1="407" y1="476" x2="448" y2="476" stroke="#00f"/>
<rect x="233" y="471" width="42" height="10" fill="#ff0"/>
<rect x="316" y="471" width="91" height="10" fill="#ff0"/>
<rect x="450" y="471" width="143" height="10" fill="#ff0"/>
<text x="20" y="500" class="sm">0.0001894</text>
<rect x="100" y="490" width="82" height="12" fill="#00f"/>
<rect x="231" y="490" width="83" height="12" fill="#00f"/>
<rect x="357" y="490" width="50" height="12" fill="#00f"/>
<rect x="449" y="490" width="210" height="12" fill="#00f"/>
<line x1="182" y1="496" x2="230" y2="496" stroke="#00f"/>
<line x1="314" y1="496" x2="356" y2="496" stroke="#00f"/>
<line x1="407" y1="496" x2="448" y2="496" stroke="#00f"/>
<rect x="125" y="491" width="57" height="10" fill="#ff0"/>
<rect x="232" y="491" width="82" height="10" fill="#ff0"/>
<rect x="358" y="491" width="20" height="10" fill="#ff0"/>
</svg>
