<svg viewBox="0 0 785 555" xmlns="http://www.w3.org/2000/svg">

<style>
  .sm { font: 12px sans-serif; }
  .lg { font: 15px sans-serif; }
</style>
<rect fill="#ddd" x="0" y="0" width="100%" height="100%"/>
<text x="20" y="20" class="lg">ch.4912 II:7855035-7855819 Gene:WBGene00011635</text>
<text x="20" y="50" class="sm">WormBase</text>
<rect x="102" y="40" width="67" height="12" fill="#00f"/>
<rect x="216" y="40" width="120" height="12" fill="#00f"/>
<rect x="389" y="40" width="298" height="12" fill="#00f"/>
<line x1="169" y1="46" x2="215" y2="46" stroke="#00f"/>
<line x1="336" y1="46" x2="388" y2="46" stroke="#00f"/>
<rect x="116" y="41" width="53" height="10" fill="#ff0"/>
<rect x="217" y="41" width="119" height="10" fill="#ff0"/>
<rect x="390" y="41" width="137" height="10" fill="#ff0"/>
<rect x="103" y="41" width="12" height="10" fill="brown"><title>.</title></rect>
<rect x="528" y="41" width="159" height="10" fill="brown"><title>.</title></rect>
<text x="20" y="70" class="sm">Fitness: 0.029642807421954003</text>
<rect x="336" y="65" width="53" height="5" fill="#00f"><title>577136.0</title></rect>
<rect x="169" y="70" width="47" height="5" fill="#00f"><title>487501.0</title></rect>
<rect x="336" y="75" width="55" height="5" fill="#00f"><title>1814.0</title></rect>
<rect x="169" y="80" width="103" height="5" fill="#00f"><title>1262.0</title></rect>
<rect x="568" y="85" width="213" height="5" fill="#00f"><title>930.0</title></rect>
<rect x="336" y="90" width="60" height="5" fill="#00f"><title>50.0</title></rect>
<rect x="737" y="95" width="44" height="5" fill="#00f"><title>33.0</title></rect>
<rect x="169" y="100" width="69" height="5" fill="#00f"><title>25.0</title></rect>
<rect x="614" y="105" width="167" height="5" fill="#00f"><title>14.0</title></rect>
<rect x="336" y="110" width="445" height="5" fill="#00f"><title>8.0</title></rect>
<rect x="178" y="115" width="47" height="5" fill="#f0f"><title>5.0</title></rect>
<text x="20" y="145" class="sm">0.5303</text>
<rect x="100" y="135" width="236" height="12" fill="#00f"/>
<rect x="389" y="135" width="299" height="12" fill="#00f"/>
<line x1="336" y1="141" x2="388" y2="141" stroke="#00f"/>
<rect x="116" y="136" width="173" height="10" fill="#ff0"/>
<text x="20" y="165" class="sm">0.4545</text>
<rect x="100" y="155" width="69" height="12" fill="#00f"/>
<rect x="216" y="155" width="472" height="12" fill="#00f"/>
<line x1="169" y1="161" x2="215" y2="161" stroke="#00f"/>
<rect x="116" y="156" width="53" height="10" fill="#ff0"/>
<rect x="217" y="156" width="179" height="10" fill="#ff0"/>
<text x="20" y="185" class="sm">0.0063</text>
<rect x="100" y="175" width="178" height="12" fill="#00f"/>
<rect x="389" y="175" width="299" height="12" fill="#00f"/>
<line x1="278" y1="181" x2="388" y2="181" stroke="#00f"/>
<rect x="116" y="176" width="162" height="10" fill="#ff0"/>
<rect x="390" y="176" width="73" height="10" fill="#ff0"/>
<text x="20" y="205" class="sm">0.002926</text>
<rect x="100" y="195" width="227" height="12" fill="#00f"/>
<rect x="389" y="195" width="299" height="12" fill="#00f"/>
<line x1="327" y1="201" x2="388" y2="201" stroke="#00f"/>
<rect x="116" y="196" width="173" height="10" fill="#ff0"/>
<text x="20" y="225" class="sm">0.00234</text>
<rect x="100" y="215" width="185" height="12" fill="#00f"/>
<rect x="389" y="215" width="299" height="12" fill="#00f"/>
<line x1="285" y1="221" x2="388" y2="221" stroke="#00f"/>
<rect x="116" y="216" width="169" height="10" fill="#ff0"/>
<rect x="390" y="216" width="6" height="10" fill="#ff0"/>
<text x="20" y="245" class="sm">0.001487</text>
<rect x="100" y="235" width="248" height="12" fill="#00f"/>
<rect x="389" y="235" width="299" height="12" fill="#00f"/>
<line x1="348" y1="241" x2="388" y2="241" stroke="#00f"/>
<rect x="116" y="236" width="173" height="10" fill="#ff0"/>
<text x="20" y="265" class="sm">0.001203</text>
<rect x="100" y="255" width="73" height="12" fill="#00f"/>
<rect x="216" y="255" width="472" height="12" fill="#00f"/>
<line x1="173" y1="261" x2="215" y2="261" stroke="#00f"/>
<rect x="116" y="256" width="57" height="10" fill="#ff0"/>
<rect x="217" y="256" width="94" height="10" fill="#ff0"/>
<text x="20" y="285" class="sm">0.0004729</text>
<rect x="100" y="275" width="69" height="12" fill="#00f"/>
<rect x="272" y="275" width="416" height="12" fill="#00f"/>
<line x1="169" y1="281" x2="271" y2="281" stroke="#00f"/>
<rect x="116" y="276" width="53" height="10" fill="#ff0"/>
<rect x="273" y="276" width="38" height="10" fill="#ff0"/>
<text x="20" y="305" class="sm">0.0001949</text>
<rect x="100" y="295" width="212" height="12" fill="#00f"/>
<rect x="389" y="295" width="299" height="12" fill="#00f"/>
<line x1="312" y1="301" x2="388" y2="301" stroke="#00f"/>
<rect x="116" y="296" width="173" height="10" fill="#ff0"/>
<text x="20" y="325" class="sm">0.0001204</text>
<rect x="100" y="315" width="69" height="12" fill="#00f"/>
<rect x="389" y="315" width="299" height="12" fill="#00f"/>
<line x1="169" y1="321" x2="388" y2="321" stroke="#00f"/>
<rect x="116" y="316" width="53" height="10" fill="#ff0"/>
<rect x="390" y="316" width="137" height="10" fill="#ff0"/>
<text x="20" y="345" class="sm">0.0001011</text>
<rect x="100" y="335" width="236" height="12" fill="#00f"/>
<rect x="456" y="335" width="232" height="12" fill="#00f"/>
<line x1="336" y1="341" x2="455" y2="341" stroke="#00f"/>
<rect x="116" y="336" width="173" height="10" fill="#ff0"/>
<text x="20" y="365" class="sm">5.014e-05</text>
<rect x="100" y="355" width="37" height="12" fill="#00f"/>
<rect x="216" y="355" width="472" height="12" fill="#00f"/>
<line x1="137" y1="361" x2="215" y2="361" stroke="#00f"/>
<rect x="116" y="356" width="21" height="10" fill="#ff0"/>
<rect x="217" y="356" width="94" height="10" fill="#ff0"/>
<text x="20" y="385" class="sm">2.12e-05</text>
<rect x="100" y="375" width="178" height="12" fill="#00f"/>
<rect x="456" y="375" width="232" height="12" fill="#00f"/>
<line x1="278" y1="381" x2="455" y2="381" stroke="#00f"/>
<rect x="116" y="376" width="162" height="10" fill="#ff0"/>
<rect x="457" y="376" width="70" height="10" fill="#ff0"/>
<text x="20" y="405" class="sm">1.278e-05</text>
<rect x="100" y="395" width="309" height="12" fill="#00f"/>
<rect x="456" y="395" width="232" height="12" fill="#00f"/>
<line x1="409" y1="401" x2="455" y2="401" stroke="#00f"/>
<rect x="116" y="396" width="173" height="10" fill="#ff0"/>
<text x="20" y="425" class="sm">1.267e-05</text>
<rect x="100" y="415" width="468" height="12" fill="#00f"/>
<rect x="614" y="415" width="74" height="12" fill="#00f"/>
<line x1="568" y1="421" x2="613" y2="421" stroke="#00f"/>
<rect x="116" y="416" width="173" height="10" fill="#ff0"/>
<text x="20" y="445" class="sm">9.386e-06</text>
<rect x="100" y="435" width="32" height="12" fill="#00f"/>
<rect x="216" y="435" width="472" height="12" fill="#00f"/>
<line x1="132" y1="441" x2="215" y2="441" stroke="#00f"/>
<rect x="116" y="436" width="16" height="10" fill="#ff0"/>
<rect x="217" y="436" width="72" height="10" fill="#ff0"/>
<text x="20" y="465" class="sm">7.36e-06</text>
<rect x="100" y="455" width="236" height="12" fill="#00f"/>
<rect x="391" y="455" width="297" height="12" fill="#00f"/>
<line x1="336" y1="461" x2="390" y2="461" stroke="#00f"/>
<rect x="116" y="456" width="173" height="10" fill="#ff0"/>
<text x="20" y="485" class="sm">6.495e-06</text>
<rect x="100" y="475" width="185" height="12" fill="#00f"/>
<rect x="334" y="475" width="354" height="12" fill="#00f"/>
<line x1="285" y1="481" x2="333" y2="481" stroke="#00f"/>
<rect x="116" y="476" width="169" height="10" fill="#ff0"/>
<rect x="335" y="476" width="21" height="10" fill="#ff0"/>
<text x="20" y="505" class="sm">6.157e-06</text>
<rect x="100" y="495" width="185" height="12" fill="#00f"/>
<rect x="456" y="495" width="232" height="12" fill="#00f"/>
<line x1="285" y1="501" x2="455" y2="501" stroke="#00f"/>
<rect x="116" y="496" width="169" height="10" fill="#ff0"/>
<rect x="457" y="496" width="6" height="10" fill="#ff0"/>
<text x="20" y="525" class="sm">5.765e-06</text>
<rect x="100" y="515" width="151" height="12" fill="#00f"/>
<rect x="389" y="515" width="299" height="12" fill="#00f"/>
<line x1="251" y1="521" x2="388" y2="521" stroke="#00f"/>
<rect x="116" y="516" width="135" height="10" fill="#ff0"/>
<rect x="390" y="516" width="73" height="10" fill="#ff0"/>
</svg>
