<svg viewBox="0 0 781 515" xmlns="http://www.w3.org/2000/svg">

<style>
  .sm { font: 12px sans-serif; }
  .lg { font: 15px sans-serif; }
</style>
<rect fill="#ddd" x="0" y="0" width="100%" height="100%"/>
<text x="20" y="20" class="lg">ch.4655 II:6736103-6736883 Gene:WBGene00020499</text>
<text x="20" y="50" class="sm">WormBase</text>
<rect x="100" y="40" width="217" height="12" fill="#00f"/>
<rect x="368" y="40" width="93" height="12" fill="#00f"/>
<rect x="508" y="40" width="173" height="12" fill="#00f"/>
<line x1="317" y1="46" x2="367" y2="46" stroke="#00f"/>
<line x1="461" y1="46" x2="507" y2="46" stroke="#00f"/>
<rect x="102" y="41" width="215" height="10" fill="#ff0"/>
<rect x="369" y="41" width="92" height="10" fill="#ff0"/>
<rect x="509" y="41" width="110" height="10" fill="#ff0"/>
<rect x="101" y="41" width="0" height="10" fill="brown"><title>.</title></rect>
<rect x="620" y="41" width="61" height="10" fill="brown"><title>.</title></rect>
<text x="20" y="70" class="sm">Fitness: 0.01281922951464434</text>
<rect x="317" y="65" width="51" height="5" fill="#00f"><title>470854.0</title></rect>
<rect x="461" y="70" width="47" height="5" fill="#00f"><title>365214.0</title></rect>
<rect x="197" y="75" width="171" height="5" fill="#00f"><title>5.0</title></rect>
<text x="20" y="105" class="sm">0.7275</text>
<rect x="100" y="95" width="217" height="12" fill="#00f"/>
<rect x="368" y="95" width="93" height="12" fill="#00f"/>
<rect x="508" y="95" width="176" height="12" fill="#00f"/>
<line x1="317" y1="101" x2="367" y2="101" stroke="#00f"/>
<line x1="461" y1="101" x2="507" y2="101" stroke="#00f"/>
<rect x="102" y="96" width="215" height="10" fill="#ff0"/>
<rect x="369" y="96" width="92" height="10" fill="#ff0"/>
<rect x="509" y="96" width="110" height="10" fill="#ff0"/>
<text x="20" y="125" class="sm">0.2384</text>
<rect x="100" y="115" width="217" height="12" fill="#00f"/>
<rect x="368" y="115" width="316" height="12" fill="#00f"/>
<line x1="317" y1="121" x2="367" y2="121" stroke="#00f"/>
<rect x="102" y="116" width="215" height="10" fill="#ff0"/>
<rect x="369" y="116" width="98" height="10" fill="#ff0"/>
<text x="20" y="145" class="sm">0.02434</text>
<rect x="100" y="135" width="361" height="12" fill="#00f"/>
<rect x="508" y="135" width="176" height="12" fill="#00f"/>
<line x1="461" y1="141" x2="507" y2="141" stroke="#00f"/>
<rect x="102" y="136" width="359" height="10" fill="#ff0"/>
<rect x="509" y="136" width="110" height="10" fill="#ff0"/>
<text x="20" y="165" class="sm">0.001782</text>
<rect x="100" y="155" width="168" height="12" fill="#00f"/>
<rect x="317" y="155" width="144" height="12" fill="#00f"/>
<rect x="508" y="155" width="176" height="12" fill="#00f"/>
<line x1="268" y1="161" x2="316" y2="161" stroke="#00f"/>
<line x1="461" y1="161" x2="507" y2="161" stroke="#00f"/>
<rect x="102" y="156" width="166" height="10" fill="#ff0"/>
<rect x="318" y="156" width="15" height="10" fill="#ff0"/>
<text x="20" y="185" class="sm">0.001097</text>
<rect x="100" y="175" width="226" height="12" fill="#00f"/>
<rect x="368" y="175" width="93" height="12" fill="#00f"/>
<rect x="508" y="175" width="176" height="12" fill="#00f"/>
<line x1="326" y1="181" x2="367" y2="181" stroke="#00f"/>
<line x1="461" y1="181" x2="507" y2="181" stroke="#00f"/>
<rect x="102" y="176" width="224" height="10" fill="#ff0"/>
<rect x="369" y="176" width="92" height="10" fill="#ff0"/>
<rect x="509" y="176" width="110" height="10" fill="#ff0"/>
<text x="20" y="205" class="sm">0.001001</text>
<rect x="100" y="195" width="32" height="12" fill="#00f"/>
<rect x="172" y="195" width="145" height="12" fill="#00f"/>
<rect x="368" y="195" width="93" height="12" fill="#00f"/>
<rect x="508" y="195" width="176" height="12" fill="#00f"/>
<line x1="132" y1="201" x2="171" y2="201" stroke="#00f"/>
<line x1="317" y1="201" x2="367" y2="201" stroke="#00f"/>
<line x1="461" y1="201" x2="507" y2="201" stroke="#00f"/>
<rect x="530" y="196" width="89" height="10" fill="#ff0"/>
<text x="20" y="225" class="sm">0.0008979</text>
<rect x="100" y="215" width="179" height="12" fill="#00f"/>
<rect x="317" y="215" width="144" height="12" fill="#00f"/>
<rect x="508" y="215" width="176" height="12" fill="#00f"/>
<line x1="279" y1="221" x2="316" y2="221" stroke="#00f"/>
<line x1="461" y1="221" x2="507" y2="221" stroke="#00f"/>
<rect x="102" y="216" width="177" height="10" fill="#ff0"/>
<rect x="318" y="216" width="133" height="10" fill="#ff0"/>
<text x="20" y="245" class="sm">0.0008794</text>
<rect x="100" y="235" width="97" height="12" fill="#00f"/>
<rect x="368" y="235" width="93" height="12" fill="#00f"/>
<rect x="508" y="235" width="176" height="12" fill="#00f"/>
<line x1="197" y1="241" x2="367" y2="241" stroke="#00f"/>
<line x1="461" y1="241" x2="507" y2="241" stroke="#00f"/>
<rect x="102" y="236" width="95" height="10" fill="#ff0"/>
<rect x="369" y="236" width="92" height="10" fill="#ff0"/>
<rect x="509" y="236" width="110" height="10" fill="#ff0"/>
<text x="20" y="265" class="sm">0.0007018</text>
<rect x="100" y="255" width="179" height="12" fill="#00f"/>
<rect x="368" y="255" width="93" height="12" fill="#00f"/>
<rect x="508" y="255" width="176" height="12" fill="#00f"/>
<line x1="279" y1="261" x2="367" y2="261" stroke="#00f"/>
<line x1="461" y1="261" x2="507" y2="261" stroke="#00f"/>
<rect x="102" y="256" width="177" height="10" fill="#ff0"/>
<rect x="369" y="256" width="82" height="10" fill="#ff0"/>
<text x="20" y="285" class="sm">0.0005835</text>
<rect x="100" y="275" width="168" height="12" fill="#00f"/>
<rect x="317" y="275" width="367" height="12" fill="#00f"/>
<line x1="268" y1="281" x2="316" y2="281" stroke="#00f"/>
<rect x="102" y="276" width="166" height="10" fill="#ff0"/>
<rect x="318" y="276" width="15" height="10" fill="#ff0"/>
<text x="20" y="305" class="sm">0.0004269</text>
<rect x="100" y="295" width="97" height="12" fill="#00f"/>
<rect x="317" y="295" width="144" height="12" fill="#00f"/>
<rect x="508" y="295" width="176" height="12" fill="#00f"/>
<line x1="197" y1="301" x2="316" y2="301" stroke="#00f"/>
<line x1="461" y1="301" x2="507" y2="301" stroke="#00f"/>
<rect x="102" y="296" width="95" height="10" fill="#ff0"/>
<rect x="318" y="296" width="143" height="10" fill="#ff0"/>
<rect x="509" y="296" width="110" height="10" fill="#ff0"/>
<text x="20" y="325" class="sm">0.0003596</text>
<rect x="100" y="315" width="226" height="12" fill="#00f"/>
<rect x="368" y="315" width="316" height="12" fill="#00f"/>
<line x1="326" y1="321" x2="367" y2="321" stroke="#00f"/>
<rect x="102" y="316" width="224" height="10" fill="#ff0"/>
<rect x="369" y="316" width="98" height="10" fill="#ff0"/>
<text x="20" y="345" class="sm">0.000328</text>
<rect x="100" y="335" width="32" height="12" fill="#00f"/>
<rect x="172" y="335" width="145" height="12" fill="#00f"/>
<rect x="368" y="335" width="316" height="12" fill="#00f"/>
<line x1="132" y1="341" x2="171" y2="341" stroke="#00f"/>
<line x1="317" y1="341" x2="367" y2="341" stroke="#00f"/>
<rect x="530" y="336" width="89" height="10" fill="#ff0"/>
<text x="20" y="365" class="sm">0.000294</text>
<rect x="100" y="355" width="179" height="12" fill="#00f"/>
<rect x="317" y="355" width="367" height="12" fill="#00f"/>
<line x1="279" y1="361" x2="316" y2="361" stroke="#00f"/>
<rect x="102" y="356" width="177" height="10" fill="#ff0"/>
<rect x="318" y="356" width="133" height="10" fill="#ff0"/>
<text x="20" y="385" class="sm">0.0002921</text>
<rect x="100" y="375" width="217" height="12" fill="#00f"/>
<rect x="368" y="375" width="113" height="12" fill="#00f"/>
<rect x="547" y="375" width="137" height="12" fill="#00f"/>
<line x1="317" y1="381" x2="367" y2="381" stroke="#00f"/>
<line x1="481" y1="381" x2="546" y2="381" stroke="#00f"/>
<rect x="102" y="376" width="215" height="10" fill="#ff0"/>
<rect x="369" y="376" width="98" height="10" fill="#ff0"/>
<text x="20" y="405" class="sm">0.0002882</text>
<rect x="100" y="395" width="97" height="12" fill="#00f"/>
<rect x="368" y="395" width="316" height="12" fill="#00f"/>
<line x1="197" y1="401" x2="367" y2="401" stroke="#00f"/>
<rect x="102" y="396" width="95" height="10" fill="#ff0"/>
<rect x="369" y="396" width="98" height="10" fill="#ff0"/>
<text x="20" y="425" class="sm">0.000244</text>
<rect x="100" y="415" width="57" height="12" fill="#00f"/>
<rect x="202" y="415" width="115" height="12" fill="#00f"/>
<rect x="368" y="415" width="93" height="12" fill="#00f"/>
<rect x="508" y="415" width="176" height="12" fill="#00f"/>
<line x1="157" y1="421" x2="201" y2="421" stroke="#00f"/>
<line x1="317" y1="421" x2="367" y2="421" stroke="#00f"/>
<line x1="461" y1="421" x2="507" y2="421" stroke="#00f"/>
<rect x="102" y="416" width="55" height="10" fill="#ff0"/>
<rect x="203" y="416" width="114" height="10" fill="#ff0"/>
<rect x="369" y="416" width="92" height="10" fill="#ff0"/>
<rect x="509" y="416" width="110" height="10" fill="#ff0"/>
<text x="20" y="445" class="sm">0.00023</text>
<rect x="100" y="435" width="179" height="12" fill="#00f"/>
<rect x="368" y="435" width="316" height="12" fill="#00f"/>
<line x1="279" y1="441" x2="367" y2="441" stroke="#00f"/>
<rect x="102" y="436" width="177" height="10" fill="#ff0"/>
<rect x="369" y="436" width="82" height="10" fill="#ff0"/>
<text x="20" y="465" class="sm">0.0002244</text>
<rect x="100" y="455" width="181" height="12" fill="#00f"/>
<rect x="368" y="455" width="93" height="12" fill="#00f"/>
<rect x="508" y="455" width="176" height="12" fill="#00f"/>
<line x1="281" y1="461" x2="367" y2="461" stroke="#00f"/>
<line x1="461" y1="461" x2="507" y2="461" stroke="#00f"/>
<rect x="102" y="456" width="179" height="10" fill="#ff0"/>
<rect x="369" y="456" width="92" height="10" fill="#ff0"/>
<rect x="509" y="456" width="110" height="10" fill="#ff0"/>
<text x="20" y="485" class="sm">0.0001539</text>
<rect x="100" y="475" width="97" height="12" fill="#00f"/>
<rect x="249" y="475" width="68" height="12" fill="#00f"/>
<rect x="368" y="475" width="93" height="12" fill="#00f"/>
<rect x="508" y="475" width="176" height="12" fill="#00f"/>
<line x1="197" y1="481" x2="248" y2="481" stroke="#00f"/>
<line x1="317" y1="481" x2="367" y2="481" stroke="#00f"/>
<line x1="461" y1="481" x2="507" y2="481" stroke="#00f"/>
<rect x="102" y="476" width="95" height="10" fill="#ff0"/>
<rect x="250" y="476" width="67" height="10" fill="#ff0"/>
<rect x="369" y="476" width="78" height="10" fill="#ff0"/>
</svg>
