<svg viewBox="0 0 848 540" xmlns="http://www.w3.org/2000/svg">

<style>
  .sm { font: 12px sans-serif; }
  .lg { font: 15px sans-serif; }
</style>
<rect fill="#ddd" x="0" y="0" width="100%" height="100%"/>
<text x="20" y="20" class="lg">ch.4393 II:5668933-5669780 Gene:WBGene00194642</text>
<text x="20" y="50" class="sm">WormBase</text>
<rect x="102" y="40" width="82" height="12" fill="#00f"/>
<rect x="514" y="40" width="236" height="12" fill="#00f"/>
<line x1="184" y1="46" x2="513" y2="46" stroke="#00f"/>
<rect x="103" y="41" width="81" height="10" fill="#ff0"/>
<rect x="515" y="41" width="148" height="10" fill="#ff0"/>
<rect x="664" y="41" width="86" height="10" fill="brown"><title>.</title></rect>
<text x="20" y="70" class="sm">Fitness: 0.015649549405487066</text>
<rect x="184" y="65" width="330" height="5" fill="#00f"><title>289274.0</title></rect>
<rect x="184" y="70" width="321" height="5" fill="#00f"><title>3492.0</title></rect>
<rect x="174" y="75" width="340" height="5" fill="#00f"><title>119.0</title></rect>
<rect x="455" y="80" width="59" height="5" fill="#00f"><title>27.0</title></rect>
<rect x="136" y="85" width="378" height="5" fill="#00f"><title>11.0</title></rect>
<rect x="455" y="90" width="50" height="5" fill="#00f"><title>4.0</title></rect>
<rect x="160" y="95" width="354" height="5" fill="#00f"><title>3.0</title></rect>
<rect x="184" y="100" width="242" height="5" fill="#00f"><title>3.0</title></rect>
<text x="20" y="130" class="sm">0.9882</text>
<rect x="100" y="120" width="84" height="12" fill="#00f"/>
<rect x="514" y="120" width="237" height="12" fill="#00f"/>
<line x1="184" y1="126" x2="513" y2="126" stroke="#00f"/>
<rect x="103" y="121" width="81" height="10" fill="#ff0"/>
<rect x="515" y="121" width="148" height="10" fill="#ff0"/>
<text x="20" y="150" class="sm">0.004313</text>
<rect x="100" y="140" width="84" height="12" fill="#00f"/>
<rect x="505" y="140" width="246" height="12" fill="#00f"/>
<line x1="184" y1="146" x2="504" y2="146" stroke="#00f"/>
<rect x="523" y="141" width="140" height="10" fill="#ff0"/>
<text x="20" y="170" class="sm">0.002308</text>
<rect x="100" y="160" width="84" height="12" fill="#00f"/>
<rect x="403" y="160" width="348" height="12" fill="#00f"/>
<line x1="184" y1="166" x2="402" y2="166" stroke="#00f"/>
<rect x="103" y="161" width="81" height="10" fill="#ff0"/>
<rect x="404" y="161" width="88" height="10" fill="#ff0"/>
<text x="20" y="190" class="sm">0.002045</text>
<rect x="100" y="180" width="84" height="12" fill="#00f"/>
<rect x="624" y="180" width="127" height="12" fill="#00f"/>
<line x1="184" y1="186" x2="623" y2="186" stroke="#00f"/>
<rect x="103" y="181" width="81" height="10" fill="#ff0"/>
<rect x="625" y="181" width="1" height="10" fill="#ff0"/>
<text x="20" y="210" class="sm">0.001826</text>
<rect x="100" y="200" width="84" height="12" fill="#00f"/>
<rect x="426" y="200" width="325" height="12" fill="#00f"/>
<line x1="184" y1="206" x2="425" y2="206" stroke="#00f"/>
<rect x="523" y="201" width="140" height="10" fill="#ff0"/>
<text x="20" y="230" class="sm">0.0005105</text>
<rect x="100" y="220" width="84" height="12" fill="#00f"/>
<rect x="690" y="220" width="61" height="12" fill="#00f"/>
<line x1="184" y1="226" x2="689" y2="226" stroke="#00f"/>
<rect x="103" y="221" width="81" height="10" fill="#ff0"/>
<rect x="691" y="221" width="1" height="10" fill="#ff0"/>
<text x="20" y="250" class="sm">0.0003326</text>
<rect x="100" y="240" width="74" height="12" fill="#00f"/>
<rect x="514" y="240" width="237" height="12" fill="#00f"/>
<line x1="174" y1="246" x2="513" y2="246" stroke="#00f"/>
<rect x="523" y="241" width="140" height="10" fill="#ff0"/>
<text x="20" y="270" class="sm">0.000146</text>
<rect x="100" y="260" width="84" height="12" fill="#00f"/>
<rect x="575" y="260" width="176" height="12" fill="#00f"/>
<line x1="184" y1="266" x2="574" y2="266" stroke="#00f"/>
<rect x="103" y="261" width="81" height="10" fill="#ff0"/>
<rect x="576" y="261" width="4" height="10" fill="#ff0"/>
<text x="20" y="290" class="sm">0.0001389</text>
<rect x="100" y="280" width="84" height="12" fill="#00f"/>
<rect x="706" y="280" width="45" height="12" fill="#00f"/>
<line x1="184" y1="286" x2="705" y2="286" stroke="#00f"/>
<rect x="103" y="281" width="81" height="10" fill="#ff0"/>
<rect x="707" y="281" width="4" height="10" fill="#ff0"/>
<text x="20" y="310" class="sm">8.546e-05</text>
<rect x="100" y="300" width="60" height="12" fill="#00f"/>
<rect x="514" y="300" width="237" height="12" fill="#00f"/>
<line x1="160" y1="306" x2="513" y2="306" stroke="#00f"/>
<rect x="103" y="301" width="57" height="10" fill="#ff0"/>
<rect x="515" y="301" width="148" height="10" fill="#ff0"/>
<text x="20" y="330" class="sm">2.784e-05</text>
<rect x="100" y="320" width="168" height="12" fill="#00f"/>
<rect x="514" y="320" width="237" height="12" fill="#00f"/>
<line x1="268" y1="326" x2="513" y2="326" stroke="#00f"/>
<rect x="523" y="321" width="140" height="10" fill="#ff0"/>
<text x="20" y="350" class="sm">2.575e-05</text>
<rect x="100" y="340" width="84" height="12" fill="#00f"/>
<rect x="570" y="340" width="181" height="12" fill="#00f"/>
<line x1="184" y1="346" x2="569" y2="346" stroke="#00f"/>
<rect x="103" y="341" width="81" height="10" fill="#ff0"/>
<rect x="571" y="341" width="46" height="10" fill="#ff0"/>
<text x="20" y="370" class="sm">2.14e-05</text>
<rect x="100" y="360" width="131" height="12" fill="#00f"/>
<rect x="514" y="360" width="237" height="12" fill="#00f"/>
<line x1="231" y1="366" x2="513" y2="366" stroke="#00f"/>
<rect x="523" y="361" width="140" height="10" fill="#ff0"/>
<text x="20" y="390" class="sm">1.822e-05</text>
<rect x="100" y="380" width="58" height="12" fill="#00f"/>
<rect x="514" y="380" width="237" height="12" fill="#00f"/>
<line x1="158" y1="386" x2="513" y2="386" stroke="#00f"/>
<rect x="523" y="381" width="140" height="10" fill="#ff0"/>
<text x="20" y="410" class="sm">3.051e-06</text>
<rect x="100" y="400" width="84" height="12" fill="#00f"/>
<rect x="455" y="400" width="296" height="12" fill="#00f"/>
<line x1="184" y1="406" x2="454" y2="406" stroke="#00f"/>
<rect x="523" y="401" width="140" height="10" fill="#ff0"/>
<text x="20" y="430" class="sm">2.051e-06</text>
<rect x="100" y="420" width="84" height="12" fill="#00f"/>
<rect x="649" y="420" width="102" height="12" fill="#00f"/>
<line x1="184" y1="426" x2="648" y2="426" stroke="#00f"/>
<rect x="103" y="421" width="81" height="10" fill="#ff0"/>
<rect x="650" y="421" width="13" height="10" fill="#ff0"/>
<text x="20" y="450" class="sm">1.713e-06</text>
<rect x="100" y="440" width="74" height="12" fill="#00f"/>
<rect x="505" y="440" width="246" height="12" fill="#00f"/>
<line x1="174" y1="446" x2="504" y2="446" stroke="#00f"/>
<rect x="523" y="441" width="140" height="10" fill="#ff0"/>
<text x="20" y="470" class="sm">1.605e-06</text>
<rect x="100" y="460" width="44" height="12" fill="#00f"/>
<rect x="514" y="460" width="237" height="12" fill="#00f"/>
<line x1="144" y1="466" x2="513" y2="466" stroke="#00f"/>
<rect x="523" y="461" width="140" height="10" fill="#ff0"/>
<text x="20" y="490" class="sm">8.391e-07</text>
<rect x="100" y="480" width="74" height="12" fill="#00f"/>
<rect x="403" y="480" width="348" height="12" fill="#00f"/>
<line x1="174" y1="486" x2="402" y2="486" stroke="#00f"/>
<rect x="523" y="481" width="140" height="10" fill="#ff0"/>
<text x="20" y="510" class="sm">7.17e-07</text>
<rect x="100" y="500" width="74" height="12" fill="#00f"/>
<rect x="624" y="500" width="127" height="12" fill="#00f"/>
<line x1="174" y1="506" x2="623" y2="506" stroke="#00f"/>
<rect x="103" y="501" width="71" height="10" fill="#ff0"/>
<rect x="625" y="501" width="38" height="10" fill="#ff0"/>
</svg>
