<svg viewBox="0 0 674 550" xmlns="http://www.w3.org/2000/svg">

<style>
  .sm { font: 12px sans-serif; }
  .lg { font: 15px sans-serif; }
</style>
<rect fill="#ddd" x="0" y="0" width="100%" height="100%"/>
<text x="20" y="20" class="lg">ch.4214 II:5040108-5040781 Gene:WBGene00044666</text>
<text x="20" y="50" class="sm">WormBase</text>
<rect x="102" y="40" width="119" height="12" fill="#00f"/>
<rect x="267" y="40" width="88" height="12" fill="#00f"/>
<rect x="405" y="40" width="171" height="12" fill="#00f"/>
<line x1="221" y1="46" x2="266" y2="46" stroke="#00f"/>
<line x1="355" y1="46" x2="404" y2="46" stroke="#00f"/>
<rect x="105" y="41" width="116" height="10" fill="#ff0"/>
<rect x="268" y="41" width="87" height="10" fill="#ff0"/>
<rect x="406" y="41" width="97" height="10" fill="#ff0"/>
<rect x="103" y="41" width="1" height="10" fill="brown"><title>.</title></rect>
<rect x="504" y="41" width="72" height="10" fill="brown"><title>.</title></rect>
<text x="20" y="70" class="sm">Fitness: 0.04994732887028878</text>
<rect x="355" y="65" width="50" height="5" fill="#00f"><title>299659.0</title></rect>
<rect x="221" y="70" width="46" height="5" fill="#00f"><title>210285.0</title></rect>
<rect x="359" y="75" width="46" height="5" fill="#00f"><title>2756.0</title></rect>
<rect x="355" y="80" width="53" height="5" fill="#00f"><title>190.0</title></rect>
<rect x="221" y="85" width="184" height="5" fill="#00f"><title>80.0</title></rect>
<rect x="347" y="90" width="58" height="5" fill="#00f"><title>67.0</title></rect>
<rect x="221" y="95" width="208" height="5" fill="#00f"><title>10.0</title></rect>
<rect x="359" y="100" width="49" height="5" fill="#00f"><title>9.0</title></rect>
<rect x="221" y="105" width="36" height="5" fill="#00f"><title>9.0</title></rect>
<rect x="223" y="110" width="47" height="5" fill="#f0f"><title>6.0</title></rect>
<text x="20" y="140" class="sm">0.5597</text>
<rect x="100" y="130" width="255" height="12" fill="#00f"/>
<rect x="405" y="130" width="172" height="12" fill="#00f"/>
<line x1="355" y1="136" x2="404" y2="136" stroke="#00f"/>
<rect x="311" y="131" width="44" height="10" fill="#ff0"/>
<rect x="406" y="131" width="155" height="10" fill="#ff0"/>
<text x="20" y="160" class="sm">0.4098</text>
<rect x="100" y="150" width="121" height="12" fill="#00f"/>
<rect x="267" y="150" width="310" height="12" fill="#00f"/>
<line x1="221" y1="156" x2="266" y2="156" stroke="#00f"/>
<rect x="105" y="151" width="116" height="10" fill="#ff0"/>
<rect x="268" y="151" width="131" height="10" fill="#ff0"/>
<text x="20" y="180" class="sm">0.02569</text>
<rect x="100" y="170" width="259" height="12" fill="#00f"/>
<rect x="405" y="170" width="172" height="12" fill="#00f"/>
<line x1="359" y1="176" x2="404" y2="176" stroke="#00f"/>
<rect x="311" y="171" width="48" height="10" fill="#ff0"/>
<rect x="406" y="171" width="97" height="10" fill="#ff0"/>
<text x="20" y="200" class="sm">0.003599</text>
<rect x="100" y="190" width="247" height="12" fill="#00f"/>
<rect x="405" y="190" width="172" height="12" fill="#00f"/>
<line x1="347" y1="196" x2="404" y2="196" stroke="#00f"/>
<rect x="105" y="191" width="140" height="10" fill="#ff0"/>
<text x="20" y="220" class="sm">0.0009662</text>
<rect x="100" y="210" width="370" height="12" fill="#00f"/>
<rect x="523" y="210" width="54" height="12" fill="#00f"/>
<line x1="470" y1="216" x2="522" y2="216" stroke="#00f"/>
<rect x="105" y="211" width="140" height="10" fill="#ff0"/>
<text x="20" y="240" class="sm">0.0001329</text>
<rect x="100" y="230" width="84" height="12" fill="#00f"/>
<rect x="267" y="230" width="310" height="12" fill="#00f"/>
<line x1="184" y1="236" x2="266" y2="236" stroke="#00f"/>
<rect x="161" y="231" width="23" height="10" fill="#ff0"/>
<rect x="268" y="231" width="131" height="10" fill="#ff0"/>
<text x="20" y="260" class="sm">8.095e-05</text>
<rect x="100" y="250" width="255" height="12" fill="#00f"/>
<rect x="408" y="250" width="169" height="12" fill="#00f"/>
<line x1="355" y1="256" x2="407" y2="256" stroke="#00f"/>
<rect x="311" y="251" width="44" height="10" fill="#ff0"/>
<rect x="409" y="251" width="152" height="10" fill="#ff0"/>
<text x="20" y="280" class="sm">4.227e-05</text>
<rect x="100" y="270" width="84" height="12" fill="#00f"/>
<rect x="405" y="270" width="172" height="12" fill="#00f"/>
<line x1="184" y1="276" x2="404" y2="276" stroke="#00f"/>
<rect x="161" y="271" width="23" height="10" fill="#ff0"/>
<rect x="406" y="271" width="155" height="10" fill="#ff0"/>
<text x="20" y="300" class="sm">2.584e-05</text>
<rect x="100" y="290" width="394" height="12" fill="#00f"/>
<rect x="547" y="290" width="30" height="12" fill="#00f"/>
<line x1="494" y1="296" x2="546" y2="296" stroke="#00f"/>
<rect x="105" y="291" width="140" height="10" fill="#ff0"/>
<text x="20" y="320" class="sm">1.383e-05</text>
<rect x="100" y="310" width="259" height="12" fill="#00f"/>
<rect x="408" y="310" width="169" height="12" fill="#00f"/>
<line x1="359" y1="316" x2="407" y2="316" stroke="#00f"/>
<rect x="311" y="311" width="48" height="10" fill="#ff0"/>
<rect x="409" y="311" width="94" height="10" fill="#ff0"/>
<text x="20" y="340" class="sm">8.164e-06</text>
<rect x="100" y="330" width="121" height="12" fill="#00f"/>
<rect x="405" y="330" width="172" height="12" fill="#00f"/>
<line x1="221" y1="336" x2="404" y2="336" stroke="#00f"/>
<rect x="105" y="331" width="116" height="10" fill="#ff0"/>
<rect x="406" y="331" width="155" height="10" fill="#ff0"/>
<text x="20" y="360" class="sm">5.274e-06</text>
<rect x="100" y="350" width="26" height="12" fill="#00f"/>
<rect x="267" y="350" width="310" height="12" fill="#00f"/>
<line x1="126" y1="356" x2="266" y2="356" stroke="#00f"/>
<rect x="295" y="351" width="104" height="10" fill="#ff0"/>
<text x="20" y="380" class="sm">4.773e-06</text>
<rect x="100" y="370" width="188" height="12" fill="#00f"/>
<rect x="405" y="370" width="172" height="12" fill="#00f"/>
<line x1="288" y1="376" x2="404" y2="376" stroke="#00f"/>
<rect x="105" y="371" width="140" height="10" fill="#ff0"/>
<text x="20" y="400" class="sm">4.505e-06</text>
<rect x="100" y="390" width="26" height="12" fill="#00f"/>
<rect x="405" y="390" width="172" height="12" fill="#00f"/>
<line x1="126" y1="396" x2="404" y2="396" stroke="#00f"/>
<rect x="105" y="391" width="21" height="10" fill="#ff0"/>
<rect x="406" y="391" width="97" height="10" fill="#ff0"/>
<text x="20" y="420" class="sm">1.925e-06</text>
<rect x="100" y="410" width="28" height="12" fill="#00f"/>
<rect x="267" y="410" width="310" height="12" fill="#00f"/>
<line x1="128" y1="416" x2="266" y2="416" stroke="#00f"/>
<rect x="105" y="411" width="23" height="10" fill="#ff0"/>
<rect x="268" y="411" width="131" height="10" fill="#ff0"/>
<text x="20" y="440" class="sm">1.334e-06</text>
<rect x="100" y="430" width="28" height="12" fill="#00f"/>
<rect x="405" y="430" width="172" height="12" fill="#00f"/>
<line x1="128" y1="436" x2="404" y2="436" stroke="#00f"/>
<rect x="105" y="431" width="23" height="10" fill="#ff0"/>
<rect x="406" y="431" width="155" height="10" fill="#ff0"/>
<text x="20" y="460" class="sm">1.241e-06</text>
<rect x="100" y="450" width="84" height="12" fill="#00f"/>
<rect x="257" y="450" width="320" height="12" fill="#00f"/>
<line x1="184" y1="456" x2="256" y2="456" stroke="#00f"/>
<rect x="105" y="451" width="79" height="10" fill="#ff0"/>
<rect x="258" y="451" width="141" height="10" fill="#ff0"/>
<text x="20" y="480" class="sm">8.744e-07</text>
<rect x="100" y="470" width="394" height="12" fill="#00f"/>
<rect x="538" y="470" width="39" height="12" fill="#00f"/>
<line x1="494" y1="476" x2="537" y2="476" stroke="#00f"/>
<rect x="105" y="471" width="140" height="10" fill="#ff0"/>
<text x="20" y="500" class="sm">4.426e-07</text>
<rect x="100" y="490" width="247" height="12" fill="#00f"/>
<rect x="408" y="490" width="169" height="12" fill="#00f"/>
<line x1="347" y1="496" x2="407" y2="496" stroke="#00f"/>
<rect x="105" y="491" width="140" height="10" fill="#ff0"/>
<text x="20" y="520" class="sm">4.097e-07</text>
<rect x="100" y="510" width="84" height="12" fill="#00f"/>
<rect x="523" y="510" width="54" height="12" fill="#00f"/>
<line x1="184" y1="516" x2="522" y2="516" stroke="#00f"/>
<rect x="161" y="511" width="23" height="10" fill="#ff0"/>
<rect x="524" y="511" width="23" height="10" fill="#ff0"/>
</svg>
