<svg viewBox="0 0 1111 670" xmlns="http://www.w3.org/2000/svg">

<style>
  .sm { font: 12px sans-serif; }
  .lg { font: 15px sans-serif; }
</style>
<rect fill="#ddd" x="0" y="0" width="100%" height="100%"/>
<text x="20" y="20" class="lg">ch.473 I:3367540-3368650 Gene:WBGene00021035</text>
<text x="20" y="50" class="sm">WormBase</text>
<rect x="102" y="40" width="179" height="12" fill="#00f"/>
<rect x="345" y="40" width="357" height="12" fill="#00f"/>
<rect x="752" y="40" width="261" height="12" fill="#00f"/>
<line x1="281" y1="46" x2="344" y2="46" stroke="#00f"/>
<line x1="702" y1="46" x2="751" y2="46" stroke="#00f"/>
<rect x="103" y="41" width="178" height="10" fill="#ff0"/>
<rect x="346" y="41" width="356" height="10" fill="#ff0"/>
<rect x="753" y="41" width="132" height="10" fill="#ff0"/>
<rect x="886" y="41" width="127" height="10" fill="brown"><title>.</title></rect>
<text x="20" y="70" class="sm">Fitness: 0.04560431357339684</text>
<rect x="702" y="65" width="50" height="5" fill="#00f"><title>2147340.0</title></rect>
<rect x="281" y="70" width="64" height="5" fill="#00f"><title>1760370.0</title></rect>
<rect x="285" y="75" width="60" height="5" fill="#00f"><title>600.0</title></rect>
<rect x="881" y="80" width="52" height="5" fill="#f0f"><title>143.0</title></rect>
<rect x="281" y="85" width="471" height="5" fill="#00f"><title>55.0</title></rect>
<rect x="538" y="90" width="42" height="5" fill="#00f"><title>46.0</title></rect>
<rect x="216" y="95" width="240" height="5" fill="#00f"><title>28.0</title></rect>
<rect x="399" y="100" width="534" height="5" fill="#f0f"><title>26.0</title></rect>
<rect x="181" y="105" width="312" height="5" fill="#f0f"><title>24.0</title></rect>
<rect x="881" y="110" width="68" height="5" fill="#f0f"><title>15.0</title></rect>
<rect x="461" y="115" width="45" height="5" fill="#00f"><title>15.0</title></rect>
<rect x="690" y="120" width="62" height="5" fill="#00f"><title>14.0</title></rect>
<rect x="204" y="125" width="36" height="5" fill="#f0f"><title>13.0</title></rect>
<rect x="850" y="130" width="68" height="5" fill="#f0f"><title>11.0</title></rect>
<rect x="399" y="135" width="37" height="5" fill="#f0f"><title>11.0</title></rect>
<rect x="617" y="140" width="135" height="5" fill="#00f"><title>10.0</title></rect>
<rect x="216" y="145" width="129" height="5" fill="#00f"><title>10.0</title></rect>
<rect x="810" y="150" width="69" height="5" fill="#f0f"><title>9.0</title></rect>
<rect x="216" y="155" width="42" height="5" fill="#00f"><title>9.0</title></rect>
<rect x="806" y="160" width="111" height="5" fill="#f0f"><title>8.0</title></rect>
<rect x="271" y="165" width="66" height="5" fill="#f0f"><title>8.0</title></rect>
<rect x="143" y="170" width="68" height="5" fill="#f0f"><title>8.0</title></rect>
<rect x="39" y="175" width="63" height="5" fill="#00f"><title>8.0</title></rect>
<rect x="586" y="180" width="42" height="5" fill="#00f"><title>7.0</title></rect>
<rect x="285" y="185" width="109" height="5" fill="#00f"><title>7.0</title></rect>
<rect x="133" y="190" width="40" height="5" fill="#f0f"><title>7.0</title></rect>
<rect x="376" y="195" width="573" height="5" fill="#f0f"><title>5.0</title></rect>
<rect x="123" y="200" width="409" height="5" fill="#00f"><title>5.0</title></rect>
<rect x="908" y="205" width="69" height="5" fill="#f0f"><title>4.0</title></rect>
<rect x="690" y="210" width="117" height="5" fill="#00f"><title>4.0</title></rect>
<rect x="627" y="215" width="180" height="5" fill="#00f"><title>3.0</title></rect>
<rect x="582" y="220" width="85" height="5" fill="#f0f"><title>3.0</title></rect>
<rect x="281" y="225" width="169" height="5" fill="#00f"><title>3.0</title></rect>
<rect x="126" y="230" width="32" height="5" fill="#f0f"><title>3.0</title></rect>
<text x="20" y="260" class="sm">0.7675</text>
<rect x="100" y="250" width="181" height="12" fill="#00f"/>
<rect x="345" y="250" width="357" height="12" fill="#00f"/>
<rect x="752" y="250" width="262" height="12" fill="#00f"/>
<line x1="281" y1="256" x2="344" y2="256" stroke="#00f"/>
<line x1="702" y1="256" x2="751" y2="256" stroke="#00f"/>
<rect x="103" y="251" width="178" height="10" fill="#ff0"/>
<rect x="346" y="251" width="356" height="10" fill="#ff0"/>
<rect x="753" y="251" width="132" height="10" fill="#ff0"/>
<text x="20" y="280" class="sm">0.1866</text>
<rect x="100" y="270" width="602" height="12" fill="#00f"/>
<rect x="752" y="270" width="262" height="12" fill="#00f"/>
<line x1="702" y1="276" x2="751" y2="276" stroke="#00f"/>
<rect x="410" y="271" width="292" height="10" fill="#ff0"/>
<rect x="753" y="271" width="132" height="10" fill="#ff0"/>
<text x="20" y="300" class="sm">0.01768</text>
<rect x="100" y="290" width="173" height="12" fill="#00f"/>
<rect x="345" y="290" width="357" height="12" fill="#00f"/>
<rect x="752" y="290" width="262" height="12" fill="#00f"/>
<line x1="273" y1="296" x2="344" y2="296" stroke="#00f"/>
<line x1="702" y1="296" x2="751" y2="296" stroke="#00f"/>
<rect x="410" y="291" width="292" height="10" fill="#ff0"/>
<rect x="753" y="291" width="132" height="10" fill="#ff0"/>
<text x="20" y="320" class="sm">0.007652</text>
<rect x="100" y="310" width="181" height="12" fill="#00f"/>
<rect x="345" y="310" width="669" height="12" fill="#00f"/>
<line x1="281" y1="316" x2="344" y2="316" stroke="#00f"/>
<rect x="103" y="311" width="178" height="10" fill="#ff0"/>
<rect x="346" y="311" width="360" height="10" fill="#ff0"/>
<text x="20" y="340" class="sm">0.004562</text>
<rect x="100" y="330" width="123" height="12" fill="#00f"/>
<rect x="345" y="330" width="357" height="12" fill="#00f"/>
<rect x="752" y="330" width="262" height="12" fill="#00f"/>
<line x1="223" y1="336" x2="344" y2="336" stroke="#00f"/>
<line x1="702" y1="336" x2="751" y2="336" stroke="#00f"/>
<rect x="410" y="331" width="292" height="10" fill="#ff0"/>
<rect x="753" y="331" width="132" height="10" fill="#ff0"/>
<text x="20" y="360" class="sm">0.002613</text>
<rect x="100" y="350" width="181" height="12" fill="#00f"/>
<rect x="405" y="350" width="297" height="12" fill="#00f"/>
<rect x="752" y="350" width="262" height="12" fill="#00f"/>
<line x1="281" y1="356" x2="404" y2="356" stroke="#00f"/>
<line x1="702" y1="356" x2="751" y2="356" stroke="#00f"/>
<rect x="103" y="351" width="178" height="10" fill="#ff0"/>
<rect x="406" y="351" width="296" height="10" fill="#ff0"/>
<rect x="753" y="351" width="132" height="10" fill="#ff0"/>
<text x="20" y="380" class="sm">0.002552</text>
<rect x="100" y="370" width="123" height="12" fill="#00f"/>
<rect x="285" y="370" width="417" height="12" fill="#00f"/>
<rect x="752" y="370" width="262" height="12" fill="#00f"/>
<line x1="223" y1="376" x2="284" y2="376" stroke="#00f"/>
<line x1="702" y1="376" x2="751" y2="376" stroke="#00f"/>
<rect x="410" y="371" width="292" height="10" fill="#ff0"/>
<rect x="753" y="371" width="132" height="10" fill="#ff0"/>
<text x="20" y="400" class="sm">0.002419</text>
<rect x="100" y="390" width="181" height="12" fill="#00f"/>
<rect x="345" y="390" width="245" height="12" fill="#00f"/>
<rect x="628" y="390" width="74" height="12" fill="#00f"/>
<rect x="752" y="390" width="262" height="12" fill="#00f"/>
<line x1="281" y1="396" x2="344" y2="396" stroke="#00f"/>
<line x1="590" y1="396" x2="627" y2="396" stroke="#00f"/>
<line x1="702" y1="396" x2="751" y2="396" stroke="#00f"/>
<rect x="103" y="391" width="178" height="10" fill="#ff0"/>
<rect x="346" y="391" width="244" height="10" fill="#ff0"/>
<rect x="629" y="391" width="73" height="10" fill="#ff0"/>
<rect x="753" y="391" width="38" height="10" fill="#ff0"/>
<text x="20" y="420" class="sm">0.001765</text>
<rect x="100" y="410" width="181" height="12" fill="#00f"/>
<rect x="394" y="410" width="308" height="12" fill="#00f"/>
<rect x="752" y="410" width="262" height="12" fill="#00f"/>
<line x1="281" y1="416" x2="393" y2="416" stroke="#00f"/>
<line x1="702" y1="416" x2="751" y2="416" stroke="#00f"/>
<rect x="410" y="411" width="292" height="10" fill="#ff0"/>
<rect x="753" y="411" width="132" height="10" fill="#ff0"/>
<text x="20" y="440" class="sm">0.001277</text>
<rect x="100" y="430" width="88" height="12" fill="#00f"/>
<rect x="237" y="430" width="44" height="12" fill="#00f"/>
<rect x="345" y="430" width="357" height="12" fill="#00f"/>
<rect x="752" y="430" width="262" height="12" fill="#00f"/>
<line x1="188" y1="436" x2="236" y2="436" stroke="#00f"/>
<line x1="281" y1="436" x2="344" y2="436" stroke="#00f"/>
<line x1="702" y1="436" x2="751" y2="436" stroke="#00f"/>
<rect x="259" y="431" width="22" height="10" fill="#ff0"/>
<rect x="346" y="431" width="356" height="10" fill="#ff0"/>
<rect x="753" y="431" width="132" height="10" fill="#ff0"/>
<text x="20" y="460" class="sm">0.0007972</text>
<rect x="100" y="450" width="181" height="12" fill="#00f"/>
<rect x="345" y="450" width="241" height="12" fill="#00f"/>
<rect x="628" y="450" width="74" height="12" fill="#00f"/>
<rect x="752" y="450" width="262" height="12" fill="#00f"/>
<line x1="281" y1="456" x2="344" y2="456" stroke="#00f"/>
<line x1="586" y1="456" x2="627" y2="456" stroke="#00f"/>
<line x1="702" y1="456" x2="751" y2="456" stroke="#00f"/>
<rect x="103" y="451" width="178" height="10" fill="#ff0"/>
<rect x="346" y="451" width="240" height="10" fill="#ff0"/>
<rect x="629" y="451" width="73" height="10" fill="#ff0"/>
<rect x="753" y="451" width="132" height="10" fill="#ff0"/>
<text x="20" y="480" class="sm">0.0007481</text>
<rect x="100" y="470" width="181" height="12" fill="#00f"/>
<rect x="345" y="470" width="173" height="12" fill="#00f"/>
<rect x="580" y="470" width="122" height="12" fill="#00f"/>
<rect x="752" y="470" width="262" height="12" fill="#00f"/>
<line x1="281" y1="476" x2="344" y2="476" stroke="#00f"/>
<line x1="518" y1="476" x2="579" y2="476" stroke="#00f"/>
<line x1="702" y1="476" x2="751" y2="476" stroke="#00f"/>
<rect x="103" y="471" width="178" height="10" fill="#ff0"/>
<rect x="346" y="471" width="172" height="10" fill="#ff0"/>
<rect x="581" y="471" width="13" height="10" fill="#ff0"/>
<text x="20" y="500" class="sm">0.0005903</text>
<rect x="100" y="490" width="192" height="12" fill="#00f"/>
<rect x="345" y="490" width="357" height="12" fill="#00f"/>
<rect x="752" y="490" width="262" height="12" fill="#00f"/>
<line x1="292" y1="496" x2="344" y2="496" stroke="#00f"/>
<line x1="702" y1="496" x2="751" y2="496" stroke="#00f"/>
<rect x="410" y="491" width="292" height="10" fill="#ff0"/>
<rect x="753" y="491" width="132" height="10" fill="#ff0"/>
<text x="20" y="520" class="sm">0.0005816</text>
<rect x="100" y="510" width="181" height="12" fill="#00f"/>
<rect x="345" y="510" width="116" height="12" fill="#00f"/>
<rect x="506" y="510" width="196" height="12" fill="#00f"/>
<rect x="752" y="510" width="262" height="12" fill="#00f"/>
<line x1="281" y1="516" x2="344" y2="516" stroke="#00f"/>
<line x1="461" y1="516" x2="505" y2="516" stroke="#00f"/>
<line x1="702" y1="516" x2="751" y2="516" stroke="#00f"/>
<rect x="103" y="511" width="178" height="10" fill="#ff0"/>
<rect x="346" y="511" width="115" height="10" fill="#ff0"/>
<rect x="507" y="511" width="195" height="10" fill="#ff0"/>
<rect x="753" y="511" width="132" height="10" fill="#ff0"/>
<text x="20" y="540" class="sm">0.0005563</text>
<rect x="100" y="530" width="490" height="12" fill="#00f"/>
<rect x="628" y="530" width="74" height="12" fill="#00f"/>
<rect x="752" y="530" width="262" height="12" fill="#00f"/>
<line x1="590" y1="536" x2="627" y2="536" stroke="#00f"/>
<line x1="702" y1="536" x2="751" y2="536" stroke="#00f"/>
<rect x="410" y="531" width="180" height="10" fill="#ff0"/>
<rect x="629" y="531" width="73" height="10" fill="#ff0"/>
<rect x="753" y="531" width="38" height="10" fill="#ff0"/>
<text x="20" y="560" class="sm">0.000513</text>
<rect x="100" y="550" width="88" height="12" fill="#00f"/>
<rect x="237" y="550" width="465" height="12" fill="#00f"/>
<rect x="752" y="550" width="262" height="12" fill="#00f"/>
<line x1="188" y1="556" x2="236" y2="556" stroke="#00f"/>
<line x1="702" y1="556" x2="751" y2="556" stroke="#00f"/>
<rect x="410" y="551" width="292" height="10" fill="#ff0"/>
<rect x="753" y="551" width="132" height="10" fill="#ff0"/>
<text x="20" y="580" class="sm">0.0004807</text>
<rect x="100" y="570" width="181" height="12" fill="#00f"/>
<rect x="345" y="570" width="110" height="12" fill="#00f"/>
<rect x="506" y="570" width="196" height="12" fill="#00f"/>
<rect x="752" y="570" width="262" height="12" fill="#00f"/>
<line x1="281" y1="576" x2="344" y2="576" stroke="#00f"/>
<line x1="455" y1="576" x2="505" y2="576" stroke="#00f"/>
<line x1="702" y1="576" x2="751" y2="576" stroke="#00f"/>
<rect x="103" y="571" width="178" height="10" fill="#ff0"/>
<rect x="346" y="571" width="109" height="10" fill="#ff0"/>
<rect x="507" y="571" width="195" height="10" fill="#ff0"/>
<rect x="753" y="571" width="132" height="10" fill="#ff0"/>
<text x="20" y="600" class="sm">0.0003981</text>
<rect x="100" y="590" width="88" height="12" fill="#00f"/>
<rect x="228" y="590" width="53" height="12" fill="#00f"/>
<rect x="345" y="590" width="357" height="12" fill="#00f"/>
<rect x="752" y="590" width="262" height="12" fill="#00f"/>
<line x1="188" y1="596" x2="227" y2="596" stroke="#00f"/>
<line x1="281" y1="596" x2="344" y2="596" stroke="#00f"/>
<line x1="702" y1="596" x2="751" y2="596" stroke="#00f"/>
<rect x="259" y="591" width="22" height="10" fill="#ff0"/>
<rect x="346" y="591" width="356" height="10" fill="#ff0"/>
<rect x="753" y="591" width="132" height="10" fill="#ff0"/>
<text x="20" y="620" class="sm">0.0003131</text>
<rect x="100" y="610" width="181" height="12" fill="#00f"/>
<rect x="345" y="610" width="345" height="12" fill="#00f"/>
<rect x="752" y="610" width="262" height="12" fill="#00f"/>
<line x1="281" y1="616" x2="344" y2="616" stroke="#00f"/>
<line x1="690" y1="616" x2="751" y2="616" stroke="#00f"/>
<rect x="103" y="611" width="178" height="10" fill="#ff0"/>
<rect x="346" y="611" width="344" height="10" fill="#ff0"/>
<rect x="753" y="611" width="132" height="10" fill="#ff0"/>
<text x="20" y="640" class="sm">0.0003102</text>
<rect x="100" y="630" width="116" height="12" fill="#00f"/>
<rect x="255" y="630" width="26" height="12" fill="#00f"/>
<rect x="345" y="630" width="357" height="12" fill="#00f"/>
<rect x="752" y="630" width="262" height="12" fill="#00f"/>
<line x1="216" y1="636" x2="254" y2="636" stroke="#00f"/>
<line x1="281" y1="636" x2="344" y2="636" stroke="#00f"/>
<line x1="702" y1="636" x2="751" y2="636" stroke="#00f"/>
<rect x="103" y="631" width="113" height="10" fill="#ff0"/>
<rect x="256" y="631" width="25" height="10" fill="#ff0"/>
<rect x="346" y="631" width="356" height="10" fill="#ff0"/>
<rect x="753" y="631" width="132" height="10" fill="#ff0"/>
</svg>
