<svg viewBox="0 0 805 525" xmlns="http://www.w3.org/2000/svg">

<style>
  .sm { font: 12px sans-serif; }
  .lg { font: 15px sans-serif; }
</style>
<rect fill="#ddd" x="0" y="0" width="100%" height="100%"/>
<text x="20" y="20" class="lg">ch.4277 II:5292602-5293406 Gene:WBGene00022782</text>
<text x="20" y="50" class="sm">WormBase</text>
<rect x="100" y="40" width="58" height="12" fill="#00f"/>
<rect x="240" y="40" width="120" height="12" fill="#00f"/>
<rect x="410" y="40" width="295" height="12" fill="#00f"/>
<line x1="158" y1="46" x2="239" y2="46" stroke="#00f"/>
<line x1="360" y1="46" x2="409" y2="46" stroke="#00f"/>
<rect x="108" y="41" width="50" height="10" fill="#ff0"/>
<rect x="241" y="41" width="119" height="10" fill="#ff0"/>
<rect x="411" y="41" width="131" height="10" fill="#ff0"/>
<rect x="101" y="41" width="6" height="10" fill="brown"><title>.</title></rect>
<rect x="543" y="41" width="162" height="10" fill="brown"><title>.</title></rect>
<text x="20" y="70" class="sm">Fitness: 0.11977355987065662</text>
<rect x="360" y="65" width="50" height="5" fill="#00f"><title>111699.0</title></rect>
<rect x="158" y="70" width="82" height="5" fill="#00f"><title>87826.0</title></rect>
<rect x="360" y="75" width="81" height="5" fill="#00f"><title>21.0</title></rect>
<rect x="364" y="80" width="46" height="5" fill="#00f"><title>17.0</title></rect>
<rect x="190" y="85" width="50" height="5" fill="#00f"><title>11.0</title></rect>
<text x="20" y="115" class="sm">0.9934</text>
<rect x="100" y="105" width="58" height="12" fill="#00f"/>
<rect x="240" y="105" width="120" height="12" fill="#00f"/>
<rect x="410" y="105" width="298" height="12" fill="#00f"/>
<line x1="158" y1="111" x2="239" y2="111" stroke="#00f"/>
<line x1="360" y1="111" x2="409" y2="111" stroke="#00f"/>
<rect x="108" y="106" width="50" height="10" fill="#ff0"/>
<rect x="241" y="106" width="119" height="10" fill="#ff0"/>
<rect x="411" y="106" width="131" height="10" fill="#ff0"/>
<text x="20" y="135" class="sm">0.005733</text>
<rect x="100" y="125" width="90" height="12" fill="#00f"/>
<rect x="240" y="125" width="120" height="12" fill="#00f"/>
<rect x="410" y="125" width="298" height="12" fill="#00f"/>
<line x1="190" y1="131" x2="239" y2="131" stroke="#00f"/>
<line x1="360" y1="131" x2="409" y2="131" stroke="#00f"/>
<rect x="331" y="126" width="29" height="10" fill="#ff0"/>
<rect x="411" y="126" width="221" height="10" fill="#ff0"/>
<text x="20" y="155" class="sm">0.000484</text>
<rect x="100" y="145" width="62" height="12" fill="#00f"/>
<rect x="240" y="145" width="120" height="12" fill="#00f"/>
<rect x="410" y="145" width="298" height="12" fill="#00f"/>
<line x1="162" y1="151" x2="239" y2="151" stroke="#00f"/>
<line x1="360" y1="151" x2="409" y2="151" stroke="#00f"/>
<rect x="151" y="146" width="11" height="10" fill="#ff0"/>
<rect x="241" y="146" width="119" height="10" fill="#ff0"/>
<rect x="411" y="146" width="131" height="10" fill="#ff0"/>
<text x="20" y="175" class="sm">0.0001718</text>
<rect x="100" y="165" width="58" height="12" fill="#00f"/>
<rect x="240" y="165" width="120" height="12" fill="#00f"/>
<rect x="441" y="165" width="267" height="12" fill="#00f"/>
<line x1="158" y1="171" x2="239" y2="171" stroke="#00f"/>
<line x1="360" y1="171" x2="440" y2="171" stroke="#00f"/>
<rect x="108" y="166" width="50" height="10" fill="#ff0"/>
<rect x="241" y="166" width="119" height="10" fill="#ff0"/>
<rect x="442" y="166" width="77" height="10" fill="#ff0"/>
<text x="20" y="195" class="sm">9.486e-05</text>
<rect x="100" y="185" width="64" height="12" fill="#00f"/>
<rect x="240" y="185" width="120" height="12" fill="#00f"/>
<rect x="410" y="185" width="298" height="12" fill="#00f"/>
<line x1="164" y1="191" x2="239" y2="191" stroke="#00f"/>
<line x1="360" y1="191" x2="409" y2="191" stroke="#00f"/>
<rect x="108" y="186" width="56" height="10" fill="#ff0"/>
<rect x="241" y="186" width="119" height="10" fill="#ff0"/>
<rect x="411" y="186" width="131" height="10" fill="#ff0"/>
<text x="20" y="215" class="sm">6.727e-05</text>
<rect x="100" y="205" width="58" height="12" fill="#00f"/>
<rect x="240" y="205" width="124" height="12" fill="#00f"/>
<rect x="410" y="205" width="298" height="12" fill="#00f"/>
<line x1="158" y1="211" x2="239" y2="211" stroke="#00f"/>
<line x1="364" y1="211" x2="409" y2="211" stroke="#00f"/>
<rect x="108" y="206" width="50" height="10" fill="#ff0"/>
<rect x="241" y="206" width="123" height="10" fill="#ff0"/>
<rect x="411" y="206" width="40" height="10" fill="#ff0"/>
<text x="20" y="235" class="sm">3.802e-05</text>
<rect x="100" y="225" width="58" height="12" fill="#00f"/>
<rect x="217" y="225" width="143" height="12" fill="#00f"/>
<rect x="410" y="225" width="298" height="12" fill="#00f"/>
<line x1="158" y1="231" x2="216" y2="231" stroke="#00f"/>
<line x1="360" y1="231" x2="409" y2="231" stroke="#00f"/>
<rect x="241" y="226" width="119" height="10" fill="#ff0"/>
<rect x="411" y="226" width="131" height="10" fill="#ff0"/>
<text x="20" y="255" class="sm">1.732e-05</text>
<rect x="100" y="245" width="82" height="12" fill="#00f"/>
<rect x="240" y="245" width="120" height="12" fill="#00f"/>
<rect x="410" y="245" width="298" height="12" fill="#00f"/>
<line x1="182" y1="251" x2="239" y2="251" stroke="#00f"/>
<line x1="360" y1="251" x2="409" y2="251" stroke="#00f"/>
<rect x="108" y="246" width="74" height="10" fill="#ff0"/>
<rect x="241" y="246" width="119" height="10" fill="#ff0"/>
<rect x="411" y="246" width="131" height="10" fill="#ff0"/>
<text x="20" y="275" class="sm">1.399e-05</text>
<rect x="100" y="265" width="58" height="12" fill="#00f"/>
<rect x="240" y="265" width="68" height="12" fill="#00f"/>
<rect x="410" y="265" width="298" height="12" fill="#00f"/>
<line x1="158" y1="271" x2="239" y2="271" stroke="#00f"/>
<line x1="308" y1="271" x2="409" y2="271" stroke="#00f"/>
<rect x="108" y="266" width="50" height="10" fill="#ff0"/>
<rect x="241" y="266" width="67" height="10" fill="#ff0"/>
<rect x="411" y="266" width="108" height="10" fill="#ff0"/>
<text x="20" y="295" class="sm">3.347e-06</text>
<rect x="100" y="285" width="58" height="12" fill="#00f"/>
<rect x="240" y="285" width="49" height="12" fill="#00f"/>
<rect x="338" y="285" width="26" height="12" fill="#00f"/>
<rect x="410" y="285" width="298" height="12" fill="#00f"/>
<line x1="158" y1="291" x2="239" y2="291" stroke="#00f"/>
<line x1="289" y1="291" x2="337" y2="291" stroke="#00f"/>
<line x1="364" y1="291" x2="409" y2="291" stroke="#00f"/>
<rect x="108" y="286" width="50" height="10" fill="#ff0"/>
<rect x="241" y="286" width="48" height="10" fill="#ff0"/>
<rect x="339" y="286" width="1" height="10" fill="#ff0"/>
<text x="20" y="315" class="sm">2.794e-06</text>
<rect x="100" y="305" width="58" height="12" fill="#00f"/>
<rect x="277" y="305" width="83" height="12" fill="#00f"/>
<rect x="410" y="305" width="298" height="12" fill="#00f"/>
<line x1="158" y1="311" x2="276" y2="311" stroke="#00f"/>
<line x1="360" y1="311" x2="409" y2="311" stroke="#00f"/>
<rect x="341" y="306" width="19" height="10" fill="#ff0"/>
<rect x="411" y="306" width="108" height="10" fill="#ff0"/>
<text x="20" y="335" class="sm">1.652e-06</text>
<rect x="100" y="325" width="58" height="12" fill="#00f"/>
<rect x="240" y="325" width="49" height="12" fill="#00f"/>
<rect x="410" y="325" width="298" height="12" fill="#00f"/>
<line x1="158" y1="331" x2="239" y2="331" stroke="#00f"/>
<line x1="289" y1="331" x2="409" y2="331" stroke="#00f"/>
<rect x="257" y="326" width="32" height="10" fill="#ff0"/>
<rect x="411" y="326" width="131" height="10" fill="#ff0"/>
<text x="20" y="355" class="sm">9.915e-07</text>
<rect x="100" y="345" width="90" height="12" fill="#00f"/>
<rect x="240" y="345" width="120" height="12" fill="#00f"/>
<rect x="441" y="345" width="267" height="12" fill="#00f"/>
<line x1="190" y1="351" x2="239" y2="351" stroke="#00f"/>
<line x1="360" y1="351" x2="440" y2="351" stroke="#00f"/>
<rect x="331" y="346" width="29" height="10" fill="#ff0"/>
<rect x="442" y="346" width="167" height="10" fill="#ff0"/>
<text x="20" y="375" class="sm">4.078e-07</text>
<rect x="100" y="365" width="58" height="12" fill="#00f"/>
<rect x="256" y="365" width="104" height="12" fill="#00f"/>
<rect x="410" y="365" width="298" height="12" fill="#00f"/>
<line x1="158" y1="371" x2="255" y2="371" stroke="#00f"/>
<line x1="360" y1="371" x2="409" y2="371" stroke="#00f"/>
<rect x="265" y="366" width="95" height="10" fill="#ff0"/>
<rect x="411" y="366" width="131" height="10" fill="#ff0"/>
<text x="20" y="395" class="sm">3.883e-07</text>
<rect x="100" y="385" width="90" height="12" fill="#00f"/>
<rect x="240" y="385" width="124" height="12" fill="#00f"/>
<rect x="410" y="385" width="298" height="12" fill="#00f"/>
<line x1="190" y1="391" x2="239" y2="391" stroke="#00f"/>
<line x1="364" y1="391" x2="409" y2="391" stroke="#00f"/>
<rect x="331" y="386" width="33" height="10" fill="#ff0"/>
<rect x="411" y="386" width="130" height="10" fill="#ff0"/>
<text x="20" y="415" class="sm">3.721e-07</text>
<rect x="100" y="405" width="58" height="12" fill="#00f"/>
<rect x="240" y="405" width="71" height="12" fill="#00f"/>
<rect x="410" y="405" width="298" height="12" fill="#00f"/>
<line x1="158" y1="411" x2="239" y2="411" stroke="#00f"/>
<line x1="311" y1="411" x2="409" y2="411" stroke="#00f"/>
<rect x="108" y="406" width="50" height="10" fill="#ff0"/>
<rect x="241" y="406" width="70" height="10" fill="#ff0"/>
<rect x="411" y="406" width="108" height="10" fill="#ff0"/>
<text x="20" y="435" class="sm">3.156e-07</text>
<rect x="100" y="425" width="58" height="12" fill="#00f"/>
<rect x="240" y="425" width="120" height="12" fill="#00f"/>
<rect x="410" y="425" width="92" height="12" fill="#00f"/>
<rect x="566" y="425" width="142" height="12" fill="#00f"/>
<line x1="158" y1="431" x2="239" y2="431" stroke="#00f"/>
<line x1="360" y1="431" x2="409" y2="431" stroke="#00f"/>
<line x1="502" y1="431" x2="565" y2="431" stroke="#00f"/>
<rect x="108" y="426" width="50" height="10" fill="#ff0"/>
<rect x="241" y="426" width="119" height="10" fill="#ff0"/>
<rect x="411" y="426" width="91" height="10" fill="#ff0"/>
<rect x="567" y="426" width="3" height="10" fill="#ff0"/>
<text x="20" y="455" class="sm">2.979e-07</text>
<rect x="100" y="445" width="58" height="12" fill="#00f"/>
<rect x="240" y="445" width="68" height="12" fill="#00f"/>
<rect x="441" y="445" width="267" height="12" fill="#00f"/>
<line x1="158" y1="451" x2="239" y2="451" stroke="#00f"/>
<line x1="308" y1="451" x2="440" y2="451" stroke="#00f"/>
<rect x="257" y="446" width="51" height="10" fill="#ff0"/>
<rect x="442" y="446" width="100" height="10" fill="#ff0"/>
<text x="20" y="475" class="sm">8.37e-08</text>
<rect x="100" y="465" width="62" height="12" fill="#00f"/>
<rect x="240" y="465" width="120" height="12" fill="#00f"/>
<rect x="441" y="465" width="267" height="12" fill="#00f"/>
<line x1="162" y1="471" x2="239" y2="471" stroke="#00f"/>
<line x1="360" y1="471" x2="440" y2="471" stroke="#00f"/>
<rect x="151" y="466" width="11" height="10" fill="#ff0"/>
<rect x="241" y="466" width="119" height="10" fill="#ff0"/>
<rect x="442" y="466" width="77" height="10" fill="#ff0"/>
<text x="20" y="495" class="sm">8.072e-08</text>
<rect x="100" y="485" width="90" height="12" fill="#00f"/>
<rect x="240" y="485" width="68" height="12" fill="#00f"/>
<rect x="410" y="485" width="298" height="12" fill="#00f"/>
<line x1="190" y1="491" x2="239" y2="491" stroke="#00f"/>
<line x1="308" y1="491" x2="409" y2="491" stroke="#00f"/>
<rect x="433" y="486" width="176" height="10" fill="#ff0"/>
</svg>
