<svg viewBox="0 0 960 605" xmlns="http://www.w3.org/2000/svg">

<style>
  .sm { font: 12px sans-serif; }
  .lg { font: 15px sans-serif; }
</style>
<rect fill="#ddd" x="0" y="0" width="100%" height="100%"/>
<text x="20" y="20" class="lg">ch.4556 II:6346860-6347819 Gene:WBGene00002980</text>
<text x="20" y="50" class="sm">WormBase</text>
<rect x="102" y="40" width="321" height="12" fill="#00f"/>
<rect x="475" y="40" width="387" height="12" fill="#00f"/>
<line x1="423" y1="46" x2="474" y2="46" stroke="#00f"/>
<rect x="136" y="41" width="287" height="10" fill="#ff0"/>
<rect x="476" y="41" width="83" height="10" fill="#ff0"/>
<rect x="103" y="41" width="32" height="10" fill="brown"><title>.</title></rect>
<rect x="560" y="41" width="302" height="10" fill="brown"><title>.</title></rect>
<text x="20" y="70" class="sm">Fitness: 0.0002785023958798532</text>
<rect x="423" y="65" width="52" height="5" fill="#00f"><title>6008290.0</title></rect>
<rect x="427" y="70" width="51" height="5" fill="#f0f"><title>783.0</title></rect>
<rect x="58" y="75" width="44" height="5" fill="#00f"><title>768.0</title></rect>
<rect x="278" y="80" width="51" height="5" fill="#00f"><title>59.0</title></rect>
<rect x="123" y="85" width="93" height="5" fill="#f0f"><title>14.0</title></rect>
<rect x="206" y="90" width="347" height="5" fill="#00f"><title>9.0</title></rect>
<rect x="255" y="95" width="63" height="5" fill="#f0f"><title>7.0</title></rect>
<rect x="416" y="100" width="57" height="5" fill="#f0f"><title>6.0</title></rect>
<rect x="47" y="105" width="59" height="5" fill="#f0f"><title>6.0</title></rect>
<rect x="565" y="110" width="181" height="5" fill="#f0f"><title>5.0</title></rect>
<rect x="528" y="115" width="62" height="5" fill="#f0f"><title>5.0</title></rect>
<rect x="423" y="120" width="64" height="5" fill="#00f"><title>5.0</title></rect>
<rect x="414" y="125" width="79" height="5" fill="#f0f"><title>4.0</title></rect>
<rect x="416" y="130" width="68" height="5" fill="#f0f"><title>4.0</title></rect>
<rect x="118" y="135" width="47" height="5" fill="#f0f"><title>4.0</title></rect>
<rect x="416" y="140" width="200" height="5" fill="#f0f"><title>3.0</title></rect>
<rect x="570" y="145" width="35" height="5" fill="#f0f"><title>3.0</title></rect>
<rect x="427" y="150" width="57" height="5" fill="#f0f"><title>3.0</title></rect>
<rect x="414" y="155" width="59" height="5" fill="#f0f"><title>3.0</title></rect>
<rect x="180" y="160" width="61" height="5" fill="#00f"><title>3.0</title></rect>
<rect x="75" y="165" width="48" height="5" fill="#f0f"><title>3.0</title></rect>
<text x="20" y="195" class="sm">0.9999</text>
<rect x="100" y="185" width="323" height="12" fill="#00f"/>
<rect x="475" y="185" width="388" height="12" fill="#00f"/>
<line x1="423" y1="191" x2="474" y2="191" stroke="#00f"/>
<rect x="136" y="186" width="287" height="10" fill="#ff0"/>
<rect x="476" y="186" width="83" height="10" fill="#ff0"/>
<text x="20" y="215" class="sm">6.458e-05</text>
<rect x="100" y="205" width="607" height="12" fill="#00f"/>
<rect x="756" y="205" width="107" height="12" fill="#00f"/>
<line x1="707" y1="211" x2="755" y2="211" stroke="#00f"/>
<rect x="136" y="206" width="317" height="10" fill="#ff0"/>
<text x="20" y="235" class="sm">1.431e-05</text>
<rect x="100" y="225" width="323" height="12" fill="#00f"/>
<rect x="516" y="225" width="347" height="12" fill="#00f"/>
<line x1="423" y1="231" x2="515" y2="231" stroke="#00f"/>
<rect x="136" y="226" width="287" height="10" fill="#ff0"/>
<rect x="517" y="226" width="2" height="10" fill="#ff0"/>
<text x="20" y="255" class="sm">1.221e-05</text>
<rect x="100" y="245" width="78" height="12" fill="#00f"/>
<rect x="226" y="245" width="637" height="12" fill="#00f"/>
<line x1="178" y1="251" x2="225" y2="251" stroke="#00f"/>
<rect x="136" y="246" width="42" height="10" fill="#ff0"/>
<rect x="227" y="246" width="226" height="10" fill="#ff0"/>
<text x="20" y="275" class="sm">1.027e-05</text>
<rect x="100" y="265" width="75" height="12" fill="#00f"/>
<rect x="226" y="265" width="637" height="12" fill="#00f"/>
<line x1="175" y1="271" x2="225" y2="271" stroke="#00f"/>
<rect x="136" y="266" width="39" height="10" fill="#ff0"/>
<rect x="227" y="266" width="226" height="10" fill="#ff0"/>
<text x="20" y="295" class="sm">8.178e-06</text>
<rect x="100" y="285" width="281" height="12" fill="#00f"/>
<rect x="435" y="285" width="428" height="12" fill="#00f"/>
<line x1="381" y1="291" x2="434" y2="291" stroke="#00f"/>
<rect x="136" y="286" width="245" height="10" fill="#ff0"/>
<rect x="436" y="286" width="17" height="10" fill="#ff0"/>
<text x="20" y="315" class="sm">7.545e-06</text>
<rect x="100" y="305" width="334" height="12" fill="#00f"/>
<rect x="475" y="305" width="388" height="12" fill="#00f"/>
<line x1="434" y1="311" x2="474" y2="311" stroke="#00f"/>
<rect x="136" y="306" width="298" height="10" fill="#ff0"/>
<rect x="476" y="306" width="168" height="10" fill="#ff0"/>
<text x="20" y="335" class="sm">7.146e-06</text>
<rect x="100" y="325" width="337" height="12" fill="#00f"/>
<rect x="475" y="325" width="388" height="12" fill="#00f"/>
<line x1="437" y1="331" x2="474" y2="331" stroke="#00f"/>
<rect x="136" y="326" width="301" height="10" fill="#ff0"/>
<rect x="476" y="326" width="168" height="10" fill="#ff0"/>
<text x="20" y="355" class="sm">3.34e-06</text>
<rect x="100" y="345" width="281" height="12" fill="#00f"/>
<rect x="423" y="345" width="440" height="12" fill="#00f"/>
<line x1="381" y1="351" x2="422" y2="351" stroke="#00f"/>
<rect x="136" y="346" width="245" height="10" fill="#ff0"/>
<rect x="424" y="346" width="29" height="10" fill="#ff0"/>
<text x="20" y="375" class="sm">1.805e-06</text>
<rect x="100" y="365" width="607" height="12" fill="#00f"/>
<rect x="776" y="365" width="87" height="12" fill="#00f"/>
<line x1="707" y1="371" x2="775" y2="371" stroke="#00f"/>
<rect x="136" y="366" width="317" height="10" fill="#ff0"/>
<text x="20" y="395" class="sm">1.379e-06</text>
<rect x="100" y="385" width="281" height="12" fill="#00f"/>
<rect x="475" y="385" width="388" height="12" fill="#00f"/>
<line x1="381" y1="391" x2="474" y2="391" stroke="#00f"/>
<rect x="136" y="386" width="245" height="10" fill="#ff0"/>
<rect x="476" y="386" width="83" height="10" fill="#ff0"/>
<text x="20" y="415" class="sm">1.367e-06</text>
<rect x="100" y="405" width="323" height="12" fill="#00f"/>
<rect x="487" y="405" width="376" height="12" fill="#00f"/>
<line x1="423" y1="411" x2="486" y2="411" stroke="#00f"/>
<rect x="136" y="406" width="287" height="10" fill="#ff0"/>
<rect x="488" y="406" width="71" height="10" fill="#ff0"/>
<text x="20" y="435" class="sm">1.045e-06</text>
<rect x="100" y="425" width="203" height="12" fill="#00f"/>
<rect x="352" y="425" width="511" height="12" fill="#00f"/>
<line x1="303" y1="431" x2="351" y2="431" stroke="#00f"/>
<rect x="136" y="426" width="167" height="10" fill="#ff0"/>
<rect x="353" y="426" width="47" height="10" fill="#ff0"/>
<text x="20" y="455" class="sm">1.031e-06</text>
<rect x="100" y="445" width="323" height="12" fill="#00f"/>
<rect x="491" y="445" width="372" height="12" fill="#00f"/>
<line x1="423" y1="451" x2="490" y2="451" stroke="#00f"/>
<rect x="136" y="446" width="287" height="10" fill="#ff0"/>
<rect x="492" y="446" width="152" height="10" fill="#ff0"/>
<text x="20" y="475" class="sm">6.74e-07</text>
<rect x="100" y="465" width="622" height="12" fill="#00f"/>
<rect x="776" y="465" width="87" height="12" fill="#00f"/>
<line x1="722" y1="471" x2="775" y2="471" stroke="#00f"/>
<rect x="136" y="466" width="317" height="10" fill="#ff0"/>
<text x="20" y="495" class="sm">4.139e-07</text>
<rect x="100" y="485" width="574" height="12" fill="#00f"/>
<rect x="723" y="485" width="140" height="12" fill="#00f"/>
<line x1="674" y1="491" x2="722" y2="491" stroke="#00f"/>
<rect x="136" y="486" width="317" height="10" fill="#ff0"/>
<text x="20" y="515" class="sm">3.911e-07</text>
<rect x="100" y="505" width="106" height="12" fill="#00f"/>
<rect x="255" y="505" width="608" height="12" fill="#00f"/>
<line x1="206" y1="511" x2="254" y2="511" stroke="#00f"/>
<rect x="136" y="506" width="70" height="10" fill="#ff0"/>
<rect x="256" y="506" width="144" height="10" fill="#ff0"/>
<text x="20" y="535" class="sm">3.696e-07</text>
<rect x="100" y="525" width="178" height="12" fill="#00f"/>
<rect x="329" y="525" width="534" height="12" fill="#00f"/>
<line x1="278" y1="531" x2="328" y2="531" stroke="#00f"/>
<rect x="136" y="526" width="142" height="10" fill="#ff0"/>
<rect x="330" y="526" width="123" height="10" fill="#ff0"/>
<text x="20" y="555" class="sm">3.227e-07</text>
<rect x="100" y="545" width="625" height="12" fill="#00f"/>
<rect x="776" y="545" width="87" height="12" fill="#00f"/>
<line x1="725" y1="551" x2="775" y2="551" stroke="#00f"/>
<rect x="136" y="546" width="317" height="10" fill="#ff0"/>
<text x="20" y="575" class="sm">1.912e-07</text>
<rect x="100" y="565" width="272" height="12" fill="#00f"/>
<rect x="423" y="565" width="440" height="12" fill="#00f"/>
<line x1="372" y1="571" x2="422" y2="571" stroke="#00f"/>
<rect x="136" y="566" width="236" height="10" fill="#ff0"/>
<rect x="424" y="566" width="29" height="10" fill="#ff0"/>
</svg>
