<svg viewBox="0 0 1089 600" xmlns="http://www.w3.org/2000/svg">

<style>
  .sm { font: 12px sans-serif; }
  .lg { font: 15px sans-serif; }
</style>
<rect fill="#ddd" x="0" y="0" width="100%" height="100%"/>
<text x="20" y="20" class="lg">ch.49 I:347369-348457 Gene:WBGene00021658</text>
<text x="20" y="50" class="sm">WormBase</text>
<rect x="100" y="40" width="113" height="12" fill="#00f"/>
<rect x="261" y="40" width="77" height="12" fill="#00f"/>
<rect x="393" y="40" width="222" height="12" fill="#00f"/>
<rect x="673" y="40" width="316" height="12" fill="#00f"/>
<line x1="213" y1="46" x2="260" y2="46" stroke="#00f"/>
<line x1="338" y1="46" x2="392" y2="46" stroke="#00f"/>
<line x1="615" y1="46" x2="672" y2="46" stroke="#00f"/>
<rect x="207" y="41" width="6" height="10" fill="#ff0"/>
<rect x="262" y="41" width="76" height="10" fill="#ff0"/>
<rect x="394" y="41" width="221" height="10" fill="#ff0"/>
<rect x="674" y="41" width="107" height="10" fill="#ff0"/>
<rect x="101" y="41" width="105" height="10" fill="brown"><title>.</title></rect>
<rect x="782" y="41" width="207" height="10" fill="brown"><title>.</title></rect>
<text x="20" y="70" class="sm">Fitness: 0.4270771637727274</text>
<rect x="338" y="65" width="55" height="5" fill="#00f"><title>336256.0</title></rect>
<rect x="615" y="70" width="58" height="5" fill="#00f"><title>310635.0</title></rect>
<rect x="213" y="75" width="48" height="5" fill="#00f"><title>303105.0</title></rect>
<rect x="342" y="80" width="51" height="5" fill="#00f"><title>3365.0</title></rect>
<rect x="211" y="85" width="50" height="5" fill="#00f"><title>2265.0</title></rect>
<rect x="348" y="90" width="45" height="5" fill="#00f"><title>99.0</title></rect>
<rect x="24" y="95" width="108" height="5" fill="#00f"><title>48.0</title></rect>
<rect x="615" y="100" width="91" height="5" fill="#00f"><title>35.0</title></rect>
<rect x="873" y="105" width="49" height="5" fill="#f0f"><title>23.0</title></rect>
<rect x="299" y="110" width="475" height="5" fill="#f0f"><title>18.0</title></rect>
<rect x="709" y="115" width="150" height="5" fill="#00f"><title>15.0</title></rect>
<rect x="544" y="120" width="129" height="5" fill="#00f"><title>14.0</title></rect>
<rect x="338" y="125" width="62" height="5" fill="#00f"><title>12.0</title></rect>
<rect x="13" y="130" width="119" height="5" fill="#00f"><title>10.0</title></rect>
<rect x="473" y="135" width="57" height="5" fill="#00f"><title>9.0</title></rect>
<rect x="437" y="140" width="339" height="5" fill="#00f"><title>6.0</title></rect>
<rect x="217" y="145" width="44" height="5" fill="#00f"><title>5.0</title></rect>
<rect x="161" y="150" width="256" height="5" fill="#f0f"><title>4.0</title></rect>
<rect x="873" y="155" width="63" height="5" fill="#f0f"><title>4.0</title></rect>
<rect x="437" y="160" width="275" height="5" fill="#00f"><title>3.0</title></rect>
<text x="20" y="190" class="sm">0.5383</text>
<rect x="100" y="180" width="111" height="12" fill="#00f"/>
<rect x="261" y="180" width="77" height="12" fill="#00f"/>
<rect x="393" y="180" width="222" height="12" fill="#00f"/>
<rect x="673" y="180" width="319" height="12" fill="#00f"/>
<line x1="211" y1="186" x2="260" y2="186" stroke="#00f"/>
<line x1="338" y1="186" x2="392" y2="186" stroke="#00f"/>
<line x1="615" y1="186" x2="672" y2="186" stroke="#00f"/>
<rect x="424" y="181" width="191" height="10" fill="#ff0"/>
<rect x="674" y="181" width="107" height="10" fill="#ff0"/>
<text x="20" y="210" class="sm">0.3843</text>
<rect x="100" y="200" width="113" height="12" fill="#00f"/>
<rect x="261" y="200" width="77" height="12" fill="#00f"/>
<rect x="393" y="200" width="222" height="12" fill="#00f"/>
<rect x="673" y="200" width="319" height="12" fill="#00f"/>
<line x1="213" y1="206" x2="260" y2="206" stroke="#00f"/>
<line x1="338" y1="206" x2="392" y2="206" stroke="#00f"/>
<line x1="615" y1="206" x2="672" y2="206" stroke="#00f"/>
<rect x="207" y="201" width="6" height="10" fill="#ff0"/>
<rect x="262" y="201" width="76" height="10" fill="#ff0"/>
<rect x="394" y="201" width="221" height="10" fill="#ff0"/>
<rect x="674" y="201" width="107" height="10" fill="#ff0"/>
<text x="20" y="230" class="sm">0.02563</text>
<rect x="100" y="220" width="111" height="12" fill="#00f"/>
<rect x="261" y="220" width="81" height="12" fill="#00f"/>
<rect x="393" y="220" width="222" height="12" fill="#00f"/>
<rect x="673" y="220" width="319" height="12" fill="#00f"/>
<line x1="211" y1="226" x2="260" y2="226" stroke="#00f"/>
<line x1="342" y1="226" x2="392" y2="226" stroke="#00f"/>
<line x1="615" y1="226" x2="672" y2="226" stroke="#00f"/>
<rect x="424" y="221" width="191" height="10" fill="#ff0"/>
<rect x="674" y="221" width="107" height="10" fill="#ff0"/>
<text x="20" y="250" class="sm">0.0183</text>
<rect x="100" y="240" width="113" height="12" fill="#00f"/>
<rect x="261" y="240" width="81" height="12" fill="#00f"/>
<rect x="393" y="240" width="222" height="12" fill="#00f"/>
<rect x="673" y="240" width="319" height="12" fill="#00f"/>
<line x1="213" y1="246" x2="260" y2="246" stroke="#00f"/>
<line x1="342" y1="246" x2="392" y2="246" stroke="#00f"/>
<line x1="615" y1="246" x2="672" y2="246" stroke="#00f"/>
<rect x="424" y="241" width="191" height="10" fill="#ff0"/>
<rect x="674" y="241" width="107" height="10" fill="#ff0"/>
<text x="20" y="270" class="sm">0.006072</text>
<rect x="100" y="260" width="38" height="12" fill="#00f"/>
<rect x="187" y="260" width="26" height="12" fill="#00f"/>
<rect x="261" y="260" width="77" height="12" fill="#00f"/>
<rect x="393" y="260" width="599" height="12" fill="#00f"/>
<line x1="138" y1="266" x2="186" y2="266" stroke="#00f"/>
<line x1="213" y1="266" x2="260" y2="266" stroke="#00f"/>
<line x1="338" y1="266" x2="392" y2="266" stroke="#00f"/>
<rect x="207" y="261" width="6" height="10" fill="#ff0"/>
<rect x="262" y="261" width="76" height="10" fill="#ff0"/>
<rect x="394" y="261" width="230" height="10" fill="#ff0"/>
<text x="20" y="290" class="sm">0.005192</text>
<rect x="100" y="280" width="111" height="12" fill="#00f"/>
<rect x="261" y="280" width="87" height="12" fill="#00f"/>
<rect x="393" y="280" width="222" height="12" fill="#00f"/>
<rect x="673" y="280" width="319" height="12" fill="#00f"/>
<line x1="211" y1="286" x2="260" y2="286" stroke="#00f"/>
<line x1="348" y1="286" x2="392" y2="286" stroke="#00f"/>
<line x1="615" y1="286" x2="672" y2="286" stroke="#00f"/>
<rect x="424" y="281" width="191" height="10" fill="#ff0"/>
<rect x="674" y="281" width="107" height="10" fill="#ff0"/>
<text x="20" y="310" class="sm">0.003707</text>
<rect x="100" y="300" width="113" height="12" fill="#00f"/>
<rect x="261" y="300" width="87" height="12" fill="#00f"/>
<rect x="393" y="300" width="222" height="12" fill="#00f"/>
<rect x="673" y="300" width="319" height="12" fill="#00f"/>
<line x1="213" y1="306" x2="260" y2="306" stroke="#00f"/>
<line x1="348" y1="306" x2="392" y2="306" stroke="#00f"/>
<line x1="615" y1="306" x2="672" y2="306" stroke="#00f"/>
<rect x="424" y="301" width="191" height="10" fill="#ff0"/>
<rect x="674" y="301" width="107" height="10" fill="#ff0"/>
<text x="20" y="330" class="sm">0.003227</text>
<rect x="100" y="320" width="111" height="12" fill="#00f"/>
<rect x="261" y="320" width="77" height="12" fill="#00f"/>
<rect x="393" y="320" width="103" height="12" fill="#00f"/>
<rect x="673" y="320" width="319" height="12" fill="#00f"/>
<line x1="211" y1="326" x2="260" y2="326" stroke="#00f"/>
<line x1="338" y1="326" x2="392" y2="326" stroke="#00f"/>
<line x1="496" y1="326" x2="672" y2="326" stroke="#00f"/>
<rect x="207" y="321" width="4" height="10" fill="#ff0"/>
<rect x="262" y="321" width="76" height="10" fill="#ff0"/>
<rect x="394" y="321" width="82" height="10" fill="#ff0"/>
<text x="20" y="350" class="sm">0.002729</text>
<rect x="100" y="340" width="40" height="12" fill="#00f"/>
<rect x="187" y="340" width="26" height="12" fill="#00f"/>
<rect x="261" y="340" width="77" height="12" fill="#00f"/>
<rect x="393" y="340" width="599" height="12" fill="#00f"/>
<line x1="140" y1="346" x2="186" y2="346" stroke="#00f"/>
<line x1="213" y1="346" x2="260" y2="346" stroke="#00f"/>
<line x1="338" y1="346" x2="392" y2="346" stroke="#00f"/>
<rect x="207" y="341" width="6" height="10" fill="#ff0"/>
<rect x="262" y="341" width="76" height="10" fill="#ff0"/>
<rect x="394" y="341" width="230" height="10" fill="#ff0"/>
<text x="20" y="370" class="sm">0.002436</text>
<rect x="100" y="360" width="117" height="12" fill="#00f"/>
<rect x="261" y="360" width="77" height="12" fill="#00f"/>
<rect x="393" y="360" width="222" height="12" fill="#00f"/>
<rect x="673" y="360" width="319" height="12" fill="#00f"/>
<line x1="217" y1="366" x2="260" y2="366" stroke="#00f"/>
<line x1="338" y1="366" x2="392" y2="366" stroke="#00f"/>
<line x1="615" y1="366" x2="672" y2="366" stroke="#00f"/>
<rect x="424" y="361" width="191" height="10" fill="#ff0"/>
<rect x="674" y="361" width="107" height="10" fill="#ff0"/>
<text x="20" y="390" class="sm">0.002304</text>
<rect x="100" y="380" width="113" height="12" fill="#00f"/>
<rect x="261" y="380" width="77" height="12" fill="#00f"/>
<rect x="393" y="380" width="103" height="12" fill="#00f"/>
<rect x="673" y="380" width="319" height="12" fill="#00f"/>
<line x1="213" y1="386" x2="260" y2="386" stroke="#00f"/>
<line x1="338" y1="386" x2="392" y2="386" stroke="#00f"/>
<line x1="496" y1="386" x2="672" y2="386" stroke="#00f"/>
<rect x="207" y="381" width="6" height="10" fill="#ff0"/>
<rect x="262" y="381" width="76" height="10" fill="#ff0"/>
<rect x="394" y="381" width="102" height="10" fill="#ff0"/>
<rect x="674" y="381" width="58" height="10" fill="#ff0"/>
<text x="20" y="410" class="sm">0.00183</text>
<rect x="100" y="400" width="111" height="12" fill="#00f"/>
<rect x="261" y="400" width="77" height="12" fill="#00f"/>
<rect x="393" y="400" width="47" height="12" fill="#00f"/>
<rect x="673" y="400" width="319" height="12" fill="#00f"/>
<line x1="211" y1="406" x2="260" y2="406" stroke="#00f"/>
<line x1="338" y1="406" x2="392" y2="406" stroke="#00f"/>
<line x1="440" y1="406" x2="672" y2="406" stroke="#00f"/>
<rect x="207" y="401" width="4" height="10" fill="#ff0"/>
<rect x="262" y="401" width="76" height="10" fill="#ff0"/>
<rect x="394" y="401" width="46" height="10" fill="#ff0"/>
<rect x="674" y="401" width="107" height="10" fill="#ff0"/>
<text x="20" y="430" class="sm">0.001307</text>
<rect x="100" y="420" width="113" height="12" fill="#00f"/>
<rect x="261" y="420" width="77" height="12" fill="#00f"/>
<rect x="393" y="420" width="47" height="12" fill="#00f"/>
<rect x="673" y="420" width="319" height="12" fill="#00f"/>
<line x1="213" y1="426" x2="260" y2="426" stroke="#00f"/>
<line x1="338" y1="426" x2="392" y2="426" stroke="#00f"/>
<line x1="440" y1="426" x2="672" y2="426" stroke="#00f"/>
<rect x="207" y="421" width="6" height="10" fill="#ff0"/>
<rect x="262" y="421" width="76" height="10" fill="#ff0"/>
<rect x="394" y="421" width="46" height="10" fill="#ff0"/>
<rect x="674" y="421" width="12" height="10" fill="#ff0"/>
<text x="20" y="450" class="sm">0.0008922</text>
<rect x="100" y="440" width="111" height="12" fill="#00f"/>
<rect x="261" y="440" width="77" height="12" fill="#00f"/>
<rect x="393" y="440" width="151" height="12" fill="#00f"/>
<rect x="673" y="440" width="319" height="12" fill="#00f"/>
<line x1="211" y1="446" x2="260" y2="446" stroke="#00f"/>
<line x1="338" y1="446" x2="392" y2="446" stroke="#00f"/>
<line x1="544" y1="446" x2="672" y2="446" stroke="#00f"/>
<rect x="424" y="441" width="120" height="10" fill="#ff0"/>
<rect x="674" y="441" width="58" height="10" fill="#ff0"/>
<text x="20" y="470" class="sm">0.0007897</text>
<rect x="100" y="460" width="111" height="12" fill="#00f"/>
<rect x="261" y="460" width="77" height="12" fill="#00f"/>
<rect x="393" y="460" width="151" height="12" fill="#00f"/>
<rect x="604" y="460" width="388" height="12" fill="#00f"/>
<line x1="211" y1="466" x2="260" y2="466" stroke="#00f"/>
<line x1="338" y1="466" x2="392" y2="466" stroke="#00f"/>
<line x1="544" y1="466" x2="603" y2="466" stroke="#00f"/>
<rect x="207" y="461" width="4" height="10" fill="#ff0"/>
<rect x="262" y="461" width="76" height="10" fill="#ff0"/>
<rect x="394" y="461" width="82" height="10" fill="#ff0"/>
<text x="20" y="490" class="sm">0.0007417</text>
<rect x="100" y="480" width="111" height="12" fill="#00f"/>
<rect x="261" y="480" width="77" height="12" fill="#00f"/>
<rect x="393" y="480" width="103" height="12" fill="#00f"/>
<rect x="558" y="480" width="434" height="12" fill="#00f"/>
<line x1="211" y1="486" x2="260" y2="486" stroke="#00f"/>
<line x1="338" y1="486" x2="392" y2="486" stroke="#00f"/>
<line x1="496" y1="486" x2="557" y2="486" stroke="#00f"/>
<rect x="207" y="481" width="4" height="10" fill="#ff0"/>
<rect x="262" y="481" width="76" height="10" fill="#ff0"/>
<rect x="394" y="481" width="82" height="10" fill="#ff0"/>
<text x="20" y="510" class="sm">0.000637</text>
<rect x="100" y="500" width="113" height="12" fill="#00f"/>
<rect x="261" y="500" width="77" height="12" fill="#00f"/>
<rect x="393" y="500" width="151" height="12" fill="#00f"/>
<rect x="673" y="500" width="319" height="12" fill="#00f"/>
<line x1="213" y1="506" x2="260" y2="506" stroke="#00f"/>
<line x1="338" y1="506" x2="392" y2="506" stroke="#00f"/>
<line x1="544" y1="506" x2="672" y2="506" stroke="#00f"/>
<rect x="207" y="501" width="6" height="10" fill="#ff0"/>
<rect x="262" y="501" width="76" height="10" fill="#ff0"/>
<rect x="394" y="501" width="150" height="10" fill="#ff0"/>
<rect x="674" y="501" width="58" height="10" fill="#ff0"/>
<text x="20" y="530" class="sm">0.0005638</text>
<rect x="100" y="520" width="113" height="12" fill="#00f"/>
<rect x="261" y="520" width="77" height="12" fill="#00f"/>
<rect x="393" y="520" width="151" height="12" fill="#00f"/>
<rect x="604" y="520" width="388" height="12" fill="#00f"/>
<line x1="213" y1="526" x2="260" y2="526" stroke="#00f"/>
<line x1="338" y1="526" x2="392" y2="526" stroke="#00f"/>
<line x1="544" y1="526" x2="603" y2="526" stroke="#00f"/>
<rect x="207" y="521" width="6" height="10" fill="#ff0"/>
<rect x="262" y="521" width="76" height="10" fill="#ff0"/>
<rect x="394" y="521" width="150" height="10" fill="#ff0"/>
<rect x="605" y="521" width="19" height="10" fill="#ff0"/>
<text x="20" y="550" class="sm">0.0005296</text>
<rect x="100" y="540" width="113" height="12" fill="#00f"/>
<rect x="261" y="540" width="77" height="12" fill="#00f"/>
<rect x="393" y="540" width="103" height="12" fill="#00f"/>
<rect x="558" y="540" width="434" height="12" fill="#00f"/>
<line x1="213" y1="546" x2="260" y2="546" stroke="#00f"/>
<line x1="338" y1="546" x2="392" y2="546" stroke="#00f"/>
<line x1="496" y1="546" x2="557" y2="546" stroke="#00f"/>
<rect x="207" y="541" width="6" height="10" fill="#ff0"/>
<rect x="262" y="541" width="76" height="10" fill="#ff0"/>
<rect x="394" y="541" width="102" height="10" fill="#ff0"/>
<rect x="559" y="541" width="37" height="10" fill="#ff0"/>
<text x="20" y="570" class="sm">0.0004466</text>
<rect x="100" y="560" width="111" height="12" fill="#00f"/>
<rect x="261" y="560" width="77" height="12" fill="#00f"/>
<rect x="393" y="560" width="103" height="12" fill="#00f"/>
<rect x="545" y="560" width="447" height="12" fill="#00f"/>
<line x1="211" y1="566" x2="260" y2="566" stroke="#00f"/>
<line x1="338" y1="566" x2="392" y2="566" stroke="#00f"/>
<line x1="496" y1="566" x2="544" y2="566" stroke="#00f"/>
<rect x="207" y="561" width="4" height="10" fill="#ff0"/>
<rect x="262" y="561" width="76" height="10" fill="#ff0"/>
<rect x="394" y="561" width="82" height="10" fill="#ff0"/>
</svg>
