<svg viewBox="0 0 1169 595" xmlns="http://www.w3.org/2000/svg">

<style>
  .sm { font: 12px sans-serif; }
  .lg { font: 15px sans-serif; }
</style>
<rect fill="#ddd" x="0" y="0" width="100%" height="100%"/>
<text x="20" y="20" class="lg">ch.4644 II:6700557-6701725 Gene:WBGene00016004</text>
<text x="20" y="50" class="sm">WormBase</text>
<rect x="102" y="40" width="376" height="12" fill="#00f"/>
<rect x="527" y="40" width="78" height="12" fill="#00f"/>
<rect x="691" y="40" width="75" height="12" fill="#00f"/>
<rect x="819" y="40" width="252" height="12" fill="#00f"/>
<line x1="478" y1="46" x2="526" y2="46" stroke="#00f"/>
<line x1="605" y1="46" x2="690" y2="46" stroke="#00f"/>
<line x1="766" y1="46" x2="818" y2="46" stroke="#00f"/>
<rect x="315" y="41" width="163" height="10" fill="#ff0"/>
<rect x="528" y="41" width="77" height="10" fill="#ff0"/>
<rect x="692" y="41" width="74" height="10" fill="#ff0"/>
<rect x="820" y="41" width="207" height="10" fill="#ff0"/>
<rect x="103" y="41" width="211" height="10" fill="brown"><title>.</title></rect>
<rect x="1028" y="41" width="43" height="10" fill="brown"><title>.</title></rect>
<text x="20" y="70" class="sm">Fitness: 0.1824143442249647</text>
<rect x="478" y="65" width="49" height="5" fill="#00f"><title>572448.0</title></rect>
<rect x="605" y="70" width="86" height="5" fill="#00f"><title>497744.0</title></rect>
<rect x="766" y="75" width="53" height="5" fill="#00f"><title>429845.0</title></rect>
<rect x="482" y="80" width="48" height="5" fill="#00f"><title>1009.0</title></rect>
<rect x="605" y="85" width="108" height="5" fill="#00f"><title>997.0</title></rect>
<rect x="766" y="90" width="61" height="5" fill="#00f"><title>720.0</title></rect>
<rect x="605" y="95" width="88" height="5" fill="#00f"><title>205.0</title></rect>
<rect x="766" y="100" width="39" height="5" fill="#00f"><title>175.0</title></rect>
<rect x="770" y="105" width="49" height="5" fill="#00f"><title>112.0</title></rect>
<rect x="605" y="110" width="46" height="5" fill="#00f"><title>40.0</title></rect>
<rect x="485" y="115" width="48" height="5" fill="#f0f"><title>29.0</title></rect>
<rect x="605" y="120" width="61" height="5" fill="#00f"><title>26.0</title></rect>
<rect x="605" y="125" width="121" height="5" fill="#00f"><title>24.0</title></rect>
<rect x="341" y="130" width="55" height="5" fill="#00f"><title>20.0</title></rect>
<rect x="636" y="135" width="55" height="5" fill="#00f"><title>18.0</title></rect>
<rect x="761" y="140" width="58" height="5" fill="#00f"><title>12.0</title></rect>
<rect x="579" y="145" width="134" height="5" fill="#00f"><title>9.0</title></rect>
<rect x="338" y="150" width="58" height="5" fill="#f0f"><title>9.0</title></rect>
<rect x="337" y="155" width="59" height="5" fill="#f0f"><title>9.0</title></rect>
<text x="20" y="185" class="sm">0.8339</text>
<rect x="100" y="175" width="378" height="12" fill="#00f"/>
<rect x="527" y="175" width="78" height="12" fill="#00f"/>
<rect x="691" y="175" width="75" height="12" fill="#00f"/>
<rect x="819" y="175" width="253" height="12" fill="#00f"/>
<line x1="478" y1="181" x2="526" y2="181" stroke="#00f"/>
<line x1="605" y1="181" x2="690" y2="181" stroke="#00f"/>
<line x1="766" y1="181" x2="818" y2="181" stroke="#00f"/>
<rect x="315" y="176" width="163" height="10" fill="#ff0"/>
<rect x="528" y="176" width="77" height="10" fill="#ff0"/>
<rect x="692" y="176" width="74" height="10" fill="#ff0"/>
<rect x="820" y="176" width="207" height="10" fill="#ff0"/>
<text x="20" y="205" class="sm">0.04172</text>
<rect x="100" y="195" width="378" height="12" fill="#00f"/>
<rect x="527" y="195" width="46" height="12" fill="#00f"/>
<rect x="691" y="195" width="75" height="12" fill="#00f"/>
<rect x="819" y="195" width="253" height="12" fill="#00f"/>
<line x1="478" y1="201" x2="526" y2="201" stroke="#00f"/>
<line x1="573" y1="201" x2="690" y2="201" stroke="#00f"/>
<line x1="766" y1="201" x2="818" y2="201" stroke="#00f"/>
<rect x="315" y="196" width="163" height="10" fill="#ff0"/>
<rect x="528" y="196" width="45" height="10" fill="#ff0"/>
<rect x="692" y="196" width="8" height="10" fill="#ff0"/>
<text x="20" y="225" class="sm">0.02881</text>
<rect x="100" y="215" width="378" height="12" fill="#00f"/>
<rect x="527" y="215" width="78" height="12" fill="#00f"/>
<rect x="691" y="215" width="79" height="12" fill="#00f"/>
<rect x="819" y="215" width="253" height="12" fill="#00f"/>
<line x1="478" y1="221" x2="526" y2="221" stroke="#00f"/>
<line x1="605" y1="221" x2="690" y2="221" stroke="#00f"/>
<line x1="770" y1="221" x2="818" y2="221" stroke="#00f"/>
<rect x="315" y="216" width="163" height="10" fill="#ff0"/>
<rect x="528" y="216" width="77" height="10" fill="#ff0"/>
<rect x="692" y="216" width="78" height="10" fill="#ff0"/>
<text x="20" y="245" class="sm">0.02722</text>
<rect x="100" y="235" width="378" height="12" fill="#00f"/>
<rect x="527" y="235" width="52" height="12" fill="#00f"/>
<rect x="691" y="235" width="75" height="12" fill="#00f"/>
<rect x="819" y="235" width="253" height="12" fill="#00f"/>
<line x1="478" y1="241" x2="526" y2="241" stroke="#00f"/>
<line x1="579" y1="241" x2="690" y2="241" stroke="#00f"/>
<line x1="766" y1="241" x2="818" y2="241" stroke="#00f"/>
<rect x="315" y="236" width="163" height="10" fill="#ff0"/>
<rect x="528" y="236" width="51" height="10" fill="#ff0"/>
<rect x="692" y="236" width="8" height="10" fill="#ff0"/>
<text x="20" y="265" class="sm">0.01672</text>
<rect x="100" y="255" width="378" height="12" fill="#00f"/>
<rect x="527" y="255" width="97" height="12" fill="#00f"/>
<rect x="691" y="255" width="75" height="12" fill="#00f"/>
<rect x="819" y="255" width="253" height="12" fill="#00f"/>
<line x1="478" y1="261" x2="526" y2="261" stroke="#00f"/>
<line x1="624" y1="261" x2="690" y2="261" stroke="#00f"/>
<line x1="766" y1="261" x2="818" y2="261" stroke="#00f"/>
<rect x="315" y="256" width="163" height="10" fill="#ff0"/>
<rect x="528" y="256" width="96" height="10" fill="#ff0"/>
<rect x="692" y="256" width="8" height="10" fill="#ff0"/>
<text x="20" y="285" class="sm">0.01313</text>
<rect x="100" y="275" width="378" height="12" fill="#00f"/>
<rect x="527" y="275" width="109" height="12" fill="#00f"/>
<rect x="691" y="275" width="75" height="12" fill="#00f"/>
<rect x="819" y="275" width="253" height="12" fill="#00f"/>
<line x1="478" y1="281" x2="526" y2="281" stroke="#00f"/>
<line x1="636" y1="281" x2="690" y2="281" stroke="#00f"/>
<line x1="766" y1="281" x2="818" y2="281" stroke="#00f"/>
<rect x="623" y="276" width="13" height="10" fill="#ff0"/>
<rect x="692" y="276" width="74" height="10" fill="#ff0"/>
<rect x="820" y="276" width="207" height="10" fill="#ff0"/>
<text x="20" y="305" class="sm">0.009245</text>
<rect x="100" y="295" width="378" height="12" fill="#00f"/>
<rect x="527" y="295" width="78" height="12" fill="#00f"/>
<rect x="691" y="295" width="70" height="12" fill="#00f"/>
<rect x="819" y="295" width="253" height="12" fill="#00f"/>
<line x1="478" y1="301" x2="526" y2="301" stroke="#00f"/>
<line x1="605" y1="301" x2="690" y2="301" stroke="#00f"/>
<line x1="761" y1="301" x2="818" y2="301" stroke="#00f"/>
<rect x="315" y="296" width="163" height="10" fill="#ff0"/>
<rect x="528" y="296" width="77" height="10" fill="#ff0"/>
<rect x="692" y="296" width="69" height="10" fill="#ff0"/>
<rect x="820" y="296" width="2" height="10" fill="#ff0"/>
<text x="20" y="325" class="sm">0.006195</text>
<rect x="100" y="315" width="382" height="12" fill="#00f"/>
<rect x="527" y="315" width="78" height="12" fill="#00f"/>
<rect x="691" y="315" width="75" height="12" fill="#00f"/>
<rect x="819" y="315" width="253" height="12" fill="#00f"/>
<line x1="482" y1="321" x2="526" y2="321" stroke="#00f"/>
<line x1="605" y1="321" x2="690" y2="321" stroke="#00f"/>
<line x1="766" y1="321" x2="818" y2="321" stroke="#00f"/>
<rect x="397" y="316" width="85" height="10" fill="#ff0"/>
<rect x="528" y="316" width="77" height="10" fill="#ff0"/>
<rect x="692" y="316" width="74" height="10" fill="#ff0"/>
<rect x="820" y="316" width="207" height="10" fill="#ff0"/>
<text x="20" y="345" class="sm">0.005707</text>
<rect x="100" y="335" width="157" height="12" fill="#00f"/>
<rect x="527" y="335" width="78" height="12" fill="#00f"/>
<rect x="691" y="335" width="75" height="12" fill="#00f"/>
<rect x="819" y="335" width="253" height="12" fill="#00f"/>
<line x1="257" y1="341" x2="526" y2="341" stroke="#00f"/>
<line x1="605" y1="341" x2="690" y2="341" stroke="#00f"/>
<line x1="766" y1="341" x2="818" y2="341" stroke="#00f"/>
<rect x="577" y="336" width="28" height="10" fill="#ff0"/>
<rect x="692" y="336" width="74" height="10" fill="#ff0"/>
<rect x="820" y="336" width="207" height="10" fill="#ff0"/>
<text x="20" y="365" class="sm">0.005047</text>
<rect x="100" y="355" width="378" height="12" fill="#00f"/>
<rect x="527" y="355" width="41" height="12" fill="#00f"/>
<rect x="691" y="355" width="75" height="12" fill="#00f"/>
<rect x="819" y="355" width="253" height="12" fill="#00f"/>
<line x1="478" y1="361" x2="526" y2="361" stroke="#00f"/>
<line x1="568" y1="361" x2="690" y2="361" stroke="#00f"/>
<line x1="766" y1="361" x2="818" y2="361" stroke="#00f"/>
<rect x="315" y="356" width="163" height="10" fill="#ff0"/>
<rect x="528" y="356" width="40" height="10" fill="#ff0"/>
<rect x="692" y="356" width="74" height="10" fill="#ff0"/>
<rect x="820" y="356" width="7" height="10" fill="#ff0"/>
<text x="20" y="385" class="sm">0.004164</text>
<rect x="100" y="375" width="378" height="12" fill="#00f"/>
<rect x="527" y="375" width="78" height="12" fill="#00f"/>
<rect x="691" y="375" width="64" height="12" fill="#00f"/>
<rect x="819" y="375" width="253" height="12" fill="#00f"/>
<line x1="478" y1="381" x2="526" y2="381" stroke="#00f"/>
<line x1="605" y1="381" x2="690" y2="381" stroke="#00f"/>
<line x1="755" y1="381" x2="818" y2="381" stroke="#00f"/>
<rect x="315" y="376" width="163" height="10" fill="#ff0"/>
<rect x="528" y="376" width="77" height="10" fill="#ff0"/>
<rect x="692" y="376" width="63" height="10" fill="#ff0"/>
<rect x="820" y="376" width="2" height="10" fill="#ff0"/>
<text x="20" y="405" class="sm">0.001674</text>
<rect x="100" y="395" width="201" height="12" fill="#00f"/>
<rect x="527" y="395" width="78" height="12" fill="#00f"/>
<rect x="691" y="395" width="75" height="12" fill="#00f"/>
<rect x="819" y="395" width="253" height="12" fill="#00f"/>
<line x1="301" y1="401" x2="526" y2="401" stroke="#00f"/>
<line x1="605" y1="401" x2="690" y2="401" stroke="#00f"/>
<line x1="766" y1="401" x2="818" y2="401" stroke="#00f"/>
<rect x="577" y="396" width="28" height="10" fill="#ff0"/>
<rect x="692" y="396" width="74" height="10" fill="#ff0"/>
<rect x="820" y="396" width="207" height="10" fill="#ff0"/>
<text x="20" y="425" class="sm">0.001442</text>
<rect x="100" y="415" width="378" height="12" fill="#00f"/>
<rect x="527" y="415" width="46" height="12" fill="#00f"/>
<rect x="691" y="415" width="79" height="12" fill="#00f"/>
<rect x="819" y="415" width="253" height="12" fill="#00f"/>
<line x1="478" y1="421" x2="526" y2="421" stroke="#00f"/>
<line x1="573" y1="421" x2="690" y2="421" stroke="#00f"/>
<line x1="770" y1="421" x2="818" y2="421" stroke="#00f"/>
<rect x="697" y="416" width="73" height="10" fill="#ff0"/>
<rect x="820" y="416" width="207" height="10" fill="#ff0"/>
<text x="20" y="445" class="sm">0.001022</text>
<rect x="100" y="435" width="338" height="12" fill="#00f"/>
<rect x="527" y="435" width="78" height="12" fill="#00f"/>
<rect x="691" y="435" width="75" height="12" fill="#00f"/>
<rect x="819" y="435" width="253" height="12" fill="#00f"/>
<line x1="438" y1="441" x2="526" y2="441" stroke="#00f"/>
<line x1="605" y1="441" x2="690" y2="441" stroke="#00f"/>
<line x1="766" y1="441" x2="818" y2="441" stroke="#00f"/>
<rect x="577" y="436" width="28" height="10" fill="#ff0"/>
<rect x="692" y="436" width="74" height="10" fill="#ff0"/>
<rect x="820" y="436" width="207" height="10" fill="#ff0"/>
<text x="20" y="465" class="sm">0.0009406</text>
<rect x="100" y="455" width="378" height="12" fill="#00f"/>
<rect x="527" y="455" width="52" height="12" fill="#00f"/>
<rect x="691" y="455" width="79" height="12" fill="#00f"/>
<rect x="819" y="455" width="253" height="12" fill="#00f"/>
<line x1="478" y1="461" x2="526" y2="461" stroke="#00f"/>
<line x1="579" y1="461" x2="690" y2="461" stroke="#00f"/>
<line x1="770" y1="461" x2="818" y2="461" stroke="#00f"/>
<rect x="697" y="456" width="73" height="10" fill="#ff0"/>
<rect x="820" y="456" width="207" height="10" fill="#ff0"/>
<text x="20" y="485" class="sm">0.0008092</text>
<rect x="100" y="475" width="201" height="12" fill="#00f"/>
<rect x="359" y="475" width="119" height="12" fill="#00f"/>
<rect x="691" y="475" width="75" height="12" fill="#00f"/>
<rect x="819" y="475" width="253" height="12" fill="#00f"/>
<line x1="301" y1="481" x2="358" y2="481" stroke="#00f"/>
<line x1="478" y1="481" x2="690" y2="481" stroke="#00f"/>
<line x1="766" y1="481" x2="818" y2="481" stroke="#00f"/>
<rect x="272" y="476" width="29" height="10" fill="#ff0"/>
<rect x="360" y="476" width="118" height="10" fill="#ff0"/>
<rect x="692" y="476" width="74" height="10" fill="#ff0"/>
<rect x="820" y="476" width="207" height="10" fill="#ff0"/>
<text x="20" y="505" class="sm">0.0007635</text>
<rect x="100" y="495" width="157" height="12" fill="#00f"/>
<rect x="359" y="495" width="119" height="12" fill="#00f"/>
<rect x="691" y="495" width="75" height="12" fill="#00f"/>
<rect x="819" y="495" width="253" height="12" fill="#00f"/>
<line x1="257" y1="501" x2="358" y2="501" stroke="#00f"/>
<line x1="478" y1="501" x2="690" y2="501" stroke="#00f"/>
<line x1="766" y1="501" x2="818" y2="501" stroke="#00f"/>
<rect x="857" y="496" width="170" height="10" fill="#ff0"/>
<text x="20" y="525" class="sm">0.0005777</text>
<rect x="100" y="515" width="378" height="12" fill="#00f"/>
<rect x="527" y="515" width="97" height="12" fill="#00f"/>
<rect x="691" y="515" width="79" height="12" fill="#00f"/>
<rect x="819" y="515" width="253" height="12" fill="#00f"/>
<line x1="478" y1="521" x2="526" y2="521" stroke="#00f"/>
<line x1="624" y1="521" x2="690" y2="521" stroke="#00f"/>
<line x1="770" y1="521" x2="818" y2="521" stroke="#00f"/>
<rect x="697" y="516" width="73" height="10" fill="#ff0"/>
<rect x="820" y="516" width="207" height="10" fill="#ff0"/>
<text x="20" y="545" class="sm">0.0004626</text>
<rect x="100" y="535" width="378" height="12" fill="#00f"/>
<rect x="527" y="535" width="46" height="12" fill="#00f"/>
<rect x="691" y="535" width="70" height="12" fill="#00f"/>
<rect x="819" y="535" width="253" height="12" fill="#00f"/>
<line x1="478" y1="541" x2="526" y2="541" stroke="#00f"/>
<line x1="573" y1="541" x2="690" y2="541" stroke="#00f"/>
<line x1="761" y1="541" x2="818" y2="541" stroke="#00f"/>
<rect x="697" y="536" width="64" height="10" fill="#ff0"/>
<rect x="820" y="536" width="207" height="10" fill="#ff0"/>
<text x="20" y="565" class="sm">0.0004535</text>
<rect x="100" y="555" width="378" height="12" fill="#00f"/>
<rect x="527" y="555" width="109" height="12" fill="#00f"/>
<rect x="691" y="555" width="79" height="12" fill="#00f"/>
<rect x="819" y="555" width="253" height="12" fill="#00f"/>
<line x1="478" y1="561" x2="526" y2="561" stroke="#00f"/>
<line x1="636" y1="561" x2="690" y2="561" stroke="#00f"/>
<line x1="770" y1="561" x2="818" y2="561" stroke="#00f"/>
<rect x="697" y="556" width="73" height="10" fill="#ff0"/>
<rect x="820" y="556" width="207" height="10" fill="#ff0"/>
</svg>
