<svg viewBox="0 0 735 535" xmlns="http://www.w3.org/2000/svg">

<style>
  .sm { font: 12px sans-serif; }
  .lg { font: 15px sans-serif; }
</style>
<rect fill="#ddd" x="0" y="0" width="100%" height="100%"/>
<text x="20" y="20" class="lg">ch.4775 II:7211525-7212259 Gene:WBGene00017128</text>
<text x="20" y="50" class="sm">WormBase</text>
<rect x="102" y="40" width="87" height="12" fill="#00f"/>
<rect x="235" y="40" width="225" height="12" fill="#00f"/>
<rect x="504" y="40" width="133" height="12" fill="#00f"/>
<line x1="189" y1="46" x2="234" y2="46" stroke="#00f"/>
<line x1="460" y1="46" x2="503" y2="46" stroke="#00f"/>
<rect x="106" y="41" width="83" height="10" fill="#ff0"/>
<rect x="236" y="41" width="224" height="10" fill="#ff0"/>
<rect x="505" y="41" width="77" height="10" fill="#ff0"/>
<rect x="103" y="41" width="2" height="10" fill="brown"><title>.</title></rect>
<rect x="583" y="41" width="54" height="10" fill="brown"><title>.</title></rect>
<text x="20" y="70" class="sm">Fitness: 0.049799418196341656</text>
<rect x="460" y="65" width="44" height="5" fill="#00f"><title>1080880.0</title></rect>
<rect x="189" y="70" width="46" height="5" fill="#00f"><title>893437.0</title></rect>
<rect x="183" y="75" width="52" height="5" fill="#00f"><title>3354.0</title></rect>
<rect x="203" y="80" width="242" height="5" fill="#f0f"><title>153.0</title></rect>
<rect x="277" y="85" width="150" height="5" fill="#00f"><title>4.0</title></rect>
<rect x="196" y="90" width="46" height="5" fill="#00f"><title>4.0</title></rect>
<rect x="193" y="95" width="49" height="5" fill="#00f"><title>3.0</title></rect>
<text x="20" y="125" class="sm">0.7888</text>
<rect x="100" y="115" width="89" height="12" fill="#00f"/>
<rect x="235" y="115" width="225" height="12" fill="#00f"/>
<rect x="504" y="115" width="134" height="12" fill="#00f"/>
<line x1="189" y1="121" x2="234" y2="121" stroke="#00f"/>
<line x1="460" y1="121" x2="503" y2="121" stroke="#00f"/>
<rect x="106" y="116" width="83" height="10" fill="#ff0"/>
<rect x="236" y="116" width="224" height="10" fill="#ff0"/>
<rect x="505" y="116" width="77" height="10" fill="#ff0"/>
<text x="20" y="145" class="sm">0.1629</text>
<rect x="100" y="135" width="360" height="12" fill="#00f"/>
<rect x="504" y="135" width="134" height="12" fill="#00f"/>
<line x1="460" y1="141" x2="503" y2="141" stroke="#00f"/>
<rect x="258" y="136" width="202" height="10" fill="#ff0"/>
<rect x="505" y="136" width="120" height="10" fill="#ff0"/>
<text x="20" y="165" class="sm">0.02286</text>
<rect x="100" y="155" width="83" height="12" fill="#00f"/>
<rect x="235" y="155" width="225" height="12" fill="#00f"/>
<rect x="504" y="155" width="134" height="12" fill="#00f"/>
<line x1="183" y1="161" x2="234" y2="161" stroke="#00f"/>
<line x1="460" y1="161" x2="503" y2="161" stroke="#00f"/>
<rect x="106" y="156" width="77" height="10" fill="#ff0"/>
<rect x="236" y="156" width="224" height="10" fill="#ff0"/>
<rect x="505" y="156" width="77" height="10" fill="#ff0"/>
<text x="20" y="185" class="sm">0.01744</text>
<rect x="100" y="175" width="96" height="12" fill="#00f"/>
<rect x="235" y="175" width="225" height="12" fill="#00f"/>
<rect x="504" y="175" width="134" height="12" fill="#00f"/>
<line x1="196" y1="181" x2="234" y2="181" stroke="#00f"/>
<line x1="460" y1="181" x2="503" y2="181" stroke="#00f"/>
<rect x="161" y="176" width="35" height="10" fill="#ff0"/>
<rect x="236" y="176" width="224" height="10" fill="#ff0"/>
<rect x="505" y="176" width="77" height="10" fill="#ff0"/>
<text x="20" y="205" class="sm">0.002694</text>
<rect x="100" y="195" width="89" height="12" fill="#00f"/>
<rect x="415" y="195" width="45" height="12" fill="#00f"/>
<rect x="504" y="195" width="134" height="12" fill="#00f"/>
<line x1="189" y1="201" x2="414" y2="201" stroke="#00f"/>
<line x1="460" y1="201" x2="503" y2="201" stroke="#00f"/>
<rect x="106" y="196" width="83" height="10" fill="#ff0"/>
<rect x="416" y="196" width="44" height="10" fill="#ff0"/>
<rect x="505" y="196" width="77" height="10" fill="#ff0"/>
<text x="20" y="225" class="sm">0.001224</text>
<rect x="100" y="215" width="89" height="12" fill="#00f"/>
<rect x="235" y="215" width="225" height="12" fill="#00f"/>
<rect x="553" y="215" width="85" height="12" fill="#00f"/>
<line x1="189" y1="221" x2="234" y2="221" stroke="#00f"/>
<line x1="460" y1="221" x2="552" y2="221" stroke="#00f"/>
<rect x="106" y="216" width="83" height="10" fill="#ff0"/>
<rect x="236" y="216" width="224" height="10" fill="#ff0"/>
<rect x="554" y="216" width="71" height="10" fill="#ff0"/>
<text x="20" y="245" class="sm">0.001172</text>
<rect x="100" y="235" width="96" height="12" fill="#00f"/>
<rect x="415" y="235" width="45" height="12" fill="#00f"/>
<rect x="504" y="235" width="134" height="12" fill="#00f"/>
<line x1="196" y1="241" x2="414" y2="241" stroke="#00f"/>
<line x1="460" y1="241" x2="503" y2="241" stroke="#00f"/>
<rect x="161" y="236" width="35" height="10" fill="#ff0"/>
<rect x="416" y="236" width="44" height="10" fill="#ff0"/>
<rect x="505" y="236" width="77" height="10" fill="#ff0"/>
<text x="20" y="265" class="sm">0.000877</text>
<rect x="100" y="255" width="89" height="12" fill="#00f"/>
<rect x="235" y="255" width="64" height="12" fill="#00f"/>
<rect x="415" y="255" width="45" height="12" fill="#00f"/>
<rect x="504" y="255" width="134" height="12" fill="#00f"/>
<line x1="189" y1="261" x2="234" y2="261" stroke="#00f"/>
<line x1="299" y1="261" x2="414" y2="261" stroke="#00f"/>
<line x1="460" y1="261" x2="503" y2="261" stroke="#00f"/>
<rect x="161" y="256" width="28" height="10" fill="#ff0"/>
<rect x="236" y="256" width="63" height="10" fill="#ff0"/>
<rect x="416" y="256" width="44" height="10" fill="#ff0"/>
<rect x="505" y="256" width="77" height="10" fill="#ff0"/>
<text x="20" y="285" class="sm">0.0005427</text>
<rect x="100" y="275" width="147" height="12" fill="#00f"/>
<rect x="415" y="275" width="45" height="12" fill="#00f"/>
<rect x="504" y="275" width="134" height="12" fill="#00f"/>
<line x1="247" y1="281" x2="414" y2="281" stroke="#00f"/>
<line x1="460" y1="281" x2="503" y2="281" stroke="#00f"/>
<rect x="106" y="276" width="141" height="10" fill="#ff0"/>
<rect x="416" y="276" width="44" height="10" fill="#ff0"/>
<rect x="505" y="276" width="1" height="10" fill="#ff0"/>
<text x="20" y="305" class="sm">0.0004519</text>
<rect x="100" y="295" width="93" height="12" fill="#00f"/>
<rect x="235" y="295" width="225" height="12" fill="#00f"/>
<rect x="504" y="295" width="134" height="12" fill="#00f"/>
<line x1="193" y1="301" x2="234" y2="301" stroke="#00f"/>
<line x1="460" y1="301" x2="503" y2="301" stroke="#00f"/>
<rect x="161" y="296" width="32" height="10" fill="#ff0"/>
<rect x="236" y="296" width="224" height="10" fill="#ff0"/>
<rect x="505" y="296" width="77" height="10" fill="#ff0"/>
<text x="20" y="325" class="sm">0.0002527</text>
<rect x="100" y="315" width="360" height="12" fill="#00f"/>
<rect x="553" y="315" width="85" height="12" fill="#00f"/>
<line x1="460" y1="321" x2="552" y2="321" stroke="#00f"/>
<rect x="258" y="316" width="202" height="10" fill="#ff0"/>
<rect x="554" y="316" width="12" height="10" fill="#ff0"/>
<text x="20" y="345" class="sm">0.0001869</text>
<rect x="100" y="335" width="89" height="12" fill="#00f"/>
<rect x="235" y="335" width="137" height="12" fill="#00f"/>
<rect x="415" y="335" width="45" height="12" fill="#00f"/>
<rect x="504" y="335" width="134" height="12" fill="#00f"/>
<line x1="189" y1="341" x2="234" y2="341" stroke="#00f"/>
<line x1="372" y1="341" x2="414" y2="341" stroke="#00f"/>
<line x1="460" y1="341" x2="503" y2="341" stroke="#00f"/>
<rect x="106" y="336" width="83" height="10" fill="#ff0"/>
<rect x="236" y="336" width="136" height="10" fill="#ff0"/>
<rect x="416" y="336" width="44" height="10" fill="#ff0"/>
<rect x="505" y="336" width="120" height="10" fill="#ff0"/>
<text x="20" y="365" class="sm">0.000174</text>
<rect x="100" y="355" width="89" height="12" fill="#00f"/>
<rect x="235" y="355" width="198" height="12" fill="#00f"/>
<rect x="472" y="355" width="166" height="12" fill="#00f"/>
<line x1="189" y1="361" x2="234" y2="361" stroke="#00f"/>
<line x1="433" y1="361" x2="471" y2="361" stroke="#00f"/>
<rect x="106" y="356" width="83" height="10" fill="#ff0"/>
<rect x="236" y="356" width="197" height="10" fill="#ff0"/>
<rect x="473" y="356" width="11" height="10" fill="#ff0"/>
<text x="20" y="385" class="sm">0.000126</text>
<rect x="100" y="375" width="199" height="12" fill="#00f"/>
<rect x="415" y="375" width="45" height="12" fill="#00f"/>
<rect x="504" y="375" width="134" height="12" fill="#00f"/>
<line x1="299" y1="381" x2="414" y2="381" stroke="#00f"/>
<line x1="460" y1="381" x2="503" y2="381" stroke="#00f"/>
<rect x="258" y="376" width="41" height="10" fill="#ff0"/>
<rect x="416" y="376" width="44" height="10" fill="#ff0"/>
<rect x="505" y="376" width="77" height="10" fill="#ff0"/>
<text x="20" y="405" class="sm">0.0001166</text>
<rect x="100" y="395" width="83" height="12" fill="#00f"/>
<rect x="415" y="395" width="45" height="12" fill="#00f"/>
<rect x="504" y="395" width="134" height="12" fill="#00f"/>
<line x1="183" y1="401" x2="414" y2="401" stroke="#00f"/>
<line x1="460" y1="401" x2="503" y2="401" stroke="#00f"/>
<rect x="106" y="396" width="77" height="10" fill="#ff0"/>
<rect x="416" y="396" width="44" height="10" fill="#ff0"/>
<rect x="505" y="396" width="77" height="10" fill="#ff0"/>
<text x="20" y="425" class="sm">8.119e-05</text>
<rect x="100" y="415" width="89" height="12" fill="#00f"/>
<rect x="472" y="415" width="166" height="12" fill="#00f"/>
<line x1="189" y1="421" x2="471" y2="421" stroke="#00f"/>
<rect x="491" y="416" width="134" height="10" fill="#ff0"/>
<text x="20" y="445" class="sm">3.87e-05</text>
<rect x="100" y="435" width="272" height="12" fill="#00f"/>
<rect x="415" y="435" width="45" height="12" fill="#00f"/>
<rect x="504" y="435" width="134" height="12" fill="#00f"/>
<line x1="372" y1="441" x2="414" y2="441" stroke="#00f"/>
<line x1="460" y1="441" x2="503" y2="441" stroke="#00f"/>
<rect x="258" y="436" width="114" height="10" fill="#ff0"/>
<rect x="416" y="436" width="44" height="10" fill="#ff0"/>
<rect x="505" y="436" width="1" height="10" fill="#ff0"/>
<text x="20" y="465" class="sm">3.76e-05</text>
<rect x="100" y="455" width="333" height="12" fill="#00f"/>
<rect x="472" y="455" width="166" height="12" fill="#00f"/>
<line x1="433" y1="461" x2="471" y2="461" stroke="#00f"/>
<rect x="258" y="456" width="175" height="10" fill="#ff0"/>
<rect x="473" y="456" width="15" height="10" fill="#ff0"/>
<text x="20" y="485" class="sm">3.547e-05</text>
<rect x="100" y="475" width="83" height="12" fill="#00f"/>
<rect x="235" y="475" width="225" height="12" fill="#00f"/>
<rect x="553" y="475" width="85" height="12" fill="#00f"/>
<line x1="183" y1="481" x2="234" y2="481" stroke="#00f"/>
<line x1="460" y1="481" x2="552" y2="481" stroke="#00f"/>
<rect x="106" y="476" width="77" height="10" fill="#ff0"/>
<rect x="236" y="476" width="224" height="10" fill="#ff0"/>
<rect x="554" y="476" width="71" height="10" fill="#ff0"/>
<text x="20" y="505" class="sm">3.064e-05</text>
<rect x="100" y="495" width="89" height="12" fill="#00f"/>
<rect x="235" y="495" width="111" height="12" fill="#00f"/>
<rect x="415" y="495" width="45" height="12" fill="#00f"/>
<rect x="504" y="495" width="134" height="12" fill="#00f"/>
<line x1="189" y1="501" x2="234" y2="501" stroke="#00f"/>
<line x1="346" y1="501" x2="414" y2="501" stroke="#00f"/>
<line x1="460" y1="501" x2="503" y2="501" stroke="#00f"/>
<rect x="106" y="496" width="83" height="10" fill="#ff0"/>
<rect x="236" y="496" width="110" height="10" fill="#ff0"/>
<rect x="416" y="496" width="44" height="10" fill="#ff0"/>
<rect x="505" y="496" width="77" height="10" fill="#ff0"/>
</svg>
