<svg viewBox="0 0 943 540" xmlns="http://www.w3.org/2000/svg">

<style>
  .sm { font: 12px sans-serif; }
  .lg { font: 15px sans-serif; }
</style>
<rect fill="#ddd" x="0" y="0" width="100%" height="100%"/>
<text x="20" y="20" class="lg">ch.4807 II:7374395-7375337 Gene:WBGene00018391</text>
<text x="20" y="50" class="sm">WormBase</text>
<rect x="100" y="40" width="87" height="12" fill="#00f"/>
<rect x="250" y="40" width="110" height="12" fill="#00f"/>
<rect x="432" y="40" width="411" height="12" fill="#00f"/>
<line x1="187" y1="46" x2="249" y2="46" stroke="#00f"/>
<line x1="360" y1="46" x2="431" y2="46" stroke="#00f"/>
<rect x="112" y="41" width="75" height="10" fill="#ff0"/>
<rect x="251" y="41" width="109" height="10" fill="#ff0"/>
<rect x="433" y="41" width="248" height="10" fill="#ff0"/>
<rect x="101" y="41" width="10" height="10" fill="brown"><title>.</title></rect>
<rect x="682" y="41" width="161" height="10" fill="brown"><title>.</title></rect>
<text x="20" y="70" class="sm">Fitness: 0.056355925210544146</text>
<rect x="187" y="65" width="63" height="5" fill="#00f"><title>1058410.0</title></rect>
<rect x="360" y="70" width="72" height="5" fill="#00f"><title>946716.0</title></rect>
<rect x="49" y="75" width="59" height="5" fill="#00f"><title>977.0</title></rect>
<rect x="363" y="80" width="69" height="5" fill="#00f"><title>342.0</title></rect>
<rect x="187" y="85" width="245" height="5" fill="#00f"><title>16.0</title></rect>
<rect x="380" y="90" width="52" height="5" fill="#00f"><title>5.0</title></rect>
<rect x="372" y="95" width="74" height="5" fill="#f0f"><title>4.0</title></rect>
<rect x="291" y="100" width="141" height="5" fill="#00f"><title>3.0</title></rect>
<text x="20" y="130" class="sm">0.9999</text>
<rect x="100" y="120" width="87" height="12" fill="#00f"/>
<rect x="250" y="120" width="110" height="12" fill="#00f"/>
<rect x="432" y="120" width="414" height="12" fill="#00f"/>
<line x1="187" y1="126" x2="249" y2="126" stroke="#00f"/>
<line x1="360" y1="126" x2="431" y2="126" stroke="#00f"/>
<rect x="112" y="121" width="75" height="10" fill="#ff0"/>
<rect x="251" y="121" width="109" height="10" fill="#ff0"/>
<rect x="433" y="121" width="248" height="10" fill="#ff0"/>
<text x="20" y="150" class="sm">3.956e-05</text>
<rect x="100" y="140" width="87" height="12" fill="#00f"/>
<rect x="250" y="140" width="75" height="12" fill="#00f"/>
<rect x="432" y="140" width="414" height="12" fill="#00f"/>
<line x1="187" y1="146" x2="249" y2="146" stroke="#00f"/>
<line x1="325" y1="146" x2="431" y2="146" stroke="#00f"/>
<rect x="112" y="141" width="75" height="10" fill="#ff0"/>
<rect x="251" y="141" width="74" height="10" fill="#ff0"/>
<rect x="433" y="141" width="139" height="10" fill="#ff0"/>
<text x="20" y="170" class="sm">2.631e-05</text>
<rect x="100" y="160" width="87" height="12" fill="#00f"/>
<rect x="250" y="160" width="110" height="12" fill="#00f"/>
<rect x="502" y="160" width="344" height="12" fill="#00f"/>
<line x1="187" y1="166" x2="249" y2="166" stroke="#00f"/>
<line x1="360" y1="166" x2="501" y2="166" stroke="#00f"/>
<rect x="112" y="161" width="75" height="10" fill="#ff0"/>
<rect x="251" y="161" width="109" height="10" fill="#ff0"/>
<rect x="503" y="161" width="95" height="10" fill="#ff0"/>
<text x="20" y="190" class="sm">1.387e-05</text>
<rect x="100" y="180" width="92" height="12" fill="#00f"/>
<rect x="250" y="180" width="110" height="12" fill="#00f"/>
<rect x="432" y="180" width="414" height="12" fill="#00f"/>
<line x1="192" y1="186" x2="249" y2="186" stroke="#00f"/>
<line x1="360" y1="186" x2="431" y2="186" stroke="#00f"/>
<rect x="352" y="181" width="8" height="10" fill="#ff0"/>
<rect x="433" y="181" width="248" height="10" fill="#ff0"/>
<text x="20" y="210" class="sm">1.959e-06</text>
<rect x="100" y="200" width="87" height="12" fill="#00f"/>
<rect x="250" y="200" width="110" height="12" fill="#00f"/>
<rect x="432" y="200" width="194" height="12" fill="#00f"/>
<rect x="721" y="200" width="125" height="12" fill="#00f"/>
<line x1="187" y1="206" x2="249" y2="206" stroke="#00f"/>
<line x1="360" y1="206" x2="431" y2="206" stroke="#00f"/>
<line x1="626" y1="206" x2="720" y2="206" stroke="#00f"/>
<rect x="112" y="201" width="75" height="10" fill="#ff0"/>
<rect x="251" y="201" width="109" height="10" fill="#ff0"/>
<rect x="433" y="201" width="193" height="10" fill="#ff0"/>
<rect x="722" y="201" width="51" height="10" fill="#ff0"/>
<text x="20" y="230" class="sm">1.717e-06</text>
<rect x="100" y="220" width="87" height="12" fill="#00f"/>
<rect x="250" y="220" width="110" height="12" fill="#00f"/>
<rect x="432" y="220" width="69" height="12" fill="#00f"/>
<rect x="552" y="220" width="294" height="12" fill="#00f"/>
<line x1="187" y1="226" x2="249" y2="226" stroke="#00f"/>
<line x1="360" y1="226" x2="431" y2="226" stroke="#00f"/>
<line x1="501" y1="226" x2="551" y2="226" stroke="#00f"/>
<rect x="112" y="221" width="75" height="10" fill="#ff0"/>
<rect x="251" y="221" width="109" height="10" fill="#ff0"/>
<rect x="433" y="221" width="68" height="10" fill="#ff0"/>
<rect x="553" y="221" width="128" height="10" fill="#ff0"/>
<text x="20" y="250" class="sm">1.71e-06</text>
<rect x="100" y="240" width="97" height="12" fill="#00f"/>
<rect x="250" y="240" width="110" height="12" fill="#00f"/>
<rect x="432" y="240" width="414" height="12" fill="#00f"/>
<line x1="197" y1="246" x2="249" y2="246" stroke="#00f"/>
<line x1="360" y1="246" x2="431" y2="246" stroke="#00f"/>
<rect x="352" y="241" width="8" height="10" fill="#ff0"/>
<rect x="433" y="241" width="248" height="10" fill="#ff0"/>
<text x="20" y="270" class="sm">1.54e-06</text>
<rect x="100" y="260" width="87" height="12" fill="#00f"/>
<rect x="250" y="260" width="110" height="12" fill="#00f"/>
<rect x="432" y="260" width="35" height="12" fill="#00f"/>
<rect x="502" y="260" width="344" height="12" fill="#00f"/>
<line x1="187" y1="266" x2="249" y2="266" stroke="#00f"/>
<line x1="360" y1="266" x2="431" y2="266" stroke="#00f"/>
<line x1="467" y1="266" x2="501" y2="266" stroke="#00f"/>
<rect x="112" y="261" width="75" height="10" fill="#ff0"/>
<rect x="251" y="261" width="109" height="10" fill="#ff0"/>
<rect x="433" y="261" width="34" height="10" fill="#ff0"/>
<rect x="503" y="261" width="69" height="10" fill="#ff0"/>
<text x="20" y="290" class="sm">8.069e-07</text>
<rect x="100" y="280" width="37" height="12" fill="#00f"/>
<rect x="250" y="280" width="110" height="12" fill="#00f"/>
<rect x="432" y="280" width="414" height="12" fill="#00f"/>
<line x1="137" y1="286" x2="249" y2="286" stroke="#00f"/>
<line x1="360" y1="286" x2="431" y2="286" stroke="#00f"/>
<rect x="352" y="281" width="8" height="10" fill="#ff0"/>
<rect x="433" y="281" width="248" height="10" fill="#ff0"/>
<text x="20" y="310" class="sm">6.157e-07</text>
<rect x="100" y="300" width="50" height="12" fill="#00f"/>
<rect x="250" y="300" width="110" height="12" fill="#00f"/>
<rect x="432" y="300" width="414" height="12" fill="#00f"/>
<line x1="150" y1="306" x2="249" y2="306" stroke="#00f"/>
<line x1="360" y1="306" x2="431" y2="306" stroke="#00f"/>
<rect x="352" y="301" width="8" height="10" fill="#ff0"/>
<rect x="433" y="301" width="248" height="10" fill="#ff0"/>
<text x="20" y="330" class="sm">2.097e-07</text>
<rect x="100" y="320" width="87" height="12" fill="#00f"/>
<rect x="250" y="320" width="110" height="12" fill="#00f"/>
<rect x="508" y="320" width="338" height="12" fill="#00f"/>
<line x1="187" y1="326" x2="249" y2="326" stroke="#00f"/>
<line x1="360" y1="326" x2="507" y2="326" stroke="#00f"/>
<rect x="112" y="321" width="75" height="10" fill="#ff0"/>
<rect x="251" y="321" width="109" height="10" fill="#ff0"/>
<rect x="509" y="321" width="89" height="10" fill="#ff0"/>
<text x="20" y="350" class="sm">1.304e-08</text>
<rect x="100" y="340" width="87" height="12" fill="#00f"/>
<rect x="250" y="340" width="110" height="12" fill="#00f"/>
<rect x="432" y="340" width="69" height="12" fill="#00f"/>
<rect x="544" y="340" width="302" height="12" fill="#00f"/>
<line x1="187" y1="346" x2="249" y2="346" stroke="#00f"/>
<line x1="360" y1="346" x2="431" y2="346" stroke="#00f"/>
<line x1="501" y1="346" x2="543" y2="346" stroke="#00f"/>
<rect x="112" y="341" width="75" height="10" fill="#ff0"/>
<rect x="251" y="341" width="109" height="10" fill="#ff0"/>
<rect x="433" y="341" width="68" height="10" fill="#ff0"/>
<rect x="545" y="341" width="53" height="10" fill="#ff0"/>
<text x="20" y="370" class="sm">1.082e-08</text>
<rect x="100" y="360" width="87" height="12" fill="#00f"/>
<rect x="250" y="360" width="110" height="12" fill="#00f"/>
<rect x="432" y="360" width="111" height="12" fill="#00f"/>
<rect x="624" y="360" width="222" height="12" fill="#00f"/>
<line x1="187" y1="366" x2="249" y2="366" stroke="#00f"/>
<line x1="360" y1="366" x2="431" y2="366" stroke="#00f"/>
<line x1="543" y1="366" x2="623" y2="366" stroke="#00f"/>
<rect x="112" y="361" width="75" height="10" fill="#ff0"/>
<rect x="251" y="361" width="109" height="10" fill="#ff0"/>
<rect x="433" y="361" width="110" height="10" fill="#ff0"/>
<rect x="625" y="361" width="56" height="10" fill="#ff0"/>
<text x="20" y="390" class="sm">1.035e-08</text>
<rect x="100" y="380" width="87" height="12" fill="#00f"/>
<rect x="250" y="380" width="110" height="12" fill="#00f"/>
<rect x="432" y="380" width="165" height="12" fill="#00f"/>
<rect x="651" y="380" width="195" height="12" fill="#00f"/>
<line x1="187" y1="386" x2="249" y2="386" stroke="#00f"/>
<line x1="360" y1="386" x2="431" y2="386" stroke="#00f"/>
<line x1="597" y1="386" x2="650" y2="386" stroke="#00f"/>
<rect x="112" y="381" width="75" height="10" fill="#ff0"/>
<rect x="251" y="381" width="109" height="10" fill="#ff0"/>
<rect x="433" y="381" width="164" height="10" fill="#ff0"/>
<rect x="652" y="381" width="29" height="10" fill="#ff0"/>
<text x="20" y="410" class="sm">6.353e-09</text>
<rect x="100" y="400" width="87" height="12" fill="#00f"/>
<rect x="250" y="400" width="110" height="12" fill="#00f"/>
<rect x="432" y="400" width="69" height="12" fill="#00f"/>
<rect x="624" y="400" width="222" height="12" fill="#00f"/>
<line x1="187" y1="406" x2="249" y2="406" stroke="#00f"/>
<line x1="360" y1="406" x2="431" y2="406" stroke="#00f"/>
<line x1="501" y1="406" x2="623" y2="406" stroke="#00f"/>
<rect x="112" y="401" width="75" height="10" fill="#ff0"/>
<rect x="251" y="401" width="109" height="10" fill="#ff0"/>
<rect x="433" y="401" width="68" height="10" fill="#ff0"/>
<rect x="625" y="401" width="56" height="10" fill="#ff0"/>
<text x="20" y="430" class="sm">4.801e-09</text>
<rect x="100" y="420" width="87" height="12" fill="#00f"/>
<rect x="250" y="420" width="110" height="12" fill="#00f"/>
<rect x="432" y="420" width="210" height="12" fill="#00f"/>
<rect x="721" y="420" width="125" height="12" fill="#00f"/>
<line x1="187" y1="426" x2="249" y2="426" stroke="#00f"/>
<line x1="360" y1="426" x2="431" y2="426" stroke="#00f"/>
<line x1="642" y1="426" x2="720" y2="426" stroke="#00f"/>
<rect x="112" y="421" width="75" height="10" fill="#ff0"/>
<rect x="251" y="421" width="109" height="10" fill="#ff0"/>
<rect x="433" y="421" width="209" height="10" fill="#ff0"/>
<rect x="722" y="421" width="8" height="10" fill="#ff0"/>
<text x="20" y="450" class="sm">4.149e-09</text>
<rect x="100" y="440" width="87" height="12" fill="#00f"/>
<rect x="250" y="440" width="110" height="12" fill="#00f"/>
<rect x="432" y="440" width="194" height="12" fill="#00f"/>
<rect x="742" y="440" width="104" height="12" fill="#00f"/>
<line x1="187" y1="446" x2="249" y2="446" stroke="#00f"/>
<line x1="360" y1="446" x2="431" y2="446" stroke="#00f"/>
<line x1="626" y1="446" x2="741" y2="446" stroke="#00f"/>
<rect x="112" y="441" width="75" height="10" fill="#ff0"/>
<rect x="251" y="441" width="109" height="10" fill="#ff0"/>
<rect x="433" y="441" width="193" height="10" fill="#ff0"/>
<rect x="743" y="441" width="30" height="10" fill="#ff0"/>
<text x="20" y="470" class="sm">4.091e-09</text>
<rect x="100" y="460" width="87" height="12" fill="#00f"/>
<rect x="250" y="460" width="110" height="12" fill="#00f"/>
<rect x="432" y="460" width="165" height="12" fill="#00f"/>
<rect x="639" y="460" width="207" height="12" fill="#00f"/>
<line x1="187" y1="466" x2="249" y2="466" stroke="#00f"/>
<line x1="360" y1="466" x2="431" y2="466" stroke="#00f"/>
<line x1="597" y1="466" x2="638" y2="466" stroke="#00f"/>
<rect x="112" y="461" width="75" height="10" fill="#ff0"/>
<rect x="251" y="461" width="109" height="10" fill="#ff0"/>
<rect x="433" y="461" width="164" height="10" fill="#ff0"/>
<rect x="640" y="461" width="41" height="10" fill="#ff0"/>
<text x="20" y="490" class="sm">3.025e-09</text>
<rect x="100" y="480" width="87" height="12" fill="#00f"/>
<rect x="250" y="480" width="110" height="12" fill="#00f"/>
<rect x="432" y="480" width="165" height="12" fill="#00f"/>
<rect x="637" y="480" width="209" height="12" fill="#00f"/>
<line x1="187" y1="486" x2="249" y2="486" stroke="#00f"/>
<line x1="360" y1="486" x2="431" y2="486" stroke="#00f"/>
<line x1="597" y1="486" x2="636" y2="486" stroke="#00f"/>
<rect x="112" y="481" width="75" height="10" fill="#ff0"/>
<rect x="251" y="481" width="109" height="10" fill="#ff0"/>
<rect x="433" y="481" width="164" height="10" fill="#ff0"/>
<rect x="638" y="481" width="92" height="10" fill="#ff0"/>
<text x="20" y="510" class="sm">2.543e-09</text>
<rect x="100" y="500" width="87" height="12" fill="#00f"/>
<rect x="250" y="500" width="110" height="12" fill="#00f"/>
<rect x="432" y="500" width="165" height="12" fill="#00f"/>
<rect x="721" y="500" width="125" height="12" fill="#00f"/>
<line x1="187" y1="506" x2="249" y2="506" stroke="#00f"/>
<line x1="360" y1="506" x2="431" y2="506" stroke="#00f"/>
<line x1="597" y1="506" x2="720" y2="506" stroke="#00f"/>
<rect x="112" y="501" width="75" height="10" fill="#ff0"/>
<rect x="251" y="501" width="109" height="10" fill="#ff0"/>
<rect x="433" y="501" width="164" height="10" fill="#ff0"/>
<rect x="722" y="501" width="8" height="10" fill="#ff0"/>
</svg>
