<svg viewBox="0 0 768 540" xmlns="http://www.w3.org/2000/svg">

<style>
  .sm { font: 12px sans-serif; }
  .lg { font: 15px sans-serif; }
</style>
<rect fill="#ddd" x="0" y="0" width="100%" height="100%"/>
<text x="20" y="20" class="lg">ch.5200 II:9082526-9083293 Gene:WBGene00011979</text>
<text x="20" y="50" class="sm">WormBase</text>
<rect x="102" y="40" width="184" height="12" fill="#00f"/>
<rect x="337" y="40" width="114" height="12" fill="#00f"/>
<rect x="498" y="40" width="172" height="12" fill="#00f"/>
<line x1="286" y1="46" x2="336" y2="46" stroke="#00f"/>
<line x1="451" y1="46" x2="497" y2="46" stroke="#00f"/>
<rect x="165" y="41" width="121" height="10" fill="#ff0"/>
<rect x="338" y="41" width="113" height="10" fill="#ff0"/>
<rect x="499" y="41" width="63" height="10" fill="#ff0"/>
<rect x="103" y="41" width="61" height="10" fill="brown"><title>.</title></rect>
<rect x="563" y="41" width="107" height="10" fill="brown"><title>.</title></rect>
<text x="20" y="70" class="sm">Fitness: 0.002675669654486624</text>
<rect x="451" y="65" width="47" height="5" fill="#00f"><title>825411.0</title></rect>
<rect x="286" y="70" width="51" height="5" fill="#00f"><title>628528.0</title></rect>
<rect x="57" y="75" width="47" height="5" fill="#00f"><title>105.0</title></rect>
<rect x="685" y="80" width="59" height="5" fill="#00f"><title>31.0</title></rect>
<rect x="286" y="85" width="212" height="5" fill="#00f"><title>17.0</title></rect>
<rect x="247" y="90" width="165" height="5" fill="#f0f"><title>13.0</title></rect>
<rect x="286" y="95" width="363" height="5" fill="#00f"><title>7.0</title></rect>
<rect x="286" y="100" width="138" height="5" fill="#00f"><title>4.0</title></rect>
<text x="20" y="130" class="sm">0.5668</text>
<rect x="100" y="120" width="351" height="12" fill="#00f"/>
<rect x="498" y="120" width="173" height="12" fill="#00f"/>
<line x1="451" y1="126" x2="497" y2="126" stroke="#00f"/>
<rect x="165" y="121" width="125" height="10" fill="#ff0"/>
<text x="20" y="150" class="sm">0.4318</text>
<rect x="100" y="140" width="186" height="12" fill="#00f"/>
<rect x="337" y="140" width="334" height="12" fill="#00f"/>
<line x1="286" y1="146" x2="336" y2="146" stroke="#00f"/>
<rect x="165" y="141" width="121" height="10" fill="#ff0"/>
<rect x="338" y="141" width="117" height="10" fill="#ff0"/>
<text x="20" y="170" class="sm">0.001008</text>
<rect x="100" y="160" width="178" height="12" fill="#00f"/>
<rect x="337" y="160" width="334" height="12" fill="#00f"/>
<line x1="278" y1="166" x2="336" y2="166" stroke="#00f"/>
<rect x="165" y="161" width="113" height="10" fill="#ff0"/>
<rect x="338" y="161" width="11" height="10" fill="#ff0"/>
<text x="20" y="190" class="sm">0.0002346</text>
<rect x="100" y="180" width="319" height="12" fill="#00f"/>
<rect x="498" y="180" width="173" height="12" fill="#00f"/>
<line x1="419" y1="186" x2="497" y2="186" stroke="#00f"/>
<rect x="165" y="181" width="125" height="10" fill="#ff0"/>
<text x="20" y="210" class="sm">6.554e-05</text>
<rect x="100" y="200" width="68" height="12" fill="#00f"/>
<rect x="216" y="200" width="455" height="12" fill="#00f"/>
<line x1="168" y1="206" x2="215" y2="206" stroke="#00f"/>
<rect x="502" y="201" width="89" height="10" fill="#ff0"/>
<text x="20" y="230" class="sm">1.115e-05</text>
<rect x="100" y="220" width="283" height="12" fill="#00f"/>
<rect x="498" y="220" width="173" height="12" fill="#00f"/>
<line x1="383" y1="226" x2="497" y2="226" stroke="#00f"/>
<rect x="165" y="221" width="125" height="10" fill="#ff0"/>
<text x="20" y="250" class="sm">1.037e-05</text>
<rect x="100" y="240" width="53" height="12" fill="#00f"/>
<rect x="201" y="240" width="470" height="12" fill="#00f"/>
<line x1="153" y1="246" x2="200" y2="246" stroke="#00f"/>
<rect x="502" y="241" width="89" height="10" fill="#ff0"/>
<text x="20" y="270" class="sm">9.077e-06</text>
<rect x="100" y="260" width="186" height="12" fill="#00f"/>
<rect x="498" y="260" width="173" height="12" fill="#00f"/>
<line x1="286" y1="266" x2="497" y2="266" stroke="#00f"/>
<rect x="165" y="261" width="121" height="10" fill="#ff0"/>
<rect x="499" y="261" width="63" height="10" fill="#ff0"/>
<text x="20" y="290" class="sm">2.255e-06</text>
<rect x="100" y="280" width="164" height="12" fill="#00f"/>
<rect x="337" y="280" width="334" height="12" fill="#00f"/>
<line x1="264" y1="286" x2="336" y2="286" stroke="#00f"/>
<rect x="152" y="281" width="112" height="10" fill="#ff0"/>
<rect x="338" y="281" width="117" height="10" fill="#ff0"/>
<text x="20" y="310" class="sm">1.113e-06</text>
<rect x="100" y="300" width="178" height="12" fill="#00f"/>
<rect x="498" y="300" width="173" height="12" fill="#00f"/>
<line x1="278" y1="306" x2="497" y2="306" stroke="#00f"/>
<rect x="165" y="301" width="113" height="10" fill="#ff0"/>
<rect x="499" y="301" width="92" height="10" fill="#ff0"/>
<text x="20" y="330" class="sm">9.066e-07</text>
<rect x="100" y="320" width="283" height="12" fill="#00f"/>
<rect x="424" y="320" width="247" height="12" fill="#00f"/>
<line x1="383" y1="326" x2="423" y2="326" stroke="#00f"/>
<rect x="165" y="321" width="125" height="10" fill="#ff0"/>
<text x="20" y="350" class="sm">5.963e-07</text>
<rect x="100" y="340" width="351" height="12" fill="#00f"/>
<rect x="584" y="340" width="87" height="12" fill="#00f"/>
<line x1="451" y1="346" x2="583" y2="346" stroke="#00f"/>
<rect x="165" y="341" width="125" height="10" fill="#ff0"/>
<text x="20" y="370" class="sm">3.392e-07</text>
<rect x="100" y="360" width="245" height="12" fill="#00f"/>
<rect x="498" y="360" width="173" height="12" fill="#00f"/>
<line x1="345" y1="366" x2="497" y2="366" stroke="#00f"/>
<rect x="165" y="361" width="125" height="10" fill="#ff0"/>
<text x="20" y="390" class="sm">2.996e-07</text>
<rect x="100" y="380" width="120" height="12" fill="#00f"/>
<rect x="337" y="380" width="334" height="12" fill="#00f"/>
<line x1="220" y1="386" x2="336" y2="386" stroke="#00f"/>
<rect x="165" y="381" width="55" height="10" fill="#ff0"/>
<rect x="338" y="381" width="117" height="10" fill="#ff0"/>
<text x="20" y="410" class="sm">2.833e-07</text>
<rect x="100" y="400" width="41" height="12" fill="#00f"/>
<rect x="201" y="400" width="470" height="12" fill="#00f"/>
<line x1="141" y1="406" x2="200" y2="406" stroke="#00f"/>
<rect x="502" y="401" width="89" height="10" fill="#ff0"/>
<text x="20" y="430" class="sm">2.817e-07</text>
<rect x="100" y="420" width="85" height="12" fill="#00f"/>
<rect x="235" y="420" width="436" height="12" fill="#00f"/>
<line x1="185" y1="426" x2="234" y2="426" stroke="#00f"/>
<rect x="152" y="421" width="33" height="10" fill="#ff0"/>
<rect x="236" y="421" width="67" height="10" fill="#ff0"/>
<text x="20" y="450" class="sm">2.713e-07</text>
<rect x="100" y="440" width="319" height="12" fill="#00f"/>
<rect x="584" y="440" width="87" height="12" fill="#00f"/>
<line x1="419" y1="446" x2="583" y2="446" stroke="#00f"/>
<rect x="165" y="441" width="125" height="10" fill="#ff0"/>
<text x="20" y="470" class="sm">2.329e-07</text>
<rect x="100" y="460" width="186" height="12" fill="#00f"/>
<rect x="337" y="460" width="114" height="12" fill="#00f"/>
<rect x="498" y="460" width="173" height="12" fill="#00f"/>
<line x1="286" y1="466" x2="336" y2="466" stroke="#00f"/>
<line x1="451" y1="466" x2="497" y2="466" stroke="#00f"/>
<rect x="165" y="461" width="121" height="10" fill="#ff0"/>
<rect x="338" y="461" width="113" height="10" fill="#ff0"/>
<rect x="499" y="461" width="63" height="10" fill="#ff0"/>
<text x="20" y="490" class="sm">2.268e-07</text>
<rect x="100" y="480" width="319" height="12" fill="#00f"/>
<rect x="468" y="480" width="203" height="12" fill="#00f"/>
<line x1="419" y1="486" x2="467" y2="486" stroke="#00f"/>
<rect x="165" y="481" width="125" height="10" fill="#ff0"/>
<text x="20" y="510" class="sm">2.264e-07</text>
<rect x="100" y="500" width="265" height="12" fill="#00f"/>
<rect x="498" y="500" width="173" height="12" fill="#00f"/>
<line x1="365" y1="506" x2="497" y2="506" stroke="#00f"/>
<rect x="165" y="501" width="125" height="10" fill="#ff0"/>
</svg>
