<svg viewBox="0 0 1085 525" xmlns="http://www.w3.org/2000/svg">

<style>
  .sm { font: 12px sans-serif; }
  .lg { font: 15px sans-serif; }
</style>
<rect fill="#ddd" x="0" y="0" width="100%" height="100%"/>
<text x="20" y="20" class="lg">ch.5139 II:8790457-8791541 Gene:WBGene00008563</text>
<text x="20" y="50" class="sm">WormBase</text>
<rect x="100" y="40" width="168" height="12" fill="#00f"/>
<rect x="345" y="40" width="640" height="12" fill="#00f"/>
<line x1="268" y1="46" x2="344" y2="46" stroke="#00f"/>
<rect x="242" y="41" width="26" height="10" fill="#ff0"/>
<rect x="346" y="41" width="110" height="10" fill="#ff0"/>
<rect x="101" y="41" width="140" height="10" fill="brown"><title>.</title></rect>
<rect x="457" y="41" width="528" height="10" fill="brown"><title>.</title></rect>
<text x="20" y="70" class="sm">Fitness: 0.5324927931534028</text>
<rect x="268" y="65" width="77" height="5" fill="#00f"><title>409403.0</title></rect>
<rect x="199" y="70" width="146" height="5" fill="#00f"><title>44.0</title></rect>
<rect x="699" y="75" width="152" height="5" fill="#f0f"><title>11.0</title></rect>
<rect x="268" y="80" width="93" height="5" fill="#00f"><title>7.0</title></rect>
<rect x="199" y="85" width="53" height="5" fill="#00f"><title>6.0</title></rect>
<text x="20" y="115" class="sm">0.7338</text>
<rect x="100" y="105" width="168" height="12" fill="#00f"/>
<rect x="345" y="105" width="643" height="12" fill="#00f"/>
<line x1="268" y1="111" x2="344" y2="111" stroke="#00f"/>
<rect x="242" y="106" width="26" height="10" fill="#ff0"/>
<rect x="346" y="106" width="110" height="10" fill="#ff0"/>
<text x="20" y="135" class="sm">0.1375</text>
<rect x="100" y="125" width="147" height="12" fill="#00f"/>
<rect x="345" y="125" width="643" height="12" fill="#00f"/>
<line x1="247" y1="131" x2="344" y2="131" stroke="#00f"/>
<rect x="242" y="126" width="5" height="10" fill="#ff0"/>
<rect x="346" y="126" width="110" height="10" fill="#ff0"/>
<text x="20" y="155" class="sm">0.03861</text>
<rect x="100" y="145" width="675" height="12" fill="#00f"/>
<rect x="824" y="145" width="164" height="12" fill="#00f"/>
<line x1="775" y1="151" x2="823" y2="151" stroke="#00f"/>
<rect x="367" y="146" width="89" height="10" fill="#ff0"/>
<text x="20" y="175" class="sm">0.02747</text>
<rect x="100" y="165" width="99" height="12" fill="#00f"/>
<rect x="268" y="165" width="720" height="12" fill="#00f"/>
<line x1="199" y1="171" x2="267" y2="171" stroke="#00f"/>
<rect x="367" y="166" width="89" height="10" fill="#ff0"/>
<text x="20" y="195" class="sm">0.01196</text>
<rect x="100" y="185" width="471" height="12" fill="#00f"/>
<rect x="609" y="185" width="379" height="12" fill="#00f"/>
<line x1="571" y1="191" x2="608" y2="191" stroke="#00f"/>
<rect x="566" y="186" width="5" height="10" fill="#ff0"/>
<rect x="610" y="186" width="107" height="10" fill="#ff0"/>
<text x="20" y="215" class="sm">0.00934</text>
<rect x="100" y="205" width="459" height="12" fill="#00f"/>
<rect x="609" y="205" width="379" height="12" fill="#00f"/>
<line x1="559" y1="211" x2="608" y2="211" stroke="#00f"/>
<rect x="367" y="206" width="89" height="10" fill="#ff0"/>
<text x="20" y="235" class="sm">0.008996</text>
<rect x="100" y="225" width="99" height="12" fill="#00f"/>
<rect x="345" y="225" width="643" height="12" fill="#00f"/>
<line x1="199" y1="231" x2="344" y2="231" stroke="#00f"/>
<rect x="367" y="226" width="89" height="10" fill="#ff0"/>
<text x="20" y="255" class="sm">0.008985</text>
<rect x="100" y="245" width="160" height="12" fill="#00f"/>
<rect x="345" y="245" width="643" height="12" fill="#00f"/>
<line x1="260" y1="251" x2="344" y2="251" stroke="#00f"/>
<rect x="367" y="246" width="89" height="10" fill="#ff0"/>
<text x="20" y="275" class="sm">0.005803</text>
<rect x="100" y="265" width="93" height="12" fill="#00f"/>
<rect x="268" y="265" width="720" height="12" fill="#00f"/>
<line x1="193" y1="271" x2="267" y2="271" stroke="#00f"/>
<rect x="367" y="266" width="89" height="10" fill="#ff0"/>
<text x="20" y="295" class="sm">0.005075</text>
<rect x="100" y="285" width="187" height="12" fill="#00f"/>
<rect x="345" y="285" width="643" height="12" fill="#00f"/>
<line x1="287" y1="291" x2="344" y2="291" stroke="#00f"/>
<rect x="367" y="286" width="89" height="10" fill="#ff0"/>
<text x="20" y="315" class="sm">0.002626</text>
<rect x="100" y="305" width="27" height="12" fill="#00f"/>
<rect x="345" y="305" width="643" height="12" fill="#00f"/>
<line x1="127" y1="311" x2="344" y2="311" stroke="#00f"/>
<rect x="367" y="306" width="89" height="10" fill="#ff0"/>
<text x="20" y="335" class="sm">0.00259</text>
<rect x="100" y="325" width="93" height="12" fill="#00f"/>
<rect x="345" y="325" width="643" height="12" fill="#00f"/>
<line x1="193" y1="331" x2="344" y2="331" stroke="#00f"/>
<rect x="367" y="326" width="89" height="10" fill="#ff0"/>
<text x="20" y="355" class="sm">0.002008</text>
<rect x="100" y="345" width="680" height="12" fill="#00f"/>
<rect x="824" y="345" width="164" height="12" fill="#00f"/>
<line x1="780" y1="351" x2="823" y2="351" stroke="#00f"/>
<rect x="367" y="346" width="89" height="10" fill="#ff0"/>
<text x="20" y="375" class="sm">0.001494</text>
<rect x="100" y="365" width="27" height="12" fill="#00f"/>
<rect x="268" y="365" width="720" height="12" fill="#00f"/>
<line x1="127" y1="371" x2="267" y2="371" stroke="#00f"/>
<rect x="367" y="366" width="89" height="10" fill="#ff0"/>
<text x="20" y="395" class="sm">0.00136</text>
<rect x="100" y="385" width="87" height="12" fill="#00f"/>
<rect x="268" y="385" width="720" height="12" fill="#00f"/>
<line x1="187" y1="391" x2="267" y2="391" stroke="#00f"/>
<rect x="367" y="386" width="89" height="10" fill="#ff0"/>
<text x="20" y="415" class="sm">0.0009708</text>
<rect x="100" y="405" width="87" height="12" fill="#00f"/>
<rect x="345" y="405" width="643" height="12" fill="#00f"/>
<line x1="187" y1="411" x2="344" y2="411" stroke="#00f"/>
<rect x="367" y="406" width="89" height="10" fill="#ff0"/>
<text x="20" y="435" class="sm">0.0007829</text>
<rect x="100" y="425" width="684" height="12" fill="#00f"/>
<rect x="824" y="425" width="164" height="12" fill="#00f"/>
<line x1="784" y1="431" x2="823" y2="431" stroke="#00f"/>
<rect x="367" y="426" width="89" height="10" fill="#ff0"/>
<text x="20" y="455" class="sm">0.0002989</text>
<rect x="100" y="445" width="90" height="12" fill="#00f"/>
<rect x="268" y="445" width="720" height="12" fill="#00f"/>
<line x1="190" y1="451" x2="267" y2="451" stroke="#00f"/>
<rect x="367" y="446" width="89" height="10" fill="#ff0"/>
<text x="20" y="475" class="sm">0.0001569</text>
<rect x="100" y="465" width="453" height="12" fill="#00f"/>
<rect x="609" y="465" width="379" height="12" fill="#00f"/>
<line x1="553" y1="471" x2="608" y2="471" stroke="#00f"/>
<rect x="367" y="466" width="89" height="10" fill="#ff0"/>
<text x="20" y="495" class="sm">0.0001531</text>
<rect x="100" y="485" width="90" height="12" fill="#00f"/>
<rect x="345" y="485" width="643" height="12" fill="#00f"/>
<line x1="190" y1="491" x2="344" y2="491" stroke="#00f"/>
<rect x="367" y="486" width="89" height="10" fill="#ff0"/>
</svg>
