<svg viewBox="0 0 866 520" xmlns="http://www.w3.org/2000/svg">

<style>
  .sm { font: 12px sans-serif; }
  .lg { font: 15px sans-serif; }
</style>
<rect fill="#ddd" x="0" y="0" width="100%" height="100%"/>
<text x="20" y="20" class="lg">ch.5489 II:10233733-10234598 Gene:WBGene00011336</text>
<text x="20" y="50" class="sm">WormBase</text>
<rect x="102" y="40" width="98" height="12" fill="#00f"/>
<rect x="240" y="40" width="130" height="12" fill="#00f"/>
<rect x="418" y="40" width="350" height="12" fill="#00f"/>
<line x1="200" y1="46" x2="239" y2="46" stroke="#00f"/>
<line x1="370" y1="46" x2="417" y2="46" stroke="#00f"/>
<rect x="135" y="41" width="65" height="10" fill="#ff0"/>
<rect x="241" y="41" width="129" height="10" fill="#ff0"/>
<rect x="419" y="41" width="328" height="10" fill="#ff0"/>
<rect x="103" y="41" width="31" height="10" fill="brown"><title>.</title></rect>
<rect x="748" y="41" width="20" height="10" fill="brown"><title>.</title></rect>
<text x="20" y="70" class="sm">Fitness: 0.007067592578681426</text>
<rect x="200" y="65" width="40" height="5" fill="#00f"><title>108490.0</title></rect>
<rect x="370" y="70" width="48" height="5" fill="#00f"><title>101089.0</title></rect>
<rect x="200" y="75" width="47" height="5" fill="#00f"><title>170.0</title></rect>
<rect x="302" y="80" width="392" height="5" fill="#f0f"><title>5.0</title></rect>
<text x="20" y="110" class="sm">0.8908</text>
<rect x="100" y="100" width="100" height="12" fill="#00f"/>
<rect x="240" y="100" width="130" height="12" fill="#00f"/>
<rect x="418" y="100" width="351" height="12" fill="#00f"/>
<line x1="200" y1="106" x2="239" y2="106" stroke="#00f"/>
<line x1="370" y1="106" x2="417" y2="106" stroke="#00f"/>
<rect x="135" y="101" width="65" height="10" fill="#ff0"/>
<rect x="241" y="101" width="129" height="10" fill="#ff0"/>
<rect x="419" y="101" width="328" height="10" fill="#ff0"/>
<text x="20" y="130" class="sm">0.08593</text>
<rect x="100" y="120" width="100" height="12" fill="#00f"/>
<rect x="240" y="120" width="529" height="12" fill="#00f"/>
<line x1="200" y1="126" x2="239" y2="126" stroke="#00f"/>
<rect x="135" y="121" width="65" height="10" fill="#ff0"/>
<rect x="241" y="121" width="506" height="10" fill="#ff0"/>
<text x="20" y="150" class="sm">0.01632</text>
<rect x="100" y="140" width="270" height="12" fill="#00f"/>
<rect x="418" y="140" width="351" height="12" fill="#00f"/>
<line x1="370" y1="146" x2="417" y2="146" stroke="#00f"/>
<rect x="505" y="141" width="242" height="10" fill="#ff0"/>
<text x="20" y="170" class="sm">0.001302</text>
<rect x="100" y="160" width="100" height="12" fill="#00f"/>
<rect x="240" y="160" width="130" height="12" fill="#00f"/>
<rect x="418" y="160" width="143" height="12" fill="#00f"/>
<rect x="604" y="160" width="165" height="12" fill="#00f"/>
<line x1="200" y1="166" x2="239" y2="166" stroke="#00f"/>
<line x1="370" y1="166" x2="417" y2="166" stroke="#00f"/>
<line x1="561" y1="166" x2="603" y2="166" stroke="#00f"/>
<rect x="135" y="161" width="65" height="10" fill="#ff0"/>
<rect x="241" y="161" width="129" height="10" fill="#ff0"/>
<rect x="419" y="161" width="142" height="10" fill="#ff0"/>
<rect x="605" y="161" width="86" height="10" fill="#ff0"/>
<text x="20" y="190" class="sm">0.0008621</text>
<rect x="100" y="180" width="100" height="12" fill="#00f"/>
<rect x="247" y="180" width="123" height="12" fill="#00f"/>
<rect x="418" y="180" width="351" height="12" fill="#00f"/>
<line x1="200" y1="186" x2="246" y2="186" stroke="#00f"/>
<line x1="370" y1="186" x2="417" y2="186" stroke="#00f"/>
<rect x="505" y="181" width="242" height="10" fill="#ff0"/>
<text x="20" y="210" class="sm">0.0008445</text>
<rect x="100" y="200" width="87" height="12" fill="#00f"/>
<rect x="240" y="200" width="130" height="12" fill="#00f"/>
<rect x="418" y="200" width="351" height="12" fill="#00f"/>
<line x1="187" y1="206" x2="239" y2="206" stroke="#00f"/>
<line x1="370" y1="206" x2="417" y2="206" stroke="#00f"/>
<rect x="505" y="201" width="242" height="10" fill="#ff0"/>
<text x="20" y="230" class="sm">0.0006913</text>
<rect x="100" y="220" width="100" height="12" fill="#00f"/>
<rect x="240" y="220" width="130" height="12" fill="#00f"/>
<rect x="451" y="220" width="318" height="12" fill="#00f"/>
<line x1="200" y1="226" x2="239" y2="226" stroke="#00f"/>
<line x1="370" y1="226" x2="450" y2="226" stroke="#00f"/>
<rect x="135" y="221" width="65" height="10" fill="#ff0"/>
<rect x="241" y="221" width="129" height="10" fill="#ff0"/>
<rect x="452" y="221" width="295" height="10" fill="#ff0"/>
<text x="20" y="250" class="sm">0.0006631</text>
<rect x="100" y="240" width="100" height="12" fill="#00f"/>
<rect x="240" y="240" width="130" height="12" fill="#00f"/>
<rect x="418" y="240" width="162" height="12" fill="#00f"/>
<rect x="631" y="240" width="138" height="12" fill="#00f"/>
<line x1="200" y1="246" x2="239" y2="246" stroke="#00f"/>
<line x1="370" y1="246" x2="417" y2="246" stroke="#00f"/>
<line x1="580" y1="246" x2="630" y2="246" stroke="#00f"/>
<rect x="135" y="241" width="65" height="10" fill="#ff0"/>
<rect x="241" y="241" width="129" height="10" fill="#ff0"/>
<rect x="419" y="241" width="161" height="10" fill="#ff0"/>
<rect x="632" y="241" width="115" height="10" fill="#ff0"/>
<text x="20" y="270" class="sm">0.0006506</text>
<rect x="100" y="260" width="100" height="12" fill="#00f"/>
<rect x="240" y="260" width="122" height="12" fill="#00f"/>
<rect x="418" y="260" width="351" height="12" fill="#00f"/>
<line x1="200" y1="266" x2="239" y2="266" stroke="#00f"/>
<line x1="362" y1="266" x2="417" y2="266" stroke="#00f"/>
<rect x="135" y="261" width="65" height="10" fill="#ff0"/>
<rect x="241" y="261" width="121" height="10" fill="#ff0"/>
<rect x="419" y="261" width="102" height="10" fill="#ff0"/>
<text x="20" y="290" class="sm">0.0004144</text>
<rect x="100" y="280" width="100" height="12" fill="#00f"/>
<rect x="258" y="280" width="112" height="12" fill="#00f"/>
<rect x="418" y="280" width="351" height="12" fill="#00f"/>
<line x1="200" y1="286" x2="257" y2="286" stroke="#00f"/>
<line x1="370" y1="286" x2="417" y2="286" stroke="#00f"/>
<rect x="135" y="281" width="65" height="10" fill="#ff0"/>
<rect x="259" y="281" width="111" height="10" fill="#ff0"/>
<rect x="419" y="281" width="328" height="10" fill="#ff0"/>
<text x="20" y="310" class="sm">0.000269</text>
<rect x="100" y="300" width="100" height="12" fill="#00f"/>
<rect x="240" y="300" width="130" height="12" fill="#00f"/>
<rect x="418" y="300" width="32" height="12" fill="#00f"/>
<rect x="485" y="300" width="284" height="12" fill="#00f"/>
<line x1="200" y1="306" x2="239" y2="306" stroke="#00f"/>
<line x1="370" y1="306" x2="417" y2="306" stroke="#00f"/>
<line x1="450" y1="306" x2="484" y2="306" stroke="#00f"/>
<rect x="135" y="301" width="65" height="10" fill="#ff0"/>
<rect x="241" y="301" width="129" height="10" fill="#ff0"/>
<rect x="419" y="301" width="31" height="10" fill="#ff0"/>
<rect x="486" y="301" width="35" height="10" fill="#ff0"/>
<text x="20" y="330" class="sm">0.0002567</text>
<rect x="100" y="320" width="100" height="12" fill="#00f"/>
<rect x="240" y="320" width="130" height="12" fill="#00f"/>
<rect x="433" y="320" width="336" height="12" fill="#00f"/>
<line x1="200" y1="326" x2="239" y2="326" stroke="#00f"/>
<line x1="370" y1="326" x2="432" y2="326" stroke="#00f"/>
<rect x="135" y="321" width="65" height="10" fill="#ff0"/>
<rect x="241" y="321" width="129" height="10" fill="#ff0"/>
<rect x="434" y="321" width="313" height="10" fill="#ff0"/>
<text x="20" y="350" class="sm">0.0002482</text>
<rect x="100" y="340" width="80" height="12" fill="#00f"/>
<rect x="240" y="340" width="130" height="12" fill="#00f"/>
<rect x="418" y="340" width="351" height="12" fill="#00f"/>
<line x1="180" y1="346" x2="239" y2="346" stroke="#00f"/>
<line x1="370" y1="346" x2="417" y2="346" stroke="#00f"/>
<rect x="505" y="341" width="242" height="10" fill="#ff0"/>
<text x="20" y="370" class="sm">0.0001768</text>
<rect x="100" y="360" width="127" height="12" fill="#00f"/>
<rect x="270" y="360" width="100" height="12" fill="#00f"/>
<rect x="418" y="360" width="351" height="12" fill="#00f"/>
<line x1="227" y1="366" x2="269" y2="366" stroke="#00f"/>
<line x1="370" y1="366" x2="417" y2="366" stroke="#00f"/>
<rect x="505" y="361" width="242" height="10" fill="#ff0"/>
<text x="20" y="390" class="sm">0.0001247</text>
<rect x="100" y="380" width="120" height="12" fill="#00f"/>
<rect x="258" y="380" width="112" height="12" fill="#00f"/>
<rect x="418" y="380" width="351" height="12" fill="#00f"/>
<line x1="220" y1="386" x2="257" y2="386" stroke="#00f"/>
<line x1="370" y1="386" x2="417" y2="386" stroke="#00f"/>
<rect x="215" y="381" width="5" height="10" fill="#ff0"/>
<rect x="259" y="381" width="111" height="10" fill="#ff0"/>
<rect x="419" y="381" width="328" height="10" fill="#ff0"/>
<text x="20" y="410" class="sm">0.0001029</text>
<rect x="100" y="400" width="100" height="12" fill="#00f"/>
<rect x="240" y="400" width="130" height="12" fill="#00f"/>
<rect x="418" y="400" width="162" height="12" fill="#00f"/>
<rect x="639" y="400" width="130" height="12" fill="#00f"/>
<line x1="200" y1="406" x2="239" y2="406" stroke="#00f"/>
<line x1="370" y1="406" x2="417" y2="406" stroke="#00f"/>
<line x1="580" y1="406" x2="638" y2="406" stroke="#00f"/>
<rect x="135" y="401" width="65" height="10" fill="#ff0"/>
<rect x="241" y="401" width="129" height="10" fill="#ff0"/>
<rect x="419" y="401" width="161" height="10" fill="#ff0"/>
<rect x="640" y="401" width="4" height="10" fill="#ff0"/>
<text x="20" y="430" class="sm">0.0001029</text>
<rect x="100" y="420" width="100" height="12" fill="#00f"/>
<rect x="240" y="420" width="321" height="12" fill="#00f"/>
<rect x="604" y="420" width="165" height="12" fill="#00f"/>
<line x1="200" y1="426" x2="239" y2="426" stroke="#00f"/>
<line x1="561" y1="426" x2="603" y2="426" stroke="#00f"/>
<rect x="135" y="421" width="65" height="10" fill="#ff0"/>
<rect x="241" y="421" width="320" height="10" fill="#ff0"/>
<rect x="605" y="421" width="86" height="10" fill="#ff0"/>
<text x="20" y="450" class="sm">0.0001008</text>
<rect x="100" y="440" width="120" height="12" fill="#00f"/>
<rect x="270" y="440" width="100" height="12" fill="#00f"/>
<rect x="418" y="440" width="351" height="12" fill="#00f"/>
<line x1="220" y1="446" x2="269" y2="446" stroke="#00f"/>
<line x1="370" y1="446" x2="417" y2="446" stroke="#00f"/>
<rect x="215" y="441" width="5" height="10" fill="#ff0"/>
<rect x="271" y="441" width="99" height="10" fill="#ff0"/>
<rect x="419" y="441" width="328" height="10" fill="#ff0"/>
<text x="20" y="470" class="sm">8.615e-05</text>
<rect x="100" y="460" width="100" height="12" fill="#00f"/>
<rect x="240" y="460" width="122" height="12" fill="#00f"/>
<rect x="404" y="460" width="365" height="12" fill="#00f"/>
<line x1="200" y1="466" x2="239" y2="466" stroke="#00f"/>
<line x1="362" y1="466" x2="403" y2="466" stroke="#00f"/>
<rect x="135" y="461" width="65" height="10" fill="#ff0"/>
<rect x="241" y="461" width="121" height="10" fill="#ff0"/>
<rect x="405" y="461" width="342" height="10" fill="#ff0"/>
<text x="20" y="490" class="sm">8.452e-05</text>
<rect x="100" y="480" width="100" height="12" fill="#00f"/>
<rect x="247" y="480" width="522" height="12" fill="#00f"/>
<line x1="200" y1="486" x2="246" y2="486" stroke="#00f"/>
<rect x="505" y="481" width="242" height="10" fill="#ff0"/>
</svg>
