<svg viewBox="0 0 598 535" xmlns="http://www.w3.org/2000/svg">

<style>
  .sm { font: 12px sans-serif; }
  .lg { font: 15px sans-serif; }
</style>
<rect fill="#ddd" x="0" y="0" width="100%" height="100%"/>
<text x="20" y="20" class="lg">ch.5826 II:11774062-11774659 Gene:WBGene00009688</text>
<text x="20" y="50" class="sm">WormBase</text>
<rect x="102" y="40" width="159" height="12" fill="#00f"/>
<rect x="310" y="40" width="190" height="12" fill="#00f"/>
<line x1="261" y1="46" x2="309" y2="46" stroke="#00f"/>
<rect x="103" y="41" width="158" height="10" fill="#ff0"/>
<rect x="311" y="41" width="77" height="10" fill="#ff0"/>
<rect x="389" y="41" width="111" height="10" fill="brown"><title>.</title></rect>
<text x="20" y="70" class="sm">Fitness: 1.9925688527793275e-05</text>
<rect x="261" y="65" width="49" height="5" fill="#00f"><title>5319370.0</title></rect>
<rect x="42" y="70" width="60" height="5" fill="#00f"><title>47.0</title></rect>
<rect x="153" y="75" width="39" height="5" fill="#f0f"><title>24.0</title></rect>
<rect x="261" y="80" width="85" height="5" fill="#00f"><title>8.0</title></rect>
<rect x="412" y="85" width="42" height="5" fill="#f0f"><title>3.0</title></rect>
<rect x="412" y="90" width="37" height="5" fill="#00f"><title>3.0</title></rect>
<rect x="23" y="95" width="79" height="5" fill="#00f"><title>3.0</title></rect>
<text x="20" y="125" class="sm">1.0</text>
<rect x="100" y="115" width="161" height="12" fill="#00f"/>
<rect x="310" y="115" width="191" height="12" fill="#00f"/>
<line x1="261" y1="121" x2="309" y2="121" stroke="#00f"/>
<rect x="103" y="116" width="158" height="10" fill="#ff0"/>
<rect x="311" y="116" width="77" height="10" fill="#ff0"/>
<text x="20" y="145" class="sm">6.008e-06</text>
<rect x="100" y="135" width="168" height="12" fill="#00f"/>
<rect x="310" y="135" width="191" height="12" fill="#00f"/>
<line x1="268" y1="141" x2="309" y2="141" stroke="#00f"/>
<rect x="103" y="136" width="165" height="10" fill="#ff0"/>
<rect x="311" y="136" width="172" height="10" fill="#ff0"/>
<text x="20" y="165" class="sm">1.759e-06</text>
<rect x="100" y="155" width="161" height="12" fill="#00f"/>
<rect x="346" y="155" width="155" height="12" fill="#00f"/>
<line x1="261" y1="161" x2="345" y2="161" stroke="#00f"/>
<rect x="103" y="156" width="158" height="10" fill="#ff0"/>
<rect x="347" y="156" width="41" height="10" fill="#ff0"/>
<text x="20" y="185" class="sm">8.655e-07</text>
<rect x="100" y="175" width="161" height="12" fill="#00f"/>
<rect x="449" y="175" width="52" height="12" fill="#00f"/>
<line x1="261" y1="181" x2="448" y2="181" stroke="#00f"/>
<rect x="103" y="176" width="158" height="10" fill="#ff0"/>
<rect x="450" y="176" width="17" height="10" fill="#ff0"/>
<text x="20" y="205" class="sm">8.041e-07</text>
<rect x="100" y="195" width="119" height="12" fill="#00f"/>
<rect x="310" y="195" width="191" height="12" fill="#00f"/>
<line x1="219" y1="201" x2="309" y2="201" stroke="#00f"/>
<rect x="103" y="196" width="116" height="10" fill="#ff0"/>
<rect x="311" y="196" width="77" height="10" fill="#ff0"/>
<text x="20" y="225" class="sm">7.463e-07</text>
<rect x="100" y="215" width="161" height="12" fill="#00f"/>
<rect x="393" y="215" width="108" height="12" fill="#00f"/>
<line x1="261" y1="221" x2="392" y2="221" stroke="#00f"/>
<rect x="103" y="216" width="158" height="10" fill="#ff0"/>
<rect x="394" y="216" width="89" height="10" fill="#ff0"/>
<text x="20" y="245" class="sm">4.02e-07</text>
<rect x="100" y="235" width="142" height="12" fill="#00f"/>
<rect x="310" y="235" width="191" height="12" fill="#00f"/>
<line x1="242" y1="241" x2="309" y2="241" stroke="#00f"/>
<rect x="103" y="236" width="139" height="10" fill="#ff0"/>
<rect x="311" y="236" width="96" height="10" fill="#ff0"/>
<text x="20" y="265" class="sm">1.034e-07</text>
<rect x="100" y="255" width="161" height="12" fill="#00f"/>
<rect x="331" y="255" width="170" height="12" fill="#00f"/>
<line x1="261" y1="261" x2="330" y2="261" stroke="#00f"/>
<rect x="103" y="256" width="158" height="10" fill="#ff0"/>
<rect x="332" y="256" width="56" height="10" fill="#ff0"/>
<text x="20" y="285" class="sm">8.232e-08</text>
<rect x="100" y="275" width="161" height="12" fill="#00f"/>
<rect x="338" y="275" width="163" height="12" fill="#00f"/>
<line x1="261" y1="281" x2="337" y2="281" stroke="#00f"/>
<rect x="103" y="276" width="158" height="10" fill="#ff0"/>
<rect x="339" y="276" width="68" height="10" fill="#ff0"/>
<text x="20" y="305" class="sm">7.104e-08</text>
<rect x="100" y="295" width="292" height="12" fill="#00f"/>
<rect x="449" y="295" width="52" height="12" fill="#00f"/>
<line x1="392" y1="301" x2="448" y2="301" stroke="#00f"/>
<rect x="103" y="296" width="289" height="10" fill="#ff0"/>
<rect x="450" y="296" width="33" height="10" fill="#ff0"/>
<text x="20" y="325" class="sm">6.502e-08</text>
<rect x="100" y="315" width="161" height="12" fill="#00f"/>
<rect x="310" y="315" width="82" height="12" fill="#00f"/>
<rect x="449" y="315" width="52" height="12" fill="#00f"/>
<line x1="261" y1="321" x2="309" y2="321" stroke="#00f"/>
<line x1="392" y1="321" x2="448" y2="321" stroke="#00f"/>
<rect x="103" y="316" width="158" height="10" fill="#ff0"/>
<rect x="311" y="316" width="77" height="10" fill="#ff0"/>
<text x="20" y="345" class="sm">5.944e-08</text>
<rect x="100" y="335" width="127" height="12" fill="#00f"/>
<rect x="310" y="335" width="191" height="12" fill="#00f"/>
<line x1="227" y1="341" x2="309" y2="341" stroke="#00f"/>
<rect x="103" y="336" width="124" height="10" fill="#ff0"/>
<rect x="311" y="336" width="96" height="10" fill="#ff0"/>
<text x="20" y="365" class="sm">4.543e-08</text>
<rect x="100" y="355" width="161" height="12" fill="#00f"/>
<rect x="377" y="355" width="124" height="12" fill="#00f"/>
<line x1="261" y1="361" x2="376" y2="361" stroke="#00f"/>
<rect x="103" y="356" width="158" height="10" fill="#ff0"/>
<rect x="378" y="356" width="29" height="10" fill="#ff0"/>
<text x="20" y="385" class="sm">4.499e-08</text>
<rect x="100" y="375" width="119" height="12" fill="#00f"/>
<rect x="267" y="375" width="234" height="12" fill="#00f"/>
<line x1="219" y1="381" x2="266" y2="381" stroke="#00f"/>
<rect x="103" y="376" width="116" height="10" fill="#ff0"/>
<rect x="268" y="376" width="215" height="10" fill="#ff0"/>
<text x="20" y="405" class="sm">1.901e-08</text>
<rect x="100" y="395" width="179" height="12" fill="#00f"/>
<rect x="331" y="395" width="170" height="12" fill="#00f"/>
<line x1="279" y1="401" x2="330" y2="401" stroke="#00f"/>
<rect x="103" y="396" width="176" height="10" fill="#ff0"/>
<rect x="332" y="396" width="56" height="10" fill="#ff0"/>
<text x="20" y="425" class="sm">1.093e-08</text>
<rect x="100" y="415" width="179" height="12" fill="#00f"/>
<rect x="346" y="415" width="155" height="12" fill="#00f"/>
<line x1="279" y1="421" x2="345" y2="421" stroke="#00f"/>
<rect x="103" y="416" width="176" height="10" fill="#ff0"/>
<rect x="347" y="416" width="41" height="10" fill="#ff0"/>
<text x="20" y="445" class="sm">6.537e-09</text>
<rect x="100" y="435" width="161" height="12" fill="#00f"/>
<rect x="333" y="435" width="168" height="12" fill="#00f"/>
<line x1="261" y1="441" x2="332" y2="441" stroke="#00f"/>
<rect x="103" y="436" width="158" height="10" fill="#ff0"/>
<rect x="334" y="436" width="149" height="10" fill="#ff0"/>
<text x="20" y="465" class="sm">1.859e-09</text>
<rect x="100" y="455" width="136" height="12" fill="#00f"/>
<rect x="310" y="455" width="191" height="12" fill="#00f"/>
<line x1="236" y1="461" x2="309" y2="461" stroke="#00f"/>
<rect x="103" y="456" width="133" height="10" fill="#ff0"/>
<rect x="311" y="456" width="96" height="10" fill="#ff0"/>
<text x="20" y="485" class="sm">1.767e-09</text>
<rect x="100" y="475" width="179" height="12" fill="#00f"/>
<rect x="338" y="475" width="163" height="12" fill="#00f"/>
<line x1="279" y1="481" x2="337" y2="481" stroke="#00f"/>
<rect x="103" y="476" width="176" height="10" fill="#ff0"/>
<rect x="339" y="476" width="68" height="10" fill="#ff0"/>
<text x="20" y="505" class="sm">1.765e-09</text>
<rect x="100" y="495" width="179" height="12" fill="#00f"/>
<rect x="393" y="495" width="108" height="12" fill="#00f"/>
<line x1="279" y1="501" x2="392" y2="501" stroke="#00f"/>
<rect x="103" y="496" width="176" height="10" fill="#ff0"/>
<rect x="394" y="496" width="89" height="10" fill="#ff0"/>
</svg>
