<svg viewBox="0 0 780 530" xmlns="http://www.w3.org/2000/svg">

<style>
  .sm { font: 12px sans-serif; }
  .lg { font: 15px sans-serif; }
</style>
<rect fill="#ddd" x="0" y="0" width="100%" height="100%"/>
<text x="20" y="20" class="lg">ch.5331 II:9597522-9598301 Gene:WBGene00008459</text>
<text x="20" y="50" class="sm">WormBase</text>
<rect x="100" y="40" width="96" height="12" fill="#00f"/>
<rect x="243" y="40" width="169" height="12" fill="#00f"/>
<rect x="459" y="40" width="221" height="12" fill="#00f"/>
<line x1="196" y1="46" x2="242" y2="46" stroke="#00f"/>
<line x1="412" y1="46" x2="458" y2="46" stroke="#00f"/>
<rect x="104" y="41" width="92" height="10" fill="#ff0"/>
<rect x="244" y="41" width="168" height="10" fill="#ff0"/>
<rect x="460" y="41" width="127" height="10" fill="#ff0"/>
<rect x="101" y="41" width="2" height="10" fill="brown"><title>.</title></rect>
<rect x="588" y="41" width="92" height="10" fill="brown"><title>.</title></rect>
<text x="20" y="70" class="sm">Fitness: 0.04689717404724224</text>
<rect x="196" y="65" width="47" height="5" fill="#00f"><title>416830.0</title></rect>
<rect x="412" y="70" width="47" height="5" fill="#00f"><title>379604.0</title></rect>
<rect x="416" y="75" width="43" height="5" fill="#00f"><title>8.0</title></rect>
<rect x="399" y="80" width="60" height="5" fill="#00f"><title>6.0</title></rect>
<rect x="319" y="85" width="37" height="5" fill="#00f"><title>3.0</title></rect>
<rect x="491" y="90" width="27" height="5" fill="#00f"><title>3.0</title></rect>
<text x="20" y="120" class="sm">0.9991</text>
<rect x="100" y="110" width="96" height="12" fill="#00f"/>
<rect x="243" y="110" width="169" height="12" fill="#00f"/>
<rect x="459" y="110" width="224" height="12" fill="#00f"/>
<line x1="196" y1="116" x2="242" y2="116" stroke="#00f"/>
<line x1="412" y1="116" x2="458" y2="116" stroke="#00f"/>
<rect x="104" y="111" width="92" height="10" fill="#ff0"/>
<rect x="244" y="111" width="168" height="10" fill="#ff0"/>
<rect x="460" y="111" width="127" height="10" fill="#ff0"/>
<text x="20" y="140" class="sm">0.0005746</text>
<rect x="100" y="130" width="96" height="12" fill="#00f"/>
<rect x="243" y="130" width="173" height="12" fill="#00f"/>
<rect x="459" y="130" width="224" height="12" fill="#00f"/>
<line x1="196" y1="136" x2="242" y2="136" stroke="#00f"/>
<line x1="416" y1="136" x2="458" y2="136" stroke="#00f"/>
<rect x="104" y="131" width="92" height="10" fill="#ff0"/>
<rect x="244" y="131" width="172" height="10" fill="#ff0"/>
<rect x="460" y="131" width="30" height="10" fill="#ff0"/>
<text x="20" y="160" class="sm">9.449e-05</text>
<rect x="100" y="150" width="96" height="12" fill="#00f"/>
<rect x="243" y="150" width="169" height="12" fill="#00f"/>
<rect x="459" y="150" width="130" height="12" fill="#00f"/>
<rect x="637" y="150" width="46" height="12" fill="#00f"/>
<line x1="196" y1="156" x2="242" y2="156" stroke="#00f"/>
<line x1="412" y1="156" x2="458" y2="156" stroke="#00f"/>
<line x1="589" y1="156" x2="636" y2="156" stroke="#00f"/>
<rect x="104" y="151" width="92" height="10" fill="#ff0"/>
<rect x="244" y="151" width="168" height="10" fill="#ff0"/>
<rect x="460" y="151" width="127" height="10" fill="#ff0"/>
<text x="20" y="180" class="sm">8.634e-05</text>
<rect x="100" y="170" width="312" height="12" fill="#00f"/>
<rect x="459" y="170" width="224" height="12" fill="#00f"/>
<line x1="412" y1="176" x2="458" y2="176" stroke="#00f"/>
<rect x="319" y="171" width="93" height="10" fill="#ff0"/>
<rect x="460" y="171" width="127" height="10" fill="#ff0"/>
<text x="20" y="200" class="sm">4.874e-05</text>
<rect x="100" y="190" width="103" height="12" fill="#00f"/>
<rect x="243" y="190" width="169" height="12" fill="#00f"/>
<rect x="459" y="190" width="224" height="12" fill="#00f"/>
<line x1="203" y1="196" x2="242" y2="196" stroke="#00f"/>
<line x1="412" y1="196" x2="458" y2="196" stroke="#00f"/>
<rect x="132" y="191" width="71" height="10" fill="#ff0"/>
<rect x="244" y="191" width="168" height="10" fill="#ff0"/>
<rect x="460" y="191" width="127" height="10" fill="#ff0"/>
<text x="20" y="220" class="sm">2.248e-05</text>
<rect x="100" y="210" width="96" height="12" fill="#00f"/>
<rect x="243" y="210" width="169" height="12" fill="#00f"/>
<rect x="459" y="210" width="144" height="12" fill="#00f"/>
<rect x="651" y="210" width="32" height="12" fill="#00f"/>
<line x1="196" y1="216" x2="242" y2="216" stroke="#00f"/>
<line x1="412" y1="216" x2="458" y2="216" stroke="#00f"/>
<line x1="603" y1="216" x2="650" y2="216" stroke="#00f"/>
<rect x="104" y="211" width="92" height="10" fill="#ff0"/>
<rect x="244" y="211" width="168" height="10" fill="#ff0"/>
<rect x="460" y="211" width="127" height="10" fill="#ff0"/>
<text x="20" y="240" class="sm">1.241e-05</text>
<rect x="100" y="230" width="96" height="12" fill="#00f"/>
<rect x="243" y="230" width="169" height="12" fill="#00f"/>
<rect x="459" y="230" width="144" height="12" fill="#00f"/>
<rect x="640" y="230" width="43" height="12" fill="#00f"/>
<line x1="196" y1="236" x2="242" y2="236" stroke="#00f"/>
<line x1="412" y1="236" x2="458" y2="236" stroke="#00f"/>
<line x1="603" y1="236" x2="639" y2="236" stroke="#00f"/>
<rect x="104" y="231" width="92" height="10" fill="#ff0"/>
<rect x="244" y="231" width="168" height="10" fill="#ff0"/>
<rect x="460" y="231" width="127" height="10" fill="#ff0"/>
<text x="20" y="260" class="sm">5.08e-06</text>
<rect x="100" y="250" width="96" height="12" fill="#00f"/>
<rect x="243" y="250" width="156" height="12" fill="#00f"/>
<rect x="459" y="250" width="224" height="12" fill="#00f"/>
<line x1="196" y1="256" x2="242" y2="256" stroke="#00f"/>
<line x1="399" y1="256" x2="458" y2="256" stroke="#00f"/>
<rect x="104" y="251" width="92" height="10" fill="#ff0"/>
<rect x="244" y="251" width="155" height="10" fill="#ff0"/>
<rect x="460" y="251" width="38" height="10" fill="#ff0"/>
<text x="20" y="280" class="sm">3.491e-06</text>
<rect x="100" y="270" width="96" height="12" fill="#00f"/>
<rect x="243" y="270" width="87" height="12" fill="#00f"/>
<rect x="459" y="270" width="224" height="12" fill="#00f"/>
<line x1="196" y1="276" x2="242" y2="276" stroke="#00f"/>
<line x1="330" y1="276" x2="458" y2="276" stroke="#00f"/>
<rect x="142" y="271" width="54" height="10" fill="#ff0"/>
<rect x="244" y="271" width="86" height="10" fill="#ff0"/>
<rect x="460" y="271" width="127" height="10" fill="#ff0"/>
<text x="20" y="300" class="sm">1.783e-06</text>
<rect x="100" y="290" width="96" height="12" fill="#00f"/>
<rect x="243" y="290" width="179" height="12" fill="#00f"/>
<rect x="459" y="290" width="224" height="12" fill="#00f"/>
<line x1="196" y1="296" x2="242" y2="296" stroke="#00f"/>
<line x1="422" y1="296" x2="458" y2="296" stroke="#00f"/>
<rect x="104" y="291" width="92" height="10" fill="#ff0"/>
<rect x="244" y="291" width="178" height="10" fill="#ff0"/>
<rect x="460" y="291" width="0" height="10" fill="#ff0"/>
<text x="20" y="320" class="sm">4.495e-07</text>
<rect x="100" y="310" width="36" height="12" fill="#00f"/>
<rect x="204" y="310" width="208" height="12" fill="#00f"/>
<rect x="459" y="310" width="224" height="12" fill="#00f"/>
<line x1="136" y1="316" x2="203" y2="316" stroke="#00f"/>
<line x1="412" y1="316" x2="458" y2="316" stroke="#00f"/>
<rect x="319" y="311" width="93" height="10" fill="#ff0"/>
<rect x="460" y="311" width="127" height="10" fill="#ff0"/>
<text x="20" y="340" class="sm">3.691e-07</text>
<rect x="100" y="330" width="96" height="12" fill="#00f"/>
<rect x="243" y="330" width="169" height="12" fill="#00f"/>
<rect x="459" y="330" width="50" height="12" fill="#00f"/>
<rect x="546" y="330" width="137" height="12" fill="#00f"/>
<line x1="196" y1="336" x2="242" y2="336" stroke="#00f"/>
<line x1="412" y1="336" x2="458" y2="336" stroke="#00f"/>
<line x1="509" y1="336" x2="545" y2="336" stroke="#00f"/>
<rect x="104" y="331" width="92" height="10" fill="#ff0"/>
<rect x="244" y="331" width="168" height="10" fill="#ff0"/>
<rect x="460" y="331" width="49" height="10" fill="#ff0"/>
<rect x="547" y="331" width="101" height="10" fill="#ff0"/>
<text x="20" y="360" class="sm">1.624e-07</text>
<rect x="100" y="350" width="36" height="12" fill="#00f"/>
<rect x="243" y="350" width="169" height="12" fill="#00f"/>
<rect x="459" y="350" width="224" height="12" fill="#00f"/>
<line x1="136" y1="356" x2="242" y2="356" stroke="#00f"/>
<line x1="412" y1="356" x2="458" y2="356" stroke="#00f"/>
<rect x="104" y="351" width="32" height="10" fill="#ff0"/>
<rect x="244" y="351" width="168" height="10" fill="#ff0"/>
<rect x="460" y="351" width="127" height="10" fill="#ff0"/>
<text x="20" y="380" class="sm">8.232e-08</text>
<rect x="100" y="370" width="96" height="12" fill="#00f"/>
<rect x="243" y="370" width="169" height="12" fill="#00f"/>
<rect x="459" y="370" width="130" height="12" fill="#00f"/>
<rect x="640" y="370" width="43" height="12" fill="#00f"/>
<line x1="196" y1="376" x2="242" y2="376" stroke="#00f"/>
<line x1="412" y1="376" x2="458" y2="376" stroke="#00f"/>
<line x1="589" y1="376" x2="639" y2="376" stroke="#00f"/>
<rect x="104" y="371" width="92" height="10" fill="#ff0"/>
<rect x="244" y="371" width="168" height="10" fill="#ff0"/>
<rect x="460" y="371" width="127" height="10" fill="#ff0"/>
<text x="20" y="400" class="sm">5.434e-08</text>
<rect x="100" y="390" width="96" height="12" fill="#00f"/>
<rect x="243" y="390" width="173" height="12" fill="#00f"/>
<rect x="459" y="390" width="130" height="12" fill="#00f"/>
<rect x="637" y="390" width="46" height="12" fill="#00f"/>
<line x1="196" y1="396" x2="242" y2="396" stroke="#00f"/>
<line x1="416" y1="396" x2="458" y2="396" stroke="#00f"/>
<line x1="589" y1="396" x2="636" y2="396" stroke="#00f"/>
<rect x="104" y="391" width="92" height="10" fill="#ff0"/>
<rect x="244" y="391" width="172" height="10" fill="#ff0"/>
<rect x="460" y="391" width="30" height="10" fill="#ff0"/>
<text x="20" y="420" class="sm">4.978e-08</text>
<rect x="100" y="410" width="316" height="12" fill="#00f"/>
<rect x="459" y="410" width="224" height="12" fill="#00f"/>
<line x1="416" y1="416" x2="458" y2="416" stroke="#00f"/>
<rect x="377" y="411" width="39" height="10" fill="#ff0"/>
<rect x="460" y="411" width="127" height="10" fill="#ff0"/>
<text x="20" y="440" class="sm">2.803e-08</text>
<rect x="100" y="430" width="103" height="12" fill="#00f"/>
<rect x="243" y="430" width="173" height="12" fill="#00f"/>
<rect x="459" y="430" width="224" height="12" fill="#00f"/>
<line x1="203" y1="436" x2="242" y2="436" stroke="#00f"/>
<line x1="416" y1="436" x2="458" y2="436" stroke="#00f"/>
<rect x="132" y="431" width="71" height="10" fill="#ff0"/>
<rect x="244" y="431" width="172" height="10" fill="#ff0"/>
<rect x="460" y="431" width="30" height="10" fill="#ff0"/>
<text x="20" y="460" class="sm">1.293e-08</text>
<rect x="100" y="450" width="96" height="12" fill="#00f"/>
<rect x="243" y="450" width="173" height="12" fill="#00f"/>
<rect x="459" y="450" width="144" height="12" fill="#00f"/>
<rect x="651" y="450" width="32" height="12" fill="#00f"/>
<line x1="196" y1="456" x2="242" y2="456" stroke="#00f"/>
<line x1="416" y1="456" x2="458" y2="456" stroke="#00f"/>
<line x1="603" y1="456" x2="650" y2="456" stroke="#00f"/>
<rect x="104" y="451" width="92" height="10" fill="#ff0"/>
<rect x="244" y="451" width="172" height="10" fill="#ff0"/>
<rect x="460" y="451" width="30" height="10" fill="#ff0"/>
<text x="20" y="480" class="sm">9.201e-09</text>
<rect x="100" y="470" width="96" height="12" fill="#00f"/>
<rect x="243" y="470" width="108" height="12" fill="#00f"/>
<rect x="459" y="470" width="224" height="12" fill="#00f"/>
<line x1="196" y1="476" x2="242" y2="476" stroke="#00f"/>
<line x1="351" y1="476" x2="458" y2="476" stroke="#00f"/>
<rect x="142" y="471" width="54" height="10" fill="#ff0"/>
<rect x="244" y="471" width="107" height="10" fill="#ff0"/>
<rect x="460" y="471" width="127" height="10" fill="#ff0"/>
<text x="20" y="500" class="sm">8.165e-09</text>
<rect x="100" y="490" width="312" height="12" fill="#00f"/>
<rect x="459" y="490" width="130" height="12" fill="#00f"/>
<rect x="637" y="490" width="46" height="12" fill="#00f"/>
<line x1="412" y1="496" x2="458" y2="496" stroke="#00f"/>
<line x1="589" y1="496" x2="636" y2="496" stroke="#00f"/>
<rect x="319" y="491" width="93" height="10" fill="#ff0"/>
<rect x="460" y="491" width="127" height="10" fill="#ff0"/>
</svg>
