<svg viewBox="0 0 548 520" xmlns="http://www.w3.org/2000/svg">

<style>
  .sm { font: 12px sans-serif; }
  .lg { font: 15px sans-serif; }
</style>
<rect fill="#ddd" x="0" y="0" width="100%" height="100%"/>
<text x="20" y="20" class="lg">ch.5647 II:10922527-10923074 Gene:WBGene00012489</text>
<text x="20" y="50" class="sm">WormBase</text>
<rect x="102" y="40" width="125" height="12" fill="#00f"/>
<rect x="272" y="40" width="178" height="12" fill="#00f"/>
<line x1="227" y1="46" x2="271" y2="46" stroke="#00f"/>
<rect x="103" y="41" width="124" height="10" fill="#ff0"/>
<rect x="273" y="41" width="132" height="10" fill="#ff0"/>
<rect x="406" y="41" width="44" height="10" fill="brown"><title>.</title></rect>
<text x="20" y="70" class="sm">Fitness: 1.1849176539748863e-05</text>
<rect x="227" y="65" width="45" height="5" fill="#00f"><title>505946.0</title></rect>
<rect x="219" y="70" width="53" height="5" fill="#00f"><title>30.0</title></rect>
<rect x="354" y="75" width="45" height="5" fill="#00f"><title>3.0</title></rect>
<rect x="200" y="80" width="72" height="5" fill="#00f"><title>3.0</title></rect>
<text x="20" y="110" class="sm">0.9999</text>
<rect x="100" y="100" width="127" height="12" fill="#00f"/>
<rect x="272" y="100" width="179" height="12" fill="#00f"/>
<line x1="227" y1="106" x2="271" y2="106" stroke="#00f"/>
<rect x="103" y="101" width="124" height="10" fill="#ff0"/>
<rect x="273" y="101" width="132" height="10" fill="#ff0"/>
<text x="20" y="130" class="sm">5.967e-05</text>
<rect x="100" y="120" width="119" height="12" fill="#00f"/>
<rect x="272" y="120" width="179" height="12" fill="#00f"/>
<line x1="219" y1="126" x2="271" y2="126" stroke="#00f"/>
<rect x="103" y="121" width="116" height="10" fill="#ff0"/>
<rect x="273" y="121" width="38" height="10" fill="#ff0"/>
<text x="20" y="150" class="sm">6.659e-06</text>
<rect x="100" y="140" width="100" height="12" fill="#00f"/>
<rect x="272" y="140" width="179" height="12" fill="#00f"/>
<line x1="200" y1="146" x2="271" y2="146" stroke="#00f"/>
<rect x="103" y="141" width="97" height="10" fill="#ff0"/>
<rect x="273" y="141" width="132" height="10" fill="#ff0"/>
<text x="20" y="170" class="sm">1.995e-06</text>
<rect x="100" y="160" width="127" height="12" fill="#00f"/>
<rect x="283" y="160" width="168" height="12" fill="#00f"/>
<line x1="227" y1="166" x2="282" y2="166" stroke="#00f"/>
<rect x="103" y="161" width="124" height="10" fill="#ff0"/>
<rect x="284" y="161" width="0" height="10" fill="#ff0"/>
<text x="20" y="190" class="sm">5.285e-07</text>
<rect x="100" y="180" width="127" height="12" fill="#00f"/>
<rect x="272" y="180" width="44" height="12" fill="#00f"/>
<rect x="361" y="180" width="90" height="12" fill="#00f"/>
<line x1="227" y1="186" x2="271" y2="186" stroke="#00f"/>
<line x1="316" y1="186" x2="360" y2="186" stroke="#00f"/>
<rect x="103" y="181" width="124" height="10" fill="#ff0"/>
<rect x="273" y="181" width="43" height="10" fill="#ff0"/>
<rect x="362" y="181" width="43" height="10" fill="#ff0"/>
<text x="20" y="210" class="sm">3.84e-07</text>
<rect x="100" y="200" width="88" height="12" fill="#00f"/>
<rect x="272" y="200" width="179" height="12" fill="#00f"/>
<line x1="188" y1="206" x2="271" y2="206" stroke="#00f"/>
<rect x="103" y="201" width="85" height="10" fill="#ff0"/>
<rect x="273" y="201" width="132" height="10" fill="#ff0"/>
<text x="20" y="230" class="sm">1.01e-07</text>
<rect x="100" y="220" width="127" height="12" fill="#00f"/>
<rect x="295" y="220" width="156" height="12" fill="#00f"/>
<line x1="227" y1="226" x2="294" y2="226" stroke="#00f"/>
<rect x="103" y="221" width="124" height="10" fill="#ff0"/>
<rect x="296" y="221" width="0" height="10" fill="#ff0"/>
<text x="20" y="250" class="sm">5.72e-08</text>
<rect x="100" y="240" width="127" height="12" fill="#00f"/>
<rect x="286" y="240" width="165" height="12" fill="#00f"/>
<line x1="227" y1="246" x2="285" y2="246" stroke="#00f"/>
<rect x="103" y="241" width="124" height="10" fill="#ff0"/>
<rect x="287" y="241" width="24" height="10" fill="#ff0"/>
<text x="20" y="270" class="sm">3.427e-08</text>
<rect x="100" y="260" width="127" height="12" fill="#00f"/>
<rect x="272" y="260" width="82" height="12" fill="#00f"/>
<rect x="397" y="260" width="54" height="12" fill="#00f"/>
<line x1="227" y1="266" x2="271" y2="266" stroke="#00f"/>
<line x1="354" y1="266" x2="396" y2="266" stroke="#00f"/>
<rect x="128" y="261" width="71" height="10" fill="#ff0"/>
<text x="20" y="290" class="sm">1.518e-08</text>
<rect x="100" y="280" width="138" height="12" fill="#00f"/>
<rect x="283" y="280" width="168" height="12" fill="#00f"/>
<line x1="238" y1="286" x2="282" y2="286" stroke="#00f"/>
<rect x="103" y="281" width="128" height="10" fill="#ff0"/>
<text x="20" y="310" class="sm">1.375e-08</text>
<rect x="100" y="300" width="127" height="12" fill="#00f"/>
<rect x="272" y="300" width="82" height="12" fill="#00f"/>
<rect x="394" y="300" width="57" height="12" fill="#00f"/>
<line x1="227" y1="306" x2="271" y2="306" stroke="#00f"/>
<line x1="354" y1="306" x2="393" y2="306" stroke="#00f"/>
<rect x="128" y="301" width="71" height="10" fill="#ff0"/>
<text x="20" y="330" class="sm">7.02e-09</text>
<rect x="100" y="320" width="141" height="12" fill="#00f"/>
<rect x="295" y="320" width="156" height="12" fill="#00f"/>
<line x1="241" y1="326" x2="294" y2="326" stroke="#00f"/>
<rect x="103" y="321" width="128" height="10" fill="#ff0"/>
<text x="20" y="350" class="sm">5.525e-09</text>
<rect x="100" y="340" width="141" height="12" fill="#00f"/>
<rect x="283" y="340" width="168" height="12" fill="#00f"/>
<line x1="241" y1="346" x2="282" y2="346" stroke="#00f"/>
<rect x="103" y="341" width="128" height="10" fill="#ff0"/>
<text x="20" y="370" class="sm">4.476e-09</text>
<rect x="100" y="360" width="127" height="12" fill="#00f"/>
<rect x="272" y="360" width="82" height="12" fill="#00f"/>
<rect x="399" y="360" width="52" height="12" fill="#00f"/>
<line x1="227" y1="366" x2="271" y2="366" stroke="#00f"/>
<line x1="354" y1="366" x2="398" y2="366" stroke="#00f"/>
<rect x="103" y="361" width="124" height="10" fill="#ff0"/>
<rect x="273" y="361" width="81" height="10" fill="#ff0"/>
<rect x="400" y="361" width="5" height="10" fill="#ff0"/>
<text x="20" y="390" class="sm">4.456e-09</text>
<rect x="100" y="380" width="127" height="12" fill="#00f"/>
<rect x="272" y="380" width="30" height="12" fill="#00f"/>
<rect x="352" y="380" width="99" height="12" fill="#00f"/>
<line x1="227" y1="386" x2="271" y2="386" stroke="#00f"/>
<line x1="302" y1="386" x2="351" y2="386" stroke="#00f"/>
<rect x="103" y="381" width="124" height="10" fill="#ff0"/>
<rect x="273" y="381" width="29" height="10" fill="#ff0"/>
<rect x="353" y="381" width="12" height="10" fill="#ff0"/>
<text x="20" y="410" class="sm">3.279e-09</text>
<rect x="100" y="400" width="127" height="12" fill="#00f"/>
<rect x="272" y="400" width="44" height="12" fill="#00f"/>
<rect x="352" y="400" width="99" height="12" fill="#00f"/>
<line x1="227" y1="406" x2="271" y2="406" stroke="#00f"/>
<line x1="316" y1="406" x2="351" y2="406" stroke="#00f"/>
<rect x="103" y="401" width="124" height="10" fill="#ff0"/>
<rect x="273" y="401" width="43" height="10" fill="#ff0"/>
<rect x="353" y="401" width="52" height="10" fill="#ff0"/>
<text x="20" y="430" class="sm">2.443e-09</text>
<rect x="100" y="420" width="88" height="12" fill="#00f"/>
<rect x="239" y="420" width="212" height="12" fill="#00f"/>
<line x1="188" y1="426" x2="238" y2="426" stroke="#00f"/>
<rect x="103" y="421" width="85" height="10" fill="#ff0"/>
<rect x="240" y="421" width="165" height="10" fill="#ff0"/>
<text x="20" y="450" class="sm">2.07e-09</text>
<rect x="100" y="440" width="138" height="12" fill="#00f"/>
<rect x="295" y="440" width="156" height="12" fill="#00f"/>
<line x1="238" y1="446" x2="294" y2="446" stroke="#00f"/>
<rect x="103" y="441" width="128" height="10" fill="#ff0"/>
<text x="20" y="470" class="sm">1.86e-09</text>
<rect x="100" y="460" width="138" height="12" fill="#00f"/>
<rect x="286" y="460" width="165" height="12" fill="#00f"/>
<line x1="238" y1="466" x2="285" y2="466" stroke="#00f"/>
<rect x="103" y="461" width="128" height="10" fill="#ff0"/>
<text x="20" y="490" class="sm">1.812e-09</text>
<rect x="100" y="480" width="127" height="12" fill="#00f"/>
<rect x="272" y="480" width="44" height="12" fill="#00f"/>
<rect x="354" y="480" width="97" height="12" fill="#00f"/>
<line x1="227" y1="486" x2="271" y2="486" stroke="#00f"/>
<line x1="316" y1="486" x2="353" y2="486" stroke="#00f"/>
<rect x="103" y="481" width="124" height="10" fill="#ff0"/>
<rect x="273" y="481" width="43" height="10" fill="#ff0"/>
<rect x="355" y="481" width="10" height="10" fill="#ff0"/>
</svg>
