<svg viewBox="0 0 849 565" xmlns="http://www.w3.org/2000/svg">

<style>
  .sm { font: 12px sans-serif; }
  .lg { font: 15px sans-serif; }
</style>
<rect fill="#ddd" x="0" y="0" width="100%" height="100%"/>
<text x="20" y="20" class="lg">ch.5175 II:8964142-8964990 Gene:WBGene00007684</text>
<text x="20" y="50" class="sm">WormBase</text>
<rect x="102" y="40" width="132" height="12" fill="#00f"/>
<rect x="286" y="40" width="67" height="12" fill="#00f"/>
<rect x="536" y="40" width="215" height="12" fill="#00f"/>
<line x1="234" y1="46" x2="285" y2="46" stroke="#00f"/>
<line x1="353" y1="46" x2="535" y2="46" stroke="#00f"/>
<rect x="104" y="41" width="130" height="10" fill="#ff0"/>
<rect x="287" y="41" width="66" height="10" fill="#ff0"/>
<rect x="537" y="41" width="113" height="10" fill="#ff0"/>
<rect x="103" y="41" width="0" height="10" fill="brown"><title>.</title></rect>
<rect x="651" y="41" width="100" height="10" fill="brown"><title>.</title></rect>
<text x="20" y="70" class="sm">Fitness: 0.34804203946355233</text>
<rect x="234" y="65" width="52" height="5" fill="#00f"><title>2076400.0</title></rect>
<rect x="353" y="70" width="183" height="5" fill="#00f"><title>1785830.0</title></rect>
<rect x="238" y="75" width="48" height="5" fill="#00f"><title>1313.0</title></rect>
<rect x="64" y="80" width="49" height="5" fill="#00f"><title>37.0</title></rect>
<rect x="353" y="85" width="211" height="5" fill="#00f"><title>21.0</title></rect>
<rect x="353" y="90" width="247" height="5" fill="#00f"><title>16.0</title></rect>
<rect x="64" y="95" width="38" height="5" fill="#00f"><title>14.0</title></rect>
<rect x="797" y="100" width="49" height="5" fill="#00f"><title>11.0</title></rect>
<rect x="353" y="105" width="151" height="5" fill="#00f"><title>10.0</title></rect>
<rect x="156" y="110" width="141" height="5" fill="#f0f"><title>5.0</title></rect>
<rect x="353" y="115" width="261" height="5" fill="#00f"><title>3.0</title></rect>
<rect x="334" y="120" width="246" height="5" fill="#f0f"><title>3.0</title></rect>
<rect x="158" y="125" width="31" height="5" fill="#f0f"><title>3.0</title></rect>
<text x="20" y="155" class="sm">0.5209</text>
<rect x="100" y="145" width="134" height="12" fill="#00f"/>
<rect x="286" y="145" width="67" height="12" fill="#00f"/>
<rect x="536" y="145" width="216" height="12" fill="#00f"/>
<line x1="234" y1="151" x2="285" y2="151" stroke="#00f"/>
<line x1="353" y1="151" x2="535" y2="151" stroke="#00f"/>
<rect x="104" y="146" width="130" height="10" fill="#ff0"/>
<rect x="287" y="146" width="66" height="10" fill="#ff0"/>
<rect x="537" y="146" width="113" height="10" fill="#ff0"/>
<text x="20" y="175" class="sm">0.2055</text>
<rect x="100" y="165" width="253" height="12" fill="#00f"/>
<rect x="536" y="165" width="216" height="12" fill="#00f"/>
<line x1="353" y1="171" x2="535" y2="171" stroke="#00f"/>
<rect x="104" y="166" width="149" height="10" fill="#ff0"/>
<text x="20" y="195" class="sm">0.04394</text>
<rect x="100" y="185" width="134" height="12" fill="#00f"/>
<rect x="286" y="185" width="67" height="12" fill="#00f"/>
<rect x="536" y="185" width="103" height="12" fill="#00f"/>
<rect x="720" y="185" width="32" height="12" fill="#00f"/>
<line x1="234" y1="191" x2="285" y2="191" stroke="#00f"/>
<line x1="353" y1="191" x2="535" y2="191" stroke="#00f"/>
<line x1="639" y1="191" x2="719" y2="191" stroke="#00f"/>
<rect x="104" y="186" width="130" height="10" fill="#ff0"/>
<rect x="287" y="186" width="66" height="10" fill="#ff0"/>
<rect x="537" y="186" width="102" height="10" fill="#ff0"/>
<rect x="721" y="186" width="7" height="10" fill="#ff0"/>
<text x="20" y="215" class="sm">0.04219</text>
<rect x="100" y="205" width="134" height="12" fill="#00f"/>
<rect x="286" y="205" width="67" height="12" fill="#00f"/>
<rect x="536" y="205" width="103" height="12" fill="#00f"/>
<rect x="692" y="205" width="60" height="12" fill="#00f"/>
<line x1="234" y1="211" x2="285" y2="211" stroke="#00f"/>
<line x1="353" y1="211" x2="535" y2="211" stroke="#00f"/>
<line x1="639" y1="211" x2="691" y2="211" stroke="#00f"/>
<rect x="104" y="206" width="130" height="10" fill="#ff0"/>
<rect x="287" y="206" width="66" height="10" fill="#ff0"/>
<rect x="537" y="206" width="102" height="10" fill="#ff0"/>
<rect x="693" y="206" width="4" height="10" fill="#ff0"/>
<text x="20" y="235" class="sm">0.03801</text>
<rect x="100" y="225" width="134" height="12" fill="#00f"/>
<rect x="286" y="225" width="71" height="12" fill="#00f"/>
<rect x="536" y="225" width="216" height="12" fill="#00f"/>
<line x1="234" y1="231" x2="285" y2="231" stroke="#00f"/>
<line x1="357" y1="231" x2="535" y2="231" stroke="#00f"/>
<rect x="104" y="226" width="130" height="10" fill="#ff0"/>
<rect x="287" y="226" width="70" height="10" fill="#ff0"/>
<rect x="537" y="226" width="58" height="10" fill="#ff0"/>
<text x="20" y="255" class="sm">0.02593</text>
<rect x="100" y="245" width="134" height="12" fill="#00f"/>
<rect x="286" y="245" width="142" height="12" fill="#00f"/>
<rect x="536" y="245" width="216" height="12" fill="#00f"/>
<line x1="234" y1="251" x2="285" y2="251" stroke="#00f"/>
<line x1="428" y1="251" x2="535" y2="251" stroke="#00f"/>
<rect x="104" y="246" width="130" height="10" fill="#ff0"/>
<rect x="287" y="246" width="93" height="10" fill="#ff0"/>
<text x="20" y="275" class="sm">0.01959</text>
<rect x="100" y="265" width="138" height="12" fill="#00f"/>
<rect x="286" y="265" width="67" height="12" fill="#00f"/>
<rect x="536" y="265" width="216" height="12" fill="#00f"/>
<line x1="238" y1="271" x2="285" y2="271" stroke="#00f"/>
<line x1="353" y1="271" x2="535" y2="271" stroke="#00f"/>
<rect x="104" y="266" width="134" height="10" fill="#ff0"/>
<rect x="287" y="266" width="66" height="10" fill="#ff0"/>
<rect x="537" y="266" width="58" height="10" fill="#ff0"/>
<text x="20" y="295" class="sm">0.01888</text>
<rect x="100" y="285" width="134" height="12" fill="#00f"/>
<rect x="286" y="285" width="163" height="12" fill="#00f"/>
<rect x="536" y="285" width="216" height="12" fill="#00f"/>
<line x1="234" y1="291" x2="285" y2="291" stroke="#00f"/>
<line x1="449" y1="291" x2="535" y2="291" stroke="#00f"/>
<rect x="104" y="286" width="130" height="10" fill="#ff0"/>
<rect x="287" y="286" width="93" height="10" fill="#ff0"/>
<text x="20" y="315" class="sm">0.01733</text>
<rect x="100" y="305" width="253" height="12" fill="#00f"/>
<rect x="536" y="305" width="103" height="12" fill="#00f"/>
<rect x="720" y="305" width="32" height="12" fill="#00f"/>
<line x1="353" y1="311" x2="535" y2="311" stroke="#00f"/>
<line x1="639" y1="311" x2="719" y2="311" stroke="#00f"/>
<rect x="104" y="306" width="149" height="10" fill="#ff0"/>
<text x="20" y="335" class="sm">0.01664</text>
<rect x="100" y="325" width="253" height="12" fill="#00f"/>
<rect x="536" y="325" width="103" height="12" fill="#00f"/>
<rect x="692" y="325" width="60" height="12" fill="#00f"/>
<line x1="353" y1="331" x2="535" y2="331" stroke="#00f"/>
<line x1="639" y1="331" x2="691" y2="331" stroke="#00f"/>
<rect x="104" y="326" width="149" height="10" fill="#ff0"/>
<text x="20" y="355" class="sm">0.01242</text>
<rect x="100" y="345" width="257" height="12" fill="#00f"/>
<rect x="536" y="345" width="216" height="12" fill="#00f"/>
<line x1="357" y1="351" x2="535" y2="351" stroke="#00f"/>
<rect x="226" y="346" width="131" height="10" fill="#ff0"/>
<rect x="537" y="346" width="113" height="10" fill="#ff0"/>
<text x="20" y="375" class="sm">0.01107</text>
<rect x="100" y="365" width="134" height="12" fill="#00f"/>
<rect x="286" y="365" width="73" height="12" fill="#00f"/>
<rect x="536" y="365" width="216" height="12" fill="#00f"/>
<line x1="234" y1="371" x2="285" y2="371" stroke="#00f"/>
<line x1="359" y1="371" x2="535" y2="371" stroke="#00f"/>
<rect x="104" y="366" width="130" height="10" fill="#ff0"/>
<rect x="287" y="366" width="72" height="10" fill="#ff0"/>
<rect x="537" y="366" width="113" height="10" fill="#ff0"/>
<text x="20" y="395" class="sm">0.007894</text>
<rect x="100" y="385" width="134" height="12" fill="#00f"/>
<rect x="286" y="385" width="155" height="12" fill="#00f"/>
<rect x="536" y="385" width="216" height="12" fill="#00f"/>
<line x1="234" y1="391" x2="285" y2="391" stroke="#00f"/>
<line x1="441" y1="391" x2="535" y2="391" stroke="#00f"/>
<rect x="104" y="386" width="130" height="10" fill="#ff0"/>
<rect x="287" y="386" width="93" height="10" fill="#ff0"/>
<text x="20" y="415" class="sm">0.003239</text>
<rect x="100" y="405" width="328" height="12" fill="#00f"/>
<rect x="536" y="405" width="216" height="12" fill="#00f"/>
<line x1="428" y1="411" x2="535" y2="411" stroke="#00f"/>
<rect x="104" y="406" width="149" height="10" fill="#ff0"/>
<text x="20" y="435" class="sm">0.003207</text>
<rect x="100" y="425" width="134" height="12" fill="#00f"/>
<rect x="286" y="425" width="71" height="12" fill="#00f"/>
<rect x="536" y="425" width="103" height="12" fill="#00f"/>
<rect x="720" y="425" width="32" height="12" fill="#00f"/>
<line x1="234" y1="431" x2="285" y2="431" stroke="#00f"/>
<line x1="357" y1="431" x2="535" y2="431" stroke="#00f"/>
<line x1="639" y1="431" x2="719" y2="431" stroke="#00f"/>
<rect x="104" y="426" width="130" height="10" fill="#ff0"/>
<rect x="287" y="426" width="70" height="10" fill="#ff0"/>
<rect x="537" y="426" width="58" height="10" fill="#ff0"/>
<text x="20" y="455" class="sm">0.003078</text>
<rect x="100" y="445" width="134" height="12" fill="#00f"/>
<rect x="286" y="445" width="71" height="12" fill="#00f"/>
<rect x="536" y="445" width="103" height="12" fill="#00f"/>
<rect x="692" y="445" width="60" height="12" fill="#00f"/>
<line x1="234" y1="451" x2="285" y2="451" stroke="#00f"/>
<line x1="357" y1="451" x2="535" y2="451" stroke="#00f"/>
<line x1="639" y1="451" x2="691" y2="451" stroke="#00f"/>
<rect x="104" y="446" width="130" height="10" fill="#ff0"/>
<rect x="287" y="446" width="70" height="10" fill="#ff0"/>
<rect x="537" y="446" width="58" height="10" fill="#ff0"/>
<text x="20" y="475" class="sm">0.003063</text>
<rect x="100" y="465" width="259" height="12" fill="#00f"/>
<rect x="536" y="465" width="216" height="12" fill="#00f"/>
<line x1="359" y1="471" x2="535" y2="471" stroke="#00f"/>
<rect x="104" y="466" width="149" height="10" fill="#ff0"/>
<text x="20" y="495" class="sm">0.002657</text>
<rect x="100" y="485" width="134" height="12" fill="#00f"/>
<rect x="286" y="485" width="210" height="12" fill="#00f"/>
<rect x="536" y="485" width="216" height="12" fill="#00f"/>
<line x1="234" y1="491" x2="285" y2="491" stroke="#00f"/>
<line x1="496" y1="491" x2="535" y2="491" stroke="#00f"/>
<rect x="104" y="486" width="130" height="10" fill="#ff0"/>
<rect x="287" y="486" width="93" height="10" fill="#ff0"/>
<text x="20" y="515" class="sm">0.002286</text>
<rect x="100" y="505" width="349" height="12" fill="#00f"/>
<rect x="536" y="505" width="216" height="12" fill="#00f"/>
<line x1="449" y1="511" x2="535" y2="511" stroke="#00f"/>
<rect x="104" y="506" width="149" height="10" fill="#ff0"/>
<text x="20" y="535" class="sm">0.002188</text>
<rect x="100" y="525" width="134" height="12" fill="#00f"/>
<rect x="286" y="525" width="142" height="12" fill="#00f"/>
<rect x="536" y="525" width="103" height="12" fill="#00f"/>
<rect x="720" y="525" width="32" height="12" fill="#00f"/>
<line x1="234" y1="531" x2="285" y2="531" stroke="#00f"/>
<line x1="428" y1="531" x2="535" y2="531" stroke="#00f"/>
<line x1="639" y1="531" x2="719" y2="531" stroke="#00f"/>
<rect x="104" y="526" width="130" height="10" fill="#ff0"/>
<rect x="287" y="526" width="93" height="10" fill="#ff0"/>
</svg>
