<svg viewBox="0 0 825 520" xmlns="http://www.w3.org/2000/svg">

<style>
  .sm { font: 12px sans-serif; }
  .lg { font: 15px sans-serif; }
</style>
<rect fill="#ddd" x="0" y="0" width="100%" height="100%"/>
<text x="20" y="20" class="lg">ch.5886 II:12113124-12113948 Gene:WBGene00012841</text>
<text x="20" y="50" class="sm">WormBase</text>
<rect x="102" y="40" width="492" height="12" fill="#00f"/>
<rect x="649" y="40" width="78" height="12" fill="#00f"/>
<line x1="594" y1="46" x2="648" y2="46" stroke="#00f"/>
<rect x="103" y="41" width="491" height="10" fill="#ff0"/>
<rect x="650" y="41" width="77" height="10" fill="#ff0"/>
<text x="20" y="70" class="sm">Fitness: 0.00011888662673964755</text>
<rect x="594" y="65" width="55" height="5" fill="#00f"><title>201855.0</title></rect>
<rect x="594" y="70" width="187" height="5" fill="#00f"><title>12.0</title></rect>
<rect x="573" y="75" width="76" height="5" fill="#00f"><title>6.0</title></rect>
<rect x="221" y="80" width="334" height="5" fill="#f0f"><title>6.0</title></rect>
<text x="20" y="110" class="sm">0.9999</text>
<rect x="100" y="100" width="494" height="12" fill="#00f"/>
<rect x="649" y="100" width="79" height="12" fill="#00f"/>
<line x1="594" y1="106" x2="648" y2="106" stroke="#00f"/>
<rect x="103" y="101" width="491" height="10" fill="#ff0"/>
<rect x="650" y="101" width="77" height="10" fill="#ff0"/>
<text x="20" y="130" class="sm">3.446e-05</text>
<rect x="100" y="120" width="473" height="12" fill="#00f"/>
<rect x="649" y="120" width="79" height="12" fill="#00f"/>
<line x1="573" y1="126" x2="648" y2="126" stroke="#00f"/>
<rect x="103" y="121" width="470" height="10" fill="#ff0"/>
<rect x="650" y="121" width="77" height="10" fill="#ff0"/>
<text x="20" y="150" class="sm">1.923e-05</text>
<rect x="100" y="140" width="487" height="12" fill="#00f"/>
<rect x="649" y="140" width="79" height="12" fill="#00f"/>
<line x1="587" y1="146" x2="648" y2="146" stroke="#00f"/>
<rect x="242" y="141" width="71" height="10" fill="#ff0"/>
<text x="20" y="170" class="sm">1.793e-05</text>
<rect x="100" y="160" width="498" height="12" fill="#00f"/>
<rect x="649" y="160" width="79" height="12" fill="#00f"/>
<line x1="598" y1="166" x2="648" y2="166" stroke="#00f"/>
<rect x="242" y="161" width="71" height="10" fill="#ff0"/>
<text x="20" y="190" class="sm">1.254e-06</text>
<rect x="100" y="180" width="494" height="12" fill="#00f"/>
<rect x="658" y="180" width="70" height="12" fill="#00f"/>
<line x1="594" y1="186" x2="657" y2="186" stroke="#00f"/>
<rect x="103" y="181" width="491" height="10" fill="#ff0"/>
<rect x="659" y="181" width="68" height="10" fill="#ff0"/>
<text x="20" y="210" class="sm">1.586e-07</text>
<rect x="100" y="200" width="288" height="12" fill="#00f"/>
<rect x="448" y="200" width="280" height="12" fill="#00f"/>
<line x1="388" y1="206" x2="447" y2="206" stroke="#00f"/>
<rect x="103" y="201" width="285" height="10" fill="#ff0"/>
<rect x="449" y="201" width="157" height="10" fill="#ff0"/>
<text x="20" y="230" class="sm">3.081e-08</text>
<rect x="100" y="220" width="494" height="12" fill="#00f"/>
<rect x="660" y="220" width="68" height="12" fill="#00f"/>
<line x1="594" y1="226" x2="659" y2="226" stroke="#00f"/>
<rect x="242" y="221" width="71" height="10" fill="#ff0"/>
<text x="20" y="250" class="sm">2.737e-08</text>
<rect x="100" y="240" width="288" height="12" fill="#00f"/>
<rect x="429" y="240" width="299" height="12" fill="#00f"/>
<line x1="388" y1="246" x2="428" y2="246" stroke="#00f"/>
<rect x="103" y="241" width="285" height="10" fill="#ff0"/>
<rect x="430" y="241" width="34" height="10" fill="#ff0"/>
<text x="20" y="270" class="sm">1.634e-08</text>
<rect x="100" y="260" width="288" height="12" fill="#00f"/>
<rect x="443" y="260" width="285" height="12" fill="#00f"/>
<line x1="388" y1="266" x2="442" y2="266" stroke="#00f"/>
<rect x="103" y="261" width="285" height="10" fill="#ff0"/>
<rect x="444" y="261" width="43" height="10" fill="#ff0"/>
<text x="20" y="290" class="sm">1.517e-08</text>
<rect x="100" y="280" width="473" height="12" fill="#00f"/>
<rect x="617" y="280" width="111" height="12" fill="#00f"/>
<line x1="573" y1="286" x2="616" y2="286" stroke="#00f"/>
<rect x="103" y="281" width="470" height="10" fill="#ff0"/>
<rect x="618" y="281" width="14" height="10" fill="#ff0"/>
<text x="20" y="310" class="sm">1.135e-08</text>
<rect x="100" y="300" width="288" height="12" fill="#00f"/>
<rect x="448" y="300" width="146" height="12" fill="#00f"/>
<rect x="649" y="300" width="79" height="12" fill="#00f"/>
<line x1="388" y1="306" x2="447" y2="306" stroke="#00f"/>
<line x1="594" y1="306" x2="648" y2="306" stroke="#00f"/>
<rect x="103" y="301" width="285" height="10" fill="#ff0"/>
<rect x="449" y="301" width="145" height="10" fill="#ff0"/>
<rect x="650" y="301" width="77" height="10" fill="#ff0"/>
<text x="20" y="330" class="sm">2.783e-09</text>
<rect x="100" y="320" width="288" height="12" fill="#00f"/>
<rect x="436" y="320" width="292" height="12" fill="#00f"/>
<line x1="388" y1="326" x2="435" y2="326" stroke="#00f"/>
<rect x="103" y="321" width="285" height="10" fill="#ff0"/>
<rect x="437" y="321" width="169" height="10" fill="#ff0"/>
<text x="20" y="350" class="sm">1.956e-09</text>
<rect x="100" y="340" width="288" height="12" fill="#00f"/>
<rect x="429" y="340" width="165" height="12" fill="#00f"/>
<rect x="649" y="340" width="79" height="12" fill="#00f"/>
<line x1="388" y1="346" x2="428" y2="346" stroke="#00f"/>
<line x1="594" y1="346" x2="648" y2="346" stroke="#00f"/>
<rect x="103" y="341" width="285" height="10" fill="#ff0"/>
<rect x="430" y="341" width="34" height="10" fill="#ff0"/>
<text x="20" y="370" class="sm">1.641e-09</text>
<rect x="100" y="360" width="431" height="12" fill="#00f"/>
<rect x="649" y="360" width="79" height="12" fill="#00f"/>
<line x1="531" y1="366" x2="648" y2="366" stroke="#00f"/>
<rect x="103" y="361" width="428" height="10" fill="#ff0"/>
<rect x="650" y="361" width="77" height="10" fill="#ff0"/>
<text x="20" y="390" class="sm">1.162e-09</text>
<rect x="100" y="380" width="288" height="12" fill="#00f"/>
<rect x="443" y="380" width="151" height="12" fill="#00f"/>
<rect x="649" y="380" width="79" height="12" fill="#00f"/>
<line x1="388" y1="386" x2="442" y2="386" stroke="#00f"/>
<line x1="594" y1="386" x2="648" y2="386" stroke="#00f"/>
<rect x="103" y="381" width="285" height="10" fill="#ff0"/>
<rect x="444" y="381" width="43" height="10" fill="#ff0"/>
<text x="20" y="410" class="sm">2.306e-10</text>
<rect x="100" y="400" width="303" height="12" fill="#00f"/>
<rect x="448" y="400" width="280" height="12" fill="#00f"/>
<line x1="403" y1="406" x2="447" y2="406" stroke="#00f"/>
<rect x="103" y="401" width="300" height="10" fill="#ff0"/>
<rect x="449" y="401" width="157" height="10" fill="#ff0"/>
<text x="20" y="430" class="sm">1.98e-10</text>
<rect x="100" y="420" width="288" height="12" fill="#00f"/>
<rect x="436" y="420" width="158" height="12" fill="#00f"/>
<rect x="649" y="420" width="79" height="12" fill="#00f"/>
<line x1="388" y1="426" x2="435" y2="426" stroke="#00f"/>
<line x1="594" y1="426" x2="648" y2="426" stroke="#00f"/>
<rect x="103" y="421" width="285" height="10" fill="#ff0"/>
<rect x="437" y="421" width="157" height="10" fill="#ff0"/>
<rect x="650" y="421" width="77" height="10" fill="#ff0"/>
<text x="20" y="450" class="sm">1.172e-10</text>
<rect x="100" y="440" width="473" height="12" fill="#00f"/>
<rect x="658" y="440" width="70" height="12" fill="#00f"/>
<line x1="573" y1="446" x2="657" y2="446" stroke="#00f"/>
<rect x="103" y="441" width="470" height="10" fill="#ff0"/>
<rect x="659" y="441" width="68" height="10" fill="#ff0"/>
<text x="20" y="470" class="sm">5.477e-11</text>
<rect x="100" y="460" width="138" height="12" fill="#00f"/>
<rect x="283" y="460" width="445" height="12" fill="#00f"/>
<line x1="238" y1="466" x2="282" y2="466" stroke="#00f"/>
<rect x="103" y="461" width="135" height="10" fill="#ff0"/>
<rect x="284" y="461" width="322" height="10" fill="#ff0"/>
<text x="20" y="490" class="sm">4.864e-11</text>
<rect x="100" y="480" width="487" height="12" fill="#00f"/>
<rect x="658" y="480" width="70" height="12" fill="#00f"/>
<line x1="587" y1="486" x2="657" y2="486" stroke="#00f"/>
<rect x="242" y="481" width="71" height="10" fill="#ff0"/>
</svg>
