<svg viewBox="0 0 783 525" xmlns="http://www.w3.org/2000/svg">

<style>
  .sm { font: 12px sans-serif; }
  .lg { font: 15px sans-serif; }
</style>
<rect fill="#ddd" x="0" y="0" width="100%" height="100%"/>
<text x="20" y="20" class="lg">ch.5580 II:10604930-10605712 Gene:WBGene00006397</text>
<text x="20" y="50" class="sm">WormBase</text>
<rect x="102" y="40" width="142" height="12" fill="#00f"/>
<rect x="382" y="40" width="303" height="12" fill="#00f"/>
<line x1="244" y1="46" x2="381" y2="46" stroke="#00f"/>
<rect x="113" y="41" width="131" height="10" fill="#ff0"/>
<rect x="383" y="41" width="233" height="10" fill="#ff0"/>
<rect x="103" y="41" width="9" height="10" fill="brown"><title>.</title></rect>
<rect x="617" y="41" width="68" height="10" fill="brown"><title>.</title></rect>
<text x="20" y="70" class="sm">Fitness: 1.0965949767445622</text>
<rect x="244" y="65" width="138" height="5" fill="#00f"><title>798073.0</title></rect>
<rect x="248" y="70" width="137" height="5" fill="#00f"><title>140.0</title></rect>
<rect x="244" y="75" width="141" height="5" fill="#00f"><title>25.0</title></rect>
<rect x="429" y="80" width="44" height="5" fill="#f0f"><title>4.0</title></rect>
<rect x="612" y="85" width="89" height="5" fill="#00f"><title>3.0</title></rect>
<text x="20" y="115" class="sm">0.5001</text>
<rect x="100" y="105" width="148" height="12" fill="#00f"/>
<rect x="382" y="105" width="304" height="12" fill="#00f"/>
<line x1="248" y1="111" x2="381" y2="111" stroke="#00f"/>
<rect x="225" y="106" width="23" height="10" fill="#ff0"/>
<rect x="383" y="106" width="233" height="10" fill="#ff0"/>
<text x="20" y="135" class="sm">0.4517</text>
<rect x="100" y="125" width="144" height="12" fill="#00f"/>
<rect x="382" y="125" width="304" height="12" fill="#00f"/>
<line x1="244" y1="131" x2="381" y2="131" stroke="#00f"/>
<rect x="113" y="126" width="131" height="10" fill="#ff0"/>
<rect x="383" y="126" width="233" height="10" fill="#ff0"/>
<text x="20" y="155" class="sm">0.02716</text>
<rect x="100" y="145" width="225" height="12" fill="#00f"/>
<rect x="382" y="145" width="304" height="12" fill="#00f"/>
<line x1="325" y1="151" x2="381" y2="151" stroke="#00f"/>
<rect x="113" y="146" width="194" height="10" fill="#ff0"/>
<text x="20" y="175" class="sm">0.006675</text>
<rect x="100" y="165" width="120" height="12" fill="#00f"/>
<rect x="382" y="165" width="304" height="12" fill="#00f"/>
<line x1="220" y1="171" x2="381" y2="171" stroke="#00f"/>
<rect x="113" y="166" width="107" height="10" fill="#ff0"/>
<rect x="383" y="166" width="233" height="10" fill="#ff0"/>
<text x="20" y="195" class="sm">0.005222</text>
<rect x="100" y="185" width="69" height="12" fill="#00f"/>
<rect x="382" y="185" width="304" height="12" fill="#00f"/>
<line x1="169" y1="191" x2="381" y2="191" stroke="#00f"/>
<rect x="113" y="186" width="56" height="10" fill="#ff0"/>
<rect x="383" y="186" width="233" height="10" fill="#ff0"/>
<text x="20" y="215" class="sm">0.005144</text>
<rect x="100" y="205" width="93" height="12" fill="#00f"/>
<rect x="382" y="205" width="304" height="12" fill="#00f"/>
<line x1="193" y1="211" x2="381" y2="211" stroke="#00f"/>
<rect x="113" y="206" width="80" height="10" fill="#ff0"/>
<rect x="383" y="206" width="233" height="10" fill="#ff0"/>
<text x="20" y="235" class="sm">0.002464</text>
<rect x="100" y="225" width="159" height="12" fill="#00f"/>
<rect x="382" y="225" width="304" height="12" fill="#00f"/>
<line x1="259" y1="231" x2="381" y2="231" stroke="#00f"/>
<rect x="113" y="226" width="146" height="10" fill="#ff0"/>
<rect x="383" y="226" width="233" height="10" fill="#ff0"/>
<text x="20" y="255" class="sm">0.0008346</text>
<rect x="100" y="245" width="66" height="12" fill="#00f"/>
<rect x="382" y="245" width="304" height="12" fill="#00f"/>
<line x1="166" y1="251" x2="381" y2="251" stroke="#00f"/>
<rect x="113" y="246" width="53" height="10" fill="#ff0"/>
<rect x="383" y="246" width="233" height="10" fill="#ff0"/>
<text x="20" y="275" class="sm">0.0005256</text>
<rect x="100" y="265" width="120" height="12" fill="#00f"/>
<rect x="255" y="265" width="431" height="12" fill="#00f"/>
<line x1="220" y1="271" x2="254" y2="271" stroke="#00f"/>
<rect x="374" y="266" width="242" height="10" fill="#ff0"/>
<text x="20" y="295" class="sm">9.352e-05</text>
<rect x="100" y="285" width="69" height="12" fill="#00f"/>
<rect x="255" y="285" width="431" height="12" fill="#00f"/>
<line x1="169" y1="291" x2="254" y2="291" stroke="#00f"/>
<rect x="374" y="286" width="242" height="10" fill="#ff0"/>
<text x="20" y="315" class="sm">2.783e-05</text>
<rect x="100" y="305" width="93" height="12" fill="#00f"/>
<rect x="255" y="305" width="431" height="12" fill="#00f"/>
<line x1="193" y1="311" x2="254" y2="311" stroke="#00f"/>
<rect x="374" y="306" width="242" height="10" fill="#ff0"/>
<text x="20" y="335" class="sm">1.583e-05</text>
<rect x="100" y="325" width="66" height="12" fill="#00f"/>
<rect x="255" y="325" width="431" height="12" fill="#00f"/>
<line x1="166" y1="331" x2="254" y2="331" stroke="#00f"/>
<rect x="374" y="326" width="242" height="10" fill="#ff0"/>
<text x="20" y="355" class="sm">9.675e-06</text>
<rect x="100" y="345" width="69" height="12" fill="#00f"/>
<rect x="213" y="345" width="473" height="12" fill="#00f"/>
<line x1="169" y1="351" x2="212" y2="351" stroke="#00f"/>
<rect x="374" y="346" width="242" height="10" fill="#ff0"/>
<text x="20" y="375" class="sm">8.805e-06</text>
<rect x="100" y="365" width="148" height="12" fill="#00f"/>
<rect x="336" y="365" width="350" height="12" fill="#00f"/>
<line x1="248" y1="371" x2="335" y2="371" stroke="#00f"/>
<rect x="374" y="366" width="242" height="10" fill="#ff0"/>
<text x="20" y="395" class="sm">8.557e-06</text>
<rect x="100" y="385" width="144" height="12" fill="#00f"/>
<rect x="336" y="385" width="350" height="12" fill="#00f"/>
<line x1="244" y1="391" x2="335" y2="391" stroke="#00f"/>
<rect x="374" y="386" width="242" height="10" fill="#ff0"/>
<text x="20" y="415" class="sm">1.365e-06</text>
<rect x="100" y="405" width="66" height="12" fill="#00f"/>
<rect x="213" y="405" width="473" height="12" fill="#00f"/>
<line x1="166" y1="411" x2="212" y2="411" stroke="#00f"/>
<rect x="374" y="406" width="242" height="10" fill="#ff0"/>
<text x="20" y="435" class="sm">8.571e-07</text>
<rect x="100" y="425" width="438" height="12" fill="#00f"/>
<rect x="574" y="425" width="112" height="12" fill="#00f"/>
<line x1="538" y1="431" x2="573" y2="431" stroke="#00f"/>
<rect x="374" y="426" width="164" height="10" fill="#ff0"/>
<rect x="575" y="426" width="41" height="10" fill="#ff0"/>
<text x="20" y="455" class="sm">6.151e-07</text>
<rect x="100" y="445" width="32" height="12" fill="#00f"/>
<rect x="382" y="445" width="304" height="12" fill="#00f"/>
<line x1="132" y1="451" x2="381" y2="451" stroke="#00f"/>
<rect x="458" y="446" width="158" height="10" fill="#ff0"/>
<text x="20" y="475" class="sm">5.992e-07</text>
<rect x="100" y="465" width="144" height="12" fill="#00f"/>
<rect x="415" y="465" width="271" height="12" fill="#00f"/>
<line x1="244" y1="471" x2="414" y2="471" stroke="#00f"/>
<rect x="113" y="466" width="131" height="10" fill="#ff0"/>
<rect x="416" y="466" width="200" height="10" fill="#ff0"/>
<text x="20" y="495" class="sm">5.029e-07</text>
<rect x="100" y="485" width="148" height="12" fill="#00f"/>
<rect x="415" y="485" width="271" height="12" fill="#00f"/>
<line x1="248" y1="491" x2="414" y2="491" stroke="#00f"/>
<rect x="225" y="486" width="23" height="10" fill="#ff0"/>
<rect x="416" y="486" width="200" height="10" fill="#ff0"/>
</svg>
