<svg viewBox="0 0 970 570" xmlns="http://www.w3.org/2000/svg">

<style>
  .sm { font: 12px sans-serif; }
  .lg { font: 15px sans-serif; }
</style>
<rect fill="#ddd" x="0" y="0" width="100%" height="100%"/>
<text x="20" y="20" class="lg">ch.5667 II:11049044-11050013 Gene:WBGene00009353</text>
<text x="20" y="50" class="sm">WormBase</text>
<rect x="102" y="40" width="148" height="12" fill="#00f"/>
<rect x="299" y="40" width="113" height="12" fill="#00f"/>
<rect x="529" y="40" width="343" height="12" fill="#00f"/>
<line x1="250" y1="46" x2="298" y2="46" stroke="#00f"/>
<line x1="412" y1="46" x2="528" y2="46" stroke="#00f"/>
<rect x="104" y="41" width="146" height="10" fill="#ff0"/>
<rect x="300" y="41" width="112" height="10" fill="#ff0"/>
<rect x="530" y="41" width="177" height="10" fill="#ff0"/>
<rect x="103" y="41" width="0" height="10" fill="brown"><title>.</title></rect>
<rect x="708" y="41" width="164" height="10" fill="brown"><title>.</title></rect>
<text x="20" y="70" class="sm">Fitness: 0.11775120364677924</text>
<rect x="250" y="65" width="49" height="5" fill="#00f"><title>1409340.0</title></rect>
<rect x="412" y="70" width="117" height="5" fill="#00f"><title>1184640.0</title></rect>
<rect x="7" y="75" width="95" height="5" fill="#00f"><title>52.0</title></rect>
<rect x="701" y="80" width="96" height="5" fill="#f0f"><title>10.0</title></rect>
<rect x="356" y="85" width="264" height="5" fill="#f0f"><title>10.0</title></rect>
<rect x="243" y="90" width="54" height="5" fill="#f0f"><title>9.0</title></rect>
<rect x="148" y="95" width="55" height="5" fill="#f0f"><title>7.0</title></rect>
<rect x="333" y="100" width="374" height="5" fill="#f0f"><title>6.0</title></rect>
<rect x="590" y="105" width="99" height="5" fill="#f0f"><title>6.0</title></rect>
<rect x="558" y="110" width="44" height="5" fill="#f0f"><title>5.0</title></rect>
<rect x="250" y="115" width="92" height="5" fill="#00f"><title>5.0</title></rect>
<rect x="682" y="120" width="115" height="5" fill="#f0f"><title>3.0</title></rect>
<rect x="613" y="125" width="113" height="5" fill="#f0f"><title>3.0</title></rect>
<rect x="558" y="130" width="80" height="5" fill="#f0f"><title>3.0</title></rect>
<text x="20" y="160" class="sm">0.9263</text>
<rect x="100" y="150" width="150" height="12" fill="#00f"/>
<rect x="299" y="150" width="113" height="12" fill="#00f"/>
<rect x="529" y="150" width="344" height="12" fill="#00f"/>
<line x1="250" y1="156" x2="298" y2="156" stroke="#00f"/>
<line x1="412" y1="156" x2="528" y2="156" stroke="#00f"/>
<rect x="104" y="151" width="146" height="10" fill="#ff0"/>
<rect x="300" y="151" width="112" height="10" fill="#ff0"/>
<rect x="530" y="151" width="177" height="10" fill="#ff0"/>
<text x="20" y="180" class="sm">0.02863</text>
<rect x="100" y="170" width="150" height="12" fill="#00f"/>
<rect x="299" y="170" width="113" height="12" fill="#00f"/>
<rect x="529" y="170" width="245" height="12" fill="#00f"/>
<rect x="827" y="170" width="46" height="12" fill="#00f"/>
<line x1="250" y1="176" x2="298" y2="176" stroke="#00f"/>
<line x1="412" y1="176" x2="528" y2="176" stroke="#00f"/>
<line x1="774" y1="176" x2="826" y2="176" stroke="#00f"/>
<rect x="104" y="171" width="146" height="10" fill="#ff0"/>
<rect x="300" y="171" width="112" height="10" fill="#ff0"/>
<rect x="530" y="171" width="177" height="10" fill="#ff0"/>
<text x="20" y="200" class="sm">0.01456</text>
<rect x="100" y="190" width="150" height="12" fill="#00f"/>
<rect x="299" y="190" width="113" height="12" fill="#00f"/>
<rect x="543" y="190" width="330" height="12" fill="#00f"/>
<line x1="250" y1="196" x2="298" y2="196" stroke="#00f"/>
<line x1="412" y1="196" x2="542" y2="196" stroke="#00f"/>
<rect x="104" y="191" width="146" height="10" fill="#ff0"/>
<rect x="300" y="191" width="112" height="10" fill="#ff0"/>
<rect x="544" y="191" width="144" height="10" fill="#ff0"/>
<text x="20" y="220" class="sm">0.013</text>
<rect x="100" y="210" width="312" height="12" fill="#00f"/>
<rect x="529" y="210" width="344" height="12" fill="#00f"/>
<line x1="412" y1="216" x2="528" y2="216" stroke="#00f"/>
<rect x="324" y="211" width="88" height="10" fill="#ff0"/>
<rect x="530" y="211" width="177" height="10" fill="#ff0"/>
<text x="20" y="240" class="sm">0.007059</text>
<rect x="100" y="230" width="150" height="12" fill="#00f"/>
<rect x="299" y="230" width="113" height="12" fill="#00f"/>
<rect x="529" y="230" width="245" height="12" fill="#00f"/>
<rect x="816" y="230" width="57" height="12" fill="#00f"/>
<line x1="250" y1="236" x2="298" y2="236" stroke="#00f"/>
<line x1="412" y1="236" x2="528" y2="236" stroke="#00f"/>
<line x1="774" y1="236" x2="815" y2="236" stroke="#00f"/>
<rect x="104" y="231" width="146" height="10" fill="#ff0"/>
<rect x="300" y="231" width="112" height="10" fill="#ff0"/>
<rect x="530" y="231" width="177" height="10" fill="#ff0"/>
<text x="20" y="260" class="sm">0.002628</text>
<rect x="100" y="250" width="150" height="12" fill="#00f"/>
<rect x="299" y="250" width="113" height="12" fill="#00f"/>
<rect x="529" y="250" width="182" height="12" fill="#00f"/>
<rect x="809" y="250" width="64" height="12" fill="#00f"/>
<line x1="250" y1="256" x2="298" y2="256" stroke="#00f"/>
<line x1="412" y1="256" x2="528" y2="256" stroke="#00f"/>
<line x1="711" y1="256" x2="808" y2="256" stroke="#00f"/>
<rect x="104" y="251" width="146" height="10" fill="#ff0"/>
<rect x="300" y="251" width="112" height="10" fill="#ff0"/>
<rect x="530" y="251" width="177" height="10" fill="#ff0"/>
<text x="20" y="280" class="sm">0.001558</text>
<rect x="100" y="270" width="150" height="12" fill="#00f"/>
<rect x="299" y="270" width="113" height="12" fill="#00f"/>
<rect x="529" y="270" width="182" height="12" fill="#00f"/>
<rect x="803" y="270" width="70" height="12" fill="#00f"/>
<line x1="250" y1="276" x2="298" y2="276" stroke="#00f"/>
<line x1="412" y1="276" x2="528" y2="276" stroke="#00f"/>
<line x1="711" y1="276" x2="802" y2="276" stroke="#00f"/>
<rect x="104" y="271" width="146" height="10" fill="#ff0"/>
<rect x="300" y="271" width="112" height="10" fill="#ff0"/>
<rect x="530" y="271" width="177" height="10" fill="#ff0"/>
<text x="20" y="300" class="sm">0.001335</text>
<rect x="100" y="290" width="150" height="12" fill="#00f"/>
<rect x="299" y="290" width="113" height="12" fill="#00f"/>
<rect x="529" y="290" width="182" height="12" fill="#00f"/>
<rect x="827" y="290" width="46" height="12" fill="#00f"/>
<line x1="250" y1="296" x2="298" y2="296" stroke="#00f"/>
<line x1="412" y1="296" x2="528" y2="296" stroke="#00f"/>
<line x1="711" y1="296" x2="826" y2="296" stroke="#00f"/>
<rect x="104" y="291" width="146" height="10" fill="#ff0"/>
<rect x="300" y="291" width="112" height="10" fill="#ff0"/>
<rect x="530" y="291" width="177" height="10" fill="#ff0"/>
<text x="20" y="320" class="sm">0.0008847</text>
<rect x="100" y="310" width="150" height="12" fill="#00f"/>
<rect x="299" y="310" width="113" height="12" fill="#00f"/>
<rect x="529" y="310" width="245" height="12" fill="#00f"/>
<rect x="809" y="310" width="64" height="12" fill="#00f"/>
<line x1="250" y1="316" x2="298" y2="316" stroke="#00f"/>
<line x1="412" y1="316" x2="528" y2="316" stroke="#00f"/>
<line x1="774" y1="316" x2="808" y2="316" stroke="#00f"/>
<rect x="104" y="311" width="146" height="10" fill="#ff0"/>
<rect x="300" y="311" width="112" height="10" fill="#ff0"/>
<rect x="530" y="311" width="177" height="10" fill="#ff0"/>
<text x="20" y="340" class="sm">0.0007629</text>
<rect x="100" y="330" width="84" height="12" fill="#00f"/>
<rect x="230" y="330" width="182" height="12" fill="#00f"/>
<rect x="529" y="330" width="344" height="12" fill="#00f"/>
<line x1="184" y1="336" x2="229" y2="336" stroke="#00f"/>
<line x1="412" y1="336" x2="528" y2="336" stroke="#00f"/>
<rect x="324" y="331" width="88" height="10" fill="#ff0"/>
<rect x="530" y="331" width="177" height="10" fill="#ff0"/>
<text x="20" y="360" class="sm">0.0006408</text>
<rect x="100" y="350" width="84" height="12" fill="#00f"/>
<rect x="299" y="350" width="113" height="12" fill="#00f"/>
<rect x="529" y="350" width="344" height="12" fill="#00f"/>
<line x1="184" y1="356" x2="298" y2="356" stroke="#00f"/>
<line x1="412" y1="356" x2="528" y2="356" stroke="#00f"/>
<rect x="104" y="351" width="80" height="10" fill="#ff0"/>
<rect x="300" y="351" width="112" height="10" fill="#ff0"/>
<rect x="530" y="351" width="177" height="10" fill="#ff0"/>
<text x="20" y="380" class="sm">0.0005444</text>
<rect x="100" y="370" width="150" height="12" fill="#00f"/>
<rect x="299" y="370" width="113" height="12" fill="#00f"/>
<rect x="543" y="370" width="231" height="12" fill="#00f"/>
<rect x="827" y="370" width="46" height="12" fill="#00f"/>
<line x1="250" y1="376" x2="298" y2="376" stroke="#00f"/>
<line x1="412" y1="376" x2="542" y2="376" stroke="#00f"/>
<line x1="774" y1="376" x2="826" y2="376" stroke="#00f"/>
<rect x="104" y="371" width="146" height="10" fill="#ff0"/>
<rect x="300" y="371" width="112" height="10" fill="#ff0"/>
<rect x="544" y="371" width="144" height="10" fill="#ff0"/>
<text x="20" y="400" class="sm">0.0004017</text>
<rect x="100" y="390" width="312" height="12" fill="#00f"/>
<rect x="529" y="390" width="245" height="12" fill="#00f"/>
<rect x="827" y="390" width="46" height="12" fill="#00f"/>
<line x1="412" y1="396" x2="528" y2="396" stroke="#00f"/>
<line x1="774" y1="396" x2="826" y2="396" stroke="#00f"/>
<rect x="324" y="391" width="88" height="10" fill="#ff0"/>
<rect x="530" y="391" width="177" height="10" fill="#ff0"/>
<text x="20" y="420" class="sm">0.0003765</text>
<rect x="100" y="410" width="150" height="12" fill="#00f"/>
<rect x="299" y="410" width="113" height="12" fill="#00f"/>
<rect x="529" y="410" width="182" height="12" fill="#00f"/>
<rect x="816" y="410" width="57" height="12" fill="#00f"/>
<line x1="250" y1="416" x2="298" y2="416" stroke="#00f"/>
<line x1="412" y1="416" x2="528" y2="416" stroke="#00f"/>
<line x1="711" y1="416" x2="815" y2="416" stroke="#00f"/>
<rect x="104" y="411" width="146" height="10" fill="#ff0"/>
<rect x="300" y="411" width="112" height="10" fill="#ff0"/>
<rect x="530" y="411" width="177" height="10" fill="#ff0"/>
<text x="20" y="440" class="sm">0.0002682</text>
<rect x="100" y="430" width="150" height="12" fill="#00f"/>
<rect x="299" y="430" width="113" height="12" fill="#00f"/>
<rect x="529" y="430" width="224" height="12" fill="#00f"/>
<rect x="803" y="430" width="70" height="12" fill="#00f"/>
<line x1="250" y1="436" x2="298" y2="436" stroke="#00f"/>
<line x1="412" y1="436" x2="528" y2="436" stroke="#00f"/>
<line x1="753" y1="436" x2="802" y2="436" stroke="#00f"/>
<rect x="104" y="431" width="146" height="10" fill="#ff0"/>
<rect x="300" y="431" width="112" height="10" fill="#ff0"/>
<rect x="530" y="431" width="177" height="10" fill="#ff0"/>
<text x="20" y="460" class="sm">0.0002224</text>
<rect x="100" y="450" width="150" height="12" fill="#00f"/>
<rect x="299" y="450" width="113" height="12" fill="#00f"/>
<rect x="529" y="450" width="213" height="12" fill="#00f"/>
<rect x="803" y="450" width="70" height="12" fill="#00f"/>
<line x1="250" y1="456" x2="298" y2="456" stroke="#00f"/>
<line x1="412" y1="456" x2="528" y2="456" stroke="#00f"/>
<line x1="742" y1="456" x2="802" y2="456" stroke="#00f"/>
<rect x="104" y="451" width="146" height="10" fill="#ff0"/>
<rect x="300" y="451" width="112" height="10" fill="#ff0"/>
<rect x="530" y="451" width="177" height="10" fill="#ff0"/>
<text x="20" y="480" class="sm">0.0002161</text>
<rect x="100" y="470" width="150" height="12" fill="#00f"/>
<rect x="342" y="470" width="70" height="12" fill="#00f"/>
<rect x="529" y="470" width="344" height="12" fill="#00f"/>
<line x1="250" y1="476" x2="341" y2="476" stroke="#00f"/>
<line x1="412" y1="476" x2="528" y2="476" stroke="#00f"/>
<rect x="210" y="471" width="40" height="10" fill="#ff0"/>
<rect x="343" y="471" width="69" height="10" fill="#ff0"/>
<rect x="530" y="471" width="158" height="10" fill="#ff0"/>
<text x="20" y="500" class="sm">0.0002043</text>
<rect x="100" y="490" width="312" height="12" fill="#00f"/>
<rect x="543" y="490" width="330" height="12" fill="#00f"/>
<line x1="412" y1="496" x2="542" y2="496" stroke="#00f"/>
<rect x="324" y="491" width="88" height="10" fill="#ff0"/>
<rect x="544" y="491" width="144" height="10" fill="#ff0"/>
<text x="20" y="520" class="sm">0.0001975</text>
<rect x="100" y="510" width="150" height="12" fill="#00f"/>
<rect x="299" y="510" width="113" height="12" fill="#00f"/>
<rect x="529" y="510" width="213" height="12" fill="#00f"/>
<rect x="809" y="510" width="64" height="12" fill="#00f"/>
<line x1="250" y1="516" x2="298" y2="516" stroke="#00f"/>
<line x1="412" y1="516" x2="528" y2="516" stroke="#00f"/>
<line x1="742" y1="516" x2="808" y2="516" stroke="#00f"/>
<rect x="104" y="511" width="146" height="10" fill="#ff0"/>
<rect x="300" y="511" width="112" height="10" fill="#ff0"/>
<rect x="530" y="511" width="177" height="10" fill="#ff0"/>
<text x="20" y="540" class="sm">0.0001863</text>
<rect x="100" y="530" width="150" height="12" fill="#00f"/>
<rect x="299" y="530" width="113" height="12" fill="#00f"/>
<rect x="529" y="530" width="224" height="12" fill="#00f"/>
<rect x="809" y="530" width="64" height="12" fill="#00f"/>
<line x1="250" y1="536" x2="298" y2="536" stroke="#00f"/>
<line x1="412" y1="536" x2="528" y2="536" stroke="#00f"/>
<line x1="753" y1="536" x2="808" y2="536" stroke="#00f"/>
<rect x="104" y="531" width="146" height="10" fill="#ff0"/>
<rect x="300" y="531" width="112" height="10" fill="#ff0"/>
<rect x="530" y="531" width="177" height="10" fill="#ff0"/>
</svg>
