<svg viewBox="0 0 768 515" xmlns="http://www.w3.org/2000/svg">

<style>
  .sm { font: 12px sans-serif; }
  .lg { font: 15px sans-serif; }
</style>
<rect fill="#ddd" x="0" y="0" width="100%" height="100%"/>
<text x="20" y="20" class="lg">ch.5016 II:8294729-8295496 Gene:WBGene00008820</text>
<text x="20" y="50" class="sm">WormBase</text>
<rect x="102" y="40" width="103" height="12" fill="#00f"/>
<rect x="261" y="40" width="409" height="12" fill="#00f"/>
<line x1="205" y1="46" x2="260" y2="46" stroke="#00f"/>
<rect x="147" y="41" width="58" height="10" fill="#ff0"/>
<rect x="262" y="41" width="174" height="10" fill="#ff0"/>
<rect x="103" y="41" width="43" height="10" fill="brown"><title>.</title></rect>
<rect x="437" y="41" width="233" height="10" fill="brown"><title>.</title></rect>
<text x="20" y="70" class="sm">Fitness: 8.439374198459612e-07</text>
<rect x="205" y="65" width="56" height="5" fill="#00f"><title>244146.0</title></rect>
<rect x="392" y="70" width="166" height="5" fill="#f0f"><title>11.0</title></rect>
<rect x="303" y="75" width="130" height="5" fill="#f0f"><title>3.0</title></rect>
<text x="20" y="105" class="sm">1.0</text>
<rect x="100" y="95" width="105" height="12" fill="#00f"/>
<rect x="261" y="95" width="410" height="12" fill="#00f"/>
<line x1="205" y1="101" x2="260" y2="101" stroke="#00f"/>
<rect x="147" y="96" width="58" height="10" fill="#ff0"/>
<rect x="262" y="96" width="174" height="10" fill="#ff0"/>
<text x="20" y="125" class="sm">2.193e-07</text>
<rect x="100" y="115" width="105" height="12" fill="#00f"/>
<rect x="278" y="115" width="393" height="12" fill="#00f"/>
<line x1="205" y1="121" x2="277" y2="121" stroke="#00f"/>
<rect x="202" y="116" width="3" height="10" fill="#ff0"/>
<rect x="279" y="116" width="157" height="10" fill="#ff0"/>
<text x="20" y="145" class="sm">1.497e-07</text>
<rect x="100" y="135" width="109" height="12" fill="#00f"/>
<rect x="261" y="135" width="410" height="12" fill="#00f"/>
<line x1="209" y1="141" x2="260" y2="141" stroke="#00f"/>
<rect x="202" y="136" width="7" height="10" fill="#ff0"/>
<rect x="262" y="136" width="174" height="10" fill="#ff0"/>
<text x="20" y="165" class="sm">3.691e-08</text>
<rect x="100" y="155" width="105" height="12" fill="#00f"/>
<rect x="464" y="155" width="207" height="12" fill="#00f"/>
<line x1="205" y1="161" x2="463" y2="161" stroke="#00f"/>
<rect x="147" y="156" width="58" height="10" fill="#ff0"/>
<rect x="465" y="156" width="117" height="10" fill="#ff0"/>
<text x="20" y="185" class="sm">1.567e-08</text>
<rect x="100" y="175" width="325" height="12" fill="#00f"/>
<rect x="464" y="175" width="207" height="12" fill="#00f"/>
<line x1="425" y1="181" x2="463" y2="181" stroke="#00f"/>
<rect x="387" y="176" width="38" height="10" fill="#ff0"/>
<rect x="465" y="176" width="32" height="10" fill="#ff0"/>
<text x="20" y="205" class="sm">2.318e-10</text>
<rect x="100" y="195" width="105" height="12" fill="#00f"/>
<rect x="426" y="195" width="245" height="12" fill="#00f"/>
<line x1="205" y1="201" x2="425" y2="201" stroke="#00f"/>
<rect x="147" y="196" width="58" height="10" fill="#ff0"/>
<rect x="427" y="196" width="9" height="10" fill="#ff0"/>
<text x="20" y="225" class="sm">1.218e-10</text>
<rect x="100" y="215" width="105" height="12" fill="#00f"/>
<rect x="261" y="215" width="164" height="12" fill="#00f"/>
<rect x="464" y="215" width="207" height="12" fill="#00f"/>
<line x1="205" y1="221" x2="260" y2="221" stroke="#00f"/>
<line x1="425" y1="221" x2="463" y2="221" stroke="#00f"/>
<rect x="387" y="216" width="38" height="10" fill="#ff0"/>
<rect x="465" y="216" width="32" height="10" fill="#ff0"/>
<text x="20" y="245" class="sm">1.766e-11</text>
<rect x="100" y="235" width="94" height="12" fill="#00f"/>
<rect x="261" y="235" width="410" height="12" fill="#00f"/>
<line x1="194" y1="241" x2="260" y2="241" stroke="#00f"/>
<rect x="263" y="236" width="173" height="10" fill="#ff0"/>
<text x="20" y="265" class="sm">9.89e-12</text>
<rect x="100" y="255" width="267" height="12" fill="#00f"/>
<rect x="464" y="255" width="207" height="12" fill="#00f"/>
<line x1="367" y1="261" x2="463" y2="261" stroke="#00f"/>
<rect x="263" y="256" width="104" height="10" fill="#ff0"/>
<rect x="465" y="256" width="32" height="10" fill="#ff0"/>
<text x="20" y="285" class="sm">2.05e-12</text>
<rect x="100" y="275" width="267" height="12" fill="#00f"/>
<rect x="426" y="275" width="245" height="12" fill="#00f"/>
<line x1="367" y1="281" x2="425" y2="281" stroke="#00f"/>
<rect x="263" y="276" width="104" height="10" fill="#ff0"/>
<rect x="427" y="276" width="155" height="10" fill="#ff0"/>
<text x="20" y="305" class="sm">1.547e-12</text>
<rect x="100" y="295" width="220" height="12" fill="#00f"/>
<rect x="464" y="295" width="207" height="12" fill="#00f"/>
<line x1="320" y1="301" x2="463" y2="301" stroke="#00f"/>
<rect x="147" y="296" width="62" height="10" fill="#ff0"/>
<text x="20" y="325" class="sm">1.416e-12</text>
<rect x="100" y="315" width="28" height="12" fill="#00f"/>
<rect x="261" y="315" width="410" height="12" fill="#00f"/>
<line x1="128" y1="321" x2="260" y2="321" stroke="#00f"/>
<rect x="263" y="316" width="173" height="10" fill="#ff0"/>
<text x="20" y="345" class="sm">6.948e-13</text>
<rect x="100" y="335" width="141" height="12" fill="#00f"/>
<rect x="278" y="335" width="393" height="12" fill="#00f"/>
<line x1="241" y1="341" x2="277" y2="341" stroke="#00f"/>
<rect x="308" y="336" width="128" height="10" fill="#ff0"/>
<text x="20" y="365" class="sm">5.563e-13</text>
<rect x="100" y="355" width="105" height="12" fill="#00f"/>
<rect x="408" y="355" width="263" height="12" fill="#00f"/>
<line x1="205" y1="361" x2="407" y2="361" stroke="#00f"/>
<rect x="147" y="356" width="58" height="10" fill="#ff0"/>
<rect x="409" y="356" width="27" height="10" fill="#ff0"/>
<text x="20" y="385" class="sm">4.489e-13</text>
<rect x="100" y="375" width="105" height="12" fill="#00f"/>
<rect x="320" y="375" width="351" height="12" fill="#00f"/>
<line x1="205" y1="381" x2="319" y2="381" stroke="#00f"/>
<rect x="202" y="376" width="3" height="10" fill="#ff0"/>
<rect x="321" y="376" width="115" height="10" fill="#ff0"/>
<text x="20" y="405" class="sm">2.612e-13</text>
<rect x="100" y="395" width="86" height="12" fill="#00f"/>
<rect x="261" y="395" width="410" height="12" fill="#00f"/>
<line x1="186" y1="401" x2="260" y2="401" stroke="#00f"/>
<rect x="263" y="396" width="173" height="10" fill="#ff0"/>
<text x="20" y="425" class="sm">2.369e-13</text>
<rect x="100" y="415" width="141" height="12" fill="#00f"/>
<rect x="464" y="415" width="207" height="12" fill="#00f"/>
<line x1="241" y1="421" x2="463" y2="421" stroke="#00f"/>
<rect x="147" y="416" width="62" height="10" fill="#ff0"/>
<text x="20" y="445" class="sm">1.027e-13</text>
<rect x="100" y="435" width="129" height="12" fill="#00f"/>
<rect x="278" y="435" width="393" height="12" fill="#00f"/>
<line x1="229" y1="441" x2="277" y2="441" stroke="#00f"/>
<rect x="308" y="436" width="128" height="10" fill="#ff0"/>
<text x="20" y="465" class="sm">9.348e-14</text>
<rect x="100" y="455" width="164" height="12" fill="#00f"/>
<rect x="464" y="455" width="207" height="12" fill="#00f"/>
<line x1="264" y1="461" x2="463" y2="461" stroke="#00f"/>
<rect x="147" y="456" width="62" height="10" fill="#ff0"/>
<text x="20" y="485" class="sm">8.164e-14</text>
<rect x="100" y="475" width="105" height="12" fill="#00f"/>
<rect x="556" y="475" width="115" height="12" fill="#00f"/>
<line x1="205" y1="481" x2="555" y2="481" stroke="#00f"/>
<rect x="147" y="476" width="58" height="10" fill="#ff0"/>
<rect x="557" y="476" width="15" height="10" fill="#ff0"/>
</svg>
