<svg viewBox="0 0 864 620" xmlns="http://www.w3.org/2000/svg">

<style>
  .sm { font: 12px sans-serif; }
  .lg { font: 15px sans-serif; }
</style>
<rect fill="#ddd" x="0" y="0" width="100%" height="100%"/>
<text x="20" y="20" class="lg">ch.5501 II:10302950-10303813 Gene:WBGene00006918</text>
<text x="20" y="50" class="sm">WormBase</text>
<rect x="102" y="40" width="96" height="12" fill="#00f"/>
<rect x="250" y="40" width="141" height="12" fill="#00f"/>
<rect x="439" y="40" width="75" height="12" fill="#00f"/>
<rect x="560" y="40" width="206" height="12" fill="#00f"/>
<line x1="198" y1="46" x2="249" y2="46" stroke="#00f"/>
<line x1="391" y1="46" x2="438" y2="46" stroke="#00f"/>
<line x1="514" y1="46" x2="559" y2="46" stroke="#00f"/>
<rect x="103" y="41" width="95" height="10" fill="#ff0"/>
<rect x="251" y="41" width="140" height="10" fill="#ff0"/>
<rect x="440" y="41" width="74" height="10" fill="#ff0"/>
<rect x="561" y="41" width="53" height="10" fill="#ff0"/>
<rect x="615" y="41" width="151" height="10" fill="brown"><title>.</title></rect>
<text x="20" y="70" class="sm">Fitness: 0.032850045948829676</text>
<rect x="391" y="65" width="48" height="5" fill="#00f"><title>2943880.0</title></rect>
<rect x="514" y="70" width="46" height="5" fill="#00f"><title>2330530.0</title></rect>
<rect x="198" y="75" width="52" height="5" fill="#00f"><title>2065600.0</title></rect>
<rect x="395" y="80" width="44" height="5" fill="#00f"><title>376.0</title></rect>
<rect x="45" y="85" width="57" height="5" fill="#00f"><title>265.0</title></rect>
<rect x="15" y="90" width="87" height="5" fill="#00f"><title>91.0</title></rect>
<rect x="36" y="95" width="66" height="5" fill="#00f"><title>60.0</title></rect>
<rect x="274" y="100" width="165" height="5" fill="#00f"><title>57.0</title></rect>
<rect x="391" y="105" width="76" height="5" fill="#00f"><title>38.0</title></rect>
<rect x="383" y="110" width="56" height="5" fill="#00f"><title>32.0</title></rect>
<rect x="189" y="115" width="47" height="5" fill="#f0f"><title>22.0</title></rect>
<rect x="31" y="120" width="71" height="5" fill="#00f"><title>21.0</title></rect>
<rect x="514" y="125" width="63" height="5" fill="#00f"><title>19.0</title></rect>
<rect x="499" y="130" width="129" height="5" fill="#f0f"><title>13.0</title></rect>
<rect x="290" y="135" width="451" height="5" fill="#f0f"><title>10.0</title></rect>
<rect x="157" y="140" width="148" height="5" fill="#f0f"><title>9.0</title></rect>
<rect x="410" y="145" width="45" height="5" fill="#f0f"><title>6.0</title></rect>
<rect x="8" y="150" width="94" height="5" fill="#00f"><title>6.0</title></rect>
<rect x="142" y="155" width="163" height="5" fill="#f0f"><title>4.0</title></rect>
<rect x="378" y="160" width="313" height="5" fill="#f0f"><title>3.0</title></rect>
<rect x="529" y="165" width="46" height="5" fill="#f0f"><title>3.0</title></rect>
<rect x="514" y="170" width="32" height="5" fill="#00f"><title>3.0</title></rect>
<rect x="316" y="175" width="146" height="5" fill="#f0f"><title>3.0</title></rect>
<rect x="198" y="180" width="88" height="5" fill="#00f"><title>3.0</title></rect>
<text x="20" y="210" class="sm">0.4087</text>
<rect x="100" y="200" width="98" height="12" fill="#00f"/>
<rect x="250" y="200" width="141" height="12" fill="#00f"/>
<rect x="439" y="200" width="75" height="12" fill="#00f"/>
<rect x="560" y="200" width="207" height="12" fill="#00f"/>
<line x1="198" y1="206" x2="249" y2="206" stroke="#00f"/>
<line x1="391" y1="206" x2="438" y2="206" stroke="#00f"/>
<line x1="514" y1="206" x2="559" y2="206" stroke="#00f"/>
<rect x="103" y="201" width="95" height="10" fill="#ff0"/>
<rect x="251" y="201" width="140" height="10" fill="#ff0"/>
<rect x="440" y="201" width="74" height="10" fill="#ff0"/>
<rect x="561" y="201" width="53" height="10" fill="#ff0"/>
<text x="20" y="230" class="sm">0.2317</text>
<rect x="100" y="220" width="291" height="12" fill="#00f"/>
<rect x="439" y="220" width="75" height="12" fill="#00f"/>
<rect x="560" y="220" width="207" height="12" fill="#00f"/>
<line x1="391" y1="226" x2="438" y2="226" stroke="#00f"/>
<line x1="514" y1="226" x2="559" y2="226" stroke="#00f"/>
<rect x="377" y="221" width="14" height="10" fill="#ff0"/>
<rect x="440" y="221" width="74" height="10" fill="#ff0"/>
<rect x="561" y="221" width="53" height="10" fill="#ff0"/>
<text x="20" y="250" class="sm">0.1622</text>
<rect x="100" y="240" width="98" height="12" fill="#00f"/>
<rect x="250" y="240" width="141" height="12" fill="#00f"/>
<rect x="439" y="240" width="328" height="12" fill="#00f"/>
<line x1="198" y1="246" x2="249" y2="246" stroke="#00f"/>
<line x1="391" y1="246" x2="438" y2="246" stroke="#00f"/>
<rect x="103" y="241" width="95" height="10" fill="#ff0"/>
<rect x="251" y="241" width="140" height="10" fill="#ff0"/>
<rect x="440" y="241" width="83" height="10" fill="#ff0"/>
<text x="20" y="270" class="sm">0.09199</text>
<rect x="100" y="260" width="291" height="12" fill="#00f"/>
<rect x="439" y="260" width="328" height="12" fill="#00f"/>
<line x1="391" y1="266" x2="438" y2="266" stroke="#00f"/>
<rect x="103" y="261" width="113" height="10" fill="#ff0"/>
<text x="20" y="290" class="sm">0.03675</text>
<rect x="100" y="280" width="98" height="12" fill="#00f"/>
<rect x="250" y="280" width="264" height="12" fill="#00f"/>
<rect x="560" y="280" width="207" height="12" fill="#00f"/>
<line x1="198" y1="286" x2="249" y2="286" stroke="#00f"/>
<line x1="514" y1="286" x2="559" y2="286" stroke="#00f"/>
<rect x="103" y="281" width="95" height="10" fill="#ff0"/>
<rect x="251" y="281" width="152" height="10" fill="#ff0"/>
<text x="20" y="310" class="sm">0.024</text>
<rect x="100" y="300" width="414" height="12" fill="#00f"/>
<rect x="560" y="300" width="207" height="12" fill="#00f"/>
<line x1="514" y1="306" x2="559" y2="306" stroke="#00f"/>
<rect x="103" y="301" width="113" height="10" fill="#ff0"/>
<text x="20" y="330" class="sm">0.01309</text>
<rect x="100" y="320" width="98" height="12" fill="#00f"/>
<rect x="250" y="320" width="517" height="12" fill="#00f"/>
<line x1="198" y1="326" x2="249" y2="326" stroke="#00f"/>
<rect x="103" y="321" width="95" height="10" fill="#ff0"/>
<rect x="251" y="321" width="152" height="10" fill="#ff0"/>
<text x="20" y="350" class="sm">0.007226</text>
<rect x="100" y="340" width="98" height="12" fill="#00f"/>
<rect x="250" y="340" width="145" height="12" fill="#00f"/>
<rect x="439" y="340" width="75" height="12" fill="#00f"/>
<rect x="560" y="340" width="207" height="12" fill="#00f"/>
<line x1="198" y1="346" x2="249" y2="346" stroke="#00f"/>
<line x1="395" y1="346" x2="438" y2="346" stroke="#00f"/>
<line x1="514" y1="346" x2="559" y2="346" stroke="#00f"/>
<rect x="103" y="341" width="95" height="10" fill="#ff0"/>
<rect x="251" y="341" width="144" height="10" fill="#ff0"/>
<rect x="440" y="341" width="37" height="10" fill="#ff0"/>
<text x="20" y="370" class="sm">0.004326</text>
<rect x="100" y="360" width="295" height="12" fill="#00f"/>
<rect x="439" y="360" width="75" height="12" fill="#00f"/>
<rect x="560" y="360" width="207" height="12" fill="#00f"/>
<line x1="395" y1="366" x2="438" y2="366" stroke="#00f"/>
<line x1="514" y1="366" x2="559" y2="366" stroke="#00f"/>
<rect x="103" y="361" width="113" height="10" fill="#ff0"/>
<text x="20" y="390" class="sm">0.004239</text>
<rect x="100" y="380" width="80" height="12" fill="#00f"/>
<rect x="250" y="380" width="141" height="12" fill="#00f"/>
<rect x="439" y="380" width="75" height="12" fill="#00f"/>
<rect x="560" y="380" width="207" height="12" fill="#00f"/>
<line x1="180" y1="386" x2="249" y2="386" stroke="#00f"/>
<line x1="391" y1="386" x2="438" y2="386" stroke="#00f"/>
<line x1="514" y1="386" x2="559" y2="386" stroke="#00f"/>
<rect x="103" y="381" width="77" height="10" fill="#ff0"/>
<rect x="251" y="381" width="140" height="10" fill="#ff0"/>
<rect x="440" y="381" width="74" height="10" fill="#ff0"/>
<rect x="561" y="381" width="53" height="10" fill="#ff0"/>
<text x="20" y="410" class="sm">0.002868</text>
<rect x="100" y="400" width="98" height="12" fill="#00f"/>
<rect x="250" y="400" width="145" height="12" fill="#00f"/>
<rect x="439" y="400" width="328" height="12" fill="#00f"/>
<line x1="198" y1="406" x2="249" y2="406" stroke="#00f"/>
<line x1="395" y1="406" x2="438" y2="406" stroke="#00f"/>
<rect x="103" y="401" width="95" height="10" fill="#ff0"/>
<rect x="251" y="401" width="144" height="10" fill="#ff0"/>
<rect x="440" y="401" width="37" height="10" fill="#ff0"/>
<text x="20" y="430" class="sm">0.001961</text>
<rect x="100" y="420" width="98" height="12" fill="#00f"/>
<rect x="250" y="420" width="141" height="12" fill="#00f"/>
<rect x="467" y="420" width="47" height="12" fill="#00f"/>
<rect x="560" y="420" width="207" height="12" fill="#00f"/>
<line x1="198" y1="426" x2="249" y2="426" stroke="#00f"/>
<line x1="391" y1="426" x2="466" y2="426" stroke="#00f"/>
<line x1="514" y1="426" x2="559" y2="426" stroke="#00f"/>
<rect x="103" y="421" width="95" height="10" fill="#ff0"/>
<rect x="251" y="421" width="140" height="10" fill="#ff0"/>
<rect x="468" y="421" width="46" height="10" fill="#ff0"/>
<rect x="561" y="421" width="60" height="10" fill="#ff0"/>
<text x="20" y="450" class="sm">0.001892</text>
<rect x="100" y="440" width="98" height="12" fill="#00f"/>
<rect x="250" y="440" width="141" height="12" fill="#00f"/>
<rect x="467" y="440" width="300" height="12" fill="#00f"/>
<line x1="198" y1="446" x2="249" y2="446" stroke="#00f"/>
<line x1="391" y1="446" x2="466" y2="446" stroke="#00f"/>
<rect x="103" y="441" width="95" height="10" fill="#ff0"/>
<rect x="251" y="441" width="140" height="10" fill="#ff0"/>
<rect x="468" y="441" width="50" height="10" fill="#ff0"/>
<text x="20" y="470" class="sm">0.001717</text>
<rect x="100" y="460" width="295" height="12" fill="#00f"/>
<rect x="439" y="460" width="328" height="12" fill="#00f"/>
<line x1="395" y1="466" x2="438" y2="466" stroke="#00f"/>
<rect x="103" y="461" width="113" height="10" fill="#ff0"/>
<text x="20" y="490" class="sm">0.001683</text>
<rect x="100" y="480" width="80" height="12" fill="#00f"/>
<rect x="250" y="480" width="141" height="12" fill="#00f"/>
<rect x="439" y="480" width="328" height="12" fill="#00f"/>
<line x1="180" y1="486" x2="249" y2="486" stroke="#00f"/>
<line x1="391" y1="486" x2="438" y2="486" stroke="#00f"/>
<rect x="103" y="481" width="77" height="10" fill="#ff0"/>
<rect x="251" y="481" width="140" height="10" fill="#ff0"/>
<rect x="440" y="481" width="83" height="10" fill="#ff0"/>
<text x="20" y="510" class="sm">0.001479</text>
<rect x="100" y="500" width="78" height="12" fill="#00f"/>
<rect x="250" y="500" width="141" height="12" fill="#00f"/>
<rect x="439" y="500" width="75" height="12" fill="#00f"/>
<rect x="560" y="500" width="207" height="12" fill="#00f"/>
<line x1="178" y1="506" x2="249" y2="506" stroke="#00f"/>
<line x1="391" y1="506" x2="438" y2="506" stroke="#00f"/>
<line x1="514" y1="506" x2="559" y2="506" stroke="#00f"/>
<rect x="377" y="501" width="14" height="10" fill="#ff0"/>
<rect x="440" y="501" width="74" height="10" fill="#ff0"/>
<rect x="561" y="501" width="53" height="10" fill="#ff0"/>
<text x="20" y="530" class="sm">0.001239</text>
<rect x="100" y="520" width="98" height="12" fill="#00f"/>
<rect x="250" y="520" width="133" height="12" fill="#00f"/>
<rect x="439" y="520" width="75" height="12" fill="#00f"/>
<rect x="560" y="520" width="207" height="12" fill="#00f"/>
<line x1="198" y1="526" x2="249" y2="526" stroke="#00f"/>
<line x1="383" y1="526" x2="438" y2="526" stroke="#00f"/>
<line x1="514" y1="526" x2="559" y2="526" stroke="#00f"/>
<rect x="103" y="521" width="95" height="10" fill="#ff0"/>
<rect x="251" y="521" width="132" height="10" fill="#ff0"/>
<rect x="440" y="521" width="37" height="10" fill="#ff0"/>
<text x="20" y="550" class="sm">0.001112</text>
<rect x="100" y="540" width="291" height="12" fill="#00f"/>
<rect x="467" y="540" width="47" height="12" fill="#00f"/>
<rect x="560" y="540" width="207" height="12" fill="#00f"/>
<line x1="391" y1="546" x2="466" y2="546" stroke="#00f"/>
<line x1="514" y1="546" x2="559" y2="546" stroke="#00f"/>
<rect x="377" y="541" width="14" height="10" fill="#ff0"/>
<rect x="468" y="541" width="46" height="10" fill="#ff0"/>
<rect x="561" y="541" width="60" height="10" fill="#ff0"/>
<text x="20" y="570" class="sm">0.001073</text>
<rect x="100" y="560" width="291" height="12" fill="#00f"/>
<rect x="467" y="560" width="300" height="12" fill="#00f"/>
<line x1="391" y1="566" x2="466" y2="566" stroke="#00f"/>
<rect x="103" y="561" width="113" height="10" fill="#ff0"/>
<text x="20" y="590" class="sm">0.0007279</text>
<rect x="100" y="580" width="283" height="12" fill="#00f"/>
<rect x="439" y="580" width="75" height="12" fill="#00f"/>
<rect x="560" y="580" width="207" height="12" fill="#00f"/>
<line x1="383" y1="586" x2="438" y2="586" stroke="#00f"/>
<line x1="514" y1="586" x2="559" y2="586" stroke="#00f"/>
<rect x="103" y="581" width="113" height="10" fill="#ff0"/>
</svg>
