<svg viewBox="0 0 1037 555" xmlns="http://www.w3.org/2000/svg">

<style>
  .sm { font: 12px sans-serif; }
  .lg { font: 15px sans-serif; }
</style>
<rect fill="#ddd" x="0" y="0" width="100%" height="100%"/>
<text x="20" y="20" class="lg">ch.5053 II:8467074-8468110 Gene:WBGene00009045</text>
<text x="20" y="50" class="sm">WormBase</text>
<rect x="100" y="40" width="390" height="12" fill="#00f"/>
<rect x="560" y="40" width="377" height="12" fill="#00f"/>
<line x1="490" y1="46" x2="559" y2="46" stroke="#00f"/>
<rect x="101" y="41" width="389" height="10" fill="#ff0"/>
<rect x="561" y="41" width="170" height="10" fill="#ff0"/>
<rect x="732" y="41" width="205" height="10" fill="brown"><title>.</title></rect>
<text x="20" y="70" class="sm">Fitness: 0.0009600764333282311</text>
<rect x="490" y="65" width="70" height="5" fill="#00f"><title>820371.0</title></rect>
<rect x="910" y="70" width="125" height="5" fill="#00f"><title>223.0</title></rect>
<rect x="840" y="75" width="195" height="5" fill="#00f"><title>98.0</title></rect>
<rect x="736" y="80" width="299" height="5" fill="#00f"><title>31.0</title></rect>
<rect x="582" y="85" width="453" height="5" fill="#00f"><title>19.0</title></rect>
<rect x="718" y="90" width="49" height="5" fill="#f0f"><title>18.0</title></rect>
<rect x="934" y="95" width="101" height="5" fill="#00f"><title>11.0</title></rect>
<rect x="939" y="100" width="96" height="5" fill="#00f"><title>6.0</title></rect>
<rect x="161" y="105" width="51" height="5" fill="#00f"><title>3.0</title></rect>
<rect x="499" y="110" width="71" height="5" fill="#00f"><title>3.0</title></rect>
<rect x="718" y="115" width="38" height="5" fill="#f0f"><title>3.0</title></rect>
<text x="20" y="145" class="sm">0.9995</text>
<rect x="100" y="135" width="390" height="12" fill="#00f"/>
<rect x="560" y="135" width="380" height="12" fill="#00f"/>
<line x1="490" y1="141" x2="559" y2="141" stroke="#00f"/>
<rect x="101" y="136" width="389" height="10" fill="#ff0"/>
<rect x="561" y="136" width="170" height="10" fill="#ff0"/>
<text x="20" y="165" class="sm">0.0002148</text>
<rect x="100" y="155" width="399" height="12" fill="#00f"/>
<rect x="560" y="155" width="380" height="12" fill="#00f"/>
<line x1="499" y1="161" x2="559" y2="161" stroke="#00f"/>
<rect x="101" y="156" width="398" height="10" fill="#ff0"/>
<rect x="561" y="156" width="170" height="10" fill="#ff0"/>
<text x="20" y="185" class="sm">0.0001186</text>
<rect x="100" y="175" width="390" height="12" fill="#00f"/>
<rect x="845" y="175" width="95" height="12" fill="#00f"/>
<line x1="490" y1="181" x2="844" y2="181" stroke="#00f"/>
<rect x="101" y="176" width="389" height="10" fill="#ff0"/>
<rect x="846" y="176" width="41" height="10" fill="#ff0"/>
<text x="20" y="205" class="sm">7.131e-05</text>
<rect x="100" y="195" width="390" height="12" fill="#00f"/>
<rect x="528" y="195" width="412" height="12" fill="#00f"/>
<line x1="490" y1="201" x2="527" y2="201" stroke="#00f"/>
<rect x="101" y="196" width="389" height="10" fill="#ff0"/>
<rect x="529" y="196" width="2" height="10" fill="#ff0"/>
<text x="20" y="225" class="sm">1.319e-05</text>
<rect x="100" y="215" width="424" height="12" fill="#00f"/>
<rect x="560" y="215" width="380" height="12" fill="#00f"/>
<line x1="524" y1="221" x2="559" y2="221" stroke="#00f"/>
<rect x="101" y="216" width="404" height="10" fill="#ff0"/>
<text x="20" y="245" class="sm">1.215e-05</text>
<rect x="100" y="235" width="370" height="12" fill="#00f"/>
<rect x="560" y="235" width="380" height="12" fill="#00f"/>
<line x1="470" y1="241" x2="559" y2="241" stroke="#00f"/>
<rect x="101" y="236" width="369" height="10" fill="#ff0"/>
<rect x="561" y="236" width="19" height="10" fill="#ff0"/>
<text x="20" y="265" class="sm">1.138e-05</text>
<rect x="100" y="255" width="636" height="12" fill="#00f"/>
<rect x="845" y="255" width="95" height="12" fill="#00f"/>
<line x1="736" y1="261" x2="844" y2="261" stroke="#00f"/>
<rect x="101" y="256" width="404" height="10" fill="#ff0"/>
<text x="20" y="285" class="sm">8.944e-06</text>
<rect x="100" y="275" width="325" height="12" fill="#00f"/>
<rect x="560" y="275" width="380" height="12" fill="#00f"/>
<line x1="425" y1="281" x2="559" y2="281" stroke="#00f"/>
<rect x="101" y="276" width="324" height="10" fill="#ff0"/>
<rect x="561" y="276" width="19" height="10" fill="#ff0"/>
<text x="20" y="305" class="sm">6.277e-06</text>
<rect x="100" y="295" width="390" height="12" fill="#00f"/>
<rect x="570" y="295" width="370" height="12" fill="#00f"/>
<line x1="490" y1="301" x2="569" y2="301" stroke="#00f"/>
<rect x="101" y="296" width="389" height="10" fill="#ff0"/>
<rect x="571" y="296" width="5" height="10" fill="#ff0"/>
<text x="20" y="325" class="sm">5.404e-06</text>
<rect x="100" y="315" width="327" height="12" fill="#00f"/>
<rect x="560" y="315" width="380" height="12" fill="#00f"/>
<line x1="427" y1="321" x2="559" y2="321" stroke="#00f"/>
<rect x="101" y="316" width="326" height="10" fill="#ff0"/>
<rect x="561" y="316" width="170" height="10" fill="#ff0"/>
<text x="20" y="345" class="sm">5.161e-06</text>
<rect x="100" y="335" width="626" height="12" fill="#00f"/>
<rect x="845" y="335" width="95" height="12" fill="#00f"/>
<line x1="726" y1="341" x2="844" y2="341" stroke="#00f"/>
<rect x="101" y="336" width="404" height="10" fill="#ff0"/>
<text x="20" y="365" class="sm">9.95e-07</text>
<rect x="100" y="355" width="390" height="12" fill="#00f"/>
<rect x="737" y="355" width="203" height="12" fill="#00f"/>
<line x1="490" y1="361" x2="736" y2="361" stroke="#00f"/>
<rect x="101" y="356" width="389" height="10" fill="#ff0"/>
<rect x="738" y="356" width="2" height="10" fill="#ff0"/>
<text x="20" y="385" class="sm">9.391e-07</text>
<rect x="100" y="375" width="660" height="12" fill="#00f"/>
<rect x="845" y="375" width="95" height="12" fill="#00f"/>
<line x1="760" y1="381" x2="844" y2="381" stroke="#00f"/>
<rect x="101" y="376" width="404" height="10" fill="#ff0"/>
<text x="20" y="405" class="sm">6.951e-08</text>
<rect x="100" y="395" width="263" height="12" fill="#00f"/>
<rect x="560" y="395" width="380" height="12" fill="#00f"/>
<line x1="363" y1="401" x2="559" y2="401" stroke="#00f"/>
<rect x="101" y="396" width="262" height="10" fill="#ff0"/>
<rect x="561" y="396" width="15" height="10" fill="#ff0"/>
<text x="20" y="425" class="sm">4.472e-08</text>
<rect x="100" y="415" width="390" height="12" fill="#00f"/>
<rect x="683" y="415" width="257" height="12" fill="#00f"/>
<line x1="490" y1="421" x2="682" y2="421" stroke="#00f"/>
<rect x="101" y="416" width="389" height="10" fill="#ff0"/>
<rect x="684" y="416" width="47" height="10" fill="#ff0"/>
<text x="20" y="445" class="sm">3.919e-08</text>
<rect x="100" y="435" width="427" height="12" fill="#00f"/>
<rect x="845" y="435" width="95" height="12" fill="#00f"/>
<line x1="527" y1="441" x2="844" y2="441" stroke="#00f"/>
<rect x="101" y="436" width="404" height="10" fill="#ff0"/>
<text x="20" y="465" class="sm">3.767e-08</text>
<rect x="100" y="455" width="399" height="12" fill="#00f"/>
<rect x="845" y="455" width="95" height="12" fill="#00f"/>
<line x1="499" y1="461" x2="844" y2="461" stroke="#00f"/>
<rect x="101" y="456" width="398" height="10" fill="#ff0"/>
<rect x="846" y="456" width="41" height="10" fill="#ff0"/>
<text x="20" y="485" class="sm">2.36e-08</text>
<rect x="100" y="475" width="390" height="12" fill="#00f"/>
<rect x="784" y="475" width="156" height="12" fill="#00f"/>
<line x1="490" y1="481" x2="783" y2="481" stroke="#00f"/>
<rect x="101" y="476" width="389" height="10" fill="#ff0"/>
<rect x="785" y="476" width="59" height="10" fill="#ff0"/>
<text x="20" y="505" class="sm">2.284e-08</text>
<rect x="100" y="495" width="281" height="12" fill="#00f"/>
<rect x="560" y="495" width="380" height="12" fill="#00f"/>
<line x1="381" y1="501" x2="559" y2="501" stroke="#00f"/>
<rect x="101" y="496" width="280" height="10" fill="#ff0"/>
<rect x="561" y="496" width="15" height="10" fill="#ff0"/>
<text x="20" y="525" class="sm">1.052e-08</text>
<rect x="100" y="515" width="330" height="12" fill="#00f"/>
<rect x="560" y="515" width="380" height="12" fill="#00f"/>
<line x1="430" y1="521" x2="559" y2="521" stroke="#00f"/>
<rect x="101" y="516" width="329" height="10" fill="#ff0"/>
<rect x="561" y="516" width="170" height="10" fill="#ff0"/>
</svg>
