<svg viewBox="0 0 994 555" xmlns="http://www.w3.org/2000/svg">

<style>
  .sm { font: 12px sans-serif; }
  .lg { font: 15px sans-serif; }
</style>
<rect fill="#ddd" x="0" y="0" width="100%" height="100%"/>
<text x="20" y="20" class="lg">ch.5954 II:12459661-12460654 Gene:WBGene00044323</text>
<text x="20" y="50" class="sm">WormBase</text>
<rect x="100" y="40" width="101" height="12" fill="#00f"/>
<rect x="303" y="40" width="146" height="12" fill="#00f"/>
<rect x="508" y="40" width="95" height="12" fill="#00f"/>
<rect x="650" y="40" width="244" height="12" fill="#00f"/>
<line x1="201" y1="46" x2="302" y2="46" stroke="#00f"/>
<line x1="449" y1="46" x2="507" y2="46" stroke="#00f"/>
<line x1="603" y1="46" x2="649" y2="46" stroke="#00f"/>
<rect x="124" y="41" width="77" height="10" fill="#ff0"/>
<rect x="304" y="41" width="145" height="10" fill="#ff0"/>
<rect x="509" y="41" width="94" height="10" fill="#ff0"/>
<rect x="651" y="41" width="118" height="10" fill="#ff0"/>
<rect x="101" y="41" width="22" height="10" fill="brown"><title>.</title></rect>
<rect x="770" y="41" width="124" height="10" fill="brown"><title>.</title></rect>
<text x="20" y="70" class="sm">Fitness: 0.09767200025911832</text>
<rect x="449" y="65" width="59" height="5" fill="#00f"><title>144976.0</title></rect>
<rect x="603" y="70" width="47" height="5" fill="#00f"><title>125891.0</title></rect>
<rect x="201" y="75" width="102" height="5" fill="#00f"><title>108134.0</title></rect>
<rect x="587" y="80" width="67" height="5" fill="#f0f"><title>31.0</title></rect>
<rect x="205" y="85" width="98" height="5" fill="#00f"><title>23.0</title></rect>
<rect x="449" y="90" width="201" height="5" fill="#00f"><title>17.0</title></rect>
<rect x="254" y="95" width="49" height="5" fill="#00f"><title>7.0</title></rect>
<rect x="197" y="100" width="106" height="5" fill="#00f"><title>6.0</title></rect>
<rect x="603" y="105" width="71" height="5" fill="#00f"><title>4.0</title></rect>
<rect x="617" y="110" width="48" height="5" fill="#f0f"><title>3.0</title></rect>
<rect x="804" y="115" width="187" height="5" fill="#00f"><title>3.0</title></rect>
<text x="20" y="145" class="sm">0.9055</text>
<rect x="100" y="135" width="101" height="12" fill="#00f"/>
<rect x="303" y="135" width="146" height="12" fill="#00f"/>
<rect x="508" y="135" width="95" height="12" fill="#00f"/>
<rect x="650" y="135" width="247" height="12" fill="#00f"/>
<line x1="201" y1="141" x2="302" y2="141" stroke="#00f"/>
<line x1="449" y1="141" x2="507" y2="141" stroke="#00f"/>
<line x1="603" y1="141" x2="649" y2="141" stroke="#00f"/>
<rect x="124" y="136" width="77" height="10" fill="#ff0"/>
<rect x="304" y="136" width="145" height="10" fill="#ff0"/>
<rect x="509" y="136" width="94" height="10" fill="#ff0"/>
<rect x="651" y="136" width="118" height="10" fill="#ff0"/>
<text x="20" y="165" class="sm">0.08762</text>
<rect x="100" y="155" width="154" height="12" fill="#00f"/>
<rect x="303" y="155" width="146" height="12" fill="#00f"/>
<rect x="508" y="155" width="95" height="12" fill="#00f"/>
<rect x="650" y="155" width="247" height="12" fill="#00f"/>
<line x1="254" y1="161" x2="302" y2="161" stroke="#00f"/>
<line x1="449" y1="161" x2="507" y2="161" stroke="#00f"/>
<line x1="603" y1="161" x2="649" y2="161" stroke="#00f"/>
<rect x="540" y="156" width="63" height="10" fill="#ff0"/>
<rect x="651" y="156" width="118" height="10" fill="#ff0"/>
<text x="20" y="185" class="sm">0.00407</text>
<rect x="100" y="175" width="101" height="12" fill="#00f"/>
<rect x="303" y="175" width="146" height="12" fill="#00f"/>
<rect x="508" y="175" width="389" height="12" fill="#00f"/>
<line x1="201" y1="181" x2="302" y2="181" stroke="#00f"/>
<line x1="449" y1="181" x2="507" y2="181" stroke="#00f"/>
<rect x="124" y="176" width="77" height="10" fill="#ff0"/>
<rect x="304" y="176" width="145" height="10" fill="#ff0"/>
<rect x="509" y="176" width="273" height="10" fill="#ff0"/>
<text x="20" y="205" class="sm">0.0007116</text>
<rect x="100" y="195" width="101" height="12" fill="#00f"/>
<rect x="255" y="195" width="194" height="12" fill="#00f"/>
<rect x="508" y="195" width="95" height="12" fill="#00f"/>
<rect x="650" y="195" width="247" height="12" fill="#00f"/>
<line x1="201" y1="201" x2="254" y2="201" stroke="#00f"/>
<line x1="449" y1="201" x2="507" y2="201" stroke="#00f"/>
<line x1="603" y1="201" x2="649" y2="201" stroke="#00f"/>
<rect x="540" y="196" width="63" height="10" fill="#ff0"/>
<rect x="651" y="196" width="118" height="10" fill="#ff0"/>
<text x="20" y="225" class="sm">0.0005358</text>
<rect x="100" y="215" width="105" height="12" fill="#00f"/>
<rect x="303" y="215" width="146" height="12" fill="#00f"/>
<rect x="508" y="215" width="95" height="12" fill="#00f"/>
<rect x="650" y="215" width="247" height="12" fill="#00f"/>
<line x1="205" y1="221" x2="302" y2="221" stroke="#00f"/>
<line x1="449" y1="221" x2="507" y2="221" stroke="#00f"/>
<line x1="603" y1="221" x2="649" y2="221" stroke="#00f"/>
<rect x="540" y="216" width="63" height="10" fill="#ff0"/>
<rect x="651" y="216" width="118" height="10" fill="#ff0"/>
<text x="20" y="245" class="sm">0.0003938</text>
<rect x="100" y="235" width="154" height="12" fill="#00f"/>
<rect x="303" y="235" width="146" height="12" fill="#00f"/>
<rect x="508" y="235" width="389" height="12" fill="#00f"/>
<line x1="254" y1="241" x2="302" y2="241" stroke="#00f"/>
<line x1="449" y1="241" x2="507" y2="241" stroke="#00f"/>
<rect x="540" y="236" width="242" height="10" fill="#ff0"/>
<text x="20" y="265" class="sm">0.0003541</text>
<rect x="100" y="255" width="101" height="12" fill="#00f"/>
<rect x="303" y="255" width="146" height="12" fill="#00f"/>
<rect x="650" y="255" width="247" height="12" fill="#00f"/>
<line x1="201" y1="261" x2="302" y2="261" stroke="#00f"/>
<line x1="449" y1="261" x2="649" y2="261" stroke="#00f"/>
<rect x="124" y="256" width="77" height="10" fill="#ff0"/>
<rect x="304" y="256" width="145" height="10" fill="#ff0"/>
<rect x="651" y="256" width="21" height="10" fill="#ff0"/>
<text x="20" y="285" class="sm">0.000181</text>
<rect x="100" y="275" width="101" height="12" fill="#00f"/>
<rect x="337" y="275" width="112" height="12" fill="#00f"/>
<rect x="508" y="275" width="95" height="12" fill="#00f"/>
<rect x="650" y="275" width="247" height="12" fill="#00f"/>
<line x1="201" y1="281" x2="336" y2="281" stroke="#00f"/>
<line x1="449" y1="281" x2="507" y2="281" stroke="#00f"/>
<line x1="603" y1="281" x2="649" y2="281" stroke="#00f"/>
<rect x="540" y="276" width="63" height="10" fill="#ff0"/>
<rect x="651" y="276" width="118" height="10" fill="#ff0"/>
<text x="20" y="305" class="sm">0.0001394</text>
<rect x="100" y="295" width="101" height="12" fill="#00f"/>
<rect x="303" y="295" width="92" height="12" fill="#00f"/>
<rect x="508" y="295" width="95" height="12" fill="#00f"/>
<rect x="650" y="295" width="247" height="12" fill="#00f"/>
<line x1="201" y1="301" x2="302" y2="301" stroke="#00f"/>
<line x1="395" y1="301" x2="507" y2="301" stroke="#00f"/>
<line x1="603" y1="301" x2="649" y2="301" stroke="#00f"/>
<rect x="124" y="296" width="77" height="10" fill="#ff0"/>
<rect x="304" y="296" width="91" height="10" fill="#ff0"/>
<rect x="509" y="296" width="94" height="10" fill="#ff0"/>
<rect x="651" y="296" width="118" height="10" fill="#ff0"/>
<text x="20" y="325" class="sm">9.563e-05</text>
<rect x="100" y="315" width="101" height="12" fill="#00f"/>
<rect x="508" y="315" width="95" height="12" fill="#00f"/>
<rect x="650" y="315" width="247" height="12" fill="#00f"/>
<line x1="201" y1="321" x2="507" y2="321" stroke="#00f"/>
<line x1="603" y1="321" x2="649" y2="321" stroke="#00f"/>
<rect x="124" y="316" width="77" height="10" fill="#ff0"/>
<rect x="509" y="316" width="94" height="10" fill="#ff0"/>
<rect x="651" y="316" width="21" height="10" fill="#ff0"/>
<text x="20" y="345" class="sm">9.089e-05</text>
<rect x="100" y="335" width="101" height="12" fill="#00f"/>
<rect x="303" y="335" width="146" height="12" fill="#00f"/>
<rect x="508" y="335" width="95" height="12" fill="#00f"/>
<rect x="674" y="335" width="223" height="12" fill="#00f"/>
<line x1="201" y1="341" x2="302" y2="341" stroke="#00f"/>
<line x1="449" y1="341" x2="507" y2="341" stroke="#00f"/>
<line x1="603" y1="341" x2="673" y2="341" stroke="#00f"/>
<rect x="124" y="336" width="77" height="10" fill="#ff0"/>
<rect x="304" y="336" width="145" height="10" fill="#ff0"/>
<rect x="509" y="336" width="94" height="10" fill="#ff0"/>
<rect x="675" y="336" width="94" height="10" fill="#ff0"/>
<text x="20" y="365" class="sm">8.157e-05</text>
<rect x="100" y="355" width="101" height="12" fill="#00f"/>
<rect x="418" y="355" width="31" height="12" fill="#00f"/>
<rect x="508" y="355" width="95" height="12" fill="#00f"/>
<rect x="650" y="355" width="247" height="12" fill="#00f"/>
<line x1="201" y1="361" x2="417" y2="361" stroke="#00f"/>
<line x1="449" y1="361" x2="507" y2="361" stroke="#00f"/>
<line x1="603" y1="361" x2="649" y2="361" stroke="#00f"/>
<rect x="124" y="356" width="77" height="10" fill="#ff0"/>
<rect x="419" y="356" width="30" height="10" fill="#ff0"/>
<rect x="509" y="356" width="82" height="10" fill="#ff0"/>
<text x="20" y="385" class="sm">7.275e-05</text>
<rect x="100" y="375" width="101" height="12" fill="#00f"/>
<rect x="303" y="375" width="300" height="12" fill="#00f"/>
<rect x="650" y="375" width="247" height="12" fill="#00f"/>
<line x1="201" y1="381" x2="302" y2="381" stroke="#00f"/>
<line x1="603" y1="381" x2="649" y2="381" stroke="#00f"/>
<rect x="124" y="376" width="77" height="10" fill="#ff0"/>
<rect x="304" y="376" width="149" height="10" fill="#ff0"/>
<text x="20" y="405" class="sm">3.427e-05</text>
<rect x="100" y="395" width="154" height="12" fill="#00f"/>
<rect x="303" y="395" width="146" height="12" fill="#00f"/>
<rect x="650" y="395" width="247" height="12" fill="#00f"/>
<line x1="254" y1="401" x2="302" y2="401" stroke="#00f"/>
<line x1="449" y1="401" x2="649" y2="401" stroke="#00f"/>
<rect x="124" y="396" width="98" height="10" fill="#ff0"/>
<text x="20" y="425" class="sm">2.601e-05</text>
<rect x="100" y="415" width="101" height="12" fill="#00f"/>
<rect x="347" y="415" width="102" height="12" fill="#00f"/>
<rect x="508" y="415" width="95" height="12" fill="#00f"/>
<rect x="650" y="415" width="247" height="12" fill="#00f"/>
<line x1="201" y1="421" x2="346" y2="421" stroke="#00f"/>
<line x1="449" y1="421" x2="507" y2="421" stroke="#00f"/>
<line x1="603" y1="421" x2="649" y2="421" stroke="#00f"/>
<rect x="540" y="416" width="63" height="10" fill="#ff0"/>
<rect x="651" y="416" width="118" height="10" fill="#ff0"/>
<text x="20" y="445" class="sm">2.329e-05</text>
<rect x="100" y="435" width="101" height="12" fill="#00f"/>
<rect x="303" y="435" width="146" height="12" fill="#00f"/>
<rect x="508" y="435" width="65" height="12" fill="#00f"/>
<rect x="650" y="435" width="247" height="12" fill="#00f"/>
<line x1="201" y1="441" x2="302" y2="441" stroke="#00f"/>
<line x1="449" y1="441" x2="507" y2="441" stroke="#00f"/>
<line x1="573" y1="441" x2="649" y2="441" stroke="#00f"/>
<rect x="124" y="436" width="77" height="10" fill="#ff0"/>
<rect x="304" y="436" width="145" height="10" fill="#ff0"/>
<rect x="509" y="436" width="64" height="10" fill="#ff0"/>
<rect x="651" y="436" width="1" height="10" fill="#ff0"/>
<text x="20" y="465" class="sm">2.183e-05</text>
<rect x="100" y="455" width="349" height="12" fill="#00f"/>
<rect x="508" y="455" width="95" height="12" fill="#00f"/>
<rect x="650" y="455" width="247" height="12" fill="#00f"/>
<line x1="449" y1="461" x2="507" y2="461" stroke="#00f"/>
<line x1="603" y1="461" x2="649" y2="461" stroke="#00f"/>
<rect x="540" y="456" width="63" height="10" fill="#ff0"/>
<rect x="651" y="456" width="118" height="10" fill="#ff0"/>
<text x="20" y="485" class="sm">1.496e-05</text>
<rect x="100" y="475" width="101" height="12" fill="#00f"/>
<rect x="268" y="475" width="181" height="12" fill="#00f"/>
<rect x="508" y="475" width="95" height="12" fill="#00f"/>
<rect x="650" y="475" width="247" height="12" fill="#00f"/>
<line x1="201" y1="481" x2="267" y2="481" stroke="#00f"/>
<line x1="449" y1="481" x2="507" y2="481" stroke="#00f"/>
<line x1="603" y1="481" x2="649" y2="481" stroke="#00f"/>
<rect x="124" y="476" width="77" height="10" fill="#ff0"/>
<rect x="269" y="476" width="149" height="10" fill="#ff0"/>
<text x="20" y="505" class="sm">1.349e-05</text>
<rect x="100" y="495" width="154" height="12" fill="#00f"/>
<rect x="303" y="495" width="92" height="12" fill="#00f"/>
<rect x="508" y="495" width="95" height="12" fill="#00f"/>
<rect x="650" y="495" width="247" height="12" fill="#00f"/>
<line x1="254" y1="501" x2="302" y2="501" stroke="#00f"/>
<line x1="395" y1="501" x2="507" y2="501" stroke="#00f"/>
<line x1="603" y1="501" x2="649" y2="501" stroke="#00f"/>
<rect x="540" y="496" width="63" height="10" fill="#ff0"/>
<rect x="651" y="496" width="118" height="10" fill="#ff0"/>
<text x="20" y="525" class="sm">1.101e-05</text>
<rect x="100" y="515" width="101" height="12" fill="#00f"/>
<rect x="303" y="515" width="103" height="12" fill="#00f"/>
<rect x="508" y="515" width="95" height="12" fill="#00f"/>
<rect x="650" y="515" width="247" height="12" fill="#00f"/>
<line x1="201" y1="521" x2="302" y2="521" stroke="#00f"/>
<line x1="406" y1="521" x2="507" y2="521" stroke="#00f"/>
<line x1="603" y1="521" x2="649" y2="521" stroke="#00f"/>
<rect x="124" y="516" width="77" height="10" fill="#ff0"/>
<rect x="304" y="516" width="102" height="10" fill="#ff0"/>
<rect x="509" y="516" width="82" height="10" fill="#ff0"/>
</svg>
