<svg viewBox="0 0 614 515" xmlns="http://www.w3.org/2000/svg">

<style>
  .sm { font: 12px sans-serif; }
  .lg { font: 15px sans-serif; }
</style>
<rect fill="#ddd" x="0" y="0" width="100%" height="100%"/>
<text x="20" y="20" class="lg">ch.6059 II:12907270-12907883 Gene:WBGene00009398</text>
<text x="20" y="50" class="sm">WormBase</text>
<rect x="100" y="40" width="49" height="12" fill="#00f"/>
<rect x="201" y="40" width="313" height="12" fill="#00f"/>
<line x1="149" y1="46" x2="200" y2="46" stroke="#00f"/>
<rect x="136" y="41" width="13" height="10" fill="#ff0"/>
<rect x="202" y="41" width="228" height="10" fill="#ff0"/>
<rect x="101" y="41" width="34" height="10" fill="brown"><title>.</title></rect>
<rect x="431" y="41" width="83" height="10" fill="brown"><title>.</title></rect>
<text x="20" y="70" class="sm">Fitness: 0.00015319689835791023</text>
<rect x="149" y="65" width="52" height="5" fill="#00f"><title>152925.0</title></rect>
<rect x="146" y="70" width="55" height="5" fill="#00f"><title>78.0</title></rect>
<rect x="279" y="75" width="39" height="5" fill="#f0f"><title>14.0</title></rect>
<text x="20" y="105" class="sm">0.9995</text>
<rect x="100" y="95" width="49" height="12" fill="#00f"/>
<rect x="201" y="95" width="316" height="12" fill="#00f"/>
<line x1="149" y1="101" x2="200" y2="101" stroke="#00f"/>
<rect x="136" y="96" width="13" height="10" fill="#ff0"/>
<rect x="202" y="96" width="228" height="10" fill="#ff0"/>
<text x="20" y="125" class="sm">0.0004335</text>
<rect x="100" y="115" width="46" height="12" fill="#00f"/>
<rect x="201" y="115" width="316" height="12" fill="#00f"/>
<line x1="146" y1="121" x2="200" y2="121" stroke="#00f"/>
<rect x="136" y="116" width="10" height="10" fill="#ff0"/>
<rect x="202" y="116" width="228" height="10" fill="#ff0"/>
<text x="20" y="145" class="sm">7.651e-05</text>
<rect x="100" y="135" width="37" height="12" fill="#00f"/>
<rect x="201" y="135" width="316" height="12" fill="#00f"/>
<line x1="137" y1="141" x2="200" y2="141" stroke="#00f"/>
<rect x="227" y="136" width="203" height="10" fill="#ff0"/>
<text x="20" y="165" class="sm">5.42e-08</text>
<rect x="100" y="155" width="49" height="12" fill="#00f"/>
<rect x="244" y="155" width="273" height="12" fill="#00f"/>
<line x1="149" y1="161" x2="243" y2="161" stroke="#00f"/>
<rect x="136" y="156" width="13" height="10" fill="#ff0"/>
<rect x="245" y="156" width="216" height="10" fill="#ff0"/>
<text x="20" y="185" class="sm">3.489e-08</text>
<rect x="100" y="175" width="49" height="12" fill="#00f"/>
<rect x="263" y="175" width="254" height="12" fill="#00f"/>
<line x1="149" y1="181" x2="262" y2="181" stroke="#00f"/>
<rect x="303" y="176" width="158" height="10" fill="#ff0"/>
<text x="20" y="205" class="sm">4.119e-11</text>
<rect x="100" y="195" width="46" height="12" fill="#00f"/>
<rect x="244" y="195" width="273" height="12" fill="#00f"/>
<line x1="146" y1="201" x2="243" y2="201" stroke="#00f"/>
<rect x="136" y="196" width="10" height="10" fill="#ff0"/>
<rect x="245" y="196" width="216" height="10" fill="#ff0"/>
<text x="20" y="225" class="sm">3.706e-11</text>
<rect x="100" y="215" width="37" height="12" fill="#00f"/>
<rect x="244" y="215" width="273" height="12" fill="#00f"/>
<line x1="137" y1="221" x2="243" y2="221" stroke="#00f"/>
<rect x="303" y="216" width="158" height="10" fill="#ff0"/>
<text x="20" y="245" class="sm">2.442e-11</text>
<rect x="100" y="235" width="46" height="12" fill="#00f"/>
<rect x="263" y="235" width="254" height="12" fill="#00f"/>
<line x1="146" y1="241" x2="262" y2="241" stroke="#00f"/>
<rect x="303" y="236" width="158" height="10" fill="#ff0"/>
<text x="20" y="265" class="sm">1.825e-11</text>
<rect x="100" y="255" width="37" height="12" fill="#00f"/>
<rect x="263" y="255" width="254" height="12" fill="#00f"/>
<line x1="137" y1="261" x2="262" y2="261" stroke="#00f"/>
<rect x="303" y="256" width="158" height="10" fill="#ff0"/>
<text x="20" y="285" class="sm">7.059e-12</text>
<rect x="100" y="275" width="49" height="12" fill="#00f"/>
<rect x="290" y="275" width="227" height="12" fill="#00f"/>
<line x1="149" y1="281" x2="289" y2="281" stroke="#00f"/>
<rect x="303" y="276" width="158" height="10" fill="#ff0"/>
<text x="20" y="305" class="sm">2.15e-12</text>
<rect x="100" y="295" width="49" height="12" fill="#00f"/>
<rect x="329" y="295" width="188" height="12" fill="#00f"/>
<line x1="149" y1="301" x2="328" y2="301" stroke="#00f"/>
<rect x="136" y="296" width="13" height="10" fill="#ff0"/>
<rect x="330" y="296" width="60" height="10" fill="#ff0"/>
<text x="20" y="325" class="sm">1.565e-12</text>
<rect x="100" y="315" width="277" height="12" fill="#00f"/>
<rect x="432" y="315" width="85" height="12" fill="#00f"/>
<line x1="377" y1="321" x2="431" y2="321" stroke="#00f"/>
<rect x="191" y="316" width="186" height="10" fill="#ff0"/>
<rect x="433" y="316" width="28" height="10" fill="#ff0"/>
<text x="20" y="345" class="sm">3.664e-13</text>
<rect x="100" y="335" width="49" height="12" fill="#00f"/>
<rect x="432" y="335" width="85" height="12" fill="#00f"/>
<line x1="149" y1="341" x2="431" y2="341" stroke="#00f"/>
<rect x="136" y="336" width="13" height="10" fill="#ff0"/>
<rect x="433" y="336" width="33" height="10" fill="#ff0"/>
<text x="20" y="365" class="sm">2.624e-13</text>
<rect x="100" y="355" width="49" height="12" fill="#00f"/>
<rect x="390" y="355" width="127" height="12" fill="#00f"/>
<line x1="149" y1="361" x2="389" y2="361" stroke="#00f"/>
<rect x="136" y="356" width="13" height="10" fill="#ff0"/>
<rect x="391" y="356" width="0" height="10" fill="#ff0"/>
<text x="20" y="385" class="sm">2.013e-13</text>
<rect x="100" y="375" width="92" height="12" fill="#00f"/>
<rect x="244" y="375" width="273" height="12" fill="#00f"/>
<line x1="192" y1="381" x2="243" y2="381" stroke="#00f"/>
<rect x="303" y="376" width="158" height="10" fill="#ff0"/>
<text x="20" y="405" class="sm">6.473e-14</text>
<rect x="100" y="395" width="189" height="12" fill="#00f"/>
<rect x="329" y="395" width="188" height="12" fill="#00f"/>
<line x1="289" y1="401" x2="328" y2="401" stroke="#00f"/>
<rect x="191" y="396" width="98" height="10" fill="#ff0"/>
<rect x="330" y="396" width="131" height="10" fill="#ff0"/>
<text x="20" y="425" class="sm">2.663e-14</text>
<rect x="100" y="415" width="111" height="12" fill="#00f"/>
<rect x="263" y="415" width="254" height="12" fill="#00f"/>
<line x1="211" y1="421" x2="262" y2="421" stroke="#00f"/>
<rect x="191" y="416" width="20" height="10" fill="#ff0"/>
<rect x="264" y="416" width="197" height="10" fill="#ff0"/>
<text x="20" y="445" class="sm">1.885e-14</text>
<rect x="100" y="435" width="49" height="12" fill="#00f"/>
<rect x="251" y="435" width="266" height="12" fill="#00f"/>
<line x1="149" y1="441" x2="250" y2="441" stroke="#00f"/>
<rect x="303" y="436" width="158" height="10" fill="#ff0"/>
<text x="20" y="465" class="sm">1.786e-14</text>
<rect x="100" y="455" width="339" height="12" fill="#00f"/>
<rect x="491" y="455" width="26" height="12" fill="#00f"/>
<line x1="439" y1="461" x2="490" y2="461" stroke="#00f"/>
<rect x="191" y="456" width="239" height="10" fill="#ff0"/>
<text x="20" y="485" class="sm">1.719e-14</text>
<rect x="100" y="475" width="343" height="12" fill="#00f"/>
<rect x="491" y="475" width="26" height="12" fill="#00f"/>
<line x1="443" y1="481" x2="490" y2="481" stroke="#00f"/>
<rect x="191" y="476" width="239" height="10" fill="#ff0"/>
</svg>
