<svg viewBox="0 0 857 620" xmlns="http://www.w3.org/2000/svg">

<style>
  .sm { font: 12px sans-serif; }
  .lg { font: 15px sans-serif; }
</style>
<rect fill="#ddd" x="0" y="0" width="100%" height="100%"/>
<text x="20" y="20" class="lg">ch.61 I:461895-462751 Gene:WBGene00021026</text>
<text x="20" y="50" class="sm">WormBase</text>
<rect x="100" y="40" width="179" height="12" fill="#00f"/>
<rect x="335" y="40" width="89" height="12" fill="#00f"/>
<rect x="476" y="40" width="281" height="12" fill="#00f"/>
<line x1="279" y1="46" x2="334" y2="46" stroke="#00f"/>
<line x1="424" y1="46" x2="475" y2="46" stroke="#00f"/>
<rect x="106" y="41" width="173" height="10" fill="#ff0"/>
<rect x="336" y="41" width="88" height="10" fill="#ff0"/>
<rect x="477" y="41" width="189" height="10" fill="#ff0"/>
<rect x="101" y="41" width="4" height="10" fill="brown"><title>.</title></rect>
<rect x="667" y="41" width="90" height="10" fill="brown"><title>.</title></rect>
<text x="20" y="70" class="sm">Fitness: 0.017135115355922843</text>
<rect x="279" y="65" width="56" height="5" fill="#00f"><title>744722.0</title></rect>
<rect x="424" y="70" width="52" height="5" fill="#00f"><title>722411.0</title></rect>
<rect x="554" y="75" width="49" height="5" fill="#00f"><title>118.0</title></rect>
<rect x="246" y="80" width="89" height="5" fill="#00f"><title>88.0</title></rect>
<rect x="424" y="85" width="59" height="5" fill="#00f"><title>44.0</title></rect>
<rect x="225" y="90" width="426" height="5" fill="#00f"><title>23.0</title></rect>
<rect x="531" y="95" width="52" height="5" fill="#00f"><title>19.0</title></rect>
<rect x="560" y="100" width="64" height="5" fill="#00f"><title>13.0</title></rect>
<rect x="243" y="105" width="92" height="5" fill="#00f"><title>12.0</title></rect>
<rect x="214" y="110" width="329" height="5" fill="#00f"><title>10.0</title></rect>
<rect x="150" y="115" width="185" height="5" fill="#00f"><title>7.0</title></rect>
<rect x="279" y="120" width="197" height="5" fill="#00f"><title>6.0</title></rect>
<rect x="243" y="125" width="408" height="5" fill="#00f"><title>5.0</title></rect>
<rect x="153" y="130" width="450" height="5" fill="#00f"><title>4.0</title></rect>
<rect x="543" y="135" width="103" height="5" fill="#00f"><title>4.0</title></rect>
<rect x="162" y="140" width="58" height="5" fill="#00f"><title>3.0</title></rect>
<rect x="214" y="145" width="166" height="5" fill="#00f"><title>3.0</title></rect>
<rect x="214" y="150" width="338" height="5" fill="#00f"><title>3.0</title></rect>
<rect x="219" y="155" width="32" height="5" fill="#00f"><title>3.0</title></rect>
<rect x="233" y="160" width="149" height="5" fill="#00f"><title>3.0</title></rect>
<rect x="252" y="165" width="83" height="5" fill="#00f"><title>3.0</title></rect>
<rect x="351" y="170" width="125" height="5" fill="#00f"><title>3.0</title></rect>
<rect x="367" y="175" width="176" height="5" fill="#00f"><title>3.0</title></rect>
<rect x="374" y="180" width="229" height="5" fill="#00f"><title>3.0</title></rect>
<text x="20" y="210" class="sm">0.9953</text>
<rect x="100" y="200" width="179" height="12" fill="#00f"/>
<rect x="335" y="200" width="89" height="12" fill="#00f"/>
<rect x="476" y="200" width="284" height="12" fill="#00f"/>
<line x1="279" y1="206" x2="334" y2="206" stroke="#00f"/>
<line x1="424" y1="206" x2="475" y2="206" stroke="#00f"/>
<rect x="106" y="201" width="173" height="10" fill="#ff0"/>
<rect x="336" y="201" width="88" height="10" fill="#ff0"/>
<rect x="477" y="201" width="189" height="10" fill="#ff0"/>
<text x="20" y="230" class="sm">0.00146</text>
<rect x="100" y="220" width="179" height="12" fill="#00f"/>
<rect x="335" y="220" width="78" height="12" fill="#00f"/>
<rect x="476" y="220" width="284" height="12" fill="#00f"/>
<line x1="279" y1="226" x2="334" y2="226" stroke="#00f"/>
<line x1="413" y1="226" x2="475" y2="226" stroke="#00f"/>
<rect x="106" y="221" width="173" height="10" fill="#ff0"/>
<rect x="336" y="221" width="77" height="10" fill="#ff0"/>
<rect x="477" y="221" width="149" height="10" fill="#ff0"/>
<text x="20" y="250" class="sm">0.001009</text>
<rect x="100" y="240" width="179" height="12" fill="#00f"/>
<rect x="335" y="240" width="89" height="12" fill="#00f"/>
<rect x="476" y="240" width="78" height="12" fill="#00f"/>
<rect x="603" y="240" width="157" height="12" fill="#00f"/>
<line x1="279" y1="246" x2="334" y2="246" stroke="#00f"/>
<line x1="424" y1="246" x2="475" y2="246" stroke="#00f"/>
<line x1="554" y1="246" x2="602" y2="246" stroke="#00f"/>
<rect x="106" y="241" width="173" height="10" fill="#ff0"/>
<rect x="336" y="241" width="88" height="10" fill="#ff0"/>
<rect x="477" y="241" width="77" height="10" fill="#ff0"/>
<rect x="604" y="241" width="51" height="10" fill="#ff0"/>
<text x="20" y="270" class="sm">0.0005799</text>
<rect x="100" y="260" width="56" height="12" fill="#00f"/>
<rect x="220" y="260" width="59" height="12" fill="#00f"/>
<rect x="335" y="260" width="89" height="12" fill="#00f"/>
<rect x="476" y="260" width="284" height="12" fill="#00f"/>
<line x1="156" y1="266" x2="219" y2="266" stroke="#00f"/>
<line x1="279" y1="266" x2="334" y2="266" stroke="#00f"/>
<line x1="424" y1="266" x2="475" y2="266" stroke="#00f"/>
<rect x="232" y="261" width="47" height="10" fill="#ff0"/>
<rect x="336" y="261" width="88" height="10" fill="#ff0"/>
<rect x="477" y="261" width="189" height="10" fill="#ff0"/>
<text x="20" y="290" class="sm">0.0004772</text>
<rect x="100" y="280" width="62" height="12" fill="#00f"/>
<rect x="220" y="280" width="59" height="12" fill="#00f"/>
<rect x="335" y="280" width="89" height="12" fill="#00f"/>
<rect x="476" y="280" width="284" height="12" fill="#00f"/>
<line x1="162" y1="286" x2="219" y2="286" stroke="#00f"/>
<line x1="279" y1="286" x2="334" y2="286" stroke="#00f"/>
<line x1="424" y1="286" x2="475" y2="286" stroke="#00f"/>
<rect x="162" y="281" width="0" height="10" fill="#ff0"/>
<rect x="221" y="281" width="58" height="10" fill="#ff0"/>
<rect x="336" y="281" width="88" height="10" fill="#ff0"/>
<rect x="477" y="281" width="189" height="10" fill="#ff0"/>
<text x="20" y="310" class="sm">0.0002997</text>
<rect x="100" y="300" width="146" height="12" fill="#00f"/>
<rect x="335" y="300" width="89" height="12" fill="#00f"/>
<rect x="476" y="300" width="284" height="12" fill="#00f"/>
<line x1="246" y1="306" x2="334" y2="306" stroke="#00f"/>
<line x1="424" y1="306" x2="475" y2="306" stroke="#00f"/>
<rect x="106" y="301" width="140" height="10" fill="#ff0"/>
<rect x="336" y="301" width="88" height="10" fill="#ff0"/>
<rect x="477" y="301" width="189" height="10" fill="#ff0"/>
<text x="20" y="330" class="sm">0.0002545</text>
<rect x="100" y="320" width="179" height="12" fill="#00f"/>
<rect x="476" y="320" width="284" height="12" fill="#00f"/>
<line x1="279" y1="326" x2="475" y2="326" stroke="#00f"/>
<rect x="106" y="321" width="173" height="10" fill="#ff0"/>
<rect x="477" y="321" width="149" height="10" fill="#ff0"/>
<text x="20" y="350" class="sm">0.0002038</text>
<rect x="100" y="340" width="167" height="12" fill="#00f"/>
<rect x="335" y="340" width="89" height="12" fill="#00f"/>
<rect x="476" y="340" width="284" height="12" fill="#00f"/>
<line x1="267" y1="346" x2="334" y2="346" stroke="#00f"/>
<line x1="424" y1="346" x2="475" y2="346" stroke="#00f"/>
<rect x="106" y="341" width="161" height="10" fill="#ff0"/>
<rect x="336" y="341" width="88" height="10" fill="#ff0"/>
<rect x="477" y="341" width="189" height="10" fill="#ff0"/>
<text x="20" y="370" class="sm">6.128e-05</text>
<rect x="100" y="360" width="56" height="12" fill="#00f"/>
<rect x="231" y="360" width="48" height="12" fill="#00f"/>
<rect x="335" y="360" width="89" height="12" fill="#00f"/>
<rect x="476" y="360" width="284" height="12" fill="#00f"/>
<line x1="156" y1="366" x2="230" y2="366" stroke="#00f"/>
<line x1="279" y1="366" x2="334" y2="366" stroke="#00f"/>
<line x1="424" y1="366" x2="475" y2="366" stroke="#00f"/>
<rect x="106" y="361" width="50" height="10" fill="#ff0"/>
<rect x="232" y="361" width="47" height="10" fill="#ff0"/>
<rect x="336" y="361" width="88" height="10" fill="#ff0"/>
<rect x="477" y="361" width="189" height="10" fill="#ff0"/>
<text x="20" y="390" class="sm">5.679e-05</text>
<rect x="100" y="380" width="56" height="12" fill="#00f"/>
<rect x="237" y="380" width="42" height="12" fill="#00f"/>
<rect x="335" y="380" width="89" height="12" fill="#00f"/>
<rect x="476" y="380" width="284" height="12" fill="#00f"/>
<line x1="156" y1="386" x2="236" y2="386" stroke="#00f"/>
<line x1="279" y1="386" x2="334" y2="386" stroke="#00f"/>
<line x1="424" y1="386" x2="475" y2="386" stroke="#00f"/>
<rect x="106" y="381" width="50" height="10" fill="#ff0"/>
<rect x="238" y="381" width="41" height="10" fill="#ff0"/>
<rect x="336" y="381" width="88" height="10" fill="#ff0"/>
<rect x="477" y="381" width="189" height="10" fill="#ff0"/>
<text x="20" y="410" class="sm">4.814e-05</text>
<rect x="100" y="400" width="179" height="12" fill="#00f"/>
<rect x="335" y="400" width="39" height="12" fill="#00f"/>
<rect x="476" y="400" width="284" height="12" fill="#00f"/>
<line x1="279" y1="406" x2="334" y2="406" stroke="#00f"/>
<line x1="374" y1="406" x2="475" y2="406" stroke="#00f"/>
<rect x="106" y="401" width="173" height="10" fill="#ff0"/>
<rect x="336" y="401" width="38" height="10" fill="#ff0"/>
<rect x="477" y="401" width="149" height="10" fill="#ff0"/>
<text x="20" y="430" class="sm">4.775e-05</text>
<rect x="100" y="420" width="179" height="12" fill="#00f"/>
<rect x="356" y="420" width="68" height="12" fill="#00f"/>
<rect x="476" y="420" width="284" height="12" fill="#00f"/>
<line x1="279" y1="426" x2="355" y2="426" stroke="#00f"/>
<line x1="424" y1="426" x2="475" y2="426" stroke="#00f"/>
<rect x="106" y="421" width="173" height="10" fill="#ff0"/>
<rect x="357" y="421" width="67" height="10" fill="#ff0"/>
<rect x="477" y="421" width="189" height="10" fill="#ff0"/>
<text x="20" y="450" class="sm">4.175e-05</text>
<rect x="100" y="440" width="179" height="12" fill="#00f"/>
<rect x="386" y="440" width="38" height="12" fill="#00f"/>
<rect x="476" y="440" width="284" height="12" fill="#00f"/>
<line x1="279" y1="446" x2="385" y2="446" stroke="#00f"/>
<line x1="424" y1="446" x2="475" y2="446" stroke="#00f"/>
<rect x="106" y="441" width="173" height="10" fill="#ff0"/>
<rect x="387" y="441" width="37" height="10" fill="#ff0"/>
<rect x="477" y="441" width="189" height="10" fill="#ff0"/>
<text x="20" y="470" class="sm">3.506e-05</text>
<rect x="100" y="460" width="179" height="12" fill="#00f"/>
<rect x="375" y="460" width="49" height="12" fill="#00f"/>
<rect x="476" y="460" width="284" height="12" fill="#00f"/>
<line x1="279" y1="466" x2="374" y2="466" stroke="#00f"/>
<line x1="424" y1="466" x2="475" y2="466" stroke="#00f"/>
<rect x="106" y="461" width="173" height="10" fill="#ff0"/>
<rect x="376" y="461" width="2" height="10" fill="#ff0"/>
<text x="20" y="490" class="sm">3.25e-05</text>
<rect x="100" y="480" width="179" height="12" fill="#00f"/>
<rect x="383" y="480" width="41" height="12" fill="#00f"/>
<rect x="476" y="480" width="284" height="12" fill="#00f"/>
<line x1="279" y1="486" x2="382" y2="486" stroke="#00f"/>
<line x1="424" y1="486" x2="475" y2="486" stroke="#00f"/>
<rect x="106" y="481" width="173" height="10" fill="#ff0"/>
<rect x="384" y="481" width="40" height="10" fill="#ff0"/>
<rect x="477" y="481" width="189" height="10" fill="#ff0"/>
<text x="20" y="510" class="sm">2.13e-05</text>
<rect x="100" y="500" width="62" height="12" fill="#00f"/>
<rect x="231" y="500" width="48" height="12" fill="#00f"/>
<rect x="335" y="500" width="89" height="12" fill="#00f"/>
<rect x="476" y="500" width="284" height="12" fill="#00f"/>
<line x1="162" y1="506" x2="230" y2="506" stroke="#00f"/>
<line x1="279" y1="506" x2="334" y2="506" stroke="#00f"/>
<line x1="424" y1="506" x2="475" y2="506" stroke="#00f"/>
<rect x="106" y="501" width="56" height="10" fill="#ff0"/>
<rect x="232" y="501" width="47" height="10" fill="#ff0"/>
<rect x="336" y="501" width="88" height="10" fill="#ff0"/>
<rect x="477" y="501" width="189" height="10" fill="#ff0"/>
<text x="20" y="530" class="sm">2.049e-05</text>
<rect x="100" y="520" width="62" height="12" fill="#00f"/>
<rect x="237" y="520" width="42" height="12" fill="#00f"/>
<rect x="335" y="520" width="89" height="12" fill="#00f"/>
<rect x="476" y="520" width="284" height="12" fill="#00f"/>
<line x1="162" y1="526" x2="236" y2="526" stroke="#00f"/>
<line x1="279" y1="526" x2="334" y2="526" stroke="#00f"/>
<line x1="424" y1="526" x2="475" y2="526" stroke="#00f"/>
<rect x="106" y="521" width="56" height="10" fill="#ff0"/>
<rect x="238" y="521" width="41" height="10" fill="#ff0"/>
<rect x="336" y="521" width="88" height="10" fill="#ff0"/>
<rect x="477" y="521" width="189" height="10" fill="#ff0"/>
<text x="20" y="550" class="sm">1.816e-05</text>
<rect x="100" y="540" width="36" height="12" fill="#00f"/>
<rect x="186" y="540" width="93" height="12" fill="#00f"/>
<rect x="335" y="540" width="89" height="12" fill="#00f"/>
<rect x="476" y="540" width="284" height="12" fill="#00f"/>
<line x1="136" y1="546" x2="185" y2="546" stroke="#00f"/>
<line x1="279" y1="546" x2="334" y2="546" stroke="#00f"/>
<line x1="424" y1="546" x2="475" y2="546" stroke="#00f"/>
<rect x="232" y="541" width="47" height="10" fill="#ff0"/>
<rect x="336" y="541" width="88" height="10" fill="#ff0"/>
<rect x="477" y="541" width="189" height="10" fill="#ff0"/>
<text x="20" y="570" class="sm">1.64e-05</text>
<rect x="100" y="560" width="179" height="12" fill="#00f"/>
<rect x="335" y="560" width="425" height="12" fill="#00f"/>
<line x1="279" y1="566" x2="334" y2="566" stroke="#00f"/>
<rect x="106" y="561" width="173" height="10" fill="#ff0"/>
<rect x="336" y="561" width="92" height="10" fill="#ff0"/>
<text x="20" y="590" class="sm">1.551e-05</text>
<rect x="100" y="580" width="50" height="12" fill="#00f"/>
<rect x="220" y="580" width="59" height="12" fill="#00f"/>
<rect x="335" y="580" width="89" height="12" fill="#00f"/>
<rect x="476" y="580" width="284" height="12" fill="#00f"/>
<line x1="150" y1="586" x2="219" y2="586" stroke="#00f"/>
<line x1="279" y1="586" x2="334" y2="586" stroke="#00f"/>
<line x1="424" y1="586" x2="475" y2="586" stroke="#00f"/>
<rect x="232" y="581" width="47" height="10" fill="#ff0"/>
<rect x="336" y="581" width="88" height="10" fill="#ff0"/>
<rect x="477" y="581" width="189" height="10" fill="#ff0"/>
</svg>
