<svg viewBox="0 0 926 535" xmlns="http://www.w3.org/2000/svg">

<style>
  .sm { font: 12px sans-serif; }
  .lg { font: 15px sans-serif; }
</style>
<rect fill="#ddd" x="0" y="0" width="100%" height="100%"/>
<text x="20" y="20" class="lg">ch.6739 III:1701612-1702537 Gene:WBGene00021263</text>
<text x="20" y="50" class="sm">WormBase</text>
<rect x="102" y="40" width="73" height="12" fill="#00f"/>
<rect x="612" y="40" width="216" height="12" fill="#00f"/>
<line x1="175" y1="46" x2="611" y2="46" stroke="#00f"/>
<rect x="116" y="41" width="59" height="10" fill="#ff0"/>
<rect x="613" y="41" width="149" height="10" fill="#ff0"/>
<rect x="103" y="41" width="12" height="10" fill="brown"><title>.</title></rect>
<rect x="763" y="41" width="65" height="10" fill="brown"><title>.</title></rect>
<text x="20" y="70" class="sm">Fitness: 0.07798652210363882</text>
<rect x="175" y="65" width="437" height="5" fill="#00f"><title>811640.0</title></rect>
<rect x="175" y="70" width="441" height="5" fill="#00f"><title>374.0</title></rect>
<rect x="175" y="75" width="395" height="5" fill="#00f"><title>91.0</title></rect>
<rect x="238" y="80" width="374" height="5" fill="#00f"><title>20.0</title></rect>
<rect x="5" y="85" width="607" height="5" fill="#00f"><title>8.0</title></rect>
<rect x="170" y="90" width="442" height="5" fill="#00f"><title>7.0</title></rect>
<rect x="513" y="95" width="47" height="5" fill="#f0f"><title>3.0</title></rect>
<text x="20" y="125" class="sm">0.9612</text>
<rect x="100" y="115" width="75" height="12" fill="#00f"/>
<rect x="612" y="115" width="217" height="12" fill="#00f"/>
<line x1="175" y1="121" x2="611" y2="121" stroke="#00f"/>
<rect x="116" y="116" width="59" height="10" fill="#ff0"/>
<rect x="613" y="116" width="149" height="10" fill="#ff0"/>
<text x="20" y="145" class="sm">0.01887</text>
<rect x="100" y="135" width="138" height="12" fill="#00f"/>
<rect x="612" y="135" width="217" height="12" fill="#00f"/>
<line x1="238" y1="141" x2="611" y2="141" stroke="#00f"/>
<rect x="116" y="136" width="122" height="10" fill="#ff0"/>
<rect x="613" y="136" width="149" height="10" fill="#ff0"/>
<text x="20" y="165" class="sm">0.01735</text>
<rect x="100" y="155" width="70" height="12" fill="#00f"/>
<rect x="612" y="155" width="217" height="12" fill="#00f"/>
<line x1="170" y1="161" x2="611" y2="161" stroke="#00f"/>
<rect x="632" y="156" width="119" height="10" fill="#ff0"/>
<text x="20" y="185" class="sm">0.0008433</text>
<rect x="100" y="175" width="75" height="12" fill="#00f"/>
<rect x="391" y="175" width="438" height="12" fill="#00f"/>
<line x1="175" y1="181" x2="390" y2="181" stroke="#00f"/>
<rect x="632" y="176" width="119" height="10" fill="#ff0"/>
<text x="20" y="205" class="sm">0.0004509</text>
<rect x="100" y="195" width="75" height="12" fill="#00f"/>
<rect x="570" y="195" width="259" height="12" fill="#00f"/>
<line x1="175" y1="201" x2="569" y2="201" stroke="#00f"/>
<rect x="116" y="196" width="59" height="10" fill="#ff0"/>
<rect x="571" y="196" width="191" height="10" fill="#ff0"/>
<text x="20" y="225" class="sm">0.0002824</text>
<rect x="100" y="215" width="75" height="12" fill="#00f"/>
<rect x="325" y="215" width="87" height="12" fill="#00f"/>
<rect x="612" y="215" width="217" height="12" fill="#00f"/>
<line x1="175" y1="221" x2="324" y2="221" stroke="#00f"/>
<line x1="412" y1="221" x2="611" y2="221" stroke="#00f"/>
<rect x="632" y="216" width="119" height="10" fill="#ff0"/>
<text x="20" y="245" class="sm">0.0002463</text>
<rect x="100" y="235" width="75" height="12" fill="#00f"/>
<rect x="494" y="235" width="335" height="12" fill="#00f"/>
<line x1="175" y1="241" x2="493" y2="241" stroke="#00f"/>
<rect x="116" y="236" width="59" height="10" fill="#ff0"/>
<rect x="495" y="236" width="107" height="10" fill="#ff0"/>
<text x="20" y="265" class="sm">0.0002123</text>
<rect x="100" y="255" width="75" height="12" fill="#00f"/>
<rect x="383" y="255" width="446" height="12" fill="#00f"/>
<line x1="175" y1="261" x2="382" y2="261" stroke="#00f"/>
<rect x="116" y="256" width="59" height="10" fill="#ff0"/>
<rect x="384" y="256" width="62" height="10" fill="#ff0"/>
<text x="20" y="285" class="sm">0.0001952</text>
<rect x="100" y="275" width="75" height="12" fill="#00f"/>
<rect x="325" y="275" width="504" height="12" fill="#00f"/>
<line x1="175" y1="281" x2="324" y2="281" stroke="#00f"/>
<rect x="632" y="276" width="119" height="10" fill="#ff0"/>
<text x="20" y="305" class="sm">0.0001287</text>
<rect x="100" y="295" width="109" height="12" fill="#00f"/>
<rect x="612" y="295" width="217" height="12" fill="#00f"/>
<line x1="209" y1="301" x2="611" y2="301" stroke="#00f"/>
<rect x="632" y="296" width="119" height="10" fill="#ff0"/>
<text x="20" y="325" class="sm">6.022e-05</text>
<rect x="100" y="315" width="312" height="12" fill="#00f"/>
<rect x="612" y="315" width="217" height="12" fill="#00f"/>
<line x1="412" y1="321" x2="611" y2="321" stroke="#00f"/>
<rect x="116" y="316" width="212" height="10" fill="#ff0"/>
<text x="20" y="345" class="sm">5.817e-05</text>
<rect x="100" y="335" width="75" height="12" fill="#00f"/>
<rect x="602" y="335" width="227" height="12" fill="#00f"/>
<line x1="175" y1="341" x2="601" y2="341" stroke="#00f"/>
<rect x="632" y="336" width="119" height="10" fill="#ff0"/>
<text x="20" y="365" class="sm">2.648e-05</text>
<rect x="100" y="355" width="192" height="12" fill="#00f"/>
<rect x="612" y="355" width="217" height="12" fill="#00f"/>
<line x1="292" y1="361" x2="611" y2="361" stroke="#00f"/>
<rect x="116" y="356" width="176" height="10" fill="#ff0"/>
<rect x="613" y="356" width="149" height="10" fill="#ff0"/>
<text x="20" y="385" class="sm">1.852e-05</text>
<rect x="100" y="375" width="138" height="12" fill="#00f"/>
<rect x="391" y="375" width="438" height="12" fill="#00f"/>
<line x1="238" y1="381" x2="390" y2="381" stroke="#00f"/>
<rect x="116" y="376" width="122" height="10" fill="#ff0"/>
<rect x="392" y="376" width="8" height="10" fill="#ff0"/>
<text x="20" y="405" class="sm">1.81e-05</text>
<rect x="100" y="395" width="70" height="12" fill="#00f"/>
<rect x="391" y="395" width="438" height="12" fill="#00f"/>
<line x1="170" y1="401" x2="390" y2="401" stroke="#00f"/>
<rect x="421" y="396" width="119" height="10" fill="#ff0"/>
<text x="20" y="425" class="sm">1.677e-05</text>
<rect x="100" y="415" width="75" height="12" fill="#00f"/>
<rect x="383" y="415" width="29" height="12" fill="#00f"/>
<rect x="612" y="415" width="217" height="12" fill="#00f"/>
<line x1="175" y1="421" x2="382" y2="421" stroke="#00f"/>
<line x1="412" y1="421" x2="611" y2="421" stroke="#00f"/>
<rect x="632" y="416" width="119" height="10" fill="#ff0"/>
<text x="20" y="445" class="sm">9.686e-06</text>
<rect x="100" y="435" width="75" height="12" fill="#00f"/>
<rect x="665" y="435" width="164" height="12" fill="#00f"/>
<line x1="175" y1="441" x2="664" y2="441" stroke="#00f"/>
<rect x="116" y="436" width="59" height="10" fill="#ff0"/>
<rect x="666" y="436" width="50" height="10" fill="#ff0"/>
<text x="20" y="465" class="sm">5.402e-06</text>
<rect x="100" y="455" width="70" height="12" fill="#00f"/>
<rect x="325" y="455" width="87" height="12" fill="#00f"/>
<rect x="612" y="455" width="217" height="12" fill="#00f"/>
<line x1="170" y1="461" x2="324" y2="461" stroke="#00f"/>
<line x1="412" y1="461" x2="611" y2="461" stroke="#00f"/>
<rect x="632" y="456" width="119" height="10" fill="#ff0"/>
<text x="20" y="485" class="sm">5.139e-06</text>
<rect x="100" y="475" width="70" height="12" fill="#00f"/>
<rect x="383" y="475" width="446" height="12" fill="#00f"/>
<line x1="170" y1="481" x2="382" y2="481" stroke="#00f"/>
<rect x="632" y="476" width="119" height="10" fill="#ff0"/>
<text x="20" y="505" class="sm">4.581e-06</text>
<rect x="100" y="495" width="70" height="12" fill="#00f"/>
<rect x="570" y="495" width="259" height="12" fill="#00f"/>
<line x1="170" y1="501" x2="569" y2="501" stroke="#00f"/>
<rect x="632" y="496" width="119" height="10" fill="#ff0"/>
</svg>
