<svg viewBox="0 0 600 550" xmlns="http://www.w3.org/2000/svg">

<style>
  .sm { font: 12px sans-serif; }
  .lg { font: 15px sans-serif; }
</style>
<rect fill="#ddd" x="0" y="0" width="100%" height="100%"/>
<text x="20" y="20" class="lg">ch.6632 III:1080801-1081400 Gene:WBGene00022357</text>
<text x="20" y="50" class="sm">WormBase</text>
<rect x="100" y="40" width="209" height="12" fill="#00f"/>
<rect x="354" y="40" width="146" height="12" fill="#00f"/>
<line x1="309" y1="46" x2="353" y2="46" stroke="#00f"/>
<rect x="120" y="41" width="189" height="10" fill="#ff0"/>
<rect x="355" y="41" width="103" height="10" fill="#ff0"/>
<rect x="101" y="41" width="18" height="10" fill="brown"><title>.</title></rect>
<rect x="459" y="41" width="41" height="10" fill="brown"><title>.</title></rect>
<text x="20" y="70" class="sm">Fitness: 0.01275820822738002</text>
<rect x="309" y="65" width="45" height="5" fill="#00f"><title>539627.0</title></rect>
<rect x="309" y="70" width="54" height="5" fill="#00f"><title>107.0</title></rect>
<rect x="309" y="75" width="62" height="5" fill="#00f"><title>91.0</title></rect>
<rect x="161" y="80" width="49" height="5" fill="#00f"><title>10.0</title></rect>
<rect x="160" y="85" width="40" height="5" fill="#00f"><title>8.0</title></rect>
<rect x="299" y="90" width="55" height="5" fill="#00f"><title>8.0</title></rect>
<rect x="309" y="95" width="271" height="5" fill="#00f"><title>4.0</title></rect>
<rect x="161" y="100" width="84" height="5" fill="#00f"><title>3.0</title></rect>
<rect x="475" y="105" width="105" height="5" fill="#00f"><title>3.0</title></rect>
<rect x="486" y="110" width="94" height="5" fill="#00f"><title>3.0</title></rect>
<text x="20" y="140" class="sm">0.9933</text>
<rect x="100" y="130" width="209" height="12" fill="#00f"/>
<rect x="354" y="130" width="149" height="12" fill="#00f"/>
<line x1="309" y1="136" x2="353" y2="136" stroke="#00f"/>
<rect x="120" y="131" width="189" height="10" fill="#ff0"/>
<rect x="355" y="131" width="103" height="10" fill="#ff0"/>
<text x="20" y="160" class="sm">0.004743</text>
<rect x="100" y="150" width="209" height="12" fill="#00f"/>
<rect x="363" y="150" width="140" height="12" fill="#00f"/>
<line x1="309" y1="156" x2="362" y2="156" stroke="#00f"/>
<rect x="120" y="151" width="189" height="10" fill="#ff0"/>
<rect x="364" y="151" width="94" height="10" fill="#ff0"/>
<text x="20" y="180" class="sm">0.001381</text>
<rect x="100" y="170" width="276" height="12" fill="#00f"/>
<rect x="422" y="170" width="81" height="12" fill="#00f"/>
<line x1="376" y1="176" x2="421" y2="176" stroke="#00f"/>
<rect x="120" y="171" width="218" height="10" fill="#ff0"/>
<text x="20" y="200" class="sm">0.0004431</text>
<rect x="100" y="190" width="221" height="12" fill="#00f"/>
<rect x="371" y="190" width="132" height="12" fill="#00f"/>
<line x1="321" y1="196" x2="370" y2="196" stroke="#00f"/>
<rect x="120" y="191" width="201" height="10" fill="#ff0"/>
<rect x="372" y="191" width="10" height="10" fill="#ff0"/>
<text x="20" y="220" class="sm">0.0001325</text>
<rect x="100" y="210" width="209" height="12" fill="#00f"/>
<rect x="371" y="210" width="132" height="12" fill="#00f"/>
<line x1="309" y1="216" x2="370" y2="216" stroke="#00f"/>
<rect x="120" y="211" width="189" height="10" fill="#ff0"/>
<rect x="372" y="211" width="10" height="10" fill="#ff0"/>
<text x="20" y="240" class="sm">2.709e-05</text>
<rect x="100" y="230" width="61" height="12" fill="#00f"/>
<rect x="210" y="230" width="293" height="12" fill="#00f"/>
<line x1="161" y1="236" x2="209" y2="236" stroke="#00f"/>
<rect x="249" y="231" width="89" height="10" fill="#ff0"/>
<text x="20" y="260" class="sm">1.624e-06</text>
<rect x="100" y="250" width="221" height="12" fill="#00f"/>
<rect x="363" y="250" width="140" height="12" fill="#00f"/>
<line x1="321" y1="256" x2="362" y2="256" stroke="#00f"/>
<rect x="120" y="251" width="201" height="10" fill="#ff0"/>
<rect x="364" y="251" width="94" height="10" fill="#ff0"/>
<text x="20" y="280" class="sm">7.902e-07</text>
<rect x="100" y="270" width="199" height="12" fill="#00f"/>
<rect x="354" y="270" width="149" height="12" fill="#00f"/>
<line x1="299" y1="276" x2="353" y2="276" stroke="#00f"/>
<rect x="120" y="271" width="179" height="10" fill="#ff0"/>
<rect x="355" y="271" width="77" height="10" fill="#ff0"/>
<text x="20" y="300" class="sm">1.515e-07</text>
<rect x="100" y="290" width="209" height="12" fill="#00f"/>
<rect x="422" y="290" width="81" height="12" fill="#00f"/>
<line x1="309" y1="296" x2="421" y2="296" stroke="#00f"/>
<rect x="120" y="291" width="189" height="10" fill="#ff0"/>
<rect x="423" y="291" width="4" height="10" fill="#ff0"/>
<text x="20" y="320" class="sm">3.306e-08</text>
<rect x="100" y="310" width="283" height="12" fill="#00f"/>
<rect x="422" y="310" width="81" height="12" fill="#00f"/>
<line x1="383" y1="316" x2="421" y2="316" stroke="#00f"/>
<rect x="120" y="311" width="218" height="10" fill="#ff0"/>
<text x="20" y="340" class="sm">8.327e-09</text>
<rect x="100" y="330" width="61" height="12" fill="#00f"/>
<rect x="213" y="330" width="290" height="12" fill="#00f"/>
<line x1="161" y1="336" x2="212" y2="336" stroke="#00f"/>
<rect x="249" y="331" width="89" height="10" fill="#ff0"/>
<text x="20" y="360" class="sm">5.249e-09</text>
<rect x="100" y="350" width="61" height="12" fill="#00f"/>
<rect x="233" y="350" width="270" height="12" fill="#00f"/>
<line x1="161" y1="356" x2="232" y2="356" stroke="#00f"/>
<rect x="120" y="351" width="41" height="10" fill="#ff0"/>
<rect x="234" y="351" width="104" height="10" fill="#ff0"/>
<text x="20" y="380" class="sm">2.454e-09</text>
<rect x="100" y="370" width="112" height="12" fill="#00f"/>
<rect x="257" y="370" width="246" height="12" fill="#00f"/>
<line x1="212" y1="376" x2="256" y2="376" stroke="#00f"/>
<rect x="120" y="371" width="92" height="10" fill="#ff0"/>
<rect x="258" y="371" width="80" height="10" fill="#ff0"/>
<text x="20" y="400" class="sm">1.189e-09</text>
<rect x="100" y="390" width="209" height="12" fill="#00f"/>
<rect x="384" y="390" width="119" height="12" fill="#00f"/>
<line x1="309" y1="396" x2="383" y2="396" stroke="#00f"/>
<rect x="120" y="391" width="189" height="10" fill="#ff0"/>
<rect x="385" y="391" width="73" height="10" fill="#ff0"/>
<text x="20" y="420" class="sm">8.394e-10</text>
<rect x="100" y="410" width="209" height="12" fill="#00f"/>
<rect x="389" y="410" width="114" height="12" fill="#00f"/>
<line x1="309" y1="416" x2="388" y2="416" stroke="#00f"/>
<rect x="120" y="411" width="189" height="10" fill="#ff0"/>
<rect x="390" y="411" width="37" height="10" fill="#ff0"/>
<text x="20" y="440" class="sm">7.652e-10</text>
<rect x="100" y="430" width="209" height="12" fill="#00f"/>
<rect x="377" y="430" width="126" height="12" fill="#00f"/>
<line x1="309" y1="436" x2="376" y2="436" stroke="#00f"/>
<rect x="120" y="431" width="189" height="10" fill="#ff0"/>
<rect x="378" y="431" width="4" height="10" fill="#ff0"/>
<text x="20" y="460" class="sm">3.508e-10</text>
<rect x="100" y="450" width="221" height="12" fill="#00f"/>
<rect x="377" y="450" width="126" height="12" fill="#00f"/>
<line x1="321" y1="456" x2="376" y2="456" stroke="#00f"/>
<rect x="120" y="451" width="201" height="10" fill="#ff0"/>
<rect x="378" y="451" width="4" height="10" fill="#ff0"/>
<text x="20" y="480" class="sm">2.733e-10</text>
<rect x="100" y="470" width="52" height="12" fill="#00f"/>
<rect x="192" y="470" width="311" height="12" fill="#00f"/>
<line x1="152" y1="476" x2="191" y2="476" stroke="#00f"/>
<rect x="249" y="471" width="89" height="10" fill="#ff0"/>
<text x="20" y="500" class="sm">2.465e-10</text>
<rect x="100" y="490" width="276" height="12" fill="#00f"/>
<rect x="428" y="490" width="75" height="12" fill="#00f"/>
<line x1="376" y1="496" x2="427" y2="496" stroke="#00f"/>
<rect x="120" y="491" width="218" height="10" fill="#ff0"/>
<text x="20" y="520" class="sm">1.235e-10</text>
<rect x="100" y="510" width="199" height="12" fill="#00f"/>
<rect x="371" y="510" width="132" height="12" fill="#00f"/>
<line x1="299" y1="516" x2="370" y2="516" stroke="#00f"/>
<rect x="120" y="511" width="179" height="10" fill="#ff0"/>
<rect x="372" y="511" width="86" height="10" fill="#ff0"/>
</svg>
