<svg viewBox="0 0 938 535" xmlns="http://www.w3.org/2000/svg">

<style>
  .sm { font: 12px sans-serif; }
  .lg { font: 15px sans-serif; }
</style>
<rect fill="#ddd" x="0" y="0" width="100%" height="100%"/>
<text x="20" y="20" class="lg">ch.6996 III:3510137-3511074 Gene:WBGene00010812</text>
<text x="20" y="50" class="sm">WormBase</text>
<rect x="100" y="40" width="166" height="12" fill="#00f"/>
<rect x="366" y="40" width="118" height="12" fill="#00f"/>
<rect x="584" y="40" width="254" height="12" fill="#00f"/>
<line x1="266" y1="46" x2="365" y2="46" stroke="#00f"/>
<line x1="484" y1="46" x2="583" y2="46" stroke="#00f"/>
<rect x="109" y="41" width="157" height="10" fill="#ff0"/>
<rect x="367" y="41" width="117" height="10" fill="#ff0"/>
<rect x="585" y="41" width="200" height="10" fill="#ff0"/>
<rect x="101" y="41" width="7" height="10" fill="brown"><title>.</title></rect>
<rect x="786" y="41" width="52" height="10" fill="brown"><title>.</title></rect>
<text x="20" y="70" class="sm">Fitness: 0.3016235663991795</text>
<rect x="266" y="65" width="100" height="5" fill="#00f"><title>402391.0</title></rect>
<rect x="484" y="70" width="100" height="5" fill="#00f"><title>353234.0</title></rect>
<rect x="484" y="75" width="106" height="5" fill="#00f"><title>97.0</title></rect>
<rect x="412" y="80" width="232" height="5" fill="#00f"><title>9.0</title></rect>
<rect x="272" y="85" width="102" height="5" fill="#f0f"><title>5.0</title></rect>
<rect x="266" y="90" width="318" height="5" fill="#00f"><title>4.0</title></rect>
<rect x="214" y="95" width="179" height="5" fill="#00f"><title>3.0</title></rect>
<text x="20" y="125" class="sm">0.7077</text>
<rect x="100" y="115" width="166" height="12" fill="#00f"/>
<rect x="366" y="115" width="118" height="12" fill="#00f"/>
<rect x="584" y="115" width="257" height="12" fill="#00f"/>
<line x1="266" y1="121" x2="365" y2="121" stroke="#00f"/>
<line x1="484" y1="121" x2="583" y2="121" stroke="#00f"/>
<rect x="109" y="116" width="157" height="10" fill="#ff0"/>
<rect x="367" y="116" width="117" height="10" fill="#ff0"/>
<rect x="585" y="116" width="200" height="10" fill="#ff0"/>
<text x="20" y="145" class="sm">0.1706</text>
<rect x="100" y="135" width="166" height="12" fill="#00f"/>
<rect x="366" y="135" width="110" height="12" fill="#00f"/>
<rect x="584" y="135" width="257" height="12" fill="#00f"/>
<line x1="266" y1="141" x2="365" y2="141" stroke="#00f"/>
<line x1="476" y1="141" x2="583" y2="141" stroke="#00f"/>
<rect x="109" y="136" width="157" height="10" fill="#ff0"/>
<rect x="367" y="136" width="109" height="10" fill="#ff0"/>
<rect x="585" y="136" width="1" height="10" fill="#ff0"/>
<text x="20" y="165" class="sm">0.02949</text>
<rect x="100" y="155" width="166" height="12" fill="#00f"/>
<rect x="366" y="155" width="118" height="12" fill="#00f"/>
<rect x="584" y="155" width="139" height="12" fill="#00f"/>
<rect x="777" y="155" width="64" height="12" fill="#00f"/>
<line x1="266" y1="161" x2="365" y2="161" stroke="#00f"/>
<line x1="484" y1="161" x2="583" y2="161" stroke="#00f"/>
<line x1="723" y1="161" x2="776" y2="161" stroke="#00f"/>
<rect x="109" y="156" width="157" height="10" fill="#ff0"/>
<rect x="367" y="156" width="117" height="10" fill="#ff0"/>
<rect x="585" y="156" width="138" height="10" fill="#ff0"/>
<rect x="778" y="156" width="7" height="10" fill="#ff0"/>
<text x="20" y="185" class="sm">0.02188</text>
<rect x="100" y="175" width="166" height="12" fill="#00f"/>
<rect x="366" y="175" width="78" height="12" fill="#00f"/>
<rect x="584" y="175" width="257" height="12" fill="#00f"/>
<line x1="266" y1="181" x2="365" y2="181" stroke="#00f"/>
<line x1="444" y1="181" x2="583" y2="181" stroke="#00f"/>
<rect x="109" y="176" width="157" height="10" fill="#ff0"/>
<rect x="367" y="176" width="77" height="10" fill="#ff0"/>
<rect x="585" y="176" width="27" height="10" fill="#ff0"/>
<text x="20" y="205" class="sm">0.0174</text>
<rect x="100" y="195" width="166" height="12" fill="#00f"/>
<rect x="410" y="195" width="74" height="12" fill="#00f"/>
<rect x="584" y="195" width="257" height="12" fill="#00f"/>
<line x1="266" y1="201" x2="409" y2="201" stroke="#00f"/>
<line x1="484" y1="201" x2="583" y2="201" stroke="#00f"/>
<rect x="431" y="196" width="53" height="10" fill="#ff0"/>
<rect x="585" y="196" width="200" height="10" fill="#ff0"/>
<text x="20" y="225" class="sm">0.009621</text>
<rect x="100" y="215" width="166" height="12" fill="#00f"/>
<rect x="366" y="215" width="47" height="12" fill="#00f"/>
<rect x="584" y="215" width="257" height="12" fill="#00f"/>
<line x1="266" y1="221" x2="365" y2="221" stroke="#00f"/>
<line x1="413" y1="221" x2="583" y2="221" stroke="#00f"/>
<rect x="109" y="216" width="157" height="10" fill="#ff0"/>
<rect x="367" y="216" width="46" height="10" fill="#ff0"/>
<rect x="585" y="216" width="67" height="10" fill="#ff0"/>
<text x="20" y="245" class="sm">0.008094</text>
<rect x="100" y="235" width="166" height="12" fill="#00f"/>
<rect x="366" y="235" width="475" height="12" fill="#00f"/>
<line x1="266" y1="241" x2="365" y2="241" stroke="#00f"/>
<rect x="109" y="236" width="157" height="10" fill="#ff0"/>
<rect x="367" y="236" width="159" height="10" fill="#ff0"/>
<text x="20" y="265" class="sm">0.007108</text>
<rect x="100" y="255" width="166" height="12" fill="#00f"/>
<rect x="366" y="255" width="110" height="12" fill="#00f"/>
<rect x="584" y="255" width="139" height="12" fill="#00f"/>
<rect x="777" y="255" width="64" height="12" fill="#00f"/>
<line x1="266" y1="261" x2="365" y2="261" stroke="#00f"/>
<line x1="476" y1="261" x2="583" y2="261" stroke="#00f"/>
<line x1="723" y1="261" x2="776" y2="261" stroke="#00f"/>
<rect x="109" y="256" width="157" height="10" fill="#ff0"/>
<rect x="367" y="256" width="109" height="10" fill="#ff0"/>
<rect x="585" y="256" width="1" height="10" fill="#ff0"/>
<text x="20" y="285" class="sm">0.005673</text>
<rect x="100" y="275" width="166" height="12" fill="#00f"/>
<rect x="584" y="275" width="257" height="12" fill="#00f"/>
<line x1="266" y1="281" x2="583" y2="281" stroke="#00f"/>
<rect x="138" y="276" width="128" height="10" fill="#ff0"/>
<rect x="585" y="276" width="200" height="10" fill="#ff0"/>
<text x="20" y="305" class="sm">0.005587</text>
<rect x="100" y="295" width="166" height="12" fill="#00f"/>
<rect x="366" y="295" width="110" height="12" fill="#00f"/>
<rect x="511" y="295" width="330" height="12" fill="#00f"/>
<line x1="266" y1="301" x2="365" y2="301" stroke="#00f"/>
<line x1="476" y1="301" x2="510" y2="301" stroke="#00f"/>
<rect x="109" y="296" width="157" height="10" fill="#ff0"/>
<rect x="367" y="296" width="109" height="10" fill="#ff0"/>
<rect x="512" y="296" width="1" height="10" fill="#ff0"/>
<text x="20" y="325" class="sm">0.004073</text>
<rect x="100" y="315" width="166" height="12" fill="#00f"/>
<rect x="410" y="315" width="66" height="12" fill="#00f"/>
<rect x="584" y="315" width="257" height="12" fill="#00f"/>
<line x1="266" y1="321" x2="409" y2="321" stroke="#00f"/>
<line x1="476" y1="321" x2="583" y2="321" stroke="#00f"/>
<rect x="438" y="316" width="38" height="10" fill="#ff0"/>
<rect x="585" y="316" width="200" height="10" fill="#ff0"/>
<text x="20" y="345" class="sm">0.003044</text>
<rect x="100" y="335" width="128" height="12" fill="#00f"/>
<rect x="366" y="335" width="118" height="12" fill="#00f"/>
<rect x="584" y="335" width="257" height="12" fill="#00f"/>
<line x1="228" y1="341" x2="365" y2="341" stroke="#00f"/>
<line x1="484" y1="341" x2="583" y2="341" stroke="#00f"/>
<rect x="389" y="336" width="95" height="10" fill="#ff0"/>
<rect x="585" y="336" width="200" height="10" fill="#ff0"/>
<text x="20" y="365" class="sm">0.002357</text>
<rect x="100" y="355" width="166" height="12" fill="#00f"/>
<rect x="366" y="355" width="132" height="12" fill="#00f"/>
<rect x="584" y="355" width="257" height="12" fill="#00f"/>
<line x1="266" y1="361" x2="365" y2="361" stroke="#00f"/>
<line x1="498" y1="361" x2="583" y2="361" stroke="#00f"/>
<rect x="109" y="356" width="157" height="10" fill="#ff0"/>
<rect x="367" y="356" width="131" height="10" fill="#ff0"/>
<rect x="585" y="356" width="27" height="10" fill="#ff0"/>
<text x="20" y="385" class="sm">0.001809</text>
<rect x="100" y="375" width="166" height="12" fill="#00f"/>
<rect x="366" y="375" width="92" height="12" fill="#00f"/>
<rect x="584" y="375" width="257" height="12" fill="#00f"/>
<line x1="266" y1="381" x2="365" y2="381" stroke="#00f"/>
<line x1="458" y1="381" x2="583" y2="381" stroke="#00f"/>
<rect x="109" y="376" width="157" height="10" fill="#ff0"/>
<rect x="367" y="376" width="91" height="10" fill="#ff0"/>
<rect x="585" y="376" width="67" height="10" fill="#ff0"/>
<text x="20" y="405" class="sm">0.001658</text>
<rect x="100" y="395" width="166" height="12" fill="#00f"/>
<rect x="366" y="395" width="78" height="12" fill="#00f"/>
<rect x="511" y="395" width="330" height="12" fill="#00f"/>
<line x1="266" y1="401" x2="365" y2="401" stroke="#00f"/>
<line x1="444" y1="401" x2="510" y2="401" stroke="#00f"/>
<rect x="109" y="396" width="157" height="10" fill="#ff0"/>
<rect x="367" y="396" width="77" height="10" fill="#ff0"/>
<rect x="512" y="396" width="6" height="10" fill="#ff0"/>
<text x="20" y="425" class="sm">0.0009119</text>
<rect x="100" y="415" width="166" height="12" fill="#00f"/>
<rect x="366" y="415" width="78" height="12" fill="#00f"/>
<rect x="584" y="415" width="139" height="12" fill="#00f"/>
<rect x="777" y="415" width="64" height="12" fill="#00f"/>
<line x1="266" y1="421" x2="365" y2="421" stroke="#00f"/>
<line x1="444" y1="421" x2="583" y2="421" stroke="#00f"/>
<line x1="723" y1="421" x2="776" y2="421" stroke="#00f"/>
<rect x="109" y="416" width="157" height="10" fill="#ff0"/>
<rect x="367" y="416" width="77" height="10" fill="#ff0"/>
<rect x="585" y="416" width="27" height="10" fill="#ff0"/>
<text x="20" y="445" class="sm">0.0008828</text>
<rect x="100" y="435" width="155" height="12" fill="#00f"/>
<rect x="366" y="435" width="118" height="12" fill="#00f"/>
<rect x="584" y="435" width="257" height="12" fill="#00f"/>
<line x1="255" y1="441" x2="365" y2="441" stroke="#00f"/>
<line x1="484" y1="441" x2="583" y2="441" stroke="#00f"/>
<rect x="389" y="436" width="95" height="10" fill="#ff0"/>
<rect x="585" y="436" width="200" height="10" fill="#ff0"/>
<text x="20" y="465" class="sm">0.0007336</text>
<rect x="100" y="455" width="128" height="12" fill="#00f"/>
<rect x="366" y="455" width="110" height="12" fill="#00f"/>
<rect x="584" y="455" width="257" height="12" fill="#00f"/>
<line x1="228" y1="461" x2="365" y2="461" stroke="#00f"/>
<line x1="476" y1="461" x2="583" y2="461" stroke="#00f"/>
<rect x="438" y="456" width="38" height="10" fill="#ff0"/>
<rect x="585" y="456" width="200" height="10" fill="#ff0"/>
<text x="20" y="485" class="sm">0.000725</text>
<rect x="100" y="475" width="166" height="12" fill="#00f"/>
<rect x="410" y="475" width="74" height="12" fill="#00f"/>
<rect x="584" y="475" width="139" height="12" fill="#00f"/>
<rect x="777" y="475" width="64" height="12" fill="#00f"/>
<line x1="266" y1="481" x2="409" y2="481" stroke="#00f"/>
<line x1="484" y1="481" x2="583" y2="481" stroke="#00f"/>
<line x1="723" y1="481" x2="776" y2="481" stroke="#00f"/>
<rect x="431" y="476" width="53" height="10" fill="#ff0"/>
<rect x="585" y="476" width="138" height="10" fill="#ff0"/>
<rect x="778" y="476" width="7" height="10" fill="#ff0"/>
<text x="20" y="505" class="sm">0.000722</text>
<rect x="100" y="495" width="103" height="12" fill="#00f"/>
<rect x="366" y="495" width="118" height="12" fill="#00f"/>
<rect x="584" y="495" width="257" height="12" fill="#00f"/>
<line x1="203" y1="501" x2="365" y2="501" stroke="#00f"/>
<line x1="484" y1="501" x2="583" y2="501" stroke="#00f"/>
<rect x="109" y="496" width="94" height="10" fill="#ff0"/>
<rect x="367" y="496" width="117" height="10" fill="#ff0"/>
<rect x="585" y="496" width="200" height="10" fill="#ff0"/>
</svg>
