<svg viewBox="0 0 708 520" xmlns="http://www.w3.org/2000/svg">

<style>
  .sm { font: 12px sans-serif; }
  .lg { font: 15px sans-serif; }
</style>
<rect fill="#ddd" x="0" y="0" width="100%" height="100%"/>
<text x="20" y="20" class="lg">ch.6749 III:1777702-1778409 Gene:WBGene00021441</text>
<text x="20" y="50" class="sm">WormBase</text>
<rect x="100" y="40" width="114" height="12" fill="#00f"/>
<rect x="496" y="40" width="112" height="12" fill="#00f"/>
<line x1="214" y1="46" x2="495" y2="46" stroke="#00f"/>
<rect x="109" y="41" width="105" height="10" fill="#ff0"/>
<rect x="497" y="41" width="46" height="10" fill="#ff0"/>
<rect x="101" y="41" width="7" height="10" fill="brown"><title>.</title></rect>
<rect x="544" y="41" width="64" height="10" fill="brown"><title>.</title></rect>
<text x="20" y="70" class="sm">Fitness: 9.957158219821512e-05</text>
<rect x="214" y="65" width="282" height="5" fill="#00f"><title>1268240.0</title></rect>
<rect x="162" y="70" width="334" height="5" fill="#00f"><title>57.0</title></rect>
<rect x="310" y="75" width="186" height="5" fill="#00f"><title>14.0</title></rect>
<rect x="127" y="80" width="35" height="5" fill="#00f"><title>3.0</title></rect>
<text x="20" y="110" class="sm">0.9999</text>
<rect x="100" y="100" width="114" height="12" fill="#00f"/>
<rect x="496" y="100" width="115" height="12" fill="#00f"/>
<line x1="214" y1="106" x2="495" y2="106" stroke="#00f"/>
<rect x="109" y="101" width="105" height="10" fill="#ff0"/>
<rect x="497" y="101" width="46" height="10" fill="#ff0"/>
<text x="20" y="130" class="sm">4.554e-05</text>
<rect x="100" y="120" width="91" height="12" fill="#00f"/>
<rect x="496" y="120" width="115" height="12" fill="#00f"/>
<line x1="191" y1="126" x2="495" y2="126" stroke="#00f"/>
<rect x="109" y="121" width="82" height="10" fill="#ff0"/>
<rect x="497" y="121" width="63" height="10" fill="#ff0"/>
<text x="20" y="150" class="sm">8.559e-06</text>
<rect x="100" y="140" width="62" height="12" fill="#00f"/>
<rect x="496" y="140" width="115" height="12" fill="#00f"/>
<line x1="162" y1="146" x2="495" y2="146" stroke="#00f"/>
<rect x="109" y="141" width="53" height="10" fill="#ff0"/>
<rect x="497" y="141" width="74" height="10" fill="#ff0"/>
<text x="20" y="170" class="sm">1.055e-06</text>
<rect x="100" y="160" width="114" height="12" fill="#00f"/>
<rect x="571" y="160" width="40" height="12" fill="#00f"/>
<line x1="214" y1="166" x2="570" y2="166" stroke="#00f"/>
<text x="20" y="190" class="sm">1.233e-07</text>
<rect x="100" y="180" width="104" height="12" fill="#00f"/>
<rect x="496" y="180" width="115" height="12" fill="#00f"/>
<line x1="204" y1="186" x2="495" y2="186" stroke="#00f"/>
<rect x="109" y="181" width="95" height="10" fill="#ff0"/>
<rect x="497" y="181" width="74" height="10" fill="#ff0"/>
<text x="20" y="210" class="sm">4.886e-08</text>
<rect x="100" y="200" width="27" height="12" fill="#00f"/>
<rect x="496" y="200" width="115" height="12" fill="#00f"/>
<line x1="127" y1="206" x2="495" y2="206" stroke="#00f"/>
<rect x="109" y="201" width="18" height="10" fill="#ff0"/>
<rect x="497" y="201" width="46" height="10" fill="#ff0"/>
<text x="20" y="230" class="sm">3.023e-08</text>
<rect x="100" y="220" width="82" height="12" fill="#00f"/>
<rect x="496" y="220" width="115" height="12" fill="#00f"/>
<line x1="182" y1="226" x2="495" y2="226" stroke="#00f"/>
<rect x="109" y="221" width="73" height="10" fill="#ff0"/>
<rect x="497" y="221" width="63" height="10" fill="#ff0"/>
<text x="20" y="250" class="sm">2.548e-09</text>
<rect x="100" y="240" width="52" height="12" fill="#00f"/>
<rect x="496" y="240" width="115" height="12" fill="#00f"/>
<line x1="152" y1="246" x2="495" y2="246" stroke="#00f"/>
<rect x="109" y="241" width="43" height="10" fill="#ff0"/>
<rect x="497" y="241" width="63" height="10" fill="#ff0"/>
<text x="20" y="270" class="sm">5.861e-11</text>
<rect x="100" y="260" width="91" height="12" fill="#00f"/>
<rect x="571" y="260" width="40" height="12" fill="#00f"/>
<line x1="191" y1="266" x2="570" y2="266" stroke="#00f"/>
<rect x="109" y="261" width="82" height="10" fill="#ff0"/>
<rect x="572" y="261" width="21" height="10" fill="#ff0"/>
<text x="20" y="290" class="sm">8.545e-12</text>
<rect x="100" y="280" width="62" height="12" fill="#00f"/>
<rect x="571" y="280" width="40" height="12" fill="#00f"/>
<line x1="162" y1="286" x2="570" y2="286" stroke="#00f"/>
<rect x="109" y="281" width="53" height="10" fill="#ff0"/>
<rect x="572" y="281" width="17" height="10" fill="#ff0"/>
<text x="20" y="310" class="sm">1.878e-12</text>
<rect x="100" y="300" width="30" height="12" fill="#00f"/>
<rect x="496" y="300" width="115" height="12" fill="#00f"/>
<line x1="130" y1="306" x2="495" y2="306" stroke="#00f"/>
<rect x="109" y="301" width="21" height="10" fill="#ff0"/>
<rect x="497" y="301" width="46" height="10" fill="#ff0"/>
<text x="20" y="330" class="sm">3.582e-13</text>
<rect x="100" y="320" width="114" height="12" fill="#00f"/>
<rect x="560" y="320" width="51" height="12" fill="#00f"/>
<line x1="214" y1="326" x2="559" y2="326" stroke="#00f"/>
<rect x="109" y="321" width="105" height="10" fill="#ff0"/>
<rect x="561" y="321" width="10" height="10" fill="#ff0"/>
<text x="20" y="350" class="sm">2.779e-13</text>
<rect x="100" y="340" width="114" height="12" fill="#00f"/>
<rect x="448" y="340" width="163" height="12" fill="#00f"/>
<line x1="214" y1="346" x2="447" y2="346" stroke="#00f"/>
<rect x="109" y="341" width="105" height="10" fill="#ff0"/>
<rect x="449" y="341" width="7" height="10" fill="#ff0"/>
<text x="20" y="370" class="sm">1.015e-13</text>
<rect x="100" y="360" width="27" height="12" fill="#00f"/>
<rect x="571" y="360" width="40" height="12" fill="#00f"/>
<line x1="127" y1="366" x2="570" y2="366" stroke="#00f"/>
<text x="20" y="390" class="sm">9.188e-14</text>
<rect x="100" y="380" width="104" height="12" fill="#00f"/>
<rect x="571" y="380" width="40" height="12" fill="#00f"/>
<line x1="204" y1="386" x2="570" y2="386" stroke="#00f"/>
<rect x="109" y="381" width="95" height="10" fill="#ff0"/>
<rect x="572" y="381" width="17" height="10" fill="#ff0"/>
<text x="20" y="410" class="sm">3.505e-14</text>
<rect x="100" y="400" width="82" height="12" fill="#00f"/>
<rect x="571" y="400" width="40" height="12" fill="#00f"/>
<line x1="182" y1="406" x2="570" y2="406" stroke="#00f"/>
<rect x="109" y="401" width="73" height="10" fill="#ff0"/>
<rect x="572" y="401" width="21" height="10" fill="#ff0"/>
<text x="20" y="430" class="sm">7.917e-15</text>
<rect x="100" y="420" width="184" height="12" fill="#00f"/>
<rect x="496" y="420" width="115" height="12" fill="#00f"/>
<line x1="284" y1="426" x2="495" y2="426" stroke="#00f"/>
<rect x="109" y="421" width="175" height="10" fill="#ff0"/>
<rect x="497" y="421" width="63" height="10" fill="#ff0"/>
<text x="20" y="450" class="sm">5.297e-15</text>
<rect x="100" y="440" width="52" height="12" fill="#00f"/>
<rect x="571" y="440" width="40" height="12" fill="#00f"/>
<line x1="152" y1="446" x2="570" y2="446" stroke="#00f"/>
<rect x="109" y="441" width="43" height="10" fill="#ff0"/>
<rect x="572" y="441" width="21" height="10" fill="#ff0"/>
<text x="20" y="470" class="sm">1.41e-15</text>
<rect x="100" y="460" width="114" height="12" fill="#00f"/>
<rect x="387" y="460" width="224" height="12" fill="#00f"/>
<line x1="214" y1="466" x2="386" y2="466" stroke="#00f"/>
<rect x="109" y="461" width="105" height="10" fill="#ff0"/>
<rect x="388" y="461" width="172" height="10" fill="#ff0"/>
<text x="20" y="490" class="sm">1.098e-16</text>
<rect x="100" y="480" width="114" height="12" fill="#00f"/>
<rect x="460" y="480" width="151" height="12" fill="#00f"/>
<line x1="214" y1="486" x2="459" y2="486" stroke="#00f"/>
<rect x="109" y="481" width="105" height="10" fill="#ff0"/>
<rect x="461" y="481" width="4" height="10" fill="#ff0"/>
</svg>
