<svg viewBox="0 0 563 520" xmlns="http://www.w3.org/2000/svg">

<style>
  .sm { font: 12px sans-serif; }
  .lg { font: 15px sans-serif; }
</style>
<rect fill="#ddd" x="0" y="0" width="100%" height="100%"/>
<text x="20" y="20" class="lg">ch.6611 III:954191-954753 Gene:WBGene00050914</text>
<text x="20" y="50" class="sm">WormBase</text>
<rect x="102" y="40" width="50" height="12" fill="#00f"/>
<rect x="208" y="40" width="257" height="12" fill="#00f"/>
<line x1="152" y1="46" x2="207" y2="46" stroke="#00f"/>
<rect x="135" y="41" width="17" height="10" fill="#ff0"/>
<rect x="209" y="41" width="218" height="10" fill="#ff0"/>
<rect x="103" y="41" width="31" height="10" fill="brown"><title>.</title></rect>
<rect x="428" y="41" width="37" height="10" fill="brown"><title>.</title></rect>
<text x="20" y="70" class="sm">Fitness: 0.0005293048480256728</text>
<rect x="152" y="65" width="56" height="5" fill="#00f"><title>259185.0</title></rect>
<rect x="266" y="70" width="46" height="5" fill="#00f"><title>343.0</title></rect>
<rect x="314" y="75" width="48" height="5" fill="#00f"><title>47.0</title></rect>
<rect x="152" y="80" width="84" height="5" fill="#00f"><title>20.0</title></rect>
<text x="20" y="110" class="sm">0.9984</text>
<rect x="100" y="100" width="52" height="12" fill="#00f"/>
<rect x="208" y="100" width="258" height="12" fill="#00f"/>
<line x1="152" y1="106" x2="207" y2="106" stroke="#00f"/>
<rect x="135" y="101" width="17" height="10" fill="#ff0"/>
<rect x="209" y="101" width="218" height="10" fill="#ff0"/>
<text x="20" y="130" class="sm">0.001209</text>
<rect x="100" y="120" width="166" height="12" fill="#00f"/>
<rect x="312" y="120" width="154" height="12" fill="#00f"/>
<line x1="266" y1="126" x2="311" y2="126" stroke="#00f"/>
<rect x="250" y="121" width="16" height="10" fill="#ff0"/>
<rect x="313" y="121" width="114" height="10" fill="#ff0"/>
<text x="20" y="150" class="sm">0.0001603</text>
<rect x="100" y="140" width="52" height="12" fill="#00f"/>
<rect x="236" y="140" width="230" height="12" fill="#00f"/>
<line x1="152" y1="146" x2="235" y2="146" stroke="#00f"/>
<rect x="135" y="141" width="17" height="10" fill="#ff0"/>
<rect x="237" y="141" width="140" height="10" fill="#ff0"/>
<text x="20" y="170" class="sm">8.697e-05</text>
<rect x="100" y="160" width="56" height="12" fill="#00f"/>
<rect x="208" y="160" width="258" height="12" fill="#00f"/>
<line x1="156" y1="166" x2="207" y2="166" stroke="#00f"/>
<rect x="273" y="161" width="104" height="10" fill="#ff0"/>
<text x="20" y="190" class="sm">8.638e-05</text>
<rect x="100" y="180" width="92" height="12" fill="#00f"/>
<rect x="236" y="180" width="230" height="12" fill="#00f"/>
<line x1="192" y1="186" x2="235" y2="186" stroke="#00f"/>
<rect x="273" y="181" width="104" height="10" fill="#ff0"/>
<text x="20" y="210" class="sm">7.363e-05</text>
<rect x="100" y="200" width="52" height="12" fill="#00f"/>
<rect x="208" y="200" width="58" height="12" fill="#00f"/>
<rect x="312" y="200" width="154" height="12" fill="#00f"/>
<line x1="152" y1="206" x2="207" y2="206" stroke="#00f"/>
<line x1="266" y1="206" x2="311" y2="206" stroke="#00f"/>
<rect x="250" y="201" width="16" height="10" fill="#ff0"/>
<rect x="313" y="201" width="114" height="10" fill="#ff0"/>
<text x="20" y="230" class="sm">5.145e-06</text>
<rect x="100" y="220" width="151" height="12" fill="#00f"/>
<rect x="312" y="220" width="154" height="12" fill="#00f"/>
<line x1="251" y1="226" x2="311" y2="226" stroke="#00f"/>
<rect x="135" y="221" width="26" height="10" fill="#ff0"/>
<text x="20" y="250" class="sm">2.047e-06</text>
<rect x="100" y="240" width="52" height="12" fill="#00f"/>
<rect x="312" y="240" width="154" height="12" fill="#00f"/>
<line x1="152" y1="246" x2="311" y2="246" stroke="#00f"/>
<rect x="135" y="241" width="17" height="10" fill="#ff0"/>
<rect x="313" y="241" width="74" height="10" fill="#ff0"/>
<text x="20" y="270" class="sm">1.11e-06</text>
<rect x="100" y="260" width="214" height="12" fill="#00f"/>
<rect x="362" y="260" width="104" height="12" fill="#00f"/>
<line x1="314" y1="266" x2="361" y2="266" stroke="#00f"/>
<rect x="273" y="261" width="41" height="10" fill="#ff0"/>
<rect x="363" y="261" width="14" height="10" fill="#ff0"/>
<text x="20" y="290" class="sm">1.996e-07</text>
<rect x="100" y="280" width="52" height="12" fill="#00f"/>
<rect x="208" y="280" width="43" height="12" fill="#00f"/>
<rect x="312" y="280" width="154" height="12" fill="#00f"/>
<line x1="152" y1="286" x2="207" y2="286" stroke="#00f"/>
<line x1="251" y1="286" x2="311" y2="286" stroke="#00f"/>
<rect x="135" y="281" width="17" height="10" fill="#ff0"/>
<rect x="209" y="281" width="42" height="10" fill="#ff0"/>
<rect x="313" y="281" width="1" height="10" fill="#ff0"/>
<text x="20" y="310" class="sm">1.822e-07</text>
<rect x="100" y="300" width="251" height="12" fill="#00f"/>
<rect x="408" y="300" width="58" height="12" fill="#00f"/>
<line x1="351" y1="306" x2="407" y2="306" stroke="#00f"/>
<rect x="273" y="301" width="78" height="10" fill="#ff0"/>
<rect x="409" y="301" width="46" height="10" fill="#ff0"/>
<text x="20" y="330" class="sm">1.484e-07</text>
<rect x="100" y="320" width="92" height="12" fill="#00f"/>
<rect x="242" y="320" width="224" height="12" fill="#00f"/>
<line x1="192" y1="326" x2="241" y2="326" stroke="#00f"/>
<rect x="273" y="321" width="104" height="10" fill="#ff0"/>
<text x="20" y="350" class="sm">1.443e-07</text>
<rect x="100" y="340" width="52" height="12" fill="#00f"/>
<rect x="242" y="340" width="224" height="12" fill="#00f"/>
<line x1="152" y1="346" x2="241" y2="346" stroke="#00f"/>
<rect x="135" y="341" width="17" height="10" fill="#ff0"/>
<rect x="243" y="341" width="134" height="10" fill="#ff0"/>
<text x="20" y="370" class="sm">1.14e-07</text>
<rect x="100" y="360" width="52" height="12" fill="#00f"/>
<rect x="208" y="360" width="106" height="12" fill="#00f"/>
<rect x="362" y="360" width="104" height="12" fill="#00f"/>
<line x1="152" y1="366" x2="207" y2="366" stroke="#00f"/>
<line x1="314" y1="366" x2="361" y2="366" stroke="#00f"/>
<rect x="135" y="361" width="17" height="10" fill="#ff0"/>
<rect x="209" y="361" width="105" height="10" fill="#ff0"/>
<rect x="363" y="361" width="64" height="10" fill="#ff0"/>
<text x="20" y="390" class="sm">9.704e-08</text>
<rect x="100" y="380" width="247" height="12" fill="#00f"/>
<rect x="408" y="380" width="58" height="12" fill="#00f"/>
<line x1="347" y1="386" x2="407" y2="386" stroke="#00f"/>
<rect x="135" y="381" width="26" height="10" fill="#ff0"/>
<text x="20" y="410" class="sm">2.863e-08</text>
<rect x="100" y="400" width="200" height="12" fill="#00f"/>
<rect x="362" y="400" width="104" height="12" fill="#00f"/>
<line x1="300" y1="406" x2="361" y2="406" stroke="#00f"/>
<rect x="273" y="401" width="27" height="10" fill="#ff0"/>
<rect x="363" y="401" width="64" height="10" fill="#ff0"/>
<text x="20" y="430" class="sm">2.029e-08</text>
<rect x="100" y="420" width="52" height="12" fill="#00f"/>
<rect x="208" y="420" width="143" height="12" fill="#00f"/>
<rect x="408" y="420" width="58" height="12" fill="#00f"/>
<line x1="152" y1="426" x2="207" y2="426" stroke="#00f"/>
<line x1="351" y1="426" x2="407" y2="426" stroke="#00f"/>
<rect x="135" y="421" width="17" height="10" fill="#ff0"/>
<rect x="209" y="421" width="142" height="10" fill="#ff0"/>
<rect x="409" y="421" width="18" height="10" fill="#ff0"/>
<text x="20" y="450" class="sm">1.772e-08</text>
<rect x="100" y="440" width="245" height="12" fill="#00f"/>
<rect x="408" y="440" width="58" height="12" fill="#00f"/>
<line x1="345" y1="446" x2="407" y2="446" stroke="#00f"/>
<rect x="273" y="441" width="72" height="10" fill="#ff0"/>
<rect x="409" y="441" width="46" height="10" fill="#ff0"/>
<text x="20" y="470" class="sm">1.114e-08</text>
<rect x="100" y="460" width="52" height="12" fill="#00f"/>
<rect x="208" y="460" width="139" height="12" fill="#00f"/>
<rect x="408" y="460" width="58" height="12" fill="#00f"/>
<line x1="152" y1="466" x2="207" y2="466" stroke="#00f"/>
<line x1="347" y1="466" x2="407" y2="466" stroke="#00f"/>
<rect x="135" y="461" width="17" height="10" fill="#ff0"/>
<rect x="209" y="461" width="138" height="10" fill="#ff0"/>
<rect x="409" y="461" width="1" height="10" fill="#ff0"/>
<text x="20" y="490" class="sm">6.414e-09</text>
<rect x="100" y="480" width="56" height="12" fill="#00f"/>
<rect x="208" y="480" width="58" height="12" fill="#00f"/>
<rect x="312" y="480" width="154" height="12" fill="#00f"/>
<line x1="156" y1="486" x2="207" y2="486" stroke="#00f"/>
<line x1="266" y1="486" x2="311" y2="486" stroke="#00f"/>
<rect x="135" y="481" width="21" height="10" fill="#ff0"/>
<rect x="209" y="481" width="57" height="10" fill="#ff0"/>
<rect x="313" y="481" width="114" height="10" fill="#ff0"/>
</svg>
