<svg viewBox="0 0 704 535" xmlns="http://www.w3.org/2000/svg">

<style>
  .sm { font: 12px sans-serif; }
  .lg { font: 15px sans-serif; }
</style>
<rect fill="#ddd" x="0" y="0" width="100%" height="100%"/>
<text x="20" y="20" class="lg">ch.6114 II:13237304-13238007 Gene:WBGene00008860</text>
<text x="20" y="50" class="sm">WormBase</text>
<rect x="102" y="40" width="64" height="12" fill="#00f"/>
<rect x="297" y="40" width="309" height="12" fill="#00f"/>
<line x1="166" y1="46" x2="296" y2="46" stroke="#00f"/>
<rect x="104" y="41" width="62" height="10" fill="#ff0"/>
<rect x="298" y="41" width="185" height="10" fill="#ff0"/>
<rect x="103" y="41" width="0" height="10" fill="brown"><title>.</title></rect>
<rect x="484" y="41" width="122" height="10" fill="brown"><title>.</title></rect>
<text x="20" y="70" class="sm">Fitness: 0.0006535201159283661</text>
<rect x="166" y="65" width="131" height="5" fill="#00f"><title>1086010.0</title></rect>
<rect x="476" y="70" width="38" height="5" fill="#f0f"><title>39.0</title></rect>
<rect x="343" y="75" width="45" height="5" fill="#00f"><title>24.0</title></rect>
<rect x="412" y="80" width="139" height="5" fill="#00f"><title>11.0</title></rect>
<rect x="251" y="85" width="46" height="5" fill="#00f"><title>9.0</title></rect>
<rect x="166" y="90" width="103" height="5" fill="#00f"><title>8.0</title></rect>
<rect x="354" y="95" width="48" height="5" fill="#f0f"><title>6.0</title></rect>
<text x="20" y="125" class="sm">0.9997</text>
<rect x="100" y="115" width="66" height="12" fill="#00f"/>
<rect x="297" y="115" width="310" height="12" fill="#00f"/>
<line x1="166" y1="121" x2="296" y2="121" stroke="#00f"/>
<rect x="104" y="116" width="62" height="10" fill="#ff0"/>
<rect x="298" y="116" width="185" height="10" fill="#ff0"/>
<text x="20" y="145" class="sm">0.0001498</text>
<rect x="100" y="135" width="55" height="12" fill="#00f"/>
<rect x="297" y="135" width="310" height="12" fill="#00f"/>
<line x1="155" y1="141" x2="296" y2="141" stroke="#00f"/>
<rect x="104" y="136" width="51" height="10" fill="#ff0"/>
<rect x="298" y="136" width="271" height="10" fill="#ff0"/>
<text x="20" y="165" class="sm">9.641e-05</text>
<rect x="100" y="155" width="53" height="12" fill="#00f"/>
<rect x="297" y="155" width="310" height="12" fill="#00f"/>
<line x1="153" y1="161" x2="296" y2="161" stroke="#00f"/>
<rect x="123" y="156" width="30" height="10" fill="#ff0"/>
<rect x="298" y="156" width="271" height="10" fill="#ff0"/>
<text x="20" y="185" class="sm">8.048e-05</text>
<rect x="100" y="175" width="50" height="12" fill="#00f"/>
<rect x="297" y="175" width="310" height="12" fill="#00f"/>
<line x1="150" y1="181" x2="296" y2="181" stroke="#00f"/>
<rect x="123" y="176" width="27" height="10" fill="#ff0"/>
<rect x="298" y="176" width="271" height="10" fill="#ff0"/>
<text x="20" y="205" class="sm">6.586e-08</text>
<rect x="100" y="195" width="71" height="12" fill="#00f"/>
<rect x="297" y="195" width="310" height="12" fill="#00f"/>
<line x1="171" y1="201" x2="296" y2="201" stroke="#00f"/>
<rect x="123" y="196" width="48" height="10" fill="#ff0"/>
<rect x="298" y="196" width="271" height="10" fill="#ff0"/>
<text x="20" y="225" class="sm">2.782e-09</text>
<rect x="100" y="215" width="66" height="12" fill="#00f"/>
<rect x="297" y="215" width="172" height="12" fill="#00f"/>
<rect x="551" y="215" width="56" height="12" fill="#00f"/>
<line x1="166" y1="221" x2="296" y2="221" stroke="#00f"/>
<line x1="469" y1="221" x2="550" y2="221" stroke="#00f"/>
<rect x="104" y="216" width="62" height="10" fill="#ff0"/>
<rect x="298" y="216" width="171" height="10" fill="#ff0"/>
<rect x="552" y="216" width="31" height="10" fill="#ff0"/>
<text x="20" y="245" class="sm">2.748e-09</text>
<rect x="100" y="235" width="66" height="12" fill="#00f"/>
<rect x="322" y="235" width="285" height="12" fill="#00f"/>
<line x1="166" y1="241" x2="321" y2="241" stroke="#00f"/>
<rect x="123" y="236" width="43" height="10" fill="#ff0"/>
<rect x="323" y="236" width="246" height="10" fill="#ff0"/>
<text x="20" y="265" class="sm">1.983e-09</text>
<rect x="100" y="255" width="66" height="12" fill="#00f"/>
<rect x="297" y="255" width="172" height="12" fill="#00f"/>
<rect x="558" y="255" width="49" height="12" fill="#00f"/>
<line x1="166" y1="261" x2="296" y2="261" stroke="#00f"/>
<line x1="469" y1="261" x2="557" y2="261" stroke="#00f"/>
<rect x="104" y="256" width="62" height="10" fill="#ff0"/>
<rect x="298" y="256" width="171" height="10" fill="#ff0"/>
<rect x="559" y="256" width="10" height="10" fill="#ff0"/>
<text x="20" y="285" class="sm">1.893e-09</text>
<rect x="100" y="275" width="66" height="12" fill="#00f"/>
<rect x="297" y="275" width="181" height="12" fill="#00f"/>
<rect x="551" y="275" width="56" height="12" fill="#00f"/>
<line x1="166" y1="281" x2="296" y2="281" stroke="#00f"/>
<line x1="478" y1="281" x2="550" y2="281" stroke="#00f"/>
<rect x="104" y="276" width="62" height="10" fill="#ff0"/>
<rect x="298" y="276" width="180" height="10" fill="#ff0"/>
<rect x="552" y="276" width="31" height="10" fill="#ff0"/>
<text x="20" y="305" class="sm">1.484e-09</text>
<rect x="100" y="295" width="66" height="12" fill="#00f"/>
<rect x="297" y="295" width="181" height="12" fill="#00f"/>
<rect x="558" y="295" width="49" height="12" fill="#00f"/>
<line x1="166" y1="301" x2="296" y2="301" stroke="#00f"/>
<line x1="478" y1="301" x2="557" y2="301" stroke="#00f"/>
<rect x="104" y="296" width="62" height="10" fill="#ff0"/>
<rect x="298" y="296" width="180" height="10" fill="#ff0"/>
<rect x="559" y="296" width="10" height="10" fill="#ff0"/>
<text x="20" y="325" class="sm">1.398e-09</text>
<rect x="100" y="315" width="66" height="12" fill="#00f"/>
<rect x="269" y="315" width="338" height="12" fill="#00f"/>
<line x1="166" y1="321" x2="268" y2="321" stroke="#00f"/>
<rect x="104" y="316" width="62" height="10" fill="#ff0"/>
<rect x="270" y="316" width="299" height="10" fill="#ff0"/>
<text x="20" y="345" class="sm">5.167e-10</text>
<rect x="100" y="335" width="66" height="12" fill="#00f"/>
<rect x="297" y="335" width="172" height="12" fill="#00f"/>
<rect x="542" y="335" width="65" height="12" fill="#00f"/>
<line x1="166" y1="341" x2="296" y2="341" stroke="#00f"/>
<line x1="469" y1="341" x2="541" y2="341" stroke="#00f"/>
<rect x="104" y="336" width="62" height="10" fill="#ff0"/>
<rect x="298" y="336" width="171" height="10" fill="#ff0"/>
<rect x="543" y="336" width="40" height="10" fill="#ff0"/>
<text x="20" y="365" class="sm">4.694e-10</text>
<rect x="100" y="355" width="66" height="12" fill="#00f"/>
<rect x="297" y="355" width="181" height="12" fill="#00f"/>
<rect x="542" y="355" width="65" height="12" fill="#00f"/>
<line x1="166" y1="361" x2="296" y2="361" stroke="#00f"/>
<line x1="478" y1="361" x2="541" y2="361" stroke="#00f"/>
<rect x="104" y="356" width="62" height="10" fill="#ff0"/>
<rect x="298" y="356" width="180" height="10" fill="#ff0"/>
<rect x="543" y="356" width="40" height="10" fill="#ff0"/>
<text x="20" y="385" class="sm">3.049e-10</text>
<rect x="100" y="375" width="66" height="12" fill="#00f"/>
<rect x="297" y="375" width="172" height="12" fill="#00f"/>
<rect x="569" y="375" width="38" height="12" fill="#00f"/>
<line x1="166" y1="381" x2="296" y2="381" stroke="#00f"/>
<line x1="469" y1="381" x2="568" y2="381" stroke="#00f"/>
<rect x="104" y="376" width="62" height="10" fill="#ff0"/>
<rect x="298" y="376" width="171" height="10" fill="#ff0"/>
<rect x="570" y="376" width="13" height="10" fill="#ff0"/>
<text x="20" y="405" class="sm">1.752e-10</text>
<rect x="100" y="395" width="66" height="12" fill="#00f"/>
<rect x="256" y="395" width="351" height="12" fill="#00f"/>
<line x1="166" y1="401" x2="255" y2="401" stroke="#00f"/>
<rect x="304" y="396" width="179" height="10" fill="#ff0"/>
<text x="20" y="425" class="sm">1.507e-10</text>
<rect x="100" y="415" width="66" height="12" fill="#00f"/>
<rect x="297" y="415" width="181" height="12" fill="#00f"/>
<rect x="569" y="415" width="38" height="12" fill="#00f"/>
<line x1="166" y1="421" x2="296" y2="421" stroke="#00f"/>
<line x1="478" y1="421" x2="568" y2="421" stroke="#00f"/>
<rect x="104" y="416" width="62" height="10" fill="#ff0"/>
<rect x="298" y="416" width="180" height="10" fill="#ff0"/>
<rect x="570" y="416" width="1" height="10" fill="#ff0"/>
<text x="20" y="445" class="sm">1.232e-10</text>
<rect x="100" y="435" width="66" height="12" fill="#00f"/>
<rect x="297" y="435" width="160" height="12" fill="#00f"/>
<rect x="551" y="435" width="56" height="12" fill="#00f"/>
<line x1="166" y1="441" x2="296" y2="441" stroke="#00f"/>
<line x1="457" y1="441" x2="550" y2="441" stroke="#00f"/>
<rect x="104" y="436" width="62" height="10" fill="#ff0"/>
<rect x="298" y="436" width="159" height="10" fill="#ff0"/>
<rect x="552" y="436" width="31" height="10" fill="#ff0"/>
<text x="20" y="465" class="sm">1.135e-10</text>
<rect x="100" y="455" width="66" height="12" fill="#00f"/>
<rect x="297" y="455" width="160" height="12" fill="#00f"/>
<rect x="558" y="455" width="49" height="12" fill="#00f"/>
<line x1="166" y1="461" x2="296" y2="461" stroke="#00f"/>
<line x1="457" y1="461" x2="557" y2="461" stroke="#00f"/>
<rect x="104" y="456" width="62" height="10" fill="#ff0"/>
<rect x="298" y="456" width="159" height="10" fill="#ff0"/>
<rect x="559" y="456" width="10" height="10" fill="#ff0"/>
<text x="20" y="485" class="sm">8.589e-11</text>
<rect x="100" y="475" width="66" height="12" fill="#00f"/>
<rect x="297" y="475" width="204" height="12" fill="#00f"/>
<rect x="551" y="475" width="56" height="12" fill="#00f"/>
<line x1="166" y1="481" x2="296" y2="481" stroke="#00f"/>
<line x1="501" y1="481" x2="550" y2="481" stroke="#00f"/>
<rect x="104" y="476" width="62" height="10" fill="#ff0"/>
<rect x="298" y="476" width="185" height="10" fill="#ff0"/>
<text x="20" y="505" class="sm">2.208e-11</text>
<rect x="100" y="495" width="66" height="12" fill="#00f"/>
<rect x="374" y="495" width="233" height="12" fill="#00f"/>
<line x1="166" y1="501" x2="373" y2="501" stroke="#00f"/>
<rect x="104" y="496" width="62" height="10" fill="#ff0"/>
<rect x="375" y="496" width="194" height="10" fill="#ff0"/>
</svg>
