<svg viewBox="0 0 808 520" xmlns="http://www.w3.org/2000/svg">

<style>
  .sm { font: 12px sans-serif; }
  .lg { font: 15px sans-serif; }
</style>
<rect fill="#ddd" x="0" y="0" width="100%" height="100%"/>
<text x="20" y="20" class="lg">ch.6528 III:576860-577667 Gene:WBGene00021904</text>
<text x="20" y="50" class="sm">WormBase</text>
<rect x="102" y="40" width="114" height="12" fill="#00f"/>
<rect x="518" y="40" width="192" height="12" fill="#00f"/>
<line x1="216" y1="46" x2="517" y2="46" stroke="#00f"/>
<rect x="109" y="41" width="107" height="10" fill="#ff0"/>
<rect x="519" y="41" width="107" height="10" fill="#ff0"/>
<rect x="103" y="41" width="5" height="10" fill="brown"><title>.</title></rect>
<rect x="627" y="41" width="83" height="10" fill="brown"><title>.</title></rect>
<text x="20" y="70" class="sm">Fitness: 1.9021452972658873e-05</text>
<rect x="216" y="65" width="302" height="5" fill="#00f"><title>621032.0</title></rect>
<rect x="230" y="70" width="288" height="5" fill="#00f"><title>53.0</title></rect>
<rect x="210" y="75" width="308" height="5" fill="#00f"><title>28.0</title></rect>
<rect x="131" y="80" width="61" height="5" fill="#00f"><title>3.0</title></rect>
<text x="20" y="110" class="sm">0.9999</text>
<rect x="100" y="100" width="116" height="12" fill="#00f"/>
<rect x="518" y="100" width="193" height="12" fill="#00f"/>
<line x1="216" y1="106" x2="517" y2="106" stroke="#00f"/>
<rect x="109" y="101" width="107" height="10" fill="#ff0"/>
<rect x="519" y="101" width="107" height="10" fill="#ff0"/>
<text x="20" y="130" class="sm">8.245e-05</text>
<rect x="100" y="120" width="130" height="12" fill="#00f"/>
<rect x="518" y="120" width="193" height="12" fill="#00f"/>
<line x1="230" y1="126" x2="517" y2="126" stroke="#00f"/>
<rect x="109" y="121" width="121" height="10" fill="#ff0"/>
<rect x="519" y="121" width="84" height="10" fill="#ff0"/>
<text x="20" y="150" class="sm">4.392e-05</text>
<rect x="100" y="140" width="110" height="12" fill="#00f"/>
<rect x="518" y="140" width="193" height="12" fill="#00f"/>
<line x1="210" y1="146" x2="517" y2="146" stroke="#00f"/>
<rect x="109" y="141" width="101" height="10" fill="#ff0"/>
<rect x="519" y="141" width="107" height="10" fill="#ff0"/>
<text x="20" y="170" class="sm">9.385e-06</text>
<rect x="100" y="160" width="116" height="12" fill="#00f"/>
<rect x="632" y="160" width="79" height="12" fill="#00f"/>
<line x1="216" y1="166" x2="631" y2="166" stroke="#00f"/>
<rect x="109" y="161" width="107" height="10" fill="#ff0"/>
<rect x="633" y="161" width="23" height="10" fill="#ff0"/>
<text x="20" y="190" class="sm">7.057e-08</text>
<rect x="100" y="180" width="42" height="12" fill="#00f"/>
<rect x="188" y="180" width="28" height="12" fill="#00f"/>
<rect x="518" y="180" width="193" height="12" fill="#00f"/>
<line x1="142" y1="186" x2="187" y2="186" stroke="#00f"/>
<line x1="216" y1="186" x2="517" y2="186" stroke="#00f"/>
<rect x="109" y="181" width="33" height="10" fill="#ff0"/>
<rect x="189" y="181" width="27" height="10" fill="#ff0"/>
<rect x="519" y="181" width="84" height="10" fill="#ff0"/>
<text x="20" y="210" class="sm">1.953e-08</text>
<rect x="100" y="200" width="103" height="12" fill="#00f"/>
<rect x="518" y="200" width="193" height="12" fill="#00f"/>
<line x1="203" y1="206" x2="517" y2="206" stroke="#00f"/>
<rect x="109" y="201" width="94" height="10" fill="#ff0"/>
<rect x="519" y="201" width="84" height="10" fill="#ff0"/>
<text x="20" y="230" class="sm">1.839e-08</text>
<rect x="100" y="220" width="116" height="12" fill="#00f"/>
<rect x="518" y="220" width="60" height="12" fill="#00f"/>
<rect x="632" y="220" width="79" height="12" fill="#00f"/>
<line x1="216" y1="226" x2="517" y2="226" stroke="#00f"/>
<line x1="578" y1="226" x2="631" y2="226" stroke="#00f"/>
<rect x="109" y="221" width="107" height="10" fill="#ff0"/>
<rect x="519" y="221" width="59" height="10" fill="#ff0"/>
<rect x="633" y="221" width="23" height="10" fill="#ff0"/>
<text x="20" y="250" class="sm">8.927e-09</text>
<rect x="100" y="240" width="42" height="12" fill="#00f"/>
<rect x="518" y="240" width="193" height="12" fill="#00f"/>
<line x1="142" y1="246" x2="517" y2="246" stroke="#00f"/>
<rect x="109" y="241" width="33" height="10" fill="#ff0"/>
<rect x="519" y="241" width="100" height="10" fill="#ff0"/>
<text x="20" y="270" class="sm">4.194e-09</text>
<rect x="100" y="260" width="116" height="12" fill="#00f"/>
<rect x="572" y="260" width="139" height="12" fill="#00f"/>
<line x1="216" y1="266" x2="571" y2="266" stroke="#00f"/>
<rect x="109" y="261" width="107" height="10" fill="#ff0"/>
<rect x="573" y="261" width="53" height="10" fill="#ff0"/>
<text x="20" y="290" class="sm">1.216e-09</text>
<rect x="100" y="280" width="116" height="12" fill="#00f"/>
<rect x="551" y="280" width="160" height="12" fill="#00f"/>
<line x1="216" y1="286" x2="550" y2="286" stroke="#00f"/>
<rect x="109" y="281" width="107" height="10" fill="#ff0"/>
<rect x="552" y="281" width="74" height="10" fill="#ff0"/>
<text x="20" y="310" class="sm">1.118e-09</text>
<rect x="100" y="300" width="116" height="12" fill="#00f"/>
<rect x="489" y="300" width="222" height="12" fill="#00f"/>
<line x1="216" y1="306" x2="488" y2="306" stroke="#00f"/>
<rect x="109" y="301" width="107" height="10" fill="#ff0"/>
<rect x="490" y="301" width="14" height="10" fill="#ff0"/>
<text x="20" y="330" class="sm">7.911e-10</text>
<rect x="100" y="320" width="130" height="12" fill="#00f"/>
<rect x="632" y="320" width="79" height="12" fill="#00f"/>
<line x1="230" y1="326" x2="631" y2="326" stroke="#00f"/>
<rect x="109" y="321" width="121" height="10" fill="#ff0"/>
<rect x="633" y="321" width="3" height="10" fill="#ff0"/>
<text x="20" y="350" class="sm">4.382e-10</text>
<rect x="100" y="340" width="110" height="12" fill="#00f"/>
<rect x="632" y="340" width="79" height="12" fill="#00f"/>
<line x1="210" y1="346" x2="631" y2="346" stroke="#00f"/>
<rect x="109" y="341" width="101" height="10" fill="#ff0"/>
<rect x="633" y="341" width="23" height="10" fill="#ff0"/>
<text x="20" y="370" class="sm">2.775e-10</text>
<rect x="100" y="360" width="151" height="12" fill="#00f"/>
<rect x="518" y="360" width="193" height="12" fill="#00f"/>
<line x1="251" y1="366" x2="517" y2="366" stroke="#00f"/>
<rect x="109" y="361" width="142" height="10" fill="#ff0"/>
<rect x="519" y="361" width="84" height="10" fill="#ff0"/>
<text x="20" y="390" class="sm">1.883e-10</text>
<rect x="100" y="380" width="116" height="12" fill="#00f"/>
<rect x="554" y="380" width="157" height="12" fill="#00f"/>
<line x1="216" y1="386" x2="553" y2="386" stroke="#00f"/>
<rect x="109" y="381" width="107" height="10" fill="#ff0"/>
<rect x="555" y="381" width="71" height="10" fill="#ff0"/>
<text x="20" y="410" class="sm">1.638e-10</text>
<rect x="100" y="400" width="35" height="12" fill="#00f"/>
<rect x="188" y="400" width="28" height="12" fill="#00f"/>
<rect x="518" y="400" width="193" height="12" fill="#00f"/>
<line x1="135" y1="406" x2="187" y2="406" stroke="#00f"/>
<line x1="216" y1="406" x2="517" y2="406" stroke="#00f"/>
<rect x="109" y="401" width="26" height="10" fill="#ff0"/>
<rect x="189" y="401" width="27" height="10" fill="#ff0"/>
<rect x="519" y="401" width="100" height="10" fill="#ff0"/>
<text x="20" y="430" class="sm">1.378e-10</text>
<rect x="100" y="420" width="116" height="12" fill="#00f"/>
<rect x="578" y="420" width="133" height="12" fill="#00f"/>
<line x1="216" y1="426" x2="577" y2="426" stroke="#00f"/>
<rect x="109" y="421" width="107" height="10" fill="#ff0"/>
<rect x="579" y="421" width="47" height="10" fill="#ff0"/>
<text x="20" y="450" class="sm">6.862e-11</text>
<rect x="100" y="440" width="116" height="12" fill="#00f"/>
<rect x="611" y="440" width="100" height="12" fill="#00f"/>
<line x1="216" y1="446" x2="610" y2="446" stroke="#00f"/>
<rect x="109" y="441" width="107" height="10" fill="#ff0"/>
<rect x="612" y="441" width="14" height="10" fill="#ff0"/>
<text x="20" y="470" class="sm">2.395e-11</text>
<rect x="100" y="460" width="35" height="12" fill="#00f"/>
<rect x="518" y="460" width="193" height="12" fill="#00f"/>
<line x1="135" y1="466" x2="517" y2="466" stroke="#00f"/>
<rect x="109" y="461" width="26" height="10" fill="#ff0"/>
<rect x="519" y="461" width="107" height="10" fill="#ff0"/>
<text x="20" y="490" class="sm">1.312e-11</text>
<rect x="100" y="480" width="31" height="12" fill="#00f"/>
<rect x="188" y="480" width="28" height="12" fill="#00f"/>
<rect x="518" y="480" width="193" height="12" fill="#00f"/>
<line x1="131" y1="486" x2="187" y2="486" stroke="#00f"/>
<line x1="216" y1="486" x2="517" y2="486" stroke="#00f"/>
<rect x="109" y="481" width="22" height="10" fill="#ff0"/>
<rect x="189" y="481" width="27" height="10" fill="#ff0"/>
<rect x="519" y="481" width="107" height="10" fill="#ff0"/>
</svg>
