<svg viewBox="0 0 954 555" xmlns="http://www.w3.org/2000/svg">

<style>
  .sm { font: 12px sans-serif; }
  .lg { font: 15px sans-serif; }
</style>
<rect fill="#ddd" x="0" y="0" width="100%" height="100%"/>
<text x="20" y="20" class="lg">ch.6428 II:15171063-15172016 Gene:WBGene00001787</text>
<text x="20" y="50" class="sm">WormBase</text>
<rect x="102" y="40" width="145" height="12" fill="#00f"/>
<rect x="299" y="40" width="557" height="12" fill="#00f"/>
<line x1="247" y1="46" x2="298" y2="46" stroke="#00f"/>
<rect x="109" y="41" width="138" height="10" fill="#ff0"/>
<rect x="300" y="41" width="490" height="10" fill="#ff0"/>
<rect x="103" y="41" width="5" height="10" fill="brown"><title>.</title></rect>
<rect x="791" y="41" width="65" height="10" fill="brown"><title>.</title></rect>
<text x="20" y="70" class="sm">Fitness: 8.986542652279509e-05</text>
<rect x="247" y="65" width="52" height="5" fill="#00f"><title>267042.0</title></rect>
<rect x="786" y="70" width="46" height="5" fill="#f0f"><title>99.0</title></rect>
<rect x="227" y="75" width="70" height="5" fill="#f0f"><title>47.0</title></rect>
<rect x="786" y="80" width="95" height="5" fill="#f0f"><title>26.0</title></rect>
<rect x="251" y="85" width="48" height="5" fill="#00f"><title>12.0</title></rect>
<rect x="59" y="90" width="49" height="5" fill="#00f"><title>9.0</title></rect>
<rect x="398" y="95" width="232" height="5" fill="#f0f"><title>8.0</title></rect>
<rect x="398" y="100" width="167" height="5" fill="#f0f"><title>4.0</title></rect>
<rect x="359" y="105" width="206" height="5" fill="#f0f"><title>4.0</title></rect>
<rect x="666" y="110" width="34" height="5" fill="#00f"><title>3.0</title></rect>
<rect x="340" y="115" width="133" height="5" fill="#f0f"><title>3.0</title></rect>
<text x="20" y="145" class="sm">0.9999</text>
<rect x="100" y="135" width="147" height="12" fill="#00f"/>
<rect x="299" y="135" width="558" height="12" fill="#00f"/>
<line x1="247" y1="141" x2="298" y2="141" stroke="#00f"/>
<rect x="109" y="136" width="138" height="10" fill="#ff0"/>
<rect x="300" y="136" width="490" height="10" fill="#ff0"/>
<text x="20" y="165" class="sm">6.117e-05</text>
<rect x="100" y="155" width="151" height="12" fill="#00f"/>
<rect x="299" y="155" width="558" height="12" fill="#00f"/>
<line x1="251" y1="161" x2="298" y2="161" stroke="#00f"/>
<rect x="221" y="156" width="30" height="10" fill="#ff0"/>
<rect x="300" y="156" width="490" height="10" fill="#ff0"/>
<text x="20" y="185" class="sm">4.182e-08</text>
<rect x="100" y="175" width="496" height="12" fill="#00f"/>
<rect x="723" y="175" width="134" height="12" fill="#00f"/>
<line x1="596" y1="181" x2="722" y2="181" stroke="#00f"/>
<rect x="221" y="176" width="375" height="10" fill="#ff0"/>
<rect x="724" y="176" width="97" height="10" fill="#ff0"/>
<text x="20" y="205" class="sm">3.046e-08</text>
<rect x="100" y="195" width="496" height="12" fill="#00f"/>
<rect x="673" y="195" width="184" height="12" fill="#00f"/>
<line x1="596" y1="201" x2="672" y2="201" stroke="#00f"/>
<rect x="221" y="196" width="375" height="10" fill="#ff0"/>
<rect x="674" y="196" width="127" height="10" fill="#ff0"/>
<text x="20" y="225" class="sm">2.61e-08</text>
<rect x="100" y="215" width="566" height="12" fill="#00f"/>
<rect x="716" y="215" width="141" height="12" fill="#00f"/>
<line x1="666" y1="221" x2="715" y2="221" stroke="#00f"/>
<rect x="221" y="216" width="445" height="10" fill="#ff0"/>
<rect x="717" y="216" width="84" height="10" fill="#ff0"/>
<text x="20" y="245" class="sm">1.982e-08</text>
<rect x="100" y="235" width="566" height="12" fill="#00f"/>
<rect x="723" y="235" width="134" height="12" fill="#00f"/>
<line x1="666" y1="241" x2="722" y2="241" stroke="#00f"/>
<rect x="221" y="236" width="445" height="10" fill="#ff0"/>
<rect x="724" y="236" width="66" height="10" fill="#ff0"/>
<text x="20" y="265" class="sm">1.933e-08</text>
<rect x="100" y="255" width="496" height="12" fill="#00f"/>
<rect x="716" y="255" width="141" height="12" fill="#00f"/>
<line x1="596" y1="261" x2="715" y2="261" stroke="#00f"/>
<rect x="221" y="256" width="375" height="10" fill="#ff0"/>
<rect x="717" y="256" width="73" height="10" fill="#ff0"/>
<text x="20" y="285" class="sm">1.644e-08</text>
<rect x="100" y="275" width="63" height="12" fill="#00f"/>
<rect x="299" y="275" width="558" height="12" fill="#00f"/>
<line x1="163" y1="281" x2="298" y2="281" stroke="#00f"/>
<rect x="109" y="276" width="54" height="10" fill="#ff0"/>
<rect x="300" y="276" width="490" height="10" fill="#ff0"/>
<text x="20" y="305" class="sm">1.609e-08</text>
<rect x="100" y="295" width="147" height="12" fill="#00f"/>
<rect x="317" y="295" width="540" height="12" fill="#00f"/>
<line x1="247" y1="301" x2="316" y2="301" stroke="#00f"/>
<rect x="109" y="296" width="138" height="10" fill="#ff0"/>
<rect x="318" y="296" width="472" height="10" fill="#ff0"/>
<text x="20" y="325" class="sm">1.592e-08</text>
<rect x="100" y="315" width="431" height="12" fill="#00f"/>
<rect x="571" y="315" width="286" height="12" fill="#00f"/>
<line x1="531" y1="321" x2="570" y2="321" stroke="#00f"/>
<rect x="221" y="316" width="310" height="10" fill="#ff0"/>
<rect x="572" y="316" width="42" height="10" fill="#ff0"/>
<text x="20" y="345" class="sm">1.054e-08</text>
<rect x="100" y="335" width="496" height="12" fill="#00f"/>
<rect x="746" y="335" width="111" height="12" fill="#00f"/>
<line x1="596" y1="341" x2="745" y2="341" stroke="#00f"/>
<rect x="221" y="336" width="375" height="10" fill="#ff0"/>
<rect x="747" y="336" width="43" height="10" fill="#ff0"/>
<text x="20" y="365" class="sm">7.015e-09</text>
<rect x="100" y="355" width="496" height="12" fill="#00f"/>
<rect x="655" y="355" width="202" height="12" fill="#00f"/>
<line x1="596" y1="361" x2="654" y2="361" stroke="#00f"/>
<rect x="221" y="356" width="375" height="10" fill="#ff0"/>
<rect x="656" y="356" width="145" height="10" fill="#ff0"/>
<text x="20" y="385" class="sm">3.326e-09</text>
<rect x="100" y="375" width="611" height="12" fill="#00f"/>
<rect x="746" y="375" width="111" height="12" fill="#00f"/>
<line x1="711" y1="381" x2="745" y2="381" stroke="#00f"/>
<rect x="221" y="376" width="490" height="10" fill="#ff0"/>
<rect x="747" y="376" width="54" height="10" fill="#ff0"/>
<text x="20" y="405" class="sm">2.552e-09</text>
<rect x="100" y="395" width="147" height="12" fill="#00f"/>
<rect x="413" y="395" width="444" height="12" fill="#00f"/>
<line x1="247" y1="401" x2="412" y2="401" stroke="#00f"/>
<rect x="109" y="396" width="138" height="10" fill="#ff0"/>
<rect x="414" y="396" width="376" height="10" fill="#ff0"/>
<text x="20" y="425" class="sm">1.314e-09</text>
<rect x="100" y="415" width="292" height="12" fill="#00f"/>
<rect x="474" y="415" width="383" height="12" fill="#00f"/>
<line x1="392" y1="421" x2="473" y2="421" stroke="#00f"/>
<rect x="221" y="416" width="171" height="10" fill="#ff0"/>
<rect x="475" y="416" width="139" height="10" fill="#ff0"/>
<text x="20" y="445" class="sm">1.182e-09</text>
<rect x="100" y="435" width="566" height="12" fill="#00f"/>
<rect x="746" y="435" width="111" height="12" fill="#00f"/>
<line x1="666" y1="441" x2="745" y2="441" stroke="#00f"/>
<rect x="221" y="436" width="445" height="10" fill="#ff0"/>
<rect x="747" y="436" width="54" height="10" fill="#ff0"/>
<text x="20" y="465" class="sm">1.056e-09</text>
<rect x="100" y="455" width="292" height="12" fill="#00f"/>
<rect x="454" y="455" width="403" height="12" fill="#00f"/>
<line x1="392" y1="461" x2="453" y2="461" stroke="#00f"/>
<rect x="336" y="456" width="56" height="10" fill="#ff0"/>
<rect x="455" y="456" width="335" height="10" fill="#ff0"/>
<text x="20" y="485" class="sm">5.706e-10</text>
<rect x="100" y="475" width="608" height="12" fill="#00f"/>
<rect x="746" y="475" width="111" height="12" fill="#00f"/>
<line x1="708" y1="481" x2="745" y2="481" stroke="#00f"/>
<rect x="221" y="476" width="487" height="10" fill="#ff0"/>
<rect x="747" y="476" width="54" height="10" fill="#ff0"/>
<text x="20" y="505" class="sm">1.987e-10</text>
<rect x="100" y="495" width="45" height="12" fill="#00f"/>
<rect x="299" y="495" width="558" height="12" fill="#00f"/>
<line x1="145" y1="501" x2="298" y2="501" stroke="#00f"/>
<rect x="109" y="496" width="36" height="10" fill="#ff0"/>
<rect x="300" y="496" width="490" height="10" fill="#ff0"/>
<text x="20" y="525" class="sm">9.686e-11</text>
<rect x="100" y="515" width="63" height="12" fill="#00f"/>
<rect x="198" y="515" width="659" height="12" fill="#00f"/>
<line x1="163" y1="521" x2="197" y2="521" stroke="#00f"/>
<rect x="221" y="516" width="569" height="10" fill="#ff0"/>
</svg>
