<svg viewBox="0 0 873 525" xmlns="http://www.w3.org/2000/svg">

<style>
  .sm { font: 12px sans-serif; }
  .lg { font: 15px sans-serif; }
</style>
<rect fill="#ddd" x="0" y="0" width="100%" height="100%"/>
<text x="20" y="20" class="lg">ch.6112 II:13215992-13216864 Gene:WBGene00008859</text>
<text x="20" y="50" class="sm">WormBase</text>
<rect x="100" y="40" width="145" height="12" fill="#00f"/>
<rect x="300" y="40" width="473" height="12" fill="#00f"/>
<line x1="245" y1="46" x2="299" y2="46" stroke="#00f"/>
<rect x="105" y="41" width="140" height="10" fill="#ff0"/>
<rect x="301" y="41" width="410" height="10" fill="#ff0"/>
<rect x="101" y="41" width="3" height="10" fill="brown"><title>.</title></rect>
<rect x="712" y="41" width="61" height="10" fill="brown"><title>.</title></rect>
<text x="20" y="70" class="sm">Fitness: 0.0017444640646591034</text>
<rect x="245" y="65" width="55" height="5" fill="#00f"><title>273411.0</title></rect>
<rect x="221" y="70" width="79" height="5" fill="#00f"><title>743.0</title></rect>
<rect x="48" y="75" width="52" height="5" fill="#00f"><title>25.0</title></rect>
<rect x="53" y="80" width="47" height="5" fill="#00f"><title>14.0</title></rect>
<rect x="432" y="85" width="78" height="5" fill="#00f"><title>3.0</title></rect>
<text x="20" y="115" class="sm">0.9971</text>
<rect x="100" y="105" width="145" height="12" fill="#00f"/>
<rect x="300" y="105" width="476" height="12" fill="#00f"/>
<line x1="245" y1="111" x2="299" y2="111" stroke="#00f"/>
<rect x="105" y="106" width="140" height="10" fill="#ff0"/>
<rect x="301" y="106" width="410" height="10" fill="#ff0"/>
<text x="20" y="135" class="sm">0.001992</text>
<rect x="100" y="125" width="121" height="12" fill="#00f"/>
<rect x="300" y="125" width="476" height="12" fill="#00f"/>
<line x1="221" y1="131" x2="299" y2="131" stroke="#00f"/>
<rect x="105" y="126" width="116" height="10" fill="#ff0"/>
<rect x="301" y="126" width="410" height="10" fill="#ff0"/>
<text x="20" y="155" class="sm">0.0004945</text>
<rect x="100" y="145" width="105" height="12" fill="#00f"/>
<rect x="300" y="145" width="476" height="12" fill="#00f"/>
<line x1="205" y1="151" x2="299" y2="151" stroke="#00f"/>
<rect x="352" y="146" width="359" height="10" fill="#ff0"/>
<text x="20" y="175" class="sm">0.0003139</text>
<rect x="100" y="165" width="115" height="12" fill="#00f"/>
<rect x="300" y="165" width="476" height="12" fill="#00f"/>
<line x1="215" y1="171" x2="299" y2="171" stroke="#00f"/>
<rect x="105" y="166" width="110" height="10" fill="#ff0"/>
<rect x="301" y="166" width="410" height="10" fill="#ff0"/>
<text x="20" y="195" class="sm">6.218e-05</text>
<rect x="100" y="185" width="100" height="12" fill="#00f"/>
<rect x="300" y="185" width="476" height="12" fill="#00f"/>
<line x1="200" y1="191" x2="299" y2="191" stroke="#00f"/>
<rect x="105" y="186" width="95" height="10" fill="#ff0"/>
<rect x="301" y="186" width="410" height="10" fill="#ff0"/>
<text x="20" y="215" class="sm">1.078e-06</text>
<rect x="100" y="205" width="58" height="12" fill="#00f"/>
<rect x="300" y="205" width="476" height="12" fill="#00f"/>
<line x1="158" y1="211" x2="299" y2="211" stroke="#00f"/>
<rect x="105" y="206" width="53" height="10" fill="#ff0"/>
<rect x="301" y="206" width="410" height="10" fill="#ff0"/>
<text x="20" y="235" class="sm">3.129e-07</text>
<rect x="100" y="225" width="145" height="12" fill="#00f"/>
<rect x="376" y="225" width="400" height="12" fill="#00f"/>
<line x1="245" y1="231" x2="375" y2="231" stroke="#00f"/>
<rect x="499" y="226" width="212" height="10" fill="#ff0"/>
<text x="20" y="255" class="sm">5.244e-08</text>
<rect x="100" y="245" width="145" height="12" fill="#00f"/>
<rect x="312" y="245" width="464" height="12" fill="#00f"/>
<line x1="245" y1="251" x2="311" y2="251" stroke="#00f"/>
<rect x="105" y="246" width="140" height="10" fill="#ff0"/>
<rect x="313" y="246" width="398" height="10" fill="#ff0"/>
<text x="20" y="275" class="sm">3.762e-08</text>
<rect x="100" y="265" width="121" height="12" fill="#00f"/>
<rect x="376" y="265" width="400" height="12" fill="#00f"/>
<line x1="221" y1="271" x2="375" y2="271" stroke="#00f"/>
<rect x="499" y="266" width="212" height="10" fill="#ff0"/>
<text x="20" y="295" class="sm">2.336e-08</text>
<rect x="100" y="285" width="145" height="12" fill="#00f"/>
<rect x="544" y="285" width="232" height="12" fill="#00f"/>
<line x1="245" y1="291" x2="543" y2="291" stroke="#00f"/>
<rect x="105" y="286" width="140" height="10" fill="#ff0"/>
<rect x="545" y="286" width="191" height="10" fill="#ff0"/>
<text x="20" y="315" class="sm">2.232e-08</text>
<rect x="100" y="305" width="145" height="12" fill="#00f"/>
<rect x="340" y="305" width="436" height="12" fill="#00f"/>
<line x1="245" y1="311" x2="339" y2="311" stroke="#00f"/>
<rect x="352" y="306" width="359" height="10" fill="#ff0"/>
<text x="20" y="335" class="sm">1.804e-08</text>
<rect x="100" y="325" width="145" height="12" fill="#00f"/>
<rect x="337" y="325" width="439" height="12" fill="#00f"/>
<line x1="245" y1="331" x2="336" y2="331" stroke="#00f"/>
<rect x="352" y="326" width="359" height="10" fill="#ff0"/>
<text x="20" y="355" class="sm">1.519e-08</text>
<rect x="100" y="345" width="232" height="12" fill="#00f"/>
<rect x="376" y="345" width="400" height="12" fill="#00f"/>
<line x1="332" y1="351" x2="375" y2="351" stroke="#00f"/>
<rect x="499" y="346" width="212" height="10" fill="#ff0"/>
<text x="20" y="375" class="sm">1.342e-08</text>
<rect x="100" y="365" width="115" height="12" fill="#00f"/>
<rect x="376" y="365" width="400" height="12" fill="#00f"/>
<line x1="215" y1="371" x2="375" y2="371" stroke="#00f"/>
<rect x="499" y="366" width="212" height="10" fill="#ff0"/>
<text x="20" y="395" class="sm">1.117e-08</text>
<rect x="100" y="385" width="145" height="12" fill="#00f"/>
<rect x="324" y="385" width="452" height="12" fill="#00f"/>
<line x1="245" y1="391" x2="323" y2="391" stroke="#00f"/>
<rect x="105" y="386" width="140" height="10" fill="#ff0"/>
<rect x="325" y="386" width="386" height="10" fill="#ff0"/>
<text x="20" y="415" class="sm">9.173e-09</text>
<rect x="100" y="405" width="105" height="12" fill="#00f"/>
<rect x="376" y="405" width="400" height="12" fill="#00f"/>
<line x1="205" y1="411" x2="375" y2="411" stroke="#00f"/>
<rect x="196" y="406" width="9" height="10" fill="#ff0"/>
<rect x="377" y="406" width="334" height="10" fill="#ff0"/>
<text x="20" y="435" class="sm">2.811e-09</text>
<rect x="100" y="425" width="121" height="12" fill="#00f"/>
<rect x="544" y="425" width="232" height="12" fill="#00f"/>
<line x1="221" y1="431" x2="543" y2="431" stroke="#00f"/>
<rect x="105" y="426" width="116" height="10" fill="#ff0"/>
<rect x="545" y="426" width="191" height="10" fill="#ff0"/>
<text x="20" y="455" class="sm">2.765e-09</text>
<rect x="100" y="445" width="121" height="12" fill="#00f"/>
<rect x="337" y="445" width="439" height="12" fill="#00f"/>
<line x1="221" y1="451" x2="336" y2="451" stroke="#00f"/>
<rect x="352" y="446" width="359" height="10" fill="#ff0"/>
<text x="20" y="475" class="sm">2.285e-09</text>
<rect x="100" y="465" width="121" height="12" fill="#00f"/>
<rect x="340" y="465" width="436" height="12" fill="#00f"/>
<line x1="221" y1="471" x2="339" y2="471" stroke="#00f"/>
<rect x="352" y="466" width="359" height="10" fill="#ff0"/>
<text x="20" y="495" class="sm">1.895e-09</text>
<rect x="100" y="485" width="121" height="12" fill="#00f"/>
<rect x="312" y="485" width="464" height="12" fill="#00f"/>
<line x1="221" y1="491" x2="311" y2="491" stroke="#00f"/>
<rect x="105" y="486" width="116" height="10" fill="#ff0"/>
<rect x="313" y="486" width="398" height="10" fill="#ff0"/>
</svg>
