<svg viewBox="0 0 880 550" xmlns="http://www.w3.org/2000/svg">

<style>
  .sm { font: 12px sans-serif; }
  .lg { font: 15px sans-serif; }
</style>
<rect fill="#ddd" x="0" y="0" width="100%" height="100%"/>
<text x="20" y="20" class="lg">ch.6451 III:68973-69852 Gene:WBGene00005014</text>
<text x="20" y="50" class="sm">WormBase</text>
<rect x="102" y="40" width="172" height="12" fill="#00f"/>
<rect x="424" y="40" width="358" height="12" fill="#00f"/>
<line x1="274" y1="46" x2="423" y2="46" stroke="#00f"/>
<rect x="117" y="41" width="157" height="10" fill="#ff0"/>
<rect x="425" y="41" width="204" height="10" fill="#ff0"/>
<rect x="103" y="41" width="13" height="10" fill="brown"><title>.</title></rect>
<rect x="630" y="41" width="152" height="10" fill="brown"><title>.</title></rect>
<text x="20" y="70" class="sm">Fitness: 0.7898857759874767</text>
<rect x="274" y="65" width="150" height="5" fill="#00f"><title>650078.0</title></rect>
<rect x="257" y="70" width="167" height="5" fill="#00f"><title>357.0</title></rect>
<rect x="274" y="75" width="252" height="5" fill="#00f"><title>48.0</title></rect>
<rect x="277" y="80" width="147" height="5" fill="#00f"><title>21.0</title></rect>
<rect x="274" y="85" width="263" height="5" fill="#00f"><title>16.0</title></rect>
<rect x="176" y="90" width="248" height="5" fill="#00f"><title>8.0</title></rect>
<rect x="173" y="95" width="63" height="5" fill="#f0f"><title>5.0</title></rect>
<rect x="153" y="100" width="47" height="5" fill="#00f"><title>4.0</title></rect>
<rect x="469" y="105" width="35" height="5" fill="#00f"><title>3.0</title></rect>
<rect x="172" y="110" width="35" height="5" fill="#f0f"><title>3.0</title></rect>
<text x="20" y="140" class="sm">0.6045</text>
<rect x="100" y="130" width="174" height="12" fill="#00f"/>
<rect x="424" y="130" width="359" height="12" fill="#00f"/>
<line x1="274" y1="136" x2="423" y2="136" stroke="#00f"/>
<rect x="117" y="131" width="157" height="10" fill="#ff0"/>
<rect x="425" y="131" width="204" height="10" fill="#ff0"/>
<text x="20" y="160" class="sm">0.2011</text>
<rect x="100" y="150" width="167" height="12" fill="#00f"/>
<rect x="424" y="150" width="359" height="12" fill="#00f"/>
<line x1="267" y1="156" x2="423" y2="156" stroke="#00f"/>
<rect x="441" y="151" width="188" height="10" fill="#ff0"/>
<text x="20" y="180" class="sm">0.1683</text>
<rect x="100" y="170" width="177" height="12" fill="#00f"/>
<rect x="424" y="170" width="359" height="12" fill="#00f"/>
<line x1="277" y1="176" x2="423" y2="176" stroke="#00f"/>
<rect x="117" y="171" width="160" height="10" fill="#ff0"/>
<rect x="425" y="171" width="204" height="10" fill="#ff0"/>
<text x="20" y="200" class="sm">0.02218</text>
<rect x="100" y="190" width="157" height="12" fill="#00f"/>
<rect x="424" y="190" width="359" height="12" fill="#00f"/>
<line x1="257" y1="196" x2="423" y2="196" stroke="#00f"/>
<rect x="117" y="191" width="140" height="10" fill="#ff0"/>
<rect x="425" y="191" width="164" height="10" fill="#ff0"/>
<text x="20" y="220" class="sm">0.002014</text>
<rect x="100" y="210" width="167" height="12" fill="#00f"/>
<rect x="336" y="210" width="447" height="12" fill="#00f"/>
<line x1="267" y1="216" x2="335" y2="216" stroke="#00f"/>
<rect x="117" y="211" width="150" height="10" fill="#ff0"/>
<rect x="337" y="211" width="292" height="10" fill="#ff0"/>
<text x="20" y="240" class="sm">0.001246</text>
<rect x="100" y="230" width="174" height="12" fill="#00f"/>
<rect x="336" y="230" width="447" height="12" fill="#00f"/>
<line x1="274" y1="236" x2="335" y2="236" stroke="#00f"/>
<rect x="262" y="231" width="12" height="10" fill="#ff0"/>
<rect x="337" y="231" width="292" height="10" fill="#ff0"/>
<text x="20" y="260" class="sm">0.0002921</text>
<rect x="100" y="250" width="157" height="12" fill="#00f"/>
<rect x="336" y="250" width="447" height="12" fill="#00f"/>
<line x1="257" y1="256" x2="335" y2="256" stroke="#00f"/>
<rect x="441" y="251" width="188" height="10" fill="#ff0"/>
<text x="20" y="280" class="sm">0.0001524</text>
<rect x="100" y="270" width="205" height="12" fill="#00f"/>
<rect x="424" y="270" width="359" height="12" fill="#00f"/>
<line x1="305" y1="276" x2="423" y2="276" stroke="#00f"/>
<rect x="441" y="271" width="188" height="10" fill="#ff0"/>
<text x="20" y="300" class="sm">0.0001307</text>
<rect x="100" y="290" width="177" height="12" fill="#00f"/>
<rect x="336" y="290" width="447" height="12" fill="#00f"/>
<line x1="277" y1="296" x2="335" y2="296" stroke="#00f"/>
<rect x="262" y="291" width="15" height="10" fill="#ff0"/>
<rect x="337" y="291" width="292" height="10" fill="#ff0"/>
<text x="20" y="320" class="sm">6.019e-05</text>
<rect x="100" y="310" width="454" height="12" fill="#00f"/>
<rect x="590" y="310" width="193" height="12" fill="#00f"/>
<line x1="554" y1="316" x2="589" y2="316" stroke="#00f"/>
<rect x="117" y="311" width="161" height="10" fill="#ff0"/>
<text x="20" y="340" class="sm">3.286e-05</text>
<rect x="100" y="330" width="119" height="12" fill="#00f"/>
<rect x="424" y="330" width="359" height="12" fill="#00f"/>
<line x1="219" y1="336" x2="423" y2="336" stroke="#00f"/>
<rect x="441" y="331" width="188" height="10" fill="#ff0"/>
<text x="20" y="360" class="sm">1.591e-05</text>
<rect x="100" y="350" width="127" height="12" fill="#00f"/>
<rect x="424" y="350" width="359" height="12" fill="#00f"/>
<line x1="227" y1="356" x2="423" y2="356" stroke="#00f"/>
<rect x="117" y="351" width="110" height="10" fill="#ff0"/>
<rect x="425" y="351" width="164" height="10" fill="#ff0"/>
<text x="20" y="380" class="sm">1.168e-05</text>
<rect x="100" y="370" width="183" height="12" fill="#00f"/>
<rect x="424" y="370" width="359" height="12" fill="#00f"/>
<line x1="283" y1="376" x2="423" y2="376" stroke="#00f"/>
<rect x="441" y="371" width="188" height="10" fill="#ff0"/>
<text x="20" y="400" class="sm">1.118e-06</text>
<rect x="100" y="390" width="119" height="12" fill="#00f"/>
<rect x="336" y="390" width="447" height="12" fill="#00f"/>
<line x1="219" y1="396" x2="335" y2="396" stroke="#00f"/>
<rect x="117" y="391" width="102" height="10" fill="#ff0"/>
<rect x="337" y="391" width="292" height="10" fill="#ff0"/>
<text x="20" y="420" class="sm">5.232e-07</text>
<rect x="100" y="410" width="414" height="12" fill="#00f"/>
<rect x="590" y="410" width="193" height="12" fill="#00f"/>
<line x1="514" y1="416" x2="589" y2="416" stroke="#00f"/>
<rect x="441" y="411" width="73" height="10" fill="#ff0"/>
<rect x="591" y="411" width="150" height="10" fill="#ff0"/>
<text x="20" y="440" class="sm">3.994e-07</text>
<rect x="100" y="430" width="403" height="12" fill="#00f"/>
<rect x="590" y="430" width="193" height="12" fill="#00f"/>
<line x1="503" y1="436" x2="589" y2="436" stroke="#00f"/>
<rect x="117" y="431" width="161" height="10" fill="#ff0"/>
<text x="20" y="460" class="sm">2.747e-07</text>
<rect x="100" y="450" width="127" height="12" fill="#00f"/>
<rect x="336" y="450" width="447" height="12" fill="#00f"/>
<line x1="227" y1="456" x2="335" y2="456" stroke="#00f"/>
<rect x="441" y="451" width="188" height="10" fill="#ff0"/>
<text x="20" y="480" class="sm">2.547e-07</text>
<rect x="100" y="470" width="174" height="12" fill="#00f"/>
<rect x="497" y="470" width="286" height="12" fill="#00f"/>
<line x1="274" y1="476" x2="496" y2="476" stroke="#00f"/>
<rect x="117" y="471" width="157" height="10" fill="#ff0"/>
<rect x="498" y="471" width="9" height="10" fill="#ff0"/>
<text x="20" y="500" class="sm">2.385e-07</text>
<rect x="100" y="490" width="454" height="12" fill="#00f"/>
<rect x="685" y="490" width="98" height="12" fill="#00f"/>
<line x1="554" y1="496" x2="684" y2="496" stroke="#00f"/>
<rect x="117" y="491" width="161" height="10" fill="#ff0"/>
<text x="20" y="520" class="sm">1.461e-07</text>
<rect x="100" y="510" width="167" height="12" fill="#00f"/>
<rect x="497" y="510" width="286" height="12" fill="#00f"/>
<line x1="267" y1="516" x2="496" y2="516" stroke="#00f"/>
<rect x="117" y="511" width="150" height="10" fill="#ff0"/>
<rect x="498" y="511" width="91" height="10" fill="#ff0"/>
</svg>
