<svg viewBox="0 0 579 525" xmlns="http://www.w3.org/2000/svg">

<style>
  .sm { font: 12px sans-serif; }
  .lg { font: 15px sans-serif; }
</style>
<rect fill="#ddd" x="0" y="0" width="100%" height="100%"/>
<text x="20" y="20" class="lg">ch.6017 II:12678935-12679513 Gene:WBGene00012602</text>
<text x="20" y="50" class="sm">WormBase</text>
<rect x="100" y="40" width="139" height="12" fill="#00f"/>
<rect x="325" y="40" width="154" height="12" fill="#00f"/>
<line x1="239" y1="46" x2="324" y2="46" stroke="#00f"/>
<rect x="102" y="41" width="137" height="10" fill="#ff0"/>
<rect x="326" y="41" width="68" height="10" fill="#ff0"/>
<rect x="101" y="41" width="0" height="10" fill="brown"><title>.</title></rect>
<rect x="395" y="41" width="84" height="10" fill="brown"><title>.</title></rect>
<text x="20" y="70" class="sm">Fitness: 0.0001342923125256116</text>
<rect x="239" y="65" width="86" height="5" fill="#00f"><title>1479470.0</title></rect>
<rect x="245" y="70" width="80" height="5" fill="#00f"><title>183.0</title></rect>
<rect x="259" y="75" width="47" height="5" fill="#f0f"><title>54.0</title></rect>
<rect x="381" y="80" width="93" height="5" fill="#f0f"><title>6.0</title></rect>
<rect x="186" y="85" width="32" height="5" fill="#00f"><title>3.0</title></rect>
<text x="20" y="115" class="sm">0.9999</text>
<rect x="100" y="105" width="139" height="12" fill="#00f"/>
<rect x="325" y="105" width="157" height="12" fill="#00f"/>
<line x1="239" y1="111" x2="324" y2="111" stroke="#00f"/>
<rect x="102" y="106" width="137" height="10" fill="#ff0"/>
<rect x="326" y="106" width="68" height="10" fill="#ff0"/>
<text x="20" y="135" class="sm">5.856e-05</text>
<rect x="100" y="125" width="145" height="12" fill="#00f"/>
<rect x="325" y="125" width="157" height="12" fill="#00f"/>
<line x1="245" y1="131" x2="324" y2="131" stroke="#00f"/>
<rect x="102" y="126" width="143" height="10" fill="#ff0"/>
<rect x="326" y="126" width="68" height="10" fill="#ff0"/>
<text x="20" y="155" class="sm">5.105e-05</text>
<rect x="100" y="145" width="156" height="12" fill="#00f"/>
<rect x="325" y="145" width="157" height="12" fill="#00f"/>
<line x1="256" y1="151" x2="324" y2="151" stroke="#00f"/>
<rect x="102" y="146" width="154" height="10" fill="#ff0"/>
<rect x="326" y="146" width="84" height="10" fill="#ff0"/>
<text x="20" y="175" class="sm">1.018e-05</text>
<rect x="100" y="165" width="139" height="12" fill="#00f"/>
<rect x="368" y="165" width="114" height="12" fill="#00f"/>
<line x1="239" y1="171" x2="367" y2="171" stroke="#00f"/>
<rect x="102" y="166" width="137" height="10" fill="#ff0"/>
<rect x="369" y="166" width="41" height="10" fill="#ff0"/>
<text x="20" y="195" class="sm">1.771e-06</text>
<rect x="100" y="185" width="139" height="12" fill="#00f"/>
<rect x="453" y="185" width="29" height="12" fill="#00f"/>
<line x1="239" y1="191" x2="452" y2="191" stroke="#00f"/>
<rect x="102" y="186" width="137" height="10" fill="#ff0"/>
<rect x="454" y="186" width="5" height="10" fill="#ff0"/>
<text x="20" y="215" class="sm">8.739e-10</text>
<rect x="100" y="205" width="72" height="12" fill="#00f"/>
<rect x="325" y="205" width="157" height="12" fill="#00f"/>
<line x1="172" y1="211" x2="324" y2="211" stroke="#00f"/>
<rect x="102" y="206" width="70" height="10" fill="#ff0"/>
<rect x="326" y="206" width="84" height="10" fill="#ff0"/>
<text x="20" y="235" class="sm">4.174e-10</text>
<rect x="100" y="225" width="145" height="12" fill="#00f"/>
<rect x="368" y="225" width="114" height="12" fill="#00f"/>
<line x1="245" y1="231" x2="367" y2="231" stroke="#00f"/>
<rect x="102" y="226" width="143" height="10" fill="#ff0"/>
<rect x="369" y="226" width="41" height="10" fill="#ff0"/>
<text x="20" y="255" class="sm">3.645e-10</text>
<rect x="100" y="245" width="156" height="12" fill="#00f"/>
<rect x="368" y="245" width="114" height="12" fill="#00f"/>
<line x1="256" y1="251" x2="367" y2="251" stroke="#00f"/>
<rect x="102" y="246" width="154" height="10" fill="#ff0"/>
<rect x="369" y="246" width="54" height="10" fill="#ff0"/>
<text x="20" y="275" class="sm">8.048e-11</text>
<rect x="100" y="265" width="145" height="12" fill="#00f"/>
<rect x="453" y="265" width="29" height="12" fill="#00f"/>
<line x1="245" y1="271" x2="452" y2="271" stroke="#00f"/>
<rect x="102" y="266" width="143" height="10" fill="#ff0"/>
<rect x="454" y="266" width="5" height="10" fill="#ff0"/>
<text x="20" y="295" class="sm">4.648e-11</text>
<rect x="100" y="285" width="156" height="12" fill="#00f"/>
<rect x="453" y="285" width="29" height="12" fill="#00f"/>
<line x1="256" y1="291" x2="452" y2="291" stroke="#00f"/>
<rect x="102" y="286" width="154" height="10" fill="#ff0"/>
<rect x="454" y="286" width="18" height="10" fill="#ff0"/>
<text x="20" y="315" class="sm">2.956e-11</text>
<rect x="100" y="305" width="139" height="12" fill="#00f"/>
<rect x="423" y="305" width="59" height="12" fill="#00f"/>
<line x1="239" y1="311" x2="422" y2="311" stroke="#00f"/>
<rect x="102" y="306" width="137" height="10" fill="#ff0"/>
<rect x="424" y="306" width="29" height="10" fill="#ff0"/>
<text x="20" y="335" class="sm">2.146e-11</text>
<rect x="100" y="325" width="79" height="12" fill="#00f"/>
<rect x="325" y="325" width="157" height="12" fill="#00f"/>
<line x1="179" y1="331" x2="324" y2="331" stroke="#00f"/>
<rect x="102" y="326" width="77" height="10" fill="#ff0"/>
<rect x="326" y="326" width="68" height="10" fill="#ff0"/>
<text x="20" y="355" class="sm">9.976e-12</text>
<rect x="100" y="345" width="139" height="12" fill="#00f"/>
<rect x="358" y="345" width="124" height="12" fill="#00f"/>
<line x1="239" y1="351" x2="357" y2="351" stroke="#00f"/>
<rect x="102" y="346" width="137" height="10" fill="#ff0"/>
<rect x="359" y="346" width="35" height="10" fill="#ff0"/>
<text x="20" y="375" class="sm">1.146e-12</text>
<rect x="100" y="365" width="139" height="12" fill="#00f"/>
<rect x="278" y="365" width="204" height="12" fill="#00f"/>
<line x1="239" y1="371" x2="277" y2="371" stroke="#00f"/>
<rect x="102" y="366" width="137" height="10" fill="#ff0"/>
<rect x="279" y="366" width="14" height="10" fill="#ff0"/>
<text x="20" y="395" class="sm">8.191e-15</text>
<rect x="100" y="385" width="72" height="12" fill="#00f"/>
<rect x="368" y="385" width="114" height="12" fill="#00f"/>
<line x1="172" y1="391" x2="367" y2="391" stroke="#00f"/>
<rect x="102" y="386" width="70" height="10" fill="#ff0"/>
<rect x="369" y="386" width="54" height="10" fill="#ff0"/>
<text x="20" y="415" class="sm">2.036e-15</text>
<rect x="100" y="405" width="72" height="12" fill="#00f"/>
<rect x="453" y="405" width="29" height="12" fill="#00f"/>
<line x1="172" y1="411" x2="452" y2="411" stroke="#00f"/>
<rect x="102" y="406" width="70" height="10" fill="#ff0"/>
<rect x="454" y="406" width="18" height="10" fill="#ff0"/>
<text x="20" y="435" class="sm">1.233e-15</text>
<rect x="100" y="425" width="145" height="12" fill="#00f"/>
<rect x="423" y="425" width="59" height="12" fill="#00f"/>
<line x1="245" y1="431" x2="422" y2="431" stroke="#00f"/>
<rect x="102" y="426" width="143" height="10" fill="#ff0"/>
<rect x="424" y="426" width="29" height="10" fill="#ff0"/>
<text x="20" y="455" class="sm">8.712e-16</text>
<rect x="100" y="445" width="156" height="12" fill="#00f"/>
<rect x="423" y="445" width="59" height="12" fill="#00f"/>
<line x1="256" y1="451" x2="422" y2="451" stroke="#00f"/>
<rect x="102" y="446" width="154" height="10" fill="#ff0"/>
<rect x="424" y="446" width="48" height="10" fill="#ff0"/>
<text x="20" y="475" class="sm">6.831e-16</text>
<rect x="100" y="465" width="139" height="12" fill="#00f"/>
<rect x="361" y="465" width="121" height="12" fill="#00f"/>
<line x1="239" y1="471" x2="360" y2="471" stroke="#00f"/>
<rect x="102" y="466" width="137" height="10" fill="#ff0"/>
<rect x="362" y="466" width="32" height="10" fill="#ff0"/>
<text x="20" y="495" class="sm">5.631e-16</text>
<rect x="100" y="485" width="145" height="12" fill="#00f"/>
<rect x="358" y="485" width="124" height="12" fill="#00f"/>
<line x1="245" y1="491" x2="357" y2="491" stroke="#00f"/>
<rect x="102" y="486" width="143" height="10" fill="#ff0"/>
<rect x="359" y="486" width="35" height="10" fill="#ff0"/>
</svg>
