<svg viewBox="0 0 735 510" xmlns="http://www.w3.org/2000/svg">

<style>
  .sm { font: 12px sans-serif; }
  .lg { font: 15px sans-serif; }
</style>
<rect fill="#ddd" x="0" y="0" width="100%" height="100%"/>
<text x="20" y="20" class="lg">ch.6707 III:1495341-1496075 Gene:WBGene00044341</text>
<text x="20" y="50" class="sm">WormBase</text>
<rect x="102" y="40" width="201" height="12" fill="#00f"/>
<rect x="398" y="40" width="239" height="12" fill="#00f"/>
<line x1="303" y1="46" x2="397" y2="46" stroke="#00f"/>
<rect x="153" y="41" width="150" height="10" fill="#ff0"/>
<rect x="399" y="41" width="157" height="10" fill="#ff0"/>
<rect x="103" y="41" width="49" height="10" fill="brown"><title>.</title></rect>
<rect x="557" y="41" width="80" height="10" fill="brown"><title>.</title></rect>
<text x="20" y="70" class="sm">Fitness: 0.004383042745587046</text>
<rect x="303" y="65" width="95" height="5" fill="#00f"><title>222201.0</title></rect>
<rect x="303" y="70" width="99" height="5" fill="#00f"><title>620.0</title></rect>
<text x="20" y="100" class="sm">0.9983</text>
<rect x="100" y="90" width="203" height="12" fill="#00f"/>
<rect x="398" y="90" width="240" height="12" fill="#00f"/>
<line x1="303" y1="96" x2="397" y2="96" stroke="#00f"/>
<rect x="153" y="91" width="150" height="10" fill="#ff0"/>
<rect x="399" y="91" width="157" height="10" fill="#ff0"/>
<text x="20" y="120" class="sm">0.0008781</text>
<rect x="100" y="110" width="203" height="12" fill="#00f"/>
<rect x="422" y="110" width="216" height="12" fill="#00f"/>
<line x1="303" y1="116" x2="421" y2="116" stroke="#00f"/>
<rect x="153" y="111" width="150" height="10" fill="#ff0"/>
<rect x="423" y="111" width="133" height="10" fill="#ff0"/>
<text x="20" y="140" class="sm">0.000591</text>
<rect x="100" y="130" width="203" height="12" fill="#00f"/>
<rect x="402" y="130" width="236" height="12" fill="#00f"/>
<line x1="303" y1="136" x2="401" y2="136" stroke="#00f"/>
<rect x="153" y="131" width="150" height="10" fill="#ff0"/>
<rect x="403" y="131" width="112" height="10" fill="#ff0"/>
<text x="20" y="160" class="sm">0.0002524</text>
<rect x="100" y="150" width="196" height="12" fill="#00f"/>
<rect x="398" y="150" width="240" height="12" fill="#00f"/>
<line x1="296" y1="156" x2="397" y2="156" stroke="#00f"/>
<rect x="153" y="151" width="143" height="10" fill="#ff0"/>
<rect x="399" y="151" width="116" height="10" fill="#ff0"/>
<text x="20" y="180" class="sm">4.119e-06</text>
<rect x="100" y="170" width="203" height="12" fill="#00f"/>
<rect x="415" y="170" width="223" height="12" fill="#00f"/>
<line x1="303" y1="176" x2="414" y2="176" stroke="#00f"/>
<rect x="153" y="171" width="150" height="10" fill="#ff0"/>
<rect x="416" y="171" width="10" height="10" fill="#ff0"/>
<text x="20" y="200" class="sm">3.795e-06</text>
<rect x="100" y="190" width="203" height="12" fill="#00f"/>
<rect x="404" y="190" width="234" height="12" fill="#00f"/>
<line x1="303" y1="196" x2="403" y2="196" stroke="#00f"/>
<rect x="153" y="191" width="150" height="10" fill="#ff0"/>
<rect x="405" y="191" width="151" height="10" fill="#ff0"/>
<text x="20" y="220" class="sm">1.902e-06</text>
<rect x="100" y="210" width="155" height="12" fill="#00f"/>
<rect x="398" y="210" width="240" height="12" fill="#00f"/>
<line x1="255" y1="216" x2="397" y2="216" stroke="#00f"/>
<rect x="153" y="211" width="102" height="10" fill="#ff0"/>
<rect x="399" y="211" width="157" height="10" fill="#ff0"/>
<text x="20" y="240" class="sm">2.281e-07</text>
<rect x="100" y="230" width="196" height="12" fill="#00f"/>
<rect x="422" y="230" width="216" height="12" fill="#00f"/>
<line x1="296" y1="236" x2="421" y2="236" stroke="#00f"/>
<rect x="153" y="231" width="143" height="10" fill="#ff0"/>
<rect x="423" y="231" width="92" height="10" fill="#ff0"/>
<text x="20" y="260" class="sm">1.53e-07</text>
<rect x="100" y="250" width="196" height="12" fill="#00f"/>
<rect x="402" y="250" width="236" height="12" fill="#00f"/>
<line x1="296" y1="256" x2="401" y2="256" stroke="#00f"/>
<rect x="153" y="251" width="143" height="10" fill="#ff0"/>
<rect x="403" y="251" width="23" height="10" fill="#ff0"/>
<text x="20" y="280" class="sm">1.242e-07</text>
<rect x="100" y="270" width="203" height="12" fill="#00f"/>
<rect x="507" y="270" width="131" height="12" fill="#00f"/>
<line x1="303" y1="276" x2="506" y2="276" stroke="#00f"/>
<rect x="153" y="271" width="150" height="10" fill="#ff0"/>
<rect x="508" y="271" width="7" height="10" fill="#ff0"/>
<text x="20" y="300" class="sm">1.894e-08</text>
<rect x="100" y="290" width="203" height="12" fill="#00f"/>
<rect x="446" y="290" width="192" height="12" fill="#00f"/>
<line x1="303" y1="296" x2="445" y2="296" stroke="#00f"/>
<rect x="153" y="291" width="150" height="10" fill="#ff0"/>
<rect x="447" y="291" width="109" height="10" fill="#ff0"/>
<text x="20" y="320" class="sm">3.835e-09</text>
<rect x="100" y="310" width="132" height="12" fill="#00f"/>
<rect x="398" y="310" width="240" height="12" fill="#00f"/>
<line x1="232" y1="316" x2="397" y2="316" stroke="#00f"/>
<rect x="416" y="311" width="140" height="10" fill="#ff0"/>
<text x="20" y="340" class="sm">2.901e-09</text>
<rect x="100" y="330" width="203" height="12" fill="#00f"/>
<rect x="515" y="330" width="123" height="12" fill="#00f"/>
<line x1="303" y1="336" x2="514" y2="336" stroke="#00f"/>
<rect x="153" y="331" width="150" height="10" fill="#ff0"/>
<rect x="516" y="331" width="40" height="10" fill="#ff0"/>
<text x="20" y="360" class="sm">1.701e-09</text>
<rect x="100" y="350" width="155" height="12" fill="#00f"/>
<rect x="422" y="350" width="216" height="12" fill="#00f"/>
<line x1="255" y1="356" x2="421" y2="356" stroke="#00f"/>
<rect x="153" y="351" width="102" height="10" fill="#ff0"/>
<rect x="423" y="351" width="133" height="10" fill="#ff0"/>
<text x="20" y="380" class="sm">1.513e-09</text>
<rect x="100" y="370" width="73" height="12" fill="#00f"/>
<rect x="398" y="370" width="240" height="12" fill="#00f"/>
<line x1="173" y1="376" x2="397" y2="376" stroke="#00f"/>
<rect x="416" y="371" width="140" height="10" fill="#ff0"/>
<text x="20" y="400" class="sm">1.105e-09</text>
<rect x="100" y="390" width="155" height="12" fill="#00f"/>
<rect x="402" y="390" width="236" height="12" fill="#00f"/>
<line x1="255" y1="396" x2="401" y2="396" stroke="#00f"/>
<rect x="153" y="391" width="102" height="10" fill="#ff0"/>
<rect x="403" y="391" width="112" height="10" fill="#ff0"/>
<text x="20" y="420" class="sm">1.058e-09</text>
<rect x="100" y="410" width="124" height="12" fill="#00f"/>
<rect x="398" y="410" width="240" height="12" fill="#00f"/>
<line x1="224" y1="416" x2="397" y2="416" stroke="#00f"/>
<rect x="153" y="411" width="71" height="10" fill="#ff0"/>
<rect x="399" y="411" width="116" height="10" fill="#ff0"/>
<text x="20" y="440" class="sm">9.973e-10</text>
<rect x="100" y="430" width="196" height="12" fill="#00f"/>
<rect x="415" y="430" width="223" height="12" fill="#00f"/>
<line x1="296" y1="436" x2="414" y2="436" stroke="#00f"/>
<rect x="153" y="431" width="143" height="10" fill="#ff0"/>
<rect x="416" y="431" width="140" height="10" fill="#ff0"/>
<text x="20" y="460" class="sm">9.946e-10</text>
<rect x="100" y="450" width="196" height="12" fill="#00f"/>
<rect x="404" y="450" width="234" height="12" fill="#00f"/>
<line x1="296" y1="456" x2="403" y2="456" stroke="#00f"/>
<rect x="153" y="451" width="143" height="10" fill="#ff0"/>
<rect x="405" y="451" width="110" height="10" fill="#ff0"/>
<text x="20" y="480" class="sm">2.85e-10</text>
<rect x="100" y="470" width="82" height="12" fill="#00f"/>
<rect x="398" y="470" width="240" height="12" fill="#00f"/>
<line x1="182" y1="476" x2="397" y2="476" stroke="#00f"/>
<rect x="153" y="471" width="29" height="10" fill="#ff0"/>
<rect x="399" y="471" width="116" height="10" fill="#ff0"/>
</svg>
