<svg viewBox="0 0 721 530" xmlns="http://www.w3.org/2000/svg">

<style>
  .sm { font: 12px sans-serif; }
  .lg { font: 15px sans-serif; }
</style>
<rect fill="#ddd" x="0" y="0" width="100%" height="100%"/>
<text x="20" y="20" class="lg">ch.6294 II:14348786-14349506 Gene:WBGene00185067</text>
<text x="20" y="50" class="sm">WormBase</text>
<rect x="102" y="40" width="165" height="12" fill="#00f"/>
<rect x="313" y="40" width="310" height="12" fill="#00f"/>
<line x1="267" y1="46" x2="312" y2="46" stroke="#00f"/>
<rect x="103" y="41" width="164" height="10" fill="#ff0"/>
<rect x="314" y="41" width="209" height="10" fill="#ff0"/>
<rect x="524" y="41" width="99" height="10" fill="brown"><title>.</title></rect>
<text x="20" y="70" class="sm">Fitness: 0.00010530811424035844</text>
<rect x="267" y="65" width="46" height="5" fill="#00f"><title>630349.0</title></rect>
<rect x="267" y="70" width="38" height="5" fill="#00f"><title>77.0</title></rect>
<rect x="169" y="75" width="66" height="5" fill="#f0f"><title>19.0</title></rect>
<rect x="228" y="80" width="85" height="5" fill="#00f"><title>12.0</title></rect>
<rect x="505" y="85" width="165" height="5" fill="#f0f"><title>5.0</title></rect>
<rect x="372" y="90" width="41" height="5" fill="#f0f"><title>3.0</title></rect>
<text x="20" y="120" class="sm">0.9999</text>
<rect x="100" y="110" width="167" height="12" fill="#00f"/>
<rect x="313" y="110" width="311" height="12" fill="#00f"/>
<line x1="267" y1="116" x2="312" y2="116" stroke="#00f"/>
<rect x="103" y="111" width="164" height="10" fill="#ff0"/>
<rect x="314" y="111" width="209" height="10" fill="#ff0"/>
<text x="20" y="140" class="sm">9.236e-05</text>
<rect x="100" y="130" width="167" height="12" fill="#00f"/>
<rect x="305" y="130" width="319" height="12" fill="#00f"/>
<line x1="267" y1="136" x2="304" y2="136" stroke="#00f"/>
<rect x="103" y="131" width="164" height="10" fill="#ff0"/>
<rect x="306" y="131" width="116" height="10" fill="#ff0"/>
<text x="20" y="160" class="sm">1.545e-05</text>
<rect x="100" y="150" width="167" height="12" fill="#00f"/>
<rect x="596" y="150" width="28" height="12" fill="#00f"/>
<line x1="267" y1="156" x2="595" y2="156" stroke="#00f"/>
<rect x="103" y="151" width="164" height="10" fill="#ff0"/>
<rect x="597" y="151" width="11" height="10" fill="#ff0"/>
<text x="20" y="180" class="sm">1.484e-05</text>
<rect x="100" y="170" width="167" height="12" fill="#00f"/>
<rect x="338" y="170" width="286" height="12" fill="#00f"/>
<line x1="267" y1="176" x2="337" y2="176" stroke="#00f"/>
<rect x="103" y="171" width="164" height="10" fill="#ff0"/>
<rect x="339" y="171" width="83" height="10" fill="#ff0"/>
<text x="20" y="200" class="sm">8.802e-06</text>
<rect x="100" y="190" width="160" height="12" fill="#00f"/>
<rect x="313" y="190" width="311" height="12" fill="#00f"/>
<line x1="260" y1="196" x2="312" y2="196" stroke="#00f"/>
<rect x="103" y="191" width="157" height="10" fill="#ff0"/>
<rect x="314" y="191" width="108" height="10" fill="#ff0"/>
<text x="20" y="220" class="sm">3.503e-06</text>
<rect x="100" y="210" width="167" height="12" fill="#00f"/>
<rect x="385" y="210" width="239" height="12" fill="#00f"/>
<line x1="267" y1="216" x2="384" y2="216" stroke="#00f"/>
<rect x="103" y="211" width="164" height="10" fill="#ff0"/>
<rect x="386" y="211" width="137" height="10" fill="#ff0"/>
<text x="20" y="240" class="sm">2.832e-06</text>
<rect x="100" y="230" width="128" height="12" fill="#00f"/>
<rect x="272" y="230" width="352" height="12" fill="#00f"/>
<line x1="228" y1="236" x2="271" y2="236" stroke="#00f"/>
<rect x="103" y="231" width="125" height="10" fill="#ff0"/>
<rect x="273" y="231" width="149" height="10" fill="#ff0"/>
<text x="20" y="260" class="sm">2.812e-06</text>
<rect x="100" y="250" width="107" height="12" fill="#00f"/>
<rect x="259" y="250" width="365" height="12" fill="#00f"/>
<line x1="207" y1="256" x2="258" y2="256" stroke="#00f"/>
<rect x="103" y="251" width="104" height="10" fill="#ff0"/>
<rect x="260" y="251" width="5" height="10" fill="#ff0"/>
<text x="20" y="280" class="sm">1.408e-06</text>
<rect x="100" y="270" width="167" height="12" fill="#00f"/>
<rect x="302" y="270" width="322" height="12" fill="#00f"/>
<line x1="267" y1="276" x2="301" y2="276" stroke="#00f"/>
<rect x="103" y="271" width="164" height="10" fill="#ff0"/>
<rect x="303" y="271" width="119" height="10" fill="#ff0"/>
<text x="20" y="300" class="sm">8.081e-07</text>
<rect x="100" y="290" width="167" height="12" fill="#00f"/>
<rect x="496" y="290" width="128" height="12" fill="#00f"/>
<line x1="267" y1="296" x2="495" y2="296" stroke="#00f"/>
<rect x="103" y="291" width="164" height="10" fill="#ff0"/>
<rect x="497" y="291" width="26" height="10" fill="#ff0"/>
<text x="20" y="320" class="sm">6.39e-07</text>
<rect x="100" y="310" width="167" height="12" fill="#00f"/>
<rect x="424" y="310" width="200" height="12" fill="#00f"/>
<line x1="267" y1="316" x2="423" y2="316" stroke="#00f"/>
<rect x="103" y="311" width="164" height="10" fill="#ff0"/>
<rect x="425" y="311" width="98" height="10" fill="#ff0"/>
<text x="20" y="340" class="sm">5.25e-07</text>
<rect x="100" y="330" width="128" height="12" fill="#00f"/>
<rect x="313" y="330" width="311" height="12" fill="#00f"/>
<line x1="228" y1="336" x2="312" y2="336" stroke="#00f"/>
<rect x="103" y="331" width="125" height="10" fill="#ff0"/>
<rect x="314" y="331" width="209" height="10" fill="#ff0"/>
<text x="20" y="360" class="sm">4.3e-07</text>
<rect x="100" y="350" width="160" height="12" fill="#00f"/>
<rect x="302" y="350" width="322" height="12" fill="#00f"/>
<line x1="260" y1="356" x2="301" y2="356" stroke="#00f"/>
<rect x="103" y="351" width="157" height="10" fill="#ff0"/>
<rect x="303" y="351" width="21" height="10" fill="#ff0"/>
<text x="20" y="380" class="sm">4.15e-07</text>
<rect x="100" y="370" width="167" height="12" fill="#00f"/>
<rect x="415" y="370" width="209" height="12" fill="#00f"/>
<line x1="267" y1="376" x2="414" y2="376" stroke="#00f"/>
<rect x="103" y="371" width="164" height="10" fill="#ff0"/>
<rect x="416" y="371" width="107" height="10" fill="#ff0"/>
<text x="20" y="400" class="sm">1.582e-07</text>
<rect x="100" y="390" width="160" height="12" fill="#00f"/>
<rect x="305" y="390" width="319" height="12" fill="#00f"/>
<line x1="260" y1="396" x2="304" y2="396" stroke="#00f"/>
<rect x="103" y="391" width="157" height="10" fill="#ff0"/>
<rect x="306" y="391" width="18" height="10" fill="#ff0"/>
<text x="20" y="420" class="sm">1.151e-07</text>
<rect x="100" y="410" width="167" height="12" fill="#00f"/>
<rect x="438" y="410" width="186" height="12" fill="#00f"/>
<line x1="267" y1="416" x2="437" y2="416" stroke="#00f"/>
<rect x="103" y="411" width="164" height="10" fill="#ff0"/>
<rect x="439" y="411" width="77" height="10" fill="#ff0"/>
<text x="20" y="440" class="sm">8.3e-08</text>
<rect x="100" y="430" width="107" height="12" fill="#00f"/>
<rect x="313" y="430" width="311" height="12" fill="#00f"/>
<line x1="207" y1="436" x2="312" y2="436" stroke="#00f"/>
<rect x="103" y="431" width="104" height="10" fill="#ff0"/>
<rect x="314" y="431" width="209" height="10" fill="#ff0"/>
<text x="20" y="460" class="sm">7.008e-08</text>
<rect x="100" y="450" width="128" height="12" fill="#00f"/>
<rect x="302" y="450" width="322" height="12" fill="#00f"/>
<line x1="228" y1="456" x2="301" y2="456" stroke="#00f"/>
<rect x="103" y="451" width="125" height="10" fill="#ff0"/>
<rect x="303" y="451" width="119" height="10" fill="#ff0"/>
<text x="20" y="480" class="sm">6.588e-08</text>
<rect x="100" y="470" width="167" height="12" fill="#00f"/>
<rect x="433" y="470" width="191" height="12" fill="#00f"/>
<line x1="267" y1="476" x2="432" y2="476" stroke="#00f"/>
<rect x="103" y="471" width="164" height="10" fill="#ff0"/>
<rect x="434" y="471" width="89" height="10" fill="#ff0"/>
<text x="20" y="500" class="sm">5.76e-08</text>
<rect x="100" y="490" width="372" height="12" fill="#00f"/>
<rect x="596" y="490" width="28" height="12" fill="#00f"/>
<line x1="472" y1="496" x2="595" y2="496" stroke="#00f"/>
<rect x="103" y="491" width="191" height="10" fill="#ff0"/>
</svg>
