<svg viewBox="0 0 621 520" xmlns="http://www.w3.org/2000/svg">

<style>
  .sm { font: 12px sans-serif; }
  .lg { font: 15px sans-serif; }
</style>
<rect fill="#ddd" x="0" y="0" width="100%" height="100%"/>
<text x="20" y="20" class="lg">ch.6233 II:13981265-13981885 Gene:WBGene00012728</text>
<text x="20" y="50" class="sm">WormBase</text>
<rect x="100" y="40" width="139" height="12" fill="#00f"/>
<rect x="293" y="40" width="228" height="12" fill="#00f"/>
<line x1="239" y1="46" x2="292" y2="46" stroke="#00f"/>
<rect x="112" y="41" width="127" height="10" fill="#ff0"/>
<rect x="294" y="41" width="192" height="10" fill="#ff0"/>
<rect x="101" y="41" width="10" height="10" fill="brown"><title>.</title></rect>
<rect x="487" y="41" width="34" height="10" fill="brown"><title>.</title></rect>
<text x="20" y="70" class="sm">Fitness: 1.2395824901571374e-10</text>
<rect x="239" y="65" width="54" height="5" fill="#00f"><title>1075180.0</title></rect>
<rect x="320" y="70" width="54" height="5" fill="#f0f"><title>30.0</title></rect>
<rect x="239" y="75" width="45" height="5" fill="#f0f"><title>27.0</title></rect>
<rect x="209" y="80" width="165" height="5" fill="#f0f"><title>23.0</title></rect>
<text x="20" y="110" class="sm">1.0</text>
<rect x="100" y="100" width="139" height="12" fill="#00f"/>
<rect x="293" y="100" width="231" height="12" fill="#00f"/>
<line x1="239" y1="106" x2="292" y2="106" stroke="#00f"/>
<rect x="112" y="101" width="127" height="10" fill="#ff0"/>
<rect x="294" y="101" width="192" height="10" fill="#ff0"/>
<text x="20" y="130" class="sm">6.057e-11</text>
<rect x="100" y="120" width="143" height="12" fill="#00f"/>
<rect x="293" y="120" width="231" height="12" fill="#00f"/>
<line x1="243" y1="126" x2="292" y2="126" stroke="#00f"/>
<rect x="112" y="121" width="131" height="10" fill="#ff0"/>
<text x="20" y="150" class="sm">9.806e-13</text>
<rect x="100" y="140" width="139" height="12" fill="#00f"/>
<rect x="357" y="140" width="167" height="12" fill="#00f"/>
<line x1="239" y1="146" x2="356" y2="146" stroke="#00f"/>
<rect x="112" y="141" width="127" height="10" fill="#ff0"/>
<rect x="358" y="141" width="63" height="10" fill="#ff0"/>
<text x="20" y="170" class="sm">2.599e-13</text>
<rect x="100" y="160" width="152" height="12" fill="#00f"/>
<rect x="293" y="160" width="231" height="12" fill="#00f"/>
<line x1="252" y1="166" x2="292" y2="166" stroke="#00f"/>
<rect x="112" y="161" width="131" height="10" fill="#ff0"/>
<text x="20" y="190" class="sm">7.146e-14</text>
<rect x="100" y="180" width="101" height="12" fill="#00f"/>
<rect x="293" y="180" width="231" height="12" fill="#00f"/>
<line x1="201" y1="186" x2="292" y2="186" stroke="#00f"/>
<rect x="112" y="181" width="89" height="10" fill="#ff0"/>
<rect x="294" y="181" width="116" height="10" fill="#ff0"/>
<text x="20" y="210" class="sm">4.027e-14</text>
<rect x="100" y="200" width="38" height="12" fill="#00f"/>
<rect x="293" y="200" width="231" height="12" fill="#00f"/>
<line x1="138" y1="206" x2="292" y2="206" stroke="#00f"/>
<rect x="112" y="201" width="26" height="10" fill="#ff0"/>
<rect x="294" y="201" width="116" height="10" fill="#ff0"/>
<text x="20" y="230" class="sm">3.038e-14</text>
<rect x="100" y="220" width="111" height="12" fill="#00f"/>
<rect x="293" y="220" width="231" height="12" fill="#00f"/>
<line x1="211" y1="226" x2="292" y2="226" stroke="#00f"/>
<rect x="112" y="221" width="99" height="10" fill="#ff0"/>
<rect x="294" y="221" width="7" height="10" fill="#ff0"/>
<text x="20" y="250" class="sm">1.985e-14</text>
<rect x="100" y="240" width="139" height="12" fill="#00f"/>
<rect x="293" y="240" width="106" height="12" fill="#00f"/>
<rect x="456" y="240" width="68" height="12" fill="#00f"/>
<line x1="239" y1="246" x2="292" y2="246" stroke="#00f"/>
<line x1="399" y1="246" x2="455" y2="246" stroke="#00f"/>
<rect x="112" y="241" width="127" height="10" fill="#ff0"/>
<rect x="294" y="241" width="105" height="10" fill="#ff0"/>
<rect x="457" y="241" width="29" height="10" fill="#ff0"/>
<text x="20" y="270" class="sm">6.516e-15</text>
<rect x="100" y="260" width="38" height="12" fill="#00f"/>
<rect x="180" y="260" width="59" height="12" fill="#00f"/>
<rect x="293" y="260" width="231" height="12" fill="#00f"/>
<line x1="138" y1="266" x2="179" y2="266" stroke="#00f"/>
<line x1="239" y1="266" x2="292" y2="266" stroke="#00f"/>
<rect x="112" y="261" width="26" height="10" fill="#ff0"/>
<rect x="181" y="261" width="58" height="10" fill="#ff0"/>
<rect x="294" y="261" width="192" height="10" fill="#ff0"/>
<text x="20" y="290" class="sm">3.088e-16</text>
<rect x="100" y="280" width="139" height="12" fill="#00f"/>
<rect x="293" y="280" width="106" height="12" fill="#00f"/>
<rect x="445" y="280" width="79" height="12" fill="#00f"/>
<line x1="239" y1="286" x2="292" y2="286" stroke="#00f"/>
<line x1="399" y1="286" x2="444" y2="286" stroke="#00f"/>
<rect x="112" y="281" width="127" height="10" fill="#ff0"/>
<rect x="294" y="281" width="105" height="10" fill="#ff0"/>
<rect x="446" y="281" width="29" height="10" fill="#ff0"/>
<text x="20" y="310" class="sm">7.685e-17</text>
<rect x="100" y="300" width="38" height="12" fill="#00f"/>
<rect x="183" y="300" width="56" height="12" fill="#00f"/>
<rect x="293" y="300" width="231" height="12" fill="#00f"/>
<line x1="138" y1="306" x2="182" y2="306" stroke="#00f"/>
<line x1="239" y1="306" x2="292" y2="306" stroke="#00f"/>
<rect x="112" y="301" width="26" height="10" fill="#ff0"/>
<rect x="184" y="301" width="55" height="10" fill="#ff0"/>
<rect x="294" y="301" width="192" height="10" fill="#ff0"/>
<text x="20" y="330" class="sm">1.995e-17</text>
<rect x="100" y="320" width="139" height="12" fill="#00f"/>
<rect x="293" y="320" width="106" height="12" fill="#00f"/>
<rect x="460" y="320" width="64" height="12" fill="#00f"/>
<line x1="239" y1="326" x2="292" y2="326" stroke="#00f"/>
<line x1="399" y1="326" x2="459" y2="326" stroke="#00f"/>
<rect x="112" y="321" width="127" height="10" fill="#ff0"/>
<rect x="294" y="321" width="105" height="10" fill="#ff0"/>
<rect x="461" y="321" width="14" height="10" fill="#ff0"/>
<text x="20" y="350" class="sm">3.607e-19</text>
<rect x="100" y="340" width="38" height="12" fill="#00f"/>
<rect x="195" y="340" width="44" height="12" fill="#00f"/>
<rect x="293" y="340" width="231" height="12" fill="#00f"/>
<line x1="138" y1="346" x2="194" y2="346" stroke="#00f"/>
<line x1="239" y1="346" x2="292" y2="346" stroke="#00f"/>
<rect x="112" y="341" width="26" height="10" fill="#ff0"/>
<rect x="196" y="341" width="43" height="10" fill="#ff0"/>
<rect x="294" y="341" width="192" height="10" fill="#ff0"/>
<text x="20" y="370" class="sm">3.107e-19</text>
<rect x="100" y="360" width="47" height="12" fill="#00f"/>
<rect x="293" y="360" width="231" height="12" fill="#00f"/>
<line x1="147" y1="366" x2="292" y2="366" stroke="#00f"/>
<rect x="112" y="361" width="35" height="10" fill="#ff0"/>
<rect x="294" y="361" width="116" height="10" fill="#ff0"/>
<text x="20" y="390" class="sm">1.303e-19</text>
<rect x="100" y="380" width="139" height="12" fill="#00f"/>
<rect x="293" y="380" width="106" height="12" fill="#00f"/>
<rect x="447" y="380" width="77" height="12" fill="#00f"/>
<line x1="239" y1="386" x2="292" y2="386" stroke="#00f"/>
<line x1="399" y1="386" x2="446" y2="386" stroke="#00f"/>
<rect x="112" y="381" width="127" height="10" fill="#ff0"/>
<rect x="294" y="381" width="105" height="10" fill="#ff0"/>
<rect x="448" y="381" width="38" height="10" fill="#ff0"/>
<text x="20" y="410" class="sm">4.675e-20</text>
<rect x="100" y="400" width="139" height="12" fill="#00f"/>
<rect x="293" y="400" width="120" height="12" fill="#00f"/>
<rect x="456" y="400" width="68" height="12" fill="#00f"/>
<line x1="239" y1="406" x2="292" y2="406" stroke="#00f"/>
<line x1="413" y1="406" x2="455" y2="406" stroke="#00f"/>
<rect x="112" y="401" width="127" height="10" fill="#ff0"/>
<rect x="294" y="401" width="119" height="10" fill="#ff0"/>
<rect x="457" y="401" width="18" height="10" fill="#ff0"/>
<text x="20" y="430" class="sm">4.364e-20</text>
<rect x="100" y="420" width="38" height="12" fill="#00f"/>
<rect x="180" y="420" width="344" height="12" fill="#00f"/>
<line x1="138" y1="426" x2="179" y2="426" stroke="#00f"/>
<rect x="112" y="421" width="26" height="10" fill="#ff0"/>
<rect x="181" y="421" width="62" height="10" fill="#ff0"/>
<text x="20" y="450" class="sm">2.737e-20</text>
<rect x="100" y="440" width="299" height="12" fill="#00f"/>
<rect x="456" y="440" width="68" height="12" fill="#00f"/>
<line x1="399" y1="446" x2="455" y2="446" stroke="#00f"/>
<rect x="112" y="441" width="131" height="10" fill="#ff0"/>
<text x="20" y="470" class="sm">1.436e-20</text>
<rect x="100" y="460" width="139" height="12" fill="#00f"/>
<rect x="293" y="460" width="83" height="12" fill="#00f"/>
<rect x="414" y="460" width="110" height="12" fill="#00f"/>
<line x1="239" y1="466" x2="292" y2="466" stroke="#00f"/>
<line x1="376" y1="466" x2="413" y2="466" stroke="#00f"/>
<rect x="112" y="461" width="127" height="10" fill="#ff0"/>
<rect x="294" y="461" width="82" height="10" fill="#ff0"/>
<rect x="415" y="461" width="40" height="10" fill="#ff0"/>
<text x="20" y="490" class="sm">8.084e-22</text>
<rect x="100" y="480" width="38" height="12" fill="#00f"/>
<rect x="183" y="480" width="341" height="12" fill="#00f"/>
<line x1="138" y1="486" x2="182" y2="486" stroke="#00f"/>
<rect x="112" y="481" width="26" height="10" fill="#ff0"/>
<rect x="184" y="481" width="59" height="10" fill="#ff0"/>
</svg>
