<svg viewBox="0 0 874 780" xmlns="http://www.w3.org/2000/svg">

<style>
  .sm { font: 12px sans-serif; }
  .lg { font: 15px sans-serif; }
</style>
<rect fill="#ddd" x="0" y="0" width="100%" height="100%"/>
<text x="20" y="20" class="lg">ch.6702 III:1419096-1419969 Gene:WBGene00022336</text>
<text x="20" y="50" class="sm">WormBase</text>
<rect x="100" y="40" width="66" height="12" fill="#00f"/>
<rect x="235" y="40" width="443" height="12" fill="#00f"/>
<line x1="166" y1="46" x2="234" y2="46" stroke="#00f"/>
<rect x="122" y="41" width="44" height="10" fill="#ff0"/>
<rect x="236" y="41" width="305" height="10" fill="#ff0"/>
<rect x="101" y="41" width="20" height="10" fill="brown"><title>.</title></rect>
<rect x="542" y="41" width="136" height="10" fill="brown"><title>.</title></rect>
<text x="20" y="70" class="sm">WormBase</text>
<rect x="106" y="60" width="60" height="12" fill="#00f"/>
<rect x="235" y="60" width="539" height="12" fill="#00f"/>
<line x1="166" y1="66" x2="234" y2="66" stroke="#00f"/>
<rect x="122" y="61" width="44" height="10" fill="#ff0"/>
<rect x="236" y="61" width="305" height="10" fill="#ff0"/>
<rect x="107" y="61" width="14" height="10" fill="brown"><title>.</title></rect>
<rect x="542" y="61" width="232" height="10" fill="brown"><title>.</title></rect>
<text x="20" y="90" class="sm">Fitness: 7.393738060740714e-05</text>
<rect x="166" y="85" width="69" height="5" fill="#00f"><title>19364600.0</title></rect>
<rect x="173" y="90" width="70" height="5" fill="#00f"><title>305.0</title></rect>
<rect x="472" y="95" width="57" height="5" fill="#00f"><title>98.0</title></rect>
<rect x="136" y="100" width="161" height="5" fill="#f0f"><title>83.0</title></rect>
<rect x="535" y="105" width="71" height="5" fill="#f0f"><title>74.0</title></rect>
<rect x="166" y="110" width="48" height="5" fill="#00f"><title>58.0</title></rect>
<rect x="269" y="115" width="26" height="5" fill="#00f"><title>54.0</title></rect>
<rect x="166" y="120" width="77" height="5" fill="#00f"><title>50.0</title></rect>
<rect x="170" y="125" width="65" height="5" fill="#00f"><title>46.0</title></rect>
<rect x="173" y="130" width="62" height="5" fill="#00f"><title>33.0</title></rect>
<rect x="460" y="135" width="27" height="5" fill="#00f"><title>30.0</title></rect>
<rect x="698" y="140" width="114" height="5" fill="#00f"><title>30.0</title></rect>
<rect x="163" y="145" width="174" height="5" fill="#f0f"><title>26.0</title></rect>
<rect x="173" y="150" width="72" height="5" fill="#00f"><title>25.0</title></rect>
<rect x="296" y="155" width="57" height="5" fill="#00f"><title>25.0</title></rect>
<rect x="163" y="160" width="153" height="5" fill="#f0f"><title>22.0</title></rect>
<rect x="274" y="165" width="90" height="5" fill="#00f"><title>20.0</title></rect>
<rect x="438" y="170" width="72" height="5" fill="#00f"><title>15.0</title></rect>
<rect x="379" y="175" width="108" height="5" fill="#00f"><title>13.0</title></rect>
<rect x="163" y="180" width="88" height="5" fill="#f0f"><title>11.0</title></rect>
<rect x="170" y="185" width="174" height="5" fill="#00f"><title>11.0</title></rect>
<rect x="136" y="190" width="150" height="5" fill="#f0f"><title>10.0</title></rect>
<rect x="280" y="195" width="27" height="5" fill="#00f"><title>8.0</title></rect>
<rect x="325" y="200" width="27" height="5" fill="#00f"><title>8.0</title></rect>
<rect x="409" y="205" width="78" height="5" fill="#00f"><title>7.0</title></rect>
<rect x="436" y="210" width="74" height="5" fill="#f0f"><title>7.0</title></rect>
<rect x="277" y="215" width="361" height="5" fill="#00f"><title>6.0</title></rect>
<rect x="537" y="220" width="236" height="5" fill="#f0f"><title>6.0</title></rect>
<rect x="160" y="225" width="197" height="5" fill="#f0f"><title>5.0</title></rect>
<rect x="166" y="230" width="79" height="5" fill="#00f"><title>5.0</title></rect>
<rect x="166" y="235" width="276" height="5" fill="#00f"><title>5.0</title></rect>
<rect x="409" y="240" width="33" height="5" fill="#00f"><title>5.0</title></rect>
<rect x="436" y="245" width="191" height="5" fill="#f0f"><title>5.0</title></rect>
<rect x="453" y="250" width="44" height="5" fill="#f0f"><title>5.0</title></rect>
<rect x="136" y="255" width="164" height="5" fill="#f0f"><title>4.0</title></rect>
<rect x="284" y="260" width="41" height="5" fill="#00f"><title>4.0</title></rect>
<rect x="296" y="265" width="27" height="5" fill="#00f"><title>4.0</title></rect>
<rect x="338" y="270" width="309" height="5" fill="#00f"><title>4.0</title></rect>
<rect x="344" y="275" width="30" height="5" fill="#00f"><title>4.0</title></rect>
<rect x="394" y="280" width="54" height="5" fill="#00f"><title>4.0</title></rect>
<rect x="394" y="285" width="237" height="5" fill="#00f"><title>4.0</title></rect>
<rect x="537" y="290" width="97" height="5" fill="#f0f"><title>4.0</title></rect>
<rect x="576" y="295" width="55" height="5" fill="#00f"><title>4.0</title></rect>
<rect x="148" y="300" width="189" height="5" fill="#f0f"><title>3.0</title></rect>
<rect x="170" y="305" width="73" height="5" fill="#00f"><title>3.0</title></rect>
<rect x="266" y="310" width="307" height="5" fill="#00f"><title>3.0</title></rect>
<rect x="278" y="315" width="38" height="5" fill="#f0f"><title>3.0</title></rect>
<rect x="306" y="320" width="50" height="5" fill="#00f"><title>3.0</title></rect>
<rect x="359" y="325" width="39" height="5" fill="#00f"><title>3.0</title></rect>
<rect x="364" y="330" width="78" height="5" fill="#00f"><title>3.0</title></rect>
<rect x="453" y="335" width="36" height="5" fill="#f0f"><title>3.0</title></rect>
<rect x="553" y="340" width="74" height="5" fill="#00f"><title>3.0</title></rect>
<text x="20" y="370" class="sm">1.0</text>
<rect x="100" y="360" width="66" height="12" fill="#00f"/>
<rect x="235" y="360" width="542" height="12" fill="#00f"/>
<line x1="166" y1="366" x2="234" y2="366" stroke="#00f"/>
<rect x="122" y="361" width="44" height="10" fill="#ff0"/>
<rect x="236" y="361" width="305" height="10" fill="#ff0"/>
<text x="20" y="390" class="sm">1.241e-05</text>
<rect x="100" y="380" width="94" height="12" fill="#00f"/>
<rect x="235" y="380" width="542" height="12" fill="#00f"/>
<line x1="194" y1="386" x2="234" y2="386" stroke="#00f"/>
<rect x="263" y="381" width="278" height="10" fill="#ff0"/>
<text x="20" y="410" class="sm">6.793e-06</text>
<rect x="100" y="400" width="70" height="12" fill="#00f"/>
<rect x="235" y="400" width="542" height="12" fill="#00f"/>
<line x1="170" y1="406" x2="234" y2="406" stroke="#00f"/>
<rect x="263" y="401" width="278" height="10" fill="#ff0"/>
<text x="20" y="430" class="sm">5.706e-06</text>
<rect x="100" y="420" width="534" height="12" fill="#00f"/>
<rect x="676" y="420" width="101" height="12" fill="#00f"/>
<line x1="634" y1="426" x2="675" y2="426" stroke="#00f"/>
<rect x="263" y="421" width="278" height="10" fill="#ff0"/>
<text x="20" y="450" class="sm">5.353e-06</text>
<rect x="100" y="440" width="66" height="12" fill="#00f"/>
<rect x="214" y="440" width="563" height="12" fill="#00f"/>
<line x1="166" y1="446" x2="213" y2="446" stroke="#00f"/>
<rect x="122" y="441" width="44" height="10" fill="#ff0"/>
<rect x="215" y="441" width="326" height="10" fill="#ff0"/>
<text x="20" y="470" class="sm">5.164e-06</text>
<rect x="100" y="460" width="66" height="12" fill="#00f"/>
<rect x="243" y="460" width="534" height="12" fill="#00f"/>
<line x1="166" y1="466" x2="242" y2="466" stroke="#00f"/>
<rect x="263" y="461" width="278" height="10" fill="#ff0"/>
<text x="20" y="490" class="sm">2.926e-06</text>
<rect x="100" y="480" width="534" height="12" fill="#00f"/>
<rect x="719" y="480" width="58" height="12" fill="#00f"/>
<line x1="634" y1="486" x2="718" y2="486" stroke="#00f"/>
<rect x="263" y="481" width="278" height="10" fill="#ff0"/>
<text x="20" y="510" class="sm">2.728e-06</text>
<rect x="100" y="500" width="564" height="12" fill="#00f"/>
<rect x="719" y="500" width="58" height="12" fill="#00f"/>
<line x1="664" y1="506" x2="718" y2="506" stroke="#00f"/>
<rect x="263" y="501" width="278" height="10" fill="#ff0"/>
<text x="20" y="530" class="sm">1.782e-06</text>
<rect x="100" y="520" width="73" height="12" fill="#00f"/>
<rect x="235" y="520" width="542" height="12" fill="#00f"/>
<line x1="173" y1="526" x2="234" y2="526" stroke="#00f"/>
<rect x="263" y="521" width="278" height="10" fill="#ff0"/>
<text x="20" y="550" class="sm">1.729e-06</text>
<rect x="100" y="540" width="66" height="12" fill="#00f"/>
<rect x="294" y="540" width="483" height="12" fill="#00f"/>
<line x1="166" y1="546" x2="293" y2="546" stroke="#00f"/>
<rect x="122" y="541" width="44" height="10" fill="#ff0"/>
<rect x="295" y="541" width="134" height="10" fill="#ff0"/>
<text x="20" y="570" class="sm">1.461e-07</text>
<rect x="100" y="560" width="480" height="12" fill="#00f"/>
<rect x="719" y="560" width="58" height="12" fill="#00f"/>
<line x1="580" y1="566" x2="718" y2="566" stroke="#00f"/>
<rect x="263" y="561" width="278" height="10" fill="#ff0"/>
<text x="20" y="590" class="sm">1.21e-07</text>
<rect x="100" y="580" width="66" height="12" fill="#00f"/>
<rect x="268" y="580" width="509" height="12" fill="#00f"/>
<line x1="166" y1="586" x2="267" y2="586" stroke="#00f"/>
<rect x="122" y="581" width="44" height="10" fill="#ff0"/>
<rect x="269" y="581" width="272" height="10" fill="#ff0"/>
<text x="20" y="610" class="sm">1.024e-07</text>
<rect x="100" y="600" width="478" height="12" fill="#00f"/>
<rect x="719" y="600" width="58" height="12" fill="#00f"/>
<line x1="578" y1="606" x2="718" y2="606" stroke="#00f"/>
<rect x="263" y="601" width="278" height="10" fill="#ff0"/>
<text x="20" y="630" class="sm">8.881e-08</text>
<rect x="100" y="620" width="482" height="12" fill="#00f"/>
<rect x="719" y="620" width="58" height="12" fill="#00f"/>
<line x1="582" y1="626" x2="718" y2="626" stroke="#00f"/>
<rect x="263" y="621" width="278" height="10" fill="#ff0"/>
<text x="20" y="650" class="sm">6.043e-08</text>
<rect x="100" y="640" width="476" height="12" fill="#00f"/>
<rect x="719" y="640" width="58" height="12" fill="#00f"/>
<line x1="576" y1="646" x2="718" y2="646" stroke="#00f"/>
<rect x="263" y="641" width="278" height="10" fill="#ff0"/>
<text x="20" y="670" class="sm">5.846e-08</text>
<rect x="100" y="660" width="480" height="12" fill="#00f"/>
<rect x="676" y="660" width="101" height="12" fill="#00f"/>
<line x1="580" y1="666" x2="675" y2="666" stroke="#00f"/>
<rect x="263" y="661" width="278" height="10" fill="#ff0"/>
<text x="20" y="690" class="sm">5.271e-08</text>
<rect x="100" y="680" width="480" height="12" fill="#00f"/>
<rect x="665" y="680" width="112" height="12" fill="#00f"/>
<line x1="580" y1="686" x2="664" y2="686" stroke="#00f"/>
<rect x="263" y="681" width="278" height="10" fill="#ff0"/>
<text x="20" y="710" class="sm">4.121e-08</text>
<rect x="100" y="700" width="478" height="12" fill="#00f"/>
<rect x="676" y="700" width="101" height="12" fill="#00f"/>
<line x1="578" y1="706" x2="675" y2="706" stroke="#00f"/>
<rect x="263" y="701" width="278" height="10" fill="#ff0"/>
<text x="20" y="730" class="sm">3.824e-08</text>
<rect x="100" y="720" width="356" height="12" fill="#00f"/>
<rect x="557" y="720" width="220" height="12" fill="#00f"/>
<line x1="456" y1="726" x2="556" y2="726" stroke="#00f"/>
<rect x="263" y="721" width="193" height="10" fill="#ff0"/>
<rect x="558" y="721" width="54" height="10" fill="#ff0"/>
<text x="20" y="750" class="sm">3.551e-08</text>
<rect x="100" y="740" width="478" height="12" fill="#00f"/>
<rect x="665" y="740" width="112" height="12" fill="#00f"/>
<line x1="578" y1="746" x2="664" y2="746" stroke="#00f"/>
<rect x="263" y="741" width="278" height="10" fill="#ff0"/>
</svg>
