<svg viewBox="0 0 767 545" xmlns="http://www.w3.org/2000/svg">

<style>
  .sm { font: 12px sans-serif; }
  .lg { font: 15px sans-serif; }
</style>
<rect fill="#ddd" x="0" y="0" width="100%" height="100%"/>
<text x="20" y="20" class="lg">ch.7464 III:5568113-5568879 Gene:WBGene00017305</text>
<text x="20" y="50" class="sm">WormBase</text>
<rect x="102" y="40" width="44" height="12" fill="#00f"/>
<rect x="321" y="40" width="348" height="12" fill="#00f"/>
<line x1="146" y1="46" x2="320" y2="46" stroke="#00f"/>
<rect x="133" y="41" width="13" height="10" fill="#ff0"/>
<rect x="322" y="41" width="246" height="10" fill="#ff0"/>
<rect x="103" y="41" width="29" height="10" fill="brown"><title>.</title></rect>
<rect x="569" y="41" width="100" height="10" fill="brown"><title>.</title></rect>
<text x="20" y="70" class="sm">Fitness: 0.00010707316778260699</text>
<rect x="146" y="65" width="175" height="5" fill="#00f"><title>858095.0</title></rect>
<rect x="143" y="70" width="178" height="5" fill="#00f"><title>20.0</title></rect>
<rect x="146" y="75" width="155" height="5" fill="#00f"><title>20.0</title></rect>
<rect x="143" y="80" width="92" height="5" fill="#00f"><title>16.0</title></rect>
<rect x="146" y="85" width="138" height="5" fill="#00f"><title>10.0</title></rect>
<rect x="417" y="90" width="39" height="5" fill="#f0f"><title>8.0</title></rect>
<rect x="243" y="95" width="78" height="5" fill="#00f"><title>7.0</title></rect>
<rect x="434" y="100" width="78" height="5" fill="#f0f"><title>5.0</title></rect>
<rect x="146" y="105" width="309" height="5" fill="#00f"><title>3.0</title></rect>
<text x="20" y="135" class="sm">0.9999</text>
<rect x="100" y="125" width="46" height="12" fill="#00f"/>
<rect x="321" y="125" width="349" height="12" fill="#00f"/>
<line x1="146" y1="131" x2="320" y2="131" stroke="#00f"/>
<rect x="133" y="126" width="13" height="10" fill="#ff0"/>
<rect x="322" y="126" width="246" height="10" fill="#ff0"/>
<text x="20" y="155" class="sm">2.534e-05</text>
<rect x="100" y="145" width="64" height="12" fill="#00f"/>
<rect x="321" y="145" width="349" height="12" fill="#00f"/>
<line x1="164" y1="151" x2="320" y2="151" stroke="#00f"/>
<rect x="347" y="146" width="221" height="10" fill="#ff0"/>
<text x="20" y="175" class="sm">1.977e-05</text>
<rect x="100" y="165" width="43" height="12" fill="#00f"/>
<rect x="321" y="165" width="349" height="12" fill="#00f"/>
<line x1="143" y1="171" x2="320" y2="171" stroke="#00f"/>
<rect x="133" y="166" width="10" height="10" fill="#ff0"/>
<rect x="322" y="166" width="246" height="10" fill="#ff0"/>
<text x="20" y="195" class="sm">1.87e-05</text>
<rect x="100" y="185" width="34" height="12" fill="#00f"/>
<rect x="321" y="185" width="349" height="12" fill="#00f"/>
<line x1="134" y1="191" x2="320" y2="191" stroke="#00f"/>
<rect x="347" y="186" width="221" height="10" fill="#ff0"/>
<text x="20" y="215" class="sm">1.007e-05</text>
<rect x="100" y="205" width="46" height="12" fill="#00f"/>
<rect x="301" y="205" width="369" height="12" fill="#00f"/>
<line x1="146" y1="211" x2="300" y2="211" stroke="#00f"/>
<rect x="347" y="206" width="221" height="10" fill="#ff0"/>
<text x="20" y="235" class="sm">5.172e-06</text>
<rect x="100" y="225" width="143" height="12" fill="#00f"/>
<rect x="321" y="225" width="349" height="12" fill="#00f"/>
<line x1="243" y1="231" x2="320" y2="231" stroke="#00f"/>
<rect x="347" y="226" width="221" height="10" fill="#ff0"/>
<text x="20" y="255" class="sm">1.294e-06</text>
<rect x="100" y="245" width="50" height="12" fill="#00f"/>
<rect x="321" y="245" width="349" height="12" fill="#00f"/>
<line x1="150" y1="251" x2="320" y2="251" stroke="#00f"/>
<rect x="347" y="246" width="221" height="10" fill="#ff0"/>
<text x="20" y="275" class="sm">4.068e-07</text>
<rect x="100" y="265" width="46" height="12" fill="#00f"/>
<rect x="248" y="265" width="422" height="12" fill="#00f"/>
<line x1="146" y1="271" x2="247" y2="271" stroke="#00f"/>
<rect x="347" y="266" width="221" height="10" fill="#ff0"/>
<text x="20" y="295" class="sm">1.676e-07</text>
<rect x="100" y="285" width="109" height="12" fill="#00f"/>
<rect x="321" y="285" width="349" height="12" fill="#00f"/>
<line x1="209" y1="291" x2="320" y2="291" stroke="#00f"/>
<rect x="347" y="286" width="221" height="10" fill="#ff0"/>
<text x="20" y="315" class="sm">1.031e-07</text>
<rect x="100" y="305" width="46" height="12" fill="#00f"/>
<rect x="266" y="305" width="404" height="12" fill="#00f"/>
<line x1="146" y1="311" x2="265" y2="311" stroke="#00f"/>
<rect x="133" y="306" width="13" height="10" fill="#ff0"/>
<rect x="267" y="306" width="228" height="10" fill="#ff0"/>
<text x="20" y="335" class="sm">7.488e-08</text>
<rect x="100" y="325" width="154" height="12" fill="#00f"/>
<rect x="321" y="325" width="349" height="12" fill="#00f"/>
<line x1="254" y1="331" x2="320" y2="331" stroke="#00f"/>
<rect x="214" y="326" width="40" height="10" fill="#ff0"/>
<rect x="322" y="326" width="246" height="10" fill="#ff0"/>
<text x="20" y="355" class="sm">5.08e-08</text>
<rect x="100" y="345" width="46" height="12" fill="#00f"/>
<rect x="241" y="345" width="429" height="12" fill="#00f"/>
<line x1="146" y1="351" x2="240" y2="351" stroke="#00f"/>
<rect x="347" y="346" width="221" height="10" fill="#ff0"/>
<text x="20" y="375" class="sm">4.812e-08</text>
<rect x="100" y="365" width="46" height="12" fill="#00f"/>
<rect x="269" y="365" width="401" height="12" fill="#00f"/>
<line x1="146" y1="371" x2="268" y2="371" stroke="#00f"/>
<rect x="347" y="366" width="221" height="10" fill="#ff0"/>
<text x="20" y="395" class="sm">4.802e-08</text>
<rect x="100" y="385" width="46" height="12" fill="#00f"/>
<rect x="185" y="385" width="485" height="12" fill="#00f"/>
<line x1="146" y1="391" x2="184" y2="391" stroke="#00f"/>
<rect x="347" y="386" width="221" height="10" fill="#ff0"/>
<text x="20" y="415" class="sm">3.927e-08</text>
<rect x="100" y="405" width="46" height="12" fill="#00f"/>
<rect x="278" y="405" width="392" height="12" fill="#00f"/>
<line x1="146" y1="411" x2="277" y2="411" stroke="#00f"/>
<rect x="347" y="406" width="221" height="10" fill="#ff0"/>
<text x="20" y="435" class="sm">1.12e-08</text>
<rect x="100" y="425" width="46" height="12" fill="#00f"/>
<rect x="284" y="425" width="386" height="12" fill="#00f"/>
<line x1="146" y1="431" x2="283" y2="431" stroke="#00f"/>
<rect x="133" y="426" width="13" height="10" fill="#ff0"/>
<rect x="285" y="426" width="210" height="10" fill="#ff0"/>
<text x="20" y="455" class="sm">8.033e-09</text>
<rect x="100" y="445" width="46" height="12" fill="#00f"/>
<rect x="191" y="445" width="479" height="12" fill="#00f"/>
<line x1="146" y1="451" x2="190" y2="451" stroke="#00f"/>
<rect x="347" y="446" width="221" height="10" fill="#ff0"/>
<text x="20" y="475" class="sm">2.739e-09</text>
<rect x="100" y="465" width="46" height="12" fill="#00f"/>
<rect x="203" y="465" width="467" height="12" fill="#00f"/>
<line x1="146" y1="471" x2="202" y2="471" stroke="#00f"/>
<rect x="347" y="466" width="221" height="10" fill="#ff0"/>
<text x="20" y="495" class="sm">2.064e-09</text>
<rect x="100" y="485" width="46" height="12" fill="#00f"/>
<rect x="209" y="485" width="461" height="12" fill="#00f"/>
<line x1="146" y1="491" x2="208" y2="491" stroke="#00f"/>
<rect x="347" y="486" width="221" height="10" fill="#ff0"/>
<text x="20" y="515" class="sm">1.68e-09</text>
<rect x="100" y="505" width="46" height="12" fill="#00f"/>
<rect x="197" y="505" width="473" height="12" fill="#00f"/>
<line x1="146" y1="511" x2="196" y2="511" stroke="#00f"/>
<rect x="347" y="506" width="221" height="10" fill="#ff0"/>
</svg>
