<svg viewBox="0 0 1030 550" xmlns="http://www.w3.org/2000/svg">

<style>
  .sm { font: 12px sans-serif; }
  .lg { font: 15px sans-serif; }
</style>
<rect fill="#ddd" x="0" y="0" width="100%" height="100%"/>
<text x="20" y="20" class="lg">ch.7718 III:6722354-6723383 Gene:WBGene00018132</text>
<text x="20" y="50" class="sm">WormBase</text>
<rect x="100" y="40" width="198" height="12" fill="#00f"/>
<rect x="349" y="40" width="125" height="12" fill="#00f"/>
<rect x="522" y="40" width="408" height="12" fill="#00f"/>
<line x1="298" y1="46" x2="348" y2="46" stroke="#00f"/>
<line x1="474" y1="46" x2="521" y2="46" stroke="#00f"/>
<rect x="203" y="41" width="95" height="10" fill="#ff0"/>
<rect x="350" y="41" width="124" height="10" fill="#ff0"/>
<rect x="523" y="41" width="348" height="10" fill="#ff0"/>
<rect x="101" y="41" width="101" height="10" fill="brown"><title>.</title></rect>
<rect x="872" y="41" width="58" height="10" fill="brown"><title>.</title></rect>
<text x="20" y="70" class="sm">Fitness: 0.01363288274519758</text>
<rect x="474" y="65" width="48" height="5" fill="#00f"><title>522723.0</title></rect>
<rect x="298" y="70" width="51" height="5" fill="#00f"><title>396268.0</title></rect>
<rect x="424" y="75" width="98" height="5" fill="#00f"><title>349.0</title></rect>
<rect x="427" y="80" width="95" height="5" fill="#00f"><title>46.0</title></rect>
<rect x="298" y="85" width="57" height="5" fill="#00f"><title>17.0</title></rect>
<rect x="302" y="90" width="53" height="5" fill="#00f"><title>10.0</title></rect>
<rect x="474" y="95" width="65" height="5" fill="#00f"><title>4.0</title></rect>
<rect x="298" y="100" width="81" height="5" fill="#00f"><title>3.0</title></rect>
<rect x="566" y="105" width="35" height="5" fill="#00f"><title>3.0</title></rect>
<rect x="578" y="110" width="51" height="5" fill="#00f"><title>3.0</title></rect>
<text x="20" y="140" class="sm">0.5679</text>
<rect x="100" y="130" width="374" height="12" fill="#00f"/>
<rect x="522" y="130" width="411" height="12" fill="#00f"/>
<line x1="474" y1="136" x2="521" y2="136" stroke="#00f"/>
<rect x="717" y="131" width="173" height="10" fill="#ff0"/>
<text x="20" y="160" class="sm">0.4251</text>
<rect x="100" y="150" width="198" height="12" fill="#00f"/>
<rect x="349" y="150" width="584" height="12" fill="#00f"/>
<line x1="298" y1="156" x2="348" y2="156" stroke="#00f"/>
<rect x="203" y="151" width="95" height="10" fill="#ff0"/>
<rect x="350" y="151" width="146" height="10" fill="#ff0"/>
<text x="20" y="180" class="sm">0.002291</text>
<rect x="100" y="170" width="315" height="12" fill="#00f"/>
<rect x="474" y="170" width="459" height="12" fill="#00f"/>
<line x1="415" y1="176" x2="473" y2="176" stroke="#00f"/>
<rect x="717" y="171" width="173" height="10" fill="#ff0"/>
<text x="20" y="200" class="sm">0.00213</text>
<rect x="100" y="190" width="383" height="12" fill="#00f"/>
<rect x="522" y="190" width="411" height="12" fill="#00f"/>
<line x1="483" y1="196" x2="521" y2="196" stroke="#00f"/>
<rect x="717" y="191" width="173" height="10" fill="#ff0"/>
<text x="20" y="220" class="sm">0.001829</text>
<rect x="100" y="210" width="327" height="12" fill="#00f"/>
<rect x="474" y="210" width="459" height="12" fill="#00f"/>
<line x1="427" y1="216" x2="473" y2="216" stroke="#00f"/>
<rect x="717" y="211" width="173" height="10" fill="#ff0"/>
<text x="20" y="240" class="sm">0.0002813</text>
<rect x="100" y="230" width="202" height="12" fill="#00f"/>
<rect x="349" y="230" width="584" height="12" fill="#00f"/>
<line x1="302" y1="236" x2="348" y2="236" stroke="#00f"/>
<rect x="717" y="231" width="173" height="10" fill="#ff0"/>
<text x="20" y="260" class="sm">0.0002303</text>
<rect x="100" y="250" width="315" height="12" fill="#00f"/>
<rect x="522" y="250" width="411" height="12" fill="#00f"/>
<line x1="415" y1="256" x2="521" y2="256" stroke="#00f"/>
<rect x="717" y="251" width="173" height="10" fill="#ff0"/>
<text x="20" y="280" class="sm">0.0001125</text>
<rect x="100" y="270" width="198" height="12" fill="#00f"/>
<rect x="349" y="270" width="125" height="12" fill="#00f"/>
<rect x="522" y="270" width="411" height="12" fill="#00f"/>
<line x1="298" y1="276" x2="348" y2="276" stroke="#00f"/>
<line x1="474" y1="276" x2="521" y2="276" stroke="#00f"/>
<rect x="203" y="271" width="95" height="10" fill="#ff0"/>
<rect x="350" y="271" width="124" height="10" fill="#ff0"/>
<rect x="523" y="271" width="348" height="10" fill="#ff0"/>
<text x="20" y="300" class="sm">2.667e-05</text>
<rect x="100" y="290" width="331" height="12" fill="#00f"/>
<rect x="474" y="290" width="459" height="12" fill="#00f"/>
<line x1="431" y1="296" x2="473" y2="296" stroke="#00f"/>
<rect x="717" y="291" width="173" height="10" fill="#ff0"/>
<text x="20" y="320" class="sm">1.347e-05</text>
<rect x="100" y="310" width="327" height="12" fill="#00f"/>
<rect x="522" y="310" width="411" height="12" fill="#00f"/>
<line x1="427" y1="316" x2="521" y2="316" stroke="#00f"/>
<rect x="423" y="311" width="4" height="10" fill="#ff0"/>
<rect x="523" y="311" width="348" height="10" fill="#ff0"/>
<text x="20" y="340" class="sm">9.815e-06</text>
<rect x="100" y="330" width="352" height="12" fill="#00f"/>
<rect x="522" y="330" width="411" height="12" fill="#00f"/>
<line x1="452" y1="336" x2="521" y2="336" stroke="#00f"/>
<rect x="717" y="331" width="173" height="10" fill="#ff0"/>
<text x="20" y="360" class="sm">6.209e-06</text>
<rect x="100" y="350" width="198" height="12" fill="#00f"/>
<rect x="522" y="350" width="411" height="12" fill="#00f"/>
<line x1="298" y1="356" x2="521" y2="356" stroke="#00f"/>
<rect x="717" y="351" width="173" height="10" fill="#ff0"/>
<text x="20" y="380" class="sm">4.171e-06</text>
<rect x="100" y="370" width="324" height="12" fill="#00f"/>
<rect x="474" y="370" width="459" height="12" fill="#00f"/>
<line x1="424" y1="376" x2="473" y2="376" stroke="#00f"/>
<rect x="717" y="371" width="173" height="10" fill="#ff0"/>
<text x="20" y="400" class="sm">3.334e-06</text>
<rect x="100" y="390" width="198" height="12" fill="#00f"/>
<rect x="440" y="390" width="493" height="12" fill="#00f"/>
<line x1="298" y1="396" x2="439" y2="396" stroke="#00f"/>
<rect x="717" y="391" width="173" height="10" fill="#ff0"/>
<text x="20" y="420" class="sm">3.167e-06</text>
<rect x="100" y="410" width="198" height="12" fill="#00f"/>
<rect x="474" y="410" width="459" height="12" fill="#00f"/>
<line x1="298" y1="416" x2="473" y2="416" stroke="#00f"/>
<rect x="203" y="411" width="95" height="10" fill="#ff0"/>
<rect x="475" y="411" width="80" height="10" fill="#ff0"/>
<text x="20" y="440" class="sm">4.17e-07</text>
<rect x="100" y="430" width="198" height="12" fill="#00f"/>
<rect x="349" y="430" width="134" height="12" fill="#00f"/>
<rect x="522" y="430" width="411" height="12" fill="#00f"/>
<line x1="298" y1="436" x2="348" y2="436" stroke="#00f"/>
<line x1="483" y1="436" x2="521" y2="436" stroke="#00f"/>
<rect x="203" y="431" width="95" height="10" fill="#ff0"/>
<rect x="350" y="431" width="133" height="10" fill="#ff0"/>
<rect x="523" y="431" width="348" height="10" fill="#ff0"/>
<text x="20" y="460" class="sm">3.756e-07</text>
<rect x="100" y="450" width="198" height="12" fill="#00f"/>
<rect x="349" y="450" width="66" height="12" fill="#00f"/>
<rect x="474" y="450" width="459" height="12" fill="#00f"/>
<line x1="298" y1="456" x2="348" y2="456" stroke="#00f"/>
<line x1="415" y1="456" x2="473" y2="456" stroke="#00f"/>
<rect x="203" y="451" width="95" height="10" fill="#ff0"/>
<rect x="350" y="451" width="65" height="10" fill="#ff0"/>
<rect x="475" y="451" width="80" height="10" fill="#ff0"/>
<text x="20" y="480" class="sm">3.378e-07</text>
<rect x="100" y="470" width="331" height="12" fill="#00f"/>
<rect x="522" y="470" width="411" height="12" fill="#00f"/>
<line x1="431" y1="476" x2="521" y2="476" stroke="#00f"/>
<rect x="717" y="471" width="173" height="10" fill="#ff0"/>
<text x="20" y="500" class="sm">3.363e-07</text>
<rect x="100" y="490" width="198" height="12" fill="#00f"/>
<rect x="349" y="490" width="78" height="12" fill="#00f"/>
<rect x="474" y="490" width="459" height="12" fill="#00f"/>
<line x1="298" y1="496" x2="348" y2="496" stroke="#00f"/>
<line x1="427" y1="496" x2="473" y2="496" stroke="#00f"/>
<rect x="203" y="491" width="95" height="10" fill="#ff0"/>
<rect x="350" y="491" width="77" height="10" fill="#ff0"/>
<rect x="475" y="491" width="80" height="10" fill="#ff0"/>
<text x="20" y="520" class="sm">9.156e-08</text>
<rect x="100" y="510" width="236" height="12" fill="#00f"/>
<rect x="474" y="510" width="459" height="12" fill="#00f"/>
<line x1="336" y1="516" x2="473" y2="516" stroke="#00f"/>
<rect x="717" y="511" width="173" height="10" fill="#ff0"/>
</svg>
