<svg viewBox="0 0 971 540" xmlns="http://www.w3.org/2000/svg">

<style>
  .sm { font: 12px sans-serif; }
  .lg { font: 15px sans-serif; }
</style>
<rect fill="#ddd" x="0" y="0" width="100%" height="100%"/>
<text x="20" y="20" class="lg">ch.7598 III:6177816-6178786 Gene:WBGene00018343</text>
<text x="20" y="50" class="sm">WormBase</text>
<rect x="102" y="40" width="362" height="12" fill="#00f"/>
<rect x="563" y="40" width="310" height="12" fill="#00f"/>
<line x1="464" y1="46" x2="562" y2="46" stroke="#00f"/>
<rect x="112" y="41" width="352" height="10" fill="#ff0"/>
<rect x="564" y="41" width="210" height="10" fill="#ff0"/>
<rect x="103" y="41" width="8" height="10" fill="brown"><title>.</title></rect>
<rect x="775" y="41" width="98" height="10" fill="brown"><title>.</title></rect>
<text x="20" y="70" class="sm">Fitness: 0.0031164927918476727</text>
<rect x="464" y="65" width="99" height="5" fill="#00f"><title>431528.0</title></rect>
<rect x="464" y="70" width="103" height="5" fill="#00f"><title>412.0</title></rect>
<rect x="464" y="75" width="55" height="5" fill="#00f"><title>286.0</title></rect>
<rect x="468" y="80" width="99" height="5" fill="#00f"><title>216.0</title></rect>
<rect x="457" y="85" width="106" height="5" fill="#00f"><title>145.0</title></rect>
<rect x="122" y="90" width="53" height="5" fill="#00f"><title>8.0</title></rect>
<rect x="676" y="95" width="110" height="5" fill="#f0f"><title>3.0</title></rect>
<rect x="696" y="100" width="36" height="5" fill="#f0f"><title>3.0</title></rect>
<text x="20" y="130" class="sm">0.9976</text>
<rect x="100" y="120" width="364" height="12" fill="#00f"/>
<rect x="563" y="120" width="311" height="12" fill="#00f"/>
<line x1="464" y1="126" x2="562" y2="126" stroke="#00f"/>
<rect x="112" y="121" width="352" height="10" fill="#ff0"/>
<rect x="564" y="121" width="210" height="10" fill="#ff0"/>
<text x="20" y="150" class="sm">0.001158</text>
<rect x="100" y="140" width="364" height="12" fill="#00f"/>
<rect x="519" y="140" width="355" height="12" fill="#00f"/>
<line x1="464" y1="146" x2="518" y2="146" stroke="#00f"/>
<rect x="112" y="141" width="352" height="10" fill="#ff0"/>
<rect x="520" y="141" width="21" height="10" fill="#ff0"/>
<text x="20" y="170" class="sm">0.0003734</text>
<rect x="100" y="160" width="364" height="12" fill="#00f"/>
<rect x="501" y="160" width="373" height="12" fill="#00f"/>
<line x1="464" y1="166" x2="500" y2="166" stroke="#00f"/>
<rect x="112" y="161" width="352" height="10" fill="#ff0"/>
<rect x="502" y="161" width="39" height="10" fill="#ff0"/>
<text x="20" y="190" class="sm">0.0002693</text>
<rect x="100" y="180" width="406" height="12" fill="#00f"/>
<rect x="563" y="180" width="311" height="12" fill="#00f"/>
<line x1="506" y1="186" x2="562" y2="186" stroke="#00f"/>
<rect x="112" y="181" width="356" height="10" fill="#ff0"/>
<text x="20" y="210" class="sm">0.0002475</text>
<rect x="100" y="200" width="310" height="12" fill="#00f"/>
<rect x="563" y="200" width="311" height="12" fill="#00f"/>
<line x1="410" y1="206" x2="562" y2="206" stroke="#00f"/>
<rect x="112" y="201" width="298" height="10" fill="#ff0"/>
<rect x="564" y="201" width="210" height="10" fill="#ff0"/>
<text x="20" y="230" class="sm">0.0002349</text>
<rect x="100" y="220" width="364" height="12" fill="#00f"/>
<rect x="567" y="220" width="307" height="12" fill="#00f"/>
<line x1="464" y1="226" x2="566" y2="226" stroke="#00f"/>
<rect x="112" y="221" width="352" height="10" fill="#ff0"/>
<rect x="568" y="221" width="177" height="10" fill="#ff0"/>
<text x="20" y="250" class="sm">5.931e-05</text>
<rect x="100" y="240" width="382" height="12" fill="#00f"/>
<rect x="563" y="240" width="311" height="12" fill="#00f"/>
<line x1="482" y1="246" x2="562" y2="246" stroke="#00f"/>
<rect x="112" y="241" width="356" height="10" fill="#ff0"/>
<text x="20" y="270" class="sm">4.78e-05</text>
<rect x="100" y="260" width="670" height="12" fill="#00f"/>
<rect x="805" y="260" width="69" height="12" fill="#00f"/>
<line x1="770" y1="266" x2="804" y2="266" stroke="#00f"/>
<rect x="112" y="261" width="356" height="10" fill="#ff0"/>
<text x="20" y="290" class="sm">3.968e-05</text>
<rect x="100" y="280" width="368" height="12" fill="#00f"/>
<rect x="563" y="280" width="311" height="12" fill="#00f"/>
<line x1="468" y1="286" x2="562" y2="286" stroke="#00f"/>
<rect x="112" y="281" width="356" height="10" fill="#ff0"/>
<text x="20" y="310" class="sm">1.224e-05</text>
<rect x="100" y="300" width="357" height="12" fill="#00f"/>
<rect x="563" y="300" width="311" height="12" fill="#00f"/>
<line x1="457" y1="306" x2="562" y2="306" stroke="#00f"/>
<rect x="112" y="301" width="345" height="10" fill="#ff0"/>
<rect x="564" y="301" width="181" height="10" fill="#ff0"/>
<text x="20" y="330" class="sm">1.885e-06</text>
<rect x="100" y="320" width="288" height="12" fill="#00f"/>
<rect x="563" y="320" width="311" height="12" fill="#00f"/>
<line x1="388" y1="326" x2="562" y2="326" stroke="#00f"/>
<rect x="112" y="321" width="276" height="10" fill="#ff0"/>
<rect x="564" y="321" width="181" height="10" fill="#ff0"/>
<text x="20" y="350" class="sm">1.343e-06</text>
<rect x="100" y="340" width="413" height="12" fill="#00f"/>
<rect x="563" y="340" width="311" height="12" fill="#00f"/>
<line x1="513" y1="346" x2="562" y2="346" stroke="#00f"/>
<rect x="112" y="341" width="356" height="10" fill="#ff0"/>
<text x="20" y="370" class="sm">8.932e-07</text>
<rect x="100" y="360" width="310" height="12" fill="#00f"/>
<rect x="519" y="360" width="355" height="12" fill="#00f"/>
<line x1="410" y1="366" x2="518" y2="366" stroke="#00f"/>
<rect x="112" y="361" width="298" height="10" fill="#ff0"/>
<rect x="520" y="361" width="21" height="10" fill="#ff0"/>
<text x="20" y="390" class="sm">2.646e-07</text>
<rect x="100" y="380" width="364" height="12" fill="#00f"/>
<rect x="592" y="380" width="282" height="12" fill="#00f"/>
<line x1="464" y1="386" x2="591" y2="386" stroke="#00f"/>
<rect x="112" y="381" width="352" height="10" fill="#ff0"/>
<rect x="593" y="381" width="36" height="10" fill="#ff0"/>
<text x="20" y="410" class="sm">2.592e-07</text>
<rect x="100" y="400" width="364" height="12" fill="#00f"/>
<rect x="604" y="400" width="270" height="12" fill="#00f"/>
<line x1="464" y1="406" x2="603" y2="406" stroke="#00f"/>
<rect x="112" y="401" width="352" height="10" fill="#ff0"/>
<rect x="605" y="401" width="24" height="10" fill="#ff0"/>
<text x="20" y="430" class="sm">2.553e-07</text>
<rect x="100" y="420" width="310" height="12" fill="#00f"/>
<rect x="483" y="420" width="391" height="12" fill="#00f"/>
<line x1="410" y1="426" x2="482" y2="426" stroke="#00f"/>
<rect x="112" y="421" width="298" height="10" fill="#ff0"/>
<rect x="484" y="421" width="3" height="10" fill="#ff0"/>
<text x="20" y="450" class="sm">2.442e-07</text>
<rect x="100" y="440" width="382" height="12" fill="#00f"/>
<rect x="519" y="440" width="355" height="12" fill="#00f"/>
<line x1="482" y1="446" x2="518" y2="446" stroke="#00f"/>
<rect x="112" y="441" width="356" height="10" fill="#ff0"/>
<text x="20" y="470" class="sm">1.359e-07</text>
<rect x="100" y="460" width="122" height="12" fill="#00f"/>
<rect x="342" y="460" width="532" height="12" fill="#00f"/>
<line x1="222" y1="466" x2="341" y2="466" stroke="#00f"/>
<rect x="112" y="461" width="110" height="10" fill="#ff0"/>
<rect x="343" y="461" width="125" height="10" fill="#ff0"/>
<text x="20" y="490" class="sm">1.018e-07</text>
<rect x="100" y="480" width="310" height="12" fill="#00f"/>
<rect x="501" y="480" width="373" height="12" fill="#00f"/>
<line x1="410" y1="486" x2="500" y2="486" stroke="#00f"/>
<rect x="112" y="481" width="298" height="10" fill="#ff0"/>
<rect x="502" y="481" width="39" height="10" fill="#ff0"/>
<text x="20" y="510" class="sm">9.579e-08</text>
<rect x="100" y="500" width="122" height="12" fill="#00f"/>
<rect x="323" y="500" width="551" height="12" fill="#00f"/>
<line x1="222" y1="506" x2="322" y2="506" stroke="#00f"/>
<rect x="209" y="501" width="13" height="10" fill="#ff0"/>
<rect x="324" y="501" width="144" height="10" fill="#ff0"/>
</svg>
