<svg viewBox="0 0 603 575" xmlns="http://www.w3.org/2000/svg">

<style>
  .sm { font: 12px sans-serif; }
  .lg { font: 15px sans-serif; }
</style>
<rect fill="#ddd" x="0" y="0" width="100%" height="100%"/>
<text x="20" y="20" class="lg">ch.749 I:4789090-4789692 Gene:WBGene00023067</text>
<text x="20" y="50" class="sm">WormBase</text>
<rect x="100" y="40" width="88" height="12" fill="#00f"/>
<rect x="260" y="40" width="243" height="12" fill="#00f"/>
<line x1="188" y1="46" x2="259" y2="46" stroke="#00f"/>
<rect x="177" y="41" width="11" height="10" fill="#ff0"/>
<rect x="261" y="41" width="56" height="10" fill="#ff0"/>
<rect x="101" y="41" width="75" height="10" fill="brown"><title>.</title></rect>
<rect x="318" y="41" width="185" height="10" fill="brown"><title>.</title></rect>
<text x="20" y="70" class="sm">Fitness: 9.152580425132614e-05</text>
<rect x="188" y="65" width="72" height="5" fill="#00f"><title>3613520.0</title></rect>
<rect x="192" y="70" width="68" height="5" fill="#00f"><title>1193.0</title></rect>
<rect x="209" y="75" width="51" height="5" fill="#00f"><title>309.0</title></rect>
<rect x="292" y="80" width="42" height="5" fill="#00f"><title>60.0</title></rect>
<rect x="94" y="85" width="44" height="5" fill="#00f"><title>25.0</title></rect>
<rect x="188" y="90" width="44" height="5" fill="#00f"><title>23.0</title></rect>
<rect x="443" y="95" width="66" height="5" fill="#f0f"><title>11.0</title></rect>
<rect x="349" y="100" width="69" height="5" fill="#00f"><title>7.0</title></rect>
<rect x="359" y="105" width="39" height="5" fill="#00f"><title>7.0</title></rect>
<rect x="188" y="110" width="126" height="5" fill="#00f"><title>6.0</title></rect>
<rect x="377" y="115" width="31" height="5" fill="#00f"><title>6.0</title></rect>
<rect x="188" y="120" width="102" height="5" fill="#00f"><title>5.0</title></rect>
<rect x="188" y="125" width="81" height="5" fill="#00f"><title>4.0</title></rect>
<rect x="188" y="130" width="108" height="5" fill="#00f"><title>4.0</title></rect>
<rect x="309" y="135" width="122" height="5" fill="#00f"><title>4.0</title></rect>
<text x="20" y="165" class="sm">0.9995</text>
<rect x="100" y="155" width="88" height="12" fill="#00f"/>
<rect x="260" y="155" width="246" height="12" fill="#00f"/>
<line x1="188" y1="161" x2="259" y2="161" stroke="#00f"/>
<rect x="349" y="156" width="89" height="10" fill="#ff0"/>
<text x="20" y="185" class="sm">0.0003483</text>
<rect x="100" y="175" width="92" height="12" fill="#00f"/>
<rect x="260" y="175" width="246" height="12" fill="#00f"/>
<line x1="192" y1="181" x2="259" y2="181" stroke="#00f"/>
<rect x="349" y="176" width="89" height="10" fill="#ff0"/>
<text x="20" y="205" class="sm">8.058e-05</text>
<rect x="100" y="195" width="109" height="12" fill="#00f"/>
<rect x="260" y="195" width="246" height="12" fill="#00f"/>
<line x1="209" y1="201" x2="259" y2="201" stroke="#00f"/>
<rect x="177" y="196" width="32" height="10" fill="#ff0"/>
<rect x="261" y="196" width="56" height="10" fill="#ff0"/>
<text x="20" y="225" class="sm">1.119e-05</text>
<rect x="100" y="215" width="88" height="12" fill="#00f"/>
<rect x="290" y="215" width="216" height="12" fill="#00f"/>
<line x1="188" y1="221" x2="289" y2="221" stroke="#00f"/>
<rect x="349" y="216" width="89" height="10" fill="#ff0"/>
<text x="20" y="245" class="sm">1.088e-05</text>
<rect x="100" y="235" width="164" height="12" fill="#00f"/>
<rect x="338" y="235" width="168" height="12" fill="#00f"/>
<line x1="264" y1="241" x2="337" y2="241" stroke="#00f"/>
<rect x="177" y="236" width="87" height="10" fill="#ff0"/>
<rect x="339" y="236" width="94" height="10" fill="#ff0"/>
<text x="20" y="265" class="sm">1.924e-06</text>
<rect x="100" y="255" width="69" height="12" fill="#00f"/>
<rect x="260" y="255" width="246" height="12" fill="#00f"/>
<line x1="169" y1="261" x2="259" y2="261" stroke="#00f"/>
<rect x="349" y="256" width="89" height="10" fill="#ff0"/>
<text x="20" y="285" class="sm">1.636e-06</text>
<rect x="100" y="275" width="99" height="12" fill="#00f"/>
<rect x="260" y="275" width="246" height="12" fill="#00f"/>
<line x1="199" y1="281" x2="259" y2="281" stroke="#00f"/>
<rect x="349" y="276" width="89" height="10" fill="#ff0"/>
<text x="20" y="305" class="sm">1.274e-06</text>
<rect x="100" y="295" width="164" height="12" fill="#00f"/>
<rect x="317" y="295" width="189" height="12" fill="#00f"/>
<line x1="264" y1="301" x2="316" y2="301" stroke="#00f"/>
<rect x="177" y="296" width="87" height="10" fill="#ff0"/>
<rect x="318" y="296" width="115" height="10" fill="#ff0"/>
<text x="20" y="325" class="sm">4.108e-07</text>
<rect x="100" y="315" width="88" height="12" fill="#00f"/>
<rect x="232" y="315" width="274" height="12" fill="#00f"/>
<line x1="188" y1="321" x2="231" y2="321" stroke="#00f"/>
<rect x="349" y="316" width="89" height="10" fill="#ff0"/>
<text x="20" y="345" class="sm">3.792e-07</text>
<rect x="100" y="335" width="43" height="12" fill="#00f"/>
<rect x="260" y="335" width="246" height="12" fill="#00f"/>
<line x1="143" y1="341" x2="259" y2="341" stroke="#00f"/>
<rect x="349" y="336" width="89" height="10" fill="#ff0"/>
<text x="20" y="365" class="sm">3.36e-07</text>
<rect x="100" y="355" width="173" height="12" fill="#00f"/>
<rect x="338" y="355" width="168" height="12" fill="#00f"/>
<line x1="273" y1="361" x2="337" y2="361" stroke="#00f"/>
<rect x="177" y="356" width="96" height="10" fill="#ff0"/>
<rect x="339" y="356" width="94" height="10" fill="#ff0"/>
<text x="20" y="385" class="sm">1.825e-07</text>
<rect x="100" y="375" width="164" height="12" fill="#00f"/>
<rect x="314" y="375" width="192" height="12" fill="#00f"/>
<line x1="264" y1="381" x2="313" y2="381" stroke="#00f"/>
<rect x="177" y="376" width="87" height="10" fill="#ff0"/>
<rect x="315" y="376" width="118" height="10" fill="#ff0"/>
<text x="20" y="405" class="sm">1.733e-07</text>
<rect x="100" y="395" width="88" height="12" fill="#00f"/>
<rect x="338" y="395" width="168" height="12" fill="#00f"/>
<line x1="188" y1="401" x2="337" y2="401" stroke="#00f"/>
<rect x="349" y="396" width="89" height="10" fill="#ff0"/>
<text x="20" y="425" class="sm">1.333e-07</text>
<rect x="100" y="415" width="69" height="12" fill="#00f"/>
<rect x="205" y="415" width="59" height="12" fill="#00f"/>
<rect x="338" y="415" width="168" height="12" fill="#00f"/>
<line x1="169" y1="421" x2="204" y2="421" stroke="#00f"/>
<line x1="264" y1="421" x2="337" y2="421" stroke="#00f"/>
<rect x="349" y="416" width="89" height="10" fill="#ff0"/>
<text x="20" y="445" class="sm">8.811e-08</text>
<rect x="100" y="435" width="164" height="12" fill="#00f"/>
<rect x="311" y="435" width="195" height="12" fill="#00f"/>
<line x1="264" y1="441" x2="310" y2="441" stroke="#00f"/>
<rect x="177" y="436" width="87" height="10" fill="#ff0"/>
<rect x="312" y="436" width="121" height="10" fill="#ff0"/>
<text x="20" y="465" class="sm">8.307e-08</text>
<rect x="100" y="455" width="43" height="12" fill="#00f"/>
<rect x="205" y="455" width="59" height="12" fill="#00f"/>
<rect x="338" y="455" width="168" height="12" fill="#00f"/>
<line x1="143" y1="461" x2="204" y2="461" stroke="#00f"/>
<line x1="264" y1="461" x2="337" y2="461" stroke="#00f"/>
<rect x="349" y="456" width="89" height="10" fill="#ff0"/>
<text x="20" y="485" class="sm">5.104e-08</text>
<rect x="100" y="475" width="164" height="12" fill="#00f"/>
<rect x="322" y="475" width="184" height="12" fill="#00f"/>
<line x1="264" y1="481" x2="321" y2="481" stroke="#00f"/>
<rect x="177" y="476" width="87" height="10" fill="#ff0"/>
<rect x="323" y="476" width="115" height="10" fill="#ff0"/>
<text x="20" y="505" class="sm">4.296e-08</text>
<rect x="100" y="495" width="88" height="12" fill="#00f"/>
<rect x="232" y="495" width="32" height="12" fill="#00f"/>
<rect x="338" y="495" width="168" height="12" fill="#00f"/>
<line x1="188" y1="501" x2="231" y2="501" stroke="#00f"/>
<line x1="264" y1="501" x2="337" y2="501" stroke="#00f"/>
<rect x="177" y="496" width="11" height="10" fill="#ff0"/>
<rect x="233" y="496" width="31" height="10" fill="#ff0"/>
<rect x="339" y="496" width="99" height="10" fill="#ff0"/>
<text x="20" y="525" class="sm">3.602e-08</text>
<rect x="100" y="515" width="173" height="12" fill="#00f"/>
<rect x="317" y="515" width="189" height="12" fill="#00f"/>
<line x1="273" y1="521" x2="316" y2="521" stroke="#00f"/>
<rect x="177" y="516" width="96" height="10" fill="#ff0"/>
<rect x="318" y="516" width="115" height="10" fill="#ff0"/>
<text x="20" y="545" class="sm">2.617e-08</text>
<rect x="100" y="535" width="69" height="12" fill="#00f"/>
<rect x="205" y="535" width="301" height="12" fill="#00f"/>
<line x1="169" y1="541" x2="204" y2="541" stroke="#00f"/>
<rect x="349" y="536" width="89" height="10" fill="#ff0"/>
</svg>
