<svg viewBox="0 0 1062 645" xmlns="http://www.w3.org/2000/svg">

<style>
  .sm { font: 12px sans-serif; }
  .lg { font: 15px sans-serif; }
</style>
<rect fill="#ddd" x="0" y="0" width="100%" height="100%"/>
<text x="20" y="20" class="lg">ch.7098 III:4151954-4153015 Gene:WBGene00007630</text>
<text x="20" y="50" class="sm">WormBase</text>
<rect x="100" y="40" width="106" height="12" fill="#00f"/>
<rect x="258" y="40" width="137" height="12" fill="#00f"/>
<rect x="507" y="40" width="455" height="12" fill="#00f"/>
<line x1="206" y1="46" x2="257" y2="46" stroke="#00f"/>
<line x1="395" y1="46" x2="506" y2="46" stroke="#00f"/>
<rect x="104" y="41" width="102" height="10" fill="#ff0"/>
<rect x="259" y="41" width="136" height="10" fill="#ff0"/>
<rect x="508" y="41" width="224" height="10" fill="#ff0"/>
<rect x="101" y="41" width="2" height="10" fill="brown"><title>.</title></rect>
<rect x="733" y="41" width="229" height="10" fill="brown"><title>.</title></rect>
<text x="20" y="70" class="sm">Fitness: 0.014229669405926534</text>
<rect x="206" y="65" width="52" height="5" fill="#00f"><title>1740530.0</title></rect>
<rect x="395" y="70" width="112" height="5" fill="#00f"><title>1576610.0</title></rect>
<rect x="206" y="75" width="67" height="5" fill="#00f"><title>512.0</title></rect>
<rect x="399" y="80" width="108" height="5" fill="#00f"><title>294.0</title></rect>
<rect x="206" y="85" width="362" height="5" fill="#00f"><title>55.0</title></rect>
<rect x="392" y="90" width="115" height="5" fill="#00f"><title>41.0</title></rect>
<rect x="206" y="95" width="412" height="5" fill="#00f"><title>33.0</title></rect>
<rect x="206" y="100" width="380" height="5" fill="#00f"><title>22.0</title></rect>
<rect x="161" y="105" width="112" height="5" fill="#00f"><title>21.0</title></rect>
<rect x="206" y="110" width="85" height="5" fill="#00f"><title>15.0</title></rect>
<rect x="127" y="115" width="196" height="5" fill="#00f"><title>14.0</title></rect>
<rect x="273" y="120" width="455" height="5" fill="#f0f"><title>12.0</title></rect>
<rect x="289" y="125" width="254" height="5" fill="#00f"><title>10.0</title></rect>
<rect x="56" y="130" width="44" height="5" fill="#00f"><title>9.0</title></rect>
<rect x="153" y="135" width="202" height="5" fill="#00f"><title>9.0</title></rect>
<rect x="327" y="140" width="271" height="5" fill="#f0f"><title>9.0</title></rect>
<rect x="206" y="145" width="133" height="5" fill="#00f"><title>6.0</title></rect>
<rect x="141" y="150" width="29" height="5" fill="#00f"><title>5.0</title></rect>
<rect x="354" y="155" width="251" height="5" fill="#00f"><title>5.0</title></rect>
<rect x="568" y="160" width="30" height="5" fill="#f0f"><title>5.0</title></rect>
<rect x="206" y="165" width="82" height="5" fill="#00f"><title>4.0</title></rect>
<rect x="206" y="170" width="169" height="5" fill="#00f"><title>3.0</title></rect>
<rect x="206" y="175" width="301" height="5" fill="#00f"><title>3.0</title></rect>
<rect x="290" y="180" width="30" height="5" fill="#00f"><title>3.0</title></rect>
<rect x="344" y="185" width="276" height="5" fill="#00f"><title>3.0</title></rect>
<rect x="348" y="190" width="268" height="5" fill="#00f"><title>3.0</title></rect>
<rect x="402" y="195" width="105" height="5" fill="#00f"><title>3.0</title></rect>
<rect x="527" y="200" width="35" height="5" fill="#00f"><title>3.0</title></rect>
<rect x="564" y="205" width="154" height="5" fill="#00f"><title>3.0</title></rect>
<text x="20" y="235" class="sm">0.5233</text>
<rect x="100" y="225" width="106" height="12" fill="#00f"/>
<rect x="258" y="225" width="707" height="12" fill="#00f"/>
<line x1="206" y1="231" x2="257" y2="231" stroke="#00f"/>
<rect x="104" y="226" width="102" height="10" fill="#ff0"/>
<rect x="259" y="226" width="154" height="10" fill="#ff0"/>
<text x="20" y="255" class="sm">0.4693</text>
<rect x="100" y="245" width="295" height="12" fill="#00f"/>
<rect x="507" y="245" width="458" height="12" fill="#00f"/>
<line x1="395" y1="251" x2="506" y2="251" stroke="#00f"/>
<rect x="303" y="246" width="92" height="10" fill="#ff0"/>
<rect x="508" y="246" width="224" height="10" fill="#ff0"/>
<text x="20" y="275" class="sm">0.003865</text>
<rect x="100" y="265" width="299" height="12" fill="#00f"/>
<rect x="507" y="265" width="458" height="12" fill="#00f"/>
<line x1="399" y1="271" x2="506" y2="271" stroke="#00f"/>
<rect x="526" y="266" width="206" height="10" fill="#ff0"/>
<text x="20" y="295" class="sm">0.001179</text>
<rect x="100" y="285" width="292" height="12" fill="#00f"/>
<rect x="507" y="285" width="458" height="12" fill="#00f"/>
<line x1="392" y1="291" x2="506" y2="291" stroke="#00f"/>
<rect x="303" y="286" width="89" height="10" fill="#ff0"/>
<rect x="508" y="286" width="224" height="10" fill="#ff0"/>
<text x="20" y="315" class="sm">0.0005516</text>
<rect x="100" y="305" width="302" height="12" fill="#00f"/>
<rect x="507" y="305" width="458" height="12" fill="#00f"/>
<line x1="402" y1="311" x2="506" y2="311" stroke="#00f"/>
<rect x="526" y="306" width="206" height="10" fill="#ff0"/>
<text x="20" y="335" class="sm">0.0003911</text>
<rect x="100" y="325" width="74" height="12" fill="#00f"/>
<rect x="258" y="325" width="707" height="12" fill="#00f"/>
<line x1="174" y1="331" x2="257" y2="331" stroke="#00f"/>
<rect x="104" y="326" width="70" height="10" fill="#ff0"/>
<rect x="259" y="326" width="144" height="10" fill="#ff0"/>
<text x="20" y="355" class="sm">0.0002741</text>
<rect x="100" y="345" width="45" height="12" fill="#00f"/>
<rect x="258" y="345" width="707" height="12" fill="#00f"/>
<line x1="145" y1="351" x2="257" y2="351" stroke="#00f"/>
<rect x="526" y="346" width="206" height="10" fill="#ff0"/>
<text x="20" y="375" class="sm">0.0002597</text>
<rect x="100" y="365" width="729" height="12" fill="#00f"/>
<rect x="876" y="365" width="89" height="12" fill="#00f"/>
<line x1="829" y1="371" x2="875" y2="371" stroke="#00f"/>
<rect x="526" y="366" width="206" height="10" fill="#ff0"/>
<text x="20" y="395" class="sm">0.0002261</text>
<rect x="100" y="385" width="295" height="12" fill="#00f"/>
<rect x="568" y="385" width="397" height="12" fill="#00f"/>
<line x1="395" y1="391" x2="567" y2="391" stroke="#00f"/>
<rect x="303" y="386" width="92" height="10" fill="#ff0"/>
<rect x="569" y="386" width="182" height="10" fill="#ff0"/>
<text x="20" y="415" class="sm">0.0001717</text>
<rect x="100" y="405" width="106" height="12" fill="#00f"/>
<rect x="273" y="405" width="692" height="12" fill="#00f"/>
<line x1="206" y1="411" x2="272" y2="411" stroke="#00f"/>
<rect x="104" y="406" width="102" height="10" fill="#ff0"/>
<rect x="274" y="406" width="139" height="10" fill="#ff0"/>
<text x="20" y="435" class="sm">0.0001607</text>
<rect x="100" y="425" width="106" height="12" fill="#00f"/>
<rect x="507" y="425" width="458" height="12" fill="#00f"/>
<line x1="206" y1="431" x2="506" y2="431" stroke="#00f"/>
<rect x="526" y="426" width="206" height="10" fill="#ff0"/>
<text x="20" y="455" class="sm">7.701e-05</text>
<rect x="100" y="445" width="645" height="12" fill="#00f"/>
<rect x="876" y="445" width="89" height="12" fill="#00f"/>
<line x1="745" y1="451" x2="875" y2="451" stroke="#00f"/>
<rect x="551" y="446" width="194" height="10" fill="#ff0"/>
<rect x="877" y="446" width="74" height="10" fill="#ff0"/>
<text x="20" y="475" class="sm">6.207e-05</text>
<rect x="100" y="465" width="295" height="12" fill="#00f"/>
<rect x="586" y="465" width="379" height="12" fill="#00f"/>
<line x1="395" y1="471" x2="585" y2="471" stroke="#00f"/>
<rect x="303" y="466" width="92" height="10" fill="#ff0"/>
<rect x="587" y="466" width="164" height="10" fill="#ff0"/>
<text x="20" y="495" class="sm">4.994e-05</text>
<rect x="100" y="485" width="663" height="12" fill="#00f"/>
<rect x="876" y="485" width="89" height="12" fill="#00f"/>
<line x1="763" y1="491" x2="875" y2="491" stroke="#00f"/>
<rect x="526" y="486" width="206" height="10" fill="#ff0"/>
<text x="20" y="515" class="sm">2.608e-05</text>
<rect x="100" y="505" width="295" height="12" fill="#00f"/>
<rect x="876" y="505" width="89" height="12" fill="#00f"/>
<line x1="395" y1="511" x2="875" y2="511" stroke="#00f"/>
<rect x="303" y="506" width="92" height="10" fill="#ff0"/>
<rect x="877" y="506" width="74" height="10" fill="#ff0"/>
<text x="20" y="535" class="sm">9.15e-06</text>
<rect x="100" y="525" width="106" height="12" fill="#00f"/>
<rect x="332" y="525" width="633" height="12" fill="#00f"/>
<line x1="206" y1="531" x2="331" y2="531" stroke="#00f"/>
<rect x="526" y="526" width="206" height="10" fill="#ff0"/>
<text x="20" y="555" class="sm">8.873e-06</text>
<rect x="100" y="545" width="218" height="12" fill="#00f"/>
<rect x="507" y="545" width="458" height="12" fill="#00f"/>
<line x1="318" y1="551" x2="506" y2="551" stroke="#00f"/>
<rect x="526" y="546" width="206" height="10" fill="#ff0"/>
<text x="20" y="575" class="sm">7.306e-06</text>
<rect x="100" y="565" width="274" height="12" fill="#00f"/>
<rect x="507" y="565" width="458" height="12" fill="#00f"/>
<line x1="374" y1="571" x2="506" y2="571" stroke="#00f"/>
<rect x="303" y="566" width="71" height="10" fill="#ff0"/>
<rect x="508" y="566" width="224" height="10" fill="#ff0"/>
<text x="20" y="595" class="sm">6.31e-06</text>
<rect x="100" y="585" width="295" height="12" fill="#00f"/>
<rect x="457" y="585" width="508" height="12" fill="#00f"/>
<line x1="395" y1="591" x2="456" y2="591" stroke="#00f"/>
<rect x="526" y="586" width="206" height="10" fill="#ff0"/>
<text x="20" y="615" class="sm">6.043e-06</text>
<rect x="100" y="605" width="74" height="12" fill="#00f"/>
<rect x="218" y="605" width="747" height="12" fill="#00f"/>
<line x1="174" y1="611" x2="217" y2="611" stroke="#00f"/>
<rect x="526" y="606" width="206" height="10" fill="#ff0"/>
</svg>
