<svg viewBox="0 0 803 755" xmlns="http://www.w3.org/2000/svg">

<style>
  .sm { font: 12px sans-serif; }
  .lg { font: 15px sans-serif; }
</style>
<rect fill="#ddd" x="0" y="0" width="100%" height="100%"/>
<text x="20" y="20" class="lg">ch.7497 III:5705425-5706227 Gene:WBGene00004435</text>
<text x="20" y="50" class="sm">WormBase</text>
<rect x="102" y="40" width="231" height="12" fill="#00f"/>
<rect x="429" y="40" width="276" height="12" fill="#00f"/>
<line x1="333" y1="46" x2="428" y2="46" stroke="#00f"/>
<rect x="108" y="41" width="225" height="10" fill="#ff0"/>
<rect x="430" y="41" width="196" height="10" fill="#ff0"/>
<rect x="103" y="41" width="4" height="10" fill="brown"><title>.</title></rect>
<rect x="627" y="41" width="78" height="10" fill="brown"><title>.</title></rect>
<text x="20" y="70" class="sm">WormBase</text>
<rect x="102" y="60" width="231" height="12" fill="#00f"/>
<rect x="429" y="60" width="238" height="12" fill="#00f"/>
<line x1="333" y1="66" x2="428" y2="66" stroke="#00f"/>
<rect x="108" y="61" width="225" height="10" fill="#ff0"/>
<rect x="430" y="61" width="196" height="10" fill="#ff0"/>
<rect x="103" y="61" width="4" height="10" fill="brown"><title>.</title></rect>
<rect x="627" y="61" width="40" height="10" fill="brown"><title>.</title></rect>
<text x="20" y="90" class="sm">Fitness: 9.716335999114578e-06</text>
<rect x="333" y="85" width="96" height="5" fill="#00f"><title>25112100.0</title></rect>
<rect x="333" y="90" width="105" height="5" fill="#00f"><title>103.0</title></rect>
<rect x="252" y="95" width="50" height="5" fill="#f0f"><title>68.0</title></rect>
<rect x="249" y="100" width="192" height="5" fill="#00f"><title>48.0</title></rect>
<rect x="470" y="105" width="80" height="5" fill="#f0f"><title>38.0</title></rect>
<rect x="179" y="110" width="30" height="5" fill="#f0f"><title>37.0</title></rect>
<rect x="232" y="115" width="69" height="5" fill="#f0f"><title>24.0</title></rect>
<rect x="464" y="120" width="80" height="5" fill="#f0f"><title>23.0</title></rect>
<rect x="224" y="125" width="28" height="5" fill="#f0f"><title>23.0</title></rect>
<rect x="214" y="130" width="70" height="5" fill="#f0f"><title>19.0</title></rect>
<rect x="501" y="135" width="36" height="5" fill="#f0f"><title>18.0</title></rect>
<rect x="333" y="140" width="118" height="5" fill="#00f"><title>18.0</title></rect>
<rect x="480" y="145" width="62" height="5" fill="#00f"><title>17.0</title></rect>
<rect x="333" y="150" width="209" height="5" fill="#00f"><title>14.0</title></rect>
<rect x="490" y="155" width="37" height="5" fill="#f0f"><title>13.0</title></rect>
<rect x="191" y="160" width="105" height="5" fill="#f0f"><title>12.0</title></rect>
<rect x="145" y="165" width="66" height="5" fill="#f0f"><title>12.0</title></rect>
<rect x="299" y="170" width="156" height="5" fill="#00f"><title>11.0</title></rect>
<rect x="224" y="175" width="69" height="5" fill="#f0f"><title>9.0</title></rect>
<rect x="270" y="180" width="254" height="5" fill="#f0f"><title>7.0</title></rect>
<rect x="498" y="185" width="39" height="5" fill="#f0f"><title>6.0</title></rect>
<rect x="170" y="190" width="133" height="5" fill="#f0f"><title>6.0</title></rect>
<rect x="207" y="195" width="69" height="5" fill="#f0f"><title>6.0</title></rect>
<rect x="548" y="200" width="69" height="5" fill="#f0f"><title>5.0</title></rect>
<rect x="249" y="205" width="189" height="5" fill="#00f"><title>5.0</title></rect>
<rect x="128" y="210" width="120" height="5" fill="#f0f"><title>5.0</title></rect>
<rect x="471" y="215" width="124" height="5" fill="#f0f"><title>4.0</title></rect>
<rect x="512" y="220" width="30" height="5" fill="#00f"><title>4.0</title></rect>
<rect x="487" y="225" width="51" height="5" fill="#f0f"><title>4.0</title></rect>
<rect x="333" y="230" width="180" height="5" fill="#00f"><title>4.0</title></rect>
<rect x="260" y="235" width="193" height="5" fill="#f0f"><title>4.0</title></rect>
<rect x="123" y="240" width="153" height="5" fill="#00f"><title>4.0</title></rect>
<rect x="132" y="245" width="65" height="5" fill="#f0f"><title>4.0</title></rect>
<rect x="155" y="250" width="40" height="5" fill="#f0f"><title>4.0</title></rect>
<rect x="705" y="255" width="60" height="5" fill="#00f"><title>3.0</title></rect>
<rect x="516" y="260" width="58" height="5" fill="#f0f"><title>3.0</title></rect>
<rect x="486" y="265" width="82" height="5" fill="#f0f"><title>3.0</title></rect>
<rect x="333" y="270" width="231" height="5" fill="#00f"><title>3.0</title></rect>
<rect x="494" y="275" width="47" height="5" fill="#f0f"><title>3.0</title></rect>
<rect x="337" y="280" width="193" height="5" fill="#00f"><title>3.0</title></rect>
<rect x="286" y="285" width="169" height="5" fill="#00f"><title>3.0</title></rect>
<rect x="226" y="290" width="227" height="5" fill="#f0f"><title>3.0</title></rect>
<rect x="337" y="295" width="92" height="5" fill="#00f"><title>3.0</title></rect>
<rect x="292" y="300" width="135" height="5" fill="#f0f"><title>3.0</title></rect>
<rect x="262" y="305" width="39" height="5" fill="#f0f"><title>3.0</title></rect>
<rect x="249" y="310" width="27" height="5" fill="#00f"><title>3.0</title></rect>
<rect x="229" y="315" width="25" height="5" fill="#f0f"><title>3.0</title></rect>
<text x="20" y="345" class="sm">1.0</text>
<rect x="100" y="335" width="233" height="12" fill="#00f"/>
<rect x="429" y="335" width="277" height="12" fill="#00f"/>
<line x1="333" y1="341" x2="428" y2="341" stroke="#00f"/>
<rect x="108" y="336" width="225" height="10" fill="#ff0"/>
<rect x="430" y="336" width="196" height="10" fill="#ff0"/>
<text x="20" y="365" class="sm">4.214e-06</text>
<rect x="100" y="355" width="233" height="12" fill="#00f"/>
<rect x="438" y="355" width="268" height="12" fill="#00f"/>
<line x1="333" y1="361" x2="437" y2="361" stroke="#00f"/>
<rect x="108" y="356" width="225" height="10" fill="#ff0"/>
<rect x="439" y="356" width="187" height="10" fill="#ff0"/>
<text x="20" y="385" class="sm">1.532e-06</text>
<rect x="100" y="375" width="186" height="12" fill="#00f"/>
<rect x="429" y="375" width="277" height="12" fill="#00f"/>
<line x1="286" y1="381" x2="428" y2="381" stroke="#00f"/>
<rect x="108" y="376" width="178" height="10" fill="#ff0"/>
<rect x="430" y="376" width="75" height="10" fill="#ff0"/>
<text x="20" y="405" class="sm">7.967e-07</text>
<rect x="100" y="395" width="237" height="12" fill="#00f"/>
<rect x="429" y="395" width="277" height="12" fill="#00f"/>
<line x1="337" y1="401" x2="428" y2="401" stroke="#00f"/>
<rect x="108" y="396" width="229" height="10" fill="#ff0"/>
<rect x="430" y="396" width="75" height="10" fill="#ff0"/>
<text x="20" y="425" class="sm">7.813e-07</text>
<rect x="100" y="415" width="233" height="12" fill="#00f"/>
<rect x="451" y="415" width="255" height="12" fill="#00f"/>
<line x1="333" y1="421" x2="450" y2="421" stroke="#00f"/>
<rect x="108" y="416" width="225" height="10" fill="#ff0"/>
<rect x="452" y="416" width="88" height="10" fill="#ff0"/>
<text x="20" y="445" class="sm">5.931e-07</text>
<rect x="100" y="435" width="257" height="12" fill="#00f"/>
<rect x="429" y="435" width="277" height="12" fill="#00f"/>
<line x1="357" y1="441" x2="428" y2="441" stroke="#00f"/>
<rect x="108" y="436" width="249" height="10" fill="#ff0"/>
<rect x="430" y="436" width="196" height="10" fill="#ff0"/>
<text x="20" y="465" class="sm">4.804e-07</text>
<rect x="100" y="455" width="175" height="12" fill="#00f"/>
<rect x="429" y="455" width="277" height="12" fill="#00f"/>
<line x1="275" y1="461" x2="428" y2="461" stroke="#00f"/>
<rect x="108" y="456" width="167" height="10" fill="#ff0"/>
<rect x="430" y="456" width="110" height="10" fill="#ff0"/>
<text x="20" y="485" class="sm">1.212e-07</text>
<rect x="100" y="475" width="190" height="12" fill="#00f"/>
<rect x="429" y="475" width="277" height="12" fill="#00f"/>
<line x1="290" y1="481" x2="428" y2="481" stroke="#00f"/>
<rect x="108" y="476" width="182" height="10" fill="#ff0"/>
<rect x="430" y="476" width="110" height="10" fill="#ff0"/>
<text x="20" y="505" class="sm">4.267e-08</text>
<rect x="100" y="495" width="233" height="12" fill="#00f"/>
<rect x="455" y="495" width="251" height="12" fill="#00f"/>
<line x1="333" y1="501" x2="454" y2="501" stroke="#00f"/>
<rect x="108" y="496" width="225" height="10" fill="#ff0"/>
<rect x="456" y="496" width="49" height="10" fill="#ff0"/>
<text x="20" y="525" class="sm">3.398e-08</text>
<rect x="100" y="515" width="199" height="12" fill="#00f"/>
<rect x="429" y="515" width="277" height="12" fill="#00f"/>
<line x1="299" y1="521" x2="428" y2="521" stroke="#00f"/>
<rect x="108" y="516" width="191" height="10" fill="#ff0"/>
<rect x="430" y="516" width="110" height="10" fill="#ff0"/>
<text x="20" y="545" class="sm">2.764e-08</text>
<rect x="100" y="535" width="272" height="12" fill="#00f"/>
<rect x="429" y="535" width="277" height="12" fill="#00f"/>
<line x1="372" y1="541" x2="428" y2="541" stroke="#00f"/>
<rect x="108" y="536" width="257" height="10" fill="#ff0"/>
<text x="20" y="565" class="sm">5.106e-09</text>
<rect x="100" y="555" width="233" height="12" fill="#00f"/>
<rect x="472" y="555" width="234" height="12" fill="#00f"/>
<line x1="333" y1="561" x2="471" y2="561" stroke="#00f"/>
<rect x="108" y="556" width="225" height="10" fill="#ff0"/>
<rect x="473" y="556" width="67" height="10" fill="#ff0"/>
<text x="20" y="585" class="sm">4.374e-09</text>
<rect x="100" y="575" width="233" height="12" fill="#00f"/>
<rect x="464" y="575" width="242" height="12" fill="#00f"/>
<line x1="333" y1="581" x2="463" y2="581" stroke="#00f"/>
<rect x="108" y="576" width="225" height="10" fill="#ff0"/>
<rect x="465" y="576" width="40" height="10" fill="#ff0"/>
<text x="20" y="605" class="sm">2.194e-09</text>
<rect x="100" y="595" width="186" height="12" fill="#00f"/>
<rect x="352" y="595" width="354" height="12" fill="#00f"/>
<line x1="286" y1="601" x2="351" y2="601" stroke="#00f"/>
<rect x="108" y="596" width="178" height="10" fill="#ff0"/>
<rect x="353" y="596" width="12" height="10" fill="#ff0"/>
<text x="20" y="625" class="sm">1.596e-09</text>
<rect x="100" y="615" width="233" height="12" fill="#00f"/>
<rect x="500" y="615" width="206" height="12" fill="#00f"/>
<line x1="333" y1="621" x2="499" y2="621" stroke="#00f"/>
<rect x="108" y="616" width="225" height="10" fill="#ff0"/>
<rect x="501" y="616" width="4" height="10" fill="#ff0"/>
<text x="20" y="645" class="sm">8.334e-10</text>
<rect x="100" y="635" width="175" height="12" fill="#00f"/>
<rect x="352" y="635" width="354" height="12" fill="#00f"/>
<line x1="275" y1="641" x2="351" y2="641" stroke="#00f"/>
<rect x="108" y="636" width="167" height="10" fill="#ff0"/>
<rect x="353" y="636" width="20" height="10" fill="#ff0"/>
<text x="20" y="665" class="sm">6.091e-10</text>
<rect x="100" y="655" width="143" height="12" fill="#00f"/>
<rect x="429" y="655" width="277" height="12" fill="#00f"/>
<line x1="243" y1="661" x2="428" y2="661" stroke="#00f"/>
<rect x="108" y="656" width="135" height="10" fill="#ff0"/>
<rect x="430" y="656" width="196" height="10" fill="#ff0"/>
<text x="20" y="685" class="sm">4.643e-10</text>
<rect x="100" y="675" width="474" height="12" fill="#00f"/>
<rect x="627" y="675" width="79" height="12" fill="#00f"/>
<line x1="574" y1="681" x2="626" y2="681" stroke="#00f"/>
<rect x="108" y="676" width="257" height="10" fill="#ff0"/>
<text x="20" y="705" class="sm">1.619e-10</text>
<rect x="100" y="695" width="233" height="12" fill="#00f"/>
<rect x="373" y="695" width="333" height="12" fill="#00f"/>
<line x1="333" y1="701" x2="372" y2="701" stroke="#00f"/>
<rect x="108" y="696" width="225" height="10" fill="#ff0"/>
<rect x="374" y="696" width="166" height="10" fill="#ff0"/>
<text x="20" y="725" class="sm">1.394e-10</text>
<rect x="100" y="715" width="190" height="12" fill="#00f"/>
<rect x="352" y="715" width="354" height="12" fill="#00f"/>
<line x1="290" y1="721" x2="351" y2="721" stroke="#00f"/>
<rect x="108" y="716" width="182" height="10" fill="#ff0"/>
<rect x="353" y="716" width="20" height="10" fill="#ff0"/>
</svg>
