<svg viewBox="0 0 551 635" xmlns="http://www.w3.org/2000/svg">

<style>
  .sm { font: 12px sans-serif; }
  .lg { font: 15px sans-serif; }
</style>
<rect fill="#ddd" x="0" y="0" width="100%" height="100%"/>
<text x="20" y="20" class="lg">ch.750 I:4790192-4790742 Gene:WBGene00023068</text>
<text x="20" y="50" class="sm">WormBase</text>
<rect x="100" y="40" width="50" height="12" fill="#00f"/>
<rect x="221" y="40" width="230" height="12" fill="#00f"/>
<line x1="150" y1="46" x2="220" y2="46" stroke="#00f"/>
<rect x="139" y="41" width="11" height="10" fill="#ff0"/>
<rect x="222" y="41" width="56" height="10" fill="#ff0"/>
<rect x="101" y="41" width="37" height="10" fill="brown"><title>.</title></rect>
<rect x="279" y="41" width="172" height="10" fill="brown"><title>.</title></rect>
<text x="20" y="70" class="sm">Fitness: 3.933927847973829e-05</text>
<rect x="150" y="65" width="71" height="5" fill="#00f"><title>43834400.0</title></rect>
<rect x="253" y="70" width="42" height="5" fill="#00f"><title>395.0</title></rect>
<rect x="292" y="75" width="46" height="5" fill="#f0f"><title>235.0</title></rect>
<rect x="150" y="80" width="80" height="5" fill="#00f"><title>234.0</title></rect>
<rect x="150" y="85" width="42" height="5" fill="#00f"><title>152.0</title></rect>
<rect x="314" y="90" width="40" height="5" fill="#00f"><title>143.0</title></rect>
<rect x="406" y="95" width="50" height="5" fill="#00f"><title>121.0</title></rect>
<rect x="150" y="100" width="83" height="5" fill="#00f"><title>66.0</title></rect>
<rect x="150" y="105" width="125" height="5" fill="#00f"><title>59.0</title></rect>
<rect x="300" y="110" width="53" height="5" fill="#00f"><title>38.0</title></rect>
<rect x="309" y="115" width="55" height="5" fill="#00f"><title>31.0</title></rect>
<rect x="150" y="120" width="101" height="5" fill="#00f"><title>26.0</title></rect>
<rect x="150" y="125" width="133" height="5" fill="#00f"><title>17.0</title></rect>
<rect x="131" y="130" width="90" height="5" fill="#00f"><title>14.0</title></rect>
<rect x="131" y="135" width="271" height="5" fill="#f0f"><title>11.0</title></rect>
<rect x="317" y="140" width="29" height="5" fill="#00f"><title>11.0</title></rect>
<rect x="150" y="145" width="112" height="5" fill="#00f"><title>9.0</title></rect>
<rect x="320" y="150" width="30" height="5" fill="#f0f"><title>9.0</title></rect>
<rect x="253" y="155" width="82" height="5" fill="#00f"><title>6.0</title></rect>
<rect x="245" y="160" width="35" height="5" fill="#f0f"><title>5.0</title></rect>
<rect x="274" y="165" width="25" height="5" fill="#00f"><title>5.0</title></rect>
<rect x="406" y="170" width="112" height="5" fill="#00f"><title>5.0</title></rect>
<rect x="150" y="175" width="114" height="5" fill="#00f"><title>4.0</title></rect>
<rect x="302" y="180" width="36" height="5" fill="#00f"><title>4.0</title></rect>
<rect x="259" y="185" width="101" height="5" fill="#00f"><title>3.0</title></rect>
<rect x="290" y="190" width="35" height="5" fill="#00f"><title>3.0</title></rect>
<rect x="314" y="195" width="25" height="5" fill="#00f"><title>3.0</title></rect>
<text x="20" y="225" class="sm">1.0</text>
<rect x="100" y="215" width="50" height="12" fill="#00f"/>
<rect x="221" y="215" width="233" height="12" fill="#00f"/>
<line x1="150" y1="221" x2="220" y2="221" stroke="#00f"/>
<rect x="139" y="216" width="11" height="10" fill="#ff0"/>
<rect x="222" y="216" width="56" height="10" fill="#ff0"/>
<text x="20" y="245" class="sm">1.212e-05</text>
<rect x="100" y="235" width="50" height="12" fill="#00f"/>
<rect x="230" y="235" width="224" height="12" fill="#00f"/>
<line x1="150" y1="241" x2="229" y2="241" stroke="#00f"/>
<rect x="139" y="236" width="11" height="10" fill="#ff0"/>
<rect x="231" y="236" width="47" height="10" fill="#ff0"/>
<text x="20" y="265" class="sm">9.388e-06</text>
<rect x="100" y="255" width="50" height="12" fill="#00f"/>
<rect x="192" y="255" width="262" height="12" fill="#00f"/>
<line x1="150" y1="261" x2="191" y2="261" stroke="#00f"/>
<rect x="237" y="256" width="41" height="10" fill="#ff0"/>
<text x="20" y="285" class="sm">4.82e-06</text>
<rect x="100" y="275" width="31" height="12" fill="#00f"/>
<rect x="221" y="275" width="233" height="12" fill="#00f"/>
<line x1="131" y1="281" x2="220" y2="281" stroke="#00f"/>
<rect x="237" y="276" width="41" height="10" fill="#ff0"/>
<text x="20" y="305" class="sm">1.386e-06</text>
<rect x="100" y="295" width="50" height="12" fill="#00f"/>
<rect x="233" y="295" width="221" height="12" fill="#00f"/>
<line x1="150" y1="301" x2="232" y2="301" stroke="#00f"/>
<rect x="139" y="296" width="11" height="10" fill="#ff0"/>
<rect x="234" y="296" width="44" height="10" fill="#ff0"/>
<text x="20" y="325" class="sm">1.278e-06</text>
<rect x="100" y="315" width="50" height="12" fill="#00f"/>
<rect x="251" y="315" width="203" height="12" fill="#00f"/>
<line x1="150" y1="321" x2="250" y2="321" stroke="#00f"/>
<rect x="139" y="316" width="11" height="10" fill="#ff0"/>
<rect x="252" y="316" width="26" height="10" fill="#ff0"/>
<text x="20" y="345" class="sm">5.273e-09</text>
<rect x="100" y="335" width="50" height="12" fill="#00f"/>
<rect x="257" y="335" width="197" height="12" fill="#00f"/>
<line x1="150" y1="341" x2="256" y2="341" stroke="#00f"/>
<rect x="139" y="336" width="11" height="10" fill="#ff0"/>
<rect x="258" y="336" width="20" height="10" fill="#ff0"/>
<text x="20" y="365" class="sm">4.155e-09</text>
<rect x="100" y="355" width="50" height="12" fill="#00f"/>
<rect x="299" y="355" width="155" height="12" fill="#00f"/>
<line x1="150" y1="361" x2="298" y2="361" stroke="#00f"/>
<rect x="139" y="356" width="11" height="10" fill="#ff0"/>
<rect x="300" y="356" width="104" height="10" fill="#ff0"/>
<text x="20" y="385" class="sm">4.219e-10</text>
<rect x="100" y="375" width="50" height="12" fill="#00f"/>
<rect x="278" y="375" width="176" height="12" fill="#00f"/>
<line x1="150" y1="381" x2="277" y2="381" stroke="#00f"/>
<rect x="139" y="376" width="11" height="10" fill="#ff0"/>
<rect x="279" y="376" width="125" height="10" fill="#ff0"/>
<text x="20" y="405" class="sm">1.354e-10</text>
<rect x="100" y="395" width="50" height="12" fill="#00f"/>
<rect x="283" y="395" width="171" height="12" fill="#00f"/>
<line x1="150" y1="401" x2="282" y2="401" stroke="#00f"/>
<text x="20" y="425" class="sm">6.59e-11</text>
<rect x="100" y="415" width="50" height="12" fill="#00f"/>
<rect x="262" y="415" width="192" height="12" fill="#00f"/>
<line x1="150" y1="421" x2="261" y2="421" stroke="#00f"/>
<text x="20" y="445" class="sm">6.224e-11</text>
<rect x="100" y="435" width="31" height="12" fill="#00f"/>
<rect x="230" y="435" width="224" height="12" fill="#00f"/>
<line x1="131" y1="441" x2="229" y2="441" stroke="#00f"/>
<rect x="237" y="436" width="41" height="10" fill="#ff0"/>
<text x="20" y="465" class="sm">6.147e-11</text>
<rect x="100" y="455" width="50" height="12" fill="#00f"/>
<rect x="275" y="455" width="179" height="12" fill="#00f"/>
<line x1="150" y1="461" x2="274" y2="461" stroke="#00f"/>
<rect x="139" y="456" width="11" height="10" fill="#ff0"/>
<rect x="276" y="456" width="2" height="10" fill="#ff0"/>
<text x="20" y="485" class="sm">5.853e-11</text>
<rect x="100" y="475" width="91" height="12" fill="#00f"/>
<rect x="230" y="475" width="224" height="12" fill="#00f"/>
<line x1="191" y1="481" x2="229" y2="481" stroke="#00f"/>
<rect x="237" y="476" width="41" height="10" fill="#ff0"/>
<text x="20" y="505" class="sm">5.305e-11</text>
<rect x="100" y="495" width="50" height="12" fill="#00f"/>
<rect x="272" y="495" width="182" height="12" fill="#00f"/>
<line x1="150" y1="501" x2="271" y2="501" stroke="#00f"/>
<rect x="139" y="496" width="11" height="10" fill="#ff0"/>
<rect x="273" y="496" width="5" height="10" fill="#ff0"/>
<text x="20" y="525" class="sm">4.482e-11</text>
<rect x="100" y="515" width="50" height="12" fill="#00f"/>
<rect x="259" y="515" width="195" height="12" fill="#00f"/>
<line x1="150" y1="521" x2="258" y2="521" stroke="#00f"/>
<text x="20" y="545" class="sm">3.605e-11</text>
<rect x="100" y="535" width="31" height="12" fill="#00f"/>
<rect x="192" y="535" width="262" height="12" fill="#00f"/>
<line x1="131" y1="541" x2="191" y2="541" stroke="#00f"/>
<rect x="237" y="536" width="41" height="10" fill="#ff0"/>
<text x="20" y="565" class="sm">1.202e-11</text>
<rect x="100" y="555" width="50" height="12" fill="#00f"/>
<rect x="264" y="555" width="190" height="12" fill="#00f"/>
<line x1="150" y1="561" x2="263" y2="561" stroke="#00f"/>
<rect x="139" y="556" width="11" height="10" fill="#ff0"/>
<rect x="265" y="556" width="173" height="10" fill="#ff0"/>
<text x="20" y="585" class="sm">9.484e-12</text>
<rect x="100" y="575" width="91" height="12" fill="#00f"/>
<rect x="233" y="575" width="221" height="12" fill="#00f"/>
<line x1="191" y1="581" x2="232" y2="581" stroke="#00f"/>
<rect x="237" y="576" width="41" height="10" fill="#ff0"/>
<text x="20" y="605" class="sm">7.368e-12</text>
<rect x="100" y="595" width="31" height="12" fill="#00f"/>
<rect x="233" y="595" width="221" height="12" fill="#00f"/>
<line x1="131" y1="601" x2="232" y2="601" stroke="#00f"/>
<rect x="237" y="596" width="41" height="10" fill="#ff0"/>
</svg>
