<svg viewBox="0 0 931 550" xmlns="http://www.w3.org/2000/svg">

<style>
  .sm { font: 12px sans-serif; }
  .lg { font: 15px sans-serif; }
</style>
<rect fill="#ddd" x="0" y="0" width="100%" height="100%"/>
<text x="20" y="20" class="lg">ch.7370 III:5158775-5159705 Gene:WBGene00044604</text>
<text x="20" y="50" class="sm">WormBase</text>
<rect x="102" y="40" width="40" height="12" fill="#00f"/>
<rect x="376" y="40" width="156" height="12" fill="#00f"/>
<rect x="578" y="40" width="255" height="12" fill="#00f"/>
<line x1="142" y1="46" x2="375" y2="46" stroke="#00f"/>
<line x1="532" y1="46" x2="577" y2="46" stroke="#00f"/>
<rect x="104" y="41" width="38" height="10" fill="#ff0"/>
<rect x="377" y="41" width="155" height="10" fill="#ff0"/>
<rect x="579" y="41" width="218" height="10" fill="#ff0"/>
<rect x="103" y="41" width="0" height="10" fill="brown"><title>.</title></rect>
<rect x="798" y="41" width="35" height="10" fill="brown"><title>.</title></rect>
<text x="20" y="70" class="sm">Fitness: 0.3933765035978443</text>
<rect x="532" y="65" width="46" height="5" fill="#00f"><title>313630.0</title></rect>
<rect x="142" y="70" width="234" height="5" fill="#00f"><title>206379.0</title></rect>
<rect x="195" y="75" width="181" height="5" fill="#00f"><title>103.0</title></rect>
<rect x="525" y="80" width="53" height="5" fill="#00f"><title>75.0</title></rect>
<rect x="142" y="85" width="436" height="5" fill="#00f"><title>26.0</title></rect>
<rect x="142" y="90" width="325" height="5" fill="#00f"><title>16.0</title></rect>
<rect x="142" y="95" width="276" height="5" fill="#00f"><title>10.0</title></rect>
<rect x="142" y="100" width="36" height="5" fill="#00f"><title>8.0</title></rect>
<rect x="504" y="105" width="207" height="5" fill="#f0f"><title>4.0</title></rect>
<rect x="25" y="110" width="54" height="5" fill="#f0f"><title>3.0</title></rect>
<text x="20" y="140" class="sm">0.6009</text>
<rect x="100" y="130" width="432" height="12" fill="#00f"/>
<rect x="578" y="130" width="256" height="12" fill="#00f"/>
<line x1="532" y1="136" x2="577" y2="136" stroke="#00f"/>
<rect x="437" y="131" width="95" height="10" fill="#ff0"/>
<rect x="579" y="131" width="218" height="10" fill="#ff0"/>
<text x="20" y="160" class="sm">0.2039</text>
<rect x="100" y="150" width="42" height="12" fill="#00f"/>
<rect x="376" y="150" width="458" height="12" fill="#00f"/>
<line x1="142" y1="156" x2="375" y2="156" stroke="#00f"/>
<rect x="104" y="151" width="38" height="10" fill="#ff0"/>
<rect x="377" y="151" width="170" height="10" fill="#ff0"/>
<text x="20" y="180" class="sm">0.1049</text>
<rect x="100" y="170" width="42" height="12" fill="#00f"/>
<rect x="178" y="170" width="656" height="12" fill="#00f"/>
<line x1="142" y1="176" x2="177" y2="176" stroke="#00f"/>
<rect x="612" y="171" width="185" height="10" fill="#ff0"/>
<text x="20" y="200" class="sm">0.02271</text>
<rect x="100" y="190" width="95" height="12" fill="#00f"/>
<rect x="376" y="190" width="458" height="12" fill="#00f"/>
<line x1="195" y1="196" x2="375" y2="196" stroke="#00f"/>
<rect x="145" y="191" width="50" height="10" fill="#ff0"/>
<rect x="377" y="191" width="170" height="10" fill="#ff0"/>
<text x="20" y="220" class="sm">0.0199</text>
<rect x="100" y="210" width="186" height="12" fill="#00f"/>
<rect x="376" y="210" width="458" height="12" fill="#00f"/>
<line x1="286" y1="216" x2="375" y2="216" stroke="#00f"/>
<rect x="145" y="211" width="141" height="10" fill="#ff0"/>
<rect x="377" y="211" width="52" height="10" fill="#ff0"/>
<text x="20" y="240" class="sm">0.01556</text>
<rect x="100" y="230" width="42" height="12" fill="#00f"/>
<rect x="467" y="230" width="367" height="12" fill="#00f"/>
<line x1="142" y1="236" x2="466" y2="236" stroke="#00f"/>
<rect x="612" y="231" width="185" height="10" fill="#ff0"/>
<text x="20" y="260" class="sm">0.01238</text>
<rect x="100" y="250" width="432" height="12" fill="#00f"/>
<rect x="639" y="250" width="195" height="12" fill="#00f"/>
<line x1="532" y1="256" x2="638" y2="256" stroke="#00f"/>
<rect x="145" y="251" width="218" height="10" fill="#ff0"/>
<text x="20" y="280" class="sm">0.00613</text>
<rect x="100" y="270" width="509" height="12" fill="#00f"/>
<rect x="659" y="270" width="175" height="12" fill="#00f"/>
<line x1="609" y1="276" x2="658" y2="276" stroke="#00f"/>
<rect x="145" y="271" width="218" height="10" fill="#ff0"/>
<text x="20" y="300" class="sm">0.002513</text>
<rect x="100" y="290" width="42" height="12" fill="#00f"/>
<rect x="578" y="290" width="256" height="12" fill="#00f"/>
<line x1="142" y1="296" x2="577" y2="296" stroke="#00f"/>
<rect x="104" y="291" width="38" height="10" fill="#ff0"/>
<rect x="579" y="291" width="218" height="10" fill="#ff0"/>
<text x="20" y="320" class="sm">0.002418</text>
<rect x="100" y="310" width="259" height="12" fill="#00f"/>
<rect x="467" y="310" width="367" height="12" fill="#00f"/>
<line x1="359" y1="316" x2="466" y2="316" stroke="#00f"/>
<rect x="145" y="311" width="214" height="10" fill="#ff0"/>
<rect x="468" y="311" width="3" height="10" fill="#ff0"/>
<text x="20" y="340" class="sm">0.001622</text>
<rect x="100" y="330" width="95" height="12" fill="#00f"/>
<rect x="467" y="330" width="367" height="12" fill="#00f"/>
<line x1="195" y1="336" x2="466" y2="336" stroke="#00f"/>
<rect x="612" y="331" width="185" height="10" fill="#ff0"/>
<text x="20" y="360" class="sm">0.001593</text>
<rect x="100" y="350" width="509" height="12" fill="#00f"/>
<rect x="654" y="350" width="180" height="12" fill="#00f"/>
<line x1="609" y1="356" x2="653" y2="356" stroke="#00f"/>
<rect x="145" y="351" width="218" height="10" fill="#ff0"/>
<text x="20" y="380" class="sm">0.001311</text>
<rect x="100" y="370" width="186" height="12" fill="#00f"/>
<rect x="467" y="370" width="367" height="12" fill="#00f"/>
<line x1="286" y1="376" x2="466" y2="376" stroke="#00f"/>
<rect x="145" y="371" width="141" height="10" fill="#ff0"/>
<rect x="468" y="371" width="79" height="10" fill="#ff0"/>
<text x="20" y="400" class="sm">0.001002</text>
<rect x="100" y="390" width="297" height="12" fill="#00f"/>
<rect x="467" y="390" width="367" height="12" fill="#00f"/>
<line x1="397" y1="396" x2="466" y2="396" stroke="#00f"/>
<rect x="145" y="391" width="218" height="10" fill="#ff0"/>
<text x="20" y="420" class="sm">0.0009444</text>
<rect x="100" y="410" width="42" height="12" fill="#00f"/>
<rect x="366" y="410" width="468" height="12" fill="#00f"/>
<line x1="142" y1="416" x2="365" y2="416" stroke="#00f"/>
<rect x="132" y="411" width="10" height="10" fill="#ff0"/>
<rect x="367" y="411" width="180" height="10" fill="#ff0"/>
<text x="20" y="440" class="sm">0.0008964</text>
<rect x="100" y="430" width="42" height="12" fill="#00f"/>
<rect x="418" y="430" width="416" height="12" fill="#00f"/>
<line x1="142" y1="436" x2="417" y2="436" stroke="#00f"/>
<rect x="612" y="431" width="185" height="10" fill="#ff0"/>
<text x="20" y="460" class="sm">0.0003587</text>
<rect x="100" y="450" width="259" height="12" fill="#00f"/>
<rect x="578" y="450" width="256" height="12" fill="#00f"/>
<line x1="359" y1="456" x2="577" y2="456" stroke="#00f"/>
<rect x="145" y="451" width="214" height="10" fill="#ff0"/>
<rect x="579" y="451" width="36" height="10" fill="#ff0"/>
<text x="20" y="480" class="sm">0.0003464</text>
<rect x="100" y="470" width="42" height="12" fill="#00f"/>
<rect x="436" y="470" width="398" height="12" fill="#00f"/>
<line x1="142" y1="476" x2="435" y2="476" stroke="#00f"/>
<rect x="612" y="471" width="185" height="10" fill="#ff0"/>
<text x="20" y="500" class="sm">0.000285</text>
<rect x="100" y="490" width="95" height="12" fill="#00f"/>
<rect x="578" y="490" width="256" height="12" fill="#00f"/>
<line x1="195" y1="496" x2="577" y2="496" stroke="#00f"/>
<rect x="145" y="491" width="50" height="10" fill="#ff0"/>
<rect x="579" y="491" width="218" height="10" fill="#ff0"/>
<text x="20" y="520" class="sm">0.0002849</text>
<rect x="100" y="510" width="259" height="12" fill="#00f"/>
<rect x="418" y="510" width="416" height="12" fill="#00f"/>
<line x1="359" y1="516" x2="417" y2="516" stroke="#00f"/>
<rect x="145" y="511" width="214" height="10" fill="#ff0"/>
<rect x="419" y="511" width="48" height="10" fill="#ff0"/>
</svg>
