<svg viewBox="0 0 752 565" xmlns="http://www.w3.org/2000/svg">

<style>
  .sm { font: 12px sans-serif; }
  .lg { font: 15px sans-serif; }
</style>
<rect fill="#ddd" x="0" y="0" width="100%" height="100%"/>
<text x="20" y="20" class="lg">ch.7172 III:4417405-4418156 Gene:WBGene00303105</text>
<text x="20" y="50" class="sm">WormBase</text>
<rect x="102" y="40" width="170" height="12" fill="#00f"/>
<rect x="346" y="40" width="308" height="12" fill="#00f"/>
<line x1="272" y1="46" x2="345" y2="46" stroke="#00f"/>
<rect x="107" y="41" width="165" height="10" fill="#ff0"/>
<rect x="347" y="41" width="142" height="10" fill="#ff0"/>
<rect x="103" y="41" width="3" height="10" fill="brown"><title>.</title></rect>
<rect x="490" y="41" width="164" height="10" fill="brown"><title>.</title></rect>
<text x="20" y="70" class="sm">Fitness: 0.8260584999203956</text>
<rect x="272" y="65" width="74" height="5" fill="#00f"><title>364958.0</title></rect>
<rect x="516" y="70" width="203" height="5" fill="#00f"><title>256685.0</title></rect>
<rect x="10" y="75" width="92" height="5" fill="#00f"><title>76.0</title></rect>
<rect x="272" y="80" width="90" height="5" fill="#00f"><title>26.0</title></rect>
<rect x="424" y="85" width="295" height="5" fill="#00f"><title>24.0</title></rect>
<rect x="516" y="90" width="192" height="5" fill="#00f"><title>24.0</title></rect>
<rect x="204" y="95" width="142" height="5" fill="#00f"><title>22.0</title></rect>
<rect x="675" y="100" width="44" height="5" fill="#00f"><title>7.0</title></rect>
<rect x="516" y="105" width="212" height="5" fill="#00f"><title>6.0</title></rect>
<rect x="664" y="110" width="55" height="5" fill="#00f"><title>5.0</title></rect>
<rect x="272" y="115" width="447" height="5" fill="#00f"><title>5.0</title></rect>
<rect x="516" y="120" width="181" height="5" fill="#00f"><title>5.0</title></rect>
<rect x="523" y="125" width="196" height="5" fill="#00f"><title>4.0</title></rect>
<text x="20" y="155" class="sm">0.6706</text>
<rect x="100" y="145" width="172" height="12" fill="#00f"/>
<rect x="346" y="145" width="309" height="12" fill="#00f"/>
<line x1="272" y1="151" x2="345" y2="151" stroke="#00f"/>
<rect x="107" y="146" width="165" height="10" fill="#ff0"/>
<rect x="347" y="146" width="142" height="10" fill="#ff0"/>
<text x="20" y="175" class="sm">0.2089</text>
<rect x="100" y="165" width="183" height="12" fill="#00f"/>
<rect x="346" y="165" width="309" height="12" fill="#00f"/>
<line x1="283" y1="171" x2="345" y2="171" stroke="#00f"/>
<rect x="107" y="166" width="176" height="10" fill="#ff0"/>
<rect x="347" y="166" width="32" height="10" fill="#ff0"/>
<text x="20" y="195" class="sm">0.04368</text>
<rect x="100" y="185" width="143" height="12" fill="#00f"/>
<rect x="346" y="185" width="309" height="12" fill="#00f"/>
<line x1="243" y1="191" x2="345" y2="191" stroke="#00f"/>
<rect x="107" y="186" width="136" height="10" fill="#ff0"/>
<rect x="347" y="186" width="126" height="10" fill="#ff0"/>
<text x="20" y="215" class="sm">0.03421</text>
<rect x="100" y="205" width="104" height="12" fill="#00f"/>
<rect x="346" y="205" width="309" height="12" fill="#00f"/>
<line x1="204" y1="211" x2="345" y2="211" stroke="#00f"/>
<rect x="107" y="206" width="97" height="10" fill="#ff0"/>
<rect x="347" y="206" width="126" height="10" fill="#ff0"/>
<text x="20" y="235" class="sm">0.01524</text>
<rect x="100" y="225" width="114" height="12" fill="#00f"/>
<rect x="346" y="225" width="309" height="12" fill="#00f"/>
<line x1="214" y1="231" x2="345" y2="231" stroke="#00f"/>
<rect x="107" y="226" width="107" height="10" fill="#ff0"/>
<rect x="347" y="226" width="32" height="10" fill="#ff0"/>
<text x="20" y="255" class="sm">0.01423</text>
<rect x="100" y="245" width="126" height="12" fill="#00f"/>
<rect x="346" y="245" width="309" height="12" fill="#00f"/>
<line x1="226" y1="251" x2="345" y2="251" stroke="#00f"/>
<rect x="107" y="246" width="119" height="10" fill="#ff0"/>
<rect x="347" y="246" width="32" height="10" fill="#ff0"/>
<text x="20" y="275" class="sm">0.003465</text>
<rect x="100" y="265" width="172" height="12" fill="#00f"/>
<rect x="362" y="265" width="293" height="12" fill="#00f"/>
<line x1="272" y1="271" x2="361" y2="271" stroke="#00f"/>
<rect x="107" y="266" width="165" height="10" fill="#ff0"/>
<rect x="363" y="266" width="16" height="10" fill="#ff0"/>
<text x="20" y="295" class="sm">0.003374</text>
<rect x="100" y="285" width="109" height="12" fill="#00f"/>
<rect x="346" y="285" width="309" height="12" fill="#00f"/>
<line x1="209" y1="291" x2="345" y2="291" stroke="#00f"/>
<rect x="107" y="286" width="102" height="10" fill="#ff0"/>
<rect x="347" y="286" width="142" height="10" fill="#ff0"/>
<text x="20" y="315" class="sm">0.001312</text>
<rect x="100" y="305" width="64" height="12" fill="#00f"/>
<rect x="346" y="305" width="309" height="12" fill="#00f"/>
<line x1="164" y1="311" x2="345" y2="311" stroke="#00f"/>
<rect x="107" y="306" width="57" height="10" fill="#ff0"/>
<rect x="347" y="306" width="142" height="10" fill="#ff0"/>
<text x="20" y="335" class="sm">0.001006</text>
<rect x="100" y="325" width="183" height="12" fill="#00f"/>
<rect x="362" y="325" width="293" height="12" fill="#00f"/>
<line x1="283" y1="331" x2="361" y2="331" stroke="#00f"/>
<rect x="107" y="326" width="176" height="10" fill="#ff0"/>
<rect x="363" y="326" width="110" height="10" fill="#ff0"/>
<text x="20" y="355" class="sm">0.0008309</text>
<rect x="100" y="345" width="87" height="12" fill="#00f"/>
<rect x="346" y="345" width="309" height="12" fill="#00f"/>
<line x1="187" y1="351" x2="345" y2="351" stroke="#00f"/>
<rect x="107" y="346" width="80" height="10" fill="#ff0"/>
<rect x="347" y="346" width="32" height="10" fill="#ff0"/>
<text x="20" y="375" class="sm">0.0006486</text>
<rect x="100" y="365" width="172" height="12" fill="#00f"/>
<rect x="346" y="365" width="225" height="12" fill="#00f"/>
<rect x="626" y="365" width="29" height="12" fill="#00f"/>
<line x1="272" y1="371" x2="345" y2="371" stroke="#00f"/>
<line x1="571" y1="371" x2="625" y2="371" stroke="#00f"/>
<rect x="107" y="366" width="165" height="10" fill="#ff0"/>
<rect x="347" y="366" width="142" height="10" fill="#ff0"/>
<text x="20" y="395" class="sm">0.0005632</text>
<rect x="100" y="385" width="471" height="12" fill="#00f"/>
<rect x="626" y="385" width="29" height="12" fill="#00f"/>
<line x1="571" y1="391" x2="625" y2="391" stroke="#00f"/>
<rect x="107" y="386" width="203" height="10" fill="#ff0"/>
<text x="20" y="415" class="sm">0.0005167</text>
<rect x="100" y="405" width="172" height="12" fill="#00f"/>
<rect x="346" y="405" width="170" height="12" fill="#00f"/>
<rect x="626" y="405" width="29" height="12" fill="#00f"/>
<line x1="272" y1="411" x2="345" y2="411" stroke="#00f"/>
<line x1="516" y1="411" x2="625" y2="411" stroke="#00f"/>
<rect x="107" y="406" width="165" height="10" fill="#ff0"/>
<rect x="347" y="406" width="142" height="10" fill="#ff0"/>
<text x="20" y="435" class="sm">0.0003862</text>
<rect x="100" y="425" width="416" height="12" fill="#00f"/>
<rect x="626" y="425" width="29" height="12" fill="#00f"/>
<line x1="516" y1="431" x2="625" y2="431" stroke="#00f"/>
<rect x="107" y="426" width="203" height="10" fill="#ff0"/>
<text x="20" y="455" class="sm">0.0002497</text>
<rect x="100" y="445" width="143" height="12" fill="#00f"/>
<rect x="362" y="445" width="293" height="12" fill="#00f"/>
<line x1="243" y1="451" x2="361" y2="451" stroke="#00f"/>
<rect x="107" y="446" width="136" height="10" fill="#ff0"/>
<rect x="363" y="446" width="126" height="10" fill="#ff0"/>
<text x="20" y="475" class="sm">0.0002057</text>
<rect x="100" y="465" width="104" height="12" fill="#00f"/>
<rect x="362" y="465" width="293" height="12" fill="#00f"/>
<line x1="204" y1="471" x2="361" y2="471" stroke="#00f"/>
<rect x="107" y="466" width="97" height="10" fill="#ff0"/>
<rect x="363" y="466" width="126" height="10" fill="#ff0"/>
<text x="20" y="495" class="sm">0.000202</text>
<rect x="100" y="485" width="183" height="12" fill="#00f"/>
<rect x="346" y="485" width="225" height="12" fill="#00f"/>
<rect x="626" y="485" width="29" height="12" fill="#00f"/>
<line x1="283" y1="491" x2="345" y2="491" stroke="#00f"/>
<line x1="571" y1="491" x2="625" y2="491" stroke="#00f"/>
<rect x="107" y="486" width="176" height="10" fill="#ff0"/>
<rect x="347" y="486" width="32" height="10" fill="#ff0"/>
<text x="20" y="515" class="sm">0.0001998</text>
<rect x="100" y="505" width="75" height="12" fill="#00f"/>
<rect x="346" y="505" width="309" height="12" fill="#00f"/>
<line x1="175" y1="511" x2="345" y2="511" stroke="#00f"/>
<rect x="107" y="506" width="68" height="10" fill="#ff0"/>
<rect x="347" y="506" width="32" height="10" fill="#ff0"/>
<text x="20" y="535" class="sm">0.000161</text>
<rect x="100" y="525" width="183" height="12" fill="#00f"/>
<rect x="346" y="525" width="170" height="12" fill="#00f"/>
<rect x="626" y="525" width="29" height="12" fill="#00f"/>
<line x1="283" y1="531" x2="345" y2="531" stroke="#00f"/>
<line x1="516" y1="531" x2="625" y2="531" stroke="#00f"/>
<rect x="107" y="526" width="176" height="10" fill="#ff0"/>
<rect x="347" y="526" width="32" height="10" fill="#ff0"/>
</svg>
