<svg viewBox="0 0 705 540" xmlns="http://www.w3.org/2000/svg">

<style>
  .sm { font: 12px sans-serif; }
  .lg { font: 15px sans-serif; }
</style>
<rect fill="#ddd" x="0" y="0" width="100%" height="100%"/>
<text x="20" y="20" class="lg">ch.7955 III:7861970-7862674 Gene:WBGene00004918</text>
<text x="20" y="50" class="sm">WormBase</text>
<rect x="100" y="40" width="99" height="12" fill="#00f"/>
<rect x="249" y="40" width="103" height="12" fill="#00f"/>
<rect x="459" y="40" width="146" height="12" fill="#00f"/>
<line x1="199" y1="46" x2="248" y2="46" stroke="#00f"/>
<line x1="352" y1="46" x2="458" y2="46" stroke="#00f"/>
<rect x="103" y="41" width="96" height="10" fill="#ff0"/>
<rect x="250" y="41" width="102" height="10" fill="#ff0"/>
<rect x="460" y="41" width="57" height="10" fill="#ff0"/>
<rect x="101" y="41" width="1" height="10" fill="brown"><title>.</title></rect>
<rect x="518" y="41" width="87" height="10" fill="brown"><title>.</title></rect>
<text x="20" y="70" class="sm">Fitness: 0.11033326400286199</text>
<rect x="199" y="65" width="50" height="5" fill="#00f"><title>1912090.0</title></rect>
<rect x="352" y="70" width="107" height="5" fill="#00f"><title>1814730.0</title></rect>
<rect x="352" y="75" width="79" height="5" fill="#00f"><title>241.0</title></rect>
<rect x="199" y="80" width="260" height="5" fill="#00f"><title>137.0</title></rect>
<rect x="356" y="85" width="103" height="5" fill="#00f"><title>34.0</title></rect>
<rect x="344" y="90" width="110" height="5" fill="#f0f"><title>16.0</title></rect>
<rect x="398" y="95" width="61" height="5" fill="#00f"><title>7.0</title></rect>
<rect x="199" y="100" width="88" height="5" fill="#00f"><title>3.0</title></rect>
<text x="20" y="130" class="sm">0.8934</text>
<rect x="100" y="120" width="99" height="12" fill="#00f"/>
<rect x="249" y="120" width="103" height="12" fill="#00f"/>
<rect x="459" y="120" width="149" height="12" fill="#00f"/>
<line x1="199" y1="126" x2="248" y2="126" stroke="#00f"/>
<line x1="352" y1="126" x2="458" y2="126" stroke="#00f"/>
<rect x="103" y="121" width="96" height="10" fill="#ff0"/>
<rect x="250" y="121" width="102" height="10" fill="#ff0"/>
<rect x="460" y="121" width="57" height="10" fill="#ff0"/>
<text x="20" y="150" class="sm">0.07588</text>
<rect x="100" y="140" width="103" height="12" fill="#00f"/>
<rect x="249" y="140" width="103" height="12" fill="#00f"/>
<rect x="459" y="140" width="149" height="12" fill="#00f"/>
<line x1="203" y1="146" x2="248" y2="146" stroke="#00f"/>
<line x1="352" y1="146" x2="458" y2="146" stroke="#00f"/>
<rect x="103" y="141" width="100" height="10" fill="#ff0"/>
<rect x="250" y="141" width="63" height="10" fill="#ff0"/>
<text x="20" y="170" class="sm">0.01577</text>
<rect x="100" y="160" width="99" height="12" fill="#00f"/>
<rect x="249" y="160" width="149" height="12" fill="#00f"/>
<rect x="459" y="160" width="149" height="12" fill="#00f"/>
<line x1="199" y1="166" x2="248" y2="166" stroke="#00f"/>
<line x1="398" y1="166" x2="458" y2="166" stroke="#00f"/>
<rect x="103" y="161" width="96" height="10" fill="#ff0"/>
<rect x="250" y="161" width="148" height="10" fill="#ff0"/>
<rect x="460" y="161" width="140" height="10" fill="#ff0"/>
<text x="20" y="190" class="sm">0.004843</text>
<rect x="100" y="180" width="79" height="12" fill="#00f"/>
<rect x="249" y="180" width="103" height="12" fill="#00f"/>
<rect x="459" y="180" width="149" height="12" fill="#00f"/>
<line x1="179" y1="186" x2="248" y2="186" stroke="#00f"/>
<line x1="352" y1="186" x2="458" y2="186" stroke="#00f"/>
<rect x="103" y="181" width="76" height="10" fill="#ff0"/>
<rect x="250" y="181" width="63" height="10" fill="#ff0"/>
<text x="20" y="210" class="sm">0.004474</text>
<rect x="100" y="200" width="99" height="12" fill="#00f"/>
<rect x="249" y="200" width="103" height="12" fill="#00f"/>
<rect x="399" y="200" width="209" height="12" fill="#00f"/>
<line x1="199" y1="206" x2="248" y2="206" stroke="#00f"/>
<line x1="352" y1="206" x2="398" y2="206" stroke="#00f"/>
<rect x="103" y="201" width="96" height="10" fill="#ff0"/>
<rect x="250" y="201" width="102" height="10" fill="#ff0"/>
<rect x="400" y="201" width="117" height="10" fill="#ff0"/>
<text x="20" y="230" class="sm">0.001339</text>
<rect x="100" y="220" width="103" height="12" fill="#00f"/>
<rect x="249" y="220" width="149" height="12" fill="#00f"/>
<rect x="459" y="220" width="149" height="12" fill="#00f"/>
<line x1="203" y1="226" x2="248" y2="226" stroke="#00f"/>
<line x1="398" y1="226" x2="458" y2="226" stroke="#00f"/>
<rect x="276" y="221" width="122" height="10" fill="#ff0"/>
<rect x="460" y="221" width="140" height="10" fill="#ff0"/>
<text x="20" y="250" class="sm">0.001022</text>
<rect x="100" y="240" width="99" height="12" fill="#00f"/>
<rect x="249" y="240" width="137" height="12" fill="#00f"/>
<rect x="459" y="240" width="149" height="12" fill="#00f"/>
<line x1="199" y1="246" x2="248" y2="246" stroke="#00f"/>
<line x1="386" y1="246" x2="458" y2="246" stroke="#00f"/>
<rect x="103" y="241" width="96" height="10" fill="#ff0"/>
<rect x="250" y="241" width="136" height="10" fill="#ff0"/>
<rect x="460" y="241" width="140" height="10" fill="#ff0"/>
<text x="20" y="270" class="sm">0.0009297</text>
<rect x="100" y="260" width="99" height="12" fill="#00f"/>
<rect x="249" y="260" width="103" height="12" fill="#00f"/>
<rect x="399" y="260" width="31" height="12" fill="#00f"/>
<rect x="485" y="260" width="123" height="12" fill="#00f"/>
<line x1="199" y1="266" x2="248" y2="266" stroke="#00f"/>
<line x1="352" y1="266" x2="398" y2="266" stroke="#00f"/>
<line x1="430" y1="266" x2="484" y2="266" stroke="#00f"/>
<rect x="103" y="261" width="96" height="10" fill="#ff0"/>
<rect x="250" y="261" width="102" height="10" fill="#ff0"/>
<rect x="400" y="261" width="30" height="10" fill="#ff0"/>
<rect x="486" y="261" width="107" height="10" fill="#ff0"/>
<text x="20" y="290" class="sm">0.000617</text>
<rect x="100" y="280" width="99" height="12" fill="#00f"/>
<rect x="249" y="280" width="103" height="12" fill="#00f"/>
<rect x="431" y="280" width="177" height="12" fill="#00f"/>
<line x1="199" y1="286" x2="248" y2="286" stroke="#00f"/>
<line x1="352" y1="286" x2="430" y2="286" stroke="#00f"/>
<rect x="103" y="281" width="96" height="10" fill="#ff0"/>
<rect x="250" y="281" width="102" height="10" fill="#ff0"/>
<rect x="432" y="281" width="9" height="10" fill="#ff0"/>
<text x="20" y="310" class="sm">0.0005292</text>
<rect x="100" y="300" width="58" height="12" fill="#00f"/>
<rect x="249" y="300" width="103" height="12" fill="#00f"/>
<rect x="459" y="300" width="149" height="12" fill="#00f"/>
<line x1="158" y1="306" x2="248" y2="306" stroke="#00f"/>
<line x1="352" y1="306" x2="458" y2="306" stroke="#00f"/>
<rect x="563" y="301" width="45" height="10" fill="#ff0"/>
<text x="20" y="330" class="sm">0.00038</text>
<rect x="100" y="320" width="103" height="12" fill="#00f"/>
<rect x="249" y="320" width="103" height="12" fill="#00f"/>
<rect x="399" y="320" width="209" height="12" fill="#00f"/>
<line x1="203" y1="326" x2="248" y2="326" stroke="#00f"/>
<line x1="352" y1="326" x2="398" y2="326" stroke="#00f"/>
<rect x="276" y="321" width="76" height="10" fill="#ff0"/>
<rect x="400" y="321" width="117" height="10" fill="#ff0"/>
<text x="20" y="350" class="sm">0.0003127</text>
<rect x="100" y="340" width="65" height="12" fill="#00f"/>
<rect x="249" y="340" width="103" height="12" fill="#00f"/>
<rect x="459" y="340" width="149" height="12" fill="#00f"/>
<line x1="165" y1="346" x2="248" y2="346" stroke="#00f"/>
<line x1="352" y1="346" x2="458" y2="346" stroke="#00f"/>
<rect x="563" y="341" width="45" height="10" fill="#ff0"/>
<text x="20" y="370" class="sm">0.0001187</text>
<rect x="100" y="360" width="91" height="12" fill="#00f"/>
<rect x="249" y="360" width="103" height="12" fill="#00f"/>
<rect x="459" y="360" width="149" height="12" fill="#00f"/>
<line x1="191" y1="366" x2="248" y2="366" stroke="#00f"/>
<line x1="352" y1="366" x2="458" y2="366" stroke="#00f"/>
<rect x="103" y="361" width="88" height="10" fill="#ff0"/>
<rect x="250" y="361" width="63" height="10" fill="#ff0"/>
<text x="20" y="390" class="sm">8.684e-05</text>
<rect x="100" y="380" width="103" height="12" fill="#00f"/>
<rect x="249" y="380" width="137" height="12" fill="#00f"/>
<rect x="459" y="380" width="149" height="12" fill="#00f"/>
<line x1="203" y1="386" x2="248" y2="386" stroke="#00f"/>
<line x1="386" y1="386" x2="458" y2="386" stroke="#00f"/>
<rect x="276" y="381" width="110" height="10" fill="#ff0"/>
<rect x="460" y="381" width="140" height="10" fill="#ff0"/>
<text x="20" y="410" class="sm">8.546e-05</text>
<rect x="100" y="400" width="79" height="12" fill="#00f"/>
<rect x="249" y="400" width="149" height="12" fill="#00f"/>
<rect x="459" y="400" width="149" height="12" fill="#00f"/>
<line x1="179" y1="406" x2="248" y2="406" stroke="#00f"/>
<line x1="398" y1="406" x2="458" y2="406" stroke="#00f"/>
<rect x="276" y="401" width="122" height="10" fill="#ff0"/>
<rect x="460" y="401" width="140" height="10" fill="#ff0"/>
<text x="20" y="430" class="sm">7.896e-05</text>
<rect x="100" y="420" width="103" height="12" fill="#00f"/>
<rect x="249" y="420" width="103" height="12" fill="#00f"/>
<rect x="399" y="420" width="31" height="12" fill="#00f"/>
<rect x="485" y="420" width="123" height="12" fill="#00f"/>
<line x1="203" y1="426" x2="248" y2="426" stroke="#00f"/>
<line x1="352" y1="426" x2="398" y2="426" stroke="#00f"/>
<line x1="430" y1="426" x2="484" y2="426" stroke="#00f"/>
<rect x="276" y="421" width="76" height="10" fill="#ff0"/>
<rect x="400" y="421" width="30" height="10" fill="#ff0"/>
<rect x="486" y="421" width="107" height="10" fill="#ff0"/>
<text x="20" y="450" class="sm">5.241e-05</text>
<rect x="100" y="440" width="103" height="12" fill="#00f"/>
<rect x="249" y="440" width="103" height="12" fill="#00f"/>
<rect x="431" y="440" width="177" height="12" fill="#00f"/>
<line x1="203" y1="446" x2="248" y2="446" stroke="#00f"/>
<line x1="352" y1="446" x2="430" y2="446" stroke="#00f"/>
<rect x="103" y="441" width="100" height="10" fill="#ff0"/>
<rect x="250" y="441" width="63" height="10" fill="#ff0"/>
<text x="20" y="470" class="sm">2.425e-05</text>
<rect x="100" y="460" width="79" height="12" fill="#00f"/>
<rect x="249" y="460" width="103" height="12" fill="#00f"/>
<rect x="399" y="460" width="209" height="12" fill="#00f"/>
<line x1="179" y1="466" x2="248" y2="466" stroke="#00f"/>
<line x1="352" y1="466" x2="398" y2="466" stroke="#00f"/>
<rect x="276" y="461" width="76" height="10" fill="#ff0"/>
<rect x="400" y="461" width="117" height="10" fill="#ff0"/>
<text x="20" y="490" class="sm">1.519e-05</text>
<rect x="100" y="480" width="99" height="12" fill="#00f"/>
<rect x="249" y="480" width="137" height="12" fill="#00f"/>
<rect x="431" y="480" width="177" height="12" fill="#00f"/>
<line x1="199" y1="486" x2="248" y2="486" stroke="#00f"/>
<line x1="386" y1="486" x2="430" y2="486" stroke="#00f"/>
<rect x="103" y="481" width="96" height="10" fill="#ff0"/>
<rect x="250" y="481" width="136" height="10" fill="#ff0"/>
<rect x="432" y="481" width="2" height="10" fill="#ff0"/>
<text x="20" y="510" class="sm">9.338e-06</text>
<rect x="100" y="500" width="58" height="12" fill="#00f"/>
<rect x="249" y="500" width="149" height="12" fill="#00f"/>
<rect x="459" y="500" width="149" height="12" fill="#00f"/>
<line x1="158" y1="506" x2="248" y2="506" stroke="#00f"/>
<line x1="398" y1="506" x2="458" y2="506" stroke="#00f"/>
<rect x="276" y="501" width="122" height="10" fill="#ff0"/>
<rect x="460" y="501" width="140" height="10" fill="#ff0"/>
</svg>
