<svg viewBox="0 0 693 535" xmlns="http://www.w3.org/2000/svg">

<style>
  .sm { font: 12px sans-serif; }
  .lg { font: 15px sans-serif; }
</style>
<rect fill="#ddd" x="0" y="0" width="100%" height="100%"/>
<text x="20" y="20" class="lg">ch.7249 III:4751778-4752470 Gene:WBGene00007173</text>
<text x="20" y="50" class="sm">WormBase</text>
<rect x="102" y="40" width="47" height="12" fill="#00f"/>
<rect x="193" y="40" width="101" height="12" fill="#00f"/>
<rect x="341" y="40" width="254" height="12" fill="#00f"/>
<line x1="149" y1="46" x2="192" y2="46" stroke="#00f"/>
<line x1="294" y1="46" x2="340" y2="46" stroke="#00f"/>
<rect x="103" y="41" width="46" height="10" fill="#ff0"/>
<rect x="194" y="41" width="100" height="10" fill="#ff0"/>
<rect x="342" y="41" width="253" height="10" fill="#ff0"/>
<text x="20" y="70" class="sm">Fitness: 0.030503694990002887</text>
<rect x="149" y="65" width="44" height="5" fill="#00f"><title>342021.0</title></rect>
<rect x="294" y="70" width="47" height="5" fill="#00f"><title>286516.0</title></rect>
<rect x="149" y="75" width="48" height="5" fill="#00f"><title>910.0</title></rect>
<rect x="294" y="80" width="61" height="5" fill="#00f"><title>134.0</title></rect>
<rect x="141" y="85" width="52" height="5" fill="#00f"><title>53.0</title></rect>
<rect x="153" y="90" width="44" height="5" fill="#00f"><title>4.0</title></rect>
<rect x="294" y="95" width="72" height="5" fill="#00f"><title>3.0</title></rect>
<text x="20" y="125" class="sm">0.5348</text>
<rect x="100" y="115" width="49" height="12" fill="#00f"/>
<rect x="193" y="115" width="403" height="12" fill="#00f"/>
<line x1="149" y1="121" x2="192" y2="121" stroke="#00f"/>
<rect x="202" y="116" width="218" height="10" fill="#ff0"/>
<text x="20" y="145" class="sm">0.4497</text>
<rect x="100" y="135" width="194" height="12" fill="#00f"/>
<rect x="341" y="135" width="255" height="12" fill="#00f"/>
<line x1="294" y1="141" x2="340" y2="141" stroke="#00f"/>
<rect x="249" y="136" width="45" height="10" fill="#ff0"/>
<rect x="342" y="136" width="253" height="10" fill="#ff0"/>
<text x="20" y="165" class="sm">0.01009</text>
<rect x="100" y="155" width="188" height="12" fill="#00f"/>
<rect x="341" y="155" width="255" height="12" fill="#00f"/>
<line x1="288" y1="161" x2="340" y2="161" stroke="#00f"/>
<rect x="178" y="156" width="110" height="10" fill="#ff0"/>
<rect x="342" y="156" width="71" height="10" fill="#ff0"/>
<text x="20" y="185" class="sm">0.001497</text>
<rect x="100" y="175" width="41" height="12" fill="#00f"/>
<rect x="193" y="175" width="403" height="12" fill="#00f"/>
<line x1="141" y1="181" x2="192" y2="181" stroke="#00f"/>
<rect x="202" y="176" width="218" height="10" fill="#ff0"/>
<text x="20" y="205" class="sm">0.001037</text>
<rect x="100" y="195" width="206" height="12" fill="#00f"/>
<rect x="355" y="195" width="241" height="12" fill="#00f"/>
<line x1="306" y1="201" x2="354" y2="201" stroke="#00f"/>
<rect x="178" y="196" width="128" height="10" fill="#ff0"/>
<rect x="356" y="196" width="239" height="10" fill="#ff0"/>
<text x="20" y="225" class="sm">0.0007373</text>
<rect x="100" y="215" width="168" height="12" fill="#00f"/>
<rect x="319" y="215" width="277" height="12" fill="#00f"/>
<line x1="268" y1="221" x2="318" y2="221" stroke="#00f"/>
<rect x="178" y="216" width="90" height="10" fill="#ff0"/>
<rect x="320" y="216" width="100" height="10" fill="#ff0"/>
<text x="20" y="245" class="sm">0.0006628</text>
<rect x="100" y="235" width="176" height="12" fill="#00f"/>
<rect x="319" y="235" width="277" height="12" fill="#00f"/>
<line x1="276" y1="241" x2="318" y2="241" stroke="#00f"/>
<rect x="458" y="236" width="137" height="10" fill="#ff0"/>
<text x="20" y="265" class="sm">0.0002313</text>
<rect x="100" y="255" width="303" height="12" fill="#00f"/>
<rect x="470" y="255" width="126" height="12" fill="#00f"/>
<line x1="403" y1="261" x2="469" y2="261" stroke="#00f"/>
<rect x="178" y="256" width="225" height="10" fill="#ff0"/>
<rect x="471" y="256" width="124" height="10" fill="#ff0"/>
<text x="20" y="285" class="sm">0.0002078</text>
<rect x="100" y="275" width="194" height="12" fill="#00f"/>
<rect x="355" y="275" width="241" height="12" fill="#00f"/>
<line x1="294" y1="281" x2="354" y2="281" stroke="#00f"/>
<rect x="178" y="276" width="116" height="10" fill="#ff0"/>
<rect x="356" y="276" width="239" height="10" fill="#ff0"/>
<text x="20" y="305" class="sm">0.0001601</text>
<rect x="100" y="295" width="150" height="12" fill="#00f"/>
<rect x="294" y="295" width="302" height="12" fill="#00f"/>
<line x1="250" y1="301" x2="293" y2="301" stroke="#00f"/>
<rect x="458" y="296" width="137" height="10" fill="#ff0"/>
<text x="20" y="325" class="sm">0.0001505</text>
<rect x="100" y="315" width="218" height="12" fill="#00f"/>
<rect x="366" y="315" width="230" height="12" fill="#00f"/>
<line x1="318" y1="321" x2="365" y2="321" stroke="#00f"/>
<rect x="178" y="316" width="140" height="10" fill="#ff0"/>
<rect x="367" y="316" width="53" height="10" fill="#ff0"/>
<text x="20" y="345" class="sm">0.0001409</text>
<rect x="100" y="335" width="206" height="12" fill="#00f"/>
<rect x="366" y="335" width="230" height="12" fill="#00f"/>
<line x1="306" y1="341" x2="365" y2="341" stroke="#00f"/>
<rect x="178" y="336" width="128" height="10" fill="#ff0"/>
<rect x="367" y="336" width="53" height="10" fill="#ff0"/>
<text x="20" y="365" class="sm">0.0001392</text>
<rect x="100" y="355" width="194" height="12" fill="#00f"/>
<rect x="366" y="355" width="230" height="12" fill="#00f"/>
<line x1="294" y1="361" x2="365" y2="361" stroke="#00f"/>
<rect x="178" y="356" width="116" height="10" fill="#ff0"/>
<rect x="367" y="356" width="53" height="10" fill="#ff0"/>
<text x="20" y="385" class="sm">7.592e-05</text>
<rect x="100" y="375" width="135" height="12" fill="#00f"/>
<rect x="294" y="375" width="302" height="12" fill="#00f"/>
<line x1="235" y1="381" x2="293" y2="381" stroke="#00f"/>
<rect x="458" y="376" width="137" height="10" fill="#ff0"/>
<text x="20" y="405" class="sm">7.509e-05</text>
<rect x="100" y="395" width="49" height="12" fill="#00f"/>
<rect x="197" y="395" width="399" height="12" fill="#00f"/>
<line x1="149" y1="401" x2="196" y2="401" stroke="#00f"/>
<rect x="103" y="396" width="46" height="10" fill="#ff0"/>
<rect x="198" y="396" width="222" height="10" fill="#ff0"/>
<text x="20" y="425" class="sm">6.918e-05</text>
<rect x="100" y="415" width="301" height="12" fill="#00f"/>
<rect x="470" y="415" width="126" height="12" fill="#00f"/>
<line x1="401" y1="421" x2="469" y2="421" stroke="#00f"/>
<rect x="178" y="416" width="223" height="10" fill="#ff0"/>
<rect x="471" y="416" width="117" height="10" fill="#ff0"/>
<text x="20" y="445" class="sm">5.127e-05</text>
<rect x="100" y="435" width="381" height="12" fill="#00f"/>
<rect x="525" y="435" width="71" height="12" fill="#00f"/>
<line x1="481" y1="441" x2="524" y2="441" stroke="#00f"/>
<rect x="178" y="436" width="242" height="10" fill="#ff0"/>
<text x="20" y="465" class="sm">4.958e-05</text>
<rect x="100" y="455" width="176" height="12" fill="#00f"/>
<rect x="341" y="455" width="255" height="12" fill="#00f"/>
<line x1="276" y1="461" x2="340" y2="461" stroke="#00f"/>
<rect x="249" y="456" width="27" height="10" fill="#ff0"/>
<rect x="342" y="456" width="253" height="10" fill="#ff0"/>
<text x="20" y="485" class="sm">4.77e-05</text>
<rect x="100" y="475" width="135" height="12" fill="#00f"/>
<rect x="341" y="475" width="255" height="12" fill="#00f"/>
<line x1="235" y1="481" x2="340" y2="481" stroke="#00f"/>
<rect x="178" y="476" width="57" height="10" fill="#ff0"/>
<rect x="342" y="476" width="253" height="10" fill="#ff0"/>
<text x="20" y="505" class="sm">4.314e-05</text>
<rect x="100" y="495" width="206" height="12" fill="#00f"/>
<rect x="358" y="495" width="238" height="12" fill="#00f"/>
<line x1="306" y1="501" x2="357" y2="501" stroke="#00f"/>
<rect x="178" y="496" width="128" height="10" fill="#ff0"/>
<rect x="359" y="496" width="236" height="10" fill="#ff0"/>
</svg>
