<svg viewBox="0 0 697 545" xmlns="http://www.w3.org/2000/svg">

<style>
  .sm { font: 12px sans-serif; }
  .lg { font: 15px sans-serif; }
</style>
<rect fill="#ddd" x="0" y="0" width="100%" height="100%"/>
<text x="20" y="20" class="lg">ch.7157 III:4379221-4379917 Gene:WBGene00007133</text>
<text x="20" y="50" class="sm">WormBase</text>
<rect x="102" y="40" width="184" height="12" fill="#00f"/>
<rect x="355" y="40" width="244" height="12" fill="#00f"/>
<line x1="286" y1="46" x2="354" y2="46" stroke="#00f"/>
<rect x="128" y="41" width="158" height="10" fill="#ff0"/>
<rect x="356" y="41" width="122" height="10" fill="#ff0"/>
<rect x="103" y="41" width="24" height="10" fill="brown"><title>.</title></rect>
<rect x="479" y="41" width="120" height="10" fill="brown"><title>.</title></rect>
<text x="20" y="70" class="sm">Fitness: 0.1327736707216159</text>
<rect x="286" y="65" width="69" height="5" fill="#00f"><title>119746.0</title></rect>
<rect x="460" y="70" width="140" height="5" fill="#f0f"><title>654.0</title></rect>
<rect x="296" y="75" width="45" height="5" fill="#f0f"><title>121.0</title></rect>
<rect x="460" y="80" width="156" height="5" fill="#f0f"><title>100.0</title></rect>
<rect x="238" y="85" width="117" height="5" fill="#00f"><title>34.0</title></rect>
<rect x="460" y="90" width="217" height="5" fill="#f0f"><title>23.0</title></rect>
<rect x="320" y="95" width="51" height="5" fill="#f0f"><title>8.0</title></rect>
<rect x="279" y="100" width="76" height="5" fill="#00f"><title>8.0</title></rect>
<rect x="277" y="105" width="78" height="5" fill="#00f"><title>6.0</title></rect>
<text x="20" y="135" class="sm">0.9333</text>
<rect x="100" y="125" width="186" height="12" fill="#00f"/>
<rect x="355" y="125" width="245" height="12" fill="#00f"/>
<line x1="286" y1="131" x2="354" y2="131" stroke="#00f"/>
<rect x="128" y="126" width="158" height="10" fill="#ff0"/>
<rect x="356" y="126" width="122" height="10" fill="#ff0"/>
<text x="20" y="155" class="sm">0.01493</text>
<rect x="100" y="145" width="177" height="12" fill="#00f"/>
<rect x="355" y="145" width="245" height="12" fill="#00f"/>
<line x1="277" y1="151" x2="354" y2="151" stroke="#00f"/>
<rect x="128" y="146" width="149" height="10" fill="#ff0"/>
<rect x="356" y="146" width="122" height="10" fill="#ff0"/>
<text x="20" y="175" class="sm">0.01435</text>
<rect x="100" y="165" width="67" height="12" fill="#00f"/>
<rect x="355" y="165" width="245" height="12" fill="#00f"/>
<line x1="167" y1="171" x2="354" y2="171" stroke="#00f"/>
<rect x="128" y="166" width="39" height="10" fill="#ff0"/>
<rect x="356" y="166" width="76" height="10" fill="#ff0"/>
<text x="20" y="195" class="sm">0.01295</text>
<rect x="100" y="185" width="138" height="12" fill="#00f"/>
<rect x="355" y="185" width="245" height="12" fill="#00f"/>
<line x1="238" y1="191" x2="354" y2="191" stroke="#00f"/>
<rect x="128" y="186" width="110" height="10" fill="#ff0"/>
<rect x="356" y="186" width="122" height="10" fill="#ff0"/>
<text x="20" y="215" class="sm">0.01076</text>
<rect x="100" y="205" width="186" height="12" fill="#00f"/>
<rect x="329" y="205" width="271" height="12" fill="#00f"/>
<line x1="286" y1="211" x2="328" y2="211" stroke="#00f"/>
<rect x="128" y="206" width="158" height="10" fill="#ff0"/>
<rect x="330" y="206" width="17" height="10" fill="#ff0"/>
<text x="20" y="235" class="sm">0.006899</text>
<rect x="100" y="225" width="156" height="12" fill="#00f"/>
<rect x="355" y="225" width="245" height="12" fill="#00f"/>
<line x1="256" y1="231" x2="354" y2="231" stroke="#00f"/>
<rect x="128" y="226" width="128" height="10" fill="#ff0"/>
<rect x="356" y="226" width="122" height="10" fill="#ff0"/>
<text x="20" y="255" class="sm">0.003214</text>
<rect x="100" y="245" width="423" height="12" fill="#00f"/>
<rect x="568" y="245" width="32" height="12" fill="#00f"/>
<line x1="523" y1="251" x2="567" y2="251" stroke="#00f"/>
<rect x="128" y="246" width="164" height="10" fill="#ff0"/>
<text x="20" y="275" class="sm">0.00174</text>
<rect x="100" y="265" width="42" height="12" fill="#00f"/>
<rect x="355" y="265" width="245" height="12" fill="#00f"/>
<line x1="142" y1="271" x2="354" y2="271" stroke="#00f"/>
<rect x="128" y="266" width="14" height="10" fill="#ff0"/>
<rect x="356" y="266" width="122" height="10" fill="#ff0"/>
<text x="20" y="295" class="sm">0.001175</text>
<rect x="100" y="285" width="67" height="12" fill="#00f"/>
<rect x="211" y="285" width="389" height="12" fill="#00f"/>
<line x1="167" y1="291" x2="210" y2="291" stroke="#00f"/>
<rect x="128" y="286" width="39" height="10" fill="#ff0"/>
<rect x="212" y="286" width="97" height="10" fill="#ff0"/>
<text x="20" y="315" class="sm">0.0002835</text>
<rect x="100" y="305" width="138" height="12" fill="#00f"/>
<rect x="286" y="305" width="314" height="12" fill="#00f"/>
<line x1="238" y1="311" x2="285" y2="311" stroke="#00f"/>
<rect x="128" y="306" width="110" height="10" fill="#ff0"/>
<rect x="287" y="306" width="5" height="10" fill="#ff0"/>
<text x="20" y="335" class="sm">0.0002498</text>
<rect x="100" y="325" width="177" height="12" fill="#00f"/>
<rect x="329" y="325" width="271" height="12" fill="#00f"/>
<line x1="277" y1="331" x2="328" y2="331" stroke="#00f"/>
<rect x="128" y="326" width="149" height="10" fill="#ff0"/>
<rect x="330" y="326" width="17" height="10" fill="#ff0"/>
<text x="20" y="355" class="sm">6.114e-05</text>
<rect x="100" y="345" width="415" height="12" fill="#00f"/>
<rect x="568" y="345" width="32" height="12" fill="#00f"/>
<line x1="515" y1="351" x2="567" y2="351" stroke="#00f"/>
<rect x="128" y="346" width="164" height="10" fill="#ff0"/>
<text x="20" y="375" class="sm">4.876e-05</text>
<rect x="100" y="365" width="147" height="12" fill="#00f"/>
<rect x="355" y="365" width="245" height="12" fill="#00f"/>
<line x1="247" y1="371" x2="354" y2="371" stroke="#00f"/>
<rect x="128" y="366" width="119" height="10" fill="#ff0"/>
<rect x="356" y="366" width="122" height="10" fill="#ff0"/>
<text x="20" y="395" class="sm">4.258e-05</text>
<rect x="100" y="385" width="136" height="12" fill="#00f"/>
<rect x="355" y="385" width="245" height="12" fill="#00f"/>
<line x1="236" y1="391" x2="354" y2="391" stroke="#00f"/>
<rect x="128" y="386" width="108" height="10" fill="#ff0"/>
<rect x="356" y="386" width="76" height="10" fill="#ff0"/>
<text x="20" y="415" class="sm">3.72e-06</text>
<rect x="100" y="405" width="67" height="12" fill="#00f"/>
<rect x="329" y="405" width="271" height="12" fill="#00f"/>
<line x1="167" y1="411" x2="328" y2="411" stroke="#00f"/>
<rect x="128" y="406" width="39" height="10" fill="#ff0"/>
<rect x="330" y="406" width="148" height="10" fill="#ff0"/>
<text x="20" y="435" class="sm">3.324e-06</text>
<rect x="100" y="425" width="179" height="12" fill="#00f"/>
<rect x="355" y="425" width="245" height="12" fill="#00f"/>
<line x1="279" y1="431" x2="354" y2="431" stroke="#00f"/>
<rect x="128" y="426" width="151" height="10" fill="#ff0"/>
<rect x="356" y="426" width="108" height="10" fill="#ff0"/>
<text x="20" y="455" class="sm">3.318e-06</text>
<rect x="100" y="445" width="74" height="12" fill="#00f"/>
<rect x="355" y="445" width="245" height="12" fill="#00f"/>
<line x1="174" y1="451" x2="354" y2="451" stroke="#00f"/>
<rect x="128" y="446" width="46" height="10" fill="#ff0"/>
<rect x="356" y="446" width="108" height="10" fill="#ff0"/>
<text x="20" y="475" class="sm">3.02e-06</text>
<rect x="100" y="465" width="156" height="12" fill="#00f"/>
<rect x="329" y="465" width="271" height="12" fill="#00f"/>
<line x1="256" y1="471" x2="328" y2="471" stroke="#00f"/>
<rect x="128" y="466" width="128" height="10" fill="#ff0"/>
<rect x="330" y="466" width="17" height="10" fill="#ff0"/>
<text x="20" y="495" class="sm">2.695e-06</text>
<rect x="100" y="485" width="138" height="12" fill="#00f"/>
<rect x="329" y="485" width="271" height="12" fill="#00f"/>
<line x1="238" y1="491" x2="328" y2="491" stroke="#00f"/>
<rect x="128" y="486" width="110" height="10" fill="#ff0"/>
<rect x="330" y="486" width="17" height="10" fill="#ff0"/>
<text x="20" y="515" class="sm">1.876e-06</text>
<rect x="100" y="505" width="406" height="12" fill="#00f"/>
<rect x="568" y="505" width="32" height="12" fill="#00f"/>
<line x1="506" y1="511" x2="567" y2="511" stroke="#00f"/>
<rect x="128" y="506" width="164" height="10" fill="#ff0"/>
</svg>
