<svg viewBox="0 0 571 535" xmlns="http://www.w3.org/2000/svg">

<style>
  .sm { font: 12px sans-serif; }
  .lg { font: 15px sans-serif; }
</style>
<rect fill="#ddd" x="0" y="0" width="100%" height="100%"/>
<text x="20" y="20" class="lg">ch.7376 III:5173339-5173909 Gene:WBGene00019630</text>
<text x="20" y="50" class="sm">WormBase</text>
<rect x="100" y="40" width="139" height="12" fill="#00f"/>
<rect x="308" y="40" width="163" height="12" fill="#00f"/>
<line x1="239" y1="46" x2="307" y2="46" stroke="#00f"/>
<rect x="108" y="41" width="131" height="10" fill="#ff0"/>
<rect x="309" y="41" width="113" height="10" fill="#ff0"/>
<rect x="101" y="41" width="6" height="10" fill="brown"><title>.</title></rect>
<rect x="423" y="41" width="48" height="10" fill="brown"><title>.</title></rect>
<text x="20" y="70" class="sm">Fitness: 0.0004207210439114665</text>
<rect x="239" y="65" width="69" height="5" fill="#00f"><title>546512.0</title></rect>
<rect x="447" y="70" width="78" height="5" fill="#f0f"><title>26.0</title></rect>
<rect x="138" y="75" width="266" height="5" fill="#00f"><title>18.0</title></rect>
<rect x="239" y="80" width="79" height="5" fill="#00f"><title>11.0</title></rect>
<rect x="447" y="85" width="67" height="5" fill="#f0f"><title>7.0</title></rect>
<rect x="506" y="90" width="52" height="5" fill="#00f"><title>5.0</title></rect>
<rect x="243" y="95" width="123" height="5" fill="#00f"><title>3.0</title></rect>
<text x="20" y="125" class="sm">0.9998</text>
<rect x="100" y="115" width="139" height="12" fill="#00f"/>
<rect x="308" y="115" width="166" height="12" fill="#00f"/>
<line x1="239" y1="121" x2="307" y2="121" stroke="#00f"/>
<rect x="108" y="116" width="131" height="10" fill="#ff0"/>
<rect x="309" y="116" width="113" height="10" fill="#ff0"/>
<text x="20" y="145" class="sm">8.721e-05</text>
<rect x="100" y="135" width="116" height="12" fill="#00f"/>
<rect x="308" y="135" width="166" height="12" fill="#00f"/>
<line x1="216" y1="141" x2="307" y2="141" stroke="#00f"/>
<rect x="108" y="136" width="108" height="10" fill="#ff0"/>
<rect x="309" y="136" width="1" height="10" fill="#ff0"/>
<text x="20" y="165" class="sm">6.49e-05</text>
<rect x="100" y="155" width="125" height="12" fill="#00f"/>
<rect x="308" y="155" width="166" height="12" fill="#00f"/>
<line x1="225" y1="161" x2="307" y2="161" stroke="#00f"/>
<rect x="108" y="156" width="117" height="10" fill="#ff0"/>
<rect x="309" y="156" width="4" height="10" fill="#ff0"/>
<text x="20" y="185" class="sm">5.441e-05</text>
<rect x="100" y="175" width="143" height="12" fill="#00f"/>
<rect x="308" y="175" width="166" height="12" fill="#00f"/>
<line x1="243" y1="181" x2="307" y2="181" stroke="#00f"/>
<rect x="108" y="176" width="135" height="10" fill="#ff0"/>
<rect x="309" y="176" width="4" height="10" fill="#ff0"/>
<text x="20" y="205" class="sm">1.291e-05</text>
<rect x="100" y="195" width="139" height="12" fill="#00f"/>
<rect x="318" y="195" width="156" height="12" fill="#00f"/>
<line x1="239" y1="201" x2="317" y2="201" stroke="#00f"/>
<rect x="108" y="196" width="131" height="10" fill="#ff0"/>
<rect x="319" y="196" width="38" height="10" fill="#ff0"/>
<text x="20" y="225" class="sm">3.729e-06</text>
<rect x="100" y="215" width="139" height="12" fill="#00f"/>
<rect x="277" y="215" width="197" height="12" fill="#00f"/>
<line x1="239" y1="221" x2="276" y2="221" stroke="#00f"/>
<rect x="108" y="216" width="131" height="10" fill="#ff0"/>
<rect x="278" y="216" width="35" height="10" fill="#ff0"/>
<text x="20" y="245" class="sm">4.277e-08</text>
<rect x="100" y="235" width="176" height="12" fill="#00f"/>
<rect x="318" y="235" width="156" height="12" fill="#00f"/>
<line x1="276" y1="241" x2="317" y2="241" stroke="#00f"/>
<rect x="108" y="236" width="164" height="10" fill="#ff0"/>
<text x="20" y="265" class="sm">3.695e-08</text>
<rect x="100" y="255" width="125" height="12" fill="#00f"/>
<rect x="277" y="255" width="197" height="12" fill="#00f"/>
<line x1="225" y1="261" x2="276" y2="261" stroke="#00f"/>
<rect x="108" y="256" width="117" height="10" fill="#ff0"/>
<rect x="278" y="256" width="19" height="10" fill="#ff0"/>
<text x="20" y="285" class="sm">2.1e-08</text>
<rect x="100" y="275" width="31" height="12" fill="#00f"/>
<rect x="180" y="275" width="294" height="12" fill="#00f"/>
<line x1="131" y1="281" x2="179" y2="281" stroke="#00f"/>
<rect x="108" y="276" width="23" height="10" fill="#ff0"/>
<rect x="181" y="276" width="116" height="10" fill="#ff0"/>
<text x="20" y="305" class="sm">7.115e-09</text>
<rect x="100" y="295" width="31" height="12" fill="#00f"/>
<rect x="180" y="295" width="59" height="12" fill="#00f"/>
<rect x="308" y="295" width="166" height="12" fill="#00f"/>
<line x1="131" y1="301" x2="179" y2="301" stroke="#00f"/>
<line x1="239" y1="301" x2="307" y2="301" stroke="#00f"/>
<rect x="108" y="296" width="23" height="10" fill="#ff0"/>
<rect x="181" y="296" width="58" height="10" fill="#ff0"/>
<rect x="309" y="296" width="48" height="10" fill="#ff0"/>
<text x="20" y="325" class="sm">2.405e-09</text>
<rect x="100" y="315" width="116" height="12" fill="#00f"/>
<rect x="277" y="315" width="197" height="12" fill="#00f"/>
<line x1="216" y1="321" x2="276" y2="321" stroke="#00f"/>
<rect x="108" y="316" width="108" height="10" fill="#ff0"/>
<rect x="278" y="316" width="19" height="10" fill="#ff0"/>
<text x="20" y="345" class="sm">1.748e-09</text>
<rect x="100" y="335" width="116" height="12" fill="#00f"/>
<rect x="318" y="335" width="156" height="12" fill="#00f"/>
<line x1="216" y1="341" x2="317" y2="341" stroke="#00f"/>
<rect x="108" y="336" width="108" height="10" fill="#ff0"/>
<rect x="319" y="336" width="103" height="10" fill="#ff0"/>
<text x="20" y="365" class="sm">9.593e-10</text>
<rect x="100" y="355" width="242" height="12" fill="#00f"/>
<rect x="396" y="355" width="78" height="12" fill="#00f"/>
<line x1="342" y1="361" x2="395" y2="361" stroke="#00f"/>
<rect x="108" y="356" width="164" height="10" fill="#ff0"/>
<text x="20" y="385" class="sm">9.396e-10</text>
<rect x="100" y="375" width="125" height="12" fill="#00f"/>
<rect x="318" y="375" width="156" height="12" fill="#00f"/>
<line x1="225" y1="381" x2="317" y2="381" stroke="#00f"/>
<rect x="108" y="376" width="117" height="10" fill="#ff0"/>
<rect x="319" y="376" width="103" height="10" fill="#ff0"/>
<text x="20" y="405" class="sm">4.532e-10</text>
<rect x="100" y="395" width="143" height="12" fill="#00f"/>
<rect x="318" y="395" width="156" height="12" fill="#00f"/>
<line x1="243" y1="401" x2="317" y2="401" stroke="#00f"/>
<rect x="108" y="396" width="135" height="10" fill="#ff0"/>
<rect x="319" y="396" width="103" height="10" fill="#ff0"/>
<text x="20" y="425" class="sm">4.106e-10</text>
<rect x="100" y="415" width="227" height="12" fill="#00f"/>
<rect x="366" y="415" width="108" height="12" fill="#00f"/>
<line x1="327" y1="421" x2="365" y2="421" stroke="#00f"/>
<rect x="108" y="416" width="164" height="10" fill="#ff0"/>
<text x="20" y="445" class="sm">3.844e-10</text>
<rect x="100" y="435" width="96" height="12" fill="#00f"/>
<rect x="308" y="435" width="166" height="12" fill="#00f"/>
<line x1="196" y1="441" x2="307" y2="441" stroke="#00f"/>
<rect x="108" y="436" width="88" height="10" fill="#ff0"/>
<rect x="309" y="436" width="48" height="10" fill="#ff0"/>
<text x="20" y="465" class="sm">3.663e-10</text>
<rect x="100" y="455" width="139" height="12" fill="#00f"/>
<rect x="343" y="455" width="131" height="12" fill="#00f"/>
<line x1="239" y1="461" x2="342" y2="461" stroke="#00f"/>
<rect x="108" y="456" width="131" height="10" fill="#ff0"/>
<rect x="344" y="456" width="20" height="10" fill="#ff0"/>
<text x="20" y="485" class="sm">2.37e-10</text>
<rect x="100" y="475" width="54" height="12" fill="#00f"/>
<rect x="195" y="475" width="279" height="12" fill="#00f"/>
<line x1="154" y1="481" x2="194" y2="481" stroke="#00f"/>
<rect x="236" y="476" width="77" height="10" fill="#ff0"/>
<text x="20" y="505" class="sm">2.044e-10</text>
<rect x="100" y="495" width="244" height="12" fill="#00f"/>
<rect x="396" y="495" width="78" height="12" fill="#00f"/>
<line x1="344" y1="501" x2="395" y2="501" stroke="#00f"/>
<rect x="108" y="496" width="164" height="10" fill="#ff0"/>
</svg>
