<svg viewBox="0 0 974 540" xmlns="http://www.w3.org/2000/svg">

<style>
  .sm { font: 12px sans-serif; }
  .lg { font: 15px sans-serif; }
</style>
<rect fill="#ddd" x="0" y="0" width="100%" height="100%"/>
<text x="20" y="20" class="lg">ch.7139 III:4301520-4302493 Gene:WBGene00011205</text>
<text x="20" y="50" class="sm">WormBase</text>
<rect x="102" y="40" width="231" height="12" fill="#00f"/>
<rect x="378" y="40" width="211" height="12" fill="#00f"/>
<rect x="639" y="40" width="237" height="12" fill="#00f"/>
<line x1="333" y1="46" x2="377" y2="46" stroke="#00f"/>
<line x1="589" y1="46" x2="638" y2="46" stroke="#00f"/>
<rect x="115" y="41" width="218" height="10" fill="#ff0"/>
<rect x="379" y="41" width="210" height="10" fill="#ff0"/>
<rect x="640" y="41" width="178" height="10" fill="#ff0"/>
<rect x="103" y="41" width="11" height="10" fill="brown"><title>.</title></rect>
<rect x="819" y="41" width="57" height="10" fill="brown"><title>.</title></rect>
<text x="20" y="70" class="sm">Fitness: 0.16097354447443393</text>
<rect x="333" y="65" width="45" height="5" fill="#00f"><title>245624.0</title></rect>
<rect x="589" y="70" width="50" height="5" fill="#00f"><title>208116.0</title></rect>
<rect x="589" y="75" width="121" height="5" fill="#00f"><title>115.0</title></rect>
<rect x="469" y="80" width="42" height="5" fill="#00f"><title>27.0</title></rect>
<rect x="152" y="85" width="53" height="5" fill="#00f"><title>11.0</title></rect>
<rect x="589" y="90" width="111" height="5" fill="#00f"><title>4.0</title></rect>
<rect x="327" y="95" width="51" height="5" fill="#00f"><title>3.0</title></rect>
<rect x="319" y="100" width="48" height="5" fill="#f0f"><title>3.0</title></rect>
<text x="20" y="130" class="sm">0.4572</text>
<rect x="100" y="120" width="233" height="12" fill="#00f"/>
<rect x="378" y="120" width="499" height="12" fill="#00f"/>
<line x1="333" y1="126" x2="377" y2="126" stroke="#00f"/>
<rect x="115" y="121" width="218" height="10" fill="#ff0"/>
<rect x="379" y="121" width="233" height="10" fill="#ff0"/>
<text x="20" y="150" class="sm">0.4332</text>
<rect x="100" y="140" width="489" height="12" fill="#00f"/>
<rect x="639" y="140" width="238" height="12" fill="#00f"/>
<line x1="589" y1="146" x2="638" y2="146" stroke="#00f"/>
<rect x="115" y="141" width="474" height="10" fill="#ff0"/>
<rect x="640" y="141" width="178" height="10" fill="#ff0"/>
<text x="20" y="170" class="sm">0.03719</text>
<rect x="100" y="160" width="227" height="12" fill="#00f"/>
<rect x="378" y="160" width="499" height="12" fill="#00f"/>
<line x1="327" y1="166" x2="377" y2="166" stroke="#00f"/>
<rect x="115" y="161" width="212" height="10" fill="#ff0"/>
<rect x="379" y="161" width="233" height="10" fill="#ff0"/>
<text x="20" y="190" class="sm">0.03212</text>
<rect x="100" y="180" width="483" height="12" fill="#00f"/>
<rect x="639" y="180" width="238" height="12" fill="#00f"/>
<line x1="583" y1="186" x2="638" y2="186" stroke="#00f"/>
<rect x="115" y="181" width="468" height="10" fill="#ff0"/>
<rect x="640" y="181" width="178" height="10" fill="#ff0"/>
<text x="20" y="210" class="sm">0.02725</text>
<rect x="100" y="200" width="233" height="12" fill="#00f"/>
<rect x="378" y="200" width="211" height="12" fill="#00f"/>
<rect x="639" y="200" width="238" height="12" fill="#00f"/>
<line x1="333" y1="206" x2="377" y2="206" stroke="#00f"/>
<line x1="589" y1="206" x2="638" y2="206" stroke="#00f"/>
<rect x="115" y="201" width="218" height="10" fill="#ff0"/>
<rect x="379" y="201" width="210" height="10" fill="#ff0"/>
<rect x="640" y="201" width="178" height="10" fill="#ff0"/>
<text x="20" y="230" class="sm">0.002483</text>
<rect x="100" y="220" width="320" height="12" fill="#00f"/>
<rect x="470" y="220" width="407" height="12" fill="#00f"/>
<line x1="420" y1="226" x2="469" y2="226" stroke="#00f"/>
<rect x="115" y="221" width="305" height="10" fill="#ff0"/>
<rect x="471" y="221" width="2" height="10" fill="#ff0"/>
<text x="20" y="250" class="sm">0.002249</text>
<rect x="100" y="240" width="233" height="12" fill="#00f"/>
<rect x="378" y="240" width="205" height="12" fill="#00f"/>
<rect x="639" y="240" width="238" height="12" fill="#00f"/>
<line x1="333" y1="246" x2="377" y2="246" stroke="#00f"/>
<line x1="583" y1="246" x2="638" y2="246" stroke="#00f"/>
<rect x="115" y="241" width="218" height="10" fill="#ff0"/>
<rect x="379" y="241" width="204" height="10" fill="#ff0"/>
<rect x="640" y="241" width="178" height="10" fill="#ff0"/>
<text x="20" y="270" class="sm">0.002216</text>
<rect x="100" y="260" width="227" height="12" fill="#00f"/>
<rect x="378" y="260" width="211" height="12" fill="#00f"/>
<rect x="639" y="260" width="238" height="12" fill="#00f"/>
<line x1="327" y1="266" x2="377" y2="266" stroke="#00f"/>
<line x1="589" y1="266" x2="638" y2="266" stroke="#00f"/>
<rect x="115" y="261" width="212" height="10" fill="#ff0"/>
<rect x="379" y="261" width="210" height="10" fill="#ff0"/>
<rect x="640" y="261" width="178" height="10" fill="#ff0"/>
<text x="20" y="290" class="sm">0.001549</text>
<rect x="100" y="280" width="565" height="12" fill="#00f"/>
<rect x="710" y="280" width="167" height="12" fill="#00f"/>
<line x1="665" y1="286" x2="709" y2="286" stroke="#00f"/>
<rect x="115" y="281" width="497" height="10" fill="#ff0"/>
<text x="20" y="310" class="sm">0.0009396</text>
<rect x="100" y="300" width="221" height="12" fill="#00f"/>
<rect x="378" y="300" width="499" height="12" fill="#00f"/>
<line x1="321" y1="306" x2="377" y2="306" stroke="#00f"/>
<rect x="115" y="301" width="206" height="10" fill="#ff0"/>
<rect x="379" y="301" width="233" height="10" fill="#ff0"/>
<text x="20" y="330" class="sm">0.0008189</text>
<rect x="100" y="320" width="489" height="12" fill="#00f"/>
<rect x="639" y="320" width="26" height="12" fill="#00f"/>
<rect x="710" y="320" width="167" height="12" fill="#00f"/>
<line x1="589" y1="326" x2="638" y2="326" stroke="#00f"/>
<line x1="665" y1="326" x2="709" y2="326" stroke="#00f"/>
<rect x="115" y="321" width="474" height="10" fill="#ff0"/>
<rect x="640" y="321" width="25" height="10" fill="#ff0"/>
<rect x="711" y="321" width="107" height="10" fill="#ff0"/>
<text x="20" y="350" class="sm">0.0006902</text>
<rect x="100" y="340" width="567" height="12" fill="#00f"/>
<rect x="710" y="340" width="167" height="12" fill="#00f"/>
<line x1="667" y1="346" x2="709" y2="346" stroke="#00f"/>
<rect x="115" y="341" width="497" height="10" fill="#ff0"/>
<text x="20" y="370" class="sm">0.000587</text>
<rect x="100" y="360" width="233" height="12" fill="#00f"/>
<rect x="378" y="360" width="42" height="12" fill="#00f"/>
<rect x="470" y="360" width="407" height="12" fill="#00f"/>
<line x1="333" y1="366" x2="377" y2="366" stroke="#00f"/>
<line x1="420" y1="366" x2="469" y2="366" stroke="#00f"/>
<rect x="115" y="361" width="218" height="10" fill="#ff0"/>
<rect x="379" y="361" width="41" height="10" fill="#ff0"/>
<rect x="471" y="361" width="2" height="10" fill="#ff0"/>
<text x="20" y="390" class="sm">0.0004115</text>
<rect x="100" y="380" width="556" height="12" fill="#00f"/>
<rect x="710" y="380" width="167" height="12" fill="#00f"/>
<line x1="656" y1="386" x2="709" y2="386" stroke="#00f"/>
<rect x="115" y="381" width="497" height="10" fill="#ff0"/>
<text x="20" y="410" class="sm">0.0003165</text>
<rect x="100" y="400" width="489" height="12" fill="#00f"/>
<rect x="639" y="400" width="28" height="12" fill="#00f"/>
<rect x="710" y="400" width="167" height="12" fill="#00f"/>
<line x1="589" y1="406" x2="638" y2="406" stroke="#00f"/>
<line x1="667" y1="406" x2="709" y2="406" stroke="#00f"/>
<rect x="115" y="401" width="474" height="10" fill="#ff0"/>
<rect x="640" y="401" width="27" height="10" fill="#ff0"/>
<rect x="711" y="401" width="30" height="10" fill="#ff0"/>
<text x="20" y="430" class="sm">0.000204</text>
<rect x="100" y="420" width="169" height="12" fill="#00f"/>
<rect x="316" y="420" width="561" height="12" fill="#00f"/>
<line x1="269" y1="426" x2="315" y2="426" stroke="#00f"/>
<rect x="173" y="421" width="96" height="10" fill="#ff0"/>
<rect x="317" y="421" width="295" height="10" fill="#ff0"/>
<text x="20" y="450" class="sm">0.0001829</text>
<rect x="100" y="440" width="227" height="12" fill="#00f"/>
<rect x="378" y="440" width="205" height="12" fill="#00f"/>
<rect x="639" y="440" width="238" height="12" fill="#00f"/>
<line x1="327" y1="446" x2="377" y2="446" stroke="#00f"/>
<line x1="583" y1="446" x2="638" y2="446" stroke="#00f"/>
<rect x="115" y="441" width="212" height="10" fill="#ff0"/>
<rect x="379" y="441" width="204" height="10" fill="#ff0"/>
<rect x="640" y="441" width="178" height="10" fill="#ff0"/>
<text x="20" y="470" class="sm">0.0001312</text>
<rect x="100" y="460" width="320" height="12" fill="#00f"/>
<rect x="470" y="460" width="119" height="12" fill="#00f"/>
<rect x="639" y="460" width="238" height="12" fill="#00f"/>
<line x1="420" y1="466" x2="469" y2="466" stroke="#00f"/>
<line x1="589" y1="466" x2="638" y2="466" stroke="#00f"/>
<rect x="115" y="461" width="305" height="10" fill="#ff0"/>
<rect x="471" y="461" width="2" height="10" fill="#ff0"/>
<text x="20" y="490" class="sm">0.0001196</text>
<rect x="100" y="480" width="233" height="12" fill="#00f"/>
<rect x="378" y="480" width="287" height="12" fill="#00f"/>
<rect x="710" y="480" width="167" height="12" fill="#00f"/>
<line x1="333" y1="486" x2="377" y2="486" stroke="#00f"/>
<line x1="665" y1="486" x2="709" y2="486" stroke="#00f"/>
<rect x="115" y="481" width="218" height="10" fill="#ff0"/>
<rect x="379" y="481" width="233" height="10" fill="#ff0"/>
<text x="20" y="510" class="sm">0.0001078</text>
<rect x="100" y="500" width="558" height="12" fill="#00f"/>
<rect x="710" y="500" width="167" height="12" fill="#00f"/>
<line x1="658" y1="506" x2="709" y2="506" stroke="#00f"/>
<rect x="115" y="501" width="497" height="10" fill="#ff0"/>
</svg>
