<svg viewBox="0 0 912 530" xmlns="http://www.w3.org/2000/svg">

<style>
  .sm { font: 12px sans-serif; }
  .lg { font: 15px sans-serif; }
</style>
<rect fill="#ddd" x="0" y="0" width="100%" height="100%"/>
<text x="20" y="20" class="lg">ch.7126 III:4243574-4244485 Gene:WBGene00009648</text>
<text x="20" y="50" class="sm">WormBase</text>
<rect x="102" y="40" width="259" height="12" fill="#00f"/>
<rect x="406" y="40" width="408" height="12" fill="#00f"/>
<line x1="361" y1="46" x2="405" y2="46" stroke="#00f"/>
<rect x="103" y="41" width="258" height="10" fill="#ff0"/>
<rect x="407" y="41" width="307" height="10" fill="#ff0"/>
<rect x="715" y="41" width="99" height="10" fill="brown"><title>.</title></rect>
<text x="20" y="70" class="sm">Fitness: 0.0037738359469949006</text>
<rect x="361" y="65" width="45" height="5" fill="#00f"><title>164536.0</title></rect>
<rect x="361" y="70" width="48" height="5" fill="#00f"><title>497.0</title></rect>
<rect x="23" y="75" width="79" height="5" fill="#00f"><title>312.0</title></rect>
<rect x="472" y="80" width="193" height="5" fill="#f0f"><title>4.0</title></rect>
<rect x="255" y="85" width="42" height="5" fill="#00f"><title>4.0</title></rect>
<rect x="660" y="90" width="27" height="5" fill="#f0f"><title>3.0</title></rect>
<text x="20" y="120" class="sm">0.9956</text>
<rect x="100" y="110" width="261" height="12" fill="#00f"/>
<rect x="406" y="110" width="409" height="12" fill="#00f"/>
<line x1="361" y1="116" x2="405" y2="116" stroke="#00f"/>
<rect x="103" y="111" width="258" height="10" fill="#ff0"/>
<rect x="407" y="111" width="307" height="10" fill="#ff0"/>
<text x="20" y="140" class="sm">0.00346</text>
<rect x="100" y="130" width="261" height="12" fill="#00f"/>
<rect x="409" y="130" width="406" height="12" fill="#00f"/>
<line x1="361" y1="136" x2="408" y2="136" stroke="#00f"/>
<rect x="103" y="131" width="258" height="10" fill="#ff0"/>
<rect x="410" y="131" width="304" height="10" fill="#ff0"/>
<text x="20" y="160" class="sm">0.0003006</text>
<rect x="100" y="150" width="108" height="12" fill="#00f"/>
<rect x="249" y="150" width="566" height="12" fill="#00f"/>
<line x1="208" y1="156" x2="248" y2="156" stroke="#00f"/>
<rect x="481" y="151" width="233" height="10" fill="#ff0"/>
<text x="20" y="180" class="sm">0.0001906</text>
<rect x="100" y="170" width="249" height="12" fill="#00f"/>
<rect x="406" y="170" width="409" height="12" fill="#00f"/>
<line x1="349" y1="176" x2="405" y2="176" stroke="#00f"/>
<rect x="103" y="171" width="246" height="10" fill="#ff0"/>
<rect x="407" y="171" width="307" height="10" fill="#ff0"/>
<text x="20" y="200" class="sm">0.0001399</text>
<rect x="100" y="190" width="261" height="12" fill="#00f"/>
<rect x="414" y="190" width="401" height="12" fill="#00f"/>
<line x1="361" y1="196" x2="413" y2="196" stroke="#00f"/>
<rect x="338" y="191" width="23" height="10" fill="#ff0"/>
<rect x="415" y="191" width="299" height="10" fill="#ff0"/>
<text x="20" y="220" class="sm">8.897e-05</text>
<rect x="100" y="210" width="418" height="12" fill="#00f"/>
<rect x="568" y="210" width="247" height="12" fill="#00f"/>
<line x1="518" y1="216" x2="567" y2="216" stroke="#00f"/>
<rect x="103" y="211" width="296" height="10" fill="#ff0"/>
<text x="20" y="240" class="sm">4.39e-05</text>
<rect x="100" y="230" width="108" height="12" fill="#00f"/>
<rect x="249" y="230" width="112" height="12" fill="#00f"/>
<rect x="406" y="230" width="409" height="12" fill="#00f"/>
<line x1="208" y1="236" x2="248" y2="236" stroke="#00f"/>
<line x1="361" y1="236" x2="405" y2="236" stroke="#00f"/>
<rect x="322" y="231" width="39" height="10" fill="#ff0"/>
<rect x="407" y="231" width="307" height="10" fill="#ff0"/>
<text x="20" y="260" class="sm">3.948e-05</text>
<rect x="100" y="250" width="155" height="12" fill="#00f"/>
<rect x="297" y="250" width="518" height="12" fill="#00f"/>
<line x1="255" y1="256" x2="296" y2="256" stroke="#00f"/>
<rect x="103" y="251" width="152" height="10" fill="#ff0"/>
<rect x="298" y="251" width="101" height="10" fill="#ff0"/>
<text x="20" y="280" class="sm">2.201e-05</text>
<rect x="100" y="270" width="275" height="12" fill="#00f"/>
<rect x="436" y="270" width="379" height="12" fill="#00f"/>
<line x1="375" y1="276" x2="435" y2="276" stroke="#00f"/>
<rect x="103" y="271" width="272" height="10" fill="#ff0"/>
<rect x="437" y="271" width="47" height="10" fill="#ff0"/>
<text x="20" y="300" class="sm">2.113e-05</text>
<rect x="100" y="290" width="155" height="12" fill="#00f"/>
<rect x="293" y="290" width="522" height="12" fill="#00f"/>
<line x1="255" y1="296" x2="292" y2="296" stroke="#00f"/>
<rect x="481" y="291" width="233" height="10" fill="#ff0"/>
<text x="20" y="320" class="sm">1.628e-05</text>
<rect x="100" y="310" width="290" height="12" fill="#00f"/>
<rect x="436" y="310" width="379" height="12" fill="#00f"/>
<line x1="390" y1="316" x2="435" y2="316" stroke="#00f"/>
<rect x="103" y="311" width="287" height="10" fill="#ff0"/>
<rect x="437" y="311" width="47" height="10" fill="#ff0"/>
<text x="20" y="340" class="sm">1.491e-05</text>
<rect x="100" y="330" width="261" height="12" fill="#00f"/>
<rect x="406" y="330" width="112" height="12" fill="#00f"/>
<rect x="568" y="330" width="247" height="12" fill="#00f"/>
<line x1="361" y1="336" x2="405" y2="336" stroke="#00f"/>
<line x1="518" y1="336" x2="567" y2="336" stroke="#00f"/>
<rect x="103" y="331" width="258" height="10" fill="#ff0"/>
<rect x="407" y="331" width="111" height="10" fill="#ff0"/>
<rect x="569" y="331" width="3" height="10" fill="#ff0"/>
<text x="20" y="360" class="sm">1.166e-05</text>
<rect x="100" y="350" width="412" height="12" fill="#00f"/>
<rect x="568" y="350" width="247" height="12" fill="#00f"/>
<line x1="512" y1="356" x2="567" y2="356" stroke="#00f"/>
<rect x="103" y="351" width="296" height="10" fill="#ff0"/>
<text x="20" y="380" class="sm">9.858e-06</text>
<rect x="100" y="370" width="275" height="12" fill="#00f"/>
<rect x="414" y="370" width="401" height="12" fill="#00f"/>
<line x1="375" y1="376" x2="413" y2="376" stroke="#00f"/>
<rect x="103" y="371" width="272" height="10" fill="#ff0"/>
<rect x="415" y="371" width="299" height="10" fill="#ff0"/>
<text x="20" y="400" class="sm">7.87e-06</text>
<rect x="100" y="390" width="108" height="12" fill="#00f"/>
<rect x="256" y="390" width="559" height="12" fill="#00f"/>
<line x1="208" y1="396" x2="255" y2="396" stroke="#00f"/>
<rect x="103" y="391" width="105" height="10" fill="#ff0"/>
<rect x="257" y="391" width="142" height="10" fill="#ff0"/>
<text x="20" y="420" class="sm">7.842e-06</text>
<rect x="100" y="410" width="85" height="12" fill="#00f"/>
<rect x="235" y="410" width="580" height="12" fill="#00f"/>
<line x1="185" y1="416" x2="234" y2="416" stroke="#00f"/>
<rect x="481" y="411" width="233" height="10" fill="#ff0"/>
<text x="20" y="440" class="sm">7.07e-06</text>
<rect x="100" y="430" width="463" height="12" fill="#00f"/>
<rect x="604" y="430" width="211" height="12" fill="#00f"/>
<line x1="563" y1="436" x2="603" y2="436" stroke="#00f"/>
<rect x="103" y="431" width="296" height="10" fill="#ff0"/>
<text x="20" y="460" class="sm">4.687e-06</text>
<rect x="100" y="450" width="155" height="12" fill="#00f"/>
<rect x="300" y="450" width="515" height="12" fill="#00f"/>
<line x1="255" y1="456" x2="299" y2="456" stroke="#00f"/>
<rect x="103" y="451" width="152" height="10" fill="#ff0"/>
<rect x="301" y="451" width="98" height="10" fill="#ff0"/>
<text x="20" y="480" class="sm">4.06e-06</text>
<rect x="100" y="470" width="155" height="12" fill="#00f"/>
<rect x="297" y="470" width="64" height="12" fill="#00f"/>
<rect x="406" y="470" width="409" height="12" fill="#00f"/>
<line x1="255" y1="476" x2="296" y2="476" stroke="#00f"/>
<line x1="361" y1="476" x2="405" y2="476" stroke="#00f"/>
<rect x="103" y="471" width="152" height="10" fill="#ff0"/>
<rect x="298" y="471" width="63" height="10" fill="#ff0"/>
<rect x="407" y="471" width="307" height="10" fill="#ff0"/>
<text x="20" y="500" class="sm">3.889e-06</text>
<rect x="100" y="490" width="261" height="12" fill="#00f"/>
<rect x="436" y="490" width="379" height="12" fill="#00f"/>
<line x1="361" y1="496" x2="435" y2="496" stroke="#00f"/>
<rect x="103" y="491" width="258" height="10" fill="#ff0"/>
<rect x="437" y="491" width="277" height="10" fill="#ff0"/>
</svg>
