<svg viewBox="0 0 838 520" xmlns="http://www.w3.org/2000/svg">

<style>
  .sm { font: 12px sans-serif; }
  .lg { font: 15px sans-serif; }
</style>
<rect fill="#ddd" x="0" y="0" width="100%" height="100%"/>
<text x="20" y="20" class="lg">ch.700 I:4579864-4580701 Gene:WBGene00017002</text>
<text x="20" y="50" class="sm">WormBase</text>
<rect x="102" y="40" width="171" height="12" fill="#00f"/>
<rect x="329" y="40" width="411" height="12" fill="#00f"/>
<line x1="273" y1="46" x2="328" y2="46" stroke="#00f"/>
<rect x="120" y="41" width="153" height="10" fill="#ff0"/>
<rect x="330" y="41" width="352" height="10" fill="#ff0"/>
<rect x="103" y="41" width="16" height="10" fill="brown"><title>.</title></rect>
<rect x="683" y="41" width="57" height="10" fill="brown"><title>.</title></rect>
<text x="20" y="70" class="sm">Fitness: 0.0004366578744339232</text>
<rect x="273" y="65" width="56" height="5" fill="#00f"><title>140611.0</title></rect>
<rect x="526" y="70" width="48" height="5" fill="#f0f"><title>307.0</title></rect>
<rect x="526" y="75" width="84" height="5" fill="#f0f"><title>17.0</title></rect>
<rect x="526" y="80" width="96" height="5" fill="#f0f"><title>13.0</title></rect>
<text x="20" y="110" class="sm">0.9998</text>
<rect x="100" y="100" width="173" height="12" fill="#00f"/>
<rect x="329" y="100" width="412" height="12" fill="#00f"/>
<line x1="273" y1="106" x2="328" y2="106" stroke="#00f"/>
<rect x="117" y="101" width="156" height="10" fill="#ff0"/>
<rect x="330" y="101" width="352" height="10" fill="#ff0"/>
<text x="20" y="130" class="sm">0.0002005</text>
<rect x="100" y="120" width="133" height="12" fill="#00f"/>
<rect x="293" y="120" width="448" height="12" fill="#00f"/>
<line x1="233" y1="126" x2="292" y2="126" stroke="#00f"/>
<rect x="117" y="121" width="116" height="10" fill="#ff0"/>
<rect x="294" y="121" width="80" height="10" fill="#ff0"/>
<text x="20" y="150" class="sm">1.647e-05</text>
<rect x="100" y="140" width="133" height="12" fill="#00f"/>
<rect x="329" y="140" width="412" height="12" fill="#00f"/>
<line x1="233" y1="146" x2="328" y2="146" stroke="#00f"/>
<rect x="117" y="141" width="116" height="10" fill="#ff0"/>
<rect x="330" y="141" width="44" height="10" fill="#ff0"/>
<text x="20" y="170" class="sm">1.352e-06</text>
<rect x="100" y="160" width="173" height="12" fill="#00f"/>
<rect x="485" y="160" width="256" height="12" fill="#00f"/>
<line x1="273" y1="166" x2="484" y2="166" stroke="#00f"/>
<rect x="117" y="161" width="156" height="10" fill="#ff0"/>
<rect x="486" y="161" width="1" height="10" fill="#ff0"/>
<text x="20" y="190" class="sm">8.283e-09</text>
<rect x="100" y="180" width="133" height="12" fill="#00f"/>
<rect x="485" y="180" width="256" height="12" fill="#00f"/>
<line x1="233" y1="186" x2="484" y2="186" stroke="#00f"/>
<rect x="117" y="181" width="116" height="10" fill="#ff0"/>
<rect x="486" y="181" width="44" height="10" fill="#ff0"/>
<text x="20" y="210" class="sm">2.143e-09</text>
<rect x="100" y="200" width="192" height="12" fill="#00f"/>
<rect x="329" y="200" width="412" height="12" fill="#00f"/>
<line x1="292" y1="206" x2="328" y2="206" stroke="#00f"/>
<rect x="117" y="201" width="175" height="10" fill="#ff0"/>
<rect x="330" y="201" width="12" height="10" fill="#ff0"/>
<text x="20" y="230" class="sm">2.932e-10</text>
<rect x="100" y="220" width="173" height="12" fill="#00f"/>
<rect x="329" y="220" width="41" height="12" fill="#00f"/>
<rect x="485" y="220" width="256" height="12" fill="#00f"/>
<line x1="273" y1="226" x2="328" y2="226" stroke="#00f"/>
<line x1="370" y1="226" x2="484" y2="226" stroke="#00f"/>
<rect x="117" y="221" width="156" height="10" fill="#ff0"/>
<rect x="330" y="221" width="40" height="10" fill="#ff0"/>
<rect x="486" y="221" width="44" height="10" fill="#ff0"/>
<text x="20" y="250" class="sm">7.146e-11</text>
<rect x="100" y="240" width="133" height="12" fill="#00f"/>
<rect x="278" y="240" width="463" height="12" fill="#00f"/>
<line x1="233" y1="246" x2="277" y2="246" stroke="#00f"/>
<rect x="117" y="241" width="116" height="10" fill="#ff0"/>
<rect x="279" y="241" width="14" height="10" fill="#ff0"/>
<text x="20" y="270" class="sm">4.257e-11</text>
<rect x="100" y="260" width="270" height="12" fill="#00f"/>
<rect x="485" y="260" width="256" height="12" fill="#00f"/>
<line x1="370" y1="266" x2="484" y2="266" stroke="#00f"/>
<rect x="352" y="261" width="18" height="10" fill="#ff0"/>
<rect x="486" y="261" width="196" height="10" fill="#ff0"/>
<text x="20" y="290" class="sm">3.869e-11</text>
<rect x="100" y="280" width="173" height="12" fill="#00f"/>
<rect x="329" y="280" width="300" height="12" fill="#00f"/>
<rect x="674" y="280" width="67" height="12" fill="#00f"/>
<line x1="273" y1="286" x2="328" y2="286" stroke="#00f"/>
<line x1="629" y1="286" x2="673" y2="286" stroke="#00f"/>
<rect x="117" y="281" width="156" height="10" fill="#ff0"/>
<rect x="330" y="281" width="299" height="10" fill="#ff0"/>
<rect x="675" y="281" width="1" height="10" fill="#ff0"/>
<text x="20" y="310" class="sm">2.212e-11</text>
<rect x="100" y="300" width="85" height="12" fill="#00f"/>
<rect x="329" y="300" width="412" height="12" fill="#00f"/>
<line x1="185" y1="306" x2="328" y2="306" stroke="#00f"/>
<rect x="117" y="301" width="68" height="10" fill="#ff0"/>
<rect x="330" y="301" width="44" height="10" fill="#ff0"/>
<text x="20" y="330" class="sm">1.139e-11</text>
<rect x="100" y="320" width="173" height="12" fill="#00f"/>
<rect x="468" y="320" width="273" height="12" fill="#00f"/>
<line x1="273" y1="326" x2="467" y2="326" stroke="#00f"/>
<rect x="117" y="321" width="156" height="10" fill="#ff0"/>
<rect x="469" y="321" width="61" height="10" fill="#ff0"/>
<text x="20" y="350" class="sm">9.365e-12</text>
<rect x="100" y="340" width="85" height="12" fill="#00f"/>
<rect x="293" y="340" width="448" height="12" fill="#00f"/>
<line x1="185" y1="346" x2="292" y2="346" stroke="#00f"/>
<rect x="117" y="341" width="68" height="10" fill="#ff0"/>
<rect x="294" y="341" width="80" height="10" fill="#ff0"/>
<text x="20" y="370" class="sm">7.69e-12</text>
<rect x="100" y="360" width="80" height="12" fill="#00f"/>
<rect x="329" y="360" width="412" height="12" fill="#00f"/>
<line x1="180" y1="366" x2="328" y2="366" stroke="#00f"/>
<rect x="117" y="361" width="63" height="10" fill="#ff0"/>
<rect x="330" y="361" width="352" height="10" fill="#ff0"/>
<text x="20" y="390" class="sm">5.627e-12</text>
<rect x="100" y="380" width="173" height="12" fill="#00f"/>
<rect x="442" y="380" width="299" height="12" fill="#00f"/>
<line x1="273" y1="386" x2="441" y2="386" stroke="#00f"/>
<rect x="117" y="381" width="156" height="10" fill="#ff0"/>
<rect x="443" y="381" width="1" height="10" fill="#ff0"/>
<text x="20" y="410" class="sm">5.166e-12</text>
<rect x="100" y="400" width="80" height="12" fill="#00f"/>
<rect x="293" y="400" width="448" height="12" fill="#00f"/>
<line x1="180" y1="406" x2="292" y2="406" stroke="#00f"/>
<rect x="117" y="401" width="63" height="10" fill="#ff0"/>
<rect x="294" y="401" width="388" height="10" fill="#ff0"/>
<text x="20" y="430" class="sm">2.092e-12</text>
<rect x="100" y="420" width="173" height="12" fill="#00f"/>
<rect x="601" y="420" width="140" height="12" fill="#00f"/>
<line x1="273" y1="426" x2="600" y2="426" stroke="#00f"/>
<rect x="117" y="421" width="156" height="10" fill="#ff0"/>
<rect x="602" y="421" width="1" height="10" fill="#ff0"/>
<text x="20" y="450" class="sm">8.007e-13</text>
<rect x="100" y="440" width="173" height="12" fill="#00f"/>
<rect x="384" y="440" width="357" height="12" fill="#00f"/>
<line x1="273" y1="446" x2="383" y2="446" stroke="#00f"/>
<rect x="117" y="441" width="156" height="10" fill="#ff0"/>
<rect x="385" y="441" width="1" height="10" fill="#ff0"/>
<text x="20" y="470" class="sm">7.772e-13</text>
<rect x="100" y="460" width="529" height="12" fill="#00f"/>
<rect x="674" y="460" width="67" height="12" fill="#00f"/>
<line x1="629" y1="466" x2="673" y2="466" stroke="#00f"/>
<rect x="117" y="461" width="176" height="10" fill="#ff0"/>
<text x="20" y="490" class="sm">6.369e-13</text>
<rect x="100" y="480" width="173" height="12" fill="#00f"/>
<rect x="674" y="480" width="67" height="12" fill="#00f"/>
<line x1="273" y1="486" x2="673" y2="486" stroke="#00f"/>
<rect x="117" y="481" width="156" height="10" fill="#ff0"/>
<rect x="675" y="481" width="1" height="10" fill="#ff0"/>
</svg>
