<svg viewBox="0 0 735 550" xmlns="http://www.w3.org/2000/svg">

<style>
  .sm { font: 12px sans-serif; }
  .lg { font: 15px sans-serif; }
</style>
<rect fill="#ddd" x="0" y="0" width="100%" height="100%"/>
<text x="20" y="20" class="lg">ch.779 I:4957675-4958409 Gene:WBGene00044431</text>
<text x="20" y="50" class="sm">WormBase</text>
<rect x="102" y="40" width="183" height="12" fill="#00f"/>
<rect x="334" y="40" width="68" height="12" fill="#00f"/>
<rect x="447" y="40" width="190" height="12" fill="#00f"/>
<line x1="285" y1="46" x2="333" y2="46" stroke="#00f"/>
<line x1="402" y1="46" x2="446" y2="46" stroke="#00f"/>
<rect x="258" y="41" width="27" height="10" fill="#ff0"/>
<rect x="335" y="41" width="67" height="10" fill="#ff0"/>
<rect x="448" y="41" width="107" height="10" fill="#ff0"/>
<rect x="103" y="41" width="154" height="10" fill="brown"><title>.</title></rect>
<rect x="556" y="41" width="81" height="10" fill="brown"><title>.</title></rect>
<text x="20" y="70" class="sm">Fitness: 0.011195477411721104</text>
<rect x="402" y="65" width="45" height="5" fill="#00f"><title>685191.0</title></rect>
<rect x="285" y="70" width="49" height="5" fill="#00f"><title>603975.0</title></rect>
<rect x="289" y="75" width="45" height="5" fill="#00f"><title>2512.0</title></rect>
<rect x="393" y="80" width="54" height="5" fill="#00f"><title>96.0</title></rect>
<rect x="140" y="85" width="77" height="5" fill="#00f"><title>84.0</title></rect>
<rect x="389" y="90" width="58" height="5" fill="#00f"><title>50.0</title></rect>
<rect x="285" y="95" width="162" height="5" fill="#00f"><title>22.0</title></rect>
<rect x="384" y="100" width="63" height="5" fill="#00f"><title>9.0</title></rect>
<rect x="283" y="105" width="51" height="5" fill="#00f"><title>8.0</title></rect>
<rect x="553" y="110" width="40" height="5" fill="#f0f"><title>6.0</title></rect>
<text x="20" y="140" class="sm">0.6144</text>
<rect x="100" y="130" width="185" height="12" fill="#00f"/>
<rect x="334" y="130" width="68" height="12" fill="#00f"/>
<rect x="447" y="130" width="191" height="12" fill="#00f"/>
<line x1="285" y1="136" x2="333" y2="136" stroke="#00f"/>
<line x1="402" y1="136" x2="446" y2="136" stroke="#00f"/>
<rect x="258" y="131" width="27" height="10" fill="#ff0"/>
<rect x="335" y="131" width="67" height="10" fill="#ff0"/>
<rect x="448" y="131" width="107" height="10" fill="#ff0"/>
<text x="20" y="160" class="sm">0.2376</text>
<rect x="100" y="150" width="302" height="12" fill="#00f"/>
<rect x="447" y="150" width="191" height="12" fill="#00f"/>
<line x1="402" y1="156" x2="446" y2="156" stroke="#00f"/>
<rect x="346" y="151" width="56" height="10" fill="#ff0"/>
<rect x="448" y="151" width="107" height="10" fill="#ff0"/>
<text x="20" y="180" class="sm">0.1388</text>
<rect x="100" y="170" width="185" height="12" fill="#00f"/>
<rect x="334" y="170" width="304" height="12" fill="#00f"/>
<line x1="285" y1="176" x2="333" y2="176" stroke="#00f"/>
<rect x="258" y="171" width="27" height="10" fill="#ff0"/>
<rect x="335" y="171" width="220" height="10" fill="#ff0"/>
<text x="20" y="200" class="sm">0.001695</text>
<rect x="100" y="190" width="185" height="12" fill="#00f"/>
<rect x="334" y="190" width="55" height="12" fill="#00f"/>
<rect x="447" y="190" width="191" height="12" fill="#00f"/>
<line x1="285" y1="196" x2="333" y2="196" stroke="#00f"/>
<line x1="389" y1="196" x2="446" y2="196" stroke="#00f"/>
<rect x="362" y="191" width="27" height="10" fill="#ff0"/>
<rect x="448" y="191" width="112" height="10" fill="#ff0"/>
<text x="20" y="220" class="sm">0.001408</text>
<rect x="100" y="210" width="185" height="12" fill="#00f"/>
<rect x="334" y="210" width="59" height="12" fill="#00f"/>
<rect x="447" y="210" width="191" height="12" fill="#00f"/>
<line x1="285" y1="216" x2="333" y2="216" stroke="#00f"/>
<line x1="393" y1="216" x2="446" y2="216" stroke="#00f"/>
<rect x="258" y="211" width="27" height="10" fill="#ff0"/>
<rect x="335" y="211" width="58" height="10" fill="#ff0"/>
<rect x="448" y="211" width="107" height="10" fill="#ff0"/>
<text x="20" y="240" class="sm">0.001249</text>
<rect x="100" y="230" width="289" height="12" fill="#00f"/>
<rect x="447" y="230" width="191" height="12" fill="#00f"/>
<line x1="389" y1="236" x2="446" y2="236" stroke="#00f"/>
<rect x="362" y="231" width="27" height="10" fill="#ff0"/>
<rect x="448" y="231" width="112" height="10" fill="#ff0"/>
<text x="20" y="260" class="sm">0.001044</text>
<rect x="100" y="250" width="71" height="12" fill="#00f"/>
<rect x="217" y="250" width="68" height="12" fill="#00f"/>
<rect x="334" y="250" width="68" height="12" fill="#00f"/>
<rect x="447" y="250" width="191" height="12" fill="#00f"/>
<line x1="171" y1="256" x2="216" y2="256" stroke="#00f"/>
<line x1="285" y1="256" x2="333" y2="256" stroke="#00f"/>
<line x1="402" y1="256" x2="446" y2="256" stroke="#00f"/>
<rect x="258" y="251" width="27" height="10" fill="#ff0"/>
<rect x="335" y="251" width="67" height="10" fill="#ff0"/>
<rect x="448" y="251" width="107" height="10" fill="#ff0"/>
<text x="20" y="280" class="sm">0.0009174</text>
<rect x="100" y="270" width="71" height="12" fill="#00f"/>
<rect x="217" y="270" width="185" height="12" fill="#00f"/>
<rect x="447" y="270" width="191" height="12" fill="#00f"/>
<line x1="171" y1="276" x2="216" y2="276" stroke="#00f"/>
<line x1="402" y1="276" x2="446" y2="276" stroke="#00f"/>
<rect x="346" y="271" width="56" height="10" fill="#ff0"/>
<rect x="448" y="271" width="107" height="10" fill="#ff0"/>
<text x="20" y="300" class="sm">0.0007403</text>
<rect x="100" y="290" width="293" height="12" fill="#00f"/>
<rect x="447" y="290" width="191" height="12" fill="#00f"/>
<line x1="393" y1="296" x2="446" y2="296" stroke="#00f"/>
<rect x="346" y="291" width="47" height="10" fill="#ff0"/>
<rect x="448" y="291" width="107" height="10" fill="#ff0"/>
<text x="20" y="320" class="sm">0.000375</text>
<rect x="100" y="310" width="142" height="12" fill="#00f"/>
<rect x="284" y="310" width="118" height="12" fill="#00f"/>
<rect x="447" y="310" width="191" height="12" fill="#00f"/>
<line x1="242" y1="316" x2="283" y2="316" stroke="#00f"/>
<line x1="402" y1="316" x2="446" y2="316" stroke="#00f"/>
<rect x="346" y="311" width="56" height="10" fill="#ff0"/>
<rect x="448" y="311" width="107" height="10" fill="#ff0"/>
<text x="20" y="340" class="sm">0.0003213</text>
<rect x="100" y="330" width="189" height="12" fill="#00f"/>
<rect x="334" y="330" width="68" height="12" fill="#00f"/>
<rect x="447" y="330" width="191" height="12" fill="#00f"/>
<line x1="289" y1="336" x2="333" y2="336" stroke="#00f"/>
<line x1="402" y1="336" x2="446" y2="336" stroke="#00f"/>
<rect x="346" y="331" width="56" height="10" fill="#ff0"/>
<rect x="448" y="331" width="107" height="10" fill="#ff0"/>
<text x="20" y="360" class="sm">0.0002507</text>
<rect x="100" y="350" width="185" height="12" fill="#00f"/>
<rect x="334" y="350" width="136" height="12" fill="#00f"/>
<rect x="512" y="350" width="126" height="12" fill="#00f"/>
<line x1="285" y1="356" x2="333" y2="356" stroke="#00f"/>
<line x1="470" y1="356" x2="511" y2="356" stroke="#00f"/>
<rect x="258" y="351" width="27" height="10" fill="#ff0"/>
<rect x="335" y="351" width="135" height="10" fill="#ff0"/>
<rect x="513" y="351" width="42" height="10" fill="#ff0"/>
<text x="20" y="380" class="sm">0.0002359</text>
<rect x="100" y="370" width="71" height="12" fill="#00f"/>
<rect x="217" y="370" width="68" height="12" fill="#00f"/>
<rect x="334" y="370" width="304" height="12" fill="#00f"/>
<line x1="171" y1="376" x2="216" y2="376" stroke="#00f"/>
<line x1="285" y1="376" x2="333" y2="376" stroke="#00f"/>
<rect x="258" y="371" width="27" height="10" fill="#ff0"/>
<rect x="335" y="371" width="220" height="10" fill="#ff0"/>
<text x="20" y="400" class="sm">0.000225</text>
<rect x="100" y="390" width="185" height="12" fill="#00f"/>
<rect x="334" y="390" width="128" height="12" fill="#00f"/>
<rect x="512" y="390" width="126" height="12" fill="#00f"/>
<line x1="285" y1="396" x2="333" y2="396" stroke="#00f"/>
<line x1="462" y1="396" x2="511" y2="396" stroke="#00f"/>
<rect x="258" y="391" width="27" height="10" fill="#ff0"/>
<rect x="335" y="391" width="127" height="10" fill="#ff0"/>
<rect x="513" y="391" width="47" height="10" fill="#ff0"/>
<text x="20" y="420" class="sm">0.0001866</text>
<rect x="100" y="410" width="185" height="12" fill="#00f"/>
<rect x="334" y="410" width="112" height="12" fill="#00f"/>
<rect x="512" y="410" width="126" height="12" fill="#00f"/>
<line x1="285" y1="416" x2="333" y2="416" stroke="#00f"/>
<line x1="446" y1="416" x2="511" y2="416" stroke="#00f"/>
<rect x="258" y="411" width="27" height="10" fill="#ff0"/>
<rect x="335" y="411" width="111" height="10" fill="#ff0"/>
<rect x="513" y="411" width="42" height="10" fill="#ff0"/>
<text x="20" y="440" class="sm">0.0001482</text>
<rect x="100" y="430" width="185" height="12" fill="#00f"/>
<rect x="334" y="430" width="68" height="12" fill="#00f"/>
<rect x="512" y="430" width="126" height="12" fill="#00f"/>
<line x1="285" y1="436" x2="333" y2="436" stroke="#00f"/>
<line x1="402" y1="436" x2="511" y2="436" stroke="#00f"/>
<rect x="258" y="431" width="27" height="10" fill="#ff0"/>
<rect x="335" y="431" width="67" height="10" fill="#ff0"/>
<rect x="513" y="431" width="47" height="10" fill="#ff0"/>
<text x="20" y="460" class="sm">0.0001247</text>
<rect x="100" y="450" width="142" height="12" fill="#00f"/>
<rect x="334" y="450" width="68" height="12" fill="#00f"/>
<rect x="447" y="450" width="191" height="12" fill="#00f"/>
<line x1="242" y1="456" x2="333" y2="456" stroke="#00f"/>
<line x1="402" y1="456" x2="446" y2="456" stroke="#00f"/>
<rect x="346" y="451" width="56" height="10" fill="#ff0"/>
<rect x="448" y="451" width="107" height="10" fill="#ff0"/>
<text x="20" y="480" class="sm">8.015e-05</text>
<rect x="100" y="470" width="71" height="12" fill="#00f"/>
<rect x="217" y="470" width="421" height="12" fill="#00f"/>
<line x1="171" y1="476" x2="216" y2="476" stroke="#00f"/>
<rect x="346" y="471" width="209" height="10" fill="#ff0"/>
<text x="20" y="500" class="sm">7.829e-05</text>
<rect x="100" y="490" width="185" height="12" fill="#00f"/>
<rect x="447" y="490" width="191" height="12" fill="#00f"/>
<line x1="285" y1="496" x2="446" y2="496" stroke="#00f"/>
<rect x="258" y="491" width="27" height="10" fill="#ff0"/>
<rect x="448" y="491" width="112" height="10" fill="#ff0"/>
<text x="20" y="520" class="sm">7.261e-05</text>
<rect x="100" y="510" width="189" height="12" fill="#00f"/>
<rect x="334" y="510" width="304" height="12" fill="#00f"/>
<line x1="289" y1="516" x2="333" y2="516" stroke="#00f"/>
<rect x="346" y="511" width="209" height="10" fill="#ff0"/>
</svg>
