<svg viewBox="0 0 949 545" xmlns="http://www.w3.org/2000/svg">

<style>
  .sm { font: 12px sans-serif; }
  .lg { font: 15px sans-serif; }
</style>
<rect fill="#ddd" x="0" y="0" width="100%" height="100%"/>
<text x="20" y="20" class="lg">ch.7492 III:5693936-5694884 Gene:WBGene00015150</text>
<text x="20" y="50" class="sm">WormBase</text>
<rect x="100" y="40" width="299" height="12" fill="#00f"/>
<rect x="513" y="40" width="336" height="12" fill="#00f"/>
<line x1="399" y1="46" x2="512" y2="46" stroke="#00f"/>
<rect x="113" y="41" width="286" height="10" fill="#ff0"/>
<rect x="514" y="41" width="132" height="10" fill="#ff0"/>
<rect x="101" y="41" width="11" height="10" fill="brown"><title>.</title></rect>
<rect x="647" y="41" width="202" height="10" fill="brown"><title>.</title></rect>
<text x="20" y="70" class="sm">Fitness: 0.000339201154358588</text>
<rect x="399" y="65" width="114" height="5" fill="#00f"><title>371391.0</title></rect>
<rect x="568" y="70" width="149" height="5" fill="#00f"><title>43.0</title></rect>
<rect x="292" y="75" width="325" height="5" fill="#00f"><title>20.0</title></rect>
<rect x="550" y="80" width="169" height="5" fill="#f0f"><title>17.0</title></rect>
<rect x="167" y="85" width="348" height="5" fill="#f0f"><title>12.0</title></rect>
<rect x="389" y="90" width="161" height="5" fill="#f0f"><title>4.0</title></rect>
<rect x="399" y="95" width="160" height="5" fill="#00f"><title>4.0</title></rect>
<rect x="389" y="100" width="139" height="5" fill="#f0f"><title>3.0</title></rect>
<rect x="399" y="105" width="122" height="5" fill="#00f"><title>3.0</title></rect>
<text x="20" y="135" class="sm">0.9998</text>
<rect x="100" y="125" width="299" height="12" fill="#00f"/>
<rect x="513" y="125" width="339" height="12" fill="#00f"/>
<line x1="399" y1="131" x2="512" y2="131" stroke="#00f"/>
<rect x="113" y="126" width="286" height="10" fill="#ff0"/>
<rect x="514" y="126" width="132" height="10" fill="#ff0"/>
<text x="20" y="155" class="sm">0.0001034</text>
<rect x="100" y="145" width="278" height="12" fill="#00f"/>
<rect x="513" y="145" width="339" height="12" fill="#00f"/>
<line x1="378" y1="151" x2="512" y2="151" stroke="#00f"/>
<rect x="113" y="146" width="265" height="10" fill="#ff0"/>
<rect x="514" y="146" width="132" height="10" fill="#ff0"/>
<text x="20" y="175" class="sm">3.129e-05</text>
<rect x="100" y="165" width="299" height="12" fill="#00f"/>
<rect x="559" y="165" width="293" height="12" fill="#00f"/>
<line x1="399" y1="171" x2="558" y2="171" stroke="#00f"/>
<rect x="113" y="166" width="286" height="10" fill="#ff0"/>
<rect x="560" y="166" width="6" height="10" fill="#ff0"/>
<text x="20" y="195" class="sm">2.989e-05</text>
<rect x="100" y="185" width="299" height="12" fill="#00f"/>
<rect x="513" y="185" width="198" height="12" fill="#00f"/>
<rect x="758" y="185" width="94" height="12" fill="#00f"/>
<line x1="399" y1="191" x2="512" y2="191" stroke="#00f"/>
<line x1="711" y1="191" x2="757" y2="191" stroke="#00f"/>
<rect x="113" y="186" width="286" height="10" fill="#ff0"/>
<rect x="514" y="186" width="132" height="10" fill="#ff0"/>
<text x="20" y="215" class="sm">1.333e-05</text>
<rect x="100" y="205" width="299" height="12" fill="#00f"/>
<rect x="521" y="205" width="331" height="12" fill="#00f"/>
<line x1="399" y1="211" x2="520" y2="211" stroke="#00f"/>
<rect x="113" y="206" width="286" height="10" fill="#ff0"/>
<rect x="522" y="206" width="12" height="10" fill="#ff0"/>
<text x="20" y="235" class="sm">3.703e-06</text>
<rect x="100" y="225" width="299" height="12" fill="#00f"/>
<rect x="574" y="225" width="278" height="12" fill="#00f"/>
<line x1="399" y1="231" x2="573" y2="231" stroke="#00f"/>
<rect x="113" y="226" width="286" height="10" fill="#ff0"/>
<rect x="575" y="226" width="75" height="10" fill="#ff0"/>
<text x="20" y="255" class="sm">1.874e-06</text>
<rect x="100" y="245" width="303" height="12" fill="#00f"/>
<rect x="513" y="245" width="339" height="12" fill="#00f"/>
<line x1="403" y1="251" x2="512" y2="251" stroke="#00f"/>
<rect x="113" y="246" width="290" height="10" fill="#ff0"/>
<text x="20" y="275" class="sm">1.479e-06</text>
<rect x="100" y="265" width="299" height="12" fill="#00f"/>
<rect x="440" y="265" width="412" height="12" fill="#00f"/>
<line x1="399" y1="271" x2="439" y2="271" stroke="#00f"/>
<rect x="113" y="266" width="286" height="10" fill="#ff0"/>
<rect x="441" y="266" width="30" height="10" fill="#ff0"/>
<text x="20" y="295" class="sm">8.625e-07</text>
<rect x="100" y="285" width="299" height="12" fill="#00f"/>
<rect x="567" y="285" width="285" height="12" fill="#00f"/>
<line x1="399" y1="291" x2="566" y2="291" stroke="#00f"/>
<rect x="113" y="286" width="286" height="10" fill="#ff0"/>
<rect x="568" y="286" width="78" height="10" fill="#ff0"/>
<text x="20" y="315" class="sm">4.519e-07</text>
<rect x="100" y="305" width="299" height="12" fill="#00f"/>
<rect x="617" y="305" width="235" height="12" fill="#00f"/>
<line x1="399" y1="311" x2="616" y2="311" stroke="#00f"/>
<rect x="113" y="306" width="286" height="10" fill="#ff0"/>
<rect x="618" y="306" width="9" height="10" fill="#ff0"/>
<text x="20" y="335" class="sm">2.342e-07</text>
<rect x="100" y="325" width="318" height="12" fill="#00f"/>
<rect x="513" y="325" width="339" height="12" fill="#00f"/>
<line x1="418" y1="331" x2="512" y2="331" stroke="#00f"/>
<rect x="113" y="326" width="290" height="10" fill="#ff0"/>
<text x="20" y="355" class="sm">1.291e-07</text>
<rect x="100" y="345" width="228" height="12" fill="#00f"/>
<rect x="513" y="345" width="339" height="12" fill="#00f"/>
<line x1="328" y1="351" x2="512" y2="351" stroke="#00f"/>
<rect x="113" y="346" width="215" height="10" fill="#ff0"/>
<rect x="514" y="346" width="20" height="10" fill="#ff0"/>
<text x="20" y="375" class="sm">3.037e-08</text>
<rect x="100" y="365" width="220" height="12" fill="#00f"/>
<rect x="513" y="365" width="339" height="12" fill="#00f"/>
<line x1="320" y1="371" x2="512" y2="371" stroke="#00f"/>
<rect x="113" y="366" width="207" height="10" fill="#ff0"/>
<rect x="514" y="366" width="4" height="10" fill="#ff0"/>
<text x="20" y="395" class="sm">3.034e-08</text>
<rect x="100" y="385" width="299" height="12" fill="#00f"/>
<rect x="549" y="385" width="303" height="12" fill="#00f"/>
<line x1="399" y1="391" x2="548" y2="391" stroke="#00f"/>
<rect x="113" y="386" width="286" height="10" fill="#ff0"/>
<rect x="550" y="386" width="96" height="10" fill="#ff0"/>
<text x="20" y="415" class="sm">2.831e-08</text>
<rect x="100" y="405" width="299" height="12" fill="#00f"/>
<rect x="586" y="405" width="266" height="12" fill="#00f"/>
<line x1="399" y1="411" x2="585" y2="411" stroke="#00f"/>
<rect x="113" y="406" width="286" height="10" fill="#ff0"/>
<rect x="587" y="406" width="63" height="10" fill="#ff0"/>
<text x="20" y="435" class="sm">2.495e-08</text>
<rect x="100" y="425" width="299" height="12" fill="#00f"/>
<rect x="513" y="425" width="198" height="12" fill="#00f"/>
<rect x="762" y="425" width="90" height="12" fill="#00f"/>
<line x1="399" y1="431" x2="512" y2="431" stroke="#00f"/>
<line x1="711" y1="431" x2="761" y2="431" stroke="#00f"/>
<rect x="113" y="426" width="286" height="10" fill="#ff0"/>
<rect x="514" y="426" width="132" height="10" fill="#ff0"/>
<text x="20" y="455" class="sm">9.17e-09</text>
<rect x="100" y="445" width="228" height="12" fill="#00f"/>
<rect x="373" y="445" width="26" height="12" fill="#00f"/>
<rect x="513" y="445" width="339" height="12" fill="#00f"/>
<line x1="328" y1="451" x2="372" y2="451" stroke="#00f"/>
<line x1="399" y1="451" x2="512" y2="451" stroke="#00f"/>
<rect x="113" y="446" width="215" height="10" fill="#ff0"/>
<rect x="374" y="446" width="25" height="10" fill="#ff0"/>
<rect x="514" y="446" width="132" height="10" fill="#ff0"/>
<text x="20" y="475" class="sm">4.47e-09</text>
<rect x="100" y="465" width="299" height="12" fill="#00f"/>
<rect x="513" y="465" width="125" height="12" fill="#00f"/>
<rect x="739" y="465" width="113" height="12" fill="#00f"/>
<line x1="399" y1="471" x2="512" y2="471" stroke="#00f"/>
<line x1="638" y1="471" x2="738" y2="471" stroke="#00f"/>
<rect x="624" y="466" width="14" height="10" fill="#ff0"/>
<rect x="740" y="466" width="50" height="10" fill="#ff0"/>
<text x="20" y="495" class="sm">3.503e-09</text>
<rect x="100" y="485" width="278" height="12" fill="#00f"/>
<rect x="559" y="485" width="293" height="12" fill="#00f"/>
<line x1="378" y1="491" x2="558" y2="491" stroke="#00f"/>
<rect x="113" y="486" width="265" height="10" fill="#ff0"/>
<rect x="560" y="486" width="6" height="10" fill="#ff0"/>
<text x="20" y="515" class="sm">3.091e-09</text>
<rect x="100" y="505" width="278" height="12" fill="#00f"/>
<rect x="513" y="505" width="198" height="12" fill="#00f"/>
<rect x="758" y="505" width="94" height="12" fill="#00f"/>
<line x1="378" y1="511" x2="512" y2="511" stroke="#00f"/>
<line x1="711" y1="511" x2="757" y2="511" stroke="#00f"/>
<rect x="113" y="506" width="265" height="10" fill="#ff0"/>
<rect x="514" y="506" width="132" height="10" fill="#ff0"/>
</svg>
