<svg viewBox="0 0 869 510" xmlns="http://www.w3.org/2000/svg">

<style>
  .sm { font: 12px sans-serif; }
  .lg { font: 15px sans-serif; }
</style>
<rect fill="#ddd" x="0" y="0" width="100%" height="100%"/>
<text x="20" y="20" class="lg">ch.8695 III:11079645-11080513 Gene:WBGene00012357</text>
<text x="20" y="50" class="sm">WormBase</text>
<rect x="100" y="40" width="272" height="12" fill="#00f"/>
<rect x="507" y="40" width="262" height="12" fill="#00f"/>
<line x1="372" y1="46" x2="506" y2="46" stroke="#00f"/>
<rect x="148" y="41" width="224" height="10" fill="#ff0"/>
<rect x="508" y="41" width="221" height="10" fill="#ff0"/>
<rect x="101" y="41" width="46" height="10" fill="brown"><title>.</title></rect>
<rect x="730" y="41" width="39" height="10" fill="brown"><title>.</title></rect>
<text x="20" y="70" class="sm">Fitness: 0.0011676142771943601</text>
<rect x="372" y="65" width="135" height="5" fill="#00f"><title>129090.0</title></rect>
<rect x="372" y="70" width="127" height="5" fill="#00f"><title>296.0</title></rect>
<text x="20" y="100" class="sm">0.9978</text>
<rect x="100" y="90" width="272" height="12" fill="#00f"/>
<rect x="507" y="90" width="265" height="12" fill="#00f"/>
<line x1="372" y1="96" x2="506" y2="96" stroke="#00f"/>
<rect x="148" y="91" width="224" height="10" fill="#ff0"/>
<rect x="508" y="91" width="221" height="10" fill="#ff0"/>
<text x="20" y="120" class="sm">0.001704</text>
<rect x="100" y="110" width="272" height="12" fill="#00f"/>
<rect x="499" y="110" width="273" height="12" fill="#00f"/>
<line x1="372" y1="116" x2="498" y2="116" stroke="#00f"/>
<rect x="148" y="111" width="224" height="10" fill="#ff0"/>
<rect x="500" y="111" width="47" height="10" fill="#ff0"/>
<text x="20" y="140" class="sm">0.0003981</text>
<rect x="100" y="130" width="276" height="12" fill="#00f"/>
<rect x="507" y="130" width="265" height="12" fill="#00f"/>
<line x1="376" y1="136" x2="506" y2="136" stroke="#00f"/>
<rect x="266" y="131" width="110" height="10" fill="#ff0"/>
<rect x="508" y="131" width="221" height="10" fill="#ff0"/>
<text x="20" y="160" class="sm">6.367e-05</text>
<rect x="100" y="150" width="272" height="12" fill="#00f"/>
<rect x="550" y="150" width="222" height="12" fill="#00f"/>
<line x1="372" y1="156" x2="549" y2="156" stroke="#00f"/>
<rect x="148" y="151" width="224" height="10" fill="#ff0"/>
<rect x="551" y="151" width="92" height="10" fill="#ff0"/>
<text x="20" y="180" class="sm">6.105e-05</text>
<rect x="100" y="170" width="232" height="12" fill="#00f"/>
<rect x="507" y="170" width="265" height="12" fill="#00f"/>
<line x1="332" y1="176" x2="506" y2="176" stroke="#00f"/>
<rect x="148" y="171" width="184" height="10" fill="#ff0"/>
<rect x="508" y="171" width="39" height="10" fill="#ff0"/>
<text x="20" y="200" class="sm">1.82e-05</text>
<rect x="100" y="190" width="361" height="12" fill="#00f"/>
<rect x="507" y="190" width="265" height="12" fill="#00f"/>
<line x1="461" y1="196" x2="506" y2="196" stroke="#00f"/>
<rect x="148" y="191" width="263" height="10" fill="#ff0"/>
<text x="20" y="220" class="sm">6.801e-07</text>
<rect x="100" y="210" width="276" height="12" fill="#00f"/>
<rect x="499" y="210" width="273" height="12" fill="#00f"/>
<line x1="376" y1="216" x2="498" y2="216" stroke="#00f"/>
<rect x="148" y="211" width="228" height="10" fill="#ff0"/>
<rect x="500" y="211" width="229" height="10" fill="#ff0"/>
<text x="20" y="240" class="sm">4.118e-07</text>
<rect x="100" y="230" width="272" height="12" fill="#00f"/>
<rect x="571" y="230" width="201" height="12" fill="#00f"/>
<line x1="372" y1="236" x2="570" y2="236" stroke="#00f"/>
<rect x="148" y="231" width="224" height="10" fill="#ff0"/>
<rect x="572" y="231" width="71" height="10" fill="#ff0"/>
<text x="20" y="260" class="sm">1.027e-07</text>
<rect x="100" y="250" width="232" height="12" fill="#00f"/>
<rect x="499" y="250" width="273" height="12" fill="#00f"/>
<line x1="332" y1="256" x2="498" y2="256" stroke="#00f"/>
<rect x="266" y="251" width="66" height="10" fill="#ff0"/>
<rect x="500" y="251" width="229" height="10" fill="#ff0"/>
<text x="20" y="280" class="sm">3.531e-08</text>
<rect x="100" y="270" width="361" height="12" fill="#00f"/>
<rect x="499" y="270" width="273" height="12" fill="#00f"/>
<line x1="461" y1="276" x2="498" y2="276" stroke="#00f"/>
<rect x="148" y="271" width="263" height="10" fill="#ff0"/>
<text x="20" y="300" class="sm">2.694e-08</text>
<rect x="100" y="290" width="85" height="12" fill="#00f"/>
<rect x="507" y="290" width="265" height="12" fill="#00f"/>
<line x1="185" y1="296" x2="506" y2="296" stroke="#00f"/>
<rect x="171" y="291" width="14" height="10" fill="#ff0"/>
<rect x="508" y="291" width="221" height="10" fill="#ff0"/>
<text x="20" y="320" class="sm">2.575e-08</text>
<rect x="100" y="310" width="276" height="12" fill="#00f"/>
<rect x="550" y="310" width="222" height="12" fill="#00f"/>
<line x1="376" y1="316" x2="549" y2="316" stroke="#00f"/>
<rect x="148" y="311" width="228" height="10" fill="#ff0"/>
<rect x="551" y="311" width="178" height="10" fill="#ff0"/>
<text x="20" y="340" class="sm">9.491e-09</text>
<rect x="100" y="330" width="272" height="12" fill="#00f"/>
<rect x="523" y="330" width="249" height="12" fill="#00f"/>
<line x1="372" y1="336" x2="522" y2="336" stroke="#00f"/>
<rect x="148" y="331" width="224" height="10" fill="#ff0"/>
<rect x="524" y="331" width="23" height="10" fill="#ff0"/>
<text x="20" y="360" class="sm">5.711e-09</text>
<rect x="100" y="350" width="272" height="12" fill="#00f"/>
<rect x="610" y="350" width="162" height="12" fill="#00f"/>
<line x1="372" y1="356" x2="609" y2="356" stroke="#00f"/>
<rect x="148" y="351" width="224" height="10" fill="#ff0"/>
<rect x="611" y="351" width="32" height="10" fill="#ff0"/>
<text x="20" y="380" class="sm">5.376e-09</text>
<rect x="100" y="370" width="221" height="12" fill="#00f"/>
<rect x="507" y="370" width="265" height="12" fill="#00f"/>
<line x1="321" y1="376" x2="506" y2="376" stroke="#00f"/>
<rect x="148" y="371" width="173" height="10" fill="#ff0"/>
<rect x="508" y="371" width="221" height="10" fill="#ff0"/>
<text x="20" y="400" class="sm">3.768e-09</text>
<rect x="100" y="390" width="232" height="12" fill="#00f"/>
<rect x="550" y="390" width="222" height="12" fill="#00f"/>
<line x1="332" y1="396" x2="549" y2="396" stroke="#00f"/>
<rect x="266" y="391" width="66" height="10" fill="#ff0"/>
<rect x="551" y="391" width="178" height="10" fill="#ff0"/>
<text x="20" y="420" class="sm">1.715e-09</text>
<rect x="100" y="410" width="72" height="12" fill="#00f"/>
<rect x="507" y="410" width="265" height="12" fill="#00f"/>
<line x1="172" y1="416" x2="506" y2="416" stroke="#00f"/>
<rect x="544" y="411" width="185" height="10" fill="#ff0"/>
<text x="20" y="440" class="sm">1.404e-09</text>
<rect x="100" y="430" width="361" height="12" fill="#00f"/>
<rect x="550" y="430" width="222" height="12" fill="#00f"/>
<line x1="461" y1="436" x2="549" y2="436" stroke="#00f"/>
<rect x="148" y="431" width="263" height="10" fill="#ff0"/>
<text x="20" y="460" class="sm">5.115e-10</text>
<rect x="100" y="450" width="224" height="12" fill="#00f"/>
<rect x="507" y="450" width="265" height="12" fill="#00f"/>
<line x1="324" y1="456" x2="506" y2="456" stroke="#00f"/>
<rect x="148" y="451" width="176" height="10" fill="#ff0"/>
<rect x="508" y="451" width="221" height="10" fill="#ff0"/>
<text x="20" y="480" class="sm">2.456e-10</text>
<rect x="100" y="470" width="53" height="12" fill="#00f"/>
<rect x="507" y="470" width="265" height="12" fill="#00f"/>
<line x1="153" y1="476" x2="506" y2="476" stroke="#00f"/>
<rect x="148" y="471" width="5" height="10" fill="#ff0"/>
<rect x="508" y="471" width="221" height="10" fill="#ff0"/>
</svg>
