<svg viewBox="0 0 550 510" xmlns="http://www.w3.org/2000/svg">

<style>
  .sm { font: 12px sans-serif; }
  .lg { font: 15px sans-serif; }
</style>
<rect fill="#ddd" x="0" y="0" width="100%" height="100%"/>
<text x="20" y="20" class="lg">ch.8870 III:12250560-12251109 Gene:WBGene00013556</text>
<text x="20" y="50" class="sm">WormBase</text>
<rect x="100" y="40" width="142" height="12" fill="#00f"/>
<rect x="294" y="40" width="156" height="12" fill="#00f"/>
<line x1="242" y1="46" x2="293" y2="46" stroke="#00f"/>
<rect x="119" y="41" width="123" height="10" fill="#ff0"/>
<rect x="295" y="41" width="136" height="10" fill="#ff0"/>
<rect x="101" y="41" width="17" height="10" fill="brown"><title>.</title></rect>
<rect x="432" y="41" width="18" height="10" fill="brown"><title>.</title></rect>
<text x="20" y="70" class="sm">Fitness: 8.346877936722618e-11</text>
<rect x="242" y="65" width="52" height="5" fill="#00f"><title>109487.0</title></rect>
<rect x="250" y="70" width="54" height="5" fill="#f0f"><title>7.0</title></rect>
<text x="20" y="100" class="sm">1.0</text>
<rect x="100" y="90" width="142" height="12" fill="#00f"/>
<rect x="294" y="90" width="159" height="12" fill="#00f"/>
<line x1="242" y1="96" x2="293" y2="96" stroke="#00f"/>
<rect x="119" y="91" width="123" height="10" fill="#ff0"/>
<rect x="295" y="91" width="136" height="10" fill="#ff0"/>
<text x="20" y="120" class="sm">3.173e-11</text>
<rect x="100" y="110" width="133" height="12" fill="#00f"/>
<rect x="294" y="110" width="159" height="12" fill="#00f"/>
<line x1="233" y1="116" x2="293" y2="116" stroke="#00f"/>
<rect x="119" y="111" width="114" height="10" fill="#ff0"/>
<rect x="295" y="111" width="136" height="10" fill="#ff0"/>
<text x="20" y="140" class="sm">4.923e-12</text>
<rect x="100" y="130" width="142" height="12" fill="#00f"/>
<rect x="300" y="130" width="153" height="12" fill="#00f"/>
<line x1="242" y1="136" x2="299" y2="136" stroke="#00f"/>
<rect x="119" y="131" width="123" height="10" fill="#ff0"/>
<rect x="301" y="131" width="130" height="10" fill="#ff0"/>
<text x="20" y="160" class="sm">4.21e-12</text>
<rect x="100" y="150" width="60" height="12" fill="#00f"/>
<rect x="294" y="150" width="159" height="12" fill="#00f"/>
<line x1="160" y1="156" x2="293" y2="156" stroke="#00f"/>
<rect x="119" y="151" width="41" height="10" fill="#ff0"/>
<rect x="295" y="151" width="125" height="10" fill="#ff0"/>
<text x="20" y="180" class="sm">5.756e-13</text>
<rect x="100" y="170" width="128" height="12" fill="#00f"/>
<rect x="294" y="170" width="159" height="12" fill="#00f"/>
<line x1="228" y1="176" x2="293" y2="176" stroke="#00f"/>
<rect x="174" y="171" width="54" height="10" fill="#ff0"/>
<rect x="295" y="171" width="136" height="10" fill="#ff0"/>
<text x="20" y="200" class="sm">2.58e-13</text>
<rect x="100" y="190" width="159" height="12" fill="#00f"/>
<rect x="294" y="190" width="159" height="12" fill="#00f"/>
<line x1="259" y1="196" x2="293" y2="196" stroke="#00f"/>
<rect x="119" y="191" width="140" height="10" fill="#ff0"/>
<rect x="295" y="191" width="125" height="10" fill="#ff0"/>
<text x="20" y="220" class="sm">3.649e-14</text>
<rect x="100" y="210" width="60" height="12" fill="#00f"/>
<rect x="200" y="210" width="42" height="12" fill="#00f"/>
<rect x="294" y="210" width="159" height="12" fill="#00f"/>
<line x1="160" y1="216" x2="199" y2="216" stroke="#00f"/>
<line x1="242" y1="216" x2="293" y2="216" stroke="#00f"/>
<rect x="119" y="211" width="41" height="10" fill="#ff0"/>
<rect x="201" y="211" width="41" height="10" fill="#ff0"/>
<rect x="295" y="211" width="125" height="10" fill="#ff0"/>
<text x="20" y="240" class="sm">1.212e-15</text>
<rect x="100" y="230" width="60" height="12" fill="#00f"/>
<rect x="257" y="230" width="196" height="12" fill="#00f"/>
<line x1="160" y1="236" x2="256" y2="236" stroke="#00f"/>
<rect x="150" y="231" width="10" height="10" fill="#ff0"/>
<rect x="258" y="231" width="162" height="10" fill="#ff0"/>
<text x="20" y="260" class="sm">1.113e-16</text>
<rect x="100" y="250" width="128" height="12" fill="#00f"/>
<rect x="274" y="250" width="179" height="12" fill="#00f"/>
<line x1="228" y1="256" x2="273" y2="256" stroke="#00f"/>
<rect x="174" y="251" width="54" height="10" fill="#ff0"/>
<rect x="275" y="251" width="145" height="10" fill="#ff0"/>
<text x="20" y="280" class="sm">8.752e-17</text>
<rect x="100" y="270" width="133" height="12" fill="#00f"/>
<rect x="274" y="270" width="179" height="12" fill="#00f"/>
<line x1="233" y1="276" x2="273" y2="276" stroke="#00f"/>
<rect x="119" y="271" width="114" height="10" fill="#ff0"/>
<rect x="275" y="271" width="145" height="10" fill="#ff0"/>
<text x="20" y="300" class="sm">6.129e-17</text>
<rect x="100" y="290" width="60" height="12" fill="#00f"/>
<rect x="200" y="290" width="253" height="12" fill="#00f"/>
<line x1="160" y1="296" x2="199" y2="296" stroke="#00f"/>
<rect x="295" y="291" width="125" height="10" fill="#ff0"/>
<text x="20" y="320" class="sm">2.046e-17</text>
<rect x="100" y="310" width="142" height="12" fill="#00f"/>
<rect x="390" y="310" width="63" height="12" fill="#00f"/>
<line x1="242" y1="316" x2="389" y2="316" stroke="#00f"/>
<rect x="119" y="311" width="123" height="10" fill="#ff0"/>
<rect x="391" y="311" width="40" height="10" fill="#ff0"/>
<text x="20" y="340" class="sm">1.901e-17</text>
<rect x="100" y="330" width="159" height="12" fill="#00f"/>
<rect x="300" y="330" width="153" height="12" fill="#00f"/>
<line x1="259" y1="336" x2="299" y2="336" stroke="#00f"/>
<rect x="119" y="331" width="140" height="10" fill="#ff0"/>
<rect x="301" y="331" width="119" height="10" fill="#ff0"/>
<text x="20" y="360" class="sm">2.004e-18</text>
<rect x="100" y="350" width="142" height="12" fill="#00f"/>
<rect x="294" y="350" width="74" height="12" fill="#00f"/>
<rect x="422" y="350" width="31" height="12" fill="#00f"/>
<line x1="242" y1="356" x2="293" y2="356" stroke="#00f"/>
<line x1="368" y1="356" x2="421" y2="356" stroke="#00f"/>
<rect x="119" y="351" width="123" height="10" fill="#ff0"/>
<rect x="295" y="351" width="73" height="10" fill="#ff0"/>
<rect x="423" y="351" width="8" height="10" fill="#ff0"/>
<text x="20" y="380" class="sm">1.556e-18</text>
<rect x="100" y="370" width="60" height="12" fill="#00f"/>
<rect x="246" y="370" width="207" height="12" fill="#00f"/>
<line x1="160" y1="376" x2="245" y2="376" stroke="#00f"/>
<rect x="119" y="371" width="41" height="10" fill="#ff0"/>
<rect x="247" y="371" width="173" height="10" fill="#ff0"/>
<text x="20" y="400" class="sm">1.515e-18</text>
<rect x="100" y="390" width="60" height="12" fill="#00f"/>
<rect x="234" y="390" width="219" height="12" fill="#00f"/>
<line x1="160" y1="396" x2="233" y2="396" stroke="#00f"/>
<rect x="295" y="391" width="125" height="10" fill="#ff0"/>
<text x="20" y="420" class="sm">7.472e-19</text>
<rect x="100" y="410" width="60" height="12" fill="#00f"/>
<rect x="274" y="410" width="179" height="12" fill="#00f"/>
<line x1="160" y1="416" x2="273" y2="416" stroke="#00f"/>
<rect x="295" y="411" width="125" height="10" fill="#ff0"/>
<text x="20" y="440" class="sm">2.895e-19</text>
<rect x="100" y="430" width="142" height="12" fill="#00f"/>
<rect x="294" y="430" width="89" height="12" fill="#00f"/>
<rect x="422" y="430" width="31" height="12" fill="#00f"/>
<line x1="242" y1="436" x2="293" y2="436" stroke="#00f"/>
<line x1="383" y1="436" x2="421" y2="436" stroke="#00f"/>
<rect x="119" y="431" width="123" height="10" fill="#ff0"/>
<rect x="295" y="431" width="88" height="10" fill="#ff0"/>
<rect x="423" y="431" width="8" height="10" fill="#ff0"/>
<text x="20" y="460" class="sm">1.483e-21</text>
<rect x="100" y="450" width="268" height="12" fill="#00f"/>
<rect x="422" y="450" width="31" height="12" fill="#00f"/>
<line x1="368" y1="456" x2="421" y2="456" stroke="#00f"/>
<rect x="119" y="451" width="191" height="10" fill="#ff0"/>
<text x="20" y="480" class="sm">6.216e-22</text>
<rect x="100" y="470" width="60" height="12" fill="#00f"/>
<rect x="300" y="470" width="153" height="12" fill="#00f"/>
<line x1="160" y1="476" x2="299" y2="476" stroke="#00f"/>
<rect x="119" y="471" width="41" height="10" fill="#ff0"/>
<rect x="301" y="471" width="119" height="10" fill="#ff0"/>
</svg>
