<svg viewBox="0 0 977 530" xmlns="http://www.w3.org/2000/svg">

<style>
  .sm { font: 12px sans-serif; }
  .lg { font: 15px sans-serif; }
</style>
<rect fill="#ddd" x="0" y="0" width="100%" height="100%"/>
<text x="20" y="20" class="lg">ch.848 I:5271165-5272141 Gene:WBGene00015096</text>
<text x="20" y="50" class="sm">WormBase</text>
<rect x="102" y="40" width="65" height="12" fill="#00f"/>
<rect x="224" y="40" width="342" height="12" fill="#00f"/>
<rect x="622" y="40" width="257" height="12" fill="#00f"/>
<line x1="167" y1="46" x2="223" y2="46" stroke="#00f"/>
<line x1="566" y1="46" x2="621" y2="46" stroke="#00f"/>
<rect x="113" y="41" width="54" height="10" fill="#ff0"/>
<rect x="225" y="41" width="341" height="10" fill="#ff0"/>
<rect x="623" y="41" width="148" height="10" fill="#ff0"/>
<rect x="103" y="41" width="9" height="10" fill="brown"><title>.</title></rect>
<rect x="772" y="41" width="107" height="10" fill="brown"><title>.</title></rect>
<text x="20" y="70" class="sm">Fitness: 0.14236513887293847</text>
<rect x="167" y="65" width="57" height="5" fill="#00f"><title>298011.0</title></rect>
<rect x="566" y="70" width="56" height="5" fill="#00f"><title>224636.0</title></rect>
<rect x="570" y="75" width="52" height="5" fill="#00f"><title>381.0</title></rect>
<rect x="566" y="80" width="76" height="5" fill="#00f"><title>6.0</title></rect>
<rect x="181" y="85" width="43" height="5" fill="#00f"><title>4.0</title></rect>
<rect x="167" y="90" width="455" height="5" fill="#00f"><title>3.0</title></rect>
<text x="20" y="120" class="sm">0.9944</text>
<rect x="100" y="110" width="67" height="12" fill="#00f"/>
<rect x="224" y="110" width="342" height="12" fill="#00f"/>
<rect x="622" y="110" width="258" height="12" fill="#00f"/>
<line x1="167" y1="116" x2="223" y2="116" stroke="#00f"/>
<line x1="566" y1="116" x2="621" y2="116" stroke="#00f"/>
<rect x="113" y="111" width="54" height="10" fill="#ff0"/>
<rect x="225" y="111" width="341" height="10" fill="#ff0"/>
<rect x="623" y="111" width="148" height="10" fill="#ff0"/>
<text x="20" y="140" class="sm">0.001783</text>
<rect x="100" y="130" width="67" height="12" fill="#00f"/>
<rect x="224" y="130" width="78" height="12" fill="#00f"/>
<rect x="349" y="130" width="217" height="12" fill="#00f"/>
<rect x="622" y="130" width="258" height="12" fill="#00f"/>
<line x1="167" y1="136" x2="223" y2="136" stroke="#00f"/>
<line x1="302" y1="136" x2="348" y2="136" stroke="#00f"/>
<line x1="566" y1="136" x2="621" y2="136" stroke="#00f"/>
<rect x="435" y="131" width="131" height="10" fill="#ff0"/>
<rect x="623" y="131" width="110" height="10" fill="#ff0"/>
<text x="20" y="160" class="sm">0.001773</text>
<rect x="100" y="150" width="67" height="12" fill="#00f"/>
<rect x="224" y="150" width="346" height="12" fill="#00f"/>
<rect x="622" y="150" width="258" height="12" fill="#00f"/>
<line x1="167" y1="156" x2="223" y2="156" stroke="#00f"/>
<line x1="570" y1="156" x2="621" y2="156" stroke="#00f"/>
<rect x="113" y="151" width="54" height="10" fill="#ff0"/>
<rect x="225" y="151" width="345" height="10" fill="#ff0"/>
<rect x="623" y="151" width="15" height="10" fill="#ff0"/>
<text x="20" y="180" class="sm">0.0015</text>
<rect x="100" y="170" width="71" height="12" fill="#00f"/>
<rect x="224" y="170" width="342" height="12" fill="#00f"/>
<rect x="622" y="170" width="258" height="12" fill="#00f"/>
<line x1="171" y1="176" x2="223" y2="176" stroke="#00f"/>
<line x1="566" y1="176" x2="621" y2="176" stroke="#00f"/>
<rect x="435" y="171" width="131" height="10" fill="#ff0"/>
<rect x="623" y="171" width="110" height="10" fill="#ff0"/>
<text x="20" y="200" class="sm">0.0002207</text>
<rect x="100" y="190" width="67" height="12" fill="#00f"/>
<rect x="295" y="190" width="271" height="12" fill="#00f"/>
<rect x="622" y="190" width="258" height="12" fill="#00f"/>
<line x1="167" y1="196" x2="294" y2="196" stroke="#00f"/>
<line x1="566" y1="196" x2="621" y2="196" stroke="#00f"/>
<rect x="435" y="191" width="131" height="10" fill="#ff0"/>
<rect x="623" y="191" width="110" height="10" fill="#ff0"/>
<text x="20" y="220" class="sm">0.0001006</text>
<rect x="100" y="210" width="67" height="12" fill="#00f"/>
<rect x="224" y="210" width="59" height="12" fill="#00f"/>
<rect x="320" y="210" width="246" height="12" fill="#00f"/>
<rect x="622" y="210" width="258" height="12" fill="#00f"/>
<line x1="167" y1="216" x2="223" y2="216" stroke="#00f"/>
<line x1="283" y1="216" x2="319" y2="216" stroke="#00f"/>
<line x1="566" y1="216" x2="621" y2="216" stroke="#00f"/>
<rect x="435" y="211" width="131" height="10" fill="#ff0"/>
<rect x="623" y="211" width="110" height="10" fill="#ff0"/>
<text x="20" y="240" class="sm">6.182e-05</text>
<rect x="100" y="230" width="67" height="12" fill="#00f"/>
<rect x="224" y="230" width="29" height="12" fill="#00f"/>
<rect x="295" y="230" width="271" height="12" fill="#00f"/>
<rect x="622" y="230" width="258" height="12" fill="#00f"/>
<line x1="167" y1="236" x2="223" y2="236" stroke="#00f"/>
<line x1="253" y1="236" x2="294" y2="236" stroke="#00f"/>
<line x1="566" y1="236" x2="621" y2="236" stroke="#00f"/>
<rect x="113" y="231" width="54" height="10" fill="#ff0"/>
<rect x="225" y="231" width="28" height="10" fill="#ff0"/>
<rect x="296" y="231" width="270" height="10" fill="#ff0"/>
<rect x="623" y="231" width="148" height="10" fill="#ff0"/>
<text x="20" y="260" class="sm">4.339e-05</text>
<rect x="100" y="250" width="81" height="12" fill="#00f"/>
<rect x="224" y="250" width="342" height="12" fill="#00f"/>
<rect x="622" y="250" width="258" height="12" fill="#00f"/>
<line x1="181" y1="256" x2="223" y2="256" stroke="#00f"/>
<line x1="566" y1="256" x2="621" y2="256" stroke="#00f"/>
<rect x="435" y="251" width="131" height="10" fill="#ff0"/>
<rect x="623" y="251" width="110" height="10" fill="#ff0"/>
<text x="20" y="280" class="sm">4.153e-05</text>
<rect x="100" y="270" width="67" height="12" fill="#00f"/>
<rect x="251" y="270" width="315" height="12" fill="#00f"/>
<rect x="622" y="270" width="258" height="12" fill="#00f"/>
<line x1="167" y1="276" x2="250" y2="276" stroke="#00f"/>
<line x1="566" y1="276" x2="621" y2="276" stroke="#00f"/>
<rect x="113" y="271" width="54" height="10" fill="#ff0"/>
<rect x="252" y="271" width="314" height="10" fill="#ff0"/>
<rect x="623" y="271" width="148" height="10" fill="#ff0"/>
<text x="20" y="300" class="sm">3.171e-05</text>
<rect x="100" y="290" width="67" height="12" fill="#00f"/>
<rect x="224" y="290" width="350" height="12" fill="#00f"/>
<rect x="622" y="290" width="258" height="12" fill="#00f"/>
<line x1="167" y1="296" x2="223" y2="296" stroke="#00f"/>
<line x1="574" y1="296" x2="621" y2="296" stroke="#00f"/>
<rect x="113" y="291" width="54" height="10" fill="#ff0"/>
<rect x="225" y="291" width="349" height="10" fill="#ff0"/>
<rect x="623" y="291" width="110" height="10" fill="#ff0"/>
<text x="20" y="320" class="sm">6.469e-06</text>
<rect x="100" y="310" width="466" height="12" fill="#00f"/>
<rect x="622" y="310" width="258" height="12" fill="#00f"/>
<line x1="566" y1="316" x2="621" y2="316" stroke="#00f"/>
<rect x="435" y="311" width="131" height="10" fill="#ff0"/>
<rect x="623" y="311" width="110" height="10" fill="#ff0"/>
<text x="20" y="340" class="sm">4.74e-06</text>
<rect x="100" y="330" width="67" height="12" fill="#00f"/>
<rect x="224" y="330" width="78" height="12" fill="#00f"/>
<rect x="343" y="330" width="223" height="12" fill="#00f"/>
<rect x="622" y="330" width="258" height="12" fill="#00f"/>
<line x1="167" y1="336" x2="223" y2="336" stroke="#00f"/>
<line x1="302" y1="336" x2="342" y2="336" stroke="#00f"/>
<line x1="566" y1="336" x2="621" y2="336" stroke="#00f"/>
<rect x="435" y="331" width="131" height="10" fill="#ff0"/>
<rect x="623" y="331" width="110" height="10" fill="#ff0"/>
<text x="20" y="360" class="sm">3.785e-06</text>
<rect x="100" y="350" width="67" height="12" fill="#00f"/>
<rect x="224" y="350" width="78" height="12" fill="#00f"/>
<rect x="349" y="350" width="221" height="12" fill="#00f"/>
<rect x="622" y="350" width="258" height="12" fill="#00f"/>
<line x1="167" y1="356" x2="223" y2="356" stroke="#00f"/>
<line x1="302" y1="356" x2="348" y2="356" stroke="#00f"/>
<line x1="570" y1="356" x2="621" y2="356" stroke="#00f"/>
<rect x="435" y="351" width="135" height="10" fill="#ff0"/>
<rect x="623" y="351" width="148" height="10" fill="#ff0"/>
<text x="20" y="380" class="sm">2.689e-06</text>
<rect x="100" y="370" width="71" height="12" fill="#00f"/>
<rect x="224" y="370" width="78" height="12" fill="#00f"/>
<rect x="349" y="370" width="217" height="12" fill="#00f"/>
<rect x="622" y="370" width="258" height="12" fill="#00f"/>
<line x1="171" y1="376" x2="223" y2="376" stroke="#00f"/>
<line x1="302" y1="376" x2="348" y2="376" stroke="#00f"/>
<line x1="566" y1="376" x2="621" y2="376" stroke="#00f"/>
<rect x="435" y="371" width="131" height="10" fill="#ff0"/>
<rect x="623" y="371" width="110" height="10" fill="#ff0"/>
<text x="20" y="400" class="sm">2.675e-06</text>
<rect x="100" y="390" width="71" height="12" fill="#00f"/>
<rect x="224" y="390" width="346" height="12" fill="#00f"/>
<rect x="622" y="390" width="258" height="12" fill="#00f"/>
<line x1="171" y1="396" x2="223" y2="396" stroke="#00f"/>
<line x1="570" y1="396" x2="621" y2="396" stroke="#00f"/>
<rect x="435" y="391" width="135" height="10" fill="#ff0"/>
<rect x="623" y="391" width="148" height="10" fill="#ff0"/>
<text x="20" y="420" class="sm">2.271e-06</text>
<rect x="100" y="410" width="67" height="12" fill="#00f"/>
<rect x="313" y="410" width="253" height="12" fill="#00f"/>
<rect x="622" y="410" width="258" height="12" fill="#00f"/>
<line x1="167" y1="416" x2="312" y2="416" stroke="#00f"/>
<line x1="566" y1="416" x2="621" y2="416" stroke="#00f"/>
<rect x="435" y="411" width="131" height="10" fill="#ff0"/>
<rect x="623" y="411" width="110" height="10" fill="#ff0"/>
<text x="20" y="440" class="sm">2.136e-06</text>
<rect x="100" y="430" width="67" height="12" fill="#00f"/>
<rect x="224" y="430" width="167" height="12" fill="#00f"/>
<rect x="427" y="430" width="139" height="12" fill="#00f"/>
<rect x="622" y="430" width="258" height="12" fill="#00f"/>
<line x1="167" y1="436" x2="223" y2="436" stroke="#00f"/>
<line x1="391" y1="436" x2="426" y2="436" stroke="#00f"/>
<line x1="566" y1="436" x2="621" y2="436" stroke="#00f"/>
<rect x="113" y="431" width="54" height="10" fill="#ff0"/>
<rect x="225" y="431" width="166" height="10" fill="#ff0"/>
<rect x="428" y="431" width="138" height="10" fill="#ff0"/>
<rect x="623" y="431" width="148" height="10" fill="#ff0"/>
<text x="20" y="460" class="sm">1.864e-06</text>
<rect x="100" y="450" width="67" height="12" fill="#00f"/>
<rect x="224" y="450" width="59" height="12" fill="#00f"/>
<rect x="349" y="450" width="217" height="12" fill="#00f"/>
<rect x="622" y="450" width="258" height="12" fill="#00f"/>
<line x1="167" y1="456" x2="223" y2="456" stroke="#00f"/>
<line x1="283" y1="456" x2="348" y2="456" stroke="#00f"/>
<line x1="566" y1="456" x2="621" y2="456" stroke="#00f"/>
<rect x="113" y="451" width="54" height="10" fill="#ff0"/>
<rect x="225" y="451" width="58" height="10" fill="#ff0"/>
<rect x="350" y="451" width="216" height="10" fill="#ff0"/>
<rect x="623" y="451" width="148" height="10" fill="#ff0"/>
<text x="20" y="480" class="sm">1.756e-06</text>
<rect x="100" y="470" width="67" height="12" fill="#00f"/>
<rect x="224" y="470" width="207" height="12" fill="#00f"/>
<rect x="466" y="470" width="100" height="12" fill="#00f"/>
<rect x="622" y="470" width="258" height="12" fill="#00f"/>
<line x1="167" y1="476" x2="223" y2="476" stroke="#00f"/>
<line x1="431" y1="476" x2="465" y2="476" stroke="#00f"/>
<line x1="566" y1="476" x2="621" y2="476" stroke="#00f"/>
<rect x="113" y="471" width="54" height="10" fill="#ff0"/>
<rect x="225" y="471" width="206" height="10" fill="#ff0"/>
<rect x="467" y="471" width="10" height="10" fill="#ff0"/>
<text x="20" y="500" class="sm">9.399e-07</text>
<rect x="100" y="490" width="67" height="12" fill="#00f"/>
<rect x="224" y="490" width="29" height="12" fill="#00f"/>
<rect x="313" y="490" width="253" height="12" fill="#00f"/>
<rect x="622" y="490" width="258" height="12" fill="#00f"/>
<line x1="167" y1="496" x2="223" y2="496" stroke="#00f"/>
<line x1="253" y1="496" x2="312" y2="496" stroke="#00f"/>
<line x1="566" y1="496" x2="621" y2="496" stroke="#00f"/>
<rect x="113" y="491" width="54" height="10" fill="#ff0"/>
<rect x="225" y="491" width="28" height="10" fill="#ff0"/>
<rect x="314" y="491" width="252" height="10" fill="#ff0"/>
<rect x="623" y="491" width="148" height="10" fill="#ff0"/>
</svg>
