<svg viewBox="0 0 771 545" xmlns="http://www.w3.org/2000/svg">

<style>
  .sm { font: 12px sans-serif; }
  .lg { font: 15px sans-serif; }
</style>
<rect fill="#ddd" x="0" y="0" width="100%" height="100%"/>
<text x="20" y="20" class="lg">ch.8564 III:10354998-10355768 Gene:WBGene00004986</text>
<text x="20" y="50" class="sm">WormBase</text>
<rect x="102" y="40" width="283" height="12" fill="#00f"/>
<rect x="434" y="40" width="239" height="12" fill="#00f"/>
<line x1="385" y1="46" x2="433" y2="46" stroke="#00f"/>
<rect x="254" y="41" width="131" height="10" fill="#ff0"/>
<rect x="435" y="41" width="194" height="10" fill="#ff0"/>
<rect x="103" y="41" width="150" height="10" fill="brown"><title>.</title></rect>
<rect x="630" y="41" width="43" height="10" fill="brown"><title>.</title></rect>
<text x="20" y="70" class="sm">Fitness: 0.0007585819969342588</text>
<rect x="385" y="65" width="49" height="5" fill="#00f"><title>1491720.0</title></rect>
<rect x="205" y="70" width="47" height="5" fill="#00f"><title>1784.0</title></rect>
<rect x="385" y="75" width="61" height="5" fill="#00f"><title>66.0</title></rect>
<rect x="385" y="80" width="56" height="5" fill="#00f"><title>40.0</title></rect>
<rect x="87" y="85" width="165" height="5" fill="#00f"><title>19.0</title></rect>
<rect x="389" y="90" width="45" height="5" fill="#00f"><title>18.0</title></rect>
<rect x="374" y="95" width="51" height="5" fill="#f0f"><title>6.0</title></rect>
<rect x="352" y="100" width="178" height="5" fill="#00f"><title>4.0</title></rect>
<rect x="376" y="105" width="49" height="5" fill="#f0f"><title>4.0</title></rect>
<text x="20" y="135" class="sm">0.9986</text>
<rect x="100" y="125" width="285" height="12" fill="#00f"/>
<rect x="434" y="125" width="240" height="12" fill="#00f"/>
<line x1="385" y1="131" x2="433" y2="131" stroke="#00f"/>
<rect x="254" y="126" width="131" height="10" fill="#ff0"/>
<rect x="435" y="126" width="194" height="10" fill="#ff0"/>
<text x="20" y="155" class="sm">0.001048</text>
<rect x="100" y="145" width="105" height="12" fill="#00f"/>
<rect x="252" y="145" width="133" height="12" fill="#00f"/>
<rect x="434" y="145" width="240" height="12" fill="#00f"/>
<line x1="205" y1="151" x2="251" y2="151" stroke="#00f"/>
<line x1="385" y1="151" x2="433" y2="151" stroke="#00f"/>
<rect x="102" y="146" width="103" height="10" fill="#ff0"/>
<rect x="253" y="146" width="132" height="10" fill="#ff0"/>
<rect x="435" y="146" width="194" height="10" fill="#ff0"/>
<text x="20" y="175" class="sm">0.000337</text>
<rect x="100" y="165" width="289" height="12" fill="#00f"/>
<rect x="434" y="165" width="240" height="12" fill="#00f"/>
<line x1="389" y1="171" x2="433" y2="171" stroke="#00f"/>
<rect x="363" y="166" width="26" height="10" fill="#ff0"/>
<rect x="435" y="166" width="194" height="10" fill="#ff0"/>
<text x="20" y="195" class="sm">3.753e-05</text>
<rect x="100" y="185" width="285" height="12" fill="#00f"/>
<rect x="434" y="185" width="97" height="12" fill="#00f"/>
<rect x="581" y="185" width="93" height="12" fill="#00f"/>
<line x1="385" y1="191" x2="433" y2="191" stroke="#00f"/>
<line x1="531" y1="191" x2="580" y2="191" stroke="#00f"/>
<rect x="254" y="186" width="131" height="10" fill="#ff0"/>
<rect x="435" y="186" width="96" height="10" fill="#ff0"/>
<rect x="582" y="186" width="1" height="10" fill="#ff0"/>
<text x="20" y="215" class="sm">9.897e-06</text>
<rect x="100" y="205" width="259" height="12" fill="#00f"/>
<rect x="434" y="205" width="240" height="12" fill="#00f"/>
<line x1="359" y1="211" x2="433" y2="211" stroke="#00f"/>
<rect x="102" y="206" width="155" height="10" fill="#ff0"/>
<text x="20" y="235" class="sm">5.723e-06</text>
<rect x="100" y="225" width="285" height="12" fill="#00f"/>
<rect x="434" y="225" width="97" height="12" fill="#00f"/>
<rect x="597" y="225" width="77" height="12" fill="#00f"/>
<line x1="385" y1="231" x2="433" y2="231" stroke="#00f"/>
<line x1="531" y1="231" x2="596" y2="231" stroke="#00f"/>
<rect x="254" y="226" width="131" height="10" fill="#ff0"/>
<rect x="435" y="226" width="96" height="10" fill="#ff0"/>
<rect x="598" y="226" width="31" height="10" fill="#ff0"/>
<text x="20" y="255" class="sm">1.437e-06</text>
<rect x="100" y="245" width="105" height="12" fill="#00f"/>
<rect x="252" y="245" width="422" height="12" fill="#00f"/>
<line x1="205" y1="251" x2="251" y2="251" stroke="#00f"/>
<rect x="102" y="246" width="103" height="10" fill="#ff0"/>
<rect x="253" y="246" width="204" height="10" fill="#ff0"/>
<text x="20" y="275" class="sm">8.303e-07</text>
<rect x="100" y="265" width="285" height="12" fill="#00f"/>
<rect x="434" y="265" width="95" height="12" fill="#00f"/>
<rect x="581" y="265" width="93" height="12" fill="#00f"/>
<line x1="385" y1="271" x2="433" y2="271" stroke="#00f"/>
<line x1="529" y1="271" x2="580" y2="271" stroke="#00f"/>
<rect x="102" y="266" width="155" height="10" fill="#ff0"/>
<text x="20" y="295" class="sm">3.512e-07</text>
<rect x="100" y="285" width="105" height="12" fill="#00f"/>
<rect x="252" y="285" width="137" height="12" fill="#00f"/>
<rect x="434" y="285" width="240" height="12" fill="#00f"/>
<line x1="205" y1="291" x2="251" y2="291" stroke="#00f"/>
<line x1="389" y1="291" x2="433" y2="291" stroke="#00f"/>
<rect x="102" y="286" width="103" height="10" fill="#ff0"/>
<rect x="253" y="286" width="136" height="10" fill="#ff0"/>
<rect x="435" y="286" width="22" height="10" fill="#ff0"/>
<text x="20" y="315" class="sm">1.643e-07</text>
<rect x="100" y="305" width="285" height="12" fill="#00f"/>
<rect x="434" y="305" width="95" height="12" fill="#00f"/>
<rect x="597" y="305" width="77" height="12" fill="#00f"/>
<line x1="385" y1="311" x2="433" y2="311" stroke="#00f"/>
<line x1="529" y1="311" x2="596" y2="311" stroke="#00f"/>
<rect x="254" y="306" width="131" height="10" fill="#ff0"/>
<rect x="435" y="306" width="94" height="10" fill="#ff0"/>
<rect x="598" y="306" width="21" height="10" fill="#ff0"/>
<text x="20" y="335" class="sm">5.86e-08</text>
<rect x="100" y="325" width="431" height="12" fill="#00f"/>
<rect x="581" y="325" width="93" height="12" fill="#00f"/>
<line x1="531" y1="331" x2="580" y2="331" stroke="#00f"/>
<rect x="254" y="326" width="203" height="10" fill="#ff0"/>
<text x="20" y="355" class="sm">3.937e-08</text>
<rect x="100" y="345" width="105" height="12" fill="#00f"/>
<rect x="252" y="345" width="133" height="12" fill="#00f"/>
<rect x="434" y="345" width="97" height="12" fill="#00f"/>
<rect x="581" y="345" width="93" height="12" fill="#00f"/>
<line x1="205" y1="351" x2="251" y2="351" stroke="#00f"/>
<line x1="385" y1="351" x2="433" y2="351" stroke="#00f"/>
<line x1="531" y1="351" x2="580" y2="351" stroke="#00f"/>
<rect x="102" y="346" width="103" height="10" fill="#ff0"/>
<rect x="253" y="346" width="132" height="10" fill="#ff0"/>
<rect x="435" y="346" width="96" height="10" fill="#ff0"/>
<rect x="582" y="346" width="1" height="10" fill="#ff0"/>
<text x="20" y="375" class="sm">3.744e-08</text>
<rect x="100" y="365" width="279" height="12" fill="#00f"/>
<rect x="434" y="365" width="240" height="12" fill="#00f"/>
<line x1="379" y1="371" x2="433" y2="371" stroke="#00f"/>
<rect x="254" y="366" width="125" height="10" fill="#ff0"/>
<rect x="435" y="366" width="194" height="10" fill="#ff0"/>
<text x="20" y="395" class="sm">2.403e-08</text>
<rect x="100" y="385" width="285" height="12" fill="#00f"/>
<rect x="434" y="385" width="97" height="12" fill="#00f"/>
<rect x="587" y="385" width="87" height="12" fill="#00f"/>
<line x1="385" y1="391" x2="433" y2="391" stroke="#00f"/>
<line x1="531" y1="391" x2="586" y2="391" stroke="#00f"/>
<rect x="254" y="386" width="131" height="10" fill="#ff0"/>
<rect x="435" y="386" width="96" height="10" fill="#ff0"/>
<rect x="588" y="386" width="1" height="10" fill="#ff0"/>
<text x="20" y="415" class="sm">1.912e-08</text>
<rect x="100" y="405" width="285" height="12" fill="#00f"/>
<rect x="441" y="405" width="233" height="12" fill="#00f"/>
<line x1="385" y1="411" x2="440" y2="411" stroke="#00f"/>
<rect x="254" y="406" width="131" height="10" fill="#ff0"/>
<rect x="442" y="406" width="41" height="10" fill="#ff0"/>
<text x="20" y="435" class="sm">1.866e-08</text>
<rect x="100" y="425" width="170" height="12" fill="#00f"/>
<rect x="311" y="425" width="74" height="12" fill="#00f"/>
<rect x="434" y="425" width="240" height="12" fill="#00f"/>
<line x1="270" y1="431" x2="310" y2="431" stroke="#00f"/>
<line x1="385" y1="431" x2="433" y2="431" stroke="#00f"/>
<rect x="102" y="426" width="155" height="10" fill="#ff0"/>
<text x="20" y="455" class="sm">1.772e-08</text>
<rect x="100" y="445" width="285" height="12" fill="#00f"/>
<rect x="434" y="445" width="117" height="12" fill="#00f"/>
<rect x="597" y="445" width="77" height="12" fill="#00f"/>
<line x1="385" y1="451" x2="433" y2="451" stroke="#00f"/>
<line x1="551" y1="451" x2="596" y2="451" stroke="#00f"/>
<rect x="102" y="446" width="155" height="10" fill="#ff0"/>
<text x="20" y="475" class="sm">1.611e-08</text>
<rect x="100" y="465" width="170" height="12" fill="#00f"/>
<rect x="320" y="465" width="65" height="12" fill="#00f"/>
<rect x="434" y="465" width="240" height="12" fill="#00f"/>
<line x1="270" y1="471" x2="319" y2="471" stroke="#00f"/>
<line x1="385" y1="471" x2="433" y2="471" stroke="#00f"/>
<rect x="102" y="466" width="155" height="10" fill="#ff0"/>
<text x="20" y="495" class="sm">1.267e-08</text>
<rect x="100" y="485" width="289" height="12" fill="#00f"/>
<rect x="434" y="485" width="97" height="12" fill="#00f"/>
<rect x="581" y="485" width="93" height="12" fill="#00f"/>
<line x1="389" y1="491" x2="433" y2="491" stroke="#00f"/>
<line x1="531" y1="491" x2="580" y2="491" stroke="#00f"/>
<rect x="254" y="486" width="135" height="10" fill="#ff0"/>
<rect x="435" y="486" width="22" height="10" fill="#ff0"/>
<text x="20" y="515" class="sm">1.021e-08</text>
<rect x="100" y="505" width="105" height="12" fill="#00f"/>
<rect x="252" y="505" width="107" height="12" fill="#00f"/>
<rect x="434" y="505" width="240" height="12" fill="#00f"/>
<line x1="205" y1="511" x2="251" y2="511" stroke="#00f"/>
<line x1="359" y1="511" x2="433" y2="511" stroke="#00f"/>
<rect x="102" y="506" width="103" height="10" fill="#ff0"/>
<rect x="253" y="506" width="106" height="10" fill="#ff0"/>
<rect x="435" y="506" width="22" height="10" fill="#ff0"/>
</svg>
