<svg viewBox="0 0 968 555" xmlns="http://www.w3.org/2000/svg">

<style>
  .sm { font: 12px sans-serif; }
  .lg { font: 15px sans-serif; }
</style>
<rect fill="#ddd" x="0" y="0" width="100%" height="100%"/>
<text x="20" y="20" class="lg">ch.8463 III:9947305-9948272 Gene:WBGene00010542</text>
<text x="20" y="50" class="sm">WormBase</text>
<rect x="100" y="40" width="167" height="12" fill="#00f"/>
<rect x="326" y="40" width="119" height="12" fill="#00f"/>
<rect x="489" y="40" width="379" height="12" fill="#00f"/>
<line x1="267" y1="46" x2="325" y2="46" stroke="#00f"/>
<line x1="445" y1="46" x2="488" y2="46" stroke="#00f"/>
<rect x="128" y="41" width="139" height="10" fill="#ff0"/>
<rect x="327" y="41" width="118" height="10" fill="#ff0"/>
<rect x="490" y="41" width="7" height="10" fill="#ff0"/>
<rect x="101" y="41" width="26" height="10" fill="brown"><title>.</title></rect>
<rect x="498" y="41" width="370" height="10" fill="brown"><title>.</title></rect>
<text x="20" y="70" class="sm">Fitness: 0.01968477433773488</text>
<rect x="267" y="65" width="59" height="5" fill="#00f"><title>471985.0</title></rect>
<rect x="445" y="70" width="44" height="5" fill="#00f"><title>401974.0</title></rect>
<rect x="573" y="75" width="56" height="5" fill="#f0f"><title>32560.0</title></rect>
<rect x="824" y="80" width="46" height="5" fill="#f0f"><title>30029.0</title></rect>
<rect x="267" y="85" width="66" height="5" fill="#00f"><title>120.0</title></rect>
<rect x="267" y="90" width="61" height="5" fill="#00f"><title>55.0</title></rect>
<rect x="573" y="95" width="61" height="5" fill="#f0f"><title>51.0</title></rect>
<rect x="580" y="100" width="49" height="5" fill="#f0f"><title>18.0</title></rect>
<rect x="566" y="105" width="63" height="5" fill="#f0f"><title>17.0</title></rect>
<rect x="192" y="110" width="208" height="5" fill="#00f"><title>7.0</title></rect>
<rect x="445" y="115" width="53" height="5" fill="#00f"><title>3.0</title></rect>
<text x="20" y="145" class="sm">0.682</text>
<rect x="100" y="135" width="167" height="12" fill="#00f"/>
<rect x="326" y="135" width="119" height="12" fill="#00f"/>
<rect x="489" y="135" width="382" height="12" fill="#00f"/>
<line x1="267" y1="141" x2="325" y2="141" stroke="#00f"/>
<line x1="445" y1="141" x2="488" y2="141" stroke="#00f"/>
<rect x="128" y="136" width="139" height="10" fill="#ff0"/>
<rect x="327" y="136" width="118" height="10" fill="#ff0"/>
<rect x="490" y="136" width="7" height="10" fill="#ff0"/>
<text x="20" y="165" class="sm">0.2127</text>
<rect x="100" y="155" width="167" height="12" fill="#00f"/>
<rect x="326" y="155" width="545" height="12" fill="#00f"/>
<line x1="267" y1="161" x2="325" y2="161" stroke="#00f"/>
<rect x="128" y="156" width="139" height="10" fill="#ff0"/>
<rect x="327" y="156" width="162" height="10" fill="#ff0"/>
<text x="20" y="185" class="sm">0.08882</text>
<rect x="100" y="175" width="345" height="12" fill="#00f"/>
<rect x="489" y="175" width="382" height="12" fill="#00f"/>
<line x1="445" y1="181" x2="488" y2="181" stroke="#00f"/>
<rect x="128" y="176" width="173" height="10" fill="#ff0"/>
<text x="20" y="205" class="sm">0.006487</text>
<rect x="100" y="195" width="167" height="12" fill="#00f"/>
<rect x="326" y="195" width="125" height="12" fill="#00f"/>
<rect x="489" y="195" width="382" height="12" fill="#00f"/>
<line x1="267" y1="201" x2="325" y2="201" stroke="#00f"/>
<line x1="451" y1="201" x2="488" y2="201" stroke="#00f"/>
<rect x="128" y="196" width="139" height="10" fill="#ff0"/>
<rect x="327" y="196" width="124" height="10" fill="#ff0"/>
<rect x="490" y="196" width="7" height="10" fill="#ff0"/>
<text x="20" y="225" class="sm">0.003133</text>
<rect x="100" y="215" width="167" height="12" fill="#00f"/>
<rect x="326" y="215" width="84" height="12" fill="#00f"/>
<rect x="489" y="215" width="382" height="12" fill="#00f"/>
<line x1="267" y1="221" x2="325" y2="221" stroke="#00f"/>
<line x1="410" y1="221" x2="488" y2="221" stroke="#00f"/>
<rect x="128" y="216" width="139" height="10" fill="#ff0"/>
<rect x="327" y="216" width="83" height="10" fill="#ff0"/>
<rect x="490" y="216" width="3" height="10" fill="#ff0"/>
<text x="20" y="245" class="sm">0.002099</text>
<rect x="100" y="235" width="171" height="12" fill="#00f"/>
<rect x="326" y="235" width="119" height="12" fill="#00f"/>
<rect x="489" y="235" width="382" height="12" fill="#00f"/>
<line x1="271" y1="241" x2="325" y2="241" stroke="#00f"/>
<line x1="445" y1="241" x2="488" y2="241" stroke="#00f"/>
<rect x="128" y="236" width="143" height="10" fill="#ff0"/>
<rect x="327" y="236" width="5" height="10" fill="#ff0"/>
<text x="20" y="265" class="sm">0.001043</text>
<rect x="100" y="255" width="167" height="12" fill="#00f"/>
<rect x="326" y="255" width="119" height="12" fill="#00f"/>
<rect x="498" y="255" width="373" height="12" fill="#00f"/>
<line x1="267" y1="261" x2="325" y2="261" stroke="#00f"/>
<line x1="445" y1="261" x2="497" y2="261" stroke="#00f"/>
<rect x="128" y="256" width="139" height="10" fill="#ff0"/>
<rect x="327" y="256" width="118" height="10" fill="#ff0"/>
<rect x="499" y="256" width="43" height="10" fill="#ff0"/>
<text x="20" y="285" class="sm">0.0009392</text>
<rect x="100" y="275" width="351" height="12" fill="#00f"/>
<rect x="489" y="275" width="382" height="12" fill="#00f"/>
<line x1="451" y1="281" x2="488" y2="281" stroke="#00f"/>
<rect x="128" y="276" width="173" height="10" fill="#ff0"/>
<text x="20" y="305" class="sm">0.0009172</text>
<rect x="100" y="295" width="159" height="12" fill="#00f"/>
<rect x="326" y="295" width="119" height="12" fill="#00f"/>
<rect x="489" y="295" width="382" height="12" fill="#00f"/>
<line x1="259" y1="301" x2="325" y2="301" stroke="#00f"/>
<line x1="445" y1="301" x2="488" y2="301" stroke="#00f"/>
<rect x="156" y="296" width="103" height="10" fill="#ff0"/>
<rect x="327" y="296" width="118" height="10" fill="#ff0"/>
<rect x="490" y="296" width="7" height="10" fill="#ff0"/>
<text x="20" y="325" class="sm">0.0006547</text>
<rect x="100" y="315" width="171" height="12" fill="#00f"/>
<rect x="326" y="315" width="545" height="12" fill="#00f"/>
<line x1="271" y1="321" x2="325" y2="321" stroke="#00f"/>
<rect x="128" y="316" width="143" height="10" fill="#ff0"/>
<rect x="327" y="316" width="5" height="10" fill="#ff0"/>
<text x="20" y="345" class="sm">0.0002861</text>
<rect x="100" y="335" width="159" height="12" fill="#00f"/>
<rect x="326" y="335" width="545" height="12" fill="#00f"/>
<line x1="259" y1="341" x2="325" y2="341" stroke="#00f"/>
<rect x="156" y="336" width="103" height="10" fill="#ff0"/>
<rect x="327" y="336" width="162" height="10" fill="#ff0"/>
<text x="20" y="365" class="sm">0.000285</text>
<rect x="100" y="355" width="310" height="12" fill="#00f"/>
<rect x="489" y="355" width="382" height="12" fill="#00f"/>
<line x1="410" y1="361" x2="488" y2="361" stroke="#00f"/>
<rect x="128" y="356" width="173" height="10" fill="#ff0"/>
<text x="20" y="385" class="sm">0.0002086</text>
<rect x="100" y="375" width="167" height="12" fill="#00f"/>
<rect x="333" y="375" width="112" height="12" fill="#00f"/>
<rect x="489" y="375" width="382" height="12" fill="#00f"/>
<line x1="267" y1="381" x2="332" y2="381" stroke="#00f"/>
<line x1="445" y1="381" x2="488" y2="381" stroke="#00f"/>
<rect x="128" y="376" width="139" height="10" fill="#ff0"/>
<rect x="334" y="376" width="66" height="10" fill="#ff0"/>
<text x="20" y="405" class="sm">0.0001359</text>
<rect x="100" y="395" width="345" height="12" fill="#00f"/>
<rect x="498" y="395" width="373" height="12" fill="#00f"/>
<line x1="445" y1="401" x2="497" y2="401" stroke="#00f"/>
<rect x="128" y="396" width="173" height="10" fill="#ff0"/>
<text x="20" y="425" class="sm">6.638e-05</text>
<rect x="100" y="415" width="167" height="12" fill="#00f"/>
<rect x="333" y="415" width="538" height="12" fill="#00f"/>
<line x1="267" y1="421" x2="332" y2="421" stroke="#00f"/>
<rect x="128" y="416" width="139" height="10" fill="#ff0"/>
<rect x="334" y="416" width="66" height="10" fill="#ff0"/>
<text x="20" y="445" class="sm">6.362e-05</text>
<rect x="100" y="435" width="167" height="12" fill="#00f"/>
<rect x="326" y="435" width="167" height="12" fill="#00f"/>
<rect x="553" y="435" width="318" height="12" fill="#00f"/>
<line x1="267" y1="441" x2="325" y2="441" stroke="#00f"/>
<line x1="493" y1="441" x2="552" y2="441" stroke="#00f"/>
<rect x="128" y="436" width="139" height="10" fill="#ff0"/>
<rect x="327" y="436" width="162" height="10" fill="#ff0"/>
<text x="20" y="465" class="sm">5.431e-05</text>
<rect x="100" y="455" width="167" height="12" fill="#00f"/>
<rect x="439" y="455" width="432" height="12" fill="#00f"/>
<line x1="267" y1="461" x2="438" y2="461" stroke="#00f"/>
<rect x="156" y="456" width="111" height="10" fill="#ff0"/>
<rect x="440" y="456" width="49" height="10" fill="#ff0"/>
<text x="20" y="485" class="sm">4.75e-05</text>
<rect x="100" y="475" width="167" height="12" fill="#00f"/>
<rect x="326" y="475" width="119" height="12" fill="#00f"/>
<rect x="494" y="475" width="377" height="12" fill="#00f"/>
<line x1="267" y1="481" x2="325" y2="481" stroke="#00f"/>
<line x1="445" y1="481" x2="493" y2="481" stroke="#00f"/>
<rect x="128" y="476" width="139" height="10" fill="#ff0"/>
<rect x="327" y="476" width="118" height="10" fill="#ff0"/>
<rect x="495" y="476" width="241" height="10" fill="#ff0"/>
<text x="20" y="505" class="sm">4.294e-05</text>
<rect x="100" y="495" width="167" height="12" fill="#00f"/>
<rect x="489" y="495" width="382" height="12" fill="#00f"/>
<line x1="267" y1="501" x2="488" y2="501" stroke="#00f"/>
<rect x="128" y="496" width="139" height="10" fill="#ff0"/>
<rect x="490" y="496" width="3" height="10" fill="#ff0"/>
<text x="20" y="525" class="sm">4.265e-05</text>
<rect x="100" y="515" width="107" height="12" fill="#00f"/>
<rect x="326" y="515" width="119" height="12" fill="#00f"/>
<rect x="489" y="515" width="382" height="12" fill="#00f"/>
<line x1="207" y1="521" x2="325" y2="521" stroke="#00f"/>
<line x1="445" y1="521" x2="488" y2="521" stroke="#00f"/>
<rect x="128" y="516" width="79" height="10" fill="#ff0"/>
<rect x="327" y="516" width="118" height="10" fill="#ff0"/>
<rect x="490" y="516" width="7" height="10" fill="#ff0"/>
</svg>
