<svg viewBox="0 0 752 575" xmlns="http://www.w3.org/2000/svg">

<style>
  .sm { font: 12px sans-serif; }
  .lg { font: 15px sans-serif; }
</style>
<rect fill="#ddd" x="0" y="0" width="100%" height="100%"/>
<text x="20" y="20" class="lg">ch.8352 III:9523021-9523772 Gene:WBGene00014224</text>
<text x="20" y="50" class="sm">WormBase</text>
<rect x="102" y="40" width="110" height="12" fill="#00f"/>
<rect x="262" y="40" width="114" height="12" fill="#00f"/>
<rect x="429" y="40" width="225" height="12" fill="#00f"/>
<line x1="212" y1="46" x2="261" y2="46" stroke="#00f"/>
<line x1="376" y1="46" x2="428" y2="46" stroke="#00f"/>
<rect x="109" y="41" width="103" height="10" fill="#ff0"/>
<rect x="263" y="41" width="113" height="10" fill="#ff0"/>
<rect x="430" y="41" width="183" height="10" fill="#ff0"/>
<rect x="103" y="41" width="5" height="10" fill="brown"><title>.</title></rect>
<rect x="614" y="41" width="40" height="10" fill="brown"><title>.</title></rect>
<text x="20" y="70" class="sm">Fitness: 0.015034143981797069</text>
<rect x="376" y="65" width="53" height="5" fill="#00f"><title>506198.0</title></rect>
<rect x="212" y="70" width="50" height="5" fill="#00f"><title>469432.0</title></rect>
<rect x="616" y="75" width="51" height="5" fill="#f0f"><title>78.0</title></rect>
<rect x="262" y="80" width="41" height="5" fill="#00f"><title>43.0</title></rect>
<rect x="209" y="85" width="53" height="5" fill="#00f"><title>41.0</title></rect>
<rect x="59" y="90" width="43" height="5" fill="#00f"><title>36.0</title></rect>
<rect x="376" y="95" width="57" height="5" fill="#00f"><title>33.0</title></rect>
<rect x="78" y="100" width="589" height="5" fill="#f0f"><title>13.0</title></rect>
<rect x="376" y="105" width="74" height="5" fill="#00f"><title>11.0</title></rect>
<rect x="157" y="110" width="187" height="5" fill="#f0f"><title>9.0</title></rect>
<rect x="380" y="115" width="53" height="5" fill="#00f"><title>8.0</title></rect>
<rect x="403" y="120" width="45" height="5" fill="#f0f"><title>6.0</title></rect>
<rect x="78" y="125" width="47" height="5" fill="#f0f"><title>4.0</title></rect>
<rect x="399" y="130" width="49" height="5" fill="#f0f"><title>3.0</title></rect>
<rect x="202" y="135" width="60" height="5" fill="#00f"><title>3.0</title></rect>
<text x="20" y="165" class="sm">0.9308</text>
<rect x="100" y="155" width="112" height="12" fill="#00f"/>
<rect x="262" y="155" width="114" height="12" fill="#00f"/>
<rect x="429" y="155" width="226" height="12" fill="#00f"/>
<line x1="212" y1="161" x2="261" y2="161" stroke="#00f"/>
<line x1="376" y1="161" x2="428" y2="161" stroke="#00f"/>
<rect x="109" y="156" width="103" height="10" fill="#ff0"/>
<rect x="263" y="156" width="113" height="10" fill="#ff0"/>
<rect x="430" y="156" width="183" height="10" fill="#ff0"/>
<text x="20" y="185" class="sm">0.05369</text>
<rect x="100" y="175" width="276" height="12" fill="#00f"/>
<rect x="429" y="175" width="226" height="12" fill="#00f"/>
<line x1="376" y1="181" x2="428" y2="181" stroke="#00f"/>
<rect x="109" y="176" width="107" height="10" fill="#ff0"/>
<text x="20" y="205" class="sm">0.007878</text>
<rect x="100" y="195" width="109" height="12" fill="#00f"/>
<rect x="262" y="195" width="114" height="12" fill="#00f"/>
<rect x="429" y="195" width="226" height="12" fill="#00f"/>
<line x1="209" y1="201" x2="261" y2="201" stroke="#00f"/>
<line x1="376" y1="201" x2="428" y2="201" stroke="#00f"/>
<rect x="109" y="196" width="100" height="10" fill="#ff0"/>
<rect x="263" y="196" width="113" height="10" fill="#ff0"/>
<rect x="430" y="196" width="183" height="10" fill="#ff0"/>
<text x="20" y="225" class="sm">0.001904</text>
<rect x="100" y="215" width="162" height="12" fill="#00f"/>
<rect x="303" y="215" width="73" height="12" fill="#00f"/>
<rect x="429" y="215" width="226" height="12" fill="#00f"/>
<line x1="262" y1="221" x2="302" y2="221" stroke="#00f"/>
<line x1="376" y1="221" x2="428" y2="221" stroke="#00f"/>
<rect x="364" y="216" width="12" height="10" fill="#ff0"/>
<rect x="430" y="216" width="94" height="10" fill="#ff0"/>
<text x="20" y="245" class="sm">0.001494</text>
<rect x="100" y="235" width="112" height="12" fill="#00f"/>
<rect x="262" y="235" width="393" height="12" fill="#00f"/>
<line x1="212" y1="241" x2="261" y2="241" stroke="#00f"/>
<rect x="109" y="236" width="103" height="10" fill="#ff0"/>
<rect x="263" y="236" width="117" height="10" fill="#ff0"/>
<text x="20" y="265" class="sm">0.001152</text>
<rect x="100" y="255" width="112" height="12" fill="#00f"/>
<rect x="262" y="255" width="114" height="12" fill="#00f"/>
<rect x="450" y="255" width="205" height="12" fill="#00f"/>
<line x1="212" y1="261" x2="261" y2="261" stroke="#00f"/>
<line x1="376" y1="261" x2="449" y2="261" stroke="#00f"/>
<rect x="109" y="256" width="103" height="10" fill="#ff0"/>
<rect x="263" y="256" width="113" height="10" fill="#ff0"/>
<rect x="451" y="256" width="162" height="10" fill="#ff0"/>
<text x="20" y="285" class="sm">0.0005981</text>
<rect x="100" y="275" width="112" height="12" fill="#00f"/>
<rect x="262" y="275" width="190" height="12" fill="#00f"/>
<rect x="499" y="275" width="156" height="12" fill="#00f"/>
<line x1="212" y1="281" x2="261" y2="281" stroke="#00f"/>
<line x1="452" y1="281" x2="498" y2="281" stroke="#00f"/>
<rect x="109" y="276" width="103" height="10" fill="#ff0"/>
<rect x="263" y="276" width="117" height="10" fill="#ff0"/>
<text x="20" y="305" class="sm">0.0003526</text>
<rect x="100" y="295" width="112" height="12" fill="#00f"/>
<rect x="262" y="295" width="124" height="12" fill="#00f"/>
<rect x="429" y="295" width="226" height="12" fill="#00f"/>
<line x1="212" y1="301" x2="261" y2="301" stroke="#00f"/>
<line x1="386" y1="301" x2="428" y2="301" stroke="#00f"/>
<rect x="109" y="296" width="103" height="10" fill="#ff0"/>
<rect x="263" y="296" width="117" height="10" fill="#ff0"/>
<text x="20" y="325" class="sm">0.0003479</text>
<rect x="100" y="315" width="112" height="12" fill="#00f"/>
<rect x="262" y="315" width="114" height="12" fill="#00f"/>
<rect x="429" y="315" width="32" height="12" fill="#00f"/>
<rect x="499" y="315" width="156" height="12" fill="#00f"/>
<line x1="212" y1="321" x2="261" y2="321" stroke="#00f"/>
<line x1="376" y1="321" x2="428" y2="321" stroke="#00f"/>
<line x1="461" y1="321" x2="498" y2="321" stroke="#00f"/>
<rect x="109" y="316" width="103" height="10" fill="#ff0"/>
<rect x="263" y="316" width="113" height="10" fill="#ff0"/>
<rect x="430" y="316" width="31" height="10" fill="#ff0"/>
<rect x="500" y="316" width="19" height="10" fill="#ff0"/>
<text x="20" y="345" class="sm">0.0002531</text>
<rect x="100" y="335" width="112" height="12" fill="#00f"/>
<rect x="262" y="335" width="114" height="12" fill="#00f"/>
<rect x="470" y="335" width="185" height="12" fill="#00f"/>
<line x1="212" y1="341" x2="261" y2="341" stroke="#00f"/>
<line x1="376" y1="341" x2="469" y2="341" stroke="#00f"/>
<rect x="109" y="336" width="103" height="10" fill="#ff0"/>
<rect x="263" y="336" width="113" height="10" fill="#ff0"/>
<rect x="471" y="336" width="6" height="10" fill="#ff0"/>
<text x="20" y="365" class="sm">0.000249</text>
<rect x="100" y="355" width="112" height="12" fill="#00f"/>
<rect x="262" y="355" width="63" height="12" fill="#00f"/>
<rect x="373" y="355" width="282" height="12" fill="#00f"/>
<line x1="212" y1="361" x2="261" y2="361" stroke="#00f"/>
<line x1="325" y1="361" x2="372" y2="361" stroke="#00f"/>
<rect x="109" y="356" width="103" height="10" fill="#ff0"/>
<rect x="263" y="356" width="62" height="10" fill="#ff0"/>
<rect x="374" y="356" width="6" height="10" fill="#ff0"/>
<text x="20" y="385" class="sm">0.0002443</text>
<rect x="100" y="375" width="42" height="12" fill="#00f"/>
<rect x="262" y="375" width="114" height="12" fill="#00f"/>
<rect x="429" y="375" width="226" height="12" fill="#00f"/>
<line x1="142" y1="381" x2="261" y2="381" stroke="#00f"/>
<line x1="376" y1="381" x2="428" y2="381" stroke="#00f"/>
<rect x="364" y="376" width="12" height="10" fill="#ff0"/>
<rect x="430" y="376" width="94" height="10" fill="#ff0"/>
<text x="20" y="405" class="sm">0.0002423</text>
<rect x="100" y="395" width="162" height="12" fill="#00f"/>
<rect x="321" y="395" width="55" height="12" fill="#00f"/>
<rect x="429" y="395" width="226" height="12" fill="#00f"/>
<line x1="262" y1="401" x2="320" y2="401" stroke="#00f"/>
<line x1="376" y1="401" x2="428" y2="401" stroke="#00f"/>
<rect x="364" y="396" width="12" height="10" fill="#ff0"/>
<rect x="430" y="396" width="94" height="10" fill="#ff0"/>
<text x="20" y="425" class="sm">0.0002393</text>
<rect x="100" y="415" width="171" height="12" fill="#00f"/>
<rect x="321" y="415" width="55" height="12" fill="#00f"/>
<rect x="429" y="415" width="226" height="12" fill="#00f"/>
<line x1="271" y1="421" x2="320" y2="421" stroke="#00f"/>
<line x1="376" y1="421" x2="428" y2="421" stroke="#00f"/>
<rect x="265" y="416" width="6" height="10" fill="#ff0"/>
<rect x="322" y="416" width="54" height="10" fill="#ff0"/>
<rect x="430" y="416" width="183" height="10" fill="#ff0"/>
<text x="20" y="445" class="sm">0.0001358</text>
<rect x="100" y="435" width="112" height="12" fill="#00f"/>
<rect x="262" y="435" width="63" height="12" fill="#00f"/>
<rect x="396" y="435" width="259" height="12" fill="#00f"/>
<line x1="212" y1="441" x2="261" y2="441" stroke="#00f"/>
<line x1="325" y1="441" x2="395" y2="441" stroke="#00f"/>
<rect x="109" y="436" width="103" height="10" fill="#ff0"/>
<rect x="263" y="436" width="62" height="10" fill="#ff0"/>
<rect x="397" y="436" width="6" height="10" fill="#ff0"/>
<text x="20" y="465" class="sm">0.0001018</text>
<rect x="100" y="455" width="112" height="12" fill="#00f"/>
<rect x="262" y="455" width="114" height="12" fill="#00f"/>
<rect x="442" y="455" width="213" height="12" fill="#00f"/>
<line x1="212" y1="461" x2="261" y2="461" stroke="#00f"/>
<line x1="376" y1="461" x2="441" y2="461" stroke="#00f"/>
<rect x="109" y="456" width="103" height="10" fill="#ff0"/>
<rect x="263" y="456" width="113" height="10" fill="#ff0"/>
<rect x="443" y="456" width="81" height="10" fill="#ff0"/>
<text x="20" y="485" class="sm">0.0001002</text>
<rect x="100" y="475" width="112" height="12" fill="#00f"/>
<rect x="262" y="475" width="63" height="12" fill="#00f"/>
<rect x="373" y="475" width="79" height="12" fill="#00f"/>
<rect x="499" y="475" width="156" height="12" fill="#00f"/>
<line x1="212" y1="481" x2="261" y2="481" stroke="#00f"/>
<line x1="325" y1="481" x2="372" y2="481" stroke="#00f"/>
<line x1="452" y1="481" x2="498" y2="481" stroke="#00f"/>
<rect x="109" y="476" width="103" height="10" fill="#ff0"/>
<rect x="263" y="476" width="62" height="10" fill="#ff0"/>
<rect x="374" y="476" width="6" height="10" fill="#ff0"/>
<text x="20" y="505" class="sm">6.697e-05</text>
<rect x="100" y="495" width="81" height="12" fill="#00f"/>
<rect x="233" y="495" width="143" height="12" fill="#00f"/>
<rect x="429" y="495" width="226" height="12" fill="#00f"/>
<line x1="181" y1="501" x2="232" y2="501" stroke="#00f"/>
<line x1="376" y1="501" x2="428" y2="501" stroke="#00f"/>
<rect x="364" y="496" width="12" height="10" fill="#ff0"/>
<rect x="430" y="496" width="94" height="10" fill="#ff0"/>
<text x="20" y="525" class="sm">6.643e-05</text>
<rect x="100" y="515" width="276" height="12" fill="#00f"/>
<rect x="450" y="515" width="205" height="12" fill="#00f"/>
<line x1="376" y1="521" x2="449" y2="521" stroke="#00f"/>
<rect x="109" y="516" width="107" height="10" fill="#ff0"/>
<text x="20" y="545" class="sm">6.546e-05</text>
<rect x="100" y="535" width="112" height="12" fill="#00f"/>
<rect x="262" y="535" width="114" height="12" fill="#00f"/>
<rect x="433" y="535" width="222" height="12" fill="#00f"/>
<line x1="212" y1="541" x2="261" y2="541" stroke="#00f"/>
<line x1="376" y1="541" x2="432" y2="541" stroke="#00f"/>
<rect x="109" y="536" width="103" height="10" fill="#ff0"/>
<rect x="263" y="536" width="113" height="10" fill="#ff0"/>
<rect x="434" y="536" width="90" height="10" fill="#ff0"/>
</svg>
