<svg viewBox="0 0 820 525" xmlns="http://www.w3.org/2000/svg">

<style>
  .sm { font: 12px sans-serif; }
  .lg { font: 15px sans-serif; }
</style>
<rect fill="#ddd" x="0" y="0" width="100%" height="100%"/>
<text x="20" y="20" class="lg">ch.8278 III:9145240-9146059 Gene:WBGene00013984</text>
<text x="20" y="50" class="sm">WormBase</text>
<rect x="100" y="40" width="87" height="12" fill="#00f"/>
<rect x="503" y="40" width="217" height="12" fill="#00f"/>
<line x1="187" y1="46" x2="502" y2="46" stroke="#00f"/>
<rect x="111" y="41" width="76" height="10" fill="#ff0"/>
<rect x="504" y="41" width="153" height="10" fill="#ff0"/>
<rect x="101" y="41" width="9" height="10" fill="brown"><title>.</title></rect>
<rect x="658" y="41" width="62" height="10" fill="brown"><title>.</title></rect>
<text x="20" y="70" class="sm">Fitness: 0.0009323708729530699</text>
<rect x="187" y="65" width="316" height="5" fill="#00f"><title>528825.0</title></rect>
<rect x="373" y="70" width="181" height="5" fill="#f0f"><title>569.0</title></rect>
<rect x="191" y="75" width="312" height="5" fill="#00f"><title>70.0</title></rect>
<rect x="187" y="80" width="292" height="5" fill="#00f"><title>16.0</title></rect>
<rect x="373" y="85" width="118" height="5" fill="#f0f"><title>8.0</title></rect>
<text x="20" y="115" class="sm">0.9995</text>
<rect x="100" y="105" width="87" height="12" fill="#00f"/>
<rect x="503" y="105" width="220" height="12" fill="#00f"/>
<line x1="187" y1="111" x2="502" y2="111" stroke="#00f"/>
<rect x="111" y="106" width="76" height="10" fill="#ff0"/>
<rect x="504" y="106" width="153" height="10" fill="#ff0"/>
<text x="20" y="135" class="sm">0.0003857</text>
<rect x="100" y="125" width="95" height="12" fill="#00f"/>
<rect x="503" y="125" width="220" height="12" fill="#00f"/>
<line x1="195" y1="131" x2="502" y2="131" stroke="#00f"/>
<rect x="182" y="126" width="13" height="10" fill="#ff0"/>
<rect x="504" y="126" width="153" height="10" fill="#ff0"/>
<text x="20" y="155" class="sm">0.0001104</text>
<rect x="100" y="145" width="87" height="12" fill="#00f"/>
<rect x="479" y="145" width="244" height="12" fill="#00f"/>
<line x1="187" y1="151" x2="478" y2="151" stroke="#00f"/>
<rect x="111" y="146" width="76" height="10" fill="#ff0"/>
<rect x="480" y="146" width="9" height="10" fill="#ff0"/>
<text x="20" y="175" class="sm">3.454e-05</text>
<rect x="100" y="165" width="91" height="12" fill="#00f"/>
<rect x="503" y="165" width="220" height="12" fill="#00f"/>
<line x1="191" y1="171" x2="502" y2="171" stroke="#00f"/>
<rect x="111" y="166" width="80" height="10" fill="#ff0"/>
<rect x="504" y="166" width="56" height="10" fill="#ff0"/>
<text x="20" y="195" class="sm">2.509e-07</text>
<rect x="100" y="185" width="87" height="12" fill="#00f"/>
<rect x="516" y="185" width="207" height="12" fill="#00f"/>
<line x1="187" y1="191" x2="515" y2="191" stroke="#00f"/>
<rect x="182" y="186" width="5" height="10" fill="#ff0"/>
<rect x="517" y="186" width="140" height="10" fill="#ff0"/>
<text x="20" y="215" class="sm">6.268e-08</text>
<rect x="100" y="205" width="95" height="12" fill="#00f"/>
<rect x="479" y="205" width="244" height="12" fill="#00f"/>
<line x1="195" y1="211" x2="478" y2="211" stroke="#00f"/>
<rect x="111" y="206" width="84" height="10" fill="#ff0"/>
<rect x="480" y="206" width="16" height="10" fill="#ff0"/>
<text x="20" y="235" class="sm">3.084e-08</text>
<rect x="100" y="225" width="87" height="12" fill="#00f"/>
<rect x="537" y="225" width="186" height="12" fill="#00f"/>
<line x1="187" y1="231" x2="536" y2="231" stroke="#00f"/>
<rect x="182" y="226" width="5" height="10" fill="#ff0"/>
<rect x="538" y="226" width="119" height="10" fill="#ff0"/>
<text x="20" y="255" class="sm">4.827e-09</text>
<rect x="100" y="245" width="91" height="12" fill="#00f"/>
<rect x="479" y="245" width="244" height="12" fill="#00f"/>
<line x1="191" y1="251" x2="478" y2="251" stroke="#00f"/>
<rect x="111" y="246" width="80" height="10" fill="#ff0"/>
<rect x="480" y="246" width="2" height="10" fill="#ff0"/>
<text x="20" y="275" class="sm">2.077e-09</text>
<rect x="100" y="265" width="87" height="12" fill="#00f"/>
<rect x="531" y="265" width="192" height="12" fill="#00f"/>
<line x1="187" y1="271" x2="530" y2="271" stroke="#00f"/>
<rect x="182" y="266" width="5" height="10" fill="#ff0"/>
<rect x="532" y="266" width="125" height="10" fill="#ff0"/>
<text x="20" y="295" class="sm">1.885e-10</text>
<rect x="100" y="285" width="95" height="12" fill="#00f"/>
<rect x="516" y="285" width="207" height="12" fill="#00f"/>
<line x1="195" y1="291" x2="515" y2="291" stroke="#00f"/>
<rect x="111" y="286" width="84" height="10" fill="#ff0"/>
<rect x="517" y="286" width="43" height="10" fill="#ff0"/>
<text x="20" y="315" class="sm">2.872e-11</text>
<rect x="100" y="305" width="87" height="12" fill="#00f"/>
<rect x="549" y="305" width="174" height="12" fill="#00f"/>
<line x1="187" y1="311" x2="548" y2="311" stroke="#00f"/>
<rect x="111" y="306" width="76" height="10" fill="#ff0"/>
<rect x="550" y="306" width="54" height="10" fill="#ff0"/>
<text x="20" y="335" class="sm">2.7e-11</text>
<rect x="100" y="325" width="87" height="12" fill="#00f"/>
<rect x="597" y="325" width="126" height="12" fill="#00f"/>
<line x1="187" y1="331" x2="596" y2="331" stroke="#00f"/>
<rect x="111" y="326" width="76" height="10" fill="#ff0"/>
<rect x="598" y="326" width="6" height="10" fill="#ff0"/>
<text x="20" y="355" class="sm">1.952e-11</text>
<rect x="100" y="345" width="87" height="12" fill="#00f"/>
<rect x="581" y="345" width="142" height="12" fill="#00f"/>
<line x1="187" y1="351" x2="580" y2="351" stroke="#00f"/>
<rect x="111" y="346" width="76" height="10" fill="#ff0"/>
<rect x="582" y="346" width="75" height="10" fill="#ff0"/>
<text x="20" y="375" class="sm">1.814e-11</text>
<rect x="100" y="365" width="136" height="12" fill="#00f"/>
<rect x="503" y="365" width="220" height="12" fill="#00f"/>
<line x1="236" y1="371" x2="502" y2="371" stroke="#00f"/>
<rect x="111" y="366" width="125" height="10" fill="#ff0"/>
<rect x="504" y="366" width="56" height="10" fill="#ff0"/>
<text x="20" y="395" class="sm">1.813e-11</text>
<rect x="100" y="385" width="95" height="12" fill="#00f"/>
<rect x="537" y="385" width="186" height="12" fill="#00f"/>
<line x1="195" y1="391" x2="536" y2="391" stroke="#00f"/>
<rect x="111" y="386" width="84" height="10" fill="#ff0"/>
<rect x="538" y="386" width="22" height="10" fill="#ff0"/>
<text x="20" y="415" class="sm">1.251e-11</text>
<rect x="100" y="405" width="91" height="12" fill="#00f"/>
<rect x="516" y="405" width="207" height="12" fill="#00f"/>
<line x1="191" y1="411" x2="515" y2="411" stroke="#00f"/>
<rect x="111" y="406" width="80" height="10" fill="#ff0"/>
<rect x="517" y="406" width="140" height="10" fill="#ff0"/>
<text x="20" y="435" class="sm">1.138e-11</text>
<rect x="100" y="425" width="65" height="12" fill="#00f"/>
<rect x="503" y="425" width="220" height="12" fill="#00f"/>
<line x1="165" y1="431" x2="502" y2="431" stroke="#00f"/>
<rect x="111" y="426" width="54" height="10" fill="#ff0"/>
<rect x="504" y="426" width="43" height="10" fill="#ff0"/>
<text x="20" y="455" class="sm">2.866e-12</text>
<rect x="100" y="445" width="154" height="12" fill="#00f"/>
<rect x="503" y="445" width="220" height="12" fill="#00f"/>
<line x1="254" y1="451" x2="502" y2="451" stroke="#00f"/>
<rect x="111" y="446" width="143" height="10" fill="#ff0"/>
<rect x="504" y="446" width="56" height="10" fill="#ff0"/>
<text x="20" y="475" class="sm">2.763e-12</text>
<rect x="100" y="465" width="87" height="12" fill="#00f"/>
<rect x="421" y="465" width="302" height="12" fill="#00f"/>
<line x1="187" y1="471" x2="420" y2="471" stroke="#00f"/>
<rect x="182" y="466" width="5" height="10" fill="#ff0"/>
<rect x="422" y="466" width="74" height="10" fill="#ff0"/>
<text x="20" y="495" class="sm">2.152e-12</text>
<rect x="100" y="485" width="87" height="12" fill="#00f"/>
<rect x="462" y="485" width="261" height="12" fill="#00f"/>
<line x1="187" y1="491" x2="461" y2="491" stroke="#00f"/>
<rect x="111" y="486" width="76" height="10" fill="#ff0"/>
<rect x="463" y="486" width="33" height="10" fill="#ff0"/>
</svg>
