<svg viewBox="0 0 815 550" xmlns="http://www.w3.org/2000/svg">

<style>
  .sm { font: 12px sans-serif; }
  .lg { font: 15px sans-serif; }
</style>
<rect fill="#ddd" x="0" y="0" width="100%" height="100%"/>
<text x="20" y="20" class="lg">ch.8037 III:8155366-8156180 Gene:WBGene00017041</text>
<text x="20" y="50" class="sm">WormBase</text>
<rect x="100" y="40" width="149" height="12" fill="#00f"/>
<rect x="297" y="40" width="110" height="12" fill="#00f"/>
<rect x="493" y="40" width="222" height="12" fill="#00f"/>
<line x1="249" y1="46" x2="296" y2="46" stroke="#00f"/>
<line x1="407" y1="46" x2="492" y2="46" stroke="#00f"/>
<rect x="108" y="41" width="141" height="10" fill="#ff0"/>
<rect x="298" y="41" width="109" height="10" fill="#ff0"/>
<rect x="494" y="41" width="83" height="10" fill="#ff0"/>
<rect x="101" y="41" width="6" height="10" fill="brown"><title>.</title></rect>
<rect x="578" y="41" width="137" height="10" fill="brown"><title>.</title></rect>
<text x="20" y="70" class="sm">Fitness: 0.9578375449570785</text>
<rect x="407" y="65" width="86" height="5" fill="#00f"><title>199264.0</title></rect>
<rect x="249" y="70" width="48" height="5" fill="#00f"><title>192392.0</title></rect>
<rect x="407" y="75" width="80" height="5" fill="#00f"><title>445.0</title></rect>
<rect x="440" y="80" width="53" height="5" fill="#00f"><title>335.0</title></rect>
<rect x="249" y="85" width="244" height="5" fill="#00f"><title>29.0</title></rect>
<rect x="407" y="90" width="96" height="5" fill="#00f"><title>12.0</title></rect>
<rect x="690" y="95" width="53" height="5" fill="#00f"><title>9.0</title></rect>
<rect x="222" y="100" width="39" height="5" fill="#00f"><title>8.0</title></rect>
<rect x="204" y="105" width="57" height="5" fill="#00f"><title>4.0</title></rect>
<rect x="222" y="110" width="75" height="5" fill="#00f"><title>3.0</title></rect>
<text x="20" y="140" class="sm">0.4678</text>
<rect x="100" y="130" width="307" height="12" fill="#00f"/>
<rect x="493" y="130" width="225" height="12" fill="#00f"/>
<line x1="407" y1="136" x2="492" y2="136" stroke="#00f"/>
<rect x="108" y="131" width="299" height="10" fill="#ff0"/>
<rect x="494" y="131" width="83" height="10" fill="#ff0"/>
<text x="20" y="160" class="sm">0.1097</text>
<rect x="100" y="150" width="340" height="12" fill="#00f"/>
<rect x="493" y="150" width="225" height="12" fill="#00f"/>
<line x1="440" y1="156" x2="492" y2="156" stroke="#00f"/>
<rect x="108" y="151" width="323" height="10" fill="#ff0"/>
<text x="20" y="180" class="sm">0.1093</text>
<rect x="100" y="170" width="137" height="12" fill="#00f"/>
<rect x="297" y="170" width="110" height="12" fill="#00f"/>
<rect x="493" y="170" width="225" height="12" fill="#00f"/>
<line x1="237" y1="176" x2="296" y2="176" stroke="#00f"/>
<line x1="407" y1="176" x2="492" y2="176" stroke="#00f"/>
<rect x="108" y="171" width="129" height="10" fill="#ff0"/>
<rect x="298" y="171" width="109" height="10" fill="#ff0"/>
<rect x="494" y="171" width="83" height="10" fill="#ff0"/>
<text x="20" y="200" class="sm">0.07437</text>
<rect x="100" y="190" width="216" height="12" fill="#00f"/>
<rect x="493" y="190" width="225" height="12" fill="#00f"/>
<line x1="316" y1="196" x2="492" y2="196" stroke="#00f"/>
<rect x="108" y="191" width="208" height="10" fill="#ff0"/>
<rect x="494" y="191" width="153" height="10" fill="#ff0"/>
<text x="20" y="220" class="sm">0.05953</text>
<rect x="100" y="210" width="257" height="12" fill="#00f"/>
<rect x="493" y="210" width="225" height="12" fill="#00f"/>
<line x1="357" y1="216" x2="492" y2="216" stroke="#00f"/>
<rect x="108" y="211" width="249" height="10" fill="#ff0"/>
<rect x="494" y="211" width="1" height="10" fill="#ff0"/>
<text x="20" y="240" class="sm">0.04989</text>
<rect x="100" y="230" width="122" height="12" fill="#00f"/>
<rect x="261" y="230" width="146" height="12" fill="#00f"/>
<rect x="493" y="230" width="225" height="12" fill="#00f"/>
<line x1="222" y1="236" x2="260" y2="236" stroke="#00f"/>
<line x1="407" y1="236" x2="492" y2="236" stroke="#00f"/>
<rect x="108" y="231" width="114" height="10" fill="#ff0"/>
<rect x="262" y="231" width="145" height="10" fill="#ff0"/>
<rect x="494" y="231" width="83" height="10" fill="#ff0"/>
<text x="20" y="260" class="sm">0.02954</text>
<rect x="100" y="250" width="137" height="12" fill="#00f"/>
<rect x="297" y="250" width="143" height="12" fill="#00f"/>
<rect x="493" y="250" width="225" height="12" fill="#00f"/>
<line x1="237" y1="256" x2="296" y2="256" stroke="#00f"/>
<line x1="440" y1="256" x2="492" y2="256" stroke="#00f"/>
<rect x="108" y="251" width="129" height="10" fill="#ff0"/>
<rect x="298" y="251" width="133" height="10" fill="#ff0"/>
<text x="20" y="280" class="sm">0.02017</text>
<rect x="100" y="270" width="122" height="12" fill="#00f"/>
<rect x="297" y="270" width="110" height="12" fill="#00f"/>
<rect x="493" y="270" width="225" height="12" fill="#00f"/>
<line x1="222" y1="276" x2="296" y2="276" stroke="#00f"/>
<line x1="407" y1="276" x2="492" y2="276" stroke="#00f"/>
<rect x="108" y="271" width="114" height="10" fill="#ff0"/>
<rect x="298" y="271" width="109" height="10" fill="#ff0"/>
<rect x="494" y="271" width="83" height="10" fill="#ff0"/>
<text x="20" y="300" class="sm">0.01235</text>
<rect x="100" y="290" width="122" height="12" fill="#00f"/>
<rect x="261" y="290" width="179" height="12" fill="#00f"/>
<rect x="493" y="290" width="225" height="12" fill="#00f"/>
<line x1="222" y1="296" x2="260" y2="296" stroke="#00f"/>
<line x1="440" y1="296" x2="492" y2="296" stroke="#00f"/>
<rect x="108" y="291" width="114" height="10" fill="#ff0"/>
<rect x="262" y="291" width="169" height="10" fill="#ff0"/>
<text x="20" y="320" class="sm">0.01135</text>
<rect x="100" y="310" width="149" height="12" fill="#00f"/>
<rect x="297" y="310" width="110" height="12" fill="#00f"/>
<rect x="493" y="310" width="225" height="12" fill="#00f"/>
<line x1="249" y1="316" x2="296" y2="316" stroke="#00f"/>
<line x1="407" y1="316" x2="492" y2="316" stroke="#00f"/>
<rect x="108" y="311" width="141" height="10" fill="#ff0"/>
<rect x="298" y="311" width="109" height="10" fill="#ff0"/>
<rect x="494" y="311" width="83" height="10" fill="#ff0"/>
<text x="20" y="340" class="sm">0.009027</text>
<rect x="100" y="330" width="137" height="12" fill="#00f"/>
<rect x="297" y="330" width="421" height="12" fill="#00f"/>
<line x1="237" y1="336" x2="296" y2="336" stroke="#00f"/>
<rect x="108" y="331" width="129" height="10" fill="#ff0"/>
<rect x="298" y="331" width="133" height="10" fill="#ff0"/>
<text x="20" y="360" class="sm">0.00746</text>
<rect x="100" y="350" width="346" height="12" fill="#00f"/>
<rect x="493" y="350" width="225" height="12" fill="#00f"/>
<line x1="446" y1="356" x2="492" y2="356" stroke="#00f"/>
<rect x="108" y="351" width="323" height="10" fill="#ff0"/>
<text x="20" y="380" class="sm">0.006887</text>
<rect x="100" y="370" width="137" height="12" fill="#00f"/>
<rect x="297" y="370" width="60" height="12" fill="#00f"/>
<rect x="493" y="370" width="225" height="12" fill="#00f"/>
<line x1="237" y1="376" x2="296" y2="376" stroke="#00f"/>
<line x1="357" y1="376" x2="492" y2="376" stroke="#00f"/>
<rect x="108" y="371" width="129" height="10" fill="#ff0"/>
<rect x="298" y="371" width="59" height="10" fill="#ff0"/>
<rect x="494" y="371" width="1" height="10" fill="#ff0"/>
<text x="20" y="400" class="sm">0.006695</text>
<rect x="100" y="390" width="122" height="12" fill="#00f"/>
<rect x="261" y="390" width="96" height="12" fill="#00f"/>
<rect x="493" y="390" width="225" height="12" fill="#00f"/>
<line x1="222" y1="396" x2="260" y2="396" stroke="#00f"/>
<line x1="357" y1="396" x2="492" y2="396" stroke="#00f"/>
<rect x="108" y="391" width="114" height="10" fill="#ff0"/>
<rect x="262" y="391" width="95" height="10" fill="#ff0"/>
<rect x="494" y="391" width="1" height="10" fill="#ff0"/>
<text x="20" y="420" class="sm">0.006427</text>
<rect x="100" y="410" width="31" height="12" fill="#00f"/>
<rect x="261" y="410" width="146" height="12" fill="#00f"/>
<rect x="493" y="410" width="225" height="12" fill="#00f"/>
<line x1="131" y1="416" x2="260" y2="416" stroke="#00f"/>
<line x1="407" y1="416" x2="492" y2="416" stroke="#00f"/>
<rect x="108" y="411" width="23" height="10" fill="#ff0"/>
<rect x="262" y="411" width="145" height="10" fill="#ff0"/>
<rect x="494" y="411" width="153" height="10" fill="#ff0"/>
<text x="20" y="440" class="sm">0.005454</text>
<rect x="100" y="430" width="122" height="12" fill="#00f"/>
<rect x="297" y="430" width="143" height="12" fill="#00f"/>
<rect x="493" y="430" width="225" height="12" fill="#00f"/>
<line x1="222" y1="436" x2="296" y2="436" stroke="#00f"/>
<line x1="440" y1="436" x2="492" y2="436" stroke="#00f"/>
<rect x="108" y="431" width="114" height="10" fill="#ff0"/>
<rect x="298" y="431" width="133" height="10" fill="#ff0"/>
<text x="20" y="460" class="sm">0.004002</text>
<rect x="100" y="450" width="307" height="12" fill="#00f"/>
<rect x="503" y="450" width="215" height="12" fill="#00f"/>
<line x1="407" y1="456" x2="502" y2="456" stroke="#00f"/>
<rect x="108" y="451" width="299" height="10" fill="#ff0"/>
<rect x="504" y="451" width="143" height="10" fill="#ff0"/>
<text x="20" y="480" class="sm">0.00392</text>
<rect x="100" y="470" width="122" height="12" fill="#00f"/>
<rect x="261" y="470" width="457" height="12" fill="#00f"/>
<line x1="222" y1="476" x2="260" y2="476" stroke="#00f"/>
<rect x="108" y="471" width="114" height="10" fill="#ff0"/>
<rect x="262" y="471" width="169" height="10" fill="#ff0"/>
<text x="20" y="500" class="sm">0.003111</text>
<rect x="100" y="490" width="31" height="12" fill="#00f"/>
<rect x="297" y="490" width="110" height="12" fill="#00f"/>
<rect x="493" y="490" width="225" height="12" fill="#00f"/>
<line x1="131" y1="496" x2="296" y2="496" stroke="#00f"/>
<line x1="407" y1="496" x2="492" y2="496" stroke="#00f"/>
<rect x="108" y="491" width="23" height="10" fill="#ff0"/>
<rect x="298" y="491" width="109" height="10" fill="#ff0"/>
<rect x="494" y="491" width="153" height="10" fill="#ff0"/>
<text x="20" y="520" class="sm">0.003067</text>
<rect x="100" y="510" width="149" height="12" fill="#00f"/>
<rect x="297" y="510" width="143" height="12" fill="#00f"/>
<rect x="493" y="510" width="225" height="12" fill="#00f"/>
<line x1="249" y1="516" x2="296" y2="516" stroke="#00f"/>
<line x1="440" y1="516" x2="492" y2="516" stroke="#00f"/>
<rect x="108" y="511" width="141" height="10" fill="#ff0"/>
<rect x="298" y="511" width="133" height="10" fill="#ff0"/>
</svg>
