<svg viewBox="0 0 834 555" xmlns="http://www.w3.org/2000/svg">

<style>
  .sm { font: 12px sans-serif; }
  .lg { font: 15px sans-serif; }
</style>
<rect fill="#ddd" x="0" y="0" width="100%" height="100%"/>
<text x="20" y="20" class="lg">ch.857 I:5317391-5318224 Gene:WBGene00018598</text>
<text x="20" y="50" class="sm">WormBase</text>
<rect x="102" y="40" width="89" height="12" fill="#00f"/>
<rect x="241" y="40" width="135" height="12" fill="#00f"/>
<rect x="425" y="40" width="311" height="12" fill="#00f"/>
<line x1="191" y1="46" x2="240" y2="46" stroke="#00f"/>
<line x1="376" y1="46" x2="424" y2="46" stroke="#00f"/>
<rect x="117" y="41" width="74" height="10" fill="#ff0"/>
<rect x="242" y="41" width="134" height="10" fill="#ff0"/>
<rect x="426" y="41" width="164" height="10" fill="#ff0"/>
<rect x="103" y="41" width="13" height="10" fill="brown"><title>.</title></rect>
<rect x="591" y="41" width="145" height="10" fill="brown"><title>.</title></rect>
<text x="20" y="70" class="sm">Fitness: 0.0323314417969568</text>
<rect x="376" y="65" width="49" height="5" fill="#00f"><title>211673.0</title></rect>
<rect x="191" y="70" width="50" height="5" fill="#00f"><title>198498.0</title></rect>
<rect x="200" y="75" width="41" height="5" fill="#00f"><title>299.0</title></rect>
<rect x="191" y="80" width="54" height="5" fill="#00f"><title>95.0</title></rect>
<rect x="195" y="85" width="46" height="5" fill="#00f"><title>33.0</title></rect>
<rect x="593" y="90" width="241" height="5" fill="#00f"><title>16.0</title></rect>
<rect x="290" y="95" width="66" height="5" fill="#00f"><title>5.0</title></rect>
<rect x="589" y="100" width="245" height="5" fill="#f0f"><title>4.0</title></rect>
<rect x="337" y="105" width="130" height="5" fill="#f0f"><title>3.0</title></rect>
<rect x="200" y="110" width="45" height="5" fill="#00f"><title>3.0</title></rect>
<rect x="195" y="115" width="50" height="5" fill="#00f"><title>3.0</title></rect>
<text x="20" y="145" class="sm">0.9674</text>
<rect x="100" y="135" width="91" height="12" fill="#00f"/>
<rect x="241" y="135" width="135" height="12" fill="#00f"/>
<rect x="425" y="135" width="312" height="12" fill="#00f"/>
<line x1="191" y1="141" x2="240" y2="141" stroke="#00f"/>
<line x1="376" y1="141" x2="424" y2="141" stroke="#00f"/>
<rect x="117" y="136" width="74" height="10" fill="#ff0"/>
<rect x="242" y="136" width="134" height="10" fill="#ff0"/>
<rect x="426" y="136" width="164" height="10" fill="#ff0"/>
<text x="20" y="165" class="sm">0.03126</text>
<rect x="100" y="155" width="95" height="12" fill="#00f"/>
<rect x="241" y="155" width="135" height="12" fill="#00f"/>
<rect x="425" y="155" width="312" height="12" fill="#00f"/>
<line x1="195" y1="161" x2="240" y2="161" stroke="#00f"/>
<line x1="376" y1="161" x2="424" y2="161" stroke="#00f"/>
<rect x="307" y="156" width="69" height="10" fill="#ff0"/>
<rect x="426" y="156" width="79" height="10" fill="#ff0"/>
<text x="20" y="185" class="sm">0.0004602</text>
<rect x="100" y="175" width="91" height="12" fill="#00f"/>
<rect x="245" y="175" width="131" height="12" fill="#00f"/>
<rect x="425" y="175" width="312" height="12" fill="#00f"/>
<line x1="191" y1="181" x2="244" y2="181" stroke="#00f"/>
<line x1="376" y1="181" x2="424" y2="181" stroke="#00f"/>
<rect x="117" y="176" width="74" height="10" fill="#ff0"/>
<rect x="246" y="176" width="74" height="10" fill="#ff0"/>
<text x="20" y="205" class="sm">0.0003807</text>
<rect x="100" y="195" width="100" height="12" fill="#00f"/>
<rect x="241" y="195" width="135" height="12" fill="#00f"/>
<rect x="425" y="195" width="312" height="12" fill="#00f"/>
<line x1="200" y1="201" x2="240" y2="201" stroke="#00f"/>
<line x1="376" y1="201" x2="424" y2="201" stroke="#00f"/>
<rect x="117" y="196" width="83" height="10" fill="#ff0"/>
<rect x="242" y="196" width="134" height="10" fill="#ff0"/>
<rect x="426" y="196" width="164" height="10" fill="#ff0"/>
<text x="20" y="225" class="sm">0.0001143</text>
<rect x="100" y="215" width="72" height="12" fill="#00f"/>
<rect x="241" y="215" width="135" height="12" fill="#00f"/>
<rect x="425" y="215" width="312" height="12" fill="#00f"/>
<line x1="172" y1="221" x2="240" y2="221" stroke="#00f"/>
<line x1="376" y1="221" x2="424" y2="221" stroke="#00f"/>
<rect x="307" y="216" width="69" height="10" fill="#ff0"/>
<rect x="426" y="216" width="79" height="10" fill="#ff0"/>
<text x="20" y="245" class="sm">9.926e-05</text>
<rect x="100" y="235" width="91" height="12" fill="#00f"/>
<rect x="241" y="235" width="146" height="12" fill="#00f"/>
<rect x="425" y="235" width="312" height="12" fill="#00f"/>
<line x1="191" y1="241" x2="240" y2="241" stroke="#00f"/>
<line x1="387" y1="241" x2="424" y2="241" stroke="#00f"/>
<rect x="117" y="236" width="74" height="10" fill="#ff0"/>
<rect x="242" y="236" width="145" height="10" fill="#ff0"/>
<rect x="426" y="236" width="48" height="10" fill="#ff0"/>
<text x="20" y="265" class="sm">7.136e-05</text>
<rect x="100" y="255" width="75" height="12" fill="#00f"/>
<rect x="241" y="255" width="135" height="12" fill="#00f"/>
<rect x="425" y="255" width="312" height="12" fill="#00f"/>
<line x1="175" y1="261" x2="240" y2="261" stroke="#00f"/>
<line x1="376" y1="261" x2="424" y2="261" stroke="#00f"/>
<rect x="307" y="256" width="69" height="10" fill="#ff0"/>
<rect x="426" y="256" width="79" height="10" fill="#ff0"/>
<text x="20" y="285" class="sm">4.264e-05</text>
<rect x="100" y="275" width="91" height="12" fill="#00f"/>
<rect x="290" y="275" width="86" height="12" fill="#00f"/>
<rect x="425" y="275" width="312" height="12" fill="#00f"/>
<line x1="191" y1="281" x2="289" y2="281" stroke="#00f"/>
<line x1="376" y1="281" x2="424" y2="281" stroke="#00f"/>
<rect x="307" y="276" width="69" height="10" fill="#ff0"/>
<rect x="426" y="276" width="79" height="10" fill="#ff0"/>
<text x="20" y="305" class="sm">3.973e-05</text>
<rect x="100" y="295" width="105" height="12" fill="#00f"/>
<rect x="241" y="295" width="135" height="12" fill="#00f"/>
<rect x="425" y="295" width="312" height="12" fill="#00f"/>
<line x1="205" y1="301" x2="240" y2="301" stroke="#00f"/>
<line x1="376" y1="301" x2="424" y2="301" stroke="#00f"/>
<rect x="307" y="296" width="69" height="10" fill="#ff0"/>
<rect x="426" y="296" width="79" height="10" fill="#ff0"/>
<text x="20" y="325" class="sm">3.205e-05</text>
<rect x="100" y="315" width="95" height="12" fill="#00f"/>
<rect x="245" y="315" width="131" height="12" fill="#00f"/>
<rect x="425" y="315" width="312" height="12" fill="#00f"/>
<line x1="195" y1="321" x2="244" y2="321" stroke="#00f"/>
<line x1="376" y1="321" x2="424" y2="321" stroke="#00f"/>
<rect x="117" y="316" width="78" height="10" fill="#ff0"/>
<rect x="246" y="316" width="130" height="10" fill="#ff0"/>
<rect x="426" y="316" width="164" height="10" fill="#ff0"/>
<text x="20" y="345" class="sm">2.915e-05</text>
<rect x="100" y="335" width="91" height="12" fill="#00f"/>
<rect x="241" y="335" width="135" height="12" fill="#00f"/>
<rect x="456" y="335" width="281" height="12" fill="#00f"/>
<line x1="191" y1="341" x2="240" y2="341" stroke="#00f"/>
<line x1="376" y1="341" x2="455" y2="341" stroke="#00f"/>
<rect x="117" y="336" width="74" height="10" fill="#ff0"/>
<rect x="242" y="336" width="134" height="10" fill="#ff0"/>
<rect x="457" y="336" width="17" height="10" fill="#ff0"/>
<text x="20" y="365" class="sm">2.203e-05</text>
<rect x="100" y="355" width="62" height="12" fill="#00f"/>
<rect x="241" y="355" width="135" height="12" fill="#00f"/>
<rect x="425" y="355" width="312" height="12" fill="#00f"/>
<line x1="162" y1="361" x2="240" y2="361" stroke="#00f"/>
<line x1="376" y1="361" x2="424" y2="361" stroke="#00f"/>
<rect x="307" y="356" width="69" height="10" fill="#ff0"/>
<rect x="426" y="356" width="79" height="10" fill="#ff0"/>
<text x="20" y="385" class="sm">1.736e-05</text>
<rect x="100" y="375" width="91" height="12" fill="#00f"/>
<rect x="241" y="375" width="135" height="12" fill="#00f"/>
<rect x="453" y="375" width="284" height="12" fill="#00f"/>
<line x1="191" y1="381" x2="240" y2="381" stroke="#00f"/>
<line x1="376" y1="381" x2="452" y2="381" stroke="#00f"/>
<rect x="117" y="376" width="74" height="10" fill="#ff0"/>
<rect x="242" y="376" width="134" height="10" fill="#ff0"/>
<rect x="454" y="376" width="20" height="10" fill="#ff0"/>
<text x="20" y="405" class="sm">1.679e-05</text>
<rect x="100" y="395" width="91" height="12" fill="#00f"/>
<rect x="269" y="395" width="107" height="12" fill="#00f"/>
<rect x="425" y="395" width="312" height="12" fill="#00f"/>
<line x1="191" y1="401" x2="268" y2="401" stroke="#00f"/>
<line x1="376" y1="401" x2="424" y2="401" stroke="#00f"/>
<rect x="307" y="396" width="69" height="10" fill="#ff0"/>
<rect x="426" y="396" width="79" height="10" fill="#ff0"/>
<text x="20" y="425" class="sm">3.576e-06</text>
<rect x="100" y="415" width="91" height="12" fill="#00f"/>
<rect x="241" y="415" width="135" height="12" fill="#00f"/>
<rect x="425" y="415" width="43" height="12" fill="#00f"/>
<rect x="515" y="415" width="222" height="12" fill="#00f"/>
<line x1="191" y1="421" x2="240" y2="421" stroke="#00f"/>
<line x1="376" y1="421" x2="424" y2="421" stroke="#00f"/>
<line x1="468" y1="421" x2="514" y2="421" stroke="#00f"/>
<rect x="117" y="416" width="74" height="10" fill="#ff0"/>
<rect x="242" y="416" width="134" height="10" fill="#ff0"/>
<rect x="426" y="416" width="42" height="10" fill="#ff0"/>
<rect x="516" y="416" width="103" height="10" fill="#ff0"/>
<text x="20" y="445" class="sm">3.207e-06</text>
<rect x="100" y="435" width="95" height="12" fill="#00f"/>
<rect x="241" y="435" width="146" height="12" fill="#00f"/>
<rect x="425" y="435" width="312" height="12" fill="#00f"/>
<line x1="195" y1="441" x2="240" y2="441" stroke="#00f"/>
<line x1="387" y1="441" x2="424" y2="441" stroke="#00f"/>
<rect x="117" y="436" width="78" height="10" fill="#ff0"/>
<rect x="242" y="436" width="16" height="10" fill="#ff0"/>
<text x="20" y="465" class="sm">2.587e-06</text>
<rect x="100" y="455" width="91" height="12" fill="#00f"/>
<rect x="241" y="455" width="496" height="12" fill="#00f"/>
<line x1="191" y1="461" x2="240" y2="461" stroke="#00f"/>
<rect x="117" y="456" width="74" height="10" fill="#ff0"/>
<rect x="242" y="456" width="263" height="10" fill="#ff0"/>
<text x="20" y="485" class="sm">2.242e-06</text>
<rect x="100" y="475" width="91" height="12" fill="#00f"/>
<rect x="241" y="475" width="135" height="12" fill="#00f"/>
<rect x="425" y="475" width="45" height="12" fill="#00f"/>
<rect x="515" y="475" width="222" height="12" fill="#00f"/>
<line x1="191" y1="481" x2="240" y2="481" stroke="#00f"/>
<line x1="376" y1="481" x2="424" y2="481" stroke="#00f"/>
<line x1="470" y1="481" x2="514" y2="481" stroke="#00f"/>
<rect x="117" y="476" width="74" height="10" fill="#ff0"/>
<rect x="242" y="476" width="134" height="10" fill="#ff0"/>
<rect x="426" y="476" width="44" height="10" fill="#ff0"/>
<rect x="516" y="476" width="74" height="10" fill="#ff0"/>
<text x="20" y="505" class="sm">1.623e-06</text>
<rect x="100" y="495" width="105" height="12" fill="#00f"/>
<rect x="245" y="495" width="131" height="12" fill="#00f"/>
<rect x="425" y="495" width="312" height="12" fill="#00f"/>
<line x1="205" y1="501" x2="244" y2="501" stroke="#00f"/>
<line x1="376" y1="501" x2="424" y2="501" stroke="#00f"/>
<rect x="307" y="496" width="69" height="10" fill="#ff0"/>
<rect x="426" y="496" width="79" height="10" fill="#ff0"/>
<text x="20" y="525" class="sm">1.363e-06</text>
<rect x="100" y="515" width="95" height="12" fill="#00f"/>
<rect x="290" y="515" width="86" height="12" fill="#00f"/>
<rect x="425" y="515" width="312" height="12" fill="#00f"/>
<line x1="195" y1="521" x2="289" y2="521" stroke="#00f"/>
<line x1="376" y1="521" x2="424" y2="521" stroke="#00f"/>
<rect x="117" y="516" width="78" height="10" fill="#ff0"/>
<rect x="291" y="516" width="85" height="10" fill="#ff0"/>
<rect x="426" y="516" width="164" height="10" fill="#ff0"/>
</svg>
