<svg viewBox="0 0 953 625" xmlns="http://www.w3.org/2000/svg">

<style>
  .sm { font: 12px sans-serif; }
  .lg { font: 15px sans-serif; }
</style>
<rect fill="#ddd" x="0" y="0" width="100%" height="100%"/>
<text x="20" y="20" class="lg">ch.8952 III:12874931-12875883 Gene:WBGene00012550</text>
<text x="20" y="50" class="sm">WormBase</text>
<rect x="100" y="40" width="81" height="12" fill="#00f"/>
<rect x="235" y="40" width="618" height="12" fill="#00f"/>
<line x1="181" y1="46" x2="234" y2="46" stroke="#00f"/>
<rect x="101" y="41" width="80" height="10" fill="#ff0"/>
<rect x="236" y="41" width="461" height="10" fill="#ff0"/>
<rect x="698" y="41" width="155" height="10" fill="brown"><title>.</title></rect>
<text x="20" y="70" class="sm">Fitness: 0.0012984747766407831</text>
<rect x="181" y="65" width="54" height="5" fill="#00f"><title>1031310.0</title></rect>
<rect x="49" y="70" width="51" height="5" fill="#00f"><title>321.0</title></rect>
<rect x="541" y="75" width="132" height="5" fill="#f0f"><title>115.0</title></rect>
<rect x="594" y="80" width="183" height="5" fill="#00f"><title>104.0</title></rect>
<rect x="472" y="85" width="183" height="5" fill="#00f"><title>91.0</title></rect>
<rect x="849" y="90" width="80" height="5" fill="#00f"><title>41.0</title></rect>
<rect x="524" y="95" width="135" height="5" fill="#00f"><title>27.0</title></rect>
<rect x="306" y="100" width="219" height="5" fill="#00f"><title>12.0</title></rect>
<rect x="267" y="105" width="170" height="5" fill="#00f"><title>10.0</title></rect>
<rect x="386" y="110" width="120" height="5" fill="#00f"><title>10.0</title></rect>
<rect x="397" y="115" width="270" height="5" fill="#00f"><title>8.0</title></rect>
<rect x="428" y="120" width="86" height="5" fill="#00f"><title>8.0</title></rect>
<rect x="375" y="125" width="145" height="5" fill="#00f"><title>7.0</title></rect>
<rect x="572" y="130" width="92" height="5" fill="#f0f"><title>7.0</title></rect>
<rect x="121" y="135" width="33" height="5" fill="#00f"><title>6.0</title></rect>
<rect x="330" y="140" width="51" height="5" fill="#f0f"><title>5.0</title></rect>
<rect x="421" y="145" width="219" height="5" fill="#00f"><title>5.0</title></rect>
<rect x="609" y="150" width="171" height="5" fill="#00f"><title>5.0</title></rect>
<rect x="725" y="155" width="103" height="5" fill="#f0f"><title>5.0</title></rect>
<rect x="328" y="160" width="120" height="5" fill="#00f"><title>4.0</title></rect>
<rect x="426" y="165" width="261" height="5" fill="#00f"><title>4.0</title></rect>
<rect x="489" y="170" width="136" height="5" fill="#00f"><title>4.0</title></rect>
<rect x="160" y="175" width="431" height="5" fill="#f0f"><title>3.0</title></rect>
<rect x="188" y="180" width="56" height="5" fill="#f0f"><title>3.0</title></rect>
<rect x="463" y="185" width="90" height="5" fill="#00f"><title>3.0</title></rect>
<text x="20" y="215" class="sm">0.9999</text>
<rect x="100" y="205" width="81" height="12" fill="#00f"/>
<rect x="235" y="205" width="621" height="12" fill="#00f"/>
<line x1="181" y1="211" x2="234" y2="211" stroke="#00f"/>
<rect x="101" y="206" width="80" height="10" fill="#ff0"/>
<rect x="236" y="206" width="461" height="10" fill="#ff0"/>
<text x="20" y="235" class="sm">5.082e-05</text>
<rect x="100" y="225" width="48" height="12" fill="#00f"/>
<rect x="235" y="225" width="621" height="12" fill="#00f"/>
<line x1="148" y1="231" x2="234" y2="231" stroke="#00f"/>
<rect x="101" y="226" width="47" height="10" fill="#ff0"/>
<rect x="236" y="226" width="461" height="10" fill="#ff0"/>
<text x="20" y="255" class="sm">3.903e-05</text>
<rect x="100" y="245" width="69" height="12" fill="#00f"/>
<rect x="235" y="245" width="621" height="12" fill="#00f"/>
<line x1="169" y1="251" x2="234" y2="251" stroke="#00f"/>
<rect x="101" y="246" width="68" height="10" fill="#ff0"/>
<rect x="236" y="246" width="461" height="10" fill="#ff0"/>
<text x="20" y="275" class="sm">1.469e-05</text>
<rect x="100" y="265" width="72" height="12" fill="#00f"/>
<rect x="235" y="265" width="621" height="12" fill="#00f"/>
<line x1="172" y1="271" x2="234" y2="271" stroke="#00f"/>
<rect x="101" y="266" width="71" height="10" fill="#ff0"/>
<rect x="236" y="266" width="461" height="10" fill="#ff0"/>
<text x="20" y="295" class="sm">6.648e-06</text>
<rect x="100" y="285" width="583" height="12" fill="#00f"/>
<rect x="818" y="285" width="38" height="12" fill="#00f"/>
<line x1="683" y1="291" x2="817" y2="291" stroke="#00f"/>
<rect x="278" y="286" width="405" height="10" fill="#ff0"/>
<rect x="819" y="286" width="16" height="10" fill="#ff0"/>
<text x="20" y="315" class="sm">2.536e-06</text>
<rect x="100" y="305" width="81" height="12" fill="#00f"/>
<rect x="251" y="305" width="605" height="12" fill="#00f"/>
<line x1="181" y1="311" x2="250" y2="311" stroke="#00f"/>
<rect x="278" y="306" width="419" height="10" fill="#ff0"/>
<text x="20" y="335" class="sm">6.253e-07</text>
<rect x="100" y="325" width="566" height="12" fill="#00f"/>
<rect x="818" y="325" width="38" height="12" fill="#00f"/>
<line x1="666" y1="331" x2="817" y2="331" stroke="#00f"/>
<rect x="406" y="326" width="128" height="10" fill="#ff0"/>
<text x="20" y="355" class="sm">4.44e-07</text>
<rect x="100" y="345" width="282" height="12" fill="#00f"/>
<rect x="433" y="345" width="423" height="12" fill="#00f"/>
<line x1="382" y1="351" x2="432" y2="351" stroke="#00f"/>
<rect x="278" y="346" width="104" height="10" fill="#ff0"/>
<rect x="434" y="346" width="263" height="10" fill="#ff0"/>
<text x="20" y="375" class="sm">1.634e-08</text>
<rect x="100" y="365" width="40" height="12" fill="#00f"/>
<rect x="235" y="365" width="621" height="12" fill="#00f"/>
<line x1="140" y1="371" x2="234" y2="371" stroke="#00f"/>
<rect x="278" y="366" width="419" height="10" fill="#ff0"/>
<text x="20" y="395" class="sm">1.402e-08</text>
<rect x="100" y="385" width="284" height="12" fill="#00f"/>
<rect x="433" y="385" width="423" height="12" fill="#00f"/>
<line x1="384" y1="391" x2="432" y2="391" stroke="#00f"/>
<rect x="278" y="386" width="106" height="10" fill="#ff0"/>
<rect x="434" y="386" width="213" height="10" fill="#ff0"/>
<text x="20" y="415" class="sm">3.736e-09</text>
<rect x="100" y="405" width="81" height="12" fill="#00f"/>
<rect x="235" y="405" width="448" height="12" fill="#00f"/>
<rect x="818" y="405" width="38" height="12" fill="#00f"/>
<line x1="181" y1="411" x2="234" y2="411" stroke="#00f"/>
<line x1="683" y1="411" x2="817" y2="411" stroke="#00f"/>
<rect x="101" y="406" width="80" height="10" fill="#ff0"/>
<rect x="236" y="406" width="447" height="10" fill="#ff0"/>
<rect x="819" y="406" width="16" height="10" fill="#ff0"/>
<text x="20" y="435" class="sm">2.184e-09</text>
<rect x="100" y="425" width="48" height="12" fill="#00f"/>
<rect x="251" y="425" width="605" height="12" fill="#00f"/>
<line x1="148" y1="431" x2="250" y2="431" stroke="#00f"/>
<rect x="133" y="426" width="15" height="10" fill="#ff0"/>
<rect x="252" y="426" width="445" height="10" fill="#ff0"/>
<text x="20" y="455" class="sm">1.806e-09</text>
<rect x="100" y="445" width="659" height="12" fill="#00f"/>
<rect x="818" y="445" width="38" height="12" fill="#00f"/>
<line x1="759" y1="451" x2="817" y2="451" stroke="#00f"/>
<rect x="278" y="446" width="419" height="10" fill="#ff0"/>
<text x="20" y="475" class="sm">1.729e-09</text>
<rect x="100" y="465" width="555" height="12" fill="#00f"/>
<rect x="818" y="465" width="38" height="12" fill="#00f"/>
<line x1="655" y1="471" x2="817" y2="471" stroke="#00f"/>
<rect x="406" y="466" width="128" height="10" fill="#ff0"/>
<text x="20" y="495" class="sm">1.537e-09</text>
<rect x="100" y="485" width="614" height="12" fill="#00f"/>
<rect x="818" y="485" width="38" height="12" fill="#00f"/>
<line x1="714" y1="491" x2="817" y2="491" stroke="#00f"/>
<rect x="278" y="486" width="419" height="10" fill="#ff0"/>
<text x="20" y="515" class="sm">7.672e-10</text>
<rect x="100" y="505" width="69" height="12" fill="#00f"/>
<rect x="251" y="505" width="605" height="12" fill="#00f"/>
<line x1="169" y1="511" x2="250" y2="511" stroke="#00f"/>
<rect x="278" y="506" width="419" height="10" fill="#ff0"/>
<text x="20" y="535" class="sm">7.055e-10</text>
<rect x="100" y="525" width="291" height="12" fill="#00f"/>
<rect x="433" y="525" width="423" height="12" fill="#00f"/>
<line x1="391" y1="531" x2="432" y2="531" stroke="#00f"/>
<rect x="278" y="526" width="113" height="10" fill="#ff0"/>
<rect x="434" y="526" width="263" height="10" fill="#ff0"/>
<text x="20" y="555" class="sm">5.305e-10</text>
<rect x="100" y="545" width="543" height="12" fill="#00f"/>
<rect x="818" y="545" width="38" height="12" fill="#00f"/>
<line x1="643" y1="551" x2="817" y2="551" stroke="#00f"/>
<rect x="406" y="546" width="128" height="10" fill="#ff0"/>
<text x="20" y="575" class="sm">3.749e-10</text>
<rect x="100" y="565" width="81" height="12" fill="#00f"/>
<rect x="235" y="565" width="431" height="12" fill="#00f"/>
<rect x="818" y="565" width="38" height="12" fill="#00f"/>
<line x1="181" y1="571" x2="234" y2="571" stroke="#00f"/>
<line x1="666" y1="571" x2="817" y2="571" stroke="#00f"/>
<rect x="406" y="566" width="128" height="10" fill="#ff0"/>
<text x="20" y="595" class="sm">2.977e-10</text>
<rect x="100" y="585" width="81" height="12" fill="#00f"/>
<rect x="235" y="585" width="147" height="12" fill="#00f"/>
<rect x="433" y="585" width="423" height="12" fill="#00f"/>
<line x1="181" y1="591" x2="234" y2="591" stroke="#00f"/>
<line x1="382" y1="591" x2="432" y2="591" stroke="#00f"/>
<rect x="101" y="586" width="80" height="10" fill="#ff0"/>
<rect x="236" y="586" width="146" height="10" fill="#ff0"/>
<rect x="434" y="586" width="263" height="10" fill="#ff0"/>
</svg>
