<svg viewBox="0 0 961 565" xmlns="http://www.w3.org/2000/svg">

<style>
  .sm { font: 12px sans-serif; }
  .lg { font: 15px sans-serif; }
</style>
<rect fill="#ddd" x="0" y="0" width="100%" height="100%"/>
<text x="20" y="20" class="lg">ch.8634 III:10707661-10708621 Gene:WBGene00012361</text>
<text x="20" y="50" class="sm">WormBase</text>
<rect x="100" y="40" width="76" height="12" fill="#00f"/>
<rect x="224" y="40" width="201" height="12" fill="#00f"/>
<rect x="483" y="40" width="378" height="12" fill="#00f"/>
<line x1="176" y1="46" x2="223" y2="46" stroke="#00f"/>
<line x1="425" y1="46" x2="482" y2="46" stroke="#00f"/>
<rect x="107" y="41" width="69" height="10" fill="#ff0"/>
<rect x="225" y="41" width="200" height="10" fill="#ff0"/>
<rect x="484" y="41" width="250" height="10" fill="#ff0"/>
<rect x="101" y="41" width="5" height="10" fill="brown"><title>.</title></rect>
<rect x="735" y="41" width="126" height="10" fill="brown"><title>.</title></rect>
<text x="20" y="70" class="sm">Fitness: 0.005643242453513482</text>
<rect x="176" y="65" width="48" height="5" fill="#00f"><title>603247.0</title></rect>
<rect x="425" y="70" width="58" height="5" fill="#00f"><title>594476.0</title></rect>
<rect x="259" y="75" width="458" height="5" fill="#00f"><title>12.0</title></rect>
<rect x="176" y="80" width="313" height="5" fill="#00f"><title>5.0</title></rect>
<rect x="425" y="85" width="64" height="5" fill="#00f"><title>5.0</title></rect>
<rect x="555" y="90" width="63" height="5" fill="#00f"><title>5.0</title></rect>
<rect x="139" y="95" width="102" height="5" fill="#00f"><title>3.0</title></rect>
<rect x="139" y="100" width="350" height="5" fill="#00f"><title>3.0</title></rect>
<rect x="139" y="105" width="484" height="5" fill="#00f"><title>3.0</title></rect>
<rect x="139" y="110" width="487" height="5" fill="#00f"><title>3.0</title></rect>
<rect x="159" y="115" width="65" height="5" fill="#00f"><title>3.0</title></rect>
<rect x="381" y="120" width="222" height="5" fill="#00f"><title>3.0</title></rect>
<rect x="425" y="125" width="79" height="5" fill="#00f"><title>3.0</title></rect>
<text x="20" y="155" class="sm">0.9695</text>
<rect x="100" y="145" width="76" height="12" fill="#00f"/>
<rect x="224" y="145" width="201" height="12" fill="#00f"/>
<rect x="483" y="145" width="381" height="12" fill="#00f"/>
<line x1="176" y1="151" x2="223" y2="151" stroke="#00f"/>
<line x1="425" y1="151" x2="482" y2="151" stroke="#00f"/>
<rect x="107" y="146" width="69" height="10" fill="#ff0"/>
<rect x="225" y="146" width="200" height="10" fill="#ff0"/>
<rect x="484" y="146" width="250" height="10" fill="#ff0"/>
<text x="20" y="175" class="sm">0.01963</text>
<rect x="100" y="165" width="76" height="12" fill="#00f"/>
<rect x="224" y="165" width="640" height="12" fill="#00f"/>
<line x1="176" y1="171" x2="223" y2="171" stroke="#00f"/>
<rect x="107" y="166" width="69" height="10" fill="#ff0"/>
<rect x="225" y="166" width="220" height="10" fill="#ff0"/>
<text x="20" y="195" class="sm">0.005783</text>
<rect x="100" y="185" width="325" height="12" fill="#00f"/>
<rect x="483" y="185" width="381" height="12" fill="#00f"/>
<line x1="425" y1="191" x2="482" y2="191" stroke="#00f"/>
<rect x="107" y="186" width="318" height="10" fill="#ff0"/>
<rect x="484" y="186" width="250" height="10" fill="#ff0"/>
<text x="20" y="215" class="sm">0.001851</text>
<rect x="100" y="205" width="76" height="12" fill="#00f"/>
<rect x="224" y="205" width="220" height="12" fill="#00f"/>
<rect x="483" y="205" width="381" height="12" fill="#00f"/>
<line x1="176" y1="211" x2="223" y2="211" stroke="#00f"/>
<line x1="444" y1="211" x2="482" y2="211" stroke="#00f"/>
<rect x="107" y="206" width="69" height="10" fill="#ff0"/>
<rect x="225" y="206" width="219" height="10" fill="#ff0"/>
<rect x="484" y="206" width="69" height="10" fill="#ff0"/>
<text x="20" y="235" class="sm">0.0008741</text>
<rect x="100" y="225" width="59" height="12" fill="#00f"/>
<rect x="224" y="225" width="201" height="12" fill="#00f"/>
<rect x="483" y="225" width="381" height="12" fill="#00f"/>
<line x1="159" y1="231" x2="223" y2="231" stroke="#00f"/>
<line x1="425" y1="231" x2="482" y2="231" stroke="#00f"/>
<rect x="392" y="226" width="33" height="10" fill="#ff0"/>
<rect x="484" y="226" width="250" height="10" fill="#ff0"/>
<text x="20" y="255" class="sm">0.0008152</text>
<rect x="100" y="245" width="76" height="12" fill="#00f"/>
<rect x="224" y="245" width="201" height="12" fill="#00f"/>
<rect x="600" y="245" width="264" height="12" fill="#00f"/>
<line x1="176" y1="251" x2="223" y2="251" stroke="#00f"/>
<line x1="425" y1="251" x2="599" y2="251" stroke="#00f"/>
<rect x="107" y="246" width="69" height="10" fill="#ff0"/>
<rect x="225" y="246" width="200" height="10" fill="#ff0"/>
<rect x="601" y="246" width="133" height="10" fill="#ff0"/>
<text x="20" y="275" class="sm">0.0003032</text>
<rect x="100" y="265" width="76" height="12" fill="#00f"/>
<rect x="224" y="265" width="201" height="12" fill="#00f"/>
<rect x="483" y="265" width="285" height="12" fill="#00f"/>
<rect x="824" y="265" width="40" height="12" fill="#00f"/>
<line x1="176" y1="271" x2="223" y2="271" stroke="#00f"/>
<line x1="425" y1="271" x2="482" y2="271" stroke="#00f"/>
<line x1="768" y1="271" x2="823" y2="271" stroke="#00f"/>
<rect x="107" y="266" width="69" height="10" fill="#ff0"/>
<rect x="225" y="266" width="200" height="10" fill="#ff0"/>
<rect x="484" y="266" width="250" height="10" fill="#ff0"/>
<text x="20" y="295" class="sm">0.0002726</text>
<rect x="100" y="285" width="76" height="12" fill="#00f"/>
<rect x="224" y="285" width="201" height="12" fill="#00f"/>
<rect x="483" y="285" width="161" height="12" fill="#00f"/>
<rect x="824" y="285" width="40" height="12" fill="#00f"/>
<line x1="176" y1="291" x2="223" y2="291" stroke="#00f"/>
<line x1="425" y1="291" x2="482" y2="291" stroke="#00f"/>
<line x1="644" y1="291" x2="823" y2="291" stroke="#00f"/>
<rect x="107" y="286" width="69" height="10" fill="#ff0"/>
<rect x="225" y="286" width="200" height="10" fill="#ff0"/>
<rect x="484" y="286" width="160" height="10" fill="#ff0"/>
<rect x="825" y="286" width="29" height="10" fill="#ff0"/>
<text x="20" y="315" class="sm">0.0001678</text>
<rect x="100" y="305" width="76" height="12" fill="#00f"/>
<rect x="224" y="305" width="201" height="12" fill="#00f"/>
<rect x="483" y="305" width="161" height="12" fill="#00f"/>
<rect x="692" y="305" width="172" height="12" fill="#00f"/>
<line x1="176" y1="311" x2="223" y2="311" stroke="#00f"/>
<line x1="425" y1="311" x2="482" y2="311" stroke="#00f"/>
<line x1="644" y1="311" x2="691" y2="311" stroke="#00f"/>
<rect x="107" y="306" width="69" height="10" fill="#ff0"/>
<rect x="225" y="306" width="200" height="10" fill="#ff0"/>
<rect x="484" y="306" width="160" height="10" fill="#ff0"/>
<rect x="693" y="306" width="41" height="10" fill="#ff0"/>
<text x="20" y="335" class="sm">0.0001158</text>
<rect x="100" y="325" width="76" height="12" fill="#00f"/>
<rect x="224" y="325" width="201" height="12" fill="#00f"/>
<rect x="483" y="325" width="202" height="12" fill="#00f"/>
<rect x="824" y="325" width="40" height="12" fill="#00f"/>
<line x1="176" y1="331" x2="223" y2="331" stroke="#00f"/>
<line x1="425" y1="331" x2="482" y2="331" stroke="#00f"/>
<line x1="685" y1="331" x2="823" y2="331" stroke="#00f"/>
<rect x="550" y="326" width="98" height="10" fill="#ff0"/>
<text x="20" y="355" class="sm">9.631e-05</text>
<rect x="100" y="345" width="76" height="12" fill="#00f"/>
<rect x="224" y="345" width="201" height="12" fill="#00f"/>
<rect x="504" y="345" width="360" height="12" fill="#00f"/>
<line x1="176" y1="351" x2="223" y2="351" stroke="#00f"/>
<line x1="425" y1="351" x2="503" y2="351" stroke="#00f"/>
<rect x="107" y="346" width="69" height="10" fill="#ff0"/>
<rect x="225" y="346" width="200" height="10" fill="#ff0"/>
<rect x="505" y="346" width="229" height="10" fill="#ff0"/>
<text x="20" y="375" class="sm">8.458e-05</text>
<rect x="100" y="365" width="76" height="12" fill="#00f"/>
<rect x="224" y="365" width="201" height="12" fill="#00f"/>
<rect x="483" y="365" width="245" height="12" fill="#00f"/>
<rect x="824" y="365" width="40" height="12" fill="#00f"/>
<line x1="176" y1="371" x2="223" y2="371" stroke="#00f"/>
<line x1="425" y1="371" x2="482" y2="371" stroke="#00f"/>
<line x1="728" y1="371" x2="823" y2="371" stroke="#00f"/>
<rect x="107" y="366" width="69" height="10" fill="#ff0"/>
<rect x="225" y="366" width="200" height="10" fill="#ff0"/>
<rect x="484" y="366" width="244" height="10" fill="#ff0"/>
<rect x="825" y="366" width="29" height="10" fill="#ff0"/>
<text x="20" y="395" class="sm">8.424e-05</text>
<rect x="100" y="385" width="76" height="12" fill="#00f"/>
<rect x="224" y="385" width="201" height="12" fill="#00f"/>
<rect x="617" y="385" width="247" height="12" fill="#00f"/>
<line x1="176" y1="391" x2="223" y2="391" stroke="#00f"/>
<line x1="425" y1="391" x2="616" y2="391" stroke="#00f"/>
<rect x="107" y="386" width="69" height="10" fill="#ff0"/>
<rect x="225" y="386" width="200" height="10" fill="#ff0"/>
<rect x="618" y="386" width="37" height="10" fill="#ff0"/>
<text x="20" y="415" class="sm">7.593e-05</text>
<rect x="100" y="405" width="76" height="12" fill="#00f"/>
<rect x="224" y="405" width="201" height="12" fill="#00f"/>
<rect x="483" y="405" width="161" height="12" fill="#00f"/>
<rect x="807" y="405" width="57" height="12" fill="#00f"/>
<line x1="176" y1="411" x2="223" y2="411" stroke="#00f"/>
<line x1="425" y1="411" x2="482" y2="411" stroke="#00f"/>
<line x1="644" y1="411" x2="806" y2="411" stroke="#00f"/>
<rect x="550" y="406" width="94" height="10" fill="#ff0"/>
<rect x="808" y="406" width="15" height="10" fill="#ff0"/>
<text x="20" y="435" class="sm">6.388e-05</text>
<rect x="100" y="425" width="76" height="12" fill="#00f"/>
<rect x="224" y="425" width="201" height="12" fill="#00f"/>
<rect x="483" y="425" width="287" height="12" fill="#00f"/>
<rect x="824" y="425" width="40" height="12" fill="#00f"/>
<line x1="176" y1="431" x2="223" y2="431" stroke="#00f"/>
<line x1="425" y1="431" x2="482" y2="431" stroke="#00f"/>
<line x1="770" y1="431" x2="823" y2="431" stroke="#00f"/>
<rect x="107" y="426" width="69" height="10" fill="#ff0"/>
<rect x="225" y="426" width="200" height="10" fill="#ff0"/>
<rect x="484" y="426" width="250" height="10" fill="#ff0"/>
<text x="20" y="455" class="sm">6.081e-05</text>
<rect x="100" y="445" width="76" height="12" fill="#00f"/>
<rect x="224" y="445" width="201" height="12" fill="#00f"/>
<rect x="483" y="445" width="142" height="12" fill="#00f"/>
<rect x="824" y="445" width="40" height="12" fill="#00f"/>
<line x1="176" y1="451" x2="223" y2="451" stroke="#00f"/>
<line x1="425" y1="451" x2="482" y2="451" stroke="#00f"/>
<line x1="625" y1="451" x2="823" y2="451" stroke="#00f"/>
<rect x="550" y="446" width="75" height="10" fill="#ff0"/>
<rect x="825" y="446" width="25" height="10" fill="#ff0"/>
<text x="20" y="475" class="sm">5.718e-05</text>
<rect x="100" y="465" width="76" height="12" fill="#00f"/>
<rect x="224" y="465" width="201" height="12" fill="#00f"/>
<rect x="483" y="465" width="167" height="12" fill="#00f"/>
<rect x="824" y="465" width="40" height="12" fill="#00f"/>
<line x1="176" y1="471" x2="223" y2="471" stroke="#00f"/>
<line x1="425" y1="471" x2="482" y2="471" stroke="#00f"/>
<line x1="650" y1="471" x2="823" y2="471" stroke="#00f"/>
<rect x="107" y="466" width="69" height="10" fill="#ff0"/>
<rect x="225" y="466" width="200" height="10" fill="#ff0"/>
<rect x="484" y="466" width="166" height="10" fill="#ff0"/>
<rect x="825" y="466" width="29" height="10" fill="#ff0"/>
<text x="20" y="495" class="sm">4.694e-05</text>
<rect x="100" y="485" width="76" height="12" fill="#00f"/>
<rect x="224" y="485" width="201" height="12" fill="#00f"/>
<rect x="483" y="485" width="161" height="12" fill="#00f"/>
<rect x="798" y="485" width="66" height="12" fill="#00f"/>
<line x1="176" y1="491" x2="223" y2="491" stroke="#00f"/>
<line x1="425" y1="491" x2="482" y2="491" stroke="#00f"/>
<line x1="644" y1="491" x2="797" y2="491" stroke="#00f"/>
<rect x="107" y="486" width="69" height="10" fill="#ff0"/>
<rect x="225" y="486" width="200" height="10" fill="#ff0"/>
<rect x="484" y="486" width="160" height="10" fill="#ff0"/>
<rect x="799" y="486" width="8" height="10" fill="#ff0"/>
<text x="20" y="515" class="sm">4.323e-05</text>
<rect x="100" y="505" width="76" height="12" fill="#00f"/>
<rect x="224" y="505" width="201" height="12" fill="#00f"/>
<rect x="483" y="505" width="285" height="12" fill="#00f"/>
<rect x="807" y="505" width="57" height="12" fill="#00f"/>
<line x1="176" y1="511" x2="223" y2="511" stroke="#00f"/>
<line x1="425" y1="511" x2="482" y2="511" stroke="#00f"/>
<line x1="768" y1="511" x2="806" y2="511" stroke="#00f"/>
<rect x="107" y="506" width="69" height="10" fill="#ff0"/>
<rect x="225" y="506" width="200" height="10" fill="#ff0"/>
<rect x="484" y="506" width="250" height="10" fill="#ff0"/>
<text x="20" y="535" class="sm">4.293e-05</text>
<rect x="100" y="525" width="76" height="12" fill="#00f"/>
<rect x="224" y="525" width="201" height="12" fill="#00f"/>
<rect x="483" y="525" width="102" height="12" fill="#00f"/>
<rect x="824" y="525" width="40" height="12" fill="#00f"/>
<line x1="176" y1="531" x2="223" y2="531" stroke="#00f"/>
<line x1="425" y1="531" x2="482" y2="531" stroke="#00f"/>
<line x1="585" y1="531" x2="823" y2="531" stroke="#00f"/>
<rect x="107" y="526" width="69" height="10" fill="#ff0"/>
<rect x="225" y="526" width="200" height="10" fill="#ff0"/>
<rect x="484" y="526" width="101" height="10" fill="#ff0"/>
<rect x="825" y="526" width="25" height="10" fill="#ff0"/>
</svg>
