<svg viewBox="0 0 909 525" xmlns="http://www.w3.org/2000/svg">

<style>
  .sm { font: 12px sans-serif; }
  .lg { font: 15px sans-serif; }
</style>
<rect fill="#ddd" x="0" y="0" width="100%" height="100%"/>
<text x="20" y="20" class="lg">ch.8764 III:11580594-11581502 Gene:WBGene00013432</text>
<text x="20" y="50" class="sm">WormBase</text>
<rect x="102" y="40" width="126" height="12" fill="#00f"/>
<rect x="279" y="40" width="117" height="12" fill="#00f"/>
<rect x="465" y="40" width="346" height="12" fill="#00f"/>
<line x1="228" y1="46" x2="278" y2="46" stroke="#00f"/>
<line x1="396" y1="46" x2="464" y2="46" stroke="#00f"/>
<rect x="103" y="41" width="125" height="10" fill="#ff0"/>
<rect x="280" y="41" width="116" height="10" fill="#ff0"/>
<rect x="466" y="41" width="167" height="10" fill="#ff0"/>
<rect x="634" y="41" width="177" height="10" fill="brown"><title>.</title></rect>
<text x="20" y="70" class="sm">Fitness: 0.20551380499895597</text>
<rect x="396" y="65" width="69" height="5" fill="#00f"><title>109145.0</title></rect>
<rect x="228" y="70" width="51" height="5" fill="#00f"><title>95090.0</title></rect>
<rect x="657" y="75" width="53" height="5" fill="#f0f"><title>7.0</title></rect>
<rect x="141" y="80" width="150" height="5" fill="#f0f"><title>5.0</title></rect>
<rect x="424" y="85" width="59" height="5" fill="#f0f"><title>3.0</title></rect>
<text x="20" y="115" class="sm">0.5477</text>
<rect x="100" y="105" width="296" height="12" fill="#00f"/>
<rect x="465" y="105" width="347" height="12" fill="#00f"/>
<line x1="396" y1="111" x2="464" y2="111" stroke="#00f"/>
<rect x="231" y="106" width="134" height="10" fill="#ff0"/>
<text x="20" y="135" class="sm">0.3628</text>
<rect x="100" y="125" width="128" height="12" fill="#00f"/>
<rect x="279" y="125" width="533" height="12" fill="#00f"/>
<line x1="228" y1="131" x2="278" y2="131" stroke="#00f"/>
<rect x="103" y="126" width="125" height="10" fill="#ff0"/>
<rect x="280" y="126" width="149" height="10" fill="#ff0"/>
<text x="20" y="155" class="sm">0.07975</text>
<rect x="100" y="145" width="270" height="12" fill="#00f"/>
<rect x="465" y="145" width="347" height="12" fill="#00f"/>
<line x1="370" y1="151" x2="464" y2="151" stroke="#00f"/>
<rect x="231" y="146" width="134" height="10" fill="#ff0"/>
<text x="20" y="175" class="sm">0.00734</text>
<rect x="100" y="165" width="268" height="12" fill="#00f"/>
<rect x="465" y="165" width="347" height="12" fill="#00f"/>
<line x1="368" y1="171" x2="464" y2="171" stroke="#00f"/>
<rect x="231" y="166" width="134" height="10" fill="#ff0"/>
<text x="20" y="195" class="sm">0.00192</text>
<rect x="100" y="185" width="559" height="12" fill="#00f"/>
<rect x="721" y="185" width="91" height="12" fill="#00f"/>
<line x1="659" y1="191" x2="720" y2="191" stroke="#00f"/>
<rect x="542" y="186" width="117" height="10" fill="#ff0"/>
<rect x="722" y="186" width="73" height="10" fill="#ff0"/>
<text x="20" y="215" class="sm">0.0002946</text>
<rect x="100" y="205" width="128" height="12" fill="#00f"/>
<rect x="265" y="205" width="547" height="12" fill="#00f"/>
<line x1="228" y1="211" x2="264" y2="211" stroke="#00f"/>
<rect x="103" y="206" width="125" height="10" fill="#ff0"/>
<rect x="266" y="206" width="29" height="10" fill="#ff0"/>
<text x="20" y="235" class="sm">6.037e-05</text>
<rect x="100" y="225" width="128" height="12" fill="#00f"/>
<rect x="314" y="225" width="498" height="12" fill="#00f"/>
<line x1="228" y1="231" x2="313" y2="231" stroke="#00f"/>
<rect x="103" y="226" width="125" height="10" fill="#ff0"/>
<rect x="315" y="226" width="50" height="10" fill="#ff0"/>
<text x="20" y="255" class="sm">4.393e-05</text>
<rect x="100" y="245" width="128" height="12" fill="#00f"/>
<rect x="279" y="245" width="117" height="12" fill="#00f"/>
<rect x="465" y="245" width="347" height="12" fill="#00f"/>
<line x1="228" y1="251" x2="278" y2="251" stroke="#00f"/>
<line x1="396" y1="251" x2="464" y2="251" stroke="#00f"/>
<rect x="103" y="246" width="125" height="10" fill="#ff0"/>
<rect x="280" y="246" width="116" height="10" fill="#ff0"/>
<rect x="466" y="246" width="167" height="10" fill="#ff0"/>
<text x="20" y="275" class="sm">2.278e-05</text>
<rect x="100" y="265" width="518" height="12" fill="#00f"/>
<rect x="721" y="265" width="91" height="12" fill="#00f"/>
<line x1="618" y1="271" x2="720" y2="271" stroke="#00f"/>
<rect x="231" y="266" width="134" height="10" fill="#ff0"/>
<text x="20" y="295" class="sm">1.955e-05</text>
<rect x="100" y="285" width="282" height="12" fill="#00f"/>
<rect x="465" y="285" width="347" height="12" fill="#00f"/>
<line x1="382" y1="291" x2="464" y2="291" stroke="#00f"/>
<rect x="231" y="286" width="134" height="10" fill="#ff0"/>
<text x="20" y="315" class="sm">1.072e-05</text>
<rect x="100" y="305" width="128" height="12" fill="#00f"/>
<rect x="465" y="305" width="347" height="12" fill="#00f"/>
<line x1="228" y1="311" x2="464" y2="311" stroke="#00f"/>
<rect x="103" y="306" width="125" height="10" fill="#ff0"/>
<rect x="466" y="306" width="167" height="10" fill="#ff0"/>
<text x="20" y="335" class="sm">1.027e-05</text>
<rect x="100" y="325" width="494" height="12" fill="#00f"/>
<rect x="721" y="325" width="91" height="12" fill="#00f"/>
<line x1="594" y1="331" x2="720" y2="331" stroke="#00f"/>
<rect x="231" y="326" width="134" height="10" fill="#ff0"/>
<text x="20" y="355" class="sm">8.022e-06</text>
<rect x="100" y="345" width="128" height="12" fill="#00f"/>
<rect x="279" y="345" width="91" height="12" fill="#00f"/>
<rect x="465" y="345" width="347" height="12" fill="#00f"/>
<line x1="228" y1="351" x2="278" y2="351" stroke="#00f"/>
<line x1="370" y1="351" x2="464" y2="351" stroke="#00f"/>
<rect x="103" y="346" width="125" height="10" fill="#ff0"/>
<rect x="280" y="346" width="90" height="10" fill="#ff0"/>
<rect x="466" y="346" width="1" height="10" fill="#ff0"/>
<text x="20" y="375" class="sm">4.678e-06</text>
<rect x="100" y="365" width="238" height="12" fill="#00f"/>
<rect x="465" y="365" width="347" height="12" fill="#00f"/>
<line x1="338" y1="371" x2="464" y2="371" stroke="#00f"/>
<rect x="231" y="366" width="107" height="10" fill="#ff0"/>
<rect x="466" y="366" width="167" height="10" fill="#ff0"/>
<text x="20" y="395" class="sm">4.502e-06</text>
<rect x="100" y="385" width="463" height="12" fill="#00f"/>
<rect x="721" y="385" width="91" height="12" fill="#00f"/>
<line x1="563" y1="391" x2="720" y2="391" stroke="#00f"/>
<rect x="231" y="386" width="134" height="10" fill="#ff0"/>
<text x="20" y="415" class="sm">2.636e-06</text>
<rect x="100" y="405" width="559" height="12" fill="#00f"/>
<rect x="735" y="405" width="77" height="12" fill="#00f"/>
<line x1="659" y1="411" x2="734" y2="411" stroke="#00f"/>
<rect x="542" y="406" width="117" height="10" fill="#ff0"/>
<rect x="736" y="406" width="31" height="10" fill="#ff0"/>
<text x="20" y="435" class="sm">1.906e-06</text>
<rect x="100" y="425" width="296" height="12" fill="#00f"/>
<rect x="721" y="425" width="91" height="12" fill="#00f"/>
<line x1="396" y1="431" x2="720" y2="431" stroke="#00f"/>
<rect x="231" y="426" width="134" height="10" fill="#ff0"/>
<text x="20" y="455" class="sm">7.255e-07</text>
<rect x="100" y="445" width="128" height="12" fill="#00f"/>
<rect x="279" y="445" width="89" height="12" fill="#00f"/>
<rect x="465" y="445" width="347" height="12" fill="#00f"/>
<line x1="228" y1="451" x2="278" y2="451" stroke="#00f"/>
<line x1="368" y1="451" x2="464" y2="451" stroke="#00f"/>
<rect x="103" y="446" width="125" height="10" fill="#ff0"/>
<rect x="280" y="446" width="88" height="10" fill="#ff0"/>
<rect x="466" y="446" width="198" height="10" fill="#ff0"/>
<text x="20" y="475" class="sm">6.676e-07</text>
<rect x="100" y="465" width="128" height="12" fill="#00f"/>
<rect x="288" y="465" width="524" height="12" fill="#00f"/>
<line x1="228" y1="471" x2="287" y2="471" stroke="#00f"/>
<rect x="103" y="466" width="125" height="10" fill="#ff0"/>
<rect x="289" y="466" width="140" height="10" fill="#ff0"/>
<text x="20" y="495" class="sm">6.464e-07</text>
<rect x="100" y="485" width="270" height="12" fill="#00f"/>
<rect x="721" y="485" width="91" height="12" fill="#00f"/>
<line x1="370" y1="491" x2="720" y2="491" stroke="#00f"/>
<rect x="231" y="486" width="134" height="10" fill="#ff0"/>
</svg>
