<svg viewBox="0 0 783 520" xmlns="http://www.w3.org/2000/svg">

<style>
  .sm { font: 12px sans-serif; }
  .lg { font: 15px sans-serif; }
</style>
<rect fill="#ddd" x="0" y="0" width="100%" height="100%"/>
<text x="20" y="20" class="lg">ch.8085 III:8318578-8319360 Gene:WBGene00017360</text>
<text x="20" y="50" class="sm">WormBase</text>
<rect x="102" y="40" width="190" height="12" fill="#00f"/>
<rect x="349" y="40" width="336" height="12" fill="#00f"/>
<line x1="292" y1="46" x2="348" y2="46" stroke="#00f"/>
<rect x="225" y="41" width="67" height="10" fill="#ff0"/>
<rect x="350" y="41" width="267" height="10" fill="#ff0"/>
<rect x="103" y="41" width="121" height="10" fill="brown"><title>.</title></rect>
<rect x="618" y="41" width="67" height="10" fill="brown"><title>.</title></rect>
<text x="20" y="70" class="sm">Fitness: 3.337683203702867e-05</text>
<rect x="292" y="65" width="57" height="5" fill="#00f"><title>658908.0</title></rect>
<rect x="292" y="70" width="64" height="5" fill="#00f"><title>11.0</title></rect>
<rect x="292" y="75" width="182" height="5" fill="#00f"><title>7.0</title></rect>
<rect x="135" y="80" width="89" height="5" fill="#00f"><title>7.0</title></rect>
<text x="20" y="110" class="sm">1.0</text>
<rect x="100" y="100" width="192" height="12" fill="#00f"/>
<rect x="349" y="100" width="337" height="12" fill="#00f"/>
<line x1="292" y1="106" x2="348" y2="106" stroke="#00f"/>
<rect x="225" y="101" width="67" height="10" fill="#ff0"/>
<rect x="350" y="101" width="267" height="10" fill="#ff0"/>
<text x="20" y="130" class="sm">1.297e-05</text>
<rect x="100" y="120" width="192" height="12" fill="#00f"/>
<rect x="474" y="120" width="212" height="12" fill="#00f"/>
<line x1="292" y1="126" x2="473" y2="126" stroke="#00f"/>
<rect x="250" y="121" width="42" height="10" fill="#ff0"/>
<rect x="475" y="121" width="142" height="10" fill="#ff0"/>
<text x="20" y="150" class="sm">1.18e-05</text>
<rect x="100" y="140" width="35" height="12" fill="#00f"/>
<rect x="224" y="140" width="68" height="12" fill="#00f"/>
<rect x="349" y="140" width="337" height="12" fill="#00f"/>
<line x1="135" y1="146" x2="223" y2="146" stroke="#00f"/>
<line x1="292" y1="146" x2="348" y2="146" stroke="#00f"/>
<rect x="260" y="141" width="32" height="10" fill="#ff0"/>
<rect x="350" y="141" width="302" height="10" fill="#ff0"/>
<text x="20" y="170" class="sm">4.421e-06</text>
<rect x="100" y="160" width="192" height="12" fill="#00f"/>
<rect x="349" y="160" width="238" height="12" fill="#00f"/>
<rect x="646" y="160" width="40" height="12" fill="#00f"/>
<line x1="292" y1="166" x2="348" y2="166" stroke="#00f"/>
<line x1="587" y1="166" x2="645" y2="166" stroke="#00f"/>
<rect x="225" y="161" width="67" height="10" fill="#ff0"/>
<rect x="350" y="161" width="237" height="10" fill="#ff0"/>
<rect x="647" y="161" width="35" height="10" fill="#ff0"/>
<text x="20" y="190" class="sm">3.789e-06</text>
<rect x="100" y="180" width="184" height="12" fill="#00f"/>
<rect x="349" y="180" width="337" height="12" fill="#00f"/>
<line x1="284" y1="186" x2="348" y2="186" stroke="#00f"/>
<rect x="250" y="181" width="34" height="10" fill="#ff0"/>
<rect x="350" y="181" width="267" height="10" fill="#ff0"/>
<text x="20" y="210" class="sm">6.512e-07</text>
<rect x="100" y="200" width="35" height="12" fill="#00f"/>
<rect x="203" y="200" width="89" height="12" fill="#00f"/>
<rect x="349" y="200" width="337" height="12" fill="#00f"/>
<line x1="135" y1="206" x2="202" y2="206" stroke="#00f"/>
<line x1="292" y1="206" x2="348" y2="206" stroke="#00f"/>
<rect x="225" y="201" width="67" height="10" fill="#ff0"/>
<rect x="350" y="201" width="267" height="10" fill="#ff0"/>
<text x="20" y="230" class="sm">2.818e-07</text>
<rect x="100" y="220" width="196" height="12" fill="#00f"/>
<rect x="349" y="220" width="337" height="12" fill="#00f"/>
<line x1="296" y1="226" x2="348" y2="226" stroke="#00f"/>
<rect x="250" y="221" width="46" height="10" fill="#ff0"/>
<rect x="350" y="221" width="267" height="10" fill="#ff0"/>
<text x="20" y="250" class="sm">1.999e-07</text>
<rect x="100" y="240" width="192" height="12" fill="#00f"/>
<rect x="349" y="240" width="40" height="12" fill="#00f"/>
<rect x="474" y="240" width="212" height="12" fill="#00f"/>
<line x1="292" y1="246" x2="348" y2="246" stroke="#00f"/>
<line x1="389" y1="246" x2="473" y2="246" stroke="#00f"/>
<rect x="225" y="241" width="67" height="10" fill="#ff0"/>
<rect x="350" y="241" width="39" height="10" fill="#ff0"/>
<rect x="475" y="241" width="26" height="10" fill="#ff0"/>
<text x="20" y="270" class="sm">1.954e-07</text>
<rect x="100" y="260" width="46" height="12" fill="#00f"/>
<rect x="224" y="260" width="68" height="12" fill="#00f"/>
<rect x="349" y="260" width="337" height="12" fill="#00f"/>
<line x1="146" y1="266" x2="223" y2="266" stroke="#00f"/>
<line x1="292" y1="266" x2="348" y2="266" stroke="#00f"/>
<rect x="271" y="261" width="21" height="10" fill="#ff0"/>
<rect x="350" y="261" width="313" height="10" fill="#ff0"/>
<text x="20" y="290" class="sm">1.819e-07</text>
<rect x="100" y="280" width="35" height="12" fill="#00f"/>
<rect x="224" y="280" width="462" height="12" fill="#00f"/>
<line x1="135" y1="286" x2="223" y2="286" stroke="#00f"/>
<rect x="366" y="281" width="251" height="10" fill="#ff0"/>
<text x="20" y="310" class="sm">1.714e-07</text>
<rect x="100" y="300" width="32" height="12" fill="#00f"/>
<rect x="224" y="300" width="68" height="12" fill="#00f"/>
<rect x="349" y="300" width="337" height="12" fill="#00f"/>
<line x1="132" y1="306" x2="223" y2="306" stroke="#00f"/>
<line x1="292" y1="306" x2="348" y2="306" stroke="#00f"/>
<rect x="257" y="301" width="35" height="10" fill="#ff0"/>
<rect x="350" y="301" width="299" height="10" fill="#ff0"/>
<text x="20" y="330" class="sm">1.295e-07</text>
<rect x="100" y="320" width="192" height="12" fill="#00f"/>
<rect x="349" y="320" width="211" height="12" fill="#00f"/>
<rect x="646" y="320" width="40" height="12" fill="#00f"/>
<line x1="292" y1="326" x2="348" y2="326" stroke="#00f"/>
<line x1="560" y1="326" x2="645" y2="326" stroke="#00f"/>
<rect x="225" y="321" width="67" height="10" fill="#ff0"/>
<rect x="350" y="321" width="210" height="10" fill="#ff0"/>
<rect x="647" y="321" width="35" height="10" fill="#ff0"/>
<text x="20" y="350" class="sm">7.12e-08</text>
<rect x="100" y="340" width="192" height="12" fill="#00f"/>
<rect x="407" y="340" width="279" height="12" fill="#00f"/>
<line x1="292" y1="346" x2="406" y2="346" stroke="#00f"/>
<rect x="225" y="341" width="67" height="10" fill="#ff0"/>
<rect x="408" y="341" width="93" height="10" fill="#ff0"/>
<text x="20" y="370" class="sm">5.239e-08</text>
<rect x="100" y="360" width="487" height="12" fill="#00f"/>
<rect x="646" y="360" width="40" height="12" fill="#00f"/>
<line x1="587" y1="366" x2="645" y2="366" stroke="#00f"/>
<rect x="366" y="361" width="221" height="10" fill="#ff0"/>
<rect x="647" y="361" width="35" height="10" fill="#ff0"/>
<text x="20" y="390" class="sm">4.111e-08</text>
<rect x="100" y="380" width="46" height="12" fill="#00f"/>
<rect x="203" y="380" width="89" height="12" fill="#00f"/>
<rect x="349" y="380" width="337" height="12" fill="#00f"/>
<line x1="146" y1="386" x2="202" y2="386" stroke="#00f"/>
<line x1="292" y1="386" x2="348" y2="386" stroke="#00f"/>
<rect x="225" y="381" width="67" height="10" fill="#ff0"/>
<rect x="350" y="381" width="267" height="10" fill="#ff0"/>
<text x="20" y="410" class="sm">1.24e-08</text>
<rect x="100" y="400" width="35" height="12" fill="#00f"/>
<rect x="349" y="400" width="337" height="12" fill="#00f"/>
<line x1="135" y1="406" x2="348" y2="406" stroke="#00f"/>
<rect x="366" y="401" width="251" height="10" fill="#ff0"/>
<text x="20" y="430" class="sm">8.491e-09</text>
<rect x="100" y="420" width="35" height="12" fill="#00f"/>
<rect x="203" y="420" width="483" height="12" fill="#00f"/>
<line x1="135" y1="426" x2="202" y2="426" stroke="#00f"/>
<rect x="366" y="421" width="251" height="10" fill="#ff0"/>
<text x="20" y="450" class="sm">7.784e-09</text>
<rect x="100" y="440" width="32" height="12" fill="#00f"/>
<rect x="203" y="440" width="89" height="12" fill="#00f"/>
<rect x="349" y="440" width="337" height="12" fill="#00f"/>
<line x1="132" y1="446" x2="202" y2="446" stroke="#00f"/>
<line x1="292" y1="446" x2="348" y2="446" stroke="#00f"/>
<rect x="225" y="441" width="67" height="10" fill="#ff0"/>
<rect x="350" y="441" width="267" height="10" fill="#ff0"/>
<text x="20" y="470" class="sm">5.377e-09</text>
<rect x="100" y="460" width="289" height="12" fill="#00f"/>
<rect x="474" y="460" width="212" height="12" fill="#00f"/>
<line x1="389" y1="466" x2="473" y2="466" stroke="#00f"/>
<rect x="498" y="461" width="119" height="10" fill="#ff0"/>
<text x="20" y="490" class="sm">5.239e-09</text>
<rect x="100" y="480" width="192" height="12" fill="#00f"/>
<rect x="356" y="480" width="330" height="12" fill="#00f"/>
<line x1="292" y1="486" x2="355" y2="486" stroke="#00f"/>
<rect x="366" y="481" width="251" height="10" fill="#ff0"/>
</svg>
