<svg viewBox="0 0 795 525" xmlns="http://www.w3.org/2000/svg">

<style>
  .sm { font: 12px sans-serif; }
  .lg { font: 15px sans-serif; }
</style>
<rect fill="#ddd" x="0" y="0" width="100%" height="100%"/>
<text x="20" y="20" class="lg">ch.8339 III:9467364-9468158 Gene:WBGene00000235</text>
<text x="20" y="50" class="sm">WormBase</text>
<rect x="100" y="40" width="128" height="12" fill="#00f"/>
<rect x="283" y="40" width="412" height="12" fill="#00f"/>
<line x1="228" y1="46" x2="282" y2="46" stroke="#00f"/>
<rect x="106" y="41" width="122" height="10" fill="#ff0"/>
<rect x="284" y="41" width="146" height="10" fill="#ff0"/>
<rect x="101" y="41" width="4" height="10" fill="brown"><title>.</title></rect>
<rect x="431" y="41" width="264" height="10" fill="brown"><title>.</title></rect>
<text x="20" y="70" class="sm">Fitness: 4.586876068735592e-05</text>
<rect x="228" y="65" width="55" height="5" fill="#00f"><title>1728840.0</title></rect>
<rect x="127" y="70" width="156" height="5" fill="#00f"><title>136.0</title></rect>
<rect x="228" y="75" width="76" height="5" fill="#00f"><title>21.0</title></rect>
<rect x="232" y="80" width="51" height="5" fill="#00f"><title>8.0</title></rect>
<rect x="683" y="85" width="81" height="5" fill="#00f"><title>3.0</title></rect>
<text x="20" y="115" class="sm">0.9999</text>
<rect x="100" y="105" width="128" height="12" fill="#00f"/>
<rect x="283" y="105" width="415" height="12" fill="#00f"/>
<line x1="228" y1="111" x2="282" y2="111" stroke="#00f"/>
<rect x="106" y="106" width="122" height="10" fill="#ff0"/>
<rect x="284" y="106" width="146" height="10" fill="#ff0"/>
<text x="20" y="135" class="sm">7.556e-05</text>
<rect x="100" y="125" width="27" height="12" fill="#00f"/>
<rect x="283" y="125" width="415" height="12" fill="#00f"/>
<line x1="127" y1="131" x2="282" y2="131" stroke="#00f"/>
<rect x="483" y="126" width="44" height="10" fill="#ff0"/>
<text x="20" y="155" class="sm">2.203e-05</text>
<rect x="100" y="145" width="132" height="12" fill="#00f"/>
<rect x="283" y="145" width="415" height="12" fill="#00f"/>
<line x1="232" y1="151" x2="282" y2="151" stroke="#00f"/>
<rect x="194" y="146" width="38" height="10" fill="#ff0"/>
<rect x="284" y="146" width="146" height="10" fill="#ff0"/>
<text x="20" y="175" class="sm">1.331e-05</text>
<rect x="100" y="165" width="128" height="12" fill="#00f"/>
<rect x="304" y="165" width="394" height="12" fill="#00f"/>
<line x1="228" y1="171" x2="303" y2="171" stroke="#00f"/>
<rect x="106" y="166" width="122" height="10" fill="#ff0"/>
<rect x="305" y="166" width="125" height="10" fill="#ff0"/>
<text x="20" y="195" class="sm">2.645e-06</text>
<rect x="100" y="185" width="128" height="12" fill="#00f"/>
<rect x="319" y="185" width="379" height="12" fill="#00f"/>
<line x1="228" y1="191" x2="318" y2="191" stroke="#00f"/>
<rect x="106" y="186" width="122" height="10" fill="#ff0"/>
<rect x="320" y="186" width="110" height="10" fill="#ff0"/>
<text x="20" y="215" class="sm">1.528e-06</text>
<rect x="100" y="205" width="128" height="12" fill="#00f"/>
<rect x="522" y="205" width="176" height="12" fill="#00f"/>
<line x1="228" y1="211" x2="521" y2="211" stroke="#00f"/>
<rect x="194" y="206" width="34" height="10" fill="#ff0"/>
<rect x="523" y="206" width="54" height="10" fill="#ff0"/>
<text x="20" y="235" class="sm">7.159e-08</text>
<rect x="100" y="225" width="326" height="12" fill="#00f"/>
<rect x="522" y="225" width="176" height="12" fill="#00f"/>
<line x1="426" y1="231" x2="521" y2="231" stroke="#00f"/>
<rect x="194" y="226" width="232" height="10" fill="#ff0"/>
<rect x="523" y="226" width="54" height="10" fill="#ff0"/>
<text x="20" y="255" class="sm">4.204e-08</text>
<rect x="100" y="245" width="31" height="12" fill="#00f"/>
<rect x="283" y="245" width="415" height="12" fill="#00f"/>
<line x1="131" y1="251" x2="282" y2="251" stroke="#00f"/>
<rect x="106" y="246" width="25" height="10" fill="#ff0"/>
<rect x="284" y="246" width="33" height="10" fill="#ff0"/>
<text x="20" y="275" class="sm">3.32e-08</text>
<rect x="100" y="265" width="308" height="12" fill="#00f"/>
<rect x="522" y="265" width="176" height="12" fill="#00f"/>
<line x1="408" y1="271" x2="521" y2="271" stroke="#00f"/>
<rect x="194" y="266" width="214" height="10" fill="#ff0"/>
<rect x="523" y="266" width="54" height="10" fill="#ff0"/>
<text x="20" y="295" class="sm">1.773e-08</text>
<rect x="100" y="285" width="128" height="12" fill="#00f"/>
<rect x="323" y="285" width="375" height="12" fill="#00f"/>
<line x1="228" y1="291" x2="322" y2="291" stroke="#00f"/>
<rect x="106" y="286" width="122" height="10" fill="#ff0"/>
<rect x="324" y="286" width="26" height="10" fill="#ff0"/>
<text x="20" y="315" class="sm">1.351e-08</text>
<rect x="100" y="305" width="128" height="12" fill="#00f"/>
<rect x="598" y="305" width="100" height="12" fill="#00f"/>
<line x1="228" y1="311" x2="597" y2="311" stroke="#00f"/>
<rect x="106" y="306" width="122" height="10" fill="#ff0"/>
<rect x="599" y="306" width="50" height="10" fill="#ff0"/>
<text x="20" y="335" class="sm">4.866e-09</text>
<rect x="100" y="325" width="128" height="12" fill="#00f"/>
<rect x="353" y="325" width="345" height="12" fill="#00f"/>
<line x1="228" y1="331" x2="352" y2="331" stroke="#00f"/>
<rect x="106" y="326" width="122" height="10" fill="#ff0"/>
<rect x="354" y="326" width="14" height="10" fill="#ff0"/>
<text x="20" y="355" class="sm">4.504e-09</text>
<rect x="100" y="345" width="128" height="12" fill="#00f"/>
<rect x="328" y="345" width="370" height="12" fill="#00f"/>
<line x1="228" y1="351" x2="327" y2="351" stroke="#00f"/>
<rect x="106" y="346" width="122" height="10" fill="#ff0"/>
<rect x="329" y="346" width="101" height="10" fill="#ff0"/>
<text x="20" y="375" class="sm">1.775e-09</text>
<rect x="100" y="365" width="128" height="12" fill="#00f"/>
<rect x="527" y="365" width="171" height="12" fill="#00f"/>
<line x1="228" y1="371" x2="526" y2="371" stroke="#00f"/>
<rect x="106" y="366" width="122" height="10" fill="#ff0"/>
<rect x="528" y="366" width="38" height="10" fill="#ff0"/>
<text x="20" y="395" class="sm">1.156e-09</text>
<rect x="100" y="385" width="128" height="12" fill="#00f"/>
<rect x="365" y="385" width="333" height="12" fill="#00f"/>
<line x1="228" y1="391" x2="364" y2="391" stroke="#00f"/>
<rect x="106" y="386" width="122" height="10" fill="#ff0"/>
<rect x="366" y="386" width="2" height="10" fill="#ff0"/>
<text x="20" y="415" class="sm">8.124e-10</text>
<rect x="100" y="405" width="326" height="12" fill="#00f"/>
<rect x="598" y="405" width="100" height="12" fill="#00f"/>
<line x1="426" y1="411" x2="597" y2="411" stroke="#00f"/>
<rect x="106" y="406" width="170" height="10" fill="#ff0"/>
<text x="20" y="435" class="sm">5.227e-10</text>
<rect x="100" y="425" width="298" height="12" fill="#00f"/>
<rect x="522" y="425" width="176" height="12" fill="#00f"/>
<line x1="398" y1="431" x2="521" y2="431" stroke="#00f"/>
<rect x="194" y="426" width="204" height="10" fill="#ff0"/>
<rect x="523" y="426" width="4" height="10" fill="#ff0"/>
<text x="20" y="455" class="sm">4.569e-10</text>
<rect x="100" y="445" width="132" height="12" fill="#00f"/>
<rect x="304" y="445" width="394" height="12" fill="#00f"/>
<line x1="232" y1="451" x2="303" y2="451" stroke="#00f"/>
<rect x="194" y="446" width="38" height="10" fill="#ff0"/>
<rect x="305" y="446" width="125" height="10" fill="#ff0"/>
<text x="20" y="475" class="sm">4.273e-10</text>
<rect x="100" y="465" width="128" height="12" fill="#00f"/>
<rect x="421" y="465" width="277" height="12" fill="#00f"/>
<line x1="228" y1="471" x2="420" y2="471" stroke="#00f"/>
<rect x="106" y="466" width="122" height="10" fill="#ff0"/>
<rect x="422" y="466" width="8" height="10" fill="#ff0"/>
<text x="20" y="495" class="sm">3.789e-10</text>
<rect x="100" y="485" width="62" height="12" fill="#00f"/>
<rect x="283" y="485" width="415" height="12" fill="#00f"/>
<line x1="162" y1="491" x2="282" y2="491" stroke="#00f"/>
<rect x="106" y="486" width="56" height="10" fill="#ff0"/>
<rect x="284" y="486" width="146" height="10" fill="#ff0"/>
</svg>
