<svg viewBox="0 0 817 550" xmlns="http://www.w3.org/2000/svg">

<style>
  .sm { font: 12px sans-serif; }
  .lg { font: 15px sans-serif; }
</style>
<rect fill="#ddd" x="0" y="0" width="100%" height="100%"/>
<text x="20" y="20" class="lg">ch.8786 III:11718734-11719550 Gene:WBGene00001235</text>
<text x="20" y="50" class="sm">WormBase</text>
<rect x="102" y="40" width="127" height="12" fill="#00f"/>
<rect x="278" y="40" width="114" height="12" fill="#00f"/>
<rect x="439" y="40" width="280" height="12" fill="#00f"/>
<line x1="229" y1="46" x2="277" y2="46" stroke="#00f"/>
<line x1="392" y1="46" x2="438" y2="46" stroke="#00f"/>
<rect x="113" y="41" width="116" height="10" fill="#ff0"/>
<rect x="279" y="41" width="113" height="10" fill="#ff0"/>
<rect x="440" y="41" width="125" height="10" fill="#ff0"/>
<rect x="103" y="41" width="9" height="10" fill="brown"><title>.</title></rect>
<rect x="566" y="41" width="153" height="10" fill="brown"><title>.</title></rect>
<text x="20" y="70" class="sm">Fitness: 0.0017317288061602454</text>
<rect x="392" y="65" width="47" height="5" fill="#00f"><title>572246.0</title></rect>
<rect x="229" y="70" width="49" height="5" fill="#00f"><title>486053.0</title></rect>
<rect x="139" y="75" width="139" height="5" fill="#00f"><title>69.0</title></rect>
<rect x="229" y="80" width="41" height="5" fill="#00f"><title>37.0</title></rect>
<rect x="269" y="85" width="170" height="5" fill="#00f"><title>11.0</title></rect>
<rect x="392" y="90" width="60" height="5" fill="#00f"><title>10.0</title></rect>
<rect x="514" y="95" width="36" height="5" fill="#00f"><title>6.0</title></rect>
<rect x="229" y="100" width="39" height="5" fill="#00f"><title>6.0</title></rect>
<rect x="408" y="105" width="66" height="5" fill="#f0f"><title>5.0</title></rect>
<rect x="201" y="110" width="100" height="5" fill="#f0f"><title>3.0</title></rect>
<text x="20" y="140" class="sm">0.5403</text>
<rect x="100" y="130" width="292" height="12" fill="#00f"/>
<rect x="439" y="130" width="281" height="12" fill="#00f"/>
<line x1="392" y1="136" x2="438" y2="136" stroke="#00f"/>
<rect x="262" y="131" width="130" height="10" fill="#ff0"/>
<rect x="440" y="131" width="153" height="10" fill="#ff0"/>
<text x="20" y="160" class="sm">0.4588</text>
<rect x="100" y="150" width="129" height="12" fill="#00f"/>
<rect x="278" y="150" width="442" height="12" fill="#00f"/>
<line x1="229" y1="156" x2="277" y2="156" stroke="#00f"/>
<rect x="113" y="151" width="116" height="10" fill="#ff0"/>
<rect x="279" y="151" width="140" height="10" fill="#ff0"/>
<text x="20" y="180" class="sm">0.0004491</text>
<rect x="100" y="170" width="90" height="12" fill="#00f"/>
<rect x="278" y="170" width="442" height="12" fill="#00f"/>
<line x1="190" y1="176" x2="277" y2="176" stroke="#00f"/>
<rect x="445" y="171" width="257" height="10" fill="#ff0"/>
<text x="20" y="200" class="sm">0.0003145</text>
<rect x="100" y="190" width="276" height="12" fill="#00f"/>
<rect x="439" y="190" width="281" height="12" fill="#00f"/>
<line x1="376" y1="196" x2="438" y2="196" stroke="#00f"/>
<rect x="262" y="191" width="114" height="10" fill="#ff0"/>
<rect x="440" y="191" width="262" height="10" fill="#ff0"/>
<text x="20" y="220" class="sm">6.882e-05</text>
<rect x="100" y="210" width="129" height="12" fill="#00f"/>
<rect x="439" y="210" width="281" height="12" fill="#00f"/>
<line x1="229" y1="216" x2="438" y2="216" stroke="#00f"/>
<rect x="445" y="211" width="257" height="10" fill="#ff0"/>
<text x="20" y="240" class="sm">1.247e-05</text>
<rect x="100" y="230" width="129" height="12" fill="#00f"/>
<rect x="268" y="230" width="452" height="12" fill="#00f"/>
<line x1="229" y1="236" x2="267" y2="236" stroke="#00f"/>
<rect x="445" y="231" width="257" height="10" fill="#ff0"/>
<text x="20" y="260" class="sm">8.58e-06</text>
<rect x="100" y="250" width="39" height="12" fill="#00f"/>
<rect x="278" y="250" width="442" height="12" fill="#00f"/>
<line x1="139" y1="256" x2="277" y2="256" stroke="#00f"/>
<rect x="445" y="251" width="257" height="10" fill="#ff0"/>
<text x="20" y="280" class="sm">6.122e-06</text>
<rect x="100" y="270" width="90" height="12" fill="#00f"/>
<rect x="439" y="270" width="281" height="12" fill="#00f"/>
<line x1="190" y1="276" x2="438" y2="276" stroke="#00f"/>
<rect x="445" y="271" width="257" height="10" fill="#ff0"/>
<text x="20" y="300" class="sm">5.534e-06</text>
<rect x="100" y="290" width="292" height="12" fill="#00f"/>
<rect x="530" y="290" width="190" height="12" fill="#00f"/>
<line x1="392" y1="296" x2="529" y2="296" stroke="#00f"/>
<rect x="262" y="291" width="130" height="10" fill="#ff0"/>
<rect x="531" y="291" width="171" height="10" fill="#ff0"/>
<text x="20" y="320" class="sm">5.473e-06</text>
<rect x="100" y="310" width="129" height="12" fill="#00f"/>
<rect x="285" y="310" width="435" height="12" fill="#00f"/>
<line x1="229" y1="316" x2="284" y2="316" stroke="#00f"/>
<rect x="445" y="311" width="257" height="10" fill="#ff0"/>
<text x="20" y="340" class="sm">4.959e-06</text>
<rect x="100" y="330" width="292" height="12" fill="#00f"/>
<rect x="452" y="330" width="268" height="12" fill="#00f"/>
<line x1="392" y1="336" x2="451" y2="336" stroke="#00f"/>
<rect x="262" y="331" width="130" height="10" fill="#ff0"/>
<rect x="453" y="331" width="249" height="10" fill="#ff0"/>
<text x="20" y="360" class="sm">4.888e-06</text>
<rect x="100" y="350" width="201" height="12" fill="#00f"/>
<rect x="439" y="350" width="281" height="12" fill="#00f"/>
<line x1="301" y1="356" x2="438" y2="356" stroke="#00f"/>
<rect x="262" y="351" width="39" height="10" fill="#ff0"/>
<rect x="440" y="351" width="262" height="10" fill="#ff0"/>
<text x="20" y="380" class="sm">3.33e-06</text>
<rect x="100" y="370" width="90" height="12" fill="#00f"/>
<rect x="236" y="370" width="484" height="12" fill="#00f"/>
<line x1="190" y1="376" x2="235" y2="376" stroke="#00f"/>
<rect x="113" y="371" width="77" height="10" fill="#ff0"/>
<rect x="237" y="371" width="182" height="10" fill="#ff0"/>
<text x="20" y="400" class="sm">4.033e-07</text>
<rect x="100" y="390" width="184" height="12" fill="#00f"/>
<rect x="439" y="390" width="281" height="12" fill="#00f"/>
<line x1="284" y1="396" x2="438" y2="396" stroke="#00f"/>
<rect x="445" y="391" width="257" height="10" fill="#ff0"/>
<text x="20" y="420" class="sm">3.009e-07</text>
<rect x="100" y="410" width="129" height="12" fill="#00f"/>
<rect x="278" y="410" width="114" height="12" fill="#00f"/>
<rect x="439" y="410" width="281" height="12" fill="#00f"/>
<line x1="229" y1="416" x2="277" y2="416" stroke="#00f"/>
<line x1="392" y1="416" x2="438" y2="416" stroke="#00f"/>
<rect x="113" y="411" width="116" height="10" fill="#ff0"/>
<rect x="279" y="411" width="113" height="10" fill="#ff0"/>
<rect x="440" y="411" width="125" height="10" fill="#ff0"/>
<text x="20" y="440" class="sm">2.972e-07</text>
<rect x="100" y="430" width="90" height="12" fill="#00f"/>
<rect x="257" y="430" width="463" height="12" fill="#00f"/>
<line x1="190" y1="436" x2="256" y2="436" stroke="#00f"/>
<rect x="445" y="431" width="257" height="10" fill="#ff0"/>
<text x="20" y="460" class="sm">2.206e-07</text>
<rect x="100" y="450" width="169" height="12" fill="#00f"/>
<rect x="439" y="450" width="281" height="12" fill="#00f"/>
<line x1="269" y1="456" x2="438" y2="456" stroke="#00f"/>
<rect x="445" y="451" width="257" height="10" fill="#ff0"/>
<text x="20" y="480" class="sm">1.867e-07</text>
<rect x="100" y="470" width="39" height="12" fill="#00f"/>
<rect x="439" y="470" width="281" height="12" fill="#00f"/>
<line x1="139" y1="476" x2="438" y2="476" stroke="#00f"/>
<rect x="445" y="471" width="257" height="10" fill="#ff0"/>
<text x="20" y="500" class="sm">1.822e-07</text>
<rect x="100" y="490" width="90" height="12" fill="#00f"/>
<rect x="268" y="490" width="452" height="12" fill="#00f"/>
<line x1="190" y1="496" x2="267" y2="496" stroke="#00f"/>
<rect x="445" y="491" width="257" height="10" fill="#ff0"/>
<text x="20" y="520" class="sm">8.427e-08</text>
<rect x="100" y="510" width="129" height="12" fill="#00f"/>
<rect x="530" y="510" width="190" height="12" fill="#00f"/>
<line x1="229" y1="516" x2="529" y2="516" stroke="#00f"/>
<rect x="113" y="511" width="116" height="10" fill="#ff0"/>
<rect x="531" y="511" width="62" height="10" fill="#ff0"/>
</svg>
