<svg viewBox="0 0 963 575" xmlns="http://www.w3.org/2000/svg">

<style>
  .sm { font: 12px sans-serif; }
  .lg { font: 15px sans-serif; }
</style>
<rect fill="#ddd" x="0" y="0" width="100%" height="100%"/>
<text x="20" y="20" class="lg">ch.8128 III:8449657-8450619 Gene:WBGene00016249</text>
<text x="20" y="50" class="sm">WormBase</text>
<rect x="100" y="40" width="230" height="12" fill="#00f"/>
<rect x="381" y="40" width="203" height="12" fill="#00f"/>
<rect x="630" y="40" width="233" height="12" fill="#00f"/>
<line x1="330" y1="46" x2="380" y2="46" stroke="#00f"/>
<line x1="584" y1="46" x2="629" y2="46" stroke="#00f"/>
<rect x="102" y="41" width="228" height="10" fill="#ff0"/>
<rect x="382" y="41" width="202" height="10" fill="#ff0"/>
<rect x="631" y="41" width="119" height="10" fill="#ff0"/>
<rect x="101" y="41" width="0" height="10" fill="brown"><title>.</title></rect>
<rect x="751" y="41" width="112" height="10" fill="brown"><title>.</title></rect>
<text x="20" y="70" class="sm">Fitness: 0.18087992692863908</text>
<rect x="330" y="65" width="51" height="5" fill="#00f"><title>463451.0</title></rect>
<rect x="584" y="70" width="46" height="5" fill="#00f"><title>456563.0</title></rect>
<rect x="584" y="75" width="63" height="5" fill="#00f"><title>502.0</title></rect>
<rect x="738" y="80" width="117" height="5" fill="#f0f"><title>426.0</title></rect>
<rect x="493" y="85" width="362" height="5" fill="#f0f"><title>300.0</title></rect>
<rect x="496" y="90" width="359" height="5" fill="#f0f"><title>252.0</title></rect>
<rect x="334" y="95" width="52" height="5" fill="#00f"><title>138.0</title></rect>
<rect x="330" y="100" width="123" height="5" fill="#00f"><title>55.0</title></rect>
<rect x="588" y="105" width="42" height="5" fill="#00f"><title>35.0</title></rect>
<rect x="527" y="110" width="328" height="5" fill="#00f"><title>29.0</title></rect>
<rect x="238" y="115" width="311" height="5" fill="#00f"><title>10.0</title></rect>
<rect x="519" y="120" width="336" height="5" fill="#f0f"><title>8.0</title></rect>
<rect x="196" y="125" width="63" height="5" fill="#00f"><title>7.0</title></rect>
<rect x="480" y="130" width="375" height="5" fill="#f0f"><title>3.0</title></rect>
<rect x="783" y="135" width="112" height="5" fill="#00f"><title>3.0</title></rect>
<text x="20" y="165" class="sm">0.7269</text>
<rect x="100" y="155" width="230" height="12" fill="#00f"/>
<rect x="381" y="155" width="203" height="12" fill="#00f"/>
<rect x="630" y="155" width="236" height="12" fill="#00f"/>
<line x1="330" y1="161" x2="380" y2="161" stroke="#00f"/>
<line x1="584" y1="161" x2="629" y2="161" stroke="#00f"/>
<rect x="102" y="156" width="228" height="10" fill="#ff0"/>
<rect x="382" y="156" width="202" height="10" fill="#ff0"/>
<rect x="631" y="156" width="119" height="10" fill="#ff0"/>
<text x="20" y="185" class="sm">0.1263</text>
<rect x="100" y="175" width="484" height="12" fill="#00f"/>
<rect x="630" y="175" width="236" height="12" fill="#00f"/>
<line x1="584" y1="181" x2="629" y2="181" stroke="#00f"/>
<rect x="102" y="176" width="482" height="10" fill="#ff0"/>
<rect x="631" y="176" width="119" height="10" fill="#ff0"/>
<text x="20" y="205" class="sm">0.02202</text>
<rect x="100" y="195" width="230" height="12" fill="#00f"/>
<rect x="381" y="195" width="207" height="12" fill="#00f"/>
<rect x="630" y="195" width="236" height="12" fill="#00f"/>
<line x1="330" y1="201" x2="380" y2="201" stroke="#00f"/>
<line x1="588" y1="201" x2="629" y2="201" stroke="#00f"/>
<rect x="102" y="196" width="228" height="10" fill="#ff0"/>
<rect x="382" y="196" width="206" height="10" fill="#ff0"/>
<rect x="631" y="196" width="49" height="10" fill="#ff0"/>
<text x="20" y="225" class="sm">0.02023</text>
<rect x="100" y="215" width="230" height="12" fill="#00f"/>
<rect x="381" y="215" width="203" height="12" fill="#00f"/>
<rect x="630" y="215" width="101" height="12" fill="#00f"/>
<rect x="779" y="215" width="87" height="12" fill="#00f"/>
<line x1="330" y1="221" x2="380" y2="221" stroke="#00f"/>
<line x1="584" y1="221" x2="629" y2="221" stroke="#00f"/>
<line x1="731" y1="221" x2="778" y2="221" stroke="#00f"/>
<rect x="659" y="216" width="72" height="10" fill="#ff0"/>
<rect x="780" y="216" width="58" height="10" fill="#ff0"/>
<text x="20" y="245" class="sm">0.01823</text>
<rect x="100" y="235" width="242" height="12" fill="#00f"/>
<rect x="381" y="235" width="203" height="12" fill="#00f"/>
<rect x="630" y="235" width="236" height="12" fill="#00f"/>
<line x1="342" y1="241" x2="380" y2="241" stroke="#00f"/>
<line x1="584" y1="241" x2="629" y2="241" stroke="#00f"/>
<rect x="102" y="236" width="240" height="10" fill="#ff0"/>
<rect x="382" y="236" width="202" height="10" fill="#ff0"/>
<rect x="631" y="236" width="119" height="10" fill="#ff0"/>
<text x="20" y="265" class="sm">0.0182</text>
<rect x="100" y="255" width="230" height="12" fill="#00f"/>
<rect x="381" y="255" width="203" height="12" fill="#00f"/>
<rect x="630" y="255" width="45" height="12" fill="#00f"/>
<rect x="729" y="255" width="137" height="12" fill="#00f"/>
<line x1="330" y1="261" x2="380" y2="261" stroke="#00f"/>
<line x1="584" y1="261" x2="629" y2="261" stroke="#00f"/>
<line x1="675" y1="261" x2="728" y2="261" stroke="#00f"/>
<rect x="102" y="256" width="228" height="10" fill="#ff0"/>
<rect x="382" y="256" width="202" height="10" fill="#ff0"/>
<rect x="631" y="256" width="44" height="10" fill="#ff0"/>
<rect x="730" y="256" width="20" height="10" fill="#ff0"/>
<text x="20" y="285" class="sm">0.01342</text>
<rect x="100" y="275" width="289" height="12" fill="#00f"/>
<rect x="453" y="275" width="131" height="12" fill="#00f"/>
<rect x="630" y="275" width="236" height="12" fill="#00f"/>
<line x1="389" y1="281" x2="452" y2="281" stroke="#00f"/>
<line x1="584" y1="281" x2="629" y2="281" stroke="#00f"/>
<rect x="102" y="276" width="287" height="10" fill="#ff0"/>
<rect x="454" y="276" width="65" height="10" fill="#ff0"/>
<text x="20" y="305" class="sm">0.01049</text>
<rect x="100" y="295" width="230" height="12" fill="#00f"/>
<rect x="381" y="295" width="105" height="12" fill="#00f"/>
<rect x="548" y="295" width="36" height="12" fill="#00f"/>
<rect x="630" y="295" width="236" height="12" fill="#00f"/>
<line x1="330" y1="301" x2="380" y2="301" stroke="#00f"/>
<line x1="486" y1="301" x2="547" y2="301" stroke="#00f"/>
<line x1="584" y1="301" x2="629" y2="301" stroke="#00f"/>
<rect x="102" y="296" width="228" height="10" fill="#ff0"/>
<rect x="382" y="296" width="104" height="10" fill="#ff0"/>
<rect x="549" y="296" width="31" height="10" fill="#ff0"/>
<text x="20" y="325" class="sm">0.008454</text>
<rect x="100" y="315" width="230" height="12" fill="#00f"/>
<rect x="381" y="315" width="203" height="12" fill="#00f"/>
<rect x="647" y="315" width="219" height="12" fill="#00f"/>
<line x1="330" y1="321" x2="380" y2="321" stroke="#00f"/>
<line x1="584" y1="321" x2="646" y2="321" stroke="#00f"/>
<rect x="102" y="316" width="228" height="10" fill="#ff0"/>
<rect x="382" y="316" width="202" height="10" fill="#ff0"/>
<rect x="648" y="316" width="32" height="10" fill="#ff0"/>
<text x="20" y="345" class="sm">0.00831</text>
<rect x="100" y="335" width="213" height="12" fill="#00f"/>
<rect x="381" y="335" width="203" height="12" fill="#00f"/>
<rect x="630" y="335" width="236" height="12" fill="#00f"/>
<line x1="313" y1="341" x2="380" y2="341" stroke="#00f"/>
<line x1="584" y1="341" x2="629" y2="341" stroke="#00f"/>
<rect x="102" y="336" width="211" height="10" fill="#ff0"/>
<rect x="382" y="336" width="51" height="10" fill="#ff0"/>
<text x="20" y="365" class="sm">0.004188</text>
<rect x="100" y="355" width="234" height="12" fill="#00f"/>
<rect x="381" y="355" width="203" height="12" fill="#00f"/>
<rect x="630" y="355" width="236" height="12" fill="#00f"/>
<line x1="334" y1="361" x2="380" y2="361" stroke="#00f"/>
<line x1="584" y1="361" x2="629" y2="361" stroke="#00f"/>
<rect x="102" y="356" width="232" height="10" fill="#ff0"/>
<rect x="382" y="356" width="51" height="10" fill="#ff0"/>
<text x="20" y="385" class="sm">0.003811</text>
<rect x="100" y="375" width="488" height="12" fill="#00f"/>
<rect x="630" y="375" width="236" height="12" fill="#00f"/>
<line x1="588" y1="381" x2="629" y2="381" stroke="#00f"/>
<rect x="102" y="376" width="486" height="10" fill="#ff0"/>
<rect x="631" y="376" width="49" height="10" fill="#ff0"/>
<text x="20" y="405" class="sm">0.003516</text>
<rect x="100" y="395" width="484" height="12" fill="#00f"/>
<rect x="630" y="395" width="101" height="12" fill="#00f"/>
<rect x="779" y="395" width="87" height="12" fill="#00f"/>
<line x1="584" y1="401" x2="629" y2="401" stroke="#00f"/>
<line x1="731" y1="401" x2="778" y2="401" stroke="#00f"/>
<rect x="659" y="396" width="72" height="10" fill="#ff0"/>
<rect x="780" y="396" width="58" height="10" fill="#ff0"/>
<text x="20" y="425" class="sm">0.003163</text>
<rect x="100" y="415" width="484" height="12" fill="#00f"/>
<rect x="630" y="415" width="45" height="12" fill="#00f"/>
<rect x="729" y="415" width="137" height="12" fill="#00f"/>
<line x1="584" y1="421" x2="629" y2="421" stroke="#00f"/>
<line x1="675" y1="421" x2="728" y2="421" stroke="#00f"/>
<rect x="102" y="416" width="482" height="10" fill="#ff0"/>
<rect x="631" y="416" width="44" height="10" fill="#ff0"/>
<rect x="730" y="416" width="20" height="10" fill="#ff0"/>
<text x="20" y="445" class="sm">0.003159</text>
<rect x="100" y="435" width="166" height="12" fill="#00f"/>
<rect x="319" y="435" width="265" height="12" fill="#00f"/>
<rect x="630" y="435" width="236" height="12" fill="#00f"/>
<line x1="266" y1="441" x2="318" y2="441" stroke="#00f"/>
<line x1="584" y1="441" x2="629" y2="441" stroke="#00f"/>
<rect x="259" y="436" width="7" height="10" fill="#ff0"/>
<rect x="320" y="436" width="264" height="10" fill="#ff0"/>
<rect x="631" y="436" width="119" height="10" fill="#ff0"/>
<text x="20" y="465" class="sm">0.002526</text>
<rect x="100" y="455" width="230" height="12" fill="#00f"/>
<rect x="381" y="455" width="203" height="12" fill="#00f"/>
<rect x="630" y="455" width="92" height="12" fill="#00f"/>
<rect x="769" y="455" width="97" height="12" fill="#00f"/>
<line x1="330" y1="461" x2="380" y2="461" stroke="#00f"/>
<line x1="584" y1="461" x2="629" y2="461" stroke="#00f"/>
<line x1="722" y1="461" x2="768" y2="461" stroke="#00f"/>
<rect x="102" y="456" width="228" height="10" fill="#ff0"/>
<rect x="382" y="456" width="202" height="10" fill="#ff0"/>
<rect x="631" y="456" width="91" height="10" fill="#ff0"/>
<rect x="770" y="456" width="9" height="10" fill="#ff0"/>
<text x="20" y="485" class="sm">0.001945</text>
<rect x="100" y="475" width="230" height="12" fill="#00f"/>
<rect x="381" y="475" width="485" height="12" fill="#00f"/>
<line x1="330" y1="481" x2="380" y2="481" stroke="#00f"/>
<rect x="102" y="476" width="228" height="10" fill="#ff0"/>
<rect x="382" y="476" width="226" height="10" fill="#ff0"/>
<text x="20" y="505" class="sm">0.001816</text>
<rect x="100" y="495" width="386" height="12" fill="#00f"/>
<rect x="548" y="495" width="36" height="12" fill="#00f"/>
<rect x="630" y="495" width="236" height="12" fill="#00f"/>
<line x1="486" y1="501" x2="547" y2="501" stroke="#00f"/>
<line x1="584" y1="501" x2="629" y2="501" stroke="#00f"/>
<rect x="102" y="496" width="384" height="10" fill="#ff0"/>
<rect x="549" y="496" width="31" height="10" fill="#ff0"/>
<text x="20" y="525" class="sm">0.001671</text>
<rect x="100" y="515" width="230" height="12" fill="#00f"/>
<rect x="381" y="515" width="203" height="12" fill="#00f"/>
<rect x="630" y="515" width="153" height="12" fill="#00f"/>
<rect x="832" y="515" width="34" height="12" fill="#00f"/>
<line x1="330" y1="521" x2="380" y2="521" stroke="#00f"/>
<line x1="584" y1="521" x2="629" y2="521" stroke="#00f"/>
<line x1="783" y1="521" x2="831" y2="521" stroke="#00f"/>
<rect x="102" y="516" width="228" height="10" fill="#ff0"/>
<rect x="382" y="516" width="202" height="10" fill="#ff0"/>
<rect x="631" y="516" width="119" height="10" fill="#ff0"/>
<text x="20" y="545" class="sm">0.001671</text>
<rect x="100" y="535" width="230" height="12" fill="#00f"/>
<rect x="381" y="535" width="203" height="12" fill="#00f"/>
<rect x="630" y="535" width="101" height="12" fill="#00f"/>
<rect x="769" y="535" width="97" height="12" fill="#00f"/>
<line x1="330" y1="541" x2="380" y2="541" stroke="#00f"/>
<line x1="584" y1="541" x2="629" y2="541" stroke="#00f"/>
<line x1="731" y1="541" x2="768" y2="541" stroke="#00f"/>
<rect x="102" y="536" width="228" height="10" fill="#ff0"/>
<rect x="382" y="536" width="202" height="10" fill="#ff0"/>
<rect x="631" y="536" width="100" height="10" fill="#ff0"/>
<rect x="770" y="536" width="9" height="10" fill="#ff0"/>
</svg>
