<svg viewBox="0 0 732 525" xmlns="http://www.w3.org/2000/svg">

<style>
  .sm { font: 12px sans-serif; }
  .lg { font: 15px sans-serif; }
</style>
<rect fill="#ddd" x="0" y="0" width="100%" height="100%"/>
<text x="20" y="20" class="lg">ch.8209 III:8849901-8850632 Gene:WBGene00018422</text>
<text x="20" y="50" class="sm">WormBase</text>
<rect x="102" y="40" width="159" height="12" fill="#00f"/>
<rect x="316" y="40" width="318" height="12" fill="#00f"/>
<line x1="261" y1="46" x2="315" y2="46" stroke="#00f"/>
<rect x="104" y="41" width="157" height="10" fill="#ff0"/>
<rect x="317" y="41" width="210" height="10" fill="#ff0"/>
<rect x="103" y="41" width="0" height="10" fill="brown"><title>.</title></rect>
<rect x="528" y="41" width="106" height="10" fill="brown"><title>.</title></rect>
<text x="20" y="70" class="sm">Fitness: 3.599483263597533e-05</text>
<rect x="261" y="65" width="55" height="5" fill="#00f"><title>398121.0</title></rect>
<rect x="265" y="70" width="51" height="5" fill="#00f"><title>71.0</title></rect>
<rect x="261" y="75" width="57" height="5" fill="#00f"><title>58.0</title></rect>
<rect x="256" y="80" width="60" height="5" fill="#00f"><title>5.0</title></rect>
<rect x="185" y="85" width="40" height="5" fill="#f0f"><title>5.0</title></rect>
<text x="20" y="115" class="sm">0.9997</text>
<rect x="100" y="105" width="161" height="12" fill="#00f"/>
<rect x="316" y="105" width="319" height="12" fill="#00f"/>
<line x1="261" y1="111" x2="315" y2="111" stroke="#00f"/>
<rect x="104" y="106" width="157" height="10" fill="#ff0"/>
<rect x="317" y="106" width="210" height="10" fill="#ff0"/>
<text x="20" y="135" class="sm">0.0001785</text>
<rect x="100" y="125" width="165" height="12" fill="#00f"/>
<rect x="316" y="125" width="319" height="12" fill="#00f"/>
<line x1="265" y1="131" x2="315" y2="131" stroke="#00f"/>
<rect x="104" y="126" width="161" height="10" fill="#ff0"/>
<text x="20" y="155" class="sm">0.0001494</text>
<rect x="100" y="145" width="161" height="12" fill="#00f"/>
<rect x="318" y="145" width="317" height="12" fill="#00f"/>
<line x1="261" y1="151" x2="317" y2="151" stroke="#00f"/>
<rect x="104" y="146" width="157" height="10" fill="#ff0"/>
<rect x="319" y="146" width="33" height="10" fill="#ff0"/>
<text x="20" y="175" class="sm">1.061e-05</text>
<rect x="100" y="165" width="161" height="12" fill="#00f"/>
<rect x="361" y="165" width="274" height="12" fill="#00f"/>
<line x1="261" y1="171" x2="360" y2="171" stroke="#00f"/>
<rect x="104" y="166" width="157" height="10" fill="#ff0"/>
<rect x="362" y="166" width="165" height="10" fill="#ff0"/>
<text x="20" y="195" class="sm">1.171e-06</text>
<rect x="100" y="185" width="161" height="12" fill="#00f"/>
<rect x="419" y="185" width="216" height="12" fill="#00f"/>
<line x1="261" y1="191" x2="418" y2="191" stroke="#00f"/>
<rect x="104" y="186" width="157" height="10" fill="#ff0"/>
<rect x="420" y="186" width="21" height="10" fill="#ff0"/>
<text x="20" y="215" class="sm">1.038e-06</text>
<rect x="100" y="205" width="150" height="12" fill="#00f"/>
<rect x="316" y="205" width="319" height="12" fill="#00f"/>
<line x1="250" y1="211" x2="315" y2="211" stroke="#00f"/>
<rect x="104" y="206" width="146" height="10" fill="#ff0"/>
<rect x="317" y="206" width="35" height="10" fill="#ff0"/>
<text x="20" y="235" class="sm">4.494e-07</text>
<rect x="100" y="225" width="69" height="12" fill="#00f"/>
<rect x="316" y="225" width="319" height="12" fill="#00f"/>
<line x1="169" y1="231" x2="315" y2="231" stroke="#00f"/>
<rect x="420" y="226" width="107" height="10" fill="#ff0"/>
<text x="20" y="255" class="sm">3.008e-07</text>
<rect x="100" y="245" width="156" height="12" fill="#00f"/>
<rect x="316" y="245" width="319" height="12" fill="#00f"/>
<line x1="256" y1="251" x2="315" y2="251" stroke="#00f"/>
<rect x="104" y="246" width="152" height="10" fill="#ff0"/>
<rect x="317" y="246" width="35" height="10" fill="#ff0"/>
<text x="20" y="275" class="sm">2.776e-07</text>
<rect x="100" y="265" width="161" height="12" fill="#00f"/>
<rect x="431" y="265" width="204" height="12" fill="#00f"/>
<line x1="261" y1="271" x2="430" y2="271" stroke="#00f"/>
<rect x="104" y="266" width="157" height="10" fill="#ff0"/>
<rect x="432" y="266" width="9" height="10" fill="#ff0"/>
<text x="20" y="295" class="sm">2.217e-07</text>
<rect x="100" y="285" width="69" height="12" fill="#00f"/>
<rect x="276" y="285" width="359" height="12" fill="#00f"/>
<line x1="169" y1="291" x2="275" y2="291" stroke="#00f"/>
<rect x="104" y="286" width="65" height="10" fill="#ff0"/>
<rect x="277" y="286" width="80" height="10" fill="#ff0"/>
<text x="20" y="315" class="sm">8.808e-08</text>
<rect x="100" y="305" width="131" height="12" fill="#00f"/>
<rect x="316" y="305" width="319" height="12" fill="#00f"/>
<line x1="231" y1="311" x2="315" y2="311" stroke="#00f"/>
<rect x="104" y="306" width="127" height="10" fill="#ff0"/>
<rect x="317" y="306" width="210" height="10" fill="#ff0"/>
<text x="20" y="335" class="sm">4.977e-08</text>
<rect x="100" y="325" width="111" height="12" fill="#00f"/>
<rect x="316" y="325" width="319" height="12" fill="#00f"/>
<line x1="211" y1="331" x2="315" y2="331" stroke="#00f"/>
<rect x="104" y="326" width="107" height="10" fill="#ff0"/>
<rect x="317" y="326" width="35" height="10" fill="#ff0"/>
<text x="20" y="355" class="sm">2.727e-08</text>
<rect x="100" y="345" width="105" height="12" fill="#00f"/>
<rect x="316" y="345" width="319" height="12" fill="#00f"/>
<line x1="205" y1="351" x2="315" y2="351" stroke="#00f"/>
<rect x="104" y="346" width="101" height="10" fill="#ff0"/>
<rect x="317" y="346" width="35" height="10" fill="#ff0"/>
<text x="20" y="375" class="sm">2.636e-08</text>
<rect x="100" y="365" width="165" height="12" fill="#00f"/>
<rect x="318" y="365" width="317" height="12" fill="#00f"/>
<line x1="265" y1="371" x2="317" y2="371" stroke="#00f"/>
<rect x="104" y="366" width="161" height="10" fill="#ff0"/>
<text x="20" y="395" class="sm">2.375e-08</text>
<rect x="100" y="385" width="131" height="12" fill="#00f"/>
<rect x="276" y="385" width="359" height="12" fill="#00f"/>
<line x1="231" y1="391" x2="275" y2="391" stroke="#00f"/>
<rect x="104" y="386" width="127" height="10" fill="#ff0"/>
<rect x="277" y="386" width="21" height="10" fill="#ff0"/>
<text x="20" y="415" class="sm">2.239e-08</text>
<rect x="100" y="405" width="111" height="12" fill="#00f"/>
<rect x="276" y="405" width="359" height="12" fill="#00f"/>
<line x1="211" y1="411" x2="275" y2="411" stroke="#00f"/>
<rect x="104" y="406" width="107" height="10" fill="#ff0"/>
<rect x="277" y="406" width="80" height="10" fill="#ff0"/>
<text x="20" y="435" class="sm">1.331e-08</text>
<rect x="100" y="425" width="105" height="12" fill="#00f"/>
<rect x="276" y="425" width="359" height="12" fill="#00f"/>
<line x1="205" y1="431" x2="275" y2="431" stroke="#00f"/>
<rect x="104" y="426" width="101" height="10" fill="#ff0"/>
<rect x="277" y="426" width="80" height="10" fill="#ff0"/>
<text x="20" y="455" class="sm">2.219e-09</text>
<rect x="100" y="445" width="165" height="12" fill="#00f"/>
<rect x="361" y="445" width="274" height="12" fill="#00f"/>
<line x1="265" y1="451" x2="360" y2="451" stroke="#00f"/>
<rect x="104" y="446" width="161" height="10" fill="#ff0"/>
<text x="20" y="475" class="sm">1.769e-09</text>
<rect x="100" y="465" width="161" height="12" fill="#00f"/>
<rect x="442" y="465" width="193" height="12" fill="#00f"/>
<line x1="261" y1="471" x2="441" y2="471" stroke="#00f"/>
<rect x="104" y="466" width="157" height="10" fill="#ff0"/>
<rect x="443" y="466" width="84" height="10" fill="#ff0"/>
<text x="20" y="495" class="sm">6.843e-10</text>
<rect x="100" y="485" width="69" height="12" fill="#00f"/>
<rect x="257" y="485" width="378" height="12" fill="#00f"/>
<line x1="169" y1="491" x2="256" y2="491" stroke="#00f"/>
<rect x="420" y="486" width="107" height="10" fill="#ff0"/>
</svg>
