<svg viewBox="0 0 991 520" xmlns="http://www.w3.org/2000/svg">

<style>
  .sm { font: 12px sans-serif; }
  .lg { font: 15px sans-serif; }
</style>
<rect fill="#ddd" x="0" y="0" width="100%" height="100%"/>
<text x="20" y="20" class="lg">ch.8150 III:8605732-8606722 Gene:WBGene00015518</text>
<text x="20" y="50" class="sm">WormBase</text>
<rect x="100" y="40" width="138" height="12" fill="#00f"/>
<rect x="282" y="40" width="111" height="12" fill="#00f"/>
<rect x="446" y="40" width="445" height="12" fill="#00f"/>
<line x1="238" y1="46" x2="281" y2="46" stroke="#00f"/>
<line x1="393" y1="46" x2="445" y2="46" stroke="#00f"/>
<rect x="113" y="41" width="125" height="10" fill="#ff0"/>
<rect x="283" y="41" width="110" height="10" fill="#ff0"/>
<rect x="447" y="41" width="248" height="10" fill="#ff0"/>
<rect x="101" y="41" width="11" height="10" fill="brown"><title>.</title></rect>
<rect x="696" y="41" width="195" height="10" fill="brown"><title>.</title></rect>
<text x="20" y="70" class="sm">Fitness: 0.15885871660888223</text>
<rect x="393" y="65" width="53" height="5" fill="#00f"><title>226538.0</title></rect>
<rect x="238" y="70" width="44" height="5" fill="#00f"><title>164503.0</title></rect>
<rect x="393" y="75" width="68" height="5" fill="#00f"><title>82.0</title></rect>
<rect x="850" y="80" width="46" height="5" fill="#00f"><title>16.0</title></rect>
<text x="20" y="110" class="sm">0.9987</text>
<rect x="100" y="100" width="138" height="12" fill="#00f"/>
<rect x="282" y="100" width="111" height="12" fill="#00f"/>
<rect x="446" y="100" width="448" height="12" fill="#00f"/>
<line x1="238" y1="106" x2="281" y2="106" stroke="#00f"/>
<line x1="393" y1="106" x2="445" y2="106" stroke="#00f"/>
<rect x="113" y="101" width="125" height="10" fill="#ff0"/>
<rect x="283" y="101" width="110" height="10" fill="#ff0"/>
<rect x="447" y="101" width="248" height="10" fill="#ff0"/>
<text x="20" y="130" class="sm">0.001316</text>
<rect x="100" y="120" width="142" height="12" fill="#00f"/>
<rect x="282" y="120" width="111" height="12" fill="#00f"/>
<rect x="446" y="120" width="448" height="12" fill="#00f"/>
<line x1="242" y1="126" x2="281" y2="126" stroke="#00f"/>
<line x1="393" y1="126" x2="445" y2="126" stroke="#00f"/>
<rect x="292" y="121" width="101" height="10" fill="#ff0"/>
<rect x="447" y="121" width="248" height="10" fill="#ff0"/>
<text x="20" y="150" class="sm">3.081e-06</text>
<rect x="100" y="140" width="53" height="12" fill="#00f"/>
<rect x="206" y="140" width="32" height="12" fill="#00f"/>
<rect x="282" y="140" width="111" height="12" fill="#00f"/>
<rect x="446" y="140" width="448" height="12" fill="#00f"/>
<line x1="153" y1="146" x2="205" y2="146" stroke="#00f"/>
<line x1="238" y1="146" x2="281" y2="146" stroke="#00f"/>
<line x1="393" y1="146" x2="445" y2="146" stroke="#00f"/>
<rect x="292" y="141" width="101" height="10" fill="#ff0"/>
<rect x="447" y="141" width="248" height="10" fill="#ff0"/>
<text x="20" y="170" class="sm">3.022e-06</text>
<rect x="100" y="160" width="138" height="12" fill="#00f"/>
<rect x="282" y="160" width="111" height="12" fill="#00f"/>
<rect x="446" y="160" width="316" height="12" fill="#00f"/>
<rect x="800" y="160" width="94" height="12" fill="#00f"/>
<line x1="238" y1="166" x2="281" y2="166" stroke="#00f"/>
<line x1="393" y1="166" x2="445" y2="166" stroke="#00f"/>
<line x1="762" y1="166" x2="799" y2="166" stroke="#00f"/>
<rect x="113" y="161" width="125" height="10" fill="#ff0"/>
<rect x="283" y="161" width="110" height="10" fill="#ff0"/>
<rect x="447" y="161" width="248" height="10" fill="#ff0"/>
<text x="20" y="190" class="sm">2.791e-06</text>
<rect x="100" y="180" width="138" height="12" fill="#00f"/>
<rect x="282" y="180" width="93" height="12" fill="#00f"/>
<rect x="446" y="180" width="448" height="12" fill="#00f"/>
<line x1="238" y1="186" x2="281" y2="186" stroke="#00f"/>
<line x1="375" y1="186" x2="445" y2="186" stroke="#00f"/>
<rect x="113" y="181" width="125" height="10" fill="#ff0"/>
<rect x="283" y="181" width="92" height="10" fill="#ff0"/>
<rect x="447" y="181" width="248" height="10" fill="#ff0"/>
<text x="20" y="210" class="sm">1.244e-06</text>
<rect x="100" y="200" width="138" height="12" fill="#00f"/>
<rect x="282" y="200" width="612" height="12" fill="#00f"/>
<line x1="238" y1="206" x2="281" y2="206" stroke="#00f"/>
<rect x="113" y="201" width="125" height="10" fill="#ff0"/>
<rect x="283" y="201" width="140" height="10" fill="#ff0"/>
<text x="20" y="230" class="sm">9.897e-07</text>
<rect x="100" y="220" width="138" height="12" fill="#00f"/>
<rect x="282" y="220" width="111" height="12" fill="#00f"/>
<rect x="446" y="220" width="96" height="12" fill="#00f"/>
<rect x="614" y="220" width="280" height="12" fill="#00f"/>
<line x1="238" y1="226" x2="281" y2="226" stroke="#00f"/>
<line x1="393" y1="226" x2="445" y2="226" stroke="#00f"/>
<line x1="542" y1="226" x2="613" y2="226" stroke="#00f"/>
<rect x="113" y="221" width="125" height="10" fill="#ff0"/>
<rect x="283" y="221" width="110" height="10" fill="#ff0"/>
<rect x="447" y="221" width="95" height="10" fill="#ff0"/>
<rect x="615" y="221" width="80" height="10" fill="#ff0"/>
<text x="20" y="250" class="sm">3.765e-07</text>
<rect x="100" y="240" width="138" height="12" fill="#00f"/>
<rect x="282" y="240" width="111" height="12" fill="#00f"/>
<rect x="446" y="240" width="173" height="12" fill="#00f"/>
<rect x="681" y="240" width="213" height="12" fill="#00f"/>
<line x1="238" y1="246" x2="281" y2="246" stroke="#00f"/>
<line x1="393" y1="246" x2="445" y2="246" stroke="#00f"/>
<line x1="619" y1="246" x2="680" y2="246" stroke="#00f"/>
<rect x="113" y="241" width="125" height="10" fill="#ff0"/>
<rect x="283" y="241" width="110" height="10" fill="#ff0"/>
<rect x="447" y="241" width="172" height="10" fill="#ff0"/>
<rect x="682" y="241" width="0" height="10" fill="#ff0"/>
<text x="20" y="270" class="sm">1.761e-07</text>
<rect x="100" y="260" width="138" height="12" fill="#00f"/>
<rect x="282" y="260" width="111" height="12" fill="#00f"/>
<rect x="446" y="260" width="63" height="12" fill="#00f"/>
<rect x="614" y="260" width="280" height="12" fill="#00f"/>
<line x1="238" y1="266" x2="281" y2="266" stroke="#00f"/>
<line x1="393" y1="266" x2="445" y2="266" stroke="#00f"/>
<line x1="509" y1="266" x2="613" y2="266" stroke="#00f"/>
<rect x="113" y="261" width="125" height="10" fill="#ff0"/>
<rect x="283" y="261" width="110" height="10" fill="#ff0"/>
<rect x="447" y="261" width="62" height="10" fill="#ff0"/>
<rect x="615" y="261" width="80" height="10" fill="#ff0"/>
<text x="20" y="290" class="sm">4.592e-08</text>
<rect x="100" y="280" width="113" height="12" fill="#00f"/>
<rect x="282" y="280" width="111" height="12" fill="#00f"/>
<rect x="446" y="280" width="448" height="12" fill="#00f"/>
<line x1="213" y1="286" x2="281" y2="286" stroke="#00f"/>
<line x1="393" y1="286" x2="445" y2="286" stroke="#00f"/>
<rect x="292" y="281" width="101" height="10" fill="#ff0"/>
<rect x="447" y="281" width="248" height="10" fill="#ff0"/>
<text x="20" y="310" class="sm">1.451e-08</text>
<rect x="100" y="300" width="138" height="12" fill="#00f"/>
<rect x="282" y="300" width="111" height="12" fill="#00f"/>
<rect x="446" y="300" width="207" height="12" fill="#00f"/>
<rect x="696" y="300" width="198" height="12" fill="#00f"/>
<line x1="238" y1="306" x2="281" y2="306" stroke="#00f"/>
<line x1="393" y1="306" x2="445" y2="306" stroke="#00f"/>
<line x1="653" y1="306" x2="695" y2="306" stroke="#00f"/>
<rect x="113" y="301" width="125" height="10" fill="#ff0"/>
<rect x="283" y="301" width="110" height="10" fill="#ff0"/>
<rect x="447" y="301" width="206" height="10" fill="#ff0"/>
<rect x="697" y="301" width="77" height="10" fill="#ff0"/>
<text x="20" y="330" class="sm">4.497e-09</text>
<rect x="100" y="320" width="53" height="12" fill="#00f"/>
<rect x="206" y="320" width="36" height="12" fill="#00f"/>
<rect x="282" y="320" width="111" height="12" fill="#00f"/>
<rect x="446" y="320" width="448" height="12" fill="#00f"/>
<line x1="153" y1="326" x2="205" y2="326" stroke="#00f"/>
<line x1="242" y1="326" x2="281" y2="326" stroke="#00f"/>
<line x1="393" y1="326" x2="445" y2="326" stroke="#00f"/>
<rect x="292" y="321" width="101" height="10" fill="#ff0"/>
<rect x="447" y="321" width="248" height="10" fill="#ff0"/>
<text x="20" y="350" class="sm">3.983e-09</text>
<rect x="100" y="340" width="142" height="12" fill="#00f"/>
<rect x="282" y="340" width="111" height="12" fill="#00f"/>
<rect x="446" y="340" width="316" height="12" fill="#00f"/>
<rect x="800" y="340" width="94" height="12" fill="#00f"/>
<line x1="242" y1="346" x2="281" y2="346" stroke="#00f"/>
<line x1="393" y1="346" x2="445" y2="346" stroke="#00f"/>
<line x1="762" y1="346" x2="799" y2="346" stroke="#00f"/>
<rect x="292" y="341" width="101" height="10" fill="#ff0"/>
<rect x="447" y="341" width="248" height="10" fill="#ff0"/>
<text x="20" y="370" class="sm">3.901e-09</text>
<rect x="100" y="360" width="138" height="12" fill="#00f"/>
<rect x="282" y="360" width="111" height="12" fill="#00f"/>
<rect x="446" y="360" width="96" height="12" fill="#00f"/>
<rect x="626" y="360" width="268" height="12" fill="#00f"/>
<line x1="238" y1="366" x2="281" y2="366" stroke="#00f"/>
<line x1="393" y1="366" x2="445" y2="366" stroke="#00f"/>
<line x1="542" y1="366" x2="625" y2="366" stroke="#00f"/>
<rect x="113" y="361" width="125" height="10" fill="#ff0"/>
<rect x="283" y="361" width="110" height="10" fill="#ff0"/>
<rect x="447" y="361" width="95" height="10" fill="#ff0"/>
<rect x="627" y="361" width="68" height="10" fill="#ff0"/>
<text x="20" y="390" class="sm">3.713e-09</text>
<rect x="100" y="380" width="138" height="12" fill="#00f"/>
<rect x="282" y="380" width="111" height="12" fill="#00f"/>
<rect x="446" y="380" width="96" height="12" fill="#00f"/>
<rect x="630" y="380" width="264" height="12" fill="#00f"/>
<line x1="238" y1="386" x2="281" y2="386" stroke="#00f"/>
<line x1="393" y1="386" x2="445" y2="386" stroke="#00f"/>
<line x1="542" y1="386" x2="629" y2="386" stroke="#00f"/>
<rect x="113" y="381" width="125" height="10" fill="#ff0"/>
<rect x="283" y="381" width="110" height="10" fill="#ff0"/>
<rect x="447" y="381" width="95" height="10" fill="#ff0"/>
<rect x="631" y="381" width="5" height="10" fill="#ff0"/>
<text x="20" y="410" class="sm">3.678e-09</text>
<rect x="100" y="400" width="142" height="12" fill="#00f"/>
<rect x="282" y="400" width="93" height="12" fill="#00f"/>
<rect x="446" y="400" width="448" height="12" fill="#00f"/>
<line x1="242" y1="406" x2="281" y2="406" stroke="#00f"/>
<line x1="375" y1="406" x2="445" y2="406" stroke="#00f"/>
<rect x="292" y="401" width="83" height="10" fill="#ff0"/>
<rect x="447" y="401" width="248" height="10" fill="#ff0"/>
<text x="20" y="430" class="sm">2.425e-09</text>
<rect x="100" y="420" width="138" height="12" fill="#00f"/>
<rect x="282" y="420" width="111" height="12" fill="#00f"/>
<rect x="446" y="420" width="213" height="12" fill="#00f"/>
<rect x="696" y="420" width="198" height="12" fill="#00f"/>
<line x1="238" y1="426" x2="281" y2="426" stroke="#00f"/>
<line x1="393" y1="426" x2="445" y2="426" stroke="#00f"/>
<line x1="659" y1="426" x2="695" y2="426" stroke="#00f"/>
<rect x="113" y="421" width="125" height="10" fill="#ff0"/>
<rect x="283" y="421" width="110" height="10" fill="#ff0"/>
<rect x="447" y="421" width="212" height="10" fill="#ff0"/>
<rect x="697" y="421" width="77" height="10" fill="#ff0"/>
<text x="20" y="450" class="sm">1.639e-09</text>
<rect x="100" y="440" width="142" height="12" fill="#00f"/>
<rect x="282" y="440" width="612" height="12" fill="#00f"/>
<line x1="242" y1="446" x2="281" y2="446" stroke="#00f"/>
<rect x="113" y="441" width="129" height="10" fill="#ff0"/>
<rect x="283" y="441" width="151" height="10" fill="#ff0"/>
<text x="20" y="470" class="sm">1.304e-09</text>
<rect x="100" y="460" width="142" height="12" fill="#00f"/>
<rect x="282" y="460" width="111" height="12" fill="#00f"/>
<rect x="446" y="460" width="96" height="12" fill="#00f"/>
<rect x="614" y="460" width="280" height="12" fill="#00f"/>
<line x1="242" y1="466" x2="281" y2="466" stroke="#00f"/>
<line x1="393" y1="466" x2="445" y2="466" stroke="#00f"/>
<line x1="542" y1="466" x2="613" y2="466" stroke="#00f"/>
<rect x="113" y="461" width="129" height="10" fill="#ff0"/>
<rect x="283" y="461" width="110" height="10" fill="#ff0"/>
<rect x="447" y="461" width="76" height="10" fill="#ff0"/>
<text x="20" y="490" class="sm">1.104e-09</text>
<rect x="100" y="480" width="138" height="12" fill="#00f"/>
<rect x="282" y="480" width="111" height="12" fill="#00f"/>
<rect x="446" y="480" width="63" height="12" fill="#00f"/>
<rect x="626" y="480" width="268" height="12" fill="#00f"/>
<line x1="238" y1="486" x2="281" y2="486" stroke="#00f"/>
<line x1="393" y1="486" x2="445" y2="486" stroke="#00f"/>
<line x1="509" y1="486" x2="625" y2="486" stroke="#00f"/>
<rect x="113" y="481" width="125" height="10" fill="#ff0"/>
<rect x="283" y="481" width="110" height="10" fill="#ff0"/>
<rect x="447" y="481" width="62" height="10" fill="#ff0"/>
<rect x="627" y="481" width="68" height="10" fill="#ff0"/>
</svg>
