<svg viewBox="0 0 840 550" xmlns="http://www.w3.org/2000/svg">

<style>
  .sm { font: 12px sans-serif; }
  .lg { font: 15px sans-serif; }
</style>
<rect fill="#ddd" x="0" y="0" width="100%" height="100%"/>
<text x="20" y="20" class="lg">ch.8385 III:9629146-9629985 Gene:WBGene00010230</text>
<text x="20" y="50" class="sm">WormBase</text>
<rect x="102" y="40" width="150" height="12" fill="#00f"/>
<rect x="298" y="40" width="104" height="12" fill="#00f"/>
<rect x="451" y="40" width="291" height="12" fill="#00f"/>
<line x1="252" y1="46" x2="297" y2="46" stroke="#00f"/>
<line x1="402" y1="46" x2="450" y2="46" stroke="#00f"/>
<rect x="109" y="41" width="143" height="10" fill="#ff0"/>
<rect x="299" y="41" width="103" height="10" fill="#ff0"/>
<rect x="452" y="41" width="186" height="10" fill="#ff0"/>
<rect x="103" y="41" width="5" height="10" fill="brown"><title>.</title></rect>
<rect x="639" y="41" width="103" height="10" fill="brown"><title>.</title></rect>
<text x="20" y="70" class="sm">Fitness: 0.03577444595022667</text>
<rect x="252" y="65" width="46" height="5" fill="#00f"><title>683935.0</title></rect>
<rect x="402" y="70" width="49" height="5" fill="#00f"><title>575602.0</title></rect>
<rect x="402" y="75" width="112" height="5" fill="#00f"><title>180.0</title></rect>
<rect x="715" y="80" width="47" height="5" fill="#f0f"><title>53.0</title></rect>
<rect x="634" y="85" width="199" height="5" fill="#00f"><title>9.0</title></rect>
<rect x="471" y="90" width="43" height="5" fill="#00f"><title>8.0</title></rect>
<rect x="252" y="95" width="60" height="5" fill="#00f"><title>6.0</title></rect>
<rect x="402" y="100" width="101" height="5" fill="#00f"><title>5.0</title></rect>
<rect x="566" y="105" width="267" height="5" fill="#f0f"><title>3.0</title></rect>
<rect x="587" y="110" width="62" height="5" fill="#f0f"><title>3.0</title></rect>
<text x="20" y="140" class="sm">0.5417</text>
<rect x="100" y="130" width="152" height="12" fill="#00f"/>
<rect x="298" y="130" width="445" height="12" fill="#00f"/>
<line x1="252" y1="136" x2="297" y2="136" stroke="#00f"/>
<rect x="109" y="131" width="143" height="10" fill="#ff0"/>
<rect x="299" y="131" width="146" height="10" fill="#ff0"/>
<text x="20" y="160" class="sm">0.4404</text>
<rect x="100" y="150" width="302" height="12" fill="#00f"/>
<rect x="451" y="150" width="292" height="12" fill="#00f"/>
<line x1="402" y1="156" x2="450" y2="156" stroke="#00f"/>
<rect x="454" y="151" width="245" height="10" fill="#ff0"/>
<text x="20" y="180" class="sm">0.01467</text>
<rect x="100" y="170" width="306" height="12" fill="#00f"/>
<rect x="451" y="170" width="292" height="12" fill="#00f"/>
<line x1="406" y1="176" x2="450" y2="176" stroke="#00f"/>
<rect x="454" y="171" width="245" height="10" fill="#ff0"/>
<text x="20" y="200" class="sm">0.0008421</text>
<rect x="100" y="190" width="368" height="12" fill="#00f"/>
<rect x="514" y="190" width="229" height="12" fill="#00f"/>
<line x1="468" y1="196" x2="513" y2="196" stroke="#00f"/>
<rect x="109" y="191" width="224" height="10" fill="#ff0"/>
<text x="20" y="220" class="sm">0.0006958</text>
<rect x="100" y="210" width="156" height="12" fill="#00f"/>
<rect x="298" y="210" width="445" height="12" fill="#00f"/>
<line x1="256" y1="216" x2="297" y2="216" stroke="#00f"/>
<rect x="454" y="211" width="245" height="10" fill="#ff0"/>
<text x="20" y="240" class="sm">0.0006248</text>
<rect x="100" y="230" width="248" height="12" fill="#00f"/>
<rect x="396" y="230" width="347" height="12" fill="#00f"/>
<line x1="348" y1="236" x2="395" y2="236" stroke="#00f"/>
<rect x="454" y="231" width="245" height="10" fill="#ff0"/>
<text x="20" y="260" class="sm">0.0005174</text>
<rect x="100" y="250" width="371" height="12" fill="#00f"/>
<rect x="514" y="250" width="229" height="12" fill="#00f"/>
<line x1="471" y1="256" x2="513" y2="256" stroke="#00f"/>
<rect x="109" y="251" width="224" height="10" fill="#ff0"/>
<text x="20" y="280" class="sm">0.0002107</text>
<rect x="100" y="270" width="371" height="12" fill="#00f"/>
<rect x="521" y="270" width="222" height="12" fill="#00f"/>
<line x1="471" y1="276" x2="520" y2="276" stroke="#00f"/>
<rect x="109" y="271" width="224" height="10" fill="#ff0"/>
<text x="20" y="300" class="sm">0.0001096</text>
<rect x="100" y="290" width="470" height="12" fill="#00f"/>
<rect x="612" y="290" width="131" height="12" fill="#00f"/>
<line x1="570" y1="296" x2="611" y2="296" stroke="#00f"/>
<rect x="109" y="291" width="224" height="10" fill="#ff0"/>
<text x="20" y="320" class="sm">5.858e-05</text>
<rect x="100" y="310" width="368" height="12" fill="#00f"/>
<rect x="521" y="310" width="222" height="12" fill="#00f"/>
<line x1="468" y1="316" x2="520" y2="316" stroke="#00f"/>
<rect x="109" y="311" width="224" height="10" fill="#ff0"/>
<text x="20" y="340" class="sm">4.303e-05</text>
<rect x="100" y="330" width="302" height="12" fill="#00f"/>
<rect x="459" y="330" width="284" height="12" fill="#00f"/>
<line x1="402" y1="336" x2="458" y2="336" stroke="#00f"/>
<rect x="109" y="331" width="224" height="10" fill="#ff0"/>
<text x="20" y="360" class="sm">2.809e-05</text>
<rect x="100" y="350" width="448" height="12" fill="#00f"/>
<rect x="600" y="350" width="143" height="12" fill="#00f"/>
<line x1="548" y1="356" x2="599" y2="356" stroke="#00f"/>
<rect x="109" y="351" width="224" height="10" fill="#ff0"/>
<text x="20" y="380" class="sm">1.426e-05</text>
<rect x="100" y="370" width="248" height="12" fill="#00f"/>
<rect x="399" y="370" width="344" height="12" fill="#00f"/>
<line x1="348" y1="376" x2="398" y2="376" stroke="#00f"/>
<rect x="454" y="371" width="245" height="10" fill="#ff0"/>
<text x="20" y="400" class="sm">1.203e-05</text>
<rect x="100" y="390" width="448" height="12" fill="#00f"/>
<rect x="598" y="390" width="145" height="12" fill="#00f"/>
<line x1="548" y1="396" x2="597" y2="396" stroke="#00f"/>
<rect x="109" y="391" width="224" height="10" fill="#ff0"/>
<text x="20" y="420" class="sm">1.171e-05</text>
<rect x="100" y="410" width="306" height="12" fill="#00f"/>
<rect x="459" y="410" width="284" height="12" fill="#00f"/>
<line x1="406" y1="416" x2="458" y2="416" stroke="#00f"/>
<rect x="347" y="411" width="59" height="10" fill="#ff0"/>
<rect x="460" y="411" width="239" height="10" fill="#ff0"/>
<text x="20" y="440" class="sm">7.557e-06</text>
<rect x="100" y="430" width="472" height="12" fill="#00f"/>
<rect x="612" y="430" width="131" height="12" fill="#00f"/>
<line x1="572" y1="436" x2="611" y2="436" stroke="#00f"/>
<rect x="109" y="431" width="224" height="10" fill="#ff0"/>
<text x="20" y="460" class="sm">6.288e-06</text>
<rect x="100" y="450" width="358" height="12" fill="#00f"/>
<rect x="514" y="450" width="229" height="12" fill="#00f"/>
<line x1="458" y1="456" x2="513" y2="456" stroke="#00f"/>
<rect x="109" y="451" width="224" height="10" fill="#ff0"/>
<text x="20" y="480" class="sm">5.901e-06</text>
<rect x="100" y="470" width="379" height="12" fill="#00f"/>
<rect x="521" y="470" width="222" height="12" fill="#00f"/>
<line x1="479" y1="476" x2="520" y2="476" stroke="#00f"/>
<rect x="109" y="471" width="224" height="10" fill="#ff0"/>
<text x="20" y="500" class="sm">5.401e-06</text>
<rect x="100" y="490" width="368" height="12" fill="#00f"/>
<rect x="516" y="490" width="227" height="12" fill="#00f"/>
<line x1="468" y1="496" x2="515" y2="496" stroke="#00f"/>
<rect x="109" y="491" width="224" height="10" fill="#ff0"/>
<text x="20" y="520" class="sm">5.19e-06</text>
<rect x="100" y="510" width="371" height="12" fill="#00f"/>
<rect x="516" y="510" width="227" height="12" fill="#00f"/>
<line x1="471" y1="516" x2="515" y2="516" stroke="#00f"/>
<rect x="109" y="511" width="224" height="10" fill="#ff0"/>
</svg>
