<svg viewBox="0 0 813 520" xmlns="http://www.w3.org/2000/svg">

<style>
  .sm { font: 12px sans-serif; }
  .lg { font: 15px sans-serif; }
</style>
<rect fill="#ddd" x="0" y="0" width="100%" height="100%"/>
<text x="20" y="20" class="lg">ch.8309 III:9330216-9331028 Gene:WBGene00008040</text>
<text x="20" y="50" class="sm">WormBase</text>
<rect x="100" y="40" width="146" height="12" fill="#00f"/>
<rect x="291" y="40" width="137" height="12" fill="#00f"/>
<rect x="473" y="40" width="57" height="12" fill="#00f"/>
<rect x="578" y="40" width="135" height="12" fill="#00f"/>
<line x1="246" y1="46" x2="290" y2="46" stroke="#00f"/>
<line x1="428" y1="46" x2="472" y2="46" stroke="#00f"/>
<line x1="530" y1="46" x2="577" y2="46" stroke="#00f"/>
<rect x="102" y="41" width="144" height="10" fill="#ff0"/>
<rect x="292" y="41" width="136" height="10" fill="#ff0"/>
<rect x="474" y="41" width="56" height="10" fill="#ff0"/>
<rect x="579" y="41" width="80" height="10" fill="#ff0"/>
<rect x="101" y="41" width="0" height="10" fill="brown"><title>.</title></rect>
<rect x="660" y="41" width="53" height="10" fill="brown"><title>.</title></rect>
<text x="20" y="70" class="sm">Fitness: 0.08751137051062122</text>
<rect x="428" y="65" width="45" height="5" fill="#00f"><title>501101.0</title></rect>
<rect x="246" y="70" width="45" height="5" fill="#00f"><title>449705.0</title></rect>
<rect x="530" y="75" width="48" height="5" fill="#00f"><title>387568.0</title></rect>
<rect x="516" y="80" width="94" height="5" fill="#00f"><title>9.0</title></rect>
<text x="20" y="110" class="sm">1.0</text>
<rect x="100" y="100" width="146" height="12" fill="#00f"/>
<rect x="291" y="100" width="137" height="12" fill="#00f"/>
<rect x="473" y="100" width="57" height="12" fill="#00f"/>
<rect x="578" y="100" width="138" height="12" fill="#00f"/>
<line x1="246" y1="106" x2="290" y2="106" stroke="#00f"/>
<line x1="428" y1="106" x2="472" y2="106" stroke="#00f"/>
<line x1="530" y1="106" x2="577" y2="106" stroke="#00f"/>
<rect x="102" y="101" width="144" height="10" fill="#ff0"/>
<rect x="292" y="101" width="136" height="10" fill="#ff0"/>
<rect x="474" y="101" width="56" height="10" fill="#ff0"/>
<rect x="579" y="101" width="80" height="10" fill="#ff0"/>
<text x="20" y="130" class="sm">4.203e-06</text>
<rect x="100" y="120" width="129" height="12" fill="#00f"/>
<rect x="291" y="120" width="137" height="12" fill="#00f"/>
<rect x="473" y="120" width="57" height="12" fill="#00f"/>
<rect x="578" y="120" width="138" height="12" fill="#00f"/>
<line x1="229" y1="126" x2="290" y2="126" stroke="#00f"/>
<line x1="428" y1="126" x2="472" y2="126" stroke="#00f"/>
<line x1="530" y1="126" x2="577" y2="126" stroke="#00f"/>
<rect x="312" y="121" width="116" height="10" fill="#ff0"/>
<rect x="474" y="121" width="56" height="10" fill="#ff0"/>
<rect x="579" y="121" width="80" height="10" fill="#ff0"/>
<text x="20" y="150" class="sm">4.062e-07</text>
<rect x="100" y="140" width="126" height="12" fill="#00f"/>
<rect x="291" y="140" width="137" height="12" fill="#00f"/>
<rect x="473" y="140" width="57" height="12" fill="#00f"/>
<rect x="578" y="140" width="138" height="12" fill="#00f"/>
<line x1="226" y1="146" x2="290" y2="146" stroke="#00f"/>
<line x1="428" y1="146" x2="472" y2="146" stroke="#00f"/>
<line x1="530" y1="146" x2="577" y2="146" stroke="#00f"/>
<rect x="196" y="141" width="30" height="10" fill="#ff0"/>
<rect x="292" y="141" width="136" height="10" fill="#ff0"/>
<rect x="474" y="141" width="56" height="10" fill="#ff0"/>
<rect x="579" y="141" width="80" height="10" fill="#ff0"/>
<text x="20" y="170" class="sm">1.462e-07</text>
<rect x="100" y="160" width="129" height="12" fill="#00f"/>
<rect x="280" y="160" width="148" height="12" fill="#00f"/>
<rect x="473" y="160" width="57" height="12" fill="#00f"/>
<rect x="578" y="160" width="138" height="12" fill="#00f"/>
<line x1="229" y1="166" x2="279" y2="166" stroke="#00f"/>
<line x1="428" y1="166" x2="472" y2="166" stroke="#00f"/>
<line x1="530" y1="166" x2="577" y2="166" stroke="#00f"/>
<rect x="102" y="161" width="127" height="10" fill="#ff0"/>
<rect x="281" y="161" width="147" height="10" fill="#ff0"/>
<rect x="474" y="161" width="56" height="10" fill="#ff0"/>
<rect x="579" y="161" width="80" height="10" fill="#ff0"/>
<text x="20" y="190" class="sm">1.01e-07</text>
<rect x="100" y="180" width="146" height="12" fill="#00f"/>
<rect x="291" y="180" width="80" height="12" fill="#00f"/>
<rect x="473" y="180" width="57" height="12" fill="#00f"/>
<rect x="578" y="180" width="138" height="12" fill="#00f"/>
<line x1="246" y1="186" x2="290" y2="186" stroke="#00f"/>
<line x1="371" y1="186" x2="472" y2="186" stroke="#00f"/>
<line x1="530" y1="186" x2="577" y2="186" stroke="#00f"/>
<rect x="102" y="181" width="144" height="10" fill="#ff0"/>
<rect x="292" y="181" width="79" height="10" fill="#ff0"/>
<rect x="474" y="181" width="56" height="10" fill="#ff0"/>
<rect x="579" y="181" width="80" height="10" fill="#ff0"/>
<text x="20" y="210" class="sm">4.395e-08</text>
<rect x="100" y="200" width="146" height="12" fill="#00f"/>
<rect x="291" y="200" width="80" height="12" fill="#00f"/>
<rect x="428" y="200" width="102" height="12" fill="#00f"/>
<rect x="578" y="200" width="138" height="12" fill="#00f"/>
<line x1="246" y1="206" x2="290" y2="206" stroke="#00f"/>
<line x1="371" y1="206" x2="427" y2="206" stroke="#00f"/>
<line x1="530" y1="206" x2="577" y2="206" stroke="#00f"/>
<rect x="102" y="201" width="144" height="10" fill="#ff0"/>
<rect x="292" y="201" width="79" height="10" fill="#ff0"/>
<rect x="429" y="201" width="11" height="10" fill="#ff0"/>
<text x="20" y="230" class="sm">1.182e-08</text>
<rect x="100" y="220" width="28" height="12" fill="#00f"/>
<rect x="174" y="220" width="72" height="12" fill="#00f"/>
<rect x="291" y="220" width="239" height="12" fill="#00f"/>
<rect x="578" y="220" width="138" height="12" fill="#00f"/>
<line x1="128" y1="226" x2="173" y2="226" stroke="#00f"/>
<line x1="246" y1="226" x2="290" y2="226" stroke="#00f"/>
<line x1="530" y1="226" x2="577" y2="226" stroke="#00f"/>
<rect x="312" y="221" width="128" height="10" fill="#ff0"/>
<text x="20" y="250" class="sm">7.222e-09</text>
<rect x="100" y="240" width="126" height="12" fill="#00f"/>
<rect x="280" y="240" width="148" height="12" fill="#00f"/>
<rect x="473" y="240" width="57" height="12" fill="#00f"/>
<rect x="578" y="240" width="138" height="12" fill="#00f"/>
<line x1="226" y1="246" x2="279" y2="246" stroke="#00f"/>
<line x1="428" y1="246" x2="472" y2="246" stroke="#00f"/>
<line x1="530" y1="246" x2="577" y2="246" stroke="#00f"/>
<rect x="102" y="241" width="124" height="10" fill="#ff0"/>
<rect x="281" y="241" width="147" height="10" fill="#ff0"/>
<rect x="474" y="241" width="56" height="10" fill="#ff0"/>
<rect x="579" y="241" width="80" height="10" fill="#ff0"/>
<text x="20" y="270" class="sm">4.022e-09</text>
<rect x="100" y="260" width="121" height="12" fill="#00f"/>
<rect x="291" y="260" width="137" height="12" fill="#00f"/>
<rect x="473" y="260" width="57" height="12" fill="#00f"/>
<rect x="578" y="260" width="138" height="12" fill="#00f"/>
<line x1="221" y1="266" x2="290" y2="266" stroke="#00f"/>
<line x1="428" y1="266" x2="472" y2="266" stroke="#00f"/>
<line x1="530" y1="266" x2="577" y2="266" stroke="#00f"/>
<rect x="312" y="261" width="116" height="10" fill="#ff0"/>
<rect x="474" y="261" width="56" height="10" fill="#ff0"/>
<rect x="579" y="261" width="80" height="10" fill="#ff0"/>
<text x="20" y="290" class="sm">2.23e-09</text>
<rect x="100" y="280" width="115" height="12" fill="#00f"/>
<rect x="291" y="280" width="137" height="12" fill="#00f"/>
<rect x="473" y="280" width="57" height="12" fill="#00f"/>
<rect x="578" y="280" width="138" height="12" fill="#00f"/>
<line x1="215" y1="286" x2="290" y2="286" stroke="#00f"/>
<line x1="428" y1="286" x2="472" y2="286" stroke="#00f"/>
<line x1="530" y1="286" x2="577" y2="286" stroke="#00f"/>
<rect x="312" y="281" width="116" height="10" fill="#ff0"/>
<rect x="474" y="281" width="56" height="10" fill="#ff0"/>
<rect x="579" y="281" width="80" height="10" fill="#ff0"/>
<text x="20" y="310" class="sm">1.275e-09</text>
<rect x="100" y="300" width="109" height="12" fill="#00f"/>
<rect x="291" y="300" width="137" height="12" fill="#00f"/>
<rect x="473" y="300" width="57" height="12" fill="#00f"/>
<rect x="578" y="300" width="138" height="12" fill="#00f"/>
<line x1="209" y1="306" x2="290" y2="306" stroke="#00f"/>
<line x1="428" y1="306" x2="472" y2="306" stroke="#00f"/>
<line x1="530" y1="306" x2="577" y2="306" stroke="#00f"/>
<rect x="312" y="301" width="116" height="10" fill="#ff0"/>
<rect x="474" y="301" width="56" height="10" fill="#ff0"/>
<rect x="579" y="301" width="80" height="10" fill="#ff0"/>
<text x="20" y="330" class="sm">6.758e-10</text>
<rect x="100" y="320" width="28" height="12" fill="#00f"/>
<rect x="174" y="320" width="254" height="12" fill="#00f"/>
<rect x="473" y="320" width="57" height="12" fill="#00f"/>
<rect x="578" y="320" width="138" height="12" fill="#00f"/>
<line x1="128" y1="326" x2="173" y2="326" stroke="#00f"/>
<line x1="428" y1="326" x2="472" y2="326" stroke="#00f"/>
<line x1="530" y1="326" x2="577" y2="326" stroke="#00f"/>
<rect x="312" y="321" width="116" height="10" fill="#ff0"/>
<rect x="474" y="321" width="56" height="10" fill="#ff0"/>
<rect x="579" y="321" width="80" height="10" fill="#ff0"/>
<text x="20" y="350" class="sm">5.262e-10</text>
<rect x="100" y="340" width="73" height="12" fill="#00f"/>
<rect x="216" y="340" width="30" height="12" fill="#00f"/>
<rect x="291" y="340" width="239" height="12" fill="#00f"/>
<rect x="578" y="340" width="138" height="12" fill="#00f"/>
<line x1="173" y1="346" x2="215" y2="346" stroke="#00f"/>
<line x1="246" y1="346" x2="290" y2="346" stroke="#00f"/>
<line x1="530" y1="346" x2="577" y2="346" stroke="#00f"/>
<rect x="312" y="341" width="128" height="10" fill="#ff0"/>
<text x="20" y="370" class="sm">1.095e-10</text>
<rect x="100" y="360" width="146" height="12" fill="#00f"/>
<rect x="291" y="360" width="239" height="12" fill="#00f"/>
<rect x="578" y="360" width="138" height="12" fill="#00f"/>
<line x1="246" y1="366" x2="290" y2="366" stroke="#00f"/>
<line x1="530" y1="366" x2="577" y2="366" stroke="#00f"/>
<rect x="102" y="361" width="144" height="10" fill="#ff0"/>
<rect x="292" y="361" width="148" height="10" fill="#ff0"/>
<text x="20" y="390" class="sm">5.496e-11</text>
<rect x="100" y="380" width="146" height="12" fill="#00f"/>
<rect x="291" y="380" width="137" height="12" fill="#00f"/>
<rect x="488" y="380" width="42" height="12" fill="#00f"/>
<rect x="578" y="380" width="138" height="12" fill="#00f"/>
<line x1="246" y1="386" x2="290" y2="386" stroke="#00f"/>
<line x1="428" y1="386" x2="487" y2="386" stroke="#00f"/>
<line x1="530" y1="386" x2="577" y2="386" stroke="#00f"/>
<rect x="102" y="381" width="144" height="10" fill="#ff0"/>
<rect x="292" y="381" width="136" height="10" fill="#ff0"/>
<rect x="489" y="381" width="41" height="10" fill="#ff0"/>
<rect x="579" y="381" width="80" height="10" fill="#ff0"/>
<text x="20" y="410" class="sm">1.907e-11</text>
<rect x="100" y="400" width="73" height="12" fill="#00f"/>
<rect x="216" y="400" width="212" height="12" fill="#00f"/>
<rect x="473" y="400" width="57" height="12" fill="#00f"/>
<rect x="578" y="400" width="138" height="12" fill="#00f"/>
<line x1="173" y1="406" x2="215" y2="406" stroke="#00f"/>
<line x1="428" y1="406" x2="472" y2="406" stroke="#00f"/>
<line x1="530" y1="406" x2="577" y2="406" stroke="#00f"/>
<rect x="312" y="401" width="116" height="10" fill="#ff0"/>
<rect x="474" y="401" width="56" height="10" fill="#ff0"/>
<rect x="579" y="401" width="80" height="10" fill="#ff0"/>
<text x="20" y="430" class="sm">1.35e-11</text>
<rect x="100" y="420" width="73" height="12" fill="#00f"/>
<rect x="227" y="420" width="201" height="12" fill="#00f"/>
<rect x="473" y="420" width="57" height="12" fill="#00f"/>
<rect x="578" y="420" width="138" height="12" fill="#00f"/>
<line x1="173" y1="426" x2="226" y2="426" stroke="#00f"/>
<line x1="428" y1="426" x2="472" y2="426" stroke="#00f"/>
<line x1="530" y1="426" x2="577" y2="426" stroke="#00f"/>
<rect x="312" y="421" width="116" height="10" fill="#ff0"/>
<rect x="474" y="421" width="56" height="10" fill="#ff0"/>
<rect x="579" y="421" width="80" height="10" fill="#ff0"/>
<text x="20" y="450" class="sm">1.075e-11</text>
<rect x="100" y="440" width="28" height="12" fill="#00f"/>
<rect x="174" y="440" width="72" height="12" fill="#00f"/>
<rect x="291" y="440" width="137" height="12" fill="#00f"/>
<rect x="473" y="440" width="243" height="12" fill="#00f"/>
<line x1="128" y1="446" x2="173" y2="446" stroke="#00f"/>
<line x1="246" y1="446" x2="290" y2="446" stroke="#00f"/>
<line x1="428" y1="446" x2="472" y2="446" stroke="#00f"/>
<rect x="312" y="441" width="116" height="10" fill="#ff0"/>
<rect x="474" y="441" width="89" height="10" fill="#ff0"/>
<text x="20" y="470" class="sm">1.059e-11</text>
<rect x="100" y="460" width="146" height="12" fill="#00f"/>
<rect x="291" y="460" width="137" height="12" fill="#00f"/>
<rect x="500" y="460" width="30" height="12" fill="#00f"/>
<rect x="578" y="460" width="138" height="12" fill="#00f"/>
<line x1="246" y1="466" x2="290" y2="466" stroke="#00f"/>
<line x1="428" y1="466" x2="499" y2="466" stroke="#00f"/>
<line x1="530" y1="466" x2="577" y2="466" stroke="#00f"/>
<rect x="102" y="461" width="144" height="10" fill="#ff0"/>
<rect x="292" y="461" width="136" height="10" fill="#ff0"/>
<rect x="501" y="461" width="29" height="10" fill="#ff0"/>
<rect x="579" y="461" width="80" height="10" fill="#ff0"/>
<text x="20" y="490" class="sm">9.878e-12</text>
<rect x="100" y="480" width="146" height="12" fill="#00f"/>
<rect x="291" y="480" width="80" height="12" fill="#00f"/>
<rect x="457" y="480" width="73" height="12" fill="#00f"/>
<rect x="578" y="480" width="138" height="12" fill="#00f"/>
<line x1="246" y1="486" x2="290" y2="486" stroke="#00f"/>
<line x1="371" y1="486" x2="456" y2="486" stroke="#00f"/>
<line x1="530" y1="486" x2="577" y2="486" stroke="#00f"/>
<rect x="102" y="481" width="144" height="10" fill="#ff0"/>
<rect x="292" y="481" width="79" height="10" fill="#ff0"/>
<rect x="458" y="481" width="53" height="10" fill="#ff0"/>
</svg>
