<svg viewBox="0 0 1052 595" xmlns="http://www.w3.org/2000/svg">

<style>
  .sm { font: 12px sans-serif; }
  .lg { font: 15px sans-serif; }
</style>
<rect fill="#ddd" x="0" y="0" width="100%" height="100%"/>
<text x="20" y="20" class="lg">ch.8829 III:11920635-11921686 Gene:WBGene00013238</text>
<text x="20" y="50" class="sm">WormBase</text>
<rect x="100" y="40" width="52" height="12" fill="#00f"/>
<rect x="286" y="40" width="329" height="12" fill="#00f"/>
<rect x="667" y="40" width="285" height="12" fill="#00f"/>
<line x1="152" y1="46" x2="285" y2="46" stroke="#00f"/>
<line x1="615" y1="46" x2="666" y2="46" stroke="#00f"/>
<rect x="107" y="41" width="45" height="10" fill="#ff0"/>
<rect x="287" y="41" width="328" height="10" fill="#ff0"/>
<rect x="668" y="41" width="104" height="10" fill="#ff0"/>
<rect x="101" y="41" width="5" height="10" fill="brown"><title>.</title></rect>
<rect x="773" y="41" width="179" height="10" fill="brown"><title>.</title></rect>
<text x="20" y="70" class="sm">Fitness: 0.07856659109973649</text>
<rect x="152" y="65" width="134" height="5" fill="#00f"><title>2843070.0</title></rect>
<rect x="615" y="70" width="52" height="5" fill="#00f"><title>2684370.0</title></rect>
<rect x="308" y="75" width="166" height="5" fill="#00f"><title>29.0</title></rect>
<rect x="438" y="80" width="32" height="5" fill="#f0f"><title>17.0</title></rect>
<rect x="100" y="85" width="186" height="5" fill="#00f"><title>13.0</title></rect>
<rect x="241" y="90" width="45" height="5" fill="#00f"><title>12.0</title></rect>
<rect x="433" y="95" width="71" height="5" fill="#00f"><title>8.0</title></rect>
<rect x="146" y="100" width="234" height="5" fill="#f0f"><title>7.0</title></rect>
<rect x="438" y="105" width="237" height="5" fill="#f0f"><title>7.0</title></rect>
<rect x="438" y="110" width="270" height="5" fill="#f0f"><title>7.0</title></rect>
<rect x="453" y="115" width="81" height="5" fill="#00f"><title>7.0</title></rect>
<rect x="152" y="120" width="88" height="5" fill="#00f"><title>5.0</title></rect>
<rect x="740" y="125" width="154" height="5" fill="#00f"><title>5.0</title></rect>
<rect x="152" y="130" width="142" height="5" fill="#00f"><title>4.0</title></rect>
<rect x="156" y="135" width="138" height="5" fill="#00f"><title>4.0</title></rect>
<rect x="362" y="140" width="159" height="5" fill="#f0f"><title>4.0</title></rect>
<rect x="133" y="145" width="184" height="5" fill="#f0f"><title>3.0</title></rect>
<rect x="152" y="150" width="148" height="5" fill="#00f"><title>3.0</title></rect>
<rect x="308" y="155" width="67" height="5" fill="#00f"><title>3.0</title></rect>
<text x="20" y="185" class="sm">0.7788</text>
<rect x="100" y="175" width="52" height="12" fill="#00f"/>
<rect x="286" y="175" width="329" height="12" fill="#00f"/>
<rect x="667" y="175" width="288" height="12" fill="#00f"/>
<line x1="152" y1="181" x2="285" y2="181" stroke="#00f"/>
<line x1="615" y1="181" x2="666" y2="181" stroke="#00f"/>
<rect x="107" y="176" width="45" height="10" fill="#ff0"/>
<rect x="287" y="176" width="328" height="10" fill="#ff0"/>
<rect x="668" y="176" width="104" height="10" fill="#ff0"/>
<text x="20" y="205" class="sm">0.1503</text>
<rect x="100" y="195" width="52" height="12" fill="#00f"/>
<rect x="286" y="195" width="669" height="12" fill="#00f"/>
<line x1="152" y1="201" x2="285" y2="201" stroke="#00f"/>
<rect x="107" y="196" width="45" height="10" fill="#ff0"/>
<rect x="287" y="196" width="364" height="10" fill="#ff0"/>
<text x="20" y="225" class="sm">0.02288</text>
<rect x="100" y="215" width="52" height="12" fill="#00f"/>
<rect x="286" y="215" width="329" height="12" fill="#00f"/>
<rect x="667" y="215" width="144" height="12" fill="#00f"/>
<rect x="918" y="215" width="37" height="12" fill="#00f"/>
<line x1="152" y1="221" x2="285" y2="221" stroke="#00f"/>
<line x1="615" y1="221" x2="666" y2="221" stroke="#00f"/>
<line x1="811" y1="221" x2="917" y2="221" stroke="#00f"/>
<rect x="107" y="216" width="45" height="10" fill="#ff0"/>
<rect x="287" y="216" width="328" height="10" fill="#ff0"/>
<rect x="668" y="216" width="104" height="10" fill="#ff0"/>
<text x="20" y="245" class="sm">0.009776</text>
<rect x="100" y="235" width="52" height="12" fill="#00f"/>
<rect x="286" y="235" width="329" height="12" fill="#00f"/>
<rect x="667" y="235" width="195" height="12" fill="#00f"/>
<rect x="918" y="235" width="37" height="12" fill="#00f"/>
<line x1="152" y1="241" x2="285" y2="241" stroke="#00f"/>
<line x1="615" y1="241" x2="666" y2="241" stroke="#00f"/>
<line x1="862" y1="241" x2="917" y2="241" stroke="#00f"/>
<rect x="107" y="236" width="45" height="10" fill="#ff0"/>
<rect x="287" y="236" width="328" height="10" fill="#ff0"/>
<rect x="668" y="236" width="104" height="10" fill="#ff0"/>
<text x="20" y="265" class="sm">0.00913</text>
<rect x="100" y="255" width="52" height="12" fill="#00f"/>
<rect x="240" y="255" width="375" height="12" fill="#00f"/>
<rect x="667" y="255" width="288" height="12" fill="#00f"/>
<line x1="152" y1="261" x2="239" y2="261" stroke="#00f"/>
<line x1="615" y1="261" x2="666" y2="261" stroke="#00f"/>
<rect x="611" y="256" width="4" height="10" fill="#ff0"/>
<rect x="668" y="256" width="198" height="10" fill="#ff0"/>
<text x="20" y="285" class="sm">0.005363</text>
<rect x="100" y="275" width="96" height="12" fill="#00f"/>
<rect x="286" y="275" width="329" height="12" fill="#00f"/>
<rect x="667" y="275" width="288" height="12" fill="#00f"/>
<line x1="196" y1="281" x2="285" y2="281" stroke="#00f"/>
<line x1="615" y1="281" x2="666" y2="281" stroke="#00f"/>
<rect x="107" y="276" width="89" height="10" fill="#ff0"/>
<rect x="287" y="276" width="143" height="10" fill="#ff0"/>
<text x="20" y="305" class="sm">0.004694</text>
<rect x="100" y="295" width="515" height="12" fill="#00f"/>
<rect x="667" y="295" width="288" height="12" fill="#00f"/>
<line x1="615" y1="301" x2="666" y2="301" stroke="#00f"/>
<rect x="611" y="296" width="4" height="10" fill="#ff0"/>
<rect x="668" y="296" width="198" height="10" fill="#ff0"/>
<text x="20" y="325" class="sm">0.003138</text>
<rect x="100" y="315" width="52" height="12" fill="#00f"/>
<rect x="286" y="315" width="525" height="12" fill="#00f"/>
<rect x="918" y="315" width="37" height="12" fill="#00f"/>
<line x1="152" y1="321" x2="285" y2="321" stroke="#00f"/>
<line x1="811" y1="321" x2="917" y2="321" stroke="#00f"/>
<rect x="107" y="316" width="45" height="10" fill="#ff0"/>
<rect x="287" y="316" width="364" height="10" fill="#ff0"/>
<text x="20" y="345" class="sm">0.001981</text>
<rect x="100" y="335" width="56" height="12" fill="#00f"/>
<rect x="286" y="335" width="329" height="12" fill="#00f"/>
<rect x="667" y="335" width="288" height="12" fill="#00f"/>
<line x1="156" y1="341" x2="285" y2="341" stroke="#00f"/>
<line x1="615" y1="341" x2="666" y2="341" stroke="#00f"/>
<rect x="611" y="336" width="4" height="10" fill="#ff0"/>
<rect x="668" y="336" width="198" height="10" fill="#ff0"/>
<text x="20" y="365" class="sm">0.001745</text>
<rect x="100" y="355" width="52" height="12" fill="#00f"/>
<rect x="300" y="355" width="315" height="12" fill="#00f"/>
<rect x="667" y="355" width="288" height="12" fill="#00f"/>
<line x1="152" y1="361" x2="299" y2="361" stroke="#00f"/>
<line x1="615" y1="361" x2="666" y2="361" stroke="#00f"/>
<rect x="611" y="356" width="4" height="10" fill="#ff0"/>
<rect x="668" y="356" width="198" height="10" fill="#ff0"/>
<text x="20" y="385" class="sm">0.00174</text>
<rect x="100" y="375" width="52" height="12" fill="#00f"/>
<rect x="240" y="375" width="715" height="12" fill="#00f"/>
<line x1="152" y1="381" x2="239" y2="381" stroke="#00f"/>
<rect x="107" y="376" width="45" height="10" fill="#ff0"/>
<rect x="241" y="376" width="4" height="10" fill="#ff0"/>
<text x="20" y="405" class="sm">0.001729</text>
<rect x="100" y="395" width="52" height="12" fill="#00f"/>
<rect x="294" y="395" width="321" height="12" fill="#00f"/>
<rect x="667" y="395" width="288" height="12" fill="#00f"/>
<line x1="152" y1="401" x2="293" y2="401" stroke="#00f"/>
<line x1="615" y1="401" x2="666" y2="401" stroke="#00f"/>
<rect x="611" y="396" width="4" height="10" fill="#ff0"/>
<rect x="668" y="396" width="198" height="10" fill="#ff0"/>
<text x="20" y="425" class="sm">0.001657</text>
<rect x="100" y="415" width="96" height="12" fill="#00f"/>
<rect x="240" y="415" width="375" height="12" fill="#00f"/>
<rect x="667" y="415" width="288" height="12" fill="#00f"/>
<line x1="196" y1="421" x2="239" y2="421" stroke="#00f"/>
<line x1="615" y1="421" x2="666" y2="421" stroke="#00f"/>
<rect x="107" y="416" width="89" height="10" fill="#ff0"/>
<rect x="241" y="416" width="374" height="10" fill="#ff0"/>
<rect x="668" y="416" width="104" height="10" fill="#ff0"/>
<text x="20" y="445" class="sm">0.001434</text>
<rect x="100" y="435" width="52" height="12" fill="#00f"/>
<rect x="286" y="435" width="576" height="12" fill="#00f"/>
<rect x="918" y="435" width="37" height="12" fill="#00f"/>
<line x1="152" y1="441" x2="285" y2="441" stroke="#00f"/>
<line x1="862" y1="441" x2="917" y2="441" stroke="#00f"/>
<rect x="107" y="436" width="45" height="10" fill="#ff0"/>
<rect x="287" y="436" width="364" height="10" fill="#ff0"/>
<text x="20" y="465" class="sm">0.001255</text>
<rect x="100" y="455" width="52" height="12" fill="#00f"/>
<rect x="286" y="455" width="329" height="12" fill="#00f"/>
<rect x="918" y="455" width="37" height="12" fill="#00f"/>
<line x1="152" y1="461" x2="285" y2="461" stroke="#00f"/>
<line x1="615" y1="461" x2="917" y2="461" stroke="#00f"/>
<rect x="107" y="456" width="45" height="10" fill="#ff0"/>
<rect x="287" y="456" width="328" height="10" fill="#ff0"/>
<rect x="919" y="456" width="2" height="10" fill="#ff0"/>
<text x="20" y="485" class="sm">0.001035</text>
<rect x="100" y="475" width="96" height="12" fill="#00f"/>
<rect x="286" y="475" width="669" height="12" fill="#00f"/>
<line x1="196" y1="481" x2="285" y2="481" stroke="#00f"/>
<rect x="107" y="476" width="89" height="10" fill="#ff0"/>
<rect x="287" y="476" width="143" height="10" fill="#ff0"/>
<text x="20" y="505" class="sm">0.001012</text>
<rect x="100" y="495" width="52" height="12" fill="#00f"/>
<rect x="286" y="495" width="329" height="12" fill="#00f"/>
<rect x="667" y="495" width="195" height="12" fill="#00f"/>
<rect x="913" y="495" width="42" height="12" fill="#00f"/>
<line x1="152" y1="501" x2="285" y2="501" stroke="#00f"/>
<line x1="615" y1="501" x2="666" y2="501" stroke="#00f"/>
<line x1="862" y1="501" x2="912" y2="501" stroke="#00f"/>
<rect x="107" y="496" width="45" height="10" fill="#ff0"/>
<rect x="287" y="496" width="328" height="10" fill="#ff0"/>
<rect x="668" y="496" width="104" height="10" fill="#ff0"/>
<text x="20" y="525" class="sm">0.0009673</text>
<rect x="100" y="515" width="52" height="12" fill="#00f"/>
<rect x="286" y="515" width="329" height="12" fill="#00f"/>
<rect x="667" y="515" width="150" height="12" fill="#00f"/>
<rect x="918" y="515" width="37" height="12" fill="#00f"/>
<line x1="152" y1="521" x2="285" y2="521" stroke="#00f"/>
<line x1="615" y1="521" x2="666" y2="521" stroke="#00f"/>
<line x1="817" y1="521" x2="917" y2="521" stroke="#00f"/>
<rect x="107" y="516" width="45" height="10" fill="#ff0"/>
<rect x="287" y="516" width="328" height="10" fill="#ff0"/>
<rect x="668" y="516" width="104" height="10" fill="#ff0"/>
<text x="20" y="545" class="sm">0.0007499</text>
<rect x="100" y="535" width="52" height="12" fill="#00f"/>
<rect x="286" y="535" width="329" height="12" fill="#00f"/>
<rect x="667" y="535" width="144" height="12" fill="#00f"/>
<rect x="913" y="535" width="42" height="12" fill="#00f"/>
<line x1="152" y1="541" x2="285" y2="541" stroke="#00f"/>
<line x1="615" y1="541" x2="666" y2="541" stroke="#00f"/>
<line x1="811" y1="541" x2="912" y2="541" stroke="#00f"/>
<rect x="107" y="536" width="45" height="10" fill="#ff0"/>
<rect x="287" y="536" width="328" height="10" fill="#ff0"/>
<rect x="668" y="536" width="104" height="10" fill="#ff0"/>
<text x="20" y="565" class="sm">0.0006805</text>
<rect x="100" y="555" width="141" height="12" fill="#00f"/>
<rect x="286" y="555" width="329" height="12" fill="#00f"/>
<rect x="667" y="555" width="288" height="12" fill="#00f"/>
<line x1="241" y1="561" x2="285" y2="561" stroke="#00f"/>
<line x1="615" y1="561" x2="666" y2="561" stroke="#00f"/>
<rect x="611" y="556" width="4" height="10" fill="#ff0"/>
<rect x="668" y="556" width="198" height="10" fill="#ff0"/>
</svg>
