<svg viewBox="0 0 708 515" xmlns="http://www.w3.org/2000/svg">

<style>
  .sm { font: 12px sans-serif; }
  .lg { font: 15px sans-serif; }
</style>
<rect fill="#ddd" x="0" y="0" width="100%" height="100%"/>
<text x="20" y="20" class="lg">ch.8525 III:10199252-10199959 Gene:WBGene00011870</text>
<text x="20" y="50" class="sm">WormBase</text>
<rect x="100" y="40" width="98" height="12" fill="#00f"/>
<rect x="246" y="40" width="362" height="12" fill="#00f"/>
<line x1="198" y1="46" x2="245" y2="46" stroke="#00f"/>
<rect x="108" y="41" width="90" height="10" fill="#ff0"/>
<rect x="247" y="41" width="91" height="10" fill="#ff0"/>
<rect x="101" y="41" width="6" height="10" fill="brown"><title>.</title></rect>
<rect x="339" y="41" width="269" height="10" fill="brown"><title>.</title></rect>
<text x="20" y="70" class="sm">Fitness: 0.007604420703232827</text>
<rect x="198" y="65" width="48" height="5" fill="#00f"><title>373357.0</title></rect>
<rect x="3" y="70" width="119" height="5" fill="#00f"><title>1425.0</title></rect>
<rect x="634" y="75" width="46" height="5" fill="#f0f"><title>26.0</title></rect>
<text x="20" y="105" class="sm">0.9987</text>
<rect x="100" y="95" width="98" height="12" fill="#00f"/>
<rect x="246" y="95" width="365" height="12" fill="#00f"/>
<line x1="198" y1="101" x2="245" y2="101" stroke="#00f"/>
<rect x="108" y="96" width="90" height="10" fill="#ff0"/>
<rect x="247" y="96" width="91" height="10" fill="#ff0"/>
<text x="20" y="125" class="sm">0.0007061</text>
<rect x="100" y="115" width="264" height="12" fill="#00f"/>
<rect x="428" y="115" width="183" height="12" fill="#00f"/>
<line x1="364" y1="121" x2="427" y2="121" stroke="#00f"/>
<rect x="190" y="116" width="155" height="10" fill="#ff0"/>
<text x="20" y="145" class="sm">0.0004574</text>
<rect x="100" y="135" width="102" height="12" fill="#00f"/>
<rect x="246" y="135" width="365" height="12" fill="#00f"/>
<line x1="202" y1="141" x2="245" y2="141" stroke="#00f"/>
<rect x="190" y="136" width="12" height="10" fill="#ff0"/>
<rect x="247" y="136" width="91" height="10" fill="#ff0"/>
<text x="20" y="165" class="sm">8.437e-05</text>
<rect x="100" y="155" width="98" height="12" fill="#00f"/>
<rect x="246" y="155" width="118" height="12" fill="#00f"/>
<rect x="428" y="155" width="183" height="12" fill="#00f"/>
<line x1="198" y1="161" x2="245" y2="161" stroke="#00f"/>
<line x1="364" y1="161" x2="427" y2="161" stroke="#00f"/>
<rect x="108" y="156" width="90" height="10" fill="#ff0"/>
<rect x="247" y="156" width="91" height="10" fill="#ff0"/>
<text x="20" y="185" class="sm">2.48e-05</text>
<rect x="100" y="175" width="264" height="12" fill="#00f"/>
<rect x="514" y="175" width="97" height="12" fill="#00f"/>
<line x1="364" y1="181" x2="513" y2="181" stroke="#00f"/>
<rect x="190" y="176" width="155" height="10" fill="#ff0"/>
<text x="20" y="205" class="sm">1.775e-05</text>
<rect x="100" y="195" width="98" height="12" fill="#00f"/>
<rect x="428" y="195" width="183" height="12" fill="#00f"/>
<line x1="198" y1="201" x2="427" y2="201" stroke="#00f"/>
<rect x="108" y="196" width="90" height="10" fill="#ff0"/>
<rect x="429" y="196" width="22" height="10" fill="#ff0"/>
<text x="20" y="225" class="sm">1.734e-05</text>
<rect x="100" y="215" width="274" height="12" fill="#00f"/>
<rect x="428" y="215" width="183" height="12" fill="#00f"/>
<line x1="374" y1="221" x2="427" y2="221" stroke="#00f"/>
<rect x="190" y="216" width="155" height="10" fill="#ff0"/>
<text x="20" y="245" class="sm">1.581e-05</text>
<rect x="100" y="235" width="264" height="12" fill="#00f"/>
<rect x="483" y="235" width="128" height="12" fill="#00f"/>
<line x1="364" y1="241" x2="482" y2="241" stroke="#00f"/>
<rect x="190" y="236" width="155" height="10" fill="#ff0"/>
<text x="20" y="265" class="sm">3.319e-06</text>
<rect x="100" y="255" width="98" height="12" fill="#00f"/>
<rect x="514" y="255" width="97" height="12" fill="#00f"/>
<line x1="198" y1="261" x2="513" y2="261" stroke="#00f"/>
<rect x="182" y="256" width="8" height="10" fill="#ff0"/>
<text x="20" y="285" class="sm">3.077e-06</text>
<rect x="100" y="275" width="98" height="12" fill="#00f"/>
<rect x="483" y="275" width="128" height="12" fill="#00f"/>
<line x1="198" y1="281" x2="482" y2="281" stroke="#00f"/>
<rect x="108" y="276" width="90" height="10" fill="#ff0"/>
<rect x="484" y="276" width="37" height="10" fill="#ff0"/>
<text x="20" y="305" class="sm">2.963e-06</text>
<rect x="100" y="295" width="98" height="12" fill="#00f"/>
<rect x="246" y="295" width="118" height="12" fill="#00f"/>
<rect x="514" y="295" width="97" height="12" fill="#00f"/>
<line x1="198" y1="301" x2="245" y2="301" stroke="#00f"/>
<line x1="364" y1="301" x2="513" y2="301" stroke="#00f"/>
<rect x="108" y="296" width="90" height="10" fill="#ff0"/>
<rect x="247" y="296" width="91" height="10" fill="#ff0"/>
<text x="20" y="325" class="sm">2.652e-06</text>
<rect x="100" y="315" width="264" height="12" fill="#00f"/>
<rect x="464" y="315" width="147" height="12" fill="#00f"/>
<line x1="364" y1="321" x2="463" y2="321" stroke="#00f"/>
<rect x="190" y="316" width="155" height="10" fill="#ff0"/>
<text x="20" y="345" class="sm">1.889e-06</text>
<rect x="100" y="335" width="98" height="12" fill="#00f"/>
<rect x="246" y="335" width="118" height="12" fill="#00f"/>
<rect x="483" y="335" width="128" height="12" fill="#00f"/>
<line x1="198" y1="341" x2="245" y2="341" stroke="#00f"/>
<line x1="364" y1="341" x2="482" y2="341" stroke="#00f"/>
<rect x="108" y="336" width="90" height="10" fill="#ff0"/>
<rect x="247" y="336" width="91" height="10" fill="#ff0"/>
<text x="20" y="365" class="sm">1.871e-06</text>
<rect x="100" y="355" width="98" height="12" fill="#00f"/>
<rect x="246" y="355" width="128" height="12" fill="#00f"/>
<rect x="428" y="355" width="183" height="12" fill="#00f"/>
<line x1="198" y1="361" x2="245" y2="361" stroke="#00f"/>
<line x1="374" y1="361" x2="427" y2="361" stroke="#00f"/>
<rect x="108" y="356" width="90" height="10" fill="#ff0"/>
<rect x="247" y="356" width="91" height="10" fill="#ff0"/>
<text x="20" y="385" class="sm">1.163e-06</text>
<rect x="100" y="375" width="333" height="12" fill="#00f"/>
<rect x="483" y="375" width="128" height="12" fill="#00f"/>
<line x1="433" y1="381" x2="482" y2="381" stroke="#00f"/>
<rect x="190" y="376" width="155" height="10" fill="#ff0"/>
<text x="20" y="405" class="sm">5.83e-07</text>
<rect x="100" y="395" width="98" height="12" fill="#00f"/>
<rect x="397" y="395" width="214" height="12" fill="#00f"/>
<line x1="198" y1="401" x2="396" y2="401" stroke="#00f"/>
<rect x="108" y="396" width="90" height="10" fill="#ff0"/>
<rect x="398" y="396" width="58" height="10" fill="#ff0"/>
<text x="20" y="425" class="sm">4.799e-07</text>
<rect x="100" y="415" width="320" height="12" fill="#00f"/>
<rect x="464" y="415" width="147" height="12" fill="#00f"/>
<line x1="420" y1="421" x2="463" y2="421" stroke="#00f"/>
<rect x="190" y="416" width="155" height="10" fill="#ff0"/>
<text x="20" y="445" class="sm">3.412e-07</text>
<rect x="100" y="435" width="83" height="12" fill="#00f"/>
<rect x="246" y="435" width="365" height="12" fill="#00f"/>
<line x1="183" y1="441" x2="245" y2="441" stroke="#00f"/>
<rect x="108" y="436" width="75" height="10" fill="#ff0"/>
<rect x="247" y="436" width="91" height="10" fill="#ff0"/>
<text x="20" y="465" class="sm">3.169e-07</text>
<rect x="100" y="455" width="98" height="12" fill="#00f"/>
<rect x="246" y="455" width="118" height="12" fill="#00f"/>
<rect x="464" y="455" width="147" height="12" fill="#00f"/>
<line x1="198" y1="461" x2="245" y2="461" stroke="#00f"/>
<line x1="364" y1="461" x2="463" y2="461" stroke="#00f"/>
<rect x="108" y="456" width="90" height="10" fill="#ff0"/>
<rect x="247" y="456" width="91" height="10" fill="#ff0"/>
<text x="20" y="485" class="sm">3.097e-07</text>
<rect x="100" y="475" width="98" height="12" fill="#00f"/>
<rect x="464" y="475" width="147" height="12" fill="#00f"/>
<line x1="198" y1="481" x2="463" y2="481" stroke="#00f"/>
<rect x="108" y="476" width="90" height="10" fill="#ff0"/>
<rect x="465" y="476" width="49" height="10" fill="#ff0"/>
</svg>
