<svg viewBox="0 0 1015 660" xmlns="http://www.w3.org/2000/svg">

<style>
  .sm { font: 12px sans-serif; }
  .lg { font: 15px sans-serif; }
</style>
<rect fill="#ddd" x="0" y="0" width="100%" height="100%"/>
<text x="20" y="20" class="lg">ch.9481 IV:2389345-2390359 Gene:WBGene00021420</text>
<text x="20" y="50" class="sm">WormBase</text>
<rect x="100" y="40" width="161" height="12" fill="#00f"/>
<rect x="317" y="40" width="98" height="12" fill="#00f"/>
<rect x="488" y="40" width="427" height="12" fill="#00f"/>
<line x1="261" y1="46" x2="316" y2="46" stroke="#00f"/>
<line x1="415" y1="46" x2="487" y2="46" stroke="#00f"/>
<rect x="115" y="41" width="146" height="10" fill="#ff0"/>
<rect x="318" y="41" width="97" height="10" fill="#ff0"/>
<rect x="489" y="41" width="291" height="10" fill="#ff0"/>
<rect x="101" y="41" width="13" height="10" fill="brown"><title>.</title></rect>
<rect x="781" y="41" width="134" height="10" fill="brown"><title>.</title></rect>
<text x="20" y="70" class="sm">Fitness: 0.0066544497198522965</text>
<rect x="415" y="65" width="73" height="5" fill="#00f"><title>3094310.0</title></rect>
<rect x="261" y="70" width="56" height="5" fill="#00f"><title>3004240.0</title></rect>
<rect x="421" y="75" width="67" height="5" fill="#00f"><title>193.0</title></rect>
<rect x="382" y="80" width="245" height="5" fill="#f0f"><title>172.0</title></rect>
<rect x="401" y="85" width="354" height="5" fill="#f0f"><title>65.0</title></rect>
<rect x="382" y="90" width="241" height="5" fill="#f0f"><title>28.0</title></rect>
<rect x="234" y="95" width="134" height="5" fill="#f0f"><title>24.0</title></rect>
<rect x="397" y="100" width="91" height="5" fill="#00f"><title>18.0</title></rect>
<rect x="690" y="105" width="27" height="5" fill="#f0f"><title>16.0</title></rect>
<rect x="716" y="110" width="39" height="5" fill="#f0f"><title>16.0</title></rect>
<rect x="623" y="115" width="144" height="5" fill="#f0f"><title>14.0</title></rect>
<rect x="623" y="120" width="108" height="5" fill="#f0f"><title>13.0</title></rect>
<rect x="383" y="125" width="305" height="5" fill="#00f"><title>12.0</title></rect>
<rect x="521" y="130" width="70" height="5" fill="#00f"><title>12.0</title></rect>
<rect x="519" y="135" width="221" height="5" fill="#00f"><title>11.0</title></rect>
<rect x="186" y="140" width="48" height="5" fill="#f0f"><title>8.0</title></rect>
<rect x="513" y="145" width="60" height="5" fill="#00f"><title>8.0</title></rect>
<rect x="137" y="150" width="43" height="5" fill="#00f"><title>6.0</title></rect>
<rect x="146" y="155" width="81" height="5" fill="#00f"><title>5.0</title></rect>
<rect x="170" y="160" width="64" height="5" fill="#f0f"><title>5.0</title></rect>
<rect x="198" y="165" width="36" height="5" fill="#f0f"><title>5.0</title></rect>
<rect x="198" y="170" width="170" height="5" fill="#f0f"><title>5.0</title></rect>
<rect x="215" y="175" width="516" height="5" fill="#f0f"><title>5.0</title></rect>
<rect x="625" y="180" width="90" height="5" fill="#00f"><title>5.0</title></rect>
<rect x="651" y="185" width="108" height="5" fill="#00f"><title>5.0</title></rect>
<rect x="198" y="190" width="444" height="5" fill="#f0f"><title>4.0</title></rect>
<rect x="368" y="195" width="33" height="5" fill="#f0f"><title>4.0</title></rect>
<rect x="623" y="200" width="248" height="5" fill="#f0f"><title>4.0</title></rect>
<rect x="198" y="205" width="569" height="5" fill="#f0f"><title>3.0</title></rect>
<rect x="522" y="210" width="190" height="5" fill="#00f"><title>3.0</title></rect>
<rect x="541" y="215" width="176" height="5" fill="#f0f"><title>3.0</title></rect>
<rect x="656" y="220" width="75" height="5" fill="#f0f"><title>3.0</title></rect>
<text x="20" y="250" class="sm">0.9682</text>
<rect x="100" y="240" width="161" height="12" fill="#00f"/>
<rect x="317" y="240" width="98" height="12" fill="#00f"/>
<rect x="488" y="240" width="430" height="12" fill="#00f"/>
<line x1="261" y1="246" x2="316" y2="246" stroke="#00f"/>
<line x1="415" y1="246" x2="487" y2="246" stroke="#00f"/>
<rect x="115" y="241" width="146" height="10" fill="#ff0"/>
<rect x="318" y="241" width="97" height="10" fill="#ff0"/>
<rect x="489" y="241" width="291" height="10" fill="#ff0"/>
<text x="20" y="270" class="sm">0.02511</text>
<rect x="100" y="260" width="315" height="12" fill="#00f"/>
<rect x="488" y="260" width="430" height="12" fill="#00f"/>
<line x1="415" y1="266" x2="487" y2="266" stroke="#00f"/>
<rect x="496" y="261" width="284" height="10" fill="#ff0"/>
<text x="20" y="290" class="sm">0.001509</text>
<rect x="100" y="280" width="161" height="12" fill="#00f"/>
<rect x="317" y="280" width="98" height="12" fill="#00f"/>
<rect x="501" y="280" width="417" height="12" fill="#00f"/>
<line x1="261" y1="286" x2="316" y2="286" stroke="#00f"/>
<line x1="415" y1="286" x2="500" y2="286" stroke="#00f"/>
<rect x="115" y="281" width="146" height="10" fill="#ff0"/>
<rect x="318" y="281" width="97" height="10" fill="#ff0"/>
<rect x="502" y="281" width="57" height="10" fill="#ff0"/>
<text x="20" y="310" class="sm">0.001001</text>
<rect x="100" y="300" width="161" height="12" fill="#00f"/>
<rect x="324" y="300" width="91" height="12" fill="#00f"/>
<rect x="488" y="300" width="430" height="12" fill="#00f"/>
<line x1="261" y1="306" x2="323" y2="306" stroke="#00f"/>
<line x1="415" y1="306" x2="487" y2="306" stroke="#00f"/>
<rect x="496" y="301" width="284" height="10" fill="#ff0"/>
<text x="20" y="330" class="sm">0.0008641</text>
<rect x="100" y="320" width="161" height="12" fill="#00f"/>
<rect x="488" y="320" width="430" height="12" fill="#00f"/>
<line x1="261" y1="326" x2="487" y2="326" stroke="#00f"/>
<rect x="496" y="321" width="284" height="10" fill="#ff0"/>
<text x="20" y="350" class="sm">0.0007898</text>
<rect x="100" y="340" width="161" height="12" fill="#00f"/>
<rect x="317" y="340" width="98" height="12" fill="#00f"/>
<rect x="488" y="340" width="340" height="12" fill="#00f"/>
<rect x="884" y="340" width="34" height="12" fill="#00f"/>
<line x1="261" y1="346" x2="316" y2="346" stroke="#00f"/>
<line x1="415" y1="346" x2="487" y2="346" stroke="#00f"/>
<line x1="828" y1="346" x2="883" y2="346" stroke="#00f"/>
<rect x="115" y="341" width="146" height="10" fill="#ff0"/>
<rect x="318" y="341" width="97" height="10" fill="#ff0"/>
<rect x="489" y="341" width="291" height="10" fill="#ff0"/>
<text x="20" y="370" class="sm">0.0006262</text>
<rect x="100" y="360" width="161" height="12" fill="#00f"/>
<rect x="317" y="360" width="98" height="12" fill="#00f"/>
<rect x="511" y="360" width="407" height="12" fill="#00f"/>
<line x1="261" y1="366" x2="316" y2="366" stroke="#00f"/>
<line x1="415" y1="366" x2="510" y2="366" stroke="#00f"/>
<rect x="115" y="361" width="146" height="10" fill="#ff0"/>
<rect x="318" y="361" width="97" height="10" fill="#ff0"/>
<rect x="512" y="361" width="36" height="10" fill="#ff0"/>
<text x="20" y="390" class="sm">0.0005437</text>
<rect x="100" y="380" width="161" height="12" fill="#00f"/>
<rect x="317" y="380" width="104" height="12" fill="#00f"/>
<rect x="488" y="380" width="430" height="12" fill="#00f"/>
<line x1="261" y1="386" x2="316" y2="386" stroke="#00f"/>
<line x1="421" y1="386" x2="487" y2="386" stroke="#00f"/>
<rect x="496" y="381" width="284" height="10" fill="#ff0"/>
<text x="20" y="410" class="sm">0.0002155</text>
<rect x="100" y="400" width="161" height="12" fill="#00f"/>
<rect x="317" y="400" width="98" height="12" fill="#00f"/>
<rect x="530" y="400" width="388" height="12" fill="#00f"/>
<line x1="261" y1="406" x2="316" y2="406" stroke="#00f"/>
<line x1="415" y1="406" x2="529" y2="406" stroke="#00f"/>
<rect x="115" y="401" width="146" height="10" fill="#ff0"/>
<rect x="318" y="401" width="97" height="10" fill="#ff0"/>
<rect x="531" y="401" width="249" height="10" fill="#ff0"/>
<text x="20" y="430" class="sm">0.0001961</text>
<rect x="100" y="420" width="161" height="12" fill="#00f"/>
<rect x="317" y="420" width="601" height="12" fill="#00f"/>
<line x1="261" y1="426" x2="316" y2="426" stroke="#00f"/>
<rect x="496" y="421" width="284" height="10" fill="#ff0"/>
<text x="20" y="450" class="sm">0.0001761</text>
<rect x="100" y="440" width="146" height="12" fill="#00f"/>
<rect x="317" y="440" width="98" height="12" fill="#00f"/>
<rect x="488" y="440" width="430" height="12" fill="#00f"/>
<line x1="246" y1="446" x2="316" y2="446" stroke="#00f"/>
<line x1="415" y1="446" x2="487" y2="446" stroke="#00f"/>
<rect x="115" y="441" width="131" height="10" fill="#ff0"/>
<rect x="318" y="441" width="97" height="10" fill="#ff0"/>
<rect x="489" y="441" width="291" height="10" fill="#ff0"/>
<text x="20" y="470" class="sm">0.0001707</text>
<rect x="100" y="460" width="161" height="12" fill="#00f"/>
<rect x="317" y="460" width="98" height="12" fill="#00f"/>
<rect x="567" y="460" width="351" height="12" fill="#00f"/>
<line x1="261" y1="466" x2="316" y2="466" stroke="#00f"/>
<line x1="415" y1="466" x2="566" y2="466" stroke="#00f"/>
<rect x="115" y="461" width="146" height="10" fill="#ff0"/>
<rect x="318" y="461" width="97" height="10" fill="#ff0"/>
<rect x="568" y="461" width="93" height="10" fill="#ff0"/>
<text x="20" y="490" class="sm">0.0001597</text>
<rect x="100" y="480" width="161" height="12" fill="#00f"/>
<rect x="317" y="480" width="80" height="12" fill="#00f"/>
<rect x="488" y="480" width="430" height="12" fill="#00f"/>
<line x1="261" y1="486" x2="316" y2="486" stroke="#00f"/>
<line x1="397" y1="486" x2="487" y2="486" stroke="#00f"/>
<rect x="115" y="481" width="146" height="10" fill="#ff0"/>
<rect x="318" y="481" width="79" height="10" fill="#ff0"/>
<rect x="489" y="481" width="291" height="10" fill="#ff0"/>
<text x="20" y="510" class="sm">0.000126</text>
<rect x="100" y="500" width="161" height="12" fill="#00f"/>
<rect x="317" y="500" width="36" height="12" fill="#00f"/>
<rect x="488" y="500" width="430" height="12" fill="#00f"/>
<line x1="261" y1="506" x2="316" y2="506" stroke="#00f"/>
<line x1="353" y1="506" x2="487" y2="506" stroke="#00f"/>
<rect x="496" y="501" width="284" height="10" fill="#ff0"/>
<text x="20" y="530" class="sm">0.0001173</text>
<rect x="100" y="520" width="235" height="12" fill="#00f"/>
<rect x="488" y="520" width="430" height="12" fill="#00f"/>
<line x1="335" y1="526" x2="487" y2="526" stroke="#00f"/>
<rect x="496" y="521" width="284" height="10" fill="#ff0"/>
<text x="20" y="550" class="sm">9.166e-05</text>
<rect x="100" y="540" width="237" height="12" fill="#00f"/>
<rect x="488" y="540" width="430" height="12" fill="#00f"/>
<line x1="337" y1="546" x2="487" y2="546" stroke="#00f"/>
<rect x="496" y="541" width="284" height="10" fill="#ff0"/>
<text x="20" y="570" class="sm">4.065e-05</text>
<rect x="100" y="560" width="161" height="12" fill="#00f"/>
<rect x="317" y="560" width="98" height="12" fill="#00f"/>
<rect x="488" y="560" width="333" height="12" fill="#00f"/>
<rect x="884" y="560" width="34" height="12" fill="#00f"/>
<line x1="261" y1="566" x2="316" y2="566" stroke="#00f"/>
<line x1="415" y1="566" x2="487" y2="566" stroke="#00f"/>
<line x1="821" y1="566" x2="883" y2="566" stroke="#00f"/>
<rect x="115" y="561" width="146" height="10" fill="#ff0"/>
<rect x="318" y="561" width="97" height="10" fill="#ff0"/>
<rect x="489" y="561" width="291" height="10" fill="#ff0"/>
<text x="20" y="590" class="sm">3.915e-05</text>
<rect x="100" y="580" width="315" height="12" fill="#00f"/>
<rect x="501" y="580" width="417" height="12" fill="#00f"/>
<line x1="415" y1="586" x2="500" y2="586" stroke="#00f"/>
<rect x="556" y="581" width="224" height="10" fill="#ff0"/>
<text x="20" y="610" class="sm">3.001e-05</text>
<rect x="100" y="600" width="195" height="12" fill="#00f"/>
<rect x="488" y="600" width="430" height="12" fill="#00f"/>
<line x1="295" y1="606" x2="487" y2="606" stroke="#00f"/>
<rect x="496" y="601" width="284" height="10" fill="#ff0"/>
<text x="20" y="630" class="sm">2.049e-05</text>
<rect x="100" y="620" width="315" height="12" fill="#00f"/>
<rect x="488" y="620" width="340" height="12" fill="#00f"/>
<rect x="884" y="620" width="34" height="12" fill="#00f"/>
<line x1="415" y1="626" x2="487" y2="626" stroke="#00f"/>
<line x1="828" y1="626" x2="883" y2="626" stroke="#00f"/>
<rect x="496" y="621" width="284" height="10" fill="#ff0"/>
</svg>
