<svg viewBox="0 0 1192 640" xmlns="http://www.w3.org/2000/svg">

<style>
  .sm { font: 12px sans-serif; }
  .lg { font: 15px sans-serif; }
</style>
<rect fill="#ddd" x="0" y="0" width="100%" height="100%"/>
<text x="20" y="20" class="lg">ch.9629 IV:3385810-3387001 Gene:WBGene00015248</text>
<text x="20" y="50" class="sm">WormBase</text>
<rect x="100" y="40" width="262" height="12" fill="#00f"/>
<rect x="887" y="40" width="205" height="12" fill="#00f"/>
<line x1="362" y1="46" x2="886" y2="46" stroke="#00f"/>
<rect x="102" y="41" width="260" height="10" fill="#ff0"/>
<rect x="888" y="41" width="68" height="10" fill="#ff0"/>
<rect x="101" y="41" width="0" height="10" fill="brown"><title>.</title></rect>
<rect x="957" y="41" width="135" height="10" fill="brown"><title>.</title></rect>
<text x="20" y="70" class="sm">Fitness: 0.00027385809691271335</text>
<rect x="362" y="65" width="525" height="5" fill="#00f"><title>4627840.0</title></rect>
<rect x="434" y="70" width="453" height="5" fill="#00f"><title>205.0</title></rect>
<rect x="371" y="75" width="526" height="5" fill="#f0f"><title>151.0</title></rect>
<rect x="225" y="80" width="71" height="5" fill="#00f"><title>129.0</title></rect>
<rect x="195" y="85" width="128" height="5" fill="#00f"><title>76.0</title></rect>
<rect x="143" y="90" width="102" height="5" fill="#00f"><title>74.0</title></rect>
<rect x="323" y="95" width="597" height="5" fill="#00f"><title>51.0</title></rect>
<rect x="225" y="100" width="662" height="5" fill="#00f"><title>47.0</title></rect>
<rect x="323" y="105" width="564" height="5" fill="#00f"><title>42.0</title></rect>
<rect x="143" y="110" width="96" height="5" fill="#00f"><title>40.0</title></rect>
<rect x="195" y="115" width="30" height="5" fill="#00f"><title>40.0</title></rect>
<rect x="267" y="120" width="45" height="5" fill="#00f"><title>38.0</title></rect>
<rect x="225" y="125" width="98" height="5" fill="#00f"><title>33.0</title></rect>
<rect x="119" y="130" width="126" height="5" fill="#00f"><title>29.0</title></rect>
<rect x="157" y="135" width="60" height="5" fill="#00f"><title>12.0</title></rect>
<rect x="543" y="140" width="344" height="5" fill="#00f"><title>12.0</title></rect>
<rect x="245" y="145" width="78" height="5" fill="#00f"><title>11.0</title></rect>
<rect x="245" y="150" width="93" height="5" fill="#00f"><title>9.0</title></rect>
<rect x="362" y="155" width="281" height="5" fill="#00f"><title>9.0</title></rect>
<rect x="225" y="160" width="32" height="5" fill="#00f"><title>6.0</title></rect>
<rect x="323" y="165" width="612" height="5" fill="#00f"><title>6.0</title></rect>
<rect x="162" y="170" width="92" height="5" fill="#00f"><title>4.0</title></rect>
<rect x="201" y="175" width="38" height="5" fill="#00f"><title>4.0</title></rect>
<rect x="218" y="180" width="27" height="5" fill="#00f"><title>4.0</title></rect>
<rect x="344" y="185" width="525" height="5" fill="#f0f"><title>4.0</title></rect>
<rect x="179" y="190" width="66" height="5" fill="#00f"><title>3.0</title></rect>
<rect x="245" y="195" width="75" height="5" fill="#00f"><title>3.0</title></rect>
<rect x="262" y="200" width="61" height="5" fill="#00f"><title>3.0</title></rect>
<text x="20" y="230" class="sm">0.9999</text>
<rect x="100" y="220" width="262" height="12" fill="#00f"/>
<rect x="887" y="220" width="208" height="12" fill="#00f"/>
<line x1="362" y1="226" x2="886" y2="226" stroke="#00f"/>
<rect x="102" y="221" width="260" height="10" fill="#ff0"/>
<rect x="888" y="221" width="68" height="10" fill="#ff0"/>
<text x="20" y="250" class="sm">5.206e-05</text>
<rect x="100" y="240" width="334" height="12" fill="#00f"/>
<rect x="887" y="240" width="208" height="12" fill="#00f"/>
<line x1="434" y1="246" x2="886" y2="246" stroke="#00f"/>
<rect x="102" y="241" width="332" height="10" fill="#ff0"/>
<rect x="888" y="241" width="68" height="10" fill="#ff0"/>
<text x="20" y="270" class="sm">2.421e-05</text>
<rect x="100" y="260" width="223" height="12" fill="#00f"/>
<rect x="887" y="260" width="208" height="12" fill="#00f"/>
<line x1="323" y1="266" x2="886" y2="266" stroke="#00f"/>
<rect x="102" y="261" width="221" height="10" fill="#ff0"/>
<rect x="888" y="261" width="68" height="10" fill="#ff0"/>
<text x="20" y="290" class="sm">5.452e-06</text>
<rect x="100" y="280" width="262" height="12" fill="#00f"/>
<rect x="745" y="280" width="28" height="12" fill="#00f"/>
<rect x="887" y="280" width="208" height="12" fill="#00f"/>
<line x1="362" y1="286" x2="744" y2="286" stroke="#00f"/>
<line x1="773" y1="286" x2="886" y2="286" stroke="#00f"/>
<rect x="102" y="281" width="260" height="10" fill="#ff0"/>
<rect x="746" y="281" width="27" height="10" fill="#ff0"/>
<rect x="888" y="281" width="199" height="10" fill="#ff0"/>
<text x="20" y="310" class="sm">4.794e-06</text>
<rect x="100" y="300" width="262" height="12" fill="#00f"/>
<rect x="458" y="300" width="48" height="12" fill="#00f"/>
<rect x="887" y="300" width="208" height="12" fill="#00f"/>
<line x1="362" y1="306" x2="457" y2="306" stroke="#00f"/>
<line x1="506" y1="306" x2="886" y2="306" stroke="#00f"/>
<rect x="102" y="301" width="260" height="10" fill="#ff0"/>
<rect x="459" y="301" width="29" height="10" fill="#ff0"/>
<text x="20" y="330" class="sm">3.798e-06</text>
<rect x="100" y="320" width="262" height="12" fill="#00f"/>
<rect x="963" y="320" width="132" height="12" fill="#00f"/>
<line x1="362" y1="326" x2="962" y2="326" stroke="#00f"/>
<rect x="102" y="321" width="260" height="10" fill="#ff0"/>
<rect x="964" y="321" width="17" height="10" fill="#ff0"/>
<text x="20" y="350" class="sm">2.511e-06</text>
<rect x="100" y="340" width="406" height="12" fill="#00f"/>
<rect x="887" y="340" width="208" height="12" fill="#00f"/>
<line x1="506" y1="346" x2="886" y2="346" stroke="#00f"/>
<rect x="102" y="341" width="338" height="10" fill="#ff0"/>
<text x="20" y="370" class="sm">2.198e-06</text>
<rect x="100" y="360" width="262" height="12" fill="#00f"/>
<rect x="643" y="360" width="39" height="12" fill="#00f"/>
<rect x="887" y="360" width="208" height="12" fill="#00f"/>
<line x1="362" y1="366" x2="642" y2="366" stroke="#00f"/>
<line x1="682" y1="366" x2="886" y2="366" stroke="#00f"/>
<rect x="102" y="361" width="260" height="10" fill="#ff0"/>
<rect x="644" y="361" width="8" height="10" fill="#ff0"/>
<text x="20" y="390" class="sm">8.242e-07</text>
<rect x="100" y="380" width="262" height="12" fill="#00f"/>
<rect x="441" y="380" width="65" height="12" fill="#00f"/>
<rect x="887" y="380" width="208" height="12" fill="#00f"/>
<line x1="362" y1="386" x2="440" y2="386" stroke="#00f"/>
<line x1="506" y1="386" x2="886" y2="386" stroke="#00f"/>
<rect x="102" y="381" width="260" height="10" fill="#ff0"/>
<rect x="442" y="381" width="5" height="10" fill="#ff0"/>
<text x="20" y="410" class="sm">7.445e-07</text>
<rect x="100" y="400" width="162" height="12" fill="#00f"/>
<rect x="317" y="400" width="45" height="12" fill="#00f"/>
<rect x="887" y="400" width="208" height="12" fill="#00f"/>
<line x1="262" y1="406" x2="316" y2="406" stroke="#00f"/>
<line x1="362" y1="406" x2="886" y2="406" stroke="#00f"/>
<rect x="102" y="401" width="160" height="10" fill="#ff0"/>
<rect x="318" y="401" width="44" height="10" fill="#ff0"/>
<rect x="888" y="401" width="93" height="10" fill="#ff0"/>
<text x="20" y="430" class="sm">6.717e-07</text>
<rect x="100" y="420" width="262" height="12" fill="#00f"/>
<rect x="458" y="420" width="57" height="12" fill="#00f"/>
<rect x="887" y="420" width="208" height="12" fill="#00f"/>
<line x1="362" y1="426" x2="457" y2="426" stroke="#00f"/>
<line x1="515" y1="426" x2="886" y2="426" stroke="#00f"/>
<rect x="102" y="421" width="260" height="10" fill="#ff0"/>
<rect x="459" y="421" width="29" height="10" fill="#ff0"/>
<text x="20" y="450" class="sm">5.34e-07</text>
<rect x="100" y="440" width="415" height="12" fill="#00f"/>
<rect x="887" y="440" width="208" height="12" fill="#00f"/>
<line x1="515" y1="446" x2="886" y2="446" stroke="#00f"/>
<rect x="102" y="441" width="338" height="10" fill="#ff0"/>
<text x="20" y="470" class="sm">1.603e-07</text>
<rect x="100" y="460" width="262" height="12" fill="#00f"/>
<rect x="745" y="460" width="54" height="12" fill="#00f"/>
<rect x="887" y="460" width="208" height="12" fill="#00f"/>
<line x1="362" y1="466" x2="744" y2="466" stroke="#00f"/>
<line x1="799" y1="466" x2="886" y2="466" stroke="#00f"/>
<rect x="102" y="461" width="260" height="10" fill="#ff0"/>
<rect x="746" y="461" width="53" height="10" fill="#ff0"/>
<rect x="888" y="461" width="68" height="10" fill="#ff0"/>
<text x="20" y="490" class="sm">1.597e-07</text>
<rect x="100" y="480" width="262" height="12" fill="#00f"/>
<rect x="441" y="480" width="74" height="12" fill="#00f"/>
<rect x="887" y="480" width="208" height="12" fill="#00f"/>
<line x1="362" y1="486" x2="440" y2="486" stroke="#00f"/>
<line x1="515" y1="486" x2="886" y2="486" stroke="#00f"/>
<rect x="102" y="481" width="260" height="10" fill="#ff0"/>
<rect x="442" y="481" width="5" height="10" fill="#ff0"/>
<text x="20" y="510" class="sm">1.47e-07</text>
<rect x="100" y="500" width="262" height="12" fill="#00f"/>
<rect x="745" y="500" width="49" height="12" fill="#00f"/>
<rect x="887" y="500" width="208" height="12" fill="#00f"/>
<line x1="362" y1="506" x2="744" y2="506" stroke="#00f"/>
<line x1="794" y1="506" x2="886" y2="506" stroke="#00f"/>
<rect x="102" y="501" width="260" height="10" fill="#ff0"/>
<rect x="746" y="501" width="48" height="10" fill="#ff0"/>
<rect x="888" y="501" width="199" height="10" fill="#ff0"/>
<text x="20" y="530" class="sm">1.157e-07</text>
<rect x="100" y="520" width="262" height="12" fill="#00f"/>
<rect x="473" y="520" width="33" height="12" fill="#00f"/>
<rect x="887" y="520" width="208" height="12" fill="#00f"/>
<line x1="362" y1="526" x2="472" y2="526" stroke="#00f"/>
<line x1="506" y1="526" x2="886" y2="526" stroke="#00f"/>
<rect x="102" y="521" width="260" height="10" fill="#ff0"/>
<rect x="474" y="521" width="14" height="10" fill="#ff0"/>
<text x="20" y="550" class="sm">3.63e-08</text>
<rect x="100" y="540" width="125" height="12" fill="#00f"/>
<rect x="296" y="540" width="66" height="12" fill="#00f"/>
<rect x="887" y="540" width="208" height="12" fill="#00f"/>
<line x1="225" y1="546" x2="295" y2="546" stroke="#00f"/>
<line x1="362" y1="546" x2="886" y2="546" stroke="#00f"/>
<rect x="102" y="541" width="123" height="10" fill="#ff0"/>
<rect x="297" y="541" width="65" height="10" fill="#ff0"/>
<rect x="888" y="541" width="199" height="10" fill="#ff0"/>
<text x="20" y="570" class="sm">3.204e-08</text>
<rect x="100" y="560" width="262" height="12" fill="#00f"/>
<rect x="719" y="560" width="54" height="12" fill="#00f"/>
<rect x="887" y="560" width="208" height="12" fill="#00f"/>
<line x1="362" y1="566" x2="718" y2="566" stroke="#00f"/>
<line x1="773" y1="566" x2="886" y2="566" stroke="#00f"/>
<rect x="102" y="561" width="260" height="10" fill="#ff0"/>
<rect x="720" y="561" width="41" height="10" fill="#ff0"/>
<text x="20" y="590" class="sm">1.586e-08</text>
<rect x="100" y="580" width="262" height="12" fill="#00f"/>
<rect x="473" y="580" width="42" height="12" fill="#00f"/>
<rect x="887" y="580" width="208" height="12" fill="#00f"/>
<line x1="362" y1="586" x2="472" y2="586" stroke="#00f"/>
<line x1="515" y1="586" x2="886" y2="586" stroke="#00f"/>
<rect x="102" y="581" width="260" height="10" fill="#ff0"/>
<rect x="474" y="581" width="14" height="10" fill="#ff0"/>
<text x="20" y="610" class="sm">1.099e-08</text>
<rect x="100" y="600" width="129" height="12" fill="#00f"/>
<rect x="296" y="600" width="66" height="12" fill="#00f"/>
<rect x="887" y="600" width="208" height="12" fill="#00f"/>
<line x1="229" y1="606" x2="295" y2="606" stroke="#00f"/>
<line x1="362" y1="606" x2="886" y2="606" stroke="#00f"/>
<rect x="102" y="601" width="127" height="10" fill="#ff0"/>
<rect x="297" y="601" width="65" height="10" fill="#ff0"/>
<rect x="888" y="601" width="93" height="10" fill="#ff0"/>
</svg>
