<svg viewBox="0 0 602 505" xmlns="http://www.w3.org/2000/svg">

<style>
  .sm { font: 12px sans-serif; }
  .lg { font: 15px sans-serif; }
</style>
<rect fill="#ddd" x="0" y="0" width="100%" height="100%"/>
<text x="20" y="20" class="lg">ch.9832 IV:4291374-4291975 Gene:WBGene00017485</text>
<text x="20" y="50" class="sm">WormBase</text>
<rect x="100" y="40" width="127" height="12" fill="#00f"/>
<rect x="335" y="40" width="167" height="12" fill="#00f"/>
<line x1="227" y1="46" x2="334" y2="46" stroke="#00f"/>
<rect x="116" y="41" width="111" height="10" fill="#ff0"/>
<rect x="336" y="41" width="106" height="10" fill="#ff0"/>
<rect x="101" y="41" width="14" height="10" fill="brown"><title>.</title></rect>
<rect x="443" y="41" width="59" height="10" fill="brown"><title>.</title></rect>
<text x="20" y="70" class="sm">Fitness: 4.097252052524011e-09</text>
<rect x="227" y="65" width="108" height="5" fill="#00f"><title>452526.0</title></rect>
<text x="20" y="95" class="sm">1.0</text>
<rect x="100" y="85" width="127" height="12" fill="#00f"/>
<rect x="335" y="85" width="170" height="12" fill="#00f"/>
<line x1="227" y1="91" x2="334" y2="91" stroke="#00f"/>
<rect x="116" y="86" width="111" height="10" fill="#ff0"/>
<rect x="336" y="86" width="106" height="10" fill="#ff0"/>
<text x="20" y="115" class="sm">9.293e-10</text>
<rect x="100" y="105" width="151" height="12" fill="#00f"/>
<rect x="335" y="105" width="170" height="12" fill="#00f"/>
<line x1="251" y1="111" x2="334" y2="111" stroke="#00f"/>
<rect x="116" y="106" width="135" height="10" fill="#ff0"/>
<rect x="336" y="106" width="106" height="10" fill="#ff0"/>
<text x="20" y="135" class="sm">5.245e-10</text>
<rect x="100" y="125" width="127" height="12" fill="#00f"/>
<rect x="376" y="125" width="129" height="12" fill="#00f"/>
<line x1="227" y1="131" x2="375" y2="131" stroke="#00f"/>
<rect x="116" y="126" width="111" height="10" fill="#ff0"/>
<rect x="377" y="126" width="70" height="10" fill="#ff0"/>
<text x="20" y="155" class="sm">1.734e-10</text>
<rect x="100" y="145" width="156" height="12" fill="#00f"/>
<rect x="335" y="145" width="170" height="12" fill="#00f"/>
<line x1="256" y1="151" x2="334" y2="151" stroke="#00f"/>
<rect x="116" y="146" width="140" height="10" fill="#ff0"/>
<rect x="336" y="146" width="5" height="10" fill="#ff0"/>
<text x="20" y="175" class="sm">1.467e-10</text>
<rect x="100" y="165" width="177" height="12" fill="#00f"/>
<rect x="335" y="165" width="170" height="12" fill="#00f"/>
<line x1="277" y1="171" x2="334" y2="171" stroke="#00f"/>
<rect x="116" y="166" width="161" height="10" fill="#ff0"/>
<rect x="336" y="166" width="5" height="10" fill="#ff0"/>
<text x="20" y="195" class="sm">9.684e-11</text>
<rect x="100" y="185" width="102" height="12" fill="#00f"/>
<rect x="335" y="185" width="170" height="12" fill="#00f"/>
<line x1="202" y1="191" x2="334" y2="191" stroke="#00f"/>
<rect x="354" y="186" width="140" height="10" fill="#ff0"/>
<text x="20" y="215" class="sm">8.455e-11</text>
<rect x="100" y="205" width="131" height="12" fill="#00f"/>
<rect x="335" y="205" width="170" height="12" fill="#00f"/>
<line x1="231" y1="211" x2="334" y2="211" stroke="#00f"/>
<rect x="116" y="206" width="115" height="10" fill="#ff0"/>
<rect x="336" y="206" width="111" height="10" fill="#ff0"/>
<text x="20" y="235" class="sm">4.838e-11</text>
<rect x="100" y="225" width="186" height="12" fill="#00f"/>
<rect x="335" y="225" width="170" height="12" fill="#00f"/>
<line x1="286" y1="231" x2="334" y2="231" stroke="#00f"/>
<rect x="116" y="226" width="170" height="10" fill="#ff0"/>
<rect x="336" y="226" width="5" height="10" fill="#ff0"/>
<text x="20" y="255" class="sm">2.099e-11</text>
<rect x="100" y="245" width="127" height="12" fill="#00f"/>
<rect x="287" y="245" width="218" height="12" fill="#00f"/>
<line x1="227" y1="251" x2="286" y2="251" stroke="#00f"/>
<rect x="354" y="246" width="140" height="10" fill="#ff0"/>
<text x="20" y="275" class="sm">1.508e-11</text>
<rect x="100" y="265" width="127" height="12" fill="#00f"/>
<rect x="262" y="265" width="243" height="12" fill="#00f"/>
<line x1="227" y1="271" x2="261" y2="271" stroke="#00f"/>
<rect x="354" y="266" width="140" height="10" fill="#ff0"/>
<text x="20" y="295" class="sm">3.293e-12</text>
<rect x="100" y="285" width="127" height="12" fill="#00f"/>
<rect x="274" y="285" width="231" height="12" fill="#00f"/>
<line x1="227" y1="291" x2="273" y2="291" stroke="#00f"/>
<rect x="116" y="286" width="111" height="10" fill="#ff0"/>
<rect x="275" y="286" width="28" height="10" fill="#ff0"/>
<text x="20" y="315" class="sm">2.46e-12</text>
<rect x="100" y="305" width="127" height="12" fill="#00f"/>
<rect x="311" y="305" width="194" height="12" fill="#00f"/>
<line x1="227" y1="311" x2="310" y2="311" stroke="#00f"/>
<rect x="354" y="306" width="140" height="10" fill="#ff0"/>
<text x="20" y="335" class="sm">2.302e-12</text>
<rect x="100" y="325" width="127" height="12" fill="#00f"/>
<rect x="347" y="325" width="158" height="12" fill="#00f"/>
<line x1="227" y1="331" x2="346" y2="331" stroke="#00f"/>
<rect x="116" y="326" width="111" height="10" fill="#ff0"/>
<rect x="348" y="326" width="94" height="10" fill="#ff0"/>
<text x="20" y="355" class="sm">6.645e-13</text>
<rect x="100" y="345" width="127" height="12" fill="#00f"/>
<rect x="299" y="345" width="206" height="12" fill="#00f"/>
<line x1="227" y1="351" x2="298" y2="351" stroke="#00f"/>
<rect x="354" y="346" width="140" height="10" fill="#ff0"/>
<text x="20" y="375" class="sm">1.112e-13</text>
<rect x="100" y="365" width="127" height="12" fill="#00f"/>
<rect x="413" y="365" width="92" height="12" fill="#00f"/>
<line x1="227" y1="371" x2="412" y2="371" stroke="#00f"/>
<rect x="116" y="366" width="111" height="10" fill="#ff0"/>
<rect x="414" y="366" width="28" height="10" fill="#ff0"/>
<text x="20" y="395" class="sm">2.633e-14</text>
<rect x="100" y="385" width="188" height="12" fill="#00f"/>
<rect x="335" y="385" width="170" height="12" fill="#00f"/>
<line x1="288" y1="391" x2="334" y2="391" stroke="#00f"/>
<rect x="116" y="386" width="172" height="10" fill="#ff0"/>
<rect x="336" y="386" width="111" height="10" fill="#ff0"/>
<text x="20" y="415" class="sm">2.587e-14</text>
<rect x="100" y="405" width="31" height="12" fill="#00f"/>
<rect x="335" y="405" width="170" height="12" fill="#00f"/>
<line x1="131" y1="411" x2="334" y2="411" stroke="#00f"/>
<rect x="354" y="406" width="140" height="10" fill="#ff0"/>
<text x="20" y="435" class="sm">1.877e-15</text>
<rect x="100" y="425" width="31" height="12" fill="#00f"/>
<rect x="185" y="425" width="42" height="12" fill="#00f"/>
<rect x="335" y="425" width="170" height="12" fill="#00f"/>
<line x1="131" y1="431" x2="184" y2="431" stroke="#00f"/>
<line x1="227" y1="431" x2="334" y2="431" stroke="#00f"/>
<rect x="116" y="426" width="15" height="10" fill="#ff0"/>
<rect x="186" y="426" width="41" height="10" fill="#ff0"/>
<rect x="336" y="426" width="106" height="10" fill="#ff0"/>
<text x="20" y="455" class="sm">7.931e-16</text>
<rect x="100" y="445" width="127" height="12" fill="#00f"/>
<rect x="335" y="445" width="95" height="12" fill="#00f"/>
<rect x="472" y="445" width="33" height="12" fill="#00f"/>
<line x1="227" y1="451" x2="334" y2="451" stroke="#00f"/>
<line x1="430" y1="451" x2="471" y2="451" stroke="#00f"/>
<rect x="116" y="446" width="111" height="10" fill="#ff0"/>
<rect x="336" y="446" width="94" height="10" fill="#ff0"/>
<rect x="473" y="446" width="5" height="10" fill="#ff0"/>
<text x="20" y="475" class="sm">1.665e-16</text>
<rect x="100" y="465" width="84" height="12" fill="#00f"/>
<rect x="335" y="465" width="170" height="12" fill="#00f"/>
<line x1="184" y1="471" x2="334" y2="471" stroke="#00f"/>
<rect x="354" y="466" width="140" height="10" fill="#ff0"/>
</svg>
