<svg viewBox="0 0 1002 555" xmlns="http://www.w3.org/2000/svg">

<style>
  .sm { font: 12px sans-serif; }
  .lg { font: 15px sans-serif; }
</style>
<rect fill="#ddd" x="0" y="0" width="100%" height="100%"/>
<text x="20" y="20" class="lg">ch.9194 IV:443885-444886 Gene:WBGene00022045</text>
<text x="20" y="50" class="sm">WormBase</text>
<rect x="100" y="40" width="73" height="12" fill="#00f"/>
<rect x="388" y="40" width="128" height="12" fill="#00f"/>
<rect x="590" y="40" width="96" height="12" fill="#00f"/>
<rect x="731" y="40" width="171" height="12" fill="#00f"/>
<line x1="173" y1="46" x2="387" y2="46" stroke="#00f"/>
<line x1="516" y1="46" x2="589" y2="46" stroke="#00f"/>
<line x1="686" y1="46" x2="730" y2="46" stroke="#00f"/>
<rect x="101" y="41" width="72" height="10" fill="#ff0"/>
<rect x="389" y="41" width="127" height="10" fill="#ff0"/>
<rect x="591" y="41" width="95" height="10" fill="#ff0"/>
<rect x="732" y="41" width="80" height="10" fill="#ff0"/>
<rect x="813" y="41" width="89" height="10" fill="brown"><title>.</title></rect>
<text x="20" y="70" class="sm">Fitness: 0.22959000267207266</text>
<rect x="686" y="65" width="45" height="5" fill="#00f"><title>363697.0</title></rect>
<rect x="173" y="70" width="215" height="5" fill="#00f"><title>360028.0</title></rect>
<rect x="516" y="75" width="74" height="5" fill="#00f"><title>346976.0</title></rect>
<rect x="686" y="80" width="49" height="5" fill="#00f"><title>269.0</title></rect>
<rect x="173" y="85" width="217" height="5" fill="#00f"><title>134.0</title></rect>
<rect x="173" y="90" width="417" height="5" fill="#00f"><title>60.0</title></rect>
<rect x="515" y="95" width="75" height="5" fill="#00f"><title>32.0</title></rect>
<rect x="211" y="100" width="177" height="5" fill="#00f"><title>18.0</title></rect>
<rect x="177" y="105" width="213" height="5" fill="#00f"><title>6.0</title></rect>
<rect x="149" y="110" width="501" height="5" fill="#00f"><title>3.0</title></rect>
<rect x="173" y="115" width="219" height="5" fill="#00f"><title>3.0</title></rect>
<text x="20" y="145" class="sm">0.6804</text>
<rect x="100" y="135" width="73" height="12" fill="#00f"/>
<rect x="388" y="135" width="128" height="12" fill="#00f"/>
<rect x="590" y="135" width="96" height="12" fill="#00f"/>
<rect x="731" y="135" width="174" height="12" fill="#00f"/>
<line x1="173" y1="141" x2="387" y2="141" stroke="#00f"/>
<line x1="516" y1="141" x2="589" y2="141" stroke="#00f"/>
<line x1="686" y1="141" x2="730" y2="141" stroke="#00f"/>
<rect x="101" y="136" width="72" height="10" fill="#ff0"/>
<rect x="389" y="136" width="127" height="10" fill="#ff0"/>
<rect x="591" y="136" width="95" height="10" fill="#ff0"/>
<rect x="732" y="136" width="80" height="10" fill="#ff0"/>
<text x="20" y="165" class="sm">0.2274</text>
<rect x="100" y="155" width="77" height="12" fill="#00f"/>
<rect x="388" y="155" width="128" height="12" fill="#00f"/>
<rect x="590" y="155" width="96" height="12" fill="#00f"/>
<rect x="731" y="155" width="174" height="12" fill="#00f"/>
<line x1="177" y1="161" x2="387" y2="161" stroke="#00f"/>
<line x1="516" y1="161" x2="589" y2="161" stroke="#00f"/>
<line x1="686" y1="161" x2="730" y2="161" stroke="#00f"/>
<rect x="490" y="156" width="26" height="10" fill="#ff0"/>
<rect x="591" y="156" width="95" height="10" fill="#ff0"/>
<rect x="732" y="156" width="80" height="10" fill="#ff0"/>
<text x="20" y="185" class="sm">0.03469</text>
<rect x="100" y="175" width="73" height="12" fill="#00f"/>
<rect x="388" y="175" width="104" height="12" fill="#00f"/>
<rect x="590" y="175" width="96" height="12" fill="#00f"/>
<rect x="731" y="175" width="174" height="12" fill="#00f"/>
<line x1="173" y1="181" x2="387" y2="181" stroke="#00f"/>
<line x1="492" y1="181" x2="589" y2="181" stroke="#00f"/>
<line x1="686" y1="181" x2="730" y2="181" stroke="#00f"/>
<rect x="101" y="176" width="72" height="10" fill="#ff0"/>
<rect x="389" y="176" width="103" height="10" fill="#ff0"/>
<rect x="591" y="176" width="95" height="10" fill="#ff0"/>
<rect x="732" y="176" width="80" height="10" fill="#ff0"/>
<text x="20" y="205" class="sm">0.02531</text>
<rect x="100" y="195" width="73" height="12" fill="#00f"/>
<rect x="388" y="195" width="90" height="12" fill="#00f"/>
<rect x="590" y="195" width="96" height="12" fill="#00f"/>
<rect x="731" y="195" width="174" height="12" fill="#00f"/>
<line x1="173" y1="201" x2="387" y2="201" stroke="#00f"/>
<line x1="478" y1="201" x2="589" y2="201" stroke="#00f"/>
<line x1="686" y1="201" x2="730" y2="201" stroke="#00f"/>
<rect x="398" y="196" width="80" height="10" fill="#ff0"/>
<rect x="591" y="196" width="95" height="10" fill="#ff0"/>
<rect x="732" y="196" width="80" height="10" fill="#ff0"/>
<text x="20" y="225" class="sm">0.01159</text>
<rect x="100" y="215" width="77" height="12" fill="#00f"/>
<rect x="388" y="215" width="104" height="12" fill="#00f"/>
<rect x="590" y="215" width="96" height="12" fill="#00f"/>
<rect x="731" y="215" width="174" height="12" fill="#00f"/>
<line x1="177" y1="221" x2="387" y2="221" stroke="#00f"/>
<line x1="492" y1="221" x2="589" y2="221" stroke="#00f"/>
<line x1="686" y1="221" x2="730" y2="221" stroke="#00f"/>
<rect x="490" y="216" width="2" height="10" fill="#ff0"/>
<rect x="591" y="216" width="95" height="10" fill="#ff0"/>
<rect x="732" y="216" width="80" height="10" fill="#ff0"/>
<text x="20" y="245" class="sm">0.00846</text>
<rect x="100" y="235" width="77" height="12" fill="#00f"/>
<rect x="388" y="235" width="90" height="12" fill="#00f"/>
<rect x="590" y="235" width="96" height="12" fill="#00f"/>
<rect x="731" y="235" width="174" height="12" fill="#00f"/>
<line x1="177" y1="241" x2="387" y2="241" stroke="#00f"/>
<line x1="478" y1="241" x2="589" y2="241" stroke="#00f"/>
<line x1="686" y1="241" x2="730" y2="241" stroke="#00f"/>
<rect x="398" y="236" width="80" height="10" fill="#ff0"/>
<rect x="591" y="236" width="95" height="10" fill="#ff0"/>
<rect x="732" y="236" width="80" height="10" fill="#ff0"/>
<text x="20" y="265" class="sm">0.005345</text>
<rect x="100" y="255" width="73" height="12" fill="#00f"/>
<rect x="388" y="255" width="160" height="12" fill="#00f"/>
<rect x="590" y="255" width="96" height="12" fill="#00f"/>
<rect x="731" y="255" width="174" height="12" fill="#00f"/>
<line x1="173" y1="261" x2="387" y2="261" stroke="#00f"/>
<line x1="548" y1="261" x2="589" y2="261" stroke="#00f"/>
<line x1="686" y1="261" x2="730" y2="261" stroke="#00f"/>
<rect x="101" y="256" width="72" height="10" fill="#ff0"/>
<rect x="389" y="256" width="139" height="10" fill="#ff0"/>
<text x="20" y="285" class="sm">0.002295</text>
<rect x="100" y="275" width="73" height="12" fill="#00f"/>
<rect x="388" y="275" width="128" height="12" fill="#00f"/>
<rect x="590" y="275" width="67" height="12" fill="#00f"/>
<rect x="731" y="275" width="174" height="12" fill="#00f"/>
<line x1="173" y1="281" x2="387" y2="281" stroke="#00f"/>
<line x1="516" y1="281" x2="589" y2="281" stroke="#00f"/>
<line x1="657" y1="281" x2="730" y2="281" stroke="#00f"/>
<rect x="101" y="276" width="72" height="10" fill="#ff0"/>
<rect x="389" y="276" width="127" height="10" fill="#ff0"/>
<rect x="591" y="276" width="66" height="10" fill="#ff0"/>
<rect x="732" y="276" width="13" height="10" fill="#ff0"/>
<text x="20" y="305" class="sm">0.001786</text>
<rect x="100" y="295" width="77" height="12" fill="#00f"/>
<rect x="388" y="295" width="160" height="12" fill="#00f"/>
<rect x="590" y="295" width="96" height="12" fill="#00f"/>
<rect x="731" y="295" width="174" height="12" fill="#00f"/>
<line x1="177" y1="301" x2="387" y2="301" stroke="#00f"/>
<line x1="548" y1="301" x2="589" y2="301" stroke="#00f"/>
<line x1="686" y1="301" x2="730" y2="301" stroke="#00f"/>
<rect x="398" y="296" width="150" height="10" fill="#ff0"/>
<rect x="591" y="296" width="43" height="10" fill="#ff0"/>
<text x="20" y="325" class="sm">0.0007669</text>
<rect x="100" y="315" width="77" height="12" fill="#00f"/>
<rect x="388" y="315" width="128" height="12" fill="#00f"/>
<rect x="590" y="315" width="67" height="12" fill="#00f"/>
<rect x="731" y="315" width="174" height="12" fill="#00f"/>
<line x1="177" y1="321" x2="387" y2="321" stroke="#00f"/>
<line x1="516" y1="321" x2="589" y2="321" stroke="#00f"/>
<line x1="657" y1="321" x2="730" y2="321" stroke="#00f"/>
<rect x="398" y="316" width="118" height="10" fill="#ff0"/>
<rect x="591" y="316" width="33" height="10" fill="#ff0"/>
<text x="20" y="345" class="sm">0.0006421</text>
<rect x="100" y="335" width="73" height="12" fill="#00f"/>
<rect x="590" y="335" width="96" height="12" fill="#00f"/>
<rect x="731" y="335" width="47" height="12" fill="#00f"/>
<rect x="830" y="335" width="75" height="12" fill="#00f"/>
<line x1="173" y1="341" x2="589" y2="341" stroke="#00f"/>
<line x1="686" y1="341" x2="730" y2="341" stroke="#00f"/>
<line x1="778" y1="341" x2="829" y2="341" stroke="#00f"/>
<rect x="101" y="336" width="72" height="10" fill="#ff0"/>
<rect x="591" y="336" width="43" height="10" fill="#ff0"/>
<text x="20" y="365" class="sm">0.0003979</text>
<rect x="100" y="355" width="73" height="12" fill="#00f"/>
<rect x="590" y="355" width="96" height="12" fill="#00f"/>
<rect x="731" y="355" width="32" height="12" fill="#00f"/>
<rect x="857" y="355" width="48" height="12" fill="#00f"/>
<line x1="173" y1="361" x2="589" y2="361" stroke="#00f"/>
<line x1="686" y1="361" x2="730" y2="361" stroke="#00f"/>
<line x1="763" y1="361" x2="856" y2="361" stroke="#00f"/>
<rect x="101" y="356" width="72" height="10" fill="#ff0"/>
<rect x="591" y="356" width="43" height="10" fill="#ff0"/>
<text x="20" y="385" class="sm">0.0002267</text>
<rect x="100" y="375" width="77" height="12" fill="#00f"/>
<rect x="590" y="375" width="96" height="12" fill="#00f"/>
<rect x="731" y="375" width="47" height="12" fill="#00f"/>
<rect x="830" y="375" width="75" height="12" fill="#00f"/>
<line x1="177" y1="381" x2="589" y2="381" stroke="#00f"/>
<line x1="686" y1="381" x2="730" y2="381" stroke="#00f"/>
<line x1="778" y1="381" x2="829" y2="381" stroke="#00f"/>
<rect x="631" y="376" width="55" height="10" fill="#ff0"/>
<rect x="732" y="376" width="39" height="10" fill="#ff0"/>
<text x="20" y="405" class="sm">0.0001405</text>
<rect x="100" y="395" width="77" height="12" fill="#00f"/>
<rect x="590" y="395" width="96" height="12" fill="#00f"/>
<rect x="731" y="395" width="32" height="12" fill="#00f"/>
<rect x="857" y="395" width="48" height="12" fill="#00f"/>
<line x1="177" y1="401" x2="589" y2="401" stroke="#00f"/>
<line x1="686" y1="401" x2="730" y2="401" stroke="#00f"/>
<line x1="763" y1="401" x2="856" y2="401" stroke="#00f"/>
<rect x="631" y="396" width="55" height="10" fill="#ff0"/>
<rect x="732" y="396" width="31" height="10" fill="#ff0"/>
<rect x="858" y="396" width="28" height="10" fill="#ff0"/>
<text x="20" y="425" class="sm">0.000117</text>
<rect x="100" y="415" width="73" height="12" fill="#00f"/>
<rect x="388" y="415" width="104" height="12" fill="#00f"/>
<rect x="590" y="415" width="67" height="12" fill="#00f"/>
<rect x="731" y="415" width="174" height="12" fill="#00f"/>
<line x1="173" y1="421" x2="387" y2="421" stroke="#00f"/>
<line x1="492" y1="421" x2="589" y2="421" stroke="#00f"/>
<line x1="657" y1="421" x2="730" y2="421" stroke="#00f"/>
<rect x="101" y="416" width="72" height="10" fill="#ff0"/>
<rect x="389" y="416" width="103" height="10" fill="#ff0"/>
<rect x="591" y="416" width="66" height="10" fill="#ff0"/>
<rect x="732" y="416" width="13" height="10" fill="#ff0"/>
<text x="20" y="445" class="sm">0.0001125</text>
<rect x="100" y="435" width="73" height="12" fill="#00f"/>
<rect x="590" y="435" width="96" height="12" fill="#00f"/>
<rect x="731" y="435" width="47" height="12" fill="#00f"/>
<rect x="857" y="435" width="48" height="12" fill="#00f"/>
<line x1="173" y1="441" x2="589" y2="441" stroke="#00f"/>
<line x1="686" y1="441" x2="730" y2="441" stroke="#00f"/>
<line x1="778" y1="441" x2="856" y2="441" stroke="#00f"/>
<rect x="101" y="436" width="72" height="10" fill="#ff0"/>
<rect x="591" y="436" width="43" height="10" fill="#ff0"/>
<text x="20" y="465" class="sm">9.255e-05</text>
<rect x="100" y="455" width="73" height="12" fill="#00f"/>
<rect x="590" y="455" width="96" height="12" fill="#00f"/>
<rect x="731" y="455" width="26" height="12" fill="#00f"/>
<rect x="857" y="455" width="48" height="12" fill="#00f"/>
<line x1="173" y1="461" x2="589" y2="461" stroke="#00f"/>
<line x1="686" y1="461" x2="730" y2="461" stroke="#00f"/>
<line x1="757" y1="461" x2="856" y2="461" stroke="#00f"/>
<rect x="101" y="456" width="72" height="10" fill="#ff0"/>
<rect x="591" y="456" width="43" height="10" fill="#ff0"/>
<text x="20" y="485" class="sm">8.663e-05</text>
<rect x="100" y="475" width="73" height="12" fill="#00f"/>
<rect x="388" y="475" width="61" height="12" fill="#00f"/>
<rect x="590" y="475" width="96" height="12" fill="#00f"/>
<rect x="731" y="475" width="174" height="12" fill="#00f"/>
<line x1="173" y1="481" x2="387" y2="481" stroke="#00f"/>
<line x1="449" y1="481" x2="589" y2="481" stroke="#00f"/>
<line x1="686" y1="481" x2="730" y2="481" stroke="#00f"/>
<rect x="101" y="476" width="72" height="10" fill="#ff0"/>
<rect x="389" y="476" width="60" height="10" fill="#ff0"/>
<rect x="591" y="476" width="33" height="10" fill="#ff0"/>
<text x="20" y="505" class="sm">8.537e-05</text>
<rect x="100" y="495" width="73" height="12" fill="#00f"/>
<rect x="388" y="495" width="90" height="12" fill="#00f"/>
<rect x="590" y="495" width="67" height="12" fill="#00f"/>
<rect x="731" y="495" width="174" height="12" fill="#00f"/>
<line x1="173" y1="501" x2="387" y2="501" stroke="#00f"/>
<line x1="478" y1="501" x2="589" y2="501" stroke="#00f"/>
<line x1="657" y1="501" x2="730" y2="501" stroke="#00f"/>
<rect x="101" y="496" width="72" height="10" fill="#ff0"/>
<rect x="389" y="496" width="89" height="10" fill="#ff0"/>
<rect x="591" y="496" width="43" height="10" fill="#ff0"/>
<text x="20" y="525" class="sm">3.973e-05</text>
<rect x="100" y="515" width="77" height="12" fill="#00f"/>
<rect x="590" y="515" width="96" height="12" fill="#00f"/>
<rect x="731" y="515" width="47" height="12" fill="#00f"/>
<rect x="857" y="515" width="48" height="12" fill="#00f"/>
<line x1="177" y1="521" x2="589" y2="521" stroke="#00f"/>
<line x1="686" y1="521" x2="730" y2="521" stroke="#00f"/>
<line x1="778" y1="521" x2="856" y2="521" stroke="#00f"/>
<rect x="631" y="516" width="55" height="10" fill="#ff0"/>
<rect x="732" y="516" width="39" height="10" fill="#ff0"/>
</svg>
