<svg viewBox="0 0 833 575" xmlns="http://www.w3.org/2000/svg">

<style>
  .sm { font: 12px sans-serif; }
  .lg { font: 15px sans-serif; }
</style>
<rect fill="#ddd" x="0" y="0" width="100%" height="100%"/>
<text x="20" y="20" class="lg">ch.9180 IV:387984-388816 Gene:WBGene00020300</text>
<text x="20" y="50" class="sm">WormBase</text>
<rect x="100" y="40" width="51" height="12" fill="#00f"/>
<rect x="193" y="40" width="179" height="12" fill="#00f"/>
<rect x="420" y="40" width="310" height="12" fill="#00f"/>
<line x1="151" y1="46" x2="192" y2="46" stroke="#00f"/>
<line x1="372" y1="46" x2="419" y2="46" stroke="#00f"/>
<rect x="109" y="41" width="42" height="10" fill="#ff0"/>
<rect x="194" y="41" width="178" height="10" fill="#ff0"/>
<rect x="421" y="41" width="95" height="10" fill="#ff0"/>
<rect x="101" y="41" width="7" height="10" fill="brown"><title>.</title></rect>
<rect x="517" y="41" width="213" height="10" fill="brown"><title>.</title></rect>
<text x="20" y="70" class="sm">WormBase</text>
<rect x="246" y="60" width="126" height="12" fill="#00f"/>
<rect x="420" y="60" width="313" height="12" fill="#00f"/>
<line x1="372" y1="66" x2="419" y2="66" stroke="#00f"/>
<rect x="247" y="61" width="125" height="10" fill="#ff0"/>
<rect x="421" y="61" width="95" height="10" fill="#ff0"/>
<rect x="517" y="61" width="216" height="10" fill="brown"><title>.</title></rect>
<text x="20" y="90" class="sm">Fitness: 0.012055065868106101</text>
<rect x="151" y="85" width="42" height="5" fill="#00f"><title>616191.0</title></rect>
<rect x="372" y="90" width="48" height="5" fill="#00f"><title>392356.0</title></rect>
<rect x="149" y="95" width="44" height="5" fill="#00f"><title>1339.0</title></rect>
<rect x="361" y="100" width="59" height="5" fill="#00f"><title>857.0</title></rect>
<rect x="262" y="105" width="51" height="5" fill="#00f"><title>20.0</title></rect>
<rect x="285" y="110" width="55" height="5" fill="#00f"><title>11.0</title></rect>
<rect x="151" y="115" width="31" height="5" fill="#00f"><title>6.0</title></rect>
<rect x="363" y="120" width="50" height="5" fill="#f0f"><title>6.0</title></rect>
<rect x="256" y="125" width="41" height="5" fill="#00f"><title>3.0</title></rect>
<rect x="372" y="130" width="73" height="5" fill="#00f"><title>3.0</title></rect>
<rect x="571" y="135" width="50" height="5" fill="#f0f"><title>3.0</title></rect>
<text x="20" y="165" class="sm">0.6197</text>
<rect x="100" y="155" width="51" height="12" fill="#00f"/>
<rect x="193" y="155" width="179" height="12" fill="#00f"/>
<rect x="420" y="155" width="316" height="12" fill="#00f"/>
<line x1="151" y1="161" x2="192" y2="161" stroke="#00f"/>
<line x1="372" y1="161" x2="419" y2="161" stroke="#00f"/>
<rect x="109" y="156" width="42" height="10" fill="#ff0"/>
<rect x="194" y="156" width="178" height="10" fill="#ff0"/>
<rect x="421" y="156" width="95" height="10" fill="#ff0"/>
<text x="20" y="185" class="sm">0.3664</text>
<rect x="100" y="175" width="51" height="12" fill="#00f"/>
<rect x="193" y="175" width="543" height="12" fill="#00f"/>
<line x1="151" y1="181" x2="192" y2="181" stroke="#00f"/>
<rect x="109" y="176" width="42" height="10" fill="#ff0"/>
<rect x="194" y="176" width="217" height="10" fill="#ff0"/>
<text x="20" y="205" class="sm">0.005554</text>
<rect x="100" y="195" width="49" height="12" fill="#00f"/>
<rect x="193" y="195" width="179" height="12" fill="#00f"/>
<rect x="420" y="195" width="316" height="12" fill="#00f"/>
<line x1="149" y1="201" x2="192" y2="201" stroke="#00f"/>
<line x1="372" y1="201" x2="419" y2="201" stroke="#00f"/>
<rect x="137" y="196" width="12" height="10" fill="#ff0"/>
<rect x="194" y="196" width="178" height="10" fill="#ff0"/>
<rect x="421" y="196" width="95" height="10" fill="#ff0"/>
<text x="20" y="225" class="sm">0.003283</text>
<rect x="100" y="215" width="49" height="12" fill="#00f"/>
<rect x="193" y="215" width="543" height="12" fill="#00f"/>
<line x1="149" y1="221" x2="192" y2="221" stroke="#00f"/>
<rect x="137" y="216" width="12" height="10" fill="#ff0"/>
<rect x="194" y="216" width="217" height="10" fill="#ff0"/>
<text x="20" y="245" class="sm">0.001702</text>
<rect x="100" y="235" width="51" height="12" fill="#00f"/>
<rect x="193" y="235" width="168" height="12" fill="#00f"/>
<rect x="420" y="235" width="316" height="12" fill="#00f"/>
<line x1="151" y1="241" x2="192" y2="241" stroke="#00f"/>
<line x1="361" y1="241" x2="419" y2="241" stroke="#00f"/>
<rect x="109" y="236" width="42" height="10" fill="#ff0"/>
<rect x="194" y="236" width="167" height="10" fill="#ff0"/>
<rect x="421" y="236" width="160" height="10" fill="#ff0"/>
<text x="20" y="265" class="sm">0.001411</text>
<rect x="100" y="255" width="51" height="12" fill="#00f"/>
<rect x="193" y="255" width="116" height="12" fill="#00f"/>
<rect x="420" y="255" width="316" height="12" fill="#00f"/>
<line x1="151" y1="261" x2="192" y2="261" stroke="#00f"/>
<line x1="309" y1="261" x2="419" y2="261" stroke="#00f"/>
<rect x="109" y="256" width="42" height="10" fill="#ff0"/>
<rect x="194" y="256" width="115" height="10" fill="#ff0"/>
<rect x="421" y="256" width="95" height="10" fill="#ff0"/>
<text x="20" y="285" class="sm">0.0007302</text>
<rect x="100" y="275" width="272" height="12" fill="#00f"/>
<rect x="420" y="275" width="316" height="12" fill="#00f"/>
<line x1="372" y1="281" x2="419" y2="281" stroke="#00f"/>
<rect x="109" y="276" width="263" height="10" fill="#ff0"/>
<rect x="421" y="276" width="95" height="10" fill="#ff0"/>
<text x="20" y="305" class="sm">0.0003099</text>
<rect x="100" y="295" width="51" height="12" fill="#00f"/>
<rect x="193" y="295" width="238" height="12" fill="#00f"/>
<rect x="492" y="295" width="244" height="12" fill="#00f"/>
<line x1="151" y1="301" x2="192" y2="301" stroke="#00f"/>
<line x1="431" y1="301" x2="491" y2="301" stroke="#00f"/>
<rect x="109" y="296" width="42" height="10" fill="#ff0"/>
<rect x="194" y="296" width="217" height="10" fill="#ff0"/>
<text x="20" y="325" class="sm">0.000265</text>
<rect x="100" y="315" width="51" height="12" fill="#00f"/>
<rect x="193" y="315" width="40" height="12" fill="#00f"/>
<rect x="420" y="315" width="316" height="12" fill="#00f"/>
<line x1="151" y1="321" x2="192" y2="321" stroke="#00f"/>
<line x1="233" y1="321" x2="419" y2="321" stroke="#00f"/>
<rect x="137" y="316" width="14" height="10" fill="#ff0"/>
<rect x="194" y="316" width="39" height="10" fill="#ff0"/>
<rect x="421" y="316" width="160" height="10" fill="#ff0"/>
<text x="20" y="345" class="sm">0.0002123</text>
<rect x="100" y="335" width="51" height="12" fill="#00f"/>
<rect x="193" y="335" width="69" height="12" fill="#00f"/>
<rect x="420" y="335" width="316" height="12" fill="#00f"/>
<line x1="151" y1="341" x2="192" y2="341" stroke="#00f"/>
<line x1="262" y1="341" x2="419" y2="341" stroke="#00f"/>
<rect x="109" y="336" width="42" height="10" fill="#ff0"/>
<rect x="194" y="336" width="68" height="10" fill="#ff0"/>
<rect x="421" y="336" width="160" height="10" fill="#ff0"/>
<text x="20" y="365" class="sm">0.0001602</text>
<rect x="100" y="355" width="51" height="12" fill="#00f"/>
<rect x="420" y="355" width="316" height="12" fill="#00f"/>
<line x1="151" y1="361" x2="419" y2="361" stroke="#00f"/>
<rect x="109" y="356" width="42" height="10" fill="#ff0"/>
<rect x="421" y="356" width="160" height="10" fill="#ff0"/>
<text x="20" y="385" class="sm">6.004e-05</text>
<rect x="100" y="375" width="51" height="12" fill="#00f"/>
<rect x="193" y="375" width="27" height="12" fill="#00f"/>
<rect x="420" y="375" width="316" height="12" fill="#00f"/>
<line x1="151" y1="381" x2="192" y2="381" stroke="#00f"/>
<line x1="220" y1="381" x2="419" y2="381" stroke="#00f"/>
<rect x="109" y="376" width="42" height="10" fill="#ff0"/>
<rect x="194" y="376" width="26" height="10" fill="#ff0"/>
<rect x="421" y="376" width="160" height="10" fill="#ff0"/>
<text x="20" y="405" class="sm">5.657e-05</text>
<rect x="100" y="395" width="51" height="12" fill="#00f"/>
<rect x="193" y="395" width="179" height="12" fill="#00f"/>
<rect x="492" y="395" width="244" height="12" fill="#00f"/>
<line x1="151" y1="401" x2="192" y2="401" stroke="#00f"/>
<line x1="372" y1="401" x2="491" y2="401" stroke="#00f"/>
<rect x="109" y="396" width="42" height="10" fill="#ff0"/>
<rect x="194" y="396" width="178" height="10" fill="#ff0"/>
<rect x="493" y="396" width="23" height="10" fill="#ff0"/>
<text x="20" y="425" class="sm">5.114e-05</text>
<rect x="100" y="415" width="51" height="12" fill="#00f"/>
<rect x="193" y="415" width="116" height="12" fill="#00f"/>
<rect x="391" y="415" width="345" height="12" fill="#00f"/>
<line x1="151" y1="421" x2="192" y2="421" stroke="#00f"/>
<line x1="309" y1="421" x2="390" y2="421" stroke="#00f"/>
<rect x="109" y="416" width="42" height="10" fill="#ff0"/>
<rect x="194" y="416" width="115" height="10" fill="#ff0"/>
<rect x="392" y="416" width="5" height="10" fill="#ff0"/>
<text x="20" y="445" class="sm">3.383e-05</text>
<rect x="100" y="435" width="51" height="12" fill="#00f"/>
<rect x="193" y="435" width="69" height="12" fill="#00f"/>
<rect x="328" y="435" width="44" height="12" fill="#00f"/>
<rect x="420" y="435" width="316" height="12" fill="#00f"/>
<line x1="151" y1="441" x2="192" y2="441" stroke="#00f"/>
<line x1="262" y1="441" x2="327" y2="441" stroke="#00f"/>
<line x1="372" y1="441" x2="419" y2="441" stroke="#00f"/>
<rect x="109" y="436" width="42" height="10" fill="#ff0"/>
<rect x="194" y="436" width="68" height="10" fill="#ff0"/>
<rect x="329" y="436" width="43" height="10" fill="#ff0"/>
<rect x="421" y="436" width="95" height="10" fill="#ff0"/>
<text x="20" y="465" class="sm">3.329e-05</text>
<rect x="100" y="455" width="51" height="12" fill="#00f"/>
<rect x="193" y="455" width="126" height="12" fill="#00f"/>
<rect x="420" y="455" width="316" height="12" fill="#00f"/>
<line x1="151" y1="461" x2="192" y2="461" stroke="#00f"/>
<line x1="319" y1="461" x2="419" y2="461" stroke="#00f"/>
<rect x="109" y="456" width="42" height="10" fill="#ff0"/>
<rect x="194" y="456" width="125" height="10" fill="#ff0"/>
<rect x="421" y="456" width="160" height="10" fill="#ff0"/>
<text x="20" y="485" class="sm">2.448e-05</text>
<rect x="100" y="475" width="51" height="12" fill="#00f"/>
<rect x="193" y="475" width="40" height="12" fill="#00f"/>
<rect x="328" y="475" width="44" height="12" fill="#00f"/>
<rect x="420" y="475" width="316" height="12" fill="#00f"/>
<line x1="151" y1="481" x2="192" y2="481" stroke="#00f"/>
<line x1="233" y1="481" x2="327" y2="481" stroke="#00f"/>
<line x1="372" y1="481" x2="419" y2="481" stroke="#00f"/>
<rect x="137" y="476" width="14" height="10" fill="#ff0"/>
<rect x="194" y="476" width="39" height="10" fill="#ff0"/>
<rect x="329" y="476" width="43" height="10" fill="#ff0"/>
<rect x="421" y="476" width="95" height="10" fill="#ff0"/>
<text x="20" y="505" class="sm">2.349e-05</text>
<rect x="100" y="495" width="51" height="12" fill="#00f"/>
<rect x="193" y="495" width="179" height="12" fill="#00f"/>
<rect x="420" y="495" width="41" height="12" fill="#00f"/>
<rect x="507" y="495" width="229" height="12" fill="#00f"/>
<line x1="151" y1="501" x2="192" y2="501" stroke="#00f"/>
<line x1="372" y1="501" x2="419" y2="501" stroke="#00f"/>
<line x1="461" y1="501" x2="506" y2="501" stroke="#00f"/>
<rect x="109" y="496" width="42" height="10" fill="#ff0"/>
<rect x="194" y="496" width="178" height="10" fill="#ff0"/>
<rect x="421" y="496" width="40" height="10" fill="#ff0"/>
<rect x="508" y="496" width="15" height="10" fill="#ff0"/>
<text x="20" y="525" class="sm">1.525e-05</text>
<rect x="100" y="515" width="49" height="12" fill="#00f"/>
<rect x="193" y="515" width="168" height="12" fill="#00f"/>
<rect x="420" y="515" width="316" height="12" fill="#00f"/>
<line x1="149" y1="521" x2="192" y2="521" stroke="#00f"/>
<line x1="361" y1="521" x2="419" y2="521" stroke="#00f"/>
<rect x="137" y="516" width="12" height="10" fill="#ff0"/>
<rect x="194" y="516" width="167" height="10" fill="#ff0"/>
<rect x="421" y="516" width="160" height="10" fill="#ff0"/>
<text x="20" y="545" class="sm">1.27e-05</text>
<rect x="100" y="535" width="51" height="12" fill="#00f"/>
<rect x="193" y="535" width="69" height="12" fill="#00f"/>
<rect x="328" y="535" width="408" height="12" fill="#00f"/>
<line x1="151" y1="541" x2="192" y2="541" stroke="#00f"/>
<line x1="262" y1="541" x2="327" y2="541" stroke="#00f"/>
<rect x="109" y="536" width="42" height="10" fill="#ff0"/>
<rect x="194" y="536" width="68" height="10" fill="#ff0"/>
<rect x="329" y="536" width="82" height="10" fill="#ff0"/>
</svg>
