<svg viewBox="0 0 1017 595" xmlns="http://www.w3.org/2000/svg">

<style>
  .sm { font: 12px sans-serif; }
  .lg { font: 15px sans-serif; }
</style>
<rect fill="#ddd" x="0" y="0" width="100%" height="100%"/>
<text x="20" y="20" class="lg">ch.9255 IV:795655-796671 Gene:WBGene00018934</text>
<text x="20" y="50" class="sm">WormBase</text>
<rect x="108" y="40" width="59" height="12" fill="#00f"/>
<rect x="214" y="40" width="294" height="12" fill="#00f"/>
<rect x="564" y="40" width="355" height="12" fill="#00f"/>
<line x1="167" y1="46" x2="213" y2="46" stroke="#00f"/>
<line x1="508" y1="46" x2="563" y2="46" stroke="#00f"/>
<rect x="112" y="41" width="55" height="10" fill="#ff0"/>
<rect x="215" y="41" width="293" height="10" fill="#ff0"/>
<rect x="565" y="41" width="291" height="10" fill="#ff0"/>
<rect x="109" y="41" width="2" height="10" fill="brown"><title>.</title></rect>
<rect x="857" y="41" width="62" height="10" fill="brown"><title>.</title></rect>
<text x="20" y="70" class="sm">WormBase</text>
<rect x="102" y="60" width="65" height="12" fill="#00f"/>
<rect x="214" y="60" width="700" height="12" fill="#00f"/>
<line x1="167" y1="66" x2="213" y2="66" stroke="#00f"/>
<rect x="112" y="61" width="55" height="10" fill="#ff0"/>
<rect x="215" y="61" width="510" height="10" fill="#ff0"/>
<rect x="103" y="61" width="8" height="10" fill="brown"><title>.</title></rect>
<rect x="726" y="61" width="188" height="10" fill="brown"><title>.</title></rect>
<text x="20" y="90" class="sm">Fitness: 0.028255857645752554</text>
<rect x="167" y="85" width="47" height="5" fill="#00f"><title>623253.0</title></rect>
<rect x="508" y="90" width="56" height="5" fill="#00f"><title>612933.0</title></rect>
<rect x="167" y="95" width="77" height="5" fill="#00f"><title>544.0</title></rect>
<rect x="171" y="100" width="47" height="5" fill="#f0f"><title>281.0</title></rect>
<rect x="508" y="105" width="58" height="5" fill="#00f"><title>134.0</title></rect>
<rect x="139" y="110" width="75" height="5" fill="#00f"><title>110.0</title></rect>
<rect x="139" y="115" width="105" height="5" fill="#00f"><title>98.0</title></rect>
<rect x="512" y="120" width="52" height="5" fill="#00f"><title>18.0</title></rect>
<rect x="289" y="125" width="326" height="5" fill="#f0f"><title>8.0</title></rect>
<rect x="441" y="130" width="123" height="5" fill="#00f"><title>5.0</title></rect>
<rect x="350" y="135" width="39" height="5" fill="#00f"><title>5.0</title></rect>
<rect x="721" y="140" width="34" height="5" fill="#00f"><title>4.0</title></rect>
<rect x="306" y="145" width="39" height="5" fill="#f0f"><title>4.0</title></rect>
<rect x="167" y="150" width="397" height="5" fill="#00f"><title>3.0</title></rect>
<rect x="270" y="155" width="38" height="5" fill="#f0f"><title>3.0</title></rect>
<text x="20" y="185" class="sm">0.9481</text>
<rect x="100" y="175" width="67" height="12" fill="#00f"/>
<rect x="214" y="175" width="294" height="12" fill="#00f"/>
<rect x="564" y="175" width="356" height="12" fill="#00f"/>
<line x1="167" y1="181" x2="213" y2="181" stroke="#00f"/>
<line x1="508" y1="181" x2="563" y2="181" stroke="#00f"/>
<rect x="112" y="176" width="55" height="10" fill="#ff0"/>
<rect x="215" y="176" width="293" height="10" fill="#ff0"/>
<rect x="565" y="176" width="291" height="10" fill="#ff0"/>
<text x="20" y="205" class="sm">0.02439</text>
<rect x="100" y="195" width="67" height="12" fill="#00f"/>
<rect x="214" y="195" width="706" height="12" fill="#00f"/>
<line x1="167" y1="201" x2="213" y2="201" stroke="#00f"/>
<rect x="112" y="196" width="55" height="10" fill="#ff0"/>
<rect x="215" y="196" width="510" height="10" fill="#ff0"/>
<text x="20" y="225" class="sm">0.01309</text>
<rect x="100" y="215" width="67" height="12" fill="#00f"/>
<rect x="214" y="215" width="298" height="12" fill="#00f"/>
<rect x="564" y="215" width="356" height="12" fill="#00f"/>
<line x1="167" y1="221" x2="213" y2="221" stroke="#00f"/>
<line x1="512" y1="221" x2="563" y2="221" stroke="#00f"/>
<rect x="112" y="216" width="55" height="10" fill="#ff0"/>
<rect x="215" y="216" width="297" height="10" fill="#ff0"/>
<rect x="565" y="216" width="20" height="10" fill="#ff0"/>
<text x="20" y="245" class="sm">0.004571</text>
<rect x="100" y="235" width="67" height="12" fill="#00f"/>
<rect x="214" y="235" width="192" height="12" fill="#00f"/>
<rect x="564" y="235" width="356" height="12" fill="#00f"/>
<line x1="167" y1="241" x2="213" y2="241" stroke="#00f"/>
<line x1="406" y1="241" x2="563" y2="241" stroke="#00f"/>
<rect x="112" y="236" width="55" height="10" fill="#ff0"/>
<rect x="215" y="236" width="191" height="10" fill="#ff0"/>
<rect x="565" y="236" width="291" height="10" fill="#ff0"/>
<text x="20" y="265" class="sm">0.00312</text>
<rect x="100" y="255" width="67" height="12" fill="#00f"/>
<rect x="214" y="255" width="241" height="12" fill="#00f"/>
<rect x="564" y="255" width="356" height="12" fill="#00f"/>
<line x1="167" y1="261" x2="213" y2="261" stroke="#00f"/>
<line x1="455" y1="261" x2="563" y2="261" stroke="#00f"/>
<rect x="112" y="256" width="55" height="10" fill="#ff0"/>
<rect x="215" y="256" width="240" height="10" fill="#ff0"/>
<rect x="565" y="256" width="20" height="10" fill="#ff0"/>
<text x="20" y="285" class="sm">0.001189</text>
<rect x="100" y="275" width="67" height="12" fill="#00f"/>
<rect x="214" y="275" width="294" height="12" fill="#00f"/>
<rect x="564" y="275" width="83" height="12" fill="#00f"/>
<rect x="700" y="275" width="220" height="12" fill="#00f"/>
<line x1="167" y1="281" x2="213" y2="281" stroke="#00f"/>
<line x1="508" y1="281" x2="563" y2="281" stroke="#00f"/>
<line x1="647" y1="281" x2="699" y2="281" stroke="#00f"/>
<rect x="112" y="276" width="55" height="10" fill="#ff0"/>
<rect x="215" y="276" width="293" height="10" fill="#ff0"/>
<rect x="565" y="276" width="82" height="10" fill="#ff0"/>
<rect x="701" y="276" width="40" height="10" fill="#ff0"/>
<text x="20" y="305" class="sm">0.0009121</text>
<rect x="100" y="295" width="408" height="12" fill="#00f"/>
<rect x="564" y="295" width="356" height="12" fill="#00f"/>
<line x1="508" y1="301" x2="563" y2="301" stroke="#00f"/>
<rect x="405" y="296" width="103" height="10" fill="#ff0"/>
<rect x="565" y="296" width="291" height="10" fill="#ff0"/>
<text x="20" y="325" class="sm">0.0007476</text>
<rect x="100" y="315" width="39" height="12" fill="#00f"/>
<rect x="189" y="315" width="319" height="12" fill="#00f"/>
<rect x="564" y="315" width="356" height="12" fill="#00f"/>
<line x1="139" y1="321" x2="188" y2="321" stroke="#00f"/>
<line x1="508" y1="321" x2="563" y2="321" stroke="#00f"/>
<rect x="112" y="316" width="27" height="10" fill="#ff0"/>
<rect x="190" y="316" width="318" height="10" fill="#ff0"/>
<rect x="565" y="316" width="291" height="10" fill="#ff0"/>
<text x="20" y="345" class="sm">0.0007084</text>
<rect x="100" y="335" width="67" height="12" fill="#00f"/>
<rect x="214" y="335" width="186" height="12" fill="#00f"/>
<rect x="564" y="335" width="356" height="12" fill="#00f"/>
<line x1="167" y1="341" x2="213" y2="341" stroke="#00f"/>
<line x1="400" y1="341" x2="563" y2="341" stroke="#00f"/>
<rect x="112" y="336" width="55" height="10" fill="#ff0"/>
<rect x="215" y="336" width="185" height="10" fill="#ff0"/>
<rect x="565" y="336" width="291" height="10" fill="#ff0"/>
<text x="20" y="365" class="sm">0.0006296</text>
<rect x="100" y="355" width="67" height="12" fill="#00f"/>
<rect x="214" y="355" width="294" height="12" fill="#00f"/>
<rect x="564" y="355" width="234" height="12" fill="#00f"/>
<rect x="891" y="355" width="29" height="12" fill="#00f"/>
<line x1="167" y1="361" x2="213" y2="361" stroke="#00f"/>
<line x1="508" y1="361" x2="563" y2="361" stroke="#00f"/>
<line x1="798" y1="361" x2="890" y2="361" stroke="#00f"/>
<rect x="112" y="356" width="55" height="10" fill="#ff0"/>
<rect x="215" y="356" width="293" height="10" fill="#ff0"/>
<rect x="565" y="356" width="233" height="10" fill="#ff0"/>
<rect x="892" y="356" width="12" height="10" fill="#ff0"/>
<text x="20" y="385" class="sm">0.0006128</text>
<rect x="100" y="375" width="56" height="12" fill="#00f"/>
<rect x="214" y="375" width="294" height="12" fill="#00f"/>
<rect x="564" y="375" width="356" height="12" fill="#00f"/>
<line x1="156" y1="381" x2="213" y2="381" stroke="#00f"/>
<line x1="508" y1="381" x2="563" y2="381" stroke="#00f"/>
<rect x="405" y="376" width="103" height="10" fill="#ff0"/>
<rect x="565" y="376" width="291" height="10" fill="#ff0"/>
<text x="20" y="405" class="sm">0.0004998</text>
<rect x="100" y="395" width="67" height="12" fill="#00f"/>
<rect x="214" y="395" width="202" height="12" fill="#00f"/>
<rect x="564" y="395" width="356" height="12" fill="#00f"/>
<line x1="167" y1="401" x2="213" y2="401" stroke="#00f"/>
<line x1="416" y1="401" x2="563" y2="401" stroke="#00f"/>
<rect x="304" y="396" width="112" height="10" fill="#ff0"/>
<rect x="565" y="396" width="291" height="10" fill="#ff0"/>
<text x="20" y="425" class="sm">0.000353</text>
<rect x="100" y="415" width="39" height="12" fill="#00f"/>
<rect x="214" y="415" width="294" height="12" fill="#00f"/>
<rect x="564" y="415" width="356" height="12" fill="#00f"/>
<line x1="139" y1="421" x2="213" y2="421" stroke="#00f"/>
<line x1="508" y1="421" x2="563" y2="421" stroke="#00f"/>
<rect x="405" y="416" width="103" height="10" fill="#ff0"/>
<rect x="565" y="416" width="291" height="10" fill="#ff0"/>
<text x="20" y="445" class="sm">0.0002803</text>
<rect x="100" y="435" width="67" height="12" fill="#00f"/>
<rect x="214" y="435" width="227" height="12" fill="#00f"/>
<rect x="564" y="435" width="356" height="12" fill="#00f"/>
<line x1="167" y1="441" x2="213" y2="441" stroke="#00f"/>
<line x1="441" y1="441" x2="563" y2="441" stroke="#00f"/>
<rect x="112" y="436" width="55" height="10" fill="#ff0"/>
<rect x="215" y="436" width="226" height="10" fill="#ff0"/>
<rect x="565" y="436" width="160" height="10" fill="#ff0"/>
<text x="20" y="465" class="sm">0.0002202</text>
<rect x="100" y="455" width="67" height="12" fill="#00f"/>
<rect x="214" y="455" width="294" height="12" fill="#00f"/>
<rect x="601" y="455" width="319" height="12" fill="#00f"/>
<line x1="167" y1="461" x2="213" y2="461" stroke="#00f"/>
<line x1="508" y1="461" x2="600" y2="461" stroke="#00f"/>
<rect x="112" y="456" width="55" height="10" fill="#ff0"/>
<rect x="215" y="456" width="293" height="10" fill="#ff0"/>
<rect x="602" y="456" width="123" height="10" fill="#ff0"/>
<text x="20" y="485" class="sm">0.0001682</text>
<rect x="100" y="475" width="33" height="12" fill="#00f"/>
<rect x="214" y="475" width="294" height="12" fill="#00f"/>
<rect x="564" y="475" width="356" height="12" fill="#00f"/>
<line x1="133" y1="481" x2="213" y2="481" stroke="#00f"/>
<line x1="508" y1="481" x2="563" y2="481" stroke="#00f"/>
<rect x="405" y="476" width="103" height="10" fill="#ff0"/>
<rect x="565" y="476" width="291" height="10" fill="#ff0"/>
<text x="20" y="505" class="sm">0.0001608</text>
<rect x="100" y="495" width="33" height="12" fill="#00f"/>
<rect x="189" y="495" width="319" height="12" fill="#00f"/>
<rect x="564" y="495" width="356" height="12" fill="#00f"/>
<line x1="133" y1="501" x2="188" y2="501" stroke="#00f"/>
<line x1="508" y1="501" x2="563" y2="501" stroke="#00f"/>
<rect x="405" y="496" width="103" height="10" fill="#ff0"/>
<rect x="565" y="496" width="291" height="10" fill="#ff0"/>
<text x="20" y="525" class="sm">0.0001143</text>
<rect x="100" y="515" width="67" height="12" fill="#00f"/>
<rect x="214" y="515" width="294" height="12" fill="#00f"/>
<rect x="564" y="515" width="114" height="12" fill="#00f"/>
<rect x="728" y="515" width="192" height="12" fill="#00f"/>
<line x1="167" y1="521" x2="213" y2="521" stroke="#00f"/>
<line x1="508" y1="521" x2="563" y2="521" stroke="#00f"/>
<line x1="678" y1="521" x2="727" y2="521" stroke="#00f"/>
<rect x="112" y="516" width="55" height="10" fill="#ff0"/>
<rect x="215" y="516" width="293" height="10" fill="#ff0"/>
<rect x="565" y="516" width="113" height="10" fill="#ff0"/>
<rect x="729" y="516" width="12" height="10" fill="#ff0"/>
<text x="20" y="545" class="sm">8.924e-05</text>
<rect x="100" y="535" width="67" height="12" fill="#00f"/>
<rect x="214" y="535" width="118" height="12" fill="#00f"/>
<rect x="564" y="535" width="356" height="12" fill="#00f"/>
<line x1="167" y1="541" x2="213" y2="541" stroke="#00f"/>
<line x1="332" y1="541" x2="563" y2="541" stroke="#00f"/>
<rect x="304" y="536" width="28" height="10" fill="#ff0"/>
<rect x="565" y="536" width="291" height="10" fill="#ff0"/>
<text x="20" y="565" class="sm">7.208e-05</text>
<rect x="100" y="555" width="67" height="12" fill="#00f"/>
<rect x="214" y="555" width="294" height="12" fill="#00f"/>
<rect x="564" y="555" width="32" height="12" fill="#00f"/>
<rect x="700" y="555" width="220" height="12" fill="#00f"/>
<line x1="167" y1="561" x2="213" y2="561" stroke="#00f"/>
<line x1="508" y1="561" x2="563" y2="561" stroke="#00f"/>
<line x1="596" y1="561" x2="699" y2="561" stroke="#00f"/>
<rect x="112" y="556" width="55" height="10" fill="#ff0"/>
<rect x="215" y="556" width="293" height="10" fill="#ff0"/>
<rect x="565" y="556" width="31" height="10" fill="#ff0"/>
<rect x="701" y="556" width="40" height="10" fill="#ff0"/>
</svg>
