<svg viewBox="0 0 744 535" xmlns="http://www.w3.org/2000/svg">

<style>
  .sm { font: 12px sans-serif; }
  .lg { font: 15px sans-serif; }
</style>
<rect fill="#ddd" x="0" y="0" width="100%" height="100%"/>
<text x="20" y="20" class="lg">ch.9431 IV:1969637-1970380 Gene:WBGene00044466</text>
<text x="20" y="50" class="sm">WormBase</text>
<rect x="100" y="40" width="79" height="12" fill="#00f"/>
<rect x="309" y="40" width="335" height="12" fill="#00f"/>
<line x1="179" y1="46" x2="308" y2="46" stroke="#00f"/>
<rect x="103" y="41" width="76" height="10" fill="#ff0"/>
<rect x="310" y="41" width="282" height="10" fill="#ff0"/>
<rect x="101" y="41" width="1" height="10" fill="brown"><title>.</title></rect>
<rect x="593" y="41" width="51" height="10" fill="brown"><title>.</title></rect>
<text x="20" y="70" class="sm">WormBase</text>
<rect x="472" y="60" width="120" height="12" fill="#00f"/>
<rect x="473" y="61" width="119" height="10" fill="#ff0"/>
<text x="20" y="90" class="sm">Fitness: 0.0002635433300277707</text>
<rect x="179" y="85" width="130" height="5" fill="#00f"><title>197285.0</title></rect>
<rect x="179" y="90" width="132" height="5" fill="#00f"><title>20.0</title></rect>
<rect x="28" y="95" width="50" height="5" fill="#00f"><title>6.0</title></rect>
<text x="20" y="125" class="sm">0.9999</text>
<rect x="100" y="115" width="79" height="12" fill="#00f"/>
<rect x="309" y="115" width="338" height="12" fill="#00f"/>
<line x1="179" y1="121" x2="308" y2="121" stroke="#00f"/>
<rect x="103" y="116" width="76" height="10" fill="#ff0"/>
<rect x="310" y="116" width="282" height="10" fill="#ff0"/>
<text x="20" y="145" class="sm">3.703e-05</text>
<rect x="100" y="135" width="84" height="12" fill="#00f"/>
<rect x="309" y="135" width="338" height="12" fill="#00f"/>
<line x1="184" y1="141" x2="308" y2="141" stroke="#00f"/>
<rect x="147" y="136" width="37" height="10" fill="#ff0"/>
<rect x="310" y="136" width="282" height="10" fill="#ff0"/>
<text x="20" y="165" class="sm">2.992e-05</text>
<rect x="100" y="155" width="79" height="12" fill="#00f"/>
<rect x="355" y="155" width="292" height="12" fill="#00f"/>
<line x1="179" y1="161" x2="354" y2="161" stroke="#00f"/>
<rect x="147" y="156" width="32" height="10" fill="#ff0"/>
<rect x="356" y="156" width="236" height="10" fill="#ff0"/>
<text x="20" y="185" class="sm">1.895e-05</text>
<rect x="100" y="175" width="29" height="12" fill="#00f"/>
<rect x="309" y="175" width="338" height="12" fill="#00f"/>
<line x1="129" y1="181" x2="308" y2="181" stroke="#00f"/>
<rect x="103" y="176" width="26" height="10" fill="#ff0"/>
<rect x="310" y="176" width="197" height="10" fill="#ff0"/>
<text x="20" y="205" class="sm">1.567e-05</text>
<rect x="100" y="195" width="79" height="12" fill="#00f"/>
<rect x="237" y="195" width="410" height="12" fill="#00f"/>
<line x1="179" y1="201" x2="236" y2="201" stroke="#00f"/>
<rect x="103" y="196" width="76" height="10" fill="#ff0"/>
<rect x="238" y="196" width="354" height="10" fill="#ff0"/>
<text x="20" y="225" class="sm">4.337e-06</text>
<rect x="100" y="215" width="79" height="12" fill="#00f"/>
<rect x="400" y="215" width="247" height="12" fill="#00f"/>
<line x1="179" y1="221" x2="399" y2="221" stroke="#00f"/>
<rect x="147" y="216" width="32" height="10" fill="#ff0"/>
<rect x="401" y="216" width="191" height="10" fill="#ff0"/>
<text x="20" y="245" class="sm">2.372e-08</text>
<rect x="100" y="235" width="350" height="12" fill="#00f"/>
<rect x="493" y="235" width="154" height="12" fill="#00f"/>
<line x1="450" y1="241" x2="492" y2="241" stroke="#00f"/>
<rect x="103" y="236" width="80" height="10" fill="#ff0"/>
<text x="20" y="265" class="sm">4.556e-09</text>
<rect x="100" y="255" width="79" height="12" fill="#00f"/>
<rect x="309" y="255" width="141" height="12" fill="#00f"/>
<rect x="493" y="255" width="154" height="12" fill="#00f"/>
<line x1="179" y1="261" x2="308" y2="261" stroke="#00f"/>
<line x1="450" y1="261" x2="492" y2="261" stroke="#00f"/>
<rect x="147" y="256" width="32" height="10" fill="#ff0"/>
<rect x="310" y="256" width="140" height="10" fill="#ff0"/>
<rect x="494" y="256" width="98" height="10" fill="#ff0"/>
<text x="20" y="285" class="sm">3.032e-09</text>
<rect x="100" y="275" width="350" height="12" fill="#00f"/>
<rect x="535" y="275" width="112" height="12" fill="#00f"/>
<line x1="450" y1="281" x2="534" y2="281" stroke="#00f"/>
<rect x="103" y="276" width="80" height="10" fill="#ff0"/>
<text x="20" y="305" class="sm">1.095e-09</text>
<rect x="100" y="295" width="79" height="12" fill="#00f"/>
<rect x="493" y="295" width="154" height="12" fill="#00f"/>
<line x1="179" y1="301" x2="492" y2="301" stroke="#00f"/>
<rect x="147" y="296" width="32" height="10" fill="#ff0"/>
<rect x="494" y="296" width="98" height="10" fill="#ff0"/>
<text x="20" y="325" class="sm">1.092e-09</text>
<rect x="100" y="315" width="84" height="12" fill="#00f"/>
<rect x="355" y="315" width="292" height="12" fill="#00f"/>
<line x1="184" y1="321" x2="354" y2="321" stroke="#00f"/>
<rect x="147" y="316" width="37" height="10" fill="#ff0"/>
<rect x="356" y="316" width="126" height="10" fill="#ff0"/>
<text x="20" y="345" class="sm">7.068e-10</text>
<rect x="100" y="335" width="84" height="12" fill="#00f"/>
<rect x="237" y="335" width="410" height="12" fill="#00f"/>
<line x1="184" y1="341" x2="236" y2="341" stroke="#00f"/>
<rect x="147" y="336" width="37" height="10" fill="#ff0"/>
<rect x="238" y="336" width="354" height="10" fill="#ff0"/>
<text x="20" y="365" class="sm">6.15e-10</text>
<rect x="100" y="355" width="29" height="12" fill="#00f"/>
<rect x="355" y="355" width="292" height="12" fill="#00f"/>
<line x1="129" y1="361" x2="354" y2="361" stroke="#00f"/>
<rect x="103" y="356" width="26" height="10" fill="#ff0"/>
<rect x="356" y="356" width="236" height="10" fill="#ff0"/>
<text x="20" y="385" class="sm">5.825e-10</text>
<rect x="100" y="375" width="79" height="12" fill="#00f"/>
<rect x="309" y="375" width="141" height="12" fill="#00f"/>
<rect x="535" y="375" width="112" height="12" fill="#00f"/>
<line x1="179" y1="381" x2="308" y2="381" stroke="#00f"/>
<line x1="450" y1="381" x2="534" y2="381" stroke="#00f"/>
<rect x="147" y="376" width="32" height="10" fill="#ff0"/>
<rect x="310" y="376" width="140" height="10" fill="#ff0"/>
<rect x="536" y="376" width="56" height="10" fill="#ff0"/>
<text x="20" y="405" class="sm">3.914e-10</text>
<rect x="100" y="395" width="363" height="12" fill="#00f"/>
<rect x="535" y="395" width="112" height="12" fill="#00f"/>
<line x1="463" y1="401" x2="534" y2="401" stroke="#00f"/>
<rect x="103" y="396" width="80" height="10" fill="#ff0"/>
<text x="20" y="425" class="sm">2.572e-10</text>
<rect x="100" y="415" width="79" height="12" fill="#00f"/>
<rect x="535" y="415" width="112" height="12" fill="#00f"/>
<line x1="179" y1="421" x2="534" y2="421" stroke="#00f"/>
<rect x="147" y="416" width="32" height="10" fill="#ff0"/>
<rect x="536" y="416" width="56" height="10" fill="#ff0"/>
<text x="20" y="445" class="sm">2.166e-10</text>
<rect x="100" y="435" width="29" height="12" fill="#00f"/>
<rect x="237" y="435" width="410" height="12" fill="#00f"/>
<line x1="129" y1="441" x2="236" y2="441" stroke="#00f"/>
<rect x="473" y="436" width="119" height="10" fill="#ff0"/>
<text x="20" y="465" class="sm">2.087e-10</text>
<rect x="100" y="455" width="136" height="12" fill="#00f"/>
<rect x="309" y="455" width="338" height="12" fill="#00f"/>
<line x1="236" y1="461" x2="308" y2="461" stroke="#00f"/>
<rect x="473" y="456" width="119" height="10" fill="#ff0"/>
<text x="20" y="485" class="sm">1.612e-10</text>
<rect x="100" y="475" width="84" height="12" fill="#00f"/>
<rect x="400" y="475" width="247" height="12" fill="#00f"/>
<line x1="184" y1="481" x2="399" y2="481" stroke="#00f"/>
<rect x="473" y="476" width="119" height="10" fill="#ff0"/>
<text x="20" y="505" class="sm">9.842e-11</text>
<rect x="100" y="495" width="79" height="12" fill="#00f"/>
<rect x="377" y="495" width="270" height="12" fill="#00f"/>
<line x1="179" y1="501" x2="376" y2="501" stroke="#00f"/>
<rect x="103" y="496" width="76" height="10" fill="#ff0"/>
<rect x="378" y="496" width="129" height="10" fill="#ff0"/>
</svg>
