<svg viewBox="0 0 1020 570" xmlns="http://www.w3.org/2000/svg">

<style>
  .sm { font: 12px sans-serif; }
  .lg { font: 15px sans-serif; }
</style>
<rect fill="#ddd" x="0" y="0" width="100%" height="100%"/>
<text x="20" y="20" class="lg">ch.939 I:5676727-5677746 Gene:WBGene00001039</text>
<text x="20" y="50" class="sm">WormBase</text>
<rect x="100" y="40" width="135" height="12" fill="#00f"/>
<rect x="284" y="40" width="145" height="12" fill="#00f"/>
<rect x="774" y="40" width="146" height="12" fill="#00f"/>
<line x1="235" y1="46" x2="283" y2="46" stroke="#00f"/>
<line x1="429" y1="46" x2="773" y2="46" stroke="#00f"/>
<rect x="110" y="41" width="125" height="10" fill="#ff0"/>
<rect x="285" y="41" width="144" height="10" fill="#ff0"/>
<rect x="775" y="41" width="67" height="10" fill="#ff0"/>
<rect x="101" y="41" width="8" height="10" fill="brown"><title>.</title></rect>
<rect x="843" y="41" width="77" height="10" fill="brown"><title>.</title></rect>
<text x="20" y="70" class="sm">Fitness: 0.2516079402039272</text>
<rect x="235" y="65" width="49" height="5" fill="#00f"><title>408400.0</title></rect>
<rect x="429" y="70" width="345" height="5" fill="#00f"><title>359367.0</title></rect>
<rect x="235" y="75" width="54" height="5" fill="#00f"><title>1435.0</title></rect>
<rect x="239" y="80" width="50" height="5" fill="#00f"><title>199.0</title></rect>
<rect x="241" y="85" width="48" height="5" fill="#00f"><title>100.0</title></rect>
<rect x="235" y="90" width="539" height="5" fill="#00f"><title>74.0</title></rect>
<rect x="241" y="95" width="43" height="5" fill="#00f"><title>24.0</title></rect>
<rect x="321" y="100" width="472" height="5" fill="#00f"><title>9.0</title></rect>
<rect x="227" y="105" width="57" height="5" fill="#00f"><title>8.0</title></rect>
<rect x="429" y="110" width="348" height="5" fill="#00f"><title>8.0</title></rect>
<rect x="44" y="115" width="56" height="5" fill="#00f"><title>6.0</title></rect>
<rect x="239" y="120" width="45" height="5" fill="#00f"><title>6.0</title></rect>
<rect x="235" y="125" width="71" height="5" fill="#00f"><title>5.0</title></rect>
<rect x="220" y="130" width="64" height="5" fill="#00f"><title>3.0</title></rect>
<text x="20" y="160" class="sm">0.7472</text>
<rect x="100" y="150" width="135" height="12" fill="#00f"/>
<rect x="284" y="150" width="145" height="12" fill="#00f"/>
<rect x="774" y="150" width="149" height="12" fill="#00f"/>
<line x1="235" y1="156" x2="283" y2="156" stroke="#00f"/>
<line x1="429" y1="156" x2="773" y2="156" stroke="#00f"/>
<rect x="110" y="151" width="125" height="10" fill="#ff0"/>
<rect x="285" y="151" width="144" height="10" fill="#ff0"/>
<rect x="775" y="151" width="67" height="10" fill="#ff0"/>
<text x="20" y="180" class="sm">0.2262</text>
<rect x="100" y="170" width="135" height="12" fill="#00f"/>
<rect x="284" y="170" width="126" height="12" fill="#00f"/>
<rect x="774" y="170" width="149" height="12" fill="#00f"/>
<line x1="235" y1="176" x2="283" y2="176" stroke="#00f"/>
<line x1="410" y1="176" x2="773" y2="176" stroke="#00f"/>
<rect x="110" y="171" width="125" height="10" fill="#ff0"/>
<rect x="285" y="171" width="125" height="10" fill="#ff0"/>
<rect x="775" y="171" width="47" height="10" fill="#ff0"/>
<text x="20" y="200" class="sm">0.01782</text>
<rect x="100" y="190" width="135" height="12" fill="#00f"/>
<rect x="284" y="190" width="77" height="12" fill="#00f"/>
<rect x="774" y="190" width="149" height="12" fill="#00f"/>
<line x1="235" y1="196" x2="283" y2="196" stroke="#00f"/>
<line x1="361" y1="196" x2="773" y2="196" stroke="#00f"/>
<rect x="110" y="191" width="125" height="10" fill="#ff0"/>
<rect x="285" y="191" width="76" height="10" fill="#ff0"/>
<rect x="775" y="191" width="114" height="10" fill="#ff0"/>
<text x="20" y="220" class="sm">0.005377</text>
<rect x="100" y="210" width="135" height="12" fill="#00f"/>
<rect x="289" y="210" width="140" height="12" fill="#00f"/>
<rect x="774" y="210" width="149" height="12" fill="#00f"/>
<line x1="235" y1="216" x2="288" y2="216" stroke="#00f"/>
<line x1="429" y1="216" x2="773" y2="216" stroke="#00f"/>
<rect x="171" y="211" width="64" height="10" fill="#ff0"/>
<rect x="290" y="211" width="139" height="10" fill="#ff0"/>
<rect x="775" y="211" width="67" height="10" fill="#ff0"/>
<text x="20" y="240" class="sm">0.001623</text>
<rect x="100" y="230" width="135" height="12" fill="#00f"/>
<rect x="289" y="230" width="121" height="12" fill="#00f"/>
<rect x="774" y="230" width="149" height="12" fill="#00f"/>
<line x1="235" y1="236" x2="288" y2="236" stroke="#00f"/>
<line x1="410" y1="236" x2="773" y2="236" stroke="#00f"/>
<rect x="171" y="231" width="64" height="10" fill="#ff0"/>
<rect x="290" y="231" width="120" height="10" fill="#ff0"/>
<rect x="775" y="231" width="47" height="10" fill="#ff0"/>
<text x="20" y="260" class="sm">0.0004604</text>
<rect x="100" y="250" width="135" height="12" fill="#00f"/>
<rect x="774" y="250" width="149" height="12" fill="#00f"/>
<line x1="235" y1="256" x2="773" y2="256" stroke="#00f"/>
<rect x="171" y="251" width="64" height="10" fill="#ff0"/>
<rect x="775" y="251" width="114" height="10" fill="#ff0"/>
<text x="20" y="280" class="sm">0.0002244</text>
<rect x="100" y="270" width="135" height="12" fill="#00f"/>
<rect x="284" y="270" width="145" height="12" fill="#00f"/>
<rect x="587" y="270" width="26" height="12" fill="#00f"/>
<rect x="774" y="270" width="149" height="12" fill="#00f"/>
<line x1="235" y1="276" x2="283" y2="276" stroke="#00f"/>
<line x1="429" y1="276" x2="586" y2="276" stroke="#00f"/>
<line x1="613" y1="276" x2="773" y2="276" stroke="#00f"/>
<rect x="110" y="271" width="125" height="10" fill="#ff0"/>
<rect x="285" y="271" width="144" height="10" fill="#ff0"/>
<rect x="588" y="271" width="25" height="10" fill="#ff0"/>
<rect x="775" y="271" width="47" height="10" fill="#ff0"/>
<text x="20" y="300" class="sm">0.0002087</text>
<rect x="100" y="290" width="135" height="12" fill="#00f"/>
<rect x="284" y="290" width="145" height="12" fill="#00f"/>
<rect x="472" y="290" width="29" height="12" fill="#00f"/>
<rect x="774" y="290" width="149" height="12" fill="#00f"/>
<line x1="235" y1="296" x2="283" y2="296" stroke="#00f"/>
<line x1="429" y1="296" x2="471" y2="296" stroke="#00f"/>
<line x1="501" y1="296" x2="773" y2="296" stroke="#00f"/>
<rect x="110" y="291" width="125" height="10" fill="#ff0"/>
<rect x="285" y="291" width="144" height="10" fill="#ff0"/>
<rect x="473" y="291" width="28" height="10" fill="#ff0"/>
<rect x="775" y="291" width="47" height="10" fill="#ff0"/>
<text x="20" y="320" class="sm">0.0001258</text>
<rect x="100" y="310" width="135" height="12" fill="#00f"/>
<rect x="289" y="310" width="72" height="12" fill="#00f"/>
<rect x="774" y="310" width="149" height="12" fill="#00f"/>
<line x1="235" y1="316" x2="288" y2="316" stroke="#00f"/>
<line x1="361" y1="316" x2="773" y2="316" stroke="#00f"/>
<rect x="171" y="311" width="64" height="10" fill="#ff0"/>
<rect x="290" y="311" width="71" height="10" fill="#ff0"/>
<rect x="775" y="311" width="114" height="10" fill="#ff0"/>
<text x="20" y="340" class="sm">0.0001232</text>
<rect x="100" y="330" width="139" height="12" fill="#00f"/>
<rect x="284" y="330" width="145" height="12" fill="#00f"/>
<rect x="774" y="330" width="149" height="12" fill="#00f"/>
<line x1="239" y1="336" x2="283" y2="336" stroke="#00f"/>
<line x1="429" y1="336" x2="773" y2="336" stroke="#00f"/>
<rect x="171" y="331" width="68" height="10" fill="#ff0"/>
<rect x="285" y="331" width="144" height="10" fill="#ff0"/>
<rect x="775" y="331" width="67" height="10" fill="#ff0"/>
<text x="20" y="360" class="sm">0.000122</text>
<rect x="100" y="350" width="135" height="12" fill="#00f"/>
<rect x="284" y="350" width="145" height="12" fill="#00f"/>
<rect x="587" y="350" width="111" height="12" fill="#00f"/>
<rect x="774" y="350" width="149" height="12" fill="#00f"/>
<line x1="235" y1="356" x2="283" y2="356" stroke="#00f"/>
<line x1="429" y1="356" x2="586" y2="356" stroke="#00f"/>
<line x1="698" y1="356" x2="773" y2="356" stroke="#00f"/>
<rect x="110" y="351" width="125" height="10" fill="#ff0"/>
<rect x="285" y="351" width="144" height="10" fill="#ff0"/>
<rect x="588" y="351" width="110" height="10" fill="#ff0"/>
<rect x="775" y="351" width="67" height="10" fill="#ff0"/>
<text x="20" y="380" class="sm">0.0001141</text>
<rect x="100" y="370" width="135" height="12" fill="#00f"/>
<rect x="284" y="370" width="145" height="12" fill="#00f"/>
<rect x="619" y="370" width="79" height="12" fill="#00f"/>
<rect x="774" y="370" width="149" height="12" fill="#00f"/>
<line x1="235" y1="376" x2="283" y2="376" stroke="#00f"/>
<line x1="429" y1="376" x2="618" y2="376" stroke="#00f"/>
<line x1="698" y1="376" x2="773" y2="376" stroke="#00f"/>
<rect x="110" y="371" width="125" height="10" fill="#ff0"/>
<rect x="285" y="371" width="144" height="10" fill="#ff0"/>
<rect x="620" y="371" width="78" height="10" fill="#ff0"/>
<rect x="775" y="371" width="114" height="10" fill="#ff0"/>
<text x="20" y="400" class="sm">0.0001101</text>
<rect x="100" y="390" width="34" height="12" fill="#00f"/>
<rect x="187" y="390" width="48" height="12" fill="#00f"/>
<rect x="284" y="390" width="145" height="12" fill="#00f"/>
<rect x="774" y="390" width="149" height="12" fill="#00f"/>
<line x1="134" y1="396" x2="186" y2="396" stroke="#00f"/>
<line x1="235" y1="396" x2="283" y2="396" stroke="#00f"/>
<line x1="429" y1="396" x2="773" y2="396" stroke="#00f"/>
<rect x="206" y="391" width="29" height="10" fill="#ff0"/>
<rect x="285" y="391" width="144" height="10" fill="#ff0"/>
<rect x="775" y="391" width="67" height="10" fill="#ff0"/>
<text x="20" y="420" class="sm">8.266e-05</text>
<rect x="100" y="410" width="135" height="12" fill="#00f"/>
<rect x="284" y="410" width="200" height="12" fill="#00f"/>
<rect x="774" y="410" width="149" height="12" fill="#00f"/>
<line x1="235" y1="416" x2="283" y2="416" stroke="#00f"/>
<line x1="484" y1="416" x2="773" y2="416" stroke="#00f"/>
<rect x="110" y="411" width="125" height="10" fill="#ff0"/>
<rect x="285" y="411" width="152" height="10" fill="#ff0"/>
<text x="20" y="440" class="sm">6.93e-05</text>
<rect x="100" y="430" width="135" height="12" fill="#00f"/>
<rect x="284" y="430" width="117" height="12" fill="#00f"/>
<rect x="774" y="430" width="149" height="12" fill="#00f"/>
<line x1="235" y1="436" x2="283" y2="436" stroke="#00f"/>
<line x1="401" y1="436" x2="773" y2="436" stroke="#00f"/>
<rect x="171" y="431" width="64" height="10" fill="#ff0"/>
<rect x="285" y="431" width="116" height="10" fill="#ff0"/>
<rect x="775" y="431" width="114" height="10" fill="#ff0"/>
<text x="20" y="460" class="sm">6.501e-05</text>
<rect x="100" y="450" width="135" height="12" fill="#00f"/>
<rect x="284" y="450" width="69" height="12" fill="#00f"/>
<rect x="774" y="450" width="149" height="12" fill="#00f"/>
<line x1="235" y1="456" x2="283" y2="456" stroke="#00f"/>
<line x1="353" y1="456" x2="773" y2="456" stroke="#00f"/>
<rect x="171" y="451" width="64" height="10" fill="#ff0"/>
<rect x="285" y="451" width="68" height="10" fill="#ff0"/>
<rect x="775" y="451" width="114" height="10" fill="#ff0"/>
<text x="20" y="480" class="sm">5.669e-05</text>
<rect x="100" y="470" width="135" height="12" fill="#00f"/>
<rect x="284" y="470" width="126" height="12" fill="#00f"/>
<rect x="587" y="470" width="26" height="12" fill="#00f"/>
<rect x="774" y="470" width="149" height="12" fill="#00f"/>
<line x1="235" y1="476" x2="283" y2="476" stroke="#00f"/>
<line x1="410" y1="476" x2="586" y2="476" stroke="#00f"/>
<line x1="613" y1="476" x2="773" y2="476" stroke="#00f"/>
<rect x="110" y="471" width="125" height="10" fill="#ff0"/>
<rect x="285" y="471" width="125" height="10" fill="#ff0"/>
<rect x="588" y="471" width="5" height="10" fill="#ff0"/>
<text x="20" y="500" class="sm">3.729e-05</text>
<rect x="100" y="490" width="139" height="12" fill="#00f"/>
<rect x="284" y="490" width="126" height="12" fill="#00f"/>
<rect x="774" y="490" width="149" height="12" fill="#00f"/>
<line x1="239" y1="496" x2="283" y2="496" stroke="#00f"/>
<line x1="410" y1="496" x2="773" y2="496" stroke="#00f"/>
<rect x="171" y="491" width="68" height="10" fill="#ff0"/>
<rect x="285" y="491" width="125" height="10" fill="#ff0"/>
<rect x="775" y="491" width="47" height="10" fill="#ff0"/>
<text x="20" y="520" class="sm">3.709e-05</text>
<rect x="100" y="510" width="135" height="12" fill="#00f"/>
<rect x="284" y="510" width="126" height="12" fill="#00f"/>
<rect x="619" y="510" width="79" height="12" fill="#00f"/>
<rect x="774" y="510" width="149" height="12" fill="#00f"/>
<line x1="235" y1="516" x2="283" y2="516" stroke="#00f"/>
<line x1="410" y1="516" x2="618" y2="516" stroke="#00f"/>
<line x1="698" y1="516" x2="773" y2="516" stroke="#00f"/>
<rect x="110" y="511" width="125" height="10" fill="#ff0"/>
<rect x="285" y="511" width="125" height="10" fill="#ff0"/>
<rect x="620" y="511" width="78" height="10" fill="#ff0"/>
<rect x="775" y="511" width="67" height="10" fill="#ff0"/>
<text x="20" y="540" class="sm">3.332e-05</text>
<rect x="100" y="530" width="34" height="12" fill="#00f"/>
<rect x="187" y="530" width="48" height="12" fill="#00f"/>
<rect x="284" y="530" width="126" height="12" fill="#00f"/>
<rect x="774" y="530" width="149" height="12" fill="#00f"/>
<line x1="134" y1="536" x2="186" y2="536" stroke="#00f"/>
<line x1="235" y1="536" x2="283" y2="536" stroke="#00f"/>
<line x1="410" y1="536" x2="773" y2="536" stroke="#00f"/>
<rect x="206" y="531" width="29" height="10" fill="#ff0"/>
<rect x="285" y="531" width="125" height="10" fill="#ff0"/>
<rect x="775" y="531" width="47" height="10" fill="#ff0"/>
</svg>
