<svg viewBox="0 0 573 505" xmlns="http://www.w3.org/2000/svg">

<style>
  .sm { font: 12px sans-serif; }
  .lg { font: 15px sans-serif; }
</style>
<rect fill="#ddd" x="0" y="0" width="100%" height="100%"/>
<text x="20" y="20" class="lg">ch.9726 IV:3893958-3894530 Gene:WBGene00044292</text>
<text x="20" y="50" class="sm">WormBase</text>
<rect x="102" y="40" width="169" height="12" fill="#00f"/>
<rect x="315" y="40" width="160" height="12" fill="#00f"/>
<line x1="271" y1="46" x2="314" y2="46" stroke="#00f"/>
<rect x="160" y="41" width="111" height="10" fill="#ff0"/>
<rect x="316" y="41" width="88" height="10" fill="#ff0"/>
<rect x="103" y="41" width="56" height="10" fill="brown"><title>.</title></rect>
<rect x="405" y="41" width="70" height="10" fill="brown"><title>.</title></rect>
<text x="20" y="70" class="sm">Fitness: 1.069930384281055e-10</text>
<rect x="271" y="65" width="44" height="5" fill="#00f"><title>203802.0</title></rect>
<text x="20" y="95" class="sm">1.0</text>
<rect x="100" y="85" width="171" height="12" fill="#00f"/>
<rect x="315" y="85" width="161" height="12" fill="#00f"/>
<line x1="271" y1="91" x2="314" y2="91" stroke="#00f"/>
<rect x="160" y="86" width="111" height="10" fill="#ff0"/>
<rect x="316" y="86" width="88" height="10" fill="#ff0"/>
<text x="20" y="115" class="sm">2.682e-11</text>
<rect x="100" y="105" width="146" height="12" fill="#00f"/>
<rect x="315" y="105" width="161" height="12" fill="#00f"/>
<line x1="246" y1="111" x2="314" y2="111" stroke="#00f"/>
<rect x="160" y="106" width="86" height="10" fill="#ff0"/>
<rect x="316" y="106" width="5" height="10" fill="#ff0"/>
<text x="20" y="135" class="sm">2.09e-11</text>
<rect x="100" y="125" width="175" height="12" fill="#00f"/>
<rect x="315" y="125" width="161" height="12" fill="#00f"/>
<line x1="275" y1="131" x2="314" y2="131" stroke="#00f"/>
<rect x="160" y="126" width="115" height="10" fill="#ff0"/>
<rect x="316" y="126" width="96" height="10" fill="#ff0"/>
<text x="20" y="155" class="sm">5.776e-12</text>
<rect x="100" y="145" width="171" height="12" fill="#00f"/>
<rect x="339" y="145" width="137" height="12" fill="#00f"/>
<line x1="271" y1="151" x2="338" y2="151" stroke="#00f"/>
<rect x="160" y="146" width="111" height="10" fill="#ff0"/>
<rect x="340" y="146" width="64" height="10" fill="#ff0"/>
<text x="20" y="175" class="sm">3.809e-16</text>
<rect x="100" y="165" width="110" height="12" fill="#00f"/>
<rect x="315" y="165" width="161" height="12" fill="#00f"/>
<line x1="210" y1="171" x2="314" y2="171" stroke="#00f"/>
<rect x="160" y="166" width="50" height="10" fill="#ff0"/>
<rect x="316" y="166" width="5" height="10" fill="#ff0"/>
<text x="20" y="195" class="sm">1.08e-16</text>
<rect x="100" y="185" width="171" height="12" fill="#00f"/>
<rect x="330" y="185" width="146" height="12" fill="#00f"/>
<line x1="271" y1="191" x2="329" y2="191" stroke="#00f"/>
<rect x="160" y="186" width="111" height="10" fill="#ff0"/>
<rect x="331" y="186" width="73" height="10" fill="#ff0"/>
<text x="20" y="215" class="sm">8.717e-18</text>
<rect x="100" y="205" width="122" height="12" fill="#00f"/>
<rect x="315" y="205" width="161" height="12" fill="#00f"/>
<line x1="222" y1="211" x2="314" y2="211" stroke="#00f"/>
<rect x="160" y="206" width="62" height="10" fill="#ff0"/>
<rect x="316" y="206" width="5" height="10" fill="#ff0"/>
<text x="20" y="235" class="sm">7.942e-20</text>
<rect x="100" y="225" width="146" height="12" fill="#00f"/>
<rect x="339" y="225" width="137" height="12" fill="#00f"/>
<line x1="246" y1="231" x2="338" y2="231" stroke="#00f"/>
<rect x="160" y="226" width="86" height="10" fill="#ff0"/>
<rect x="340" y="226" width="68" height="10" fill="#ff0"/>
<text x="20" y="255" class="sm">7.146e-20</text>
<rect x="100" y="245" width="171" height="12" fill="#00f"/>
<rect x="342" y="245" width="134" height="12" fill="#00f"/>
<line x1="271" y1="251" x2="341" y2="251" stroke="#00f"/>
<rect x="160" y="246" width="111" height="10" fill="#ff0"/>
<rect x="343" y="246" width="61" height="10" fill="#ff0"/>
<text x="20" y="275" class="sm">6.769e-20</text>
<rect x="100" y="265" width="110" height="12" fill="#00f"/>
<rect x="256" y="265" width="220" height="12" fill="#00f"/>
<line x1="210" y1="271" x2="255" y2="271" stroke="#00f"/>
<rect x="160" y="266" width="50" height="10" fill="#ff0"/>
<rect x="257" y="266" width="26" height="10" fill="#ff0"/>
<text x="20" y="295" class="sm">3.268e-20</text>
<rect x="100" y="285" width="128" height="12" fill="#00f"/>
<rect x="315" y="285" width="161" height="12" fill="#00f"/>
<line x1="228" y1="291" x2="314" y2="291" stroke="#00f"/>
<rect x="160" y="286" width="68" height="10" fill="#ff0"/>
<rect x="316" y="286" width="5" height="10" fill="#ff0"/>
<text x="20" y="315" class="sm">1.568e-20</text>
<rect x="100" y="305" width="171" height="12" fill="#00f"/>
<rect x="375" y="305" width="101" height="12" fill="#00f"/>
<line x1="271" y1="311" x2="374" y2="311" stroke="#00f"/>
<rect x="160" y="306" width="111" height="10" fill="#ff0"/>
<rect x="376" y="306" width="28" height="10" fill="#ff0"/>
<text x="20" y="335" class="sm">9.372e-21</text>
<rect x="100" y="325" width="175" height="12" fill="#00f"/>
<rect x="339" y="325" width="137" height="12" fill="#00f"/>
<line x1="275" y1="331" x2="338" y2="331" stroke="#00f"/>
<rect x="160" y="326" width="115" height="10" fill="#ff0"/>
<rect x="340" y="326" width="72" height="10" fill="#ff0"/>
<text x="20" y="355" class="sm">5.352e-21</text>
<rect x="100" y="345" width="146" height="12" fill="#00f"/>
<rect x="284" y="345" width="192" height="12" fill="#00f"/>
<line x1="246" y1="351" x2="283" y2="351" stroke="#00f"/>
<rect x="160" y="346" width="86" height="10" fill="#ff0"/>
<rect x="285" y="346" width="20" height="10" fill="#ff0"/>
<text x="20" y="375" class="sm">8.693e-22</text>
<rect x="100" y="365" width="183" height="12" fill="#00f"/>
<rect x="339" y="365" width="137" height="12" fill="#00f"/>
<line x1="283" y1="371" x2="338" y2="371" stroke="#00f"/>
<rect x="160" y="366" width="123" height="10" fill="#ff0"/>
<rect x="340" y="366" width="64" height="10" fill="#ff0"/>
<text x="20" y="395" class="sm">5.408e-22</text>
<rect x="100" y="385" width="171" height="12" fill="#00f"/>
<rect x="366" y="385" width="110" height="12" fill="#00f"/>
<line x1="271" y1="391" x2="365" y2="391" stroke="#00f"/>
<rect x="160" y="386" width="111" height="10" fill="#ff0"/>
<rect x="367" y="386" width="37" height="10" fill="#ff0"/>
<text x="20" y="415" class="sm">8.716e-23</text>
<rect x="100" y="405" width="110" height="12" fill="#00f"/>
<rect x="247" y="405" width="229" height="12" fill="#00f"/>
<line x1="210" y1="411" x2="246" y2="411" stroke="#00f"/>
<rect x="160" y="406" width="50" height="10" fill="#ff0"/>
<rect x="248" y="406" width="35" height="10" fill="#ff0"/>
<text x="20" y="435" class="sm">1.469e-23</text>
<rect x="100" y="425" width="171" height="12" fill="#00f"/>
<rect x="444" y="425" width="32" height="12" fill="#00f"/>
<line x1="271" y1="431" x2="443" y2="431" stroke="#00f"/>
<rect x="160" y="426" width="111" height="10" fill="#ff0"/>
<rect x="445" y="426" width="13" height="10" fill="#ff0"/>
<text x="20" y="455" class="sm">7.476e-24</text>
<rect x="100" y="445" width="217" height="12" fill="#00f"/>
<rect x="366" y="445" width="110" height="12" fill="#00f"/>
<line x1="317" y1="451" x2="365" y2="451" stroke="#00f"/>
<rect x="160" y="446" width="128" height="10" fill="#ff0"/>
<text x="20" y="475" class="sm">6.989e-24</text>
<rect x="100" y="465" width="110" height="12" fill="#00f"/>
<rect x="262" y="465" width="214" height="12" fill="#00f"/>
<line x1="210" y1="471" x2="261" y2="471" stroke="#00f"/>
<rect x="160" y="466" width="50" height="10" fill="#ff0"/>
<rect x="263" y="466" width="20" height="10" fill="#ff0"/>
</svg>
