<svg viewBox="0 0 830 555" xmlns="http://www.w3.org/2000/svg">

<style>
  .sm { font: 12px sans-serif; }
  .lg { font: 15px sans-serif; }
</style>
<rect fill="#ddd" x="0" y="0" width="100%" height="100%"/>
<text x="20" y="20" class="lg">ch.9513 IV:2612332-2613161 Gene:WBGene00022099</text>
<text x="20" y="50" class="sm">WormBase</text>
<rect x="102" y="40" width="115" height="12" fill="#00f"/>
<rect x="355" y="40" width="138" height="12" fill="#00f"/>
<rect x="536" y="40" width="196" height="12" fill="#00f"/>
<line x1="217" y1="46" x2="354" y2="46" stroke="#00f"/>
<line x1="493" y1="46" x2="535" y2="46" stroke="#00f"/>
<rect x="107" y="41" width="110" height="10" fill="#ff0"/>
<rect x="356" y="41" width="137" height="10" fill="#ff0"/>
<rect x="537" y="41" width="77" height="10" fill="#ff0"/>
<rect x="103" y="41" width="3" height="10" fill="brown"><title>.</title></rect>
<rect x="615" y="41" width="117" height="10" fill="brown"><title>.</title></rect>
<text x="20" y="70" class="sm">Fitness: 0.04552045344719934</text>
<rect x="493" y="65" width="43" height="5" fill="#00f"><title>571515.0</title></rect>
<rect x="217" y="70" width="138" height="5" fill="#00f"><title>507124.0</title></rect>
<rect x="497" y="75" width="39" height="5" fill="#00f"><title>121.0</title></rect>
<rect x="493" y="80" width="56" height="5" fill="#00f"><title>34.0</title></rect>
<rect x="196" y="85" width="159" height="5" fill="#00f"><title>24.0</title></rect>
<rect x="217" y="90" width="168" height="5" fill="#00f"><title>12.0</title></rect>
<rect x="143" y="95" width="32" height="5" fill="#f0f"><title>11.0</title></rect>
<rect x="217" y="100" width="145" height="5" fill="#00f"><title>6.0</title></rect>
<rect x="140" y="105" width="35" height="5" fill="#f0f"><title>5.0</title></rect>
<rect x="221" y="110" width="141" height="5" fill="#00f"><title>4.0</title></rect>
<rect x="130" y="115" width="54" height="5" fill="#f0f"><title>4.0</title></rect>
<text x="20" y="145" class="sm">0.8517</text>
<rect x="100" y="135" width="117" height="12" fill="#00f"/>
<rect x="355" y="135" width="138" height="12" fill="#00f"/>
<rect x="536" y="135" width="197" height="12" fill="#00f"/>
<line x1="217" y1="141" x2="354" y2="141" stroke="#00f"/>
<line x1="493" y1="141" x2="535" y2="141" stroke="#00f"/>
<rect x="107" y="136" width="110" height="10" fill="#ff0"/>
<rect x="356" y="136" width="137" height="10" fill="#ff0"/>
<rect x="537" y="136" width="77" height="10" fill="#ff0"/>
<text x="20" y="165" class="sm">0.105</text>
<rect x="100" y="155" width="393" height="12" fill="#00f"/>
<rect x="536" y="155" width="197" height="12" fill="#00f"/>
<line x1="493" y1="161" x2="535" y2="161" stroke="#00f"/>
<rect x="107" y="156" width="212" height="10" fill="#ff0"/>
<text x="20" y="185" class="sm">0.02955</text>
<rect x="100" y="175" width="121" height="12" fill="#00f"/>
<rect x="355" y="175" width="138" height="12" fill="#00f"/>
<rect x="536" y="175" width="197" height="12" fill="#00f"/>
<line x1="221" y1="181" x2="354" y2="181" stroke="#00f"/>
<line x1="493" y1="181" x2="535" y2="181" stroke="#00f"/>
<rect x="107" y="176" width="114" height="10" fill="#ff0"/>
<rect x="356" y="176" width="49" height="10" fill="#ff0"/>
<text x="20" y="205" class="sm">0.01162</text>
<rect x="100" y="195" width="96" height="12" fill="#00f"/>
<rect x="355" y="195" width="138" height="12" fill="#00f"/>
<rect x="536" y="195" width="197" height="12" fill="#00f"/>
<line x1="196" y1="201" x2="354" y2="201" stroke="#00f"/>
<line x1="493" y1="201" x2="535" y2="201" stroke="#00f"/>
<rect x="107" y="196" width="89" height="10" fill="#ff0"/>
<rect x="356" y="196" width="137" height="10" fill="#ff0"/>
<rect x="537" y="196" width="77" height="10" fill="#ff0"/>
<text x="20" y="225" class="sm">0.0007207</text>
<rect x="100" y="215" width="117" height="12" fill="#00f"/>
<rect x="355" y="215" width="138" height="12" fill="#00f"/>
<rect x="549" y="215" width="184" height="12" fill="#00f"/>
<line x1="217" y1="221" x2="354" y2="221" stroke="#00f"/>
<line x1="493" y1="221" x2="548" y2="221" stroke="#00f"/>
<rect x="636" y="216" width="62" height="10" fill="#ff0"/>
<text x="20" y="245" class="sm">0.000283</text>
<rect x="100" y="235" width="117" height="12" fill="#00f"/>
<rect x="355" y="235" width="110" height="12" fill="#00f"/>
<rect x="536" y="235" width="197" height="12" fill="#00f"/>
<line x1="217" y1="241" x2="354" y2="241" stroke="#00f"/>
<line x1="465" y1="241" x2="535" y2="241" stroke="#00f"/>
<rect x="636" y="236" width="62" height="10" fill="#ff0"/>
<text x="20" y="265" class="sm">0.0002654</text>
<rect x="100" y="255" width="117" height="12" fill="#00f"/>
<rect x="362" y="255" width="131" height="12" fill="#00f"/>
<rect x="536" y="255" width="197" height="12" fill="#00f"/>
<line x1="217" y1="261" x2="361" y2="261" stroke="#00f"/>
<line x1="493" y1="261" x2="535" y2="261" stroke="#00f"/>
<rect x="217" y="256" width="0" height="10" fill="#ff0"/>
<rect x="363" y="256" width="130" height="10" fill="#ff0"/>
<rect x="537" y="256" width="77" height="10" fill="#ff0"/>
<text x="20" y="285" class="sm">0.0002498</text>
<rect x="100" y="275" width="117" height="12" fill="#00f"/>
<rect x="355" y="275" width="46" height="12" fill="#00f"/>
<rect x="536" y="275" width="197" height="12" fill="#00f"/>
<line x1="217" y1="281" x2="354" y2="281" stroke="#00f"/>
<line x1="401" y1="281" x2="535" y2="281" stroke="#00f"/>
<rect x="636" y="276" width="62" height="10" fill="#ff0"/>
<text x="20" y="305" class="sm">0.0001774</text>
<rect x="100" y="295" width="171" height="12" fill="#00f"/>
<rect x="355" y="295" width="138" height="12" fill="#00f"/>
<rect x="536" y="295" width="197" height="12" fill="#00f"/>
<line x1="271" y1="301" x2="354" y2="301" stroke="#00f"/>
<line x1="493" y1="301" x2="535" y2="301" stroke="#00f"/>
<rect x="107" y="296" width="164" height="10" fill="#ff0"/>
<rect x="356" y="296" width="137" height="10" fill="#ff0"/>
<rect x="537" y="296" width="77" height="10" fill="#ff0"/>
<text x="20" y="325" class="sm">8.889e-05</text>
<rect x="100" y="315" width="393" height="12" fill="#00f"/>
<rect x="549" y="315" width="184" height="12" fill="#00f"/>
<line x1="493" y1="321" x2="548" y2="321" stroke="#00f"/>
<rect x="107" y="316" width="212" height="10" fill="#ff0"/>
<text x="20" y="345" class="sm">8.688e-05</text>
<rect x="100" y="335" width="117" height="12" fill="#00f"/>
<rect x="355" y="335" width="378" height="12" fill="#00f"/>
<line x1="217" y1="341" x2="354" y2="341" stroke="#00f"/>
<rect x="636" y="336" width="62" height="10" fill="#ff0"/>
<text x="20" y="365" class="sm">8.15e-05</text>
<rect x="100" y="355" width="301" height="12" fill="#00f"/>
<rect x="536" y="355" width="197" height="12" fill="#00f"/>
<line x1="401" y1="361" x2="535" y2="361" stroke="#00f"/>
<rect x="107" y="356" width="212" height="10" fill="#ff0"/>
<text x="20" y="385" class="sm">3.452e-05</text>
<rect x="100" y="375" width="365" height="12" fill="#00f"/>
<rect x="536" y="375" width="197" height="12" fill="#00f"/>
<line x1="465" y1="381" x2="535" y2="381" stroke="#00f"/>
<rect x="107" y="376" width="212" height="10" fill="#ff0"/>
<text x="20" y="405" class="sm">2.5e-05</text>
<rect x="100" y="395" width="121" height="12" fill="#00f"/>
<rect x="355" y="395" width="138" height="12" fill="#00f"/>
<rect x="549" y="395" width="184" height="12" fill="#00f"/>
<line x1="221" y1="401" x2="354" y2="401" stroke="#00f"/>
<line x1="493" y1="401" x2="548" y2="401" stroke="#00f"/>
<rect x="107" y="396" width="114" height="10" fill="#ff0"/>
<rect x="356" y="396" width="49" height="10" fill="#ff0"/>
<text x="20" y="425" class="sm">2.156e-05</text>
<rect x="100" y="415" width="117" height="12" fill="#00f"/>
<rect x="355" y="415" width="112" height="12" fill="#00f"/>
<rect x="536" y="415" width="197" height="12" fill="#00f"/>
<line x1="217" y1="421" x2="354" y2="421" stroke="#00f"/>
<line x1="467" y1="421" x2="535" y2="421" stroke="#00f"/>
<rect x="107" y="416" width="110" height="10" fill="#ff0"/>
<rect x="356" y="416" width="111" height="10" fill="#ff0"/>
<rect x="537" y="416" width="1" height="10" fill="#ff0"/>
<text x="20" y="445" class="sm">1.165e-05</text>
<rect x="100" y="435" width="121" height="12" fill="#00f"/>
<rect x="362" y="435" width="131" height="12" fill="#00f"/>
<rect x="536" y="435" width="197" height="12" fill="#00f"/>
<line x1="221" y1="441" x2="361" y2="441" stroke="#00f"/>
<line x1="493" y1="441" x2="535" y2="441" stroke="#00f"/>
<rect x="107" y="436" width="114" height="10" fill="#ff0"/>
<rect x="363" y="436" width="130" height="10" fill="#ff0"/>
<rect x="537" y="436" width="77" height="10" fill="#ff0"/>
<text x="20" y="465" class="sm">9.832e-06</text>
<rect x="100" y="455" width="96" height="12" fill="#00f"/>
<rect x="355" y="455" width="138" height="12" fill="#00f"/>
<rect x="549" y="455" width="184" height="12" fill="#00f"/>
<line x1="196" y1="461" x2="354" y2="461" stroke="#00f"/>
<line x1="493" y1="461" x2="548" y2="461" stroke="#00f"/>
<rect x="636" y="456" width="62" height="10" fill="#ff0"/>
<text x="20" y="485" class="sm">9.819e-06</text>
<rect x="100" y="475" width="121" height="12" fill="#00f"/>
<rect x="355" y="475" width="110" height="12" fill="#00f"/>
<rect x="536" y="475" width="197" height="12" fill="#00f"/>
<line x1="221" y1="481" x2="354" y2="481" stroke="#00f"/>
<line x1="465" y1="481" x2="535" y2="481" stroke="#00f"/>
<rect x="107" y="476" width="114" height="10" fill="#ff0"/>
<rect x="356" y="476" width="49" height="10" fill="#ff0"/>
<text x="20" y="505" class="sm">8.666e-06</text>
<rect x="100" y="495" width="121" height="12" fill="#00f"/>
<rect x="355" y="495" width="46" height="12" fill="#00f"/>
<rect x="536" y="495" width="197" height="12" fill="#00f"/>
<line x1="221" y1="501" x2="354" y2="501" stroke="#00f"/>
<line x1="401" y1="501" x2="535" y2="501" stroke="#00f"/>
<rect x="636" y="496" width="62" height="10" fill="#ff0"/>
<text x="20" y="525" class="sm">3.861e-06</text>
<rect x="100" y="515" width="96" height="12" fill="#00f"/>
<rect x="355" y="515" width="110" height="12" fill="#00f"/>
<rect x="536" y="515" width="197" height="12" fill="#00f"/>
<line x1="196" y1="521" x2="354" y2="521" stroke="#00f"/>
<line x1="465" y1="521" x2="535" y2="521" stroke="#00f"/>
<rect x="636" y="516" width="62" height="10" fill="#ff0"/>
</svg>
