<svg viewBox="0 0 507 540" xmlns="http://www.w3.org/2000/svg">

<style>
  .sm { font: 12px sans-serif; }
  .lg { font: 15px sans-serif; }
</style>
<rect fill="#ddd" x="0" y="0" width="100%" height="100%"/>
<text x="20" y="20" class="lg">ch.9395 IV:1659591-1660097 Gene:WBGene00004497</text>
<text x="20" y="50" class="sm">WormBase</text>
<rect x="100" y="40" width="142" height="12" fill="#00f"/>
<rect x="297" y="40" width="110" height="12" fill="#00f"/>
<line x1="242" y1="46" x2="296" y2="46" stroke="#00f"/>
<rect x="114" y="41" width="128" height="10" fill="#ff0"/>
<rect x="298" y="41" width="68" height="10" fill="#ff0"/>
<rect x="101" y="41" width="12" height="10" fill="brown"><title>.</title></rect>
<rect x="367" y="41" width="40" height="10" fill="brown"><title>.</title></rect>
<text x="20" y="70" class="sm">Fitness: 7.655143752548636e-06</text>
<rect x="242" y="65" width="55" height="5" fill="#00f"><title>17176400.0</title></rect>
<rect x="236" y="70" width="61" height="5" fill="#00f"><title>37.0</title></rect>
<rect x="242" y="75" width="62" height="5" fill="#00f"><title>36.0</title></rect>
<rect x="185" y="80" width="119" height="5" fill="#00f"><title>14.0</title></rect>
<rect x="146" y="85" width="40" height="5" fill="#00f"><title>13.0</title></rect>
<rect x="246" y="90" width="51" height="5" fill="#00f"><title>12.0</title></rect>
<rect x="242" y="95" width="125" height="5" fill="#00f"><title>10.0</title></rect>
<rect x="246" y="100" width="58" height="5" fill="#00f"><title>5.0</title></rect>
<text x="20" y="130" class="sm">1.0</text>
<rect x="100" y="120" width="142" height="12" fill="#00f"/>
<rect x="297" y="120" width="113" height="12" fill="#00f"/>
<line x1="242" y1="126" x2="296" y2="126" stroke="#00f"/>
<rect x="114" y="121" width="128" height="10" fill="#ff0"/>
<rect x="298" y="121" width="68" height="10" fill="#ff0"/>
<text x="20" y="150" class="sm">3.08e-06</text>
<rect x="100" y="140" width="146" height="12" fill="#00f"/>
<rect x="297" y="140" width="113" height="12" fill="#00f"/>
<line x1="246" y1="146" x2="296" y2="146" stroke="#00f"/>
<rect x="114" y="141" width="132" height="10" fill="#ff0"/>
<rect x="298" y="141" width="43" height="10" fill="#ff0"/>
<text x="20" y="170" class="sm">2.314e-06</text>
<rect x="100" y="160" width="136" height="12" fill="#00f"/>
<rect x="297" y="160" width="113" height="12" fill="#00f"/>
<line x1="236" y1="166" x2="296" y2="166" stroke="#00f"/>
<rect x="114" y="161" width="122" height="10" fill="#ff0"/>
<rect x="298" y="161" width="68" height="10" fill="#ff0"/>
<text x="20" y="190" class="sm">1.246e-06</text>
<rect x="100" y="180" width="142" height="12" fill="#00f"/>
<rect x="304" y="180" width="106" height="12" fill="#00f"/>
<line x1="242" y1="186" x2="303" y2="186" stroke="#00f"/>
<rect x="114" y="181" width="128" height="10" fill="#ff0"/>
<rect x="305" y="181" width="95" height="10" fill="#ff0"/>
<text x="20" y="210" class="sm">1.078e-06</text>
<rect x="100" y="200" width="142" height="12" fill="#00f"/>
<rect x="342" y="200" width="68" height="12" fill="#00f"/>
<line x1="242" y1="206" x2="341" y2="206" stroke="#00f"/>
<rect x="114" y="201" width="128" height="10" fill="#ff0"/>
<rect x="343" y="201" width="23" height="10" fill="#ff0"/>
<text x="20" y="230" class="sm">2.037e-07</text>
<rect x="100" y="220" width="142" height="12" fill="#00f"/>
<rect x="353" y="220" width="57" height="12" fill="#00f"/>
<line x1="242" y1="226" x2="352" y2="226" stroke="#00f"/>
<rect x="176" y="221" width="65" height="10" fill="#ff0"/>
<text x="20" y="250" class="sm">8.357e-08</text>
<rect x="100" y="240" width="142" height="12" fill="#00f"/>
<rect x="367" y="240" width="43" height="12" fill="#00f"/>
<line x1="242" y1="246" x2="366" y2="246" stroke="#00f"/>
<rect x="114" y="241" width="128" height="10" fill="#ff0"/>
<rect x="368" y="241" width="32" height="10" fill="#ff0"/>
<text x="20" y="270" class="sm">2.308e-09</text>
<rect x="100" y="260" width="142" height="12" fill="#00f"/>
<rect x="344" y="260" width="66" height="12" fill="#00f"/>
<line x1="242" y1="266" x2="343" y2="266" stroke="#00f"/>
<rect x="176" y="261" width="65" height="10" fill="#ff0"/>
<text x="20" y="290" class="sm">1.47e-09</text>
<rect x="100" y="280" width="56" height="12" fill="#00f"/>
<rect x="297" y="280" width="113" height="12" fill="#00f"/>
<line x1="156" y1="286" x2="296" y2="286" stroke="#00f"/>
<rect x="114" y="281" width="42" height="10" fill="#ff0"/>
<rect x="298" y="281" width="43" height="10" fill="#ff0"/>
<text x="20" y="310" class="sm">4.936e-10</text>
<rect x="100" y="300" width="142" height="12" fill="#00f"/>
<rect x="349" y="300" width="61" height="12" fill="#00f"/>
<line x1="242" y1="306" x2="348" y2="306" stroke="#00f"/>
<rect x="114" y="301" width="128" height="10" fill="#ff0"/>
<rect x="350" y="301" width="50" height="10" fill="#ff0"/>
<text x="20" y="330" class="sm">2.568e-10</text>
<rect x="100" y="320" width="142" height="12" fill="#00f"/>
<rect x="356" y="320" width="54" height="12" fill="#00f"/>
<line x1="242" y1="326" x2="355" y2="326" stroke="#00f"/>
<rect x="176" y="321" width="65" height="10" fill="#ff0"/>
<text x="20" y="350" class="sm">2.715e-11</text>
<rect x="100" y="340" width="142" height="12" fill="#00f"/>
<rect x="312" y="340" width="98" height="12" fill="#00f"/>
<line x1="242" y1="346" x2="311" y2="346" stroke="#00f"/>
<rect x="114" y="341" width="128" height="10" fill="#ff0"/>
<rect x="313" y="341" width="53" height="10" fill="#ff0"/>
<text x="20" y="370" class="sm">2.362e-11</text>
<rect x="100" y="360" width="77" height="12" fill="#00f"/>
<rect x="297" y="360" width="113" height="12" fill="#00f"/>
<line x1="177" y1="366" x2="296" y2="366" stroke="#00f"/>
<rect x="114" y="361" width="63" height="10" fill="#ff0"/>
<rect x="298" y="361" width="43" height="10" fill="#ff0"/>
<text x="20" y="390" class="sm">1.95e-11</text>
<rect x="100" y="380" width="35" height="12" fill="#00f"/>
<rect x="297" y="380" width="113" height="12" fill="#00f"/>
<line x1="135" y1="386" x2="296" y2="386" stroke="#00f"/>
<rect x="114" y="381" width="21" height="10" fill="#ff0"/>
<rect x="298" y="381" width="43" height="10" fill="#ff0"/>
<text x="20" y="410" class="sm">1.784e-11</text>
<rect x="100" y="400" width="46" height="12" fill="#00f"/>
<rect x="297" y="400" width="113" height="12" fill="#00f"/>
<line x1="146" y1="406" x2="296" y2="406" stroke="#00f"/>
<rect x="114" y="401" width="32" height="10" fill="#ff0"/>
<rect x="298" y="401" width="68" height="10" fill="#ff0"/>
<text x="20" y="430" class="sm">1.512e-11</text>
<rect x="100" y="420" width="142" height="12" fill="#00f"/>
<rect x="346" y="420" width="64" height="12" fill="#00f"/>
<line x1="242" y1="426" x2="345" y2="426" stroke="#00f"/>
<rect x="114" y="421" width="128" height="10" fill="#ff0"/>
<rect x="347" y="421" width="53" height="10" fill="#ff0"/>
<text x="20" y="450" class="sm">9.96e-12</text>
<rect x="100" y="440" width="142" height="12" fill="#00f"/>
<rect x="316" y="440" width="94" height="12" fill="#00f"/>
<line x1="242" y1="446" x2="315" y2="446" stroke="#00f"/>
<rect x="114" y="441" width="128" height="10" fill="#ff0"/>
<rect x="317" y="441" width="83" height="10" fill="#ff0"/>
<text x="20" y="470" class="sm">3.753e-12</text>
<rect x="100" y="460" width="146" height="12" fill="#00f"/>
<rect x="304" y="460" width="106" height="12" fill="#00f"/>
<line x1="246" y1="466" x2="303" y2="466" stroke="#00f"/>
<rect x="114" y="461" width="132" height="10" fill="#ff0"/>
<rect x="305" y="461" width="61" height="10" fill="#ff0"/>
<text x="20" y="490" class="sm">3.324e-12</text>
<rect x="100" y="480" width="136" height="12" fill="#00f"/>
<rect x="342" y="480" width="68" height="12" fill="#00f"/>
<line x1="236" y1="486" x2="341" y2="486" stroke="#00f"/>
<rect x="114" y="481" width="122" height="10" fill="#ff0"/>
<rect x="343" y="481" width="23" height="10" fill="#ff0"/>
<text x="20" y="510" class="sm">3.237e-12</text>
<rect x="100" y="500" width="136" height="12" fill="#00f"/>
<rect x="304" y="500" width="106" height="12" fill="#00f"/>
<line x1="236" y1="506" x2="303" y2="506" stroke="#00f"/>
<rect x="114" y="501" width="122" height="10" fill="#ff0"/>
<rect x="305" y="501" width="95" height="10" fill="#ff0"/>
</svg>
