<svg viewBox="0 0 995 550" xmlns="http://www.w3.org/2000/svg">

<style>
  .sm { font: 12px sans-serif; }
  .lg { font: 15px sans-serif; }
</style>
<rect fill="#ddd" x="0" y="0" width="100%" height="100%"/>
<text x="20" y="20" class="lg">ch.9835 IV:4294795-4295789 Gene:WBGene00017484</text>
<text x="20" y="50" class="sm">WormBase</text>
<rect x="100" y="40" width="152" height="12" fill="#00f"/>
<rect x="552" y="40" width="343" height="12" fill="#00f"/>
<line x1="252" y1="46" x2="551" y2="46" stroke="#00f"/>
<rect x="141" y="41" width="111" height="10" fill="#ff0"/>
<rect x="553" y="41" width="244" height="10" fill="#ff0"/>
<rect x="101" y="41" width="39" height="10" fill="brown"><title>.</title></rect>
<rect x="798" y="41" width="97" height="10" fill="brown"><title>.</title></rect>
<text x="20" y="70" class="sm">Fitness: 0.0024605742627209146</text>
<rect x="252" y="65" width="300" height="5" fill="#00f"><title>362056.0</title></rect>
<rect x="752" y="70" width="177" height="5" fill="#00f"><title>389.0</title></rect>
<rect x="606" y="75" width="39" height="5" fill="#00f"><title>20.0</title></rect>
<rect x="256" y="80" width="296" height="5" fill="#00f"><title>15.0</title></rect>
<rect x="705" y="85" width="69" height="5" fill="#00f"><title>11.0</title></rect>
<rect x="648" y="90" width="57" height="5" fill="#00f"><title>10.0</title></rect>
<rect x="564" y="95" width="84" height="5" fill="#00f"><title>6.0</title></rect>
<rect x="606" y="100" width="42" height="5" fill="#00f"><title>4.0</title></rect>
<rect x="599" y="105" width="58" height="5" fill="#00f"><title>3.0</title></rect>
<rect x="663" y="110" width="42" height="5" fill="#00f"><title>3.0</title></rect>
<text x="20" y="140" class="sm">0.9992</text>
<rect x="100" y="130" width="152" height="12" fill="#00f"/>
<rect x="552" y="130" width="346" height="12" fill="#00f"/>
<line x1="252" y1="136" x2="551" y2="136" stroke="#00f"/>
<rect x="141" y="131" width="111" height="10" fill="#ff0"/>
<rect x="553" y="131" width="244" height="10" fill="#ff0"/>
<text x="20" y="160" class="sm">0.0005049</text>
<rect x="100" y="150" width="127" height="12" fill="#00f"/>
<rect x="552" y="150" width="346" height="12" fill="#00f"/>
<line x1="227" y1="156" x2="551" y2="156" stroke="#00f"/>
<rect x="589" y="151" width="167" height="10" fill="#ff0"/>
<text x="20" y="180" class="sm">0.0002153</text>
<rect x="100" y="170" width="165" height="12" fill="#00f"/>
<rect x="552" y="170" width="346" height="12" fill="#00f"/>
<line x1="265" y1="176" x2="551" y2="176" stroke="#00f"/>
<rect x="141" y="171" width="124" height="10" fill="#ff0"/>
<rect x="553" y="171" width="48" height="10" fill="#ff0"/>
<text x="20" y="200" class="sm">5.745e-05</text>
<rect x="100" y="190" width="156" height="12" fill="#00f"/>
<rect x="552" y="190" width="346" height="12" fill="#00f"/>
<line x1="256" y1="196" x2="551" y2="196" stroke="#00f"/>
<rect x="247" y="191" width="9" height="10" fill="#ff0"/>
<rect x="553" y="191" width="244" height="10" fill="#ff0"/>
<text x="20" y="220" class="sm">1.218e-05</text>
<rect x="100" y="210" width="172" height="12" fill="#00f"/>
<rect x="552" y="210" width="346" height="12" fill="#00f"/>
<line x1="272" y1="216" x2="551" y2="216" stroke="#00f"/>
<rect x="589" y="211" width="167" height="10" fill="#ff0"/>
<text x="20" y="240" class="sm">6.112e-06</text>
<rect x="100" y="230" width="152" height="12" fill="#00f"/>
<rect x="552" y="230" width="200" height="12" fill="#00f"/>
<rect x="852" y="230" width="46" height="12" fill="#00f"/>
<line x1="252" y1="236" x2="551" y2="236" stroke="#00f"/>
<line x1="752" y1="236" x2="851" y2="236" stroke="#00f"/>
<rect x="141" y="231" width="111" height="10" fill="#ff0"/>
<rect x="553" y="231" width="199" height="10" fill="#ff0"/>
<rect x="853" y="231" width="17" height="10" fill="#ff0"/>
<text x="20" y="260" class="sm">5.759e-06</text>
<rect x="100" y="250" width="179" height="12" fill="#00f"/>
<rect x="552" y="250" width="346" height="12" fill="#00f"/>
<line x1="279" y1="256" x2="551" y2="256" stroke="#00f"/>
<rect x="141" y="251" width="138" height="10" fill="#ff0"/>
<rect x="553" y="251" width="244" height="10" fill="#ff0"/>
<text x="20" y="280" class="sm">4.586e-06</text>
<rect x="100" y="270" width="152" height="12" fill="#00f"/>
<rect x="564" y="270" width="334" height="12" fill="#00f"/>
<line x1="252" y1="276" x2="563" y2="276" stroke="#00f"/>
<rect x="141" y="271" width="111" height="10" fill="#ff0"/>
<rect x="565" y="271" width="232" height="10" fill="#ff0"/>
<text x="20" y="300" class="sm">8.004e-07</text>
<rect x="100" y="290" width="55" height="12" fill="#00f"/>
<rect x="552" y="290" width="346" height="12" fill="#00f"/>
<line x1="155" y1="296" x2="551" y2="296" stroke="#00f"/>
<rect x="589" y="291" width="167" height="10" fill="#ff0"/>
<text x="20" y="320" class="sm">4.306e-07</text>
<rect x="100" y="310" width="152" height="12" fill="#00f"/>
<rect x="620" y="310" width="278" height="12" fill="#00f"/>
<line x1="252" y1="316" x2="619" y2="316" stroke="#00f"/>
<rect x="141" y="311" width="111" height="10" fill="#ff0"/>
<rect x="621" y="311" width="205" height="10" fill="#ff0"/>
<text x="20" y="340" class="sm">3.994e-07</text>
<rect x="100" y="330" width="152" height="12" fill="#00f"/>
<rect x="552" y="330" width="221" height="12" fill="#00f"/>
<rect x="852" y="330" width="46" height="12" fill="#00f"/>
<line x1="252" y1="336" x2="551" y2="336" stroke="#00f"/>
<line x1="773" y1="336" x2="851" y2="336" stroke="#00f"/>
<rect x="141" y="331" width="111" height="10" fill="#ff0"/>
<rect x="553" y="331" width="220" height="10" fill="#ff0"/>
<rect x="853" y="331" width="17" height="10" fill="#ff0"/>
<text x="20" y="360" class="sm">3.891e-07</text>
<rect x="100" y="350" width="152" height="12" fill="#00f"/>
<rect x="852" y="350" width="46" height="12" fill="#00f"/>
<line x1="252" y1="356" x2="851" y2="356" stroke="#00f"/>
<rect x="141" y="351" width="111" height="10" fill="#ff0"/>
<rect x="853" y="351" width="13" height="10" fill="#ff0"/>
<text x="20" y="380" class="sm">3.764e-07</text>
<rect x="100" y="370" width="152" height="12" fill="#00f"/>
<rect x="552" y="370" width="188" height="12" fill="#00f"/>
<rect x="852" y="370" width="46" height="12" fill="#00f"/>
<line x1="252" y1="376" x2="551" y2="376" stroke="#00f"/>
<line x1="740" y1="376" x2="851" y2="376" stroke="#00f"/>
<rect x="141" y="371" width="111" height="10" fill="#ff0"/>
<rect x="553" y="371" width="187" height="10" fill="#ff0"/>
<rect x="853" y="371" width="17" height="10" fill="#ff0"/>
<text x="20" y="400" class="sm">3.741e-07</text>
<rect x="100" y="390" width="152" height="12" fill="#00f"/>
<rect x="552" y="390" width="216" height="12" fill="#00f"/>
<rect x="852" y="390" width="46" height="12" fill="#00f"/>
<line x1="252" y1="396" x2="551" y2="396" stroke="#00f"/>
<line x1="768" y1="396" x2="851" y2="396" stroke="#00f"/>
<rect x="141" y="391" width="111" height="10" fill="#ff0"/>
<rect x="553" y="391" width="215" height="10" fill="#ff0"/>
<rect x="853" y="391" width="13" height="10" fill="#ff0"/>
<text x="20" y="420" class="sm">2.005e-07</text>
<rect x="100" y="410" width="152" height="12" fill="#00f"/>
<rect x="552" y="410" width="224" height="12" fill="#00f"/>
<rect x="852" y="410" width="46" height="12" fill="#00f"/>
<line x1="252" y1="416" x2="551" y2="416" stroke="#00f"/>
<line x1="776" y1="416" x2="851" y2="416" stroke="#00f"/>
<rect x="141" y="411" width="111" height="10" fill="#ff0"/>
<rect x="553" y="411" width="223" height="10" fill="#ff0"/>
<rect x="853" y="411" width="17" height="10" fill="#ff0"/>
<text x="20" y="440" class="sm">1.596e-07</text>
<rect x="100" y="430" width="42" height="12" fill="#00f"/>
<rect x="552" y="430" width="346" height="12" fill="#00f"/>
<line x1="142" y1="436" x2="551" y2="436" stroke="#00f"/>
<rect x="589" y="431" width="167" height="10" fill="#ff0"/>
<text x="20" y="460" class="sm">1.291e-07</text>
<rect x="100" y="450" width="46" height="12" fill="#00f"/>
<rect x="552" y="450" width="346" height="12" fill="#00f"/>
<line x1="146" y1="456" x2="551" y2="456" stroke="#00f"/>
<rect x="589" y="451" width="167" height="10" fill="#ff0"/>
<text x="20" y="480" class="sm">1.016e-07</text>
<rect x="100" y="470" width="152" height="12" fill="#00f"/>
<rect x="552" y="470" width="212" height="12" fill="#00f"/>
<rect x="852" y="470" width="46" height="12" fill="#00f"/>
<line x1="252" y1="476" x2="551" y2="476" stroke="#00f"/>
<line x1="764" y1="476" x2="851" y2="476" stroke="#00f"/>
<rect x="141" y="471" width="111" height="10" fill="#ff0"/>
<rect x="553" y="471" width="211" height="10" fill="#ff0"/>
<rect x="853" y="471" width="17" height="10" fill="#ff0"/>
<text x="20" y="500" class="sm">8.688e-08</text>
<rect x="100" y="490" width="152" height="12" fill="#00f"/>
<rect x="606" y="490" width="292" height="12" fill="#00f"/>
<line x1="252" y1="496" x2="605" y2="496" stroke="#00f"/>
<rect x="141" y="491" width="111" height="10" fill="#ff0"/>
<rect x="607" y="491" width="190" height="10" fill="#ff0"/>
<text x="20" y="520" class="sm">5.25e-08</text>
<rect x="100" y="510" width="59" height="12" fill="#00f"/>
<rect x="552" y="510" width="346" height="12" fill="#00f"/>
<line x1="159" y1="516" x2="551" y2="516" stroke="#00f"/>
<rect x="141" y="511" width="18" height="10" fill="#ff0"/>
<rect x="553" y="511" width="244" height="10" fill="#ff0"/>
</svg>
