<svg viewBox="0 0 851 525" xmlns="http://www.w3.org/2000/svg">

<style>
  .sm { font: 12px sans-serif; }
  .lg { font: 15px sans-serif; }
</style>
<rect fill="#ddd" x="0" y="0" width="100%" height="100%"/>
<text x="20" y="20" class="lg">ch.9675 IV:3598556-3599406 Gene:WBGene00021378</text>
<text x="20" y="50" class="sm">WormBase</text>
<rect x="102" y="40" width="188" height="12" fill="#00f"/>
<rect x="341" y="40" width="146" height="12" fill="#00f"/>
<rect x="548" y="40" width="205" height="12" fill="#00f"/>
<line x1="290" y1="46" x2="340" y2="46" stroke="#00f"/>
<line x1="487" y1="46" x2="547" y2="46" stroke="#00f"/>
<rect x="170" y="41" width="120" height="10" fill="#ff0"/>
<rect x="342" y="41" width="145" height="10" fill="#ff0"/>
<rect x="549" y="41" width="143" height="10" fill="#ff0"/>
<rect x="103" y="41" width="66" height="10" fill="brown"><title>.</title></rect>
<rect x="693" y="41" width="60" height="10" fill="brown"><title>.</title></rect>
<text x="20" y="70" class="sm">Fitness: 0.05908959373735093</text>
<rect x="487" y="65" width="61" height="5" fill="#00f"><title>227598.0</title></rect>
<rect x="290" y="70" width="51" height="5" fill="#00f"><title>162993.0</title></rect>
<rect x="266" y="75" width="75" height="5" fill="#00f"><title>64.0</title></rect>
<rect x="492" y="80" width="59" height="5" fill="#f0f"><title>9.0</title></rect>
<rect x="478" y="85" width="121" height="5" fill="#00f"><title>3.0</title></rect>
<text x="20" y="115" class="sm">0.5597</text>
<rect x="100" y="105" width="387" height="12" fill="#00f"/>
<rect x="548" y="105" width="206" height="12" fill="#00f"/>
<line x1="487" y1="111" x2="547" y2="111" stroke="#00f"/>
<rect x="170" y="106" width="317" height="10" fill="#ff0"/>
<rect x="549" y="106" width="143" height="10" fill="#ff0"/>
<text x="20" y="135" class="sm">0.3997</text>
<rect x="100" y="125" width="190" height="12" fill="#00f"/>
<rect x="341" y="125" width="413" height="12" fill="#00f"/>
<line x1="290" y1="131" x2="340" y2="131" stroke="#00f"/>
<rect x="170" y="126" width="120" height="10" fill="#ff0"/>
<rect x="342" y="126" width="190" height="10" fill="#ff0"/>
<text x="20" y="155" class="sm">0.01141</text>
<rect x="100" y="145" width="201" height="12" fill="#00f"/>
<rect x="341" y="145" width="413" height="12" fill="#00f"/>
<line x1="301" y1="151" x2="340" y2="151" stroke="#00f"/>
<rect x="170" y="146" width="131" height="10" fill="#ff0"/>
<rect x="342" y="146" width="149" height="10" fill="#ff0"/>
<text x="20" y="175" class="sm">0.01062</text>
<rect x="100" y="165" width="190" height="12" fill="#00f"/>
<rect x="341" y="165" width="146" height="12" fill="#00f"/>
<rect x="548" y="165" width="206" height="12" fill="#00f"/>
<line x1="290" y1="171" x2="340" y2="171" stroke="#00f"/>
<line x1="487" y1="171" x2="547" y2="171" stroke="#00f"/>
<rect x="170" y="166" width="120" height="10" fill="#ff0"/>
<rect x="342" y="166" width="145" height="10" fill="#ff0"/>
<rect x="549" y="166" width="143" height="10" fill="#ff0"/>
<text x="20" y="195" class="sm">0.008105</text>
<rect x="100" y="185" width="166" height="12" fill="#00f"/>
<rect x="341" y="185" width="413" height="12" fill="#00f"/>
<line x1="266" y1="191" x2="340" y2="191" stroke="#00f"/>
<rect x="170" y="186" width="96" height="10" fill="#ff0"/>
<rect x="342" y="186" width="190" height="10" fill="#ff0"/>
<text x="20" y="215" class="sm">0.00274</text>
<rect x="100" y="205" width="131" height="12" fill="#00f"/>
<rect x="341" y="205" width="413" height="12" fill="#00f"/>
<line x1="231" y1="211" x2="340" y2="211" stroke="#00f"/>
<rect x="170" y="206" width="61" height="10" fill="#ff0"/>
<rect x="342" y="206" width="162" height="10" fill="#ff0"/>
<text x="20" y="235" class="sm">0.002095</text>
<rect x="100" y="225" width="179" height="12" fill="#00f"/>
<rect x="341" y="225" width="413" height="12" fill="#00f"/>
<line x1="279" y1="231" x2="340" y2="231" stroke="#00f"/>
<rect x="170" y="226" width="109" height="10" fill="#ff0"/>
<rect x="342" y="226" width="162" height="10" fill="#ff0"/>
<text x="20" y="255" class="sm">0.002079</text>
<rect x="100" y="245" width="131" height="12" fill="#00f"/>
<rect x="302" y="245" width="452" height="12" fill="#00f"/>
<line x1="231" y1="251" x2="301" y2="251" stroke="#00f"/>
<rect x="170" y="246" width="61" height="10" fill="#ff0"/>
<rect x="303" y="246" width="201" height="10" fill="#ff0"/>
<text x="20" y="275" class="sm">0.0009033</text>
<rect x="100" y="265" width="166" height="12" fill="#00f"/>
<rect x="302" y="265" width="452" height="12" fill="#00f"/>
<line x1="266" y1="271" x2="301" y2="271" stroke="#00f"/>
<rect x="170" y="266" width="96" height="10" fill="#ff0"/>
<rect x="303" y="266" width="229" height="10" fill="#ff0"/>
<text x="20" y="295" class="sm">0.0008356</text>
<rect x="100" y="285" width="372" height="12" fill="#00f"/>
<rect x="548" y="285" width="206" height="12" fill="#00f"/>
<line x1="472" y1="291" x2="547" y2="291" stroke="#00f"/>
<rect x="170" y="286" width="302" height="10" fill="#ff0"/>
<rect x="549" y="286" width="143" height="10" fill="#ff0"/>
<text x="20" y="315" class="sm">0.0005738</text>
<rect x="100" y="305" width="378" height="12" fill="#00f"/>
<rect x="548" y="305" width="206" height="12" fill="#00f"/>
<line x1="478" y1="311" x2="547" y2="311" stroke="#00f"/>
<rect x="170" y="306" width="308" height="10" fill="#ff0"/>
<rect x="549" y="306" width="143" height="10" fill="#ff0"/>
<text x="20" y="335" class="sm">0.0003032</text>
<rect x="100" y="325" width="201" height="12" fill="#00f"/>
<rect x="341" y="325" width="146" height="12" fill="#00f"/>
<rect x="548" y="325" width="206" height="12" fill="#00f"/>
<line x1="301" y1="331" x2="340" y2="331" stroke="#00f"/>
<line x1="487" y1="331" x2="547" y2="331" stroke="#00f"/>
<rect x="170" y="326" width="131" height="10" fill="#ff0"/>
<rect x="342" y="326" width="145" height="10" fill="#ff0"/>
<rect x="549" y="326" width="24" height="10" fill="#ff0"/>
<text x="20" y="355" class="sm">0.0002154</text>
<rect x="100" y="345" width="166" height="12" fill="#00f"/>
<rect x="341" y="345" width="146" height="12" fill="#00f"/>
<rect x="548" y="345" width="206" height="12" fill="#00f"/>
<line x1="266" y1="351" x2="340" y2="351" stroke="#00f"/>
<line x1="487" y1="351" x2="547" y2="351" stroke="#00f"/>
<rect x="170" y="346" width="96" height="10" fill="#ff0"/>
<rect x="342" y="346" width="145" height="10" fill="#ff0"/>
<rect x="549" y="346" width="143" height="10" fill="#ff0"/>
<text x="20" y="375" class="sm">0.0002042</text>
<rect x="100" y="365" width="120" height="12" fill="#00f"/>
<rect x="341" y="365" width="413" height="12" fill="#00f"/>
<line x1="220" y1="371" x2="340" y2="371" stroke="#00f"/>
<rect x="170" y="366" width="50" height="10" fill="#ff0"/>
<rect x="342" y="366" width="149" height="10" fill="#ff0"/>
<text x="20" y="395" class="sm">0.0001544</text>
<rect x="100" y="385" width="120" height="12" fill="#00f"/>
<rect x="302" y="385" width="452" height="12" fill="#00f"/>
<line x1="220" y1="391" x2="301" y2="391" stroke="#00f"/>
<rect x="207" y="386" width="13" height="10" fill="#ff0"/>
<rect x="303" y="386" width="201" height="10" fill="#ff0"/>
<text x="20" y="415" class="sm">7.284e-05</text>
<rect x="100" y="405" width="131" height="12" fill="#00f"/>
<rect x="341" y="405" width="146" height="12" fill="#00f"/>
<rect x="548" y="405" width="206" height="12" fill="#00f"/>
<line x1="231" y1="411" x2="340" y2="411" stroke="#00f"/>
<line x1="487" y1="411" x2="547" y2="411" stroke="#00f"/>
<rect x="407" y="406" width="80" height="10" fill="#ff0"/>
<rect x="549" y="406" width="143" height="10" fill="#ff0"/>
<text x="20" y="435" class="sm">7.075e-05</text>
<rect x="100" y="425" width="387" height="12" fill="#00f"/>
<rect x="710" y="425" width="44" height="12" fill="#00f"/>
<line x1="487" y1="431" x2="709" y2="431" stroke="#00f"/>
<rect x="240" y="426" width="80" height="10" fill="#ff0"/>
<text x="20" y="455" class="sm">5.568e-05</text>
<rect x="100" y="445" width="179" height="12" fill="#00f"/>
<rect x="341" y="445" width="146" height="12" fill="#00f"/>
<rect x="548" y="445" width="206" height="12" fill="#00f"/>
<line x1="279" y1="451" x2="340" y2="451" stroke="#00f"/>
<line x1="487" y1="451" x2="547" y2="451" stroke="#00f"/>
<rect x="240" y="446" width="39" height="10" fill="#ff0"/>
<rect x="342" y="446" width="145" height="10" fill="#ff0"/>
<rect x="549" y="446" width="143" height="10" fill="#ff0"/>
<text x="20" y="475" class="sm">5.491e-05</text>
<rect x="100" y="465" width="131" height="12" fill="#00f"/>
<rect x="302" y="465" width="185" height="12" fill="#00f"/>
<rect x="548" y="465" width="206" height="12" fill="#00f"/>
<line x1="231" y1="471" x2="301" y2="471" stroke="#00f"/>
<line x1="487" y1="471" x2="547" y2="471" stroke="#00f"/>
<rect x="407" y="466" width="80" height="10" fill="#ff0"/>
<rect x="549" y="466" width="143" height="10" fill="#ff0"/>
<text x="20" y="495" class="sm">4.672e-05</text>
<rect x="100" y="485" width="498" height="12" fill="#00f"/>
<rect x="710" y="485" width="44" height="12" fill="#00f"/>
<line x1="598" y1="491" x2="709" y2="491" stroke="#00f"/>
<rect x="170" y="486" width="362" height="10" fill="#ff0"/>
</svg>
