<svg viewBox="0 0 996 605" xmlns="http://www.w3.org/2000/svg">

<style>
  .sm { font: 12px sans-serif; }
  .lg { font: 15px sans-serif; }
</style>
<rect fill="#ddd" x="0" y="0" width="100%" height="100%"/>
<text x="20" y="20" class="lg">ch.933 I:5657817-5658812 Gene:WBGene00018894</text>
<text x="20" y="50" class="sm">WormBase</text>
<rect x="102" y="40" width="279" height="12" fill="#00f"/>
<rect x="429" y="40" width="469" height="12" fill="#00f"/>
<line x1="381" y1="46" x2="428" y2="46" stroke="#00f"/>
<rect x="106" y="41" width="275" height="10" fill="#ff0"/>
<rect x="430" y="41" width="209" height="10" fill="#ff0"/>
<rect x="103" y="41" width="2" height="10" fill="brown"><title>.</title></rect>
<rect x="640" y="41" width="258" height="10" fill="brown"><title>.</title></rect>
<text x="20" y="70" class="sm">Fitness: 0.007219354364137512</text>
<rect x="381" y="65" width="48" height="5" fill="#00f"><title>307685.0</title></rect>
<rect x="226" y="70" width="112" height="5" fill="#f0f"><title>1380.0</title></rect>
<rect x="381" y="75" width="52" height="5" fill="#00f"><title>853.0</title></rect>
<rect x="175" y="80" width="42" height="5" fill="#00f"><title>242.0</title></rect>
<rect x="620" y="85" width="277" height="5" fill="#00f"><title>108.0</title></rect>
<rect x="572" y="90" width="325" height="5" fill="#00f"><title>63.0</title></rect>
<rect x="238" y="95" width="659" height="5" fill="#00f"><title>53.0</title></rect>
<rect x="163" y="100" width="54" height="5" fill="#00f"><title>51.0</title></rect>
<rect x="774" y="105" width="123" height="5" fill="#00f"><title>32.0</title></rect>
<rect x="520" y="110" width="377" height="5" fill="#00f"><title>21.0</title></rect>
<rect x="288" y="115" width="50" height="5" fill="#f0f"><title>16.0</title></rect>
<rect x="756" y="120" width="141" height="5" fill="#00f"><title>15.0</title></rect>
<rect x="59" y="125" width="43" height="5" fill="#00f"><title>12.0</title></rect>
<rect x="835" y="130" width="62" height="5" fill="#00f"><title>10.0</title></rect>
<rect x="381" y="135" width="516" height="5" fill="#00f"><title>9.0</title></rect>
<rect x="939" y="140" width="46" height="5" fill="#00f"><title>8.0</title></rect>
<rect x="598" y="145" width="299" height="5" fill="#00f"><title>6.0</title></rect>
<rect x="386" y="150" width="49" height="5" fill="#f0f"><title>6.0</title></rect>
<rect x="238" y="155" width="40" height="5" fill="#00f"><title>6.0</title></rect>
<rect x="228" y="160" width="50" height="5" fill="#00f"><title>5.0</title></rect>
<rect x="536" y="165" width="361" height="5" fill="#00f"><title>3.0</title></rect>
<text x="20" y="195" class="sm">0.9954</text>
<rect x="100" y="185" width="281" height="12" fill="#00f"/>
<rect x="429" y="185" width="470" height="12" fill="#00f"/>
<line x1="381" y1="191" x2="428" y2="191" stroke="#00f"/>
<rect x="106" y="186" width="275" height="10" fill="#ff0"/>
<rect x="430" y="186" width="209" height="10" fill="#ff0"/>
<text x="20" y="215" class="sm">0.003282</text>
<rect x="100" y="205" width="281" height="12" fill="#00f"/>
<rect x="439" y="205" width="460" height="12" fill="#00f"/>
<line x1="381" y1="211" x2="438" y2="211" stroke="#00f"/>
<rect x="106" y="206" width="275" height="10" fill="#ff0"/>
<rect x="440" y="206" width="50" height="10" fill="#ff0"/>
<text x="20" y="235" class="sm">0.0007872</text>
<rect x="100" y="225" width="75" height="12" fill="#00f"/>
<rect x="217" y="225" width="682" height="12" fill="#00f"/>
<line x1="175" y1="231" x2="216" y2="231" stroke="#00f"/>
<rect x="106" y="226" width="69" height="10" fill="#ff0"/>
<rect x="218" y="226" width="172" height="10" fill="#ff0"/>
<text x="20" y="255" class="sm">0.0004476</text>
<rect x="100" y="245" width="281" height="12" fill="#00f"/>
<rect x="433" y="245" width="466" height="12" fill="#00f"/>
<line x1="381" y1="251" x2="432" y2="251" stroke="#00f"/>
<rect x="106" y="246" width="275" height="10" fill="#ff0"/>
<rect x="434" y="246" width="56" height="10" fill="#ff0"/>
<text x="20" y="275" class="sm">2.079e-05</text>
<rect x="100" y="265" width="498" height="12" fill="#00f"/>
<rect x="750" y="265" width="149" height="12" fill="#00f"/>
<line x1="598" y1="271" x2="749" y2="271" stroke="#00f"/>
<rect x="106" y="266" width="284" height="10" fill="#ff0"/>
<text x="20" y="295" class="sm">9.202e-06</text>
<rect x="100" y="285" width="485" height="12" fill="#00f"/>
<rect x="750" y="285" width="149" height="12" fill="#00f"/>
<line x1="585" y1="291" x2="749" y2="291" stroke="#00f"/>
<rect x="106" y="286" width="284" height="10" fill="#ff0"/>
<text x="20" y="315" class="sm">8.411e-06</text>
<rect x="100" y="305" width="514" height="12" fill="#00f"/>
<rect x="750" y="305" width="149" height="12" fill="#00f"/>
<line x1="614" y1="311" x2="749" y2="311" stroke="#00f"/>
<rect x="106" y="306" width="284" height="10" fill="#ff0"/>
<text x="20" y="335" class="sm">5.033e-06</text>
<rect x="100" y="325" width="230" height="12" fill="#00f"/>
<rect x="429" y="325" width="470" height="12" fill="#00f"/>
<line x1="330" y1="331" x2="428" y2="331" stroke="#00f"/>
<rect x="106" y="326" width="224" height="10" fill="#ff0"/>
<rect x="430" y="326" width="209" height="10" fill="#ff0"/>
<text x="20" y="355" class="sm">4.04e-06</text>
<rect x="100" y="345" width="177" height="12" fill="#00f"/>
<rect x="328" y="345" width="571" height="12" fill="#00f"/>
<line x1="277" y1="351" x2="327" y2="351" stroke="#00f"/>
<rect x="106" y="346" width="171" height="10" fill="#ff0"/>
<rect x="329" y="346" width="61" height="10" fill="#ff0"/>
<text x="20" y="375" class="sm">3.693e-06</text>
<rect x="100" y="365" width="260" height="12" fill="#00f"/>
<rect x="429" y="365" width="470" height="12" fill="#00f"/>
<line x1="360" y1="371" x2="428" y2="371" stroke="#00f"/>
<rect x="106" y="366" width="254" height="10" fill="#ff0"/>
<rect x="430" y="366" width="209" height="10" fill="#ff0"/>
<text x="20" y="395" class="sm">2.633e-06</text>
<rect x="100" y="385" width="171" height="12" fill="#00f"/>
<rect x="429" y="385" width="470" height="12" fill="#00f"/>
<line x1="271" y1="391" x2="428" y2="391" stroke="#00f"/>
<rect x="248" y="386" width="23" height="10" fill="#ff0"/>
<rect x="430" y="386" width="209" height="10" fill="#ff0"/>
<text x="20" y="415" class="sm">2.431e-06</text>
<rect x="100" y="405" width="72" height="12" fill="#00f"/>
<rect x="217" y="405" width="682" height="12" fill="#00f"/>
<line x1="172" y1="411" x2="216" y2="411" stroke="#00f"/>
<rect x="106" y="406" width="66" height="10" fill="#ff0"/>
<rect x="218" y="406" width="172" height="10" fill="#ff0"/>
<text x="20" y="435" class="sm">2.053e-06</text>
<rect x="100" y="425" width="171" height="12" fill="#00f"/>
<rect x="328" y="425" width="571" height="12" fill="#00f"/>
<line x1="271" y1="431" x2="327" y2="431" stroke="#00f"/>
<rect x="106" y="426" width="165" height="10" fill="#ff0"/>
<rect x="329" y="426" width="61" height="10" fill="#ff0"/>
<text x="20" y="455" class="sm">1.49e-06</text>
<rect x="100" y="445" width="128" height="12" fill="#00f"/>
<rect x="278" y="445" width="621" height="12" fill="#00f"/>
<line x1="228" y1="451" x2="277" y2="451" stroke="#00f"/>
<rect x="457" y="446" width="182" height="10" fill="#ff0"/>
<text x="20" y="475" class="sm">1.347e-06</text>
<rect x="100" y="465" width="520" height="12" fill="#00f"/>
<rect x="750" y="465" width="149" height="12" fill="#00f"/>
<line x1="620" y1="471" x2="749" y2="471" stroke="#00f"/>
<rect x="106" y="466" width="284" height="10" fill="#ff0"/>
<text x="20" y="495" class="sm">1.158e-06</text>
<rect x="100" y="485" width="177" height="12" fill="#00f"/>
<rect x="429" y="485" width="470" height="12" fill="#00f"/>
<line x1="277" y1="491" x2="428" y2="491" stroke="#00f"/>
<rect x="248" y="486" width="29" height="10" fill="#ff0"/>
<rect x="430" y="486" width="209" height="10" fill="#ff0"/>
<text x="20" y="515" class="sm">1.04e-06</text>
<rect x="100" y="505" width="281" height="12" fill="#00f"/>
<rect x="452" y="505" width="447" height="12" fill="#00f"/>
<line x1="381" y1="511" x2="451" y2="511" stroke="#00f"/>
<rect x="106" y="506" width="275" height="10" fill="#ff0"/>
<rect x="453" y="506" width="32" height="10" fill="#ff0"/>
<text x="20" y="535" class="sm">8.066e-07</text>
<rect x="100" y="525" width="436" height="12" fill="#00f"/>
<rect x="750" y="525" width="149" height="12" fill="#00f"/>
<line x1="536" y1="531" x2="749" y2="531" stroke="#00f"/>
<rect x="106" y="526" width="284" height="10" fill="#ff0"/>
<text x="20" y="555" class="sm">7.297e-07</text>
<rect x="100" y="545" width="381" height="12" fill="#00f"/>
<rect x="521" y="545" width="378" height="12" fill="#00f"/>
<line x1="481" y1="551" x2="520" y2="551" stroke="#00f"/>
<rect x="106" y="546" width="284" height="10" fill="#ff0"/>
<text x="20" y="575" class="sm">4.838e-07</text>
<rect x="100" y="565" width="420" height="12" fill="#00f"/>
<rect x="750" y="565" width="149" height="12" fill="#00f"/>
<line x1="520" y1="571" x2="749" y2="571" stroke="#00f"/>
<rect x="106" y="566" width="284" height="10" fill="#ff0"/>
</svg>
