<svg viewBox="0 0 669 525" xmlns="http://www.w3.org/2000/svg">

<style>
  .sm { font: 12px sans-serif; }
  .lg { font: 15px sans-serif; }
</style>
<rect fill="#ddd" x="0" y="0" width="100%" height="100%"/>
<text x="20" y="20" class="lg">ch.9902 IV:4658949-4659617 Gene:WBGene00017924</text>
<text x="20" y="50" class="sm">WormBase</text>
<rect x="102" y="40" width="152" height="12" fill="#00f"/>
<rect x="307" y="40" width="264" height="12" fill="#00f"/>
<line x1="254" y1="46" x2="306" y2="46" stroke="#00f"/>
<rect x="103" y="41" width="151" height="10" fill="#ff0"/>
<rect x="308" y="41" width="189" height="10" fill="#ff0"/>
<rect x="498" y="41" width="73" height="10" fill="brown"><title>.</title></rect>
<text x="20" y="70" class="sm">Fitness: 0.0017996193640633954</text>
<rect x="254" y="65" width="53" height="5" fill="#00f"><title>463918.0</title></rect>
<rect x="54" y="70" width="48" height="5" fill="#00f"><title>408.0</title></rect>
<rect x="254" y="75" width="67" height="5" fill="#00f"><title>94.0</title></rect>
<rect x="41" y="80" width="78" height="5" fill="#00f"><title>7.0</title></rect>
<rect x="254" y="85" width="37" height="5" fill="#00f"><title>3.0</title></rect>
<text x="20" y="115" class="sm">0.9989</text>
<rect x="100" y="105" width="154" height="12" fill="#00f"/>
<rect x="307" y="105" width="265" height="12" fill="#00f"/>
<line x1="254" y1="111" x2="306" y2="111" stroke="#00f"/>
<rect x="103" y="106" width="151" height="10" fill="#ff0"/>
<rect x="308" y="106" width="189" height="10" fill="#ff0"/>
<text x="20" y="135" class="sm">0.0004858</text>
<rect x="100" y="125" width="125" height="12" fill="#00f"/>
<rect x="307" y="125" width="265" height="12" fill="#00f"/>
<line x1="225" y1="131" x2="306" y2="131" stroke="#00f"/>
<rect x="103" y="126" width="122" height="10" fill="#ff0"/>
<rect x="308" y="126" width="257" height="10" fill="#ff0"/>
<text x="20" y="155" class="sm">0.000225</text>
<rect x="100" y="145" width="154" height="12" fill="#00f"/>
<rect x="321" y="145" width="251" height="12" fill="#00f"/>
<line x1="254" y1="151" x2="320" y2="151" stroke="#00f"/>
<rect x="103" y="146" width="151" height="10" fill="#ff0"/>
<rect x="322" y="146" width="243" height="10" fill="#ff0"/>
<text x="20" y="175" class="sm">0.0001503</text>
<rect x="100" y="165" width="104" height="12" fill="#00f"/>
<rect x="307" y="165" width="265" height="12" fill="#00f"/>
<line x1="204" y1="171" x2="306" y2="171" stroke="#00f"/>
<rect x="103" y="166" width="101" height="10" fill="#ff0"/>
<rect x="308" y="166" width="257" height="10" fill="#ff0"/>
<text x="20" y="195" class="sm">4.419e-05</text>
<rect x="100" y="185" width="43" height="12" fill="#00f"/>
<rect x="307" y="185" width="265" height="12" fill="#00f"/>
<line x1="143" y1="191" x2="306" y2="191" stroke="#00f"/>
<rect x="103" y="186" width="40" height="10" fill="#ff0"/>
<rect x="308" y="186" width="189" height="10" fill="#ff0"/>
<text x="20" y="215" class="sm">4.385e-05</text>
<rect x="100" y="205" width="125" height="12" fill="#00f"/>
<rect x="277" y="205" width="295" height="12" fill="#00f"/>
<line x1="225" y1="211" x2="276" y2="211" stroke="#00f"/>
<rect x="312" y="206" width="185" height="10" fill="#ff0"/>
<text x="20" y="235" class="sm">2.69e-05</text>
<rect x="100" y="225" width="110" height="12" fill="#00f"/>
<rect x="307" y="225" width="265" height="12" fill="#00f"/>
<line x1="210" y1="231" x2="306" y2="231" stroke="#00f"/>
<rect x="103" y="226" width="107" height="10" fill="#ff0"/>
<rect x="308" y="226" width="257" height="10" fill="#ff0"/>
<text x="20" y="255" class="sm">2.681e-05</text>
<rect x="100" y="245" width="385" height="12" fill="#00f"/>
<rect x="526" y="245" width="46" height="12" fill="#00f"/>
<line x1="485" y1="251" x2="525" y2="251" stroke="#00f"/>
<rect x="312" y="246" width="173" height="10" fill="#ff0"/>
<rect x="527" y="246" width="38" height="10" fill="#ff0"/>
<text x="20" y="275" class="sm">2.315e-05</text>
<rect x="100" y="265" width="43" height="12" fill="#00f"/>
<rect x="188" y="265" width="384" height="12" fill="#00f"/>
<line x1="143" y1="271" x2="187" y2="271" stroke="#00f"/>
<rect x="312" y="266" width="185" height="10" fill="#ff0"/>
<text x="20" y="295" class="sm">1.572e-05</text>
<rect x="100" y="285" width="125" height="12" fill="#00f"/>
<rect x="321" y="285" width="251" height="12" fill="#00f"/>
<line x1="225" y1="291" x2="320" y2="291" stroke="#00f"/>
<rect x="221" y="286" width="4" height="10" fill="#ff0"/>
<rect x="322" y="286" width="243" height="10" fill="#ff0"/>
<text x="20" y="315" class="sm">7.97e-06</text>
<rect x="100" y="305" width="104" height="12" fill="#00f"/>
<rect x="321" y="305" width="251" height="12" fill="#00f"/>
<line x1="204" y1="311" x2="320" y2="311" stroke="#00f"/>
<rect x="327" y="306" width="170" height="10" fill="#ff0"/>
<text x="20" y="335" class="sm">1.96e-06</text>
<rect x="100" y="325" width="43" height="12" fill="#00f"/>
<rect x="321" y="325" width="251" height="12" fill="#00f"/>
<line x1="143" y1="331" x2="320" y2="331" stroke="#00f"/>
<rect x="103" y="326" width="40" height="10" fill="#ff0"/>
<rect x="322" y="326" width="243" height="10" fill="#ff0"/>
<text x="20" y="355" class="sm">1.948e-06</text>
<rect x="100" y="345" width="154" height="12" fill="#00f"/>
<rect x="362" y="345" width="210" height="12" fill="#00f"/>
<line x1="254" y1="351" x2="361" y2="351" stroke="#00f"/>
<rect x="221" y="346" width="33" height="10" fill="#ff0"/>
<rect x="363" y="346" width="202" height="10" fill="#ff0"/>
<text x="20" y="375" class="sm">1.535e-06</text>
<rect x="100" y="365" width="110" height="12" fill="#00f"/>
<rect x="321" y="365" width="251" height="12" fill="#00f"/>
<line x1="210" y1="371" x2="320" y2="371" stroke="#00f"/>
<rect x="327" y="366" width="170" height="10" fill="#ff0"/>
<text x="20" y="395" class="sm">5.403e-07</text>
<rect x="100" y="385" width="362" height="12" fill="#00f"/>
<rect x="509" y="385" width="63" height="12" fill="#00f"/>
<line x1="462" y1="391" x2="508" y2="391" stroke="#00f"/>
<rect x="103" y="386" width="209" height="10" fill="#ff0"/>
<text x="20" y="415" class="sm">4.966e-07</text>
<rect x="100" y="405" width="125" height="12" fill="#00f"/>
<rect x="362" y="405" width="210" height="12" fill="#00f"/>
<line x1="225" y1="411" x2="361" y2="411" stroke="#00f"/>
<rect x="103" y="406" width="122" height="10" fill="#ff0"/>
<rect x="363" y="406" width="134" height="10" fill="#ff0"/>
<text x="20" y="435" class="sm">2.954e-07</text>
<rect x="100" y="425" width="104" height="12" fill="#00f"/>
<rect x="254" y="425" width="318" height="12" fill="#00f"/>
<line x1="204" y1="431" x2="253" y2="431" stroke="#00f"/>
<rect x="312" y="426" width="185" height="10" fill="#ff0"/>
<text x="20" y="455" class="sm">2.812e-07</text>
<rect x="100" y="445" width="125" height="12" fill="#00f"/>
<rect x="291" y="445" width="281" height="12" fill="#00f"/>
<line x1="225" y1="451" x2="290" y2="451" stroke="#00f"/>
<rect x="312" y="446" width="185" height="10" fill="#ff0"/>
<text x="20" y="475" class="sm">2.569e-07</text>
<rect x="100" y="465" width="104" height="12" fill="#00f"/>
<rect x="362" y="465" width="210" height="12" fill="#00f"/>
<line x1="204" y1="471" x2="361" y2="471" stroke="#00f"/>
<rect x="103" y="466" width="101" height="10" fill="#ff0"/>
<rect x="363" y="466" width="134" height="10" fill="#ff0"/>
<text x="20" y="495" class="sm">2.183e-07</text>
<rect x="100" y="485" width="154" height="12" fill="#00f"/>
<rect x="291" y="485" width="281" height="12" fill="#00f"/>
<line x1="254" y1="491" x2="290" y2="491" stroke="#00f"/>
<rect x="312" y="486" width="185" height="10" fill="#ff0"/>
</svg>
