<svg viewBox="0 0 943 505" xmlns="http://www.w3.org/2000/svg">

<style>
  .sm { font: 12px sans-serif; }
  .lg { font: 15px sans-serif; }
</style>
<rect fill="#ddd" x="0" y="0" width="100%" height="100%"/>
<text x="20" y="20" class="lg">ch.9833 IV:4292769-4293711 Gene:WBGene00044479</text>
<text x="20" y="50" class="sm">WormBase</text>
<rect x="100" y="40" width="334" height="12" fill="#00f"/>
<rect x="683" y="40" width="160" height="12" fill="#00f"/>
<line x1="434" y1="46" x2="682" y2="46" stroke="#00f"/>
<rect x="332" y="41" width="102" height="10" fill="#ff0"/>
<rect x="684" y="41" width="100" height="10" fill="#ff0"/>
<rect x="101" y="41" width="230" height="10" fill="brown"><title>.</title></rect>
<rect x="785" y="41" width="58" height="10" fill="brown"><title>.</title></rect>
<text x="20" y="70" class="sm">Fitness: 0.009632617906510271</text>
<rect x="434" y="65" width="249" height="5" fill="#00f"><title>100282.0</title></rect>
<text x="20" y="95" class="sm">0.9952</text>
<rect x="100" y="85" width="334" height="12" fill="#00f"/>
<rect x="683" y="85" width="163" height="12" fill="#00f"/>
<line x1="434" y1="91" x2="682" y2="91" stroke="#00f"/>
<rect x="332" y="86" width="102" height="10" fill="#ff0"/>
<rect x="684" y="86" width="100" height="10" fill="#ff0"/>
<text x="20" y="115" class="sm">0.002197</text>
<rect x="100" y="105" width="334" height="12" fill="#00f"/>
<rect x="764" y="105" width="82" height="12" fill="#00f"/>
<line x1="434" y1="111" x2="763" y2="111" stroke="#00f"/>
<rect x="332" y="106" width="102" height="10" fill="#ff0"/>
<rect x="765" y="106" width="19" height="10" fill="#ff0"/>
<text x="20" y="135" class="sm">0.0008263</text>
<rect x="100" y="125" width="175" height="12" fill="#00f"/>
<rect x="683" y="125" width="163" height="12" fill="#00f"/>
<line x1="275" y1="131" x2="682" y2="131" stroke="#00f"/>
<rect x="272" y="126" width="3" height="10" fill="#ff0"/>
<rect x="684" y="126" width="100" height="10" fill="#ff0"/>
<text x="20" y="155" class="sm">0.0004345</text>
<rect x="100" y="145" width="91" height="12" fill="#00f"/>
<rect x="683" y="145" width="163" height="12" fill="#00f"/>
<line x1="191" y1="151" x2="682" y2="151" stroke="#00f"/>
<rect x="781" y="146" width="47" height="10" fill="#ff0"/>
<text x="20" y="175" class="sm">0.0003639</text>
<rect x="100" y="165" width="334" height="12" fill="#00f"/>
<rect x="502" y="165" width="344" height="12" fill="#00f"/>
<line x1="434" y1="171" x2="501" y2="171" stroke="#00f"/>
<rect x="332" y="166" width="102" height="10" fill="#ff0"/>
<rect x="503" y="166" width="7" height="10" fill="#ff0"/>
<text x="20" y="195" class="sm">0.0003394</text>
<rect x="100" y="185" width="127" height="12" fill="#00f"/>
<rect x="683" y="185" width="163" height="12" fill="#00f"/>
<line x1="227" y1="191" x2="682" y2="191" stroke="#00f"/>
<rect x="781" y="186" width="47" height="10" fill="#ff0"/>
<text x="20" y="215" class="sm">0.0002009</text>
<rect x="100" y="205" width="318" height="12" fill="#00f"/>
<rect x="683" y="205" width="163" height="12" fill="#00f"/>
<line x1="418" y1="211" x2="682" y2="211" stroke="#00f"/>
<rect x="186" y="206" width="56" height="10" fill="#ff0"/>
<text x="20" y="235" class="sm">0.0001303</text>
<rect x="100" y="225" width="442" height="12" fill="#00f"/>
<rect x="683" y="225" width="163" height="12" fill="#00f"/>
<line x1="542" y1="231" x2="682" y2="231" stroke="#00f"/>
<rect x="332" y="226" width="119" height="10" fill="#ff0"/>
<text x="20" y="255" class="sm">0.0001119</text>
<rect x="100" y="245" width="334" height="12" fill="#00f"/>
<rect x="588" y="245" width="258" height="12" fill="#00f"/>
<line x1="434" y1="251" x2="587" y2="251" stroke="#00f"/>
<rect x="186" y="246" width="56" height="10" fill="#ff0"/>
<text x="20" y="275" class="sm">7.739e-05</text>
<rect x="100" y="265" width="338" height="12" fill="#00f"/>
<rect x="683" y="265" width="163" height="12" fill="#00f"/>
<line x1="438" y1="271" x2="682" y2="271" stroke="#00f"/>
<rect x="332" y="266" width="106" height="10" fill="#ff0"/>
<rect x="684" y="266" width="15" height="10" fill="#ff0"/>
<text x="20" y="295" class="sm">3.904e-05</text>
<rect x="100" y="285" width="65" height="12" fill="#00f"/>
<rect x="683" y="285" width="163" height="12" fill="#00f"/>
<line x1="165" y1="291" x2="682" y2="291" stroke="#00f"/>
<rect x="781" y="286" width="47" height="10" fill="#ff0"/>
<text x="20" y="315" class="sm">2.818e-05</text>
<rect x="100" y="305" width="293" height="12" fill="#00f"/>
<rect x="683" y="305" width="163" height="12" fill="#00f"/>
<line x1="393" y1="311" x2="682" y2="311" stroke="#00f"/>
<rect x="332" y="306" width="61" height="10" fill="#ff0"/>
<rect x="684" y="306" width="15" height="10" fill="#ff0"/>
<text x="20" y="335" class="sm">2.178e-05</text>
<rect x="100" y="325" width="149" height="12" fill="#00f"/>
<rect x="683" y="325" width="163" height="12" fill="#00f"/>
<line x1="249" y1="331" x2="682" y2="331" stroke="#00f"/>
<rect x="186" y="326" width="56" height="10" fill="#ff0"/>
<text x="20" y="355" class="sm">1.881e-05</text>
<rect x="100" y="345" width="279" height="12" fill="#00f"/>
<rect x="683" y="345" width="163" height="12" fill="#00f"/>
<line x1="379" y1="351" x2="682" y2="351" stroke="#00f"/>
<rect x="186" y="346" width="56" height="10" fill="#ff0"/>
<text x="20" y="375" class="sm">1.429e-05</text>
<rect x="100" y="365" width="161" height="12" fill="#00f"/>
<rect x="683" y="365" width="163" height="12" fill="#00f"/>
<line x1="261" y1="371" x2="682" y2="371" stroke="#00f"/>
<rect x="186" y="366" width="56" height="10" fill="#ff0"/>
<text x="20" y="395" class="sm">2.471e-06</text>
<rect x="100" y="385" width="173" height="12" fill="#00f"/>
<rect x="683" y="385" width="163" height="12" fill="#00f"/>
<line x1="273" y1="391" x2="682" y2="391" stroke="#00f"/>
<rect x="186" y="386" width="56" height="10" fill="#ff0"/>
<text x="20" y="415" class="sm">1.977e-06</text>
<rect x="100" y="405" width="175" height="12" fill="#00f"/>
<rect x="764" y="405" width="82" height="12" fill="#00f"/>
<line x1="275" y1="411" x2="763" y2="411" stroke="#00f"/>
<rect x="186" y="406" width="56" height="10" fill="#ff0"/>
<text x="20" y="435" class="sm">1.532e-06</text>
<rect x="100" y="425" width="282" height="12" fill="#00f"/>
<rect x="683" y="425" width="163" height="12" fill="#00f"/>
<line x1="382" y1="431" x2="682" y2="431" stroke="#00f"/>
<rect x="186" y="426" width="56" height="10" fill="#ff0"/>
<text x="20" y="455" class="sm">1.054e-06</text>
<rect x="100" y="445" width="91" height="12" fill="#00f"/>
<rect x="764" y="445" width="82" height="12" fill="#00f"/>
<line x1="191" y1="451" x2="763" y2="451" stroke="#00f"/>
<rect x="781" y="446" width="47" height="10" fill="#ff0"/>
<text x="20" y="475" class="sm">7.79e-07</text>
<rect x="100" y="465" width="127" height="12" fill="#00f"/>
<rect x="764" y="465" width="82" height="12" fill="#00f"/>
<line x1="227" y1="471" x2="763" y2="471" stroke="#00f"/>
<rect x="781" y="466" width="47" height="10" fill="#ff0"/>
</svg>
